<?xml version="1.0" encoding="UTF-8" standalone="no"?>
<svg
   xmlns:dc="http://purl.org/dc/elements/1.1/"
   xmlns:cc="http://creativecommons.org/ns#"
   xmlns:rdf="http://www.w3.org/1999/02/22-rdf-syntax-ns#"
   xmlns:svg="http://www.w3.org/2000/svg"
   xmlns="http://www.w3.org/2000/svg"
   xmlns:sodipodi="http://sodipodi.sourceforge.net/DTD/sodipodi-0.dtd"
   xmlns:inkscape="http://www.inkscape.org/namespaces/inkscape"
   width="24"
   height="24"
   viewBox="0 0 24 24"
   fill="none"
   version="1.1"
   id="svg13"
   sodipodi:docname="icon-configure.svg"
   inkscape:version="1.0.2 (e86c870879, 2021-01-15)">
  <metadata
     id="metadata17">
    <rdf:RDF>
      <cc:Work
         rdf:about="">
        <dc:format>image/svg+xml</dc:format>
        <dc:type
           rdf:resource="http://purl.org/dc/dcmitype/StillImage" />
      </cc:Work>
    </rdf:RDF>
  </metadata>
  <sodipodi:namedview
     pagecolor="#ffffff"
     bordercolor="#666666"
     borderopacity="1"
     objecttolerance="10"
     gridtolerance="10"
     guidetolerance="10"
     inkscape:pageopacity="0"
     inkscape:pageshadow="2"
     inkscape:window-width="1361"
     inkscape:window-height="1091"
     id="namedview15"
     showgrid="false"
     inkscape:zoom="29.791667"
     inkscape:cx="12"
     inkscape:cy="12"
     inkscape:window-x="0"
     inkscape:window-y="0"
     inkscape:window-maximized="0"
     inkscape:current-layer="svg13" />
  <path
     style="color:#000000;font-style:normal;font-variant:normal;font-weight:normal;font-stretch:normal;font-size:medium;line-height:normal;font-family:sans-serif;font-variant-ligatures:normal;font-variant-position:normal;font-variant-caps:normal;font-variant-numeric:normal;font-variant-alternates:normal;font-variant-east-asian:normal;font-feature-settings:normal;font-variation-settings:normal;text-indent:0;text-align:start;text-decoration:none;text-decoration-line:none;text-decoration-style:solid;text-decoration-color:#000000;letter-spacing:normal;word-spacing:normal;text-transform:none;writing-mode:lr-tb;direction:ltr;text-orientation:mixed;dominant-baseline:auto;baseline-shift:baseline;text-anchor:start;white-space:normal;shape-padding:0;shape-margin:0;inline-size:0;clip-rule:nonzero;display:inline;overflow:visible;visibility:visible;isolation:auto;mix-blend-mode:normal;color-interpolation:sRGB;color-interpolation-filters:linearRGB;solid-color:#000000;solid-opacity:1;vector-effect:none;fill:#000000;fill-opacity:1;fill-rule:nonzero;stroke:none;stroke-linecap:round;stroke-linejoin:round;stroke-miterlimit:4;stroke-dasharray:none;stroke-dashoffset:0;stroke-opacity:1;color-rendering:auto;image-rendering:auto;shape-rendering:auto;text-rendering:auto;enable-background:accumulate;stop-color:#000000;stop-opacity:1;opacity:1"
     d="M 12 8 C 9.8026932 8 8 9.8026932 8 12 C 8 14.197307 9.8026932 16 12 16 C 14.197307 16 16 14.197307 16 12 C 16 9.8026932 14.197307 8 12 8 z M 12 10 C 13.116493 10 14 10.883507 14 12 C 14 13.116493 13.116493 14 12 14 C 10.883507 14 10 13.116493 10 12 C 10 10.883507 10.883507 10 12 10 z "
     id="path2" />
  <path
     style="color:#000000;font-style:normal;font-variant:normal;font-weight:normal;font-stretch:normal;font-size:medium;line-height:normal;font-family:sans-serif;font-variant-ligatures:normal;font-variant-position:normal;font-variant-caps:normal;font-variant-numeric:normal;font-variant-alternates:normal;font-variant-east-asian:normal;font-feature-settings:normal;font-variation-settings:normal;text-indent:0;text-align:start;text-decoration:none;text-decoration-line:none;text-decoration-style:solid;text-decoration-color:#000000;letter-spacing:normal;word-spacing:normal;text-transform:none;writing-mode:lr-tb;direction:ltr;text-orientation:mixed;dominant-baseline:auto;baseline-shift:baseline;text-anchor:start;white-space:normal;shape-padding:0;shape-margin:0;inline-size:0;clip-rule:nonzero;display:inline;overflow:visible;visibility:visible;isolation:auto;mix-blend-mode:normal;color-interpolation:sRGB;color-interpolation-filters:linearRGB;solid-color:#000000;solid-opacity:1;vector-effect:none;fill:#000000;fill-opacity:1;fill-rule:nonzero;stroke:none;stroke-linecap:round;stroke-linejoin:round;stroke-miterlimit:4;stroke-dasharray:none;stroke-dashoffset:0;stroke-opacity:1;color-rendering:auto;image-rendering:auto;shape-rendering:auto;text-rendering:auto;enable-background:accumulate;stop-color:#000000;stop-opacity:1;opacity:1"
     d="M 12 0 C 11.204756 -5.5486322e-17 10.441253 0.31658979 9.8789062 0.87890625 C 9.3165121 1.4412554 9 2.2047534 9 3 L 9 3.1699219 C 8.9987632 3.2954248 8.9619136 3.4167905 8.8925781 3.5214844 C 8.8368173 3.6056858 8.7508779 3.6627745 8.6640625 3.7128906 A 1.0001 1.0001 0 0 0 8.515625 3.765625 C 8.3967242 3.8181019 8.2665852 3.83374 8.1386719 3.8105469 C 8.0108113 3.7873665 7.8917389 3.72565 7.7988281 3.6347656 L 7.7480469 3.5839844 C 7.4694508 3.3050884 7.1376335 3.082614 6.7734375 2.9316406 C 6.4092447 2.7806686 6.0192204 2.703125 5.625 2.703125 C 5.2307796 2.703125 4.8407553 2.7806686 4.4765625 2.9316406 C 4.1132079 3.0822652 3.7820995 3.3040452 3.5039062 3.5820312 C 3.2250102 3.8606273 3.0025359 4.1924446 2.8515625 4.5566406 C 2.7005905 4.9208334 2.6230469 5.3108577 2.6230469 5.7050781 C 2.6230469 6.0992985 2.7005905 6.4893228 2.8515625 6.8535156 C 3.0025359 7.2177117 3.2250102 7.549529 3.5039062 7.828125 L 3.5546875 7.8789062 C 3.6455719 7.971817 3.7072884 8.0908895 3.7304688 8.21875 C 3.7536619 8.3466633 3.7380237 8.4768023 3.6855469 8.5957031 A 1.0001 1.0001 0 0 0 3.6621094 8.6542969 C 3.6170654 8.7767765 3.5358733 8.8830348 3.4296875 8.9589844 C 3.3234568 9.0349632 3.196723 9.0770465 3.0664062 9.0800781 L 3 9.0800781 C 2.2047534 9.0800781 1.4412554 9.3965902 0.87890625 9.9589844 C 0.31658979 10.521331 -1.4802974e-16 11.284834 0 12.080078 C -5.5486322e-17 12.875322 0.31658979 13.638825 0.87890625 14.201172 C 1.4412554 14.763566 2.2047534 15.080078 3 15.080078 L 3.1699219 15.080078 C 3.295564 15.081323 3.4168786 15.118215 3.5214844 15.1875 C 3.6273615 15.257627 3.7117624 15.358034 3.7617188 15.474609 A 1.0001 1.0001 0 0 0 3.765625 15.484375 C 3.8180766 15.603211 3.8337381 15.733425 3.8105469 15.861328 C 3.7873676 15.989187 3.725721 16.108181 3.6347656 16.201172 L 3.5839844 16.251953 C 3.3049624 16.5306 3.0826028 16.862393 2.9316406 17.226562 C 2.78065 17.5908 2.703125 17.980795 2.703125 18.375 C 2.703125 18.769205 2.78065 19.1592 2.9316406 19.523438 C 3.0822541 19.886765 3.3039202 20.21785 3.5820312 20.496094 C 3.5824169 20.49648 3.5835985 20.495708 3.5839844 20.496094 C 3.5843703 20.49648 3.5835982 20.497661 3.5839844 20.498047 C 3.8622408 20.77617 4.1932046 20.997854 4.5566406 21.148438 C 4.9209229 21.299522 5.3108577 21.376953 5.7050781 21.376953 C 6.0992985 21.376953 6.4892334 21.299522 6.8535156 21.148438 C 7.2177932 20.997505 7.5494659 20.775128 7.828125 20.496094 L 7.8789062 20.445312 C 7.9718848 20.354377 8.0890555 20.292686 8.2167969 20.269531 C 8.3447442 20.24634 8.4767782 20.261973 8.5957031 20.314453 A 1.0001 1.0001 0 0 0 8.6542969 20.337891 C 8.7768722 20.382978 8.8830562 20.464153 8.9589844 20.570312 C 9.03497 20.676553 9.0770462 20.803262 9.0800781 20.933594 L 9.0800781 21 C 9.0800781 21.795232 9.3966296 22.558739 9.9589844 23.121094 C 10.521339 23.683449 11.284847 24 12.080078 24 C 12.87531 24 13.638817 23.683449 14.201172 23.121094 C 14.763527 22.558739 15.080078 21.795232 15.080078 21 L 15.080078 20.833984 L 15.080078 20.830078 C 15.081323 20.70442 15.11821 20.583133 15.1875 20.478516 C 15.257576 20.372712 15.357808 20.28835 15.474609 20.238281 A 1.0001 1.0001 0 0 0 15.484375 20.234375 C 15.603235 20.181921 15.733391 20.166264 15.861328 20.189453 C 15.989068 20.212607 16.108113 20.274228 16.201172 20.365234 L 16.251953 20.416016 C 16.530663 20.695176 16.862312 20.917438 17.226562 21.068359 C 17.59089 21.219462 17.980795 21.296875 18.375 21.296875 C 18.769205 21.296875 19.15911 21.219462 19.523438 21.068359 C 19.886847 20.917787 20.217787 20.696217 20.496094 20.417969 L 20.496094 20.416016 C 20.774708 20.137547 20.997725 19.807106 21.148438 19.443359 C 21.29954 19.079032 21.376953 18.689127 21.376953 18.294922 C 21.376953 17.900716 21.29954 17.510811 21.148438 17.146484 C 20.997865 16.783075 20.776295 16.452135 20.498047 16.173828 L 20.496094 16.171875 L 20.445312 16.121094 C 20.354307 16.028035 20.292685 15.910943 20.269531 15.783203 C 20.246342 15.655266 20.261999 15.523157 20.314453 15.404297 A 1.0001 1.0001 0 0 0 20.318359 15.394531 C 20.368428 15.27773 20.45279 15.177498 20.558594 15.107422 C 20.663212 15.038132 20.784498 15.001245 20.910156 15 L 21 15 C 21.795232 15 22.558739 14.683449 23.121094 14.121094 C 23.683449 13.558739 24 12.795232 24 12 C 24 11.204768 23.683449 10.441261 23.121094 9.8789062 C 22.558739 9.3165515 21.795232 9 21 9 L 20.833984 9 C 20.707124 8.9994954 20.584287 8.9626243 20.478516 8.8925781 C 20.394373 8.836858 20.33727 8.7509699 20.287109 8.6640625 A 1.0001 1.0001 0 0 0 20.234375 8.515625 C 20.181895 8.3967001 20.166262 8.2666192 20.189453 8.1386719 C 20.212608 8.0109305 20.274299 7.8918067 20.365234 7.7988281 L 20.416016 7.7480469 C 20.69505 7.4693878 20.917427 7.1377151 21.068359 6.7734375 C 21.219443 6.4091553 21.296875 6.0192204 21.296875 5.625 C 21.296875 5.2307796 21.219443 4.8408447 21.068359 4.4765625 C 20.917776 4.1131265 20.696092 3.7821627 20.417969 3.5039062 C 20.139322 3.2248843 19.807528 3.0025247 19.443359 2.8515625 C 19.079122 2.7005719 18.689127 2.6230469 18.294922 2.6230469 C 17.900716 2.6230469 17.510722 2.7005719 17.146484 2.8515625 C 16.782315 3.0025247 16.450522 3.2248843 16.171875 3.5039062 L 16.121094 3.5546875 C 16.028103 3.6456429 15.909109 3.7072895 15.78125 3.7304688 C 15.653347 3.75366 15.523133 3.7379985 15.404297 3.6855469 A 1.0001 1.0001 0 0 0 15.394531 3.6816406 C 15.277956 3.6316843 15.177549 3.5472834 15.107422 3.4414062 C 15.038137 3.3368005 15.001245 3.2154858 15 3.0898438 L 15 3 C 15 2.2047534 14.683488 1.4412554 14.121094 0.87890625 C 13.558747 0.31658979 12.795244 -7.4014868e-17 12 0 z M 12 2 C 12.265556 2 12.519178 2.1051252 12.707031 2.2929688 C 12.894837 2.4807596 13 2.7343866 13 3 L 13 3.0898438 A 1.0001 1.0001 0 0 0 13 3.09375 C 13.002087 3.6103412 13.155996 4.1159648 13.441406 4.546875 C 13.725645 4.9760156 14.128766 5.3118269 14.601562 5.515625 C 15.084509 5.7274929 15.619726 5.7913606 16.138672 5.6972656 C 16.659613 5.6028249 17.141122 5.3544996 17.519531 4.984375 A 1.0001 1.0001 0 0 0 17.527344 4.9765625 L 17.587891 4.9179688 A 1.0001 1.0001 0 0 0 17.587891 4.9160156 C 17.680644 4.8231376 17.790678 4.7495566 17.912109 4.6992188 C 18.033472 4.6489094 18.163527 4.6230469 18.294922 4.6230469 C 18.426316 4.6230469 18.556372 4.6489094 18.677734 4.6992188 C 18.799165 4.7495566 18.9092 4.8231376 19.001953 4.9160156 A 1.0001 1.0001 0 0 0 19.003906 4.9179688 C 19.096872 5.0108097 19.170435 5.1208651 19.220703 5.2421875 C 19.271019 5.3635053 19.296875 5.4935604 19.296875 5.625 C 19.296875 5.7564396 19.271019 5.8864947 19.220703 6.0078125 C 19.170435 6.1291349 19.096872 6.2391903 19.003906 6.3320312 A 1.0001 1.0001 0 0 0 19.001953 6.3320312 L 18.943359 6.3925781 A 1.0001 1.0001 0 0 0 18.935547 6.4003906 C 18.565482 6.778772 18.317101 7.2602114 18.222656 7.78125 C 18.128248 8.3021027 18.190577 8.8399037 18.404297 9.3242188 L 18.320312 8.9199219 L 18.320312 9 A 1.0001 1.0001 0 0 0 18.400391 9.3945312 C 18.603909 9.869253 18.94212 10.273231 19.373047 10.558594 C 19.803876 10.843908 20.309433 10.997945 20.826172 11 A 1.0001 1.0001 0 0 0 20.830078 11 L 21 11 C 21.265568 11 21.519186 11.105124 21.707031 11.292969 C 21.894876 11.480814 22 11.734432 22 12 C 22 12.265568 21.894876 12.519186 21.707031 12.707031 C 21.519186 12.894876 21.265568 13 21 13 L 20.910156 13 A 1.0001 1.0001 0 0 0 20.90625 13 C 20.389655 13.002087 19.884043 13.156001 19.453125 13.441406 C 19.023891 13.725695 18.68814 14.128989 18.484375 14.601562 C 18.272549 15.084484 18.208677 15.619759 18.302734 16.138672 C 18.397181 16.659732 18.645631 17.14119 19.015625 17.519531 A 1.0001 1.0001 0 0 0 19.023438 17.527344 L 19.082031 17.587891 A 1.0001 1.0001 0 0 0 19.083984 17.587891 C 19.176824 17.680581 19.250502 17.79076 19.300781 17.912109 C 19.351079 18.033382 19.376953 18.163527 19.376953 18.294922 C 19.376953 18.426316 19.351079 18.556461 19.300781 18.677734 C 19.250502 18.799084 19.176824 18.909263 19.083984 19.001953 A 1.0001 1.0001 0 0 0 19.082031 19.003906 C 18.989341 19.096746 18.879162 19.170424 18.757812 19.220703 C 18.63654 19.271 18.506395 19.296875 18.375 19.296875 C 18.243605 19.296875 18.11346 19.271 17.992188 19.220703 C 17.870838 19.170424 17.760659 19.096746 17.667969 19.003906 A 1.0001 1.0001 0 0 0 17.667969 19.001953 L 17.607422 18.943359 A 1.0001 1.0001 0 0 0 17.599609 18.935547 C 17.221268 18.565553 16.739811 18.317102 16.21875 18.222656 C 15.699838 18.128599 15.164562 18.192471 14.681641 18.404297 C 14.209067 18.608062 13.805774 18.943813 13.521484 19.373047 C 13.236079 19.803965 13.082165 20.309577 13.080078 20.826172 A 1.0001 1.0001 0 0 0 13.080078 20.830078 L 13.080078 21 C 13.080078 21.265568 12.974955 21.519186 12.787109 21.707031 C 12.599264 21.894876 12.345647 22 12.080078 22 C 11.81451 22 11.560892 21.894876 11.373047 21.707031 C 11.185202 21.519186 11.080078 21.265568 11.080078 21 L 11.080078 20.910156 A 1.0001 1.0001 0 0 0 11.080078 20.886719 C 11.06771 20.355051 10.895172 19.83861 10.585938 19.40625 C 10.282999 18.982693 9.8570532 18.66607 9.3710938 18.480469 C 8.8949927 18.277666 8.3709727 18.210357 7.8613281 18.302734 C 7.3402895 18.39718 6.8588502 18.64556 6.4804688 19.015625 A 1.0001 1.0001 0 0 0 6.4726562 19.023438 L 6.4121094 19.082031 A 1.0001 1.0001 0 0 0 6.4121094 19.083984 C 6.3192684 19.17695 6.209213 19.250513 6.0878906 19.300781 C 5.9665729 19.351097 5.8365177 19.376953 5.7050781 19.376953 C 5.5736385 19.376953 5.4435834 19.351097 5.3222656 19.300781 C 5.2009432 19.250513 5.0908878 19.17695 4.9980469 19.083984 A 1.0001 1.0001 0 0 0 4.9960938 19.082031 C 4.9032157 18.989278 4.8296347 18.879243 4.7792969 18.757812 C 4.7289875 18.63645 4.703125 18.506395 4.703125 18.375 C 4.703125 18.243605 4.7289875 18.11355 4.7792969 17.992188 C 4.8296347 17.870757 4.9032157 17.760722 4.9960938 17.667969 A 1.0001 1.0001 0 0 0 4.9980469 17.667969 L 5.0566406 17.607422 A 1.0001 1.0001 0 0 0 5.0644531 17.599609 C 5.4345777 17.221201 5.682903 16.739691 5.7773438 16.21875 C 5.8714388 15.699804 5.807571 15.164587 5.5957031 14.681641 C 5.3919051 14.208844 5.0560938 13.805723 4.6269531 13.521484 C 4.1960429 13.236074 3.6904193 13.082165 3.1738281 13.080078 A 1.0001 1.0001 0 0 0 3.1699219 13.080078 L 3 13.080078 C 2.7343866 13.080078 2.4807596 12.974915 2.2929688 12.787109 C 2.1051252 12.599256 2 12.345634 2 12.080078 C 2 11.814522 2.1051252 11.5609 2.2929688 11.373047 C 2.4807596 11.185241 2.7343866 11.080078 3 11.080078 L 3.0898438 11.080078 A 1.0001 1.0001 0 0 0 3.1132812 11.080078 C 3.6449445 11.06771 4.1613807 10.895179 4.59375 10.585938 C 5.017262 10.28302 5.3339255 9.8571419 5.5195312 9.3710938 C 5.7223747 8.8949679 5.7896801 8.371006 5.6972656 7.8613281 C 5.602826 7.3404087 5.3545706 6.858918 4.984375 6.4804688 A 1.0001 1.0001 0 0 0 4.9765625 6.4726562 L 4.9179688 6.4121094 A 1.0001 1.0001 0 0 0 4.9160156 6.4121094 C 4.8230116 6.3192054 4.7495454 6.2092946 4.6992188 6.0878906 C 4.6488908 5.9664834 4.6230469 5.8365177 4.6230469 5.7050781 C 4.6230469 5.5736385 4.6488908 5.4436728 4.6992188 5.3222656 C 4.7495454 5.2008617 4.8230116 5.0909508 4.9160156 4.9980469 A 1.0001 1.0001 0 0 0 4.9179688 4.9960938 C 5.0108727 4.9030898 5.1207835 4.8296235 5.2421875 4.7792969 C 5.3635947 4.7289689 5.4935604 4.703125 5.625 4.703125 C 5.7564396 4.703125 5.8864053 4.7289689 6.0078125 4.7792969 C 6.1292165 4.8296235 6.2391273 4.9030898 6.3320312 4.9960938 A 1.0001 1.0001 0 0 0 6.3320312 4.9980469 L 6.3925781 5.0566406 A 1.0001 1.0001 0 0 0 6.4003906 5.0644531 C 6.7788399 5.4346487 7.2603305 5.6829041 7.78125 5.7773438 C 8.3021367 5.8717906 8.8398796 5.8094663 9.3242188 5.5957031 L 8.9199219 5.6796875 L 9 5.6796875 A 1.0001 1.0001 0 0 0 9.3945312 5.5996094 C 9.869479 5.396058 10.273282 5.057787 10.558594 4.6269531 C 10.843913 4.196132 10.997945 3.6905635 11 3.1738281 A 1.0001 1.0001 0 0 0 11 3.1699219 L 11 3 C 11 2.7343866 11.105163 2.4807596 11.292969 2.2929688 C 11.480822 2.1051252 11.734444 2 12 2 z "
     id="path4" />
  <defs
     id="defs11">
    <clipPath
       id="clip0_1365_1099">
      <rect
         width="24"
         height="24"
         fill="white"
         id="rect8" />
    </clipPath>
  </defs>
</svg>
