<svg width="24" height="24" viewBox="0 0 24 24" fill="none" xmlns="http://www.w3.org/2000/svg">
<g clip-path="url(#clip0_2473_5436)">
<path fill-rule="evenodd" clip-rule="evenodd" d="M0.792648 23.4073C0.402123 23.0168 0.402123 22.3836 0.792648 21.9931L3.69269 19.093L5.1069 20.5073L2.20686 23.4073C1.81634 23.7978 1.18317 23.7978 0.792648 23.4073Z" fill="#121212"/>
<path fill-rule="evenodd" clip-rule="evenodd" d="M23.2071 0.592698C23.5976 0.983222 23.5976 1.61639 23.2071 2.00691L20.3071 4.90695L18.8929 3.49274L21.7929 0.592698C22.1834 0.202174 22.8166 0.202174 23.2071 0.592698Z" fill="#121212"/>
<path fill-rule="evenodd" clip-rule="evenodd" d="M15.1071 12.6929C15.4976 13.0834 15.4976 13.7166 15.1071 14.1071L12.5071 16.7072L11.0929 15.293L13.6929 12.6929C14.0834 12.3024 14.7166 12.3024 15.1071 12.6929Z" fill="#121212"/>
<path fill-rule="evenodd" clip-rule="evenodd" d="M11.5069 9.09282C11.8974 9.48334 11.8974 10.1165 11.5069 10.507L8.90682 13.1071L7.4926 11.6929L10.0926 9.09282C10.4832 8.7023 11.1163 8.7023 11.5069 9.09282Z" fill="#121212"/>
<path fill-rule="evenodd" clip-rule="evenodd" d="M3.94632 20.0537C1.9285 18.0359 1.9285 14.7643 3.94632 12.7465L6.10977 10.583C6.38047 10.3123 6.81935 10.3123 7.09005 10.583L13.417 16.91C13.6877 17.1807 13.6877 17.6195 13.417 17.8902L11.2535 20.0537C9.23569 22.0715 5.96415 22.0715 3.94632 20.0537ZM4.65343 13.4536C3.02613 15.0809 3.02613 17.7193 4.65343 19.3466C6.28073 20.9739 8.91911 20.9739 10.5464 19.3466L12.4929 17.4001L6.59991 11.5071L4.65343 13.4536Z" fill="#121212"/>
<path fill-rule="evenodd" clip-rule="evenodd" d="M20.0535 3.94638C22.0714 5.9642 22.0714 9.23575 20.0535 11.2536L17.8901 13.417C17.6194 13.6877 17.1805 13.6877 16.9098 13.417L10.5829 7.0901C10.3122 6.8194 10.3122 6.38052 10.5829 6.10982L12.7463 3.94638C14.7642 1.92855 18.0357 1.92855 20.0535 3.94638ZM19.3464 10.5465C20.9737 8.91917 20.9737 6.28079 19.3464 4.65348C17.7191 3.02618 15.0807 3.02618 13.4534 4.65348L11.507 6.59996L17.3999 12.4929L19.3464 10.5465Z" fill="#121212"/>
<path d="M4.29986 19.7001C2.4773 17.8776 2.4773 14.9226 4.29986 13.1L6.46331 10.9366C6.53874 10.8612 6.66105 10.8612 6.73648 10.9366L13.0634 17.2635C13.1388 17.3389 13.1388 17.4613 13.0634 17.5367L10.9 19.7001C9.07739 21.5227 6.12243 21.5227 4.29986 19.7001V19.7001Z" fill="#121212" stroke="#121212"/>
<path d="M19.7 4.29993C21.5225 6.1225 21.5225 9.07746 19.7 10.9L17.5365 13.0635C17.4611 13.1389 17.3388 13.1389 17.2633 13.0635L10.9364 6.73655C10.861 6.66111 10.861 6.53881 10.9364 6.46337L13.0999 4.29993C14.9224 2.47736 17.8774 2.47736 19.7 4.29993V4.29993Z" fill="#121212" stroke="#121212"/>
</g>
<defs>
<clipPath id="clip0_2473_5436">
<rect width="24" height="24" fill="white"/>
</clipPath>
</defs>
</svg>
