<svg width="24" height="24" viewBox="0 0 24 24" fill="none" xmlns="http://www.w3.org/2000/svg">
<path fill-rule="evenodd" clip-rule="evenodd" d="M11.9991 5C8.68579 4.99986 6 7.68581 6 10.9993V14.0001C6 17.3138 8.68588 20 11.9993 19.9999C15.3134 19.9998 18 17.3131 18 13.999V11.0009C18 7.68682 15.3132 5.00014 11.9991 5ZM11.9994 21.9999C7.58111 22 4 18.4182 4 14.0001V10.9993C4 6.58138 7.5811 2.99981 11.9991 3C16.4177 3.00019 20 6.58216 20 11.0009V13.999C20 18.4176 16.418 21.9997 11.9994 21.9999Z" fill="black"/>
<path fill-rule="evenodd" clip-rule="evenodd" d="M6.99981 1.26758C7.47811 0.991436 8.0897 1.15531 8.36584 1.6336L9.36584 3.36565C9.64198 3.84395 9.47811 4.45554 8.99981 4.73168C8.52152 5.00782 7.90993 4.84395 7.63379 4.36565L6.63379 2.6336C6.35765 2.15531 6.52152 1.54372 6.99981 1.26758Z" fill="black"/>
<path fill-rule="evenodd" clip-rule="evenodd" d="M16.9998 1.26758C17.4781 1.54372 17.642 2.15531 17.3658 2.6336L16.3658 4.36565C16.0897 4.84395 15.4781 5.00782 14.9998 4.73168C14.5215 4.45554 14.3576 3.84395 14.6338 3.36565L15.6338 1.6336C15.9099 1.15531 16.5215 0.991436 16.9998 1.26758Z" fill="black"/>
<path fill-rule="evenodd" clip-rule="evenodd" d="M18 9C18 8.44772 18.4477 8 19 8H22C22.5523 8 23 8.44772 23 9C23 9.55228 22.5523 10 22 10H19C18.4477 10 18 9.55228 18 9Z" fill="black"/>
<path fill-rule="evenodd" clip-rule="evenodd" d="M9 11C9 10.4477 9.44772 10 10 10H14C14.5523 10 15 10.4477 15 11C15 11.5523 14.5523 12 14 12H10C9.44772 12 9 11.5523 9 11Z" fill="black"/>
<path fill-rule="evenodd" clip-rule="evenodd" d="M9 15C9 14.4477 9.44772 14 10 14H14C14.5523 14 15 14.4477 15 15C15 15.5523 14.5523 16 14 16H10C9.44772 16 9 15.5523 9 15Z" fill="black"/>
<path fill-rule="evenodd" clip-rule="evenodd" d="M18 13C18 12.4477 18.4477 12 19 12H22C22.5523 12 23 12.4477 23 13C23 13.5523 22.5523 14 22 14H19C18.4477 14 18 13.5523 18 13Z" fill="black"/>
<path fill-rule="evenodd" clip-rule="evenodd" d="M18 17C18 16.4477 18.4477 16 19 16H22C22.5523 16 23 16.4477 23 17C23 17.5523 22.5523 18 22 18H19C18.4477 18 18 17.5523 18 17Z" fill="black"/>
<path fill-rule="evenodd" clip-rule="evenodd" d="M1 9C1 8.44772 1.44772 8 2 8H5C5.55228 8 6 8.44772 6 9C6 9.55228 5.55228 10 5 10H2C1.44772 10 1 9.55228 1 9Z" fill="black"/>
<path fill-rule="evenodd" clip-rule="evenodd" d="M1 13C1 12.4477 1.44772 12 2 12H5C5.55228 12 6 12.4477 6 13C6 13.5523 5.55228 14 5 14H2C1.44772 14 1 13.5523 1 13Z" fill="black"/>
<path fill-rule="evenodd" clip-rule="evenodd" d="M1 17C1 16.4477 1.44772 16 2 16H5C5.55228 16 6 16.4477 6 17C6 17.5523 5.55228 18 5 18H2C1.44772 18 1 17.5523 1 17Z" fill="black"/>
</svg>
