<svg width="24" height="24" viewBox="0 0 24 24" fill="none" xmlns="http://www.w3.org/2000/svg">
<g clip-path="url(#clip0_485_6135)">
<path fill-rule="evenodd" clip-rule="evenodd" d="M16 14C19.3137 14 22 11.3137 22 8C22 4.68629 19.3137 2 16 2C12.6863 2 10 4.68629 10 8C10 8.55229 9.55228 9 9 9C8.44772 9 8 8.55229 8 8C8 3.58172 11.5817 1.08564e-06 16 6.99382e-07C20.4183 3.13124e-07 24 3.58172 24 8C24 12.4183 20.4183 16 16 16C15.4477 16 15 15.5523 15 15C15 14.4477 15.4477 14 16 14Z" fill="black"/>
<path fill-rule="evenodd" clip-rule="evenodd" d="M8 22C11.3137 22 14 19.3137 14 16C14 12.6863 11.3137 10 8 10C4.68629 10 2 12.6863 2 16C2 19.3137 4.68629 22 8 22ZM16 16C16 20.4183 12.4183 24 8 24C3.58172 24 1.59422e-06 20.4183 1.20797e-06 16C8.21708e-07 11.5817 3.58172 8 8 8C12.4183 8 16 11.5817 16 16Z" fill="black"/>
<path fill-rule="evenodd" clip-rule="evenodd" d="M17.707 6.29289C18.0975 6.68342 18.0975 7.31658 17.707 7.70711L9.70696 15.7071C9.31643 16.0976 8.68327 16.0976 8.29274 15.7071C7.90222 15.3166 7.90222 14.6834 8.29274 14.2929L16.2927 6.29289C16.6833 5.90237 17.3164 5.90237 17.707 6.29289Z" fill="black"/>
<path fill-rule="evenodd" clip-rule="evenodd" d="M13 6C13 5.44772 13.4477 5 14 5H18C18.5523 5 19 5.44772 19 6V10C19 10.5523 18.5523 11 18 11C17.4477 11 17 10.5523 17 10V7H14C13.4477 7 13 6.55228 13 6Z" fill="black"/>
</g>
<defs>
<clipPath id="clip0_485_6135">
<rect width="24" height="24" fill="white"/>
</clipPath>
</defs>
</svg>
