<?xml version="1.0" encoding="UTF-8" standalone="no"?>
<svg
   xmlns:dc="http://purl.org/dc/elements/1.1/"
   xmlns:cc="http://creativecommons.org/ns#"
   xmlns:rdf="http://www.w3.org/1999/02/22-rdf-syntax-ns#"
   xmlns:svg="http://www.w3.org/2000/svg"
   xmlns="http://www.w3.org/2000/svg"
   xmlns:sodipodi="http://sodipodi.sourceforge.net/DTD/sodipodi-0.dtd"
   xmlns:inkscape="http://www.inkscape.org/namespaces/inkscape"
   width="24"
   height="24"
   viewBox="0 0 24 24"
   fill="none"
   version="1.1"
   id="svg6"
   sodipodi:docname="icon-chart-pie.svg"
   inkscape:version="1.0.2 (e86c870879, 2021-01-15)">
  <metadata
     id="metadata12">
    <rdf:RDF>
      <cc:Work
         rdf:about="">
        <dc:format>image/svg+xml</dc:format>
        <dc:type
           rdf:resource="http://purl.org/dc/dcmitype/StillImage" />
      </cc:Work>
    </rdf:RDF>
  </metadata>
  <defs
     id="defs10" />
  <sodipodi:namedview
     pagecolor="#ffffff"
     bordercolor="#666666"
     borderopacity="1"
     objecttolerance="10"
     gridtolerance="10"
     guidetolerance="10"
     inkscape:pageopacity="0"
     inkscape:pageshadow="2"
     inkscape:window-width="1442"
     inkscape:window-height="1086"
     id="namedview8"
     showgrid="false"
     inkscape:zoom="29.791667"
     inkscape:cx="12"
     inkscape:cy="12"
     inkscape:window-x="0"
     inkscape:window-y="0"
     inkscape:window-maximized="0"
     inkscape:current-layer="svg6" />
  <path
     style="color:#000000;font-style:normal;font-variant:normal;font-weight:normal;font-stretch:normal;font-size:medium;line-height:normal;font-family:sans-serif;font-variant-ligatures:normal;font-variant-position:normal;font-variant-caps:normal;font-variant-numeric:normal;font-variant-alternates:normal;font-variant-east-asian:normal;font-feature-settings:normal;font-variation-settings:normal;text-indent:0;text-align:start;text-decoration:none;text-decoration-line:none;text-decoration-style:solid;text-decoration-color:#000000;letter-spacing:normal;word-spacing:normal;text-transform:none;writing-mode:lr-tb;direction:ltr;text-orientation:mixed;dominant-baseline:auto;baseline-shift:baseline;text-anchor:start;white-space:normal;shape-padding:0;shape-margin:0;inline-size:0;clip-rule:evenodd;display:inline;overflow:visible;visibility:visible;isolation:auto;mix-blend-mode:normal;color-interpolation:sRGB;color-interpolation-filters:linearRGB;solid-color:#000000;solid-opacity:1;vector-effect:none;fill:#121212;fill-opacity:1;fill-rule:evenodd;stroke-width:1;stroke-linecap:butt;stroke-linejoin:miter;stroke-miterlimit:4;stroke-dasharray:none;stroke-dashoffset:0;stroke-opacity:1;color-rendering:auto;image-rendering:auto;shape-rendering:auto;text-rendering:auto;enable-background:accumulate;stop-color:#000000;stop-opacity:1;stroke:none;opacity:1"
     d="M 8.91694,2.43037 C 9.13783,2.93656 8.90655,3.52597 8.40036,3.74686 7.05296,4.33485 5.8701,5.24395 4.9552,6.39469 4.04031,7.54543 3.42123,8.90277 3.1521,10.348 c -0.26913,1.4453 -0.18013,2.9345 0.25923,4.3374 0.43937,1.4029 1.21571,2.6769 2.26115,3.7105 1.04545,1.0335 2.32817,1.7953 3.73601,2.2186 1.40781,0.4233 2.89801,0.4953 4.34011,0.2097 1.4421,-0.2857 2.7922,-0.9202 3.9325,-1.8482 1.1402,-0.9279 2.0357,-2.1211 2.6083,-3.4751 0.2151,-0.5087 0.8018,-0.7467 1.3105,-0.5316 0.5086,0.2151 0.7466,0.8018 0.5315,1.3105 -0.6998,1.6549 -1.7943,3.1132 -3.1879,4.2474 -1.3936,1.1342 -3.0438,1.9098 -4.8064,2.2589 -1.7625,0.349 -3.5838,0.2611 -5.3045,-0.2563 C 7.1119,22.0124 5.54413,21.0814 4.26637,19.8181 2.9886,18.5549 2.03974,16.9978 1.50274,15.2831 0.965745,13.5685 0.856961,11.7483 1.1859,9.9819 1.51484,8.21546 2.27149,6.55649 3.38969,5.15003 4.5079,3.74357 5.95361,2.63245 7.60044,1.9138 8.10663,1.69291 8.69604,1.92418 8.91694,2.43037 Z"
     id="path2" />
  <path
     style="color:#000000;font-style:normal;font-variant:normal;font-weight:normal;font-stretch:normal;font-size:medium;line-height:normal;font-family:sans-serif;font-variant-ligatures:normal;font-variant-position:normal;font-variant-caps:normal;font-variant-numeric:normal;font-variant-alternates:normal;font-variant-east-asian:normal;font-feature-settings:normal;font-variation-settings:normal;text-indent:0;text-align:start;text-decoration:none;text-decoration-line:none;text-decoration-style:solid;text-decoration-color:#000000;letter-spacing:normal;word-spacing:normal;text-transform:none;writing-mode:lr-tb;direction:ltr;text-orientation:mixed;dominant-baseline:auto;baseline-shift:baseline;text-anchor:start;white-space:normal;shape-padding:0;shape-margin:0;inline-size:0;clip-rule:evenodd;display:inline;overflow:visible;visibility:visible;isolation:auto;mix-blend-mode:normal;color-interpolation:sRGB;color-interpolation-filters:linearRGB;solid-color:#000000;solid-opacity:1;vector-effect:none;fill:#121212;fill-opacity:1;fill-rule:evenodd;stroke-width:1;stroke-linecap:butt;stroke-linejoin:miter;stroke-miterlimit:4;stroke-dasharray:none;stroke-dashoffset:0;stroke-opacity:1;color-rendering:auto;image-rendering:auto;shape-rendering:auto;text-rendering:auto;enable-background:accumulate;stop-color:#000000;stop-opacity:1;stroke:none;opacity:1"
     d="M 11.2929,1.29289 C 11.4804,1.10536 11.7348,1 12,1 c 1.4445,0 2.8749,0.28452 4.2095,0.83733 1.3346,0.5528 2.5472,1.36305 3.5687,2.3845 1.0214,1.02144 1.8317,2.23407 2.3845,3.56865 C 22.7155,9.12506 23,10.5555 23,12 c 0,0.5523 -0.4477,1 -1,1 H 12 c -0.5523,0 -1,-0.4477 -1,-1 V 2 C 11,1.73478 11.1054,1.48043 11.2929,1.29289 Z M 13,3.05573 V 11 h 7.9443 C 20.8505,10.1614 20.6391,9.33849 20.3149,8.55585 19.8626,7.46392 19.1997,6.47177 18.364,5.63604 17.5282,4.80031 16.5361,4.13738 15.4442,3.68508 14.6615,3.3609 13.8386,3.14949 13,3.05573 Z"
     id="path4" />
</svg>
