<svg width="24" height="24" viewBox="0 0 24 24" fill="none" xmlns="http://www.w3.org/2000/svg">
<path fill-rule="evenodd" clip-rule="evenodd" d="M12.5606 4.10169C12.9037 3.93389 13.3125 3.97617 13.6139 4.21066L22.6139 11.2107C22.8575 11.4001 23 11.6914 23 12C23 12.3086 22.8575 12.5999 22.6139 12.7894L13.6139 19.7894C13.3125 20.0238 12.9037 20.0661 12.5606 19.8983C12.2176 19.7305 12 19.3819 12 19V5.00001C12 4.61807 12.2176 4.2695 12.5606 4.10169ZM14 7.04465V16.9554L20.3712 12L14 7.04465Z" fill="black"/>
<path fill-rule="evenodd" clip-rule="evenodd" d="M1.56065 4.10169C1.90375 3.93389 2.31246 3.97617 2.61394 4.21066L11.6139 11.2107C11.8575 11.4001 12 11.6914 12 12C12 12.3086 11.8575 12.5999 11.6139 12.7894L2.61394 19.7894C2.31246 20.0238 1.90375 20.0661 1.56065 19.8983C1.21755 19.7305 1 19.3819 1 19V5.00001C1 4.61807 1.21755 4.2695 1.56065 4.10169ZM3 7.04465V16.9554L9.37118 12L3 7.04465Z" fill="black"/>
</svg>
