<svg width="24" height="24" viewBox="0 0 24 24" fill="none" xmlns="http://www.w3.org/2000/svg">
<g clip-path="url(#clip0_485_5935)">
<path fill-rule="evenodd" clip-rule="evenodd" d="M23 3C23.5523 3 24 3.44772 24 4V10C24 10.5523 23.5523 11 23 11H17C16.4477 11 16 10.5523 16 10C16 9.44772 16.4477 9 17 9H22V4C22 3.44772 22.4477 3 23 3Z" fill="black"/>
<path fill-rule="evenodd" clip-rule="evenodd" d="M0 14C0 13.4477 0.447715 13 1 13H7C7.55228 13 8 13.4477 8 14C8 14.5523 7.55228 15 7 15H2V20C2 20.5523 1.55228 21 1 21C0.447715 21 0 20.5523 0 20V14Z" fill="black"/>
<path fill-rule="evenodd" clip-rule="evenodd" d="M14.2173 4.31698C12.9192 3.94149 11.547 3.90096 10.229 4.19919C8.91091 4.49742 7.68987 5.12468 6.6798 6.02244C5.66973 6.92021 4.90353 8.05922 4.45272 9.33318C4.26848 9.85383 3.69705 10.1265 3.17641 9.9423C2.65576 9.75806 2.38305 9.18664 2.56729 8.66599C3.13081 7.07353 4.08855 5.64977 5.35114 4.52757C6.61373 3.40536 8.14003 2.62129 9.78761 2.2485C11.4352 1.87571 13.1503 1.92637 14.7731 2.39574C16.3906 2.86362 17.8637 3.73235 19.0559 4.92128L23.6848 9.27083C24.0873 9.64903 24.1069 10.2819 23.7288 10.6844C23.3506 11.0868 22.7177 11.1065 22.3152 10.7283L17.6752 6.36834C17.6676 6.36118 17.6601 6.35391 17.6527 6.34652C16.6974 5.39071 15.5155 4.69248 14.2173 4.31698ZM0.27125 13.3148C0.649442 12.9123 1.2823 12.8926 1.68478 13.2708L6.32478 17.6308C6.3324 17.638 6.3399 17.6453 6.34729 17.6527C7.30262 18.6085 8.48451 19.3067 9.78267 19.6822C11.0808 20.0577 12.453 20.0982 13.771 19.8C15.0891 19.5018 16.3101 18.8745 17.3202 17.9767C18.3303 17.079 19.0965 15.94 19.5473 14.666C19.7315 14.1453 20.303 13.8726 20.8236 14.0569C21.3442 14.2411 21.617 14.8125 21.4327 15.3332C20.8692 16.9256 19.9115 18.3494 18.6489 19.4716C17.3863 20.5938 15.86 21.3779 14.2124 21.7507C12.5648 22.1235 10.8497 22.0728 9.22695 21.6034C7.6094 21.1356 6.13627 20.2668 4.94411 19.0779L0.315226 14.7283C-0.0872528 14.3501 -0.106942 13.7173 0.27125 13.3148Z" fill="black"/>
</g>
<defs>
<clipPath id="clip0_485_5935">
<rect width="24" height="24" fill="white"/>
</clipPath>
</defs>
</svg>
