<!-- Generated by IcoMoon.io -->
<svg version="1.1" xmlns="http://www.w3.org/2000/svg" width="768" height="768" viewBox="0 0 768 768">
<title></title>
<g id="icomoon-ignore">
</g>
<path fill="#000" d="M628.364 139.636h-488.728l52.363-69.818h384zM725.899 153.321l-104.518-139.357c-6.842-9.111-17.245-13.929-27.927-13.964h-418.91c-11.38 0-21.504 5.446-27.927 13.964l-104.518 139.357c-1.502 1.954-2.828 4.084-3.875 6.353-2.269 4.782-3.351 9.88-3.316 14.871v488.728c0 28.905 11.765 55.157 30.685 74.042s45.137 30.685 74.042 30.685h488.728c28.905 0 55.157-11.764 74.042-30.685s30.685-45.137 30.685-74.042v-488.728c0-7.645-2.478-14.732-6.598-20.422-0.14-0.174-0.245-0.349-0.384-0.523zM104.727 209.455h558.547v453.82c0 9.635-3.875 18.327-10.228 24.68s-15.046 10.228-24.68 10.228h-488.728c-9.635 0-18.327-3.875-24.68-10.228s-10.228-15.046-10.228-24.68zM488.727 314.182c0 28.94-11.694 55.052-30.685 74.042s-45.102 30.685-74.042 30.685-55.051-11.694-74.042-30.685-30.685-45.102-30.685-74.042c0-19.27-15.64-34.909-34.909-34.909s-34.909 15.64-34.909 34.909c0 48.175 19.584 91.881 51.107 123.438s75.264 51.107 123.438 51.107 91.881-19.584 123.438-51.107 51.107-75.264 51.107-123.438c0-19.27-15.64-34.909-34.909-34.909s-34.91 15.64-34.91 34.909z"></path>
</svg>
