<svg width="24" height="24" viewBox="0 0 24 24" fill="none" xmlns="http://www.w3.org/2000/svg">
<path fill-rule="evenodd" clip-rule="evenodd" d="M5.99999 4C5.81092 4 5.5854 4.07097 5.35484 4.34476C5.1168 4.62744 5 4.9837 5 5.375V19.6248C5 19.625 5 19.625 4 19.625C3 19.625 3 19.625 3 19.6248V5.375C3 4.5788 3.24306 3.74756 3.82502 3.05649C4.41445 2.35653 5.18893 2 5.99999 2H7.99971L7.99998 3L7.99997 4H5.99999ZM4 19.625L3 19.6248C3 20.4697 3.28113 21.3076 3.82087 21.9485C4.36494 22.5946 5.14345 23 5.99999 23H17.9999C18.8565 23 19.635 22.5946 20.1791 21.9485C20.7188 21.3076 20.9999 20.4699 20.9999 19.625V12.5C20.9999 11.9477 20.5522 11.5 19.9999 11.5C19.4476 11.5 18.9999 11.9477 18.9999 12.5V19.625C18.9999 20.0399 18.8596 20.4104 18.6492 20.6602C18.4432 20.905 18.2043 21 17.9999 21H5.99999C5.79567 21 5.55677 20.905 5.3507 20.6602C5.1403 20.4104 5 20.0398 5 19.6248L4 19.625ZM8.99998 3C8.99998 3.55228 8.55225 4 7.99997 4L7.99998 3L7.99971 2C8.55199 2 8.99998 2.44772 8.99998 3Z" fill="black"/>
<path fill-rule="evenodd" clip-rule="evenodd" d="M12 8C11.8233 8 11.5886 8.08785 11.3721 8.36337C11.151 8.64474 11 9.06786 11 9.54545V14C11 14.5523 10.5523 15 10 15C9.44772 15 9 14.5523 9 14V9.54545C9 8.67286 9.2704 7.80108 9.79947 7.12772C10.3331 6.44851 11.1158 6 12 6H18C18.5523 6 19 6.44772 19 7C19 7.55228 18.5523 8 18 8H12Z" fill="black"/>
<path fill-rule="evenodd" clip-rule="evenodd" d="M19.7071 6.29289C20.0976 6.68342 20.0976 7.31658 19.7071 7.70711L15.7071 11.7071C15.3166 12.0976 14.6834 12.0976 14.2929 11.7071C13.9024 11.3166 13.9024 10.6834 14.2929 10.2929L17.5858 7L14.2929 3.70711C13.9024 3.31658 13.9024 2.68342 14.2929 2.29289C14.6834 1.90237 15.3166 1.90237 15.7071 2.29289L19.7071 6.29289Z" fill="black"/>
</svg>
