<svg width="24" height="24" viewBox="0 0 24 24" fill="none" xmlns="http://www.w3.org/2000/svg">
<path fill-rule="evenodd" clip-rule="evenodd" d="M11.9994 1.69043C12.2648 1.69031 12.5193 1.79568 12.707 1.98332L18.3668 7.64309C18.3668 7.64317 18.3667 7.64301 18.3668 7.64309C19.6259 8.90149 20.4838 10.5053 20.8315 12.2512C21.1793 13.9971 21.0014 15.807 20.3204 17.4519C19.6394 19.0968 18.4858 20.5028 17.0056 21.492C15.5255 22.4811 13.7852 23.0091 12.0049 23.0091C10.2246 23.0091 8.48431 22.4811 7.00414 21.492C5.52397 20.5028 4.37042 19.0968 3.68941 17.4519C3.00839 15.807 2.83051 13.9971 3.17825 12.2512C3.52594 10.5054 4.38348 8.90204 5.64241 7.64369C5.64261 7.64349 5.64221 7.64389 5.64241 7.64369L11.2922 1.98395C11.4796 1.79614 11.7341 1.69055 11.9994 1.69043ZM12.0005 4.10527L7.05676 9.05777C6.07733 10.0366 5.41019 11.2838 5.13973 12.6418C4.86926 13.9998 5.00761 15.4075 5.53729 16.6869C6.06697 17.9662 6.96417 19.0597 8.11542 19.8291C9.26666 20.5985 10.6202 21.0091 12.0049 21.0091C13.3896 21.0091 14.7431 20.5985 15.8944 19.8291C17.0456 19.0597 17.9428 17.9662 18.4725 16.6869C19.0022 15.4075 19.1405 13.9998 18.87 12.6418C18.5996 11.2838 17.9324 10.0366 16.953 9.05777L12.0005 4.10527Z" fill="black"/>
</svg>
