<svg width="24" height="24" viewBox="0 0 24 24" fill="none" xmlns="http://www.w3.org/2000/svg">
<g clip-path="url(#clip0_2029_24858)">
<path fill-rule="evenodd" clip-rule="evenodd" d="M0.792648 23.4073C0.402123 23.0168 0.402123 22.3836 0.792648 21.9931L3.69269 19.093L5.1069 20.5073L2.20686 23.4073C1.81634 23.7978 1.18317 23.7978 0.792648 23.4073Z" fill="#121212"/>
<path fill-rule="evenodd" clip-rule="evenodd" d="M23.2071 0.592698C23.5976 0.983222 23.5976 1.61639 23.2071 2.00691L20.3071 4.90695L18.8929 3.49274L21.7929 0.592698C22.1834 0.202174 22.8166 0.202174 23.2071 0.592698Z" fill="#121212"/>
<path fill-rule="evenodd" clip-rule="evenodd" d="M15.1071 12.6929C15.4976 13.0834 15.4976 13.7166 15.1071 14.1071L12.507 16.7072L11.0928 15.293L13.6929 12.6929C14.0834 12.3024 14.7165 12.3024 15.1071 12.6929Z" fill="#121212"/>
<path fill-rule="evenodd" clip-rule="evenodd" d="M11.5069 9.09282C11.8974 9.48334 11.8974 10.1165 11.5069 10.507L8.90682 13.1071L7.4926 11.6929L10.0926 9.09282C10.4832 8.7023 11.1163 8.7023 11.5069 9.09282Z" fill="#121212"/>
<path fill-rule="evenodd" clip-rule="evenodd" d="M3.59275 20.4072C1.37966 18.1941 1.37966 14.606 3.59275 12.3929L5.7562 10.2295C6.22216 9.76353 6.97763 9.76353 7.44359 10.2295L13.7705 16.5564C14.2365 17.0224 14.2365 17.7778 13.7705 18.2438L11.6071 20.4072C9.39397 22.6203 5.80584 22.6203 3.59275 20.4072ZM5.00697 13.8071C3.57493 15.2392 3.57493 17.561 5.00697 18.993C6.43901 20.4251 8.76081 20.4251 10.1928 18.993L11.7858 17.4001L6.59989 12.2142L5.00697 13.8071Z" fill="#121212"/>
<path fill-rule="evenodd" clip-rule="evenodd" d="M20.4071 3.59276C22.6202 5.80585 22.6202 9.39398 20.4071 11.6071L18.2436 13.7705C17.7777 14.2365 17.0222 14.2365 16.5562 13.7705L10.2293 7.44359C9.76335 6.97763 9.76335 6.22217 10.2293 5.75621L12.3928 3.59276C14.6058 1.37967 18.194 1.37967 20.4071 3.59276ZM18.9928 10.1929C20.4249 8.76081 20.4249 6.43902 18.9928 5.00698C17.5608 3.57493 15.239 3.57494 13.807 5.00698L12.214 6.5999L17.3999 11.7858L18.9928 10.1929Z" fill="#121212"/>
</g>
<defs>
<clipPath id="clip0_2029_24858">
<rect width="24" height="24" fill="white"/>
</clipPath>
</defs>
</svg>
