<svg width="24" height="24" viewBox="0 0 24 24" fill="none" xmlns="http://www.w3.org/2000/svg">
<g clip-path="url(#clip0_485_6012)">
<path fill-rule="evenodd" clip-rule="evenodd" d="M9.88524 8.05361L8.39923 7.77115C7.42379 7.58574 6.41979 7.89497 5.7177 8.59706L4.85214 9.46262L7.55978 10.3652L6.92732 12.2625L3.45218 11.1041C2.39433 10.7515 2.07739 9.40894 2.86586 8.62046L4.30348 7.18285C5.47364 6.01269 7.14697 5.49731 8.77271 5.80633L10.2587 6.0888L9.88524 8.05361Z" fill="#121212"/>
<path fill-rule="evenodd" clip-rule="evenodd" d="M16.1612 14.3286L16.4437 15.8146C16.6291 16.7901 16.3199 17.7941 15.6178 18.4962L14.7522 19.3617L13.8497 16.6541L11.9523 17.2865L13.1107 20.7617C13.4633 21.8195 14.8059 22.1365 15.5944 21.348L17.032 19.9104C18.2022 18.7402 18.7175 17.0669 18.4085 15.4412L18.126 13.9551L16.1612 14.3286Z" fill="#121212"/>
<path fill-rule="evenodd" clip-rule="evenodd" d="M19.9024 2.38896C20.8592 2.45872 21.6076 3.2234 21.6846 4.16126C22.0989 9.20609 20.3061 12.5184 18.0714 14.6207C15.8777 16.6844 13.3233 17.5253 12.2317 17.8113C11.5362 17.9934 10.8547 17.7528 10.4008 17.2989L6.48405 13.3822C5.94958 12.8477 5.7292 12.0152 6.06756 11.2499C6.99788 9.14579 10.92 1.73408 19.9024 2.38896ZM19.6957 4.37934C12.2309 3.86947 8.85247 9.92861 7.92518 11.9949L11.7897 15.8593C12.7619 15.5975 14.8946 14.8634 16.701 13.164C18.5001 11.4715 20.0413 8.7648 19.6957 4.37934Z" fill="#121212"/>
<path fill-rule="evenodd" clip-rule="evenodd" d="M13.6073 10.607C13.9979 10.9975 14.631 10.9975 15.0216 10.607C15.4121 10.2164 15.4121 9.58328 15.0216 9.19276C14.631 8.80224 13.9979 8.80224 13.6073 9.19276C13.2168 9.58328 13.2168 10.2164 13.6073 10.607ZM12.1931 12.0212C13.3647 13.1928 15.2642 13.1928 16.4358 12.0212C17.6073 10.8496 17.6073 8.95012 16.4358 7.77855C15.2642 6.60697 13.3647 6.60697 12.1931 7.77855C11.0216 8.95012 11.0216 10.8496 12.1931 12.0212Z" fill="#121212"/>
<path fill-rule="evenodd" clip-rule="evenodd" d="M19.264 9.19201L15.0213 4.94937L16.4355 3.53516L20.6782 7.7778L19.264 9.19201Z" fill="#121212"/>
<path fill-rule="evenodd" clip-rule="evenodd" d="M5.82903 14.1425C6.21955 14.533 6.21955 15.1662 5.82903 15.5567L5.12192 16.2638C4.7314 16.6543 4.09823 16.6543 3.70771 16.2638C3.31718 15.8733 3.31718 15.2401 3.70771 14.8496L4.41481 14.1425C4.80534 13.752 5.4385 13.752 5.82903 14.1425Z" fill="#121212"/>
<path fill-rule="evenodd" clip-rule="evenodd" d="M10.0722 18.3847C10.4627 18.7752 10.4627 19.4084 10.0722 19.7989L9.36508 20.506C8.97456 20.8965 8.34139 20.8965 7.95087 20.506C7.56035 20.1155 7.56035 19.4823 7.95087 19.0918L8.65798 18.3847C9.0485 17.9942 9.68167 17.9942 10.0722 18.3847Z" fill="#121212"/>
<path fill-rule="evenodd" clip-rule="evenodd" d="M7.9511 16.2636C8.34162 16.6541 8.34162 17.2873 7.9511 17.6778L5.82978 19.7991C5.43925 20.1897 4.80609 20.1897 4.41556 19.7991C4.02504 19.4086 4.02504 18.7754 4.41556 18.3849L6.53688 16.2636C6.92741 15.8731 7.56057 15.8731 7.9511 16.2636Z" fill="#121212"/>
</g>
<defs>
<clipPath id="clip0_485_6012">
<rect width="24" height="24" fill="white"/>
</clipPath>
</defs>
</svg>
