<?xml version="1.0" encoding="UTF-8" standalone="no"?>
<svg
   xmlns:dc="http://purl.org/dc/elements/1.1/"
   xmlns:cc="http://creativecommons.org/ns#"
   xmlns:rdf="http://www.w3.org/1999/02/22-rdf-syntax-ns#"
   xmlns:svg="http://www.w3.org/2000/svg"
   xmlns="http://www.w3.org/2000/svg"
   xmlns:sodipodi="http://sodipodi.sourceforge.net/DTD/sodipodi-0.dtd"
   xmlns:inkscape="http://www.inkscape.org/namespaces/inkscape"
   width="24"
   height="24"
   viewBox="0 0 24 24"
   fill="none"
   version="1.1"
   id="svg4"
   sodipodi:docname="icon-open-source.svg">
  <metadata
     id="metadata10">
    <rdf:RDF>
      <cc:Work
         rdf:about="">
        <dc:format>image/svg+xml</dc:format>
        <dc:type
           rdf:resource="http://purl.org/dc/dcmitype/StillImage" />
      </cc:Work>
    </rdf:RDF>
  </metadata>
  <defs
     id="defs8" />
  <sodipodi:namedview
     pagecolor="#ffffff"
     bordercolor="#666666"
     borderopacity="1"
     objecttolerance="10"
     gridtolerance="10"
     guidetolerance="10"
     id="namedview6"
     showgrid="false"/>
  <path
     style="color:#000000;font-style:normal;font-variant:normal;font-weight:normal;font-stretch:normal;font-size:medium;line-height:normal;font-family:sans-serif;font-variant-ligatures:normal;font-variant-position:normal;font-variant-caps:normal;font-variant-numeric:normal;font-variant-alternates:normal;font-variant-east-asian:normal;font-feature-settings:normal;font-variation-settings:normal;text-indent:0;text-align:start;text-decoration:none;text-decoration-line:none;text-decoration-style:solid;text-decoration-color:#000000;letter-spacing:normal;word-spacing:normal;text-transform:none;writing-mode:lr-tb;direction:ltr;text-orientation:mixed;dominant-baseline:auto;baseline-shift:baseline;text-anchor:start;white-space:normal;shape-padding:0;shape-margin:0;inline-size:0;clip-rule:nonzero;display:inline;overflow:visible;visibility:visible;isolation:auto;mix-blend-mode:normal;color-interpolation:sRGB;color-interpolation-filters:linearRGB;solid-color:#000000;solid-opacity:1;vector-effect:none;fill:#121212;fill-opacity:1;fill-rule:nonzero;stroke:none;stroke-linecap:round;stroke-linejoin:round;stroke-miterlimit:4;stroke-dasharray:none;stroke-dashoffset:0;stroke-opacity:1;color-rendering:auto;image-rendering:auto;shape-rendering:auto;text-rendering:auto;enable-background:accumulate;stop-color:#000000;stop-opacity:1;opacity:1"
     d="M 12 1 C 5.9367104 1 1 5.9367104 1 12 C 1 16.48232 3.6889477 20.352772 7.5488281 22.0625 A 1.0001 1.0001 0 0 0 8.8945312 21.488281 L 10.939453 15.839844 A 1.0001 1.0001 0 0 0 10.447266 14.605469 C 10.447266 14.605469 9 13.966667 9 12 C 9 10.033333 10.5 9 12 9 C 13.5 9 15 10.033333 15 12 C 15 13.966667 13.552734 14.605469 13.552734 14.605469 A 1.0001 1.0001 0 0 0 13.060547 15.839844 L 15.105469 21.488281 A 1.0001 1.0001 0 0 0 16.449219 22.0625 C 20.309772 20.352996 23 16.482756 23 12 C 23 5.9367044 18.063244 1 12 1 z M 12 3 C 16.982356 3 21 7.0175956 21 12 C 21 15.290469 19.19074 18.083964 16.566406 19.654297 L 15.169922 15.794922 C 15.912748 15.224623 17 14.174734 17 12 C 17 8.9666667 14.5 7 12 7 C 9.5 7 7 8.9666667 7 12 C 7 14.174734 8.0872525 15.224623 8.8300781 15.794922 L 7.4316406 19.652344 C 4.8087802 18.0817 3 15.289388 3 12 C 3 7.0175896 7.0175896 3 12 3 z "
     id="path2" />
</svg>
