<!-- Generated by IcoMoon.io -->
<svg version="1.1" xmlns="http://www.w3.org/2000/svg" width="768" height="768" viewBox="0 0 768 768">
<title></title>
<g id="icomoon-ignore">
</g>
<path fill="#000" d="M544 256c0 128.352 30.304 208.64 59.232 256h-438.464c28.928-47.36 59.232-127.648 59.232-256 0-44.192 17.888-84.16 46.848-113.152s68.96-46.848 113.152-46.848 84.16 17.888 113.152 46.848 46.848 68.96 46.848 113.152zM608 256c0-61.856-25.12-117.888-65.6-158.4s-96.544-65.6-158.4-65.6-117.888 25.12-158.4 65.6-65.6 96.544-65.6 158.4c0 196.064-76.576 257.504-82.016 261.568-14.496 9.856-18.336 29.568-8.608 44.192 6.144 9.184 16.192 14.176 26.624 14.24h576c17.664 0 32-14.336 32-32 0-10.848-5.376-20.416-13.728-26.272-5.632-4.16-82.272-65.6-82.272-261.728zM411.68 655.936c-4.448 7.648-11.488 12.768-19.456 14.88s-16.64 1.184-24.288-3.232c-5.184-3.008-9.056-7.104-11.488-11.424-8.768-15.36-28.288-20.704-43.648-11.936s-20.704 28.288-11.936 43.648c8 14.048 19.936 26.336 34.976 35.072 22.912 13.312 49.12 16.032 72.832 9.728s45.088-21.696 58.368-44.608c8.864-15.296 3.648-34.88-11.616-43.744s-34.88-3.648-43.744 11.616z"></path>
</svg>
