<svg width="24" height="24" viewBox="0 0 24 24" fill="none" xmlns="http://www.w3.org/2000/svg">
<path fill-rule="evenodd" clip-rule="evenodd" d="M16.6737 8.26102C17.0819 8.63311 17.1111 9.2656 16.739 9.67373L11.2689 15.6737C11.0789 15.8821 10.8098 16.0006 10.5279 16C10.2459 15.9994 9.97726 15.8798 9.78815 15.6707L7.25824 12.8725C6.88784 12.4628 6.91969 11.8304 7.32936 11.46C7.73903 11.0896 8.37139 11.1215 8.74178 11.5312L10.533 13.5123L15.261 8.32629C15.6331 7.91816 16.2656 7.88893 16.6737 8.26102Z" fill="black"/>
<path fill-rule="evenodd" clip-rule="evenodd" d="M12 3C7.02944 3 3 7.02944 3 12C3 16.9706 7.02944 21 12 21C16.9706 21 21 16.9706 21 12C21 7.02944 16.9706 3 12 3ZM1 12C1 5.92487 5.92487 1 12 1C18.0751 1 23 5.92487 23 12C23 18.0751 18.0751 23 12 23C5.92487 23 1 18.0751 1 12Z" fill="black"/>
</svg>
