<svg width="24" height="24" viewBox="0 0 24 24" fill="none" xmlns="http://www.w3.org/2000/svg">
<path fill-rule="evenodd" clip-rule="evenodd" d="M2.87868 2.87868C3.44129 2.31607 4.20435 2 5 2H19C19.7957 2 20.5587 2.31607 21.1213 2.87868C21.6839 3.44129 22 4.20435 22 5V19C22 19.7957 21.6839 20.5587 21.1213 21.1213C20.5587 21.6839 19.7957 22 19 22H5C4.20435 22 3.44129 21.6839 2.87868 21.1213C2.31607 20.5587 2 19.7957 2 19V5C2 4.20435 2.31607 3.44129 2.87868 2.87868ZM4 8H8V4H5C4.73478 4 4.48043 4.10536 4.29289 4.29289C4.10536 4.48043 4 4.73478 4 5V8ZM10 4V8H20V5C20 4.73478 19.8946 4.48043 19.7071 4.29289C19.5196 4.10536 19.2652 4 19 4H10ZM20 10H10V20H19C19.2652 20 19.5196 19.8946 19.7071 19.7071C19.8946 19.5196 20 19.2652 20 19V10ZM8 20V10H4V19C4 19.2652 4.10536 19.5196 4.29289 19.7071C4.48043 19.8946 4.73478 20 5 20H8Z" fill="black"/>
</svg>
