<svg width="24" height="24" viewBox="0 0 24 24" fill="none" xmlns="http://www.w3.org/2000/svg">
<path fill-rule="evenodd" clip-rule="evenodd" d="M12 2C8.5977 2 6 5.00575 6 8C6 10.5603 7.21761 11.8034 8.70711 13.2929C8.89464 13.4804 9 13.7348 9 14V16H15V14C15 13.7348 15.1054 13.4804 15.2929 13.2929C16.7824 11.8034 18 10.5603 18 8C18 5.00575 15.4023 2 12 2ZM4 8C4 3.99425 7.4023 0 12 0C16.5977 0 20 3.99425 20 8C20 11.2195 18.4385 12.9648 17 14.4136V17C17 17.2652 16.8946 17.5196 16.7071 17.7071C16.5196 17.8946 16.2652 18 16 18H8C7.44772 18 7 17.5523 7 17V14.4136C5.56149 12.9648 4 11.2195 4 8Z" fill="black"/>
<path fill-rule="evenodd" clip-rule="evenodd" d="M8 20C8 19.4477 8.44772 19 9 19H15C15.5523 19 16 19.4477 16 20C16 20.5523 15.5523 21 15 21H9C8.44772 21 8 20.5523 8 20Z" fill="black"/>
<path fill-rule="evenodd" clip-rule="evenodd" d="M9 23C9 22.4477 9.44772 22 10 22H14C14.5523 22 15 22.4477 15 23C15 23.5523 14.5523 24 14 24H10C9.44772 24 9 23.5523 9 23Z" fill="black"/>
</svg>
