<svg width="24" height="24" viewBox="0 0 24 24" fill="none" xmlns="http://www.w3.org/2000/svg">
<path fill-rule="evenodd" clip-rule="evenodd" d="M11 4C7.13401 4 4 7.13401 4 11C4 14.866 7.13401 18 11 18C14.866 18 18 14.866 18 11C18 7.13401 14.866 4 11 4ZM2 11C2 6.02944 6.02944 2 11 2C15.9706 2 20 6.02944 20 11C20 15.9706 15.9706 20 11 20C6.02944 20 2 15.9706 2 11Z" fill="black"/>
<path fill-rule="evenodd" clip-rule="evenodd" d="M15.9433 15.9433C16.3338 15.5528 16.967 15.5528 17.3575 15.9433L21.7075 20.2933C22.098 20.6838 22.098 21.317 21.7075 21.7075C21.317 22.098 20.6838 22.098 20.2933 21.7075L15.9433 17.3575C15.5528 16.967 15.5528 16.3338 15.9433 15.9433Z" fill="black"/>
<path fill-rule="evenodd" clip-rule="evenodd" d="M11 7C11.5523 7 12 7.44772 12 8V14C12 14.5523 11.5523 15 11 15C10.4477 15 10 14.5523 10 14V8C10 7.44772 10.4477 7 11 7Z" fill="black"/>
<path fill-rule="evenodd" clip-rule="evenodd" d="M7 11C7 10.4477 7.44772 10 8 10H14C14.5523 10 15 10.4477 15 11C15 11.5523 14.5523 12 14 12H8C7.44772 12 7 11.5523 7 11Z" fill="black"/>
</svg>
