<svg width="24" height="24" viewBox="0 0 24 24" fill="none" xmlns="http://www.w3.org/2000/svg">
<path fill-rule="evenodd" clip-rule="evenodd" d="M11.4332 4.09871C11.7797 4.26523 12 4.6156 12 5.00001V19C12 19.3844 11.7797 19.7348 11.4332 19.9013C11.0867 20.0678 10.6755 20.021 10.3753 19.7809L5.64922 16H2C1.44772 16 1 15.5523 1 15V9.00001C1 8.44772 1.44772 8.00001 2 8.00001H5.64922L10.3753 4.21914C10.6755 3.979 11.0867 3.93219 11.4332 4.09871ZM10 7.08063L6.62469 9.78088C6.44738 9.92273 6.22707 10 6 10H3V14H6C6.22707 14 6.44738 14.0773 6.62469 14.2191L10 16.9194V7.08063Z" fill="black"/>
<path fill-rule="evenodd" clip-rule="evenodd" d="M18.363 4.22247C18.7536 3.83201 19.3868 3.8321 19.7773 4.22269C21.8394 6.28549 22.9979 9.08288 22.9979 11.9997C22.9979 14.9165 21.8394 17.7139 19.7773 19.7767C19.3868 20.1673 18.7536 20.1674 18.363 19.7769C17.9725 19.3864 17.9724 18.7533 18.3628 18.3627C20.0501 16.6749 20.9979 14.3862 20.9979 11.9997C20.9979 9.61321 20.0501 7.32444 18.3628 5.63669C17.9724 5.2461 17.9725 4.61294 18.363 4.22247ZM14.833 7.75247C15.2236 7.36201 15.8568 7.3621 16.2473 7.75269C17.3721 8.87785 18.004 10.4037 18.004 11.9947C18.004 13.5857 17.3721 15.1115 16.2473 16.2367C15.8568 16.6273 15.2236 16.6274 14.833 16.2369C14.4425 15.8464 14.4424 15.2133 14.8328 14.8227C15.5827 14.0726 16.004 13.0553 16.004 11.9947C16.004 10.934 15.5827 9.9168 14.8328 9.16669C14.4424 8.7761 14.4425 8.14294 14.833 7.75247Z" fill="black"/>
</svg>
