<svg width="24" height="24" viewBox="0 0 24 24" fill="none" xmlns="http://www.w3.org/2000/svg">
<path fill-rule="evenodd" clip-rule="evenodd" d="M12 1C12.3806 1 12.7283 1.21607 12.8967 1.55738L15.7543 7.34647L22.1447 8.28051C22.5212 8.33555 22.8339 8.59956 22.9513 8.96157C23.0687 9.32358 22.9704 9.72083 22.6978 9.98636L18.0746 14.4894L19.1656 20.851C19.23 21.2261 19.0757 21.6053 18.7678 21.8291C18.4598 22.0528 18.0515 22.0823 17.7146 21.9051L12 18.8998L6.28548 21.9051C5.94856 22.0823 5.54027 22.0528 5.2323 21.8291C4.92432 21.6053 4.77007 21.2261 4.83442 20.851L5.92551 14.4894L1.3023 9.98636C1.02968 9.72083 0.931405 9.32358 1.04878 8.96157C1.16616 8.59956 1.47884 8.33555 1.8554 8.28051L8.24577 7.34647L11.1033 1.55738C11.2718 1.21607 11.6194 1 12 1ZM12 4.25925L9.80674 8.70262C9.6612 8.99747 9.38001 9.20193 9.05466 9.24949L4.14844 9.9666L7.69776 13.4236C7.93364 13.6534 8.0413 13.9845 7.98564 14.309L7.14821 19.1917L11.5346 16.8849C11.826 16.7317 12.1741 16.7317 12.4655 16.8849L16.8518 19.1917L16.0144 14.309C15.9588 13.9845 16.0664 13.6534 16.3023 13.4236L19.8516 9.9666L14.9454 9.24949C14.62 9.20193 14.3389 8.99747 14.1933 8.70262L12 4.25925Z" fill="black"/>
</svg>
