<?xml version="1.0" encoding="UTF-8" standalone="no"?>
<svg
   xmlns:dc="http://purl.org/dc/elements/1.1/"
   xmlns:cc="http://creativecommons.org/ns#"
   xmlns:rdf="http://www.w3.org/1999/02/22-rdf-syntax-ns#"
   xmlns:svg="http://www.w3.org/2000/svg"
   xmlns="http://www.w3.org/2000/svg"
   xmlns:sodipodi="http://sodipodi.sourceforge.net/DTD/sodipodi-0.dtd"
   xmlns:inkscape="http://www.inkscape.org/namespaces/inkscape"
   width="24"
   height="24"
   viewBox="0 0 24 24"
   fill="none"
   version="1.1"
   id="svg6"
   sodipodi:docname="icon-flag.svg">
  <metadata
     id="metadata12">
    <rdf:RDF>
      <cc:Work
         rdf:about="">
        <dc:format>image/svg+xml</dc:format>
        <dc:type
           rdf:resource="http://purl.org/dc/dcmitype/StillImage" />
      </cc:Work>
    </rdf:RDF>
  </metadata>
  <defs
     id="defs10" />
  <sodipodi:namedview
     pagecolor="#ffffff"
     bordercolor="#666666"
     borderopacity="1"
     objecttolerance="10"
     gridtolerance="10"
     guidetolerance="10"    
     id="namedview8"
     showgrid="false"/>
  <path
     style="color:#000000;font-style:normal;font-variant:normal;font-weight:normal;font-stretch:normal;font-size:medium;line-height:normal;font-family:sans-serif;font-variant-ligatures:normal;font-variant-position:normal;font-variant-caps:normal;font-variant-numeric:normal;font-variant-alternates:normal;font-variant-east-asian:normal;font-feature-settings:normal;font-variation-settings:normal;text-indent:0;text-align:start;text-decoration:none;text-decoration-line:none;text-decoration-style:solid;text-decoration-color:#000000;letter-spacing:normal;word-spacing:normal;text-transform:none;writing-mode:lr-tb;direction:ltr;text-orientation:mixed;dominant-baseline:auto;baseline-shift:baseline;text-anchor:start;white-space:normal;shape-padding:0;shape-margin:0;inline-size:0;clip-rule:nonzero;display:inline;overflow:visible;visibility:visible;isolation:auto;mix-blend-mode:normal;color-interpolation:sRGB;color-interpolation-filters:linearRGB;solid-color:#000000;solid-opacity:1;vector-effect:none;fill:#000000;fill-opacity:1;fill-rule:nonzero;stroke:none;stroke-linecap:round;stroke-linejoin:round;stroke-miterlimit:4;stroke-dasharray:none;stroke-dashoffset:0;stroke-opacity:1;color-rendering:auto;image-rendering:auto;shape-rendering:auto;text-rendering:auto;enable-background:accumulate;stop-color:#000000;stop-opacity:1;opacity:1"
     d="M 8 1 C 6.3888889 1 5.256972 1.2710393 4.5039062 1.5722656 C 3.7508405 1.8734919 3.2929687 2.2929688 3.2929688 2.2929688 A 1.0001 1.0001 0 0 0 3 3 L 3 15 A 1.0001 1.0001 0 0 0 4.7070312 15.707031 C 4.7070312 15.707031 4.7491595 15.626508 5.2460938 15.427734 C 5.743028 15.228961 6.6111111 15 8 15 C 9.2777778 15 10.378906 15.427734 11.628906 15.927734 C 12.878906 16.427734 14.277778 17 16 17 C 17.611111 17 18.743028 16.728961 19.496094 16.427734 C 20.24916 16.126508 20.707031 15.707031 20.707031 15.707031 A 1.0001 1.0001 0 0 0 21 15 L 21 3 A 1.0001 1.0001 0 0 0 19.292969 2.2929688 C 19.292969 2.2929688 19.25084 2.3734919 18.753906 2.5722656 C 18.256972 2.7710393 17.388889 3 16 3 C 14.722222 3 13.621094 2.5722656 12.371094 2.0722656 C 11.121094 1.5722656 9.7222222 1 8 1 z M 8 3 C 9.2777778 3 10.378906 3.4277344 11.628906 3.9277344 C 12.878906 4.4277344 14.277778 5 16 5 C 17.382435 5 18.259744 4.756565 19 4.5097656 L 19 14.445312 C 18.923367 14.490203 18.98056 14.481604 18.753906 14.572266 C 18.256972 14.771039 17.388889 15 16 15 C 14.722222 15 13.621094 14.572266 12.371094 14.072266 C 11.121094 13.572266 9.7222222 13 8 13 C 6.6175654 13 5.7402557 13.243435 5 13.490234 L 5 3.5546875 C 5.0766329 3.5097967 5.0194403 3.5183958 5.2460938 3.4277344 C 5.743028 3.2289607 6.6111111 3 8 3 z "
     id="path2" />
  <path
     style="color:#000000;font-style:normal;font-variant:normal;font-weight:normal;font-stretch:normal;font-size:medium;line-height:normal;font-family:sans-serif;font-variant-ligatures:normal;font-variant-position:normal;font-variant-caps:normal;font-variant-numeric:normal;font-variant-alternates:normal;font-variant-east-asian:normal;font-feature-settings:normal;font-variation-settings:normal;text-indent:0;text-align:start;text-decoration:none;text-decoration-line:none;text-decoration-style:solid;text-decoration-color:#000000;letter-spacing:normal;word-spacing:normal;text-transform:none;writing-mode:lr-tb;direction:ltr;text-orientation:mixed;dominant-baseline:auto;baseline-shift:baseline;text-anchor:start;white-space:normal;shape-padding:0;shape-margin:0;inline-size:0;clip-rule:nonzero;display:inline;overflow:visible;visibility:visible;isolation:auto;mix-blend-mode:normal;color-interpolation:sRGB;color-interpolation-filters:linearRGB;solid-color:#000000;solid-opacity:1;vector-effect:none;fill:#000000;fill-opacity:1;fill-rule:nonzero;stroke:none;stroke-linecap:round;stroke-linejoin:round;stroke-miterlimit:4;stroke-dasharray:none;stroke-dashoffset:0;stroke-opacity:1;color-rendering:auto;image-rendering:auto;shape-rendering:auto;text-rendering:auto;enable-background:accumulate;stop-color:#000000;stop-opacity:1;opacity:1"
     d="M 4 14 A 1 1 0 0 0 3 15 L 3 22 A 1 1 0 0 0 4 23 A 1 1 0 0 0 5 22 L 5 15 A 1 1 0 0 0 4 14 z "
     id="path4" />
</svg>
