<?xml version="1.0" encoding="UTF-8" standalone="no"?>
<svg
   xmlns:dc="http://purl.org/dc/elements/1.1/"
   xmlns:cc="http://creativecommons.org/ns#"
   xmlns:rdf="http://www.w3.org/1999/02/22-rdf-syntax-ns#"
   xmlns:svg="http://www.w3.org/2000/svg"
   xmlns="http://www.w3.org/2000/svg"
   xmlns:sodipodi="http://sodipodi.sourceforge.net/DTD/sodipodi-0.dtd"
   xmlns:inkscape="http://www.inkscape.org/namespaces/inkscape"
   width="24"
   height="24"
   viewBox="0 0 24 24"
   fill="none"
   version="1.1"
   id="svg6"
   sodipodi:docname="icon-rotate-cw.svg"
   inkscape:version="1.0.2 (e86c870879, 2021-01-15)">
  <metadata
     id="metadata12">
    <rdf:RDF>
      <cc:Work
         rdf:about="">
        <dc:format>image/svg+xml</dc:format>
        <dc:type
           rdf:resource="http://purl.org/dc/dcmitype/StillImage" />
      </cc:Work>
    </rdf:RDF>
  </metadata>
  <defs
     id="defs10" />
  <sodipodi:namedview
     pagecolor="#ffffff"
     bordercolor="#666666"
     borderopacity="1"
     objecttolerance="10"
     gridtolerance="10"
     guidetolerance="10"
     inkscape:pageopacity="0"
     inkscape:pageshadow="2"
     inkscape:window-width="1419"
     inkscape:window-height="1100"
     id="namedview8"
     showgrid="false"
     inkscape:zoom="29.791667"
     inkscape:cx="12"
     inkscape:cy="12"
     inkscape:window-x="0"
     inkscape:window-y="0"
     inkscape:window-maximized="0"
     inkscape:current-layer="svg6" />
  <path
     style="color:#000000;font-style:normal;font-variant:normal;font-weight:normal;font-stretch:normal;font-size:medium;line-height:normal;font-family:sans-serif;font-variant-ligatures:normal;font-variant-position:normal;font-variant-caps:normal;font-variant-numeric:normal;font-variant-alternates:normal;font-variant-east-asian:normal;font-feature-settings:normal;font-variation-settings:normal;text-indent:0;text-align:start;text-decoration:none;text-decoration-line:none;text-decoration-style:solid;text-decoration-color:#000000;letter-spacing:normal;word-spacing:normal;text-transform:none;writing-mode:lr-tb;direction:ltr;text-orientation:mixed;dominant-baseline:auto;baseline-shift:baseline;text-anchor:start;white-space:normal;shape-padding:0;shape-margin:0;inline-size:0;clip-rule:nonzero;display:inline;overflow:visible;visibility:visible;isolation:auto;mix-blend-mode:normal;color-interpolation:sRGB;color-interpolation-filters:linearRGB;solid-color:#000000;solid-opacity:1;vector-effect:none;fill:#000000;fill-opacity:1;fill-rule:nonzero;stroke:none;stroke-linecap:round;stroke-linejoin:round;stroke-miterlimit:4;stroke-dasharray:none;stroke-dashoffset:0;stroke-opacity:1;color-rendering:auto;image-rendering:auto;shape-rendering:auto;text-rendering:auto;enable-background:accumulate;stop-color:#000000;stop-opacity:1;opacity:1"
     d="M 23 3 A 1 1 0 0 0 22 4 L 22 9 L 17 9 A 1 1 0 0 0 16 10 A 1 1 0 0 0 17 11 L 23 11 A 1.0001 1.0001 0 0 0 24 10 L 24 4 A 1 1 0 0 0 23 3 z "
     id="path2" />
  <path
     style="color:#000000;font-style:normal;font-variant:normal;font-weight:normal;font-stretch:normal;font-size:medium;line-height:normal;font-family:sans-serif;font-variant-ligatures:normal;font-variant-position:normal;font-variant-caps:normal;font-variant-numeric:normal;font-variant-alternates:normal;font-variant-east-asian:normal;font-feature-settings:normal;font-variation-settings:normal;text-indent:0;text-align:start;text-decoration:none;text-decoration-line:none;text-decoration-style:solid;text-decoration-color:#000000;letter-spacing:normal;word-spacing:normal;text-transform:none;writing-mode:lr-tb;direction:ltr;text-orientation:mixed;dominant-baseline:auto;baseline-shift:baseline;text-anchor:start;white-space:normal;shape-padding:0;shape-margin:0;inline-size:0;clip-rule:nonzero;display:inline;overflow:visible;visibility:visible;isolation:auto;mix-blend-mode:normal;color-interpolation:sRGB;color-interpolation-filters:linearRGB;solid-color:#000000;solid-opacity:1;vector-effect:none;fill:#000000;fill-opacity:1;fill-rule:nonzero;stroke:none;stroke-linecap:round;stroke-linejoin:round;stroke-miterlimit:4;stroke-dasharray:none;stroke-dashoffset:0;stroke-opacity:1;color-rendering:auto;image-rendering:auto;shape-rendering:auto;text-rendering:auto;enable-background:accumulate;stop-color:#000000;stop-opacity:1;opacity:1"
     d="M 13.408203 2.1015625 C 11.261667 1.7970811 9.0743392 2.1973017 7.1757812 3.2441406 C 5.2772328 4.2909915 3.769011 5.9284714 2.8808594 7.90625 C 1.9927193 9.8840276 1.7710786 12.096422 2.25 14.210938 C 2.728916 16.325368 3.8834723 18.226794 5.5371094 19.628906 C 7.1907763 21.030923 9.2555939 21.857718 11.419922 21.984375 C 13.584257 22.111035 15.731239 21.531723 17.537109 20.332031 C 19.34297 19.132346 20.711406 17.378221 21.433594 15.333984 A 1 1 0 0 0 20.822266 14.056641 A 1 1 0 0 0 19.546875 14.666016 C 18.969063 16.301579 17.874627 17.706101 16.429688 18.666016 C 14.984757 19.625924 13.268774 20.089621 11.537109 19.988281 C 9.8053573 19.886938 8.1532112 19.225299 6.8300781 18.103516 C 5.5069352 16.981628 4.5843559 15.461301 4.2011719 13.769531 C 3.8179732 12.077647 3.9944582 10.307072 4.7050781 8.7246094 C 5.4157065 7.142148 6.6215535 5.8337028 8.140625 4.9960938 C 9.659707 4.1584927 11.409489 3.8384127 13.126953 4.0820312 C 14.844528 4.3256441 16.435868 5.12065 17.662109 6.3476562 A 1.0001 1.0001 0 0 0 17.683594 6.3671875 L 22.314453 10.728516 A 1 1 0 0 0 23.728516 10.685547 A 1 1 0 0 0 23.685547 9.2714844 L 19.078125 4.9335938 L 19.076172 4.9316406 C 17.543876 3.3992357 15.553916 2.4059004 13.408203 2.1015625 z "
     id="path4" />
</svg>
