<svg width="24" height="24" viewBox="0 0 24 24" fill="none" xmlns="http://www.w3.org/2000/svg">
  <path
     style="color:#000000;fill:#000000;stroke-linecap:round;stroke-linejoin:round;-inkscape-stroke:none"
     d="M 8.3847656,7.0761719 A 1.0001,1.0001 0 0 0 7.0761719,8.3847656 L 12.492188,21.384766 a 1.0001,1.0001 0 0 0 1.871093,-0.0625 l 1.763672,-5.195313 5.195313,-1.763672 a 1.0001,1.0001 0 0 0 0.0625,-1.871093 z m 1.4726563,2.78125 8.3125001,3.4628911 -3.152344,1.072265 a 1.0001,1.0001 0 0 0 -0.625,0.625 l -1.072265,3.152344 z" />
  <path
     style="color:#000000;fill:#000000;stroke-linecap:round;stroke-linejoin:round;-inkscape-stroke:none"
     d="m 15.292969,15.292969 a 1,1 0 0 0 0,1.414062 l 4,4 a 1,1 0 0 0 1.414062,0 1,1 0 0 0 0,-1.414062 l -4,-4 a 1,1 0 0 0 -1.414062,0 z" />
  <path
     style="color:#000000;fill:#000000;stroke-linecap:round;-inkscape-stroke:none"
     d="M 7,2 C 4.2504232,2 2,4.2504232 2,7 2,8.8102741 2.9687788,10.408042 4.4199219,11.283203 A 1,1 0 0 0 5.7929687,10.943359 1,1 0 0 0 5.453125,9.5722656 C 4.5825704,9.0472481 4,8.098643 4,7 4,5.3313012 5.3313012,4 7,4 8.210656,4 9.2408114,4.7093047 9.71875,5.7285156 a 1,1 0 0 0 1.330078,0.4804688 1,1 0 0 0 0.480469,-1.3300782 C 10.730697,3.1758799 8.9948408,2 7,2 Z" />
</svg>
