<?xml version="1.0" encoding="UTF-8" standalone="no"?>
<svg
   xmlns:dc="http://purl.org/dc/elements/1.1/"
   xmlns:cc="http://creativecommons.org/ns#"
   xmlns:rdf="http://www.w3.org/1999/02/22-rdf-syntax-ns#"
   xmlns:svg="http://www.w3.org/2000/svg"
   xmlns="http://www.w3.org/2000/svg"
   xmlns:sodipodi="http://sodipodi.sourceforge.net/DTD/sodipodi-0.dtd"
   xmlns:inkscape="http://www.inkscape.org/namespaces/inkscape"
   width="24"
   height="24"
   viewBox="0 0 24 24"
   fill="none"
   version="1.1"
   id="svg4"
   sodipodi:docname="icon-heart.svg">
  <metadata
     id="metadata10">
    <rdf:RDF>
      <cc:Work
         rdf:about="">
        <dc:format>image/svg+xml</dc:format>
        <dc:type
           rdf:resource="http://purl.org/dc/dcmitype/StillImage" />
      </cc:Work>
    </rdf:RDF>
  </metadata>
  <defs
     id="defs8" />
  <sodipodi:namedview
     pagecolor="#ffffff"
     bordercolor="#666666"
     borderopacity="1"
     objecttolerance="10"
     gridtolerance="10"
     guidetolerance="10"     
     id="namedview6"/>
  <path
     style="color:#000000;font-style:normal;font-variant:normal;font-weight:normal;font-stretch:normal;font-size:medium;line-height:normal;font-family:sans-serif;font-variant-ligatures:normal;font-variant-position:normal;font-variant-caps:normal;font-variant-numeric:normal;font-variant-alternates:normal;font-variant-east-asian:normal;font-feature-settings:normal;font-variation-settings:normal;text-indent:0;text-align:start;text-decoration:none;text-decoration-line:none;text-decoration-style:solid;text-decoration-color:#000000;letter-spacing:normal;word-spacing:normal;text-transform:none;writing-mode:lr-tb;direction:ltr;text-orientation:mixed;dominant-baseline:auto;baseline-shift:baseline;text-anchor:start;white-space:normal;shape-padding:0;shape-margin:0;inline-size:0;clip-rule:nonzero;display:inline;overflow:visible;visibility:visible;isolation:auto;mix-blend-mode:normal;color-interpolation:sRGB;color-interpolation-filters:linearRGB;solid-color:#000000;solid-opacity:1;vector-effect:none;fill:#000000;fill-opacity:1;fill-rule:nonzero;stroke:none;stroke-linecap:round;stroke-linejoin:round;stroke-miterlimit:4;stroke-dasharray:none;stroke-dashoffset:0;stroke-opacity:1;color-rendering:auto;image-rendering:auto;shape-rendering:auto;text-rendering:auto;enable-background:accumulate;stop-color:#000000;stop-opacity:1;opacity:1"
     d="M 7.0507812 1.9980469 C 5.3269178 1.9980469 3.672081 2.6833878 2.453125 3.9023438 C 1.234169 5.1212997 0.54882813 6.7761365 0.54882812 8.5 C 0.54882813 10.223872 1.2341708 11.87869 2.453125 13.097656 L 3.5136719 14.15625 L 11.292969 21.9375 A 1.0001 1.0001 0 0 0 12.707031 21.9375 L 20.486328 14.15625 L 21.546875 13.097656 C 22.150715 12.494052 22.630222 11.777234 22.957031 10.988281 C 23.283951 10.199431 23.451172 9.3537952 23.451172 8.5 C 23.451172 7.6462048 23.283942 6.8005822 22.957031 6.0117188 C 22.630226 5.2228239 22.150755 4.5059398 21.546875 3.9023438 C 20.943264 3.2983895 20.226214 2.8190182 19.4375 2.4921875 C 18.648666 2.1653442 17.803059 1.9980469 16.949219 1.9980469 C 16.095378 1.9980469 15.25167 2.1653179 14.462891 2.4921875 C 13.674024 2.8190323 12.957135 3.2984996 12.353516 3.9023438 L 12 4.2558594 L 11.646484 3.9023438 C 10.427544 2.6833798 8.7746447 1.9980469 7.0507812 1.9980469 z M 7.0507812 3.9980469 C 8.2449778 3.9980469 9.3880222 4.4719902 10.232422 5.3164062 L 11.292969 6.3769531 A 1.0001 1.0001 0 0 0 12.707031 6.3769531 L 13.767578 5.3164062 C 14.185558 4.8982704 14.682382 4.5661189 15.228516 4.3398438 C 15.774536 4.1135733 16.358059 3.9980469 16.949219 3.9980469 C 17.540378 3.9980469 18.125709 4.1135471 18.671875 4.3398438 C 19.217961 4.566133 19.715024 4.8983805 20.132812 5.3164062 C 20.550933 5.7343302 20.88318 6.2313186 21.109375 6.7773438 C 21.335665 7.3234003 21.451172 7.9088152 21.451172 8.5 C 21.451172 9.0911848 21.335655 9.6766465 21.109375 10.222656 C 20.883185 10.768704 20.550972 11.265598 20.132812 11.683594 L 19.072266 12.742188 L 12 19.816406 L 4.9277344 12.742188 L 3.8671875 11.683594 C 3.0227617 10.83916 2.5488281 9.6942083 2.5488281 8.5 C 2.5488281 7.3058035 3.0227635 6.1608303 3.8671875 5.3164062 C 4.7116115 4.4719822 5.8565847 3.9980469 7.0507812 3.9980469 z "
     id="path2" />
</svg>
