<svg width="24" height="24" viewBox="0 0 24 24" fill="none" xmlns="http://www.w3.org/2000/svg">
<path fill-rule="evenodd" clip-rule="evenodd" d="M12 1C12.5523 1 13 1.44772 13 2V10.2516L19.993 6.13807C20.469 5.85805 21.0819 6.01695 21.3619 6.49298C21.642 6.96901 21.4831 7.58191 21.007 7.86193L12.507 12.8619C12.1978 13.0438 11.8149 13.0461 11.5035 12.868C11.1921 12.69 11 12.3587 11 12V2C11 1.44772 11.4477 1 12 1Z" fill="black"/>
<path fill-rule="evenodd" clip-rule="evenodd" d="M12 3C7.02944 3 3 7.02944 3 12C3 16.9706 7.02944 21 12 21C16.9706 21 21 16.9706 21 12C21 7.02944 16.9706 3 12 3ZM1 12C1 5.92487 5.92487 1 12 1C18.0751 1 23 5.92487 23 12C23 18.0751 18.0751 23 12 23C5.92487 23 1 18.0751 1 12Z" fill="black"/>
<path fill-rule="evenodd" clip-rule="evenodd" d="M19.4697 17.8483L11.4697 12.8483L12.5297 11.1523L20.5297 16.1523C20.9981 16.4451 21.1404 17.062 20.8477 17.5303C20.555 17.9987 19.9381 18.1411 19.4697 17.8483Z" fill="black"/>
</svg>
