<svg width="24" height="24" viewBox="0 0 24 24" fill="none" xmlns="http://www.w3.org/2000/svg">
<path fill-rule="evenodd" clip-rule="evenodd" d="M2 6C2 5.44772 2.44772 5 3 5H21C21.5523 5 22 5.44772 22 6C22 6.55228 21.5523 7 21 7H3C2.44772 7 2 6.55228 2 6Z" fill="black"/>
<path fill-rule="evenodd" clip-rule="evenodd" d="M10 3C9.73478 3 9.48043 3.10536 9.29289 3.29289C9.10536 3.48043 9 3.73478 9 4V6C9 6.55228 8.55228 7 8 7C7.44772 7 7 6.55228 7 6V4C7 3.20435 7.31607 2.44129 7.87868 1.87868C8.44129 1.31607 9.20435 1 10 1H14C14.7956 1 15.5587 1.31607 16.1213 1.87868C16.6839 2.44129 17 3.20435 17 4V6C17 6.55228 16.5523 7 16 7C15.4477 7 15 6.55228 15 6V4C15 3.73478 14.8946 3.48043 14.7071 3.29289C14.5196 3.10536 14.2652 3 14 3H10ZM5 5C5.55228 5 6 5.44772 6 6V20C6 20.2652 6.10536 20.5196 6.29289 20.7071C6.48043 20.8946 6.73478 21 7 21H17C17.2652 21 17.5196 20.8946 17.7071 20.7071C17.8946 20.5196 18 20.2652 18 20V6C18 5.44772 18.4477 5 19 5C19.5523 5 20 5.44772 20 6V20C20 20.7957 19.6839 21.5587 19.1213 22.1213C18.5587 22.6839 17.7957 23 17 23H7C6.20435 23 5.44129 22.6839 4.87868 22.1213C4.31607 21.5587 4 20.7957 4 20V6C4 5.44772 4.44772 5 5 5Z" fill="black"/>
</svg>
