<svg width="24" height="24" viewBox="0 0 24 24" fill="none" xmlns="http://www.w3.org/2000/svg">
<path fill-rule="evenodd" clip-rule="evenodd" d="M1.46447 15.4645C2.40215 14.5268 3.67392 14 5 14H13C14.3261 14 15.5979 14.5268 16.5355 15.4645C17.4732 16.4021 18 17.6739 18 19V21C18 21.5523 17.5523 22 17 22C16.4477 22 16 21.5523 16 21V19C16 18.2044 15.6839 17.4413 15.1213 16.8787C14.5587 16.3161 13.7956 16 13 16H5C4.20435 16 3.44129 16.3161 2.87868 16.8787C2.31607 17.4413 2 18.2044 2 19V21C2 21.5523 1.55228 22 1 22C0.447715 22 0 21.5523 0 21V19C0 17.6739 0.526784 16.4021 1.46447 15.4645Z" fill="black"/>
<path fill-rule="evenodd" clip-rule="evenodd" d="M9 4C7.34315 4 6 5.34315 6 7C6 8.65685 7.34315 10 9 10C10.6569 10 12 8.65685 12 7C12 5.34315 10.6569 4 9 4ZM4 7C4 4.23858 6.23858 2 9 2C11.7614 2 14 4.23858 14 7C14 9.76142 11.7614 12 9 12C6.23858 12 4 9.76142 4 7Z" fill="black"/>
<path fill-rule="evenodd" clip-rule="evenodd" d="M19.032 14.8801C19.1701 14.3454 19.7155 14.0238 20.2502 14.1619C21.3229 14.4388 22.2732 15.0642 22.9519 15.9398C23.6307 16.8153 23.9994 17.8915 24.0002 18.9994L24.0002 21.0001C24.0002 21.5524 23.5525 22.0001 23.0002 22.0001C22.448 22.0001 22.0002 21.5524 22.0002 21.0001L22.0002 19.0009C22.0002 19.0008 22.0002 19.001 22.0002 19.0009C21.9997 18.3363 21.7784 17.6904 21.3713 17.1651C20.964 16.6398 20.3938 16.2645 19.7502 16.0984C19.2155 15.9603 18.8939 15.4149 19.032 14.8801Z" fill="black"/>
<path fill-rule="evenodd" clip-rule="evenodd" d="M15.0315 2.88208C15.1685 2.34706 15.7133 2.02439 16.2483 2.16137C17.3238 2.43675 18.2771 3.06225 18.9578 3.93926C19.6386 4.81627 20.0081 5.89491 20.0081 7.00512C20.0081 8.11534 19.6386 9.19397 18.9578 10.071C18.2771 10.948 17.3238 11.5735 16.2483 11.8489C15.7133 11.9859 15.1685 11.6632 15.0315 11.1282C14.8945 10.5931 15.2172 10.0484 15.7522 9.91137C16.3975 9.74615 16.9695 9.37085 17.3779 8.84464C17.7864 8.31843 18.0081 7.67125 18.0081 7.00512C18.0081 6.339 17.7864 5.69181 17.3779 5.16561C16.9695 4.6394 16.3975 4.2641 15.7522 4.09887C15.2172 3.96189 14.8945 3.41711 15.0315 2.88208Z" fill="black"/>
</svg>
