<svg width="24" height="24" viewBox="0 0 24 24" fill="none" xmlns="http://www.w3.org/2000/svg">
<path fill-rule="evenodd" clip-rule="evenodd" d="M6.67003 4C6.23304 4 5.87879 4.35425 5.87879 4.79125V8.18182C5.87879 8.73178 5.43483 9.17805 4.88576 9.18179C4.88469 9.18182 4.88268 9.18187 4.87977 9.18197C4.87048 9.18228 4.85223 9.18305 4.82634 9.1849C4.77421 9.18862 4.6932 9.19656 4.59338 9.21319C4.38898 9.24726 4.13174 9.31353 3.88661 9.43609C3.64539 9.5567 3.43459 9.72191 3.28186 9.95101C3.1333 10.1738 3 10.5159 3 11.0606C3 11.6053 3.1333 11.9474 3.28186 12.1702C3.43459 12.3993 3.64539 12.5645 3.88661 12.6851C4.13174 12.8077 4.38898 12.874 4.59338 12.908C4.6932 12.9247 4.77421 12.9326 4.82634 12.9363C4.85223 12.9382 4.87048 12.9389 4.87977 12.9392C4.88267 12.9393 4.88468 12.9394 4.88575 12.9394C5.43483 12.9432 5.87879 13.3894 5.87879 13.9394V17.33C5.87879 17.767 6.23304 18.1212 6.67003 18.1212H10.0606C10.6106 18.1212 11.0568 18.5652 11.0606 19.1142C11.0606 19.1153 11.0607 19.1173 11.0608 19.1202C11.0611 19.1295 11.0618 19.1478 11.0637 19.1737C11.0674 19.2258 11.0753 19.3068 11.092 19.4066C11.126 19.611 11.1923 19.8683 11.3149 20.1134C11.4355 20.3546 11.6007 20.5654 11.8298 20.7181C12.0526 20.8667 12.3947 21 12.9394 21C13.4841 21 13.8262 20.8667 14.049 20.7181C14.2781 20.5654 14.4433 20.3546 14.5639 20.1134C14.6865 19.8683 14.7527 19.611 14.7868 19.4066C14.8034 19.3068 14.8114 19.2258 14.8151 19.1737C14.8169 19.1478 14.8177 19.1295 14.818 19.1202C14.8181 19.1173 14.8182 19.1153 14.8182 19.1142C14.822 18.5651 15.2682 18.1212 15.8182 18.1212H19.2088C19.6457 18.1212 20 17.767 20 17.33V14.8001C19.7314 14.7323 19.425 14.6298 19.1134 14.474C18.6349 14.2347 18.126 13.8602 17.739 13.2796C17.3478 12.6928 17.1212 11.9553 17.1212 11.0606C17.1212 10.1659 17.3478 9.42843 17.739 8.84161C18.126 8.26104 18.6349 7.88648 19.1134 7.64724C19.425 7.49144 19.7314 7.38893 20 7.32109V4.79125C20 4.35425 19.6457 4 19.2088 4H16.6789C16.6111 4.26862 16.5086 4.575 16.3528 4.88661C16.1135 5.36509 15.739 5.87398 15.1584 6.26103C14.5716 6.65224 13.8341 6.87879 12.9394 6.87879C12.0447 6.87879 11.3072 6.65224 10.7204 6.26103C10.1398 5.87398 9.76527 5.36509 9.52603 4.88661C9.37022 4.575 9.26772 4.26862 9.19987 4H6.67003ZM11.0606 2.99303C11.0568 2.44396 10.6106 2 10.0606 2H6.67003C5.12847 2 3.87879 3.24968 3.87879 4.79125V7.32109C3.61017 7.38893 3.30379 7.49144 2.99218 7.64724C2.5137 7.88648 2.0048 8.26104 1.61776 8.84161C1.22654 9.42843 1 10.1659 1 11.0606C1 11.9553 1.22654 12.6928 1.61776 13.2796C2.0048 13.8602 2.5137 14.2347 2.99218 14.474C3.30379 14.6298 3.61017 14.7323 3.87879 14.8001V17.33C3.87879 18.8715 5.12847 20.1212 6.67003 20.1212H9.19987C9.26772 20.3898 9.37022 20.6962 9.52603 21.0078C9.76527 21.4863 10.1398 21.9952 10.7204 22.3822C11.3072 22.7735 12.0447 23 12.9394 23C13.8341 23 14.5716 22.7735 15.1584 22.3822C15.739 21.9952 16.1135 21.4863 16.3528 21.0078C16.5086 20.6962 16.6111 20.3898 16.6789 20.1212H19.2088C20.7503 20.1212 22 18.8715 22 17.33V13.9394C22 13.3894 21.556 12.9432 21.007 12.9394C21.0059 12.9394 21.0039 12.9393 21.001 12.9392C20.9917 12.9389 20.9734 12.9382 20.9475 12.9363C20.8954 12.9326 20.8144 12.9247 20.7146 12.908C20.5102 12.874 20.253 12.8077 20.0078 12.6851C19.7666 12.5645 19.5558 12.3993 19.4031 12.1702C19.2545 11.9474 19.1212 11.6053 19.1212 11.0606C19.1212 10.5159 19.2545 10.1738 19.4031 9.95101C19.5558 9.72191 19.7666 9.5567 20.0078 9.43609C20.253 9.31353 20.5102 9.24726 20.7146 9.21319C20.8144 9.19656 20.8954 9.18862 20.9475 9.1849C20.9734 9.18305 20.9917 9.18228 21.001 9.18197C21.0039 9.18187 21.0059 9.18182 21.007 9.18179C21.556 9.17805 22 8.73178 22 8.18182V4.79125C22 3.24968 20.7503 2 19.2088 2H15.8182C15.2682 2 14.822 2.44393 14.8182 2.99299C14.8182 2.99239 14.8182 2.9921 14.8182 2.99213L14.8182 2.99415L14.8182 2.99659L14.8182 2.99817L14.8182 2.99905C14.8182 2.99952 14.8182 3 15.8182 3M14.8182 2.99299C14.8182 2.99405 14.8181 2.99607 14.818 2.99902C14.8177 3.00831 14.8169 3.02655 14.8151 3.05245C14.8114 3.10458 14.8034 3.18558 14.7868 3.28541C14.7527 3.48981 14.6865 3.74705 14.5639 3.99218C14.4433 4.2334 14.2781 4.4442 14.049 4.59693C13.8262 4.74548 13.4841 4.87879 12.9394 4.87879C12.3947 4.87879 12.0526 4.74548 11.8298 4.59693C11.6007 4.4442 11.4355 4.2334 11.3149 3.99218C11.1923 3.74705 11.126 3.48981 11.092 3.28541C11.0753 3.18558 11.0674 3.10458 11.0637 3.05245C11.0618 3.02655 11.0611 3.00831 11.0608 2.99902C11.0607 2.99611 11.0606 2.9941 11.0606 2.99303M11.0606 2.99214C11.0606 2.99213 11.0606 2.99213 11.0606 2.99213ZM4.88666 9.18178H4.88665Z" fill="black"/>
</svg>
