<svg width="24" height="24" viewBox="0 0 24 24" fill="none" xmlns="http://www.w3.org/2000/svg">
<path fill-rule="evenodd" clip-rule="evenodd" d="M4 3C3.44772 3 3 3.44772 3 4V8C3 8.55228 3.44772 9 4 9H20C20.5523 9 21 8.55228 21 8V4C21 3.44772 20.5523 3 20 3H4ZM1 4C1 2.34315 2.34315 1 4 1H20C21.6569 1 23 2.34315 23 4V8C23 9.65685 21.6569 11 20 11H4C2.34315 11 1 9.65685 1 8V4Z" fill="black"/>
<path fill-rule="evenodd" clip-rule="evenodd" d="M4 15C3.44772 15 3 15.4477 3 16V20C3 20.5523 3.44772 21 4 21H20C20.5523 21 21 20.5523 21 20V16C21 15.4477 20.5523 15 20 15H4ZM1 16C1 14.3431 2.34315 13 4 13H20C21.6569 13 23 14.3431 23 16V20C23 21.6569 21.6569 23 20 23H4C2.34315 23 1 21.6569 1 20V16Z" fill="black"/>
<path fill-rule="evenodd" clip-rule="evenodd" d="M5 6C5 5.44772 5.44772 5 6 5H6.01C6.56229 5 7.01 5.44772 7.01 6C7.01 6.55228 6.56229 7 6.01 7H6C5.44772 7 5 6.55228 5 6Z" fill="black"/>
<path fill-rule="evenodd" clip-rule="evenodd" d="M5 18C5 17.4477 5.44772 17 6 17H6.01C6.56229 17 7.01 17.4477 7.01 18C7.01 18.5523 6.56229 19 6.01 19H6C5.44772 19 5 18.5523 5 18Z" fill="black"/>
</svg>
