<svg width="24" height="24" viewBox="0 0 24 24" fill="none" xmlns="http://www.w3.org/2000/svg">
<path fill-rule="evenodd" clip-rule="evenodd" d="M8.00001 3C8.00001 2.44772 8.44772 2 9.00001 2H15C15.5523 2 16 2.44772 16 3V11.6569L22.7894 20.3861C23.0238 20.6875 23.0661 21.0963 22.8983 21.4394C22.7305 21.7824 22.3819 22 22 22H2.00001C1.61807 22 1.2695 21.7824 1.10169 21.4394C0.933889 21.0963 0.976171 20.6875 1.21066 20.3861L8.00001 11.6569V3ZM10 4V12C10 12.2224 9.92589 12.4384 9.78936 12.6139L4.04465 20H19.9554L14.2107 12.6139C14.0741 12.4384 14 12.2224 14 12V4H10Z" fill="black"/>
<path fill-rule="evenodd" clip-rule="evenodd" d="M6 15L18 15V17H6V15Z" fill="black"/>
<path fill-rule="evenodd" clip-rule="evenodd" d="M17 3C17 3.55228 16.5523 4 16 4L8 4C7.44771 4 7 3.55228 7 3C7 2.44772 7.44771 2 8 2L16 2C16.5523 2 17 2.44772 17 3Z" fill="black"/>
<path fill-rule="evenodd" clip-rule="evenodd" d="M13 7C13 7.55228 12.5523 8 12 8H10C9.44772 8 9 7.55228 9 7C9 6.44772 9.44772 6 10 6H12C12.5523 6 13 6.44772 13 7Z" fill="black"/>
<path fill-rule="evenodd" clip-rule="evenodd" d="M13 10C13 10.5523 12.5523 11 12 11H10C9.44772 11 9 10.5523 9 10C9 9.44772 9.44772 9 10 9H12C12.5523 9 13 9.44772 13 10Z" fill="black"/>
</svg>
