<?xml version="1.0" encoding="UTF-8" standalone="no"?>
<svg
   xmlns:dc="http://purl.org/dc/elements/1.1/"
   xmlns:cc="http://creativecommons.org/ns#"
   xmlns:rdf="http://www.w3.org/1999/02/22-rdf-syntax-ns#"
   xmlns:svg="http://www.w3.org/2000/svg"
   xmlns="http://www.w3.org/2000/svg"
   xmlns:sodipodi="http://sodipodi.sourceforge.net/DTD/sodipodi-0.dtd"
   xmlns:inkscape="http://www.inkscape.org/namespaces/inkscape"
   width="24"
   height="24"
   viewBox="0 0 24 24"
   fill="none"
   version="1.1"
   id="svg12"
   sodipodi:docname="icon-new_releases.svg"
   inkscape:version="1.0.2 (e86c870879, 2021-01-15)">
  <metadata
     id="metadata18">
    <rdf:RDF>
      <cc:Work
         rdf:about="">
        <dc:format>image/svg+xml</dc:format>
        <dc:type
           rdf:resource="http://purl.org/dc/dcmitype/StillImage" />
        <dc:title></dc:title>
      </cc:Work>
    </rdf:RDF>
  </metadata>
  <defs
     id="defs16" />
  <sodipodi:namedview
     pagecolor="#ffffff"
     bordercolor="#666666"
     borderopacity="1"
     objecttolerance="10"
     gridtolerance="10"
     guidetolerance="10"
     inkscape:pageopacity="0"
     inkscape:pageshadow="2"
     inkscape:window-width="2215"
     inkscape:window-height="1154"
     id="namedview14"
     showgrid="true"
     inkscape:zoom="29.791667"
     inkscape:cx="9.1132867"
     inkscape:cy="12"
     inkscape:window-x="298"
     inkscape:window-y="51"
     inkscape:window-maximized="0"
     inkscape:current-layer="svg12"
     inkscape:document-rotation="0">
    <inkscape:grid
       type="xygrid"
       id="grid834" />
  </sodipodi:namedview>
  <path
     id="path2"
     style="color:#000000;font-style:normal;font-variant:normal;font-weight:normal;font-stretch:normal;font-size:medium;line-height:normal;font-family:sans-serif;font-variant-ligatures:normal;font-variant-position:normal;font-variant-caps:normal;font-variant-numeric:normal;font-variant-alternates:normal;font-variant-east-asian:normal;font-feature-settings:normal;font-variation-settings:normal;text-indent:0;text-align:start;text-decoration:none;text-decoration-line:none;text-decoration-style:solid;text-decoration-color:#000000;letter-spacing:normal;word-spacing:normal;text-transform:none;writing-mode:lr-tb;direction:ltr;text-orientation:mixed;dominant-baseline:auto;baseline-shift:baseline;text-anchor:start;white-space:normal;shape-padding:0;shape-margin:0;inline-size:0;clip-rule:nonzero;overflow:visible;visibility:visible;isolation:auto;mix-blend-mode:normal;color-interpolation:sRGB;color-interpolation-filters:linearRGB;solid-color:#000000;solid-opacity:1;vector-effect:none;fill:#231f20;fill-opacity:1;fill-rule:nonzero;stroke:none;stroke-linecap:butt;stroke-linejoin:miter;stroke-miterlimit:10;stroke-dasharray:none;stroke-dashoffset:0;stroke-opacity:1;color-rendering:auto;image-rendering:auto;shape-rendering:auto;text-rendering:auto;enable-background:accumulate;stop-color:#000000"
     d="M 9.0820312 1.5078125 C 8.9261188 1.5142194 8.7652213 1.5421231 8.5996094 1.59375 C 7.3091899 2.0387447 7.1520519 3.5589062 6.6035156 4.6113281 C 5.4306297 4.8243468 3.9319127 4.4875912 3.1015625 5.5742188 C 2.3200517 6.6937179 3.1007676 8.0091239 3.2539062 9.1894531 C 2.7334565 9.6936585 1.8376291 10.236361 1.3496094 10.929688 C 0.60628063 11.896731 1.1627628 13.2212 2.078125 13.84375 C 3.0732183 14.371708 3.5426256 15.145424 2.9335938 16.201172 C 2.5604668 17.207956 2.7275176 18.60182 3.8554688 19.035156 C 4.7262382 19.392843 5.6979801 19.261861 6.6054688 19.404297 C 7.1657846 20.448151 7.317493 21.968276 8.5976562 22.421875 C 9.9115936 22.822274 10.911264 21.645735 12 21.150391 C 13.079753 21.663855 14.085339 22.82783 15.400391 22.421875 C 16.6908 21.976865 16.847961 20.456723 17.396484 19.404297 C 18.569358 19.191276 20.06811 19.528047 20.898438 18.441406 C 21.683698 17.321989 20.898473 16.004915 20.746094 14.824219 C 21.26656 14.320004 22.162367 13.777317 22.650391 13.083984 C 23.393716 12.116942 22.837244 10.792465 21.921875 10.169922 C 20.926776 9.6419685 20.45738 8.8682462 21.066406 7.8125 C 21.439523 6.8057274 21.272456 5.4138059 20.144531 4.9804688 C 19.273758 4.6228025 18.30201 4.7537502 17.394531 4.6113281 C 16.834232 3.5674723 16.682494 2.0473614 15.402344 1.59375 C 14.088408 1.1933503 13.088736 2.3698912 12 2.8652344 C 11.047621 2.4192824 10.173418 1.4629642 9.0820312 1.5078125 z M 9.21875 3.4960938 C 9.805643 3.8080983 10.720495 4.7382239 11.630859 4.8378906 C 12.875219 5.0959361 13.777912 4.0918635 14.763672 3.5507812 C 15.250287 4.559197 15.376069 5.9097938 16.537109 6.4257812 C 17.335163 6.8764211 18.634384 6.6525025 19.285156 6.7539062 C 19.164061 7.3677317 18.553205 8.5600507 18.740234 9.4453125 C 18.876983 10.647664 20.030004 11.20349 20.851562 11.894531 C 21.269064 12.212454 19.567551 12.852435 19.240234 13.449219 C 18.492791 14.317103 18.65239 15.538867 19.076172 16.511719 C 19.183338 17.282254 19.598076 17.328534 18.726562 17.289062 C 17.70318 17.266182 16.525411 17.266647 15.818359 18.146484 C 15.315171 18.731743 14.900534 20.127935 14.847656 20.505859 C 13.847397 20.043882 13.032881 18.986458 11.810547 19.15625 C 10.783898 19.18802 10.097567 20.038891 9.2363281 20.464844 C 8.7497208 19.456426 8.6239304 18.103877 7.4628906 17.587891 C 6.6648238 17.137245 5.3656604 17.363145 4.7148438 17.261719 C 4.8359409 16.647877 5.4468002 15.453622 5.2597656 14.568359 C 5.1230159 13.366003 3.9700026 12.810183 3.1484375 12.119141 C 2.7309704 11.801206 4.4324469 11.161234 4.7597656 10.564453 C 5.5064863 9.6967315 5.3488908 8.4770332 4.9257812 7.5039062 C 4.8169314 6.7357495 4.4085878 6.6907728 5.2734375 6.7246094 C 6.2968208 6.7474913 7.4745865 6.7470175 8.1816406 5.8671875 C 8.7583199 5.2492567 8.9245616 4.0370902 9.21875 3.4960938 z M 12 6.9882812 A 1 1 0 0 0 11 7.9882812 L 11 11.988281 A 1 1 0 0 0 12 12.988281 A 1 1 0 0 0 13 11.988281 L 13 7.9882812 A 1 1 0 0 0 12 6.9882812 z M 11.992188 15.007812 A 1 1 0 0 0 10.992188 16.007812 A 1 1 0 0 0 11.992188 17.007812 L 12.001953 17.007812 A 1 1 0 0 0 13.001953 16.007812 A 1 1 0 0 0 12.001953 15.007812 L 11.992188 15.007812 z " />
</svg>
