<svg width="24" height="24" viewBox="0 0 24 24" fill="none" xmlns="http://www.w3.org/2000/svg">
<g clip-path="url(#clip0_485_5875)">
<path fill-rule="evenodd" clip-rule="evenodd" d="M11.9977 5.00002C11.3682 4.99854 10.7408 5.07025 10.1279 5.21371C9.59016 5.33958 9.05219 5.00569 8.92632 4.46794C8.80045 3.93019 9.13434 3.39222 9.67209 3.26634C10.4355 3.08765 11.2171 2.99828 12.0012 3.00003C12.0016 3.00003 12.002 3.00003 12.0023 3.00003L12 4.00003V3.00003C12.0004 3.00003 12.0008 3.00003 12.0012 3.00003C15.9001 3.00046 18.8957 5.22667 20.8545 7.31608C21.8432 8.37062 22.5979 9.42134 23.1057 10.2075C23.3601 10.6015 23.5542 10.9317 23.686 11.166C23.752 11.2833 23.8025 11.3767 23.8372 11.4425C23.8546 11.4753 23.8681 11.5013 23.8777 11.5198L23.889 11.5421L23.8925 11.5489L23.8936 11.5512C23.8938 11.5516 23.8944 11.5528 23 12L22.1181 11.5286C22.0338 11.6864 21.947 11.8428 21.858 11.9978C21.7488 11.8093 21.6044 11.5694 21.4256 11.2926C20.9646 10.5787 20.2818 9.62943 19.3955 8.68397C17.6045 6.77359 15.1005 5.00003 12 5.00003L11.9977 5.00002ZM21.858 11.9978C21.3406 12.8982 20.7439 13.7511 20.0748 14.5462C19.7193 14.9688 19.7736 15.5996 20.1962 15.9552C20.6187 16.3108 21.2496 16.2565 21.6052 15.8339C22.479 14.7953 23.2421 13.6684 23.8819 12.4714C24.0348 12.1854 24.0395 11.8429 23.8944 11.5528L23 12C22.1056 12.4472 22.1057 12.4475 22.1058 12.4478L22.1051 12.4464L22.099 12.4343C22.0929 12.4226 22.0831 12.4036 22.0695 12.3779C22.0423 12.3265 22 12.248 21.9429 12.1465C21.9175 12.1014 21.8892 12.0517 21.858 11.9978ZM6.85478 5.45312C7.18996 5.89207 7.10584 6.51962 6.6669 6.8548C4.83188 8.25604 3.29462 10.0064 2.14257 12.0032C2.25165 12.1916 2.39592 12.4311 2.57441 12.7075C3.03543 13.4213 3.71817 14.3706 4.60454 15.3161C6.39395 17.2248 8.89512 18.9969 11.9918 19C13.9246 18.9667 15.7963 18.3167 17.3338 17.1447C17.773 16.8099 18.4005 16.8946 18.7353 17.3338C19.0701 17.773 18.9855 18.4005 18.5462 18.7353C16.6671 20.1677 14.3789 20.9613 12.0163 20.9999L12 21C8.10049 21 5.10448 18.7736 3.14546 16.684C2.15683 15.6294 1.40207 14.5787 0.894336 13.7926C0.63985 13.3985 0.445792 13.0684 0.313971 12.834C0.248023 12.7168 0.19754 12.6233 0.162753 12.5576C0.145357 12.5247 0.131875 12.4988 0.122338 12.4802L0.11099 12.458L0.107539 12.4512L0.10637 12.4488C0.106186 12.4485 0.105573 12.4472 1 12L0.105573 12.4472C-0.0397387 12.1566 -0.0347895 11.8135 0.118844 11.5272C1.43015 9.08345 3.24891 6.94839 5.4531 5.26525C5.89204 4.93007 6.5196 5.01418 6.85478 5.45312ZM10.6116 9.1983C10.9881 9.60236 10.9658 10.2351 10.5617 10.6116C10.3652 10.7947 10.2076 11.0155 10.0983 11.2609C9.98899 11.5062 9.93022 11.771 9.92548 12.0396C9.92074 12.3081 9.97014 12.5749 10.0707 12.8239C10.1713 13.0729 10.321 13.2992 10.511 13.4891C10.7009 13.679 10.9271 13.8287 11.1761 13.9293C11.4252 14.0299 11.6919 14.0793 11.9604 14.0745C12.229 14.0698 12.4938 14.011 12.7392 13.9017C12.9845 13.7924 13.2053 13.6348 13.3884 13.4383C13.7649 13.0342 14.3977 13.0119 14.8017 13.3884C15.2058 13.7649 15.2281 14.3977 14.8516 14.8017C14.4854 15.1947 14.0438 15.51 13.5531 15.7286C13.0625 15.9472 12.5328 16.0648 11.9957 16.0742C11.4586 16.0837 10.9252 15.9849 10.4271 15.7837C9.92902 15.5826 9.47657 15.2831 9.09674 14.9033C8.71691 14.5235 8.41747 14.071 8.21629 13.5729C8.01511 13.0749 7.91631 12.5414 7.92579 12.0043C7.93527 11.4672 8.05282 10.9375 8.27145 10.4469C8.49007 9.95621 8.80528 9.51461 9.19828 9.14841C9.60234 8.77191 10.2351 8.79425 10.6116 9.1983Z" fill="black"/>
<path fill-rule="evenodd" clip-rule="evenodd" d="M0.292893 0.292893C0.683417 -0.0976311 1.31658 -0.0976311 1.70711 0.292893L23.7071 22.2929C24.0976 22.6834 24.0976 23.3166 23.7071 23.7071C23.3166 24.0976 22.6834 24.0976 22.2929 23.7071L0.292893 1.70711C-0.0976311 1.31658 -0.0976311 0.683417 0.292893 0.292893Z" fill="black"/>
</g>
<defs>
<clipPath id="clip0_485_5875">
<rect width="24" height="24" fill="white"/>
</clipPath>
</defs>
</svg>
