<svg width="24" height="24" viewBox="0 0 24 24" fill="none" xmlns="http://www.w3.org/2000/svg">
<path fill-rule="evenodd" clip-rule="evenodd" d="M12 3C7.02944 3 3 7.02944 3 12C3 16.9706 7.02944 21 12 21C16.9706 21 21 16.9706 21 12C21 7.02944 16.9706 3 12 3ZM1 12C1 5.92487 5.92487 1 12 1C18.0751 1 23 5.92487 23 12C23 18.0751 18.0751 23 12 23C5.92487 23 1 18.0751 1 12Z" fill="black"/>
<path fill-rule="evenodd" clip-rule="evenodd" d="M12.2582 8.02391C11.7927 7.94406 11.314 8.03154 10.9068 8.27086C10.4996 8.51018 10.1902 8.88588 10.0335 9.33144C9.85018 9.85243 9.27926 10.1262 8.75827 9.94293C8.23728 9.75966 7.96351 9.18874 8.14678 8.66775C8.46025 7.77664 9.07898 7.02523 9.89339 6.5466C10.7078 6.06796 11.6653 5.893 12.5964 6.0527C13.5274 6.2124 14.3719 6.69645 14.9802 7.41912C15.5884 8.14165 15.9214 9.05607 15.9201 10.0005C15.9197 11.5309 14.7851 12.5415 13.9748 13.0816C13.5392 13.3721 13.1107 13.5856 12.795 13.7259C12.6358 13.7967 12.5016 13.8504 12.405 13.8872C12.3566 13.9056 12.3174 13.9199 12.2888 13.9301L12.2541 13.9423L12.243 13.946L12.2391 13.9473L12.2376 13.9479C12.2373 13.948 12.2363 13.9483 11.9201 12.9996L12.2363 13.9483C11.7124 14.1229 11.1461 13.8398 10.9714 13.3158C10.7969 12.7922 11.0796 12.2263 11.6028 12.0513L11.6016 12.0517C11.6017 12.0517 11.6018 12.0516 11.6028 12.0513L11.6188 12.0457C11.6342 12.0402 11.6594 12.031 11.693 12.0182C11.7605 11.9925 11.8607 11.9525 11.9827 11.8983C12.2296 11.7886 12.551 11.6271 12.8654 11.4175C13.555 10.9578 13.9201 10.4687 13.9201 9.9996L13.9201 9.99811C13.9208 9.52579 13.7543 9.06846 13.4502 8.70712C13.146 8.34579 12.7238 8.10376 12.2582 8.02391Z" fill="black"/>
<path fill-rule="evenodd" clip-rule="evenodd" d="M11 17C11 16.4477 11.4477 16 12 16H12.01C12.5623 16 13.01 16.4477 13.01 17C13.01 17.5523 12.5623 18 12.01 18H12C11.4477 18 11 17.5523 11 17Z" fill="black"/>
</svg>
