<svg width="24" height="24" viewBox="0 0 24 24" fill="none" xmlns="http://www.w3.org/2000/svg">
    <path d="M0.508 0.123 C 0.328 0.242,0.140 0.447,0.046 0.627 C -0.023 0.760,-0.012 1.261,0.064 1.412 C 0.100 1.482,1.435 2.849,3.032 4.448 L 5.936 7.357 5.517 7.788 C 3.963 9.388,3.103 11.427,3.013 13.720 C 2.965 14.966,3.176 16.155,3.662 17.366 C 4.455 19.343,5.838 20.891,7.735 21.927 C 9.684 22.992,12.007 23.283,14.200 22.737 C 15.703 22.364,17.051 21.613,18.243 20.486 L 18.666 20.086 20.503 21.925 C 21.513 22.936,22.420 23.817,22.517 23.882 C 22.674 23.987,22.727 24.000,23.000 24.000 C 23.275 24.000,23.325 23.987,23.492 23.877 C 23.672 23.758,23.860 23.553,23.954 23.373 C 23.979 23.325,24.000 23.152,24.000 22.989 C 24.000 22.728,23.986 22.673,23.882 22.517 C 23.720 22.275,1.572 0.144,1.412 0.064 C 1.329 0.023,1.179 0.000,0.989 0.000 C 0.726 0.000,0.673 0.014,0.508 0.123 M11.640 1.727 C 11.514 1.787,11.088 2.185,10.217 3.057 C 8.898 4.376,8.800 4.499,8.800 4.847 C 8.800 5.303,9.386 5.891,9.841 5.891 C 10.173 5.891,10.261 5.827,11.151 4.946 L 12.002 4.102 14.425 6.521 C 15.758 7.851,17.010 9.120,17.207 9.340 C 18.510 10.790,19.144 12.706,18.968 14.665 C 18.944 14.939,18.942 15.184,18.965 15.304 C 19.040 15.705,19.371 15.949,19.896 15.989 C 20.392 16.026,20.719 15.840,20.860 15.440 C 21.024 14.977,21.036 13.441,20.883 12.560 C 20.597 10.908,20.004 9.598,18.947 8.280 C 18.814 8.115,17.319 6.592,15.623 4.895 C 13.275 2.546,12.496 1.790,12.357 1.725 C 12.124 1.616,11.869 1.617,11.640 1.727 M17.069 18.834 C 16.055 19.885,14.789 20.582,13.336 20.888 C 12.955 20.968,12.787 20.979,12.000 20.979 C 11.213 20.978,11.045 20.966,10.660 20.885 C 8.869 20.507,7.351 19.523,6.299 18.060 C 5.993 17.634,5.533 16.725,5.367 16.220 C 4.679 14.124,5.002 11.847,6.243 10.040 C 6.372 9.853,6.669 9.487,6.904 9.226 L 7.332 8.752 12.285 13.705 L 17.239 18.658 17.069 18.834 " stroke="none" fill-rule="evenodd" fill="black"/>
</svg>