<svg width="24" height="24" viewBox="0 0 24 24" fill="none" xmlns="http://www.w3.org/2000/svg">
<path fill-rule="evenodd" clip-rule="evenodd" d="M4 5C3.45228 5 3 5.45228 3 6V18C3 18.5477 3.45228 19 4 19H20C20.5477 19 21 18.5477 21 18V6C21 5.45228 20.5477 5 20 5H4ZM1 6C1 4.34772 2.34772 3 4 3H20C21.6523 3 23 4.34772 23 6V18C23 19.6523 21.6523 21 20 21H4C2.34772 21 1 19.6523 1 18V6Z" fill="black"/>
<path fill-rule="evenodd" clip-rule="evenodd" d="M1.18085 5.42662C1.49757 4.97417 2.1211 4.86414 2.57355 5.18085L12.0001 11.7794L21.4266 5.18085C21.8791 4.86414 22.5026 4.97417 22.8193 5.42662C23.136 5.87907 23.026 6.5026 22.5735 6.81932L12.5735 13.8193C12.2292 14.0603 11.7709 14.0603 11.4266 13.8193L1.42662 6.81932C0.974174 6.5026 0.864139 5.87907 1.18085 5.42662Z" fill="black"/>
</svg>
