<svg width="24" height="24" viewBox="0 0 24 24" fill="none" xmlns="http://www.w3.org/2000/svg">
<path fill-rule="evenodd" clip-rule="evenodd" d="M8.55556 8C8.24873 8 8 8.24873 8 8.55556V19.4444C8 19.7513 8.24873 20 8.55556 20H19.4444C19.7513 20 20 19.7513 20 19.4444V8.55556C20 8.24873 19.7513 8 19.4444 8H8.55556ZM6 8.55556C6 7.14416 7.14416 6 8.55556 6H19.4444C20.8558 6 22 7.14416 22 8.55556V19.4444C22 20.8558 20.8558 22 19.4444 22H8.55556C7.14416 22 6 20.8558 6 19.4444V8.55556Z" fill="black"/>
<path fill-rule="evenodd" clip-rule="evenodd" d="M4.55556 4C4.24873 4 4 4.24873 4 4.55556V15.4444C4 15.7513 4.24873 16 4.55556 16C5.10784 16 5.55556 16.4477 5.55556 17C5.55556 17.5523 5.10784 18 4.55556 18C3.14416 18 2 16.8558 2 15.4444V4.55556C2 3.14416 3.14416 2 4.55556 2H15.4444C16.8558 2 18 3.14416 18 4.55556C18 5.10784 17.5523 5.55556 17 5.55556C16.4477 5.55556 16 5.10784 16 4.55556C16 4.24873 15.7513 4 15.4444 4H4.55556Z" fill="black"/>
</svg>
