<?xml version="1.0" ?><!DOCTYPE svg  PUBLIC '-//W3C//DTD SVG 1.1//EN'  'http://www.w3.org/Graphics/SVG/1.1/DTD/svg11.dtd'><svg enable_background="new 0 0 450 301" height="301px" style="stroke-linejoin: round; stroke:#000; fill:#f6f3f0;" version="1.1" viewBox="0 0 450 301" width="450px" xmlns="http://www.w3.org/2000/svg" xmlns:xlink="http://www.w3.org/1999/xlink"><defs><style type="text/css"><![CDATA[path { fill-rule: evenodd; }
#context path { fill: #eee; stroke: #bbb; } ]]></style></defs><metadata><views><view h="301.0" padding="0.06" w="450"><proj id="laea" lat0="49.6906623398" lon0="13.0664986939"/><bbox h="37.11" w="60.46" x="988.95" y="980.02"/><llbbox lat0="-90" lat1="90" lon0="-180" lon1="180"/></view></views></metadata><g id="context"><path d="M318,254L317,252L314,245L303,243L296,239L289,237L282,243L273,243L263,242L249,233L241,234L235,231L223,225L218,224L209,227L207,225L203,222L198,222L197,224L196,238L195,243L188,243L182,253L181,259L169,257L165,258L161,262L150,262L142,260L138,251L134,248L129,245L128,245L127,247L127,258L126,261L122,265L119,267L108,262L106,263L103,279L98,285L91,288L83,290L72,297L69,299L326,299L321,291L314,274L313,269L318,259L318,255L318,254Z " data-iso="AUT"/><path d="M183,53L181,55L178,56L172,52L172,47L171,46L169,43L168,40L165,38L153,37L151,39L154,44L158,47L158,48L148,52L142,56L136,58L131,61L119,66L111,67L109,68L106,75L104,76L100,75L92,79L89,85L79,87L75,94L71,93L65,92L61,94L52,95L46,99L41,106L36,115L33,109L28,103L25,107L27,112L30,115L32,122L36,128L42,132L46,136L49,141L49,143L46,150L42,155L43,158L52,171L56,181L67,193L73,193L80,200L87,209L92,213L96,215L99,218L102,226L105,228L111,227L120,235L125,240L128,245L129,245L134,248L138,251L142,260L150,262L161,262L165,258L169,257L181,259L182,253L188,243L195,243L196,238L197,224L198,222L203,222L207,225L209,227L218,224L223,225L235,231L241,234L249,233L263,242L273,243L282,243L289,237L296,239L303,243L314,245L317,252L318,254L320,247L324,237L328,232L331,230L338,231L349,232L358,230L365,225L373,217L382,210L384,207L385,197L387,190L399,181L408,169L412,166L424,164L426,163L425,161L423,154L410,142L408,136L407,131L404,129L394,127L392,129L386,125L379,122L375,119L372,122L366,125L361,122L358,118L348,109L355,105L356,102L355,96L346,100L337,101L321,90L311,87L305,87L305,88L308,94L313,102L313,104L301,112L298,116L295,118L290,116L283,104L275,96L274,94L267,92L266,89L270,83L274,81L278,75L274,70L269,67L257,70L254,72L250,67L247,66L237,61L232,60L221,57L217,56L210,49L209,42L201,39L194,37L193,49L188,51L183,52L183,53Z " data-iso="CZE"/><path d="M128,245L125,240L120,235L111,227L105,228L102,226L99,218L96,215L92,213L87,209L80,200L73,193L67,193L56,181L52,171L43,158L42,155L46,150L49,143L49,141L46,136L42,132L36,128L32,122L30,115L27,112L25,107L28,103L33,109L36,115L41,106L46,99L52,95L61,94L65,92L71,93L75,94L79,87L89,85L92,79L100,75L104,76L106,75L109,68L111,67L119,66L131,61L136,58L142,56L148,52L158,48L158,47L154,44L151,39L153,37L165,38L168,40L169,43L171,46L172,47L172,52L178,56L181,55L183,53L183,52L184,50L189,38L192,30L194,15L190,4L190,0L0,0L0,299L69,299L72,297L83,290L91,288L98,285L103,279L106,263L108,262L119,267L122,265L126,261L127,258L127,247L128,245Z " data-iso="DEU"/><path d="M450,299L450,295L441,297L438,299L450,299Z " data-iso="HUN"/><path d="M183,52L188,51L193,49L194,37L201,39L209,42L210,49L217,56L221,57L232,60L237,61L247,66L250,67L254,72L257,70L269,67L274,70L278,75L274,81L270,83L266,89L267,92L274,94L275,96L283,104L290,116L295,118L298,116L301,112L313,104L313,102L308,94L305,88L305,87L311,87L321,90L337,101L346,100L355,96L356,102L355,105L348,109L358,118L361,122L366,125L372,122L375,119L379,122L386,125L392,129L394,127L404,129L407,131L408,136L410,142L423,154L425,161L426,163L432,164L435,173L445,172L450,163L450,0L190,0L190,4L194,15L192,30L189,38L184,50L183,52Z " data-iso="POL"/><path d="M450,163L445,172L435,173L432,164L426,163L424,164L412,166L408,169L399,181L387,190L385,197L384,207L382,210L373,217L365,225L358,230L349,232L338,231L331,230L328,232L324,237L320,247L318,254L318,255L318,259L313,269L314,274L321,291L326,299L438,299L441,297L450,295L450,163Z " data-iso="SVK"/></g><g fill="red" fill-opacity="0.35" id="regions"><path d="M110,226L111,223L114,219L114,215L115,211L118,210L121,205L120,203L123,195L125,183L124,180L123,178L123,178L123,173L122,169L120,166L119,161L120,159L124,157L126,156L125,149L127,139L116,132L112,132L109,129L103,129L102,128L103,125L102,124L101,125L93,120L94,116L92,112L92,104L90,100L83,97L79,96L76,94L76,95L74,94L68,91L61,95L50,96L47,100L44,102L39,108L37,117L34,111L28,103L25,104L25,110L28,112L30,116L34,127L43,132L46,133L47,137L50,140L50,142L48,147L46,147L46,152L42,154L42,156L49,167L51,168L53,175L57,184L62,188L64,192L70,194L71,192L74,193L78,196L79,199L82,202L91,214L94,214L101,222L101,224L106,228L107,229L109,226L110,226Z " data-fips="EZ09" data-fips-="EZ81" data-iso3="CZE" data-name="Karlovarsk"/><path d="M207,168L199,168L192,172L185,167L182,168L181,171L176,175L164,174L161,174L158,175L151,173L150,174L144,175L141,173L139,174L138,176L132,178L127,176L123,178L124,180L125,183L123,195L120,203L121,205L118,210L115,211L114,215L114,219L111,223L110,226L111,226L114,228L116,232L119,235L121,235L123,238L126,244L138,250L141,254L140,258L143,261L152,261L158,263L164,261L167,256L171,258L175,258L176,259L181,260L182,252L186,248L188,242L196,244L196,242L197,233L197,227L197,221L207,222L209,228L213,226L216,224L223,225L230,230L232,230L233,224L229,221L229,219L235,213L228,210L223,210L220,207L218,203L215,202L217,195L218,194L220,189L221,188L220,182L220,178L223,175L221,173L222,168L217,165L214,166L211,165L207,168Z " data-fips="EZ01" data-fips-="EZ79" data-iso3="CZE" data-name="Jihocesk"/><path d="M223,175L220,178L220,182L221,188L220,189L218,194L217,195L215,202L218,203L220,207L223,210L228,210L235,213L229,219L229,221L233,224L232,230L235,231L243,234L249,232L249,234L254,236L254,237L262,242L265,243L271,243L280,243L283,243L286,238L290,237L299,239L299,240L307,244L314,245L315,251L318,252L319,251L322,241L325,236L327,232L330,230L333,229L336,230L343,233L347,230L350,232L352,233L364,227L367,222L371,221L374,213L375,212L380,212L384,209L385,205L385,201L378,198L373,192L373,190L369,185L365,182L363,175L355,174L355,178L348,179L345,182L336,179L337,186L333,189L331,183L331,179L332,178L332,174L328,168L323,167L318,164L314,159L308,157L306,156L305,158L303,162L300,161L293,160L290,160L282,164L274,161L272,160L261,155L255,155L253,157L251,156L245,163L244,168L239,174L233,177L228,177L226,175L223,175Z " data-fips="EZ02" data-fips-="EZ78" data-iso3="CZE" data-name="Kraj Vysocina"/><path d="M175,120L168,115L165,116L157,119L156,121L155,120L150,123L156,132L156,135L164,134L171,131L176,131L175,126L177,122L175,120Z " data-fips="EZ11" data-fips-="EZ88" data-iso3="CZE" data-name="Prague"/><path d="M198,78L196,76L193,75L189,75L182,83L178,86L172,87L170,85L164,86L163,90L160,92L158,92L157,99L152,101L149,101L144,101L138,101L136,105L134,105L128,109L127,108L121,111L117,112L110,116L105,122L103,123L102,124L103,125L102,128L103,129L109,129L112,132L116,132L127,139L125,149L126,156L124,157L120,159L119,161L120,166L122,169L123,173L123,178L123,178L127,176L132,178L138,176L139,174L141,173L144,175L150,174L151,173L158,175L161,174L164,174L176,175L181,171L182,168L185,167L192,172L199,168L207,168L211,165L211,164L207,159L207,158L213,153L220,149L225,143L226,133L221,129L219,129L216,127L219,125L220,119L217,115L218,113L216,104L208,103L207,101L203,99L204,92L202,86L203,83L200,80L199,77L198,78Z M175,120L177,122L175,126L176,131L171,131L164,134L156,135L156,132L150,123L155,120L156,121L157,119L165,116L168,115L175,120Z " data-fips="EZ05" data-fips-="EZ88" data-iso3="CZE" data-name="Stredocesk"/><path d="M76,94L79,96L83,97L90,100L92,104L92,112L94,116L93,120L101,125L102,124L103,123L105,122L110,116L117,112L121,111L127,108L128,109L134,105L136,105L138,101L144,101L149,101L152,101L157,99L158,92L160,92L163,90L164,86L170,85L172,87L178,86L182,83L189,75L193,75L196,76L198,78L199,77L203,74L214,70L216,66L215,61L216,59L215,58L214,53L211,51L210,42L204,40L202,37L198,38L194,38L192,40L193,41L194,45L193,51L187,51L185,52L179,56L177,56L172,53L173,48L169,48L168,46L164,36L163,37L159,38L155,36L151,37L151,41L153,43L155,45L157,46L158,49L156,50L150,50L147,53L138,58L135,57L130,60L129,64L119,66L113,66L109,71L107,74L102,76L101,74L97,76L95,79L92,78L90,83L88,86L79,86L78,90L77,93L76,94Z " data-fips="EZ03" data-fips-="EZ83" data-iso3="CZE" data-name="Libereck"/><path d="M216,59L215,61L216,66L214,70L203,74L199,77L200,80L203,83L202,86L204,92L203,99L207,101L208,103L216,104L218,113L217,115L220,119L219,125L216,127L219,129L221,129L226,133L225,143L220,149L213,153L207,158L207,159L211,164L211,165L214,166L217,165L222,168L221,173L223,175L226,175L228,177L233,177L239,174L244,168L245,163L251,156L253,157L255,155L261,155L272,160L274,161L282,164L290,160L293,160L300,161L303,162L305,158L306,156L306,153L303,149L299,141L300,139L299,130L298,128L303,123L303,119L306,109L305,109L300,112L300,113L294,118L291,117L288,113L286,108L284,106L280,100L276,98L275,94L271,93L269,94L267,91L266,91L265,89L269,84L273,82L276,79L278,73L272,68L269,67L263,71L261,69L258,69L255,72L251,66L244,67L241,62L239,60L234,62L232,60L220,56L216,59L216,59Z " data-fips="EZ07" data-fips-="EZ82" data-iso3="CZE" data-name="Krlovhradeck"/><path d="M306,109L303,119L303,123L298,128L299,130L300,139L299,141L303,149L306,153L306,156L308,157L314,159L318,164L323,167L328,168L332,174L332,178L331,179L331,183L333,189L337,186L336,179L345,182L348,179L355,178L355,174L363,175L365,182L369,185L373,190L373,192L378,198L385,201L385,200L385,195L386,192L389,188L397,184L400,181L400,176L407,171L409,167L412,167L415,166L420,167L423,164L426,163L424,156L421,149L418,149L415,147L413,147L409,140L408,135L409,133L408,132L407,128L402,130L395,127L392,129L390,128L389,126L383,123L375,118L375,121L371,123L366,125L364,125L360,122L356,116L357,114L354,114L351,114L348,110L349,108L352,108L356,106L357,103L354,95L353,94L350,99L349,100L343,99L334,99L334,101L331,95L325,94L323,90L320,91L317,89L306,86L305,89L307,91L308,96L313,101L313,106L312,104L310,106L308,106L306,108L306,109Z " data-fips="PL04" data-fips-="EZ85" data-iso3="CZE" data-name="Moravskoslezsk"/></g></svg>