<?xml version="1.0" ?><!DOCTYPE svg  PUBLIC '-//W3C//DTD SVG 1.1//EN'  'http://www.w3.org/Graphics/SVG/1.1/DTD/svg11.dtd'><svg enable_background="new 0 0 450 451" height="451px" style="stroke-linejoin: round; stroke:#000; fill:#f6f3f0;" version="1.1" viewBox="0 0 450 451" width="450px" xmlns="http://www.w3.org/2000/svg" xmlns:xlink="http://www.w3.org/1999/xlink"><defs><style type="text/css"><![CDATA[path { fill-rule: evenodd; }
#context path { fill: #eee; stroke: #bbb; } ]]></style></defs><metadata><views><view h="451" padding="0.06" w="450"><proj id="laea" lat0="-40.0914285214" lon0="175.74042475"/><bbox h="174.62" w="120.08" x="913.94" y="923.73"/><llbbox lat0="-90" lat1="90" lon0="-180" lon1="180"/></view></views></metadata><g id="context"><path d="M127,418L122,413L119,414L120,420L117,428L115,430L116,432L123,429L125,426L129,426L130,422L128,422L125,419L127,418Z M93,383L91,382L89,383L93,385L93,383Z M96,367L95,371L98,371L96,367Z M248,221L249,219L247,217L246,219L248,221Z M229,235L227,224L226,221L220,219L219,214L219,212L224,211L222,210L213,214L209,219L206,225L205,233L203,241L199,248L191,253L189,262L187,272L182,282L178,287L176,293L174,291L171,293L166,296L168,296L162,301L160,304L156,306L155,310L141,319L138,323L130,326L124,330L114,344L106,356L105,355L100,360L102,364L99,363L98,369L100,371L101,374L95,372L96,375L93,375L92,379L98,379L94,384L99,384L95,387L88,388L88,393L91,393L93,390L92,395L94,396L97,392L94,398L96,401L102,401L116,399L119,403L127,402L130,406L130,408L137,409L140,408L147,409L152,408L160,406L164,398L170,393L174,385L180,384L180,377L184,367L188,356L190,347L190,339L191,332L194,327L204,322L210,318L211,316L213,317L220,314L217,316L223,315L230,317L232,315L231,312L224,309L223,304L218,305L223,301L220,298L222,298L226,293L230,291L236,284L241,274L248,264L248,261L257,249L256,247L253,247L254,243L252,239L259,231L259,228L254,233L257,226L250,225L248,233L246,234L247,229L250,223L244,225L232,235L229,235Z M287,75L282,71L282,73L287,75Z M228,33L219,21L221,18L212,19L226,36L226,39L224,42L228,46L229,49L237,45L232,53L246,72L250,79L251,79L245,67L248,71L255,72L257,74L256,79L259,81L258,86L254,82L252,82L257,90L260,96L268,96L271,101L267,103L266,105L263,100L263,101L266,108L267,109L267,114L272,124L268,127L269,131L266,137L265,144L263,157L260,159L251,163L245,166L244,174L248,178L258,182L266,189L269,189L274,192L280,202L278,213L275,220L271,227L267,232L266,235L272,239L276,237L278,238L280,243L282,244L294,235L304,221L310,211L313,207L315,203L319,198L325,183L321,177L322,173L326,168L333,164L342,166L345,170L347,167L345,163L347,153L355,148L356,145L358,129L362,121L356,117L349,116L342,121L337,127L335,129L327,130L318,126L301,119L302,117L298,112L296,105L295,97L293,90L290,90L285,81L283,84L285,88L288,103L283,105L281,99L274,95L270,95L266,93L268,86L267,82L268,76L261,67L259,63L262,60L260,56L259,49L255,43L250,44L245,37L243,36L240,37L239,35L232,33L232,30L228,35L228,33Z " data-iso="NZL"/></g><g fill="red" fill-opacity="0.35" id="regions"><path d="M302,166L296,168L295,170L288,170L290,165L290,161L288,158L288,155L287,154L289,148L281,148L279,150L276,150L273,151L271,154L270,155L270,155L272,162L275,165L274,165L270,170L269,172L273,177L274,183L268,189L268,189L273,191L278,196L279,201L283,200L280,203L277,215L271,229L265,232L265,234L270,234L269,234L272,233L271,237L273,239L276,237L279,238L280,245L285,242L297,233L303,223L305,219L311,209L313,208L313,208L308,205L307,198L305,195L301,193L303,183L303,181L304,178L306,177L305,169L303,168L303,166L302,166Z " data-fips="NZF3" data-fips-="" data-iso3="NZL" data-name="Manawatu-Wanganui"/><path d="M321,183L324,183L323,186L318,199L315,203L313,207L313,208L308,205L307,198L305,195L301,193L303,183L303,181L304,178L306,177L305,169L303,168L303,166L304,165L306,166L308,167L309,165L310,162L316,155L316,153L320,151L324,151L331,143L335,140L335,138L340,134L340,131L344,134L345,132L349,123L348,122L351,116L351,116L356,117L362,120L362,123L359,127L357,131L356,138L357,141L355,148L346,154L345,163L346,165L346,168L344,171L343,167L344,165L333,164L324,168L322,172L321,183L321,183L321,183L321,183L321,183L321,183Z " data-fips="NZF1" data-fips-="NZ31" data-iso3="NZL" data-name="Gisborne"/><path d="M321,183L321,183L321,183L321,183Z " data-fips="NZF2" data-fips-="NZ31" data-iso3="NZL" data-name="Hawke's Bay"/><path d="M278,91L273,91L276,93L278,91Z M264,71L264,71L261,73L259,74L259,74L261,75L257,77L255,78L259,79L259,79L259,84L258,86L254,81L252,82L258,92L259,95L268,98L272,100L271,102L269,101L266,103L267,105L262,101L266,110L269,107L266,111L270,123L273,124L269,124L268,129L270,128L270,130L272,133L270,135L266,134L267,135L264,152L264,152L268,153L269,153L270,154L270,155L271,154L273,151L276,150L279,150L281,148L289,148L287,154L288,155L288,158L290,161L290,165L288,170L295,170L296,168L302,166L303,166L304,165L305,163L305,160L302,159L301,156L303,155L303,152L303,149L300,148L302,145L306,145L310,147L310,142L306,140L303,132L298,130L298,126L294,118L294,113L297,110L297,110L296,106L296,99L295,100L295,96L294,93L291,93L293,89L291,90L288,88L289,87L287,82L284,81L282,83L284,85L286,92L284,94L286,97L289,106L282,105L281,98L277,96L275,97L271,93L270,97L270,93L266,94L264,93L266,91L268,93L266,86L266,80L267,78L270,78L264,71L264,71Z M284,70L283,68L282,74L287,77L287,72L284,70Z " data-fips="NZE7" data-fips-="" data-iso3="NZL" data-name="Auckland"/><path d="M350,116L342,120L337,127L330,131L316,126L311,123L307,120L304,118L305,121L299,118L297,116L298,114L302,116L298,112L297,110L297,110L294,113L294,118L298,126L298,130L303,132L306,140L310,142L310,147L306,145L302,145L300,148L303,149L303,152L303,155L301,156L302,159L305,160L305,163L304,165L306,166L308,167L309,165L310,162L316,155L316,153L320,151L324,151L331,143L335,140L335,138L340,134L340,131L344,134L345,132L349,123L348,122L351,116L350,116Z " data-fips="NZE8" data-fips-="" data-iso3="NZL" data-name="Bay of Plenty"/><path d="M220,262L220,262L218,265L216,267L215,267L215,268L214,270L210,273L206,279L203,280L201,284L189,290L175,303L173,305L165,309L163,311L159,318L154,323L153,324L154,326L151,338L155,344L158,346L159,345L162,348L165,354L170,353L171,357L174,356L177,353L183,351L189,353L190,352L190,346L189,341L194,331L196,329L194,325L196,326L202,324L202,321L204,324L211,318L207,314L209,314L212,318L215,317L216,313L217,313L221,314L217,316L217,317L221,315L223,316L228,318L232,315L230,310L228,311L227,309L222,310L225,309L224,307L222,303L218,305L215,304L219,304L223,302L223,299L220,299L217,298L224,295L230,291L236,284L240,274L249,263L251,258L253,256L244,255L239,260L238,264L236,265L232,268L231,272L229,273L224,267L223,264L221,262L220,262Z " data-fips="NZE9" data-fips-="" data-iso3="NZL" data-name="Canterbury"/><path d="M260,230L257,232L259,231L260,230Z M240,227L238,233L236,236L234,238L233,238L233,239L233,242L231,243L226,250L223,256L221,259L220,262L221,262L223,264L224,267L229,273L231,272L232,268L236,265L238,264L239,260L244,255L253,256L255,253L256,248L255,244L252,242L254,235L256,235L258,233L249,234L254,232L257,228L254,224L251,225L251,225L251,228L249,228L251,232L247,233L248,227L245,228L250,222L247,225L244,225L244,227L241,227L240,227Z " data-fips="NZF4" data-fips-="" data-iso3="NZL" data-name="Marlborough"/><path d="M234,238L236,236L238,233L240,227L240,227L240,229L236,231L231,236L231,236L231,236L232,237L233,238L233,238L234,238Z " data-fips="" data-fips-="" data-iso3="NZL" data-name="Nelson"/><path d="M231,236L229,235L229,234L227,226L227,222L226,219L223,221L219,218L219,215L220,211L225,211L216,211L217,213L215,214L213,214L211,217L208,220L208,220L210,224L219,233L217,235L216,239L214,240L212,243L211,246L206,254L205,257L207,261L213,266L215,267L215,267L216,267L218,265L220,262L220,262L221,259L223,256L226,250L231,243L233,242L233,239L233,238L233,238L232,237L231,236L231,236L231,236Z " data-fips="NZ00" data-fips-="" data-iso3="NZL" data-name="Tasman"/><path d="M264,71L260,67L259,64L260,62L257,61L256,58L260,59L263,62L262,54L257,48L256,46L254,43L251,44L251,47L248,42L248,40L251,41L249,39L247,39L236,33L236,35L232,34L231,33L234,31L230,31L229,36L227,36L228,33L225,31L225,29L222,26L221,21L218,21L220,20L221,21L222,17L212,17L212,19L220,28L226,36L226,37L225,42L223,42L227,47L228,47L231,52L231,48L236,47L235,44L238,45L237,47L235,48L235,50L232,52L232,53L244,69L248,75L249,79L252,78L251,75L254,75L252,72L253,70L257,73L257,71L255,76L256,76L259,74L259,74L261,73L264,71L264,71L264,71Z " data-fips="NZF6" data-fips-="" data-iso3="NZL" data-name="Northland"/><path d="M270,154L269,153L268,153L264,152L264,153L263,157L260,160L244,167L244,169L244,174L249,179L257,181L263,188L267,189L268,189L274,183L273,177L269,172L270,170L274,165L275,165L272,162L270,155L270,155L270,154Z " data-fips="NZF9" data-fips-="NZ76" data-iso3="NZL" data-name="Taranaki"/><path d="M208,220L205,223L205,235L205,237L200,248L196,251L191,256L189,263L187,273L189,274L186,275L182,282L182,284L180,283L177,289L170,293L173,295L169,294L168,295L169,298L169,301L168,297L166,296L164,300L156,306L159,307L155,308L156,310L149,315L148,314L140,320L140,321L134,326L125,329L123,332L119,336L119,336L119,337L122,336L123,337L125,340L124,343L127,342L135,337L139,330L145,328L147,329L153,324L153,324L154,323L159,318L163,311L165,309L173,305L175,303L189,290L201,284L203,280L206,279L210,273L214,270L215,268L215,267L215,267L213,266L207,261L205,257L206,254L211,246L212,243L214,240L216,239L217,235L219,233L210,224L208,220L208,220Z " data-fips="NZG3" data-fips-="NZB3" data-iso3="NZL" data-name="West Coast"/><path d="M153,324L147,329L145,328L139,330L135,337L127,342L124,343L124,343L121,348L121,354L122,358L125,360L124,363L126,368L130,369L133,367L137,371L139,371L142,367L146,369L143,380L143,384L144,385L145,389L146,391L148,398L148,400L150,405L149,409L149,409L150,410L159,407L164,399L167,396L171,390L173,387L176,385L182,382L179,383L181,380L179,378L181,373L183,370L184,368L183,366L185,360L188,357L188,353L183,351L177,353L174,356L171,357L170,353L165,354L162,348L159,345L158,346L155,344L151,338L154,326L153,324L153,324Z " data-fips="NZF7" data-fips-="" data-iso3="NZL" data-name="Otago"/><path d="M123,413L119,413L120,420L119,422L119,425L117,426L117,428L115,431L118,432L120,429L123,429L125,427L129,426L130,422L125,421L128,419L123,413Z M98,371L96,367L95,370L98,371Z M124,343L125,340L123,337L122,336L119,337L119,337L114,343L114,347L115,349L109,350L110,353L107,352L105,355L107,360L106,360L105,356L101,359L98,365L97,368L98,370L102,371L99,371L102,375L95,372L93,372L96,376L92,375L91,380L98,380L93,381L94,383L93,385L99,384L95,386L87,389L88,395L91,393L94,390L94,392L91,397L94,396L98,392L94,397L95,401L109,400L110,397L116,398L118,401L118,403L124,403L126,401L130,406L131,404L131,410L136,409L138,408L142,410L146,410L149,408L149,409L150,405L148,400L148,398L146,391L145,389L144,385L143,384L143,380L146,369L142,367L139,371L137,371L133,367L130,369L126,368L124,363L125,360L122,358L121,354L121,348L124,343L124,343Z " data-fips="NZF8" data-fips-="NZ72" data-iso3="NZL" data-name="Southland"/></g></svg>