<?xml version="1.0" ?><!DOCTYPE svg  PUBLIC '-//W3C//DTD SVG 1.1//EN'  'http://www.w3.org/Graphics/SVG/1.1/DTD/svg11.dtd'><svg enable_background="new 0 0 450 301" height="301px" style="stroke-linejoin: round; stroke:#000; fill:#f6f3f0;" version="1.1" viewBox="0 0 450 301" width="450px" xmlns="http://www.w3.org/2000/svg" xmlns:xlink="http://www.w3.org/1999/xlink"><defs><style type="text/css"><![CDATA[path { fill-rule: evenodd; }
#context path { fill: #eee; stroke: #bbb; } ]]></style></defs><metadata><views><view h="301.0" padding="0.06" w="450"><proj id="laea" lat0="39.622" lon0="-98.606"/><bbox h="374.4" w="567.54" x="731.67" y="825.72"/><llbbox lat0="-90" lat1="90" lon0="-180" lon1="180"/></view></views></metadata><g id="context"><path d="M446,288L440,292L443,292L446,288Z M443,277L445,277L446,277L443,277Z M433,281L435,276L435,276L433,281Z M434,276L431,276L432,277L434,276Z M426,276L423,273L423,275L426,276Z M418,273L415,272L415,272L418,273Z M428,264L427,264L427,265L428,264Z M399,269L397,270L401,274L399,269Z M420,265L416,262L418,264L420,265Z M401,261L401,260L400,261L401,261Z M398,265L395,262L393,261L393,268L395,268L398,265Z M406,255L405,256L409,256L406,255Z M388,247L386,248L384,248L388,247Z M400,252L400,249L398,246L400,252Z " data-iso="BHS"/><path d="M474,37L473,38L473,38L474,37Z M432,52L432,51L432,51L432,52Z M428,50L427,49L427,49L428,50Z M380,57L380,56L381,55L380,57Z M382,57L380,58L380,57L382,57Z M393,39L393,39L394,37L393,39Z M457,23L459,24L460,17L464,20L463,23L458,26L455,24L455,13L456,11L458,13L459,18L457,23Z M439,25L443,24L449,21L450,21L447,27L437,27L435,25L435,21L436,23L439,25Z M447,13L446,12L448,8L447,13Z M429,14L429,15L428,15L429,14Z M55,27L55,27L55,25L55,27Z M376,63L382,57L382,54L389,43L396,36L401,21L403,18L414,6L422,3L427,5L428,8L424,15L419,18L424,19L426,16L428,16L429,20L434,29L440,29L439,30L450,30L456,26L461,28L454,37L448,42L445,46L441,56L435,56L433,49L440,38L437,37L439,33L433,40L428,45L424,46L424,46L417,40L413,31L409,28L407,30L402,30L400,43L401,46L399,53L396,58L375,64L376,63Z M476,-30L475,-28L475,-30L476,-30Z M477,-33L477,-31L477,-31L477,-33Z M53,18L52,17L52,15L53,18Z M39,13L38,10L39,10L39,13Z M439,-4L437,-3L428,-2L428,-6L432,-6L439,-5L439,-4Z M50,12L50,11L51,10L50,12Z M465,-36L464,-37L465,-37L465,-36Z M39,2L47,8L49,16L53,21L54,28L55,27L49,27L45,23L47,22L43,20L39,14L42,13L36,6L34,4L33,1L39,2Z M461,-44L459,-40L462,-37L463,-25L464,-23L464,-29L468,-29L469,-24L472,-26L475,-25L482,-30L483,-26L485,-25L485,-21L490,-25L489,-19L489,-16L491,-17L491,-20L493,-21L495,-16L496,-19L499,-9L497,-7L495,-10L492,-9L488,-16L488,-12L486,-10L486,-4L484,-2L482,-4L484,-5L485,-12L482,-8L479,-7L477,-8L475,-5L461,2L458,-0L460,-7L457,-6L458,-16L459,-18L458,-20L457,-30L461,-44Z M38,-7L37,-9L39,-10L38,-7Z M459,-47L459,-47L459,-48L459,-47Z M328,6L326,5L328,4L328,6Z M36,-19L36,-22L36,-22L36,-19Z M36,-24L36,-26L36,-27L36,-24Z M318,-0L311,-3L314,-4L318,-0Z M24,-32L23,-29L23,-21L22,-22L20,-32L24,-32Z M40,-22L39,-18L37,-24L39,-26L40,-22Z M38,-25L37,-25L37,-26L38,-25Z M321,-7L321,-6L321,-7L321,-7Z M34,-27L32,-32L35,-30L34,-27Z M24,-42L27,-38L23,-33L21,-33L21,-42L24,-42Z M34,-41L35,-43L35,-42L34,-41Z M38,-43L37,-43L40,-45L38,-43Z M410,-68L409,-68L410,-68L410,-68Z M320,-35L320,-38L321,-36L320,-35Z M314,-34L315,-36L315,-36L314,-34Z M319,-36L316,-30L317,-34L319,-36Z M399,-79L400,-78L399,-78L399,-79Z M312,-47L311,-46L311,-47L312,-47Z M304,-66L304,-67L304,-67L304,-66Z M374,-98L372,-98L372,-99L374,-98Z M358,-89L357,-93L359,-92L358,-89Z M367,-106L364,-107L366,-108L367,-106Z M239,-78L238,-78L239,-79L239,-78Z M364,-110L365,-109L363,-110L364,-110Z M300,-93L301,-85L301,-85L297,-90L300,-93Z M362,-116L364,-116L363,-115L362,-116Z M339,-106L337,-106L335,-108L339,-106Z M287,-95L286,-90L285,-87L282,-86L281,-90L281,-94L287,-95Z M304,-104L306,-102L302,-103L304,-104Z M303,-109L302,-109L302,-109L303,-109Z M270,-115L271,-116L282,-112L285,-109L285,-105L290,-107L293,-105L284,-102L280,-106L278,-105L278,-102L272,-94L269,-99L264,-97L264,-101L266,-102L265,-116L265,-119L267,-119L270,-115Z M177,-132L176,-132L176,-134L177,-132Z M173,-138L174,-137L173,-138L173,-138Z M306,-149L302,-148L301,-150L306,-150L306,-149Z M172,-138L172,-139L172,-139L172,-138Z M258,-137L257,-140L257,-142L258,-137Z M297,-151L299,-151L301,-147L301,-143L295,-140L293,-145L297,-151Z M191,-140L189,-142L190,-142L191,-140Z M299,-152L297,-155L297,-155L299,-152Z M242,-149L241,-149L241,-150L242,-149Z M282,-152L282,-153L283,-158L284,-157L282,-152Z M243,-151L243,-149L242,-150L243,-151Z M204,-149L203,-150L203,-151L204,-149Z M224,-151L223,-149L223,-150L224,-151Z M317,-171L316,-172L317,-172L317,-171Z M284,-161L282,-159L282,-160L284,-161Z M217,-151L221,-148L224,-143L220,-140L212,-144L211,-147L215,-153L217,-151Z M253,-159L252,-158L252,-158L253,-159Z M207,-159L206,-161L206,-161L207,-159Z M328,95L328,95L329,90L322,73L315,70L315,68L312,68L310,64L304,61L279,50L260,55L254,53L252,52L247,50L247,50L247,50L247,50L245,51L238,49L235,44L233,47L220,48L184,47L143,43L140,43L100,36L60,26L60,25L58,25L58,22L56,18L57,13L54,16L53,15L51,9L51,7L48,6L44,4L46,4L44,0L40,-1L38,-4L39,-8L42,-14L46,-14L38,-11L38,-15L41,-19L41,-24L37,-28L34,-33L37,-37L36,-38L41,-45L41,-45L45,-53L40,-62L39,-62L38,-68L39,-72L40,-82L38,-87L37,-95L36,-98L29,-95L24,-96L25,-98L23,-109L17,-116L40,-147L45,-154L69,-184L74,-191L78,-187L81,-179L84,-176L90,-180L94,-179L96,-176L97,-177L103,-178L109,-176L103,-175L100,-175L96,-174L94,-172L100,-174L104,-173L118,-176L117,-170L119,-165L121,-165L125,-171L126,-170L123,-164L126,-163L129,-166L133,-165L138,-159L152,-151L155,-149L156,-144L151,-143L150,-141L167,-138L168,-139L173,-133L174,-134L176,-129L174,-129L178,-128L177,-135L178,-138L184,-140L186,-143L179,-139L175,-141L186,-145L191,-137L194,-137L200,-133L206,-134L211,-133L212,-135L217,-132L213,-136L216,-141L222,-138L221,-131L225,-128L222,-126L224,-124L226,-129L225,-136L227,-137L232,-142L230,-145L228,-143L229,-150L222,-153L220,-158L221,-168L224,-173L231,-167L232,-164L235,-159L233,-152L241,-151L241,-149L244,-140L246,-149L247,-150L252,-145L253,-141L251,-140L257,-131L260,-140L260,-151L261,-158L264,-157L271,-154L274,-153L274,-151L276,-149L272,-146L278,-139L279,-134L273,-126L269,-129L272,-124L268,-124L260,-125L264,-122L260,-114L257,-113L248,-118L244,-118L249,-116L253,-113L262,-112L256,-100L253,-100L247,-95L241,-96L234,-100L241,-94L243,-96L248,-93L248,-89L245,-88L241,-87L238,-83L239,-81L236,-79L232,-64L232,-64L232,-53L231,-51L234,-48L235,-44L236,-48L241,-48L245,-36L246,-33L253,-34L260,-33L270,-29L273,-25L277,-24L287,-20L288,-20L304,-20L305,-18L306,-12L307,-9L309,-1L314,4L321,9L323,13L328,14L329,9L333,9L331,7L332,1L325,-11L325,-14L319,-20L323,-23L328,-29L332,-36L332,-40L330,-45L326,-52L321,-56L315,-63L317,-70L318,-69L317,-73L316,-73L313,-78L313,-80L311,-81L311,-87L308,-89L308,-96L311,-97L317,-95L321,-97L322,-96L325,-101L339,-92L348,-93L352,-85L352,-84L355,-79L356,-79L355,-73L357,-73L361,-76L363,-76L365,-69L366,-74L370,-70L375,-84L374,-91L372,-96L377,-95L381,-92L381,-90L389,-86L388,-83L391,-85L393,-83L398,-80L397,-77L399,-77L405,-72L400,-71L404,-69L417,-65L417,-60L420,-64L422,-61L423,-65L427,-63L434,-64L435,-63L432,-56L427,-50L427,-47L437,-61L440,-57L446,-59L450,-57L456,-49L454,-38L451,-37L447,-33L445,-22L441,-17L435,-13L426,-11L412,-4L408,-1L406,1L406,8L399,16L398,23L388,24L397,25L392,40L389,43L383,49L379,59L377,61L375,64L372,68L366,76L365,81L352,84L349,86L352,91L352,93L344,99L337,102L328,109L324,106L328,98L328,95Z M218,-182L217,-184L217,-184L218,-182Z M165,-184L170,-187L174,-184L174,-180L179,-185L182,-181L182,-173L185,-174L184,-186L187,-187L190,-186L192,-183L194,-171L193,-166L198,-160L199,-160L204,-156L205,-152L200,-153L199,-150L199,-144L195,-144L189,-145L189,-147L185,-151L181,-147L173,-145L161,-145L158,-149L158,-153L151,-155L149,-160L152,-163L159,-163L165,-161L167,-163L157,-166L152,-168L152,-173L150,-178L149,-181L153,-186L163,-190L166,-191L167,-189L165,-184Z M193,-183L190,-188L190,-190L194,-191L196,-189L193,-183Z M267,-196L274,-196L277,-190L274,-190L270,-188L267,-196Z M252,-167L258,-171L257,-174L252,-177L254,-179L256,-179L253,-181L252,-189L256,-191L258,-194L261,-195L267,-187L268,-179L270,-182L274,-185L274,-188L276,-189L281,-189L287,-186L288,-178L289,-184L298,-184L303,-179L303,-176L305,-180L311,-180L312,-174L314,-178L318,-175L316,-173L318,-171L319,-172L323,-170L319,-169L319,-165L316,-164L326,-163L328,-160L328,-162L335,-159L335,-161L339,-161L342,-159L345,-159L345,-155L349,-159L351,-156L354,-154L351,-153L354,-149L353,-146L350,-147L351,-145L354,-142L353,-140L347,-140L344,-143L345,-146L341,-144L334,-148L334,-144L332,-145L334,-141L330,-141L339,-136L344,-132L344,-134L352,-132L350,-130L357,-127L359,-123L358,-122L361,-119L357,-117L346,-119L345,-116L354,-113L359,-109L359,-107L345,-107L342,-109L339,-108L329,-112L331,-114L321,-118L319,-120L315,-120L313,-121L314,-118L306,-113L299,-115L300,-120L307,-123L308,-122L312,-126L315,-128L309,-134L310,-136L312,-143L313,-144L310,-149L306,-152L302,-154L301,-157L300,-155L295,-156L291,-156L292,-160L288,-163L285,-163L283,-166L280,-166L278,-168L277,-167L280,-164L278,-162L261,-159L255,-159L254,-162L246,-162L243,-166L250,-167L247,-168L242,-170L240,-174L240,-179L241,-185L243,-190L249,-194L251,-194L249,-183L252,-176L256,-172L252,-167Z M209,-192L211,-190L217,-190L217,-187L213,-182L215,-183L217,-179L219,-180L219,-175L217,-170L214,-168L211,-167L207,-173L200,-180L202,-184L204,-181L207,-183L204,-187L209,-192Z M214,-191L211,-191L215,-193L214,-191Z M228,-194L236,-190L232,-181L226,-181L228,-179L227,-174L223,-178L222,-181L221,-188L224,-193L228,-194Z M155,-201L159,-202L162,-200L165,-193L164,-192L152,-188L149,-185L147,-185L144,-180L134,-178L134,-184L130,-188L143,-202L143,-208L155,-201Z M216,-197L215,-196L216,-198L216,-197Z M222,-197L220,-197L221,-198L222,-197Z M226,-202L225,-199L223,-198L218,-201L219,-204L222,-207L223,-207L226,-202Z M219,-206L217,-205L218,-208L219,-206Z M157,-217L157,-217L158,-218L157,-217Z M163,-213L161,-215L167,-217L163,-213Z M261,-216L260,-216L260,-218L261,-216Z M204,-211L201,-211L199,-213L202,-214L204,-211Z M200,-217L201,-214L201,-214L200,-217Z M215,-215L215,-209L215,-203L208,-202L207,-205L209,-207L203,-207L204,-210L206,-209L206,-215L210,-210L209,-217L215,-215Z M206,-216L207,-217L207,-218L206,-216Z M189,-213L192,-210L193,-203L190,-202L186,-204L179,-201L175,-200L170,-203L180,-206L175,-206L173,-210L170,-206L168,-206L164,-210L164,-211L171,-213L166,-213L173,-217L172,-219L174,-220L176,-217L178,-216L180,-211L186,-208L187,-210L185,-216L188,-220L189,-219L189,-213Z M178,-221L175,-222L177,-223L178,-221Z M223,-220L225,-218L231,-218L230,-216L235,-215L238,-209L245,-208L250,-213L260,-212L262,-210L262,-204L257,-202L253,-204L253,-201L251,-200L240,-199L240,-201L233,-200L230,-202L229,-211L226,-215L221,-213L217,-220L223,-220Z M175,-228L172,-222L167,-221L168,-224L162,-218L160,-217L157,-220L154,-220L156,-223L167,-229L172,-230L175,-228Z M199,-222L197,-228L199,-223L199,-222Z M220,-228L224,-228L224,-225L218,-226L220,-228Z M206,-227L206,-229L207,-228L206,-227Z M180,-230L179,-234L179,-233L180,-230Z M188,-232L189,-232L186,-229L188,-229L183,-226L181,-228L182,-232L188,-232Z M203,-231L203,-231L203,-232L203,-231Z M190,-237L190,-234L183,-236L189,-238L190,-237Z M218,-234L220,-233L220,-229L216,-228L216,-231L214,-232L215,-237L218,-234Z M203,-242L205,-240L210,-236L212,-228L206,-232L201,-232L203,-237L200,-237L201,-239L203,-242Z M224,-259L230,-250L230,-253L234,-248L234,-245L237,-246L239,-244L234,-240L233,-232L230,-236L232,-232L226,-233L222,-238L224,-241L222,-241L220,-245L218,-245L216,-249L218,-248L217,-254L221,-253L218,-255L220,-260L224,-259Z M249,-283L252,-284L253,-281L256,-284L262,-282L262,-277L259,-273L258,-269L261,-273L262,-268L260,-257L261,-258L258,-248L258,-246L261,-243L261,-237L256,-235L258,-230L253,-227L260,-226L259,-220L249,-219L247,-220L247,-217L245,-217L235,-217L234,-220L236,-222L237,-230L243,-226L245,-227L246,-229L243,-228L240,-233L237,-232L241,-243L235,-250L234,-252L240,-253L246,-260L248,-261L245,-262L241,-257L238,-257L237,-255L228,-257L227,-260L228,-263L226,-261L226,-264L223,-264L228,-268L232,-268L230,-270L232,-272L236,-269L240,-269L236,-271L236,-275L240,-279L249,-283Z " data-iso="CAN"/><path d="M403,291L401,290L401,291L403,291Z M401,290L401,289L399,289L401,290Z M399,289L398,288L397,288L399,289Z M422,299L423,296L411,296L404,292L404,293L393,289L382,287L376,286L362,287L352,291L345,295L342,299L349,299L357,293L364,292L363,295L366,296L371,296L371,294L374,296L378,295L396,299L422,299Z " data-iso="CUB"/><path d="M450,298L449,299L449,299L450,298Z " data-iso="HTI"/><path d="M112,284L112,282L111,283L112,284Z M96,280L93,278L95,280L96,280Z M92,278L92,275L91,275L92,278Z M103,265L102,265L102,265L103,265Z M45,226L44,224L45,226L45,226Z M96,235L96,232L94,235L96,237L96,235Z M88,233L88,231L85,227L86,230L88,233Z M226,273L209,268L198,249L198,248L189,235L179,235L173,242L166,238L162,235L159,226L149,216L147,213L133,212L132,216L109,213L79,197L81,195L61,193L61,195L64,201L63,202L67,212L67,220L76,230L80,238L73,243L71,242L74,247L75,249L82,255L83,254L93,265L94,269L93,275L104,288L107,289L109,296L110,297L115,291L110,284L105,282L105,277L101,267L101,264L99,258L97,256L94,249L90,245L88,235L78,219L78,217L78,203L83,207L92,212L91,216L93,224L97,235L103,244L109,248L109,251L111,255L114,256L119,262L119,264L117,267L117,270L122,272L123,273L130,283L136,288L144,299L220,299L223,282L226,275L226,273Z " data-iso="MEX"/><path d="M392,153L392,153L392,154L392,153Z M402,98L393,102L392,104L398,102L403,98L402,98Z M57,30L56,30L57,30L57,30Z M58,31L58,30L57,30L58,31Z M59,34L58,34L59,36L59,34Z M58,39L58,39L57,40L58,39Z M58,42L57,41L57,42L58,42Z M420,56L419,57L419,57L420,56Z M418,89L417,89L417,90L418,89Z M414,90L413,89L413,90L414,90Z M395,159L394,156L394,154L395,159Z M389,167L390,164L389,165L389,167Z M388,167L387,166L387,167L388,167Z M39,173L38,173L38,173L39,173Z M41,175L41,174L39,174L41,175Z M42,174L43,175L45,175L42,174Z M363,273L363,273L363,273L363,273Z M392,104L392,104L392,104L391,104L399,96L407,92L412,87L417,85L413,86L410,82L408,82L408,75L415,58L418,57L426,49L424,46L424,46L417,40L413,31L409,28L407,30L402,30L400,43L401,46L399,53L396,58L375,64L372,68L366,76L365,81L352,84L349,86L352,91L352,93L344,99L337,102L328,109L324,106L328,98L328,95L328,95L325,90L323,86L322,86L320,88L318,91L317,91L316,89L316,88L318,87L318,85L319,83L319,81L318,79L317,78L317,77L318,77L317,75L312,73L311,72L307,71L307,71L307,71L305,75L306,75L303,77L304,79L303,81L303,80L303,82L302,81L302,78L300,81L299,83L298,83L299,86L298,89L297,90L298,91L298,94L301,100L301,103L301,105L301,108L299,112L299,112L296,114L294,114L293,113L291,109L291,108L290,104L289,99L289,97L290,87L291,84L290,83L289,83L288,85L287,86L286,86L287,84L287,83L288,82L291,74L291,73L292,74L293,73L295,72L295,73L294,75L294,75L295,74L296,72L301,69L304,69L306,71L307,71L307,71L307,69L312,69L312,68L311,68L311,67L310,67L310,66L309,64L308,64L308,64L307,65L304,65L304,62L303,62L297,64L296,64L294,66L293,67L291,67L291,66L288,67L286,64L284,64L282,63L281,65L280,62L279,62L275,65L272,66L271,66L268,68L267,69L265,68L264,69L265,65L265,65L263,66L262,66L260,67L257,68L257,67L259,65L261,63L264,59L266,58L270,55L272,54L273,52L260,55L254,53L252,52L247,50L245,51L238,49L235,44L233,47L220,48L184,47L143,43L140,43L100,36L60,26L60,27L61,29L59,31L60,37L58,42L56,42L58,36L57,34L50,31L46,29L46,38L46,42L38,67L34,75L31,79L29,88L30,89L29,95L25,102L24,106L26,110L25,120L28,125L28,128L31,131L32,130L36,131L32,131L31,133L31,141L33,142L32,148L39,163L38,169L46,172L48,175L54,180L60,185L61,193L61,193L81,195L79,197L109,213L132,216L133,212L147,213L149,216L159,226L162,235L166,238L173,242L179,235L189,235L198,248L198,249L209,268L226,273L226,272L222,263L224,256L223,254L226,251L234,248L242,242L245,239L243,236L248,237L261,235L267,236L272,234L275,238L281,239L283,237L286,238L287,235L294,239L295,237L290,235L288,233L291,230L288,230L282,229L286,227L295,225L297,225L303,223L304,225L309,222L313,223L315,222L326,227L326,228L336,223L339,224L343,228L348,231L349,239L349,243L354,251L357,251L360,258L367,264L368,267L373,265L375,258L375,251L372,245L361,225L356,212L357,205L357,205L362,195L365,192L370,186L370,183L375,177L379,174L382,169L388,163L382,159L386,158L389,159L392,156L391,153L390,156L385,154L388,151L390,150L385,144L384,145L382,143L385,143L380,140L384,140L382,137L383,135L377,133L382,133L380,129L377,122L382,119L380,122L382,127L381,129L387,133L386,139L389,124L386,122L386,119L390,120L392,118L394,112L393,107L392,104Z M115,118L115,119L113,119L113,120L111,119L111,118L110,119L109,115L108,113L108,111L110,111L110,111L111,114L111,115L112,116L113,114L114,114L114,115L113,115L113,115L114,118L115,118Z M310,65L310,64L310,64L310,65Z M309,64L307,63L307,64L308,64L308,64L309,64Z M44,183L43,182L43,182L44,183Z M53,183L53,184L53,184L53,183Z M356,211L356,212L356,213L356,211Z M295,232L296,231L295,232L295,232Z M271,236L270,235L270,235L271,236Z M373,244L370,239L370,241L373,244Z M292,229L293,228L292,229L292,229Z M296,231L296,230L295,228L296,231Z M357,254L357,253L356,253L357,254Z M224,260L226,255L224,257L224,260Z M374,265L374,265L374,265L374,265Z M371,269L371,269L371,269L371,269Z M225,271L223,264L225,269L225,271Z M358,255L356,255L357,255L358,255Z M365,272L365,272L364,272L365,272Z M369,271L370,270L369,270L369,271Z " data-iso="USA"/></g><g fill="red" fill-opacity="0.35" id="regions"><path d="M418,88L417,90L418,89L418,88Z M414,89L413,90L414,90L414,89Z M417,87L417,86L417,86L417,87Z M407,76L407,76L407,76L406,77L406,77L406,77L406,77L406,77L406,77L406,77L406,77L406,77L406,77L406,77L406,77L406,77L406,78L406,78L406,78L405,78L405,78L405,78L405,78L405,78L405,78L405,78L405,78L405,79L405,79L405,79L405,79L405,79L405,79L404,79L404,79L403,79L403,79L402,80L402,80L401,80L401,80L400,80L400,80L399,80L399,81L398,81L397,81L397,81L397,81L396,81L396,81L396,81L395,82L395,82L395,82L394,82L394,82L394,82L393,82L393,82L393,82L392,82L392,82L392,83L391,83L392,83L392,84L392,84L392,85L392,86L392,87L392,87L392,88L392,89L392,89L392,89L392,90L393,89L394,89L395,89L395,89L396,89L396,89L397,88L397,89L397,89L397,88L398,88L398,88L398,88L399,88L400,88L401,87L402,87L403,87L404,86L404,87L404,86L405,86L405,86L406,86L406,86L406,86L407,86L407,87L407,87L407,87L407,87L407,87L407,87L407,87L407,87L407,87L407,87L407,87L407,87L407,87L407,87L407,87L407,88L407,88L408,88L408,88L408,88L408,88L408,88L408,88L409,88L409,87L409,88L409,88L409,88L409,88L409,88L409,89L409,89L409,89L409,89L409,89L410,89L410,89L410,90L410,90L412,87L414,88L415,86L410,82L408,79L410,78L408,76L407,76L407,76L407,76Z " data-fips="US25" data-fips-="" data-iso3="USA" data-name="Massachusetts" data-p="MA"/><path d="M222,48L223,51L225,72L227,77L227,77L227,77L225,80L226,83L228,99L228,101L230,101L240,101L251,100L263,99L265,99L265,99L264,95L262,94L259,91L255,89L254,81L253,80L256,75L255,69L257,68L257,67L259,65L261,63L264,59L266,58L270,55L272,54L272,54L269,54L264,54L263,53L259,55L255,52L253,52L247,50L244,51L244,50L235,44L235,47L222,48L222,48Z " data-fips="US32" data-fips-="US27" data-iso3="USA" data-name="Minnesota" data-p="MN"/><path d="M176,74L178,50L178,48L178,47L177,46L166,46L144,43L132,42L117,39L103,37L101,36L99,46L101,53L102,54L106,61L108,61L106,68L109,71L109,74L118,84L123,84L124,83L126,85L126,85L126,85L127,81L143,83L156,84L174,85L175,85L175,85L175,85L175,82L176,77L176,76L176,74Z " data-fips="US30" data-fips-="" data-iso3="USA" data-name="Montana" data-p="MT"/><path d="M227,77L225,72L223,51L222,48L221,48L202,48L197,47L178,47L178,47L178,48L178,50L176,74L176,76L178,76L198,77L217,77L225,77L227,77L227,77Z " data-fips="US38" data-fips-="" data-iso3="USA" data-name="North Dakota" data-p="ND"/><path d="M126,85L124,83L123,84L118,84L109,74L109,71L106,68L108,61L106,61L102,54L101,53L99,46L101,36L101,36L97,35L96,35L95,35L90,59L90,62L90,63L90,64L90,64L91,66L89,72L84,79L85,83L80,101L80,102L81,102L95,105L100,106L101,106L103,106L109,108L121,109L123,110L123,108L123,105L125,93L126,87L126,85L126,85Z " data-fips="US16" data-fips-="" data-iso3="USA" data-name="Idaho" data-p="ID"/><path d="M45,48L45,47L45,47L45,48Z M55,44L55,43L55,43L55,44Z M54,43L54,42L54,42L54,43Z M58,39L58,38L58,38L58,39Z M58,35L58,34L58,34L58,35Z M58,31L58,30L57,30L58,31Z M59,30L59,30L59,30L59,30Z M59,28L57,29L58,29L59,28Z M58,25L58,25L58,25L58,25Z M95,35L60,26L61,29L59,31L60,36L59,38L58,42L55,44L54,43L57,42L56,39L58,37L57,34L49,31L46,28L45,33L46,42L45,43L44,49L49,52L49,52L51,58L67,61L76,61L89,64L90,64L90,63L90,62L90,59L95,35L95,35Z " data-fips="US53" data-fips-="" data-iso3="USA" data-name="Washington" data-p="WA"/><path d="M131,160L130,160L114,158L106,157L94,155L93,155L93,155L91,164L88,162L86,164L86,172L85,173L85,173L85,173L88,181L84,184L82,192L83,193L82,195L81,195L81,196L80,197L89,203L109,213L125,215L125,215L126,215L127,198L131,162L131,160Z " data-fips="US04" data-fips-="" data-iso3="USA" data-name="Arizona" data-p="AZ"/><path d="M52,189L51,187L51,188L52,189Z M53,183L52,184L53,184L53,183Z M43,174L42,175L45,175L43,174Z M59,97L57,97L45,93L32,90L30,89L30,89L29,95L28,99L24,105L26,108L27,112L25,119L29,130L30,131L32,131L35,131L32,132L30,135L30,139L33,142L33,145L32,146L32,149L35,156L38,160L37,161L39,169L45,171L47,173L53,177L58,184L61,189L61,193L68,194L81,195L81,195L82,195L83,193L82,192L84,184L88,181L85,173L85,173L85,173L84,172L52,126L59,99L59,97Z " data-fips="US06" data-fips-="" data-iso3="USA" data-name="California" data-p="CA"/><path d="M187,134L187,125L185,125L174,125L173,125L172,124L157,123L147,123L137,121L136,121L136,122L135,129L134,137L132,159L131,160L133,160L153,162L155,163L177,164L178,164L179,164L181,164L182,164L185,164L186,164L186,163L186,149L187,144L187,136L187,135L187,134Z " data-fips="US08" data-fips-="" data-iso3="USA" data-name="Colorado" data-p="CO"/><path d="M93,155L93,153L98,123L101,108L101,106L100,106L95,105L81,102L80,102L79,102L70,100L68,99L61,98L59,97L59,99L52,126L84,172L85,173L85,173L85,173L86,172L86,164L88,162L91,164L93,155L93,155Z " data-fips="US32" data-fips-="" data-iso3="USA" data-name="Nevada" data-p="NV"/><path d="M178,169L178,168L178,167L178,165L178,164L177,164L155,163L153,162L133,160L131,160L131,162L127,198L126,215L125,215L126,216L132,216L133,212L147,213L147,213L146,211L176,213L178,169L178,169Z " data-fips="US35" data-fips-="" data-iso3="USA" data-name="New Mexico" data-p="NM"/><path d="M49,52L44,50L42,57L39,63L36,70L34,75L30,81L30,87L30,89L30,89L32,90L45,93L57,97L59,97L61,98L68,99L70,100L79,102L80,102L80,101L85,83L84,79L89,72L91,66L90,64L90,64L89,64L76,61L67,61L51,58L49,52L49,52Z " data-fips="US41" data-fips-="" data-iso3="USA" data-name="Oregon" data-p="OR"/><path d="M121,109L109,108L103,106L101,106L101,108L98,123L93,153L93,155L94,155L106,157L114,158L130,160L131,160L132,159L134,137L135,129L136,122L136,121L135,121L122,119L121,119L123,110L123,110L121,109Z M115,118L115,119L113,119L113,120L111,119L111,118L110,119L109,115L108,113L108,111L110,111L110,111L111,114L111,115L112,116L113,114L114,114L114,115L113,115L113,115L114,118L115,118Z " data-fips="US49" data-fips-="" data-iso3="USA" data-name="Utah" data-p="UT"/><path d="M174,104L174,96L175,87L175,85L174,85L156,84L143,83L127,81L126,85L126,85L126,87L125,93L123,105L123,108L123,110L123,110L121,119L122,119L135,121L136,121L137,121L147,123L157,123L172,124L173,125L173,123L173,118L173,110L174,106L174,105L174,104Z " data-fips="US56" data-fips-="" data-iso3="USA" data-name="Wyoming" data-p="WY"/><path d="M283,171L278,172L280,169L279,167L261,168L246,169L244,169L244,170L246,182L246,195L246,197L247,197L250,198L250,202L250,203L252,203L256,203L274,201L274,201L274,200L274,197L273,196L275,191L275,190L277,186L279,182L279,181L279,181L281,180L280,178L282,176L282,174L283,171L283,171L283,171Z " data-fips="US05" data-fips-="" data-iso3="USA" data-name="Arkansas" data-p="AR"/><path d="M270,108L268,107L266,105L265,99L265,99L263,99L251,100L240,101L230,101L228,101L227,101L228,109L228,110L228,111L228,111L231,120L233,122L234,129L234,129L234,129L254,129L264,128L266,130L266,130L267,130L266,128L268,127L269,119L273,117L274,113L270,109L270,108L270,108Z " data-fips="US19" data-fips-="" data-iso3="USA" data-name="Iowa" data-p="IA"/><path d="M244,163L239,139L241,137L238,135L237,135L236,135L219,136L204,136L189,135L187,135L187,136L187,144L186,149L186,163L186,164L188,164L215,165L224,165L242,164L244,164L244,163Z " data-fips="US20" data-fips-="" data-iso3="USA" data-name="Kansas" data-p="KS"/><path d="M266,130L264,128L254,129L234,129L234,129L234,130L235,132L236,133L237,135L237,135L238,135L241,137L239,139L244,163L244,164L244,165L244,167L244,168L244,169L246,169L261,168L279,167L280,169L278,172L283,171L283,171L283,171L283,169L284,168L284,166L284,166L284,166L284,166L284,166L284,166L284,166L284,166L284,167L284,167L285,166L285,166L285,166L286,165L286,165L287,161L287,161L287,161L283,158L283,155L278,152L276,147L277,144L274,144L272,141L267,136L266,133L266,130L266,130L266,130Z " data-fips="US29" data-fips-="US17" data-iso3="USA" data-name="Missouri" data-p="MO"/><path d="M227,111L226,109L217,108L214,106L204,106L175,105L174,105L174,106L173,110L173,118L173,123L173,125L174,125L185,125L187,125L187,134L187,135L189,135L204,136L219,136L236,135L237,135L237,135L236,133L235,132L234,130L234,129L234,129L233,122L231,120L228,111L228,111L227,111Z " data-fips="US31" data-fips-="" data-iso3="USA" data-name="Nebraska" data-p="NE"/><path d="M244,168L244,167L244,165L244,164L242,164L224,165L215,165L188,164L186,164L185,164L182,164L181,164L179,164L178,164L178,165L178,167L178,168L178,169L178,169L202,170L202,187L206,190L207,190L214,193L215,193L218,194L218,195L222,195L225,197L227,195L231,197L240,194L246,197L246,197L246,195L246,182L244,170L244,169L244,168Z " data-fips="US40" data-fips-="" data-iso3="USA" data-name="Oklahoma" data-p="OK"/><path d="M225,77L217,77L198,77L178,76L176,76L176,77L175,82L175,85L175,85L175,85L175,87L174,96L174,104L174,105L175,105L204,106L214,106L217,108L226,109L227,111L228,111L228,110L228,109L227,101L228,101L228,99L226,83L225,80L227,77L227,77L225,77Z " data-fips="US46" data-fips-="" data-iso3="USA" data-name="South Dakota" data-p="SD"/><path d="M278,240L278,240L278,240L278,240Z M281,239L280,240L280,240L281,239Z M283,240L283,239L283,239L283,240Z M284,239L284,239L284,239L284,239Z M294,234L294,234L294,233L294,234Z M295,233L295,233L295,233L295,233Z M291,232L290,232L290,232L291,232Z M292,230L292,230L292,230L292,230Z M291,228L291,228L290,228L291,228Z M254,232L254,231L255,223L253,215L250,204L250,203L252,203L256,203L274,201L274,201L274,202L275,206L276,208L273,214L271,221L282,221L287,221L287,222L290,228L290,228L283,227L282,229L283,230L287,229L291,231L290,235L294,236L293,238L289,236L285,234L286,237L281,238L275,238L275,236L270,233L267,234L268,235L263,236L261,235L255,234L253,235L254,232L254,232Z " data-fips="US22" data-fips-="" data-iso3="USA" data-name="Louisiana" data-p="LA"/><path d="M225,271L223,263L223,264L225,271Z M225,256L225,257L224,258L225,256Z M226,254L228,252L227,253L226,254Z M232,249L228,251L228,252L232,249Z M232,249L233,248L233,248L232,249Z M245,239L245,239L244,240L245,239Z M178,169L178,169L176,213L146,211L147,213L147,213L156,223L160,227L164,236L166,238L171,241L174,242L178,235L183,235L188,235L195,242L198,250L200,252L202,255L205,258L205,262L208,268L217,272L224,274L222,260L224,257L223,254L226,252L227,250L231,248L230,246L235,247L241,244L245,239L244,236L246,235L247,237L245,239L253,235L253,232L254,232L254,231L255,223L253,215L250,204L250,203L250,202L250,198L247,197L246,197L246,197L240,194L231,197L227,195L225,197L222,195L218,195L218,194L215,193L214,193L207,190L206,190L202,187L202,170L178,169L178,169Z " data-fips="US48" data-fips-="" data-iso3="USA" data-name="Texas" data-p="TX"/><path d="M404,86L403,87L402,87L401,87L400,88L399,88L398,88L398,88L398,88L397,88L397,89L397,89L397,88L396,89L396,89L395,89L395,89L394,89L393,89L392,90L392,90L394,97L394,98L394,100L394,100L398,96L400,96L405,93L405,93L405,92L405,91L404,87L404,86Z " data-fips="US09" data-fips-="" data-iso3="USA" data-name="Connecticut" data-p="CT"/><path d="M398,54L397,55L397,54L396,57L396,57L395,65L396,68L395,73L397,81L397,81L397,81L397,81L398,81L399,81L399,80L400,80L400,80L401,80L401,80L402,80L402,80L403,79L403,79L404,79L404,79L405,79L405,79L405,79L405,79L405,79L405,79L405,78L405,78L405,78L405,78L405,78L405,78L405,78L405,78L406,78L406,78L406,78L406,77L406,77L406,77L406,77L406,77L406,77L406,77L406,77L406,77L406,77L406,77L406,77L406,77L407,76L407,76L407,76L407,76L407,76L408,76L408,75L408,74L407,74L407,74L405,70L404,70L398,54L398,54Z " data-fips="US33" data-fips-="" data-iso3="USA" data-name="New Hampshire" data-p="NH"/><path d="M408,94L408,94L407,94L408,94Z M408,91L408,90L408,90L408,91Z M409,89L409,89L409,89L409,88L409,88L409,88L409,88L409,89L409,89L409,90L410,90L410,90L410,89L410,89L409,89L409,89L409,89Z M409,90L408,89L408,90L409,90Z M407,87L407,86L406,86L406,86L406,86L405,86L405,86L404,86L404,87L405,91L405,92L405,93L406,93L408,91L408,88L408,88L408,88L408,88L408,88L408,88L407,88L407,88L407,87L407,87L407,87L407,87L407,87L407,87L407,87L407,87L407,87L407,87L407,87L407,87L407,87L407,87L407,87Z " data-fips="US44" data-fips-="" data-iso3="USA" data-name="Rhode Island" data-p="RI"/><path d="M396,57L391,59L390,59L385,61L384,61L387,68L389,75L391,82L392,83L392,82L392,82L393,82L393,82L393,82L394,82L394,82L394,82L395,82L395,82L395,82L396,81L396,81L396,81L397,81L397,81L395,73L396,68L395,65L396,57L396,57Z " data-fips="US50" data-fips-="" data-iso3="USA" data-name="Vermont" data-p="VT"/><path d="M317,177L315,177L308,178L304,179L296,180L296,180L296,180L297,181L297,210L299,225L299,225L301,225L301,223L304,225L307,223L307,223L305,218L325,215L327,215L327,215L325,213L325,209L324,207L326,203L323,197L317,177L317,177Z " data-fips="US01" data-fips-="" data-iso3="USA" data-name="Alabama" data-p="AL"/><path d="M360,274L360,274L360,274L360,274Z M366,272L366,272L366,272L366,272Z M367,271L367,271L367,271L367,271Z M367,271L366,271L366,271L367,271Z M367,272L366,272L366,271L367,272Z M371,269L371,269L371,269L371,269Z M372,269L372,269L372,268L372,269Z M368,265L368,265L368,265L368,265Z M368,265L368,265L368,265L368,265Z M374,265L374,266L373,266L374,265Z M375,262L375,262L375,262L375,262Z M375,260L375,259L375,259L375,260Z M364,260L364,260L363,260L364,260Z M362,260L362,260L362,260L362,260Z M363,260L363,260L363,260L363,260Z M357,255L357,256L357,255L357,255Z M356,254L356,254L356,253L356,254Z M357,255L356,253L357,253L357,255Z M356,253L355,252L355,252L356,253Z M352,248L351,247L351,247L352,248Z M351,246L351,246L351,245L351,246Z M373,245L369,239L370,239L373,245Z M349,234L349,234L349,234L349,234Z M349,234L349,234L349,234L349,234Z M346,231L345,231L345,231L346,231Z M329,229L329,229L330,228L329,229Z M331,227L331,227L332,226L331,227Z M307,223L305,218L325,215L327,215L327,215L327,217L331,218L350,216L351,217L352,214L353,213L356,213L356,213L360,224L368,234L366,232L372,245L373,245L375,255L375,259L374,265L368,267L369,265L365,261L360,258L359,255L357,253L357,251L355,250L351,246L353,243L351,244L349,241L348,230L346,230L337,223L334,223L328,228L326,228L324,224L318,223L318,222L311,223L307,223L307,223Z " data-fips="US12" data-fips-="" data-iso3="USA" data-name="Florida" data-p="FL"/><path d="M325,201L325,201L323,197L317,177L317,177L317,177L321,177L322,176L326,176L327,176L327,176L334,174L336,174L336,174L336,174L335,177L339,179L341,182L350,190L352,191L359,200L359,200L357,202L357,208L356,211L356,213L356,213L353,213L352,214L351,217L350,216L331,218L327,217L327,215L327,215L327,215L325,213L325,209L324,207L326,203L325,201Z " data-fips="US13" data-fips-="" data-iso3="USA" data-name="Georgia" data-p="GA"/><path d="M295,227L294,227L294,227L295,227Z M299,227L298,227L299,227L299,227Z M294,227L293,227L293,227L294,227Z M298,227L296,227L298,227L298,227Z M279,181L279,182L277,186L275,190L275,191L273,196L274,197L274,200L274,201L274,202L275,206L276,208L273,214L271,221L282,221L287,221L287,222L290,228L290,228L291,226L295,225L299,225L299,225L297,210L297,181L296,180L296,180L296,180L294,180L290,180L280,181L279,181Z " data-fips="US28" data-fips-="" data-iso3="USA" data-name="Mississippi" data-p="MS"/><path d="M336,174L336,174L335,177L339,179L341,182L350,190L352,191L359,200L359,199L359,195L362,194L366,191L366,191L374,178L374,178L364,171L360,171L355,171L352,170L336,174L336,174Z " data-fips="US45" data-fips-="" data-iso3="USA" data-name="South Carolina" data-p="SC"/><path d="M290,106L280,107L275,108L270,108L270,108L270,109L274,113L273,117L269,119L268,127L266,128L267,130L266,130L266,130L266,133L267,136L272,141L274,144L277,144L276,147L278,152L283,155L283,158L287,161L287,161L286,161L287,159L291,160L291,157L294,152L294,152L294,152L294,148L295,147L297,143L296,139L296,137L293,113L293,113L291,109L291,108L290,106Z " data-fips="US17" data-fips-="" data-iso3="USA" data-name="Illinois" data-p="IL"/><path d="M293,113L296,137L296,139L297,143L295,147L294,148L294,152L294,152L294,152L299,150L302,151L302,150L306,150L307,147L310,148L310,146L313,143L313,141L317,139L317,136L317,136L317,136L316,132L313,112L313,111L313,111L302,112L298,113L296,114L294,114L293,113Z " data-fips="US18" data-fips-="" data-iso3="USA" data-name="Indiana" data-p="IN"/><path d="M284,166L284,166L284,166L284,166L284,166L284,166L284,166Z M317,136L317,136L317,139L313,141L313,143L310,146L310,148L307,147L306,150L302,150L302,151L299,150L294,152L294,152L294,152L291,157L291,160L287,159L286,161L287,161L287,161L286,165L286,165L285,166L285,166L286,166L296,165L295,163L316,161L329,159L329,159L330,159L335,154L341,148L341,148L341,148L338,147L336,144L335,140L335,140L332,137L326,140L320,136L317,136L317,136Z " data-fips="US21" data-fips-="US18" data-iso3="USA" data-name="Kentucky" data-p="KY"/><path d="M379,176L378,177L378,177L379,176Z M379,174L379,174L379,174L379,174Z M382,169L382,170L381,170L382,169Z M388,167L388,166L387,166L388,167Z M387,166L387,166L386,167L387,166Z M388,167L390,164L389,165L388,167Z M391,163L391,162L391,162L391,163Z M395,159L394,157L395,159L395,159Z M389,147L389,147L389,147L389,147L391,152L393,153L389,147L389,147Z M388,147L389,147L389,147L389,147L389,147L388,147L388,147L388,147L388,147L388,147L388,147Z M388,147L373,151L369,152L356,155L355,155L355,155L348,156L346,156L345,156L345,156L345,157L345,159L342,162L339,164L338,163L336,166L329,171L327,175L327,176L327,176L334,174L336,174L336,174L336,174L352,170L355,171L360,171L364,171L374,178L374,178L379,176L379,173L389,164L385,164L387,160L385,158L389,159L392,156L392,154L390,156L389,153L384,155L388,151L391,152L388,147L388,147Z " data-fips="US37" data-fips-="" data-iso3="USA" data-name="North Carolina" data-p="NC"/><path d="M342,100L337,102L335,104L328,109L325,107L325,107L323,109L321,110L314,111L313,111L313,112L316,132L317,136L317,136L317,136L320,136L326,140L332,137L335,140L335,140L335,140L337,138L337,136L340,134L340,131L345,126L346,116L346,116L346,115L345,113L345,110L342,99L342,100Z " data-fips="US39" data-fips-="" data-iso3="USA" data-name="Ohio" data-p="OH"/><path d="M329,159L316,161L295,163L296,165L286,166L285,166L285,166L284,167L284,167L284,166L284,166L284,166L284,166L284,168L283,169L283,171L283,171L283,171L282,174L282,176L280,178L281,180L279,181L279,181L280,181L290,180L294,180L296,180L296,180L296,180L304,179L308,178L315,177L317,177L317,177L321,177L322,176L326,176L327,176L327,175L329,171L336,166L338,163L339,164L342,162L345,159L345,157L345,156L344,156L341,157L338,158L330,159L329,159L329,159Z " data-fips="US47" data-fips-="" data-iso3="USA" data-name="Tennessee" data-p="TN"/><path d="M388,147L389,147L389,147L389,147L389,147L388,147L388,147L388,147Z M388,139L388,138L388,139L388,139Z M389,132L387,133L387,133L387,133L387,133L386,138L388,137L389,132L389,132Z M390,132L390,132L390,132L390,132L390,133L390,133L390,132Z M341,148L341,148L335,154L330,159L329,159L330,159L338,158L341,157L344,156L345,156L345,156L346,156L348,156L355,155L355,155L356,155L369,152L373,151L388,147L388,147L388,147L388,147L388,147L388,147L388,147L388,147L388,146L389,146L389,147L389,147L389,147L389,147L389,147L387,144L385,144L384,142L384,139L382,138L376,134L377,134L383,138L383,135L380,133L376,131L374,132L375,127L375,127L375,127L375,127L374,126L374,126L373,126L371,125L369,124L369,124L369,124L368,126L364,124L364,126L360,132L359,135L356,134L354,143L353,145L347,149L341,149L341,148L341,148Z " data-fips="US51" data-fips-="" data-iso3="USA" data-name="Virginia" data-p="VA"/><path d="M257,68L255,69L256,75L253,80L254,81L255,89L259,91L262,94L264,95L265,99L265,99L265,99L266,105L268,107L270,108L270,108L270,108L275,108L280,107L290,106L290,104L289,99L289,97L290,87L291,84L290,83L289,83L288,85L287,86L286,86L287,84L287,83L288,82L290,78L286,79L286,75L284,73L277,72L269,69L270,67L268,68L267,69L265,68L264,69L265,65L265,65L263,66L262,66L260,67L257,68L257,68Z " data-fips="US55" data-fips-="" data-iso3="USA" data-name="Wisconsin" data-p="WI"/><path d="M354,123L348,125L346,116L346,116L346,116L345,126L340,131L340,134L337,136L337,138L335,140L335,140L336,144L338,147L341,148L341,148L341,148L341,149L347,149L353,145L354,143L356,134L359,135L360,132L364,126L364,124L368,126L369,124L369,124L369,124L367,121L365,121L358,125L356,128L355,123L354,123Z " data-fips="US54" data-fips-="" data-iso3="USA" data-name="West Virginia" data-p="WV"/><path d="M382,116L382,117L386,128L386,128L390,127L390,127L390,127L390,127L390,127L390,127L391,127L391,127L390,125L388,123L384,117L384,115L384,115L382,116L382,116L382,116Z " data-fips="US10" data-fips-="" data-iso3="USA" data-name="Delaware" data-p="DE"/><path d="M374,126L375,127L375,127L375,127L375,127L375,127L375,128L376,127L375,126L374,126Z " data-fips="US11" data-fips-="" data-iso3="USA" data-name="District of Columbia" data-p="DC"/><path d="M385,133L384,133L384,133L385,133Z M390,131L390,129L390,130L390,131L390,132L390,132L390,132L390,131Z M391,127L390,127L390,127L391,128L391,128L391,127L391,127Z M355,123L356,128L358,125L365,121L367,121L369,124L369,124L369,124L371,125L373,126L374,126L374,126L375,126L376,127L375,128L375,128L378,133L382,132L380,129L377,123L380,122L381,126L381,130L385,130L385,132L386,134L387,133L387,133L387,133L387,133L389,132L389,132L390,129L390,128L390,127L390,127L386,128L386,128L382,117L382,116L381,117L378,118L359,122L356,123L355,123Z " data-fips="US24" data-fips-="" data-iso3="USA" data-name="Maryland" data-p="MD"/><path d="M393,117L393,116L393,117L393,117Z M394,115L394,114L393,115L394,115Z M392,101L387,99L386,99L385,99L385,99L383,103L385,107L387,112L387,112L384,116L386,119L390,120L391,122L391,118L393,117L393,106L391,105L392,101L392,101Z " data-fips="US34" data-fips-="" data-iso3="USA" data-name="New Jersey" data-p="NJ"/><path d="M392,104L391,106L392,105L392,104Z M398,102L396,104L396,104L398,102Z M398,102L400,100L399,102L398,102Z M403,96L400,98L394,102L393,105L401,100L403,96Z M404,94L405,94L404,94L404,94Z M347,96L348,101L365,98L379,94L382,97L385,99L385,99L386,99L387,99L392,101L392,100L392,100L392,102L394,100L394,100L394,98L394,97L392,90L392,90L392,89L392,89L392,89L392,88L392,87L392,87L392,86L392,85L392,84L392,84L392,83L391,83L392,83L391,82L389,75L387,68L384,61L384,61L374,64L369,72L366,76L365,80L349,86L351,88L352,93L348,96L347,96Z " data-fips="US36" data-fips-="" data-iso3="USA" data-name="New York" data-p="NY"/><path d="M347,96L345,98L344,99L342,99L342,99L345,110L345,113L346,115L346,116L346,116L348,125L354,123L355,123L356,123L359,122L378,118L381,117L382,116L382,116L382,116L384,115L385,115L386,113L387,112L387,112L385,107L383,103L385,99L385,99L385,99L382,97L379,94L365,98L348,101L347,96L347,96Z " data-fips="US42" data-fips-="" data-iso3="USA" data-name="Pennsylvania" data-p="PA"/><path d="M417,60L417,60L416,60L417,60Z M418,58L417,59L418,59L418,58Z M420,56L419,57L419,57L420,56Z M398,54L404,70L405,70L407,74L407,74L409,68L409,67L415,62L416,56L419,55L421,56L423,51L425,51L426,49L419,43L417,42L413,32L409,28L405,31L402,30L400,38L401,41L400,51L401,52L398,54L398,54Z " data-fips="US23" data-fips-="" data-iso3="USA" data-name="Maine" data-p="ME"/><path d="M270,67L269,69L277,72L284,73L286,75L286,79L290,78L291,74L291,73L292,74L293,73L295,72L295,73L294,75L294,75L295,74L296,72L301,69L304,69L306,71L307,71L307,71L307,69L312,69L312,68L311,68L311,67L310,67L310,66L309,64L308,65L307,65L304,65L304,62L303,62L297,64L296,64L294,66L293,67L291,67L291,66L288,67L286,64L284,64L282,63L281,65L280,62L279,62L275,65L272,66L271,66L270,67Z M307,71L307,71L305,75L306,75L303,77L304,79L303,81L303,80L303,82L302,81L302,78L300,81L299,83L298,83L299,86L298,89L297,90L298,91L298,94L301,100L301,103L301,105L301,108L299,112L299,112L298,113L302,112L313,111L313,111L314,111L321,110L323,109L325,107L324,106L328,95L328,95L325,90L323,86L322,86L320,88L318,91L317,91L316,89L316,88L318,87L318,85L319,83L319,81L318,79L317,78L317,77L318,77L317,75L312,73L311,72L307,71L307,71Z M311,65L310,64L309,64L310,65L311,65Z " data-fips="US26" data-fips-="" data-iso3="USA" data-name="Michigan" data-p="MI"/></g></svg>