<?xml version="1.0" ?><!DOCTYPE svg  PUBLIC '-//W3C//DTD SVG 1.1//EN'  'http://www.w3.org/Graphics/SVG/1.1/DTD/svg11.dtd'><svg enable_background="new 0 0 450 236" height="236px" style="stroke-linejoin: round; stroke:#000; fill: none;" version="1.1" viewBox="0 0 450 236" width="450px" xmlns="http://www.w3.org/2000/svg" xmlns:xlink="http://www.w3.org/1999/xlink"><defs><style type="text/css"><![CDATA[path { fill-rule: evenodd; }]]></style></defs><metadata><views><view h="236.804827319" padding="0.03" w="450"><proj flip="auto" id="naturalearth" lon0="0"/><bbox h="463.56" w="884.64" x="95.31" y="-3.13"/></view></views></metadata><g class="" id="countries"><path d="M302.8,78.4L298.6,79.1L297.0,76.5L293.6,78.6L293.6,78.5L293.6,78.5L293.1,78.4L292.6,78.3L292.3,78.2L291.9,78.3L291.9,78.3L288.0,80.7L288.0,81.3L285.8,81.0L285.7,81.0L285.7,81.1L285.5,83.1L285.1,83.5L287.0,89.9L286.7,90.3L287.2,90.5L293.8,90.4L294.5,88.0L297.3,87.0L299.1,81.3L298.7,80.5L302.3,78.8L302.4,78.8L302.4,78.8L302.1,78.6L302.3,78.4L302.7,78.5L302.8,78.4L302.8,78.4Z " data-iso="AFG" data-name="Afghanistan" data-pop="28400000.0"/><path d="M223.9,147.8L225.0,155.9L223.2,159.9L222.0,165.4L222.0,166.0L231.1,166.3L231.6,166.9L237.4,166.8L237.9,166.7L237.6,166.4L236.0,163.9L236.2,159.2L239.0,156.0L239.0,155.8L238.9,155.8L236.7,156.3L236.0,150.1L233.1,149.6L232.4,151.2L229.6,150.3L228.7,147.8L224.0,147.7L223.9,147.8Z M224.0,145.8L224.0,145.7L223.1,145.7L223.0,146.0L222.6,146.4L222.6,146.4L222.8,146.9L222.8,147.1L222.8,147.5L222.8,147.6L223.2,147.5L223.7,145.9L224.0,145.8L224.0,145.8Z " data-iso="AGO" data-name="Angola" data-pop="12799293.0"/><path d="M231.3,69.9L230.9,69.8L230.8,69.8L230.5,71.0L230.6,71.0L230.6,72.7L230.7,73.2L231.5,74.3L231.5,74.5L231.9,74.1L232.3,73.8L232.6,72.8L232.6,72.6L232.6,72.6L231.9,71.6L232.0,71.0L232.0,71.0L232.0,70.9L231.9,70.5L231.7,70.3L231.3,70.0L231.3,69.9L231.3,69.9Z " data-iso="ALB" data-name="Albania" data-pop="3639453.0"/><path d="M208.1,70.0L208.1,69.8L207.9,69.8L207.8,69.8L207.7,69.9L207.7,69.9L207.9,70.1L208.1,70.0L208.1,70.0L208.1,70.0Z " data-iso="AND" data-name="Andorra" data-pop="83888.0"/><path d="M281.1,96.5L279.5,98.8L279.2,99.3L275.5,99.2L275.4,99.3L275.5,99.7L280.5,102.0L280.6,101.9L280.5,101.6L280.7,99.9L281.0,98.4L281.8,98.2L281.7,98.1L281.6,97.3L281.5,97.1L281.4,97.1L281.3,97.1L281.2,96.5L281.1,96.5Z " data-iso="ARE" data-name="United Arab Emirates" data-pop="4798491.0"/><path d="M124.0,222.6L124.7,224.7L124.8,225.1L125.1,225.9L125.1,225.9L126.3,224.7L124.1,222.6L124.0,222.6Z M115.1,175.0L115.4,175.3L113.7,177.9L114.3,181.9L113.3,183.8L113.4,190.3L114.3,191.9L113.8,197.1L114.3,204.0L116.6,210.6L116.6,218.3L119.7,221.6L124.0,222.1L124.1,222.0L123.9,206.9L125.6,207.2L124.9,204.5L126.6,204.0L126.2,201.0L129.1,200.8L132.2,198.6L132.3,196.8L129.2,192.5L129.4,190.7L129.4,190.6L129.3,188.9L129.3,187.5L129.5,187.0L129.6,186.9L129.6,186.8L132.2,183.2L133.9,181.9L132.7,179.4L132.6,179.4L132.7,180.1L130.4,182.5L127.5,182.1L128.2,178.7L121.2,174.1L121.1,174.1L121.1,174.0L118.9,174.9L117.9,173.8L115.2,174.9L115.1,175.0Z " data-iso="ARG" data-name="Argentina" data-pop="40913584.0"/><path d="M263.1,71.9L263.1,72.0L262.2,72.1L261.3,72.2L261.2,72.2L261.2,72.3L262.1,74.0L262.5,73.9L263.2,74.4L263.2,74.5L263.4,74.4L264.2,74.8L264.6,74.7L265.1,75.7L265.2,75.8L265.2,75.8L265.4,75.7L265.6,75.8L265.6,75.6L265.1,74.6L264.3,74.1L263.2,72.0L263.1,71.9Z " data-iso="ARM" data-name="Armenia" data-pop="2967004.0"/><path d="M403.0,157.5L402.4,155.5L398.3,166.3L391.8,162.4L393.5,158.1L387.7,156.3L388.6,157.8L385.9,158.5L383.7,162.2L380.0,160.5L378.4,161.2L374.7,166.3L374.1,164.7L371.1,169.4L361.3,173.4L359.7,174.7L358.1,181.0L358.6,189.3L356.7,192.3L357.9,194.6L372.0,190.2L376.0,189.3L379.7,189.3L382.9,192.9L385.6,192.6L387.0,199.3L393.8,200.7L398.8,199.1L407.9,188.9L409.6,185.8L411.1,178.2L408.5,174.4L407.9,170.7L405.3,168.1L403.0,157.5Z " data-iso="AUS" data-name="Australia" data-pop="21262641.0"/><path d="M226.7,60.3L223.9,60.3L222.9,60.1L222.8,60.1L222.8,60.2L222.0,62.1L220.9,61.8L217.7,62.0L217.7,62.1L217.7,62.1L217.8,62.2L217.8,62.3L217.7,62.5L217.7,62.5L217.7,62.6L217.8,62.6L217.8,62.8L217.8,62.8L217.8,62.8L218.7,62.9L218.9,63.0L218.9,63.1L218.9,63.1L221.0,62.8L221.0,63.0L222.6,63.6L222.9,63.6L223.0,63.6L224.0,63.8L224.3,63.5L225.8,63.1L225.8,63.1L226.0,62.9L226.2,62.3L226.5,62.0L226.9,61.4L227.0,61.3L226.9,61.3L226.6,60.7L226.6,60.6L226.7,60.4L226.7,60.4L226.7,60.3Z " data-iso="AUT" data-name="Austria" data-pop="8210281.0"/><path d="M263.2,74.5L263.3,74.5L263.3,74.6L263.3,74.6L264.3,75.6L264.9,75.7L265.2,75.8L265.1,75.7L264.6,74.7L264.2,74.8L263.4,74.4L263.2,74.5Z M264.8,71.0L264.8,71.0L265.3,71.9L265.1,72.3L263.4,71.7L263.1,71.9L263.2,72.0L264.3,74.1L265.1,74.6L265.6,75.6L265.6,75.8L265.7,75.8L267.4,74.5L267.9,75.0L268.8,76.5L268.7,75.9L269.2,73.7L270.2,73.6L267.6,71.1L267.5,71.1L266.8,72.1L264.9,71.0L264.8,71.0Z " data-iso="AZE" data-name="Azerbaijan" data-pop="8238672.0"/><path d="M248.2,142.2L247.6,142.2L247.1,142.8L246.1,142.6L246.1,142.7L246.1,142.8L246.4,143.2L246.4,144.3L246.6,145.2L246.6,145.5L247.1,145.5L248.0,144.4L248.1,144.1L248.2,142.2L248.3,142.2L248.2,142.2Z " data-iso="BDI" data-name="Burundi" data-pop="8988091.0"/><path d="M209.8,56.1L209.5,56.2L209.0,56.5L211.8,58.0L212.9,58.9L213.0,58.9L213.0,58.9L212.9,58.5L213.1,58.1L213.4,58.0L213.4,58.0L213.4,58.0L213.5,57.3L213.2,57.1L213.2,57.0L212.9,57.0L213.1,57.0L213.0,56.9L212.8,57.0L212.8,57.0L211.5,56.0L210.8,56.3L210.0,56.1L209.8,56.1Z " data-iso="BEL" data-name="Belgium" data-pop="10414336.0"/><path d="M210.8,119.4L209.3,118.7L209.3,119.1L209.2,119.3L209.2,119.4L208.7,120.0L207.2,120.7L207.2,120.7L207.1,120.9L207.8,123.0L208.2,127.1L208.2,128.4L208.5,128.3L209.1,128.2L209.7,128.1L209.8,123.8L210.2,123.6L210.8,119.7L210.9,119.6L210.8,119.4Z " data-iso="BEN" data-name="Benin" data-pop="8791832.0"/><path d="M206.0,114.3L201.4,117.0L198.7,119.4L198.4,121.5L198.3,121.6L198.4,121.7L200.0,122.9L200.7,122.4L202.2,123.2L202.2,123.1L202.2,123.1L202.0,121.5L202.1,120.7L205.5,120.4L205.8,120.5L206.2,120.6L206.6,120.7L206.7,120.8L206.8,120.7L207.2,120.7L207.2,120.7L208.7,120.0L209.2,119.4L209.2,119.3L209.2,119.2L208.1,118.1L207.4,117.5L206.2,114.5L206.2,114.4L206.0,114.3Z " data-iso="BFA" data-name="Burkina Faso" data-pop="15746232.0"/><path d="M326.6,103.0L328.3,101.6L329.5,101.7L331.2,105.0L331.3,105.0L331.5,104.2L331.3,103.1L331.3,103.0L331.3,102.9L329.3,97.9L324.4,98.6L326.5,102.9L326.6,103.0Z " data-iso="BGD" data-name="Bangladesh" data-pop="156050883.0"/><path d="M234.4,67.2L234.3,67.3L234.6,69.4L234.3,69.5L234.3,70.3L234.2,70.3L234.4,70.5L235.1,71.3L235.1,71.4L235.1,71.8L235.1,71.9L235.2,71.9L238.2,72.0L239.1,71.8L239.2,71.2L239.3,71.3L239.3,71.2L240.7,70.9L241.4,70.9L241.4,70.7L240.7,70.1L241.0,69.7L241.9,68.4L241.8,68.0L239.6,67.4L239.2,67.5L234.5,67.3L234.4,67.2Z " data-iso="BGR" data-name="Bulgaria" data-pop="7204687.0"/><path d="M229.2,69.9L229.3,69.9L229.2,69.3L229.4,69.2L230.0,68.4L230.1,68.4L230.1,68.3L229.9,66.9L229.7,66.2L229.7,66.2L229.6,66.3L226.1,65.9L225.6,66.4L229.1,69.9L229.2,69.9Z " data-iso="BIH" data-name="Bosnia and Herz." data-pop="4613414.0"/><path d="M238.8,48.8L237.9,49.3L237.6,49.3L237.1,49.5L237.1,49.5L237.1,49.6L236.3,50.8L236.1,51.6L233.8,52.2L233.8,52.1L234.0,52.7L234.4,54.1L233.7,54.7L234.2,55.7L234.3,55.9L234.3,55.8L238.5,55.5L243.8,54.9L244.0,55.0L244.0,54.9L244.1,53.4L242.1,49.7L239.0,49.0L238.8,48.8L238.8,48.8Z " data-iso="BLR" data-name="Belarus" data-pop="9648533.0"/><path d="M85.6,108.7L85.2,108.7L84.3,109.6L84.2,109.8L84.2,110.1L83.8,112.8L83.9,112.8L84.2,112.8L84.2,112.7L85.2,111.7L85.5,110.2L85.5,108.9L85.6,108.7Z " data-iso="BLZ" data-name="Belize" data-pop="307899.0"/><path d="M127.0,170.7L126.1,164.5L123.6,164.5L122.8,160.5L116.2,157.1L115.7,153.9L110.2,155.9L110.1,155.9L110.3,156.3L111.5,158.4L111.0,166.4L111.0,166.4L111.0,166.6L112.6,171.3L113.5,172.8L114.9,175.1L115.1,175.0L115.2,174.9L117.9,173.8L118.9,174.9L121.1,174.0L121.1,174.1L121.2,174.0L121.9,169.9L124.2,169.3L126.9,170.5L126.9,170.7L127.0,170.7Z " data-iso="BOL" data-name="Bolivia" data-pop="9775246.0"/><path d="M121.9,130.0L121.9,130.0L120.7,131.5L117.2,132.0L118.1,134.8L115.2,137.2L113.6,136.8L113.3,136.4L113.0,136.5L111.4,135.6L108.9,137.4L109.8,140.3L109.1,145.1L109.1,145.1L109.1,145.2L105.3,146.5L103.7,150.5L105.5,153.4L109.9,155.9L110.1,155.9L110.2,155.9L115.7,153.9L116.2,157.1L122.8,160.5L123.6,164.5L126.1,164.5L127.0,170.7L126.9,170.7L126.9,170.8L130.8,175.4L131.0,176.2L132.6,179.2L132.6,179.4L132.7,179.4L133.9,181.9L132.2,183.2L129.6,186.8L129.6,186.9L129.7,187.0L130.8,186.9L136.0,192.6L136.5,192.1L140.9,184.1L140.6,180.6L143.1,177.1L150.4,173.7L151.9,169.3L152.5,162.8L152.2,160.1L156.8,153.6L157.6,148.6L156.7,146.6L147.4,142.8L144.1,143.4L143.0,140.5L139.4,139.5L137.6,141.1L135.5,140.3L133.6,141.0L136.3,137.0L134.6,131.6L134.4,131.8L132.7,134.8L131.5,134.6L130.3,134.6L130.3,134.6L130.2,134.6L129.2,134.4L128.5,134.4L127.7,135.2L127.7,135.2L127.6,135.3L124.9,136.3L123.4,135.6L122.0,130.0L121.9,130.0Z " data-iso="BRA" data-name="Brazil" data-pop="198739269.0"/><path d="M365.1,130.5L365.3,131.3L365.6,131.3L365.1,130.5Z M365.2,130.4L365.1,130.3L364.9,130.4L364.0,131.0L363.8,131.0L364.6,131.9L364.9,131.4L365.1,130.5L365.2,130.4Z " data-iso="BRN" data-name="Brunei" data-pop="388190.0"/><path d="M328.3,93.7L327.6,93.2L324.8,94.2L324.8,94.4L324.8,94.5L327.4,95.3L329.1,95.1L328.3,93.8L328.3,93.7L328.3,93.7Z " data-iso="BTN" data-name="Bhutan" data-pop="691141.0"/><path d="M240.4,166.9L234.9,167.7L234.3,173.7L233.0,174.5L232.8,178.1L232.8,178.2L232.9,178.2L233.6,181.1L235.4,181.2L236.9,179.0L238.6,179.7L245.4,174.0L245.7,174.0L245.6,173.9L241.4,169.4L240.4,167.0L240.4,166.9L240.4,166.9Z " data-iso="BWA" data-name="Botswana" data-pop="1990876.0"/><path d="M237.4,120.8L235.9,121.4L234.6,123.3L227.5,126.3L227.3,126.3L227.2,126.5L226.2,129.5L226.3,130.9L228.3,134.6L228.4,134.7L228.5,134.5L228.9,132.8L229.9,132.5L231.6,132.7L231.7,132.8L231.7,132.4L231.8,131.3L236.3,131.5L243.5,130.0L243.9,130.2L243.8,130.0L240.7,126.2L239.3,124.5L239.3,124.5L239.1,124.4L238.5,123.4L238.6,122.6L237.5,121.0L237.4,120.8L237.4,120.8Z " data-iso="CAF" data-name="Central African Rep." data-pop="4511488.0"/><path d="M112.9,66.0L125.2,59.4L127.1,59.6L125.9,62.3L127.9,66.3L123.9,68.1L122.3,65.8L122.2,65.8L122.0,62.5L120.8,62.4L117.2,65.6L112.7,66.0L112.9,66.0Z M139.2,55.8L136.9,58.5L140.6,59.3L137.5,62.2L133.2,62.0L138.6,55.8L139.2,55.8Z M52.1,50.9L52.3,50.8L52.6,50.6L52.8,50.5L52.8,50.6L52.4,50.8L52.2,50.9L52.1,50.9Z M113.6,35.6L117.6,37.6L111.9,38.5L111.0,37.3L113.6,35.6Z M91.7,60.4L91.7,60.4L91.7,60.4L90.3,59.4L89.7,59.8L56.0,59.8L56.0,59.7L52.3,55.7L52.9,54.4L52.0,51.6L53.9,49.2L53.9,49.2L48.6,42.6L46.8,42.8L50.7,37.6L58.4,29.5L58.5,29.5L73.1,28.7L73.8,29.8L77.2,29.4L85.2,31.3L88.7,31.8L90.3,33.7L91.5,31.7L94.2,30.5L101.1,31.8L102.5,31.0L103.8,32.9L107.9,29.7L105.7,29.3L107.6,27.0L108.8,29.5L112.4,30.0L112.6,32.9L117.5,29.2L119.9,30.6L118.7,33.0L112.6,33.8L98.8,42.4L100.4,47.2L109.1,50.4L107.9,53.5L109.0,56.2L112.0,54.7L112.1,51.0L116.8,48.5L116.5,44.5L117.8,43.7L119.6,39.4L124.0,39.5L125.5,41.3L127.6,41.6L131.0,44.6L132.0,43.4L133.7,48.4L138.0,51.1L134.8,52.4L139.3,54.7L138.0,55.6L130.4,57.8L126.0,57.7L120.6,60.9L118.9,60.6L117.8,63.2L113.2,65.7L112.7,66.0L109.4,68.2L107.0,68.2L104.5,70.2L101.8,69.6L103.1,65.5L101.1,63.3L91.7,60.4L91.7,60.4Z M89.4,25.6L92.5,25.9L96.4,24.9L98.8,25.5L97.9,30.5L94.2,29.8L90.4,30.8L86.2,30.6L84.6,28.8L89.5,28.4L85.0,27.4L87.1,27.0L86.6,25.3L90.2,24.6L89.4,25.6Z M116.5,27.7L118.7,26.1L123.8,24.1L132.4,27.1L137.6,32.3L134.8,34.5L132.1,34.2L134.9,37.6L134.2,38.9L130.1,37.7L131.8,40.4L125.6,36.5L121.6,35.7L125.1,35.4L125.3,30.4L126.2,29.9L116.5,27.7Z M105.6,23.8L107.2,26.2L104.9,27.1L101.6,25.4L105.6,23.8Z M112.6,23.5L115.2,23.9L110.7,25.6L108.9,25.3L112.6,23.5Z M85.9,23.6L89.6,24.4L83.2,26.1L82.2,26.9L81.3,23.3L85.9,23.6Z M99.6,21.1L100.7,22.4L92.6,23.2L95.9,22.2L91.9,22.5L93.8,20.6L96.1,21.6L99.6,21.1Z M114.2,20.1L118.1,21.9L123.5,21.5L126.6,21.9L126.0,22.9L114.7,22.9L114.2,20.1Z M121.1,15.2L125.5,17.3L118.3,18.5L115.4,16.3L121.1,15.2Z M143.6,13.2L145.6,14.8L137.8,16.8L133.4,17.0L134.9,18.0L127.8,19.7L129.9,20.1L122.6,20.8L118.6,20.6L125.4,16.1L129.3,16.8L123.6,14.7L129.1,13.8L133.4,14.4L132.8,13.5L143.6,13.2Z " data-iso="CAN" data-name="Canada" data-pop="33487208.0"/><path d="M217.5,61.9L216.7,61.8L216.2,61.9L215.4,62.0L215.3,62.0L215.2,62.0L213.5,64.2L214.1,63.8L214.6,64.5L214.7,64.6L214.7,64.6L217.2,64.7L217.6,63.8L218.8,63.3L218.9,63.1L218.9,63.0L218.7,62.9L217.8,62.8L217.8,62.8L217.7,62.8L217.7,62.8L217.6,62.7L217.6,62.6L217.7,62.5L217.8,62.3L217.8,62.2L217.7,62.1L217.7,62.1L217.5,61.9Z " data-iso="CHE" data-name="Switzerland" data-pop="7604467.0"/><path d="M125.1,225.9L124.8,225.1L124.7,224.7L124.0,222.6L123.9,222.5L122.8,224.5L124.9,225.9L125.1,225.9Z M111.0,166.4L110.9,166.5L110.7,167.2L110.7,167.4L109.9,167.8L110.0,167.9L111.3,186.8L112.0,190.9L111.1,199.3L113.1,205.5L113.8,211.8L112.7,212.0L116.8,219.9L115.1,219.5L121.7,224.0L123.3,222.0L124.0,222.1L119.7,221.6L116.6,218.3L116.6,210.6L114.3,204.0L113.8,197.1L114.3,191.9L113.4,190.3L113.3,183.8L114.3,181.9L113.7,177.9L115.4,175.3L115.1,175.0L114.9,175.1L113.5,172.8L112.6,171.3L111.0,166.6L111.0,166.4Z " data-iso="CHL" data-name="Chile" data-pop="16601707.0"/><path d="M347.7,58.5L347.7,58.7L348.8,61.5L350.6,61.3L351.3,63.5L350.0,65.3L346.5,66.2L345.3,69.6L339.5,71.2L328.6,69.5L325.0,67.2L318.8,65.2L318.0,62.9L313.1,59.6L313.1,59.5L313.0,59.5L312.7,59.6L312.7,59.6L312.6,59.6L312.5,59.6L312.4,59.6L311.0,61.0L311.6,62.5L307.7,65.5L305.9,66.0L307.5,70.5L307.4,70.5L307.5,70.6L303.3,73.4L301.4,73.2L300.4,74.9L300.3,74.9L300.3,75.0L300.8,76.2L302.8,78.4L302.8,78.4L302.7,78.5L302.3,78.4L302.1,78.6L302.4,78.8L302.4,78.8L302.5,78.8L305.1,80.7L305.8,80.9L305.8,81.0L306.0,81.0L306.6,81.2L306.8,81.3L307.1,81.3L307.2,81.2L307.2,81.2L307.2,81.3L308.7,82.8L309.2,83.2L309.8,84.9L309.8,84.9L309.8,85.0L309.9,85.3L310.0,85.3L310.1,86.0L310.2,86.1L310.2,86.1L311.2,88.6L311.5,88.5L313.3,89.7L313.3,89.8L313.4,89.9L318.0,91.9L323.4,93.5L323.5,93.5L323.5,93.5L324.1,93.2L324.4,93.3L324.7,94.4L324.8,94.4L324.8,94.2L327.6,93.2L328.3,93.7L328.3,93.7L328.4,93.7L330.1,92.3L333.5,91.0L335.7,92.9L335.7,93.0L335.7,92.9L338.2,95.6L337.6,100.0L341.3,103.4L343.0,103.7L343.0,103.7L343.1,103.8L344.0,104.3L343.6,102.2L344.1,102.3L344.1,102.4L344.2,102.3L348.7,101.3L350.3,101.8L352.3,103.8L352.4,103.8L356.0,105.4L355.5,104.8L359.5,102.7L359.5,102.7L359.5,102.7L359.5,102.6L359.6,102.6L359.6,102.6L359.1,101.5L359.2,101.5L360.0,102.2L360.2,102.2L360.3,102.1L360.3,102.1L360.5,102.1L360.6,102.1L364.3,100.4L365.7,98.8L366.0,95.3L368.1,92.9L366.6,87.2L361.4,82.3L364.4,78.2L357.9,76.9L358.7,74.4L361.9,73.4L361.4,75.0L364.9,74.0L364.9,74.0L367.3,71.5L370.8,69.9L370.8,70.0L370.9,69.9L370.0,66.1L371.7,65.9L371.7,63.7L369.8,61.2L367.1,61.8L364.3,59.4L361.5,58.8L355.6,53.5L349.6,53.3L350.7,55.2L350.7,58.1L348.1,58.6L347.7,58.5Z " data-iso="CHN" data-name="China" data-pop="1338612968.0"/><path d="M201.5,130.1L201.4,130.1L201.6,130.2L201.7,130.1L201.5,130.1Z M194.9,122.0L194.9,122.1L195.2,123.8L195.0,124.3L194.3,126.2L194.2,126.2L194.2,126.2L194.5,128.2L195.0,128.3L195.5,131.4L195.7,131.3L198.2,130.2L200.6,130.0L201.8,130.1L201.8,130.1L202.1,129.8L201.5,127.9L202.2,123.2L202.2,123.1L202.2,123.2L200.7,122.4L200.0,122.9L198.4,121.7L198.3,121.6L198.3,121.6L197.3,121.9L197.3,121.1L195.0,122.0L194.9,122.0Z " data-iso="CIV" data-name="Ivory Coast" data-pop="20617068.0"/><path d="M227.4,126.2L225.6,122.3L227.5,122.3L225.5,117.4L225.3,117.4L225.4,118.1L225.9,118.6L221.3,127.9L218.4,128.9L217.8,130.7L217.8,130.7L218.8,132.0L219.7,133.4L219.5,134.3L219.5,134.7L219.6,134.8L219.8,134.9L221.3,134.9L221.6,134.9L221.6,134.8L222.0,134.7L224.1,134.7L224.3,134.8L224.4,134.9L224.7,134.9L226.1,134.8L228.3,135.6L228.4,134.7L228.4,134.7L228.3,134.6L226.3,130.9L226.2,129.5L227.2,126.5L227.3,126.3L227.4,126.2Z " data-iso="CMR" data-name="Cameroon" data-pop="18879301.0"/><path d="M243.5,130.0L236.3,131.5L231.8,131.3L231.7,132.4L231.7,132.8L231.7,133.0L226.6,145.9L226.0,146.1L224.1,145.7L224.0,145.8L224.0,145.8L223.7,145.9L223.2,147.5L222.8,147.6L222.9,147.7L223.0,147.8L223.9,147.7L224.0,147.7L228.7,147.8L229.6,150.3L232.4,151.2L233.1,149.6L236.0,150.1L236.7,156.3L238.9,155.8L239.0,155.8L239.0,155.8L246.5,159.6L245.1,157.1L245.1,153.2L248.2,151.5L248.4,151.5L248.4,151.3L247.6,149.4L246.6,146.3L246.6,145.6L246.6,145.5L246.6,145.2L246.4,144.3L246.4,143.2L246.1,142.8L246.1,142.7L246.0,142.6L245.9,142.3L246.3,141.9L246.9,140.6L246.9,140.6L246.9,140.5L247.4,137.3L248.5,134.4L248.7,132.8L248.6,132.7L248.6,132.7L247.3,131.4L246.0,131.2L243.9,130.3L243.9,130.2L243.5,130.0Z " data-iso="COD" data-name="Congo (Kinshasa)" data-pop="68692542.0"/><path d="M231.6,132.7L229.9,132.5L228.9,132.8L228.5,134.5L228.4,134.7L228.4,134.7L228.3,135.6L226.1,134.8L224.7,134.9L224.4,134.9L224.3,135.0L225.4,138.8L225.6,142.1L223.7,141.4L221.4,144.6L221.7,145.0L222.2,145.7L222.3,146.0L222.6,146.3L222.6,146.4L223.0,146.0L223.1,145.7L224.0,145.7L224.0,145.8L224.1,145.7L226.0,146.1L226.6,145.9L231.7,133.0L231.7,132.8L231.6,132.7Z " data-iso="COG" data-name="Congo (Brazzaville)" data-pop="4012809.0"/><path d="M99.1,124.5L99.3,125.6L98.3,126.8L98.4,126.9L97.5,134.3L96.7,135.9L96.7,136.0L99.5,137.9L101.4,138.4L101.6,138.5L101.7,138.4L105.7,142.2L106.8,141.9L109.0,145.0L109.1,145.1L109.1,145.1L109.8,140.3L108.9,137.4L111.4,135.6L113.0,136.5L113.3,136.4L113.3,136.3L112.7,128.7L109.9,128.5L105.8,126.4L105.5,121.5L107.8,119.3L107.8,119.2L102.4,120.9L99.7,125.3L99.1,124.5L99.1,124.5Z " data-iso="COL" data-name="Colombia" data-pop="45644023.0"/><path d="M87.8,120.6L87.6,121.7L88.7,122.1L91.4,125.2L91.5,125.4L91.7,124.0L91.5,123.5L92.0,123.0L92.0,122.9L91.3,122.2L90.9,121.6L90.7,120.9L90.7,120.8L90.3,121.1L89.3,120.6L87.8,120.6L87.8,120.6Z " data-iso="CRI" data-name="Costa Rica" data-pop="4253877.0"/><path d="M95.4,101.1L103.2,106.4L105.0,106.1L99.5,102.4L95.4,101.1Z " data-iso="CUB" data-name="Cuba" data-pop="11451652.0"/><path d="M250.2,81.8L249.5,81.5L248.8,81.4L248.7,81.8L248.6,81.8L249.5,81.8L249.9,82.0L250.3,81.9L250.2,81.8Z " data-iso="CYN" data-name="N. Cyprus" data-pop="265100.0"/><path d="M248.5,81.7L248.4,82.5L248.6,82.6L250.3,82.0L250.3,81.9L249.9,82.0L249.5,81.8L248.6,81.8L248.5,81.7Z " data-iso="CYP" data-name="Cyprus" data-pop="531640.0"/><path d="M223.8,56.9L221.1,57.6L220.8,57.9L222.8,60.0L222.8,60.1L222.9,60.1L223.9,60.3L226.7,60.3L226.7,60.4L226.7,60.3L227.7,59.9L228.0,59.7L228.8,59.0L228.9,59.0L228.9,58.9L226.5,57.6L226.2,58.0L223.9,56.9L223.8,56.9L223.8,56.9Z " data-iso="CZE" data-name="Czech Rep." data-pop="10211904.0"/><path d="M222.6,52.0L222.3,51.9L222.6,52.3L222.7,52.2L222.8,52.3L222.8,52.2L222.8,52.1L222.6,52.0Z M216.2,50.9L215.7,52.9L214.4,53.1L214.5,53.2L213.1,55.5L213.4,55.9L213.2,56.8L213.2,57.0L213.2,57.1L213.5,57.3L213.4,58.0L213.4,58.0L213.4,58.1L213.4,58.1L213.7,59.0L213.7,59.1L213.7,59.0L215.9,59.9L215.3,61.9L215.3,62.0L215.4,62.0L216.2,61.9L216.7,61.8L217.5,61.9L217.7,62.1L217.7,62.0L220.9,61.8L222.0,62.1L222.8,60.2L222.8,60.1L222.8,60.0L220.8,57.9L221.1,57.6L223.8,56.9L223.8,56.9L223.8,56.9L223.5,55.4L223.6,55.0L222.9,52.5L222.8,52.5L221.3,51.4L220.8,51.3L217.4,50.8L217.4,50.8L216.8,50.8L216.4,50.7L216.1,50.7L216.2,50.9Z " data-iso="DEU" data-name="Germany" data-pop="82329758.0"/><path d="M265.4,119.8L265.5,119.1L265.7,118.8L265.3,118.0L265.2,118.0L264.8,118.4L264.6,118.5L264.3,118.3L264.2,118.3L264.1,118.6L263.5,120.7L263.6,120.8L265.0,120.7L265.1,120.7L265.2,120.4L265.4,120.1L265.5,119.9L265.4,119.8Z " data-iso="DJI" data-name="Djibouti" data-pop="516055.0"/><path d="M216.1,50.7L216.4,50.7L216.8,50.8L217.4,50.8L217.4,50.7L217.9,47.5L218.1,46.9L216.1,50.6L216.1,50.7Z " data-iso="DNK" data-name="Denmark" data-pop="5500510.0"/><path d="M108.1,109.4L112.3,109.1L110.8,106.8L108.4,106.7L108.3,106.7L107.8,108.5L108.0,109.4L108.1,109.4Z " data-iso="DOM" data-name="Dominican Rep." data-pop="9650054.0"/><path d="M216.5,79.0L207.2,79.7L203.3,81.9L203.0,81.9L204.3,86.7L201.4,87.3L200.7,88.6L194.4,93.5L194.3,93.9L194.3,94.2L194.3,94.5L194.6,94.7L197.6,96.8L197.8,97.0L199.2,98.0L199.5,98.2L199.9,98.5L210.3,106.6L211.3,107.7L211.7,107.6L212.0,107.5L215.4,105.5L216.1,104.8L221.4,101.1L222.1,100.6L222.0,100.3L218.6,96.4L218.4,89.8L218.6,89.7L218.5,89.3L215.8,83.9L216.7,80.7L217.0,78.9L216.5,79.0Z " data-iso="DZA" data-name="Algeria" data-pop="34178188.0"/><path d="M96.7,136.3L95.1,137.7L93.9,139.9L94.7,143.8L94.7,143.8L94.6,145.1L97.0,145.7L98.0,143.2L99.7,142.5L101.6,138.6L101.6,138.5L101.4,138.4L99.5,137.9L96.7,136.0L96.7,136.3Z " data-iso="ECU" data-name="Ecuador" data-pop="14573101.0"/><path d="M251.1,88.0L247.0,87.5L244.9,88.6L239.2,87.6L239.1,87.4L239.0,88.8L239.8,102.7L239.8,103.0L240.3,103.0L248.3,103.0L248.5,103.0L255.9,103.0L255.9,103.0L250.2,92.4L252.2,91.0L252.3,90.9L251.9,89.8L251.7,89.4L251.3,88.5L251.2,88.1L251.1,88.0L251.1,88.0L251.1,88.0Z " data-iso="EGY" data-name="Egypt" data-pop="83082869.0"/><path d="M256.1,115.5L256.1,115.5L257.9,114.5L261.9,115.7L264.1,118.2L264.2,118.3L264.3,118.3L264.6,118.5L264.8,118.4L265.2,118.0L265.2,117.8L260.1,113.4L259.1,110.4L258.6,109.4L257.1,110.9L256.5,111.0L256.0,115.0L256.1,115.5Z " data-iso="ERI" data-name="Eritrea" data-pop="5647168.0"/><path d="M194.8,70.9L197.0,70.9L196.4,74.5L196.4,78.5L196.7,78.5L199.0,80.0L204.7,77.9L206.9,72.7L210.0,70.2L210.0,70.1L209.2,70.3L208.9,70.2L208.3,70.1L208.1,70.0L208.1,70.0L207.9,70.1L207.7,69.9L207.7,69.9L207.6,69.7L205.6,69.5L203.7,68.6L203.6,68.6L194.8,68.7L194.4,68.9L194.7,70.9L194.8,70.9Z " data-iso="ESP" data-name="Spain" data-pop="40525002.0"/><path d="M234.0,46.2L234.8,46.0L235.7,46.2L237.5,46.8L237.5,46.8L237.5,46.7L237.7,46.3L237.8,43.9L237.8,43.9L234.9,43.8L232.8,44.3L234.0,46.2L234.0,46.2Z " data-iso="EST" data-name="Estonia" data-pop="1299371.0"/><path d="M256.1,115.5L256.0,115.9L254.1,120.8L253.0,123.1L253.0,123.2L253.0,123.2L251.5,125.6L251.6,125.8L254.7,129.5L254.7,129.5L254.7,129.6L258.7,132.5L262.4,131.5L263.7,132.0L263.9,132.0L264.0,131.9L265.6,130.9L268.1,130.5L271.9,125.9L272.2,125.5L271.8,125.5L265.9,123.3L265.6,122.7L265.1,120.8L265.1,120.7L265.0,120.7L263.6,120.8L263.5,120.7L264.1,118.6L264.2,118.3L264.1,118.2L261.9,115.7L257.9,114.5L256.1,115.5L256.1,115.5Z " data-iso="ETH" data-name="Ethiopia" data-pop="85237338.0"/><path d="M227.6,30.3L227.9,30.4L230.7,31.6L231.0,32.5L232.1,34.8L232.2,34.8L233.4,35.7L230.6,38.3L230.0,41.6L232.6,43.1L237.3,42.3L237.4,42.3L240.4,39.7L240.4,38.5L236.4,30.4L236.4,30.4L236.3,30.3L235.0,29.0L230.3,30.8L227.7,30.3L227.6,30.3Z " data-iso="FIN" data-name="Finland" data-pop="5250275.0"/><path d="M131.0,129.8L130.6,130.3L130.3,134.6L130.3,134.6L130.3,134.6L131.5,134.6L132.7,134.8L134.4,131.8L134.4,131.8L134.0,131.1L133.9,130.9L131.1,129.7L131.0,129.8Z M208.9,56.6L204.2,60.3L200.2,60.5L204.2,63.9L203.9,68.5L203.7,68.6L205.6,69.5L207.6,69.7L207.7,69.9L207.8,69.8L207.9,69.8L208.1,69.8L208.1,70.0L208.1,70.0L208.3,70.1L208.9,70.2L209.2,70.3L210.0,70.1L210.0,70.1L209.8,69.5L211.2,68.4L215.1,68.1L215.2,68.0L215.3,68.0L215.3,68.0L215.3,68.0L215.4,68.0L215.2,67.4L214.7,67.2L214.6,64.7L214.7,64.6L214.6,64.5L214.1,63.8L213.5,64.2L215.2,62.0L215.3,62.0L215.3,61.9L215.9,59.9L213.7,59.0L213.7,59.1L213.6,59.0L213.4,59.0L213.3,59.0L213.0,59.0L213.0,58.9L212.9,58.9L211.8,58.0L209.0,56.5L208.9,56.6Z " data-iso="FRA" data-name="France" data-pop="64057792.0"/><path d="M224.3,134.8L224.1,134.7L222.0,134.7L221.6,134.8L221.6,134.9L221.6,135.2L221.6,136.7L219.2,136.7L219.2,136.8L219.5,138.3L218.3,139.4L221.2,144.5L221.4,144.6L223.7,141.4L225.6,142.1L225.4,138.8L224.3,135.0L224.4,134.9L224.3,134.8Z " data-iso="GAB" data-name="Gabon" data-pop="1514993.0"/><path d="M251.3,88.0L251.3,87.9L251.4,87.5L251.3,87.7L251.1,88.0L251.1,88.0L251.2,88.1L251.3,88.0Z " data-iso="GAZ" data-name="Gaza" data-pop="1604238.0"/><path d="M197.5,50.4L196.4,51.3L196.7,51.7L198.6,51.9L198.7,52.0L199.3,51.2L199.4,51.1L197.5,50.5L197.5,50.4Z M202.4,45.3L200.0,46.2L202.3,52.8L201.5,57.8L205.0,57.0L207.9,54.0L202.7,48.3L203.8,46.6L202.4,45.3Z " data-iso="GBR" data-name="United Kingdom" data-pop="61113205.0"/><path d="M264.8,71.0L263.7,70.0L258.3,68.9L256.2,68.5L256.5,68.7L257.8,69.5L258.2,69.6L258.8,71.3L258.6,71.6L259.1,71.7L261.2,72.2L261.2,72.2L261.3,72.2L262.2,72.1L263.1,72.0L263.1,71.9L263.4,71.7L265.1,72.3L265.3,71.9L264.8,71.0L264.8,71.0L264.8,71.0Z " data-iso="GEO" data-name="Georgia" data-pop="4615807.0"/><path d="M205.5,120.4L202.1,120.7L202.0,121.5L202.2,123.1L202.2,123.1L202.2,123.2L201.5,127.9L202.1,129.8L201.8,130.1L201.7,130.1L201.6,130.2L201.7,130.2L203.2,130.7L204.8,130.0L207.5,128.6L207.6,128.6L206.8,127.5L206.4,122.9L205.9,120.6L205.8,120.5L205.5,120.4Z " data-iso="GHA" data-name="Ghana" data-pop="23832495.0"/><path d="M190.2,118.4L188.7,118.5L187.5,118.0L187.1,118.0L187.1,118.1L186.5,119.7L185.6,120.1L185.2,120.8L185.2,121.0L186.0,121.9L186.4,122.1L187.6,123.8L187.6,123.8L188.8,122.5L189.5,122.3L191.6,124.7L191.7,124.7L191.8,124.7L192.8,125.0L193.0,126.0L194.2,126.2L194.2,126.2L194.3,126.2L195.0,124.3L195.2,123.8L194.9,122.1L194.9,122.0L194.9,121.9L193.8,119.2L192.6,119.0L190.2,118.5L190.3,118.4L190.2,118.4Z " data-iso="GIN" data-name="Guinea" data-pop="10057975.0"/><path d="M183.2,116.8L183.5,116.9L182.9,117.3L182.9,117.4L186.9,117.0L186.5,116.6L183.2,116.5L183.2,116.8Z " data-iso="GMB" data-name="Gambia" data-pop="1782893.0"/><path d="M187.1,118.0L186.6,118.0L185.0,118.0L184.2,118.4L183.0,118.5L183.3,118.8L183.7,119.2L184.7,119.9L185.1,120.7L185.2,120.8L185.6,120.1L186.5,119.7L187.1,118.1L187.1,118.0Z " data-iso="GNB" data-name="Guinea Bissau" data-pop="1533964.0"/><path d="M221.6,134.9L221.3,134.9L219.8,134.9L219.6,134.8L219.5,134.7L219.5,135.0L219.2,135.9L219.1,136.0L219.2,136.7L219.2,136.7L221.6,136.7L221.6,135.2L221.6,134.9Z " data-iso="GNQ" data-name="Eq. Guinea" data-pop="633441.0"/><path d="M239.3,71.3L239.2,71.2L239.1,71.8L238.2,72.0L235.2,71.9L235.1,71.9L235.0,71.9L233.7,72.5L232.8,72.6L232.6,72.6L232.6,72.8L232.3,73.8L231.9,74.1L231.5,74.5L231.7,74.6L235.1,79.5L236.5,77.4L235.0,75.8L234.8,73.2L239.1,72.8L239.1,72.8L239.5,72.4L239.4,72.0L239.4,71.3L239.3,71.3Z " data-iso="GRC" data-name="Greece" data-pop="10737428.0"/><path d="M179.3,12.7L165.2,13.4L168.6,13.5L158.8,14.2L144.0,15.8L145.6,16.4L136.2,18.5L138.9,19.4L139.0,21.1L144.0,20.8L149.8,23.1L150.0,27.2L153.3,29.3L148.6,32.4L148.1,34.3L150.6,36.9L149.3,37.3L151.5,41.9L154.2,41.5L157.0,43.0L158.7,39.3L165.5,34.8L171.8,31.8L175.4,31.3L182.7,28.9L176.6,27.7L180.8,27.5L183.6,25.2L181.8,24.5L186.5,23.4L185.9,18.1L195.1,14.7L179.0,14.1L184.3,14.0L177.3,13.2L179.3,12.7Z " data-iso="GRL" data-name="Greenland" data-pop="57600.0"/><path d="M83.9,109.8L82.0,112.6L80.4,112.6L79.4,115.0L79.9,115.5L80.8,116.0L81.5,116.0L81.7,116.0L82.2,116.3L82.3,116.0L83.3,115.2L83.3,115.2L83.4,115.1L83.6,114.8L85.1,113.1L84.6,112.8L84.7,112.9L84.6,113.0L84.3,112.9L84.2,112.8L83.9,112.8L83.8,112.8L84.2,110.1L84.2,109.8L83.9,109.8Z " data-iso="GTM" data-name="Guatemala" data-pop="13276517.0"/><path d="M126.8,129.4L124.7,125.9L123.1,124.7L123.1,124.6L123.3,125.1L122.0,126.3L121.6,129.6L121.9,130.0L122.0,130.0L123.4,135.6L124.9,136.3L127.6,135.3L127.7,135.2L127.6,135.2L126.6,132.9L126.2,132.9L126.8,129.5L126.8,129.4Z " data-iso="GUY" data-name="Guyana" data-pop="772298.0"/><path d="M360.5,102.1L360.3,102.1L360.3,102.1L360.2,102.2L360.2,102.2L360.0,102.3L360.5,102.1L360.5,102.1Z " data-iso="HKG" data-name="Hong Kong" data-pop="7055071.0"/><path d="M85.1,113.1L83.6,114.8L83.4,115.1L83.3,115.2L83.4,115.2L84.9,115.9L85.4,116.1L85.3,116.9L85.3,116.9L85.6,116.9L85.7,116.9L85.9,117.4L85.9,117.5L86.8,116.3L91.4,114.3L91.9,114.3L91.8,114.2L88.5,112.7L86.9,113.1L85.2,113.2L85.1,113.1Z " data-iso="HND" data-name="Honduras" data-pop="7792854.0"/><path d="M229.3,70.1L229.3,70.0L229.2,70.0L229.2,69.9L229.1,69.9L228.3,69.4L227.6,69.2L229.1,70.0L229.3,70.1Z M226.4,63.7L226.3,63.6L225.3,64.1L225.4,64.7L222.8,65.2L222.8,65.3L226.6,68.3L227.2,68.6L228.1,69.3L225.6,66.4L226.1,65.9L229.6,66.3L229.7,66.2L229.7,66.2L230.0,65.6L229.6,65.4L229.4,64.6L229.4,64.6L229.4,64.6L228.3,64.8L228.1,64.8L226.5,63.7L226.4,63.7Z " data-iso="HRV" data-name="Croatia" data-pop="4489409.0"/><path d="M108.0,109.4L107.8,108.5L108.3,106.7L108.2,106.7L107.2,108.6L104.4,108.7L107.9,109.3L108.0,109.4Z " data-iso="HTI" data-name="Haiti" data-pop="9035536.0"/><path d="M233.0,60.7L229.0,61.7L227.0,61.3L227.0,61.3L226.9,61.4L226.5,62.0L226.2,62.3L226.0,62.9L225.8,63.1L226.1,63.1L226.1,63.3L226.4,63.6L226.4,63.7L226.5,63.7L228.1,64.8L228.3,64.8L229.4,64.6L229.4,64.6L229.5,64.6L229.7,64.5L230.1,64.3L231.0,64.3L231.1,64.3L231.1,64.3L232.5,63.4L233.0,62.1L234.0,61.4L234.0,61.4L234.0,61.4L233.6,61.0L233.4,60.9L233.2,60.7L233.1,60.7L233.0,60.7Z " data-iso="HUN" data-name="Hungary" data-pop="9905596.0"/><path d="M378.3,152.7L378.1,152.9L378.0,153.0L377.9,153.0L377.7,153.1L377.6,153.3L377.4,153.5L377.1,153.3L377.0,153.4L376.5,154.5L377.5,154.6L378.4,153.7L378.5,153.6L378.6,153.1L378.7,153.0L378.4,152.7L378.3,152.7Z M354.5,148.0L351.8,149.2L358.7,151.4L362.1,150.6L361.5,149.4L354.5,148.0Z M400.5,153.0L400.8,149.3L400.7,148.9L401.2,142.5L400.9,142.5L396.9,140.7L393.4,143.8L390.0,139.0L391.1,142.6L389.2,142.6L397.0,147.1L397.6,149.5L400.5,152.9L400.5,153.0Z M379.0,136.7L373.7,136.2L372.3,137.2L370.6,143.9L374.7,146.1L374.8,141.1L376.9,139.9L372.5,139.7L373.0,137.5L379.0,136.7Z M368.8,131.7L368.9,131.9L369.2,131.8L369.2,131.8L369.1,131.6L369.0,131.7L368.8,131.7L368.8,131.7Z M357.5,135.3L356.9,137.5L359.6,143.3L364.4,143.9L364.6,144.9L367.4,142.0L370.3,136.2L368.7,131.7L368.7,131.7L365.9,133.2L363.4,136.3L359.2,136.9L357.8,135.1L357.5,135.3Z M339.5,130.0L337.7,129.9L342.8,135.9L347.7,144.7L349.6,146.5L352.3,147.4L351.2,142.2L349.2,137.5L344.3,133.6L341.4,130.5L339.5,130.0Z " data-iso="IDN" data-name="Indonesia" data-pop="240271522.0"/><path d="M309.7,87.0L309.6,86.9L310.2,88.1L310.1,88.0L310.8,88.3L311.2,88.6L311.5,88.5L311.6,88.7L311.7,88.7L313.3,89.7L313.3,89.8L313.3,89.8L317.3,94.3L322.6,95.9L323.6,93.6L323.5,93.5L323.5,93.5L324.1,93.2L324.4,93.3L324.7,94.4L324.8,94.4L324.8,94.5L327.4,95.3L329.1,95.1L328.3,93.8L328.3,93.7L328.4,93.7L330.1,92.3L333.5,91.0L335.7,92.9L335.7,93.0L335.7,93.1L333.3,95.6L331.9,99.8L331.4,103.0L331.3,103.0L331.3,102.9L329.3,97.9L324.4,98.6L326.5,102.9L326.5,103.1L323.7,104.2L320.1,109.3L316.0,113.0L316.0,121.8L312.2,124.9L309.0,118.2L307.1,113.2L303.7,102.6L302.0,105.0L299.6,103.0L297.9,100.2L297.9,100.0L301.1,97.8L300.2,93.4L304.5,88.3L304.6,86.1L303.1,84.9L306.4,81.9L306.4,81.9L306.5,81.8L306.7,81.7L307.1,81.3L307.2,81.2L307.2,81.3L308.7,82.8L309.2,83.2L309.8,84.9L309.8,85.0L309.9,85.3L310.0,85.3L310.1,86.0L310.2,86.1L309.7,87.0Z " data-iso="IND" data-name="India" data-pop="1166079217.0"/><path d="M197.5,50.3L196.2,50.3L193.5,55.4L194.8,55.9L198.2,54.6L198.6,52.0L198.6,51.9L196.7,51.7L196.4,51.3L197.5,50.4L197.5,50.3Z " data-iso="IRL" data-name="Ireland" data-pop="4203200.0"/><path d="M263.3,74.6L263.3,74.6L262.9,76.5L263.2,76.7L263.8,78.6L263.8,78.6L263.8,78.6L266.0,80.7L266.5,85.3L269.0,87.2L270.3,90.2L270.4,90.1L273.6,91.6L274.7,93.5L277.8,95.4L280.4,95.0L288.6,97.9L288.7,97.8L290.0,95.5L289.6,93.3L287.0,90.6L286.7,90.3L286.7,90.3L287.0,89.9L285.1,83.5L285.5,83.1L285.7,81.1L285.7,81.0L285.6,81.0L284.1,79.4L279.8,77.1L275.6,78.3L275.7,78.5L273.6,79.4L271.1,78.6L268.8,76.6L268.8,76.5L267.9,75.0L267.4,74.5L265.7,75.8L265.6,75.8L265.4,75.7L265.2,75.8L265.2,75.8L264.9,75.7L264.3,75.6L263.3,74.6L263.3,74.6Z " data-iso="IRN" data-name="Iran" data-pop="66429284.0"/><path d="M263.8,78.5L262.6,78.5L261.2,78.2L260.9,78.6L260.7,78.6L260.7,78.7L260.1,79.5L259.6,81.6L257.2,84.4L256.8,84.7L256.9,85.0L257.3,86.1L257.7,86.5L257.5,86.7L257.8,86.7L261.2,88.1L267.6,91.6L267.8,91.6L268.0,91.3L268.5,90.1L268.9,89.9L269.6,90.1L269.6,90.1L270.1,90.2L270.2,90.2L270.3,90.2L269.0,87.2L266.5,85.3L266.0,80.7L263.8,78.6L263.8,78.6L263.8,78.5Z " data-iso="IRQ" data-name="Iraq" data-pop="28945657.0"/><path d="M189.2,34.2L183.9,34.5L181.8,33.9L179.9,35.1L182.1,35.9L181.0,37.5L185.3,38.2L189.9,36.8L189.2,34.2Z " data-iso="ISL" data-name="Iceland" data-pop="306694.0"/><path d="M253.0,85.6L253.0,85.1L253.1,85.0L253.0,84.7L253.0,84.6L252.9,84.6L252.5,85.1L252.4,85.1L252.0,85.1L252.0,85.3L251.8,86.6L251.7,87.0L251.4,87.5L251.4,87.5L251.3,87.9L251.3,88.0L251.2,88.1L251.3,88.5L251.7,89.4L251.9,89.8L252.3,90.9L252.4,90.8L252.5,89.8L252.5,89.3L252.7,88.0L252.7,87.7L252.7,87.7L252.2,87.4L252.6,86.2L252.7,86.2L252.7,85.9L252.8,85.8L252.9,85.7L253.0,85.7L253.0,85.6Z " data-iso="ISR" data-name="Israel" data-pop="7233701.0"/><path d="M218.9,63.1L218.8,63.3L217.6,63.8L217.2,64.7L214.7,64.6L214.7,64.6L214.6,64.7L214.7,67.2L215.2,67.4L215.4,68.0L215.7,67.9L218.8,67.9L226.0,74.0L226.8,75.7L226.5,71.1L223.9,70.0L221.3,66.9L223.1,65.0L223.0,65.1L222.8,64.5L222.6,64.0L222.9,63.7L222.9,63.6L222.6,63.6L221.0,63.0L221.0,62.8L218.9,63.1L218.9,63.1Z " data-iso="ITA" data-name="Italy" data-pop="58126212.0"/><path d="M257.7,86.5L257.3,86.1L256.9,85.0L256.8,84.7L256.5,84.9L254.0,86.3L253.1,85.7L253.0,85.7L252.9,85.7L252.8,85.8L252.7,85.9L252.7,86.2L252.8,86.5L252.8,86.9L252.8,87.2L252.7,87.6L252.7,87.7L252.7,88.0L252.5,89.3L252.5,89.8L252.4,90.8L252.4,90.9L252.4,91.1L254.2,91.1L256.2,89.3L254.9,87.9L257.3,86.9L257.5,86.7L257.7,86.5Z " data-iso="JOR" data-name="Jordan" data-pop="6342948.0"/><path d="M385.3,71.8L385.4,77.2L383.9,79.2L379.2,81.1L377.5,83.0L378.9,83.3L384.4,81.9L388.0,81.8L387.5,77.0L385.3,71.8Z M386.2,67.4L382.4,65.4L383.9,68.6L387.4,70.7L386.2,67.4Z " data-iso="JPN" data-name="Japan" data-pop="127078679.0"/><path d="M307.1,81.3L306.8,81.3L306.6,81.2L306.0,81.0L305.8,81.0L305.9,81.1L306.0,81.3L306.3,81.7L306.4,81.9L306.5,81.8L306.7,81.7L307.1,81.3L307.2,81.2L307.1,81.3Z " data-iso="KAS" data-name="" data-pop="6000.0"/><path d="M266.9,63.9L272.2,65.5L268.9,67.1L272.4,71.0L272.5,71.2L274.5,70.3L276.5,72.0L277.0,71.9L277.1,71.9L277.0,71.5L276.1,67.5L278.7,65.2L282.6,67.4L290.2,70.8L293.0,72.9L295.6,70.5L295.7,70.4L295.6,70.3L305.7,69.6L307.2,70.3L307.4,70.5L307.5,70.5L305.9,66.0L307.7,65.5L311.6,62.5L311.0,61.0L312.4,59.6L312.5,59.6L312.5,59.5L306.2,56.8L302.7,57.0L296.5,52.1L292.8,52.1L289.9,51.1L278.4,52.0L279.3,55.9L276.3,56.6L267.4,55.7L263.5,57.6L263.0,60.4L267.0,63.9L266.9,63.9Z " data-iso="KAZ" data-name="Kazakhstan" data-pop="15399437.0"/><path d="M254.7,129.5L254.5,129.8L253.5,130.9L253.3,131.3L253.0,131.6L253.2,132.1L254.3,134.5L253.0,138.1L252.9,139.7L252.9,140.0L253.0,140.0L258.1,144.0L260.2,145.9L260.2,145.8L261.6,143.2L262.2,142.4L263.3,141.3L263.5,141.1L262.7,139.7L262.7,133.8L263.8,132.3L263.9,132.0L263.7,132.0L262.4,131.5L258.7,132.5L254.7,129.6L254.7,129.5Z " data-iso="KEN" data-name="Kenya" data-pop="39002772.0"/><path d="M307.2,70.3L305.7,69.6L295.6,70.3L295.7,70.4L295.7,70.4L299.1,72.7L296.6,73.6L296.5,73.6L296.5,73.6L294.7,74.8L297.5,74.7L300.2,74.9L300.3,74.9L300.4,74.9L301.4,73.2L303.3,73.4L307.5,70.6L307.4,70.5L307.2,70.3Z M297.0,74.2L296.8,74.0L296.6,73.9L297.0,74.2Z M296.4,74.3L296.1,74.3L296.1,74.2L296.4,74.3Z " data-iso="KGZ" data-name="Kyrgyzstan" data-pop="5431747.0"/><path d="M353.4,114.8L353.4,114.8L352.5,115.3L351.6,116.0L350.3,115.4L350.3,115.3L350.3,115.3L348.0,115.2L347.7,119.6L347.6,119.5L348.1,120.8L349.7,121.4L349.9,121.6L351.8,119.6L352.3,119.6L353.4,114.8L353.4,114.8Z " data-iso="KHM" data-name="Cambodia" data-pop="14494293.0"/><path d="M369.3,77.6L371.5,82.8L374.3,81.7L371.6,76.9L371.0,76.2L369.5,76.8L369.3,77.6L369.3,77.6Z " data-iso="KOR" data-name="S. Korea" data-pop="48508972.0"/><path d="M233.2,70.4L232.5,69.1L231.9,68.9L231.8,69.4L231.6,69.5L231.4,69.5L231.3,69.6L231.2,69.6L231.3,69.9L231.3,69.9L231.3,70.0L231.7,70.3L231.9,70.5L232.0,70.9L232.0,71.0L232.0,71.0L232.2,70.7L233.2,70.4L233.2,70.4L233.2,70.4Z " data-iso="KOS" data-name="Kosovo" data-pop="1804838.0"/><path d="M269.6,90.1L268.9,89.9L268.5,90.1L268.0,91.3L267.8,91.6L268.1,91.6L269.3,92.3L269.4,92.5L270.5,92.5L270.4,92.3L269.6,90.7L269.9,90.8L269.6,90.2L269.6,90.1Z " data-iso="KWT" data-name="Kuwait" data-pop="2691158.0"/><path d="M344.2,102.6L347.4,107.4L349.2,108.4L353.2,113.5L353.4,114.6L353.4,114.8L353.4,114.8L352.5,115.3L351.6,116.0L350.3,115.4L350.3,115.3L350.4,115.3L350.6,114.2L350.2,112.7L346.6,109.2L346.6,109.2L346.6,109.2L346.6,109.2L345.1,109.2L344.0,110.3L342.0,105.8L342.0,105.7L342.0,105.6L342.4,104.8L342.4,104.7L343.0,103.9L343.0,103.7L343.1,103.8L344.0,104.3L343.6,102.2L344.1,102.3L344.1,102.4L344.2,102.6Z " data-iso="LAO" data-name="Laos" data-pop="6834942.0"/><path d="M253.0,84.5L253.3,82.6L252.9,82.6L252.9,82.8L252.6,83.2L252.5,83.6L252.1,85.0L252.0,85.1L252.4,85.1L252.5,85.1L252.9,84.6L253.0,84.6L253.0,84.5Z " data-iso="LBN" data-name="Lebanon" data-pop="4017095.0"/><path d="M194.2,126.2L193.0,126.0L192.8,125.0L191.8,124.7L191.7,124.7L191.7,124.8L191.7,125.0L190.0,127.3L190.3,127.6L191.0,128.2L193.3,130.2L195.3,131.3L195.5,131.4L195.0,128.3L194.5,128.2L194.2,126.2L194.2,126.2L194.2,126.2Z " data-iso="LBR" data-name="Liberia" data-pop="3441790.0"/><path d="M239.1,87.3L235.1,85.4L227.2,88.1L226.2,86.6L221.2,85.1L221.0,85.0L221.1,86.2L218.7,89.6L218.6,89.7L218.4,89.8L218.6,96.4L222.0,100.3L222.1,100.6L222.8,100.7L224.3,101.2L224.7,101.6L226.2,101.4L226.2,101.4L226.7,101.1L227.5,100.7L230.6,102.5L237.9,106.7L238.6,107.0L238.6,106.8L238.9,106.2L239.9,106.2L239.8,103.8L239.8,103.0L239.8,102.7L239.0,88.8L239.1,87.4L239.1,87.3Z " data-iso="LBY" data-name="Libya" data-pop="6310434.0"/><path d="M217.8,62.8L217.8,62.6L217.7,62.6L217.7,62.5L217.7,62.5L217.6,62.6L217.6,62.7L217.7,62.8L217.7,62.8L217.8,62.8L217.8,62.8Z " data-iso="LIE" data-name="Liechtenstein" data-pop="34761.0"/><path d="M316.3,122.6L316.1,125.4L318.9,127.9L319.1,126.7L316.3,122.6Z " data-iso="LKA" data-name="Sri Lanka" data-pop="21324791.0"/><path d="M244.0,186.8L244.9,185.1L242.0,186.5L244.0,186.8Z " data-iso="LSO" data-name="Lesotho" data-pop="2130819.0"/><path d="M230.5,50.1L230.5,50.1L230.6,50.0L230.7,49.8L230.6,49.9L230.5,50.1Z M230.5,49.0L230.6,49.3L230.8,50.0L230.9,50.1L230.9,50.1L232.8,50.8L232.7,51.1L232.8,51.4L232.8,51.5L232.9,51.5L233.7,51.8L233.7,52.1L233.8,52.1L233.8,52.2L236.1,51.6L236.3,50.8L237.1,49.6L237.1,49.5L237.0,49.5L235.9,48.9L230.5,48.9L230.5,49.0Z " data-iso="LTU" data-name="Lithuania" data-pop="3555179.0"/><path d="M213.4,58.0L213.1,58.1L212.9,58.5L213.0,58.9L213.0,58.9L213.0,59.0L213.3,59.0L213.4,59.0L213.6,59.0L213.7,59.1L213.7,59.0L213.4,58.1L213.4,58.1L213.4,58.0L213.4,58.0Z " data-iso="LUX" data-name="Luxembourg" data-pop="491775.0"/><path d="M237.5,46.8L235.7,46.2L234.8,46.0L234.0,46.2L234.0,46.4L233.4,47.6L231.0,46.7L230.4,48.6L230.5,48.9L235.9,48.9L237.0,49.5L237.1,49.5L237.1,49.5L237.6,49.3L237.9,49.3L238.8,48.8L238.8,48.8L238.8,48.8L238.1,47.6L238.2,47.3L237.7,46.8L237.5,46.8L237.5,46.8Z " data-iso="LVA" data-name="Latvia" data-pop="2231503.0"/><path d="M359.5,102.7L359.6,102.7L359.6,102.7L359.6,102.7L359.6,102.6L359.5,102.6L359.5,102.7L359.5,102.7L359.5,102.7Z " data-iso="MAC" data-name="Macau" data-pop="559846.0"/><path d="M120.0,109.3L120.0,109.3L119.9,109.3L119.8,109.3L119.8,109.3L120.0,109.3L120.0,109.3Z " data-iso="MAF" data-name="St. Martin" data-pop="29820.0"/><path d="M182.9,103.9L186.1,103.5L187.3,100.2L191.3,94.9L194.2,93.9L194.3,93.9L194.4,93.5L200.7,88.6L201.4,87.3L204.3,86.7L203.0,81.9L202.8,81.8L198.8,80.6L193.2,87.3L193.1,89.9L186.5,96.3L183.0,103.2L182.9,103.9Z " data-iso="MAR" data-name="Morocco" data-pop="34859364.0"/><path d="M215.3,68.0L215.3,68.0L215.3,68.0L215.2,68.0L215.3,68.0Z " data-iso="MCO" data-name="Monaco" data-pop="32965.0"/><path d="M241.1,65.3L242.9,63.2L238.6,60.9L238.6,60.9L238.7,60.9L240.6,62.9L240.7,63.2L241.0,65.2L241.1,65.3L241.1,65.3Z " data-iso="MDA" data-name="Moldova" data-pop="4320748.0"/><path d="M274.1,158.3L271.6,161.8L266.7,164.7L266.0,166.3L266.2,170.7L264.6,175.1L267.1,179.4L270.2,176.3L273.3,167.8L274.1,163.1L274.1,158.3Z " data-iso="MDG" data-name="Madagascar" data-pop="20653556.0"/><path d="M51.8,86.3L53.4,91.6L53.5,93.5L55.2,98.4L58.3,100.6L54.1,89.3L56.3,88.8L59.6,96.0L59.2,96.5L63.2,104.4L62.4,105.6L64.9,108.9L71.1,112.2L74.2,113.2L77.4,112.6L79.4,115.0L79.4,115.0L80.4,112.6L82.0,112.6L83.9,109.8L84.2,109.8L84.3,109.6L85.2,108.7L85.6,108.7L85.6,108.6L88.2,104.4L83.3,104.6L80.7,108.4L74.9,107.3L73.6,102.0L75.5,97.0L75.6,96.6L73.3,95.9L71.4,90.5L69.7,90.5L65.5,87.2L59.3,88.0L51.9,86.0L51.8,86.3Z " data-iso="MEX" data-name="Mexico" data-pop="111211789.0"/><path d="M234.2,70.3L233.4,70.4L233.3,70.4L233.2,70.4L233.2,70.4L232.2,70.7L232.0,71.0L232.0,71.0L232.0,71.0L231.9,71.6L232.6,72.6L232.6,72.6L232.8,72.6L233.7,72.5L235.0,71.9L235.1,71.9L235.1,71.8L235.1,71.4L235.1,71.3L234.4,70.5L234.2,70.3L234.2,70.3Z " data-iso="MKD" data-name="Macedonia" data-pop="2066718.0"/><path d="M211.3,107.7L210.3,106.6L199.9,98.5L199.5,98.2L199.0,98.2L197.2,99.8L198.4,113.5L189.9,113.5L189.3,114.7L189.1,114.6L189.2,114.8L190.3,117.6L190.3,118.3L190.3,118.4L190.2,118.5L192.6,119.0L193.8,119.2L194.9,121.9L194.9,122.0L195.0,122.0L197.3,121.1L197.3,121.9L198.3,121.6L198.3,121.6L198.4,121.5L198.7,119.4L201.4,117.0L206.0,114.3L206.2,114.4L206.3,114.3L210.8,113.5L211.6,112.1L211.7,107.9L211.7,107.6L211.3,107.7Z " data-iso="MLI" data-name="Mali" data-pop="12666987.0"/><path d="M335.7,93.0L335.7,93.1L333.3,95.6L331.9,99.8L331.4,103.0L331.3,103.0L331.3,103.1L331.5,104.2L331.3,105.0L331.4,105.1L335.1,110.1L338.1,111.8L340.1,114.5L342.0,120.3L342.0,122.0L342.0,122.0L343.1,119.4L340.5,114.0L341.0,112.2L338.7,108.7L341.8,105.6L342.0,105.7L342.0,105.6L342.4,104.8L342.4,104.7L343.0,103.9L343.0,103.7L343.0,103.7L341.3,103.4L337.6,100.0L338.2,95.6L335.7,92.9L335.7,93.0Z " data-iso="MMR" data-name="Myanmar" data-pop="48137741.0"/><path d="M230.0,68.4L229.4,69.2L229.2,69.3L229.3,69.9L229.2,69.9L229.2,70.0L229.3,70.0L229.3,70.1L229.4,70.1L229.5,70.2L229.8,70.4L230.2,70.9L230.5,71.0L230.8,69.8L230.9,69.8L231.3,69.9L231.3,69.9L231.3,69.9L231.2,69.6L231.3,69.6L231.4,69.5L231.6,69.5L231.6,69.4L230.9,69.0L230.7,69.0L230.1,68.4L230.1,68.4L230.0,68.4Z " data-iso="MNE" data-name="Montenegro" data-pop="672180.0"/><path d="M347.6,58.4L340.5,59.4L335.1,57.7L329.7,57.3L326.6,55.5L320.8,58.2L318.4,57.2L313.1,59.5L313.1,59.5L313.1,59.6L318.0,62.9L318.8,65.2L325.0,67.2L328.6,69.5L339.5,71.2L345.3,69.6L346.5,66.2L350.0,65.3L351.3,63.5L350.6,61.3L348.8,61.5L347.7,58.7L347.7,58.5L347.6,58.4Z " data-iso="MNG" data-name="Mongolia" data-pop="3041142.0"/><path d="M250.0,181.5L251.4,178.6L253.3,177.8L253.9,175.6L253.2,170.3L261.5,163.2L261.8,155.3L261.7,155.1L258.7,156.5L257.2,157.1L254.4,156.9L254.1,156.9L253.9,156.9L253.2,157.9L254.9,164.0L254.2,165.3L251.6,160.9L251.5,160.8L251.2,160.9L249.2,161.7L248.3,162.0L247.6,163.2L247.6,163.4L247.6,163.7L251.0,166.0L250.6,170.8L248.5,174.2L248.3,174.3L248.3,174.4L249.0,177.9L248.8,179.9L248.8,180.1L248.8,180.1L248.9,180.5L248.9,180.6L248.9,181.0L248.9,181.5L249.0,181.5L249.2,181.5L249.8,181.5L250.0,181.5L250.0,181.5Z M253.7,157.8L253.7,157.6L253.7,157.6L253.7,157.8Z M253.6,157.6L253.5,157.6L253.5,157.6L253.6,157.6Z " data-iso="MOZ" data-name="Mozambique" data-pop="21669278.0"/><path d="M199.5,98.2L199.2,98.0L197.8,97.0L197.6,96.8L194.6,94.7L194.3,94.5L194.3,94.8L194.3,96.4L189.8,97.0L189.7,100.6L182.9,104.1L182.8,104.9L182.9,104.6L184.1,109.6L183.3,112.2L183.3,112.9L186.1,111.6L187.6,112.6L189.1,114.6L189.1,114.6L189.3,114.7L189.9,113.5L198.4,113.5L197.2,99.8L199.0,98.2L199.5,98.2Z " data-iso="MRT" data-name="Mauritania" data-pop="3129486.0"/><path d="M253.7,157.8L253.7,157.6L253.7,157.6L253.7,157.8Z M253.6,157.6L253.5,157.6L253.5,157.6L253.6,157.6Z M251.4,153.4L251.4,153.5L251.8,155.7L251.5,160.7L251.5,160.8L251.6,160.9L254.2,165.3L254.9,164.0L253.2,157.9L253.9,156.9L254.1,156.9L254.1,156.9L253.3,154.0L252.8,153.6L251.4,153.4L251.4,153.4Z " data-iso="MWI" data-name="Malawi" data-pop="14268711.0"/><path d="M369.0,131.5L368.9,131.5L368.8,131.5L368.8,131.6L368.8,131.7L369.0,131.7L369.1,131.6L369.0,131.5Z M344.5,128.2L347.4,134.7L349.1,135.9L348.7,129.9L347.4,128.4L347.2,128.3L345.6,129.1L345.7,128.5L344.4,128.0L344.5,128.2Z M365.6,131.3L365.3,131.3L365.1,130.5L364.9,131.4L364.6,131.9L363.8,131.0L363.8,131.0L362.6,133.0L360.7,133.8L360.0,136.1L357.9,135.3L357.8,135.1L359.2,136.9L363.4,136.3L365.9,133.2L368.7,131.7L368.8,131.6L371.0,129.7L367.5,127.2L365.6,130.4L365.6,131.3Z " data-iso="MYS" data-name="Malaysia" data-pop="25715819.0"/><path d="M237.4,166.8L231.6,166.9L231.1,166.3L222.0,166.0L222.0,166.4L225.3,174.0L226.4,182.4L227.7,184.2L227.8,184.4L229.2,184.5L232.6,184.1L232.8,178.8L232.8,178.2L232.8,178.1L233.0,174.5L234.3,173.7L234.9,167.7L240.4,166.9L240.4,166.9L240.2,166.6L239.7,166.5L238.2,166.6L237.9,166.7L237.4,166.8Z " data-iso="NAM" data-name="Namibia" data-pop="2108665.0"/><path d="M226.2,101.4L224.7,101.6L224.3,101.2L222.8,100.7L222.1,100.6L221.4,101.1L216.1,104.8L215.4,105.5L212.0,107.5L211.7,107.6L211.7,107.9L211.6,112.1L210.8,113.5L206.3,114.3L206.2,114.4L206.2,114.5L207.4,117.5L208.1,118.1L209.2,119.2L209.2,119.3L209.3,119.1L209.3,118.7L210.8,119.4L210.9,119.6L211.0,119.5L211.6,117.4L213.5,116.1L219.2,117.8L224.4,116.4L224.6,116.4L224.5,115.7L227.1,111.2L226.7,104.0L226.4,102.3L226.2,101.4L226.2,101.4Z " data-iso="NER" data-name="Niger" data-pop="15306252.0"/><path d="M210.9,119.6L210.8,119.7L210.2,123.6L209.8,123.8L209.7,128.1L209.8,128.1L211.6,128.1L217.8,130.7L217.8,130.7L218.4,128.9L221.3,127.9L225.9,118.6L225.4,118.1L225.3,117.4L225.1,117.1L224.9,116.7L224.6,116.4L224.4,116.4L219.2,117.8L213.5,116.1L211.6,117.4L211.0,119.5L210.9,119.6Z " data-iso="NGA" data-name="Nigeria" data-pop="149229090.0"/><path d="M85.9,117.6L86.4,118.7L86.9,119.5L87.8,120.6L87.8,120.6L89.3,120.6L90.3,121.1L90.7,120.8L90.6,120.8L91.1,117.6L91.4,115.9L91.9,114.3L91.9,114.3L91.4,114.3L86.8,116.3L85.9,117.5L85.9,117.6Z " data-iso="NIC" data-name="Nicaragua" data-pop="5891199.0"/><path d="M210.9,56.1L210.8,56.0L210.6,56.1L210.1,56.0L210.0,56.1L210.8,56.3L210.9,56.1Z M212.8,57.0L212.9,57.0L212.9,57.0L213.2,57.0L213.2,56.8L213.4,55.9L213.1,55.5L214.5,53.2L214.3,53.1L212.0,53.6L210.5,56.0L210.9,56.0L211.5,56.0L212.8,57.0L212.8,57.0Z " data-iso="NLD" data-name="Netherlands" data-pop="16715999.0"/><path d="M219.0,44.5L220.4,41.1L219.2,38.4L223.8,31.9L227.5,30.3L227.6,30.3L227.7,30.3L230.3,30.8L235.0,29.0L236.3,30.3L236.4,30.4L236.6,30.3L236.8,30.0L238.2,29.7L238.2,29.3L238.0,29.3L235.3,27.7L223.5,30.9L224.0,31.3L218.5,36.0L217.3,38.0L211.5,40.3L213.8,41.7L212.4,42.9L214.0,46.0L219.0,44.5L219.0,44.5Z M221.7,16.5L217.5,18.1L221.9,18.0L222.0,20.5L223.6,18.7L226.3,17.9L221.7,16.5Z " data-iso="NOR" data-name="Norway" data-pop="4676305.0"/><path d="M323.4,93.5L318.0,91.9L313.4,89.9L313.3,89.8L313.3,89.8L317.3,94.3L322.6,95.9L323.6,93.6L323.5,93.5L323.4,93.5Z " data-iso="NPL" data-name="Nepal" data-pop="28563377.0"/><path d="M425.9,204.7L425.8,203.7L419.2,208.4L417.1,209.2L412.7,212.2L414.2,212.8L418.2,211.7L420.9,209.3L423.1,208.9L425.9,204.7Z M432.0,194.6L428.7,201.7L429.1,204.9L436.1,198.8L434.3,199.5L432.0,194.6Z " data-iso="NZL" data-name="New Zealand" data-pop="4213418.0"/><path d="M280.6,101.9L280.7,102.1L281.0,104.8L280.1,106.5L276.9,107.8L276.7,107.8L276.8,108.0L278.0,110.6L278.1,110.6L278.5,111.6L278.8,111.5L282.9,109.5L286.9,102.2L282.0,98.6L281.8,98.2L281.0,98.4L280.7,99.9L280.5,101.6L280.6,101.9Z M281.2,96.5L281.3,97.1L281.4,97.1L281.5,97.1L281.5,97.0L281.6,96.4L281.2,96.2L281.2,96.5Z " data-iso="OMN" data-name="Oman" data-pop="3418085.0"/><path d="M305.8,80.9L305.1,80.7L302.5,78.8L302.4,78.8L302.3,78.8L298.7,80.5L299.1,81.3L297.3,87.0L294.5,88.0L293.8,90.4L287.2,90.5L286.7,90.3L287.0,90.6L289.6,93.3L290.0,95.5L288.7,97.8L288.7,97.9L295.0,97.2L295.7,98.4L297.9,100.1L297.9,100.0L301.1,97.8L300.2,93.4L304.5,88.3L304.6,86.1L303.1,84.9L306.4,81.9L306.4,81.9L306.3,81.7L306.0,81.3L305.9,81.1L305.8,81.0L305.8,80.9Z " data-iso="PAK" data-name="Pakistan" data-pop="176242949.0"/><path d="M92.0,123.0L91.5,123.5L91.7,124.0L91.5,125.4L91.5,125.4L94.8,125.2L96.8,123.9L98.2,126.7L98.3,126.8L99.3,125.6L99.1,124.5L98.7,124.1L96.5,123.0L92.6,124.0L92.1,123.1L92.0,123.0Z " data-iso="PAN" data-name="Panama" data-pop="3360474.0"/><path d="M109.0,145.0L106.8,141.9L105.7,142.2L101.7,138.4L101.6,138.5L101.6,138.6L99.7,142.5L98.0,143.2L97.0,145.7L94.6,145.1L94.7,143.8L94.5,143.9L93.7,148.1L95.2,149.0L103.0,163.1L109.8,167.7L109.9,167.8L110.7,167.4L110.7,167.2L110.9,166.5L111.0,166.4L111.0,166.4L111.5,158.4L110.3,156.3L110.1,155.9L109.9,155.9L105.5,153.4L103.7,150.5L105.3,146.5L109.1,145.2L109.1,145.1L109.0,145.0Z " data-iso="PER" data-name="Peru" data-pop="29546963.0"/><path d="M379.8,123.4L377.4,125.2L377.4,126.9L379.4,129.4L379.8,123.4Z M371.0,108.5L370.7,112.3L371.3,114.5L373.7,115.7L372.6,108.6L371.0,108.5Z " data-iso="PHL" data-name="Philippines" data-pop="97976603.0"/><path d="M401.2,142.5L401.2,142.5L401.2,142.6L400.7,148.9L400.8,149.3L400.5,153.0L400.7,153.1L406.2,150.9L407.7,151.3L409.5,154.2L413.3,155.4L409.1,149.3L410.4,148.6L405.7,144.5L401.2,142.5L401.2,142.5Z " data-iso="PNG" data-name="Papua New Guinea" data-pop="6057263.0"/><path d="M229.0,51.4L227.2,50.8L225.5,51.2L222.8,52.2L222.8,52.1L222.8,52.2L222.8,52.3L222.9,52.3L223.2,52.3L223.1,52.6L222.9,52.5L223.6,55.0L223.5,55.4L223.8,56.9L223.8,56.9L223.9,56.9L226.2,58.0L226.5,57.6L228.9,58.9L228.9,59.0L229.0,59.0L230.8,59.2L232.3,59.1L233.4,59.6L233.5,59.6L233.5,59.6L233.8,59.7L234.4,56.0L234.3,55.9L234.2,55.7L233.7,54.7L234.4,54.1L234.0,52.7L233.8,52.1L233.7,52.1L233.7,51.8L232.9,51.5L232.8,51.5L232.8,51.5L232.1,51.5L229.1,51.4L229.0,51.4Z " data-iso="POL" data-name="Poland" data-pop="38482919.0"/><path d="M364.9,74.0L367.3,76.1L366.6,77.0L369.3,77.5L369.3,77.6L369.5,76.8L371.0,76.2L370.9,76.1L369.3,75.3L371.2,70.4L371.2,70.3L371.2,70.3L370.9,70.0L370.8,70.0L370.8,69.9L367.3,71.5L364.9,74.0L364.9,74.0Z " data-iso="PRK" data-name="N. Korea" data-pop="22665345.0"/><path d="M194.7,71.1L194.0,75.0L193.8,76.0L196.2,78.5L196.4,78.5L196.4,74.5L197.0,70.9L194.8,70.9L194.7,71.1Z " data-iso="PRT" data-name="Portugal" data-pop="10707924.0"/><path d="M126.9,170.5L124.2,169.3L121.9,169.9L121.2,174.0L121.1,174.1L121.2,174.1L128.2,178.7L127.5,182.1L130.4,182.5L132.7,180.1L132.6,179.4L132.6,179.2L131.0,176.2L130.8,175.4L126.9,170.8L126.9,170.7L126.9,170.5Z " data-iso="PRY" data-name="Paraguay" data-pop="6995655.0"/><path d="M275.1,98.7L274.7,96.3L274.1,97.5L274.3,98.4L274.3,98.5L274.4,98.7L275.0,98.8L275.1,98.7Z " data-iso="QAT" data-name="Qatar" data-pop="833285.0"/><path d="M241.0,65.2L240.7,63.2L240.6,62.9L238.7,60.9L238.6,60.9L238.5,60.9L236.6,61.8L235.7,61.5L234.1,61.4L234.0,61.4L234.0,61.4L233.0,62.1L232.5,63.4L231.1,64.3L231.1,64.3L231.1,64.4L232.3,65.6L233.1,66.5L234.4,67.2L234.4,67.2L234.5,67.3L239.2,67.5L239.6,67.4L241.8,68.0L241.8,67.9L242.1,66.3L242.0,66.2L243.0,65.7L243.0,65.6L242.1,65.5L241.4,65.6L241.2,65.5L241.1,65.3L241.0,65.2Z " data-iso="ROU" data-name="Romania" data-pop="22215421.0"/><path d="M374.5,51.5L376.5,55.7L382.1,64.3L384.0,64.4L381.6,62.0L380.5,59.4L374.5,51.5Z M230.5,50.1L230.5,50.1L230.4,50.2L229.9,50.6L229.4,51.1L229.3,51.2L229.1,51.4L232.1,51.5L232.8,51.5L232.8,51.5L232.8,51.4L232.7,51.1L232.8,50.8L230.9,50.1L230.9,50.4L230.2,50.6L230.4,50.3L230.5,50.1Z M16.6,30.5L9.8,35.8L12.4,35.2L16.7,36.8L22.1,34.0L20.2,33.0L18.8,33.9L16.6,30.5Z M261.8,24.7L259.0,26.9L261.2,27.9L265.6,28.1L262.8,26.5L261.8,24.7Z M272.3,20.9L266.2,20.8L262.9,22.0L260.5,23.8L263.5,24.6L272.3,20.9Z M238.2,29.3L238.2,29.7L236.8,30.0L236.6,30.3L236.4,30.4L236.4,30.4L240.4,38.5L240.4,39.7L237.4,42.3L237.8,42.3L238.9,42.8L237.9,43.8L237.8,43.9L237.7,46.3L237.5,46.7L237.5,46.8L237.7,46.8L238.2,47.3L238.1,47.6L238.8,48.8L238.8,48.8L239.0,49.0L242.1,49.7L244.1,53.4L244.0,54.9L244.0,55.0L244.0,55.0L246.9,55.1L249.2,57.7L254.8,59.4L253.1,62.7L253.4,62.6L251.6,65.7L256.1,68.5L256.2,68.5L258.3,68.9L263.7,70.0L264.8,71.0L264.8,71.0L264.9,71.0L266.8,72.1L267.5,71.1L267.4,71.0L265.8,69.2L264.5,67.0L267.0,64.0L267.0,63.9L263.0,60.4L263.5,57.6L267.4,55.7L276.3,56.6L279.3,55.9L278.4,52.0L289.9,51.1L292.8,52.1L296.5,52.1L302.7,57.0L306.2,56.8L312.5,59.5L312.5,59.6L312.6,59.6L312.7,59.6L312.7,59.6L313.0,59.5L313.1,59.5L313.1,59.5L318.4,57.2L320.8,58.2L326.6,55.5L329.7,57.3L335.1,57.7L340.5,59.4L347.6,58.4L347.7,58.5L348.1,58.6L350.7,58.1L350.7,55.2L349.6,53.3L355.6,53.5L361.5,58.8L364.3,59.4L367.1,61.8L369.8,61.2L371.7,63.7L371.7,65.9L370.0,66.1L370.9,69.9L370.8,70.0L370.9,70.0L371.2,70.3L371.2,70.3L371.3,70.3L375.8,68.4L377.4,61.0L375.6,55.2L374.1,53.1L365.4,50.3L369.2,44.0L375.8,44.2L379.1,44.8L381.9,40.7L385.6,41.2L386.8,42.2L390.1,41.6L386.8,46.4L389.7,51.3L395.1,56.7L395.6,54.6L395.4,48.6L391.7,43.0L399.1,42.3L402.6,39.3L405.3,39.7L403.0,37.8L402.1,35.8L395.5,30.4L383.6,28.9L384.0,29.5L372.8,29.2L369.2,27.6L362.8,27.7L355.2,26.4L352.7,25.5L341.8,26.5L339.9,27.5L331.5,24.1L330.6,25.1L314.8,24.2L318.4,22.1L314.6,20.4L304.4,19.7L303.9,21.2L292.9,22.3L293.4,24.0L287.1,24.3L286.0,25.8L281.5,26.6L285.5,32.1L283.3,32.3L279.9,27.1L275.0,27.9L278.4,31.3L272.2,29.5L266.6,30.9L258.9,31.7L256.9,33.2L253.9,32.5L254.5,31.1L251.8,30.9L247.3,37.5L243.5,34.6L247.7,34.4L250.2,33.3L247.9,31.7L238.4,29.3L238.2,29.3Z " data-iso="RUS" data-name="Russia" data-pop="140041247.0"/><path d="M248.2,140.1L247.9,140.1L247.0,140.6L246.9,140.6L246.9,140.6L246.3,141.9L245.9,142.3L246.0,142.6L246.1,142.7L246.1,142.6L247.1,142.8L247.6,142.2L248.2,142.2L248.3,142.2L248.3,142.2L248.7,142.0L248.6,140.8L248.2,140.1L248.2,140.1L248.2,140.1Z " data-iso="RWA" data-name="Rwanda" data-pop="10473282.0"/><path d="M194.3,94.2L194.3,93.9L194.2,93.9L191.3,94.9L187.3,100.2L186.1,103.5L182.9,103.9L182.9,104.0L182.7,104.9L182.8,104.9L182.9,104.1L189.7,100.6L189.8,97.0L194.3,96.4L194.3,94.8L194.3,94.5L194.3,94.2Z " data-iso="SAH" data-name="W. Sahara" data-pop="-99.0"/><path d="M257.5,86.7L257.3,86.9L254.9,87.9L256.2,89.3L254.2,91.1L252.4,91.1L252.3,92.2L260.1,105.8L261.6,107.1L264.5,111.9L264.5,112.1L264.9,110.5L270.9,110.6L272.8,108.5L276.4,107.9L276.7,107.8L276.9,107.8L280.1,106.5L281.0,104.8L280.7,102.1L280.6,101.9L280.5,102.0L275.5,99.7L275.4,99.3L275.4,99.3L275.1,99.2L275.1,99.0L275.1,98.9L275.0,98.8L274.4,98.7L274.3,98.5L274.2,98.4L271.3,93.9L270.6,92.6L270.5,92.5L269.4,92.5L269.3,92.3L268.1,91.6L267.8,91.6L267.6,91.6L261.2,88.1L257.8,86.7L257.5,86.7Z " data-iso="SAU" data-name="Saudi Arabia" data-pop="28686633.0"/><path d="M239.8,103.0L239.8,103.8L239.9,106.2L238.9,106.2L238.6,106.8L238.6,107.0L238.6,107.8L238.8,113.1L237.4,114.0L237.5,120.7L237.4,120.8L237.5,121.0L238.6,122.6L238.5,123.4L239.1,124.4L239.3,124.5L239.3,124.5L239.3,124.4L241.5,121.6L242.7,123.1L249.0,122.6L250.5,120.3L253.0,123.2L253.0,123.2L253.0,123.2L253.0,123.1L254.1,120.8L256.0,115.9L256.1,115.5L256.0,115.0L256.5,111.0L257.1,110.9L258.6,109.4L258.6,109.3L256.8,107.7L256.5,105.3L255.9,103.4L255.9,103.0L248.5,103.0L248.3,103.0L240.3,103.0L239.8,103.0Z " data-iso="SDN" data-name="Sudan" data-pop="30894000.0"/><path d="M239.3,124.5L239.3,124.5L239.3,124.5L240.7,126.2L243.8,130.0L243.9,130.2L243.9,130.3L246.0,131.2L247.3,131.4L248.6,132.7L248.6,132.7L248.7,132.7L250.2,132.6L251.6,132.1L252.7,132.0L253.0,131.6L253.3,131.3L253.5,130.9L254.5,129.8L254.7,129.5L254.7,129.5L251.6,125.8L251.5,125.6L253.0,123.2L253.0,123.2L253.0,123.2L253.0,123.2L250.5,120.3L249.0,122.6L242.7,123.1L241.5,121.6L239.3,124.4L239.3,124.5Z " data-iso="SDS" data-name="S. Sudan" data-pop="8260490.0"/><path d="M189.1,114.6L187.6,112.6L186.1,111.6L183.3,112.9L183.2,113.1L182.4,114.9L183.2,116.4L183.2,116.5L186.5,116.6L186.9,117.0L182.9,117.4L182.9,117.5L182.9,118.2L182.9,118.5L183.0,118.5L184.2,118.4L185.0,118.0L186.6,118.0L187.1,118.0L187.5,118.0L188.7,118.5L190.2,118.4L190.3,118.4L190.3,118.3L190.3,117.6L189.2,114.8L189.1,114.6L189.1,114.6Z " data-iso="SEN" data-name="Senegal" data-pop="13711597.0"/><path d="M187.6,123.9L188.9,126.6L190.0,127.2L190.0,127.3L191.7,125.0L191.7,124.8L191.7,124.7L191.6,124.7L189.5,122.3L188.8,122.5L187.6,123.8L187.6,123.9Z " data-iso="SLE" data-name="Sierra Leone" data-pop="6440053.0"/><path d="M83.3,115.2L82.3,116.0L82.2,116.3L82.4,116.4L83.8,117.0L84.7,117.2L85.3,116.9L85.3,116.9L85.4,116.1L84.9,115.9L83.4,115.2L83.3,115.2L83.3,115.2Z " data-iso="SLV" data-name="El Salvador" data-pop="7185218.0"/><path d="M273.3,120.3L267.9,121.6L267.1,121.6L265.8,120.1L265.5,119.9L265.4,120.1L265.2,120.4L265.1,120.7L265.1,120.8L265.6,122.7L265.9,123.3L271.8,125.5L272.2,125.5L272.4,125.2L273.5,123.2L273.4,122.4L273.3,120.3L273.3,120.3Z " data-iso="SOL" data-name="Somaliland" data-pop="3500000.0"/><path d="M263.6,140.9L270.9,133.1L273.3,129.5L275.8,123.7L275.8,119.1L273.5,120.3L273.3,120.3L273.4,122.4L273.5,123.2L272.4,125.2L272.2,125.5L271.9,125.9L268.1,130.5L265.6,130.9L264.0,131.9L263.9,132.0L263.8,132.3L262.7,133.8L262.7,139.7L263.5,141.1L263.6,140.9Z " data-iso="SOM" data-name="Somalia" data-pop="9832017.0"/><path d="M229.4,64.6L229.4,64.6L229.6,65.4L230.0,65.6L229.7,66.2L229.7,66.2L229.7,66.2L229.9,66.9L230.1,68.3L230.1,68.4L230.1,68.4L230.7,69.0L230.9,69.0L231.6,69.4L231.6,69.5L231.8,69.4L231.9,68.9L232.5,69.1L233.2,70.4L233.2,70.4L233.3,70.4L233.4,70.4L234.2,70.3L234.2,70.3L234.3,70.3L234.3,69.5L234.6,69.4L234.3,67.3L234.4,67.2L234.4,67.2L233.1,66.5L232.3,65.6L231.1,64.4L231.1,64.3L231.0,64.3L230.1,64.3L229.7,64.5L229.5,64.6L229.4,64.6Z " data-iso="SRB" data-name="Serbia" data-pop="7379339.0"/><path d="M131.1,129.5L130.1,128.7L126.8,129.5L126.8,129.5L126.2,132.9L126.6,132.9L127.6,135.2L127.7,135.2L127.7,135.2L128.5,134.4L129.2,134.4L130.2,134.6L130.3,134.6L130.3,134.6L130.6,130.3L131.0,129.8L131.1,129.5Z " data-iso="SUR" data-name="Suriname" data-pop="481267.0"/><path d="M233.4,59.6L232.3,59.1L230.8,59.2L229.0,59.0L228.9,59.0L228.8,59.0L228.0,59.7L227.7,59.9L226.7,60.3L226.7,60.4L226.7,60.4L226.6,60.6L226.6,60.7L226.9,61.3L227.0,61.3L227.0,61.3L229.0,61.7L233.0,60.7L233.1,60.7L233.0,60.4L233.3,60.2L233.3,60.0L233.4,59.7L233.5,59.6L233.4,59.6Z " data-iso="SVK" data-name="Slovakia" data-pop="5463046.0"/><path d="M226.4,63.6L226.1,63.3L226.1,63.1L225.8,63.1L225.8,63.1L224.3,63.5L224.0,63.8L223.0,63.6L222.9,63.6L222.9,63.7L222.6,64.0L222.8,64.5L223.0,65.1L222.9,65.2L222.8,65.2L225.4,64.7L225.3,64.1L226.3,63.6L226.4,63.7L226.4,63.6Z " data-iso="SVN" data-name="Slovenia" data-pop="2005692.0"/><path d="M227.6,30.3L227.5,30.3L223.8,31.9L219.2,38.4L220.4,41.1L219.0,44.5L218.8,44.4L220.4,47.7L224.5,48.8L224.3,43.9L227.4,43.5L225.4,42.1L230.2,34.7L231.8,34.8L232.1,34.8L231.0,32.5L230.7,31.6L227.9,30.4L227.6,30.3Z " data-iso="SWE" data-name="Sweden" data-pop="9059651.0"/><path d="M248.8,180.1L247.8,182.1L248.7,182.2L248.9,181.5L248.9,181.5L248.9,181.0L248.9,180.6L248.9,180.5L248.8,180.1L248.8,180.1L248.8,180.1Z " data-iso="SWZ" data-name="Swaziland" data-pop="1123913.0"/><path d="M119.8,109.3L119.9,109.4L119.9,109.4L120.0,109.4L120.0,109.3L119.8,109.3L119.8,109.3Z " data-iso="SXM" data-name="Sint Maarten" data-pop="37429.0"/><path d="M260.7,78.4L256.9,79.3L253.4,79.2L252.6,80.6L252.5,80.7L252.5,81.1L252.7,81.4L252.8,82.3L252.9,82.6L253.3,82.6L253.0,84.5L253.0,84.6L253.0,84.7L253.1,85.0L253.0,85.1L253.0,85.6L253.0,85.7L253.1,85.7L254.0,86.3L256.5,84.9L256.8,84.7L257.2,84.4L259.6,81.6L260.1,79.5L260.7,78.7L260.7,78.6L260.7,78.4Z " data-iso="SYR" data-name="Syria" data-pop="20178485.0"/><path d="M237.9,106.7L230.6,102.5L227.5,100.7L226.7,101.1L226.2,101.4L226.4,102.3L226.7,104.0L227.1,111.2L224.5,115.7L224.6,116.4L224.9,116.7L225.1,117.1L225.3,117.4L225.5,117.4L227.5,122.3L225.6,122.3L227.4,126.2L227.3,126.3L227.5,126.3L234.6,123.3L235.9,121.4L237.4,120.8L237.4,120.8L237.5,120.7L237.4,114.0L238.8,113.1L238.6,107.8L238.6,107.0L237.9,106.7Z " data-iso="TCD" data-name="Chad" data-pop="10329208.0"/><path d="M206.8,120.7L206.7,120.8L206.6,120.7L206.2,120.6L205.8,120.5L205.9,120.6L206.4,122.9L206.8,127.5L207.6,128.6L207.8,128.5L208.2,128.4L208.2,127.1L207.8,123.0L207.1,120.9L207.2,120.7L206.8,120.7Z " data-iso="TGO" data-name="Togo" data-pop="6019877.0"/><path d="M341.9,122.6L342.3,125.1L343.8,127.0L344.0,127.5L344.4,128.0L345.7,128.5L345.6,129.1L347.2,128.3L346.7,128.0L343.0,123.6L342.7,121.8L343.4,117.1L344.7,116.8L347.6,119.6L347.7,119.6L348.0,115.2L350.3,115.3L350.3,115.3L350.4,115.3L350.6,114.2L350.2,112.7L346.6,109.2L345.1,109.2L344.0,110.3L342.0,105.8L342.0,105.7L341.8,105.6L338.7,108.7L341.0,112.2L340.5,114.0L343.1,119.4L342.0,122.0L341.9,122.6Z " data-iso="THA" data-name="Thailand" data-pop="65905410.0"/><path d="M296.4,74.3L296.1,74.2L296.1,74.3L296.4,74.3Z M293.6,78.5L293.6,78.6L297.0,76.5L298.6,79.1L302.8,78.4L302.8,78.4L302.8,78.4L300.8,76.2L300.3,75.0L300.3,74.9L300.2,74.9L297.5,74.7L294.7,74.8L296.5,73.6L296.5,73.6L296.5,73.6L292.8,75.6L293.6,78.4L293.6,78.5Z " data-iso="TJK" data-name="Tajikistan" data-pop="7349145.0"/><path d="M277.1,71.9L277.0,71.9L276.5,72.0L274.5,70.3L272.5,71.2L272.7,71.6L274.1,70.7L273.5,72.6L275.6,78.1L275.6,78.3L279.8,77.1L284.1,79.4L285.6,81.0L285.7,81.0L285.8,81.0L288.0,81.3L288.0,80.7L291.9,78.3L291.9,78.3L291.9,78.1L285.7,73.9L281.9,70.9L277.4,71.9L277.1,71.9Z " data-iso="TKM" data-name="Turkmenistan" data-pop="4884887.0"/><path d="M377.3,153.2L377.1,153.3L377.4,153.5L377.6,153.3L377.7,153.1L377.3,153.2Z M378.4,152.7L378.7,153.0L378.6,153.1L378.5,153.6L378.7,153.4L381.5,152.1L381.3,151.7L378.5,152.5L378.4,152.7Z " data-iso="TLS" data-name="East Timor" data-pop="1131612.0"/><path d="M217.0,78.9L216.7,80.7L215.8,83.9L218.5,89.3L218.6,89.7L218.7,89.6L221.1,86.2L221.0,85.0L220.9,84.9L220.4,81.6L220.3,79.0L217.4,78.8L217.0,78.9Z " data-iso="TUN" data-name="Tunisia" data-pop="10486339.0"/><path d="M252.6,80.6L253.4,79.2L256.9,79.3L260.7,78.4L260.7,78.6L260.9,78.6L261.2,78.2L262.6,78.5L263.8,78.5L263.8,78.6L263.8,78.6L263.2,76.7L262.9,76.5L263.3,74.6L263.3,74.6L263.3,74.5L263.2,74.5L263.2,74.4L262.5,73.9L262.1,74.0L261.2,72.3L261.2,72.2L261.2,72.2L259.1,71.7L258.6,71.6L258.5,71.7L255.4,72.4L250.5,70.8L247.2,71.1L240.3,74.7L241.6,78.6L244.0,80.0L246.6,79.1L248.5,80.4L252.7,80.4L252.6,80.6Z M239.3,71.3L239.4,71.3L239.4,72.0L239.5,72.4L239.1,72.8L239.2,72.9L241.9,72.3L241.4,71.0L241.4,70.9L240.7,70.9L239.3,71.2L239.3,71.3Z " data-iso="TUR" data-name="Turkey" data-pop="76805524.0"/><path d="M248.2,140.1L248.2,140.1L248.6,140.8L248.7,142.0L248.3,142.2L248.3,142.2L248.2,142.2L248.1,144.1L248.0,144.4L247.1,145.5L246.6,145.5L246.6,145.6L246.6,146.3L247.6,149.4L248.4,151.3L248.4,151.5L248.4,151.6L249.8,152.6L249.9,152.6L251.3,153.4L251.4,153.4L251.4,153.4L252.8,153.6L253.3,154.0L254.1,156.9L254.1,156.9L254.4,156.9L257.2,157.1L258.7,156.5L261.7,155.1L261.7,155.1L260.2,151.9L260.4,151.2L260.2,146.0L260.2,145.9L258.1,144.0L253.0,140.0L252.9,140.0L252.8,140.0L249.1,140.0L248.8,140.0L248.2,140.0L248.2,140.1Z " data-iso="TZA" data-name="Tanzania" data-pop="41048532.0"/><path d="M252.9,139.7L253.0,138.1L254.3,134.5L253.2,132.1L253.0,131.6L252.7,132.0L251.6,132.1L250.2,132.6L248.7,132.7L248.6,132.7L248.7,132.8L248.5,134.4L247.4,137.3L246.9,140.5L246.9,140.6L247.0,140.6L247.9,140.1L248.2,140.1L248.2,140.1L248.2,140.0L248.8,140.0L249.1,140.0L252.8,140.0L252.9,140.0L252.9,139.7Z " data-iso="UGA" data-name="Uganda" data-pop="32369558.0"/><path d="M244.0,55.0L243.8,54.9L238.5,55.5L234.3,55.8L234.3,55.9L234.4,56.0L233.8,59.7L233.5,59.6L233.5,59.6L233.4,59.7L233.3,60.0L233.3,60.2L233.0,60.4L233.1,60.7L233.2,60.7L233.4,60.9L233.6,61.0L234.0,61.4L234.0,61.4L234.1,61.4L235.7,61.5L236.6,61.8L238.5,60.9L238.6,60.9L238.6,60.9L242.9,63.2L241.1,65.3L241.1,65.3L241.2,65.5L241.4,65.6L242.1,65.5L243.0,65.6L243.0,65.5L245.1,62.6L249.5,64.9L253.1,62.8L253.1,62.7L254.8,59.4L249.2,57.7L246.9,55.1L244.0,55.0L244.0,55.0Z " data-iso="UKR" data-name="Ukraine" data-pop="45700395.0"/><path d="M129.6,186.9L129.5,187.0L129.3,187.5L129.3,188.9L129.4,190.6L129.4,190.7L130.4,193.8L134.3,194.5L136.0,192.7L136.0,192.6L130.8,186.9L129.7,187.0L129.6,186.9Z " data-iso="URY" data-name="Uruguay" data-pop="3494382.0"/><path d="M56.0,60.0L49.1,69.2L47.1,75.8L48.5,82.9L51.9,86.0L51.9,86.0L59.3,88.0L65.5,87.2L69.7,90.5L71.4,90.5L73.3,95.9L75.6,96.6L75.7,96.5L79.8,90.6L91.5,89.3L94.9,90.2L96.1,95.1L97.8,97.8L98.5,96.3L98.1,88.7L100.0,86.2L106.2,82.1L113.4,72.0L117.2,71.3L116.7,69.3L122.2,65.8L122.2,65.8L122.0,62.5L120.8,62.4L117.2,65.6L112.7,66.0L109.4,68.2L107.0,68.2L104.5,70.2L101.8,69.6L103.1,65.5L101.1,63.3L91.7,60.4L90.3,59.4L89.7,59.8L56.0,59.8L56.0,60.0Z M52.1,50.9L52.3,50.8L52.6,50.6L52.8,50.5L52.9,50.5L53.4,49.9L53.5,49.8L53.8,49.3L53.9,49.2L48.6,42.6L46.8,42.8L50.7,37.6L58.4,29.5L58.3,29.5L46.0,27.6L42.6,27.9L30.8,30.5L31.0,34.5L29.9,33.7L23.7,35.0L25.1,36.7L30.2,36.3L27.6,38.1L19.7,40.9L20.5,45.1L25.3,45.3L19.1,49.3L30.2,44.9L33.4,43.4L33.7,44.2L39.9,41.3L43.2,43.0L46.8,43.8L49.9,45.5L51.6,44.1L51.3,47.3L52.5,48.7L52.1,50.9L52.1,50.9Z " data-iso="USA" data-name="United States" data-pop="307212123.0"/><path d="M297.0,74.2L296.6,73.9L296.8,74.0L297.0,74.2Z M277.1,71.9L277.4,71.9L281.9,70.9L285.7,73.9L291.9,78.1L291.9,78.3L292.3,78.2L292.6,78.3L293.1,78.4L293.6,78.5L293.6,78.5L293.6,78.4L292.8,75.6L296.5,73.6L296.5,73.6L296.6,73.6L299.1,72.7L295.7,70.4L295.7,70.4L295.6,70.5L293.0,72.9L290.2,70.8L282.6,67.4L278.7,65.2L276.1,67.5L277.0,71.5L277.1,71.9Z " data-iso="UZB" data-name="Uzbekistan" data-pop="27606007.0"/><path d="M107.8,119.3L105.5,121.5L105.8,126.4L109.9,128.5L112.7,128.7L113.3,136.3L113.3,136.4L113.6,136.8L115.2,137.2L118.1,134.8L117.2,132.0L120.7,131.5L121.9,130.0L121.9,130.0L121.6,129.6L122.0,126.3L123.3,125.1L123.1,124.6L122.9,124.5L119.2,121.5L116.5,122.2L112.0,121.5L109.6,118.8L107.3,121.1L107.7,119.4L107.8,119.3Z " data-iso="VEN" data-name="Venezuela" data-pop="26814843.0"/><path d="M344.1,102.4L344.2,102.6L347.4,107.4L349.2,108.4L353.2,113.5L353.4,114.6L353.4,114.8L353.4,114.8L352.3,119.6L351.8,119.6L349.9,121.6L350.0,121.8L350.7,124.2L352.3,122.0L356.0,120.2L356.0,116.1L355.1,113.7L349.8,107.9L352.2,103.8L352.3,103.8L350.3,101.8L348.7,101.3L344.2,102.3L344.1,102.4Z " data-iso="VNM" data-name="Vietnam" data-pop="86967524.0"/><path d="M252.6,86.2L252.2,87.4L252.7,87.7L252.7,87.7L252.7,87.6L252.8,87.2L252.8,86.9L252.8,86.5L252.7,86.2L252.6,86.2Z " data-iso="WEB" data-name="West Bank" data-pop="2514845.0"/><path d="M276.7,107.8L276.4,107.9L272.8,108.5L270.9,110.6L264.9,110.5L264.5,112.1L264.6,112.6L266.5,118.1L277.5,113.2L277.9,111.9L278.5,111.6L278.1,110.6L278.0,110.6L276.8,108.0L276.7,107.8Z " data-iso="YEM" data-name="Yemen" data-pop="23822783.0"/><path d="M245.7,174.0L245.4,174.0L238.6,179.7L236.9,179.0L235.4,181.2L233.6,181.1L232.9,178.2L232.8,178.2L232.8,178.8L232.6,184.1L229.2,184.5L227.8,184.4L227.9,184.4L229.4,191.4L230.6,193.6L240.6,192.7L245.5,188.7L249.3,183.7L249.9,181.9L250.0,181.5L249.8,181.5L249.2,181.5L249.0,181.5L248.9,181.5L248.9,181.5L248.7,182.2L247.8,182.1L248.8,180.1L248.8,180.1L248.8,179.9L249.0,177.9L248.3,174.4L248.3,174.3L248.2,174.2L246.1,173.9L245.7,174.0L245.7,174.0Z " data-iso="ZAF" data-name="South Africa" data-pop="49052489.0"/><path d="M251.3,153.4L249.9,152.6L249.8,152.6L248.4,151.6L248.4,151.5L248.2,151.5L245.1,153.2L245.1,157.1L246.5,159.6L239.0,155.8L239.0,155.8L239.0,156.0L236.2,159.2L236.0,163.9L237.6,166.4L237.9,166.7L238.2,166.6L239.7,166.5L240.2,166.6L240.4,166.9L240.7,167.0L242.8,167.2L243.7,166.0L247.4,163.4L247.6,163.4L247.6,163.2L248.3,162.0L249.2,161.7L251.2,160.9L251.5,160.8L251.5,160.7L251.8,155.7L251.4,153.5L251.4,153.4L251.3,153.4Z " data-iso="ZMB" data-name="Zambia" data-pop="11862740.0"/><path d="M248.5,174.2L250.6,170.8L251.0,166.0L247.6,163.7L247.6,163.4L247.4,163.4L243.7,166.0L242.8,167.2L240.7,167.0L240.4,166.9L240.4,167.0L241.4,169.4L245.6,173.9L245.7,174.0L245.7,174.0L246.1,173.9L248.2,174.2L248.3,174.3L248.5,174.2Z " data-iso="ZWE" data-name="Zimbabwe" data-pop="11392629.0"/></g></svg>