<svg xmlns="http://www.w3.org/2000/svg" width="48" height="48" viewBox="0 0 48 48" fill="none">
    <path d="M32.352 32.9246C32.6237 31.9916 32.5202 31.1359 32.068 30.5001C31.6543 29.9168 30.9552 29.5795 30.1155 29.5408L14.1962 29.3335C14.0928 29.3335 14.0032 29.2809 13.9508 29.2035C13.8984 29.1261 13.886 29.0238 13.9122 28.9188C13.9646 28.7626 14.119 28.6465 14.2873 28.634L30.3485 28.4267C32.2514 28.3355 34.3197 26.7929 35.0422 24.9019L35.9606 22.5037C36.001 22.4052 36.0106 22.2968 35.9881 22.1927C34.954 17.4999 30.776 14 25.7844 14C21.1789 14 17.2767 16.9815 15.8785 21.1187C14.9726 20.4441 13.8102 20.082 12.5802 20.1981C10.3685 20.4192 8.58143 22.1941 8.37735 24.4112C8.32376 24.9626 8.36291 25.5191 8.49318 26.0575C6.75324 26.1047 5.10054 26.8315 3.88754 28.0829C2.67454 29.3342 1.99721 31.0111 2.00001 32.756C2.00001 33.0794 2.02759 33.4056 2.06482 33.7277C2.09239 33.8839 2.22063 34 2.37507 34H31.7563C31.8409 33.9984 31.9227 33.9699 31.9901 33.9188C32.0575 33.8676 32.1069 33.7964 32.1314 33.7153L32.352 32.9246Z" fill="#F38020"/>
    <path d="M37.2724 22L36.8299 22.0147C36.7262 22.0147 36.6363 22.0969 36.5949 22.2055L35.9726 24.5039C35.7002 25.4946 35.8039 26.4031 36.2575 27.0783C36.6723 27.6976 37.3733 28.0558 38.2154 28.0969L41.6127 28.317C41.7164 28.317 41.8063 28.3728 41.8588 28.455C41.9113 28.5372 41.9238 28.6604 41.8975 28.7573C41.845 28.9232 41.6901 29.0465 41.5214 29.0597L37.9817 29.2798C36.0625 29.3767 33.9995 31.0147 33.275 33.0225L33.015 33.724C32.9625 33.862 33.0537 34 33.1948 34H45.3584C45.4288 34.001 45.4976 33.9772 45.5539 33.9323C45.6102 33.8875 45.6509 33.824 45.6695 33.7519C45.8851 32.9378 45.9962 32.0966 46 31.251C45.9934 28.7974 45.0714 26.4466 43.4356 24.7131C41.7999 22.9796 39.5838 22.0031 37.2724 22Z" fill="#FAAE40"/>
</svg>
