<svg xmlns="http://www.w3.org/2000/svg" width="48" height="48" viewBox="0 0 48 48" fill="none">
    <path d="M46 24.0046C46 21.0291 42.3498 18.2092 36.7534 16.4605C38.0448 10.6377 37.4709 6.00504 34.9417 4.52186C34.3587 4.17395 33.6771 4.00916 32.9327 4.00916V6.05081C33.3453 6.05081 33.6771 6.13321 33.9552 6.28885C35.1749 7.00298 35.704 9.72213 35.2915 13.2195C35.1928 14.0801 35.0314 14.9865 34.8341 15.9112C33.0762 15.4717 31.1569 15.133 29.139 14.9133C27.9282 13.2195 26.6726 11.6814 25.4081 10.3355C28.3318 7.56146 31.0762 6.04166 32.9417 6.04166V4C30.4753 4 27.2466 5.79446 23.9821 8.9073C20.7175 5.81277 17.4888 4.03662 15.0224 4.03662V6.07828C16.8789 6.07828 19.6323 7.58892 22.5561 10.3447C21.3004 11.6905 20.0448 13.2195 18.852 14.9133C16.8251 15.133 14.9058 15.4717 13.148 15.9203C12.9417 15.0048 12.7892 14.1167 12.6816 13.2653C12.2601 9.76791 12.7803 7.04875 13.991 6.32547C14.2601 6.16068 14.6099 6.08743 15.0224 6.08743V4.04578C14.2691 4.04578 13.5874 4.21057 12.9955 4.55848C10.4753 6.04166 9.91031 10.6651 11.2108 16.4697C5.63229 18.2275 2 21.0382 2 24.0046C2 26.9801 5.65022 29.8 11.2466 31.5486C9.95516 37.3715 10.5291 42.0041 13.0583 43.4873C13.6413 43.8352 14.3229 44 15.0762 44C17.5426 44 20.7713 42.2055 24.0359 39.0927C27.3004 42.1872 30.5291 43.9634 32.9955 43.9634C33.7489 43.9634 34.4305 43.7986 35.0224 43.4507C37.5426 41.9675 38.1076 37.344 36.8072 31.5395C42.3677 29.7908 46 26.9709 46 24.0046ZM34.3229 17.8979C33.991 19.079 33.5785 20.2966 33.1121 21.5143C32.7444 20.7819 32.3587 20.0494 31.9372 19.317C31.5247 18.5846 31.0852 17.8705 30.6457 17.1746C31.9193 17.3669 33.148 17.6049 34.3229 17.8979ZM30.2152 27.6484C29.5157 28.8844 28.7982 30.0563 28.0538 31.1458C26.7175 31.2648 25.3632 31.3289 24 31.3289C22.6457 31.3289 21.2915 31.2648 19.9641 31.155C19.2197 30.0655 18.4933 28.9027 17.7937 27.6759C17.1121 26.4765 16.4933 25.2589 15.9283 24.032C16.4843 22.8052 17.1121 21.5784 17.7848 20.379C18.4843 19.1431 19.2018 17.9712 19.9462 16.8817C21.2825 16.7626 22.6368 16.6986 24 16.6986C25.3543 16.6986 26.7085 16.7626 28.0359 16.8725C28.7803 17.962 29.5067 19.1247 30.2063 20.3516C30.8879 21.5509 31.5067 22.7686 32.0717 23.9954C31.5067 25.2222 30.8879 26.4491 30.2152 27.6484ZM33.1121 26.4582C33.5964 27.6851 34.009 28.9119 34.3498 30.1021C33.1749 30.3951 31.9372 30.6423 30.6547 30.8345C31.0942 30.1295 31.5336 29.4063 31.9462 28.6647C32.3587 27.9322 32.7444 27.1907 33.1121 26.4582ZM24.0179 36.2271C23.1839 35.3481 22.3498 34.3685 21.5247 33.2973C22.3318 33.3339 23.157 33.3614 23.991 33.3614C24.8341 33.3614 25.6682 33.3431 26.4843 33.2973C25.6771 34.3685 24.8431 35.3481 24.0179 36.2271ZM17.3453 30.8345C16.0717 30.6423 14.843 30.4042 13.6682 30.1112C14 28.9302 14.4126 27.7125 14.8789 26.4949C15.2466 27.2273 15.6323 27.9597 16.0538 28.6922C16.4753 29.4246 16.9058 30.1387 17.3453 30.8345ZM23.9731 11.7821C24.8072 12.661 25.6413 13.6406 26.4664 14.7118C25.6592 14.6752 24.8341 14.6477 24 14.6477C23.157 14.6477 22.3229 14.6661 21.5067 14.7118C22.3139 13.6406 23.148 12.661 23.9731 11.7821ZM17.3363 17.1746C16.8969 17.8796 16.4574 18.6029 16.0448 19.3445C15.6323 20.0769 15.2466 20.8093 14.8789 21.5418C14.3946 20.3149 13.9821 19.0881 13.6413 17.8979C14.8161 17.6141 16.0538 17.3669 17.3363 17.1746ZM9.21973 28.6372C6.04484 27.2547 3.99103 25.442 3.99103 24.0046C3.99103 22.5672 6.04484 20.7452 9.21973 19.3719C9.99103 19.0332 10.8341 18.7311 11.704 18.4472C12.2152 20.2417 12.8879 22.1094 13.722 24.0229C12.8969 25.9272 12.2332 27.7858 11.7309 29.5711C10.8431 29.2872 10 28.976 9.21973 28.6372ZM14.0448 41.7203C12.8251 41.0062 12.296 38.287 12.7085 34.7897C12.8072 33.929 12.9686 33.0227 13.1659 32.098C14.9238 32.5374 16.8431 32.8762 18.861 33.0959C20.0718 34.7897 21.3274 36.3278 22.5919 37.6736C19.6682 40.4477 16.9238 41.9675 15.0583 41.9675C14.6547 41.9583 14.3139 41.8759 14.0448 41.7203ZM35.3184 34.7439C35.7399 38.2412 35.2197 40.9604 34.009 41.6837C33.7399 41.8485 33.3901 41.9217 32.9776 41.9217C31.1211 41.9217 28.3677 40.4111 25.4439 37.6553C26.6996 36.3095 27.9552 34.7805 29.148 33.0867C31.1749 32.867 33.0942 32.5283 34.852 32.0797C35.0583 33.0043 35.2197 33.8924 35.3184 34.7439ZM38.7713 28.6372C38 28.976 37.157 29.2781 36.287 29.5619C35.7758 27.7675 35.1031 25.8997 34.2691 23.9863C35.0942 22.0819 35.7579 20.2234 36.2601 18.4381C37.148 18.7219 37.991 19.0332 38.7803 19.3719C41.9552 20.7544 44.009 22.5672 44.009 24.0046C44 25.442 41.9462 27.2639 38.7713 28.6372Z" fill="#00D8FF"/>
    <path d="M23.9912 28.1884C26.2549 28.1884 28.0899 26.3151 28.0899 24.0043C28.0899 21.6936 26.2549 19.8203 23.9912 19.8203C21.7276 19.8203 19.8926 21.6936 19.8926 24.0043C19.8926 26.3151 21.7276 28.1884 23.9912 28.1884Z" fill="#00D8FF"/>
</svg>
