<svg xmlns="http://www.w3.org/2000/svg" width="48" height="48" viewBox="0 0 48 48" fill="none">
    <path d="M6.825 24C6.825 30.8125 10.7375 36.6812 16.45 39.435L8.3475 17.0438C7.40625 19.2175 6.825 21.5375 6.825 24ZM35.5938 23.13C35.5938 21.03 34.7962 19.505 34.1437 18.42C33.2738 16.97 32.4775 15.8112 32.4775 14.3625C32.4775 12.7688 33.71 11.3187 35.3775 11.3187H35.595C32.55 8.4925 28.4925 6.825 24 6.825C21.1577 6.85017 18.3646 7.56978 15.8639 8.92119C13.3633 10.2726 11.2309 12.2148 9.6525 14.5788H10.74C12.5525 14.5788 15.305 14.3612 15.305 14.3612C16.2475 14.2887 16.32 15.665 15.45 15.8113C15.45 15.8113 14.5075 15.9562 13.4937 15.9562L19.7263 34.5063L23.4937 23.2738L20.8125 15.955L19 15.8125C18.0575 15.74 18.2025 14.3625 19.0725 14.3625C19.0725 14.3625 21.8975 14.58 23.565 14.58C25.3775 14.58 28.13 14.3625 28.13 14.3625C29.0725 14.29 29.145 15.6663 28.275 15.8125C28.275 15.8125 27.3325 15.9575 26.3187 15.9575L32.55 34.4375L34.3 28.7125C35.025 26.3213 35.6038 24.655 35.6038 23.1325L35.5938 23.13ZM24.29 25.5212L19.145 40.45C20.6663 40.885 22.3325 41.175 24 41.175C26.0287 41.175 27.9125 40.8 29.725 40.2325C29.6525 40.16 29.6525 40.0875 29.58 40.015L24.29 25.5212ZM39.0725 15.8125L39.2175 17.5625C39.2175 19.3125 38.9275 21.2587 37.9137 23.7225L32.6963 38.8675C37.7687 35.8962 41.2463 30.3888 41.2463 24.0125C41.1738 21.0413 40.3762 18.2875 39.0713 15.825L39.0725 15.8125ZM24 4C12.985 4 4 12.985 4 24C4 35.015 12.985 44 24 44C35.015 44 44 35.015 44 24C44 12.985 35.015 4 24 4ZM24 43.13C13.4925 43.13 4.9425 34.58 4.9425 24C4.95043 18.9481 6.96082 14.1053 10.5331 10.5331C14.1053 6.96082 18.9481 4.95043 24 4.9425C29.0519 4.95043 33.8947 6.96082 37.4669 10.5331C41.0392 14.1053 43.0496 18.9481 43.0575 24C43.0575 34.58 34.5075 43.13 24 43.13Z" fill="#0F8CC4"/>
</svg>
