<svg xmlns="http://www.w3.org/2000/svg" buffered-rendering="static" viewBox="0 0 512 512">
  <g fill="#ff492c">
    <path d="M445.24 151.21h-76.49c2.08-12.01 9.48-18.71 24.5-26.34l14.1-7.16c25.18-12.94 38.58-27.5 38.58-51.3 0-15.03-5.77-26.81-17.33-35.36-11.32-8.55-25.18-12.71-41.13-12.71-12.71 0-24.26 3.23-34.9 9.93-10.4 6.48-18.25 14.8-23.1 25.2l22.18 22.18c8.55-17.33 21.03-25.88 37.44-25.88 13.86 0 22.41 7.16 22.41 17.1 0 8.32-4.15 15.25-20.1 23.34l-9.01 4.39c-19.65 9.93-33.28 21.26-41.14 34.2-7.85 12.7-11.78 29.12-11.78 48.76v5.31h115.77v-31.66zM435.02 219.44H308.36l-63.33 109.69h126.66l63.33 109.69 63.33-109.7z"/>
    <path d="M255.94 402.25c-80.64 0-146.25-65.6-146.25-146.25s65.6-146.25 146.25-146.25L306.01 4.97A257.14 257.14 0 0 0 255.94.06C114.6.06 0 114.65 0 256s114.59 255.94 255.94 255.94a254.77 254.77 0 0 0 150.73-49.1l-55.44-96.03a145.57 145.57 0 0 1-95.29 35.44z"/>
  </g>
</svg>
