<?xml version="1.0" encoding="UTF-8"?><svg id="a" xmlns="http://www.w3.org/2000/svg" width="285" height="305.652" xmlns:xlink="http://www.w3.org/1999/xlink" viewBox="0 0 285 305.652"><defs><linearGradient id="sr-logo-tagline-b" x1="127.041" y1="-944.895" x2="171.974" y2="-832.768" gradientTransform="translate(0 -805.316) scale(1 -1)" gradientUnits="userSpaceOnUse"><stop offset="0" stop-color="#fff"/><stop offset="1" stop-color="#a8a8a8"/></linearGradient><linearGradient id="sr-logo-tagline-c" x1="143.292" y1="-985.792" x2="245.483" y2="-985.792" xlink:href="#sr-logo-tagline-b"/><linearGradient id="sr-logo-tagline-d" x1="41.128" y1="-985.792" x2="143.292" y2="-985.792" xlink:href="#sr-logo-tagline-b"/><linearGradient id="sr-logo-tagline-e" x1="0" y1="-1061.484" x2="286.574" y2="-1061.484" xlink:href="#sr-logo-tagline-b"/><linearGradient id="sr-logo-tagline-f" x1="34.826" y1="-1009.237" x2="114.975" y2="-1098.902" gradientTransform="translate(0 -805.316) scale(1 -1)" gradientUnits="userSpaceOnUse"><stop offset="0" stop-color="#66933f"/><stop offset="1" stop-color="#4bb648"/></linearGradient><linearGradient id="sr-logo-tagline-g" x1=".027" y1="-1061.484" x2="286.558" y2="-1061.484" xlink:href="#sr-logo-tagline-b"/><linearGradient id="sr-logo-tagline-h" x1="246.115" y1="21.936" x2="167.955" y2="-64.686" gradientTransform="translate(0 232.482) scale(1 -1)" gradientUnits="userSpaceOnUse"><stop offset="0" stop-color="#66933f"/><stop offset="1" stop-color="#a3cd38"/></linearGradient><linearGradient id="sr-logo-tagline-i" x1="11.808" y1="-1004.448" x2="25.559" y2="-914.869" xlink:href="#sr-logo-tagline-f"/><linearGradient id="sr-logo-tagline-j" x1="0" y1="-958.145" x2="286.552" y2="-958.145" xlink:href="#sr-logo-tagline-b"/><linearGradient id="sr-logo-tagline-k" x1="266.015" y1="34.17" x2="266.015" y2="128.039" gradientTransform="translate(0 232.482) scale(1 -1)" gradientUnits="userSpaceOnUse"><stop offset="0" stop-color="#66933f"/><stop offset="1" stop-color="#acd136"/></linearGradient></defs><g><path d="M41.128,98.991l102.164,49.25,102.191-49.25-102.196-55.306L41.128,98.991Z" style="fill:url(#sr-logo-tagline-b); fill-rule:evenodd;"/><path d="M143.292,148.241v113.721l102.191-55.278V98.991l-102.191,49.25Z" style="fill:url(#sr-logo-tagline-c); fill-rule:evenodd;"/><path d="M41.128,206.684l102.164,55.278v-113.721L41.128,98.991v107.692Z" style="fill:url(#sr-logo-tagline-d); fill-rule:evenodd;"/><path d="M0,228.258l143.287,77.395v-43.691l-102.159-55.278L0,228.258Z" style="fill:url(#sr-logo-tagline-e); fill-rule:evenodd;"/><path d="M0,228.258l143.287,77.395v-43.691l-102.159-55.278L0,228.258Z" style="fill:url(#sr-logo-tagline-f); fill-rule:evenodd;"/><path d="M143.292,261.961v43.691l143.265-77.395-41.074-21.574-102.191,55.278Z" style="fill:url(#sr-logo-tagline-g); fill-rule:evenodd;"/><path d="M143.292,261.961v43.685l143.265-77.383-41.074-21.574-102.191,55.278v-.006Z" style="fill:url(#sr-logo-tagline-h); fill-rule:evenodd;"/><path d="M143.287,0L.016,77.395l41.112,21.591,102.159-55.295,102.191,55.3,41.08-21.591L143.287,0Z" style="fill:#70b143; fill-rule:evenodd;"/><path d="M0,228.258l41.128-21.574V98.991L.016,77.395l-.016,150.863Z" style="fill:url(#sr-logo-tagline-i); fill-rule:evenodd;"/><path d="M245.478,98.991v107.698l41.074,21.574V77.395l-41.074,21.591v.006Z" style="fill:url(#sr-logo-tagline-j); fill-rule:evenodd;"/><path d="M245.478,98.991v107.698l41.074,21.574V77.395l-41.074,21.591v.006Z" style="fill:url(#sr-logo-tagline-k); fill-rule:evenodd;"/></g></svg>
