<?xml version="1.0" encoding="UTF-8"?><!DOCTYPE svg  PUBLIC '-//W3C//DTD SVG 1.1//EN'  'http://www.w3.org/Graphics/SVG/1.1/DTD/svg11.dtd'><svg xmlns="http://www.w3.org/2000/svg" viewBox="0 0 220 76" width="220" height="76" style="stroke:none;fill-rule:nonzero">
	<path d="m 44.71,23.34 c 0.00,3.06 -0.71,5.82 -2.33,8.02 -1.57,2.13 -3.88,3.64 -6.62,4.48 -2.67,0.83 -5.84,1.21 -9.52,1.21 l -12.46,0 0,-27.33 12.46,0 c 6.87,0.04 11.82,0.96 14.97,4.02 2.35,2.50 3.51,5.84 3.51,9.53 l -0.37,0 0.37,0.05 z m 10.20,-0.29 c 0,-3.25 -0.52,-6.09 -1.52,-8.55 C 52.38,11.99 50.95,9.96 49.04,8.27 47.14,6.58 44.90,5.39 42.19,4.63 39.55,3.86 35.39,3.41 29.92,3.41 l 0,-0.10 -0.08,0.11 -19.13,-0.01 0,0.00 c -0.00,0 -0.01,0 -0.03,0 -2.91,0 -4.64,0.67 -5.43,1.46 -0.77,0.69 -1.48,2.29 -1.47,5.23 l 0,56.65 c 0.00,2.59 0.60,4.15 1.42,5.05 0.96,1.01 1.88,1.44 3.60,1.48 1.57,-0.03 2.48,-0.44 3.51,-1.51 0.85,-0.92 1.46,-2.49 1.46,-5.11 l 0,-23.24 16.07,0 c 8.80,0.00 15.07,-1.88 19.03,-5.22 3.97,-3.36 6.01,-8.13 6.04,-15.15" style="fill:#fbc907" />
	<path d="m 67.14,28.19 c -1.64,0.03 -2.54,0.44 -3.51,1.45 -0.80,0.87 -1.42,2.45 -1.42,5.12 l 0,31.88 -0.00,0 c 0.00,2.66 0.62,4.24 1.44,5.14 1.00,1.05 1.90,1.45 3.47,1.48 1.73,-0.03 2.67,-0.45 3.65,-1.47 0.80,-0.86 1.43,-2.46 1.43,-5.15 l 0,-31.88 c 0,-2.70 -0.62,-4.29 -1.42,-5.12 -0.96,-1.00 -1.93,-1.42 -3.64,-1.45" style="fill:#f68c11" />
	<path d="m 73.22,15.83 c 0,3.31 -2.69,6.00 -6.01,6.00 -3.31,0 -6.00,-2.69 -6.00,-6.00 0,-3.31 2.69,-6.00 6.00,-6.00 3.31,0 6.01,2.69 6.01,6.00" style="fill:#f68c11" />
	<path d="m 155.84,28.19 c -1.64,0.03 -2.53,0.44 -3.51,1.45 -0.80,0.86 -1.42,2.45 -1.42,5.12 l 0,31.88 c 0,2.66 0.61,4.26 1.43,5.14 1.01,1.05 1.90,1.45 3.48,1.48 1.72,-0.03 2.67,-0.45 3.65,-1.47 0.80,-0.86 1.42,-2.46 1.42,-5.15 l 0.00,-31.88 c 0,-2.70 -0.62,-4.29 -1.41,-5.12 -0.97,-0.99 -1.93,-1.42 -3.65,-1.45" style="fill:#cd1e25" />
	<path d="m 161.92,15.83 c 0,3.31 -2.69,6.00 -6.00,6.00 -3.31,0 -6.00,-2.69 -6.00,-6.00 0,-3.31 2.68,-6.00 6.00,-6.00 3.31,0 6.00,2.69 6.00,6.00" style="fill:#cd1e25" />
	<path d="m 215.55,66.59 c -0.41,-0.78 -1.15,-2.02 -2.19,-3.67 l -15.21,-23.91 8.66,-7.94 c 3.69,-3.23 5.14,-5.89 5.01,-6.69 -0.02,-1.21 -0.35,-1.95 -1.12,-2.72 -0.79,-0.74 -1.64,-1.09 -2.96,-1.11 -1.13,0.00 -1.90,0.27 -2.55,0.74 -0.82,0.59 -2.28,1.95 -4.18,3.95 l -19.15,20.09 0.00,-35.92 c 0,-2.59 -0.58,-4.23 -1.40,-5.19 -0.90,-1.01 -1.89,-1.47 -3.60,-1.50 -1.73,0.04 -2.64,0.51 -3.50,1.61 -0.82,1.11 -1.40,3.03 -1.39,5.89 l 0,56.59 c -0.00,2.51 0.55,4.11 1.34,5.03 0.86,0.96 1.83,1.41 3.54,1.44 1.30,-0.01 2.31,-0.44 3.45,-1.57 0.95,-0.98 1.54,-2.44 1.55,-4.81 l 0,-11.95 9.99,-9.45 13.60,22.35 c 1.51,2.34 2.73,3.94 3.45,4.64 0.46,0.45 1.15,0.78 2.52,0.79 1.55,-0.02 2.48,-0.43 3.32,-1.29 0.79,-0.84 1.25,-1.99 1.26,-3.86 0,-0.38 -0.10,-0.88 -0.45,-1.54" style="fill:#5f1316" />
	<path d="m 143.02,29.00 c -0.88,-0.83 -1.88,-1.23 -3.06,-1.23 -1.28,0.00 -2.12,0.29 -2.67,0.76 -0.64,0.55 -1.08,1.17 -1.33,1.87 -0.29,0.79 -0.70,2.13 -1.21,4.01 l -8.41,28.51 -7.62,-26.69 c -0.70,-2.39 -1.25,-4.08 -1.62,-5.00 -0.34,-0.83 -0.94,-1.64 -1.84,-2.41 -0.78,-0.67 -1.93,-1.05 -3.53,-1.05 -1.56,0 -2.70,0.37 -3.49,1.05 -0.90,0.77 -1.48,1.55 -1.77,2.31 -0.33,0.87 -0.87,2.58 -1.61,5.08 L 97.16,62.95 88.84,34.41 c -0.76,-2.59 -1.46,-4.41 -2.08,-5.38 -0.46,-0.75 -1.44,-1.25 -3.22,-1.25 -1.24,0 -2.25,0.41 -3.08,1.24 -0.86,0.87 -1.25,1.79 -1.25,2.78 0,0.00 0,0.03 0,0.05 0.00,0.83 0.44,2.56 1.36,5.11 l 9.37,27.73 c 0.25,0.74 0.61,1.73 1.06,2.99 0.43,1.21 0.93,2.24 1.49,3.10 0.52,0.81 1.17,1.42 1.94,1.85 0.73,0.41 1.66,0.64 2.81,0.64 0.01,0 0.02,0 0.03,0 2.31,-0.00 3.74,-0.72 4.53,-2.01 0.93,-1.49 1.83,-3.80 2.67,-6.92 l 7.15,-25.23 7.41,25.25 c 0.55,2.01 1.07,3.64 1.54,4.88 0.44,1.15 1.10,2.11 2.00,2.90 0.82,0.71 2.00,1.12 3.61,1.11 1.57,0.00 2.71,-0.37 3.50,-1.03 0.89,-0.76 1.52,-1.59 1.92,-2.51 0.43,-1.00 1.07,-2.70 1.88,-5.02 l -0.59,-0.20 0,0 0.59,0.19 9.47,-27.78 c 0.78,-2.15 1.19,-3.79 1.24,-4.83 l 0.01,-0.01 0,-0.26 c 0,-1.04 -0.40,-1.97 -1.26,-2.79" style="fill:#f2541b" />
</svg>
