<!-- Generated by IcoMoon.io -->
<svg version="1.1" xmlns="http://www.w3.org/2000/svg" width="24" height="24" viewBox="0 0 24 24">
<title>touch_app</title>
<path fill="#999999" d="M18.844 15.891c0.516 0.234 0.891 0.75 0.891 1.359v0.188l-0.75 5.297c-0.094 0.75-0.703 1.266-1.453 1.266h-6.797c-0.422 0-0.75-0.141-1.031-0.422l-4.969-4.969 0.797-0.797c0.188-0.188 0.469-0.328 0.797-0.328 0.094 0 0.141 0.047 0.234 0.047l3.422 0.703v-10.734c0-0.844 0.656-1.5 1.5-1.5s1.5 0.656 1.5 1.5v6h0.797c0.188 0 0.328 0.047 0.516 0.094zM9 11.25c-1.219-0.797-2.016-2.203-2.016-3.75 0-2.484 2.016-4.5 4.5-4.5s4.5 2.016 4.5 4.5c0 1.547-0.75 2.953-1.969 3.75v-3.75c0-1.359-1.172-2.484-2.531-2.484s-2.484 1.125-2.484 2.484v3.75z"></path>
</svg>
