<!-- Generated by IcoMoon.io -->
<svg version="1.1" xmlns="http://www.w3.org/2000/svg" width="24" height="24" viewBox="0 0 24 24">
<title>shopping_cart</title>
<path fill="#999999" d="M17.016 18c1.078 0 1.969 0.938 1.969 2.016s-0.891 1.969-1.969 1.969-2.016-0.891-2.016-1.969 0.938-2.016 2.016-2.016zM0.984 2.016h3.281l0.938 1.969h14.813c0.563 0 0.984 0.469 0.984 1.031 0 0.188-0.047 0.328-0.141 0.469l-3.563 6.469c-0.328 0.609-0.984 1.031-1.734 1.031h-7.453l-0.891 1.641-0.047 0.141c0 0.141 0.094 0.234 0.234 0.234h11.578v2.016h-12c-1.078 0-1.969-0.938-1.969-2.016 0-0.328 0.094-0.656 0.234-0.938l1.359-2.484-3.609-7.594h-2.016v-1.969zM6.984 18c1.078 0 2.016 0.938 2.016 2.016s-0.938 1.969-2.016 1.969-1.969-0.891-1.969-1.969 0.891-2.016 1.969-2.016z"></path>
</svg>
