<!-- Generated by IcoMoon.io -->
<svg version="1.1" xmlns="http://www.w3.org/2000/svg" width="24" height="24" viewBox="0 0 24 24">
<title>remove_shopping_cart</title>
<path fill="#999999" d="M6.984 18c1.078 0 2.016 0.938 2.016 2.016s-0.938 1.969-2.016 1.969-1.969-0.891-1.969-1.969 0.891-2.016 1.969-2.016zM15.563 12.984l-9-9h13.453c0.563 0 0.984 0.469 0.984 1.031 0 0.188-0.047 0.328-0.141 0.469l-3.563 6.469c-0.328 0.609-0.984 1.031-1.734 1.031zM7.406 15h5.063l-2.016-2.016h-2.344l-0.891 1.641-0.047 0.141c0 0.141 0.094 0.234 0.234 0.234zM22.734 22.734l-1.266 1.266-2.859-2.859c-0.375 0.516-0.938 0.844-1.594 0.844-1.078 0-2.016-0.891-2.016-1.969 0-0.656 0.328-1.266 0.844-1.641l-1.406-1.359h-7.453c-1.078 0-1.969-0.938-1.969-2.016 0-0.328 0.094-0.656 0.234-0.938l1.359-2.484-2.203-4.641-4.406-4.406 1.266-1.266z"></path>
</svg>
