<?xml version="1.0" encoding="utf-8"?>
<!-- Generator: Adobe Illustrator 19.1.0, SVG Export Plug-In . SVG Version: 6.00 Build 0)  -->
<!DOCTYPE svg PUBLIC "-//W3C//DTD SVG 1.1//EN" "http://www.w3.org/Graphics/SVG/1.1/DTD/svg11.dtd">
<svg version="1.1" id="Layer_1" xmlns="http://www.w3.org/2000/svg" xmlns:xlink="http://www.w3.org/1999/xlink" x="0px" y="0px"
	 viewBox="214.5 -3.7 272 45" style="enable-background:new 214.5 -3.7 272 45;" xml:space="preserve">
<style type="text/css">
	.st0{fill:#2B2523;}
</style>
<g>
	<path class="st0" d="M369.7,18.7l13.8-13.8c2-2,2-5.1,0-7.1s-5.1-2-7.1,0L360,14.3V1.7c0-3-2.3-5.3-5.3-5.3s-5.3,2.4-5.3,5.3V36
		c0,3,2.3,5.3,5.3,5.3S360,39,360,36v-7.6l2.7-2.7l13.6,13.9c2,2,5.1,2,7.1,0.1c2-2,2-5.1,0.1-7.1L369.7,18.7z"/>
	<g>
		<path class="st0" d="M464,2.4c9.1,0,16.6,7.4,16.6,16.4c0,9.1-7.4,16.4-16.6,16.4h-48.4c-9.1,0-16.6-7.4-16.6-16.4
			c0-9.1,7.4-16.4,16.6-16.4L464,2.4 M464-3.6h-48.4c-12.5,0-22.6,10-22.6,22.4s10.1,22.4,22.6,22.4H464c12.5,0,22.6-10,22.6-22.4
			S476.4-3.6,464-3.6L464-3.6z"/>
		<g>
			<path class="st0" d="M420.8,9.2H415c-1.2,0-2.1,0.9-2.1,2.1v15.3c0,1.2,0.9,2.1,2.1,2.1s2.1-0.9,2.1-2.1v-3.8h3.2
				c4.3,0,7.8-2.3,7.8-6.8v-0.1C428.2,11.9,425.4,9.2,420.8,9.2z M423.9,16c0,1.7-1.2,2.9-3.4,2.9h-3.4V13h3.3
				C422.6,13,423.9,14,423.9,16L423.9,16L423.9,16z M439,9.2h-6.7c-1.2,0-2.1,0.9-2.1,2.1v15.3c0,1.2,0.9,2.1,2.1,2.1
				s2.1-0.9,2.1-2.1v-4.2h3.4l4.1,5.3c0.5,0.6,1.1,1.1,2.1,1.1c1,0,2-0.8,2-2c0-0.7-0.3-1.1-0.7-1.6l-3-3.6c2.3-1,3.9-2.8,3.9-5.9
				v-0.1c0-1.8-0.6-3.3-1.7-4.4C443.3,9.8,441.4,9.2,439,9.2z M442,15.8c0,1.6-1.2,2.7-3.3,2.7h-4.3V13h4.2
				C440.7,13,442,13.9,442,15.8L442,15.8z M458.3,8.8c-6,0-10.3,4.5-10.3,10v0.1c0,5.5,4.3,9.9,10.2,9.9s10.3-4.5,10.3-10v-0.1
				C468.6,13.3,464.3,8.8,458.3,8.8z M464.1,18.9c0,3.3-2.4,6-5.8,6c-3.4,0-5.9-2.8-5.9-6.1v-0.1c0-3.3,2.4-6,5.8-6
				C461.7,12.8,464.1,15.5,464.1,18.9L464.1,18.9z"/>
		</g>
	</g>
	<path class="st0" d="M321.4-3.5c-2.6-0.7-5.2,0.8-6,3.3l-5.5,19.4l-5.5-19.4c-0.6-2.1-2.4-3.4-4.5-3.5c-0.1,0-0.2,0-0.3,0
		c-0.1,0-0.2,0-0.3,0c-2,0.1-3.9,1.4-4.5,3.5l-5.5,19.3l-5.5-19.3c-0.7-2.6-3.4-4.1-6-3.3c-2.6,0.7-4,3.4-3.3,6l10.1,35.3
		c0.6,2,2.4,3.4,4.4,3.5c0.1,0,0.2,0,0.4,0c0.1,0,0.2,0,0.4,0c2-0.1,3.8-1.5,4.4-3.5l5.5-19.4l5.5,19.4c0.6,2.1,2.4,3.4,4.4,3.5
		c0.1,0,0.2,0,0.3,0c0.1,0,0.2,0,0.3,0c2-0.1,3.8-1.4,4.4-3.5l10.1-35.3C325.4,0,323.9-2.7,321.4-3.5z"/>
	<path class="st0" d="M330.9,36c0,3,2.3,5.3,5.3,5.3c3,0,5.3-2.4,5.3-5.3V1.7c0-3-2.3-5.3-5.3-5.3c-3,0-5.3,2.4-5.3,5.3V36z"/>
	<path class="st0" d="M257.8,36c0,3,2.3,5.3,5.3,5.3c3,0,5.3-2.4,5.3-5.3V1.7c0-3-2.3-5.3-5.3-5.3c-3,0-5.3,2.4-5.3,5.3V36z"/>
	<path class="st0" d="M251.8,12.3c0-8.6-6.8-15.6-15.3-15.9l0,0h-16.7c-3,0-5.3,2.4-5.3,5.3v34.2c0,3,2.3,5.3,5.3,5.3
		s5.3-2.4,5.3-5.3v-7.6h11.4l0,0C245,27.9,251.8,20.9,251.8,12.3z M234.8,18.8L234.8,18.8l-9.6,0V6h9.4c3.5,0,6.4,2.9,6.4,6.4
		C241,15.9,238.3,18.7,234.8,18.8z"/>
</g>
</svg>
