<?xml version="1.0" encoding="utf-8"?>
<!DOCTYPE svg PUBLIC "-//W3C//DTD SVG 1.1//EN" "http://www.w3.org/Graphics/SVG/1.1/DTD/svg11.dtd">
<svg xmlns:xlink="http://www.w3.org/1999/xlink" xmlns="http://www.w3.org/2000/svg" x="0px" y="0px"
	 width="5836" height="1024" viewBox="0 0 5836 1024"
	 enable-background="new 0 0 5836 1024" xml:space="preserve" version="1.1" id="Layer_1">
<path d="M1147.636 960h-398.545l-170.182-749.091-170.182 749.091h-408.727v-1003.636h261.818v421.818c0 87.273 0 216.727-2.909 318.545 16-101.818 45.091-231.273 68.364-318.545l112-421.818h269.091l110.545 421.818c23.273 88.727 52.364 216.727 69.818 318.545-2.909-101.818-2.909-231.273-2.909-318.545v-421.818h261.818zM1761.205-43.636h256c-11.636 85.818-14.545 138.182-14.545 196.364v218.182c0 48-1.455 93.091-4.364 132.364-11.636 141.091-96 250.182-341.818 250.182-196.364 0-357.818-103.273-359.273-285.091l247.273 1.455c4.364 66.909 39.273 106.182 100.364 106.182 56.727 0 88.727-34.909 93.091-74.182 2.909-24.727 2.909-40.727 2.909-56.727v-11.636h-49.455c-263.273 0-420.364-101.818-420.364-267.636 0-149.818 120.727-229.818 248.727-229.818 71.273 0 136.727 17.455 192 52.364l32 81.455zM1627.386 113.455c-52.364 0-88.727 26.182-88.727 72.727 0 77.091 84.364 107.636 202.182 98.909v-50.909c0-81.455-61.091-120.727-113.455-120.727zM2475.227 564.364h171.636v162.909h-171.636v200.727h-261.818v-200.727h-123.636v-162.909h123.636v-324.364c0-43.636 0-80 2.909-125.091 8.727-119.273 66.909-178.909 260.364-178.909 55.273 0 103.273 4.364 154.182 13.091v162.909c-123.636-5.818-148.364 11.636-154.182 90.182-1.455 20.364-1.455 49.455-1.455 75.636zM3108.727 753.455c-254.545 0-417.455-158.545-417.455-408.727 0-248.727 162.909-408.727 417.455-408.727s417.455 160 417.455 408.727c0 250.182-162.909 408.727-417.455 408.727zM3108.727 113.455c-93.091 0-149.818 77.091-149.818 231.273 0 155.636 56.727 231.273 149.818 231.273s149.818-75.636 149.818-231.273c0-154.182-56.727-231.273-149.818-231.273zM4887.773 557.091c-17.454 106.182-104.727 196.364-260.364 196.364-71.273 0-119.273-16-167.273-45.091l-81.455-106.182c-33.455 85.818-116.364 151.273-248.727 151.273-71.273 0-119.273-16-167.273-45.091l-62.545-100.364v125.091h-261.818v-776.727h261.818v410.182c0 132.364 33.455 209.455 117.818 209.455 68.364 0 103.273-43.636 112-117.818 4.363-39.273 5.818-81.455 5.818-106.182v-395.636h261.818v410.182c0 132.364 33.455 209.455 117.818 209.455 68.364 0 103.273-43.636 112-117.818 4.363-39.273 5.818-81.455 5.818-106.182v-395.636h261.818v453.818c0 62.545-1.455 107.636-7.273 146.909zM5418.387 753.455c-254.546 0-417.455-158.545-417.455-408.727 0-248.727 162.909-408.727 417.455-408.727s417.454 160 417.454 408.727c0 250.182-162.909 408.727-417.454 408.727zM5418.387 113.455c-93.091 0-149.819 77.091-149.819 231.273 0 155.636 56.728 231.273 149.819 231.273s149.818-75.636 149.818-231.273c0-154.182-56.728-231.273-149.818-231.273z"
	  horiz-adv-x="5836" transform="scale(1, -1) translate(0, -960)" fill="#fff"></path>
</svg>


