<?xml version="1.0" encoding="utf-8"?>
<!DOCTYPE svg PUBLIC "-//W3C//DTD SVG 1.1//EN" "http://www.w3.org/Graphics/SVG/1.1/DTD/svg11.dtd">
<svg xmlns:xlink="http://www.w3.org/1999/xlink" xmlns="http://www.w3.org/2000/svg" x="0px" y="0px"
	width="590" height="98.995" viewBox="0 0 590 98.995"
	 enable-background="new 0 0 590 98.995" xml:space="preserve" version="1.1" id="Layer_1">
<path transform="translate(-250 -73) scale(2.4 2.4)" fill="#000" d="M349.338 54.142c0 9.062-7.347 16.408-16.408 16.408-9.063 0-16.409-7.347-16.409-16.408 0-9.063 7.347-16.409 16.409-16.409 9.061-.001 16.408 7.346 16.408 16.409m-16.408-8.223a8.223 8.223 0 1 0 0 16.445 8.223 8.223 0 0 0 0-16.445M262.479 54.151c0 9.062-7.346 16.406-16.406 16.406-9.062 0-16.406-7.345-16.406-16.406s7.345-16.407 16.406-16.407c9.061.001 16.406 7.347 16.406 16.407m-16.406-8.22a8.22 8.22 0 1 0 0 16.442 8.221 8.221 0 0 0 0-16.442M184.184 37.733c-1.686 0-3.132.85-3.767 2.413a16.309 16.309 0 0 0-8.535-2.413c-9.066 0-16.416 7.35-16.416 16.416 0 9.067 7.35 16.417 16.416 16.417 3.129 0 6.043-.892 8.532-2.41.633 1.563 2.081 2.41 3.77 2.41 2.272 0 4.114-1.526 4.114-4.281v-24.26c0-2.755-1.842-4.292-4.114-4.292m-12.302 24.642a8.227 8.227 0 0 1 0-16.452c4.29 0 7.81 3.286 8.188 7.478v1.495c-.378 4.193-3.898 7.479-8.188 7.479M226.841 56.421a4.081 4.081 0 0 0-4.084-4.08 4.081 4.081 0 0 0-4.082 4.08 5.981 5.981 0 0 1-5.973 5.973 5.98 5.98 0 0 1-5.972-5.973l-.002-.01V45.933h9.644c2.255 0 4.081-1.851 4.081-4.104 0-2.254-1.826-4.095-4.081-4.095h-9.665v-2.79a4.084 4.084 0 0 0-8.166 0v2.814h-3.307a4.084 4.084 0 0 0-4.083 4.082 4.083 4.083 0 0 0 4.083 4.082h3.307l-.033 10.499c0 7.762 6.562 14.137 14.194 14.137 7.796 0 14.139-6.342 14.139-14.137M313.694 66.45V51.697h-.009c-.095-7.715-6.392-13.963-14.128-13.963a14.084 14.084 0 0 0-10.069 4.23c-2.563-2.602-6.11-4.23-10.047-4.23-7.735 0-14.032 6.248-14.128 13.963h-.009V66.45a4.081 4.081 0 0 0 8.162 0V51.869h.002a5.98 5.98 0 0 1 5.973-5.97c3.295 0 5.976 2.68 5.976 5.97h.003l-.001 14.437c0 2.252 1.871 4.244 4.125 4.244s4.031-1.992 4.031-4.244l.008-14.437h.002a5.98 5.98 0 0 1 5.973-5.97 5.98 5.98 0 0 1 5.972 5.97h.003V66.45a4.08 4.08 0 1 0 8.161 0M152.64 66.438V51.685h-.009c-.095-7.715-6.392-13.963-14.128-13.963-3.94 0-7.505 1.622-10.07 4.23-2.562-2.602-6.11-4.23-10.046-4.23-7.736 0-14.033 6.248-14.128 13.963h-.009v14.753a4.081 4.081 0 0 0 8.162 0V51.856h.002a5.98 5.98 0 0 1 5.973-5.97c3.295 0 5.975 2.68 5.975 5.97h.003l-.001 14.436c0 2.252 1.871 4.245 4.125 4.245s4.031-1.993 4.031-4.245l.008-14.436h.002a5.98 5.98 0 0 1 5.973-5.97 5.98 5.98 0 0 1 5.972 5.97h.002v14.581a4.082 4.082 0 0 0 8.163.001"/></svg>