<?xml version="1.0" encoding="utf-8"?>
<!DOCTYPE svg PUBLIC "-//W3C//DTD SVG 1.1//EN" "http://www.w3.org/Graphics/SVG/1.1/DTD/svg11.dtd">
<svg version="1.1" id="Layer_1" xmlns="http://www.w3.org/2000/svg" xmlns:xlink="http://www.w3.org/1999/xlink" x="0px" y="0px"
	 width="170.666px" height="45.704px" viewBox="0 0 170.666 45.704" enable-background="new 0 0 170.666 45.704"
	 xml:space="preserve">
<path fill="#d4291f" d="M106.995,1.016c-2.57-0.739-5.251,0.751-5.987,3.329l-5.532,19.351L89.943,4.345
	c-0.592-2.071-2.441-3.417-4.477-3.492c-0.103-0.009-0.203-0.004-0.306-0.007c-0.102,0.003-0.203-0.003-0.306,0.007
	c-2.036,0.075-3.885,1.421-4.477,3.492l-5.509,19.27l-5.509-19.27c-0.737-2.578-3.418-4.068-5.987-3.329
	c-2.57,0.739-4.056,3.428-3.319,6.005l10.075,35.24c0.583,2.038,2.384,3.376,4.382,3.49c0.121,0.011,0.239,0.006,0.359,0.008
	c0.12-0.002,0.238,0.004,0.359-0.008c1.998-0.114,3.799-1.451,4.382-3.49l5.551-19.416l5.551,19.416
	c0.588,2.056,2.416,3.398,4.434,3.491c0.111,0.01,0.219,0.005,0.33,0.007c0.11-0.003,0.219,0.003,0.33-0.007
	c2.019-0.093,3.846-1.435,4.434-3.491l10.075-35.24C111.05,4.444,109.564,1.756,106.995,1.016z"/>
<path fill="#d4291f" d="M116.502,40.44c0,2.972,2.35,5.322,5.322,5.322c2.972,0,5.322-2.35,5.322-5.322V6.147
	c0-2.972-2.35-5.322-5.322-5.322c-2.972,0-5.322,2.35-5.322,5.322V40.44z"/>
<path fill="#d4291f" d="M43.334,40.457c0,2.972,2.35,5.322,5.322,5.322c2.972,0,5.322-2.35,5.322-5.322V6.164
	c0-2.972-2.35-5.322-5.322-5.322c-2.972,0-5.322,2.35-5.322,5.322V40.457z"/>
<path fill="#d4291f" d="M155.406,23.156l13.779-13.779c1.974-1.974,1.974-5.097,0-7.071c-1.974-1.974-5.097-1.974-7.071,0
	l-16.448,16.448V6.147c0-2.972-2.35-5.322-5.322-5.322c-2.972,0-5.322,2.35-5.322,5.322V40.44c0,2.972,2.35,5.322,5.322,5.322
	c2.972,0,5.322-2.35,5.322-5.322v-7.544l2.669-2.669l13.618,13.857c1.957,1.992,5.079,2.019,7.071,0.062
	c1.992-1.957,2.019-5.079,0.062-7.071L155.406,23.156z"/>
<path fill="#d4291f" d="M37.292,16.816c0-8.58-6.787-15.557-15.283-15.9l0.007-0.033H5.322C2.35,0.883,0,3.233,0,6.205v34.177
	c0,2.972,2.35,5.322,5.322,5.322c2.972,0,5.322-2.35,5.322-5.322v-7.63h11.371l-0.007-0.036
	C30.505,32.372,37.292,25.396,37.292,16.816z M20.296,23.284l0-0.002h-9.651V10.491h9.464c3.535,0,6.401,2.866,6.401,6.401
	C26.51,20.364,23.744,23.184,20.296,23.284z"/>
</svg>
