<?xml version="1.0" encoding="UTF-8"?><!DOCTYPE svg  PUBLIC '-//W3C//DTD SVG 1.1//EN'  'http://www.w3.org/Graphics/SVG/1.1/DTD/svg11.dtd'><svg enable_background="new 0 0 500 558" height="558px" style="stroke-linejoin: round; stroke:#000; fill:#f6f3f0;" version="1.1" viewBox="0 0 500 558" width="500px" xmlns="http://www.w3.org/2000/svg" xmlns:xlink="http://www.w3.org/1999/xlink"><defs><style type="text/css"><![CDATA[path { fill-rule: evenodd; }
#context path { fill: #eee; stroke: #bbb; } ]]></style></defs><metadata><views><view h="558.330197744" padding="0" w="500"><proj id="laea" lat0="1.0" lon0="16.5"/><bbox h="987.37" w="885.8" x="557.1" y="504.56"/><llbbox lat0="-38.0" lat1="40.0" lon0="-20.0" lon1="53.0"/></view></views></metadata><g id="countries"><path d="M225.8,327.2L224.3,327.8L222.5,331.9L224.6,334.4L226.4,340.2L228.5,344.3L227.0,351.3L228.2,355.5L231.7,362.0L230.2,371.4L223.1,379.3L221.4,387.6L218.2,396.9L218.2,403.0L218.0,405.6L223.4,405.3L227.1,403.6L233.3,406.6L237.3,406.5L262.7,406.6L265.6,409.1L276.1,410.0L278.5,410.9L285.0,410.4L294.1,408.8L296.2,408.4L294.9,407.2L289.1,401.8L287.0,396.7L287.4,376.4L300.1,376.4L301.2,372.4L301.4,362.6L301.2,361.7L301.0,361.8L291.1,363.1L289.9,363.9L289.9,358.3L286.6,351.9L287.2,344.1L286.3,336.9L278.1,336.5L278.4,334.3L271.9,335.0L270.9,335.8L269.6,341.5L264.2,341.2L257.5,342.4L254.5,337.9L249.5,327.1L226.2,326.9L225.8,327.2Z M226.2,318.3L226.0,318.2L221.4,318.2L220.9,319.2L218.9,320.9L219.1,321.1L220.0,323.1L220.2,324.1L220.2,326.0L220.3,326.1L222.2,325.9L224.5,319.0L226.1,318.4L226.2,318.3Z " data-iso="AGO" data-name="Angola" data-pop="12799293.0"/><path d="M266.4,1.0L266.1,7.9L266.5,10.0L269.8,14.4L269.8,15.0L271.5,13.4L273.5,12.2L274.9,7.9L275.0,7.4L274.9,7.3L271.9,3.1L272.4,0.8L272.5,0.8L272.5,0.5L272.5,0.0L265.8,0.0L265.8,0.0L265.7,0.5L265.7,0.9L266.4,1.0Z " data-iso="ALB" data-name="Albania" data-pop="3639453.0"/><path d="M499.3,97.3L498.7,97.5L498.4,97.2L497.4,94.5L497.3,94.6L497.0,96.5L491.0,105.7L490.1,108.2L487.4,110.0L482.0,109.9L476.7,111.7L473.0,109.3L472.9,109.7L473.3,111.2L480.8,118.8L497.0,119.7L497.2,119.1L497.1,118.0L497.1,110.1L500.0,108.9L498.1,105.9L500.0,103.4L500.0,98.4L499.9,97.9L499.3,97.3Z " data-iso="ARE" data-name="United Arab Emirates" data-pop="4798491.0"/><path d="M408.0,7.3L408.5,7.2L412.1,8.3L413.8,7.8L416.5,11.6L416.9,12.1L417.2,12.1L417.9,11.7L418.8,11.7L418.7,11.1L416.0,7.2L412.3,5.1L409.8,0.0L399.7,0.0L402.9,5.7L404.8,5.4L407.7,7.1L408.0,7.3Z " data-iso="ARM" data-name="Armenia" data-pop="2967004.0"/><path d="M408.0,7.3L408.1,7.5L408.4,7.7L408.5,7.8L413.1,11.6L415.7,12.0L416.9,12.1L416.5,11.6L413.8,7.8L412.1,8.3L408.5,7.2L408.0,7.3Z M418.8,11.7L419.2,11.7L425.4,5.6L427.8,7.3L427.1,11.1L432.7,13.4L431.8,10.8L433.2,8.9L432.5,1.9L434.7,0.0L409.8,0.0L412.3,5.1L416.0,7.2L418.7,11.1L418.8,11.7Z " data-iso="AZE" data-name="Azerbaijan" data-pop="8238672.0"/><path d="M347.3,302.7L344.3,302.8L341.5,305.5L336.9,304.6L336.8,305.0L336.8,305.3L338.2,307.3L338.1,311.8L339.2,316.1L339.4,317.1L341.5,317.1L345.9,312.4L346.5,311.1L347.3,302.9L347.4,302.8L347.3,302.7Z " data-iso="BDI" data-name="Burundi" data-pop="8988091.0"/><path d="M161.5,203.6L156.8,199.4L154.4,200.2L154.0,202.0L153.8,202.7L153.6,203.1L150.9,206.0L143.6,208.9L143.5,208.9L143.2,209.6L142.4,213.1L146.1,215.9L146.1,218.9L147.7,222.5L147.5,236.9L148.4,241.8L147.3,242.4L148.7,242.1L151.9,241.6L154.8,241.4L155.5,233.6L155.1,232.6L155.7,222.6L158.1,221.7L162.9,213.0L161.6,204.7L161.9,204.2L161.5,203.6Z " data-iso="BEN" data-name="Benin" data-pop="8791832.0"/><path d="M138.8,180.9L133.7,180.3L126.0,184.1L124.3,186.2L122.0,185.4L119.1,187.6L118.7,189.5L116.4,189.6L115.9,192.2L110.2,191.9L109.5,195.5L108.1,197.6L102.0,202.1L101.6,206.5L100.3,207.6L100.0,211.6L99.8,212.0L100.2,212.4L107.6,217.6L111.3,215.8L115.2,216.0L118.5,219.2L118.6,219.0L118.6,218.6L118.7,208.4L126.9,208.3L135.4,207.5L136.9,207.9L138.4,208.2L140.6,208.8L141.1,209.1L141.7,208.9L143.5,208.9L143.6,208.9L150.9,206.0L153.6,203.1L153.8,202.7L153.5,202.4L152.8,198.2L148.4,197.5L145.4,194.9L144.8,192.3L142.4,189.9L139.6,184.3L140.1,181.7L140.2,181.4L138.8,180.9Z " data-iso="BFA" data-name="Burkina Faso" data-pop="15746232.0"/><path d="M285.7,4.0L286.3,4.1L299.4,4.1L303.5,3.2L303.6,0.8L304.3,1.0L304.2,0.8L304.4,0.4L305.2,0.2L305.4,0.0L285.1,0.0L286.0,1.5L285.7,2.3L285.7,3.9L285.7,4.0Z " data-iso="BGR" data-name="Bulgaria" data-pop="7204687.0"/><path d="M308.4,409.5L301.1,411.4L298.2,413.8L295.0,410.8L280.0,412.9L279.4,438.1L272.9,438.1L272.5,456.8L272.5,457.0L272.8,457.2L274.9,458.7L276.4,469.2L277.1,471.0L285.3,469.6L288.3,466.9L292.1,460.8L300.4,463.8L304.7,463.9L308.5,463.0L310.7,457.5L317.1,453.8L318.9,449.3L323.5,446.8L326.6,443.4L332.8,440.3L334.4,440.2L334.1,439.9L332.4,437.5L325.6,435.3L323.9,432.5L322.6,428.2L321.4,428.2L313.8,420.4L311.9,415.5L308.6,409.9L308.7,409.6L308.4,409.5Z " data-iso="BWA" data-name="Botswana" data-pop="1990876.0"/><path d="M293.3,210.1L291.1,209.6L285.7,212.8L279.4,220.7L276.4,222.6L266.9,224.0L266.6,227.7L264.4,230.1L257.9,230.6L252.7,233.1L250.3,231.6L246.8,233.5L243.7,233.9L243.0,233.8L242.3,235.0L236.6,243.1L237.6,253.7L240.5,258.0L239.8,258.2L247.0,265.9L247.5,269.7L247.8,270.3L248.3,269.4L250.5,262.0L255.5,261.0L264.3,261.7L264.7,261.9L264.6,260.5L265.3,255.6L267.8,252.1L278.8,255.2L287.5,256.5L292.4,255.1L294.1,253.2L297.9,253.6L304.2,251.3L312.5,249.0L320.1,250.5L323.5,249.7L325.5,250.3L325.0,249.8L324.1,246.8L319.8,244.0L317.8,241.0L318.1,239.7L309.9,233.4L310.3,232.7L306.8,229.0L303.7,228.3L303.0,225.8L302.6,225.7L302.0,225.5L299.0,221.0L299.1,217.7L294.1,211.0L293.6,210.1L293.3,210.1Z " data-iso="CAF" data-name="Central African Rep." data-pop="4511488.0"/><path d="M114.1,249.5L113.8,249.7L114.7,249.9L114.9,249.6L114.1,249.5Z M83.1,213.4L83.0,213.7L84.2,221.1L82.9,223.2L79.3,231.5L78.9,231.8L79.0,231.9L80.0,235.3L79.2,237.9L79.9,240.7L82.5,241.3L84.4,254.7L85.2,254.6L91.3,251.9L98.0,249.7L109.6,248.9L114.5,248.1L115.3,249.5L115.4,249.6L117.0,248.2L114.1,239.7L117.5,229.9L119.5,228.0L118.2,221.6L118.7,219.4L118.6,219.0L118.5,219.2L115.2,216.0L111.3,215.8L107.6,217.6L100.2,212.4L99.8,212.0L99.6,211.9L96.3,213.5L95.0,213.0L95.0,209.7L92.1,212.0L83.3,213.4L83.1,213.4Z " data-iso="CIV" data-name="Ivory Coast" data-pop="20617068.0"/><path d="M243.3,233.3L241.4,228.3L238.7,225.0L232.8,219.5L234.5,216.8L244.2,216.6L241.6,214.2L239.9,208.9L240.6,206.0L238.7,199.3L234.6,195.3L233.4,195.3L234.0,198.5L236.5,200.7L236.7,204.6L230.8,210.6L227.5,219.1L226.1,220.1L223.0,226.1L221.8,226.3L218.0,236.6L215.8,239.5L212.5,240.8L210.2,237.4L206.1,237.4L198.1,244.8L195.0,252.9L195.1,252.9L200.1,258.6L204.5,264.6L203.6,268.4L203.5,270.0L204.0,270.7L204.7,271.0L212.5,271.0L214.1,271.0L214.2,270.5L215.7,270.1L226.6,270.4L227.6,270.6L227.7,271.1L229.4,271.1L236.7,270.8L247.5,274.1L247.8,270.4L247.8,270.3L247.5,269.7L247.0,265.9L239.8,258.2L240.5,258.0L237.6,253.7L236.6,243.1L242.3,235.0L243.0,233.8L243.3,233.3Z " data-iso="CMR" data-name="Cameroon" data-pop="18879301.0"/><path d="M323.5,249.7L320.1,250.5L312.5,249.0L304.2,251.3L297.9,253.6L294.1,253.2L292.4,255.1L287.5,256.5L278.8,255.2L267.8,252.1L265.3,255.6L264.6,260.5L264.7,261.9L264.7,263.1L260.9,272.1L259.9,282.4L258.5,288.0L258.7,289.9L248.0,301.3L247.5,310.2L246.5,312.3L239.0,318.8L236.1,319.8L235.1,316.0L230.7,317.1L228.3,319.7L226.3,318.1L226.2,318.3L226.1,318.4L224.5,319.0L222.2,325.9L220.3,326.1L220.5,326.5L221.0,327.1L225.8,326.7L226.2,326.9L249.5,327.1L254.5,337.9L257.5,342.4L264.2,341.2L269.6,341.5L270.9,335.8L271.9,335.0L278.4,334.3L278.1,336.5L286.3,336.9L287.2,344.1L286.6,351.9L289.9,358.3L289.9,363.9L291.1,363.1L301.0,361.8L301.2,361.7L301.5,361.7L303.9,363.5L303.7,365.2L310.4,364.3L314.0,368.3L319.9,369.4L322.9,366.7L326.1,371.5L337.7,378.9L340.5,379.3L340.8,370.9L338.7,372.4L335.8,372.2L331.6,367.6L333.2,360.5L333.3,354.6L331.8,350.7L335.5,346.8L347.0,343.5L348.1,343.3L348.0,342.7L343.9,334.3L339.8,327.7L340.6,326.0L338.9,320.8L339.4,317.4L339.4,317.1L339.2,316.1L338.1,311.8L338.2,307.3L336.8,305.3L336.8,305.0L336.2,304.7L335.7,303.1L337.6,301.3L340.5,295.8L340.7,295.7L340.8,295.5L341.7,285.3L343.1,281.2L350.1,274.1L351.7,270.0L348.6,268.7L349.7,261.7L349.3,261.5L349.1,261.2L342.5,255.7L339.2,254.5L331.0,255.6L325.7,250.8L325.5,250.3L323.5,249.7Z " data-iso="COD" data-name="Congo (Kinshasa)" data-pop="68692542.0"/><path d="M264.3,261.7L255.5,261.0L250.5,262.0L248.3,269.4L247.8,270.3L247.8,270.4L247.5,274.1L236.7,270.8L229.4,271.1L227.7,271.1L227.7,271.6L231.6,276.2L234.3,276.9L234.2,282.3L231.8,284.8L231.9,287.8L236.0,290.4L234.0,302.5L232.6,303.4L231.1,301.2L224.2,299.5L221.8,302.3L215.8,302.5L216.2,306.0L218.3,309.4L217.6,310.7L213.8,311.4L212.7,313.3L214.4,314.8L217.2,317.9L217.5,319.2L218.8,320.7L218.9,320.9L220.9,319.2L221.4,318.2L226.0,318.2L226.2,318.3L226.3,318.1L228.3,319.7L230.7,317.1L235.1,316.0L236.1,319.8L239.0,318.8L246.5,312.3L247.5,310.2L248.0,301.3L258.7,289.9L258.5,288.0L259.9,282.4L260.9,272.1L264.7,263.1L264.7,261.9L264.3,261.7Z " data-iso="COG" data-name="Congo (Brazzaville)" data-pop="4012809.0"/><path d="M353.2,42.5L355.5,39.1L350.2,41.4L347.1,41.2L346.3,42.8L346.0,42.7L350.2,42.7L351.8,43.4L353.7,43.0L353.2,42.5Z " data-iso="CYN" data-name="N. Cyprus" data-pop="265100.0"/><path d="M345.6,42.6L344.2,43.6L346.4,46.2L353.8,43.1L353.7,43.0L351.8,43.4L350.2,42.7L346.0,42.7L345.6,42.6Z " data-iso="CYP" data-name="Cyprus" data-pop="531640.0"/><path d="M430.7,203.0L431.2,200.1L432.0,198.5L429.9,195.3L429.8,194.9L427.6,197.0L427.0,197.4L425.2,196.6L425.0,196.8L424.5,197.8L421.7,202.2L428.9,207.1L429.4,207.1L430.1,205.7L430.8,204.5L431.3,203.5L430.7,203.0Z " data-iso="DJI" data-name="Djibouti" data-pop="516055.0"/><path d="M201.1,32.9L195.9,31.5L196.0,32.3L187.1,33.2L181.5,32.3L175.8,32.1L167.3,33.7L159.2,34.4L154.1,36.7L153.3,37.8L140.4,42.6L139.3,42.4L141.0,47.4L140.6,54.5L141.9,63.0L131.1,64.1L128.4,64.9L126.3,69.8L124.3,70.1L117.9,72.8L115.5,75.4L107.9,76.7L107.6,77.7L96.2,81.7L93.4,83.5L92.4,88.9L92.1,90.6L91.9,91.8L91.7,93.2L92.8,94.0L98.0,98.2L105.4,104.0L112.2,109.3L113.5,110.3L115.3,111.7L126.5,120.9L149.2,138.6L149.2,140.6L152.1,143.2L157.3,146.2L162.0,148.1L162.1,153.4L166.4,153.0L168.5,152.7L170.0,152.4L178.7,150.9L190.6,141.2L217.1,125.5L220.5,123.4L220.0,122.2L212.5,116.3L209.7,116.0L208.2,110.9L204.9,105.9L205.3,104.1L207.8,102.1L207.8,83.5L206.1,78.0L206.7,77.7L206.4,76.1L195.9,53.3L196.3,51.3L200.0,48.5L201.3,45.0L201.3,40.2L203.8,32.8L201.1,32.9Z " data-iso="DZA" data-name="Algeria" data-pop="34178188.0"/><path d="M358.3,68.3L348.5,70.1L344.7,67.6L339.2,67.1L332.5,69.9L327.5,72.8L319.7,70.6L307.6,68.0L303.5,68.7L303.0,67.9L301.3,70.1L302.3,73.8L301.0,78.2L303.0,84.6L304.3,107.4L305.5,132.0L305.6,133.5L308.0,133.5L363.7,132.0L382.8,131.3L382.8,131.2L378.2,127.1L374.6,125.1L373.5,122.8L372.8,118.4L374.4,118.2L370.2,114.6L367.6,110.2L360.8,100.0L357.2,91.6L351.8,85.8L348.5,80.1L349.0,78.1L354.9,87.1L358.5,90.5L362.6,90.0L364.0,80.8L364.3,80.5L362.2,75.7L361.2,74.0L359.5,70.3L358.8,68.9L358.5,68.4L358.4,68.2L358.3,68.3Z " data-iso="EGY" data-name="Egypt" data-pop="83082869.0"/><path d="M385.1,185.4L385.3,185.4L389.5,183.9L392.0,186.0L393.9,180.9L398.2,183.8L401.9,182.3L406.5,183.0L413.4,185.3L424.4,196.1L425.0,196.8L425.2,196.6L427.0,197.4L427.6,197.0L429.8,194.9L429.5,194.1L427.6,193.9L423.5,188.9L419.4,186.2L415.9,181.8L404.3,175.8L402.0,171.2L399.2,162.6L396.8,158.7L391.4,163.0L389.8,165.2L386.8,165.9L386.7,171.0L384.1,179.3L384.8,183.4L385.1,185.4Z " data-iso="ERI" data-name="Eritrea" data-pop="5647168.0"/><path d="M113.4,26.3L119.6,34.4L122.6,33.6L128.7,30.8L137.8,31.4L142.9,30.1L144.0,28.3L147.1,26.3L149.3,26.3L151.6,22.6L156.8,18.4L155.8,17.9L156.7,11.3L162.1,5.4L165.1,3.7L175.2,0.0L122.0,0.0L120.5,1.2L120.1,5.6L115.5,9.7L116.3,13.5L114.3,17.9L114.5,21.0L112.1,23.6L112.0,26.4L113.4,26.3Z " data-iso="ESP" data-name="Spain" data-pop="40525002.0"/><path d="M385.1,185.4L384.7,187.3L383.0,196.2L379.7,197.6L377.6,201.7L375.7,208.7L373.3,209.3L371.4,211.8L370.4,219.0L370.4,219.4L370.4,219.6L370.8,225.5L363.5,230.1L364.0,230.9L373.8,237.3L379.3,247.0L379.4,247.1L379.4,247.4L383.0,248.6L382.9,251.9L384.4,254.0L392.5,255.7L399.0,259.9L408.6,261.2L412.0,257.6L417.1,255.3L423.7,257.3L424.7,257.2L424.9,256.9L430.8,254.9L433.0,252.4L439.0,250.1L444.9,250.3L451.5,242.3L462.9,229.4L464.4,227.6L462.1,227.7L437.6,221.2L431.9,215.8L428.4,208.7L429.3,207.4L429.4,207.1L428.9,207.1L421.7,202.2L424.5,197.8L425.0,196.8L424.4,196.1L413.4,185.3L406.5,183.0L401.9,182.3L398.2,183.8L393.9,180.9L392.0,186.0L389.5,183.9L385.3,185.4L385.1,185.4Z " data-iso="ETH" data-name="Ethiopia" data-pop="85237338.0"/><path d="M207.2,0.0L207.8,2.7L209.8,3.1L210.8,0.1L207.2,0.0Z " data-iso="FRA" data-name="France" data-pop="64057792.0"/><path d="M227.6,270.6L226.6,270.4L215.7,270.1L214.2,270.5L214.1,271.0L214.1,272.6L214.1,277.0L212.7,279.1L202.0,278.9L201.9,279.2L200.2,281.8L203.4,285.8L200.0,284.1L199.9,288.5L197.5,290.9L195.8,290.2L200.1,297.4L198.1,295.2L202.6,302.9L207.3,307.1L212.0,312.7L212.7,313.3L213.8,311.4L217.6,310.7L218.3,309.4L216.2,306.0L215.8,302.5L221.8,302.3L224.2,299.5L231.1,301.2L232.6,303.4L234.0,302.5L236.0,290.4L231.9,287.8L231.8,284.8L234.2,282.3L234.3,276.9L231.6,276.2L227.7,271.6L227.7,271.1L227.6,270.6Z " data-iso="GAB" data-name="Gabon" data-pop="1514993.0"/><path d="M359.3,68.3L359.3,67.8L359.8,66.3L359.4,67.0L358.4,68.2L358.5,68.4L358.8,68.9L359.3,68.3Z " data-iso="PSE" data-name="Palestine" data-pop="1604238.0"/><path d="M135.4,207.5L126.9,208.3L118.7,208.4L118.6,218.6L118.6,219.0L118.7,219.4L118.2,221.6L119.5,228.0L117.5,229.9L114.1,239.7L117.0,248.2L115.4,249.6L114.9,249.6L114.7,249.9L114.9,249.9L122.3,252.3L128.8,249.4L130.6,249.1L137.9,245.5L141.3,245.5L143.8,243.5L144.3,243.2L141.3,240.6L140.4,238.6L140.6,231.7L140.0,225.7L139.3,224.4L140.5,220.0L139.3,218.5L139.6,214.1L137.3,208.3L136.9,207.9L135.4,207.5Z " data-iso="GHA" data-name="Ghana" data-pop="23832495.0"/><path d="M61.2,196.7L54.0,196.7L48.5,194.5L46.3,194.3L46.3,194.9L44.6,197.8L45.4,198.7L43.1,201.5L38.7,203.1L36.6,206.4L36.5,207.2L40.3,211.5L45.2,215.1L47.2,220.1L47.3,220.4L50.4,218.6L53.4,214.5L61.1,214.0L64.3,218.4L66.6,224.9L67.1,224.9L67.5,224.9L72.2,226.1L73.0,230.7L74.4,233.9L78.6,231.6L78.9,231.8L79.3,231.5L82.9,223.2L84.2,221.1L83.0,213.7L83.1,213.4L83.3,212.9L81.2,209.2L80.9,205.0L78.4,200.8L72.5,199.7L68.9,198.4L64.5,198.3L62.2,199.7L61.4,197.0L61.6,196.8L61.2,196.7Z " data-iso="GIN" data-name="Guinea" data-pop="10057975.0"/><path d="M28.6,187.9L29.6,188.8L26.8,190.1L26.7,190.7L32.9,190.3L33.1,189.1L46.0,189.5L44.2,188.0L39.2,186.0L35.3,187.3L28.4,187.0L28.6,187.9Z " data-iso="GMB" data-name="Gambia" data-pop="1782893.0"/><path d="M46.3,194.3L44.1,194.2L36.7,193.9L32.3,195.4L26.6,195.8L28.3,196.9L30.0,199.1L34.8,199.6L36.8,201.7L34.4,202.3L36.4,205.9L36.6,206.4L38.7,203.1L43.1,201.5L45.4,198.7L44.6,197.8L46.3,194.9L46.3,194.3Z " data-iso="GNB" data-name="Guinea Bissau" data-pop="1533964.0"/><path d="M214.1,271.0L212.5,271.0L204.7,271.0L204.0,270.7L203.5,270.0L203.3,271.7L202.0,275.3L201.3,276.1L202.1,278.7L202.0,278.9L212.7,279.1L214.1,277.0L214.1,272.6L214.1,271.0Z M196.2,259.9L194.3,263.3L195.5,263.6L197.6,260.2L196.2,259.9Z " data-iso="GNQ" data-name="Eq. Guinea" data-pop="633441.0"/><path d="M293.5,42.1L292.8,44.2L298.8,45.0L299.1,45.9L307.5,45.2L304.9,43.3L303.2,43.4L294.9,41.7L293.5,42.1Z M304.3,1.0L303.6,0.8L303.5,3.2L299.4,4.1L286.3,4.1L285.7,4.0L285.3,4.0L279.5,6.7L275.7,7.4L275.0,7.4L274.9,7.9L273.5,12.2L271.5,13.4L269.8,15.0L270.4,15.4L275.8,21.8L278.6,24.0L281.4,23.3L288.5,25.0L287.1,26.2L281.4,23.9L277.2,27.2L280.1,30.1L281.6,34.4L282.6,32.4L285.1,35.5L287.1,34.6L287.9,32.4L286.9,30.6L290.0,28.6L288.7,26.2L291.8,26.6L293.6,27.9L292.2,23.7L284.9,20.1L286.7,19.7L284.4,12.6L284.4,9.6L288.5,12.1L293.9,11.0L290.6,7.8L294.0,6.6L303.2,7.3L303.4,7.5L304.9,5.7L304.6,4.1L304.8,1.1L304.3,1.0Z " data-iso="GRC" data-name="Greece" data-pop="10737428.0"/><path d="M463.0,18.4L460.5,20.9L454.6,23.5L452.3,23.8L444.7,21.9L441.7,19.5L436.1,18.8L432.8,13.7L432.7,13.4L427.1,11.1L427.8,7.3L425.4,5.6L419.2,11.7L418.8,11.7L417.9,11.7L417.2,12.1L416.9,12.1L415.7,12.0L413.1,11.6L408.5,7.8L408.4,7.7L408.2,7.7L406.9,7.0L406.2,9.6L404.6,9.8L407.7,16.2L408.7,16.8L412.5,24.4L412.5,24.5L412.5,24.5L418.1,31.8L422.7,32.7L423.7,37.4L420.9,42.6L421.9,45.9L426.9,50.3L427.2,52.2L430.0,52.8L439.0,59.2L439.4,64.8L446.2,71.5L446.5,71.4L448.0,67.5L451.1,69.9L454.8,69.0L465.3,82.8L467.1,84.2L475.1,87.6L482.1,91.3L489.5,91.8L497.0,86.3L500.0,86.9L500.0,16.7L498.4,17.0L491.0,12.3L488.4,11.2L479.2,10.3L478.8,9.6L473.2,9.7L473.3,10.4L462.4,17.3L463.0,18.4Z " data-iso="IRN" data-name="Iran" data-pop="66429284.0"/><path d="M412.3,24.4L407.2,24.4L400.8,24.1L399.6,25.8L399.1,26.0L399.1,26.1L396.7,29.7L394.7,30.4L395.6,36.3L395.3,38.8L385.1,51.7L383.6,52.7L384.3,54.2L386.3,58.6L388.0,60.2L387.3,61.0L388.7,61.2L394.8,61.8L407.6,68.0L409.4,69.2L434.5,78.9L435.5,78.5L436.2,77.3L437.8,72.0L439.9,71.1L442.8,71.7L442.8,71.5L445.1,71.6L445.7,71.7L446.2,71.5L439.4,64.8L439.0,59.2L430.0,52.8L427.2,52.2L426.9,50.3L421.9,45.9L420.9,42.6L423.7,37.4L422.7,32.7L418.1,31.8L412.5,24.5L412.5,24.5L412.3,24.4Z " data-iso="IRQ" data-name="Iraq" data-pop="28945657.0"/><path d="M366.6,57.8L366.7,55.7L366.9,55.4L366.3,53.8L366.3,53.4L366.2,53.5L364.4,55.6L364.0,55.9L362.2,56.0L362.1,56.8L361.2,62.1L360.8,64.1L359.9,66.3L359.8,66.3L359.3,67.8L359.3,68.3L358.8,68.9L359.5,70.3L361.2,74.0L362.2,75.7L364.3,80.5L364.7,79.9L365.1,75.5L365.0,73.3L365.8,67.8L365.8,66.7L365.6,66.7L363.1,65.5L362.5,60.2L365.1,60.5L365.5,60.5L365.4,59.0L365.6,58.5L366.3,58.2L366.6,58.1L366.6,57.8Z " data-iso="ISR" data-name="Israel" data-pop="7233701.0"/><path d="M244.7,24.9L237.2,26.2L233.7,26.2L230.1,25.3L227.0,28.4L230.7,29.7L234.3,32.0L236.3,32.2L238.3,34.2L241.2,34.9L243.0,32.8L241.9,30.4L244.7,24.9Z M211.6,6.9L209.8,4.8L205.7,7.0L203.9,6.6L204.7,11.7L204.0,17.8L207.3,18.9L207.6,17.6L210.8,17.0L211.4,11.0L212.4,9.5L211.6,6.9Z M225.1,0.0L228.5,3.4L235.3,5.7L240.7,9.0L243.2,12.7L245.4,13.2L248.3,20.1L245.5,26.7L247.4,26.7L250.3,21.6L252.6,20.1L253.5,17.2L251.8,15.9L251.0,12.3L253.0,9.8L257.7,11.3L260.4,14.3L261.2,12.4L258.2,8.9L250.3,5.1L246.8,2.6L248.1,0.8L241.6,0.0L225.1,0.0Z " data-iso="ITA" data-name="Italy" data-pop="58126212.0"/><path d="M388.0,60.2L386.3,58.6L384.3,54.2L383.6,52.7L382.2,53.7L373.2,60.6L371.1,60.4L367.2,58.2L366.6,58.1L366.3,58.2L365.6,58.5L365.4,59.0L365.5,60.5L365.8,61.5L365.8,63.3L366.2,64.7L365.8,66.1L365.8,66.7L365.8,67.8L365.0,73.3L365.1,75.5L364.7,79.9L364.8,80.4L364.7,81.3L371.7,82.0L375.0,77.5L379.7,76.0L382.1,72.5L374.9,66.1L386.5,61.9L387.3,61.0L388.0,60.2Z " data-iso="JOR" data-name="Jordan" data-pop="6342948.0"/><path d="M379.4,247.1L378.2,248.4L373.5,253.3L372.1,254.8L370.8,256.2L371.9,258.5L374.0,260.5L377.2,268.8L377.8,274.3L374.5,278.5L370.8,284.6L370.5,291.7L370.6,292.9L371.1,292.9L396.1,307.3L396.8,311.5L406.6,319.0L406.7,318.8L410.8,312.5L413.5,307.1L418.4,300.8L421.7,298.9L422.7,297.7L418.9,291.8L418.6,265.6L423.9,258.5L424.7,257.2L423.7,257.3L417.1,255.3L412.0,257.6L408.6,261.2L399.0,259.9L392.5,255.7L384.4,254.0L382.9,251.9L383.0,248.6L379.4,247.4L379.4,247.1Z " data-iso="KEN" data-name="Kenya" data-pop="39002772.0"/><path d="M272.5,0.8L272.5,0.8L273.2,0.9L273.4,0.0L272.5,0.0L272.5,0.5L272.5,0.8Z " data-iso="KOS" data-name="Kosovo" data-pop="1804838.0"/><path d="M442.8,71.7L439.9,71.1L437.8,72.0L436.2,77.3L435.5,78.5L436.7,78.6L441.0,78.8L447.7,81.4L447.3,80.8L443.3,74.2L444.4,74.4L442.8,71.9L442.8,71.7Z " data-iso="KWT" data-name="Kuwait" data-pop="2691158.0"/><path d="M366.6,53.1L369.7,47.8L367.5,44.8L365.7,45.3L365.8,45.8L364.2,48.0L364.2,49.4L362.4,55.5L362.2,56.0L364.0,55.9L364.4,55.6L366.2,53.5L366.3,53.4L366.6,53.1Z " data-iso="LBN" data-name="Lebanon" data-pop="4017095.0"/><path d="M78.6,231.6L74.4,233.9L73.0,230.7L72.2,226.1L67.5,224.9L67.1,224.9L67.1,225.2L66.8,226.2L58.4,236.0L59.7,237.6L73.8,249.6L79.6,253.0L83.7,254.6L84.4,254.7L82.5,241.3L79.9,240.7L79.2,237.9L80.0,235.3L79.0,231.9L78.9,231.8L78.6,231.6Z " data-iso="LBR" data-name="Liberia" data-pop="3441790.0"/><path d="M302.8,67.5L302.2,66.4L291.4,64.4L290.1,61.7L284.5,59.8L272.1,64.6L271.0,67.3L269.9,76.3L266.3,77.8L260.4,74.4L255.2,72.4L247.7,71.1L244.4,69.3L243.0,65.1L233.8,60.9L229.6,60.1L227.2,60.7L220.7,58.5L219.8,58.1L219.6,63.2L210.8,69.5L211.2,74.1L207.4,77.4L206.7,77.7L206.1,78.0L207.8,83.5L207.8,102.1L205.3,104.1L204.9,105.9L208.2,110.9L209.7,116.0L212.5,116.3L220.0,122.2L220.5,123.4L223.9,124.3L231.1,126.2L235.2,129.7L240.1,127.1L240.1,127.1L242.5,126.0L246.6,124.1L261.3,131.6L296.4,149.2L299.6,150.8L299.6,149.9L299.5,147.3L306.1,147.2L305.7,136.9L305.6,133.5L305.5,132.0L304.3,107.4L303.0,84.6L301.0,78.2L302.3,73.8L301.3,70.1L303.0,67.9L302.8,67.5Z " data-iso="LBY" data-name="Libya" data-pop="6310434.0"/><path d="M33.1,130.8L40.0,130.7L42.9,131.2L48.3,129.9L51.6,125.7L54.5,117.2L55.7,115.7L65.2,109.1L66.8,106.8L69.6,100.5L71.6,100.1L77.6,94.2L84.2,95.7L91.1,94.1L91.3,90.6L92.1,90.6L92.4,88.9L93.4,83.5L96.2,81.7L107.6,77.7L107.9,76.7L115.5,75.4L117.9,72.8L124.3,70.1L126.3,69.8L128.4,64.9L131.1,64.1L141.9,63.0L140.6,54.5L141.0,47.4L139.3,42.4L138.1,42.2L134.6,40.6L125.3,40.8L121.0,36.0L118.6,36.4L114.8,43.0L111.6,47.2L106.2,50.2L101.5,51.7L94.9,56.7L93.6,60.0L91.2,62.4L89.1,68.2L89.1,73.3L81.5,81.0L75.4,84.9L72.5,86.0L66.4,87.0L61.7,94.0L54.8,98.5L49.2,109.5L43.0,114.1L40.3,119.7L34.2,127.4L33.1,130.8Z " data-iso="MAR" data-name="Morocco" data-pop="34859364.0"/><path d="M472.7,375.2L470.7,372.6L469.5,374.2L468.2,378.7L466.0,382.1L461.7,383.4L461.6,385.8L459.8,388.7L460.3,390.7L457.3,392.6L457.4,391.0L449.9,397.2L449.4,398.7L445.2,398.6L436.4,402.6L436.4,404.0L432.8,409.4L432.5,415.7L434.2,423.8L433.0,428.9L426.4,437.1L424.3,447.8L425.7,452.4L424.7,458.1L426.2,462.7L432.8,467.1L444.9,463.6L450.0,454.3L452.6,448.2L468.0,414.3L469.2,408.2L471.6,404.3L471.8,396.9L475.0,399.9L475.9,393.3L475.7,386.9L474.1,378.4L472.7,375.2Z " data-iso="MDG" data-name="Madagascar" data-pop="20653556.0"/><path d="M272.5,0.8L272.4,0.8L271.9,3.1L274.9,7.3L275.0,7.4L275.7,7.4L279.5,6.7L285.3,4.0L285.7,4.0L285.7,3.9L285.7,2.3L286.0,1.5L285.1,0.0L273.4,0.0L273.2,0.9L272.5,0.8L272.5,0.8Z " data-iso="MKD" data-name="Macedonia" data-pop="2066718.0"/><path d="M166.4,153.0L162.1,153.4L162.0,148.1L157.3,146.2L152.1,143.2L149.2,140.6L149.2,138.6L126.5,120.9L115.3,111.7L113.5,110.3L111.3,110.2L102.4,109.8L101.9,130.4L101.9,153.1L102.3,176.3L80.7,175.5L76.4,174.8L65.9,176.9L61.7,174.6L58.4,180.0L57.3,179.5L57.8,180.6L58.5,184.8L58.0,187.9L61.9,193.0L61.7,196.3L61.6,196.8L61.4,197.0L62.2,199.7L64.5,198.3L68.9,198.4L72.5,199.7L78.4,200.8L80.9,205.0L81.2,209.2L83.3,212.9L83.1,213.4L83.3,213.4L92.1,212.0L95.0,209.7L95.0,213.0L96.3,213.5L99.6,211.9L99.8,212.0L100.0,211.6L100.3,207.6L101.6,206.5L102.0,202.1L108.1,197.6L109.5,195.5L110.2,191.9L115.9,192.2L116.4,189.6L118.7,189.5L119.1,187.6L122.0,185.4L124.3,186.2L126.0,184.1L133.7,180.3L138.8,180.9L140.2,181.4L140.3,181.1L146.3,180.1L147.6,179.1L162.4,178.8L168.5,153.9L168.5,152.7L166.4,153.0Z " data-iso="MLI" data-name="Mali" data-pop="12666987.0"/><path d="M265.7,0.9L265.7,0.5L265.8,0.0L265.8,0.0L264.6,0.0L264.8,0.4L265.7,0.9Z " data-iso="MNE" data-name="Montenegro" data-pop="672180.0"/><path d="M354.4,472.4L354.5,468.6L353.0,466.7L361.6,460.5L370.4,457.2L373.5,448.0L373.1,437.3L370.7,425.3L383.3,415.9L390.3,409.4L399.7,406.0L406.4,401.9L411.7,395.2L412.9,391.4L412.2,377.7L413.3,370.8L412.8,368.3L413.8,360.6L413.5,359.9L399.8,366.4L398.7,365.7L391.2,368.2L388.2,367.6L385.0,368.2L381.6,366.4L377.5,367.2L376.0,367.2L375.1,367.2L371.7,371.6L372.6,379.6L380.7,388.9L379.8,397.9L375.9,400.8L375.9,403.8L370.5,399.7L369.5,396.8L370.7,386.9L365.1,387.0L363.5,384.3L363.2,384.1L361.8,384.5L342.9,390.6L343.7,394.2L343.8,395.1L343.8,396.2L353.9,400.7L358.4,401.9L360.4,406.5L360.1,413.9L358.1,421.3L359.2,425.5L355.8,429.7L347.8,441.2L346.8,441.8L346.8,442.2L348.2,449.8L349.3,452.1L350.0,457.3L348.9,465.8L349.0,466.3L349.1,466.4L349.5,468.0L349.4,468.5L349.6,470.1L349.4,472.3L350.0,472.3L351.0,472.5L353.6,472.5L354.3,472.5L354.4,472.4Z M374.1,370.9L373.9,370.2L374.2,370.2L374.1,370.9Z M373.7,370.2L373.0,370.3L373.1,370.0L373.7,370.2Z " data-iso="MOZ" data-name="Mozambique" data-pop="21669278.0"/><path d="M113.5,110.3L112.2,109.3L105.4,104.0L98.0,98.2L92.8,94.0L91.7,93.2L91.5,94.3L90.3,102.1L69.7,100.8L66.7,118.4L59.2,122.1L58.2,133.0L33.3,131.4L32.1,135.1L32.7,133.5L35.9,136.5L35.0,147.2L35.5,156.3L30.8,167.6L30.4,170.8L32.9,165.9L44.0,165.6L50.8,170.2L52.8,174.4L57.1,179.4L57.3,179.5L58.4,180.0L61.7,174.6L65.9,176.9L76.4,174.8L80.7,175.5L102.3,176.3L101.9,153.1L101.9,130.4L102.4,109.8L111.3,110.2L113.5,110.3Z " data-iso="MRT" data-name="Mauritania" data-pop="3129486.0"/><path d="M374.1,370.9L374.2,370.2L373.9,370.2L374.1,370.9Z M373.7,370.2L373.1,370.0L373.0,370.3L373.7,370.2Z M362.7,351.9L362.7,352.1L365.3,354.7L366.1,361.5L364.9,362.0L364.0,373.9L362.1,376.0L360.4,380.8L362.9,383.6L363.2,384.1L363.5,384.3L365.1,387.0L370.7,386.9L369.5,396.8L370.5,399.7L375.9,403.8L375.9,400.8L379.8,397.9L380.7,388.9L372.6,379.6L371.7,371.6L375.1,367.2L376.0,367.2L375.9,367.0L374.6,365.3L374.1,360.5L372.2,354.4L370.0,352.6L362.8,351.8L362.7,351.9Z " data-iso="MWI" data-name="Malawi" data-pop="14268711.0"/><path d="M294.1,408.8L285.0,410.4L278.5,410.9L276.1,410.0L265.6,409.1L262.7,406.6L237.3,406.5L233.3,406.6L227.1,403.6L223.4,405.3L218.0,405.6L217.9,407.1L218.3,410.8L223.0,417.1L229.8,430.7L235.7,439.3L237.9,455.4L238.8,457.0L241.0,468.1L242.6,474.5L245.0,478.4L249.0,482.3L249.7,482.8L253.5,478.9L256.0,483.4L266.8,485.0L269.2,482.6L272.0,481.8L272.5,459.8L272.5,457.0L272.5,456.8L272.9,438.1L279.4,438.1L280.0,412.9L295.0,410.8L298.2,413.8L301.1,411.4L308.4,409.5L308.7,409.6L307.6,408.4L305.3,407.6L297.6,408.1L296.2,408.4L294.1,408.8Z " data-iso="NAM" data-name="Namibia" data-pop="2108665.0"/><path d="M240.1,127.1L235.2,129.7L231.1,126.2L223.9,124.3L220.5,123.4L217.1,125.5L190.6,141.2L178.7,150.9L170.0,152.4L168.5,152.7L168.5,153.9L162.4,178.8L147.6,179.1L146.3,180.1L140.3,181.1L140.2,181.4L140.1,181.7L139.6,184.3L142.4,189.9L144.8,192.3L145.4,194.9L148.4,197.5L152.8,198.2L153.5,202.4L153.8,202.7L154.0,202.0L154.4,200.2L156.8,199.4L161.5,203.6L161.9,204.2L162.3,204.0L165.6,194.8L166.1,192.0L175.3,189.3L182.9,192.9L184.0,194.7L187.8,194.8L190.8,193.2L197.2,196.3L203.1,197.0L209.0,193.4L222.8,194.5L229.1,191.0L230.3,191.0L229.7,188.0L231.8,182.2L238.2,174.1L243.1,168.9L246.2,144.9L242.1,138.0L240.8,131.1L240.1,127.1L240.1,127.1Z " data-iso="NER" data-name="Niger" data-pop="15306252.0"/><path d="M161.9,204.2L161.6,204.7L162.9,213.0L158.1,221.7L155.7,222.6L155.1,232.6L155.5,233.6L154.8,241.4L155.3,241.3L164.6,241.2L169.6,243.9L173.1,248.3L174.4,253.6L179.2,255.5L182.6,253.1L183.7,255.4L193.1,254.3L192.9,251.7L194.9,252.9L195.0,252.9L198.1,244.8L206.1,237.4L210.2,237.4L212.5,240.8L215.8,239.5L218.0,236.6L221.8,226.3L223.0,226.1L226.1,220.1L227.5,219.1L230.8,210.6L236.7,204.6L236.5,200.7L234.0,198.5L233.4,195.3L232.5,194.0L231.4,192.4L230.3,191.0L229.1,191.0L222.8,194.5L209.0,193.4L203.1,197.0L197.2,196.3L190.8,193.2L187.8,194.8L184.0,194.7L182.9,192.9L175.3,189.3L166.1,192.0L165.6,194.8L162.3,204.0L161.9,204.2Z " data-iso="NGA" data-name="Nigeria" data-pop="149229090.0"/><path d="M482.0,147.2L482.4,147.9L488.6,159.1L489.1,159.3L491.6,163.7L492.8,163.0L496.8,161.4L497.4,160.7L500.0,160.3L500.0,135.2L499.6,138.7L482.9,146.8L482.0,147.2Z M497.2,119.1L497.9,119.8L498.4,120.5L500.0,122.6L500.0,108.9L497.1,110.1L497.1,118.0L497.2,119.1Z M497.4,94.5L498.4,97.2L498.7,97.5L499.3,97.3L499.3,96.9L499.3,94.0L497.6,93.5L497.4,94.5Z " data-iso="OMN" data-name="Oman" data-pop="3418085.0"/><path d="M112.0,26.4L112.1,23.6L114.5,21.0L114.3,17.9L116.3,13.5L115.5,9.7L120.1,5.6L120.5,1.2L122.0,0.0L111.2,0.0L108.7,6.2L104.8,10.7L102.9,15.0L106.9,17.5L105.7,19.0L104.5,24.1L102.8,26.7L111.5,26.4L112.0,26.4Z " data-iso="PRT" data-name="Portugal" data-pop="10707924.0"/><path d="M471.3,107.2L471.8,103.6L470.6,99.9L468.3,96.7L466.3,102.2L467.6,106.1L467.5,106.5L468.0,107.3L470.6,107.6L471.3,107.2Z " data-iso="QAT" data-name="Qatar" data-pop="833285.0"/><path d="M346.9,293.4L345.9,293.8L341.0,295.7L340.7,295.7L340.5,295.8L337.6,301.3L335.7,303.1L336.2,304.7L336.8,305.0L336.9,304.6L341.5,305.5L344.3,302.8L347.3,302.7L347.4,302.8L347.7,302.7L349.5,301.8L349.3,296.9L346.9,293.5L347.2,293.4L346.9,293.4Z " data-iso="RWA" data-name="Rwanda" data-pop="10473282.0"/><path d="M91.9,91.8L92.1,90.6L91.3,90.6L91.1,94.1L84.2,95.7L77.6,94.2L71.6,100.1L69.6,100.5L66.8,106.8L65.2,109.1L55.7,115.7L54.5,117.2L51.6,125.7L48.3,129.9L42.9,131.2L40.0,130.7L33.1,130.8L33.0,131.1L31.9,134.7L32.1,135.1L33.3,131.4L58.2,133.0L59.2,122.1L66.7,118.4L69.7,100.8L90.3,102.1L91.5,94.3L91.7,93.2L91.9,91.8Z " data-iso="SAH" data-name="W. Sahara" data-pop="-99.0"/><path d="M497.2,119.1L497.0,119.7L480.8,118.8L473.3,111.2L472.9,109.7L472.7,109.7L471.2,109.4L471.4,108.4L471.1,107.8L470.6,107.6L468.0,107.3L467.5,106.5L466.9,106.0L461.7,97.6L460.8,93.7L450.9,85.7L448.2,82.0L447.7,81.4L441.0,78.8L436.7,78.6L435.5,78.5L434.5,78.9L409.4,69.2L407.6,68.0L394.8,61.8L388.7,61.2L387.3,61.0L386.5,61.9L374.9,66.1L382.1,72.5L379.7,76.0L375.0,77.5L371.7,82.0L364.7,81.3L364.3,85.7L364.4,89.7L367.3,90.2L377.3,103.1L382.0,108.5L385.3,115.3L390.3,117.7L391.6,119.0L396.4,126.6L396.8,128.0L403.5,142.4L410.8,147.7L417.4,158.7L419.6,160.1L425.3,168.5L425.4,169.1L427.2,162.0L428.6,160.8L437.3,161.0L447.6,161.9L452.1,163.7L455.3,160.9L458.7,154.7L464.8,151.0L480.6,147.5L482.0,147.2L482.9,146.8L499.6,138.7L500.0,135.2L500.0,122.6L498.4,120.5L497.9,119.8L497.2,119.1Z " data-iso="SAU" data-name="Saudi Arabia" data-pop="28686633.0"/><path d="M305.6,133.5L305.7,136.9L306.1,147.2L299.5,147.3L299.6,149.9L299.6,150.8L299.7,153.8L294.6,177.0L293.5,180.7L289.8,185.0L291.0,187.7L289.0,193.4L286.4,196.7L293.9,207.2L293.8,209.4L293.6,210.1L294.1,211.0L299.1,217.7L299.0,221.0L302.0,225.5L302.6,225.7L302.6,225.7L302.7,225.5L305.3,224.2L307.1,217.5L310.2,214.2L313.7,213.4L319.8,219.9L322.6,218.9L327.6,219.1L329.3,220.9L334.7,219.9L339.8,216.6L339.8,215.6L345.8,216.1L350.9,217.3L353.7,214.3L358.2,207.1L357.9,203.8L356.1,201.8L360.4,201.1L363.3,202.9L363.8,209.9L368.9,214.2L370.4,219.4L370.4,219.4L370.4,219.4L370.4,219.0L371.4,211.8L373.3,209.3L375.7,208.7L377.6,201.7L379.7,197.6L383.0,196.2L384.7,187.3L385.1,185.4L384.8,183.4L384.1,179.3L386.7,171.0L386.8,165.9L389.8,165.2L391.4,163.0L396.8,158.7L396.6,158.2L388.9,153.3L388.0,151.4L385.6,136.9L383.0,132.9L382.8,131.3L363.7,132.0L308.0,133.5L305.6,133.5Z " data-iso="SDN" data-name="Sudan" data-pop="30894000.0"/><path d="M302.6,225.7L302.6,225.7L303.0,225.8L303.7,228.3L306.8,229.0L310.3,232.7L309.9,233.4L318.1,239.7L317.8,241.0L319.8,244.0L324.1,246.8L325.0,249.8L325.5,250.3L325.7,250.8L331.0,255.6L339.2,254.5L342.5,255.7L349.1,261.2L349.3,261.5L349.5,261.1L355.9,259.2L356.9,260.6L364.1,258.6L366.4,259.5L369.2,257.8L370.8,256.2L372.1,254.8L373.5,253.3L378.2,248.4L379.4,247.1L379.3,247.0L373.8,237.3L364.0,230.9L363.5,230.1L370.8,225.5L370.4,219.6L370.4,219.4L370.4,219.4L370.4,219.4L368.9,214.2L363.8,209.9L363.3,202.9L360.4,201.1L356.1,201.8L357.9,203.8L358.2,207.1L353.7,214.3L350.9,217.3L345.8,216.1L339.8,215.6L339.8,216.6L334.7,219.9L329.3,220.9L327.6,219.1L322.6,218.9L319.8,219.9L313.7,213.4L310.2,214.2L307.1,217.5L305.3,224.2L302.7,225.5L302.6,225.7Z " data-iso="SSD" data-name="S. Sudan" data-pop="8260490.0"/><path d="M57.1,179.4L52.8,174.4L50.8,170.2L44.0,165.6L32.9,165.9L30.4,170.8L30.1,171.5L28.0,174.6L23.8,178.5L25.3,179.2L28.4,186.2L28.4,187.0L35.3,187.3L39.2,186.0L44.2,188.0L46.0,189.5L33.1,189.1L32.9,190.3L26.7,190.7L26.7,191.3L26.5,194.1L26.4,195.5L26.6,195.8L32.3,195.4L36.7,193.9L44.1,194.2L46.3,194.3L48.5,194.5L54.0,196.7L61.2,196.7L61.6,196.8L61.7,196.3L61.9,193.0L58.0,187.9L58.5,184.8L57.8,180.6L57.3,179.5L57.1,179.4Z " data-iso="SEN" data-name="Senegal" data-pop="13711597.0"/><path d="M47.4,220.8L48.4,224.9L47.2,224.4L49.5,229.0L52.9,232.8L58.1,235.7L58.4,236.0L66.8,226.2L67.1,225.2L67.1,224.9L66.6,224.9L64.3,218.4L61.1,214.0L53.4,214.5L50.4,218.6L47.3,220.4L47.4,220.8Z " data-iso="SLE" data-name="Sierra Leone" data-pop="6440053.0"/><path d="M468.8,203.9L467.3,203.5L457.9,205.4L456.3,206.8L443.1,210.7L439.4,210.9L432.7,204.5L431.3,203.5L430.8,204.5L430.1,205.7L429.4,207.1L429.3,207.4L428.4,208.7L431.9,215.8L437.6,221.2L462.1,227.7L464.4,227.6L465.3,225.9L470.1,216.9L469.8,213.1L469.1,203.9L468.8,203.9Z " data-iso="SOL" data-name="Somaliland" data-pop="3500000.0"/><path d="M423.3,296.9L425.7,292.5L435.8,281.1L441.6,275.5L445.5,272.5L453.0,267.6L458.5,261.7L465.5,252.8L469.8,245.5L476.3,229.7L481.4,219.0L482.5,210.6L483.8,207.7L483.5,204.6L480.7,198.2L476.6,201.6L469.9,203.8L469.1,203.9L469.8,213.1L470.1,216.9L465.3,225.9L464.4,227.6L462.9,229.4L451.5,242.3L444.9,250.3L439.0,250.1L433.0,252.4L430.8,254.9L424.9,256.9L424.7,257.2L423.9,258.5L418.6,265.6L418.9,291.8L422.7,297.7L423.3,296.9Z " data-iso="SOM" data-name="Somalia" data-pop="9832017.0"/><path d="M348.8,466.3L344.3,465.4L343.5,466.3L343.9,474.9L348.2,475.4L349.3,472.2L349.4,472.3L349.6,470.1L349.4,468.5L349.5,468.0L349.1,466.4L349.0,466.3L348.8,466.3Z " data-iso="SWZ" data-name="Swaziland" data-pop="1123913.0"/><path d="M398.6,25.2L388.5,27.5L382.7,30.2L375.8,29.2L371.8,31.2L367.0,30.7L365.4,37.1L363.8,36.7L363.5,37.2L363.4,39.0L364.4,40.0L365.0,43.8L365.7,45.3L367.5,44.8L369.7,47.8L366.6,53.1L366.3,53.4L366.3,53.8L366.9,55.4L366.7,55.7L366.6,57.8L366.6,58.1L367.2,58.2L371.1,60.4L373.2,60.6L382.2,53.7L383.6,52.7L385.1,51.7L395.3,38.8L395.6,36.3L394.7,30.4L396.7,29.7L399.1,26.1L399.1,26.0L398.6,25.2Z " data-iso="SYR" data-name="Syria" data-pop="20178485.0"/><path d="M296.4,149.2L261.3,131.6L246.6,124.1L242.5,126.0L240.1,127.1L240.8,131.1L242.1,138.0L246.2,144.9L243.1,168.9L238.2,174.1L231.8,182.2L229.7,188.0L230.3,191.0L231.4,192.4L232.5,194.0L233.4,195.3L234.6,195.3L238.7,199.3L240.6,206.0L239.9,208.9L241.6,214.2L244.2,216.6L234.5,216.8L232.8,219.5L238.7,225.0L241.4,228.3L243.3,233.3L243.0,233.8L243.7,233.9L246.8,233.5L250.3,231.6L252.7,233.1L257.9,230.6L264.4,230.1L266.6,227.7L266.9,224.0L276.4,222.6L279.4,220.7L285.7,212.8L291.1,209.6L293.3,210.1L293.6,210.1L293.8,209.4L293.9,207.2L286.4,196.7L289.0,193.4L291.0,187.7L289.8,185.0L293.5,180.7L294.6,177.0L299.7,153.8L299.6,150.8L296.4,149.2Z " data-iso="TCD" data-name="Chad" data-pop="10329208.0"/><path d="M141.7,208.9L141.1,209.1L140.6,208.8L138.4,208.2L136.9,207.9L137.3,208.3L139.6,214.1L139.3,218.5L140.5,220.0L139.3,224.4L140.0,225.7L140.6,231.7L140.4,238.6L141.3,240.6L144.3,243.2L145.2,242.8L147.3,242.4L148.4,241.8L147.5,236.9L147.7,222.5L146.1,218.9L146.1,215.9L142.4,213.1L143.2,209.6L143.5,208.9L141.7,208.9Z " data-iso="TGO" data-name="Togo" data-pop="6019877.0"/><path d="M462.4,17.3L473.3,10.4L473.2,9.7L478.8,9.6L479.2,10.3L488.4,11.2L491.0,12.3L498.4,17.0L500.0,16.7L500.0,0.0L453.6,0.0L458.7,7.0L462.1,16.8L462.4,17.3Z " data-iso="TKM" data-name="Turkmenistan" data-pop="4884887.0"/><path d="M203.8,32.8L201.3,40.2L201.3,45.0L200.0,48.5L196.3,51.3L195.9,53.3L206.4,76.1L206.7,77.7L207.4,77.4L211.2,74.1L210.8,69.5L219.6,63.2L219.8,58.1L219.1,57.8L216.6,55.1L213.6,54.8L212.3,50.2L218.0,44.3L217.5,41.7L214.7,39.0L214.9,37.1L218.6,33.5L217.6,32.2L214.0,33.5L207.2,31.1L205.2,32.4L203.8,32.8Z " data-iso="TUN" data-name="Tunisia" data-pop="10486339.0"/><path d="M363.8,36.7L365.4,37.1L367.0,30.7L371.8,31.2L375.8,29.2L382.7,30.2L388.5,27.5L398.6,25.2L399.1,26.0L399.6,25.8L400.8,24.1L407.2,24.4L412.3,24.4L412.5,24.5L412.5,24.4L408.7,16.8L407.7,16.2L404.6,9.8L406.2,9.6L406.9,7.0L408.2,7.7L408.4,7.7L408.1,7.5L408.0,7.3L407.7,7.1L404.8,5.4L402.9,5.7L399.7,0.0L383.6,0.0L378.9,1.4L376.6,0.8L373.7,1.6L358.5,0.0L336.5,0.0L329.5,4.1L326.9,3.5L321.2,3.5L319.9,4.4L321.8,6.3L324.5,6.6L320.2,9.1L313.0,8.8L311.7,9.9L307.5,9.5L304.6,12.3L304.6,15.8L308.5,15.0L306.6,21.7L307.7,24.3L311.9,25.4L311.7,27.9L314.2,30.7L312.7,32.0L318.3,31.7L314.0,33.7L322.8,33.4L325.4,36.3L332.2,34.3L332.1,32.4L336.6,32.2L345.7,36.9L350.7,35.6L353.8,32.6L358.8,32.1L363.1,33.4L364.0,36.1L363.8,36.7Z M304.3,1.0L304.8,1.1L304.6,4.1L304.9,5.7L303.4,7.5L303.5,7.8L307.6,8.0L311.3,5.6L315.6,4.8L319.4,5.1L313.5,0.0L305.4,0.0L305.2,0.2L304.4,0.4L304.2,0.8L304.3,1.0Z " data-iso="TUR" data-name="Turkey" data-pop="76805524.0"/><path d="M347.2,293.4L346.9,293.5L349.3,296.9L349.5,301.8L347.7,302.7L347.4,302.8L347.3,302.9L346.5,311.1L345.9,312.4L341.5,317.1L339.4,317.1L339.4,317.4L338.9,320.8L340.6,326.0L339.8,327.7L343.9,334.3L348.0,342.7L348.1,343.3L348.3,343.8L350.3,346.2L352.2,346.2L362.3,351.7L362.7,351.9L362.8,351.8L370.0,352.6L372.2,354.4L374.1,360.5L374.6,365.3L375.9,367.0L376.0,367.2L377.5,367.2L381.6,366.4L385.0,368.2L388.2,367.6L391.2,368.2L398.7,365.7L399.8,366.4L413.5,359.9L413.4,359.7L408.7,356.5L408.4,350.8L406.3,345.5L407.4,342.5L408.4,335.5L404.0,330.6L404.8,324.8L406.5,319.6L406.6,319.0L396.8,311.5L396.1,307.3L371.1,292.9L370.6,292.9L369.8,292.9L356.3,293.0L351.4,293.0L347.2,293.4L347.2,293.4Z " data-iso="TZA" data-name="Tanzania" data-pop="41048532.0"/><path d="M370.5,291.7L370.8,284.6L374.5,278.5L377.8,274.3L377.2,268.8L374.0,260.5L371.9,258.5L370.8,256.2L369.2,257.8L366.4,259.5L364.1,258.6L356.9,260.6L355.9,259.2L349.5,261.1L349.3,261.5L349.7,261.7L348.6,268.7L351.7,270.0L350.1,274.1L343.1,281.2L341.7,285.3L340.8,295.5L340.7,295.7L341.0,295.7L345.9,293.8L346.9,293.4L347.2,293.4L347.2,293.4L351.4,293.0L356.3,293.0L369.8,292.9L370.6,292.9L370.5,291.7Z " data-iso="UGA" data-name="Uganda" data-pop="32369558.0"/><path d="M365.1,60.5L362.5,60.2L363.1,65.5L365.6,66.7L365.8,66.7L365.8,66.1L366.2,64.7L365.8,63.3L365.8,61.5L365.5,60.5L365.1,60.5Z " data-iso="PSE" data-name="Palestine" data-pop="2514845.0"/><path d="M482.0,147.2L480.6,147.5L464.8,151.0L458.7,154.7L455.3,160.9L452.1,163.7L447.6,161.9L437.3,161.0L428.6,160.8L427.2,162.0L425.4,169.1L425.9,171.5L425.2,177.2L427.3,179.2L428.9,185.7L429.9,186.7L430.2,190.9L433.2,194.6L435.7,195.4L440.6,194.2L447.9,189.4L457.5,187.1L461.0,184.1L465.4,183.9L467.6,180.9L470.6,178.8L479.7,175.3L487.0,171.2L486.6,167.4L488.5,165.1L491.6,163.7L489.1,159.3L488.6,159.1L482.4,147.9L482.0,147.2Z " data-iso="YEM" data-name="Yemen" data-pop="23822783.0"/><path d="M334.4,440.2L332.8,440.3L326.6,443.4L323.5,446.8L318.9,449.3L317.1,453.8L310.7,457.5L308.5,463.0L304.7,463.9L300.4,463.8L292.1,460.8L288.3,466.9L285.3,469.6L277.1,471.0L276.4,469.2L274.9,458.7L272.8,457.2L272.5,457.0L272.5,459.8L272.0,481.8L269.2,482.6L266.8,485.0L256.0,483.4L253.5,478.9L249.7,482.8L249.9,483.0L257.3,498.9L260.5,503.8L260.7,509.8L258.4,511.9L264.0,521.2L268.8,523.8L271.1,524.1L281.8,521.4L284.7,519.5L296.4,519.6L298.8,520.4L305.2,519.5L307.4,517.5L310.1,517.9L322.9,510.7L333.1,502.2L335.3,499.9L342.8,489.4L345.9,486.5L349.3,484.4L351.2,481.6L353.9,474.1L354.3,472.5L353.6,472.5L351.0,472.5L350.0,472.3L349.4,472.3L349.3,472.2L348.2,475.4L343.9,474.9L343.5,466.3L344.3,465.4L348.8,466.3L349.0,466.3L348.9,465.8L350.0,457.3L349.3,452.1L348.2,449.8L346.8,442.2L346.8,441.8L346.2,441.4L336.3,439.9L334.4,440.1L334.4,440.2Z M325.4,483.7L330.3,487.1L330.8,488.3L326.2,493.8L324.1,494.0L321.5,497.3L319.9,497.0L316.0,490.3L318.0,489.2L320.6,485.8L325.4,483.7Z " data-iso="ZAF" data-name="South Africa" data-pop="49052489.0"/><path d="M326.2,493.8L330.8,488.3L330.3,487.1L325.4,483.7L320.6,485.8L318.0,489.2L316.0,490.3L319.9,497.0L321.5,497.3L324.1,494.0L326.2,493.8Z " data-iso="LSO" data-name="Lesotho" data-pop="2130819.0"/><path d="M362.3,351.7L352.2,346.2L350.3,346.2L348.3,343.8L348.1,343.3L347.0,343.5L335.5,346.8L331.8,350.7L333.3,354.6L333.2,360.5L331.6,367.6L335.8,372.2L338.7,372.4L340.8,370.9L340.5,379.3L337.7,378.9L326.1,371.5L322.9,366.7L319.9,369.4L314.0,368.3L310.4,364.3L303.7,365.2L303.9,363.5L301.5,361.7L301.2,361.7L301.4,362.6L301.2,372.4L300.1,376.4L287.4,376.4L287.0,396.7L289.1,401.8L294.9,407.2L296.2,408.4L297.6,408.1L305.3,407.6L307.6,408.4L308.7,409.6L310.0,409.9L320.5,410.8L324.8,406.1L330.1,402.0L333.0,400.4L334.7,396.8L342.8,395.1L343.8,395.1L343.7,394.2L342.9,390.6L361.8,384.5L363.2,384.1L362.9,383.6L360.4,380.8L362.1,376.0L364.0,373.9L364.9,362.0L366.1,361.5L365.3,354.7L362.7,352.1L362.7,351.9L362.3,351.7Z " data-iso="ZMB" data-name="Zambia" data-pop="11862740.0"/><path d="M347.8,441.2L355.8,429.7L359.2,425.5L358.1,421.3L360.1,413.9L360.4,406.5L358.4,401.9L353.9,400.7L343.8,396.2L343.8,395.1L342.8,395.1L334.7,396.8L333.0,400.4L330.1,402.0L324.8,406.1L320.5,410.8L310.0,409.9L308.7,409.6L308.6,409.9L311.9,415.5L313.8,420.4L321.4,428.2L322.6,428.2L323.9,432.5L325.6,435.3L332.4,437.5L334.1,439.9L334.4,440.2L334.4,440.1L336.3,439.9L346.2,441.4L346.8,441.8L347.8,441.2Z " data-iso="ZWE" data-name="Zimbabwe" data-pop="11392629.0"/></g></svg>
