<?xml version="1.0" encoding="UTF-8"?><!DOCTYPE svg  PUBLIC '-//W3C//DTD SVG 1.1//EN'  'http://www.w3.org/Graphics/SVG/1.1/DTD/svg11.dtd'><svg enable_background="new 0 0 450 301" height="301px" style="stroke-linejoin: round; stroke:#000; fill:#f6f3f0;" version="1.1" viewBox="0 0 450 301" width="450px" xmlns="http://www.w3.org/2000/svg" xmlns:xlink="http://www.w3.org/1999/xlink"><defs><style type="text/css"><![CDATA[path { fill-rule: evenodd; }
#context path { fill: #eee; stroke: #bbb; } ]]></style></defs><metadata><views><view h="301.0" padding="0.06" w="450"><proj id="laea" lat0="35.2706768867" lon0="63.6043744844"/><bbox h="131.9" w="159.67" x="959.44" y="949.22"/><llbbox lat0="-90" lat1="90" lon0="-180" lon1="180"/></view></views></metadata><g id="context"><path d="M386,46L381,42L372,42L370,45L361,49L359,49L360,43L355,42L342,49L340,52L338,57L331,58L327,61L320,68L315,67L313,64L310,56L311,37L311,33L305,34L306,27L304,24L299,21L295,20L292,21L290,24L286,31L281,37L283,40L282,46L280,47L269,46L266,47L265,57L262,60L255,54L243,60L236,66L233,65L229,61L229,60L228,59L227,58L219,59L216,59L213,56L208,55L201,56L200,56L192,54L184,50L181,53L179,59L169,60L163,63L156,85L153,88L142,94L125,99L126,104L124,107L123,110L115,115L110,115L105,117L101,112L99,110L89,109L85,104L83,105L83,107L81,113L78,126L75,132L70,134L73,141L68,141L64,147L64,154L63,158L67,162L73,164L68,169L65,174L65,178L70,199L69,206L69,215L90,223L92,226L93,232L92,239L75,258L69,266L78,269L106,278L108,279L135,277L148,279L152,276L158,275L172,275L198,266L202,263L200,260L201,253L201,245L203,236L208,232L211,228L218,225L220,226L224,227L228,226L235,223L231,219L235,217L241,213L246,209L248,210L255,209L259,213L261,214L269,207L271,205L269,191L273,179L274,174L279,172L284,171L291,165L292,163L286,154L281,149L282,146L284,144L294,147L304,145L308,143L309,141L309,134L305,130L316,116L319,110L317,107L318,102L311,90L307,87L308,85L316,75L320,75L320,73L327,67L337,62L363,58L366,59L372,57L377,54L380,53L379,52L375,49L379,46L385,46L387,46L386,46Z " data-iso="AFG"/><path d="M387,46L385,46L379,46L375,49L379,52L380,53L381,52L383,52L387,54L389,53L398,53L403,57L405,57L411,61L413,67L414,72L413,76L417,77L422,82L428,79L429,82L433,84L434,84L437,85L441,86L450,87L450,0L357,0L356,4L358,10L363,11L364,9L369,8L374,9L381,13L381,17L386,31L385,35L390,39L391,41L387,45L387,46Z " data-iso="CHN"/><path d="M989,793L988,796L984,790L982,790L986,783L987,783L990,789L989,793Z M983,780L981,783L980,782L982,779L983,780Z M973,768L971,768L971,764L973,768Z M950,738L948,736L950,735L950,738Z M937,701L933,702L932,696L935,691L938,696L937,701Z M944,656L946,660L943,659L944,656Z M938,672L934,668L932,664L934,660L934,650L934,644L934,641L933,638L934,631L934,630L934,624L933,621L935,617L938,614L938,620L940,622L939,627L937,628L941,643L938,646L939,653L937,659L939,669L938,672Z M347,298L350,288L363,279L368,270L370,264L373,253L379,250L385,244L384,238L386,235L391,228L400,219L397,217L398,207L395,201L397,195L400,193L411,187L413,184L410,180L404,179L399,179L395,175L395,171L388,172L387,167L378,159L381,152L377,147L377,146L382,141L382,139L379,138L375,138L375,132L371,128L374,120L381,116L404,118L408,119L414,120L421,114L424,114L430,110L433,111L435,109L437,105L439,104L442,100L442,99L445,97L447,95L450,92L453,90L458,86L460,87L463,85L463,92L472,107L473,109L481,110L489,115L489,118L485,123L487,129L488,138L497,144L498,150L500,152L502,162L499,168L496,169L490,163L483,166L487,175L493,181L493,185L496,190L496,195L497,199L502,195L504,195L512,203L515,205L522,205L530,209L532,209L533,214L535,214L553,220L554,222L552,222L546,230L542,237L540,246L540,252L537,258L537,262L547,268L549,266L566,272L570,276L575,279L585,282L589,281L600,285L604,284L608,288L622,290L624,288L635,287L636,285L641,282L654,285L657,292L669,295L670,297L673,297L682,293L686,298L691,296L697,296L711,298L719,296L724,297L726,294L737,292L741,292L743,282L740,276L735,264L736,251L735,248L741,245L745,241L750,242L752,249L752,256L753,259L757,262L754,266L757,268L758,271L766,273L770,271L777,273L780,273L790,269L791,266L794,264L801,265L804,264L813,261L826,257L833,254L832,241L828,237L826,239L819,237L819,231L827,230L829,227L832,225L836,224L841,219L840,215L847,206L849,203L850,196L859,192L864,187L865,182L867,181L870,175L876,168L881,170L890,169L893,170L898,165L897,164L904,156L907,153L916,157L912,163L914,167L918,162L920,161L925,168L921,176L924,180L925,179L938,176L940,175L946,176L949,185L947,187L942,196L943,201L950,207L950,209L945,209L939,206L926,214L923,220L915,231L909,238L909,246L910,250L913,254L911,258L912,262L909,271L906,275L905,281L910,283L910,284L909,293L905,307L905,314L903,321L901,321L887,323L884,321L884,323L888,331L891,347L890,350L887,352L887,355L887,363L891,370L891,374L890,375L888,381L880,383L879,385L872,366L868,360L865,349L860,340L852,342L853,348L851,352L852,361L847,364L845,360L842,359L841,362L838,355L834,350L834,340L837,334L845,328L848,328L849,323L852,321L853,312L852,307L857,306L857,303L855,302L846,300L839,302L828,305L807,311L802,312L790,309L790,304L787,296L787,293L782,287L779,294L771,293L769,291L767,286L765,289L762,291L758,291L757,289L750,284L751,288L748,296L746,303L746,305L760,313L765,312L768,316L770,317L769,320L759,323L758,329L757,332L753,332L751,338L753,342L755,344L770,346L771,354L770,364L776,369L776,374L782,375L780,380L783,385L784,391L790,400L791,409L789,410L793,417L791,418L788,415L786,421L784,417L783,409L780,406L780,415L781,419L778,422L774,419L773,423L770,423L768,422L769,412L769,409L763,406L768,409L764,419L758,425L747,431L745,433L740,441L740,445L744,454L741,464L741,467L736,473L733,478L730,482L721,487L714,491L713,486L710,486L705,491L706,495L709,493L711,494L706,498L696,511L690,525L683,534L682,537L671,546L665,555L661,561L655,566L646,573L640,579L639,582L641,587L639,594L636,597L627,603L617,603L614,605L613,607L611,616L608,622L604,622L602,620L598,619L592,623L589,626L585,637L585,644L587,652L590,660L590,664L589,668L596,687L591,682L589,685L591,687L596,689L597,690L596,709L594,716L591,723L588,730L586,742L587,745L585,749L588,748L591,764L591,776L589,777L583,777L579,778L575,782L576,786L569,797L568,800L571,806L576,808L570,808L554,815L548,821L547,828L547,832L546,835L538,842L531,846L525,845L515,838L504,828L502,826L498,818L495,812L492,799L496,805L496,809L499,809L495,799L488,789L481,777L479,769L475,761L469,753L459,744L451,731L448,723L445,717L439,696L436,691L432,679L419,664L417,658L415,656L418,655L413,651L415,648L408,643L405,638L400,628L396,607L393,598L393,596L390,588L386,576L384,564L387,557L386,554L384,558L382,559L381,556L381,550L386,550L380,548L380,544L378,543L376,536L377,529L381,515L380,508L374,498L372,491L377,486L382,483L370,484L371,477L368,477L369,471L375,469L361,470L362,471L361,476L359,477L356,482L362,486L362,490L358,498L357,500L345,506L341,510L331,514L328,515L323,514L317,512L307,506L305,503L297,495L291,490L287,486L282,482L277,477L278,470L280,470L284,474L291,470L293,470L295,468L298,468L302,465L307,464L314,450L313,450L310,454L308,453L298,457L293,460L282,458L271,453L266,449L260,439L261,437L269,431L265,432L258,438L255,439L253,431L259,429L267,428L267,419L288,418L295,421L298,420L302,417L313,412L314,416L320,416L322,414L326,412L324,407L326,404L319,390L314,384L314,379L312,377L304,377L300,372L300,356L298,353L290,352L283,348L285,337L292,328L298,317L304,312L310,314L310,317L314,320L316,320L326,315L332,314L340,311L342,305L346,300L347,298Z " data-iso="IND"/><path d="M69,266L70,265L75,258L92,239L93,232L92,226L90,223L69,215L69,206L70,199L65,178L65,174L68,169L73,164L67,162L63,158L64,154L64,147L68,141L73,141L70,134L75,132L78,126L81,113L83,107L83,105L82,104L83,98L80,95L82,91L81,78L80,76L63,76L57,66L54,64L44,58L42,55L41,52L33,46L30,45L24,45L22,46L18,45L15,41L0,36L0,299L90,299L81,282L81,281L73,271L69,266Z " data-iso="IRN"/><path d="M434,84L435,87L437,90L441,97L442,99L445,97L447,95L450,92L450,92L450,87L441,86L437,85L434,84Z " data-iso="KAS"/><path d="M347,298L350,288L363,279L368,270L370,264L373,253L379,250L385,244L384,238L386,235L391,228L400,219L397,217L398,207L395,201L397,195L400,193L411,187L413,184L410,180L404,179L399,179L395,175L395,171L388,172L387,167L378,159L381,152L377,147L377,146L382,141L382,139L379,138L375,138L375,132L371,128L374,120L381,116L404,118L408,119L414,120L421,114L424,114L430,110L433,111L435,109L437,105L439,104L442,100L442,99L441,97L437,90L435,87L434,84L433,84L429,82L428,79L422,82L417,77L413,76L414,72L413,67L411,61L405,57L403,57L398,53L389,53L387,54L383,52L381,52L380,53L377,54L372,57L366,59L363,58L337,62L327,67L320,73L320,75L316,75L308,85L307,87L311,90L318,102L317,107L319,110L316,116L305,130L309,134L309,141L308,143L304,145L294,147L284,144L282,146L281,149L286,154L292,163L291,165L284,171L279,172L274,174L273,179L269,191L271,205L269,207L261,214L259,213L255,209L248,210L246,209L241,213L235,217L231,219L235,223L228,226L224,227L220,226L218,225L211,228L208,232L203,236L201,245L201,253L200,260L202,263L198,266L172,275L158,275L152,276L148,279L135,277L108,279L106,278L78,269L69,266L73,271L81,281L81,282L90,299L346,299L347,298Z " data-iso="PAK"/><path d="M229,60L229,61L233,65L236,66L243,60L255,54L262,60L265,57L266,47L269,46L280,47L282,46L283,40L281,37L286,31L290,24L292,21L295,20L299,21L304,24L306,27L305,34L311,33L311,37L310,56L313,64L315,67L320,68L327,61L331,58L338,57L340,52L342,49L355,42L360,43L359,49L361,49L370,45L372,42L381,42L386,46L387,46L387,45L391,41L390,39L385,35L386,31L381,17L381,13L374,9L369,8L364,9L363,11L358,10L356,4L357,0L218,0L218,4L224,6L224,9L233,9L235,12L233,18L235,26L240,30L240,33L229,51L229,58L229,60Z " data-iso="TJK"/><path d="M83,105L85,104L89,109L99,110L101,112L105,117L110,115L115,115L123,110L124,107L126,104L125,99L142,94L153,88L156,85L163,63L169,60L179,59L181,53L184,50L192,54L200,56L201,56L200,53L201,44L203,40L201,37L185,31L180,32L156,16L151,11L148,12L138,6L133,0L0,0L0,36L15,41L18,45L22,46L24,45L30,45L33,46L41,52L42,55L44,58L54,64L57,66L63,76L80,76L81,78L82,91L80,95L83,98L82,104L83,105Z " data-iso="TKM"/><path d="M201,56L208,55L213,56L216,59L219,59L227,58L228,59L229,60L229,58L229,51L240,33L240,30L235,26L233,18L235,12L233,9L224,9L224,6L218,4L218,0L133,0L138,6L148,12L151,11L156,16L180,32L185,31L201,37L203,40L201,44L200,53L201,56Z " data-iso="UZB"/></g><g fill="red" fill-opacity="0.35" id="regions"><path d="M142,94L130,99L124,99L124,111L118,113L118,113L114,122L114,126L121,130L122,130L126,134L128,133L136,135L141,136L145,135L150,132L153,132L156,132L156,131L157,131L161,131L169,128L169,125L168,122L162,118L162,117L161,117L157,117L155,116L154,111L152,111L151,110L145,109L144,104L142,103L143,100L143,94L142,94Z " data-fips="AF02" data-fips-="" data-iso3="AFG" data-name="Badghis" data-p="BDG"/><path d="M73,163L81,165L89,164L93,165L93,170L94,174L91,181L95,183L98,181L100,184L107,182L109,178L111,177L119,174L122,174L125,170L125,170L125,169L124,163L134,159L131,149L133,143L148,144L150,137L155,136L156,134L156,132L153,132L150,132L145,135L141,136L136,135L128,133L126,134L122,130L121,130L114,126L114,122L118,113L117,114L113,116L110,115L106,118L104,114L99,110L90,110L86,107L85,105L81,111L81,113L79,117L80,119L78,126L75,131L69,135L73,141L68,141L64,146L64,160L73,163L73,163Z " data-fips="AF11" data-fips-="" data-iso3="AFG" data-name="Hirat" data-p="HER"/><path d="M236,108L231,108L226,108L214,111L211,111L210,111L209,111L206,116L203,117L199,117L198,119L199,124L199,124L200,124L204,127L209,132L208,134L204,138L202,139L202,139L204,142L204,148L205,150L210,149L216,151L222,148L223,148L223,147L223,147L223,146L224,146L225,145L224,145L227,141L223,139L224,138L221,137L222,135L221,131L225,130L237,132L238,129L241,127L243,126L243,126L242,122L242,121L241,120L241,120L237,116L237,115L238,108L238,107L236,108Z " data-fips="AF05" data-fips-="" data-iso3="AFG" data-name="Bamyan" data-p="BAM"/><path d="M195,56L201,63L200,67L202,71L199,72L201,77L202,77L204,78L201,87L204,89L204,97L202,103L210,102L211,101L211,101L214,92L220,87L222,79L221,77L223,75L231,76L237,77L239,76L239,75L238,74L237,73L235,67L235,67L231,63L230,63L228,58L224,58L222,57L217,60L214,56L210,55L205,56L202,55L195,56L195,56Z " data-fips="AF30" data-fips-="" data-iso3="AFG" data-name="Balkh" data-p="BAL"/><path d="M168,60L162,64L162,69L159,75L159,80L156,86L151,89L151,90L148,91L146,93L143,94L143,94L143,100L142,103L144,104L145,109L151,110L152,111L154,111L155,116L157,117L161,117L162,117L163,116L168,116L175,117L177,116L178,115L178,115L179,104L183,101L183,100L186,99L184,94L183,94L183,94L171,96L172,88L174,84L178,84L175,66L178,60L168,60Z " data-fips="AF07" data-fips-="" data-iso3="AFG" data-name="Faryab" data-p="FYB"/><path d="M178,60L175,66L178,84L174,84L172,88L171,96L183,94L183,94L183,94L180,95L179,87L180,85L183,84L186,82L191,79L195,79L201,78L202,77L201,77L199,72L202,71L200,67L201,63L195,56L195,56L191,54L186,52L184,50L181,53L181,55L178,60L178,60Z " data-fips="AF31" data-fips-="AF07" data-iso3="AFG" data-name="Jawzjan" data-p="JOW"/><path d="M199,124L197,124L195,127L193,127L191,122L192,122L186,119L182,115L178,116L178,115L177,116L175,117L168,116L163,116L162,117L162,118L168,122L169,125L169,128L161,131L157,131L156,131L156,132L156,134L155,136L150,137L148,144L133,143L131,149L134,159L124,163L125,169L125,170L126,170L136,169L141,166L145,165L150,174L154,174L158,170L161,172L162,172L163,172L164,173L166,171L173,168L174,168L174,168L177,166L178,165L181,162L179,156L178,153L181,150L179,146L180,141L190,141L195,140L196,138L199,139L202,139L202,139L204,138L208,134L209,132L204,127L200,124L199,124L199,124Z " data-fips="AF09" data-fips-="" data-iso3="AFG" data-name="Ghor" data-p="GHO"/><path d="M210,102L202,103L204,97L204,89L201,87L204,78L202,77L201,78L195,79L191,79L186,82L183,84L180,85L179,87L180,95L183,94L183,94L184,94L186,99L183,100L183,101L179,104L178,115L178,115L178,116L182,115L186,119L192,122L191,122L193,127L195,127L197,124L199,124L199,124L199,124L198,119L199,117L203,117L206,116L209,111L210,111L210,111L213,107L213,106L213,102L211,101L210,102Z " data-fips="AF33" data-fips-="AF31" data-iso3="AFG" data-name="Sari Pul" data-p="SAR"/><path d="M125,170L125,170L122,174L119,174L111,177L109,178L107,182L100,184L98,181L95,183L91,181L94,174L93,170L93,165L89,164L81,165L73,163L73,164L72,164L71,166L69,167L65,173L65,178L70,199L69,206L69,211L70,220L88,223L95,210L97,208L97,206L107,205L111,205L115,208L122,207L124,200L134,201L134,201L135,201L139,198L143,195L145,191L150,190L152,188L154,183L159,181L158,180L160,176L162,175L162,172L162,172L161,172L158,170L154,174L150,174L145,165L141,166L136,169L126,170L125,170Z " data-fips="AF06" data-fips-="" data-iso3="AFG" data-name="Farah" data-p="FRA"/><path d="M174,168L173,168L166,171L164,173L163,172L162,172L162,172L162,175L160,176L158,180L159,181L154,183L152,188L150,190L145,191L143,195L139,198L135,201L134,201L134,202L133,209L132,210L129,226L129,227L128,232L126,236L123,244L123,245L122,249L118,256L116,257L116,258L112,279L135,277L145,278L151,276L157,274L158,274L161,256L161,251L162,242L163,223L165,211L174,199L175,197L175,196L176,190L173,186L174,179L176,176L177,176L177,175L177,173L176,170L174,169L174,168Z " data-fips="AF10" data-fips-="" data-iso3="AFG" data-name="Hilmand" data-p="HEL"/><path d="M90,223L92,229L93,234L93,238L70,266L106,278L108,279L112,279L116,258L116,257L118,256L122,249L123,245L123,244L126,236L128,232L129,227L129,226L132,210L133,209L134,202L134,201L134,201L124,200L122,207L115,208L111,205L107,205L97,206L97,208L95,210L88,223L90,223Z " data-fips="AF19" data-fips-="" data-iso3="AFG" data-name="Nimroz" data-p="NIM"/><path d="M211,170L208,170L205,171L199,169L195,172L193,176L184,175L180,174L180,176L178,176L177,176L176,176L174,179L173,186L176,190L175,196L175,197L175,197L179,198L182,191L183,190L186,190L186,194L189,193L193,193L193,194L197,194L200,192L200,192L200,192L202,187L206,184L208,186L211,183L215,182L216,181L216,179L216,179L214,178L215,172L215,170L212,170L211,170L211,170Z " data-fips="AF39" data-fips-="AF20" data-iso3="AFG" data-name="Uruzgan" data-p="URU"/><path d="M202,139L199,139L196,138L195,140L190,141L180,141L179,146L181,150L178,153L179,156L181,162L178,165L177,166L174,168L174,168L174,169L176,170L177,173L177,175L177,176L178,176L180,176L180,174L184,175L193,176L195,172L199,169L205,171L208,170L211,170L211,170L211,168L212,165L211,162L214,160L220,158L224,153L223,148L223,148L222,148L216,151L210,149L205,150L204,148L204,142L202,139L202,139L202,139Z " data-fips="AF41" data-fips-="AF20|AF39" data-iso3="AFG" data-name="Uruzgan" data-p="DAY"/><path d="M175,197L174,199L165,211L163,223L162,242L161,251L161,256L158,274L166,274L171,275L199,266L202,263L200,259L201,255L202,249L200,245L202,236L207,234L210,228L215,225L218,225L219,227L222,227L229,226L234,223L235,221L233,222L231,218L234,218L235,217L232,217L227,217L225,215L222,213L218,213L209,209L206,212L202,213L201,214L198,212L197,210L201,208L200,200L205,194L205,191L204,190L201,192L200,192L200,192L197,194L193,194L193,193L189,193L186,194L186,190L183,190L182,191L179,198L175,197L175,197Z " data-fips="AF23" data-fips-="" data-iso3="AFG" data-name="Kandahar" data-p="KAN"/><path d="M216,179L216,181L215,182L211,183L208,186L206,184L202,187L200,192L200,192L201,192L204,190L205,191L205,194L200,200L201,208L197,210L198,212L201,214L202,213L206,212L209,209L218,213L222,213L225,215L227,217L232,217L235,217L236,217L237,215L243,211L243,211L241,209L241,207L242,203L241,202L240,202L239,202L234,201L233,198L231,197L234,194L230,190L232,189L226,183L226,177L224,178L218,175L217,179L216,179Z " data-fips="AF28" data-fips-="" data-iso3="AFG" data-name="Zabul" data-p="ZAB"/><path d="M254,154L251,157L249,156L245,151L239,143L234,144L230,143L226,145L225,145L224,146L223,146L223,147L223,147L223,148L223,148L224,153L220,158L214,160L211,162L212,165L211,168L211,170L212,170L215,170L215,172L214,178L216,179L216,179L217,179L218,175L224,178L226,177L226,183L232,189L230,190L234,194L231,197L233,198L234,201L239,202L240,202L241,202L242,200L242,192L235,185L237,182L240,184L243,184L248,179L250,173L255,167L256,165L257,165L257,164L257,163L256,159L256,158L256,158L256,156L255,154L255,153L254,154Z " data-fips="AF08" data-fips-="" data-iso3="AFG" data-name="Ghazni" data-p="GHA"/><path d="M285,153L280,157L276,158L275,163L272,167L271,168L271,169L272,170L271,172L274,174L274,174L274,173L282,172L286,170L287,168L288,168L292,164L288,158L289,157L285,153L285,153Z " data-fips="AF37" data-fips-="AF21" data-iso3="AFG" data-name="Khost" data-p="KHO"/><path d="M257,165L256,165L255,167L250,173L248,179L243,184L240,184L237,182L235,185L242,192L242,200L241,202L242,203L241,207L241,209L243,211L243,211L244,209L249,211L252,209L257,210L257,211L264,213L267,210L271,204L270,202L269,190L272,187L274,179L273,175L274,174L271,172L272,170L271,169L271,168L271,168L267,168L262,171L262,166L260,164L258,164L257,165Z " data-fips="AF29" data-fips-="" data-iso3="AFG" data-name="Paktika" data-p="PKA"/><path d="M278,47L278,55L280,59L279,72L283,78L285,81L291,81L291,90L287,94L287,94L287,95L287,96L287,99L286,99L288,99L290,98L294,101L294,104L298,103L301,102L304,97L307,87L307,87L310,82L315,79L319,76L320,73L322,73L328,68L328,66L336,63L343,62L350,60L352,60L360,58L369,59L376,54L378,53L379,54L380,53L375,49L383,45L384,46L385,44L380,42L371,43L370,45L366,47L362,49L358,47L360,47L360,43L355,42L350,44L346,48L344,48L338,57L334,57L326,62L320,67L317,68L314,67L311,61L310,58L310,54L311,51L311,42L312,34L311,34L307,35L305,34L306,25L299,21L297,19L293,21L291,22L288,26L287,30L281,35L281,37L283,39L284,42L281,47L278,47L278,47Z " data-fips="AF01" data-fips-="" data-iso3="AFG" data-name="Badakhshan" data-p="BDS"/><path d="M307,87L304,97L301,102L298,103L294,104L294,101L290,98L288,99L286,99L286,100L285,103L281,107L281,110L281,111L281,112L283,114L286,116L291,120L295,118L295,117L296,115L297,113L302,115L306,114L309,109L312,106L318,102L318,102L315,97L313,92L307,87L307,87Z " data-fips="AF38" data-fips-="AF15" data-iso3="AFG" data-name="Nuristan" data-p="NUR"/><path d="M318,102L312,106L309,109L306,114L302,115L297,113L296,115L295,117L296,118L296,118L297,121L297,122L297,123L297,123L298,126L302,129L306,129L306,129L309,124L316,117L319,110L317,108L318,104L318,103L318,102Z " data-fips="AF34" data-fips-="AF15" data-iso3="AFG" data-name="Kunar" data-p="KNR"/><path d="M235,67L237,73L238,74L239,75L239,76L239,76L240,76L241,76L251,77L254,80L262,82L262,83L262,82L261,78L262,76L262,70L263,67L263,60L263,60L262,60L256,54L252,57L249,56L240,61L240,64L238,64L235,67L235,67Z " data-fips="AF24" data-fips-="" data-iso3="AFG" data-name="Kunduz" data-p="KDZ"/><path d="M297,123L296,123NANL294,125L292,131L289,133L280,135L279,135L276,135L275,138L272,141L272,142L272,142L278,140L280,142L281,144L282,145L282,145L282,145L282,145L296,147L304,146L309,137L309,135L306,131L305,129L306,129L302,129L298,126L297,123L297,123Z " data-fips="AF18" data-fips-="" data-iso3="AFG" data-name="Nangarhar" data-p="NAN"/><path d="M263,60L263,67L262,70L262,76L261,78L262,82L262,83L263,83L266,84L273,81L275,84L276,88L280,93L280,95L280,95L284,95L285,94L286,93L287,94L287,94L291,90L291,81L285,81L283,78L279,72L280,59L278,55L278,47L278,47L275,45L273,46L267,46L264,51L266,57L263,60L263,60Z " data-fips="AF26" data-fips-="" data-iso3="AFG" data-name="Takhar" data-p="TAK"/><path d="M262,82L254,80L251,77L241,76L240,76L240,77L239,79L242,83L247,88L243,92L243,95L239,101L239,106L238,107L238,108L237,115L237,116L241,120L241,120L241,120L251,116L255,112L260,111L265,108L265,108L266,108L270,106L276,103L280,96L280,95L280,93L276,88L275,84L273,81L266,84L263,83L262,83L262,82Z " data-fips="AF03" data-fips-="" data-iso3="AFG" data-name="Baghlan" data-p="BGL"/><path d="M273,128L270,130L269,126L267,124L264,122L259,122L257,128L257,129L257,130L257,131L257,133L260,137L260,138L263,139L268,138L270,140L272,143L272,142L272,141L275,138L276,135L279,135L279,134L279,130L280,127L281,124L280,122L280,123L278,124L276,128L274,129L274,128L273,128Z " data-fips="AF13" data-fips-="" data-iso3="AFG" data-name="Kabul" data-p="KAB"/><path d="M277,115L274,114L271,114L266,114L266,114L266,116L269,121L273,121L274,127L274,128L274,129L276,128L278,124L280,123L280,122L281,122L279,118L278,117L278,116L277,115Z " data-fips="AF14" data-fips-="" data-iso3="AFG" data-name="Kapisa" data-p="KAP"/><path d="M286,93L285,94L284,95L280,95L280,95L280,96L276,103L270,106L266,108L265,108L265,109L265,110L265,115L266,114L266,114L271,114L274,114L277,115L278,116L278,115L278,115L281,112L281,111L281,110L281,107L285,103L286,100L286,99L287,99L287,96L287,95L287,94L286,93Z " data-fips="AF42" data-fips-="AF14|AF40" data-iso3="AFG" data-name="Parwan" data-p="PAN"/><path d="M295,118L291,120L286,116L283,114L281,112L281,111L281,112L278,115L278,115L278,116L278,117L279,118L281,122L280,122L281,124L280,127L279,130L279,134L279,135L280,135L289,133L292,131L294,125L296,123L297,123L297,122L297,121L296,118L296,118L295,117L295,118Z " data-fips="AF35" data-fips-="AF16" data-iso3="AFG" data-name="Laghman" data-p="LAG"/><path d="M272,143L270,140L268,138L263,139L260,138L259,138L256,144L255,153L255,153L255,154L256,156L256,158L256,158L260,158L266,153L268,152L277,145L280,144L282,145L281,144L280,142L278,140L272,142L272,142L272,143Z " data-fips="AF17" data-fips-="" data-iso3="AFG" data-name="Logar" data-p="LOG"/><path d="M265,108L260,111L255,112L251,116L241,120L241,120L242,121L242,122L243,126L243,126L244,126L246,130L249,129L257,130L257,130L257,129L257,128L259,122L264,122L267,124L269,126L270,130L273,128L274,128L274,127L273,121L269,121L266,116L266,114L265,115L265,110L265,109L265,108L265,108Z " data-fips="AF40" data-fips-="AF22" data-iso3="AFG" data-name="Parwan" data-p="PAR"/><path d="M237,77L231,76L223,75L221,77L222,79L220,87L214,92L211,101L211,101L213,102L213,106L213,107L210,111L210,111L211,111L214,111L226,108L231,108L236,108L238,107L239,106L239,101L243,95L243,92L247,88L242,83L239,79L240,77L240,76L239,76L239,76L237,77Z " data-fips="AF32" data-fips-="" data-iso3="AFG" data-name="Samangan" data-p="SAM"/><path d="M257,130L249,129L246,130L244,126L243,126L241,127L238,129L237,132L225,130L221,131L222,135L221,137L224,138L223,139L227,141L224,145L225,145L226,145L230,143L234,144L239,143L245,151L249,156L251,157L254,154L255,153L255,153L256,144L259,138L260,138L260,137L257,133L257,131L257,130L257,130Z " data-fips="AF27" data-fips-="" data-iso3="AFG" data-name="Wardak" data-p="WAR"/><path d="M282,145L282,145L282,145L280,144L277,145L268,152L266,153L260,158L256,158L256,159L257,163L257,164L257,165L258,164L260,164L262,166L262,171L267,168L271,168L271,168L272,167L275,163L276,158L280,157L285,153L284,153L282,151L281,147L282,145L282,145Z " data-fips="AF36" data-fips-="" data-iso3="AFG" data-name="Paktya" data-p="PIA"/></g></svg>