<?xml version="1.0" encoding="UTF-8"?><!DOCTYPE svg  PUBLIC '-//W3C//DTD SVG 1.1//EN'  'http://www.w3.org/Graphics/SVG/1.1/DTD/svg11.dtd'><svg enable_background="new 0 0 450 301" height="301px" style="stroke-linejoin: round; stroke:#000; fill:#f6f3f0;" version="1.1" viewBox="0 0 450 301" width="450px" xmlns="http://www.w3.org/2000/svg" xmlns:xlink="http://www.w3.org/1999/xlink"><defs><style type="text/css"><![CDATA[path { fill-rule: evenodd; }
#context path { fill: #eee; stroke: #bbb; } ]]></style></defs><metadata><views><view h="301.0" padding="0.06" w="450"><proj id="laea" lat0="-8.66605986887" lon0="19.2639551162"/><bbox h="185.41" w="165.85" x="901.07" y="938.97"/><llbbox lat0="-90" lat1="90" lon0="-180" lon1="180"/></view></views></metadata><g id="context"><path d="M127,44L123,46L113,48L113,49L118,58L124,65L124,71L129,82L135,93L135,100L129,106L128,106L131,114L135,126L138,131L139,134L145,147L144,155L144,162L141,171L137,176L129,181L127,186L121,195L120,201L118,207L116,219L113,231L112,236L109,241L107,243L108,246L109,256L108,263L108,271L119,270L123,270L133,265L145,270L151,273L162,273L234,272L236,273L240,278L242,279L268,281L272,282L279,284L289,283L291,284L323,278L329,277L325,274L309,258L304,250L303,244L303,185L341,185L341,180L343,174L342,168L343,158L344,153L343,146L343,143L342,143L340,146L332,145L327,147L314,147L310,149L309,148L310,139L310,133L306,122L301,115L301,109L303,99L303,92L301,88L300,83L302,77L301,72L277,71L276,68L277,64L259,66L256,68L255,75L254,76L252,85L248,85L237,84L218,87L217,87L209,75L206,71L201,58L200,50L197,45L195,44L181,43L154,44L146,43L133,44L128,44L127,44Z M128,19L127,19L124,15L121,16L114,19L113,22L111,22L107,27L108,27L110,33L111,36L111,41L111,42L117,41L117,30L116,28L123,21L128,19L128,19Z " data-iso="AGO"/><path d="M450,0L448,0L448,6L450,9L450,0Z " data-iso="BDI"/><path d="M365,281L364,281L356,282L351,286L348,284L343,286L335,293L333,294L330,289L326,284L303,288L288,290L283,290L283,299L374,299L368,290L367,288L364,282L365,281Z " data-iso="BWA"/><path d="M186,0L183,5L178,7L174,11L171,12L162,23L155,23L155,15L153,12L145,16L141,15L140,20L134,23L128,18L128,19L128,19L123,21L116,28L117,30L117,41L111,42L112,43L113,44L117,47L127,43L128,44L133,44L146,43L154,44L181,43L195,44L197,45L200,50L201,58L206,71L209,75L217,87L218,87L237,84L248,85L252,85L254,76L255,75L256,68L259,66L277,64L276,68L277,71L301,72L302,77L300,83L301,88L303,92L303,99L301,109L301,115L306,122L310,133L310,139L309,148L310,149L314,147L327,147L332,145L340,146L342,143L343,143L343,143L350,148L350,153L353,154L369,151L368,152L373,161L384,164L396,166L398,166L402,160L405,158L406,162L410,166L414,172L418,173L432,184L433,184L441,195L443,195L450,193L450,172L441,174L430,163L428,157L432,143L434,141L434,124L430,113L436,108L439,103L440,97L450,96L450,9L448,6L448,0L186,0Z " data-iso="COD"/><path d="M94,10L95,11L102,18L107,26L107,27L111,22L113,22L114,19L121,16L124,15L127,19L128,19L128,18L134,23L140,20L141,15L145,16L153,12L155,15L155,23L162,23L171,12L174,11L178,7L183,5L186,0L104,0L100,0L92,0L89,5L94,10Z " data-iso="COG"/><path d="M89,5L92,0L85,0L86,0L87,4L89,5Z " data-iso="GAB"/><path d="M365,281L362,278L355,275L346,274L333,277L329,277L323,278L291,284L289,283L279,284L272,282L268,281L242,279L240,278L236,273L234,272L162,273L151,273L145,270L133,265L123,270L119,270L108,271L107,275L109,286L112,291L118,299L283,299L283,290L288,290L303,288L326,284L330,289L333,294L335,293L343,286L348,284L351,286L356,282L364,281L365,281Z " data-iso="NAM"/><path d="M343,143L343,146L344,153L343,158L342,168L343,174L341,180L341,185L303,185L303,244L304,250L309,258L325,274L329,277L333,277L346,274L355,275L362,278L365,281L368,282L374,282L376,284L381,284L385,284L390,286L393,287L398,285L410,272L413,268L416,264L434,256L435,248L443,243L450,241L450,193L443,195L441,195L433,184L432,184L418,173L414,172L410,166L406,162L405,158L402,160L398,166L396,166L384,164L373,161L368,152L369,151L353,154L350,153L350,148L343,143L343,143Z M450,96L440,97L439,103L436,108L430,113L434,124L434,141L432,143L428,157L430,163L441,174L450,172L450,96Z " data-iso="ZMB"/><path d="M365,281L364,282L367,288L368,290L374,299L450,299L450,241L443,243L435,248L434,256L416,264L413,268L410,272L398,285L393,287L390,286L385,284L381,284L376,284L374,282L368,282L365,281Z " data-iso="ZWE"/></g><g fill="red" fill-opacity="0.35" id="regions"><path d="M217,87L217,91L217,95L218,98L217,108L217,110L213,112L214,117L220,121L231,125L230,129L230,131L235,133L235,133L235,133L238,133L244,130L247,130L257,125L263,121L266,114L269,111L272,110L273,107L277,106L285,98L288,97L296,96L297,95L303,92L303,92L300,85L300,84L302,77L301,72L276,71L276,68L272,64L271,65L256,65L255,68L255,76L252,83L253,85L241,85L240,84L236,84L236,85L228,87L223,86L222,87L217,87L217,87Z " data-fips="AO17" data-fips-="" data-iso3="AGO" data-name="Lunda Norte" data-p="LNO"/><path d="M303,92L297,95L296,96L288,97L285,98L277,106L273,107L272,110L269,111L266,114L263,121L257,125L247,130L244,130L238,133L235,133L235,133L236,133L238,140L239,141L241,144L241,144L245,147L249,149L250,150L249,153L249,154L250,154L255,152L257,150L261,151L269,149L280,154L285,153L289,150L298,148L298,146L300,139L305,137L310,137L310,137L310,134L307,124L306,123L302,118L301,107L303,98L303,92L303,92Z " data-fips="AO18" data-fips-="" data-iso3="AGO" data-name="Lunda Sul" data-p="LSU"/><path d="M183,90L183,91L180,99L181,99L180,108L173,110L172,112L170,119L169,120L169,120L173,122L182,121L183,120L191,120L194,125L194,130L199,136L199,137L199,137L200,139L212,142L215,147L217,154L216,154L218,159L221,158L223,155L233,156L238,153L242,152L241,145L241,144L241,144L239,141L238,140L236,133L235,133L235,133L230,131L230,129L231,125L220,121L214,117L213,112L217,110L217,108L218,98L217,95L217,91L217,87L217,86L215,83L212,79L211,78L208,73L208,73L206,74L205,77L202,76L198,72L195,73L188,79L189,83L188,88L184,90L183,90Z " data-fips="AO12" data-fips-="" data-iso3="AGO" data-name="Malanje" data-p="MAL"/><path d="M160,92L161,84L160,83L155,84L154,83L149,79L145,79L143,78L143,78L135,80L132,81L129,82L130,83L132,89L135,92L135,97L135,98L139,99L140,101L138,105L136,109L131,113L131,113L132,120L133,122L134,125L137,130L138,131L141,131L142,133L148,134L152,131L153,131L157,134L159,123L159,121L159,121L151,118L149,116L151,110L149,105L155,100L152,95L156,94L160,94L160,94L160,92Z " data-fips="AO19" data-fips-="" data-iso3="AGO" data-name="Bengo" data-p="BGO"/><path d="M183,89L181,86L176,86L171,85L171,89L167,92L165,91L163,94L161,94L160,94L160,94L156,94L152,95L155,100L149,105L151,110L149,116L151,118L159,121L159,121L159,121L163,120L166,120L169,120L169,120L170,119L172,112L173,110L180,108L181,99L180,99L183,91L183,90L183,89Z " data-fips="AO05" data-fips-="" data-iso3="AGO" data-name="Cuanza Norte" data-p="CNO"/><path d="M169,120L166,120L163,120L159,121L159,121L159,123L157,134L153,131L152,131L148,134L142,133L141,131L138,131L138,131L138,134L143,140L145,148L144,157L144,161L150,161L153,166L158,162L161,167L165,167L168,169L168,169L169,167L175,165L175,158L176,156L182,155L182,154L183,153L186,144L187,145L191,145L198,137L199,137L199,136L194,130L194,125L191,120L183,120L182,121L173,122L169,120L169,120L169,120Z " data-fips="AO06" data-fips-="" data-iso3="AGO" data-name="Cuanza Sul" data-p="CUS"/><path d="M135,98L135,101L129,106L130,112L131,113L136,109L138,105L140,101L139,99L135,98L135,98Z " data-fips="AO10" data-fips-="AO20" data-iso3="AGO" data-name="Luanda" data-p="LUA"/><path d="M162,43L164,50L164,53L162,56L153,60L151,62L145,65L143,65L145,70L144,72L144,77L143,78L145,79L149,79L154,83L155,84L160,83L161,84L160,92L160,94L161,94L163,94L165,91L167,92L171,89L171,85L176,86L181,86L183,89L183,90L184,90L188,88L189,83L188,79L195,73L198,72L202,76L205,77L206,74L208,73L208,73L205,67L205,64L201,57L200,55L201,49L198,47L198,44L196,43L188,43L165,43L162,43Z " data-fips="AO15" data-fips-="" data-iso3="AGO" data-name="Uge" data-p="UIG"/><path d="M129,82L132,81L135,80L143,78L143,78L144,77L144,72L145,70L143,65L145,65L151,62L153,60L162,56L164,53L164,50L162,43L161,44L145,43L126,44L125,46L112,48L112,49L118,59L123,65L125,71L127,77L129,82Z " data-fips="AO16" data-fips-="" data-iso3="AGO" data-name="Zaire" data-p="ZAI"/><path d="M123,15L119,18L117,18L110,22L108,29L111,35L111,42L117,41L117,30L116,28L122,23L122,22L128,20L123,15Z " data-fips="AO03" data-fips-="" data-iso3="AGO" data-name="Cabinda" data-p="CAB"/><path d="M241,145L242,152L238,153L233,156L223,155L221,158L218,159L216,154L217,154L215,147L212,142L200,139L199,137L199,137L198,137L191,145L187,145L186,144L183,153L182,154L184,155L188,154L193,156L199,164L196,168L195,169L194,177L197,180L198,190L198,192L198,193L198,194L198,198L197,202L197,205L197,205L201,204L204,205L212,211L213,211L214,208L217,205L220,204L225,197L225,196L225,195L228,190L227,188L230,183L229,182L232,179L234,175L236,172L240,169L243,165L243,164L245,159L247,158L249,154L249,154L249,153L250,150L249,149L245,147L241,144L241,145Z " data-fips="AO02" data-fips-="" data-iso3="AGO" data-name="Bi" data-p="BIE"/><path d="M168,169L165,167L161,167L158,162L153,166L150,161L144,161L144,161L140,173L138,174L131,180L128,182L129,185L125,190L121,197L121,197L122,197L128,198L132,196L135,199L137,202L140,203L141,202L143,202L155,203L162,198L170,195L170,193L170,193L167,189L167,187L164,181L164,179L169,176L168,172L168,169L168,169Z " data-fips="AO01" data-fips-="" data-iso3="AGO" data-name="Benguela" data-p="BGU"/><path d="M225,196L225,197L220,204L217,205L214,208L213,211L212,211L204,205L201,204L197,205L197,205L197,205L197,210L198,213L198,217L199,218L202,227L202,228L203,228L204,231L208,234L211,236L213,241L215,249L212,261L213,269L213,272L235,272L241,278L244,280L250,280L254,281L264,281L279,284L286,283L291,284L329,277L327,275L326,275L313,263L310,258L305,255L304,249L303,248L300,246L292,236L292,233L289,230L287,230L283,225L278,224L273,224L266,222L259,215L256,210L250,210L249,212L244,212L242,206L237,201L231,199L226,196L225,196Z " data-fips="AO04" data-fips-="" data-iso3="AGO" data-name="Cuando Cubango" data-p="CCU"/><path d="M202,228L200,228L196,228L189,233L183,233L178,236L174,243L172,246L170,246L168,243L164,242L152,247L149,248L146,251L141,251L140,250L139,252L135,257L134,258L138,265L138,265L140,265L141,268L150,273L155,273L213,272L213,269L212,261L215,249L213,241L211,236L208,234L204,231L203,228L202,228Z " data-fips="AO07" data-fips-="" data-iso3="AGO" data-name="Cunene" data-p="CNN"/><path d="M198,190L197,180L194,177L195,169L196,168L199,164L193,156L188,154L184,155L182,154L182,155L176,156L175,158L175,165L169,167L168,169L168,172L169,176L164,179L164,181L167,187L167,189L170,193L170,193L171,193L175,195L176,197L179,200L188,193L189,194L196,192L198,192L198,190Z " data-fips="AO08" data-fips-="" data-iso3="AGO" data-name="Huambo" data-p="HUA"/><path d="M196,192L189,194L188,193L179,200L176,197L175,195L171,193L170,193L170,195L162,198L155,203L143,202L141,202L141,203L143,211L143,214L141,220L136,224L135,227L137,232L138,232L141,236L142,243L140,250L140,250L141,251L146,251L149,248L152,247L164,242L168,243L170,246L172,246L174,243L178,236L183,233L189,233L196,228L200,228L202,228L202,227L199,218L198,217L198,213L197,210L197,205L197,205L197,202L198,198L198,194L198,193L198,192L196,192Z " data-fips="AO09" data-fips-="" data-iso3="AGO" data-name="Hula" data-p="HUI"/><path d="M249,154L249,154L247,158L245,159L243,164L243,165L240,169L236,172L234,175L232,179L229,182L230,183L227,188L228,190L225,195L225,196L226,196L231,199L237,201L242,206L244,212L249,212L250,210L256,210L259,215L266,222L273,224L278,224L283,225L287,230L289,230L292,233L292,236L300,246L303,248L303,248L304,185L343,185L341,182L341,177L343,173L342,169L343,161L343,159L344,151L343,146L333,145L328,147L324,147L318,147L309,150L309,149L308,142L309,141L310,138L310,137L305,137L300,139L298,146L298,148L289,150L285,153L280,154L269,149L261,151L257,150L255,152L250,154L249,154Z " data-fips="AO14" data-fips-="" data-iso3="AGO" data-name="Moxico" data-p="MOX"/><path d="M121,197L120,203L118,205L116,222L113,228L114,229L112,231L111,238L107,242L107,243L108,258L108,262L108,270L109,271L113,269L115,269L117,270L124,270L132,265L134,264L137,265L138,265L134,258L135,257L139,252L140,250L140,250L142,243L141,236L138,232L137,232L135,227L136,224L141,220L143,214L143,211L141,203L141,202L140,203L137,202L135,199L132,196L128,198L122,197L121,197L121,197Z " data-fips="AO13" data-fips-="" data-iso3="AGO" data-name="Namibe" data-p="NAM"/></g></svg>