<?xml version="1.0" encoding="UTF-8"?><!DOCTYPE svg  PUBLIC '-//W3C//DTD SVG 1.1//EN'  'http://www.w3.org/Graphics/SVG/1.1/DTD/svg11.dtd'><svg enable_background="new 0 0 450 300" height="300px" style="stroke-linejoin: round; stroke:#000; fill: none;" version="1.1" viewBox="0 0 450 300" width="450px" xmlns="http://www.w3.org/2000/svg" xmlns:xlink="http://www.w3.org/1999/xlink"><defs><style type="text/css"><![CDATA[path { fill-rule: evenodd; }]]></style></defs><metadata><views><view h="300" padding="0" w="450"><proj id="laea" lon0="-63.25462753369836" lat0="18.30420737313685"/><bbox x="995.96" y="996.08" w="7.05" h="4.70"/></view></views></metadata><g class="" id="context"><path d="M128,16L128,23L132,17L128,16ZM265,267L259,264L252,268L253,272L260,275L272,267L265,267ZM314,280L304,278L308,281L314,280ZM318,283L322,284L322,281L318,281L318,283Z" data-iso="AIA"/></g><g class="" id="regions"><path d="M128,16L128,23L132,17L128,16ZM265,267L259,264L252,268L253,272L260,275L272,267L265,267ZM314,280L304,278L308,281L314,280ZM318,283L322,284L322,281L318,281L318,283Z" data-region="__ALL__" data-iso3="AIA" data-name="Anguilla" data-p=""/></g></svg>