<?xml version="1.0" encoding="UTF-8"?><!DOCTYPE svg  PUBLIC '-//W3C//DTD SVG 1.1//EN'  'http://www.w3.org/Graphics/SVG/1.1/DTD/svg11.dtd'><svg enable_background="new 0 0 450 301" height="301px" style="stroke-linejoin: round; stroke:#000; fill:#f6f3f0;" version="1.1" viewBox="0 0 450 301" width="450px" xmlns="http://www.w3.org/2000/svg" xmlns:xlink="http://www.w3.org/1999/xlink"><defs><style type="text/css"><![CDATA[path { fill-rule: evenodd; }
#context path { fill: #eee; stroke: #bbb; } ]]></style></defs><metadata><views><view h="301.0" padding="0.06" w="450"><proj id="laea" lat0="41.4169813097" lon0="19.5330372374"/><bbox h="39.2" w="18.44" x="996.62" y="983.73"/><llbbox lat0="-90" lat1="90" lon0="-180" lon1="180"/></view></views></metadata><g id="context"><path d="M216,17L209,21L198,24L195,20L195,12L192,8L189,10L185,16L181,23L176,30L171,37L166,46L163,53L166,57L168,63L168,69L167,82L176,83L184,89L183,103L181,107L178,110L174,123L175,133L177,141L175,153L175,170L170,183L166,195L167,199L174,213L175,219L174,222L168,219L165,219L171,231L177,238L203,253L212,269L214,276L214,285L224,289L229,290L234,285L236,276L241,277L242,276L242,272L237,262L237,259L242,256L243,253L247,251L252,251L258,249L261,246L266,229L268,225L269,220L272,215L282,210L285,204L287,198L287,195L282,184L282,177L282,175L280,172L276,170L266,172L264,170L260,157L257,155L254,151L248,137L248,126L245,114L247,111L250,109L249,96L252,82L253,81L254,77L253,68L249,53L247,48L237,40L230,37L226,29L220,20L217,18L216,17Z " data-iso="ALB"/><path d="M376,36L387,50L393,56L400,60L409,62L412,65L417,80L420,86L424,91L421,102L420,125L419,127L427,128L436,128L442,122L450,121L450,0L383,0L381,7L384,15L388,18L388,24L381,35L376,36Z " data-iso="BGR"/><path d="M104,16L106,16L111,10L112,5L109,0L79,0L83,3L95,12L98,13L104,16Z " data-iso="BIH"/><path d="M208,299L207,293L203,289L204,286L210,281L209,279L203,274L193,276L189,279L189,283L200,297L202,299L208,299Z M450,121L442,122L436,128L427,128L419,127L415,127L410,128L408,130L407,142L398,146L390,149L384,148L372,146L368,146L365,147L355,149L350,151L340,166L329,171L326,174L317,171L314,171L308,175L295,175L292,176L282,177L282,184L287,195L287,198L285,204L282,210L272,215L269,220L268,225L266,229L261,246L258,249L252,251L247,251L243,253L242,256L237,259L237,262L242,272L242,276L241,277L236,276L234,285L229,290L224,289L214,285L221,291L227,299L438,299L430,294L426,288L419,272L401,250L399,242L401,228L403,219L402,213L402,207L410,203L415,199L423,197L421,204L418,207L421,215L436,224L450,230L450,121Z " data-iso="GRC"/><path d="M51,0L57,2L54,0L51,0Z M110,28L107,23L104,20L104,16L98,13L95,12L83,3L79,0L73,0L85,9L97,19L110,28Z " data-iso="HRV"/><path d="M0,208L1,207L12,208L14,210L17,214L17,218L27,224L33,226L61,230L75,263L85,271L94,274L98,266L100,258L105,247L103,236L94,222L73,203L68,195L34,177L20,164L8,155L0,152L0,208Z " data-iso="ITA"/><path d="M217,18L220,20L226,29L230,37L237,40L247,48L249,53L253,68L254,77L253,81L254,81L262,82L265,78L266,67L267,62L287,52L293,52L301,59L303,59L306,50L310,47L322,44L322,44L320,41L319,37L319,35L325,31L325,28L333,11L332,3L328,3L318,0L215,0L217,5L219,10L218,17L217,18Z " data-iso="KOS"/><path d="M374,36L371,33L369,33L362,36L356,38L351,37L345,37L339,39L334,42L326,45L322,44L322,44L310,47L306,50L303,59L301,59L293,52L287,52L267,62L266,67L265,78L262,82L254,81L253,81L252,82L249,96L250,109L247,111L245,114L248,126L248,137L254,151L257,155L260,157L264,170L266,172L276,170L280,172L282,175L282,177L292,176L295,175L308,175L314,171L317,171L326,174L329,171L340,166L350,151L355,149L365,147L368,146L372,146L384,148L390,149L398,146L407,142L408,130L410,128L415,127L419,127L420,125L421,102L424,91L420,86L417,80L412,65L409,62L400,60L393,56L387,50L376,36L374,36Z " data-iso="MKD"/><path d="M104,16L104,20L107,23L110,28L112,29L115,27L119,27L118,33L136,46L152,63L156,74L167,82L168,69L168,63L166,57L163,53L166,46L171,37L176,30L181,23L185,16L189,10L192,8L195,12L195,20L198,24L209,21L216,17L217,18L218,17L219,10L217,5L215,0L109,0L112,5L111,10L106,16L104,16Z " data-iso="MNE"/><path d="M322,44L326,45L334,42L339,39L345,37L351,37L356,38L362,36L369,33L371,33L374,36L376,36L381,35L388,24L388,18L384,15L381,7L383,0L318,0L328,3L332,3L333,11L325,28L325,31L319,35L319,37L320,41L322,44Z " data-iso="SRB"/></g><g fill="red" fill-opacity="0.35" id="regions"><path d="M200,110L197,108L195,110L191,111L186,109L182,108L180,109L174,108L179,113L179,118L174,122L174,124L171,126L172,131L173,134L177,135L179,137L179,139L184,140L188,136L188,129L187,127L187,121L194,125L196,124L201,122L204,121L207,116L207,115L204,113L202,110L200,110Z " data-fips="AL42" data-fips-="AL03" data-iso3="ALB" data-name="Durrs"/><path d="M190,157L184,157L178,160L176,159L174,162L175,163L176,166L175,171L177,168L178,163L180,169L179,172L173,175L173,172L171,171L170,173L172,176L171,177L171,180L169,182L168,191L164,196L164,196L171,196L175,197L177,200L180,201L185,205L193,208L197,217L198,218L199,218L202,212L205,209L206,208L207,208L207,206L203,204L202,197L200,194L199,192L196,188L197,187L195,183L195,181L197,181L198,178L200,177L204,177L205,176L204,176L201,175L199,171L200,163L197,162L192,162L190,159L190,158L190,157Z " data-fips="AL44" data-fips-="AL05" data-iso3="ALB" data-name="Fier"/><path d="M180,85L180,84L176,80L178,78L180,79L183,78L183,75L187,75L187,78L196,77L195,75L201,75L204,73L207,72L209,77L210,81L213,81L219,74L219,73L225,69L228,66L226,65L223,64L224,59L226,57L229,54L223,49L213,44L212,46L208,45L204,48L201,47L201,42L200,39L199,32L201,25L200,25L196,23L194,20L195,10L193,8L190,8L187,12L180,25L172,34L171,39L164,49L164,55L169,59L168,65L169,72L167,78L168,79L169,83L173,82L176,83L180,85Z " data-fips="AL49" data-fips-="AL21|" data-iso3="ALB" data-name="Shkodr"/><path d="M201,25L199,32L200,39L201,42L201,47L204,48L208,45L212,46L213,44L223,49L229,54L226,57L224,59L223,64L226,65L228,66L230,67L232,70L231,74L229,77L228,79L228,79L230,82L234,79L236,81L238,86L242,85L242,83L248,84L251,83L251,82L255,74L254,69L252,64L251,55L248,49L245,45L236,39L229,38L228,33L227,33L225,27L222,21L219,19L216,17L212,21L206,21L201,25L201,25Z " data-fips="AL47" data-fips-="AL26" data-iso3="ALB" data-name="Kuks"/><path d="M164,197L169,204L174,204L174,209L170,208L177,215L176,225L172,226L167,217L163,217L167,222L170,230L176,237L179,239L183,241L189,245L194,247L196,250L198,250L201,253L204,253L209,262L210,263L207,266L215,270L215,272L213,280L214,281L213,284L228,291L230,289L235,285L236,283L234,280L236,276L236,276L231,270L231,268L229,263L226,260L224,259L216,252L211,252L208,247L205,239L202,236L201,230L197,225L198,223L199,220L198,218L197,217L193,208L185,205L180,201L177,200L175,197L171,196L164,196L164,197Z " data-fips="AL51" data-fips-="AL27" data-iso3="ALB" data-name="Vlor"/><path d="M256,155L256,160L255,161L245,163L243,165L243,169L241,170L247,182L244,186L235,188L235,189L236,190L241,201L244,202L244,207L244,208L245,214L246,216L247,216L246,220L248,223L247,227L249,232L251,233L249,234L252,242L258,249L260,248L262,244L261,241L264,237L264,231L267,228L269,221L269,218L274,212L279,213L282,211L282,208L288,196L286,192L282,187L282,185L283,181L282,174L277,170L272,170L268,173L265,171L264,169L260,156L256,155L256,155Z " data-fips="AL46" data-fips-="AL08" data-iso3="ALB" data-name="Kor"/><path d="M232,190L230,190L223,185L222,185L217,180L215,179L213,175L211,176L206,175L204,176L205,176L204,177L200,177L198,178L197,181L195,181L195,183L197,187L196,188L199,192L200,194L202,197L203,204L207,206L207,208L209,209L215,211L219,211L219,210L225,213L227,215L235,224L237,221L240,220L242,216L246,216L245,214L244,208L244,207L244,202L241,201L236,190L235,189L232,190Z " data-fips="AL40" data-fips-="AL01" data-iso3="ALB" data-name="Berat"/><path d="M230,131L230,132L225,134L222,138L217,139L214,142L208,147L203,148L201,152L196,152L193,155L192,158L190,158L190,159L192,162L197,162L200,163L199,171L201,175L204,176L206,175L211,176L213,175L215,179L217,180L222,185L223,185L230,190L232,190L235,189L235,188L244,186L247,182L241,170L243,169L243,165L245,163L255,161L256,160L256,155L254,154L254,149L250,143L247,133L247,133L245,126L237,128L235,128L231,130L230,131Z " data-fips="AL43" data-fips-="AL04" data-iso3="ALB" data-name="Elbasan"/><path d="M207,208L206,208L205,209L202,212L199,218L198,218L199,220L198,223L197,225L201,230L202,236L205,239L208,247L211,252L216,252L224,259L226,260L229,263L231,268L231,270L236,276L239,277L241,277L243,274L243,273L239,267L237,265L236,259L236,258L240,258L244,252L250,250L256,251L258,249L252,242L249,234L251,233L249,232L247,227L248,223L246,220L247,216L246,216L242,216L240,220L237,221L235,224L227,215L225,213L219,210L219,211L215,211L209,209L207,208Z " data-fips="AL45" data-fips-="AL06" data-iso3="ALB" data-name="Gjirokastr"/><path d="M228,79L228,80L224,84L221,85L224,88L224,92L217,94L215,97L211,97L209,99L208,99L200,98L200,102L201,108L202,110L204,113L207,115L208,115L212,120L213,123L219,125L221,125L225,129L230,131L231,130L235,128L237,128L245,126L247,133L247,131L251,128L251,124L248,121L248,120L245,115L245,113L251,109L251,108L248,94L252,86L251,84L251,83L248,84L242,83L242,85L238,86L236,81L234,79L230,82L228,79L228,79Z " data-fips="AL41" data-fips-="AL02" data-iso3="ALB" data-name="Dibr"/><path d="M229,77L231,74L232,70L230,67L228,66L225,69L219,73L219,74L213,81L210,81L209,77L207,72L204,73L201,75L195,75L196,77L187,78L187,75L183,75L183,78L180,79L178,78L176,80L180,84L180,85L184,86L185,90L183,91L184,99L182,101L185,104L186,106L183,108L182,108L186,109L191,111L195,110L197,108L200,110L202,110L201,108L200,102L200,98L208,99L209,99L211,97L215,97L217,94L224,92L224,88L221,85L224,84L228,80L228,79L229,77Z " data-fips="AL48" data-fips-="AL12" data-iso3="ALB" data-name="Lezh"/><path d="M225,129L221,125L219,125L213,123L212,120L208,115L207,115L207,116L204,121L201,122L196,124L194,125L187,121L187,127L188,129L188,136L184,140L179,139L179,139L176,146L176,149L174,150L175,153L174,162L174,162L176,159L178,160L184,157L190,157L190,158L192,158L193,155L196,152L201,152L203,148L208,147L214,142L217,139L222,138L225,134L230,132L230,131L225,129Z " data-fips="AL50" data-fips-="AL28" data-iso3="ALB" data-name="Durrs"/></g></svg>