<?xml version="1.0" encoding="UTF-8"?><!DOCTYPE svg  PUBLIC '-//W3C//DTD SVG 1.1//EN'  'http://www.w3.org/Graphics/SVG/1.1/DTD/svg11.dtd'><svg enable_background="new 0 0 450 301" height="301px" style="stroke-linejoin: round; stroke:#000; fill:#f6f3f0;" version="1.1" viewBox="0 0 450 301" width="450px" xmlns="http://www.w3.org/2000/svg" xmlns:xlink="http://www.w3.org/1999/xlink"><defs><style type="text/css"><![CDATA[path { fill-rule: evenodd; }
#context path { fill: #eee; stroke: #bbb; } ]]></style></defs><metadata><views><view h="301.0" padding="0.06" w="450"><proj id="laea" lat0="25.7005246038" lon0="55.9737889195"/><bbox h="49.09" w="60.63" x="947.2" y="992.13"/><llbbox lat0="-90" lat1="90" lon0="-180" lon1="180"/></view></views></metadata><g id="context"><path d="M222,161L215,155L205,159L202,162L207,164L213,164L215,163L222,164L222,161Z M132,151L135,148L133,145L131,152L132,151Z M181,155L189,146L187,143L181,148L171,152L176,155L181,155Z M259,142L256,140L250,140L251,142L259,142Z M369,21L365,32L360,41L331,63L325,71L318,78L316,83L302,97L278,114L272,122L270,129L267,133L264,135L261,140L258,148L254,154L248,156L237,162L219,169L213,169L181,167L160,162L134,161L124,164L106,173L97,174L83,173L78,171L75,166L74,152L72,151L67,152L63,145L60,149L60,161L61,165L78,188L104,224L125,253L198,264L302,279L303,279L307,273L308,262L308,248L313,237L319,222L330,196L332,189L331,184L327,180L333,176L343,174L349,174L363,171L363,169L359,160L350,159L347,158L350,149L348,139L349,132L350,128L350,117L350,111L352,107L358,103L364,104L365,108L362,111L364,116L368,120L371,120L378,113L382,111L388,103L390,102L389,99L388,58L384,52L376,52L374,49L374,37L375,30L375,22L372,20L369,21L369,21Z M378,85L380,78L383,78L383,83L380,85L378,85Z " data-iso="ARE"/><path d="M439,0L445,13L445,22L450,33L450,0L439,0Z " data-iso="IRN"/><path d="M390,102L388,103L382,111L378,113L371,120L368,120L364,116L362,111L365,108L364,104L358,103L352,107L350,111L350,117L350,128L349,132L348,139L350,149L347,158L350,159L359,160L363,169L363,171L349,174L343,174L333,176L327,180L331,184L332,189L330,196L319,222L313,237L308,248L308,262L307,273L312,282L317,289L322,298L323,299L450,299L450,182L448,181L441,177L426,164L417,150L408,140L397,122L390,102Z M383,83L383,78L380,78L378,85L380,85L383,83Z M369,21L372,20L375,22L375,30L374,37L374,49L376,52L384,52L385,47L389,40L392,17L392,10L393,1L388,0L384,8L379,9L377,8L375,10L369,21Z " data-iso="OMN"/><path d="M49,122L52,120L59,104L63,98L65,92L65,85L62,74L60,66L59,62L58,56L61,44L64,37L62,28L52,19L44,8L34,13L26,20L19,40L16,48L11,56L8,60L8,64L9,80L13,102L12,105L9,110L13,118L17,125L24,127L28,127L40,124L49,122Z " data-iso="QAT"/><path d="M307,273L303,279L302,279L198,264L125,253L104,224L78,188L61,165L60,161L60,149L58,149L54,147L43,145L47,135L51,131L50,128L45,128L40,124L28,127L24,127L17,125L13,118L9,110L4,103L0,96L0,95L0,299L323,299L322,298L317,289L312,282L307,273Z " data-iso="SAU"/></g><g fill="red" fill-opacity="0.35" id="regions"><path d="M363,84L362,85L361,88L362,89L360,94L360,97L362,103L362,103L364,104L365,106L365,109L367,111L371,114L375,114L375,114L375,114L376,113L379,113L380,112L382,110L382,110L382,109L381,109L378,108L376,105L377,103L374,97L375,97L375,96L375,86L375,85L377,84L378,83L378,83L378,82L377,79L378,77L377,77L375,75L373,77L376,78L372,84L365,84L363,84Z M347,51L350,54L356,71L357,73L359,74L360,76L361,74L361,72L362,71L364,72L364,72L369,75L373,73L373,71L370,69L372,65L369,64L364,64L362,56L365,55L367,53L374,51L374,51L373,46L375,43L373,39L375,35L376,23L375,20L369,22L367,26L364,32L366,32L365,35L355,45L353,47L347,50L347,51Z " data-fips="AE05" data-fips-="" data-iso3="ARE" data-name="Ras Al Khaymah" data-p="RK"/><path d="M357,73L356,71L350,54L347,51L346,52L342,54L338,60L334,61L333,60L333,57L331,61L331,62L349,75L349,77L354,80L358,78L358,74L359,74L357,73Z " data-fips="AE07" data-fips-="" data-iso3="ARE" data-name="Umm Al Qaywayn" data-p="UQ"/><path d="M375,114L375,114L371,114L369,118L369,119L369,120L369,121L369,121L371,121L374,117L375,114Z " data-fips="AE03" data-fips-="AE04|" data-iso3="ARE" data-name="Neutral Zone" data-p="DU"/><path d="M374,51L367,53L365,55L362,56L364,64L369,64L372,65L370,69L373,71L373,73L369,75L364,72L364,72L363,76L364,76L364,76L364,77L364,78L362,79L363,82L363,82L363,84L365,84L372,84L376,78L373,77L375,75L377,77L378,77L381,76L383,73L389,69L388,68L389,61L386,55L379,54L374,51L374,51Z " data-fips="AE04" data-fips-="" data-iso3="ARE" data-name="Fujayrah" data-p="FU"/><path d="M390,76L384,82L383,82L383,83L380,85L379,84L378,84L378,84L378,83L377,84L375,85L375,86L375,96L375,97L376,97L376,97L381,102L383,102L384,102L385,99L383,95L388,95L389,85L389,82L390,77L390,76Z " data-fips="AE04" data-fips-="" data-iso3="ARE" data-name="Fujayrah" data-p="FU"/><path d="M381,107L381,109L382,109L382,110L382,110L383,110L385,108L385,108L385,107L385,107L385,107L383,107L381,107Z " data-fips="AE04" data-fips-="" data-iso3="ARE" data-name="Neutral Zone" data-p="FU"/><path d="M385,106L384,105L383,104L382,106L383,107L385,107L385,107L385,107L385,106Z " data-fips="AE06" data-fips-="AE04|" data-iso3="ARE" data-name="Neutral Zone" data-p="SH"/><path d="M380,105L380,105L380,106L380,106L381,107L383,107L382,106L383,104L384,105L385,106L385,103L386,103L386,103L383,103L383,102L381,102L380,105Z " data-fips="AE4&amp;" data-fips-="AE04|" data-iso3="ARE" data-name="Neutral Zone" data-p=""/><path d="M363,76L362,76L361,77L361,78L362,79L364,78L364,77L364,76L364,76L363,76Z M329,67L328,70L327,69L326,70L325,71L336,74L339,70L334,68L329,66L329,67Z " data-fips="AE02" data-fips-="" data-iso3="ARE" data-name="Ajman" data-p="AJ"/><path d="M369,121L369,120L369,119L369,118L371,114L367,111L365,109L366,111L361,110L364,114L366,119L368,121L369,121Z " data-fips="AE02" data-fips-="AE06|" data-iso3="ARE" data-name="Neutral Zone" data-p="AJ"/><path d="M380,106L380,106L380,105L380,105L381,102L376,97L376,97L375,97L374,97L377,103L376,105L378,108L381,109L381,107L380,106Z M386,103L386,103L390,102L388,96L388,95L383,95L385,99L384,102L383,102L383,103L386,103L386,103L386,103Z M390,76L389,74L388,73L389,71L389,69L383,73L381,76L378,77L377,79L378,82L378,83L378,83L378,84L378,84L378,83L380,78L383,79L383,82L383,82L384,82L390,76L390,76Z M331,62L330,65L330,66L329,66L334,68L339,70L336,74L325,71L323,73L321,73L320,75L319,76L318,77L323,78L326,77L328,79L337,86L338,88L340,96L338,102L340,105L342,118L342,122L341,122L347,124L349,124L350,124L350,124L350,123L350,117L349,111L350,109L359,102L362,103L360,97L360,94L362,89L361,88L362,85L363,84L363,82L363,82L362,79L361,78L361,77L362,76L363,76L364,72L362,71L361,72L361,74L360,76L359,74L358,74L358,78L354,80L349,77L349,75L331,62L331,62Z " data-fips="AE06" data-fips-="" data-iso3="ARE" data-name="Sharjah" data-p="SH"/><path d="M217,157L216,154L211,157L207,158L201,162L211,165L213,164L215,161L219,164L223,163L224,162L224,160L217,157Z M240,156L240,154L235,151L234,153L234,154L239,157L240,156Z M244,154L245,152L242,148L239,151L244,154Z M133,152L135,147L133,145L132,145L129,147L129,149L131,153L133,152Z M250,148L246,148L248,151L249,151L250,148Z M188,148L189,146L186,144L183,148L183,148L180,150L177,150L174,152L172,151L177,155L178,154L181,155L183,153L185,153L187,152L188,148Z M259,143L259,142L253,137L250,140L250,141L258,144L259,143Z M112,136L112,133L111,132L111,137L112,136Z M293,103L287,109L279,113L279,116L276,115L271,119L272,124L269,129L271,130L266,137L262,137L260,132L257,134L263,142L260,143L260,146L257,151L253,156L249,155L244,158L239,160L234,164L228,166L223,167L216,170L205,170L203,171L200,171L194,167L188,165L179,167L175,166L169,161L163,164L158,161L154,163L146,162L143,163L137,162L131,157L129,158L129,161L123,165L121,166L113,172L104,174L94,175L90,173L86,172L84,174L82,173L76,171L74,160L73,149L72,150L70,155L67,154L64,151L64,147L62,142L61,143L62,146L62,149L60,152L60,163L61,165L124,251L127,253L302,279L303,279L307,273L308,262L308,251L308,249L310,242L317,230L318,226L321,216L326,209L331,185L330,183L327,181L326,178L332,177L338,174L347,174L350,175L364,170L361,165L359,159L357,158L348,159L347,158L351,150L351,146L348,143L347,134L349,129L351,127L351,126L350,124L350,124L349,124L347,124L341,122L340,124L324,130L309,131L306,129L305,128L297,103L296,103L293,103Z " data-fips="AE01" data-fips-="" data-iso3="ARE" data-name="Abu Dhabi" data-p="AZ"/><path d="M342,122L342,118L340,105L338,102L340,96L338,88L337,86L328,79L326,77L323,78L318,77L317,79L318,85L316,86L317,83L315,81L313,84L306,93L301,99L299,99L299,101L296,103L297,103L305,128L306,129L309,131L324,130L340,124L341,122L342,122Z " data-fips="AE03" data-fips-="" data-iso3="ARE" data-name="Dubay" data-p="DU"/></g></svg>