<?xml version="1.0" encoding="UTF-8"?><!DOCTYPE svg  PUBLIC '-//W3C//DTD SVG 1.1//EN'  'http://www.w3.org/Graphics/SVG/1.1/DTD/svg11.dtd'><svg enable_background="new 0 0 450 451" height="451px" style="stroke-linejoin: round; stroke:#000; fill:#f6f3f0;" version="1.1" viewBox="0 0 450 451" width="450px" xmlns="http://www.w3.org/2000/svg" xmlns:xlink="http://www.w3.org/1999/xlink"><defs><style type="text/css"><![CDATA[path { fill-rule: evenodd; }
#context path { fill: #eee; stroke: #bbb; } ]]></style></defs><metadata><views><view h="451" padding="0.06" w="450"><proj id="laea" lat0="-49.19234588" lon0="-70.4055989015"/><bbox h="432.4" w="238.7" x="961.73" y="653.42"/><llbbox lat0="-90" lat1="90" lon0="-180" lon1="180"/></view></views></metadata><g id="context"><path d="M155,404L154,415L154,426L154,433L154,432L172,435L178,434L179,431L175,431L164,423L159,416L155,405L155,404Z M180,26L182,28L177,41L167,45L163,48L163,51L165,54L162,58L164,66L162,71L165,77L163,79L155,89L151,93L148,98L147,104L145,106L146,116L147,117L143,120L141,126L142,128L139,135L142,140L142,144L145,153L144,156L147,157L146,161L147,169L141,180L139,182L141,188L137,196L134,198L133,208L133,214L135,226L131,229L131,232L127,245L128,247L126,252L128,268L124,272L125,282L128,290L128,298L133,299L127,304L126,305L130,306L132,309L131,313L129,316L129,320L128,320L127,333L124,338L123,345L125,348L122,356L119,358L118,362L115,362L115,370L119,380L121,379L125,379L126,392L129,396L144,396L150,398L156,401L157,400L152,387L151,383L149,383L157,372L157,371L162,369L164,362L166,357L180,345L178,343L181,340L181,337L179,334L174,333L167,327L166,320L169,314L179,307L184,305L187,301L188,292L189,289L194,284L197,283L191,279L197,276L204,281L205,274L204,272L201,275L196,275L196,273L192,269L192,258L193,254L195,255L202,258L205,260L213,260L219,257L220,255L219,249L220,246L222,244L224,239L221,237L223,231L224,233L246,234L255,234L264,232L269,229L273,224L276,221L282,214L282,208L280,208L277,204L277,199L279,195L274,188L269,184L267,181L269,178L268,171L273,158L274,156L277,143L280,133L283,129L284,129L284,128L290,124L308,107L314,105L320,101L326,101L332,98L335,89L334,81L331,77L327,77L326,77L325,82L322,90L317,93L314,93L310,98L306,96L302,98L301,97L282,91L277,91L277,89L283,83L283,79L291,71L289,65L274,56L266,49L255,44L245,35L240,27L236,22L235,22L235,22L233,19L228,18L219,19L214,27L211,20L206,18L198,18L192,13L190,17L186,18L180,25L180,26Z " data-iso="ARG"/><path d="M292,3L293,3L296,1L295,0L293,0L293,1L292,3Z M180,26L180,25L186,18L190,17L192,13L198,18L206,18L211,20L214,27L219,19L228,18L233,19L235,22L235,22L236,21L239,12L241,8L243,0L163,0L165,2L168,8L170,16L171,25L178,26L180,26Z " data-iso="BOL"/><path d="M292,3L293,4L295,14L292,27L296,28L304,31L311,30L319,44L319,50L322,56L329,55L333,59L332,62L326,75L326,77L327,77L331,77L334,81L335,89L332,98L326,101L320,101L314,105L308,107L290,124L284,128L284,129L284,130L290,129L294,130L299,137L301,143L305,141L309,147L314,151L316,155L322,160L323,165L327,169L328,168L329,168L330,167L332,166L332,165L333,165L333,166L333,169L331,172L329,173L328,171L327,171L326,174L324,174L323,174L322,177L322,178L321,179L322,182L328,179L334,173L339,164L341,159L344,155L346,155L351,151L354,145L361,146L359,147L354,155L350,159L343,162L340,165L351,159L359,153L363,148L368,141L376,134L385,130L388,124L391,113L392,103L391,101L397,94L394,92L397,90L400,92L409,86L421,81L433,80L435,81L447,76L450,76L450,0L295,0L296,1L293,3L292,3Z " data-iso="BRA"/><path d="M165,437L164,434L158,434L158,437L164,438L165,437Z M146,433L145,433L145,437L147,439L149,436L152,438L153,440L156,438L155,434L152,435L146,433Z M136,433L137,435L142,435L141,433L136,433Z M133,422L131,421L127,422L129,425L135,423L133,422Z M122,415L116,415L115,416L119,418L120,422L123,420L122,423L126,421L126,418L122,415Z M110,408L119,414L117,411L110,408Z M154,433L154,426L154,415L155,404L154,404L149,402L143,408L141,413L143,414L145,413L149,414L143,420L144,423L150,426L149,429L143,426L141,424L140,417L137,420L142,428L137,427L133,427L130,430L140,432L144,432L146,431L153,433L154,433Z M106,392L104,394L107,400L108,396L106,392Z M108,388L103,388L102,391L108,389L108,388Z M103,375L100,372L100,376L103,375Z M101,357L100,356L98,362L100,360L101,357Z M107,360L106,356L103,355L101,361L102,362L99,363L100,370L103,369L103,365L105,364L105,371L107,360Z M98,356L101,354L100,351L98,346L97,347L98,356Z M106,353L102,345L100,348L106,353Z M106,316L106,309L102,316L106,316Z M117,304L115,298L113,302L114,305L117,304Z M110,299L108,296L102,303L108,309L108,311L111,308L110,307L110,299Z M109,286L112,280L111,272L112,272L111,267L106,269L105,276L104,284L105,286L109,286Z M156,401L150,398L144,396L129,396L126,392L125,379L121,379L119,380L115,370L115,362L118,362L119,358L122,356L125,348L123,345L124,338L127,333L128,320L129,320L129,316L131,313L132,309L130,306L126,305L127,304L133,299L128,298L128,290L125,282L124,272L128,268L126,252L128,247L127,245L131,232L131,229L135,226L133,214L133,208L134,198L137,196L141,188L139,182L141,180L147,169L146,161L147,157L144,156L145,153L142,144L142,140L139,135L142,128L141,126L143,120L147,117L146,116L145,106L147,104L148,98L151,93L155,89L163,79L165,77L162,71L164,66L162,58L165,54L163,51L163,48L167,45L177,41L182,28L180,26L178,26L171,25L170,16L168,8L165,2L163,0L144,0L145,8L143,22L140,28L139,28L141,35L140,37L139,44L140,54L137,62L138,65L135,84L133,86L131,98L128,102L131,111L130,117L127,119L127,130L129,149L126,154L127,161L125,164L122,180L118,186L118,188L116,191L114,200L113,200L110,207L108,207L108,214L109,216L113,233L113,235L109,242L106,257L109,263L109,265L114,265L116,262L118,262L119,265L118,267L121,268L122,274L119,273L118,282L115,296L120,299L117,306L115,306L113,310L118,312L114,312L111,313L111,315L112,319L110,318L109,320L110,313L108,313L108,316L99,319L101,322L95,328L96,329L100,327L103,331L107,330L108,332L104,342L108,345L112,341L111,346L105,346L106,351L107,353L107,359L109,365L111,360L112,365L109,366L108,368L111,371L106,374L111,377L112,382L114,380L113,383L110,381L107,376L103,380L105,385L112,387L112,391L113,394L115,395L117,397L124,398L123,401L123,396L115,398L115,405L120,403L116,407L121,409L123,403L132,404L129,404L122,407L121,413L125,412L133,406L135,407L134,409L126,412L127,417L131,419L136,419L137,412L138,406L146,402L148,399L152,399L156,401Z " data-iso="CHL"/><path d="M221,394L219,397L220,399L215,401L217,403L221,401L223,401L229,395L229,394L221,394Z M233,394L230,399L225,403L227,406L233,404L233,402L236,402L240,396L237,397L233,394Z " data-iso="FLK"/><path d="M235,22L236,22L240,27L245,35L255,44L266,49L274,56L289,65L291,71L283,79L283,83L277,89L277,91L282,91L301,97L302,98L306,96L310,98L314,93L317,93L322,90L325,82L326,77L326,75L332,62L333,59L329,55L322,56L319,50L319,44L311,30L304,31L296,28L292,27L295,14L293,4L292,3L293,1L293,0L243,0L241,8L236,21L235,22Z " data-iso="PRY"/><path d="M284,129L283,129L280,133L277,143L274,156L274,158L273,164L271,166L269,174L274,182L281,183L284,187L291,191L299,191L304,193L310,192L317,187L322,182L322,182L321,179L321,179L321,178L321,176L321,174L322,173L323,172L325,171L325,170L327,169L323,165L322,160L316,155L314,151L309,147L305,141L301,143L299,137L294,130L290,129L284,130L284,129Z " data-iso="URY"/></g><g fill="red" fill-opacity="0.35" id="regions"><path d="M129,320L129,324L130,328L127,331L128,334L124,338L125,348L122,351L122,355L119,358L118,362L115,362L116,374L118,380L122,378L124,378L126,382L125,385L125,389L129,396L144,396L148,398L155,399L156,398L151,392L152,390L151,383L150,383L152,377L153,374L157,372L156,370L159,372L163,369L164,359L169,353L174,350L179,346L180,344L178,343L181,338L179,334L173,333L169,328L166,324L166,320L166,319L159,319L148,319L130,319L129,320Z " data-fips="AR20" data-fips-="" data-iso3="ARG" data-name="Santa Cruz" data-p="Z"/><path d="M157,409L155,404L154,432L172,435L178,434L180,431L170,427L169,426L161,419L159,417L158,413L155,412L157,409Z " data-fips="AR23" data-fips-="" data-iso3="ARG" data-name="Tierra del Fuego" data-p="V"/><path d="M149,96L148,102L148,103L146,116L147,117L146,119L142,128L140,129L139,134L139,136L142,139L142,144L142,144L149,144L150,142L155,140L156,142L157,145L163,143L167,142L170,144L173,144L174,144L174,143L174,139L177,139L178,140L181,140L181,139L177,133L178,127L172,119L164,111L157,111L158,103L155,97L153,96L149,95L149,96Z " data-fips="AR18" data-fips-="" data-iso3="ARG" data-name="San Juan" data-p="J"/><path d="M128,268L126,270L125,279L126,282L128,283L127,288L129,288L129,293L127,295L128,298L134,300L132,304L128,304L132,309L130,313L129,314L130,319L130,319L148,319L159,319L166,319L166,319L171,312L173,310L176,309L178,308L182,307L185,306L186,302L188,301L188,291L191,286L195,284L197,282L192,280L196,276L199,278L199,280L202,281L205,280L205,274L204,272L198,273L200,276L196,275L197,274L192,271L192,270L174,269L150,268L128,268L128,268Z " data-fips="AR04" data-fips-="" data-iso3="ARG" data-name="Chubut" data-p="U"/><path d="M143,145L145,151L144,155L147,158L146,169L143,174L141,181L139,182L141,189L141,193L141,193L142,196L147,202L148,205L150,206L152,206L155,208L160,210L161,211L163,211L163,202L163,192L176,192L180,192L180,192L182,186L181,178L180,169L176,157L175,148L174,145L174,144L173,144L170,144L167,142L163,143L157,145L156,142L155,140L150,142L149,144L142,144L143,145Z " data-fips="AR08" data-fips-="AR13" data-iso3="ARG" data-name="Mendoza" data-p="M"/><path d="M140,193L138,195L138,196L133,202L133,206L133,212L136,226L133,227L131,231L130,237L129,237L126,251L127,255L127,255L133,256L135,254L134,252L138,250L143,249L145,245L145,242L149,240L152,237L162,229L164,229L162,225L163,211L163,211L161,211L160,210L155,208L152,206L150,206L148,205L147,202L142,196L141,193L140,193Z " data-fips="AR15" data-fips-="" data-iso3="ARG" data-name="Neuqun" data-p="Q"/><path d="M250,163L250,163L247,168L242,168L233,176L227,175L221,174L216,174L216,174L215,176L215,182L215,185L214,194L211,230L211,237L210,244L209,254L214,258L214,259L215,259L220,256L220,253L219,252L221,245L222,244L223,240L221,235L223,231L226,234L236,235L254,234L264,232L271,228L271,226L275,222L282,215L281,208L280,208L276,202L276,200L280,196L279,193L274,187L268,184L267,179L268,179L268,175L268,175L261,172L256,169L250,164L250,163Z " data-fips="AR01" data-fips-="AR07" data-iso3="ARG" data-name="Ciudad de Buenos Aires" data-p="B"/><path d="M209,181L203,181L197,180L196,191L196,193L186,192L180,192L176,192L163,192L163,202L163,211L167,212L168,215L168,218L170,221L173,220L175,223L179,225L188,229L189,228L200,230L203,231L210,237L211,237L211,230L214,194L215,185L215,182L209,181Z " data-fips="AR11" data-fips-="" data-iso3="ARG" data-name="La Pampa" data-p="L"/><path d="M163,211L163,211L162,225L164,229L162,229L152,237L149,240L145,242L145,245L143,249L138,250L134,252L135,254L133,256L127,255L127,255L127,263L126,263L128,268L128,268L150,268L174,269L192,270L192,269L193,266L192,255L194,254L202,257L204,259L211,260L214,259L214,259L214,258L209,254L210,244L211,237L210,237L203,231L200,230L189,228L188,229L179,225L175,223L173,220L170,221L168,218L168,215L167,212L163,211Z " data-fips="AR16" data-fips-="AR15" data-iso3="ARG" data-name="Ro Negro" data-p="R"/><path d="M178,140L177,139L174,139L174,143L174,144L174,145L175,148L176,157L180,169L181,178L182,186L180,192L180,192L186,192L196,193L196,191L197,180L197,180L198,167L198,157L201,150L201,146L198,146L197,144L193,140L192,140L191,141L187,140L187,141L182,140L181,140L178,140Z " data-fips="AR19" data-fips-="" data-iso3="ARG" data-name="San Luis" data-p="D"/><path d="M233,117L220,116L210,110L207,111L203,112L202,112L202,112L202,115L199,118L197,119L196,121L192,130L192,137L192,140L193,140L197,144L198,146L201,146L201,150L198,157L198,167L197,180L197,180L203,181L209,181L215,182L215,176L216,174L216,174L221,174L226,168L234,158L235,155L233,151L230,147L231,143L232,140L236,130L233,125L234,122L233,117Z " data-fips="AR05" data-fips-="" data-iso3="ARG" data-name="Crdoba" data-p="X"/><path d="M191,69L186,69L183,62L187,60L172,56L163,54L163,55L162,58L164,67L162,69L162,71L165,78L162,80L159,79L156,87L155,87L163,87L164,89L165,91L170,95L172,95L180,94L182,95L186,98L186,99L194,108L195,115L197,119L199,118L202,115L202,112L202,112L203,112L203,111L202,109L201,103L202,95L201,91L201,91L197,92L192,87L192,84L190,83L193,78L194,75L192,69L192,69L191,69Z " data-fips="AR02" data-fips-="" data-iso3="ARG" data-name="Catamarca" data-p="K"/><path d="M179,37L188,44L189,42L190,38L189,35L192,34L198,46L199,47L206,49L207,48L210,50L216,45L215,36L213,37L208,36L206,32L206,30L204,29L204,18L201,18L198,18L194,14L192,13L187,18L180,26L182,28L179,37Z " data-fips="AR10" data-fips-="" data-iso3="ARG" data-name="Jujuy" data-p="Y"/><path d="M155,89L151,92L149,95L149,95L153,96L155,97L158,103L157,111L164,111L172,119L178,127L177,133L181,139L181,140L182,140L187,141L187,140L191,141L192,140L192,137L192,130L196,121L197,119L195,115L194,108L186,99L186,98L182,95L180,94L172,95L170,95L165,91L164,89L163,87L155,87L155,89Z " data-fips="AR12" data-fips-="" data-iso3="ARG" data-name="La Rioja" data-p="F"/><path d="M204,18L204,29L206,30L206,32L208,36L213,37L215,36L216,45L210,50L207,48L206,49L199,47L198,46L192,34L189,35L190,38L189,42L188,44L179,37L178,40L167,45L163,50L164,53L163,54L163,54L172,56L187,60L183,62L186,69L191,69L192,69L195,70L201,69L203,70L208,70L210,70L210,70L214,62L217,63L223,64L227,60L237,49L237,46L238,39L239,25L239,25L239,25L233,19L220,18L214,28L212,20L205,18L204,18Z " data-fips="AR17" data-fips-="" data-iso3="ARG" data-name="Salta" data-p="A"/><path d="M217,63L214,62L210,70L210,70L210,71L210,76L202,87L203,89L201,91L201,91L202,95L201,103L202,109L203,111L203,112L207,111L210,110L220,116L233,117L234,122L236,116L236,112L238,106L240,100L241,95L241,93L243,72L243,67L243,66L223,64L217,63Z " data-fips="AR22" data-fips-="" data-iso3="ARG" data-name="Santiago del Estero" data-p="G"/><path d="M208,70L203,70L201,69L195,70L192,69L192,69L194,75L193,78L190,83L192,84L192,87L197,92L201,91L201,91L201,91L203,89L202,87L210,76L210,71L210,70L208,70Z " data-fips="AR24" data-fips-="" data-iso3="ARG" data-name="Tucumn" data-p="T"/><path d="M237,46L237,49L227,60L223,64L243,66L243,67L243,72L241,93L241,95L252,96L260,97L265,98L273,99L274,98L274,93L275,92L277,91L277,91L277,89L278,88L280,86L281,86L275,79L270,78L263,69L261,68L258,62L253,59L250,54L244,49L240,47L237,46Z " data-fips="AR03" data-fips-="" data-iso3="ARG" data-name="Chaco" data-p="H"/><path d="M239,25L239,25L238,39L237,46L240,47L244,49L250,54L253,59L258,62L261,68L263,69L270,78L275,79L281,86L281,86L283,83L285,77L288,76L289,72L292,69L290,66L282,60L280,60L272,54L271,53L265,47L260,47L253,44L252,41L242,30L239,25L239,25Z " data-fips="AR09" data-fips-="" data-iso3="ARG" data-name="Formosa" data-p="P"/><path d="M277,91L275,92L274,93L274,98L273,99L273,100L271,100L268,111L263,116L261,125L261,127L261,127L262,127L271,127L273,127L277,128L279,133L281,135L281,135L280,132L287,126L288,125L290,124L297,118L301,115L307,109L309,110L308,108L310,107L310,107L308,104L307,97L307,96L307,96L298,97L290,94L284,91L277,91L277,91Z " data-fips="AR06" data-fips-="" data-iso3="ARG" data-name="Corrientes" data-p="W"/><path d="M261,127L261,128L260,133L251,142L249,143L247,145L246,154L246,156L250,163L250,163L250,164L256,169L261,172L268,175L268,175L268,169L270,164L273,164L273,159L275,154L275,149L277,146L278,142L281,136L281,135L279,133L277,128L273,127L271,127L262,127L261,127Z " data-fips="AR08" data-fips-="" data-iso3="ARG" data-name="Entre Ros" data-p="E"/><path d="M261,127L261,125L263,116L268,111L271,100L273,100L273,99L265,98L260,97L252,96L241,95L240,100L238,106L236,112L236,116L234,122L233,125L236,130L232,140L231,143L230,147L233,151L235,155L234,158L226,168L221,174L227,175L233,176L242,168L247,168L250,163L250,163L250,163L246,156L246,154L247,145L249,143L251,142L260,133L261,128L261,127L261,127Z " data-fips="AR21" data-fips-="" data-iso3="ARG" data-name="Santa Fe" data-p="S"/><path d="M307,96L307,97L308,104L310,107L310,107L320,101L329,100L332,98L334,94L335,89L335,85L334,80L331,78L329,78L328,79L326,78L325,83L322,90L321,90L317,93L316,93L312,95L312,96L309,98L307,96L307,96Z " data-fips="AR14" data-fips-="" data-iso3="ARG" data-name="Misiones" data-p="N"/></g></svg>