<?xml version="1.0" encoding="UTF-8"?><!DOCTYPE svg  PUBLIC '-//W3C//DTD SVG 1.1//EN'  'http://www.w3.org/Graphics/SVG/1.1/DTD/svg11.dtd'><svg enable_background="new 0 0 450 301" height="301px" style="stroke-linejoin: round; stroke:#000; fill:#f6f3f0;" version="1.1" viewBox="0 0 450 301" width="450px" xmlns="http://www.w3.org/2000/svg" xmlns:xlink="http://www.w3.org/1999/xlink"><defs><style type="text/css"><![CDATA[path { fill-rule: evenodd; }
#context path { fill: #eee; stroke: #bbb; } ]]></style></defs><metadata><views><view h="301.0" padding="0.06" w="450"><proj id="laea" lat0="40.4640291408" lon0="44.3031589464"/><bbox h="33.4" w="33.65" x="990.13" y="987.97"/><llbbox lat0="-90" lat1="90" lon0="-180" lon1="180"/></view></views></metadata><g id="context"><path d="M267,90L268,87L263,85L261,87L261,91L264,92L267,90Z M221,16L219,18L205,20L208,24L207,25L184,25L177,27L156,25L150,26L144,28L130,31L120,34L108,35L95,35L91,36L92,41L97,48L103,52L107,56L112,71L114,79L113,87L109,95L101,105L105,115L104,119L110,132L113,140L109,145L119,151L132,156L138,157L152,155L162,155L171,159L185,171L199,187L202,192L211,190L225,185L228,187L233,192L235,197L235,205L237,206L244,203L247,207L252,210L261,214L274,208L281,206L286,206L289,208L290,214L289,222L288,227L290,230L301,237L306,241L304,248L312,266L315,273L318,281L323,282L336,277L351,277L350,267L350,259L349,255L342,249L342,246L344,244L349,245L355,245L358,242L351,234L345,229L340,225L340,219L348,215L349,211L348,206L334,199L324,202L315,195L309,189L302,182L295,179L289,171L278,163L271,161L275,157L294,157L297,155L303,138L303,132L283,122L269,112L259,100L253,88L253,84L255,80L269,69L270,65L265,59L258,54L256,49L252,47L244,47L230,41L227,37L237,34L236,32L233,29L228,27L223,21L221,16Z M218,45L218,40L222,40L223,45L221,47L218,45Z " data-iso="ARM"/><path d="M202,192L204,194L206,197L208,200L222,222L228,229L232,235L234,241L239,245L244,248L256,258L264,268L272,272L302,278L318,281L315,273L312,266L304,248L306,241L301,237L290,230L288,227L289,222L290,214L289,208L286,206L281,206L274,208L261,214L252,210L247,207L244,203L237,206L235,205L235,197L233,192L228,187L225,185L211,190L202,192Z M223,45L222,40L218,40L218,45L221,47L223,45Z M343,0L355,8L359,14L359,19L356,28L348,36L342,39L336,35L327,30L318,25L311,27L306,29L297,27L286,23L281,19L278,16L280,10L255,1L251,0L241,0L238,1L221,16L223,21L228,27L233,29L236,32L237,34L227,37L230,41L244,47L252,47L256,49L258,54L265,59L270,65L269,69L255,80L253,84L253,88L259,100L269,112L283,122L303,132L303,138L297,155L294,157L275,157L271,161L278,163L289,171L295,179L302,182L309,189L315,195L324,202L334,199L348,206L349,211L348,215L340,219L340,225L345,229L351,234L358,242L355,245L349,245L344,244L342,246L342,249L349,255L350,259L350,267L351,277L356,278L375,257L381,250L393,246L399,238L409,228L433,210L442,204L450,198L450,21L436,19L430,18L413,13L408,10L405,0L343,0Z M261,91L261,87L263,85L268,87L267,90L264,92L261,91Z " data-iso="AZE"/><path d="M251,0L255,1L280,10L278,16L281,19L286,23L297,27L306,29L311,27L318,25L327,30L336,35L342,39L348,36L356,28L359,19L359,14L355,8L343,0L251,0Z M91,36L95,35L108,35L120,34L130,31L144,28L150,26L156,25L177,27L184,25L207,25L208,24L205,20L219,18L221,16L238,1L241,0L51,0L59,9L67,14L69,16L66,19L67,22L71,26L78,28L84,27L88,29L90,31L91,34L91,36Z " data-iso="GEO"/><path d="M351,277L336,277L323,282L318,281L302,278L272,272L264,268L256,258L244,248L239,245L234,241L232,235L228,229L222,222L208,200L206,197L203,197L199,194L187,185L181,189L176,196L170,223L165,226L157,226L147,225L141,226L139,228L142,235L144,245L147,249L152,253L152,258L149,270L151,277L157,285L160,288L159,299L450,299L450,198L442,204L433,210L409,228L399,238L393,246L381,250L375,257L356,278L351,277Z " data-iso="IRN"/><path d="M450,0L405,0L408,10L413,13L430,18L436,19L450,21L450,0Z " data-iso="RUS"/><path d="M206,197L204,194L202,192L199,187L185,171L171,159L162,155L152,155L138,157L132,156L119,151L109,145L113,140L110,132L104,119L105,115L101,105L109,95L113,87L114,79L112,71L107,56L103,52L97,48L92,41L91,36L91,34L90,31L88,29L84,27L78,28L71,26L67,22L66,19L69,16L67,14L59,9L51,0L0,0L0,299L159,299L160,288L157,285L151,277L149,270L152,258L152,253L147,249L144,245L142,235L139,228L141,226L147,225L157,226L165,226L170,223L176,196L181,189L187,185L199,194L203,197L206,197Z " data-iso="TUR"/></g><g fill="red" fill-opacity="0.35" id="regions"><path d="M172,82L169,79L164,77L161,78L156,80L152,77L151,77L148,83L144,87L149,95L153,94L153,96L152,101L154,102L152,104L145,108L140,109L138,105L132,107L129,107L125,105L120,104L117,105L113,107L107,114L106,113L104,118L104,122L106,124L110,129L111,132L115,129L119,130L121,128L135,135L139,138L149,139L151,137L152,132L155,134L160,132L167,137L172,138L173,137L172,134L174,130L172,126L178,118L179,118L179,113L183,101L184,97L179,95L173,91L173,87L172,84L172,82Z " data-fips="AM01" data-fips-="" data-iso3="ARM" data-name="Aragatsotn"/><path d="M111,132L110,136L113,139L113,141L109,142L108,143L109,147L113,149L120,151L130,156L140,158L147,155L148,156L159,154L165,155L169,158L167,150L170,146L174,143L174,142L173,141L173,141L173,139L172,138L167,137L160,132L155,134L152,132L151,137L149,139L139,138L135,135L121,128L119,130L115,129L111,132L111,132Z " data-fips="AM03" data-fips-="" data-iso3="ARM" data-name="Armavir"/><path d="M134,31L126,31L123,32L117,36L115,37L101,34L98,35L91,39L92,46L94,47L98,48L101,50L104,52L108,58L109,65L113,72L114,76L115,84L112,89L113,91L109,95L107,100L100,106L101,107L106,113L106,113L107,114L113,107L117,105L120,104L125,105L129,107L132,107L138,105L140,109L145,108L152,104L154,102L152,101L153,96L153,94L149,95L144,87L148,83L151,77L148,77L146,75L140,72L139,67L141,62L145,62L148,53L142,52L142,47L138,42L136,41L136,30L134,31Z " data-fips="AM07" data-fips-="" data-iso3="ARM" data-name="Shirak"/><path d="M208,24L210,24L214,27L211,31L211,33L215,41L210,46L205,45L202,48L205,53L211,55L213,57L210,61L208,68L206,70L203,71L202,79L202,85L204,87L214,85L224,88L226,87L229,81L233,80L236,78L241,78L252,86L252,84L254,80L270,70L271,65L271,63L266,61L261,56L256,52L256,49L256,46L249,49L243,47L239,46L232,40L230,43L227,41L225,39L226,36L235,36L237,34L236,31L230,27L225,27L224,23L221,16L217,19L204,20L205,21L208,23L208,24Z M222,46L219,45L218,43L222,40L223,43L222,46Z M238,52L236,51L239,50L238,52Z " data-fips="AJ40" data-fips-="AM09" data-iso3="ARM" data-name="Tavush"/><path d="M224,141L221,141L218,141L210,144L203,148L196,150L193,148L193,147L192,146L188,151L184,153L181,149L178,148L177,144L175,142L174,142L174,143L170,146L167,150L169,158L176,162L183,169L186,174L187,175L188,178L189,177L194,181L196,183L203,192L209,190L213,190L225,184L228,185L228,186L228,184L229,178L231,173L230,172L229,165L223,150L224,144L224,141Z " data-fips="AM02" data-fips-="" data-iso3="ARM" data-name="Ararat"/><path d="M266,90L268,87L263,85L261,86L261,91L266,90Z M204,87L204,89L204,99L206,100L209,101L211,105L210,108L214,112L218,126L217,131L223,139L224,141L224,144L223,150L229,165L230,172L231,173L235,171L238,168L250,165L261,164L265,162L269,158L271,160L270,159L290,157L297,156L300,147L303,142L304,135L304,133L299,128L294,129L271,114L266,110L262,102L260,101L258,96L254,91L252,88L252,86L241,78L236,78L233,80L229,81L226,87L224,88L214,85L204,87Z " data-fips="AM04" data-fips-="" data-iso3="ARM" data-name="Gegharkunik"/><path d="M200,86L195,85L186,82L184,83L181,82L179,82L172,84L173,87L173,91L179,95L184,97L183,101L179,113L179,118L178,118L172,126L174,130L172,134L173,137L173,136L187,134L189,137L186,142L191,144L192,146L193,147L193,148L196,150L203,148L210,144L218,141L221,141L224,141L223,139L217,131L218,126L214,112L210,108L211,105L209,101L206,100L204,99L204,89L204,87L202,85L200,86Z " data-fips="AM05" data-fips-="" data-iso3="ARM" data-name="Kotayk"/><path d="M136,30L136,41L138,42L142,47L142,52L148,53L145,62L141,62L139,67L140,72L146,75L148,77L151,77L152,77L156,80L161,78L164,77L169,79L172,82L172,84L179,82L181,82L184,83L186,82L195,85L200,86L202,85L202,79L203,71L206,70L208,68L210,61L213,57L211,55L205,53L202,48L205,45L210,46L215,41L211,33L211,31L214,27L210,24L208,24L209,24L206,26L194,25L188,24L185,28L182,28L180,26L177,28L173,28L166,25L160,27L156,24L151,25L151,26L146,29L143,28L136,30L136,30Z " data-fips="AM06" data-fips-="" data-iso3="ARM" data-name="Lori"/><path d="M191,144L186,142L189,137L187,134L173,136L173,137L172,138L173,139L173,141L173,141L174,142L175,142L177,144L178,148L181,149L184,153L188,151L192,146L191,144Z " data-fips="AM11" data-fips-="" data-iso3="ARM" data-name="Erevan"/><path d="M290,174L288,177L283,185L282,187L284,190L282,206L283,206L285,205L290,209L291,219L290,221L288,225L288,229L293,230L298,235L304,238L304,246L304,248L304,251L310,261L315,273L320,283L326,282L335,277L342,276L351,280L350,268L351,264L350,258L349,254L342,249L342,246L347,244L352,247L359,243L359,242L352,236L350,231L349,230L342,228L340,226L338,222L342,217L348,216L350,215L349,211L352,208L352,206L348,203L343,204L333,199L328,202L325,203L322,201L319,197L313,194L311,192L307,185L305,183L300,182L295,179L291,176L290,174Z " data-fips="AM08" data-fips-="" data-iso3="ARM" data-name="Syunik"/><path d="M271,160L269,158L265,162L261,164L250,165L238,168L235,171L231,173L229,178L228,184L228,186L234,193L236,207L239,206L242,204L244,203L250,210L260,215L263,214L270,209L272,208L282,206L284,190L282,187L283,185L288,177L290,174L286,167L282,163L273,163L271,161L271,160Z " data-fips="AM10" data-fips-="" data-iso3="ARM" data-name="Vayots Dzor"/></g></svg>