<?xml version="1.0" encoding="UTF-8"?><!DOCTYPE svg  PUBLIC '-//W3C//DTD SVG 1.1//EN'  'http://www.w3.org/Graphics/SVG/1.1/DTD/svg11.dtd'><svg enable_background="new 0 0 450 276" height="276px" pretty_print="False" style="stroke-linejoin: round; stroke:#000; fill: none;" version="1.1" viewBox="0 0 450 276" width="450px" xmlns="http://www.w3.org/2000/svg" xmlns:xlink="http://www.w3.org/1999/xlink"><defs><style type="text/css"><![CDATA[path { fill-rule: evenodd; }]]></style></defs><metadata><views><view h="276.168144542" padding="0" w="450"><proj id="laea" lat0="39.5" lon0="104.5"/><bbox h="858.81" w="1404.46" x="297.77" y="525.07"/></view></views></metadata><g class="" id="countries"><path d="M202.3,195.2L196.6,193.8L197.4,192.3L195.2,190.1L191.3,190.1L187.3,192.1L186.2,192.0L180.1,194.8L180.2,194.1L175.5,192.0L173.1,192.3L170.4,195.1L170.0,194.5L162.8,190.6L161.0,191.1L160.2,189.7L155.4,185.2L155.5,184.6L149.6,179.4L149.5,178.7L146.0,179.1L140.7,171.8L139.7,171.6L139.7,167.2L141.2,168.2L142.5,164.7L141.9,163.4L142.6,161.2L142.9,161.1L145.9,160.9L148.4,157.4L152.1,159.2L155.4,158.2L158.6,160.3L166.5,160.2L167.3,159.1L174.6,159.3L177.8,161.3L177.0,164.0L177.8,166.2L177.0,169.8L178.2,171.6L182.0,172.9L184.4,175.5L188.1,176.7L192.1,176.8L194.6,180.5L198.1,181.0L201.3,178.3L202.5,178.2L204.8,180.6L206.2,185.6L206.3,188.2L205.6,193.1L204.5,194.8L202.5,195.3L202.3,195.2Z " data-iso="TIB" data-name="Tibet" data-pop="3000000.0"/><path d="M134.2,145.5L133.4,145.1L132.7,145.2L133.0,145.9L133.1,145.9L132.7,146.0L125.7,144.6L122.3,146.6L122.4,148.7L121.4,150.4L119.3,151.5L119.2,153.2L116.9,153.0L115.7,155.1L113.6,155.4L110.8,159.3L108.9,159.7L104.3,159.6L103.1,158.8L100.4,159.7L98.5,163.1L91.5,161.9L83.5,156.2L82.6,155.2L83.8,154.6L87.5,151.3L85.4,148.4L88.7,138.9L91.7,137.0L93.4,134.7L93.5,134.4L93.7,134.5L95.5,137.5L98.1,137.7L99.0,136.3L103.6,136.4L105.5,134.1L108.0,134.5L109.1,133.6L110.6,135.3L110.8,135.4L111.7,135.7L112.3,136.1L113.2,136.9L114.0,137.5L113.9,137.6L113.9,137.8L115.6,138.5L121.1,139.1L124.1,136.5L125.5,139.8L124.2,143.9L130.6,143.1L134.3,145.4L134.3,145.5L134.2,145.5Z " data-iso="AFG" data-name="Afghanistan" data-pop="28400000.0"/><path d="M32.9,27.0L32.4,28.2L32.0,29.0L31.2,29.7L31.0,29.8L31.0,29.8L29.7,30.4L27.9,33.4L27.9,33.5L27.6,33.6L25.0,34.6L24.1,34.1L22.9,33.9L23.2,33.6L25.0,30.4L26.1,29.5L29.9,27.0L29.8,26.7L32.8,25.6L32.8,25.9L32.9,26.8L32.9,26.8L32.9,27.0Z " data-iso="ALB" data-name="Albania" data-pop="3639453.0"/><path d="M62.4,163.7L61.5,165.8L61.5,165.9L59.5,165.3L57.0,168.2L54.5,171.8L54.2,172.3L53.9,172.5L47.2,166.9L46.2,159.5L46.4,159.4L47.2,161.8L54.4,164.9L55.6,164.1L62.3,161.4L62.3,161.4L61.9,162.9L62.0,163.1L62.3,163.3L62.4,163.7Z " data-iso="ARE" data-name="United Arab Emirates" data-pop="4798491.0"/><path d="M64.2,97.4L63.9,97.1L63.4,97.0L63.3,96.8L63.5,96.5L64.3,93.9L63.5,93.5L62.8,91.6L62.6,91.4L62.6,91.2L62.4,89.4L61.7,88.7L63.4,84.3L63.5,84.2L63.7,84.3L65.4,85.4L67.0,86.6L67.1,86.6L67.1,86.8L65.1,92.3L65.3,94.6L64.4,97.1L64.2,97.4Z " data-iso="ARM" data-name="Armenia" data-pop="2967004.0"/><path d="M52.7,5.4L52.1,5.5L51.9,5.6L50.7,6.9L50.6,7.1L50.4,7.0L48.5,7.0L47.7,6.7L46.1,7.1L45.6,7.0L45.5,6.9L44.8,6.5L44.2,5.3L42.9,1.9L42.9,1.8L42.9,1.2L43.7,-2.9L44.3,-3.2L42.7,-7.1L42.9,-7.1L43.2,-9.5L46.7,-4.3L46.2,-1.8L50.7,-2.8L51.5,-2.4L51.6,-2.4L51.7,-0.1L53.0,-0.0L52.8,5.3L52.7,5.4L52.7,5.4Z " data-iso="AUT" data-name="Austria" data-pop="8210281.0"/><path d="M63.3,96.8L63.0,96.3L62.3,95.1L62.5,91.8L62.5,91.7L62.6,91.5L62.6,91.4L62.8,91.6L63.5,93.5L64.3,93.9L63.5,96.5L63.3,96.8Z M76.0,91.8L76.1,99.9L74.1,98.8L70.6,102.0L69.2,102.2L68.4,103.6L67.4,100.5L69.4,99.2L69.4,97.7L64.4,97.6L64.2,97.4L64.4,97.1L65.3,94.6L65.1,92.3L67.1,86.8L67.1,86.6L67.9,86.6L69.8,90.2L70.6,89.8L71.4,87.4L71.6,87.3L71.8,87.6L71.9,90.8L72.9,92.2L75.9,91.4L76.0,91.8Z " data-iso="AZE" data-name="Azerbaijan" data-pop="8238672.0"/><path d="M181.1,217.7L181.1,217.9L180.9,220.5L179.7,222.2L179.6,222.2L178.9,220.6L178.4,216.4L177.1,214.0L174.5,212.5L173.9,215.7L168.3,215.8L168.3,215.5L167.3,209.1L167.9,207.9L166.0,204.7L167.7,203.1L166.8,200.2L170.1,199.1L171.7,200.6L174.0,204.1L179.4,205.0L180.9,206.3L179.4,208.8L177.6,208.9L176.9,212.8L180.5,211.0L181.0,217.5L181.1,217.7Z " data-iso="BGD" data-name="Bangladesh" data-pop="156050883.0"/><path d="M45.9,45.0L42.3,45.3L41.1,45.3L40.4,47.7L40.2,48.0L39.4,46.7L37.2,44.5L37.1,44.6L37.1,44.2L35.8,45.0L34.4,43.5L31.8,37.5L31.7,37.2L31.8,37.2L32.7,36.6L33.1,36.4L34.1,34.0L34.4,33.2L34.6,33.3L36.4,32.1L36.8,32.6L41.4,29.1L41.5,29.2L41.5,29.5L45.3,38.6L45.9,39.3L46.8,44.4L45.9,45.0Z " data-iso="BGR" data-name="Bulgaria" data-pop="7204687.0"/><path d="M40.3,18.6L40.4,18.7L39.0,19.8L37.8,22.0L35.9,22.3L35.6,22.2L35.6,22.1L33.3,22.0L32.9,21.7L31.5,22.7L31.5,22.6L31.5,22.3L32.0,20.4L37.4,10.6L38.9,11.0L40.3,18.4L40.3,18.6Z " data-iso="BIH" data-name="Bosnia and Herz." data-pop="4613414.0"/><path d="M89.4,12.7L89.2,15.8L90.2,16.4L90.1,18.6L86.0,22.4L84.8,24.6L82.6,26.9L82.3,25.4L79.0,28.8L78.9,28.8L78.7,28.5L74.9,27.3L72.7,20.6L68.7,13.9L68.6,13.9L69.0,13.5L71.1,11.4L73.1,11.8L76.4,9.2L77.6,8.3L77.6,8.5L80.6,11.5L82.8,10.8L84.9,11.6L86.4,10.6L86.5,10.5L86.6,10.5L87.5,11.0L87.6,11.5L89.6,12.2L89.6,12.3L89.4,12.7Z " data-iso="BLR" data-name="Belarus" data-pop="9648533.0"/><path d="M170.7,194.5L175.1,191.9L178.8,193.4L180.1,194.6L180.1,194.8L181.4,196.8L179.8,198.5L175.2,197.5L172.6,197.8L170.4,195.1L170.7,194.5Z " data-iso="BTN" data-name="Bhutan" data-pop="691141.0"/><path d="M26.8,79.8L27.8,79.5L28.6,80.9L28.9,82.7L28.8,83.1L28.1,82.5L28.0,81.5L26.8,79.6L26.8,79.8Z " data-iso="CYN" data-name="N. Cyprus" data-pop="265100.0"/><path d="M28.8,83.2L25.2,81.2L25.1,80.6L26.7,79.4L26.8,79.6L28.0,81.5L28.1,82.5L28.8,83.1L28.8,83.2Z " data-iso="CYP" data-name="Cyprus" data-pop="531640.0"/><path d="M57.4,7.8L57.4,7.8L55.2,7.1L54.5,6.7L53.0,5.3L52.7,5.4L52.8,5.3L53.0,-0.0L51.7,-0.1L51.6,-2.4L51.8,-2.6L53.3,-5.8L56.5,-8.6L57.4,-8.4L60.0,-5.4L60.2,-4.0L60.2,-4.0L60.6,-3.0L58.4,1.8L59.7,1.8L58.7,6.3L57.5,7.7L57.4,7.8Z " data-iso="CZE" data-name="Czech Rep." data-pop="10211904.0"/><path d="M-1.4,190.9L-1.6,190.8L-4.8,188.3L-3.6,185.5L-1.3,184.3L-0.8,184.0L-0.6,184.0L-0.0,185.1L0.3,185.1L1.8,184.8L1.8,185.0L1.9,187.5L1.1,188.0L0.2,189.3L0.3,189.8L-0.1,190.1L-0.7,190.5L-1.4,190.9Z " data-iso="DJI" data-name="Djibouti" data-pop="516055.0"/><path d="M-19.6,27.7L-19.8,27.5L-22.4,30.7L-31.5,38.9L-33.8,39.0L-37.6,47.7L-39.5,55.3L-41.0,54.4L-52.5,47.6L-58.4,45.9L-61.8,38.2L-60.6,36.3L-58.5,28.6L-56.8,23.8L-56.1,23.1L-53.4,14.8L-50.7,7.4L-46.2,-3.6L-38.1,-20.8L-33.0,-30.4L-27.6,-33.2L-26.7,-32.2L-24.3,-27.3L-23.7,-23.4L-22.3,-23.0L-20.7,-19.4L-17.9,-20.1L-16.6,-13.3L-11.9,-17.2L-7.8,-19.7L-4.6,-20.8L-2.8,-19.2L0.1,-14.6L0.8,-10.6L2.2,-6.6L3.7,6.8L4.0,8.1L-0.4,9.7L-3.0,11.6L-5.0,12.2L-8.0,12.0L-18.8,26.8L-19.6,27.7Z " data-iso="DZA" data-name="Algeria" data-pop="34178188.0"/><path d="M18.7,96.3L18.4,97.2L17.3,99.5L16.9,100.7L15.6,103.7L15.4,103.7L11.1,107.2L9.5,105.7L9.8,102.6L11.8,96.1L9.4,100.7L8.7,105.6L6.4,111.0L3.9,121.7L4.0,125.1L3.4,124.6L1.6,128.4L2.3,134.8L2.3,134.9L-1.7,130.6L-8.5,122.8L-15.3,114.2L-23.1,103.2L-23.8,102.0L-23.2,101.3L-11.0,86.2L-4.0,78.2L-1.6,74.5L2.2,71.1L3.6,70.9L3.4,71.5L6.2,77.5L7.8,84.2L13.7,87.0L15.1,92.3L18.9,95.8L19.0,95.8L18.9,95.9L18.7,96.3Z " data-iso="EGY" data-name="Egypt" data-pop="83082869.0"/><path d="M-1.9,156.8L-3.8,165.4L-1.8,170.6L-0.4,176.5L0.7,179.4L1.1,183.5L1.9,184.3L1.8,184.8L0.3,185.1L-0.0,185.1L-0.6,184.0L-0.8,184.0L-0.9,183.4L-2.7,173.7L-6.6,167.7L-8.6,167.0L-9.5,163.8L-11.7,165.7L-14.2,162.6L-14.3,162.6L-13.8,161.4L-12.9,159.0L-10.8,157.3L-7.7,153.4L-6.4,154.3L-1.5,153.9L-1.9,156.8Z " data-iso="ERI" data-name="Eritrea" data-pop="5647168.0"/><path d="M101.9,4.7L98.6,5.3L95.2,7.5L94.2,7.7L94.1,7.8L94.0,7.7L94.1,4.3L94.4,2.7L93.1,1.7L93.3,1.6L97.7,-2.4L100.7,0.2L101.8,4.7L101.9,4.7Z " data-iso="EST" data-name="Estonia" data-pop="1299371.0"/><path d="M-0.8,184.0L-1.3,184.3L-3.6,185.5L-4.8,188.3L-1.6,190.8L-1.4,190.9L-1.5,191.1L-2.2,191.4L-0.9,201.3L7.0,211.6L9.3,213.3L10.4,214.0L9.3,214.4L1.3,217.3L-3.3,219.3L-9.4,216.3L-10.9,216.9L-14.2,216.0L-14.6,215.6L-17.3,212.1L-20.1,211.6L-22.3,212.2L-26.4,207.9L-31.6,199.1L-32.5,185.6L-34.9,177.4L-29.5,174.6L-29.5,174.5L-27.1,170.9L-24.7,171.3L-21.9,168.0L-19.9,166.7L-18.2,167.3L-15.0,163.4L-14.3,162.6L-14.2,162.6L-11.7,165.7L-9.5,163.8L-8.6,167.0L-6.6,167.7L-2.7,173.7L-0.9,183.4L-0.8,184.0Z " data-iso="ETH" data-name="Ethiopia" data-pop="85237338.0"/><path d="M139.2,-12.7L136.3,-11.9L130.8,-8.5L128.1,-5.8L124.1,-4.3L121.9,-2.3L119.3,-0.9L118.3,1.7L114.8,3.2L105.7,2.1L105.7,2.1L100.7,-4.0L99.8,-4.4L103.8,-9.4L108.9,-11.7L112.4,-12.8L113.2,-11.8L122.0,-10.6L123.6,-11.3L126.2,-14.9L128.0,-15.2L133.1,-18.3L135.9,-22.8L137.1,-21.9L135.2,-19.3L135.6,-16.8L142.8,-15.7L141.8,-13.6L139.3,-12.8L139.2,-12.7Z " data-iso="FIN" data-name="Finland" data-pop="5250275.0"/><path d="M26.6,-1.8L24.1,-0.3L21.3,0.3L24.0,-3.2L25.3,-3.4L26.6,-1.8Z M38.1,-14.3L37.6,-14.6L34.0,-13.3L31.5,-11.5L29.6,-9.1L29.6,-9.2L27.2,-10.6L26.9,-13.1L28.0,-17.9L26.7,-19.9L24.3,-19.3L23.3,-20.4L25.5,-29.5L25.5,-30.3L28.3,-34.2L33.2,-34.8L40.1,-37.3L44.3,-40.0L44.5,-41.4L47.3,-46.1L50.5,-48.5L49.6,-43.2L49.6,-40.1L54.1,-42.3L52.0,-37.6L53.6,-37.2L55.7,-34.5L58.6,-34.5L58.9,-33.1L55.3,-28.1L54.8,-26.3L53.4,-25.6L50.1,-16.4L44.8,-15.5L41.6,-17.3L38.8,-17.1L40.0,-16.3L38.2,-14.4L38.1,-14.3Z " data-iso="FRA" data-name="France" data-pop="64057792.0"/><path d="M18.9,95.9L19.0,95.8L19.8,95.7L20.2,95.6L19.4,96.0L19.2,96.2L18.7,96.3L18.9,95.9Z " data-iso="GAZ" data-name="Gaza" data-pop="1604238.0"/><path d="M71.4,87.4L70.6,89.8L69.8,90.2L67.9,86.6L67.1,86.6L67.0,86.6L65.4,85.4L63.7,84.3L63.5,84.2L63.6,84.1L61.3,79.9L60.9,79.0L61.8,78.8L64.1,74.9L63.8,74.1L63.5,70.7L63.4,69.9L64.9,70.9L65.7,73.7L71.7,84.1L70.9,85.1L71.6,87.2L71.6,87.3L71.4,87.4Z " data-iso="GEO" data-name="Georgia" data-pop="4615807.0"/><path d="M33.6,46.4L32.0,42.0L30.7,40.9L29.7,43.6L28.0,41.6L28.5,38.7L26.9,39.8L23.7,43.7L23.1,42.9L21.1,48.7L20.7,47.1L18.1,48.0L17.3,49.2L15.2,49.1L16.2,46.7L15.0,47.0L16.9,44.6L17.8,42.1L20.4,42.8L20.3,46.4L21.3,46.6L20.7,42.6L19.8,41.5L20.4,39.3L22.8,34.3L22.9,33.9L24.1,34.1L25.0,34.6L27.6,33.6L27.9,33.5L28.0,33.8L29.1,35.3L31.6,37.0L31.7,37.2L31.8,37.5L34.4,43.5L35.8,45.0L37.1,44.2L37.1,44.6L37.2,44.9L35.6,45.9L34.8,46.7L33.5,46.6L33.6,46.4Z " data-iso="GRC" data-name="Greece" data-pop="10737428.0"/><path d="M259.9,216.6L260.2,216.4L260.3,216.4L260.9,216.4L260.9,216.4L259.5,217.0L259.9,216.7L259.9,216.6Z " data-iso="HKG" data-name="Hong Kong" data-pop="7055071.0"/><path d="M32.0,20.4L31.5,22.3L31.5,22.6L31.3,22.7L31.2,22.9L31.1,23.2L31.3,22.4L32.1,18.4L31.9,20.1L32.0,20.4Z M44.1,15.9L44.0,15.9L42.3,17.3L42.0,18.3L40.4,18.5L40.3,18.6L40.3,18.4L38.9,11.0L37.4,10.6L32.1,19.3L33.4,15.0L38.7,6.4L38.8,3.4L38.9,3.5L39.7,7.9L42.8,7.3L44.5,8.5L44.5,8.8L44.5,9.0L42.8,13.5L42.8,13.9L44.1,15.9L44.1,15.9Z " data-iso="HRV" data-name="Croatia" data-pop="4489409.0"/><path d="M56.1,18.0L55.6,18.6L55.6,19.1L55.0,20.4L54.9,20.5L54.8,20.5L52.5,19.6L47.1,20.3L46.0,18.7L45.9,18.7L45.9,18.6L45.2,16.9L44.5,16.3L44.2,15.9L44.1,15.9L44.1,15.9L42.8,13.9L42.8,13.5L44.5,9.0L44.5,8.8L44.6,8.7L45.2,7.9L45.7,7.5L45.6,7.0L46.1,7.1L47.7,6.7L48.5,7.0L50.4,7.0L50.6,7.1L50.6,7.1L50.9,11.3L52.0,11.2L55.2,14.0L55.9,17.7L55.9,17.8L56.1,18.0Z " data-iso="HUN" data-name="Hungary" data-pop="9905596.0"/><path d="M145.8,178.4L141.5,182.6L142.5,183.9L151.2,191.1L155.6,192.4L162.5,197.2L163.6,197.4L167.5,196.1L168.0,192.5L168.0,192.3L169.7,191.9L170.5,192.3L170.2,194.9L170.4,195.1L172.6,197.8L175.2,197.5L179.8,198.5L181.4,196.8L180.1,194.8L180.4,194.8L183.8,193.9L186.0,192.1L191.5,190.5L195.9,189.9L196.9,190.9L196.9,194.1L199.9,195.0L200.0,195.1L198.4,197.2L191.8,200.7L189.4,205.9L189.8,206.6L187.0,210.8L185.0,210.3L183.1,217.1L181.3,217.6L181.1,217.7L181.0,217.5L180.5,211.0L176.9,212.8L177.6,208.9L179.4,208.8L180.9,206.3L179.4,205.0L174.0,204.1L171.7,200.6L170.1,199.1L166.8,200.2L167.7,203.1L166.0,204.7L167.9,207.9L167.3,209.1L168.3,215.5L168.1,216.1L164.7,216.7L164.1,215.9L159.9,217.5L157.0,221.6L154.3,222.6L154.0,221.7L148.1,226.9L146.3,227.4L140.9,230.1L139.7,232.3L136.9,232.1L134.3,233.5L132.7,233.4L131.1,242.7L130.3,245.2L127.8,249.1L127.4,253.9L125.7,253.6L123.5,256.0L123.7,256.9L120.3,257.8L118.3,260.1L115.3,258.4L113.4,253.8L111.8,244.3L110.2,240.3L109.6,232.6L108.5,227.2L107.5,225.3L107.8,214.1L108.4,213.3L108.0,209.8L109.7,206.2L110.2,203.1L109.9,200.7L108.9,200.0L108.2,202.7L102.1,203.9L98.3,197.1L98.5,195.4L102.2,196.2L103.8,194.6L101.0,194.8L98.2,192.5L96.9,189.1L97.0,188.6L99.6,187.7L102.8,189.6L107.5,189.1L107.2,186.9L104.8,179.1L109.9,176.2L112.7,177.6L114.4,176.9L123.1,171.3L126.0,168.5L128.9,163.8L126.8,159.8L129.6,154.3L133.5,156.8L138.1,155.9L138.2,155.7L138.7,155.6L140.1,155.2L140.6,155.1L140.9,155.0L141.0,155.0L141.3,156.1L141.6,158.9L143.0,161.0L142.4,161.3L142.3,167.6L139.7,166.9L139.7,171.5L143.7,176.2L145.8,178.1L145.8,178.4Z " data-iso="IND" data-name="India" data-pop="1166079217.0"/><path d="M63.3,96.8L63.4,97.0L63.9,97.1L64.2,97.4L64.4,97.6L69.4,97.7L69.4,99.2L67.4,100.5L68.4,103.6L68.3,103.7L68.8,110.7L71.0,115.2L75.5,117.2L77.6,117.0L77.8,116.4L85.3,117.7L87.9,119.4L89.4,122.4L91.7,124.9L92.9,129.3L94.9,130.5L93.5,134.3L93.5,134.4L93.4,134.7L91.7,137.0L88.7,138.9L85.4,148.4L87.5,151.3L83.8,154.6L82.7,155.1L82.6,155.2L82.8,156.2L83.6,161.7L85.3,165.1L85.5,168.5L84.4,170.8L83.5,170.3L79.8,170.6L77.7,173.8L77.5,173.8L65.8,163.0L65.9,162.0L62.6,157.2L59.7,157.4L56.6,154.6L52.4,144.8L53.3,134.9L51.5,133.9L51.1,131.7L49.0,132.8L48.8,132.8L48.8,127.3L50.9,124.8L50.0,112.5L51.0,111.4L54.3,109.7L56.1,107.4L54.8,105.2L56.1,100.0L56.1,100.0L56.2,100.0L60.3,91.0L62.5,91.6L62.5,91.7L62.5,91.8L62.3,95.1L63.0,96.3L63.3,96.8Z " data-iso="IRN" data-name="Iran" data-pop="66429284.0"/><path d="M56.1,100.0L54.8,105.2L56.1,107.4L54.3,109.7L51.0,111.4L50.0,112.5L50.9,124.8L48.8,127.3L48.8,132.8L48.5,132.7L48.3,132.4L47.5,131.4L47.4,131.5L46.5,130.2L45.3,129.8L42.6,131.5L41.8,131.7L41.3,131.5L35.7,117.5L33.6,108.3L31.8,105.5L31.4,104.9L32.0,104.8L32.1,103.5L33.3,100.8L33.7,99.8L34.7,100.0L43.8,98.9L47.4,95.2L50.9,95.2L50.9,95.2L51.1,95.3L52.3,95.1L54.3,97.9L56.1,99.9L56.1,100.0L56.1,100.0Z " data-iso="IRQ" data-name="Iraq" data-pop="28945657.0"/><path d="M25.8,94.9L25.4,94.7L25.2,94.8L24.5,95.5L24.4,95.3L21.6,96.7L21.8,98.2L21.9,98.3L21.5,98.8L18.9,100.9L17.9,101.9L15.9,103.6L15.6,103.7L16.9,100.7L17.3,99.5L18.4,97.2L18.7,96.3L19.2,96.2L19.4,96.0L20.2,95.6L20.2,95.6L21.4,95.1L22.5,94.4L25.1,92.5L25.5,92.2L26.1,92.9L26.3,93.0L27.8,92.9L27.9,92.9L27.7,93.0L27.2,93.9L27.0,94.0L26.1,94.8L25.9,95.0L25.8,94.9Z " data-iso="ISR" data-name="Israel" data-pop="7233701.0"/><path d="M13.4,25.6L10.0,26.3L8.9,27.8L7.5,27.8L7.5,26.1L9.1,18.2L11.1,18.6L11.1,20.7L13.4,25.6Z M19.3,2.6L13.5,5.8L11.5,4.6L12.7,2.4L15.9,0.8L18.8,-1.4L20.4,0.9L19.3,2.6Z M42.9,1.8L42.6,1.8L41.9,1.4L40.7,2.6L39.3,3.7L39.5,3.8L38.0,0.3L34.1,2.5L31.0,8.3L28.0,11.6L27.2,13.1L24.4,24.3L22.8,28.8L21.6,29.2L22.9,23.9L21.2,23.8L18.9,26.9L17.2,27.6L12.9,27.6L12.6,26.7L16.6,25.5L19.9,21.5L21.5,17.7L22.6,11.4L27.6,0.7L30.9,-1.8L32.6,-6.9L29.9,-8.5L29.6,-9.1L31.5,-11.5L34.0,-13.3L37.6,-14.6L38.1,-14.3L38.0,-14.1L40.3,-11.4L39.1,-9.8L40.6,-7.6L42.2,-6.9L42.7,-7.1L44.3,-3.2L43.7,-2.9L42.9,1.2L42.9,1.8Z " data-iso="ITA" data-name="Italy" data-pop="58126212.0"/><path d="M30.8,105.0L25.1,101.9L24.8,107.7L22.4,108.2L20.5,106.9L17.4,107.5L15.4,104.3L15.8,103.9L15.9,103.6L17.9,101.9L18.9,100.9L21.5,98.8L21.9,98.3L22.2,98.1L22.9,97.6L23.4,96.8L24.2,96.1L24.5,95.5L25.2,94.8L25.4,94.7L25.8,94.9L25.9,95.0L26.1,95.3L26.3,97.9L26.9,98.8L32.9,99.7L33.7,99.8L33.3,100.8L32.1,103.5L32.0,104.8L31.4,104.9L30.8,105.0Z " data-iso="JOR" data-name="Jordan" data-pop="6342948.0"/><path d="M311.0,162.3L312.8,161.9L312.5,163.2L313.9,169.5L312.2,172.1L310.0,171.7L310.4,166.6L308.5,165.5L307.9,167.3L307.1,164.6L308.6,162.0L311.0,162.3Z M320.0,156.6L320.9,156.4L320.6,160.2L317.8,161.1L316.5,164.1L315.0,161.8L318.7,156.7L320.0,156.6Z M329.4,122.0L334.0,127.1L334.2,133.1L333.8,134.3L336.0,142.6L336.7,143.2L335.7,147.8L335.2,145.0L334.6,147.2L331.5,148.7L331.0,151.0L326.5,150.8L325.0,158.1L324.2,158.1L322.8,154.1L321.6,154.5L313.6,158.9L313.8,160.4L309.8,161.1L310.4,159.2L314.9,152.9L318.0,151.9L320.6,150.1L323.2,149.4L322.8,148.2L324.3,143.2L325.6,143.8L326.8,142.0L329.2,136.9L329.4,135.7L328.5,129.1L328.0,129.2L327.4,123.5L329.4,122.0Z M331.2,108.7L333.9,108.1L334.4,106.0L334.9,108.4L337.1,109.9L333.5,113.8L333.5,117.0L329.0,116.8L325.4,118.8L328.3,120.7L327.2,121.0L326.5,123.1L323.9,119.1L324.7,116.6L324.0,115.8L326.5,114.3L323.6,106.6L331.2,108.7Z " data-iso="JPN" data-name="Japan" data-pop="127078679.0"/><path d="M140.6,155.1L140.1,155.2L138.7,155.6L138.2,155.7L138.2,155.4L138.1,154.3L138.1,153.8L138.0,153.4L138.3,153.7L139.4,154.5L139.9,154.7L140.7,155.0L140.9,155.0L140.6,155.1Z " data-iso="KAS" data-name="" data-pop="6000.0"/><path d="M180.9,109.4L180.7,109.3L178.3,111.2L175.8,111.9L175.0,115.6L172.4,116.7L167.8,115.0L164.8,119.6L164.6,121.8L162.8,120.3L158.1,120.4L157.9,127.6L155.4,131.3L155.3,131.3L155.0,130.8L152.8,128.2L147.6,125.7L142.1,124.1L138.3,122.3L135.8,123.2L134.3,121.8L131.9,120.9L130.3,122.1L130.3,122.4L130.0,122.4L124.0,123.5L121.8,124.9L117.8,121.7L118.0,117.9L117.2,117.5L119.1,114.0L117.2,109.8L116.0,109.8L113.1,108.0L110.1,106.9L109.3,102.9L106.0,94.6L99.3,92.9L91.7,104.9L91.3,105.7L91.2,105.6L90.0,105.1L89.4,99.5L84.3,98.4L84.5,98.0L86.8,95.0L85.0,91.6L85.7,85.9L87.6,86.0L88.8,87.5L88.8,85.1L90.5,84.5L94.1,87.4L93.8,85.9L96.1,84.4L97.5,81.5L94.6,78.4L88.7,77.4L88.6,77.6L90.2,71.3L88.6,69.4L89.7,65.9L96.3,61.6L96.8,65.1L98.7,63.0L105.6,62.5L108.1,64.7L108.1,65.7L111.7,73.4L115.5,73.6L115.9,74.7L118.1,75.4L118.8,77.8L123.7,79.9L124.3,77.3L127.7,72.2L129.8,72.9L128.7,71.1L130.4,68.8L135.8,71.0L144.6,72.8L146.2,72.3L149.5,73.2L151.4,75.7L150.3,78.4L154.6,81.4L154.0,83.2L155.9,83.9L161.4,84.0L163.2,87.3L166.1,98.1L167.0,97.0L168.3,99.3L170.7,100.3L172.2,100.0L176.2,106.1L178.4,107.2L179.9,106.4L180.9,109.2L180.9,109.4Z " data-iso="KAZ" data-name="Kazakhstan" data-pop="15399437.0"/><path d="M155.3,131.6L145.8,133.4L144.5,133.1L142.3,135.0L138.4,133.1L133.9,135.8L133.6,135.8L133.5,135.7L129.4,135.2L127.9,133.0L121.8,130.7L122.5,129.0L127.3,130.0L127.4,129.9L127.5,129.9L129.5,131.0L134.1,130.0L129.6,126.9L129.5,123.4L130.4,122.3L130.3,122.4L130.3,122.1L131.9,120.9L134.3,121.8L135.8,123.2L138.3,122.3L142.1,124.1L147.6,125.7L152.8,128.2L155.0,130.8L155.3,131.3L155.3,131.6Z M127.5,131.5L127.1,130.5L127.2,131.0L127.5,131.5Z M126.1,131.2L125.5,130.8L125.6,131.0L126.1,131.2Z " data-iso="KGZ" data-name="Kyrgyzstan" data-pop="5431747.0"/><path d="M224.0,264.5L221.6,264.6L221.6,262.5L219.6,263.0L218.8,259.9L218.8,260.0L216.4,252.9L218.8,250.7L221.3,249.6L227.6,250.0L227.7,249.9L227.7,250.0L231.1,251.5L233.9,249.9L236.6,248.5L236.8,248.4L236.8,248.6L237.2,252.9L236.5,257.8L232.3,260.1L230.8,260.1L230.0,262.8L228.5,263.0L224.7,265.0L224.0,264.5Z " data-iso="KHM" data-name="Cambodia" data-pop="14494293.0"/><path d="M298.5,146.9L302.8,153.1L303.3,158.0L296.4,162.6L294.5,160.1L295.1,157.7L292.9,153.4L293.9,151.8L293.0,150.1L293.0,150.0L293.7,147.9L297.3,145.4L298.5,146.9Z " data-iso="KOR" data-name="S. Korea" data-pop="48508972.0"/><path d="M33.4,31.4L31.9,29.9L31.0,29.9L31.0,29.8L31.2,29.7L32.0,29.0L32.4,28.2L32.9,27.0L32.9,26.8L33.0,26.8L33.5,26.3L33.7,26.3L34.0,26.6L34.2,26.9L34.4,27.1L35.8,26.6L35.8,28.0L33.5,31.3L33.4,31.4L33.4,31.4Z " data-iso="KOS" data-name="Kosovo" data-pop="1804838.0"/><path d="M45.6,137.7L43.6,136.1L43.6,135.6L42.3,132.2L41.8,131.7L42.6,131.5L45.3,129.8L46.5,130.2L47.4,131.5L47.3,131.7L47.0,133.3L46.6,132.8L45.7,137.2L45.6,137.7Z " data-iso="KWT" data-name="Kuwait" data-pop="2691158.0"/><path d="M216.5,219.1L219.3,221.5L219.0,223.4L224.4,224.9L224.5,226.4L226.6,228.0L222.8,230.9L227.3,233.2L227.5,234.5L232.8,240.1L232.9,241.0L236.2,243.2L235.3,244.2L236.7,247.9L236.8,248.4L236.6,248.5L233.9,249.9L231.1,251.5L227.7,250.0L227.7,249.9L227.9,249.8L229.0,247.2L228.5,243.6L226.0,239.4L226.2,238.5L222.9,234.6L220.7,234.2L219.6,235.3L219.6,235.2L219.6,235.3L219.6,235.3L217.2,235.8L215.6,235.1L212.0,237.6L212.8,231.9L211.7,229.4L209.6,229.1L208.6,226.7L208.6,226.5L208.6,226.3L210.3,224.3L210.2,224.2L212.3,222.1L212.5,221.8L212.7,222.0L215.0,223.2L214.9,218.2L216.1,218.6L216.3,218.7L216.5,219.1Z " data-iso="LAO" data-name="Laos" data-pop="6834942.0"/><path d="M27.8,92.9L26.3,93.0L26.1,92.9L25.5,92.2L25.8,92.1L29.0,90.3L29.7,89.7L31.2,89.5L31.4,89.2L32.1,89.8L31.5,92.0L28.1,92.9L27.9,92.9L27.8,92.9Z " data-iso="LBN" data-name="Lebanon" data-pop="4017095.0"/><path d="M-23.8,102.0L-25.1,103.7L-27.7,107.2L-28.9,109.0L-32.2,107.7L-32.5,105.4L-34.7,75.2L-34.7,69.0L-39.5,65.8L-38.8,62.1L-39.2,57.4L-39.5,55.3L-37.6,47.7L-33.8,39.0L-31.5,38.9L-22.4,30.7L-19.8,27.5L-19.6,27.7L-19.3,27.9L-17.1,28.5L-14.8,26.3L-10.4,28.3L-7.7,26.3L-7.8,26.9L-8.0,31.2L-7.1,34.5L-7.7,40.9L-9.6,43.4L-9.9,45.8L-9.1,50.0L-9.4,57.8L-7.9,58.9L-3.5,55.6L-1.9,54.9L3.1,58.8L3.0,62.9L4.1,69.9L3.7,70.7L3.6,70.9L2.2,71.1L-1.6,74.5L-4.0,78.2L-11.0,86.2L-23.2,101.3L-23.8,102.0Z " data-iso="LBY" data-name="Libya" data-pop="6310434.0"/><path d="M127.7,256.0L131.3,260.3L133.9,267.3L132.9,270.1L127.0,270.8L125.7,267.3L125.9,262.5L127.0,260.3L127.7,256.0Z " data-iso="LKA" data-name="Sri Lanka" data-pop="21324791.0"/><path d="M80.9,0.5L80.9,0.4L81.4,0.4L81.8,0.4L81.2,0.5L80.9,0.5Z M86.5,10.5L86.4,10.6L84.9,11.6L82.8,10.8L80.6,11.5L77.6,8.5L77.6,8.3L77.6,8.2L78.3,7.8L78.8,6.0L78.6,6.0L78.8,5.8L79.6,5.3L80.5,5.1L81.0,1.1L81.1,1.1L81.3,0.9L83.0,-0.3L83.8,-0.8L84.0,-0.9L86.0,0.5L87.4,7.8L86.5,10.4L86.5,10.5Z " data-iso="LTU" data-name="Lithuania" data-pop="3555179.0"/><path d="M94.1,8.0L93.1,9.4L92.3,9.6L89.8,12.2L89.6,12.3L89.6,12.2L87.6,11.5L87.5,11.0L86.6,10.5L86.5,10.5L86.5,10.4L87.4,7.8L86.0,0.5L84.0,-0.9L84.7,-1.3L90.3,-2.5L89.2,2.3L92.8,1.8L93.1,1.7L94.4,2.7L94.1,4.3L94.0,7.7L94.1,7.8L94.1,8.0Z " data-iso="LVA" data-name="Latvia" data-pop="2231503.0"/><path d="M258.3,217.9L258.3,217.9L258.1,218.0L258.1,218.0L258.1,218.0L258.1,218.0L258.1,217.9L258.2,217.8L258.3,217.9Z " data-iso="MAC" data-name="Macau" data-pop="559846.0"/><path d="M52.1,38.6L56.5,35.2L57.0,34.5L59.9,28.3L59.8,28.1L60.0,28.0L61.7,30.3L61.6,34.2L58.6,39.1L52.2,38.9L52.0,38.9L52.1,38.6Z " data-iso="MDA" data-name="Moldova" data-pop="4320748.0"/><path d="M34.1,34.0L33.1,36.4L32.7,36.6L31.8,37.2L31.7,37.2L31.6,37.0L29.1,35.3L28.0,33.8L27.9,33.5L27.9,33.4L29.7,30.4L31.0,29.8L31.0,29.8L31.0,29.9L31.9,29.9L33.4,31.4L33.4,31.4L33.4,31.6L33.6,31.8L34.4,33.1L34.4,33.2L34.1,34.0Z " data-iso="MKD" data-name="Macedonia" data-pop="2066718.0"/><path d="M202.6,195.4L204.5,197.9L204.6,201.8L199.8,209.7L200.0,212.1L202.2,211.3L204.5,211.6L204.2,212.9L205.7,215.5L205.8,219.4L208.2,220.0L208.1,220.9L210.8,222.0L212.6,221.7L212.5,221.8L212.3,222.1L210.2,224.2L210.3,224.3L208.6,226.3L208.6,226.5L208.2,226.2L204.4,227.4L204.0,228.4L201.0,228.2L198.0,233.0L201.1,238.4L202.6,241.7L202.0,245.2L200.5,245.9L201.8,249.2L203.5,250.9L204.2,255.6L205.6,259.3L202.2,263.3L201.8,265.2L201.6,265.2L200.9,263.3L201.9,256.2L201.1,252.5L199.0,247.1L198.9,244.9L196.9,238.5L194.7,240.2L192.3,241.2L187.0,242.1L187.3,239.8L185.3,241.1L187.2,235.7L182.3,224.2L179.9,222.5L179.7,222.2L180.9,220.5L181.1,217.9L181.1,217.7L181.3,217.6L183.1,217.1L185.0,210.3L187.0,210.8L189.8,206.6L189.4,205.9L191.8,200.7L198.4,197.2L200.0,195.1L200.1,194.9L201.6,194.6L202.0,194.7L202.4,195.3L202.6,195.4Z " data-iso="MMR" data-name="Myanmar" data-pop="48137741.0"/><path d="M35.6,22.2L34.7,24.3L34.7,24.7L34.3,26.8L34.2,26.9L34.0,26.6L33.7,26.3L33.5,26.3L33.0,26.8L32.9,26.8L32.9,26.8L32.8,25.9L32.8,25.6L29.8,26.7L30.0,26.1L30.8,24.6L31.0,23.6L31.1,23.3L31.1,23.2L31.2,22.9L31.3,22.7L31.5,22.6L31.5,22.7L32.9,21.7L33.3,22.0L35.6,22.1L35.6,22.2L35.6,22.2Z " data-iso="MNE" data-name="Montenegro" data-pop="672180.0"/><path d="M255.8,109.4L255.2,117.4L256.0,116.6L259.9,115.5L266.3,119.7L263.5,119.8L259.9,121.1L259.8,122.0L255.8,126.2L252.7,126.9L250.4,129.6L247.6,129.2L245.3,132.9L245.8,133.3L242.1,138.2L239.4,139.6L231.6,140.5L227.4,142.7L225.0,142.3L216.9,139.8L210.4,139.1L203.9,137.8L201.5,137.9L198.4,131.4L196.2,129.7L192.5,127.6L190.8,127.4L187.0,124.9L188.3,122.7L188.1,119.1L187.2,116.2L182.2,111.8L182.2,109.6L182.2,109.4L182.2,109.4L183.4,108.5L187.4,108.0L188.7,106.8L194.3,105.3L196.3,105.8L199.9,108.8L207.6,109.9L208.8,109.4L208.4,105.5L211.5,101.6L215.1,103.3L219.5,107.4L222.8,109.8L226.9,108.5L233.8,110.7L235.6,112.7L240.0,112.9L244.5,111.7L249.2,108.1L253.2,108.9L255.8,108.6L255.9,108.8L255.8,109.4Z " data-iso="MNG" data-name="Mongolia" data-pop="3041142.0"/><path d="M215.9,280.9L219.7,284.5L220.8,287.8L221.0,293.8L222.1,294.6L224.0,299.0L220.2,298.4L215.2,295.7L209.4,289.1L208.1,282.3L207.3,280.2L207.1,279.7L211.0,280.9L210.6,282.4L215.2,280.7L215.9,280.9Z M275.1,276.3L278.7,277.2L278.5,278.8L280.1,278.1L285.3,280.1L281.4,282.0L282.8,283.9L278.2,285.4L271.8,285.5L271.0,286.2L270.4,290.0L267.8,295.2L266.1,296.8L263.2,298.0L260.1,297.1L258.2,297.2L250.5,300.2L246.5,297.7L249.3,297.2L252.2,297.6L254.9,292.6L260.3,290.9L265.0,285.7L266.5,287.2L268.6,285.7L272.5,278.7L275.1,276.3Z " data-iso="MYS" data-name="Malaysia" data-pop="25715819.0"/><path d="M145.9,178.7L147.3,178.1L149.4,178.6L153.5,184.3L155.3,184.5L155.5,185.8L159.0,189.1L165.2,192.1L167.7,192.4L168.0,192.5L167.5,196.1L163.6,197.4L162.5,197.2L155.6,192.4L151.2,191.1L142.5,183.9L141.5,182.6L145.8,178.4L145.9,178.7Z " data-iso="NPL" data-name="Nepal" data-pop="28563377.0"/><path d="M61.4,167.1L62.3,171.4L66.0,174.8L67.2,179.9L68.3,181.2L61.0,186.8L59.2,186.2L56.9,191.0L52.6,190.5L50.9,192.3L48.3,191.3L44.3,193.2L43.2,192.2L39.3,191.3L38.5,191.2L38.5,188.3L38.3,188.0L38.5,180.6L38.6,180.1L39.1,180.2L49.4,182.1L53.1,177.5L54.2,172.9L54.2,172.3L54.5,171.8L57.0,168.2L59.5,165.3L61.5,165.9L61.4,167.1Z M62.3,163.3L62.0,163.1L61.9,162.9L62.3,161.4L62.8,161.0L63.4,161.8L62.4,163.1L62.3,163.3Z " data-iso="OMN" data-name="Oman" data-pop="3418085.0"/><path d="M138.1,153.8L138.1,154.3L138.2,155.4L138.2,155.7L138.1,155.9L133.5,156.8L129.6,154.3L126.8,159.8L128.9,163.8L126.0,168.5L123.1,171.3L114.4,176.9L112.7,177.6L109.9,176.2L104.8,179.1L107.2,186.9L107.5,189.1L102.8,189.6L99.6,187.7L97.0,188.6L96.8,188.8L94.5,186.2L93.4,182.8L93.2,179.4L87.0,178.2L77.6,173.9L77.7,173.8L79.8,170.6L83.5,170.3L84.4,170.8L85.5,168.5L85.3,165.1L83.6,161.7L82.8,156.2L82.6,155.2L83.5,156.2L91.5,161.9L98.5,163.1L100.4,159.7L103.1,158.8L104.3,159.6L108.9,159.7L110.8,159.3L113.6,155.4L115.7,155.1L116.9,153.0L119.2,153.2L119.3,151.5L121.4,150.4L122.4,148.7L122.3,146.6L125.7,144.6L132.7,146.0L133.1,145.9L133.3,145.9L136.5,148.9L136.6,152.3L137.9,153.3L138.0,153.4L138.1,153.8Z " data-iso="PAK" data-name="Pakistan" data-pop="176242949.0"/><path d="M310.8,260.5L311.7,263.2L312.6,263.4L313.9,268.2L312.9,270.2L310.8,268.3L309.5,271.0L310.9,273.5L309.8,275.2L305.8,273.9L304.0,270.4L303.9,268.6L301.3,269.8L298.1,268.9L296.3,272.5L295.5,271.5L299.4,266.9L299.9,265.7L302.4,265.1L304.0,266.2L306.5,262.7L309.0,262.1L308.3,259.6L310.8,260.5Z M299.6,263.6L296.5,261.7L298.1,259.9L298.3,256.8L300.4,257.6L299.5,261.6L299.6,263.6Z M300.4,262.0L300.3,260.0L302.0,254.9L302.5,257.9L300.4,262.0Z M276.7,269.4L276.7,268.4L283.9,260.3L282.7,262.7L279.2,267.4L276.7,269.4Z M296.1,254.3L298.5,255.5L297.5,257.2L294.5,257.1L294.4,254.2L296.1,254.3Z M306.3,248.8L308.8,253.7L303.4,250.9L303.7,249.4L306.3,248.8Z M288.4,248.3L290.3,248.2L291.8,249.3L292.0,251.0L290.5,252.8L287.0,248.8L288.4,248.3Z M287.6,228.3L291.9,228.0L293.7,233.1L290.5,240.0L292.8,245.5L296.7,244.2L301.8,247.7L298.5,248.1L295.5,245.5L295.8,248.2L292.3,245.9L287.8,246.4L288.9,244.0L287.3,243.0L285.4,243.4L283.9,237.9L286.0,238.0L285.3,232.5L286.2,228.8L287.6,228.3Z " data-iso="PHL" data-name="Philippines" data-pop="97976603.0"/><path d="M434.3,281.9L433.2,283.2L429.3,280.5L429.8,279.3L433.7,280.9L434.3,281.9Z M418.1,279.7L419.7,281.7L418.6,284.7L414.4,289.0L410.5,291.2L405.5,291.2L405.5,290.0L415.1,285.7L418.1,279.7Z M388.1,290.1L394.9,291.6L395.1,293.8L403.5,294.4L403.7,295.1L400.3,297.5L403.6,300.4L405.3,300.6L408.1,303.4L409.3,302.6L410.1,304.2L413.0,303.8L412.6,305.3L415.0,306.7L410.6,307.2L403.5,308.4L401.0,306.0L397.1,303.6L391.0,303.9L387.2,306.9L386.6,309.7L383.7,313.2L382.7,313.0L377.4,314.5L376.6,306.0L375.4,289.8L388.1,290.1Z M422.3,279.7L420.9,277.8L412.9,275.7L413.1,274.9L418.0,275.4L422.1,277.1L422.3,279.7Z " data-iso="PNG" data-name="Papua New Guinea" data-pop="6057263.0"/><path d="M78.6,6.0L78.8,6.0L78.3,7.8L77.6,8.2L77.6,8.3L76.4,9.2L73.1,11.8L71.1,11.4L69.0,13.5L68.6,13.9L68.4,14.1L64.9,17.2L64.5,16.7L59.0,17.8L58.8,17.2L58.7,17.1L58.7,17.0L59.2,15.1L58.1,11.5L57.1,11.3L57.5,8.1L57.4,7.8L57.5,7.7L58.7,6.3L59.7,1.8L58.4,1.8L60.6,-3.0L60.2,-4.0L60.3,-4.0L65.0,-6.4L67.6,-8.7L71.9,-10.4L77.5,-4.4L76.8,-0.6L76.9,-0.6L78.2,4.8L78.6,5.9L78.6,6.0Z " data-iso="POL" data-name="Poland" data-pop="38482919.0"/><path d="M299.1,128.6L299.2,128.8L299.7,129.3L299.8,129.3L299.7,129.5L297.9,132.9L298.8,135.4L293.8,141.6L293.9,143.9L297.1,145.2L297.3,145.4L293.7,147.9L293.0,150.0L293.0,150.0L286.9,150.1L289.0,147.3L287.6,146.9L287.6,144.2L284.3,143.0L284.3,143.0L285.6,140.9L288.1,138.4L290.8,135.1L293.8,134.9L292.9,133.1L295.8,130.9L296.8,128.3L299.0,128.5L299.1,128.6Z " data-iso="PRK" data-name="N. Korea" data-pop="22665345.0"/><path d="M45.1,156.0L48.7,152.0L46.3,157.8L45.9,157.7L44.8,156.6L44.9,156.1L45.1,156.0Z " data-iso="QAT" data-name="Qatar" data-pop="833285.0"/><path d="M51.8,39.4L51.8,39.8L52.6,41.1L53.3,42.7L53.0,42.9L51.1,41.8L50.8,42.2L47.0,44.2L46.8,44.4L45.9,39.3L45.3,38.6L41.5,29.5L41.5,29.2L41.6,29.1L42.1,25.7L43.8,22.8L45.7,19.0L45.9,18.7L46.0,18.7L47.1,20.3L52.5,19.6L54.8,20.5L54.9,20.5L55.0,20.6L56.0,23.5L56.1,25.6L59.7,28.0L59.8,28.1L59.9,28.3L57.0,34.5L56.5,35.2L52.1,38.6L52.0,38.9L51.8,39.4Z " data-iso="ROU" data-name="Romania" data-pop="22215421.0"/><path d="M309.2,73.0L318.9,85.8L322.3,90.0L320.0,91.2L321.2,96.6L326.5,100.9L326.7,102.2L323.7,100.6L323.1,103.8L321.6,100.3L318.1,94.2L317.2,90.9L314.2,84.9L311.1,81.7L309.2,73.0Z M81.0,1.1L80.5,5.1L79.6,5.3L78.8,5.8L78.6,6.0L78.6,5.9L78.2,4.8L76.9,-0.6L77.3,-0.4L77.7,-0.4L79.3,0.1L80.7,0.4L80.9,0.4L80.9,0.5L80.5,0.5L79.5,0.4L80.4,1.4L81.0,1.1Z M311.2,-12.7L319.6,-16.2L322.8,-15.0L324.0,-16.2L321.4,-17.6L322.7,-19.7L325.5,-20.6L328.8,-18.6L327.9,-17.0L330.3,-16.3L332.4,-13.1L326.3,-10.9L325.6,-8.3L322.1,-7.8L324.8,-7.0L325.2,-5.7L311.0,-12.6L311.2,-12.7Z M172.6,2.2L173.2,3.3L168.5,6.5L167.3,11.5L164.8,9.8L163.6,7.7L165.1,7.6L164.2,4.2L171.4,1.2L172.6,2.2Z M265.9,0.5L269.7,-1.2L268.7,1.4L265.8,1.4L265.9,0.5Z M259.2,2.5L259.6,0.9L264.1,0.7L263.5,3.3L261.8,2.7L263.6,4.6L260.9,5.5L259.7,6.8L257.8,5.8L257.4,1.8L259.2,2.5Z M190.8,0.7L183.1,0.3L173.7,3.2L171.9,1.4L172.7,-0.1L186.1,-2.6L189.5,-1.4L193.0,-1.2L190.8,0.7Z M299.8,129.3L299.7,129.3L299.2,128.8L299.1,128.6L299.2,128.4L300.1,126.5L298.5,118.5L299.4,117.0L302.7,116.5L302.3,104.4L300.8,103.3L298.6,105.2L297.5,107.3L293.9,108.6L291.6,105.2L289.0,103.8L283.7,103.7L279.9,98.6L278.4,96.2L274.7,92.1L266.7,92.2L263.2,94.2L264.2,98.8L263.0,100.5L261.7,105.5L262.2,106.8L259.1,109.5L256.5,109.0L255.9,108.8L255.8,108.6L253.2,108.9L249.2,108.1L244.5,111.7L240.0,112.9L235.6,112.7L233.8,110.7L226.9,108.5L222.8,109.8L219.5,107.4L215.1,103.3L211.5,101.6L208.4,105.5L208.8,109.4L207.6,109.9L199.9,108.8L196.3,105.8L194.3,105.3L188.7,106.8L187.4,108.0L183.4,108.5L182.2,109.4L182.2,109.4L182.1,109.4L181.5,109.4L181.3,109.5L181.2,109.5L180.9,109.4L180.9,109.2L179.9,106.4L178.4,107.2L176.2,106.1L172.2,100.0L170.7,100.3L168.3,99.3L167.0,97.0L166.1,98.1L163.2,87.3L161.4,84.0L155.9,83.9L154.0,83.2L154.6,81.4L150.3,78.4L151.4,75.7L149.5,73.2L146.2,72.3L144.6,72.8L135.8,71.0L130.4,68.8L128.7,71.1L129.8,72.9L127.7,72.2L124.3,77.3L123.7,79.9L118.8,77.8L118.1,75.4L115.9,74.7L115.5,73.6L111.7,73.4L108.1,65.7L108.1,64.7L105.6,62.5L98.7,63.0L96.8,65.1L96.3,61.6L89.7,65.9L88.6,69.4L90.2,71.3L88.6,77.6L88.5,77.8L78.8,79.6L78.9,82.9L76.6,85.4L75.9,91.0L75.9,91.4L72.9,92.2L71.9,90.8L71.8,87.6L71.6,87.3L71.6,87.2L70.9,85.1L71.7,84.1L65.7,73.7L64.9,70.9L63.4,69.9L63.4,69.5L63.0,57.7L65.4,59.1L66.1,58.4L68.7,58.8L69.0,56.1L72.6,57.2L72.0,55.5L71.3,55.2L72.9,54.0L77.6,55.1L79.5,52.4L81.7,51.5L80.6,46.7L79.8,46.7L79.3,36.3L82.0,31.9L78.9,28.9L78.9,28.8L79.0,28.8L82.3,25.4L82.6,26.9L84.8,24.6L86.0,22.4L90.1,18.6L90.2,16.4L89.2,15.8L89.4,12.7L89.6,12.3L89.8,12.2L92.3,9.6L93.1,9.4L94.1,8.0L94.1,7.8L94.2,7.7L95.2,7.5L98.6,5.3L101.9,4.7L102.2,4.6L103.8,5.4L105.4,4.9L106.1,2.7L105.7,2.1L114.8,3.2L118.3,1.7L119.3,-0.9L121.9,-2.3L124.1,-4.3L128.1,-5.8L130.8,-8.5L136.3,-11.9L139.2,-12.7L139.4,-12.5L140.5,-12.7L144.4,-10.9L143.8,-5.9L142.5,1.5L142.3,3.9L139.8,6.2L134.6,5.2L133.3,0.6L133.9,-4.9L131.6,-1.7L131.1,0.5L128.8,1.4L126.9,3.3L126.1,9.1L126.6,9.4L128.8,5.2L131.6,10.5L132.3,9.8L136.6,8.2L139.9,10.3L139.3,11.8L146.9,6.1L147.5,4.4L149.2,7.3L148.3,9.4L145.0,8.9L144.5,12.5L145.7,13.1L148.1,11.7L156.5,13.1L158.9,14.0L155.7,15.0L161.3,17.6L163.9,17.7L162.6,19.6L166.1,19.3L167.1,16.8L168.4,16.7L170.6,19.0L173.0,24.1L173.5,26.9L175.3,25.2L177.1,17.5L180.2,15.9L185.1,12.1L187.8,14.7L184.3,18.4L184.0,21.1L177.5,32.1L174.3,34.6L172.5,34.1L171.2,32.5L172.0,34.9L173.1,35.4L178.1,34.9L180.9,32.8L182.1,29.5L185.3,29.4L184.2,34.1L186.2,32.8L186.8,30.3L185.1,28.3L182.8,27.7L184.1,23.9L185.5,22.7L185.7,19.1L190.7,15.3L190.3,17.5L189.2,18.4L188.4,21.1L191.3,23.2L189.7,20.2L193.6,18.3L198.1,22.8L195.9,24.8L196.8,25.5L195.6,27.6L197.2,27.0L198.4,22.2L197.3,19.9L197.1,17.3L197.8,15.0L206.0,14.2L204.8,12.8L210.4,10.4L219.2,9.1L220.3,10.0L221.6,8.2L222.2,5.7L224.2,4.1L227.8,6.7L227.1,8.1L231.6,7.4L234.5,12.3L229.3,18.8L227.6,20.2L228.9,20.8L231.0,19.6L230.9,18.3L235.2,18.2L235.5,19.0L238.8,17.9L241.1,17.8L241.4,19.1L247.0,18.9L248.1,15.7L252.9,16.0L254.4,20.3L257.6,23.2L259.8,23.9L259.7,19.1L262.4,20.3L267.3,18.2L268.0,16.2L266.1,13.8L268.2,11.5L272.0,11.8L274.5,9.4L277.4,8.6L277.5,10.0L280.1,10.7L280.7,9.7L284.7,9.1L286.0,6.8L288.1,5.2L291.0,4.8L293.2,6.9L296.4,6.5L296.8,4.0L300.5,-0.7L302.4,-0.1L305.7,-1.4L305.2,-2.4L302.5,-2.8L301.0,-4.2L304.3,-7.8L305.1,-9.4L311.0,-12.6L326.2,-5.2L327.5,-0.4L330.7,-0.0L335.8,1.8L333.1,4.1L333.8,5.7L333.7,11.1L335.3,18.0L336.5,20.3L334.2,20.1L332.4,21.4L332.2,26.6L331.2,25.6L328.7,29.4L329.1,30.9L335.6,38.5L337.1,39.9L339.8,41.0L338.5,42.1L339.6,45.6L342.3,47.2L341.3,49.2L341.0,52.8L343.0,55.4L342.4,59.2L343.3,60.3L343.8,67.1L332.7,57.1L330.3,54.6L327.4,49.8L326.6,44.4L327.1,42.7L326.8,38.6L326.3,37.3L323.7,24.4L321.9,21.6L320.2,22.9L322.2,25.5L321.9,26.6L322.7,31.3L322.2,32.4L319.9,30.7L318.8,28.7L317.3,29.7L315.1,33.0L316.0,37.2L316.3,42.0L317.0,44.6L314.3,48.5L311.5,47.0L309.4,47.4L309.4,49.8L308.0,50.1L304.7,53.2L303.6,52.8L299.7,55.3L298.4,57.6L297.8,60.6L298.0,63.2L296.2,67.8L295.6,72.5L293.7,76.9L293.4,78.8L296.9,78.1L299.4,81.3L302.1,80.2L303.3,76.5L308.5,78.4L308.0,79.8L311.1,83.3L310.8,84.8L311.7,89.2L314.2,95.0L314.3,98.6L313.6,107.4L312.0,112.8L310.1,120.6L306.0,125.6L299.9,129.2L299.8,129.3Z M223.7,-1.9L225.7,0.9L222.2,2.0L223.7,-1.9Z M220.1,-5.5L221.2,-4.8L221.2,-1.5L220.4,-0.4L216.7,-3.9L220.1,-5.5Z M219.8,-8.9L219.8,-5.8L217.3,-5.2L215.9,-6.4L219.8,-8.9Z " data-iso="RUS" data-name="Russia" data-pop="140041247.0"/><path d="M41.8,131.7L42.3,132.2L43.6,135.6L43.6,136.1L45.6,137.7L45.6,138.1L45.0,141.9L46.4,147.0L45.5,150.0L44.8,155.7L44.9,156.1L44.8,156.6L45.9,157.7L46.0,158.0L45.9,158.4L45.5,158.8L46.1,159.4L46.2,159.5L47.2,166.9L53.9,172.5L54.2,172.3L54.2,172.9L53.1,177.5L49.4,182.1L39.1,180.2L38.6,180.1L37.8,179.8L29.5,175.9L25.7,175.5L22.4,177.3L20.2,177.4L18.7,174.9L10.8,167.3L9.8,167.4L7.0,170.2L7.1,169.8L7.2,163.5L6.8,162.0L7.5,154.0L6.4,148.6L9.0,138.2L9.3,126.7L10.4,123.8L12.5,109.3L11.8,107.8L13.4,106.0L15.4,104.3L17.4,107.5L20.5,106.9L22.4,108.2L24.8,107.7L25.1,101.9L30.8,105.0L31.4,104.9L31.8,105.5L33.6,108.3L35.7,117.5L41.3,131.5L41.8,131.7Z " data-iso="SAU" data-name="Saudi Arabia" data-pop="28686633.0"/><path d="M1.8,135.7L0.1,141.0L-2.9,148.0L-1.5,153.5L-1.5,153.9L-6.4,154.3L-7.7,153.4L-10.8,157.3L-12.9,159.0L-13.8,161.4L-14.3,162.6L-15.0,163.4L-18.2,167.3L-19.9,166.7L-21.9,168.0L-24.7,171.3L-27.1,170.9L-29.5,174.5L-29.5,174.5L-29.5,174.4L-28.7,171.1L-29.6,166.7L-27.8,162.7L-30.2,159.1L-30.9,162.8L-36.5,165.2L-38.2,162.4L-43.3,159.6L-45.5,157.8L-45.7,156.1L-48.7,153.0L-48.9,146.8L-50.3,145.6L-53.7,147.5L-54.9,148.8L-56.2,148.4L-57.4,146.0L-55.1,142.4L-54.6,135.7L-53.6,134.6L-52.5,125.1L-50.6,124.6L-48.0,122.5L-47.4,120.5L-41.9,120.3L-41.5,121.2L-33.3,109.3L-32.2,107.7L-28.9,109.0L-27.7,107.2L-25.1,103.7L-23.8,102.0L-23.1,103.2L-15.3,114.2L-8.5,122.8L-1.7,130.6L2.3,134.9L1.8,135.7Z " data-iso="SDN" data-name="Sudan" data-pop="30894000.0"/><path d="M10.4,214.0L9.3,213.3L7.0,211.6L-0.9,201.3L-2.2,191.4L-1.5,191.1L-1.4,190.9L-0.7,190.5L-0.1,190.1L0.3,189.8L0.7,190.8L2.2,196.6L4.0,197.8L7.3,198.2L11.0,200.5L12.1,200.4L17.0,202.6L17.6,203.4L17.7,203.4L15.5,210.0L15.4,210.4L11.2,213.4L10.4,214.0Z " data-iso="SOL" data-name="Somaliland" data-pop="3500000.0"/><path d="M-14.2,216.0L-10.9,216.9L-9.4,216.3L-3.3,219.3L1.3,217.3L9.3,214.4L10.4,214.0L11.2,213.4L15.4,210.4L15.5,210.0L17.7,203.4L18.1,203.6L24.7,204.5L22.8,211.4L20.5,215.3L15.9,219.1L9.7,225.2L1.4,230.1L-2.2,231.5L-9.1,231.9L-12.7,233.0L-21.2,237.6L-22.3,233.2L-20.1,224.2L-15.5,216.9L-14.8,216.4L-14.2,216.0Z " data-iso="SOM" data-name="Somalia" data-pop="9832017.0"/><path d="M45.9,18.7L45.7,19.0L43.8,22.8L42.1,25.7L41.6,29.1L41.5,29.2L41.4,29.1L36.8,32.6L36.4,32.1L34.6,33.3L34.4,33.2L34.4,33.1L33.6,31.8L33.4,31.6L33.4,31.4L33.5,31.3L35.8,28.0L35.8,26.6L34.4,27.1L34.2,26.9L34.3,26.8L34.7,24.7L34.7,24.3L35.6,22.2L35.6,22.2L35.9,22.3L37.8,22.0L39.0,19.8L40.4,18.7L40.3,18.6L40.4,18.5L42.0,18.3L42.3,17.3L44.0,15.9L44.1,15.9L44.2,15.9L44.5,16.3L45.2,16.9L45.9,18.6L45.9,18.7Z " data-iso="SRB" data-name="Serbia" data-pop="7379339.0"/><path d="M58.6,17.2L57.9,17.3L57.4,17.4L56.5,17.4L55.9,17.8L55.9,17.7L55.2,14.0L52.0,11.2L50.9,11.3L50.6,7.1L50.6,7.1L50.7,6.9L51.9,5.6L52.1,5.5L52.7,5.4L52.7,5.4L53.0,5.3L54.5,6.7L55.2,7.1L57.4,7.8L57.4,7.8L57.5,8.1L57.1,11.3L58.1,11.5L59.2,15.1L58.7,17.0L58.7,17.1L58.6,17.2Z " data-iso="SVK" data-name="Slovakia" data-pop="5463046.0"/><path d="M44.5,8.5L42.8,7.3L39.7,7.9L38.9,3.5L39.0,3.6L39.3,3.7L40.7,2.6L41.9,1.4L42.6,1.8L42.9,1.8L42.9,1.9L44.2,5.3L44.8,6.5L45.5,6.9L45.6,7.0L45.7,7.5L45.2,7.9L44.6,8.7L44.5,8.8L44.5,8.5Z " data-iso="SVN" data-name="Slovenia" data-pop="2005692.0"/><path d="M50.9,95.2L47.4,95.2L43.8,98.9L34.7,100.0L33.7,99.8L32.9,99.7L26.9,98.8L26.3,97.9L26.1,95.3L25.9,95.0L26.1,94.8L27.0,94.0L27.2,93.9L27.7,93.0L27.9,92.9L28.1,92.9L31.5,92.0L32.1,89.8L31.4,89.2L31.8,88.3L33.4,86.5L33.5,85.6L34.5,84.9L34.7,84.8L35.0,85.7L38.5,83.7L39.7,86.0L41.9,86.9L43.6,90.2L46.7,91.5L51.1,94.7L50.9,95.2L50.9,95.2Z " data-iso="SYR" data-name="Syria" data-pop="20178485.0"/><path d="M208.6,226.5L208.6,226.7L209.6,229.1L211.7,229.4L212.8,231.9L212.0,237.6L215.6,235.1L217.2,235.8L219.6,235.3L220.7,234.2L222.9,234.6L226.2,238.5L226.0,239.4L228.5,243.6L229.0,247.2L227.9,249.8L227.7,249.9L227.6,250.0L221.3,249.6L218.8,250.7L216.4,252.9L218.8,260.0L218.7,260.0L214.0,256.1L211.1,253.2L208.2,252.9L207.2,253.8L207.2,257.2L205.0,262.7L203.6,264.8L204.2,269.0L206.5,269.5L206.7,271.2L208.7,277.0L210.8,278.3L212.4,278.2L214.0,279.8L215.2,280.7L210.6,282.4L211.0,280.9L207.1,279.7L206.1,278.5L199.7,271.8L201.2,266.5L201.8,265.2L202.2,263.3L205.6,259.3L204.2,255.6L203.5,250.9L201.8,249.2L200.5,245.9L202.0,245.2L202.6,241.7L201.1,238.4L198.0,233.0L201.0,228.2L204.0,228.4L204.4,227.4L208.2,226.2L208.6,226.5Z " data-iso="THA" data-name="Thailand" data-pop="65905410.0"/><path d="M126.1,131.2L125.6,131.0L125.5,130.8L126.1,131.2Z M127.4,129.9L127.3,130.0L122.5,129.0L121.8,130.7L127.9,133.0L129.4,135.2L133.5,135.7L133.6,135.8L133.6,136.0L133.0,139.1L135.7,141.0L134.4,145.5L134.3,145.5L134.3,145.4L130.6,143.1L124.2,143.9L125.5,139.8L124.1,136.5L121.1,139.1L115.6,138.5L113.9,137.8L113.9,137.6L114.2,137.4L117.0,132.4L116.1,129.4L122.7,128.1L123.1,126.7L127.1,126.4L127.2,129.9L127.4,129.9Z " data-iso="TJK" data-name="Tajikistan" data-pop="7349145.0"/><path d="M110.8,135.4L110.6,135.3L109.1,133.6L108.0,134.5L105.5,134.1L103.6,136.4L99.0,136.3L98.1,137.7L95.5,137.5L93.7,134.5L93.5,134.4L93.5,134.3L94.9,130.5L92.9,129.3L91.7,124.9L89.4,122.4L87.9,119.4L85.3,117.7L77.8,116.4L77.9,116.1L81.0,111.0L81.1,105.8L83.5,102.5L84.9,104.7L87.8,104.3L87.3,102.4L88.0,99.6L85.8,98.6L84.0,99.5L84.3,98.4L89.4,99.5L90.0,105.1L91.2,105.6L91.3,105.7L91.9,106.2L93.6,107.6L94.7,105.4L96.3,105.0L99.3,106.0L99.2,105.0L102.1,109.5L101.3,111.7L105.2,115.4L104.6,120.4L110.9,135.0L110.8,135.4Z " data-iso="TKM" data-name="Turkmenistan" data-pop="4884887.0"/><path d="M-7.7,26.3L-10.4,28.3L-14.8,26.3L-17.1,28.5L-19.3,27.9L-19.6,27.7L-18.8,26.8L-8.0,12.0L-5.0,12.2L-3.0,11.6L-0.4,9.7L4.0,8.1L4.3,8.7L5.8,11.3L4.7,13.6L5.2,15.9L2.8,15.5L1.7,16.1L-0.7,19.9L-4.5,19.3L-6.8,21.8L-7.7,25.8L-7.7,26.3Z " data-iso="TUN" data-name="Tunisia" data-pop="10486339.0"/><path d="M60.9,79.0L61.3,79.9L63.6,84.1L63.5,84.2L63.4,84.3L61.7,88.7L62.4,89.4L62.6,91.2L62.6,91.4L62.6,91.5L62.5,91.7L62.5,91.6L60.3,91.0L56.2,100.0L56.1,100.0L56.1,99.9L54.3,97.9L52.3,95.1L51.1,95.3L50.9,95.2L51.1,94.7L46.7,91.5L43.6,90.2L41.9,86.9L39.7,86.0L38.5,83.7L35.0,85.7L34.7,84.8L35.1,84.7L37.8,82.0L36.3,81.8L33.7,78.9L31.4,78.8L29.4,77.1L29.1,71.2L27.8,69.3L27.0,70.1L24.2,67.9L25.0,65.6L22.6,61.7L24.7,62.9L24.2,60.6L25.0,58.3L26.3,57.4L25.8,55.1L26.9,53.6L30.8,51.9L29.5,50.4L31.3,49.0L33.3,49.3L34.1,51.3L36.5,54.8L38.8,55.8L38.8,52.9L41.4,57.1L46.2,58.9L51.1,64.1L51.9,69.6L55.9,76.0L56.2,77.2L60.5,79.1L60.9,79.0Z M39.8,48.2L37.7,51.2L36.2,49.5L34.2,48.8L33.4,46.8L33.5,46.6L34.8,46.7L35.6,45.9L37.2,44.9L37.1,44.6L37.2,44.5L39.4,46.7L40.2,48.0L39.8,48.2Z " data-iso="TUR" data-name="Turkey" data-pop="76805524.0"/><path d="M285.3,212.8L282.7,213.2L281.7,211.3L283.0,205.8L285.5,202.3L287.2,204.9L285.3,212.8Z " data-iso="TWN" data-name="Taiwan" data-pop="22974347.0"/><path d="M71.2,55.2L64.8,51.2L62.2,52.9L61.7,54.1L63.3,56.2L62.3,57.6L61.2,55.7L59.5,55.7L56.1,53.7L57.5,48.4L61.0,47.7L60.0,43.2L62.4,41.8L60.7,43.6L59.0,41.6L53.6,42.6L53.3,42.7L52.6,41.1L51.8,39.8L51.8,39.4L52.0,38.9L52.2,38.9L58.6,39.1L61.6,34.2L61.7,30.3L60.0,28.0L59.8,28.1L59.7,28.0L56.1,25.6L56.0,23.5L55.0,20.6L54.9,20.5L55.0,20.4L55.6,19.1L55.6,18.6L56.1,18.0L55.9,17.8L56.5,17.4L57.4,17.4L57.9,17.3L58.6,17.2L58.7,17.1L58.8,17.2L59.0,17.8L64.5,16.7L64.9,17.2L68.4,14.1L68.6,13.9L68.7,13.9L72.7,20.6L74.9,27.3L78.7,28.5L78.9,28.8L78.9,28.9L82.0,31.9L79.3,36.3L79.8,46.7L80.6,46.7L81.7,51.5L79.5,52.4L77.6,55.1L72.9,54.0L71.3,55.2L71.2,55.2Z " data-iso="UKR" data-name="Ukraine" data-pop="45700395.0"/><path d="M510.9,42.7L507.1,39.2L508.0,38.1L510.0,38.5L510.9,42.7Z M294.2,-159.7L303.0,-157.9L309.8,-156.2L340.3,-146.1L346.2,-143.7L359.6,-137.9L374.4,-130.5L392.6,-120.1L396.6,-117.6L408.0,-108.3L406.3,-106.6L395.7,-105.9L383.7,-106.3L381.4,-106.1L375.6,-103.4L372.6,-108.1L374.7,-109.6L369.4,-107.5L364.1,-113.7L355.7,-122.2L348.6,-128.6L338.7,-136.3L330.4,-141.8L319.2,-148.4L310.0,-153.1L299.0,-157.9L294.6,-158.4L294.2,-159.7Z M356.5,-80.1L359.3,-83.8L360.9,-84.0L358.6,-80.6L356.5,-80.1Z M362.8,-41.2L364.8,-41.3L366.9,-37.5L363.9,-38.3L362.8,-41.2Z M351.0,-75.2L351.4,-76.9L352.9,-77.1L353.6,-75.6L352.9,-73.7L351.0,-75.2Z M336.3,-15.2L338.6,-19.0L339.4,-17.3L337.5,-14.6L336.3,-15.2Z M307.8,-43.6L306.9,-46.9L308.7,-48.3L307.9,-50.9L308.5,-54.3L307.9,-57.6L307.9,-61.9L311.5,-62.4L340.8,-64.8L346.9,-64.9L345.3,-68.4L349.9,-71.6L348.1,-73.3L344.9,-74.8L348.3,-79.6L351.3,-82.3L353.4,-85.1L353.3,-87.2L358.2,-87.4L359.2,-86.8L357.5,-83.1L354.7,-84.3L352.9,-81.4L353.1,-80.0L351.1,-80.1L348.6,-78.4L348.0,-76.2L350.0,-76.5L350.6,-74.9L348.1,-74.2L349.5,-72.9L351.0,-74.4L349.2,-67.2L347.3,-68.2L349.0,-66.1L348.5,-64.4L349.6,-60.3L347.9,-54.9L346.6,-55.3L348.6,-51.6L351.0,-51.7L356.3,-46.0L354.3,-44.6L350.1,-46.2L348.6,-47.9L348.8,-50.2L347.5,-47.8L349.5,-45.5L353.6,-43.3L356.0,-40.7L359.0,-40.9L361.7,-38.7L364.9,-34.2L366.7,-32.8L369.5,-28.3L370.1,-28.6L372.3,-25.2L371.5,-25.0L372.1,-21.3L373.7,-19.6L373.7,-16.8L372.0,-19.4L370.8,-23.7L369.4,-24.6L367.5,-28.1L365.5,-29.8L358.5,-34.4L359.0,-31.2L360.9,-29.9L359.2,-29.3L358.8,-26.6L359.7,-24.7L357.7,-25.6L353.1,-25.8L354.1,-24.3L351.6,-21.0L349.7,-22.1L348.7,-21.2L344.8,-22.0L341.8,-24.6L339.4,-30.8L338.0,-32.3L333.4,-32.9L335.2,-29.2L334.8,-26.1L329.1,-23.2L326.1,-29.2L327.6,-29.7L328.5,-32.6L327.5,-33.5L324.4,-33.8L323.9,-31.3L319.7,-29.7L316.0,-29.5L315.1,-33.2L309.8,-38.6L308.3,-39.1L306.2,-42.5L307.8,-43.6Z " data-iso="USA" data-name="United States" data-pop="307212123.0"/><path d="M127.5,131.5L127.2,131.0L127.1,130.5L127.5,131.5Z M130.3,122.4L130.4,122.3L129.5,123.4L129.6,126.9L134.1,130.0L129.5,131.0L127.5,129.9L127.4,129.9L127.2,129.9L127.1,126.4L123.1,126.7L122.7,128.1L116.1,129.4L117.0,132.4L114.2,137.4L113.9,137.6L114.0,137.5L113.2,136.9L112.3,136.1L111.7,135.7L110.8,135.4L110.9,135.0L104.6,120.4L105.2,115.4L101.3,111.7L102.1,109.5L99.2,105.0L99.3,106.0L96.3,105.0L94.7,105.4L93.6,107.6L91.9,106.2L91.3,105.7L91.7,104.9L99.3,92.9L106.0,94.6L109.3,102.9L110.1,106.9L113.1,108.0L116.0,109.8L117.2,109.8L119.1,114.0L117.2,117.5L118.0,117.9L117.8,121.7L121.8,124.9L124.0,123.5L130.0,122.4L130.3,122.4Z " data-iso="UZB" data-name="Uzbekistan" data-pop="27606007.0"/><path d="M237.7,222.0L233.1,224.3L233.4,225.1L229.2,232.1L233.6,238.2L237.7,241.8L238.6,242.0L241.8,245.6L243.8,251.4L244.4,254.8L242.9,261.1L233.4,267.0L230.3,266.5L231.7,268.8L226.3,271.1L226.6,267.3L225.1,265.3L224.7,265.0L228.5,263.0L230.0,262.8L230.8,260.1L232.3,260.1L236.5,257.8L237.2,252.9L236.8,248.6L236.8,248.4L236.7,247.9L235.3,244.2L236.2,243.2L232.9,241.0L232.8,240.1L227.5,234.5L227.3,233.2L222.8,230.9L226.6,228.0L224.5,226.4L224.4,224.9L219.0,223.4L219.3,221.5L216.5,219.1L216.3,218.7L216.4,218.6L221.8,217.3L222.8,218.2L226.2,216.0L233.4,217.2L233.2,220.2L237.9,222.0L237.7,222.0Z " data-iso="VNM" data-name="Vietnam" data-pop="86967524.0"/><path d="M24.2,96.1L23.4,96.8L22.9,97.6L22.2,98.1L21.9,98.3L21.8,98.2L21.6,96.7L24.4,95.3L24.5,95.5L24.2,96.1Z " data-iso="WEB" data-name="West Bank" data-pop="2514845.0"/><path d="M36.6,190.9L35.1,191.4L34.3,193.3L22.6,191.4L20.8,192.1L14.8,190.4L11.3,188.6L4.3,187.3L3.4,185.9L3.0,183.0L4.9,175.9L4.6,174.1L6.5,171.5L7.0,170.2L9.8,167.4L10.8,167.3L18.7,174.9L20.2,177.4L22.4,177.3L25.7,175.5L29.5,175.9L37.8,179.8L38.6,180.1L38.5,180.6L38.3,188.0L38.5,188.3L38.5,191.2L36.6,190.9Z " data-iso="YEM" data-name="Yemen" data-pop="23822783.0"/><path d="M249.0,227.3L247.4,232.5L244.1,234.5L241.0,233.4L242.6,228.6L245.3,227.7L249.0,227.3Z M299.1,128.6L299.0,128.5L296.8,128.3L295.8,130.9L292.9,133.1L293.8,134.9L290.8,135.1L288.1,138.4L285.6,140.9L284.3,143.0L284.2,143.0L280.7,145.2L277.7,148.5L275.7,147.3L277.6,143.0L274.3,141.5L272.7,144.5L269.8,146.9L269.6,148.3L265.4,150.1L265.1,151.2L266.6,153.7L269.6,153.8L270.0,156.6L272.6,156.8L274.0,154.7L276.2,153.9L281.4,154.2L281.2,156.1L276.8,158.4L276.1,160.2L274.8,160.2L272.2,166.2L275.0,167.3L278.8,172.4L279.0,173.8L282.8,176.5L278.9,176.5L282.5,178.5L283.5,180.0L282.4,182.9L284.8,183.9L284.7,186.9L283.4,186.7L284.2,190.4L281.8,192.2L279.5,198.0L278.1,197.4L277.4,200.8L278.2,200.5L278.8,203.0L276.6,204.3L275.9,206.4L273.1,207.4L273.9,208.1L271.4,210.6L264.9,215.3L261.1,216.2L260.9,216.4L260.3,216.4L260.2,216.4L259.9,216.6L259.6,216.6L257.7,215.2L257.3,215.3L258.3,217.9L258.2,217.8L258.1,217.9L258.1,218.0L258.1,218.0L258.1,218.0L256.6,218.1L254.9,220.0L252.5,219.9L249.2,221.4L246.2,224.1L247.5,225.4L246.1,226.5L243.9,221.1L240.8,221.4L239.7,220.4L238.2,221.9L237.9,222.0L233.2,220.2L233.4,217.2L226.2,216.0L222.8,218.2L221.8,217.3L216.4,218.6L216.3,218.7L216.1,218.6L214.9,218.2L215.0,223.2L212.7,222.0L212.5,221.8L212.6,221.7L210.8,222.0L208.1,220.9L208.2,220.0L205.8,219.4L205.7,215.5L204.2,212.9L204.5,211.6L202.2,211.3L200.0,212.1L199.8,209.7L204.6,201.8L204.5,197.9L202.6,195.4L202.4,195.3L202.5,195.3L204.5,194.8L205.6,193.1L206.3,188.2L206.2,185.6L204.8,180.6L202.5,178.2L201.3,178.3L198.1,181.0L194.6,180.5L192.1,176.8L188.1,176.7L184.4,175.5L182.0,172.9L178.2,171.6L177.0,169.8L177.8,166.2L177.0,164.0L177.8,161.3L174.6,159.3L167.3,159.1L166.5,160.2L158.6,160.3L155.4,158.2L152.1,159.2L148.4,157.4L145.9,160.9L142.9,161.1L142.7,161.2L143.0,161.0L141.6,158.9L141.3,156.1L141.0,155.0L141.0,155.0L140.9,155.0L140.7,155.0L139.9,154.7L139.4,154.5L138.3,153.7L138.0,153.4L137.9,153.3L136.6,152.3L136.5,148.9L133.3,145.9L133.1,145.9L133.0,145.9L132.7,145.2L133.4,145.1L134.2,145.5L134.3,145.5L134.4,145.5L135.7,141.0L133.0,139.1L133.6,136.0L133.6,135.8L133.9,135.8L138.4,133.1L142.3,135.0L144.5,133.1L145.8,133.4L155.3,131.6L155.3,131.3L155.4,131.3L157.9,127.6L158.1,120.4L162.8,120.3L164.6,121.8L164.8,119.6L167.8,115.0L172.4,116.7L175.0,115.6L175.8,111.9L178.3,111.2L180.7,109.3L180.9,109.4L181.2,109.5L181.3,109.5L181.5,109.4L182.1,109.4L182.2,109.4L182.2,109.6L182.2,111.8L187.2,116.2L188.1,119.1L188.3,122.7L187.0,124.9L190.8,127.4L192.5,127.6L196.2,129.7L198.4,131.4L201.5,137.9L203.9,137.8L210.4,139.1L216.9,139.8L225.0,142.3L227.4,142.7L231.6,140.5L239.4,139.6L242.1,138.2L245.8,133.3L245.3,132.9L247.6,129.2L250.4,129.6L252.7,126.9L255.8,126.2L259.8,122.0L259.9,121.1L263.5,119.8L266.3,119.7L259.9,115.5L256.0,116.6L255.2,117.4L255.8,109.4L255.9,108.8L256.5,109.0L259.1,109.5L262.2,106.8L261.7,105.5L263.0,100.5L264.2,98.8L263.2,94.2L266.7,92.2L274.7,92.1L278.4,96.2L279.9,98.6L283.7,103.7L289.0,103.8L291.6,105.2L293.9,108.6L297.5,107.3L298.6,105.2L300.8,103.3L302.3,104.4L302.7,116.5L299.4,117.0L298.5,118.5L300.1,126.5L299.2,128.4L299.1,128.6Z " data-iso="CHN" data-name="China" data-pop="1338612968.0"/></g></svg>