<?xml version="1.0" encoding="UTF-8"?><!DOCTYPE svg  PUBLIC '-//W3C//DTD SVG 1.1//EN'  'http://www.w3.org/Graphics/SVG/1.1/DTD/svg11.dtd'><svg enable_background="new 0 0 500 306" height="306px" style="stroke-linejoin: round; stroke:#000; fill:#f6f3f0;" version="1.1" viewBox="0 0 500 306" width="500px" xmlns="http://www.w3.org/2000/svg" xmlns:xlink="http://www.w3.org/1999/xlink"><defs><style type="text/css"><![CDATA[path { fill-rule: evenodd; }
#context path { fill: #eee; stroke: #bbb; } ]]></style></defs><metadata><views><view h="306.742382824" padding="0" w="500"><proj id="laea" lat0="39.5" lon0="104.5"/><bbox h="858.81" w="1404.46" x="297.77" y="525.07"/><llbbox lat0="8.0" lat1="71.0" lon0="45.0" lon1="164.0"/></view></views></metadata><g id="countries"><path d="M149.2,161.7L145.0,159.1L137.9,159.9L137.8,151.7L135.3,153.3L126.5,153.1L126.5,153.0L126.6,152.8L125.7,152.2L124.7,151.3L124.0,150.8L123.0,150.5L122.9,150.4L121.1,148.5L117.2,149.1L115.1,151.7L109.9,151.5L108.9,153.1L106.1,152.9L104.1,149.5L103.8,149.4L103.8,149.7L101.8,152.3L98.5,154.4L94.8,164.9L97.1,167.6L93.0,171.8L91.7,172.5L92.7,173.6L101.6,179.9L109.3,181.3L111.5,177.5L114.5,176.5L115.8,177.4L123.0,177.0L126.2,172.7L128.6,172.4L129.9,170.1L136.0,165.3L135.9,162.9L139.7,160.7L147.4,162.3L147.8,162.2L147.8,162.2L147.5,161.4L148.2,161.3L149.1,161.7L149.2,161.7L149.2,161.7Z " data-iso="AFG" data-name="Afghanistan" data-pop="28400000.0"/><path d="M36.5,29.8L36.4,28.8L36.4,28.4L33.1,29.6L33.1,30.0L28.9,32.8L27.7,33.8L25.7,37.4L25.4,37.7L26.7,37.9L27.7,38.4L30.6,37.4L30.9,37.2L31.0,37.1L32.9,33.8L34.4,33.1L34.4,33.1L34.6,33.1L35.5,32.2L35.9,31.3L36.5,30.0L36.5,29.8L36.5,29.8Z " data-iso="ALB" data-name="Albania" data-pop="3639453.0"/><path d="M69.2,179.4L60.4,183.3L52.4,179.8L51.4,177.2L51.2,177.3L52.4,185.5L59.8,191.7L60.2,191.5L60.4,190.9L63.3,186.9L66.1,183.7L68.2,184.5L68.3,184.3L69.2,181.9L69.2,181.5L68.8,181.3L68.7,181.0L69.2,179.3L69.2,179.4Z " data-iso="ARE" data-name="United Arab Emirates" data-pop="4798491.0"/><path d="M74.5,96.3L74.4,96.3L72.6,94.9L70.7,93.6L70.5,93.6L70.4,93.8L68.5,98.6L69.3,99.3L69.5,101.4L69.5,101.6L69.7,101.8L70.5,103.9L71.4,104.4L70.4,107.2L70.3,107.6L70.4,107.8L70.9,107.9L71.3,108.3L71.5,108.0L72.5,105.1L72.2,102.6L74.4,96.5L74.5,96.3Z " data-iso="ARM" data-name="Armenia" data-pop="2967004.0"/><path d="M47.5,2.0L47.5,2.1L49.0,5.9L49.7,7.2L50.4,7.6L50.6,7.8L51.1,7.9L52.9,7.5L53.8,7.7L55.9,7.8L56.1,7.9L56.2,7.6L57.5,6.3L57.8,6.1L58.5,6.0L58.5,6.0L58.6,5.9L58.9,2.4L58.9,0.4L57.0,0.0L47.5,0.0L47.5,0.4L47.5,0.9L47.6,1.3L47.5,2.0Z " data-iso="AUT" data-name="Austria" data-pop="8210281.0"/><path d="M69.5,101.6L69.4,101.7L69.4,101.9L69.4,102.0L69.2,105.8L69.9,107.1L70.3,107.6L70.4,107.2L71.4,104.4L70.5,103.9L69.7,101.8L69.5,101.6Z M79.5,97.1L79.3,97.1L78.3,99.8L77.5,100.2L75.4,96.2L74.5,96.3L74.4,96.5L72.2,102.6L72.5,105.1L71.5,108.0L71.3,108.3L71.5,108.5L77.1,108.5L77.1,110.3L74.8,111.7L75.9,115.1L76.9,113.6L78.4,113.3L82.2,109.8L84.5,111.1L84.4,102.0L84.3,101.6L80.9,102.5L79.8,100.9L79.7,97.4L79.5,97.1Z " data-iso="AZE" data-name="Azerbaijan" data-pop="8238672.0"/><path d="M187.0,239.9L192.2,240.5L193.4,236.9L196.8,237.9L198.2,240.6L199.6,247.0L199.6,247.0L201.0,245.1L201.2,242.2L201.2,242.0L201.1,241.7L200.6,234.5L196.4,235.3L197.3,232.2L199.3,232.1L199.3,227.8L193.4,226.9L189.0,221.4L185.3,222.5L186.3,225.8L184.4,227.5L186.6,231.1L185.9,232.4L186.9,239.5L187.0,239.9Z " data-iso="BGD" data-name="Bangladesh" data-pop="156050883.0"/><path d="M46.1,32.4L46.0,32.4L40.8,36.3L40.4,35.7L38.3,37.1L38.2,36.9L37.8,37.7L36.7,40.5L36.2,40.6L35.2,41.3L35.2,41.3L35.3,41.7L38.2,48.4L39.7,50.1L41.1,49.2L41.2,49.6L41.3,49.5L43.7,51.9L44.6,53.3L44.8,53.0L45.6,50.4L46.9,50.3L51.0,50.0L51.9,49.3L50.9,43.6L50.2,42.9L46.0,32.7L46.1,32.4Z " data-iso="BGR" data-name="Bulgaria" data-pop="7204687.0"/><path d="M34.9,25.2L34.9,25.2L36.5,24.1L36.9,24.4L39.5,24.6L39.5,24.7L39.8,24.7L43.3,22.0L44.8,20.8L44.7,20.7L44.7,20.5L43.1,12.2L41.5,11.8L35.5,22.7L34.9,24.8L34.9,25.2Z " data-iso="BIH" data-name="Bosnia and Herz." data-pop="4613414.0"/><path d="M99.5,13.6L97.3,12.8L97.2,12.2L96.2,11.7L96.1,11.7L95.9,11.8L94.2,12.9L91.9,12.0L89.5,12.8L86.1,9.4L86.1,9.2L84.8,10.3L81.2,13.1L78.9,12.6L76.6,15.0L76.2,15.4L76.3,15.4L80.8,22.9L83.2,30.3L87.4,31.6L87.6,32.0L87.7,32.0L91.7,29.9L98.7,21.5L100.1,20.7L99.0,17.5L99.3,14.1L99.5,13.7L99.5,13.6Z " data-iso="BLR" data-name="Belarus" data-pop="9648533.0"/><path d="M200.1,216.3L198.7,214.9L194.5,213.3L189.6,216.2L189.3,216.8L189.2,216.9L191.7,219.9L201.3,220.5L200.0,216.6L200.1,216.5L200.1,216.3Z " data-iso="BTN" data-name="Bhutan" data-pop="691141.0"/><path d="M276.7,252.7L269.6,254.1L267.7,259.5L271.2,260.7L274.9,258.4L276.7,252.7Z M284.4,120.9L284.2,121.6L283.6,130.5L288.8,128.4L295.9,133.0L292.8,133.2L288.8,134.6L284.3,140.2L280.8,141.1L278.2,144.1L275.1,143.6L273.1,148.1L269.0,153.6L266.0,155.1L257.4,156.2L252.7,158.6L241.0,155.4L233.8,154.6L226.6,153.2L220.4,146.1L218.0,144.1L212.0,141.6L207.7,138.8L209.2,136.4L209.0,132.4L208.0,129.1L202.4,124.3L202.5,121.8L202.5,121.6L202.3,121.6L201.6,121.6L201.5,121.7L201.3,121.7L201.0,121.7L200.8,121.5L195.4,124.4L194.5,128.5L191.5,129.7L186.5,127.9L183.1,132.9L182.9,135.4L180.8,133.8L175.6,133.9L175.4,141.8L172.6,145.9L172.5,146.0L172.5,146.3L162.0,148.2L160.5,147.9L158.1,150.1L153.8,147.9L148.7,151.0L148.4,150.9L148.4,151.1L147.7,154.7L150.7,156.7L149.3,161.7L149.2,161.7L149.1,161.7L148.2,161.3L147.5,161.4L147.8,162.2L147.8,162.2L148.0,162.2L151.6,165.5L151.8,169.3L153.2,170.3L153.3,170.5L153.6,170.8L154.9,171.7L155.4,172.0L156.3,172.2L156.6,172.3L156.6,172.3L156.6,172.3L159.1,178.6L157.8,181.2L158.4,183.3L158.4,183.3L158.5,183.6L158.3,184.3L158.4,184.6L158.1,186.3L158.0,186.5L158.0,186.5L157.6,193.5L158.4,193.7L162.0,198.0L162.0,198.3L162.1,198.6L165.9,198.6L170.6,204.8L176.7,210.2L183.5,213.6L186.3,213.8L186.6,213.9L186.6,213.8L188.6,213.3L189.4,213.8L189.1,216.6L189.3,216.8L189.6,216.2L194.5,213.3L198.7,214.9L200.1,216.3L200.1,216.5L200.4,216.5L204.2,215.6L206.7,213.5L212.4,211.2L217.7,211.1L218.7,212.2L218.8,215.7L222.1,216.7L222.2,216.8L222.3,216.7L227.2,220.0L227.3,224.3L222.0,233.1L222.3,235.7L227.2,235.1L231.2,245.5L236.2,246.4L236.1,246.5L236.4,246.7L238.8,248.1L238.8,242.6L240.1,243.0L240.3,243.1L240.5,243.0L247.6,242.5L251.3,240.1L259.3,241.4L259.2,244.8L264.3,246.7L264.7,246.7L266.4,245.0L267.6,246.1L271.0,245.7L273.4,251.7L275.0,250.5L273.5,249.1L276.9,246.1L280.6,244.4L283.2,244.5L286.7,242.4L286.8,242.4L286.8,242.3L286.8,242.1L286.9,242.1L287.0,242.2L285.9,239.3L286.4,239.1L288.5,240.7L288.8,240.8L289.2,240.6L289.3,240.5L289.8,240.6L290.1,240.3L294.3,239.3L301.6,234.1L304.4,231.4L303.4,230.5L306.6,229.4L307.3,227.0L309.9,225.6L308.2,223.2L309.0,219.5L311.9,217.4L313.1,213.7L315.8,211.6L314.9,207.6L316.4,207.7L316.5,204.4L313.8,203.3L315.0,200.1L313.9,198.5L310.0,196.2L314.2,196.2L310.0,193.2L309.8,191.6L305.5,186.0L302.4,184.7L306.8,178.1L307.6,176.0L312.5,173.5L312.6,171.4L306.9,171.1L304.5,172.0L302.9,174.3L300.0,174.0L299.5,170.9L296.3,170.8L294.9,166.8L299.5,164.9L299.8,163.3L303.0,160.6L304.8,157.2L308.5,158.9L306.3,163.8L308.6,165.1L311.9,161.3L315.8,158.9L315.9,159.0L323.1,150.1L326.5,150.0L325.5,147.9L328.7,145.5L329.8,142.6L332.2,142.8L332.4,142.9L332.5,142.7L333.5,140.6L331.7,131.7L336.3,129.5L336.7,124.1L336.0,116.1L334.3,114.9L330.6,119.2L326.6,120.7L321.2,115.4L315.3,115.2L309.4,107.0L305.2,102.3L296.3,102.5L292.5,104.7L293.5,109.8L292.2,111.7L291.4,118.7L288.0,121.7L285.0,121.2L284.4,120.9Z " data-iso="CHN" data-name="China" data-pop="1338612968.0"/><path d="M32.0,91.9L31.7,89.9L30.8,88.4L29.7,88.7L29.6,88.5L31.0,90.5L31.1,91.7L31.9,92.4L32.0,91.9Z " data-iso="CYN" data-name="N. Cyprus" data-pop="265100.0"/><path d="M29.6,88.3L27.8,89.6L28.0,90.3L31.9,92.5L31.9,92.4L31.1,91.7L31.0,90.5L29.6,88.5L29.6,88.3Z " data-iso="CYP" data-name="Cyprus" data-pop="531640.0"/><path d="M65.9,0.0L66.1,0.0L66.6,0.2L65.9,0.0Z M58.5,6.0L58.9,5.9L60.5,7.5L61.3,7.8L63.7,8.6L63.8,8.7L63.9,8.6L65.2,7.0L66.3,1.9L65.8,0.0L58.9,0.4L58.9,2.4L58.6,5.9L58.5,6.0Z " data-iso="CZE" data-name="Czech Rep." data-pop="10211904.0"/><path d="M0.1,210.4L0.0,210.3L0.0,211.1L0.3,210.9L0.1,210.4Z M1.9,205.4L0.3,205.7L0.0,205.8L0.0,209.0L1.2,209.0L2.0,208.4L1.9,205.7L1.9,205.4Z " data-iso="DJI" data-name="Djibouti" data-pop="516055.0"/><path d="M4.0,7.6L3.6,2.1L2.6,0.0L0.0,0.0L0.0,10.5L2.2,9.3L4.3,9.0L4.0,7.6Z " data-iso="DZA" data-name="Algeria" data-pop="34178188.0"/><path d="M2.5,149.8L1.7,142.8L4.4,139.1L4.3,135.3L7.1,123.4L9.6,117.4L10.4,111.9L13.0,106.8L10.8,114.0L10.5,117.5L17.0,115.3L17.2,115.3L18.7,111.9L19.2,110.6L20.3,108.0L20.7,107.0L20.9,106.6L21.0,106.5L20.9,106.5L16.7,102.6L15.1,96.7L8.6,93.6L6.8,86.2L3.7,79.5L3.9,78.8L2.3,79.0L1.1,80.7L0.0,81.9L0.0,147.3L0.7,148.0L1.6,149.0L2.4,149.9L2.5,149.8Z " data-iso="EGY" data-name="Egypt" data-pop="83082869.0"/><path d="M2.0,204.9L1.1,203.9L0.6,199.4L0.0,197.6L0.0,205.8L0.3,205.7L1.9,205.4L2.0,204.9Z " data-iso="ERI" data-name="Eritrea" data-pop="5647168.0"/><path d="M103.4,1.9L104.8,3.0L104.5,4.8L104.4,8.6L104.5,8.6L104.6,8.6L105.8,8.4L109.5,5.9L113.2,5.2L113.1,5.2L111.1,0.0L105.6,0.8L103.6,1.8L103.4,1.9Z " data-iso="EST" data-name="Estonia" data-pop="1299371.0"/><path d="M11.5,237.9L10.2,237.0L5.8,232.7L4.4,231.0L0.0,225.3L0.0,242.2L3.8,240.6L10.3,238.3L11.5,237.9Z " data-iso="ETH" data-name="Ethiopia" data-pop="85237338.0"/><path d="M117.4,2.4L127.5,3.6L131.4,1.9L132.0,0.0L116.9,0.0L115.9,0.4L117.4,2.3L117.4,2.4Z " data-iso="FIN" data-name="Finland" data-pop="5250275.0"/><path d="M21.2,107.0L21.4,106.7L22.4,106.3L21.9,106.4L21.0,106.5L20.9,106.6L20.7,107.0L21.2,107.0Z " data-iso="PSE" data-name="Palestine" data-pop="1604238.0"/><path d="M79.5,97.0L79.6,93.5L73.0,81.9L72.1,78.8L70.4,77.7L70.5,78.5L70.8,82.3L71.2,83.3L68.6,87.6L67.6,87.8L68.0,88.8L70.6,93.5L70.5,93.6L70.7,93.6L72.6,94.9L74.4,96.3L74.5,96.3L75.4,96.2L77.5,100.2L78.3,99.8L79.3,97.1L79.5,97.1L79.5,97.0Z " data-iso="GEO" data-name="Georgia" data-pop="4615807.0"/><path d="M41.2,49.6L41.1,49.2L39.7,50.1L38.2,48.4L35.3,41.7L35.2,41.3L35.1,41.2L32.3,39.2L31.1,37.6L30.9,37.2L30.6,37.4L27.7,38.4L26.7,37.9L25.4,37.7L25.2,38.2L21.9,46.1L23.5,51.8L22.5,51.5L22.6,47.6L19.7,46.8L16.8,54.6L19.2,54.7L22.9,52.3L23.4,54.1L25.5,47.7L26.2,48.5L31.6,43.0L31.0,46.2L32.9,48.5L34.0,45.5L37.2,51.6L37.1,51.8L38.6,51.9L39.4,51.1L41.2,49.9L41.2,49.6Z " data-iso="GRC" data-name="Greece" data-pop="10737428.0"/><path d="M289.8,240.6L289.3,240.5L289.2,240.6L288.8,240.8L288.8,240.9L288.4,241.2L289.9,240.6L289.8,240.6Z " data-iso="HKG" data-name="Hong Kong" data-pop="7055071.0"/><path d="M34.5,25.7L34.6,25.5L34.7,25.3L34.9,25.2L34.9,24.8L35.5,22.7L35.4,22.3L35.6,20.4L34.7,24.9L34.5,25.7Z M49.4,9.8L49.4,9.5L44.0,8.8L43.2,3.9L43.0,3.8L42.9,7.2L37.0,16.7L35.6,21.5L41.5,11.8L43.1,12.2L44.7,20.5L44.7,20.7L44.9,20.5L46.6,20.3L46.9,19.3L48.9,17.7L49.0,17.7L49.0,17.6L47.5,15.5L47.4,15.0L49.3,9.9L49.4,9.8Z " data-iso="HRV" data-name="Croatia" data-pop="4489409.0"/><path d="M62.0,19.7L61.3,15.6L57.7,12.4L56.5,12.5L56.2,7.9L56.1,7.9L55.9,7.8L53.8,7.7L52.9,7.5L51.1,7.9L50.6,7.8L50.7,8.3L50.1,8.7L49.4,9.7L49.4,9.8L49.3,9.9L47.4,15.0L47.5,15.5L49.0,17.6L49.0,17.7L49.0,17.7L49.4,18.2L50.1,18.7L51.0,20.7L50.9,20.8L51.1,20.8L52.3,22.6L58.3,21.7L60.9,22.8L61.0,22.8L61.0,22.7L61.7,21.2L61.7,20.7L62.2,20.0L62.1,19.7L62.0,19.7Z " data-iso="HUN" data-name="Hungary" data-pop="9905596.0"/><path d="M155.6,188.6L155.4,188.3L155.5,191.6L155.4,191.3L157.0,192.7L157.6,193.5L158.4,193.7L158.8,194.1L158.8,194.1L162.0,198.0L162.0,198.3L161.9,198.2L159.4,199.6L157.2,203.0L158.3,204.4L168.0,212.4L172.9,213.8L180.5,219.2L186.0,218.0L186.8,214.1L186.6,213.9L186.6,213.8L188.6,213.3L189.4,213.8L189.1,216.6L189.3,216.8L189.2,216.9L191.7,219.9L201.3,220.5L200.0,216.6L200.1,216.5L200.4,216.5L204.2,215.6L206.7,213.5L212.4,211.2L217.7,211.1L218.7,212.2L218.8,215.7L222.1,216.7L222.2,216.8L222.1,217.1L220.4,219.2L213.1,223.1L210.4,228.9L210.9,229.7L207.7,234.4L205.5,233.7L203.5,241.3L201.4,241.9L201.2,242.0L201.1,241.7L200.6,234.5L196.4,235.3L197.3,232.2L199.3,232.1L199.3,227.8L193.4,226.9L189.0,221.4L185.3,222.5L186.3,225.8L184.4,227.5L186.6,231.1L185.9,232.4L186.9,239.5L186.8,240.2L182.9,240.9L183.5,238.8L177.6,241.7L174.4,246.4L171.1,246.4L164.5,252.2L156.5,255.8L155.2,258.2L152.1,258.0L147.5,259.5L145.6,269.8L141.5,282.2L139.6,281.9L131.4,289.1L128.0,287.3L126.0,282.1L124.2,271.5L122.4,267.1L121.7,258.6L120.5,252.5L119.4,250.4L119.9,233.2L121.8,229.2L122.4,225.7L120.9,222.3L120.2,225.3L113.4,226.6L109.1,219.1L109.4,217.2L113.5,218.0L115.3,216.3L112.1,216.5L107.6,210.2L107.7,209.6L110.6,208.7L117.2,210.7L119.4,210.2L119.1,207.7L116.4,199.0L122.0,195.8L125.2,197.4L127.0,196.6L136.7,190.4L140.0,187.3L143.2,182.1L140.8,177.6L143.9,171.5L148.3,174.2L153.5,173.3L153.6,173.1L154.1,173.0L155.7,172.5L156.2,172.4L156.6,172.3L156.6,172.3L159.1,178.6L157.8,181.2L158.4,183.3L158.5,183.6L158.3,184.3L158.4,184.6L158.1,186.3L158.0,186.5L155.6,188.6Z " data-iso="IND" data-name="India" data-pop="1166079217.0"/><path d="M69.4,101.9L69.3,101.8L66.9,101.2L62.3,111.1L62.3,111.2L62.3,111.2L60.8,116.9L62.2,119.3L60.3,121.9L55.5,125.0L56.5,138.7L54.2,141.5L54.2,147.6L54.3,147.6L59.1,150.0L58.4,162.3L62.8,171.8L66.3,174.9L69.5,174.7L73.1,180.1L73.1,181.1L86.0,193.2L86.2,193.2L88.6,189.6L92.7,189.3L95.0,187.3L94.8,183.5L92.8,179.8L92.0,173.6L91.7,172.5L91.8,172.4L93.0,171.8L97.1,167.6L94.8,164.9L98.5,154.4L101.8,152.3L103.8,149.7L103.8,149.4L103.8,149.2L105.4,145.0L103.1,143.7L101.9,138.8L99.3,136.0L97.6,132.7L86.4,129.4L86.2,130.1L83.8,130.2L80.0,128.9L76.4,123.1L75.8,115.3L75.9,115.1L74.8,111.7L77.1,110.3L77.1,108.5L71.5,108.5L71.3,108.3L70.9,107.9L70.4,107.8L70.3,107.6L69.9,107.1L69.2,105.8L69.4,102.0L69.4,101.9Z " data-iso="IRN" data-name="Iran" data-pop="66429284.0"/><path d="M62.3,111.0L60.3,108.8L58.1,105.8L56.8,106.0L56.5,105.8L56.4,105.9L52.6,105.8L48.6,109.9L38.5,111.2L37.4,111.0L37.0,112.0L35.6,115.0L35.5,116.5L34.8,116.6L35.2,117.3L37.3,120.4L39.6,130.6L45.8,146.1L46.4,146.4L47.3,146.1L50.3,144.2L51.5,144.7L52.6,146.2L52.7,146.1L53.6,147.2L53.9,147.5L54.2,147.6L54.2,141.5L56.5,138.7L55.5,125.0L60.3,121.9L62.2,119.3L60.8,116.9L62.3,111.2L62.3,111.2L62.3,111.0Z " data-iso="IRQ" data-name="Iraq" data-pop="28945657.0"/><path d="M28.9,105.4L29.9,104.5L30.2,104.4L30.7,103.4L31.0,103.2L30.8,103.2L29.2,103.4L28.9,103.3L28.2,102.5L27.8,102.8L24.9,104.9L23.7,105.7L22.4,106.2L22.4,106.3L21.4,106.7L21.2,107.0L20.7,107.0L20.3,108.0L19.2,110.6L18.7,111.9L17.2,115.3L17.6,115.2L19.8,113.2L20.9,112.1L23.8,109.8L24.3,109.3L24.2,109.2L23.9,107.5L27.0,106.0L27.2,106.2L27.9,105.4L28.2,105.3L28.6,105.4L28.7,105.6L28.9,105.4Z " data-iso="ISR" data-name="Israel" data-pop="7233701.0"/><path d="M14.8,28.4L12.2,23.0L12.3,20.7L10.0,20.2L8.2,29.0L8.3,30.9L11.1,29.3L14.8,28.4Z M18.8,0.0L14.1,2.7L12.7,5.1L14.9,6.5L18.8,4.3L22.5,1.0L18.8,0.0Z M43.6,4.1L45.2,2.9L46.5,1.6L47.3,2.0L47.5,2.0L47.6,1.3L47.5,0.9L47.5,0.4L47.5,0.0L31.9,0.0L30.6,0.8L25.0,12.7L22.0,23.9L18.3,28.4L13.9,29.7L14.2,30.7L19.0,30.7L20.9,29.9L23.5,26.5L25.3,26.6L24.0,32.4L25.2,32.1L27.1,27.0L30.2,14.6L31.0,12.9L37.8,2.7L42.1,0.4L43.8,4.2L43.6,4.1Z " data-iso="ITA" data-name="Italy" data-pop="58126212.0"/><path d="M35.5,116.5L35.6,115.0L37.0,112.0L37.4,111.0L36.4,110.8L29.8,109.8L29.2,108.8L28.9,105.9L28.7,105.6L28.6,105.4L28.2,105.3L27.9,105.4L27.2,106.2L26.8,106.8L25.9,107.6L25.3,108.5L24.5,109.0L24.3,109.3L23.8,109.8L20.9,112.1L19.8,113.2L17.6,115.2L17.4,115.5L17.0,115.9L19.2,119.5L22.7,118.9L24.8,120.3L27.4,119.7L27.8,113.3L34.1,116.7L34.8,116.6L35.5,116.5Z " data-iso="JOR" data-name="Jordan" data-pop="6342948.0"/><path d="M345.6,180.4L341.3,182.9L342.1,185.9L342.8,183.9L344.9,185.1L344.5,190.8L346.9,191.3L348.8,188.3L347.2,181.4L345.6,180.4Z M355.6,174.1L354.1,174.2L350.1,179.8L351.7,182.4L353.1,179.1L356.3,178.1L356.6,173.9L355.6,174.1Z M366.0,135.6L363.8,137.3L364.5,143.7L365.1,143.5L365.9,152.2L361.8,159.8L359.2,166.1L349.9,169.9L345.0,176.9L344.3,179.0L348.6,178.3L348.5,176.6L358.7,171.3L360.3,175.8L361.2,175.7L362.8,167.7L367.9,167.9L368.4,165.3L371.8,163.6L373.0,164.3L374.2,159.2L373.4,158.5L370.9,149.3L371.4,147.9L371.2,141.3L366.0,135.6Z M368.0,120.8L359.6,118.5L362.8,127.1L360.1,128.7L359.9,132.4L362.8,136.8L364.9,134.2L361.6,132.1L365.6,129.8L370.6,130.0L370.6,126.5L374.6,122.1L368.0,120.8Z " data-iso="JPN" data-name="Japan" data-pop="127078679.0"/><path d="M156.3,172.2L155.4,172.0L154.9,171.7L153.6,170.8L153.3,170.5L153.4,170.9L153.4,171.6L153.5,172.7L153.6,173.1L154.1,173.0L155.7,172.5L156.2,172.4L156.6,172.3L156.3,172.2Z " data-iso="KAS" data-name="" data-pop="6000.0"/><path d="M98.5,86.0L105.0,87.2L108.2,90.6L106.7,93.8L104.2,95.5L104.6,97.2L100.5,93.9L98.6,94.6L98.6,97.2L95.2,95.5L94.3,101.9L96.4,105.6L93.8,109.0L93.6,109.4L99.2,110.6L99.9,116.8L101.2,117.4L101.3,117.5L101.9,116.6L110.3,103.2L117.7,105.1L121.4,114.4L122.3,118.9L130.1,122.0L130.1,130.6L131.0,131.1L130.8,135.2L135.3,138.9L137.8,137.3L144.5,136.1L144.8,136.0L144.7,135.8L146.5,134.4L152.9,137.0L153.6,135.9L157.9,137.9L169.7,142.5L172.2,145.4L172.5,146.0L172.6,145.9L175.4,141.8L175.6,133.9L180.8,133.8L182.9,135.4L183.1,132.9L186.5,127.9L191.5,129.7L194.5,128.5L195.4,124.4L200.8,121.5L201.0,121.7L201.0,121.4L199.9,118.3L198.3,119.2L195.8,117.9L191.3,111.2L187.0,110.4L185.5,107.8L184.5,109.1L181.3,97.0L179.3,93.4L173.2,93.3L171.1,92.5L171.8,90.4L167.0,87.2L168.2,84.1L166.1,81.4L162.4,80.4L160.7,80.9L150.9,79.0L144.8,76.5L143.0,79.0L144.2,81.0L141.8,80.2L138.1,85.9L137.4,88.8L131.9,86.5L131.2,83.8L128.2,81.8L124.1,81.5L120.1,71.9L117.8,70.4L109.6,70.0L107.5,72.3L106.9,68.5L99.6,73.3L98.4,77.2L100.1,79.3L98.4,86.2L98.5,86.0Z " data-iso="KAZ" data-name="Kazakhstan" data-pop="15399437.0"/><path d="M172.2,145.4L169.7,142.5L157.9,137.9L153.6,135.9L152.9,137.0L146.5,134.4L144.7,135.8L144.8,136.0L144.9,136.0L143.8,137.2L144.0,141.0L149.0,144.5L143.9,145.6L141.6,144.4L141.5,144.4L141.4,144.5L136.0,143.4L135.3,145.3L142.1,147.8L143.7,150.3L148.3,150.8L148.4,150.9L148.7,151.0L153.8,147.9L158.1,150.1L160.5,147.9L162.0,148.2L172.5,146.3L172.5,146.0L172.2,145.4Z M141.7,146.2L141.3,145.6L141.2,145.0L141.7,146.2Z M140.0,145.8L139.5,145.6L139.4,145.4L140.0,145.8Z " data-iso="KGZ" data-name="Kyrgyzstan" data-pop="5431747.0"/><path d="M263.1,276.1L262.9,276.3L259.9,277.7L256.8,279.6L253.0,277.9L253.0,277.8L252.9,277.8L245.9,277.5L243.1,278.6L240.5,281.1L243.1,289.0L243.1,288.9L244.0,292.4L246.3,291.8L246.3,294.1L248.9,294.0L249.7,294.5L255.6,292.1L256.4,289.1L258.1,289.1L262.7,286.5L263.2,276.3L263.1,276.1Z " data-iso="KHM" data-name="Cambodia" data-pop="14494293.0"/><path d="M325.6,166.9L326.6,168.7L325.5,170.5L327.9,175.3L327.3,178.0L329.3,180.7L337.1,175.6L336.4,170.2L331.7,163.3L330.4,161.6L326.3,164.4L325.6,166.7L325.6,166.9Z " data-iso="KOR" data-name="S. Korea" data-pop="48508972.0"/><path d="M37.1,34.7L39.7,31.1L39.7,29.6L38.2,30.1L37.9,29.9L37.7,29.6L37.3,29.2L37.2,29.2L36.5,29.8L36.5,29.8L36.5,30.0L35.9,31.3L35.5,32.2L34.6,33.1L34.4,33.1L34.4,33.2L35.4,33.2L37.0,34.9L37.0,34.9L37.1,34.7Z " data-iso="KOS" data-name="Kosovo" data-pop="1804838.0"/><path d="M52.6,146.2L51.5,144.7L50.3,144.2L47.3,146.1L46.4,146.4L46.9,147.0L48.3,150.7L48.4,151.3L50.6,153.0L50.7,152.5L51.7,147.6L52.1,148.2L52.5,146.3L52.6,146.2Z " data-iso="KWT" data-name="Kuwait" data-pop="2691158.0"/><path d="M240.5,243.5L243.6,246.2L243.3,248.3L249.4,250.0L249.5,251.6L251.8,253.4L247.6,256.7L252.6,259.2L252.8,260.7L262.4,270.4L261.5,271.4L263.1,275.6L263.1,276.1L262.9,276.3L259.9,277.7L256.8,279.6L253.0,277.9L253.0,277.8L253.2,277.7L254.5,274.8L253.9,270.8L251.1,266.1L251.3,265.1L247.7,260.7L245.2,260.3L244.0,261.5L244.0,261.5L244.0,261.5L244.0,261.5L239.6,261.3L235.6,264.1L236.5,257.7L235.2,254.9L232.9,254.7L231.7,252.0L231.8,251.7L231.8,251.5L233.6,249.4L233.5,249.2L235.9,246.9L236.1,246.5L236.4,246.7L238.8,248.1L238.8,242.6L240.1,243.0L240.3,243.1L240.5,243.5Z " data-iso="LAO" data-name="Laos" data-pop="6834942.0"/><path d="M31.2,103.2L34.9,102.2L35.6,99.8L34.8,99.1L34.5,99.4L32.9,99.7L32.2,100.4L28.6,102.3L28.2,102.5L28.9,103.3L29.2,103.4L30.8,103.2L31.0,103.2L31.2,103.2Z " data-iso="LBN" data-name="Lebanon" data-pop="4017095.0"/><path d="M4.1,78.5L4.5,77.7L3.2,69.9L3.7,69.2L0.0,61.6L0.0,81.9L1.1,80.7L2.3,79.0L3.9,78.8L4.1,78.5Z " data-iso="LBY" data-name="Libya" data-pop="6310434.0"/><path d="M141.9,284.6L141.0,289.3L139.8,291.8L139.7,297.1L141.0,301.0L147.6,300.3L148.7,297.1L145.8,289.3L141.9,284.6Z " data-iso="LKA" data-name="Sri Lanka" data-pop="21324791.0"/><path d="M89.8,0.4L89.8,0.6L90.2,0.6L90.8,0.4L90.4,0.4L89.8,0.4Z M90.0,1.2L89.4,5.7L88.4,5.9L87.5,6.4L87.3,6.6L87.5,6.7L87.0,8.6L86.2,9.1L86.1,9.2L86.1,9.4L89.5,12.8L91.9,12.0L94.2,12.9L95.9,11.8L96.1,11.7L96.1,11.5L97.1,8.7L96.1,2.9L94.9,0.0L91.8,0.0L90.3,1.0L90.0,1.2L90.0,1.2Z " data-iso="LTU" data-name="Lithuania" data-pop="3555179.0"/><path d="M96.1,11.7L96.2,11.7L97.2,12.2L97.3,12.8L99.5,13.6L99.5,13.7L99.7,13.6L102.5,10.7L103.4,10.4L104.6,8.9L104.5,8.6L104.4,8.6L104.5,4.8L104.8,3.0L103.4,1.9L103.0,2.0L99.4,3.0L99.0,2.5L100.5,0.0L94.9,0.0L96.1,2.9L97.1,8.7L96.1,11.5L96.1,11.7Z " data-iso="LVA" data-name="Latvia" data-pop="2231503.0"/><path d="M286.8,242.3L286.8,242.3L287.0,242.2L287.0,242.2L286.9,242.1L286.8,242.1L286.8,242.3L286.8,242.4L286.8,242.3Z " data-iso="MAC" data-name="Macau" data-pop="559846.0"/><path d="M57.9,43.2L65.0,43.4L68.4,38.0L68.5,33.6L66.6,31.2L66.4,31.2L66.5,31.4L63.3,38.4L62.7,39.1L57.9,42.9L57.7,43.2L57.9,43.2Z " data-iso="MDA" data-name="Moldova" data-pop="4320748.0"/><path d="M38.2,36.8L37.3,35.3L37.1,35.1L37.0,34.9L37.0,34.9L35.4,33.2L34.4,33.2L34.4,33.1L34.4,33.1L32.9,33.8L31.0,37.1L30.9,37.2L31.1,37.6L32.3,39.2L35.1,41.2L35.2,41.3L35.2,41.3L36.2,40.6L36.7,40.5L37.8,37.7L38.2,36.9L38.2,36.8Z " data-iso="MKD" data-name="Macedonia" data-pop="2066718.0"/><path d="M222.2,216.8L222.1,217.1L220.4,219.2L213.1,223.1L210.4,228.9L210.9,229.7L207.7,234.4L205.5,233.7L203.5,241.3L201.4,241.9L201.2,242.0L201.2,242.2L201.0,245.1L199.6,247.0L199.8,247.4L202.5,249.2L207.9,261.9L205.9,268.0L208.1,266.5L207.8,269.1L213.6,268.1L218.8,265.0L221.0,272.2L221.1,274.7L223.5,280.7L224.4,284.8L224.0,294.8L224.2,294.8L224.6,292.6L228.4,288.2L226.8,284.1L226.1,278.9L224.2,277.0L222.8,273.3L224.4,272.5L225.1,268.7L220.0,258.9L223.3,253.7L226.7,253.8L227.1,252.7L231.3,251.5L231.8,251.7L231.8,251.5L233.6,249.4L233.5,249.2L235.9,246.9L236.1,246.5L236.2,246.4L231.2,245.5L227.2,235.1L222.3,235.7L222.0,233.1L227.3,224.3L227.2,220.0L222.3,216.7L222.2,216.8Z " data-iso="MMR" data-name="Myanmar" data-pop="48137741.0"/><path d="M39.5,24.6L36.9,24.4L36.5,24.1L34.9,25.2L34.9,25.2L34.7,25.3L34.6,25.5L34.5,25.7L34.5,25.8L34.3,26.2L34.1,27.3L33.2,29.0L33.1,29.6L36.4,28.4L36.4,28.8L36.5,29.8L36.5,29.8L36.5,29.8L37.2,29.2L37.3,29.2L37.7,29.6L37.9,29.9L38.0,29.8L38.4,27.5L38.5,27.0L39.5,24.7L39.5,24.7L39.5,24.6Z " data-iso="MNE" data-name="Montenegro" data-pop="672180.0"/><path d="M284.2,120.7L276.9,120.2L271.6,124.2L266.7,125.5L261.8,125.3L254.8,121.2L252.1,120.6L247.6,122.0L243.9,119.4L239.0,114.8L235.0,113.0L231.6,117.3L232.0,121.6L230.6,122.1L222.2,120.9L218.1,117.6L209.7,118.7L208.2,120.0L202.5,121.6L202.5,121.6L202.5,121.8L202.4,124.3L208.0,129.1L209.0,132.4L209.2,136.4L207.7,138.8L212.0,141.6L218.0,144.1L220.4,146.1L226.6,153.2L233.8,154.6L241.0,155.4L252.7,158.6L257.4,156.2L266.0,155.1L269.0,153.6L273.1,148.1L275.1,143.6L278.2,144.1L280.8,141.1L284.3,140.2L288.8,134.6L292.8,133.2L295.9,133.0L288.8,128.4L283.6,130.5L284.2,121.6L284.4,120.9L284.2,120.7Z " data-iso="MNG" data-name="Mongolia" data-pop="3041142.0"/><path d="M186.3,213.8L183.5,213.6L176.7,210.2L170.6,204.8L165.9,198.6L162.1,198.6L162.0,198.3L161.9,198.2L159.4,199.6L157.2,203.0L158.3,204.4L168.0,212.4L172.9,213.8L180.5,219.2L186.0,218.0L186.8,214.1L186.6,213.9L186.3,213.8Z " data-iso="NPL" data-name="Nepal" data-pop="28563377.0"/><path d="M60.2,191.5L60.2,192.1L54.8,202.4L54.4,202.4L43.3,200.3L42.8,200.2L42.8,200.7L42.5,209.0L42.7,209.3L42.7,212.5L43.6,212.7L47.9,213.7L49.2,214.8L53.6,212.6L56.5,213.8L58.4,211.8L63.2,212.3L65.7,206.9L67.7,207.7L75.8,201.4L74.7,200.0L73.3,194.3L69.2,190.5L68.1,185.7L68.2,184.5L66.1,183.7L63.3,186.9L60.4,190.9L60.2,191.5Z M69.2,179.3L68.7,181.0L68.8,181.3L69.2,181.5L69.3,181.3L70.4,179.8L69.8,178.9L69.2,179.3Z " data-iso="OMN" data-name="Oman" data-pop="3418085.0"/><path d="M153.2,170.3L151.8,169.3L151.6,165.5L148.0,162.2L147.8,162.2L147.4,162.3L139.7,160.7L135.9,162.9L136.0,165.3L129.9,170.1L128.6,172.4L126.2,172.7L123.0,177.0L115.8,177.4L114.5,176.5L111.5,177.5L109.3,181.3L101.6,179.9L92.7,173.6L91.7,172.5L92.0,173.6L92.8,179.8L94.8,183.5L95.0,187.3L92.7,189.3L88.6,189.6L86.2,193.2L86.2,193.3L96.6,198.1L103.5,199.4L103.8,203.1L105.0,207.0L107.6,209.9L107.7,209.6L110.6,208.7L117.2,210.7L119.4,210.2L119.1,207.7L116.4,199.0L122.0,195.8L125.2,197.4L127.0,196.6L136.7,190.4L140.0,187.3L143.2,182.1L140.8,177.6L143.9,171.5L148.3,174.2L153.5,173.3L153.6,173.1L153.5,172.7L153.4,171.6L153.4,170.9L153.3,170.5L153.2,170.3Z " data-iso="PAK" data-name="Pakistan" data-pop="176242949.0"/><path d="M345.1,304.7L343.9,301.2L345.3,298.2L347.7,300.3L348.8,298.1L346.3,292.5L346.9,290.8L344.7,288.8L342.6,288.6L343.3,291.3L340.6,292.0L337.8,295.9L336.0,294.7L333.2,295.3L328.4,301.8L329.2,302.9L331.2,298.9L335.1,298.1L337.7,298.6L338.2,303.5L340.7,304.7L345.1,304.7Z M332.9,293.0L333.8,286.3L331.5,285.4L331.3,288.9L329.5,290.9L332.9,293.0Z M333.8,291.2L336.1,286.7L335.6,283.4L333.6,289.0L333.8,291.2Z M307.4,299.5L314.2,292.0L315.5,289.3L307.5,298.3L307.4,299.5Z M329.0,282.7L327.1,282.5L327.2,285.7L330.6,285.8L331.7,284.0L329.0,282.7Z M340.4,276.6L337.5,277.2L337.2,278.9L342.0,280.5L340.4,276.6Z M320.4,276.0L318.9,276.6L322.8,281.0L324.4,279.0L324.2,277.1L320.4,276.0Z M319.6,253.7L318.0,254.3L317.0,258.4L317.8,264.5L315.4,264.4L317.2,270.6L321.0,271.2L319.8,273.9L328.7,275.9L328.3,272.8L331.7,275.8L335.4,275.3L329.6,271.4L325.4,272.9L322.8,266.8L326.3,259.1L324.3,253.4L319.6,253.7Z " data-iso="PHL" data-name="Philippines" data-pop="97976603.0"/><path d="M63.8,8.7L63.8,9.0L64.5,12.8L65.7,16.7L65.2,18.8L65.2,19.0L65.3,19.1L65.5,19.8L71.7,18.5L72.0,19.1L76.0,15.7L76.2,15.4L76.6,15.0L78.9,12.6L81.2,13.1L84.8,10.3L86.1,9.2L86.2,9.1L87.0,8.6L87.5,6.7L87.3,6.6L87.2,6.6L86.8,5.3L85.5,0.0L66.6,0.2L66.1,0.0L65.9,0.0L65.8,0.0L66.3,1.9L65.2,7.0L63.9,8.6L63.8,8.7Z " data-iso="POL" data-name="Poland" data-pop="38482919.0"/><path d="M315.9,159.0L319.6,160.3L319.6,163.2L321.1,163.7L318.8,166.8L325.5,166.7L325.6,166.7L326.3,164.4L330.4,161.6L330.2,161.4L326.5,160.0L326.5,157.4L332.0,150.5L331.0,147.7L333.0,143.9L333.1,143.8L333.0,143.7L332.5,143.2L332.4,142.9L332.2,142.8L329.8,142.6L328.7,145.5L325.5,147.9L326.5,150.0L323.1,150.1L315.9,159.0L315.9,159.0Z " data-iso="PRK" data-name="N. Korea" data-pop="22665345.0"/><path d="M51.4,175.4L54.0,169.0L50.0,173.4L49.8,173.6L49.7,174.1L50.9,175.3L51.4,175.4Z " data-iso="QAT" data-name="Qatar" data-pop="833285.0"/><path d="M57.9,42.9L62.7,39.1L63.3,38.4L66.5,31.4L66.4,31.2L66.3,31.1L62.3,28.5L62.2,26.2L61.1,22.8L61.0,22.8L60.9,22.8L58.3,21.7L52.3,22.6L51.1,20.8L50.9,20.8L50.8,21.1L48.5,25.4L46.7,28.6L46.1,32.4L46.1,32.4L46.0,32.7L50.2,42.9L50.9,43.6L51.9,49.3L52.1,49.2L56.3,46.9L56.7,46.5L58.8,47.7L59.1,47.5L58.4,45.6L57.4,44.3L57.5,43.8L57.7,43.2L57.9,42.9Z " data-iso="ROU" data-name="Romania" data-pop="22215421.0"/><path d="M343.6,81.2L345.7,90.8L349.2,94.4L359.0,115.4L359.8,111.9L363.1,113.6L362.8,112.1L357.0,107.3L355.6,101.3L358.1,100.0L343.6,81.2Z M87.3,6.6L87.5,6.4L88.4,5.9L89.4,5.7L90.0,1.2L89.3,1.5L88.3,0.4L89.4,0.6L89.8,0.6L89.8,0.4L89.6,0.4L88.9,0.4L88.0,0.0L85.5,0.0L86.8,5.3L87.2,6.6L87.3,6.6Z M191.8,2.5L190.4,1.4L182.4,4.7L183.4,8.4L181.8,8.5L183.0,10.8L185.8,12.7L187.2,7.2L191.8,2.5Z M288.0,2.8L286.0,2.0L286.4,6.5L288.6,7.5L292.9,5.1L293.4,0.8L288.5,1.0L288.0,2.8Z M191.8,0.0L191.0,1.6L193.0,3.5L196.3,2.1L208.0,0.7L191.8,0.0Z M132.0,0.0L131.4,1.9L127.5,3.6L117.4,2.4L117.9,3.0L117.0,5.5L113.5,5.2L113.2,5.2L109.5,5.9L105.8,8.4L104.6,8.6L104.5,8.6L104.6,8.9L103.4,10.4L102.5,10.7L99.7,13.6L99.5,13.7L99.3,14.1L99.0,17.5L100.1,20.7L98.7,21.5L91.7,29.9L87.7,32.0L87.6,32.0L87.6,32.1L91.1,35.5L88.0,40.4L88.7,51.9L89.5,51.9L90.7,57.3L88.2,58.2L86.2,61.2L82.8,60.2L79.2,61.4L80.0,61.7L80.6,63.6L76.6,62.4L76.3,65.3L70.0,64.1L70.5,68.5L70.4,77.3L70.4,77.7L72.1,78.8L73.0,81.9L79.6,93.5L79.5,97.0L79.5,97.1L79.7,97.4L79.8,100.9L80.9,102.5L84.3,101.6L84.2,101.2L85.1,94.9L87.5,88.4L98.3,86.4L98.4,86.2L100.1,79.3L98.4,77.2L99.6,73.3L106.9,68.5L107.5,72.3L109.6,70.0L117.8,70.4L120.1,71.9L124.1,81.5L128.2,81.8L131.2,83.8L131.9,86.5L137.4,88.8L138.1,85.9L141.8,80.2L144.2,81.0L143.0,79.0L144.8,76.5L150.9,79.0L160.7,80.9L162.4,80.4L166.1,81.4L168.2,84.1L167.0,87.2L171.8,90.4L171.1,92.5L173.2,93.3L179.3,93.4L181.3,97.0L184.5,109.1L185.5,107.8L187.0,110.4L191.3,111.2L195.8,117.9L198.3,119.2L199.9,118.3L201.0,121.4L201.0,121.7L201.3,121.7L201.5,121.7L201.6,121.6L202.3,121.6L202.5,121.6L202.5,121.6L208.2,120.0L209.7,118.7L218.1,117.6L222.2,120.9L230.6,122.1L232.0,121.6L231.6,117.3L235.0,113.0L239.0,114.8L243.9,119.4L247.6,122.0L252.1,120.6L254.8,121.2L261.8,125.3L266.7,125.5L271.6,124.2L276.9,120.2L284.2,120.7L284.4,120.9L285.0,121.2L288.0,121.7L291.4,118.7L292.2,111.7L293.5,109.8L292.5,104.7L296.3,102.5L305.2,102.3L309.4,107.0L315.3,115.2L321.2,115.4L326.6,120.7L330.6,119.2L334.3,114.9L336.0,116.1L336.7,124.1L336.3,129.5L331.7,131.7L333.5,140.6L332.5,142.7L332.4,142.9L332.5,143.2L333.0,143.7L333.1,143.8L333.2,143.6L340.1,139.6L344.6,134.1L348.4,119.4L349.2,109.6L349.1,105.6L346.4,99.1L345.3,94.3L345.7,92.6L342.2,88.7L342.8,87.1L337.0,85.0L335.7,89.1L332.7,90.4L329.9,86.8L326.0,87.6L328.4,80.6L329.2,75.4L331.1,70.3L330.9,67.4L333.0,61.4L337.3,58.7L338.6,59.1L342.3,55.6L343.8,55.3L343.8,52.7L346.2,52.2L349.2,53.9L352.3,49.6L350.2,36.7L352.6,33.0L354.3,31.9L355.4,34.1L358.1,36.0L358.5,34.8L358.1,28.3L355.8,25.5L357.7,24.0L359.7,27.1L363.5,47.5L362.9,49.4L363.8,55.3L367.0,60.7L382.0,74.6L381.5,67.0L380.5,65.8L379.0,58.7L379.2,54.6L380.4,52.5L377.4,50.6L376.2,46.8L365.7,34.4L365.2,32.6L368.0,28.5L369.2,29.6L369.4,23.8L371.3,22.4L374.0,22.5L372.6,20.0L370.8,12.4L371.1,9.0L369.8,4.2L371.6,3.1L372.2,0.2L370.6,0.0L333.8,0.0L333.9,1.0L329.8,4.4L329.4,7.2L325.9,7.6L320.1,5.8L316.3,10.1L311.9,10.8L311.3,11.9L308.4,11.1L308.2,9.5L305.0,10.4L302.2,13.1L298.0,12.8L295.7,15.3L297.8,18.0L297.0,20.3L291.5,22.5L288.5,21.2L288.6,26.6L286.2,25.8L282.7,22.6L281.0,17.8L275.6,17.5L274.4,21.1L268.2,21.2L267.9,19.8L261.7,21.1L262.0,24.6L258.5,19.5L256.7,21.8L252.9,22.5L254.8,20.9L260.6,13.7L257.3,8.2L252.3,9.0L253.1,7.5L249.1,4.6L246.9,6.3L244.7,11.1L233.7,11.5L227.6,14.2L228.9,15.8L219.8,16.7L219.2,22.1L220.5,24.7L219.1,30.0L217.3,30.7L217.7,27.6L220.1,25.3L215.1,20.4L210.8,22.4L212.6,25.8L209.3,23.4L211.8,17.0L206.3,21.3L206.1,25.3L204.5,26.5L203.1,30.8L205.7,31.5L207.5,33.7L204.7,37.9L205.9,32.7L202.3,32.8L200.9,36.4L197.9,38.8L192.4,39.4L197.3,35.7L202.8,25.8L204.8,20.5L208.7,16.4L205.6,13.5L200.2,17.7L196.8,19.5L194.7,28.0L192.7,29.9L192.2,26.8L189.5,21.1L187.1,18.6L185.7,18.6L184.5,21.5L180.6,21.7L182.1,19.7L179.2,19.5L175.3,18.0L176.6,15.5L173.9,14.6L164.6,13.0L161.8,14.5L160.6,13.9L161.1,9.9L164.7,10.5L165.7,8.1L163.8,4.9L163.2,6.8L154.8,13.1L155.4,11.5L151.7,9.1L147.0,10.9L143.1,5.8L140.6,10.4L140.1,4.3L145.9,0.0L132.0,0.0Z M148.2,0.0L148.8,4.2L151.8,7.1L156.5,5.8L158.3,1.7L148.2,0.0Z " data-iso="RUS" data-name="Russia" data-pop="140041247.0"/><path d="M34.8,116.6L34.1,116.7L27.8,113.3L27.4,119.7L24.8,120.3L22.7,118.9L19.2,119.5L17.0,115.9L14.8,117.8L13.0,119.9L13.8,121.5L11.4,137.6L10.2,140.8L9.9,153.6L7.0,165.1L8.3,171.2L7.4,180.0L7.9,181.7L7.8,188.8L7.7,189.1L11.9,186.0L22.3,197.2L24.8,197.0L28.5,195.0L32.7,195.5L41.9,199.8L42.8,200.2L43.3,200.3L54.4,202.4L54.8,202.4L60.2,192.1L60.2,191.5L59.8,191.7L52.4,185.5L51.2,177.3L51.1,177.2L50.5,176.5L51.0,176.1L51.0,175.7L50.9,175.3L49.7,174.1L49.8,173.6L49.7,173.1L50.5,166.7L51.5,163.4L50.0,157.7L50.6,153.5L50.6,153.0L48.4,151.3L48.3,150.7L46.9,147.0L46.4,146.4L45.8,146.1L39.6,130.6L37.3,120.4L35.2,117.3L34.8,116.6Z " data-iso="SAU" data-name="Saudi Arabia" data-pop="28686633.0"/><path d="M2.4,149.9L1.6,149.0L0.7,148.0L0.0,147.3L0.0,156.7L1.4,154.1L1.4,153.2L1.9,150.8L2.4,149.9Z " data-iso="SDN" data-name="Sudan" data-pop="30894000.0"/><path d="M11.5,237.9L12.3,237.2L17.0,233.9L17.1,233.4L19.6,226.1L19.5,226.0L13.3,222.7L12.2,222.8L8.0,220.3L4.3,219.9L2.4,218.5L0.7,212.1L0.3,210.9L0.0,211.1L0.0,225.3L4.4,231.0L5.8,232.7L10.2,237.0L11.5,237.9Z " data-iso="SOL" data-name="Somaliland" data-pop="3500000.0"/><path d="M19.6,226.1L17.1,233.4L17.0,233.9L12.3,237.2L11.5,237.9L10.3,238.3L3.8,240.6L0.0,242.2L0.0,256.3L7.0,253.1L10.7,250.3L17.6,243.5L22.7,239.3L25.2,234.9L27.3,227.3L20.1,226.3L19.6,226.1Z " data-iso="SOM" data-name="Somalia" data-pop="9832017.0"/><path d="M49.0,17.7L48.9,17.7L46.9,19.3L46.6,20.3L44.9,20.5L44.7,20.7L44.8,20.8L43.3,22.0L39.8,24.7L39.5,24.7L39.5,24.7L38.5,27.0L38.4,27.5L38.0,29.8L37.9,29.9L38.2,30.1L39.7,29.6L39.7,31.1L37.1,34.7L37.0,34.9L37.1,35.1L37.3,35.3L38.2,36.8L38.2,36.9L38.3,37.1L40.4,35.7L40.8,36.3L46.0,32.4L46.1,32.4L46.1,32.4L46.7,28.6L48.5,25.4L50.8,21.1L50.9,20.8L51.0,20.7L50.1,18.7L49.4,18.2L49.0,17.7L49.0,17.7Z " data-iso="SRB" data-name="Serbia" data-pop="7379339.0"/><path d="M65.2,18.8L65.7,16.7L64.5,12.8L63.8,9.0L63.8,8.7L63.7,8.6L61.3,7.8L60.5,7.5L58.9,5.9L58.5,6.0L58.5,6.0L57.8,6.1L57.5,6.3L56.2,7.6L56.1,7.9L56.2,7.9L56.5,12.5L57.7,12.4L61.3,15.6L62.0,19.7L62.1,19.7L62.8,19.3L63.7,19.4L64.2,19.2L65.0,19.1L65.2,19.0L65.2,18.8Z " data-iso="SVK" data-name="Slovakia" data-pop="5463046.0"/><path d="M49.4,9.7L50.1,8.7L50.7,8.3L50.6,7.8L50.4,7.6L49.7,7.2L49.0,5.9L47.5,2.1L47.5,2.0L47.3,2.0L46.5,1.6L45.2,2.9L43.6,4.1L43.3,4.0L43.2,3.9L44.0,8.8L49.4,9.5L49.4,9.8L49.4,9.7Z " data-iso="SVN" data-name="Slovenia" data-pop="2005692.0"/><path d="M56.7,105.3L51.8,101.7L48.4,100.2L46.5,96.6L44.1,95.6L42.7,93.1L38.5,94.3L38.2,94.4L37.2,95.2L37.0,96.1L35.3,98.1L34.8,99.1L35.6,99.8L34.9,102.2L31.2,103.2L31.0,103.2L30.7,103.4L30.2,104.4L29.9,104.5L28.9,105.4L28.7,105.6L28.9,105.9L29.2,108.8L29.8,109.8L36.4,110.8L37.4,111.0L38.5,111.2L48.6,109.9L52.6,105.8L56.4,105.9L56.5,105.8L56.7,105.3Z " data-iso="SYR" data-name="Syria" data-pop="20178485.0"/><path d="M243.1,289.0L240.5,281.1L243.1,278.6L245.9,277.5L252.9,277.8L253.0,277.8L253.2,277.7L254.5,274.8L253.9,270.8L251.1,266.1L251.3,265.1L247.7,260.7L245.2,260.3L244.0,261.5L239.6,261.3L235.6,264.1L236.5,257.7L235.2,254.9L232.9,254.7L231.7,252.0L231.8,251.7L231.3,251.5L227.1,252.7L226.7,253.8L223.3,253.7L220.0,258.9L225.1,268.7L224.4,272.5L222.8,273.3L224.2,277.0L226.1,278.9L226.8,284.1L228.4,288.2L224.6,292.6L224.2,294.8L223.5,296.2L221.9,302.1L224.3,303.8L231.3,304.7L229.4,299.6L226.9,299.0L226.3,294.3L227.8,292.0L230.2,285.9L230.3,282.1L234.5,281.4L243.0,289.0L243.1,289.0Z " data-iso="THA" data-name="Thailand" data-pop="65905410.0"/><path d="M140.0,145.8L139.4,145.4L139.5,145.6L140.0,145.8Z M126.5,153.0L126.5,153.1L135.3,153.3L137.8,151.7L137.9,159.9L145.0,159.1L149.2,161.7L149.2,161.7L149.3,161.7L150.7,156.7L147.7,154.7L148.4,151.1L148.4,150.9L148.3,150.8L143.7,150.3L142.1,147.8L135.3,145.3L136.0,143.4L141.4,144.5L141.5,144.4L141.3,144.3L141.2,140.5L136.8,140.8L134.7,142.4L128.9,143.8L130.0,147.1L126.8,152.7L126.5,153.0Z " data-iso="TJK" data-name="Tajikistan" data-pop="7349145.0"/><path d="M101.3,117.5L101.2,117.4L99.9,116.8L99.2,110.6L93.6,109.4L93.3,110.6L97.8,110.7L97.5,116.0L94.2,116.3L92.8,113.9L90.0,117.6L90.0,123.3L86.5,129.1L86.4,129.4L97.6,132.7L99.3,136.0L101.9,138.8L103.1,143.7L105.4,145.0L103.8,149.2L103.8,149.4L104.1,149.5L106.1,152.9L108.9,153.1L109.9,151.5L115.1,151.7L117.2,149.1L121.1,148.5L122.9,150.4L123.0,150.5L123.2,150.0L116.2,133.8L116.5,130.2L115.4,126.9L112.5,124.1L113.3,121.7L110.2,116.7L110.2,117.9L107.0,116.7L105.2,117.1L103.9,119.5L102.0,118.0L101.3,117.5Z " data-iso="TKM" data-name="Turkmenistan" data-pop="4884887.0"/><path d="M4.3,9.0L2.2,9.3L0.0,10.5L0.0,21.1L3.0,17.2L5.7,17.7L5.1,15.1L6.4,12.6L4.7,9.7L4.3,9.0Z " data-iso="TUN" data-name="Tunisia" data-pop="10486339.0"/><path d="M38.5,94.3L42.7,93.1L44.1,95.6L46.5,96.6L48.4,100.2L51.8,101.7L56.7,105.3L56.5,105.8L56.8,106.0L58.1,105.8L60.3,108.8L62.3,111.0L62.3,111.2L62.3,111.1L66.9,101.2L69.3,101.8L69.4,101.9L69.4,101.7L69.5,101.6L69.5,101.4L69.3,99.3L68.5,98.6L70.4,93.8L70.5,93.6L70.6,93.5L68.0,88.8L67.6,87.8L67.1,87.9L62.4,85.8L57.6,77.4L56.7,77.1L56.7,71.2L51.3,65.5L45.9,63.4L43.1,58.8L43.1,62.0L40.5,60.9L37.0,54.8L34.7,54.5L32.7,56.0L34.1,57.6L29.8,59.6L28.6,61.3L26.8,67.4L27.7,72.9L26.8,75.5L32.3,79.2L32.6,85.7L34.8,87.6L37.4,87.7L40.3,91.0L41.9,91.1L38.9,94.2L38.5,94.3Z M41.2,49.6L41.2,49.9L39.4,51.1L38.6,51.9L37.1,51.8L37.0,52.1L37.9,54.2L41.8,56.9L44.1,53.6L44.6,53.3L43.7,51.9L41.3,49.5L41.2,49.6Z " data-iso="TUR" data-name="Turkey" data-pop="76805524.0"/><path d="M317.0,236.6L319.1,227.7L317.2,224.9L314.4,228.8L313.0,234.9L314.1,237.0L317.0,236.6Z " data-iso="TWN" data-name="Taiwan" data-pop="22974347.0"/><path d="M87.6,32.0L87.4,31.6L83.2,30.3L80.8,22.9L76.3,15.4L76.2,15.4L76.0,15.7L72.0,19.1L71.7,18.5L65.5,19.8L65.3,19.1L65.2,19.0L65.0,19.1L64.2,19.2L63.7,19.4L62.8,19.3L62.1,19.7L62.2,20.0L61.7,20.7L61.7,21.2L61.0,22.7L61.0,22.8L61.1,22.8L62.2,26.2L62.3,28.5L66.3,31.1L66.4,31.2L66.6,31.2L68.5,33.6L68.4,38.0L65.0,43.4L57.9,43.2L57.7,43.2L57.5,43.8L57.4,44.3L58.4,45.6L59.1,47.5L59.4,47.3L65.4,46.2L66.6,48.0L67.7,53.1L63.9,53.8L62.3,59.7L66.0,61.9L67.9,61.9L69.2,64.0L70.3,62.5L68.5,60.2L71.9,56.9L79.1,61.4L79.2,61.4L82.8,60.2L86.2,61.2L88.2,58.2L90.7,57.3L89.5,51.9L88.7,51.9L88.0,40.4L91.1,35.5L87.6,32.1L87.6,32.0Z " data-iso="UKR" data-name="Ukraine" data-pop="45700395.0"/><path d="M326.9,-177.5L336.7,-175.6L344.3,-173.6L378.2,-162.4L384.7,-159.7L399.6,-153.3L416.0,-145.1L436.3,-133.5L440.7,-130.7L453.5,-120.3L451.5,-118.5L439.8,-117.7L426.4,-118.2L423.9,-118.0L417.4,-115.0L414.5,-121.0L410.5,-119.5L404.6,-126.3L395.2,-135.8L387.3,-142.9L376.3,-151.4L367.2,-157.7L354.7,-165.0L344.5,-170.2L332.2,-175.5L327.4,-176.0L326.9,-177.5Z M396.2,-89.1L399.2,-93.2L401.1,-93.3L398.5,-89.6L396.2,-89.1Z M403.2,-45.8L405.4,-45.9L407.7,-41.7L404.4,-42.6L403.2,-45.8Z M373.7,-16.9L376.3,-21.1L377.1,-19.2L375.0,-16.2L373.7,-16.9Z M342.0,-48.4L341.1,-52.1L343.0,-53.7L342.2,-56.5L342.8,-60.4L342.1,-68.8L346.2,-69.4L378.7,-72.0L385.5,-72.2L385.0,-75.9L388.8,-79.6L386.8,-81.5L383.3,-83.1L387.0,-88.5L390.4,-91.4L392.7,-94.6L392.6,-96.9L398.1,-97.1L399.2,-96.5L394.2,-93.7L392.3,-88.9L390.1,-89.0L387.4,-87.1L386.7,-84.7L388.9,-85.0L389.6,-83.3L386.9,-82.5L388.4,-81.0L390.0,-82.7L388.5,-67.1L385.4,-58.7L387.4,-57.4L390.1,-57.4L396.0,-51.1L393.7,-49.6L389.0,-51.3L387.6,-55.8L386.2,-53.1L388.4,-50.6L392.9,-48.1L395.6,-45.3L399.0,-45.4L402.0,-43.1L405.5,-38.0L407.5,-36.4L410.6,-31.4L413.7,-28.0L412.8,-27.8L413.5,-23.7L415.3,-21.8L413.4,-21.6L412.1,-26.4L410.5,-27.4L408.4,-31.3L398.4,-38.2L399.0,-34.7L401.0,-33.2L399.2,-32.6L398.7,-29.6L399.7,-27.5L397.5,-28.4L392.4,-28.7L393.5,-27.0L390.7,-23.4L388.6,-24.6L387.5,-23.6L383.2,-24.5L379.8,-27.3L377.2,-34.2L375.6,-35.9L372.0,-29.0L365.7,-25.7L362.3,-32.4L365.1,-36.3L364.0,-37.3L360.9,-36.6L363.4,-39.4L360.5,-37.6L359.9,-34.8L355.2,-33.0L351.1,-32.8L350.2,-36.9L344.2,-42.9L342.6,-43.5L340.2,-47.3L342.0,-48.4Z " data-iso="USA" data-name="United States" data-pop="307212123.0"/><path d="M141.7,146.2L141.2,145.0L141.3,145.6L141.7,146.2Z M101.3,117.5L102.0,118.0L103.9,119.5L105.2,117.1L107.0,116.7L110.2,117.9L110.2,116.7L113.3,121.7L112.5,124.1L115.4,126.9L116.5,130.2L116.2,133.8L123.2,150.0L123.0,150.5L124.0,150.8L124.7,151.3L125.7,152.2L126.6,152.8L126.5,153.0L126.8,152.7L130.0,147.1L128.9,143.8L134.7,142.4L136.8,140.8L141.2,140.5L141.3,144.3L141.5,144.4L141.6,144.4L143.9,145.6L149.0,144.5L144.0,141.0L143.8,137.2L144.9,136.0L144.8,136.0L144.5,136.1L137.8,137.3L135.3,138.9L130.8,135.2L131.0,131.1L130.1,130.6L130.1,122.0L122.3,118.9L121.4,114.4L117.7,105.1L110.3,103.2L101.9,116.6L101.3,117.5Z " data-iso="UZB" data-name="Uzbekistan" data-pop="27606007.0"/><path d="M240.3,243.1L240.5,243.5L243.6,246.2L243.3,248.3L249.4,250.0L249.5,251.6L251.8,253.4L247.6,256.7L252.6,259.2L252.8,260.7L262.4,270.4L261.5,271.4L263.1,275.6L263.1,276.1L263.2,276.3L262.7,286.5L258.1,289.1L256.4,289.1L255.6,292.1L249.7,294.5L250.1,294.9L251.8,297.1L251.4,301.4L257.5,298.8L255.9,296.3L259.4,296.8L269.9,290.2L271.6,283.2L270.9,279.4L268.7,273.0L264.2,268.8L254.7,257.9L259.4,250.2L259.0,249.3L264.1,246.8L264.3,246.7L259.2,244.8L259.3,241.4L251.3,240.1L247.6,242.5L240.5,243.0L240.3,243.1Z " data-iso="VNM" data-name="Vietnam" data-pop="86967524.0"/><path d="M27.0,106.0L23.9,107.5L24.2,109.2L24.3,109.3L24.5,109.0L25.3,108.5L25.9,107.6L26.8,106.8L27.2,106.2L27.0,106.0Z " data-iso="PSE" data-name="Palestine" data-pop="2514845.0"/><path d="M42.8,200.2L41.9,199.8L32.7,195.5L28.5,195.0L24.8,197.0L22.3,197.2L11.9,186.0L7.7,189.1L7.1,190.7L5.0,193.5L5.4,195.5L3.3,203.4L4.7,208.2L12.5,209.7L16.4,211.6L23.0,213.5L25.0,212.7L38.1,214.8L40.6,212.2L42.7,212.5L42.7,209.3L42.5,209.0L42.8,200.7L42.8,200.2Z " data-iso="YEM" data-name="Yemen" data-pop="23822783.0"/></g></svg>