<?xml version="1.0" encoding="UTF-8"?><!DOCTYPE svg  PUBLIC '-//W3C//DTD SVG 1.1//EN'  'http://www.w3.org/Graphics/SVG/1.1/DTD/svg11.dtd'><svg enable_background="new 0 0 450 301" height="301px" style="stroke-linejoin: round; stroke:#000; fill:#f6f3f0;" version="1.1" viewBox="0 0 450 301" width="450px" xmlns="http://www.w3.org/2000/svg" xmlns:xlink="http://www.w3.org/1999/xlink"><defs><style type="text/css"><![CDATA[path { fill-rule: evenodd; }
#context path { fill: #eee; stroke: #bbb; } ]]></style></defs><metadata><views><view h="301.0" padding="0.06" w="450"><proj id="laea" lat0="-25.1" lon0="134.4"/><bbox h="470.52" w="501.54" x="736.03" y="790.27"/><llbbox lat0="-90" lat1="90" lon0="-180" lon1="180"/></view></views></metadata><g id="context"><path d="M297,259L296,267L298,276L300,279L300,281L303,281L309,277L312,279L312,275L314,271L315,271L316,262L314,261L307,263L304,262L297,259Z M291,253L292,251L291,249L291,253Z M254,217L251,216L248,219L253,219L257,217L254,217Z M251,45L249,47L252,49L251,45Z M203,29L202,26L200,30L203,29Z M204,26L204,29L207,30L209,29L204,26Z M301,32L298,26L294,24L292,32L290,35L291,38L289,39L287,46L288,54L286,64L282,74L270,73L269,70L262,68L258,64L242,54L241,52L245,46L245,41L253,34L248,33L246,34L244,31L236,31L234,31L224,29L221,26L214,25L215,27L218,27L220,32L218,33L206,34L201,40L202,41L195,50L197,55L193,54L186,55L186,53L179,47L175,46L169,51L166,50L163,57L161,58L159,65L154,68L152,70L154,72L152,76L147,69L146,72L142,76L144,82L140,85L137,92L131,97L121,99L119,102L107,106L100,110L91,118L89,123L86,119L85,125L86,128L85,138L87,144L90,148L93,153L90,154L85,154L90,158L96,169L100,175L104,186L109,194L111,204L110,210L107,209L113,216L119,219L126,219L129,218L133,213L137,212L139,208L149,206L161,206L163,205L170,197L179,191L183,191L194,187L197,186L205,185L215,185L219,188L222,187L232,192L233,196L235,197L239,202L240,208L243,211L243,208L247,203L251,201L256,193L255,201L254,205L253,209L250,210L249,213L255,212L256,207L260,209L260,216L264,214L267,222L271,234L278,239L284,239L290,243L297,239L299,236L302,239L304,245L306,243L310,243L319,238L327,238L331,233L334,224L339,217L344,207L349,202L352,199L357,192L362,177L364,172L365,168L363,159L364,152L361,140L357,133L351,128L350,120L347,118L346,119L344,119L341,108L338,103L339,103L338,100L332,96L330,93L327,93L323,90L320,83L319,72L319,72L316,61L316,57L310,51L305,51L303,38L300,34L301,32Z " data-iso="AUS"/><path d="M145,26L148,23L144,24L145,26Z M121,15L114,17L114,19L118,19L125,22L124,17L121,15Z M159,9L158,10L157,11L157,11L156,11L155,12L155,13L153,13L152,13L149,18L156,19L160,14L161,14L161,11L161,10L159,9L159,9Z M95,12L95,10L93,9L90,14L95,14L95,12Z M151,4L147,5L147,6L151,4Z M156,3L155,6L161,5L156,3Z M143,8L144,5L139,8L136,7L126,6L120,8L119,10L133,10L134,11L143,8Z M107,9L105,7L104,9L105,12L96,12L96,15L101,15L108,11L109,13L114,11L111,8L107,9Z M85,10L78,10L82,13L84,15L87,12L85,10Z M260,0L264,3L268,0L260,0Z M73,3L73,1L65,2L64,4L73,3Z M22,2L12,3L8,11L14,11L17,14L32,15L36,13L42,13L48,15L64,14L69,13L79,15L75,7L66,8L62,3L51,2L50,1L44,5L42,6L32,6L31,4L24,3L22,2Z M285,9L285,9L285,0L278,0L278,3L281,5L284,9L285,9Z M269,0L268,2L277,1L278,0L269,0Z M0,4L1,2L3,3L6,1L10,3L10,0L0,0L0,4Z " data-iso="IDN"/><path d="M450,296L446,299L450,299L450,296Z " data-iso="NZL"/><path d="M316,0L316,1L325,4L326,7L331,12L336,19L344,22L349,23L358,27L358,23L353,21L355,19L349,17L348,13L346,13L342,9L341,5L335,0L316,0Z M286,10L295,10L297,11L303,7L299,4L306,3L305,2L308,0L285,0L285,9L285,9L286,10Z " data-iso="PNG"/><path d="M429,25L430,30L436,32L434,27L429,25Z M438,19L437,19L437,24L439,22L438,19Z M431,20L431,18L423,11L422,12L431,20Z M414,7L410,4L406,1L411,7L414,7Z " data-iso="SLB"/><path d="M154,12L153,13L155,13L155,12L156,11L154,12Z M159,9L161,10L161,11L161,14L162,13L176,5L175,3L173,4L163,6L160,8L159,9Z " data-iso="TLS"/></g><g fill="red" fill-opacity="0.35" id="regions"><path d="M337,219L338,219L338,219L338,219L338,219L337,219L337,219L337,219Z " data-fips="" data-fips-="" data-iso3="AUS" data-name="Jervis Bay Territory"/><path d="M252,45L251,45L249,48L252,49L251,47L252,45Z M202,27L201,27L200,30L204,30L202,27Z M203,26L202,26L204,29L207,30L209,29L211,26L208,25L203,26Z M192,54L193,78L194,114L195,138L195,141L197,141L217,140L231,140L257,141L259,141L259,138L259,127L260,94L261,67L260,66L253,62L250,60L247,58L241,54L241,53L245,48L246,40L250,40L252,35L253,34L251,33L250,31L248,31L248,33L244,33L245,31L240,32L237,32L231,30L230,29L227,29L222,26L214,25L214,25L220,28L220,31L216,33L210,33L204,35L201,38L202,41L198,43L195,51L198,54L194,55L192,54L192,54Z " data-fips="AS03" data-fips-="" data-iso3="AUS" data-name="Northern Territory"/><path d="M83,148L84,152L86,153L83,148Z M197,186L197,172L196,163L195,144L195,141L195,138L194,114L193,78L192,54L192,54L188,53L187,58L186,54L178,47L175,46L173,49L169,48L169,53L166,50L163,60L160,59L158,61L158,64L151,69L155,74L153,73L153,77L149,72L146,71L142,76L142,81L143,83L139,86L134,95L130,97L122,99L119,102L113,104L110,106L105,107L105,106L102,108L101,109L96,114L91,118L89,123L85,121L85,126L86,129L85,135L86,141L91,149L92,153L89,153L86,150L88,152L90,154L90,156L87,153L87,154L92,162L94,166L100,175L102,179L107,191L110,197L111,207L109,210L107,210L109,215L110,215L116,218L126,219L129,218L137,212L139,208L142,208L148,206L162,205L163,206L165,201L166,198L176,193L179,191L186,191L195,187L197,186L197,186Z " data-fips="AS08" data-fips-="" data-iso3="AUS" data-name="Western Australia"/><path d="M329,219L328,218L326,223L326,224L329,219Z " data-fips="AS01" data-fips-="" data-iso3="AUS" data-name="Australian Capital Territory"/><path d="M279,165L279,167L278,185L277,187L277,202L276,204L277,205L283,205L285,207L286,211L290,211L291,214L296,218L298,222L301,221L304,221L307,222L314,224L314,224L314,224L314,224L314,223L315,223L315,223L315,223L320,225L320,230L330,237L330,237L331,232L332,230L334,223L337,219L337,219L337,219L338,219L338,219L338,219L340,213L343,207L344,207L348,202L350,202L354,196L356,194L358,188L362,176L364,173L365,167L365,167L359,168L357,167L354,169L354,171L351,171L349,173L342,167L338,167L332,169L305,167L282,165L279,165Z M328,218L329,219L326,224L326,223L328,218Z " data-fips="AS02" data-fips-="" data-iso3="AUS" data-name="New South Wales"/><path d="M254,216L247,217L250,219L255,218L254,216Z M279,165L279,162L279,150L275,141L261,141L259,141L257,141L231,140L217,140L197,141L195,141L195,144L196,163L197,172L197,186L198,186L204,185L210,185L213,184L219,188L221,187L225,189L229,188L233,192L232,195L233,197L235,196L236,200L240,205L240,208L239,207L242,210L244,209L246,204L251,201L256,193L257,196L256,199L254,204L253,210L250,211L251,213L255,212L257,205L258,215L257,216L264,215L267,221L267,226L267,229L272,235L274,236L274,236L275,228L275,216L276,204L276,204L277,202L277,187L278,185L279,167L279,165Z " data-fips="AS05" data-fips-="" data-iso3="AUS" data-name="South Australia"/><path d="M276,204L276,204L275,216L275,228L274,236L274,236L283,239L289,243L293,240L297,239L297,237L302,239L302,243L304,245L305,244L307,247L307,244L311,243L316,239L320,238L327,238L330,237L330,237L320,230L320,225L315,223L315,223L315,223L314,223L314,224L314,224L314,224L314,224L307,222L304,221L301,221L298,222L296,218L291,214L290,211L286,211L285,207L283,205L277,205L276,204Z " data-fips="AS07" data-fips-="" data-iso3="AUS" data-name="Victoria"/><path d="M367,140L365,144L365,145L367,140Z M273,66L269,67L269,68L273,66Z M261,67L260,94L259,127L259,138L259,141L261,141L275,141L279,150L279,162L279,165L282,165L305,167L332,169L338,167L342,167L349,173L351,171L354,171L354,169L357,167L359,168L365,167L365,167L365,164L363,159L365,149L363,143L362,143L361,139L360,139L357,133L356,133L351,128L351,120L350,121L347,118L344,118L342,111L341,107L338,100L333,97L332,96L327,91L326,92L321,88L322,86L320,82L320,72L318,71L316,58L316,57L312,53L310,50L306,53L303,47L304,39L300,35L302,32L299,31L299,28L296,24L297,23L293,24L293,27L292,31L292,32L290,34L290,36L291,38L289,40L289,43L288,47L288,49L288,51L285,68L281,75L275,75L269,73L269,71L261,67L261,67Z " data-fips="AS04" data-fips-="" data-iso3="AUS" data-name="Queensland"/><path d="M295,258L297,270L297,273L298,276L302,279L300,279L305,282L306,279L311,277L315,270L316,262L315,260L304,263L300,260L295,258Z M315,252L315,255L317,256L315,252Z " data-fips="AS06" data-fips-="" data-iso3="AUS" data-name="Tasmania"/></g></svg>