<?xml version="1.0" encoding="UTF-8"?><!DOCTYPE svg  PUBLIC '-//W3C//DTD SVG 1.1//EN'  'http://www.w3.org/Graphics/SVG/1.1/DTD/svg11.dtd'><svg enable_background="new 0 0 450 301" height="301px" style="stroke-linejoin: round; stroke:#000; fill:#f6f3f0;" version="1.1" viewBox="0 0 450 301" width="450px" xmlns="http://www.w3.org/2000/svg" xmlns:xlink="http://www.w3.org/1999/xlink"><defs><style type="text/css"><![CDATA[path { fill-rule: evenodd; }
#context path { fill: #eee; stroke: #bbb; } ]]></style></defs><metadata><views><view h="301.0" padding="0.06" w="450"><proj id="laea" lat0="47.2179708927" lon0="9.87286318265"/><bbox h="40.21" w="70.46" x="993.28" y="972.73"/><llbbox lat0="-90" lat1="90" lon0="-180" lon1="180"/></view></views></metadata><g id="context"><path d="M410,68L407,62L398,60L392,57L385,56L380,61L372,62L364,61L351,54L345,54L339,53L329,48L324,47L316,50L311,46L307,46L306,47L306,60L305,64L300,64L294,73L294,79L283,77L280,78L277,81L268,82L260,80L257,73L249,68L248,68L247,70L247,79L247,82L241,88L231,83L230,85L228,98L224,103L211,108L202,114L198,118L195,122L195,125L206,139L206,146L203,152L211,154L212,157L210,171L208,172L199,167L198,162L197,159L192,157L182,160L175,156L166,155L167,160L166,162L141,165L133,168L128,172L124,173L123,175L119,178L105,181L102,181L96,173L96,171L89,171L85,169L75,170L66,188L63,190L60,190L60,184L53,181L52,175L48,173L41,169L36,167L31,171L26,170L24,171L26,172L30,176L29,182L24,191L25,192L26,198L27,200L28,206L27,208L29,208L36,209L41,212L43,217L50,221L57,224L59,223L69,214L72,215L74,220L74,223L76,224L87,224L91,228L95,230L100,230L103,230L105,228L107,223L111,217L117,214L127,213L132,212L145,212L156,208L166,204L166,208L164,212L166,216L172,223L179,234L184,236L190,237L196,237L202,239L221,242L231,243L239,243L250,245L253,246L258,246L272,249L297,252L299,249L308,244L312,237L315,235L320,233L332,231L344,231L349,229L354,225L361,223L372,225L372,215L375,212L378,210L386,201L390,198L396,197L397,188L394,186L393,180L395,176L393,169L393,166L397,165L402,162L404,154L402,149L391,146L390,145L396,138L401,139L407,142L409,143L424,139L421,129L423,124L423,119L426,115L422,113L421,110L415,101L408,87L408,82L411,73L411,70L411,70L410,68Z " data-iso="AUT"/><path d="M74,223L74,220L72,215L69,214L59,223L57,224L50,221L43,217L41,212L36,209L29,208L27,208L23,207L22,207L22,205L22,199L24,191L29,182L30,176L26,172L24,171L15,165L6,159L3,159L0,160L0,282L6,274L9,268L10,254L12,252L19,253L22,264L24,267L30,268L38,264L44,262L47,263L52,272L57,272L56,263L54,258L52,256L52,253L55,244L60,242L65,247L70,248L73,248L74,242L71,239L72,233L74,223Z " data-iso="CHE"/><path d="M248,68L249,68L257,73L260,80L268,82L277,81L280,78L283,77L294,79L294,73L300,64L305,64L306,60L306,47L307,46L311,46L316,50L324,47L329,48L339,53L345,54L351,54L364,61L372,62L380,61L385,56L392,57L398,60L407,62L410,68L411,70L412,63L416,55L419,50L422,48L427,49L437,49L444,47L450,43L450,0L175,0L180,7L184,16L194,26L199,26L205,31L211,39L216,42L219,43L222,46L228,54L233,53L240,60L245,64L248,68Z " data-iso="CZE"/><path d="M24,171L26,170L31,171L36,167L41,169L48,173L52,175L53,181L60,184L60,190L63,190L66,188L75,170L85,169L89,171L96,171L96,173L102,181L105,181L119,178L123,175L124,173L128,172L133,168L141,165L166,162L167,160L166,155L175,156L182,160L192,157L197,159L198,162L199,167L208,172L210,171L212,157L211,154L203,152L206,146L206,139L195,125L195,122L198,118L202,114L211,108L224,103L228,98L230,85L231,83L241,88L247,82L247,79L247,70L248,68L245,64L240,60L233,53L228,54L222,46L219,43L216,42L211,39L205,31L199,26L194,26L184,16L180,7L175,0L0,0L0,160L3,159L6,159L15,165L24,171Z " data-iso="DEU"/><path d="M403,237L398,235L392,235L388,239L389,246L388,248L381,248L379,249L376,254L373,257L361,263L357,264L355,271L360,276L360,281L358,293L349,296L345,299L450,299L450,273L445,266L440,262L433,259L427,254L423,247L416,242L406,237L403,237Z " data-iso="HRV"/><path d="M426,115L423,119L423,124L421,129L424,139L409,143L407,142L401,139L396,138L390,145L391,146L402,149L404,154L402,162L397,165L393,166L393,169L395,176L393,180L394,186L397,188L396,197L390,198L386,201L378,210L388,210L392,220L395,226L402,235L403,237L406,237L416,242L423,247L427,254L433,259L440,262L445,266L450,273L450,126L444,123L435,116L427,115L426,115Z " data-iso="HUN"/><path d="M250,245L239,243L231,243L221,242L202,239L196,237L190,237L184,236L179,234L172,223L166,216L164,212L166,208L166,204L156,208L145,212L132,212L127,213L117,214L111,217L107,223L105,228L103,230L100,230L95,230L91,228L87,224L76,224L74,223L72,233L71,239L74,242L73,248L70,248L65,247L60,242L55,244L52,253L52,256L54,258L56,263L57,272L52,272L47,263L44,262L38,264L30,268L24,267L22,264L19,253L12,252L10,254L9,268L6,274L0,282L0,299L246,299L248,289L247,288L242,289L241,284L244,279L248,272L238,269L236,270L234,266L235,262L239,258L250,250L250,245Z " data-iso="ITA"/><path d="M28,206L27,200L26,198L25,192L24,191L22,199L22,205L22,207L23,207L27,208L28,206Z " data-iso="LIE"/><path d="M411,70L411,70L411,73L408,82L408,87L415,101L421,110L422,113L426,115L427,115L435,116L444,123L450,126L450,43L444,47L437,49L427,49L422,48L419,50L416,55L412,63L411,70Z " data-iso="SVK"/><path d="M403,237L402,235L395,226L392,220L388,210L378,210L375,212L372,215L372,225L361,223L354,225L349,229L344,231L332,231L320,233L315,235L312,237L308,244L299,249L297,252L272,249L258,246L253,246L250,245L250,250L239,258L235,262L234,266L236,270L238,269L248,272L244,279L241,284L242,289L247,288L248,289L246,299L345,299L349,296L358,293L360,281L360,276L355,271L357,264L361,263L373,257L376,254L379,249L381,248L388,248L389,246L388,239L392,235L398,235L403,237Z " data-iso="SVN"/></g><g fill="red" fill-opacity="0.35" id="regions"><path d="M57,224L54,218L56,216L57,209L61,200L61,197L59,191L58,191L61,184L60,182L54,184L54,178L51,174L49,175L47,170L44,170L40,170L39,166L32,171L29,171L26,170L28,174L30,175L31,180L28,184L28,187L26,189L25,192L25,193L26,199L27,200L29,206L27,208L32,208L43,213L42,217L44,219L50,221L56,224L57,224Z " data-fips="AU08" data-fips-="" data-iso3="AUT" data-name="Vorarlberg"/><path d="M421,107L417,108L416,113L411,111L404,116L402,119L396,125L389,125L387,127L384,136L382,136L383,141L388,147L385,153L386,159L383,162L380,164L377,164L374,168L371,170L376,186L376,191L377,193L379,196L375,204L373,205L374,212L375,212L383,204L387,198L398,197L395,195L397,194L397,189L398,186L397,186L395,187L394,183L392,182L395,176L393,169L392,166L395,167L401,163L403,161L403,151L400,147L398,148L395,147L393,147L389,146L391,143L392,144L397,138L413,142L415,142L423,140L422,130L420,128L423,123L423,121L426,115L422,113L421,108L421,107Z " data-fips="AU01" data-fips-="" data-iso3="AUT" data-name="Burgenland"/><path d="M298,144L295,147L288,150L280,156L275,156L272,154L267,156L262,152L259,152L252,150L247,153L245,156L246,161L248,163L248,167L245,170L240,169L240,171L240,175L242,181L246,186L253,184L256,189L261,195L258,200L258,201L255,208L253,211L255,212L258,213L264,209L266,205L272,202L277,202L279,203L298,203L304,202L310,201L312,202L319,210L319,214L321,225L322,227L326,231L331,231L341,230L345,232L349,227L354,225L355,224L364,222L375,223L372,218L372,213L374,212L373,205L375,204L379,196L377,193L376,191L376,186L371,170L374,168L377,164L375,163L373,159L372,159L369,158L364,158L363,155L359,153L358,150L355,151L354,149L353,146L346,143L343,143L336,139L326,138L324,142L317,144L315,144L309,147L306,145L300,145L298,144Z " data-fips="AU06" data-fips-="" data-iso3="AUT" data-name="Steiermark"/><path d="M191,201L191,202L192,204L197,205L208,228L206,227L197,229L196,233L194,237L195,237L200,238L203,240L216,241L220,241L227,244L233,242L238,242L240,244L242,243L249,245L255,246L261,245L267,247L271,248L274,250L287,250L289,249L290,251L297,254L304,247L304,246L309,243L313,235L319,235L320,232L323,231L326,231L322,227L321,225L319,214L319,210L312,202L310,201L304,202L298,203L279,203L277,202L272,202L266,205L264,209L258,213L255,212L253,211L251,209L247,205L241,204L229,202L225,202L224,203L218,206L214,207L211,206L206,203L192,200L191,201Z " data-fips="AU02" data-fips-="" data-iso3="AUT" data-name="Kärnten"/><path d="M200,132L210,128L213,130L215,131L220,131L224,129L227,132L223,133L223,141L225,143L235,145L232,148L237,151L235,157L235,163L237,168L240,169L245,170L248,167L248,163L246,161L245,156L247,153L252,150L259,152L262,152L267,156L272,154L275,156L280,156L288,150L295,147L298,144L299,142L300,136L300,133L293,129L284,123L284,121L285,116L284,114L287,107L289,107L295,111L303,109L308,106L310,107L310,99L308,93L307,91L305,89L305,86L306,86L304,83L295,81L294,80L293,80L289,77L285,78L282,76L279,80L275,83L269,81L262,81L258,78L259,75L250,68L246,71L248,74L248,80L244,85L243,87L239,84L233,83L230,84L230,89L229,92L228,100L221,105L214,107L208,110L204,114L201,115L194,123L195,126L199,129L200,131L200,132Z " data-fips="AU04" data-fips-="" data-iso3="AUT" data-name="Oberösterreich"/><path d="M200,132L204,136L206,140L203,152L204,153L212,156L213,157L211,170L210,172L206,172L201,167L197,166L198,162L199,161L196,158L192,156L188,158L186,159L192,172L187,179L183,180L182,183L179,185L175,184L166,188L162,189L161,195L162,198L164,201L164,204L167,204L168,204L168,205L174,202L177,199L189,199L191,201L192,200L206,203L211,206L214,207L218,206L224,203L225,202L229,202L241,204L247,205L251,209L253,211L255,208L258,201L258,200L261,195L256,189L253,184L246,186L242,181L240,175L240,171L240,169L237,168L235,163L235,157L237,151L232,148L235,145L225,143L223,141L223,133L227,132L224,129L220,131L215,131L213,130L210,128L200,132L200,132Z " data-fips="AU05" data-fips-="" data-iso3="AUT" data-name="Salzburg"/><path d="M168,206L167,208L164,210L165,217L164,218L172,223L172,227L177,230L178,233L182,235L185,236L188,237L194,237L194,237L196,233L197,229L206,227L208,228L197,205L192,204L191,202L191,201L189,199L177,199L174,202L168,205L168,206Z " data-fips="AU07" data-fips-="AU05" data-iso3="AUT" data-name="Osttirol"/><path d="M59,191L61,197L61,200L57,209L56,216L54,218L57,224L57,224L61,223L62,218L66,218L68,214L70,213L75,219L74,221L76,224L78,225L85,223L90,226L96,230L104,230L106,227L108,223L109,219L117,213L120,213L126,214L129,211L131,212L136,211L139,212L142,213L148,212L154,208L158,208L163,205L164,204L164,201L162,198L161,195L162,189L166,188L175,184L179,185L182,183L183,180L187,179L192,172L186,159L185,160L181,160L177,156L171,156L168,156L167,153L165,156L167,158L167,161L165,163L153,163L148,164L146,166L137,165L132,171L125,172L122,175L124,176L119,177L117,180L112,178L109,181L101,181L101,178L98,175L95,174L97,171L95,170L90,171L89,170L82,168L78,171L75,170L72,167L73,170L72,173L73,174L73,179L67,188L63,190L59,191Z " data-fips="AU07" data-fips-="" data-iso3="AUT" data-name="Tirol"/><path d="M294,80L295,81L304,83L306,86L305,86L305,89L307,91L308,93L310,99L310,107L308,106L303,109L295,111L289,107L287,107L284,114L285,116L284,121L284,123L293,129L300,133L300,136L299,142L298,144L300,145L306,145L309,147L315,144L317,144L324,142L326,138L336,139L343,143L346,143L353,146L354,149L355,151L358,150L359,153L363,155L364,158L369,158L372,159L373,159L375,163L377,164L380,164L383,162L386,159L385,153L388,147L383,141L382,136L384,136L387,127L389,125L396,125L402,119L404,116L411,111L416,113L417,108L421,107L420,106L416,104L414,95L411,92L411,90L408,86L408,82L411,74L412,73L409,67L408,62L402,61L395,58L394,57L387,55L383,57L381,61L379,62L370,61L365,62L363,61L351,54L344,55L340,53L335,51L333,49L323,47L320,49L315,50L315,46L311,46L306,48L307,53L306,63L306,65L299,64L298,68L294,73L294,79L294,80Z M379,99L385,93L387,94L389,96L393,99L393,101L395,106L388,107L386,108L375,106L375,99L376,100L379,99Z " data-fips="AU03" data-fips-="" data-iso3="AUT" data-name="Niederösterreich"/><path d="M389,96L387,94L385,93L379,99L376,100L375,99L375,106L386,108L388,107L395,106L393,101L393,99L389,96Z " data-fips="AU09" data-fips-="" data-iso3="AUT" data-name="Wien"/></g></svg>