<?xml version="1.0" encoding="UTF-8"?><!DOCTYPE svg  PUBLIC '-//W3C//DTD SVG 1.1//EN'  'http://www.w3.org/Graphics/SVG/1.1/DTD/svg11.dtd'><svg enable_background="new 0 0 450 301" height="301px" style="stroke-linejoin: round; stroke:#000; fill:#f6f3f0;" version="1.1" viewBox="0 0 450 301" width="450px" xmlns="http://www.w3.org/2000/svg" xmlns:xlink="http://www.w3.org/1999/xlink"><defs><style type="text/css"><![CDATA[path { fill-rule: evenodd; }
#context path { fill: #eee; stroke: #bbb; } ]]></style></defs><metadata><views><view h="301.0" padding="0.06" w="450"><proj id="laea" lat0="41.0529079249" lon0="44.9952043031"/><bbox h="49.16" w="61.64" x="994.6" y="986.24"/><llbbox lat0="-90" lat1="90" lon0="-180" lon1="180"/></view></views></metadata><g id="context"><path d="M102,116L103,114L98,114L98,117L102,116Z M57,185L63,184L72,180L79,189L79,194L81,195L85,193L91,198L97,201L106,196L114,195L116,197L117,201L115,209L117,211L124,216L127,219L126,224L134,241L136,247L139,247L148,244L158,244L157,237L157,232L157,229L152,225L153,222L161,222L163,220L158,215L151,208L151,205L156,201L156,195L147,191L140,193L125,179L120,177L116,171L109,166L104,164L107,162L120,162L122,161L126,149L126,145L113,138L103,131L97,123L92,115L93,110L104,102L100,95L96,92L94,89L92,87L86,87L77,82L75,80L81,78L79,75L75,73L72,69L71,66L69,67L60,68L62,72L46,72L41,73L27,71L19,74L9,75L0,78L0,156L10,161L13,161L23,160L30,160L36,163L45,171L55,182L57,185Z M69,86L70,81L72,82L71,87L69,86Z " data-iso="ARM"/><path d="M57,185L58,186L60,189L61,191L71,206L75,211L79,219L82,222L86,223L99,237L104,240L125,244L136,247L134,241L126,224L127,219L124,216L117,211L115,209L117,201L116,197L114,195L106,196L97,201L91,198L85,193L81,195L79,194L79,189L72,180L63,184L57,185Z M72,82L70,81L69,86L71,87L72,82Z M151,20L149,23L146,28L144,30L138,32L137,35L138,41L141,42L144,49L149,53L156,57L162,61L165,65L163,75L157,80L153,82L143,76L137,72L129,75L123,73L115,71L110,66L111,62L94,56L86,54L83,56L71,66L72,69L75,73L79,75L81,78L75,80L77,82L86,87L92,87L94,89L96,92L100,95L104,102L93,110L92,115L97,123L103,131L113,138L126,145L126,149L122,161L120,162L107,162L104,164L109,166L116,171L120,177L125,179L140,193L147,191L156,195L156,201L151,205L151,208L158,215L163,220L161,222L153,222L152,225L157,229L157,232L157,237L158,244L161,244L175,230L179,226L186,223L191,217L198,211L214,198L220,195L231,187L238,184L244,184L253,192L261,201L263,204L260,208L253,211L252,214L253,222L261,227L262,230L260,236L249,240L246,246L247,248L258,255L262,261L265,263L269,264L271,265L282,278L285,279L296,275L298,275L296,247L296,245L300,236L301,227L304,222L310,226L311,232L315,227L319,210L324,205L324,202L321,194L321,186L325,168L328,150L331,141L338,137L345,134L352,131L365,130L378,132L374,123L362,114L355,111L343,111L339,110L330,102L324,96L310,80L307,73L304,66L302,60L299,54L285,36L276,24L270,20L261,39L256,43L247,48L243,50L238,60L232,69L228,70L213,68L201,65L198,62L195,52L191,47L183,42L182,40L173,31L169,26L165,24L157,26L157,22L151,20Z M98,117L98,114L103,114L102,116L98,117Z " data-iso="AZE"/><path d="M71,66L83,56L86,54L94,56L111,62L110,66L115,71L123,73L129,75L137,72L143,76L153,82L157,80L163,75L165,65L162,61L156,57L149,53L144,49L141,42L138,41L137,35L138,32L144,30L146,28L149,23L151,20L150,19L141,15L138,13L129,12L124,10L118,4L110,0L0,0L0,78L9,75L19,74L27,71L41,73L46,72L62,72L60,68L69,67L71,66Z " data-iso="GEO"/><path d="M298,275L296,275L285,279L282,278L271,265L269,264L265,263L262,261L258,255L247,248L246,246L249,240L260,236L262,230L261,227L253,222L252,214L253,211L260,208L263,204L261,201L253,192L244,184L238,184L231,187L220,195L214,198L198,211L191,217L186,223L179,226L175,230L161,244L158,244L148,244L139,247L136,247L125,244L104,240L99,237L86,223L82,222L79,219L75,211L71,206L61,191L60,189L58,189L47,180L43,183L39,188L35,206L32,208L20,207L14,209L17,218L17,221L23,227L23,229L21,238L22,243L26,248L28,250L27,260L29,271L29,281L34,285L37,286L38,289L34,294L33,299L301,299L301,297L298,278L298,275Z " data-iso="IRN"/><path d="M151,20L157,22L157,26L165,24L169,26L173,31L182,40L183,42L191,47L195,52L198,62L201,65L213,68L228,70L232,69L238,60L243,50L247,48L256,43L261,39L270,20L265,16L262,15L259,12L253,0L110,0L118,4L124,10L129,12L138,13L141,15L150,19L151,20Z " data-iso="RUS"/><path d="M60,189L58,186L57,185L55,182L45,171L36,163L30,160L23,160L13,161L10,161L0,156L0,299L33,299L34,294L38,289L37,286L34,285L29,281L29,271L27,260L28,250L26,248L22,243L21,238L23,229L23,227L17,221L17,218L14,209L20,207L32,208L35,206L39,188L43,183L47,180L58,189L60,189Z " data-iso="TUR"/></g><g fill="red" fill-opacity="0.35" id="regions"><path d="M72,86L72,82L69,82L69,84L72,86Z " data-fips="AJ40" data-fips-="" data-iso3="AZE" data-name="Qazax"/><path d="M76,61L76,62L86,68L93,69L93,72L91,79L92,87L93,86L94,86L95,91L96,91L98,86L104,84L104,81L103,77L104,75L108,75L114,70L113,69L111,67L111,62L108,61L99,58L86,54L85,54L76,61Z " data-fips="AJ05" data-fips-="" data-iso3="AZE" data-name="Agstafa"/><path d="M132,114L129,112L127,114L125,118L123,121L119,123L118,128L120,132L118,140L120,143L121,143L122,143L122,140L125,139L133,140L137,139L138,135L141,132L141,130L137,127L135,125L139,119L134,115L132,114Z " data-fips="AJ16" data-fips-="" data-iso3="AZE" data-name="Dask?s?n"/><path d="M112,101L111,104L111,114L109,118L105,115L105,113L99,110L98,106L96,108L93,109L92,112L97,124L98,125L101,130L104,133L117,140L118,140L120,132L118,128L119,123L123,121L122,120L123,115L121,113L117,109L113,102L112,101Z M101,113L103,114L101,117L98,117L98,114L101,113Z " data-fips="AJ19" data-fips-="" data-iso3="AZE" data-name="G?d?b?y"/><path d="M148,108L146,108L144,108L143,110L146,114L148,110L148,108Z " data-fips="AJ20" data-fips-="" data-iso3="AZE" data-name="G?nc?"/><path d="M145,103L143,100L142,101L141,104L140,111L134,112L132,114L134,115L139,119L135,125L137,127L141,130L141,132L138,135L137,139L141,141L146,141L146,136L150,129L156,121L156,114L154,111L151,112L148,110L146,114L143,110L144,108L146,108L145,103Z " data-fips="AJ20" data-fips-="" data-iso3="AZE" data-name="Xanlar"/><path d="M182,125L182,121L179,121L178,115L177,113L175,113L173,114L172,113L175,108L170,106L169,104L170,101L170,92L170,89L168,92L166,95L159,102L155,107L154,111L156,114L156,121L150,129L146,136L146,141L153,142L158,138L160,136L169,131L173,131L179,127L180,126L182,125Z " data-fips="AJ21" data-fips-="" data-iso3="AZE" data-name="Goranboy"/><path d="M122,143L125,144L127,146L125,154L121,162L117,162L107,161L104,163L106,166L112,166L115,168L120,177L122,178L127,173L129,169L132,172L140,170L152,166L154,165L156,164L157,163L161,165L166,161L168,160L170,159L172,159L171,158L168,153L165,151L161,150L159,152L157,145L157,142L158,140L158,138L153,142L146,141L141,141L137,139L133,140L125,139L122,140L122,143L122,143Z " data-fips="AJ26" data-fips-="" data-iso3="AZE" data-name="K?lb?c?r"/><path d="M182,103L180,104L183,107L187,105L185,103L182,103Z " data-fips="AJ33" data-fips-="" data-iso3="AZE" data-name="Ming?evir"/><path d="M71,66L73,70L72,72L78,74L82,78L80,80L74,82L77,83L77,82L83,87L90,88L92,87L91,79L93,72L93,69L86,68L76,62L76,61L71,66Z " data-fips="AJ40" data-fips-="" data-iso3="AZE" data-name="Qazax"/><path d="M142,97L145,88L145,86L141,80L139,77L137,80L133,86L130,87L121,87L120,91L114,96L112,98L112,101L113,102L117,109L121,113L123,115L122,120L123,121L125,118L127,114L129,112L132,114L134,112L140,111L141,104L142,101L143,100L142,97Z " data-fips="AJ51" data-fips-="" data-iso3="AZE" data-name="S?mkir"/><path d="M132,73L132,73L132,74L136,75L139,77L141,80L145,86L145,88L142,97L143,100L145,103L146,108L148,108L148,110L151,112L154,111L155,107L159,102L166,95L168,92L170,89L170,87L169,81L166,80L164,80L162,79L161,80L158,80L156,83L154,84L146,78L139,72L133,73L132,73Z " data-fips="AJ52" data-fips-="" data-iso3="AZE" data-name="Samux"/><path d="M114,70L108,75L104,75L103,77L104,81L104,84L98,86L96,91L96,92L105,98L105,100L102,104L98,106L99,110L105,113L105,115L109,118L111,114L111,104L112,101L112,98L114,96L120,91L121,87L130,87L133,86L137,80L139,77L136,75L132,74L132,73L132,73L131,74L125,75L117,72L114,70Z " data-fips="AJ58" data-fips-="" data-iso3="AZE" data-name="Tovuz"/><path d="M175,91L170,89L170,92L170,101L169,104L170,106L175,108L172,113L173,114L175,113L177,113L178,115L179,121L182,121L182,125L180,126L181,127L181,128L182,129L183,130L186,126L193,125L195,120L196,119L197,119L197,118L198,115L197,113L199,105L199,102L195,100L190,98L185,96L180,93L175,91Z M182,103L185,103L187,105L183,107L180,104L182,103Z " data-fips="AJ67" data-fips-="" data-iso3="AZE" data-name="Yevlax"/><path d="M391,127L389,127L389,129L392,129L391,127Z M375,117L375,119L377,122L377,118L375,117Z M339,112L339,112L338,113L338,114L339,115L343,114L349,116L348,118L341,121L336,120L339,126L335,128L332,121L330,121L327,124L325,125L323,126L324,134L324,139L322,143L321,147L320,148L320,153L318,158L318,160L319,162L320,165L322,169L322,171L321,174L321,177L322,179L322,182L324,180L326,177L324,173L325,171L325,168L326,167L326,159L328,157L326,150L329,149L328,145L332,140L348,131L347,130L352,128L353,128L364,127L372,129L375,131L379,137L378,132L377,126L374,122L372,121L368,116L363,115L361,114L358,111L352,111L345,113L340,112L339,112Z " data-fips="AJ01" data-fips-="AJ|" data-iso3="AZE" data-name="Baki"/><path d="M335,115L332,115L328,110L326,108L325,110L322,117L318,119L314,119L313,121L308,125L306,125L303,129L301,130L296,136L293,134L291,133L292,136L300,145L302,146L310,146L311,148L316,159L318,160L318,158L320,153L320,148L321,147L322,143L324,139L324,134L323,126L325,125L327,124L330,121L332,121L335,128L339,126L336,120L341,121L348,118L349,116L343,114L339,115L338,114L335,115Z " data-fips="AJ01" data-fips-="AJ|" data-iso3="AZE" data-name="Abseron"/><path d="M189,149L186,145L184,146L181,145L181,147L175,150L174,153L172,157L172,159L170,159L168,160L170,162L173,161L175,163L177,166L181,169L179,175L178,177L180,176L182,175L184,171L186,170L192,173L195,174L198,171L200,172L201,172L202,169L201,166L196,168L191,167L190,163L191,160L191,158L195,156L193,154L194,153L196,151L198,148L194,148L190,149L189,149Z " data-fips="AJ03" data-fips-="AJ|" data-iso3="AZE" data-name="Agdam"/><path d="M212,104L208,103L205,103L202,102L199,102L199,105L197,113L198,115L197,118L197,119L197,119L201,121L201,124L205,127L203,130L206,134L210,138L210,138L212,137L213,135L214,133L215,131L214,130L212,129L212,122L216,120L218,121L218,119L219,116L219,114L218,113L216,112L215,110L215,107L214,104L212,104Z " data-fips="AJ04" data-fips-="AJ|" data-iso3="AZE" data-name="Agdas"/><path d="M271,132L272,127L279,122L268,118L266,116L267,113L270,110L271,105L268,100L267,99L266,103L265,106L251,116L249,120L248,120L247,123L247,126L248,127L252,129L256,126L258,126L260,127L261,133L264,134L266,136L268,138L268,136L269,134L271,132Z " data-fips="AJ06" data-fips-="AJ|" data-iso3="AZE" data-name="Agsu"/><path d="M288,134L285,132L284,135L281,138L274,135L272,134L269,134L268,136L268,138L269,140L269,142L269,145L269,148L274,148L281,151L286,157L291,158L293,159L296,163L296,164L296,165L296,165L301,164L305,166L316,166L320,169L322,171L322,169L320,165L319,162L318,160L316,159L311,148L310,146L302,146L300,145L292,136L291,133L288,134Z " data-fips="AJ07" data-fips-="AJ|" data-iso3="AZE" data-name="?li Bayramli"/><path d="M279,274L283,279L286,279L290,277L291,275L298,275L298,263L293,264L288,265L286,265L284,266L280,268L278,274L279,274Z " data-fips="AJ08" data-fips-="AJ|" data-iso3="AZE" data-name="Astara"/><path d="M210,138L206,134L203,130L205,127L201,124L201,121L197,119L197,119L196,119L195,120L193,125L186,126L183,130L184,132L188,138L190,139L190,147L190,149L194,148L198,148L198,147L202,150L203,149L208,146L213,142L213,142L215,140L215,139L211,139L210,138L210,138Z " data-fips="AJ11" data-fips-="AJ|" data-iso3="AZE" data-name="B?rd?"/><path d="M231,151L230,150L230,149L230,148L229,148L226,154L225,157L223,167L218,170L215,171L212,174L212,179L213,180L214,183L219,187L222,190L223,193L229,188L232,186L232,183L237,180L237,177L231,173L229,171L230,167L228,165L233,161L233,158L228,154L231,152L231,151Z " data-fips="AJ12" data-fips-="AJ|" data-iso3="AZE" data-name="Beyl?qan"/><path d="M242,182L247,186L257,197L261,201L264,206L264,206L265,210L267,211L271,209L274,205L276,205L278,210L280,211L282,209L282,205L285,202L287,203L289,202L289,200L287,195L287,192L288,188L286,187L283,186L280,185L278,185L275,188L272,186L269,184L266,187L260,192L253,188L249,184L245,181L241,182L242,182Z " data-fips="AJ13" data-fips-="AJ|" data-iso3="AZE" data-name="Bil?suvar"/><path d="M171,206L170,207L170,209L173,217L175,218L177,220L179,222L179,224L180,224L184,224L188,222L192,215L195,211L201,209L202,209L201,208L196,207L192,202L190,201L188,203L189,206L185,208L184,207L177,201L175,202L176,204L176,207L173,206L171,206Z " data-fips="AJ14" data-fips-="AJ|" data-iso3="AZE" data-name="C?brayil"/><path d="M262,206L259,209L252,212L251,214L252,219L263,230L263,232L263,233L270,232L272,233L274,235L276,234L284,227L283,224L287,222L288,222L289,217L287,212L287,204L289,202L287,203L285,202L282,205L282,209L280,211L278,210L276,205L274,205L271,209L267,211L265,210L264,206L262,206Z " data-fips="AJ15" data-fips-="AJ|" data-iso3="AZE" data-name="C?lilabad"/><path d="M282,57L281,60L282,65L278,70L277,73L281,78L278,83L279,88L279,91L282,92L285,94L287,92L289,91L288,88L287,84L288,82L293,79L292,73L293,70L298,70L301,68L306,72L306,71L305,70L304,63L302,59L300,55L285,56L283,57L282,57Z " data-fips="AJ17" data-fips-="AJ|" data-iso3="AZE" data-name="D?v?i"/><path d="M213,180L209,182L204,183L202,184L192,188L189,188L188,190L192,190L191,192L187,193L188,195L192,193L192,199L190,200L190,201L192,202L196,207L201,208L202,209L204,208L212,199L216,197L221,193L223,193L222,190L219,187L214,183L213,180Z " data-fips="AJ18" data-fips-="AJ|" data-iso3="AZE" data-name="Fzuli"/><path d="M243,118L244,115L242,113L236,111L228,110L226,110L224,111L222,111L220,111L218,113L219,114L219,116L218,119L218,121L219,122L226,124L230,123L236,126L240,126L242,127L244,125L243,121L243,118Z " data-fips="AJ22" data-fips-="AJ|" data-iso3="AZE" data-name="Gyay"/><path d="M234,153L234,152L233,152L233,153L231,153L231,152L228,154L233,158L233,161L228,165L230,167L229,171L231,173L237,177L237,180L232,183L232,186L233,185L239,184L241,182L241,182L245,181L249,184L253,188L260,192L266,187L265,186L264,184L264,179L261,176L258,175L256,172L258,167L257,162L258,161L259,160L260,159L262,157L261,156L261,156L258,157L256,155L252,156L248,152L246,150L244,151L242,150L237,154L234,153L234,153Z " data-fips="AJ24" data-fips-="AJ|" data-iso3="AZE" data-name="Imisli"/><path d="M259,85L255,85L246,80L244,80L242,80L241,81L238,86L240,91L240,94L237,95L236,99L230,103L228,108L226,110L228,110L236,111L242,113L244,115L243,118L243,121L246,121L248,120L249,120L251,116L265,106L266,103L267,99L269,96L268,93L265,91L263,88L259,85Z " data-fips="AJ25" data-fips-="AJ|" data-iso3="AZE" data-name="Ismayilli"/><path d="M266,136L264,134L261,133L260,127L258,126L256,126L252,129L248,127L247,126L247,123L248,120L246,121L243,121L244,125L242,127L241,130L241,133L240,135L239,136L239,142L240,147L236,151L234,153L234,153L237,154L242,150L244,151L246,150L248,152L252,156L256,155L258,157L261,156L261,156L262,155L266,151L267,150L269,148L269,145L269,142L269,140L268,138L266,136Z " data-fips="AJ27" data-fips-="AJ|" data-iso3="AZE" data-name="Krd?mir"/><path d="M281,243L279,247L280,250L285,253L287,259L288,260L289,263L288,265L293,264L298,263L297,251L295,248L295,243L297,243L298,241L296,241L285,246L283,245L281,243Z M295,223L295,225L295,228L298,230L299,238L300,238L301,232L300,227L300,223L302,219L307,219L308,224L312,226L311,230L307,232L307,234L309,235L311,234L315,231L317,221L317,220L316,219L309,217L307,216L304,212L302,215L297,220L295,223Z " data-fips="AJ29" data-fips-="AJ|" data-iso3="AZE" data-name="Astara"/><path d="M287,222L283,224L284,227L276,234L274,235L275,238L278,238L280,240L281,243L283,245L285,246L296,241L298,241L298,241L299,238L298,230L295,228L295,225L295,223L292,223L288,222L287,222Z " data-fips="AJ29" data-fips-="AJ|" data-iso3="AZE" data-name="Masalli"/><path d="M281,243L280,240L278,238L273,242L263,250L261,255L260,256L260,257L260,260L267,264L271,263L277,272L278,274L280,268L284,266L286,265L288,265L289,263L288,260L287,259L285,253L280,250L279,247L281,243Z " data-fips="AJ31" data-fips-="AJ|" data-iso3="AZE" data-name="Lerik"/><path d="M289,202L287,204L287,212L289,217L288,222L292,223L295,223L297,220L302,215L304,212L307,216L309,217L316,219L317,220L317,219L317,211L321,206L326,209L324,205L325,201L319,196L319,195L319,194L313,196L309,196L305,191L303,195L299,200L300,204L296,207L294,206L292,204L289,202Z " data-fips="AJ36" data-fips-="AJ|" data-iso3="AZE" data-name="Neftala"/><path d="M310,117L304,112L301,111L299,109L294,104L290,102L287,101L285,102L283,104L282,107L283,111L281,113L284,124L280,133L283,133L285,132L288,134L291,133L293,134L296,136L301,130L303,129L306,125L308,125L313,121L314,119L310,117Z " data-fips="AJ41" data-fips-="AJ|" data-iso3="AZE" data-name="Qobustan"/><path d="M289,91L291,91L296,88L298,85L300,85L301,88L306,91L314,91L319,90L318,89L311,82L308,78L307,72L306,72L301,68L298,70L293,70L292,73L293,79L288,82L287,84L288,88L289,91Z " data-fips="AJ42" data-fips-="AJ|" data-iso3="AZE" data-name="Siy?z?n"/><path d="M276,184L278,183L283,180L284,178L283,174L283,169L281,167L274,163L270,164L269,164L269,161L265,159L259,162L258,161L257,162L258,167L256,172L258,175L261,176L264,179L264,184L265,186L266,187L269,184L272,186L275,188L278,185L276,184Z " data-fips="AJ45" data-fips-="AJ|" data-iso3="AZE" data-name="Saatli"/><path d="M296,164L296,163L293,159L291,158L286,157L281,151L274,148L269,148L267,150L266,151L262,155L261,156L262,157L260,159L259,160L258,161L259,162L265,159L269,161L269,164L270,164L274,163L281,167L283,169L283,174L284,178L283,180L278,183L276,184L278,185L280,185L283,186L286,187L288,188L290,187L296,187L295,185L301,179L298,175L299,173L298,168L296,165L296,165L296,164Z " data-fips="AJ46" data-fips-="AJ|" data-iso3="AZE" data-name="Sabirabad"/><path d="M320,169L316,166L305,166L301,164L296,165L296,165L296,165L298,168L299,173L298,175L301,179L295,185L296,187L290,187L288,188L287,192L287,195L289,200L289,202L292,204L294,206L296,207L300,204L299,200L303,195L305,191L309,196L313,196L319,194L319,193L320,188L320,186L321,183L322,182L322,179L321,177L321,174L322,171L320,169Z " data-fips="AJ49" data-fips-="AJ|" data-iso3="AZE" data-name="Salyan"/><path d="M276,90L272,89L267,88L263,88L265,91L268,93L269,96L267,99L268,100L271,105L270,110L267,113L266,116L268,118L279,122L272,127L271,132L269,134L272,134L274,135L281,138L284,135L285,132L283,133L280,133L284,124L281,113L283,111L282,107L283,104L285,102L287,101L285,98L285,94L282,92L279,91L276,90Z " data-fips="AJ50" data-fips-="AJ|" data-iso3="AZE" data-name="Samaxi"/><path d="M339,111L334,109L332,109L329,107L329,106L328,107L326,107L326,108L328,110L332,115L335,115L338,114L338,113L339,112L339,112L339,111Z " data-fips="AJ54" data-fips-="AJ|" data-iso3="AZE" data-name="Sumqayit"/><path d="M216,120L212,122L212,129L214,130L215,131L218,133L225,138L226,137L235,137L239,136L240,135L241,133L241,130L242,127L240,126L236,126L230,123L226,124L219,122L218,121L216,120Z " data-fips="AJ59" data-fips-="AJ|" data-iso3="AZE" data-name="Ucar"/><path d="M289,91L287,92L285,94L285,98L287,101L290,102L294,104L299,109L301,111L304,112L310,117L314,119L318,119L322,117L325,110L326,108L326,107L328,107L329,106L329,106L327,101L328,99L324,94L323,94L319,90L319,90L314,91L306,91L301,88L300,85L298,85L296,88L291,91L289,91Z " data-fips="AJ63" data-fips-="AJ|" data-iso3="AZE" data-name="Xizi"/><path d="M278,238L275,238L274,235L272,233L270,232L263,233L263,233L260,236L249,239L246,246L247,248L251,251L259,255L260,256L261,255L263,250L273,242L278,238Z " data-fips="AJ66" data-fips-="AJ|" data-iso3="AZE" data-name="Yardimli"/><path d="M235,137L226,137L225,138L218,133L215,131L214,133L213,135L212,137L210,138L211,139L215,139L215,140L213,142L213,142L213,142L217,148L219,146L224,147L226,145L229,148L229,148L230,148L230,149L230,150L231,151L231,152L231,153L233,153L233,152L234,152L234,153L236,151L240,147L239,142L239,136L235,137Z " data-fips="AJ71" data-fips-="AJ|" data-iso3="AZE" data-name="Z?rdab"/><path d="M229,148L226,145L224,147L219,146L217,148L213,142L213,142L208,146L203,149L202,150L198,147L198,148L196,151L194,153L193,154L195,156L191,158L191,160L190,163L191,167L196,168L201,166L202,169L201,172L200,172L202,175L205,177L206,180L204,183L209,182L213,180L212,179L212,174L215,171L218,170L223,167L225,157L226,154L229,148L229,148Z " data-fips="AJ01" data-fips-="AJ|" data-iso3="AZE" data-name="Agcab?di"/><path d="M142,44L147,45L150,43L152,43L157,39L159,35L164,30L166,28L166,24L166,25L162,26L160,27L157,27L157,23L153,20L152,20L144,30L138,30L137,38L138,41L140,42L141,41L142,44L142,44Z " data-fips="AJ10" data-fips-="" data-iso3="AZE" data-name="Balak?n"/><path d="M223,70L222,78L219,85L220,87L218,92L217,96L217,101L216,103L214,104L215,107L215,110L216,112L218,113L220,111L222,111L224,111L226,110L228,108L230,103L236,99L237,95L240,94L240,91L238,86L241,81L242,80L238,77L236,73L234,73L232,72L230,70L226,71L224,71L223,70Z " data-fips="AJ37" data-fips-="" data-iso3="AZE" data-name="Q?b?l?"/><path d="M204,66L203,73L200,81L199,84L203,89L203,89L211,98L217,101L217,96L218,92L220,87L219,85L222,78L223,70L220,68L214,70L211,67L205,66L204,66Z " data-fips="AJ37" data-fips-="" data-iso3="AZE" data-name="Oguz"/><path d="M185,45L182,48L179,49L175,47L172,47L169,48L165,55L163,59L162,61L163,61L166,65L163,71L162,78L162,79L164,80L166,80L169,81L170,87L170,89L175,91L180,93L180,85L176,78L173,77L173,71L177,63L187,58L191,55L193,49L193,49L190,44L187,44L185,45Z " data-fips="AJ39" data-fips-="" data-iso3="AZE" data-name="Qax"/><path d="M203,66L198,62L196,54L194,50L193,49L191,55L187,58L177,63L173,71L173,77L176,78L180,85L180,93L185,96L190,98L195,100L199,102L202,102L205,103L208,103L212,104L214,104L216,103L217,101L211,98L203,89L203,89L199,84L200,81L203,73L204,66L203,66Z " data-fips="AJ39" data-fips-="" data-iso3="AZE" data-name="S?ki"/><path d="M280,56L278,57L277,56L273,49L272,47L269,49L261,53L257,56L247,64L236,73L238,77L242,80L244,80L246,80L255,85L259,85L263,88L267,88L272,89L276,90L279,91L279,88L278,83L281,78L277,73L278,70L282,65L281,60L282,57L280,56Z " data-fips="AJ42" data-fips-="" data-iso3="AZE" data-name="Quba"/><path d="M272,47L271,44L270,42L271,41L268,39L266,35L268,31L265,30L264,30L260,40L251,47L244,49L242,50L238,58L237,58L234,65L234,68L230,70L230,70L232,72L234,73L236,73L247,64L257,56L261,53L269,49L272,47Z " data-fips="AJ44" data-fips-="" data-iso3="AZE" data-name="Qusar"/><path d="M265,30L268,31L266,35L268,39L271,41L270,42L271,44L272,47L273,49L277,56L278,57L280,56L282,57L283,57L285,56L300,55L298,51L295,49L290,43L288,39L284,35L280,30L275,23L271,21L268,25L265,30Z " data-fips="AJ60" data-fips-="" data-iso3="AZE" data-name="Xamaz"/><path d="M166,24L166,28L164,30L159,35L157,39L152,43L150,43L147,45L142,44L143,47L145,50L149,53L152,55L162,61L162,61L163,59L165,55L169,48L172,47L175,47L179,49L182,48L185,45L184,45L182,39L178,35L177,33L173,32L167,24L166,24Z " data-fips="AJ70" data-fips-="" data-iso3="AZE" data-name="Zaqatala"/><path d="M198,171L195,174L192,173L186,170L184,171L182,175L180,176L178,177L177,178L176,179L180,184L181,186L177,190L176,189L174,188L173,190L171,193L168,193L167,195L167,200L166,201L167,201L171,200L172,201L172,204L171,206L173,206L176,207L176,204L175,202L177,201L184,207L185,208L189,206L188,203L190,201L190,200L192,199L192,193L188,195L187,193L191,192L192,190L188,190L189,188L192,188L202,184L204,183L206,180L205,177L202,175L200,172L198,171Z " data-fips="AJ14" data-fips-="AJ|" data-iso3="AZE" data-name="Xocav?nd"/><path d="M154,165L152,166L140,170L132,172L129,169L127,173L122,178L123,179L127,180L129,181L131,186L137,189L138,192L142,193L146,191L153,194L156,194L159,195L159,197L157,199L157,201L156,202L156,202L159,204L161,204L163,202L166,201L167,200L167,195L168,193L171,193L171,191L167,189L165,192L163,193L159,191L159,189L161,185L160,182L160,180L158,175L156,171L153,167L154,165Z " data-fips="AJ29" data-fips-="AJ|" data-iso3="AZE" data-name="L?nk?ran"/><path d="M166,201L163,202L161,204L159,204L156,202L152,203L150,206L150,209L157,213L159,216L164,220L164,220L165,220L166,226L169,227L174,221L177,220L175,218L173,217L170,209L170,207L171,206L172,204L172,201L171,200L167,201L166,201Z " data-fips="AJ43" data-fips-="AJ|" data-iso3="AZE" data-name="Qubadli"/><path d="M174,186L170,181L167,179L165,178L161,180L160,180L160,182L161,185L159,189L159,191L163,193L165,192L167,189L171,191L171,193L173,190L174,188L174,186Z " data-fips="AJ55" data-fips-="AJ|" data-iso3="AZE" data-name="Susa"/><path d="M182,129L181,128L181,127L180,126L179,127L173,131L169,131L160,136L158,138L158,140L157,142L157,145L159,152L161,150L165,151L168,153L171,158L172,159L172,157L174,153L175,150L181,147L181,145L184,146L186,145L189,149L190,149L190,147L190,139L188,138L184,132L183,130L182,129Z " data-fips="AJ57" data-fips-="AJ|" data-iso3="AZE" data-name="T?rt?r"/><path d="M179,175L181,169L177,166L175,163L173,161L170,162L168,160L166,161L161,165L157,163L156,164L154,165L153,167L156,171L158,175L160,180L161,180L165,178L167,179L170,181L174,186L174,188L176,189L177,190L181,186L180,184L176,179L177,178L178,177L179,175Z " data-fips="AJ61" data-fips-="AJ|" data-iso3="AZE" data-name="Xocali"/><path d="M179,224L179,222L177,220L174,221L169,227L166,226L165,220L164,220L164,221L155,221L152,223L152,225L157,228L158,235L157,242L160,246L163,244L168,237L171,235L179,224L179,224Z " data-fips="AJ69" data-fips-="AJ|" data-iso3="AZE" data-name="Z?ngilan"/><path d="M66,183L62,184L58,185L60,190L60,190L62,188L64,185L67,185L68,183L66,183Z " data-fips="AM02" data-fips-="" data-iso3="AZE" data-name="S?d?r?k"/><path d="M117,243L129,245L137,248L134,241L130,233L126,226L126,224L126,217L123,215L119,220L118,225L113,233L115,239L117,240L116,242L117,243Z " data-fips="AM08" data-fips-="AJ|" data-iso3="AZE" data-name="Ordubad"/><path d="M68,183L67,185L64,185L62,188L60,190L61,191L63,191L65,194L66,201L68,205L74,209L76,212L77,215L84,214L84,212L83,202L86,193L86,193L79,194L80,191L79,186L75,181L73,180L68,182L68,183Z " data-fips="AM10" data-fips-="AJ|" data-iso3="AZE" data-name="S?rur"/><path d="M95,201L92,198L90,198L87,195L86,193L83,202L84,212L84,214L77,215L78,215L81,221L87,223L92,229L94,233L96,233L102,240L102,240L103,235L100,231L101,225L100,224L98,224L93,224L89,221L91,220L98,219L102,219L103,218L103,216L102,216L101,214L95,210L91,205L95,201L95,201Z " data-fips="AJ35" data-fips-="AJ|" data-iso3="AZE" data-name="Bab?k"/><path d="M122,215L118,212L115,211L115,211L112,214L109,213L105,215L103,216L103,218L102,219L100,222L98,224L100,224L101,225L100,231L103,235L102,240L102,240L104,240L107,241L112,241L116,242L117,240L115,239L113,233L118,225L119,220L123,215L122,215Z " data-fips="AJ35" data-fips-="AJ|" data-iso3="AZE" data-name="Culfa"/><path d="M100,222L102,219L98,219L91,220L89,221L93,224L98,224L100,222Z " data-fips="AJ35" data-fips-="AJ|" data-iso3="AZE" data-name="Naxivan"/><path d="M95,201L91,205L95,210L101,214L102,216L103,216L105,215L109,213L112,214L115,211L115,210L117,204L117,197L113,195L105,197L96,201L95,201Z " data-fips="AJ35" data-fips-="AJ|" data-iso3="AZE" data-name="Sahbuz"/></g></svg>