<?xml version="1.0" encoding="UTF-8"?><!DOCTYPE svg  PUBLIC '-//W3C//DTD SVG 1.1//EN'  'http://www.w3.org/Graphics/SVG/1.1/DTD/svg11.dtd'><svg enable_background="new 0 0 450 301" height="301px" style="stroke-linejoin: round; stroke:#000; fill:#f6f3f0;" version="1.1" viewBox="0 0 450 301" width="450px" xmlns="http://www.w3.org/2000/svg" xmlns:xlink="http://www.w3.org/1999/xlink"><defs><style type="text/css"><![CDATA[path { fill-rule: evenodd; }
#context path { fill: #eee; stroke: #bbb; } ]]></style></defs><metadata><views><view h="301.0" padding="0.06" w="450"><proj id="laea" lat0="-3.14099659597" lon0="30.5899419081"/><bbox h="29.4" w="25.5" x="978.87" y="988.29"/><llbbox lat0="-90" lat1="90" lon0="-180" lon1="180"/></view></views></metadata><g id="context"><path d="M303,26L297,23L287,15L270,20L266,19L259,23L254,28L248,28L233,18L228,19L225,45L223,59L220,66L209,72L198,76L193,75L169,77L160,77L155,75L148,60L136,54L124,51L119,52L114,59L113,66L113,71L113,76L119,83L130,96L139,108L139,119L138,137L137,147L138,161L138,187L138,206L139,216L153,239L159,265L162,283L201,284L208,279L230,266L255,238L260,226L270,208L280,199L284,193L286,183L290,175L303,163L316,154L313,147L315,145L322,140L335,136L338,127L338,116L336,110L336,103L334,99L325,99L312,93L301,91L293,88L291,86L289,79L296,63L291,59L289,56L292,53L303,29L306,26L303,26Z " data-iso="BDI"/><path d="M162,283L159,265L153,239L139,216L138,206L138,187L138,161L137,147L138,137L139,119L139,108L130,96L119,83L113,76L113,71L113,66L101,62L98,56L97,46L93,32L95,26L110,15L124,5L127,0L0,0L0,299L160,299L162,289L162,283Z " data-iso="COD"/><path d="M113,66L114,59L119,52L124,51L136,54L148,60L155,75L160,77L169,77L193,75L198,76L209,72L220,66L223,59L225,45L228,19L233,18L248,28L254,28L259,23L266,19L270,20L287,15L297,23L303,26L306,26L311,26L319,23L326,21L332,23L336,21L340,18L343,9L345,0L127,0L124,5L110,15L95,26L93,32L97,46L98,56L101,62L113,66Z " data-iso="RWA"/><path d="M306,26L303,29L292,53L289,56L291,59L296,63L289,79L291,86L293,88L301,91L312,93L325,99L334,99L336,103L336,110L338,116L338,127L335,136L322,140L315,145L313,147L316,154L303,163L290,175L286,183L284,193L280,199L270,208L260,226L255,238L230,266L208,279L201,284L162,283L162,289L160,299L450,299L450,0L345,0L343,9L340,18L336,21L332,23L326,21L319,23L311,26L306,26Z " data-iso="TZA"/></g><g fill="red" fill-opacity="0.35" id="regions"><path d="M297,94L291,100L288,104L288,107L284,109L283,110L281,118L280,119L279,120L278,120L273,125L277,126L279,127L282,127L288,129L290,130L293,132L294,137L296,139L300,140L303,138L309,142L310,147L311,149L313,149L312,148L319,141L324,140L327,137L330,138L333,138L336,136L338,132L338,129L341,123L340,119L338,117L339,114L334,109L335,105L339,101L340,99L337,99L331,100L322,98L318,99L315,96L305,89L301,91L298,94L297,94Z " data-fips="BY11" data-fips-="" data-iso3="BDI" data-name="Cankuzo"/><path d="M278,119L275,118L270,118L267,115L271,107L272,101L272,96L270,92L265,90L260,89L256,93L248,99L243,99L238,101L235,105L231,109L230,111L225,112L224,118L224,123L225,124L227,121L231,122L233,125L238,131L239,133L238,137L237,139L235,146L239,149L240,146L241,145L242,144L245,144L248,143L253,142L258,140L271,127L273,125L278,120L279,120L278,119Z " data-fips="BY14" data-fips-="" data-iso3="BDI" data-name="Karuzi"/><path d="M249,181L249,185L247,188L238,191L237,194L236,196L231,202L229,206L227,204L225,207L227,214L223,219L224,222L223,225L223,231L222,234L223,237L227,240L231,244L233,243L236,239L241,235L252,235L258,232L260,227L262,218L264,216L271,209L275,201L279,199L284,200L285,198L283,192L283,190L282,190L279,187L265,182L258,186L255,182L252,181L249,181Z " data-fips="BY20" data-fips-="" data-iso3="BDI" data-name="Rutana"/><path d="M273,125L271,127L258,140L253,142L248,143L245,144L242,144L241,145L244,150L247,155L246,162L246,165L249,174L250,178L249,181L252,181L255,182L258,186L265,182L279,187L282,190L283,190L283,190L284,187L289,179L290,172L290,171L297,166L300,166L300,164L304,163L307,160L313,157L316,154L317,151L313,149L311,149L310,147L309,142L303,138L300,140L296,139L294,137L293,132L290,130L288,129L282,127L279,127L277,126L273,125Z " data-fips="BY21" data-fips-="" data-iso3="BDI" data-name="Ruyigi"/><path d="M173,90L170,93L166,94L163,96L162,95L158,95L156,100L148,103L151,111L147,114L141,115L141,115L138,122L138,131L141,135L141,135L143,139L148,141L152,136L158,134L165,135L173,134L177,137L178,135L178,131L179,128L181,125L181,122L179,118L180,116L181,113L181,109L179,105L178,102L176,95L173,90Z " data-fips="BY09" data-fips-="" data-iso3="BDI" data-name="Bubanza"/><path d="M184,170L182,171L179,173L178,176L174,186L174,190L172,191L165,193L150,193L138,191L137,200L138,214L139,218L141,220L146,226L154,239L157,251L178,249L182,246L185,245L191,243L196,238L200,235L204,234L209,229L211,224L212,221L213,220L214,224L215,228L215,233L216,236L218,237L220,236L222,234L223,231L223,225L224,222L223,219L227,214L225,207L227,204L225,202L222,202L218,200L220,197L217,193L214,199L211,202L208,204L206,202L207,198L209,189L209,183L206,182L202,182L201,184L199,187L196,191L196,186L195,183L192,180L186,174L184,170Z " data-fips="BY10" data-fips-="" data-iso3="BDI" data-name="Bururi"/><path d="M141,115L147,114L151,111L148,103L156,100L158,95L162,95L163,96L166,94L170,93L173,90L171,87L169,83L169,79L167,77L164,77L162,77L157,79L152,77L151,70L153,68L150,63L148,58L145,56L138,55L125,51L118,51L115,54L113,66L112,70L109,73L109,76L110,78L117,80L119,84L121,87L122,92L128,95L131,102L139,105L140,107L141,115Z " data-fips="BY12" data-fips-="" data-iso3="BDI" data-name="Cibitoke"/><path d="M224,110L222,109L221,109L215,115L216,122L215,123L213,124L214,126L219,131L214,133L211,138L216,141L217,146L220,148L222,152L220,161L214,166L208,170L212,177L212,179L207,179L202,182L206,182L209,183L209,189L207,198L206,202L208,204L211,202L214,199L217,193L220,197L218,200L222,202L225,202L227,204L229,206L231,202L236,196L237,194L238,191L247,188L249,185L249,181L250,178L249,174L246,165L246,162L247,155L244,150L241,145L240,146L239,149L235,146L237,139L238,137L239,133L238,131L233,125L231,122L227,121L225,124L224,123L224,118L225,112L224,110Z " data-fips="BY13" data-fips-="" data-iso3="BDI" data-name="Gitega"/><path d="M189,75L188,75L179,77L174,80L171,78L167,77L169,79L169,83L171,87L173,90L176,95L178,102L179,105L181,109L181,113L184,114L187,114L193,116L194,122L200,120L201,125L204,127L210,125L213,124L215,123L216,122L215,115L221,109L220,107L221,103L216,100L211,100L209,90L206,88L201,90L192,88L190,85L187,85L191,82L191,75L189,75Z " data-fips="BY15" data-fips-="" data-iso3="BDI" data-name="Kayanza"/><path d="M158,253L191,283L197,284L203,285L204,284L205,279L211,273L214,273L224,270L228,266L237,261L238,259L241,251L243,250L251,242L255,238L258,233L258,232L252,235L241,235L236,239L233,243L231,244L227,240L223,237L222,234L220,236L218,237L216,236L215,233L215,228L214,224L213,220L212,221L211,224L209,229L204,234L200,235L196,238L191,243L185,245L182,246L178,249L157,251L158,253Z " data-fips="BY17" data-fips-="" data-iso3="BDI" data-name="Makamba"/><path d="M224,57L223,60L219,68L214,72L203,72L201,77L195,77L191,75L191,82L187,85L190,85L192,88L201,90L206,88L209,90L211,100L216,100L221,103L220,107L221,109L222,109L224,110L225,112L230,111L231,109L235,105L238,101L243,99L248,99L256,93L260,89L260,87L260,85L254,84L250,88L247,87L249,83L251,79L249,76L246,74L242,68L239,66L237,63L234,58L224,56L224,57Z " data-fips="BY19" data-fips-="" data-iso3="BDI" data-name="Ngozi"/><path d="M224,56L234,58L237,63L239,66L242,68L246,74L251,73L254,71L255,69L257,66L263,65L268,61L271,61L280,53L283,50L286,50L288,48L290,43L288,38L290,33L284,23L283,18L280,16L279,17L276,19L274,20L262,18L261,21L256,28L254,30L248,29L245,27L238,20L233,19L230,16L226,24L227,34L225,43L224,56Z " data-fips="BY16" data-fips-="" data-iso3="BDI" data-name="Kirundo"/><path d="M280,16L283,18L284,23L290,33L288,38L290,43L288,48L286,50L283,50L280,53L271,61L268,61L263,65L257,66L255,69L254,71L251,73L246,74L249,76L251,79L249,83L247,87L250,88L254,84L260,85L260,87L260,89L265,90L270,92L272,96L272,101L271,107L267,115L270,118L275,118L278,119L279,120L280,119L281,118L283,110L284,109L288,107L288,104L291,100L297,94L297,93L296,89L293,89L288,83L288,81L292,74L294,67L301,60L302,57L292,61L289,61L288,60L289,55L292,52L300,34L306,26L302,26L297,24L288,15L285,14L280,16L280,16Z " data-fips="BY18" data-fips-="" data-iso3="BDI" data-name="Muyinga"/><path d="M138,138L137,143L139,175L139,185L138,191L150,193L165,193L172,191L174,190L174,186L178,176L179,173L182,171L184,170L185,167L185,164L187,160L185,154L185,152L184,150L182,152L178,145L178,142L177,137L173,134L165,135L158,134L152,136L148,141L143,139L141,135L138,138Z " data-fips="BY24" data-fips-="BY02" data-iso3="BDI" data-name="Bujumbura Mairie"/><path d="M210,125L204,127L201,125L200,120L194,122L193,116L187,114L184,114L181,113L180,116L179,118L181,122L181,125L179,128L178,131L178,135L177,137L178,142L178,145L182,152L184,150L185,152L185,154L187,160L185,164L185,167L184,170L186,174L192,180L195,183L196,186L196,191L199,187L201,184L202,182L207,179L212,179L212,177L208,170L214,166L220,161L222,152L220,148L217,146L216,141L211,138L214,133L219,131L214,126L213,124L210,125Z " data-fips="BY22" data-fips-="BY05" data-iso3="BDI" data-name="Muramvya"/></g></svg>