<?xml version="1.0" encoding="UTF-8"?><!DOCTYPE svg  PUBLIC '-//W3C//DTD SVG 1.1//EN'  'http://www.w3.org/Graphics/SVG/1.1/DTD/svg11.dtd'><svg enable_background="new 0 0 450 301" height="301px" style="stroke-linejoin: round; stroke:#000; fill: none;" version="1.1" viewBox="0 0 450 301" width="450px" xmlns="http://www.w3.org/2000/svg" xmlns:xlink="http://www.w3.org/1999/xlink"><defs><style type="text/css"><![CDATA[path { fill-rule: evenodd; }]]></style></defs><metadata><views><view h="301.0" padding="0.06" w="450"><proj id="laea" lat0="50.3578955145" lon0="4.11739269355"/><bbox h="28.24" w="33.77" x="985.82" y="984.12"/></view></views></metadata><g class="" id="context"><path d="M327,112L338,108L343,115L335,115L352,115L353,117L362,124L365,129L372,134L367,141L370,147L377,149L381,153L382,160L384,171L368,182L364,194L364,197L363,197L361,193L359,193L352,191L343,202L339,212L337,218L333,224L332,239L337,245L339,248L346,260L340,272L338,274L331,274L323,275L317,278L314,278L308,272L301,264L297,260L295,256L289,255L281,251L276,246L271,243L265,242L260,242L258,235L257,226L253,220L259,197L255,195L251,197L246,202L243,209L242,214L232,220L217,222L201,220L198,215L202,208L203,203L198,196L199,192L201,186L201,183L190,173L182,171L175,171L169,170L166,170L161,175L159,172L156,155L153,152L143,149L130,148L126,145L124,137L123,128L119,119L113,113L106,114L97,119L91,121L84,116L77,108L71,99L70,94L72,89L66,76L66,70L102,49L124,38L134,35L136,46L140,52L144,52L152,47L161,48L167,51L169,54L173,56L179,57L190,52L201,44L204,39L205,34L212,37L217,38L220,36L218,28L223,24L228,22L230,26L235,29L238,29L248,20L251,22L254,30L256,31L264,31L271,23L273,25L277,38L286,47L294,50L304,48L307,46L310,47L313,52L318,57L330,61L334,63L337,66L336,71L331,84L330,92L323,100L322,103L327,112L327,112Z " data-iso="BEL"/><path d="M352,115L353,117L362,124L365,129L372,134L367,141L370,147L377,149L381,153L382,160L384,171L368,182L364,194L364,197L363,200L364,208L366,216L376,229L382,233L392,237L396,238L397,244L396,250L393,253L390,258L388,264L386,276L386,284L389,283L395,285L402,291L405,299L450,299L450,0L356,0L357,4L361,10L365,18L366,23L366,28L364,36L357,53L357,59L362,60L361,63L348,75L346,77L340,77L340,82L343,85L348,86L352,89L355,95L352,115Z " data-iso="DEU"/><path d="M386,284L380,281L377,278L371,278L366,280L363,284L357,285L353,284L348,280L341,278L338,274L331,274L323,275L317,278L314,278L308,272L301,264L297,260L295,256L289,255L281,251L276,246L271,243L265,242L260,242L258,235L257,226L253,220L259,197L255,195L251,197L246,202L243,209L242,214L232,220L217,222L201,220L198,215L202,208L203,203L198,196L199,192L201,186L201,183L190,173L182,171L175,171L169,170L166,170L161,175L159,172L156,155L153,152L143,149L130,148L126,145L124,137L123,128L119,119L113,113L106,114L97,119L91,121L84,116L77,108L71,99L70,94L72,89L66,76L66,70L59,74L15,83L3,90L0,92L0,299L405,299L402,291L395,285L389,283L386,284Z " data-iso="FRA"/><path d="M363,197L361,193L359,193L352,191L343,202L339,212L337,218L333,224L332,239L337,245L339,248L346,260L340,272L338,274L341,278L348,280L353,284L357,285L363,284L366,280L371,278L377,278L380,281L386,284L386,276L388,264L390,258L393,253L396,250L397,244L396,238L392,237L382,233L376,229L366,216L364,208L363,200L364,197L363,197Z " data-iso="LUX"/><path d="M196,37L188,33L177,38L164,36L153,32L140,33L134,35L136,46L140,52L144,52L152,47L161,48L167,51L169,54L173,56L179,57L190,52L201,44L204,39L205,34L196,37Z M180,0L183,2L191,0L180,0Z M205,34L212,37L217,38L220,36L218,28L223,24L228,22L230,26L235,29L238,29L248,20L251,22L254,30L256,31L264,31L271,23L273,25L277,38L286,47L294,50L304,48L307,46L310,47L313,52L318,57L330,61L334,63L337,66L336,71L331,84L330,92L323,100L322,103L327,112L327,112L331,114L335,115L352,115L355,95L352,89L348,86L343,85L340,82L340,77L346,77L348,75L361,63L362,60L357,59L357,53L364,36L366,28L366,23L365,18L361,10L357,4L356,0L199,0L202,5L187,6L193,12L201,16L206,18L209,23L204,25L198,25L178,9L166,6L150,7L146,9L142,13L148,21L153,25L162,25L172,31L187,26L198,32L205,34Z " data-iso="NLD"/></g><g class="" id="regions"><path d="M142,114L138,117L134,122L131,120L131,118L129,116L126,116L122,114L117,116L119,118L120,122L123,124L124,127L123,129L123,133L126,140L126,146L132,150L139,149L145,149L145,151L150,151L154,153L156,154L158,162L158,168L158,173L164,171L166,170L173,170L178,172L180,172L185,170L188,171L191,174L195,176L197,181L199,181L201,180L204,182L203,183L199,191L197,198L202,198L204,207L202,208L198,213L198,218L203,221L210,220L222,224L224,220L221,215L221,208L219,201L220,198L217,193L220,190L219,189L220,184L212,183L210,181L214,179L217,179L218,177L219,177L220,174L224,175L226,172L228,172L230,174L236,173L235,168L237,164L235,162L237,162L238,159L234,157L236,152L236,150L233,150L235,144L230,146L228,144L226,146L221,141L216,141L214,144L214,140L212,141L210,137L207,137L208,134L203,133L204,130L201,129L198,132L195,132L194,130L196,123L195,123L193,122L189,124L187,124L186,125L181,125L177,121L178,119L177,117L172,118L171,117L168,117L167,113L163,114L162,113L160,114L156,120L154,119L149,119L148,115L145,116L142,114Z M106,114L105,109L104,108L101,113L95,116L93,115L91,116L93,123L93,123L94,123L102,115L106,114Z " data-fips="BE03" data-fips-="" data-iso3="BEL" data-name="Hainaut" data-p=""/><path d="M330,114L330,114L330,115L331,116L334,115L337,120L340,119L345,117L343,115L342,115L335,115L331,113L330,114Z M288,50L287,51L286,56L290,59L290,64L288,66L285,65L284,68L279,68L276,73L270,74L270,76L267,79L269,79L271,81L274,81L276,81L276,77L280,78L282,81L279,81L279,84L276,85L276,88L272,91L277,95L280,94L280,95L283,95L284,96L282,99L280,103L280,108L282,108L278,112L279,115L278,117L279,118L278,122L283,123L284,122L283,120L292,119L295,120L297,117L301,116L303,119L307,120L307,117L313,117L312,115L320,112L324,108L322,107L321,105L326,96L332,88L328,88L332,83L333,80L333,75L338,69L336,67L337,62L333,63L330,60L323,60L320,57L315,56L313,54L311,47L309,46L300,50L291,49L288,50Z " data-fips="BE05" data-fips-="" data-iso3="BEL" data-name="Limburg" data-p=""/><path d="M221,96L220,95L218,97L214,97L211,98L210,102L210,105L208,106L207,108L210,109L212,109L214,113L220,115L226,111L224,109L226,108L225,103L221,101L221,96Z " data-fips="BE11" data-fips-="BE" data-iso3="BEL" data-name="Brussels" data-p=""/><path d="M279,118L278,117L279,115L278,112L282,108L280,108L280,103L282,99L284,96L283,95L280,95L280,94L277,95L272,91L276,88L276,85L279,84L279,81L282,81L280,78L276,77L276,81L274,81L271,81L269,79L267,79L266,78L261,79L259,81L258,81L254,83L252,79L249,81L247,80L244,84L245,82L243,81L237,83L236,85L232,84L230,85L227,83L226,85L224,83L219,85L217,82L218,80L215,81L209,79L206,79L205,86L203,86L200,86L199,88L200,93L198,95L194,93L195,96L193,97L194,100L190,105L192,106L193,108L192,111L187,113L185,115L183,113L180,120L178,119L177,121L181,125L186,125L187,124L189,124L193,122L195,123L196,121L198,121L200,120L202,122L204,122L207,125L208,123L210,124L212,121L217,121L218,119L222,119L226,116L228,116L230,120L230,118L234,117L236,115L236,118L239,118L241,116L239,114L240,110L244,111L249,109L252,110L255,115L262,114L264,117L268,114L271,116L273,117L273,120L274,121L276,122L278,122L279,118Z M221,96L221,101L225,103L226,108L224,109L226,111L220,115L214,113L212,109L210,109L207,108L208,106L210,105L210,102L211,98L214,97L218,97L220,95L221,96Z " data-fips="BE12" data-fips-="BE12" data-iso3="BEL" data-name="Flemish Brabant" data-p=""/><path d="M265,130L264,132L251,136L248,137L248,135L245,137L241,137L242,141L234,142L235,144L233,150L236,150L236,152L234,157L238,159L237,162L235,162L237,164L235,168L236,173L230,174L228,172L226,172L224,175L220,174L219,177L218,177L217,179L214,179L210,181L212,183L220,184L219,189L220,190L217,193L220,198L219,201L221,208L221,215L224,220L222,224L223,224L226,223L237,217L241,217L244,208L243,206L244,204L252,195L255,194L255,196L259,195L259,204L258,203L256,210L253,218L252,220L253,222L257,224L258,232L257,233L258,242L259,243L267,241L268,241L269,238L270,238L269,234L276,229L274,228L276,226L281,224L279,222L279,219L277,218L276,216L271,217L270,213L268,211L270,211L270,209L275,206L276,198L276,202L278,202L290,200L292,200L293,198L291,197L293,196L294,193L291,190L291,187L287,186L291,185L291,183L295,183L301,179L303,176L302,172L303,170L302,168L303,166L303,164L299,163L295,166L293,165L293,162L289,161L288,160L289,157L288,154L286,152L283,153L281,151L280,148L278,148L277,145L273,145L274,144L272,137L268,134L268,130L265,130Z " data-fips="BE07" data-fips-="" data-iso3="BEL" data-name="Namur" data-p=""/><path d="M303,164L303,166L302,168L303,170L302,172L303,176L301,179L295,183L291,183L291,185L287,186L291,187L291,190L294,193L293,196L291,197L293,198L292,200L290,200L278,202L276,202L276,198L275,206L270,209L270,211L268,211L270,213L271,217L276,216L277,218L279,219L279,222L281,224L276,226L274,228L276,229L269,234L270,238L269,238L268,241L268,241L273,245L279,248L282,253L285,255L287,256L293,255L296,258L297,260L296,265L300,263L305,266L309,273L310,279L312,280L318,276L323,277L326,273L331,275L335,272L337,274L340,273L344,263L346,260L345,258L342,256L343,252L343,251L339,247L332,240L332,235L333,234L332,232L335,232L331,229L334,223L338,218L339,216L338,213L342,205L349,196L351,191L354,190L355,193L356,193L356,187L357,186L354,184L355,172L352,170L342,168L341,170L342,171L341,176L344,176L343,178L338,179L335,178L330,179L332,174L330,174L330,167L326,167L326,165L323,166L319,161L316,163L313,161L312,158L309,160L305,158L304,159L305,162L303,164Z " data-fips="BE06" data-fips-="" data-iso3="BEL" data-name="Luxembourg" data-p=""/><path d="M212,48L205,37L204,40L200,45L196,49L186,54L181,57L170,57L169,55L168,51L167,50L157,46L148,47L146,48L146,51L142,53L139,53L138,52L135,54L136,57L134,59L137,60L138,63L135,69L132,71L141,78L139,79L142,83L139,86L141,88L138,89L142,91L139,93L139,97L143,99L141,101L146,106L145,107L147,110L142,114L145,116L148,115L149,119L154,119L156,120L160,114L162,113L163,114L167,113L168,117L171,117L172,118L177,117L178,119L180,120L183,113L185,115L187,113L192,111L193,108L192,106L190,105L194,100L193,97L195,96L194,93L198,95L200,93L199,88L200,86L203,86L205,86L206,79L206,78L203,79L202,71L206,68L209,68L213,67L214,65L213,59L211,57L212,56L210,51L211,49L212,48Z " data-fips="BE08" data-fips-="BE08" data-iso3="BEL" data-name="East Flanders" data-p=""/><path d="M137,52L135,49L134,46L134,40L134,35L115,41L99,51L82,61L70,69L67,70L67,74L68,83L72,88L72,91L69,94L71,100L70,104L73,107L79,108L80,111L83,114L85,118L86,119L93,123L91,116L93,115L95,116L101,113L104,108L105,109L106,114L112,112L113,112L115,113L116,114L117,116L122,114L126,116L129,116L131,118L131,120L134,122L138,117L142,114L147,110L145,107L146,106L141,101L143,99L139,97L139,93L142,91L138,89L141,88L139,86L142,83L139,79L141,78L132,71L135,69L138,63L137,60L134,59L136,57L135,54L138,52L137,52Z " data-fips="BE09" data-fips-="" data-iso3="BEL" data-name="West Flanders" data-p=""/><path d="M211,49L210,51L212,56L211,57L213,59L214,65L213,67L209,68L206,68L202,71L203,79L206,78L206,79L209,79L215,81L218,80L217,82L219,85L224,83L226,85L227,83L230,85L232,84L236,85L237,83L243,81L245,82L244,84L247,80L249,81L252,79L254,83L258,81L259,81L261,79L266,78L267,79L270,76L270,74L276,73L279,68L284,68L285,65L288,66L290,64L290,59L286,56L287,51L288,50L288,50L286,50L286,45L278,43L277,38L273,34L275,26L273,23L269,23L265,30L261,33L258,31L251,31L249,30L250,28L254,30L254,22L249,19L237,30L234,29L231,29L229,28L230,23L226,22L222,24L218,32L221,35L219,38L215,38L210,36L208,36L210,40L210,43L214,46L211,49L211,49Z " data-fips="BE01" data-fips-="" data-iso3="BEL" data-name="Antwerp" data-p=""/><path d="M324,108L320,112L312,115L313,117L307,117L307,120L303,119L301,116L297,117L295,120L292,119L283,120L284,122L283,123L278,122L276,122L274,121L273,120L273,117L271,116L271,119L269,120L271,123L269,124L270,127L268,130L268,134L272,137L274,144L273,145L277,145L278,148L280,148L281,151L283,153L286,152L288,154L289,157L288,160L289,161L293,162L293,165L295,166L299,163L303,164L305,162L304,159L305,158L309,160L312,158L313,161L316,163L319,161L323,166L326,165L326,167L330,167L330,174L332,174L330,179L335,178L338,179L343,178L344,176L341,176L342,171L341,170L342,168L352,170L355,172L354,184L357,186L356,187L356,193L356,193L361,192L362,193L363,196L364,193L368,189L367,183L371,180L375,179L377,173L378,172L384,172L384,169L381,164L382,158L379,149L374,148L371,149L367,143L367,139L372,136L373,132L367,132L366,129L360,121L357,119L354,120L353,117L344,115L343,115L345,117L340,119L337,120L333,115L333,115L331,116L330,115L330,114L330,114L329,115L326,114L327,111L324,108L324,108Z " data-fips="BE04" data-fips-="" data-iso3="BEL" data-name="Liege" data-p=""/><path d="M268,114L264,117L262,114L255,115L252,110L249,109L244,111L240,110L239,114L241,116L239,118L236,118L236,115L234,117L230,118L230,120L228,116L226,116L222,119L218,119L217,121L212,121L210,124L208,123L207,125L204,122L202,122L200,120L198,121L196,121L195,123L196,123L194,130L195,132L198,132L201,129L204,130L203,133L208,134L207,137L210,137L212,141L214,140L214,144L216,141L221,141L226,146L228,144L230,146L235,144L234,142L242,141L241,137L245,137L248,135L248,137L251,136L264,132L265,130L268,130L270,127L269,124L271,123L269,120L271,119L271,116L268,114Z " data-fips="BE10" data-fips-="" data-iso3="BEL" data-name="Walloon Brabant" data-p=""/></g></svg>