<?xml version="1.0" encoding="UTF-8"?><!DOCTYPE svg  PUBLIC '-//W3C//DTD SVG 1.1//EN'  'http://www.w3.org/Graphics/SVG/1.1/DTD/svg11.dtd'><svg enable_background="new 0 0 450 301" height="301px" style="stroke-linejoin: round; stroke:#000; fill:#f6f3f0;" version="1.1" viewBox="0 0 450 301" width="450px" xmlns="http://www.w3.org/2000/svg" xmlns:xlink="http://www.w3.org/1999/xlink"><defs><style type="text/css"><![CDATA[path { fill-rule: evenodd; }
#context path { fill: #eee; stroke: #bbb; } ]]></style></defs><metadata><views><view h="301.0" padding="0.06" w="450"><proj id="laea" lat0="9.70089396843" lon0="2.73518529134"/><bbox h="80.79" w="41.83" x="973.78" y="964.46"/><llbbox lat0="-90" lat1="90" lon0="-180" lon1="180"/></view></views></metadata><g id="context"><path d="M280,36L277,33L273,32L270,30L268,27L263,21L251,10L248,9L239,13L228,16L230,27L229,31L228,34L225,41L222,43L211,53L205,52L194,54L192,52L186,52L181,59L173,61L173,64L171,65L163,72L162,72L161,77L159,83L157,85L156,100L157,101L181,118L182,119L182,138L184,142L184,147L186,150L192,157L193,161L194,184L194,197L194,255L190,255L192,260L192,269L193,273L195,274L200,281L201,287L194,289L194,291L203,289L224,286L243,284L243,281L246,268L244,256L245,248L245,237L247,233L244,227L244,222L242,215L244,197L243,192L244,189L245,173L246,161L259,160L262,155L263,149L263,143L271,133L271,128L278,125L282,122L284,118L286,111L282,106L286,99L292,98L294,90L294,88L290,83L289,69L288,67L278,54L278,49L281,43L283,40L280,36Z " data-iso="BEN"/><path d="M119,66L129,69L144,72L147,74L151,73L162,72L163,72L171,65L173,64L173,61L181,59L186,52L192,52L194,54L205,52L211,53L222,43L225,41L228,34L229,31L227,29L220,20L214,10L221,8L221,2L220,0L0,0L0,71L50,71L53,70L67,71L75,71L82,72L91,72L93,75L104,68L107,68L109,64L119,66Z " data-iso="BFA"/><path d="M0,140L0,140L0,144L0,142L0,140Z M0,207L3,204L3,202L8,198L6,185L2,164L0,207Z " data-iso="CIV"/><path d="M174,296L174,294L168,291L165,286L162,285L154,280L148,266L145,264L144,257L148,250L149,238L145,236L143,230L148,221L147,202L148,199L152,193L149,187L143,183L138,174L142,172L142,158L145,145L142,141L138,141L134,143L132,142L133,139L137,136L134,133L136,132L137,121L138,107L137,103L131,100L124,92L119,89L119,81L121,77L122,71L122,69L119,66L109,64L107,68L104,68L93,75L91,72L82,72L75,71L67,71L53,70L50,71L0,71L0,139L0,140L0,142L0,152L2,164L6,185L8,198L3,202L3,204L0,207L0,299L170,299L171,298L174,296Z " data-iso="GHA"/><path d="M229,31L230,27L228,16L239,13L248,9L251,10L263,21L268,27L270,30L273,32L277,33L280,36L283,40L286,39L284,32L285,28L285,24L285,2L288,0L220,0L221,2L221,8L214,10L220,20L227,29L229,31Z " data-iso="NER"/><path d="M283,40L281,43L278,49L278,54L288,67L289,69L290,83L294,88L294,90L292,98L286,99L282,106L286,111L284,118L282,122L278,125L271,128L271,133L263,143L263,149L262,155L259,160L246,161L245,173L244,189L243,192L244,197L242,215L244,222L244,227L247,233L245,237L245,248L244,256L246,268L243,281L243,284L246,283L272,282L276,277L280,276L289,273L291,274L281,279L279,282L308,282L322,284L331,290L341,299L450,299L450,0L288,0L285,2L285,24L285,28L284,32L286,39L283,40Z " data-iso="NGA"/><path d="M151,73L147,74L144,72L129,69L119,66L122,69L122,71L121,77L119,81L119,89L124,92L131,100L137,103L138,107L137,121L136,132L134,133L137,136L133,139L132,142L134,143L138,141L142,141L145,145L142,158L142,172L138,174L143,183L149,187L152,193L148,199L147,202L148,221L143,230L145,236L149,238L148,250L144,257L145,264L148,266L154,280L162,285L165,286L168,291L174,294L174,296L180,294L194,291L194,289L201,287L200,281L195,274L193,273L192,269L192,260L190,255L194,255L194,197L194,184L193,161L192,157L186,150L184,147L184,142L182,138L182,119L181,118L157,101L156,100L157,85L159,83L161,77L162,72L151,73Z " data-iso="TGO"/></g><g fill="red" fill-opacity="0.35" id="regions"><path d="M294,89L277,91L266,93L255,94L246,93L239,94L232,93L225,94L223,94L222,95L222,102L224,110L216,116L216,116L216,117L215,127L219,134L216,147L213,147L210,149L212,158L214,159L213,168L213,169L221,172L220,174L244,174L244,174L244,174L246,165L246,162L259,160L261,158L263,150L263,143L272,133L271,128L272,126L280,124L284,119L284,115L286,110L283,107L283,103L287,98L291,99L294,90L294,89Z " data-fips="BN10" data-fips-="BN03" data-iso3="BEN" data-name="Borgou"/><path d="M212,52L221,68L228,74L223,79L224,94L223,94L225,94L232,93L239,94L246,93L255,94L266,93L277,91L294,89L294,88L290,76L289,67L286,66L277,53L279,47L282,41L279,34L273,31L272,32L269,28L267,25L254,13L252,10L249,9L246,9L241,13L240,13L228,16L228,20L230,25L232,27L229,29L228,36L225,39L224,42L218,46L212,52Z " data-fips="BN07" data-fips-="BN03" data-iso3="BEN" data-name="Alibori"/><path d="M244,174L244,174L220,174L220,175L221,180L221,184L221,186L219,187L214,187L209,184L207,184L204,181L199,182L194,182L194,184L195,187L194,190L194,197L194,209L194,226L204,226L206,226L212,230L223,232L231,235L230,234L232,230L233,229L234,225L244,225L244,219L242,213L243,203L245,201L243,195L243,190L245,185L244,174Z " data-fips="BN11" data-fips-="BN06" data-iso3="BEN" data-name="Collines"/><path d="M233,281L233,278L231,276L231,263L230,261L229,259L215,259L216,260L214,264L213,265L213,267L212,268L212,269L211,278L210,282L211,287L222,286L225,285L228,285L228,284L230,283L232,282L233,281Z " data-fips="BN09" data-fips-="BN02" data-iso3="BEN" data-name="Atlantique"/><path d="M232,282L230,283L228,284L228,285L233,285L233,284L233,284L232,283L232,282Z " data-fips="BN14" data-fips-="BN02" data-iso3="BEN" data-name="Littoral"/><path d="M194,255L190,255L193,261L193,267L193,268L201,268L204,267L210,267L212,268L213,267L213,265L214,264L216,260L215,259L215,258L211,258L206,251L205,246L199,237L196,231L194,230L194,255Z " data-fips="BN12" data-fips-="BN04" data-iso3="BEN" data-name="Kouffo"/><path d="M244,278L241,274L238,270L237,265L235,258L235,255L232,255L231,255L229,258L229,259L230,261L231,263L231,276L233,278L233,281L232,282L232,283L233,284L233,284L233,285L243,284L243,284L244,278L244,278Z " data-fips="BN16" data-fips-="BN05" data-iso3="BEN" data-name="Oum"/><path d="M223,232L212,230L206,226L204,226L194,226L194,230L196,231L199,237L205,246L206,251L211,258L215,258L215,259L229,259L229,258L231,255L232,255L235,255L236,255L235,246L233,245L231,238L231,236L231,235L223,232Z " data-fips="BN18" data-fips-="BN05" data-iso3="BEN" data-name="Zou"/><path d="M244,225L234,225L233,229L232,230L230,234L231,235L231,236L231,238L233,245L235,246L236,255L235,255L235,258L237,265L238,270L241,274L244,278L245,275L245,270L247,269L244,256L246,254L246,247L245,236L247,233L244,228L244,226L244,225Z " data-fips="BN17" data-fips-="BN05" data-iso3="BEN" data-name="Plateau"/><path d="M210,267L204,267L201,268L193,268L192,268L193,273L195,274L197,278L200,281L200,288L195,289L194,291L206,288L211,287L210,282L211,278L212,269L212,268L210,267Z " data-fips="BN15" data-fips-="" data-iso3="BEN" data-name="Mono"/><path d="M182,120L187,119L194,120L203,116L216,116L216,116L224,110L222,102L222,95L223,94L224,94L223,79L228,74L221,68L212,52L212,53L206,52L196,54L192,51L187,50L182,56L182,59L179,58L179,60L174,59L173,61L174,62L170,66L172,69L166,68L165,72L162,72L161,75L160,82L158,84L157,92L157,94L156,101L181,118L182,119L182,120Z " data-fips="BN08" data-fips-="BN01" data-iso3="BEN" data-name="Atakora"/><path d="M216,116L203,116L194,120L187,119L182,120L182,132L182,134L182,141L184,142L184,147L186,150L192,157L193,162L194,182L199,182L204,181L207,184L209,184L214,187L219,187L221,186L221,184L221,180L220,175L220,174L221,172L213,169L213,168L214,159L212,158L210,149L213,147L216,147L219,134L215,127L216,117L216,116Z " data-fips="BN13" data-fips-="" data-iso3="BEN" data-name="Donga"/></g></svg>