<?xml version="1.0" encoding="UTF-8"?><!DOCTYPE svg  PUBLIC '-//W3C//DTD SVG 1.1//EN'  'http://www.w3.org/Graphics/SVG/1.1/DTD/svg11.dtd'><svg enable_background="new 0 0 450 301" height="301px" style="stroke-linejoin: round; stroke:#000; fill:#f6f3f0;" version="1.1" viewBox="0 0 450 301" width="450px" xmlns="http://www.w3.org/2000/svg" xmlns:xlink="http://www.w3.org/1999/xlink"><defs><style type="text/css"><![CDATA[path { fill-rule: evenodd; }
#context path { fill: #eee; stroke: #bbb; } ]]></style></defs><metadata><views><view h="301.0" padding="0.06" w="450"><proj id="laea" lat0="11.4257111679" lon0="0.976139664077"/><bbox h="81.46" w="107.42" x="915.4" y="949.11"/><llbbox lat0="-90" lat1="90" lon0="-180" lon1="180"/></view></views></metadata><g id="context"><path d="M450,169L444,166L441,164L440,161L435,155L423,144L419,143L410,147L400,151L402,161L401,165L400,168L397,175L394,177L383,187L378,186L366,188L364,186L358,186L354,193L346,195L345,198L344,199L336,206L335,206L334,211L332,217L330,219L329,234L330,235L354,252L355,253L355,271L356,276L357,280L358,284L365,290L366,294L366,299L418,299L419,294L431,293L434,288L435,282L435,276L443,266L443,261L445,259L450,258L450,183L450,169Z " data-iso="BEN"/><path d="M296,26L285,22L278,24L276,22L272,21L262,23L256,27L243,35L230,41L218,48L213,48L209,49L205,61L203,62L188,57L182,59L173,66L169,71L167,79L167,84L166,85L155,84L152,84L151,88L151,96L150,101L138,105L126,97L121,95L117,96L112,100L104,108L105,111L109,119L109,123L97,128L100,132L99,143L94,148L92,151L83,157L69,159L61,166L61,172L63,179L62,186L60,194L57,197L51,201L52,213L50,226L49,229L52,232L55,234L60,234L64,235L68,238L72,247L73,252L80,256L84,260L88,262L93,262L101,265L104,261L108,259L126,253L135,253L148,255L151,255L154,257L157,261L161,264L163,268L169,276L173,275L174,274L174,271L171,266L171,262L172,260L172,254L171,247L171,242L169,230L165,223L166,217L173,206L224,206L227,205L240,206L249,205L255,207L264,206L266,209L277,202L280,202L282,198L292,201L302,203L316,206L319,208L324,207L335,206L336,206L344,199L345,198L346,195L354,193L358,186L364,186L366,188L378,186L383,187L394,177L397,175L400,168L401,165L399,163L392,154L386,144L393,142L393,136L388,129L382,129L377,132L364,132L362,130L344,115L339,114L338,108L339,99L347,101L348,99L340,94L337,89L328,85L323,84L314,71L311,64L312,59L303,48L305,31L305,29L296,26Z " data-iso="BFA"/><path d="M174,274L173,275L169,276L163,268L161,264L157,261L154,257L151,255L148,255L135,253L126,253L108,259L104,261L101,265L93,262L88,262L84,260L80,256L73,252L72,247L68,238L64,235L60,234L55,234L52,232L49,229L48,228L41,228L35,230L32,234L26,239L17,236L19,229L16,215L9,217L10,221L3,221L0,218L0,299L176,299L174,295L172,294L172,291L175,283L175,276L174,274Z " data-iso="CIV"/><path d="M292,201L282,198L280,202L277,202L266,209L264,206L255,207L249,205L240,206L227,205L224,206L173,206L166,217L165,223L169,230L171,242L171,247L172,254L172,260L171,262L171,266L174,271L174,274L175,276L175,283L172,291L172,294L174,295L176,299L316,299L316,291L318,279L315,275L311,275L308,277L305,276L306,272L310,269L307,266L309,265L311,255L311,241L310,237L305,234L297,226L292,223L292,215L294,211L295,205L295,203L292,201Z " data-iso="GHA"/><path d="M49,229L50,226L52,213L51,201L57,197L60,194L62,186L63,179L61,172L61,166L69,159L83,157L92,151L94,148L99,143L100,132L97,128L109,123L109,119L105,111L104,108L112,100L117,96L121,95L126,97L138,105L150,101L151,96L151,88L152,84L155,84L166,85L167,84L167,79L169,71L173,66L182,59L188,57L203,62L205,61L209,49L213,48L218,48L230,41L243,35L256,27L262,23L272,21L276,22L278,24L285,22L296,26L305,29L306,27L308,26L315,26L327,27L345,19L353,13L377,11L427,9L428,5L429,5L449,8L450,2L450,0L0,0L0,218L3,221L10,221L9,217L16,215L19,229L17,236L26,239L32,234L35,230L41,228L48,228L49,229Z " data-iso="MLI"/><path d="M305,29L305,31L303,48L312,59L311,64L314,71L323,84L328,85L337,89L340,94L348,99L347,101L339,99L338,108L339,114L344,115L362,130L364,132L377,132L382,129L388,129L393,136L393,142L386,144L392,154L399,163L401,165L402,161L400,151L410,147L419,143L423,144L435,155L440,161L441,164L444,166L450,169L450,2L449,8L429,5L428,5L427,9L377,11L353,13L345,19L327,27L315,26L308,26L306,27L305,29Z " data-iso="NER"/><path d="M450,299L450,258L445,259L443,261L443,266L435,276L435,282L434,288L431,293L419,294L418,299L450,299Z " data-iso="NGA"/><path d="M335,206L324,207L319,208L316,206L302,203L292,201L295,203L295,205L294,211L292,215L292,223L297,226L305,234L310,237L311,241L311,255L309,265L307,266L310,269L306,272L305,276L308,277L311,275L315,275L318,279L316,291L316,299L366,299L366,294L365,290L358,284L357,280L356,276L355,271L355,253L354,252L330,235L329,234L330,219L332,217L334,211L335,206Z " data-iso="TGO"/></g><g fill="red" fill-opacity="0.35" id="regions"><path d="M319,176L318,179L321,189L319,191L320,197L316,202L314,200L312,205L317,206L317,209L325,207L338,206L337,204L345,205L342,200L344,199L346,196L345,195L354,193L354,190L358,186L358,185L351,180L350,178L350,174L350,174L349,173L344,170L341,168L340,166L333,164L327,169L326,173L319,175L319,176Z " data-fips="UV22" data-fips-="UV57" data-iso3="BFA" data-name="Kompienga" data-p="KMP"/><path d="M350,173L353,166L354,154L349,153L348,150L349,146L348,142L350,136L351,127L351,126L351,126L341,130L338,133L334,135L331,141L330,141L327,145L324,146L321,141L316,138L311,141L311,141L308,143L306,144L302,144L294,147L292,150L291,150L292,151L296,155L296,156L291,158L290,163L290,164L291,164L294,167L296,168L297,171L297,172L298,172L302,171L305,172L308,172L315,176L319,176L319,175L326,173L327,169L333,164L340,166L341,168L344,170L349,173L350,174L350,173Z " data-fips="UV22" data-fips-="UV50" data-iso3="BFA" data-name="Gourma" data-p="GOU"/><path d="M89,155L88,156L86,156L86,156L86,157L90,159L90,165L88,172L92,173L91,176L93,180L93,181L89,185L89,184L84,186L82,192L83,194L86,196L88,199L88,202L84,204L84,207L82,209L82,209L82,210L84,212L87,214L94,210L99,214L105,218L109,215L113,214L116,217L120,218L124,217L124,215L127,212L129,212L129,211L132,210L133,208L134,207L136,206L135,206L133,205L128,200L127,198L124,198L123,195L122,185L122,183L118,175L120,171L120,166L120,166L120,166L120,164L120,163L119,162L119,162L118,162L109,162L107,163L102,171L101,170L97,171L96,169L98,166L97,156L96,155L91,156L89,155L89,155Z " data-fips="UV51" data-fips-="UV23" data-iso3="BFA" data-name="Houet" data-p="HOU"/><path d="M85,157L82,158L79,158L70,159L66,160L61,165L55,166L61,169L60,176L63,177L63,184L61,186L61,191L56,199L51,199L50,200L50,201L56,202L60,206L64,212L69,211L70,211L72,210L77,209L81,209L81,209L82,209L82,209L84,207L84,204L88,202L88,199L86,196L83,194L82,192L84,186L89,184L89,185L93,181L93,180L91,176L92,173L88,172L90,165L90,159L86,157L85,157Z " data-fips="UV54" data-fips-="UV25" data-iso3="BFA" data-name="Kndougou" data-p="KEN"/><path d="M89,155L91,156L96,155L97,156L98,166L96,169L97,171L101,170L102,171L107,163L109,162L118,162L119,162L119,161L120,162L121,158L122,156L126,152L130,144L133,140L138,138L138,137L136,137L128,135L121,135L118,140L115,142L113,140L111,134L112,128L108,126L107,126L104,125L97,126L97,128L100,131L98,139L100,143L92,149L91,152L89,155L89,155Z " data-fips="UV58" data-fips-="UV27|UV46" data-iso3="BFA" data-name="Banwa" data-p="BAN"/><path d="M108,126L112,128L111,134L113,140L115,142L118,140L121,135L128,135L136,137L138,137L138,137L140,129L140,127L143,125L144,125L144,124L144,123L142,116L143,114L142,111L142,106L140,106L137,105L133,102L120,96L123,93L118,94L112,101L109,101L108,104L108,106L105,106L104,109L106,113L109,116L108,125L108,126L108,126Z " data-fips="UV58" data-fips-="UV27" data-iso3="BFA" data-name="Kossi" data-p="KOS"/><path d="M165,158L163,158L160,156L157,156L154,155L152,156L152,158L154,161L158,162L157,165L153,164L150,164L149,161L141,160L139,164L138,164L135,168L136,170L136,170L138,171L140,172L148,180L150,184L153,183L160,179L166,181L169,181L169,187L169,191L168,192L168,193L167,194L168,194L170,194L170,194L171,194L173,190L178,190L180,189L182,186L177,182L176,178L176,177L176,177L172,171L168,170L165,169L170,166L168,162L168,159L166,158L166,157L165,158Z " data-fips="UV63" data-fips-="UV29|UV45" data-iso3="BFA" data-name="Bal" data-p="BAL"/><path d="M169,142L164,144L157,140L156,136L152,135L152,129L147,130L144,125L144,125L143,125L140,127L140,129L138,137L138,137L138,138L133,140L130,144L126,152L122,156L121,158L120,162L119,161L119,162L119,162L120,163L120,164L120,166L120,166L120,166L130,172L132,171L136,170L136,170L136,170L135,168L138,164L139,164L141,160L149,161L150,164L153,164L157,165L158,162L154,161L152,158L152,156L154,155L157,156L160,156L163,158L165,158L166,157L166,157L171,154L169,149L168,148L168,145L170,143L170,143L169,142Z " data-fips="UV63" data-fips-="UV29" data-iso3="BFA" data-name="Mou Houn" data-p="MOU"/><path d="M250,33L253,36L257,40L260,43L261,48L264,51L268,55L268,60L270,63L271,64L273,64L282,63L285,61L295,62L300,56L302,52L304,50L304,50L302,45L305,37L304,32L305,29L288,23L285,22L283,22L278,25L276,21L264,21L263,22L259,25L250,33Z " data-fips="UV33" data-fips-="" data-iso3="BFA" data-name="Oudalan" data-p="OUD"/><path d="M250,33L238,36L236,37L221,47L208,48L206,61L204,62L207,66L214,70L213,74L217,80L219,82L221,78L228,74L229,77L231,79L237,81L237,82L239,81L245,81L258,77L264,74L267,71L267,71L268,71L269,71L270,70L271,64L271,64L270,63L268,60L268,55L264,51L261,48L260,43L257,40L253,36L250,33L250,33Z " data-fips="UV40" data-fips-="" data-iso3="BFA" data-name="Soum" data-p="SOM"/><path d="M175,117L172,119L164,116L163,116L154,114L151,115L149,117L147,119L144,123L144,124L144,125L144,125L147,130L152,129L152,135L156,136L157,140L164,144L169,142L170,143L173,140L175,137L174,132L177,128L179,126L177,125L176,122L176,119L177,118L175,117Z " data-fips="UV73" data-fips-="UV41|UV66" data-iso3="BFA" data-name="Nayala" data-p="NAY"/><path d="M142,106L142,111L143,114L142,116L144,123L144,124L144,123L147,119L149,117L151,115L154,114L163,116L164,116L172,119L175,117L177,118L177,117L177,116L177,116L176,114L183,110L188,103L182,102L181,101L181,100L176,91L168,87L166,85L165,86L160,87L160,85L155,84L153,82L151,89L152,101L143,103L143,106L142,106Z " data-fips="UV73" data-fips-="UV41" data-iso3="BFA" data-name="Sourou" data-p="SOR"/><path d="M237,81L231,79L229,77L228,74L221,78L219,82L219,82L213,87L213,89L213,90L214,94L216,102L217,102L219,106L219,109L218,109L219,110L223,114L226,115L229,115L229,115L229,114L230,110L232,109L238,109L238,106L239,102L236,96L239,86L238,84L237,82L237,81Z " data-fips="UV15" data-fips-="" data-iso3="BFA" data-name="Bam" data-p="BAM"/><path d="M209,130L206,128L196,129L194,130L193,131L193,131L197,132L195,136L190,140L188,140L189,150L186,153L187,155L185,158L190,162L196,162L195,164L195,164L196,164L197,164L198,164L205,161L205,161L205,160L208,157L208,155L211,154L212,154L213,153L216,148L215,147L215,145L215,145L214,145L205,148L204,147L206,140L207,139L212,140L215,135L210,130L209,129L209,130Z " data-fips="UV19" data-fips-="" data-iso3="BFA" data-name="Boulkiemd" data-p="BLK"/><path d="M225,128L223,127L222,123L220,120L219,119L213,121L210,124L209,129L209,129L210,130L215,135L212,140L207,139L206,140L204,147L205,148L214,145L215,145L215,144L221,142L219,135L224,133L224,130L225,130L225,128Z " data-fips="UV53" data-fips-="UV19|UV60" data-iso3="BFA" data-name="Kourwogo" data-p="KOW"/><path d="M247,153L240,154L237,154L233,155L231,152L226,153L226,154L214,156L212,154L211,154L208,155L208,157L205,160L205,161L206,162L212,164L216,164L223,171L229,174L232,177L235,179L235,179L237,175L242,166L248,164L254,166L256,166L256,165L255,163L249,154L248,153L248,152L247,153Z " data-fips="UV47" data-fips-="UV16" data-iso3="BFA" data-name="Bazga" data-p="BAZ"/><path d="M245,149L239,144L240,142L239,138L237,138L233,139L230,139L230,136L230,135L226,136L225,130L225,130L224,130L224,133L219,135L221,142L215,144L215,145L215,145L215,147L216,148L213,153L212,154L214,156L226,154L226,153L231,152L233,155L237,154L240,154L247,153L248,152L248,151L248,150L248,150L247,149L247,149L245,149Z " data-fips="UV53" data-fips-="UV24" data-iso3="BFA" data-name="Kadiogo" data-p="KAD"/><path d="M226,120L225,119L223,118L222,118L219,119L220,120L222,123L223,127L225,128L225,130L225,130L226,136L230,135L230,136L230,139L233,139L237,138L239,138L240,142L239,144L245,149L247,149L247,149L246,145L250,137L255,139L258,138L258,137L257,136L255,135L252,131L247,130L245,132L244,128L239,124L237,124L235,121L230,121L227,120L227,119L226,120Z " data-fips="UV68" data-fips-="UV32" data-iso3="BFA" data-name="Oubritenga" data-p="OUB"/><path d="M217,110L215,110L213,108L210,112L206,113L202,112L201,112L200,112L197,111L189,116L184,116L178,116L177,116L177,116L177,117L177,118L176,119L176,122L177,125L179,126L180,125L185,124L184,128L189,128L187,131L191,131L193,131L193,131L194,130L196,129L206,128L209,130L209,129L209,129L210,124L213,121L219,119L222,118L223,118L225,119L226,120L227,119L227,119L228,117L229,115L229,115L226,115L223,114L219,110L218,109L217,110Z " data-fips="UV34" data-fips-="" data-iso3="BFA" data-name="Passor" data-p="PAS"/><path d="M200,111L203,107L203,106L204,103L202,99L200,100L188,98L184,100L182,101L181,101L182,102L188,103L183,110L176,114L177,116L178,116L184,116L189,116L197,111L200,112L201,112L200,111Z " data-fips="UV34" data-fips-="UV78" data-iso3="BFA" data-name="Zondoma" data-p="ZON"/><path d="M193,131L191,131L187,131L189,128L184,128L185,124L180,125L179,126L177,128L174,132L175,137L173,140L170,143L170,143L168,145L168,148L169,149L171,154L166,157L166,157L166,158L168,159L168,162L170,166L165,169L168,170L172,171L176,177L176,177L177,177L180,177L181,174L183,169L188,166L194,165L195,164L195,164L196,162L190,162L185,158L187,155L186,153L189,150L188,140L190,140L195,136L197,132L193,131L193,131L193,131Z " data-fips="UV36" data-fips-="" data-iso3="BFA" data-name="Sangui" data-p="SNG"/><path d="M196,164L195,164L194,165L188,166L183,169L181,174L180,177L177,177L176,177L176,178L177,182L182,186L180,189L178,190L173,190L171,194L170,194L171,195L173,198L174,197L178,200L174,206L224,206L225,205L225,205L232,205L232,205L230,202L222,199L224,191L224,191L223,190L221,189L219,190L215,192L214,192L210,189L205,192L198,182L192,181L191,178L191,173L196,172L196,166L196,164Z " data-fips="UV72" data-fips-="UV39" data-iso3="BFA" data-name="Sissili" data-p="SIS"/><path d="M235,179L232,177L229,174L223,171L216,164L212,164L206,162L205,161L205,161L198,164L197,164L196,164L196,166L196,172L191,173L191,178L192,181L198,182L205,192L210,189L214,192L215,192L219,190L221,189L223,190L224,191L225,190L228,189L230,187L235,183L237,181L235,179L235,179Z " data-fips="UV72" data-fips-="UV39|UV77" data-iso3="BFA" data-name="Ziro" data-p="ZIR"/><path d="M178,63L184,70L187,69L189,67L196,71L196,73L199,76L198,78L201,85L202,91L211,91L213,90L213,89L213,87L219,82L219,82L217,80L213,74L214,70L207,66L204,62L203,63L201,62L191,57L187,57L180,60L178,63Z " data-fips="UV15" data-fips-="UV43|UV62" data-iso3="BFA" data-name="Loroum" data-p="LOR"/><path d="M177,64L171,67L167,80L168,85L166,85L168,87L176,91L181,100L181,101L182,101L184,100L188,98L200,100L202,99L204,103L203,106L203,107L200,111L201,112L202,112L206,113L210,112L213,108L215,110L217,110L218,109L219,109L219,106L217,102L216,102L214,94L213,90L211,91L202,91L201,85L198,78L199,76L196,73L196,71L189,67L187,69L184,70L178,63L177,64Z " data-fips="UV76" data-fips-="UV43" data-iso3="BFA" data-name="Yatenga" data-p="YAT"/><path d="M285,91L286,87L279,86L276,82L275,78L269,74L269,73L267,75L266,82L262,86L262,89L265,96L267,104L265,112L265,114L263,117L260,115L260,117L261,120L265,127L266,130L266,130L267,131L268,134L268,137L268,138L269,138L276,139L278,139L286,135L287,133L285,129L286,125L282,122L279,116L279,112L282,107L281,105L283,99L282,97L286,93L285,93L285,91Z " data-fips="UV64" data-fips-="UV30" data-iso3="BFA" data-name="Namentenga" data-p="NAM"/><path d="M268,73L268,73L267,72L267,71L267,71L264,74L258,77L245,81L239,81L237,82L238,84L239,86L236,96L239,102L238,106L238,109L232,109L230,110L229,114L229,115L228,117L227,119L227,119L227,120L230,121L235,121L237,124L239,124L244,128L245,132L247,130L252,131L255,135L257,136L258,137L259,136L262,134L263,130L264,130L266,130L265,127L261,120L260,117L260,115L263,117L265,114L265,112L267,104L265,96L262,89L262,86L266,82L267,75L269,73L268,73Z " data-fips="UV70" data-fips-="UV37" data-iso3="BFA" data-name="Sanmatenga" data-p="SMT"/><path d="M260,168L257,171L254,175L257,179L262,182L264,181L267,182L271,186L271,189L262,193L261,197L260,197L261,198L262,200L264,202L264,206L264,206L267,210L268,207L273,206L275,202L281,201L282,199L288,200L290,200L295,191L290,191L288,190L289,184L289,180L292,175L297,173L297,172L297,172L297,171L296,168L294,167L291,164L290,164L290,164L285,168L284,170L278,169L275,165L275,162L275,161L274,161L270,161L269,162L262,168L260,168Z " data-fips="UV49" data-fips-="UV18" data-iso3="BFA" data-name="Boulgou" data-p="BLG"/><path d="M297,172L297,172L297,173L292,175L289,180L289,184L288,190L290,191L295,191L290,200L312,205L314,200L316,202L320,197L319,191L321,189L318,179L319,176L315,176L308,172L305,172L302,171L298,172L297,172Z " data-fips="UV49" data-fips-="UV18|UV59" data-iso3="BFA" data-name="Koulplogo" data-p="KOP"/><path d="M264,130L263,130L262,134L259,136L258,137L258,138L255,139L250,137L246,145L247,149L247,149L247,149L248,150L248,150L248,151L248,152L248,153L249,154L255,163L256,165L256,166L257,166L258,166L258,167L259,168L260,168L262,168L269,162L270,161L274,161L275,161L275,161L276,159L272,146L273,144L268,138L268,138L268,137L268,134L267,131L266,130L266,130L264,130Z " data-fips="UV50" data-fips-="UV20" data-iso3="BFA" data-name="Ganzourgou" data-p="GAN"/><path d="M288,149L289,145L289,143L285,139L286,135L278,139L276,139L269,138L268,138L268,138L273,144L272,146L276,159L275,161L275,161L275,162L275,165L278,169L284,170L285,168L290,164L290,164L290,163L291,158L296,156L296,155L292,151L291,150L288,149Z " data-fips="UV28" data-fips-="" data-iso3="BFA" data-name="Kouritenga" data-p="KOT"/><path d="M237,181L235,183L230,187L228,189L225,190L224,191L224,191L222,199L230,202L232,205L234,206L246,206L247,205L254,206L259,206L264,206L264,202L262,200L261,198L260,197L260,198L259,198L254,195L251,191L249,191L243,187L241,184L240,184L237,182L237,181Z " data-fips="UV65" data-fips-="UV31" data-iso3="BFA" data-name="Nahouri" data-p="NAO"/><path d="M254,166L248,164L242,166L237,175L235,179L237,181L237,182L240,184L241,184L243,187L249,191L251,191L254,195L259,198L260,198L260,197L261,197L262,193L271,189L271,186L267,182L264,181L262,182L257,179L254,175L257,171L260,168L259,168L258,167L258,166L257,166L256,166L254,166Z " data-fips="UV44" data-fips-="" data-iso3="BFA" data-name="Zoundwogo" data-p="ZOU"/><path d="M159,216L158,214L153,212L154,210L154,208L156,197L155,196L149,197L148,197L147,197L142,197L139,199L136,204L136,206L134,207L133,208L132,210L129,211L129,212L129,213L131,216L126,218L130,220L131,221L133,220L140,221L144,221L147,223L153,221L156,218L159,217L159,217L159,216Z " data-fips="UV48" data-fips-="UV17" data-iso3="BFA" data-name="Bougouriba" data-p="BGR"/><path d="M148,197L149,197L155,196L156,197L154,208L154,210L153,212L158,214L159,216L159,217L160,216L162,218L163,219L165,218L165,218L168,211L169,209L173,206L174,206L178,200L174,197L173,198L171,195L170,194L170,194L168,194L167,194L168,193L168,192L168,192L160,189L158,190L155,189L149,194L148,196L148,197Z " data-fips="UV48" data-fips-="UV17|UV52" data-iso3="BFA" data-name="Ioba" data-p="IOB"/><path d="M136,170L132,171L130,172L120,166L120,166L120,166L120,171L118,175L122,183L122,185L123,195L124,198L127,198L128,200L133,205L135,206L136,206L136,204L139,199L142,197L147,197L148,197L148,196L149,194L155,189L158,190L160,189L168,192L168,192L169,191L169,187L169,181L166,181L160,179L153,183L150,184L148,180L140,172L138,171L136,170L136,170Z " data-fips="UV51" data-fips-="UV17|UV74" data-iso3="BFA" data-name="Tuy" data-p="TUI"/><path d="M51,203L53,208L53,213L52,214L51,219L52,219L49,228L53,234L55,235L58,234L65,235L66,235L67,235L69,231L66,224L73,222L75,218L74,213L70,212L70,211L69,211L64,212L60,206L56,202L50,201L51,203Z " data-fips="UV54" data-fips-="UV26|UV61" data-iso3="BFA" data-name="Lraba" data-p="LER"/><path d="M70,211L70,212L74,213L75,218L73,222L66,224L69,231L67,235L67,235L67,239L71,245L73,246L73,249L75,254L79,255L81,256L82,261L86,263L89,261L98,265L100,268L102,267L103,263L110,258L114,258L120,255L121,254L121,253L117,249L117,248L123,245L127,240L127,234L130,229L131,221L131,221L130,220L126,218L131,216L129,213L129,212L127,212L124,215L124,217L120,218L116,217L113,214L109,215L105,218L99,214L94,210L87,214L84,212L82,210L82,209L81,209L81,209L77,209L72,210L70,211Z " data-fips="UV55" data-fips-="UV26" data-iso3="BFA" data-name="Komo" data-p="COM"/><path d="M159,217L159,217L156,218L153,221L147,223L144,221L140,221L133,220L131,221L131,221L130,229L127,234L127,240L123,245L117,248L117,249L121,253L121,254L121,254L131,252L134,254L137,253L147,257L149,256L155,258L157,263L160,262L165,271L169,277L172,277L175,274L171,267L170,264L173,258L172,251L170,249L170,242L168,236L169,233L171,232L169,231L166,227L165,222L165,218L165,218L163,219L162,218L160,216L159,217Z " data-fips="UV69" data-fips-="UV35" data-iso3="BFA" data-name="Poni" data-p="PON"/><path d="M321,117L321,115L314,108L309,106L299,93L298,90L298,89L296,90L295,91L288,90L286,92L285,93L286,93L282,97L283,99L281,105L282,107L279,112L279,116L282,122L286,125L285,129L287,133L286,135L285,139L289,143L289,145L288,149L291,150L292,150L294,147L302,144L306,144L308,143L311,141L311,140L309,135L309,127L307,125L309,120L316,122L319,120L320,118L321,118L321,117Z " data-fips="UV21" data-fips-="" data-iso3="BFA" data-name="Gnagna" data-p="GNA"/><path d="M344,116L343,115L340,115L338,112L338,112L332,115L327,117L321,118L321,118L320,118L319,120L316,122L309,120L307,125L309,127L309,135L311,140L311,141L311,141L316,138L321,141L324,146L327,145L330,141L331,141L334,135L338,133L341,130L351,126L351,126L353,123L344,116Z " data-fips="UV21" data-fips-="UV56" data-iso3="BFA" data-name="Komondjari" data-p="KMD"/><path d="M317,76L312,68L312,62L313,59L311,56L304,50L302,52L300,56L295,62L285,61L282,63L273,64L271,64L271,64L270,70L269,71L268,71L267,71L267,72L268,73L268,73L269,73L269,74L275,78L276,82L279,86L286,87L285,91L285,93L286,92L288,90L295,91L296,90L298,89L299,88L305,85L307,82L311,82L313,79L317,77L317,76Z " data-fips="UV71" data-fips-="UV38" data-iso3="BFA" data-name="Sno" data-p="SEN"/><path d="M317,77L313,79L311,82L307,82L305,85L299,88L298,89L298,90L299,93L309,106L314,108L321,115L321,117L321,118L321,118L327,117L332,115L338,112L338,101L340,99L346,101L347,99L350,99L346,98L342,95L339,91L335,88L330,87L329,85L322,84L318,77L317,77Z " data-fips="UV71" data-fips-="UV38|UV75" data-iso3="BFA" data-name="Yagha" data-p="YAG"/><path d="M353,123L351,126L351,127L350,136L348,142L349,146L348,150L349,153L354,154L353,166L350,173L350,174L350,174L350,178L351,180L358,185L358,185L365,186L368,188L378,186L381,187L384,187L393,178L399,170L401,166L399,163L387,147L387,143L394,142L393,134L388,129L382,128L377,133L363,131L353,123Z " data-fips="UV42" data-fips-="" data-iso3="BFA" data-name="Tapoa" data-p="TAP"/></g></svg>