<?xml version="1.0" encoding="UTF-8"?><!DOCTYPE svg  PUBLIC '-//W3C//DTD SVG 1.1//EN'  'http://www.w3.org/Graphics/SVG/1.1/DTD/svg11.dtd'><svg enable_background="new 0 0 450 301" height="301px" style="stroke-linejoin: round; stroke:#000; fill:#f6f3f0;" version="1.1" viewBox="0 0 450 301" width="450px" xmlns="http://www.w3.org/2000/svg" xmlns:xlink="http://www.w3.org/1999/xlink"><defs><style type="text/css"><![CDATA[path { fill-rule: evenodd; }
#context path { fill: #eee; stroke: #bbb; } ]]></style></defs><metadata><views><view h="301.0" padding="0.06" w="450"><proj id="laea" lat0="24.1365502997" lon0="90.4195764378"/><bbox h="78.94" w="58.76" x="969.96" y="965.99"/><llbbox lat0="-90" lat1="90" lon0="-180" lon1="180"/></view></views></metadata><g id="context"><path d="M294,251L295,247L294,243L290,242L291,248L294,251Z M291,236L291,234L289,234L288,237L289,240L291,236Z M259,220L260,215L259,212L256,204L255,224L259,220Z M277,211L273,202L272,200L270,206L273,211L275,212L277,211Z M243,224L245,221L247,210L247,206L241,199L238,191L235,188L231,190L234,200L237,203L239,208L239,213L232,226L235,226L243,224Z M237,184L234,180L233,181L238,186L237,184Z M170,228L170,234L178,242L181,242L186,237L188,233L188,227L186,219L187,216L190,229L191,239L195,234L199,232L201,229L204,221L203,215L204,211L209,207L205,214L205,219L207,228L212,224L218,221L213,228L212,234L216,237L219,237L222,233L225,226L235,217L236,212L235,208L230,201L228,194L229,187L233,186L230,183L230,179L235,176L235,169L232,166L226,165L221,161L233,162L235,154L236,161L238,169L237,178L238,181L245,195L250,201L259,200L262,199L266,194L270,191L273,187L273,191L275,195L283,205L287,214L290,214L288,218L289,221L292,234L297,243L297,251L299,267L305,276L310,285L311,285L308,272L306,270L304,261L305,258L308,255L311,254L320,260L323,262L322,246L321,231L321,229L320,226L319,209L317,196L312,186L311,185L310,178L310,166L306,149L303,150L292,150L292,160L286,165L285,168L286,177L282,181L279,183L276,182L274,180L273,175L268,173L268,178L266,177L263,164L259,155L259,151L262,139L267,134L269,130L275,131L278,128L285,125L288,127L290,126L293,118L299,116L300,112L303,103L304,94L305,93L311,95L313,95L314,90L310,87L303,83L296,80L284,81L272,82L264,80L254,80L241,81L228,81L220,80L204,75L203,75L201,71L202,62L201,49L202,44L198,34L196,32L192,35L193,38L191,41L187,42L176,37L173,32L172,27L171,24L166,22L165,24L167,28L167,30L161,30L155,28L155,25L152,21L148,17L144,14L142,15L142,19L145,21L142,26L132,37L129,46L136,51L141,55L145,61L150,65L158,65L160,71L165,75L163,79L157,80L144,79L141,90L138,93L131,92L127,101L126,105L131,112L134,113L137,112L141,116L146,118L152,119L155,122L154,135L148,150L149,153L156,161L154,168L155,170L163,173L160,180L162,189L163,199L165,204L168,216L168,224L170,228Z " data-iso="BGD"/><path d="M170,1L174,3L182,2L193,5L194,8L200,9L215,6L219,2L224,0L236,5L241,6L257,4L264,5L273,4L280,4L287,2L293,1L296,0L296,0L168,0L170,1Z " data-iso="BTN"/><path d="M390,933L388,937L382,925L379,925L379,919L381,917L387,914L389,916L392,926L390,933Z M383,909L378,913L376,911L381,906L383,909Z M369,885L365,885L363,881L366,879L369,885Z M373,877L370,874L369,871L371,869L373,869L372,872L373,877Z M355,868L353,870L351,867L353,863L355,868Z M338,827L334,826L334,824L338,822L339,825L338,827Z M324,762L323,763L318,762L318,757L317,753L324,746L326,750L327,755L324,762Z M332,723L330,724L328,723L330,721L330,717L332,719L332,723Z M347,692L349,699L344,694L347,692Z M333,654L331,657L331,651L333,650L333,654Z M334,716L331,716L327,708L326,702L325,700L328,697L330,689L336,680L333,678L333,669L335,663L334,658L337,653L338,648L337,646L339,637L339,631L342,625L348,622L349,629L346,632L349,636L346,643L343,645L340,650L344,655L345,669L343,673L340,674L340,684L340,686L335,695L335,697L336,711L334,716Z M9,1L14,3L20,1L25,-1L29,-1L31,2L32,8L37,10L43,8L48,10L53,11L72,19L74,19L85,14L88,20L96,23L102,21L111,22L120,20L126,23L129,21L133,7L133,3L131,-2L127,-10L126,-12L128,-25L130,-32L132,-36L134,-45L132,-47L133,-50L139,-51L145,-53L152,-57L161,-52L163,-46L162,-41L158,-30L159,-26L164,-19L159,-16L158,-14L162,-8L162,-4L165,-2L170,1L174,3L182,2L193,5L194,8L200,9L215,6L219,2L224,0L236,5L241,6L257,4L264,5L273,4L280,4L287,2L293,1L296,0L296,-1L293,-12L297,-19L293,-26L282,-26L276,-31L276,-34L278,-41L292,-40L297,-43L303,-45L310,-44L320,-50L321,-52L322,-59L329,-63L335,-68L339,-72L342,-81L344,-82L348,-84L361,-86L370,-91L375,-99L379,-99L386,-108L393,-111L399,-116L401,-115L405,-110L421,-107L426,-104L436,-109L436,-112L443,-117L456,-124L460,-121L463,-116L469,-114L461,-107L463,-99L470,-105L473,-106L480,-93L473,-86L470,-82L473,-74L475,-76L482,-79L484,-79L489,-75L497,-74L501,-76L504,-75L510,-70L511,-63L513,-61L512,-55L509,-54L496,-42L496,-32L505,-19L505,-17L503,-16L496,-20L492,-25L487,-27L462,-20L456,-12L449,-7L438,2L432,7L427,8L424,10L422,16L421,22L422,29L425,36L421,43L420,49L412,61L407,64L405,67L402,76L409,81L409,83L404,97L401,103L392,118L386,139L381,138L367,133L357,134L353,130L351,133L354,144L356,149L355,165L354,174L352,179L345,181L346,185L342,194L346,211L344,218L342,218L338,228L333,227L329,223L326,222L323,227L321,229L320,226L319,209L317,196L312,186L311,185L310,178L310,166L306,149L303,150L292,150L292,160L286,165L285,168L286,177L282,181L279,183L276,182L274,180L273,175L268,173L268,178L266,177L263,164L259,155L259,151L262,139L267,134L269,130L275,131L278,128L285,125L288,127L290,126L293,118L299,116L300,112L303,103L304,94L305,93L311,95L313,95L314,90L310,87L303,83L296,80L284,81L272,82L264,80L254,80L241,81L228,81L220,80L204,75L203,75L201,71L202,62L201,49L202,44L198,34L196,32L192,35L193,38L191,41L187,42L176,37L173,32L172,27L171,24L166,22L165,24L167,28L167,30L161,30L155,28L155,25L152,21L148,17L144,14L142,15L142,19L145,21L142,26L132,37L129,46L136,51L141,55L145,61L150,65L158,65L160,71L165,75L163,79L157,80L144,79L141,90L138,93L131,92L127,101L126,105L131,112L134,113L137,112L141,116L146,118L152,119L155,122L154,135L148,150L149,153L156,161L154,168L155,170L163,173L160,180L162,189L163,199L165,204L168,216L168,224L167,231L164,231L167,236L168,245L162,245L160,240L159,244L155,248L152,241L155,228L151,225L151,223L147,236L148,242L148,244L142,246L136,241L133,246L128,245L125,242L131,226L131,221L123,215L120,210L121,216L130,222L125,228L120,236L115,240L108,244L88,248L83,250L77,257L72,262L71,269L74,275L75,286L77,288L75,291L71,295L67,301L67,305L55,312L50,319L46,317L44,317L47,320L43,324L27,329L14,333L11,333L14,330L14,325L9,323L-0,329L-4,336L-1,337L5,333L8,336L-1,341L-22,358L-23,362L-26,366L-30,369L-36,378L-49,391L-53,396L-73,405L-77,408L-86,418L-94,426L-105,432L-122,440L-133,448L-136,453L-134,463L-139,473L-144,476L-161,482L-177,480L-183,481L-185,484L-190,498L-195,501L-198,507L-205,506L-206,501L-212,500L-224,504L-229,507L-238,525L-241,536L-240,549L-237,560L-237,564L-238,570L-241,577L-239,584L-236,593L-236,602L-233,611L-235,609L-236,605L-240,600L-244,605L-242,608L-234,613L-232,617L-239,648L-243,659L-248,666L-251,668L-257,679L-262,693L-263,698L-261,705L-266,710L-261,710L-259,716L-260,736L-262,757L-266,758L-276,756L-282,756L-286,758L-289,762L-289,769L-302,784L-305,789L-306,795L-302,800L-290,804L-286,805L-284,808L-293,805L-304,803L-330,809L-337,814L-341,818L-344,829L-345,836L-348,841L-362,849L-371,851L-374,854L-384,850L-394,841L-399,836L-414,814L-417,812L-419,803L-420,799L-423,795L-426,785L-427,775L-428,763L-426,764L-424,768L-423,773L-423,781L-419,782L-423,763L-429,758L-430,755L-429,750L-433,744L-434,740L-440,721L-443,708L-448,694L-451,688L-456,677L-460,671L-465,664L-470,659L-479,634L-482,621L-484,614L-485,609L-488,589L-488,581L-490,572L-494,563L-495,555L-497,545L-498,541L-504,530L-509,521L-515,512L-517,501L-520,496L-514,497L-521,488L-518,484L-522,484L-524,481L-527,473L-532,464L-532,459L-536,444L-537,409L-540,393L-539,389L-542,375L-544,366L-544,358L-545,353L-545,333L-540,327L-539,322L-539,316L-543,322L-546,324L-547,318L-546,308L-538,310L-546,305L-545,298L-548,295L-548,286L-549,283L-546,271L-536,249L-535,244L-535,237L-536,231L-539,222L-541,220L-543,210L-541,206L-543,206L-534,199L-524,197L-520,195L-526,196L-532,196L-545,194L-541,186L-536,182L-544,181L-542,173L-538,171L-530,171L-539,167L-545,168L-550,166L-557,166L-552,170L-555,177L-559,179L-562,181L-565,186L-560,189L-557,194L-558,201L-567,214L-570,217L-590,223L-598,227L-615,231L-621,231L-628,229L-637,223L-651,209L-655,204L-665,187L-672,178L-678,169L-685,161L-691,150L-692,145L-691,141L-688,139L-685,140L-680,147L-667,143L-663,144L-659,142L-656,143L-647,140L-640,140L-632,129L-626,123L-623,121L-623,117L-626,118L-630,123L-634,121L-652,124L-657,127L-660,128L-677,121L-694,108L-700,101L-703,92L-707,81L-705,79L-690,71L-695,72L-705,75L-709,79L-714,79L-715,66L-705,63L-701,63L-691,65L-689,51L-685,49L-684,52L-681,51L-678,52L-675,52L-654,56L-648,62L-635,63L-632,59L-623,57L-612,55L-612,62L-608,64L-602,64L-598,61L-594,61L-591,59L-594,55L-593,49L-589,46L-594,27L-596,20L-599,14L-601,9L-599,-1L-602,-5L-605,-4L-612,-5L-615,-7L-620,-17L-620,-25L-617,-31L-614,-43L-617,-49L-623,-50L-630,-53L-635,-57L-639,-63L-634,-78L-632,-80L-617,-92L-609,-101L-604,-108L-596,-113L-592,-114L-589,-114L-584,-109L-584,-104L-579,-97L-576,-97L-562,-101L-558,-101L-547,-100L-533,-103L-532,-107L-529,-112L-520,-119L-518,-122L-511,-135L-509,-137L-485,-147L-473,-161L-468,-169L-459,-187L-441,-192L-436,-197L-436,-207L-431,-211L-421,-221L-415,-226L-414,-226L-403,-232L-403,-235L-406,-237L-406,-239L-401,-252L-403,-264L-397,-271L-393,-274L-379,-279L-371,-280L-368,-283L-368,-288L-371,-291L-380,-296L-387,-297L-392,-305L-390,-312L-402,-314L-404,-316L-402,-321L-406,-326L-412,-333L-413,-338L-407,-344L-405,-349L-406,-351L-411,-357L-409,-363L-406,-365L-400,-366L-398,-369L-403,-372L-409,-374L-407,-384L-408,-387L-412,-389L-413,-391L-404,-403L-391,-407L-367,-398L-358,-397L-348,-391L-343,-388L-339,-388L-333,-390L-325,-394L-320,-394L-309,-397L-304,-395L-299,-397L-295,-402L-287,-405L-284,-411L-253,-425L-250,-423L-244,-424L-247,-413L-245,-408L-240,-385L-238,-382L-225,-377L-216,-368L-215,-366L-217,-361L-225,-356L-225,-355L-225,-343L-226,-329L-221,-321L-215,-315L-214,-313L-216,-306L-213,-302L-214,-281L-218,-280L-221,-276L-227,-275L-229,-278L-234,-287L-245,-286L-246,-286L-245,-279L-245,-274L-244,-270L-236,-257L-238,-250L-238,-247L-235,-241L-238,-235L-237,-233L-237,-226L-232,-228L-229,-227L-227,-231L-224,-230L-216,-216L-207,-207L-198,-208L-187,-198L-185,-198L-183,-197L-183,-193L-184,-188L-181,-187L-168,-181L-162,-176L-153,-170L-153,-166L-157,-167L-166,-159L-172,-155L-179,-148L-183,-141L-186,-134L-186,-129L-188,-123L-192,-119L-196,-109L-182,-96L-180,-95L-178,-98L-175,-97L-169,-91L-153,-80L-147,-73L-141,-67L-126,-57L-118,-58L-109,-50L-102,-46L-95,-46L-93,-46L-91,-38L-68,-30L-62,-34L-57,-34L-46,-29L-43,-32L-35,-34L-29,-31L-14,-24L-12,-14L-11,-12L-1,-6L2,-4L8,-2L9,1Z " data-iso="IND"/><path d="M438,2L432,7L427,8L424,10L422,16L421,22L422,29L425,36L421,43L420,49L412,61L407,64L405,67L402,76L409,81L409,83L404,97L401,103L392,118L386,139L381,138L367,133L357,134L353,130L351,133L354,144L356,149L355,165L354,174L352,179L345,181L346,185L342,194L346,211L344,218L342,218L338,228L333,227L329,223L326,222L323,227L321,229L321,231L322,246L323,262L320,260L311,254L308,255L305,258L304,261L306,270L308,272L311,285L313,288L323,299L329,299L328,295L329,295L331,299L450,299L450,0L441,0L438,2Z " data-iso="MMR"/><path d="M31,2L32,8L37,10L43,8L48,10L53,11L72,19L74,19L85,14L88,20L96,23L102,21L111,22L120,20L126,23L129,21L133,7L133,3L132,0L29,0L31,2Z M9,1L14,3L20,1L22,0L8,0L9,1Z " data-iso="NPL"/></g><g fill="red" fill-opacity="0.35" id="regions"><path d="M233,166L228,164L230,166L233,166Z M201,70L200,70L199,73L199,77L197,79L195,86L196,95L201,101L199,113L201,133L197,136L196,139L197,142L191,144L189,144L182,139L182,139L182,141L182,142L180,148L182,150L185,150L189,157L188,159L193,161L194,168L194,171L196,171L197,174L199,174L196,176L198,178L203,186L206,188L206,188L208,188L210,186L216,179L219,180L221,183L223,179L228,181L229,180L229,179L234,178L235,175L236,171L234,168L226,165L221,161L233,164L234,161L234,155L236,154L235,157L235,159L239,158L239,156L240,156L242,150L240,148L242,142L246,141L248,142L250,139L254,131L253,130L254,127L255,125L258,124L259,123L259,123L262,119L261,116L262,115L261,110L260,106L262,104L258,99L257,94L252,95L251,94L248,89L250,85L249,81L245,82L236,80L234,81L222,80L215,79L206,75L201,71L201,70Z " data-fips="BG81" data-fips-="BG32" data-iso3="BGD" data-name="Dhaka" data-p="C"/><path d="M172,241L172,239L168,238L170,241L172,241Z M156,126L153,131L154,132L153,140L149,141L148,146L147,151L148,153L151,155L157,160L153,168L154,170L157,171L163,172L164,173L161,177L161,185L162,187L164,189L162,194L164,201L164,202L166,208L166,210L166,215L169,219L169,221L169,225L170,228L169,233L170,237L174,238L175,242L175,244L177,245L179,244L178,237L179,237L182,232L181,231L182,239L186,239L189,230L187,227L188,227L187,222L187,224L186,218L187,215L187,220L189,224L189,229L190,229L191,223L192,222L190,230L191,233L189,240L191,243L194,240L196,240L193,235L194,232L194,234L197,237L200,237L204,234L203,227L203,225L203,219L202,216L204,212L204,209L207,208L209,207L208,202L205,197L205,195L206,194L207,189L206,188L206,188L203,186L198,178L196,176L199,174L197,174L196,171L194,171L194,168L193,161L188,159L189,157L185,150L182,150L180,148L182,142L182,141L182,139L181,138L175,138L170,135L170,134L166,128L156,128L156,126L156,126Z " data-fips="BG82" data-fips-="BG46" data-iso3="BGD" data-name="Khulna" data-p="D"/><path d="M235,232L235,229L232,232L232,235L235,232Z M224,236L225,229L223,234L224,236Z M228,233L230,230L228,226L227,227L228,233Z M236,221L231,224L231,227L233,229L236,221Z M252,215L251,214L251,216L252,215Z M245,222L246,220L247,206L244,203L243,200L240,198L238,192L234,193L234,200L238,204L239,216L237,220L237,223L235,227L239,224L237,228L239,228L240,226L243,225L245,222Z M235,187L230,188L230,192L232,196L233,193L239,190L239,190L235,187Z M237,183L234,180L231,183L238,186L237,183Z M230,181L231,179L229,179L230,181Z M206,188L207,189L206,194L205,195L205,197L208,202L209,207L209,207L209,208L205,213L204,217L205,219L206,226L206,229L209,229L209,227L212,221L213,221L209,228L211,229L216,223L211,231L212,236L215,232L213,237L216,238L219,237L221,235L223,229L226,222L226,224L228,225L231,220L235,218L236,214L236,210L235,208L236,207L234,202L230,201L229,205L230,201L232,200L230,194L225,193L232,187L229,181L229,180L228,181L223,179L221,183L219,180L216,179L210,186L208,188L206,188Z " data-fips="BG85" data-fips-="BG|" data-iso3="BGD" data-name="Barisal" data-p="A"/><path d="M294,242L292,239L290,241L291,250L290,250L295,251L295,251L294,242Z M289,241L291,234L289,233L289,240L289,241Z M254,224L260,219L260,212L259,210L256,207L255,220L254,224Z M277,210L276,206L272,200L270,204L271,208L273,211L275,212L277,210Z M259,123L258,124L255,125L254,127L253,130L254,131L250,139L248,142L246,141L242,142L240,148L242,150L240,156L240,156L236,160L236,166L237,167L238,170L237,173L237,180L240,185L244,194L245,196L251,202L254,200L261,201L264,199L260,195L265,196L270,193L270,192L274,186L273,193L276,196L282,203L285,211L286,216L292,208L290,213L288,214L288,220L290,223L291,230L292,235L292,238L295,239L296,245L298,245L297,252L295,254L298,261L299,268L302,273L305,275L306,278L310,286L311,287L308,276L308,272L306,271L304,267L307,255L310,253L312,254L313,257L315,258L319,258L321,263L324,260L323,255L321,240L320,225L319,222L321,220L318,205L317,196L313,187L312,186L310,173L311,168L308,161L306,148L305,148L304,151L302,147L296,152L292,148L293,158L291,161L287,163L285,167L285,172L287,178L282,182L276,183L274,180L272,173L269,170L268,170L269,177L267,178L265,175L265,165L262,159L261,159L258,152L260,151L258,148L261,146L262,143L261,140L263,137L265,135L265,135L264,128L266,124L266,124L262,125L259,123Z " data-fips="BG80" data-fips-="BG" data-iso3="BGD" data-name="Chittagong" data-p="B"/><path d="M249,81L250,85L248,89L251,94L252,95L257,94L258,99L262,104L260,106L261,110L262,115L261,116L262,119L259,123L259,123L262,125L266,124L266,124L264,128L265,135L266,136L267,132L270,130L276,131L278,130L280,125L282,128L283,125L288,128L290,127L291,123L290,120L293,118L299,116L299,111L301,109L305,98L304,94L305,92L311,95L313,95L315,91L311,88L310,86L304,84L296,80L286,80L276,81L270,82L262,79L250,81L249,81Z " data-fips="BG86" data-fips-="" data-iso3="BGD" data-name="Sylhet" data-p="G"/><path d="M156,126L156,128L166,128L170,134L170,135L175,138L181,138L182,139L182,139L189,144L191,144L197,142L196,139L197,136L201,133L199,113L201,101L196,95L195,86L197,79L199,77L199,73L200,70L201,70L201,69L203,59L201,50L203,45L199,40L198,35L195,31L192,38L193,38L190,44L173,35L171,27L170,24L168,22L164,22L164,25L170,30L163,28L161,31L157,28L154,29L155,27L154,22L148,19L146,16L144,16L143,12L142,12L141,19L146,21L147,23L144,24L141,26L140,30L136,32L132,35L132,38L129,45L131,51L137,51L139,54L143,57L143,60L149,65L153,66L157,65L160,67L159,70L161,73L166,76L159,79L159,80L152,79L143,80L143,87L139,94L134,90L130,92L126,103L128,107L128,109L130,111L142,117L148,120L153,119L156,121L156,125L156,126Z " data-fips="BG83" data-fips-="BG70" data-iso3="BGD" data-name="Rajshahi" data-p="E"/></g></svg>