<?xml version="1.0" encoding="UTF-8"?><!DOCTYPE svg  PUBLIC '-//W3C//DTD SVG 1.1//EN'  'http://www.w3.org/Graphics/SVG/1.1/DTD/svg11.dtd'><svg enable_background="new 0 0 450 301" height="301px" style="stroke-linejoin: round; stroke:#000; fill:#f6f3f0;" version="1.1" viewBox="0 0 450 301" width="450px" xmlns="http://www.w3.org/2000/svg" xmlns:xlink="http://www.w3.org/1999/xlink"><defs><style type="text/css"><![CDATA[path { fill-rule: evenodd; }
#context path { fill: #eee; stroke: #bbb; } ]]></style></defs><metadata><views><view h="301.0" padding="0.06" w="450"><proj id="laea" lat0="42.5971159938" lon0="26.2252836032"/><bbox h="44.31" w="63.48" x="961.2" y="975.81"/><llbbox lat0="-90" lat1="90" lon0="-180" lon1="180"/></view></views></metadata><g id="context"><path d="M63,22L60,24L58,26L56,29L56,35L48,40L45,41L43,44L41,53L41,59L42,66L45,69L47,75L48,82L51,87L63,96L69,105L75,110L75,114L68,124L64,127L58,135L49,135L43,138L41,142L43,145L43,149L41,155L42,163L46,168L45,171L39,180L34,181L43,194L48,199L54,203L61,207L63,209L67,223L69,228L73,233L69,242L67,263L66,264L73,265L81,266L86,261L94,261L98,260L105,261L111,262L119,260L126,256L136,255L137,251L148,251L158,251L164,249L166,249L169,256L182,266L187,263L196,265L204,270L212,276L220,274L229,271L241,270L245,269L254,270L263,267L267,264L268,260L268,253L266,246L263,240L265,236L271,234L279,237L278,234L281,229L290,227L295,217L297,216L301,216L308,215L313,213L319,211L321,208L332,206L336,205L339,206L350,217L354,219L362,215L370,216L372,214L375,213L383,214L381,208L371,195L364,183L360,179L350,173L366,153L370,152L374,150L374,127L376,113L382,106L388,95L399,93L408,95L414,86L415,66L393,64L382,60L372,46L363,49L359,46L353,44L345,44L326,34L324,32L310,34L288,39L272,46L255,57L248,66L240,70L229,74L208,72L165,62L152,65L136,62L111,56L93,54L74,56L71,54L71,51L71,47L74,44L79,41L81,39L81,36L77,32L67,26L63,22Z " data-iso="BGR"/><path d="M279,237L271,234L265,236L263,240L266,246L268,253L268,260L267,264L263,267L254,270L245,269L241,270L229,271L220,274L212,276L204,270L196,265L187,263L182,266L169,256L166,249L164,249L158,251L148,251L137,251L136,255L126,256L119,260L111,262L105,261L98,260L94,261L86,261L81,266L73,265L66,264L62,264L58,264L56,266L53,277L46,280L39,281L33,281L23,277L19,277L16,278L7,279L3,281L0,285L0,299L195,299L202,296L207,299L280,299L281,293L279,291L279,276L292,268L296,267L298,263L297,254L295,246L293,246L284,238L279,237Z " data-iso="GRC"/><path d="M66,264L67,263L69,242L73,233L69,228L67,223L63,209L61,207L54,203L48,199L43,194L34,181L32,181L28,177L22,180L16,181L11,180L7,179L0,181L0,285L3,281L7,279L16,278L19,277L23,277L33,281L39,281L46,280L53,277L56,266L58,264L62,264L66,264Z " data-iso="MKD"/><path d="M63,22L67,26L77,32L81,36L81,39L79,41L74,44L71,47L71,51L71,54L74,56L93,54L111,56L136,62L152,65L165,62L208,72L229,74L240,70L248,66L255,57L272,46L288,39L310,34L324,32L326,34L345,44L353,44L359,46L363,49L372,46L382,60L393,64L415,66L415,61L418,46L417,20L420,13L429,2L429,0L52,0L51,5L53,10L56,14L60,16L62,18L62,21L63,22Z " data-iso="ROU"/><path d="M34,181L39,180L45,171L46,168L42,163L41,155L43,149L43,145L41,142L43,138L49,135L58,135L64,127L68,124L75,114L75,110L69,105L63,96L51,87L48,82L47,75L45,69L42,66L41,59L41,53L43,44L45,41L48,40L56,35L56,29L58,26L60,24L63,22L62,21L62,18L60,16L56,14L53,10L51,5L52,0L0,0L0,181L7,179L11,180L16,181L22,180L28,177L32,181L34,181Z " data-iso="SRB"/><path d="M383,214L375,213L372,214L370,216L362,215L354,219L350,217L339,206L336,205L332,206L321,208L319,211L313,213L308,215L301,216L297,216L295,217L290,227L281,229L278,234L279,237L284,238L293,246L295,246L297,254L298,263L296,267L292,268L279,276L279,291L281,293L280,299L352,299L353,298L368,294L380,296L389,290L395,288L403,289L433,296L444,293L447,288L449,282L450,274L443,273L405,256L396,249L386,234L382,224L383,214Z " data-iso="TUR"/></g><g fill="red" fill-opacity="0.35" id="regions"><path d="M292,130L289,128L284,129L281,127L276,127L275,130L271,134L269,134L268,137L263,141L262,145L257,148L253,147L250,148L247,148L248,153L250,159L251,163L252,166L248,168L252,172L251,175L256,187L257,190L257,196L260,200L265,200L267,200L269,198L270,195L269,191L273,183L270,182L269,179L273,178L273,175L274,174L277,176L280,175L282,170L282,167L284,166L289,166L292,165L297,162L300,158L299,155L297,156L295,157L290,154L289,152L294,149L294,145L295,144L293,140L294,138L294,136L293,133L294,131L292,130Z " data-fips="BU39" data-fips-="BU31|BU56" data-iso3="BGR" data-name="Sliven" data-p="20"/><path d="M217,202L216,202L215,202L214,205L216,215L214,219L211,221L210,223L212,228L215,229L221,225L222,230L224,231L230,231L233,233L236,238L234,243L240,244L245,241L247,242L248,245L251,248L253,249L259,243L262,243L262,242L262,239L265,236L270,235L272,234L277,237L279,237L279,232L279,230L282,228L288,228L291,228L293,223L293,223L292,224L287,220L287,217L286,215L284,215L281,217L280,214L279,213L273,212L268,209L265,210L262,211L256,204L251,203L247,206L244,208L238,202L235,202L235,198L233,197L230,199L228,198L226,199L223,204L220,203L217,202Z " data-fips="BU43" data-fips-="BU31" data-iso3="BGR" data-name="Haskovo" data-p="26"/><path d="M246,148L242,147L240,148L237,149L236,149L236,151L235,151L232,148L230,150L225,150L222,151L215,149L213,151L211,148L208,148L202,150L198,150L198,153L199,159L197,161L200,169L202,171L207,170L208,172L207,175L209,178L209,179L206,178L204,179L205,186L206,189L202,191L202,193L202,197L207,201L212,198L216,200L217,202L220,203L223,204L226,199L228,198L230,199L233,197L235,198L235,202L238,202L244,208L247,206L251,203L256,204L262,211L265,210L268,209L268,207L267,205L267,200L265,200L260,200L257,196L257,190L256,187L251,175L252,172L248,168L252,166L251,163L250,159L248,153L247,148L246,148Z " data-fips="BU43" data-fips-="BU31|BU59" data-iso3="BGR" data-name="Stara Zagora" data-p="24"/><path d="M160,164L154,161L154,160L150,159L146,161L144,163L138,165L134,163L130,164L133,171L135,173L138,173L139,174L138,177L133,178L132,182L134,188L133,189L130,186L129,187L128,189L126,192L123,193L122,196L121,196L121,198L124,200L124,202L123,206L124,207L122,209L120,213L122,219L122,222L124,226L127,228L129,228L130,230L137,235L138,237L139,237L141,236L141,233L138,229L144,229L146,231L146,234L148,233L151,233L154,231L154,227L157,223L161,221L162,218L163,216L164,212L163,201L167,198L166,197L165,190L165,185L162,178L162,173L160,173L160,169L161,165L160,164Z " data-fips="BU51" data-fips-="BU34|BU48" data-iso3="BGR" data-name="Pazardzhik" data-p="13"/><path d="M197,150L193,153L190,153L180,152L175,147L167,146L163,149L161,149L159,153L159,157L162,158L165,162L163,165L161,165L160,169L160,173L162,173L162,178L165,185L165,190L166,197L167,198L163,201L164,212L163,216L170,222L176,218L182,217L185,218L187,221L191,224L193,226L196,226L199,229L200,229L201,230L202,230L205,224L207,221L209,220L211,221L214,219L216,215L214,205L215,202L216,202L217,202L216,200L212,198L207,201L202,197L202,193L202,191L206,189L205,186L204,179L206,178L209,179L209,178L207,175L208,172L207,170L202,171L200,169L197,161L199,159L198,153L198,150L198,149L197,150Z " data-fips="BU51" data-fips-="BU34" data-iso3="BGR" data-name="Plovdiv" data-p="16"/><path d="M162,218L161,221L157,223L154,227L154,231L151,233L148,233L146,234L146,231L144,229L138,229L141,233L141,236L139,237L140,238L142,240L139,243L146,249L147,248L152,250L152,252L159,251L166,248L167,250L169,256L174,260L174,261L177,261L182,266L183,267L184,263L189,262L191,263L203,269L206,270L205,263L205,262L206,256L205,252L202,253L201,255L199,254L196,248L196,246L200,245L202,241L200,231L201,230L200,229L199,229L196,226L193,226L191,224L187,221L185,218L182,217L176,218L170,222L163,216L162,218Z " data-fips="BU51" data-fips-="BU34" data-iso3="BGR" data-name="Smolyan" data-p="21"/><path d="M211,221L209,220L207,221L205,224L202,230L201,230L200,231L202,241L200,245L196,246L196,248L199,254L201,255L202,253L205,252L206,256L205,262L205,263L206,270L206,270L210,275L214,276L224,273L228,272L230,270L236,270L244,270L248,268L250,270L265,267L268,261L268,256L269,252L266,246L263,243L262,243L259,243L253,249L251,248L248,245L247,242L245,241L240,244L234,243L236,238L233,233L230,231L224,231L222,230L221,225L215,229L212,228L210,223L211,221Z " data-fips="GR01" data-fips-="BU44" data-iso3="BGR" data-name="Kardzhali" data-p="09"/><path d="M97,168L101,171L104,166L106,167L108,171L107,174L109,175L113,176L115,174L114,171L112,170L109,164L106,155L107,150L113,139L111,140L108,140L106,138L100,139L97,139L93,135L91,138L91,142L88,144L88,147L85,149L81,148L79,150L81,151L84,154L85,160L91,164L92,165L97,168Z " data-fips="BU42" data-fips-="BU30" data-iso3="BGR" data-name="Grad Sofiya" data-p="23"/><path d="M76,111L74,117L70,122L67,125L63,127L60,133L60,134L63,138L68,142L70,141L72,144L77,146L78,148L79,150L81,148L85,149L88,147L88,144L91,142L91,138L93,135L97,139L100,139L106,138L108,140L111,140L113,139L107,150L106,155L109,164L112,170L114,171L115,174L113,176L109,175L107,174L108,171L106,167L104,166L101,171L97,168L92,165L90,169L88,172L89,176L88,177L88,179L89,178L92,179L94,184L98,186L99,188L94,194L95,196L100,195L103,198L106,199L106,201L104,202L107,203L109,201L111,198L120,196L121,196L122,196L123,193L126,192L128,189L129,187L130,186L133,189L134,188L132,182L133,178L138,177L139,174L138,173L135,173L133,171L130,164L134,163L138,165L144,163L146,161L150,159L154,160L154,161L160,164L161,165L163,165L165,162L162,158L159,157L159,153L161,149L159,149L154,147L146,146L145,144L146,136L145,133L140,130L140,126L138,123L136,123L135,125L133,125L123,122L118,125L117,125L115,123L110,126L103,118L105,114L103,113L101,113L99,116L96,117L90,117L84,116L83,115L79,110L76,110L76,111Z " data-fips="BU42" data-fips-="BU30|BU58" data-iso3="BGR" data-name="Sofia" data-p="23"/><path d="M60,134L56,136L51,134L46,135L42,139L42,144L44,147L41,151L41,154L41,155L51,157L53,162L54,164L56,165L57,166L57,169L60,174L65,179L69,177L74,176L80,178L81,176L86,179L88,179L88,177L89,176L88,172L90,169L92,165L91,164L85,160L84,154L81,151L79,150L78,148L77,146L72,144L70,141L68,142L63,138L60,134L60,134Z " data-fips="BU58" data-fips-="BU30|BU49" data-iso3="BGR" data-name="Pernik" data-p="14"/><path d="M200,113L197,113L196,119L194,120L193,124L193,126L190,130L191,136L196,141L198,145L198,149L198,150L202,150L208,148L211,148L213,151L215,149L222,151L225,150L230,150L232,148L235,151L236,151L236,149L234,146L236,139L232,135L233,130L232,127L217,124L215,120L207,120L203,116L203,114L200,113Z " data-fips="BU46" data-fips-="BU32|BU41" data-iso3="BGR" data-name="Gabrovo" data-p="07"/><path d="M203,104L200,99L200,101L192,105L191,103L183,103L178,106L176,110L173,112L165,109L162,105L160,105L157,108L150,109L146,107L143,108L139,110L140,114L138,119L137,119L135,121L136,123L138,123L140,126L140,130L145,133L146,136L145,144L146,146L154,147L159,149L161,149L163,149L167,146L175,147L180,152L190,153L193,153L197,150L198,149L198,145L196,141L191,136L190,130L193,126L193,124L194,120L196,119L197,113L200,113L203,114L205,111L205,106L203,104Z " data-fips="BU46" data-fips-="BU32" data-iso3="BGR" data-name="Lovech" data-p="11"/><path d="M214,71L212,70L204,69L197,67L184,67L181,67L169,62L165,62L160,65L159,65L159,69L156,73L153,75L151,74L146,79L147,85L149,87L152,88L152,95L152,100L149,101L145,101L137,103L135,109L139,110L143,108L146,107L150,109L157,108L160,105L162,105L165,109L173,112L176,110L178,106L183,103L191,103L192,105L200,101L200,99L203,104L205,106L206,106L212,101L212,98L210,92L207,93L207,91L211,87L212,84L210,80L212,78L213,75L216,72L214,71Z " data-fips="BU46" data-fips-="BU32|BU50" data-iso3="BGR" data-name="Pleven" data-p="15"/><path d="M227,74L223,75L220,75L216,72L216,72L213,75L212,78L210,80L212,84L211,87L207,91L207,93L210,92L212,98L212,101L206,106L205,106L205,111L203,114L203,116L207,120L215,120L217,124L232,127L233,130L232,135L236,139L234,146L236,149L237,149L240,148L242,147L246,148L247,148L250,148L253,147L257,148L262,145L263,141L268,137L269,134L267,132L265,132L264,126L262,121L263,116L266,115L265,112L263,109L264,106L263,104L260,103L258,103L256,102L255,98L252,99L246,99L241,95L239,97L235,95L232,92L233,87L230,86L227,84L229,78L228,74L227,74Z " data-fips="BU46" data-fips-="BU32|BU62" data-iso3="BGR" data-name="Veliko Tarnovo" data-p="04"/><path d="M115,57L108,54L99,53L93,53L87,56L82,56L82,59L77,62L80,64L81,66L75,73L74,77L76,82L66,85L66,86L64,91L61,93L61,94L67,103L72,108L76,109L76,110L79,110L83,115L84,116L90,117L96,117L99,116L101,113L101,111L104,110L105,108L101,105L97,104L98,101L102,95L103,89L104,86L107,85L111,86L112,84L115,84L114,80L111,79L114,75L116,68L117,61L116,58L115,57Z " data-fips="BU47" data-fips-="BU33" data-iso3="BGR" data-name="Montana" data-p="12"/><path d="M148,65L127,59L117,58L116,58L117,61L116,68L114,75L111,79L114,80L115,84L112,84L111,86L107,85L104,86L103,89L102,95L98,101L97,104L101,105L105,108L104,110L101,111L101,113L103,113L105,114L103,118L110,126L115,123L117,125L118,125L123,122L133,125L135,125L136,123L135,121L137,119L138,119L140,114L139,110L135,109L137,103L145,101L149,101L152,100L152,95L152,88L149,87L147,85L146,79L151,74L153,75L156,73L159,69L159,65L148,65Z " data-fips="BU47" data-fips-="BU33|BU64" data-iso3="BGR" data-name="Vratsa" data-p="06"/><path d="M40,157L40,160L45,165L46,168L46,171L41,176L40,179L34,181L39,190L42,192L42,194L45,197L50,201L53,203L60,205L60,207L64,208L64,208L66,206L67,206L69,202L72,203L75,204L77,205L86,202L90,202L97,205L101,204L104,202L106,201L106,199L103,198L100,195L95,196L94,194L99,188L98,186L94,184L92,179L89,178L88,179L86,179L81,176L80,178L74,176L69,177L65,179L60,174L57,169L57,166L56,165L54,164L53,162L51,157L41,155L40,157Z " data-fips="BU58" data-fips-="BU36|BU45" data-iso3="BGR" data-name="Kyustendil" data-p="10"/><path d="M61,93L64,91L66,86L66,85L76,82L74,77L75,73L81,66L80,64L77,62L82,59L82,56L74,56L72,56L70,51L72,45L74,42L79,41L82,38L82,35L74,32L62,23L59,24L55,36L51,38L50,40L46,40L43,43L43,45L40,55L40,59L42,65L43,68L47,72L47,80L49,85L53,89L56,90L58,92L61,93L61,93Z " data-fips="BU47" data-fips-="BU63" data-iso3="BGR" data-name="Vidin" data-p="05"/><path d="M327,133L324,135L321,135L314,135L312,134L307,135L305,137L301,139L299,138L298,135L294,136L294,138L293,140L295,144L294,145L294,149L289,152L290,154L295,157L297,156L299,155L303,155L312,174L318,178L321,181L323,181L326,185L326,187L323,190L322,197L324,202L323,206L325,206L328,208L330,207L333,205L337,205L347,215L351,217L355,221L355,219L358,216L363,215L365,215L369,217L370,215L371,213L377,214L384,214L383,210L382,206L376,202L370,194L367,191L367,187L369,186L368,184L366,184L363,179L365,178L363,177L360,176L360,174L355,175L350,172L352,166L353,165L359,165L359,160L364,157L365,153L375,153L375,147L374,143L374,141L369,144L364,141L362,139L358,137L355,138L350,139L347,139L342,137L337,131L334,130L331,132L327,133Z " data-fips="BU39" data-fips-="BU29" data-iso3="BGR" data-name="Burgas" data-p="02"/><path d="M299,155L300,158L297,162L292,165L289,166L284,166L282,167L282,170L280,175L277,176L274,174L273,175L273,178L269,179L270,182L273,183L269,191L270,195L269,198L267,200L267,205L268,207L268,209L273,212L279,213L280,214L281,217L284,215L286,215L287,217L287,220L292,224L293,223L293,222L297,215L303,216L317,213L323,206L323,206L324,202L322,197L323,190L326,187L326,185L323,181L321,181L318,178L312,174L303,155L299,155Z " data-fips="BU39" data-fips-="BU29|BU56" data-iso3="BGR" data-name="Yambol" data-p="28"/><path d="M318,70L311,62L309,59L305,62L303,59L296,57L293,52L292,51L289,53L285,50L283,51L278,56L277,59L274,60L274,64L281,66L280,68L280,71L277,75L274,74L272,76L269,76L269,83L270,85L273,84L279,87L281,89L280,92L288,95L289,101L295,101L297,99L300,98L300,95L301,95L303,95L303,93L303,89L307,87L308,85L307,84L312,79L315,81L320,74L319,71L318,70Z " data-fips="BU52" data-fips-="BU35" data-iso3="BGR" data-name="Razgrad" data-p="17"/><path d="M301,95L300,95L300,98L297,99L295,101L289,101L288,95L280,92L281,89L279,87L273,84L270,85L269,86L265,85L261,87L260,92L256,95L260,101L260,103L263,104L264,106L263,109L265,112L266,115L263,116L262,121L264,126L265,132L267,132L269,134L271,134L275,130L276,127L281,127L284,129L289,128L292,130L294,131L295,130L297,128L299,123L300,123L299,120L300,117L305,112L305,109L303,105L305,100L306,99L306,96L303,95L301,95Z " data-fips="BU52" data-fips-="BU35|BU60" data-iso3="BGR" data-name="Targovishte" data-p="25"/><path d="M327,74L325,71L323,69L319,71L320,74L315,81L312,79L307,84L308,85L307,87L303,89L303,93L303,95L306,96L306,99L305,100L303,105L305,109L305,112L300,117L299,120L300,123L299,123L297,128L295,130L294,131L293,133L294,136L298,135L299,138L301,139L305,137L307,135L312,134L314,135L321,135L324,135L327,133L326,131L325,129L330,126L333,125L332,123L329,122L331,121L330,119L333,116L333,114L329,112L329,110L335,108L335,105L338,103L336,100L336,98L340,92L339,89L340,87L337,86L340,83L345,82L344,79L338,80L336,79L335,76L331,74L327,74Z " data-fips="BU61" data-fips-="BU35|BU54" data-iso3="BGR" data-name="Shumen" data-p="27"/><path d="M386,98L387,96L391,94L395,94L399,92L408,96L409,97L410,94L415,88L416,83L414,77L414,66L406,67L393,65L380,59L378,58L375,48L370,46L366,49L362,50L360,47L356,53L351,53L350,58L348,60L345,59L342,61L342,65L340,65L337,62L332,67L332,71L334,73L333,74L331,74L335,76L336,79L338,80L344,79L345,82L347,82L349,87L351,88L356,84L360,89L363,89L368,97L372,98L376,96L378,96L381,99L385,99L386,98Z " data-fips="BU61" data-fips-="BU37|BU40" data-iso3="BGR" data-name="Dobrich" data-p="08"/><path d="M345,82L340,83L337,86L340,87L339,89L340,92L336,98L336,100L338,103L335,105L335,108L329,110L329,112L333,114L333,116L330,119L331,121L329,122L332,123L333,125L330,126L325,129L326,131L327,133L331,132L334,130L337,131L342,137L347,139L350,139L355,138L358,137L362,139L364,141L369,144L374,141L374,141L375,139L375,133L374,126L375,123L377,116L375,112L380,110L382,108L385,99L381,99L378,96L376,96L372,98L368,97L363,89L360,89L356,84L351,88L349,87L347,82L345,82Z " data-fips="BU61" data-fips-="BU37" data-iso3="BGR" data-name="Varna" data-p="03"/><path d="M360,46L357,43L353,44L342,45L339,42L336,40L335,37L331,35L325,34L321,31L319,32L312,33L306,37L302,37L296,39L279,42L282,45L282,47L283,51L285,50L289,53L292,51L293,52L296,57L303,59L305,62L309,59L311,62L318,70L319,71L323,69L325,71L327,74L331,74L333,74L334,73L332,71L332,67L337,62L340,65L342,65L342,61L345,59L348,60L350,58L351,53L356,53L360,47L360,46Z " data-fips="RO41" data-fips-="BU55" data-iso3="BGR" data-name="Silistra" data-p="19"/><path d="M283,51L282,47L282,45L279,42L278,42L273,44L268,45L264,49L263,51L254,59L247,67L243,70L239,70L236,72L232,74L228,74L228,74L229,78L227,84L230,86L233,87L232,92L235,95L239,97L241,95L246,99L252,99L255,98L256,102L258,103L260,103L260,101L256,95L260,92L261,87L265,85L269,86L270,85L269,83L269,76L272,76L274,74L277,75L280,71L280,68L281,66L274,64L274,60L277,59L278,56L283,51Z " data-fips="BU52" data-fips-="BU53" data-iso3="BGR" data-name="Ruse" data-p="18"/><path d="M120,196L111,198L109,201L107,203L104,202L101,204L97,205L90,202L86,202L77,205L75,204L72,203L69,202L67,206L66,206L64,208L64,209L67,224L70,229L71,229L73,233L68,239L68,242L68,246L66,264L78,267L84,264L84,263L89,260L91,262L97,260L103,260L107,263L118,261L120,258L134,256L137,257L137,251L143,251L146,249L146,249L139,243L142,240L140,238L139,237L138,237L137,235L130,230L129,228L127,228L124,226L122,222L122,219L120,213L122,209L124,207L123,206L124,202L124,200L121,198L121,196L120,196Z " data-fips="MK78" data-fips-="BU36|BU38" data-iso3="BGR" data-name="Blagoevgrad" data-p="01"/></g></svg>