<?xml version="1.0" encoding="UTF-8"?><!DOCTYPE svg  PUBLIC '-//W3C//DTD SVG 1.1//EN'  'http://www.w3.org/Graphics/SVG/1.1/DTD/svg11.dtd'><svg enable_background="new 0 0 450 301" height="301px" style="stroke-linejoin: round; stroke:#000; fill:#f6f3f0;" version="1.1" viewBox="0 0 450 301" width="450px" xmlns="http://www.w3.org/2000/svg" xmlns:xlink="http://www.w3.org/1999/xlink"><defs><style type="text/css"><![CDATA[path { fill-rule: evenodd; }
#context path { fill: #eee; stroke: #bbb; } ]]></style></defs><metadata><views><view h="301.0" padding="0.06" w="450"><proj id="laea" lat0="43.9914882472" lon0="16.9013624936"/><bbox h="37.64" w="38.62" x="987.55" y="981.97"/><llbbox lat0="-90" lat1="90" lon0="-180" lon1="180"/></view></views></metadata><g id="context"><path d="M399,280L398,280L390,285L384,287L379,288L375,283L375,275L373,272L369,274L365,280L362,287L353,299L412,299L408,292L402,283L399,280Z " data-iso="ALB"/><path d="M281,283L283,282L288,276L289,271L283,261L281,242L284,238L294,236L294,227L297,216L309,205L315,205L319,211L322,210L323,203L315,190L318,185L325,188L331,186L333,186L338,181L345,180L348,182L352,183L354,179L354,175L354,169L345,155L337,146L336,143L340,141L350,142L357,141L360,138L359,135L348,125L342,118L334,113L328,111L326,105L327,93L328,89L337,72L340,63L341,56L340,53L333,50L325,52L319,55L317,55L312,56L305,54L302,51L301,45L298,40L292,35L280,35L266,30L262,31L256,32L246,30L238,36L234,36L225,29L223,28L215,32L210,31L200,28L195,28L192,29L186,27L172,17L163,25L145,23L140,28L133,39L128,43L124,42L119,37L110,25L106,23L101,23L96,24L94,26L90,58L89,67L99,75L111,89L115,91L117,96L122,121L128,130L134,136L140,142L149,151L155,160L157,164L171,177L184,190L195,194L197,197L197,207L198,210L206,221L222,236L224,244L220,246L226,250L231,248L235,250L238,255L253,265L259,270L272,279L275,280L281,283Z " data-iso="BIH"/><path d="M221,263L209,260L202,261L231,269L221,263Z M153,241L154,244L159,249L167,251L176,247L184,249L191,249L184,244L176,242L166,243L153,241Z M287,295L284,290L282,286L281,283L275,280L272,279L259,270L253,265L238,255L235,250L231,248L226,250L230,255L193,238L187,238L181,239L196,243L220,256L237,260L261,276L274,286L287,295Z M191,228L182,226L156,223L153,219L143,218L133,219L135,221L145,226L155,228L186,229L191,228Z M162,214L169,211L170,210L166,206L149,203L138,202L136,209L141,212L151,214L162,214Z M63,144L56,140L58,145L63,150L67,151L63,144Z M53,135L41,125L45,132L54,139L53,135Z M50,149L33,129L27,124L29,128L46,150L50,149Z M50,108L54,107L45,98L38,88L31,81L28,80L20,72L21,75L30,87L31,93L37,98L40,102L49,111L50,108Z M26,66L22,60L21,58L17,57L15,62L16,65L22,66L28,71L26,66Z M0,77L2,79L0,55L2,45L0,43L0,77Z M26,45L21,36L18,33L14,25L10,20L6,28L0,32L5,38L12,40L13,43L17,47L26,45Z M220,246L224,244L222,236L206,221L198,210L197,207L197,197L195,194L184,190L171,177L157,164L155,160L149,151L140,142L134,136L128,130L122,121L117,96L115,91L111,89L99,75L89,67L90,58L94,26L96,24L101,23L106,23L110,25L119,37L124,42L128,43L133,39L140,28L145,23L163,25L172,17L186,27L192,29L195,28L200,28L210,31L215,32L223,28L225,29L234,36L238,36L246,30L256,32L262,31L266,30L280,35L292,35L298,40L301,45L302,51L305,54L312,56L317,55L316,52L320,51L322,50L323,45L320,29L325,27L325,23L330,26L342,25L343,21L338,16L334,15L322,9L315,3L315,0L0,0L0,9L8,13L14,20L29,35L32,45L30,60L31,71L37,82L56,104L64,109L70,115L63,113L57,113L53,115L50,114L46,116L50,124L72,150L82,160L94,168L102,176L102,184L105,189L110,191L116,191L126,188L134,187L149,195L171,202L187,220L201,229L216,244L220,246Z " data-iso="HRV"/><path d="M418,252L409,255L407,260L397,260L396,262L398,267L400,272L399,279L399,280L402,283L408,292L412,299L450,299L450,210L449,208L446,209L442,212L436,215L435,217L439,225L437,231L427,239L426,242L428,247L427,249L418,252Z " data-iso="KOS"/><path d="M399,280L399,279L400,272L398,267L396,262L397,260L407,260L409,255L418,252L418,250L417,246L412,242L405,239L388,228L377,226L369,221L364,220L360,217L350,204L341,197L335,194L333,187L333,186L331,186L325,188L318,185L315,190L323,203L322,210L319,211L315,205L309,205L297,216L294,227L294,236L284,238L281,242L283,261L289,271L288,276L283,282L281,283L282,286L284,290L287,295L290,295L293,294L297,294L295,299L353,299L362,287L365,280L369,274L373,272L375,275L375,283L379,288L384,287L390,285L398,280L399,280Z " data-iso="MNE"/><path d="M450,0L447,0L449,2L450,3L450,0Z " data-iso="ROU"/><path d="M315,0L315,3L322,9L334,15L338,16L343,21L342,25L330,26L325,23L325,27L320,29L323,45L322,50L320,51L316,52L317,55L319,55L325,52L333,50L340,53L341,56L340,63L337,72L328,89L327,93L326,105L328,111L334,113L342,118L348,125L359,135L360,138L357,141L350,142L340,141L336,143L337,146L345,155L354,169L354,175L354,179L352,183L348,182L345,180L338,181L333,186L333,187L335,194L341,197L350,204L360,217L364,220L369,221L377,226L388,228L405,239L412,242L417,246L418,250L418,252L427,249L428,247L426,242L427,239L437,231L439,225L435,217L436,215L442,212L446,209L449,208L450,210L450,3L449,2L447,0L315,0Z " data-iso="SRB"/></g><g fill="red" fill-opacity="0.35" id="regions"><path d="M144,98L144,98L141,102L135,104L127,105L125,108L122,108L122,108L120,113L122,122L126,127L130,134L131,136L136,137L138,141L142,143L146,148L152,155L155,158L156,163L157,165L165,171L176,183L180,187L182,189L186,187L190,187L194,185L197,188L199,188L205,184L213,183L215,177L215,176L215,176L209,168L205,165L204,164L205,158L207,156L210,156L210,156L210,156L208,151L204,151L201,148L198,142L195,137L195,136L195,136L187,134L186,133L185,127L181,124L163,114L160,109L159,109L146,100L144,98Z " data-fips="BK01" data-fips-="BKO1" data-iso3="BIH" data-name="West Bosnia"/><path d="M122,108L125,108L127,105L135,104L141,102L144,98L144,98L143,97L143,95L147,93L160,98L167,97L169,92L169,86L168,76L167,76L166,70L165,67L163,63L160,60L157,58L129,54L126,49L127,47L132,45L132,42L132,44L127,43L123,41L115,33L114,29L110,23L100,23L94,25L93,34L92,46L89,51L89,53L92,59L92,61L88,63L88,65L91,70L94,74L98,72L99,71L103,74L105,79L111,84L108,89L115,90L118,99L119,103L122,107L122,108Z " data-fips="HR19" data-fips-="BKO1" data-iso3="BIH" data-name="Una-Sana"/><path d="M229,105L226,105L220,106L213,106L208,101L206,99L196,99L193,97L188,97L188,100L188,111L189,114L196,124L197,128L196,133L195,136L195,137L198,142L201,148L204,151L208,151L210,156L210,156L210,156L215,158L223,158L228,160L238,158L240,158L242,162L247,164L249,164L249,164L250,162L253,161L259,158L260,155L259,152L258,151L258,151L254,147L252,146L251,141L248,141L247,136L243,135L242,129L238,130L234,126L233,123L233,112L229,107L229,105L229,105Z " data-fips="BK01" data-fips-="BKO1" data-iso3="BIH" data-name="Central Bosnia"/><path d="M215,176L215,177L213,183L205,184L199,188L197,188L194,185L190,187L186,187L182,189L184,190L188,192L195,193L197,195L198,197L197,206L198,211L201,215L207,220L208,224L220,232L220,233L223,230L224,226L225,222L224,219L219,213L220,211L227,212L231,212L228,204L228,198L225,198L218,189L216,189L216,186L220,182L219,178L216,176L215,176Z " data-fips="HR03" data-fips-="BKO1" data-iso3="BIH" data-name="West Herzegovina"/><path d="M210,156L210,156L207,156L205,158L204,164L205,165L209,168L215,176L215,176L216,176L219,178L220,182L216,186L216,189L218,189L225,198L228,198L228,204L231,212L227,212L220,211L219,213L224,219L225,222L224,226L223,230L220,233L223,236L225,243L224,245L218,247L224,251L228,248L236,249L237,250L237,254L239,258L244,260L248,264L266,276L275,279L277,281L277,274L275,274L265,265L264,263L256,255L254,254L250,243L250,239L253,233L252,228L248,227L250,223L253,219L252,201L250,198L251,196L256,196L267,196L274,197L277,195L275,189L275,182L276,182L276,182L270,181L269,182L263,181L261,176L257,173L253,173L251,172L249,165L249,164L247,164L242,162L240,158L238,158L228,160L223,158L215,158L210,156L210,156Z " data-fips="HR03" data-fips-="BKO1" data-iso3="BIH" data-name="Herzegovina-Neretva"/><path d="M302,126L303,123L303,120L300,112L300,108L300,106L305,102L306,100L312,99L319,92L318,78L313,79L310,87L305,87L299,80L298,76L303,72L303,68L301,68L299,58L296,56L292,55L288,55L284,57L282,56L281,52L274,51L271,53L269,60L267,63L264,64L253,65L252,69L260,73L272,77L274,80L274,84L270,85L267,85L267,85L267,86L268,98L270,101L274,101L276,107L278,109L283,111L285,118L285,121L289,122L291,124L300,124L301,126L302,126Z " data-fips="BK00" data-fips-="BKO1" data-iso3="BIH" data-name="Tuzla"/><path d="M132,42L132,45L127,47L126,49L129,54L157,58L160,60L163,63L165,67L166,70L167,76L168,76L169,86L169,92L167,97L160,98L147,93L143,95L143,97L144,98L146,100L159,109L160,109L163,114L181,124L185,127L186,133L187,134L195,136L195,136L196,133L197,128L196,124L189,114L188,111L188,100L188,97L193,97L196,99L206,99L208,101L213,106L220,106L226,105L229,105L229,105L231,104L240,98L242,96L241,88L237,84L236,82L239,71L242,71L248,71L251,74L257,85L262,85L267,85L267,85L270,85L274,84L274,80L272,77L260,73L252,69L253,65L264,64L267,63L269,60L271,53L274,51L281,52L282,56L284,57L288,55L292,55L296,56L299,58L301,68L303,68L303,72L298,76L299,80L305,87L310,87L313,79L318,78L319,92L312,99L306,100L305,102L300,106L300,108L300,112L303,120L303,123L302,126L301,126L301,127L294,135L292,136L289,136L289,136L288,138L283,143L284,155L282,158L275,157L274,158L275,162L278,167L283,167L288,170L292,172L292,172L296,173L297,171L299,166L301,164L304,163L310,163L314,164L319,167L321,168L323,174L321,174L314,180L311,181L303,182L298,182L295,180L290,177L290,177L287,176L283,173L278,172L277,174L276,181L276,182L275,182L275,189L277,195L274,197L267,196L256,196L251,196L250,198L252,201L253,219L250,223L248,227L252,228L253,233L250,239L250,243L254,254L256,255L264,263L265,265L275,274L277,274L277,281L277,281L285,282L285,279L289,275L289,272L283,262L281,256L283,253L280,244L282,240L288,237L292,237L294,230L293,227L298,217L296,216L299,213L306,208L309,205L313,204L317,206L320,212L321,210L325,208L323,204L321,198L318,195L316,195L316,193L313,190L317,186L320,185L324,189L326,188L328,186L335,186L338,180L342,180L343,178L349,185L349,184L354,183L354,176L355,174L355,171L352,163L344,155L336,143L336,139L340,139L343,142L346,142L357,141L360,139L361,134L355,131L352,127L345,122L342,116L339,113L336,113L329,111L327,110L325,103L327,95L326,89L329,89L330,87L330,84L332,82L335,77L336,74L339,68L342,56L338,50L336,51L328,49L317,56L309,56L306,56L305,55L303,58L301,58L301,54L297,53L297,51L292,48L289,48L286,47L280,41L280,37L279,36L278,35L277,39L271,41L270,45L264,45L263,42L259,39L256,34L256,34L247,29L242,35L234,37L225,28L222,28L215,32L211,30L208,31L209,29L204,31L196,26L190,30L184,27L181,25L180,22L178,23L178,21L174,21L173,17L169,19L166,23L165,26L163,27L149,23L145,22L138,31L135,34L135,36L133,39L132,42Z " data-fips="BK00" data-fips-="BKO2" data-iso3="BIH" data-name="Serbian Republic"/><path d="M262,85L257,85L251,74L248,71L242,71L239,71L236,82L237,84L241,88L242,96L240,98L231,104L229,105L229,107L233,112L233,123L234,126L238,130L242,129L243,135L247,136L248,141L251,141L252,146L254,147L258,151L258,151L258,151L258,150L262,143L271,141L272,140L272,135L276,135L279,130L283,131L287,135L289,136L289,136L292,136L294,135L301,127L301,126L300,124L291,124L289,122L285,121L285,118L283,111L278,109L276,107L274,101L270,101L268,98L267,86L267,85L262,85Z " data-fips="BK00" data-fips-="BKO1" data-iso3="BIH" data-name="Zenica-Doboj"/><path d="M289,136L287,135L283,131L279,130L276,135L272,135L272,140L271,141L262,143L258,150L258,151L258,151L259,152L260,155L259,158L253,161L250,162L249,164L249,164L249,165L251,172L253,173L257,173L261,176L263,181L269,182L270,181L276,182L276,182L276,181L277,174L278,172L283,173L287,176L290,177L290,176L290,175L291,173L291,172L292,172L288,170L283,167L278,167L275,162L274,158L275,157L282,158L284,155L283,143L288,138L289,136L289,136L289,136Z " data-fips="BK00" data-fips-="BKO1" data-iso3="BIH" data-name="Sarajevo"/><path d="M290,177L295,180L298,182L303,182L311,181L314,180L321,174L323,174L321,168L319,167L314,164L310,163L304,163L301,164L299,166L297,171L296,173L292,172L292,172L291,172L291,173L290,175L290,176L290,177L290,177Z " data-fips="BK00" data-fips-="BKO1" data-iso3="BIH" data-name="Bosnian Podrinje"/><path d="M256,34L259,39L263,42L264,45L270,45L271,41L277,39L278,35L276,33L274,32L269,31L263,28L260,29L259,34L257,34L256,34Z " data-fips="BK00" data-fips-="BKO2" data-iso3="BIH" data-name="Posavina"/><path d="M280,37L280,41L286,47L289,48L292,48L297,51L297,53L301,54L301,58L303,58L305,55L304,54L301,51L302,45L301,42L298,41L290,36L289,34L284,34L282,38L281,37L280,37Z " data-fips="BK00" data-fips-="BKO2" data-iso3="BIH" data-name="Posavina"/></g></svg>