<?xml version="1.0" encoding="UTF-8"?><!DOCTYPE svg  PUBLIC '-//W3C//DTD SVG 1.1//EN'  'http://www.w3.org/Graphics/SVG/1.1/DTD/svg11.dtd'><svg enable_background="new 0 0 450 301" height="301px" style="stroke-linejoin: round; stroke:#000; fill:#f6f3f0;" version="1.1" viewBox="0 0 450 301" width="450px" xmlns="http://www.w3.org/2000/svg" xmlns:xlink="http://www.w3.org/1999/xlink"><defs><style type="text/css"><![CDATA[path { fill-rule: evenodd; }
#context path { fill: #eee; stroke: #bbb; } ]]></style></defs><metadata><views><view h="301.0" padding="0.06" w="450"><proj id="laea" lat0="52.4548605412" lon0="25.2445627812"/><bbox h="68.11" w="79.13" x="980.07" y="949.68"/><llbbox lat0="-90" lat1="90" lon0="-180" lon1="180"/></view></views></metadata><g id="context"><path d="M226,19L223,20L219,23L212,32L210,39L202,39L194,37L191,38L187,44L181,46L180,46L180,49L179,53L176,64L177,65L186,67L186,68L182,72L181,76L171,75L170,76L168,83L165,85L158,87L156,92L154,98L154,107L151,112L149,120L155,123L155,129L149,130L146,121L143,124L140,124L137,126L133,130L127,129L126,131L124,139L119,138L109,143L105,140L97,140L91,141L85,141L83,140L86,158L92,176L95,189L95,196L95,207L93,209L81,215L75,221L71,226L71,231L84,239L86,246L84,251L85,255L82,261L81,266L84,271L84,271L84,266L90,265L92,265L101,263L106,258L109,253L126,251L133,249L140,249L162,250L173,253L177,254L179,255L196,258L202,258L207,266L218,266L221,267L222,272L223,272L227,266L232,268L241,266L252,268L254,272L257,273L258,269L267,262L271,265L277,275L284,272L289,271L301,268L305,268L310,272L311,276L315,279L318,279L321,274L317,261L320,249L323,244L330,235L333,234L338,235L342,231L349,230L355,230L355,229L352,224L348,219L347,208L348,207L345,202L345,193L341,190L335,182L338,173L339,172L347,171L350,172L353,176L363,176L371,168L372,165L380,161L378,155L371,150L370,142L361,138L354,138L349,139L347,138L348,131L348,128L341,122L334,118L330,113L328,108L326,105L322,103L323,95L318,92L312,88L313,81L317,73L313,64L310,60L313,55L312,45L306,43L303,41L297,35L290,32L285,33L268,42L264,37L265,30L264,29L255,25L247,29L241,23L239,22L231,24L226,19L226,19Z " data-iso="BLR"/><path d="M5,63L7,64L9,60L12,53L12,48L9,57L5,63Z M12,24L12,35L14,46L16,55L14,61L15,65L15,65L20,65L22,67L34,75L40,77L56,78L57,83L64,90L59,102L58,109L59,114L61,117L62,114L67,116L71,120L79,126L82,129L83,139L83,140L85,141L91,141L97,140L105,140L109,143L119,138L124,139L126,131L127,129L133,130L137,126L140,124L143,124L146,121L149,130L155,129L155,123L149,120L151,112L154,107L154,98L156,92L158,87L165,85L168,83L170,76L171,75L181,76L182,72L186,68L186,67L177,65L176,64L179,53L180,49L180,46L178,46L174,45L170,42L168,39L151,23L149,22L134,18L130,11L129,7L122,8L117,13L105,14L102,13L77,8L73,10L71,7L68,6L65,7L59,7L44,5L31,9L20,15L12,21L12,24Z " data-iso="LTU"/><path d="M12,21L20,15L31,9L44,5L59,7L65,7L68,6L71,7L73,10L77,8L102,13L105,14L117,13L122,8L129,7L130,11L134,18L149,22L151,23L168,39L170,42L174,45L178,46L180,46L181,46L187,44L191,38L194,37L202,39L210,39L212,32L219,23L223,20L226,19L226,19L227,17L228,13L225,0L13,0L12,11L12,21Z " data-iso="LVA"/><path d="M84,271L81,266L82,261L85,255L84,251L86,246L84,239L71,231L71,226L75,221L81,215L93,209L95,207L95,196L95,189L92,176L86,158L83,140L83,139L82,129L79,126L71,120L67,116L62,114L61,117L59,117L42,116L0,111L0,299L94,299L92,292L85,280L85,275L84,271Z " data-iso="POL"/><path d="M61,117L59,114L58,109L59,102L64,90L57,83L56,78L40,77L34,75L22,67L20,65L15,65L14,74L13,83L7,84L3,84L0,82L0,111L42,116L59,117L61,117Z M7,64L5,63L3,66L0,70L0,73L3,69L7,64Z M226,19L231,24L239,22L241,23L247,29L255,25L264,29L265,30L264,37L268,42L285,33L290,32L297,35L303,41L306,43L312,45L313,55L310,60L313,64L317,73L313,81L312,88L318,92L323,95L322,103L326,105L328,108L330,113L334,118L341,122L348,128L348,131L347,138L349,139L354,138L361,138L370,142L371,150L378,155L380,161L372,165L371,168L363,176L353,176L350,172L347,171L339,172L338,173L335,182L341,190L345,193L345,202L348,207L347,208L348,219L352,224L355,229L355,230L356,230L359,232L368,232L373,228L374,219L379,217L389,219L392,218L400,213L404,212L410,212L419,210L426,215L430,219L434,229L445,238L445,242L436,245L440,251L443,268L450,267L450,0L225,0L228,13L227,17L226,19Z " data-iso="RUS"/><path d="M355,230L349,230L342,231L338,235L333,234L330,235L323,244L320,249L317,261L321,274L318,279L315,279L311,276L310,272L305,268L301,268L289,271L284,272L277,275L271,265L267,262L258,269L257,273L254,272L252,268L241,266L232,268L227,266L223,272L222,272L221,267L218,266L207,266L202,258L196,258L179,255L177,254L173,253L162,250L140,249L133,249L126,251L109,253L106,258L101,263L92,265L90,265L84,266L84,271L84,271L85,275L85,280L92,292L94,299L450,299L450,267L443,268L440,251L436,245L445,242L445,238L434,229L430,219L426,215L419,210L410,212L404,212L400,213L392,218L389,219L379,217L374,219L373,228L368,232L359,232L356,230L355,230Z " data-iso="UKR"/></g><g fill="red" fill-opacity="0.35" id="regions"><path d="M95,205L94,209L89,212L84,213L81,215L72,225L70,229L71,232L79,235L81,238L85,240L86,246L84,257L83,258L82,267L84,271L84,266L88,264L93,266L96,268L106,259L107,256L119,251L121,252L131,250L137,248L142,250L153,250L156,249L163,251L170,253L179,256L186,256L193,258L195,259L198,258L203,258L207,264L207,266L209,266L212,266L215,265L215,265L216,256L214,253L217,244L215,240L215,233L207,227L206,225L206,225L202,223L200,218L198,216L198,212L202,212L202,208L200,208L193,204L190,203L188,200L182,197L181,199L178,197L176,191L180,186L175,183L172,180L174,178L175,178L175,172L175,171L173,172L160,171L154,170L150,177L150,183L148,190L146,191L141,196L140,200L139,199L133,200L132,199L130,197L129,194L126,195L120,194L118,195L119,196L117,198L116,202L116,205L114,205L110,203L106,204L104,203L100,204L95,203L95,205Z " data-fips="BO01" data-fips-="BO" data-iso3="BLR" data-name="Brest" data-p="BR"/><path d="M245,206L245,206L243,209L243,214L241,217L234,218L228,216L229,219L227,220L218,220L214,215L212,217L210,216L208,222L206,225L206,225L207,227L215,233L215,240L217,244L214,253L216,256L215,265L219,266L221,269L220,272L223,273L225,269L225,266L227,265L231,268L234,268L239,262L242,266L251,267L252,269L254,273L256,273L259,268L268,262L269,262L273,269L273,271L279,274L281,275L286,269L288,268L290,271L295,270L304,268L305,268L310,272L311,276L318,280L321,273L319,269L320,268L318,263L317,260L319,255L319,251L322,245L322,244L329,238L329,234L333,233L339,235L340,232L343,230L346,230L352,231L355,229L353,226L352,222L350,221L349,216L348,215L349,207L344,200L345,198L345,194L343,191L339,188L337,185L334,182L338,177L337,176L332,178L329,175L329,174L325,168L322,167L321,169L316,169L314,170L305,170L305,171L299,173L297,170L286,168L285,170L286,175L285,175L285,180L282,180L282,185L285,188L284,190L279,190L267,191L265,194L261,195L260,199L256,201L254,205L247,206L245,206Z " data-fips="BO02" data-fips-="BO" data-iso3="BLR" data-name="Homyel'" data-p="HO"/><path d="M271,121L271,121L272,122L272,128L271,128L269,134L271,143L274,144L272,147L272,149L266,152L263,152L258,157L258,160L257,160L255,157L247,157L245,159L246,160L243,161L240,170L243,173L235,175L232,173L232,177L235,179L241,179L242,182L245,181L246,185L245,188L245,192L242,198L239,202L243,205L245,206L247,206L254,205L256,201L260,199L261,195L265,194L267,191L279,190L284,190L285,188L282,185L282,180L285,180L285,175L286,175L285,170L286,168L297,170L299,173L305,171L305,170L314,170L316,169L321,169L322,167L325,168L329,174L329,175L332,178L337,176L337,176L339,172L343,172L345,171L350,172L352,176L355,176L361,176L365,174L367,173L369,170L372,164L373,163L375,163L378,161L380,161L380,155L377,154L377,153L375,153L370,149L368,147L371,143L369,141L366,141L357,137L351,139L347,139L348,134L349,128L348,125L338,121L331,117L329,110L326,105L326,105L324,105L322,108L318,107L317,108L311,108L308,110L307,115L306,115L297,115L298,111L293,113L288,117L283,114L284,115L280,116L276,116L273,118L272,120L271,121Z " data-fips="BO04" data-fips-="BO|BO06" data-iso3="BLR" data-name="Mahilyow" data-p="HM"/><path d="M168,83L171,87L171,86L173,85L173,86L173,86L177,85L181,85L183,84L185,85L190,84L193,85L196,85L201,82L202,84L203,89L207,90L210,92L210,94L213,94L215,96L215,98L218,101L221,101L222,102L228,101L233,100L238,105L239,105L240,100L246,99L246,103L252,104L253,100L257,101L259,100L263,99L264,102L271,101L272,102L271,104L270,113L269,114L270,121L271,121L272,120L273,118L276,116L280,116L284,115L283,114L288,117L293,113L298,111L297,115L306,115L307,115L308,110L311,108L317,108L318,107L322,108L324,105L326,105L326,105L322,103L324,96L322,93L320,93L318,92L311,87L313,81L316,77L315,75L317,75L315,67L314,66L310,61L313,54L312,53L313,47L311,44L310,43L307,44L302,41L302,38L298,36L298,34L292,33L287,33L283,32L279,33L277,37L275,37L271,39L269,42L268,42L264,37L264,28L259,27L255,24L248,27L248,29L244,28L243,24L238,21L232,25L225,19L224,19L217,26L215,30L212,32L210,39L204,38L203,37L200,39L196,37L191,38L185,46L181,45L180,46L180,52L178,55L176,65L181,65L187,69L182,72L180,76L177,75L170,75L168,82L168,83Z " data-fips="BO07" data-fips-="BO" data-iso3="BLR" data-name="Vitsyebsk" data-p="VI"/><path d="M167,84L166,85L158,87L154,96L154,106L151,111L150,114L148,117L153,121L155,123L155,129L151,130L148,130L148,125L145,121L144,123L140,124L138,123L136,128L132,130L128,129L125,132L125,138L120,138L116,139L112,143L107,142L106,141L96,140L94,141L87,142L84,140L86,158L88,166L95,184L94,187L95,192L95,197L95,203L100,204L104,203L106,204L110,203L114,205L116,205L116,202L117,198L119,196L118,195L120,194L126,195L129,194L130,197L132,199L133,200L139,199L140,200L141,196L146,191L148,190L150,183L150,177L154,170L160,171L173,172L175,171L181,169L180,161L177,156L175,156L174,153L170,146L170,144L176,139L176,137L175,137L171,135L169,135L168,130L166,130L165,128L170,124L176,124L179,120L181,107L182,108L184,102L181,101L178,96L175,92L173,90L173,86L173,86L173,85L171,86L171,87L168,83L167,84Z " data-fips="BO03" data-fips-="BO" data-iso3="BLR" data-name="Hrodna" data-p="HR"/><path d="M270,121L269,114L270,113L271,104L272,102L271,101L264,102L263,99L259,100L257,101L253,100L252,104L246,103L246,99L240,100L239,105L238,105L233,100L228,101L222,102L221,101L218,101L215,98L215,96L213,94L210,94L210,92L207,90L203,89L202,84L201,82L196,85L193,85L190,84L185,85L183,84L181,85L177,85L173,86L173,86L173,86L173,90L175,92L178,96L181,101L184,102L182,108L181,107L179,120L176,124L170,124L165,128L166,130L168,130L169,135L171,135L175,137L176,137L176,139L170,144L170,146L174,153L175,156L177,156L180,161L181,169L175,171L175,172L175,178L174,178L172,180L175,183L180,186L176,191L178,197L181,199L182,197L188,200L190,203L193,204L200,208L202,208L202,212L198,212L198,216L200,218L202,223L206,225L208,222L210,216L212,217L214,215L218,220L227,220L229,219L228,216L234,218L241,217L243,214L243,209L245,206L245,206L243,205L239,202L242,198L245,192L245,188L246,185L245,181L242,182L241,179L235,179L232,177L232,173L235,175L243,173L240,170L243,161L246,160L245,159L247,157L255,157L257,160L258,160L258,157L263,152L266,152L272,149L272,147L274,144L271,143L269,134L271,128L272,128L272,122L271,121L271,121L270,121Z " data-fips="BO06" data-fips-="BO|BO05" data-iso3="BLR" data-name="Minsk" data-p="MI"/></g></svg>