<?xml version="1.0" encoding="UTF-8"?><!DOCTYPE svg  PUBLIC '-//W3C//DTD SVG 1.1//EN'  'http://www.w3.org/Graphics/SVG/1.1/DTD/svg11.dtd'><svg enable_background="new 0 0 450 301" height="301px" style="stroke-linejoin: round; stroke:#000; fill:#f6f3f0;" version="1.1" viewBox="0 0 450 301" width="450px" xmlns="http://www.w3.org/2000/svg" xmlns:xlink="http://www.w3.org/1999/xlink"><defs><style type="text/css"><![CDATA[path { fill-rule: evenodd; }
#context path { fill: #eee; stroke: #bbb; } ]]></style></defs><metadata><views><view h="301.0" padding="0.06" w="450"><proj id="laea" lat0="17.5383871525" lon0="-88.4327421438"/><bbox h="34.28" w="19.26" x="989.42" y="987.21"/><llbbox lat0="-90" lat1="90" lon0="-180" lon1="180"/></view></views></metadata><g id="context"><path d="M293,124L298,118L299,113L296,111L295,115L292,120L288,124L284,135L285,139L293,124Z M283,70L293,47L292,45L288,45L282,62L282,66L278,72L283,70Z M247,11L239,10L230,11L224,14L218,31L201,54L195,66L190,69L186,71L170,62L162,65L159,72L159,82L158,108L150,288L150,289L163,288L181,289L186,289L184,282L187,275L206,250L220,246L230,230L236,225L246,209L251,173L248,149L248,136L250,127L257,114L250,104L255,89L256,78L268,49L269,37L264,24L252,24L247,25L242,23L247,11Z " data-iso="BLZ"/><path d="M186,289L181,289L163,288L150,289L150,288L158,108L159,82L137,82L54,81L0,80L0,202L4,208L6,215L6,221L12,226L23,229L28,234L28,238L25,248L24,259L25,268L0,268L0,299L207,299L205,298L195,292L191,291L186,289Z M243,299L217,282L216,285L219,288L223,293L218,299L243,299Z " data-iso="GTM"/><path d="M331,299L325,295L318,287L309,287L291,290L288,292L278,299L331,299Z M375,299L352,295L343,296L333,299L375,299Z M446,299L435,298L407,299L405,299L446,299Z M450,229L439,232L427,237L420,244L425,244L441,235L450,232L450,229Z " data-iso="HND"/><path d="M273,0L272,5L273,10L282,14L290,32L293,33L298,23L302,14L304,0L273,0Z M159,82L159,72L162,65L170,62L186,71L190,69L195,66L201,54L218,31L224,14L230,11L239,10L247,11L249,6L253,0L0,0L0,80L54,81L137,82L159,82Z M0,268L25,268L24,259L25,248L28,238L28,234L23,229L12,226L6,221L6,215L4,208L0,202L0,268Z " data-iso="MEX"/></g><g fill="red" fill-opacity="0.35" id="regions"><path d="M298,135L299,134L297,128L296,126L296,138L298,138L298,135Z M270,115L269,116L269,120L271,117L270,115Z M299,112L295,111L298,114L297,119L296,119L292,119L286,125L286,130L284,138L285,139L287,135L288,127L292,123L294,125L297,120L300,116L299,112Z M273,110L272,104L270,100L271,106L273,110Z M264,97L267,96L269,94L270,90L261,97L264,97Z M261,66L248,65L226,71L220,74L220,82L219,85L219,92L213,99L212,105L213,121L216,120L218,119L219,140L220,147L221,152L220,155L218,157L216,158L243,158L247,156L248,155L248,155L247,150L248,133L253,119L254,116L259,116L261,114L260,113L255,113L254,110L249,107L248,104L256,86L257,77L256,75L261,66Z M293,45L292,43L290,45L287,45L284,54L282,61L282,64L284,64L282,69L277,72L277,72L281,71L284,68L286,64L293,47L293,45Z " data-fips="BH01" data-fips-="" data-iso3="BLZ" data-name="Belize"/><path d="M213,121L212,120L201,125L191,125L188,125L183,128L171,129L163,132L156,138L152,237L154,235L160,228L167,226L172,222L179,222L180,220L182,218L184,218L191,213L194,209L193,208L196,204L198,204L198,202L203,192L208,190L209,179L215,173L219,166L219,165L215,159L216,158L218,157L220,155L221,152L220,147L219,140L218,119L216,120L213,121Z " data-fips="BH02" data-fips-="" data-iso3="BLZ" data-name="Cayo"/><path d="M215,35L222,38L227,42L234,52L248,65L261,66L261,66L262,65L268,49L269,39L268,26L263,27L267,24L268,22L263,23L260,25L251,23L244,26L243,28L245,21L240,24L238,22L238,20L246,15L248,12L246,10L239,10L236,9L231,10L227,10L223,14L219,26L216,30L215,35L215,35Z " data-fips="BH03" data-fips-="" data-iso3="BLZ" data-name="Corozal"/><path d="M248,65L234,52L227,42L222,38L215,35L214,36L212,39L206,43L207,44L203,55L198,60L196,64L189,73L187,74L181,67L177,67L172,63L170,62L159,68L159,72L158,88L156,138L163,132L171,129L183,128L188,125L191,125L201,125L212,120L213,121L212,105L213,99L219,92L219,85L220,82L220,74L226,71L248,65Z " data-fips="BH04" data-fips-="" data-iso3="BLZ" data-name="Orange Walk"/><path d="M237,223L239,217L240,214L243,207L243,209L240,221L241,223L242,221L242,218L244,210L246,207L247,199L247,194L250,190L252,190L249,181L253,175L255,174L254,163L250,160L248,156L248,155L247,156L243,158L216,158L215,159L219,165L219,166L215,173L209,179L208,190L203,192L198,202L198,204L201,203L213,203L216,205L217,210L221,216L221,222L225,222L233,222L235,222L238,224L237,223Z " data-fips="BH05" data-fips-="" data-iso3="BLZ" data-name="Stann Creek"/><path d="M198,204L196,204L193,208L194,209L191,213L184,218L182,218L180,220L179,222L172,222L167,226L160,228L154,235L152,237L150,287L151,290L156,288L164,288L170,288L179,290L184,286L182,281L182,279L187,275L189,274L190,271L197,263L199,263L201,258L201,254L203,252L206,250L210,250L211,247L215,249L217,249L218,246L218,251L219,248L223,247L228,239L229,236L232,231L234,230L236,226L238,224L238,224L235,222L233,222L225,222L221,222L221,216L217,210L216,205L213,203L201,203L198,204Z " data-fips="BH06" data-fips-="" data-iso3="BLZ" data-name="Toledo"/></g></svg>