<?xml version="1.0" encoding="UTF-8"?><!DOCTYPE svg  PUBLIC '-//W3C//DTD SVG 1.1//EN'  'http://www.w3.org/Graphics/SVG/1.1/DTD/svg11.dtd'><svg enable_background="new 0 0 450 451" height="451px" style="stroke-linejoin: round; stroke:#000; fill:#f6f3f0;" version="1.1" viewBox="0 0 450 451" width="450px" xmlns="http://www.w3.org/2000/svg" xmlns:xlink="http://www.w3.org/1999/xlink"><defs><style type="text/css"><![CDATA[path { fill-rule: evenodd; }
#context path { fill: #eee; stroke: #bbb; } ]]></style></defs><metadata><views><view h="451" padding="0.06" w="450"><proj id="laea" lat0="-17.1839895564" lon0="-65.6312563876"/><bbox h="180.37" w="160.72" x="943.51" y="898.84"/><llbbox lat0="-90" lat1="90" lon0="-180" lon1="180"/></view></views></metadata><g id="context"><path d="M250,408L250,407L246,402L233,400L221,400L214,401L213,402L204,418L201,423L197,411L195,407L182,403L164,403L162,403L153,396L149,394L145,403L135,406L132,412L127,416L125,420L122,424L121,425L127,431L124,438L121,449L290,449L285,446L274,437L270,433L267,427L263,419L258,414L251,408L250,408Z " data-iso="ARG"/><path d="M383,347L390,342L382,335L393,314L395,314L395,310L393,310L400,290L401,287L395,271L394,267L389,266L378,257L376,247L376,239L380,235L380,228L376,229L326,226L325,202L315,190L324,190L324,175L321,166L320,164L321,157L318,149L306,142L302,140L289,141L280,141L271,132L271,129L264,128L254,124L246,119L242,114L241,113L237,115L224,108L221,107L216,109L207,108L202,106L199,100L191,94L185,92L182,85L179,84L173,68L175,63L175,59L171,49L171,47L175,39L176,36L175,27L173,22L163,24L146,26L137,28L132,31L121,40L112,43L107,47L102,53L94,52L89,56L86,60L75,66L71,66L70,64L57,61L50,61L46,62L50,68L74,109L72,114L65,120L66,136L65,139L63,145L64,148L66,154L69,161L59,173L57,178L55,179L56,187L60,192L55,201L55,201L57,205L58,205L60,207L63,209L65,210L66,212L66,214L66,214L69,215L71,215L72,215L70,218L69,219L70,220L71,222L75,223L77,223L78,223L78,225L75,226L74,228L73,229L69,229L68,230L69,231L71,232L70,234L68,234L65,233L63,238L61,240L54,248L48,254L52,263L52,263L52,266L57,271L59,277L64,279L65,286L70,309L79,317L81,319L77,331L80,335L80,340L76,341L77,354L83,358L82,367L85,368L92,379L93,389L95,393L96,400L98,402L100,410L102,415L102,425L107,427L117,426L121,425L122,424L125,420L127,416L132,412L135,406L145,403L149,394L153,396L162,403L164,403L182,403L195,407L197,411L201,423L204,418L213,402L214,401L221,400L233,400L246,402L250,407L250,408L251,406L262,372L262,356L273,341L278,329L285,328L329,319L355,320L381,337L382,343L381,348L383,347Z M63,222L65,223L66,224L68,223L70,224L69,223L68,222L66,220L64,219L63,219L63,222Z " data-iso="BOL"/><path d="M450,447L450,448L450,449L450,447Z M46,62L50,61L57,61L70,64L71,66L75,66L86,60L89,56L94,52L102,53L107,47L112,43L121,40L132,31L137,28L146,26L163,24L173,22L175,27L176,36L175,39L171,47L171,49L175,59L175,63L173,68L179,84L182,85L185,92L191,94L199,100L202,106L207,108L216,109L221,107L224,108L237,115L241,113L242,114L246,119L254,124L264,128L271,129L271,132L280,141L289,141L302,140L306,142L318,149L321,157L320,164L321,166L324,175L324,190L315,190L325,202L326,226L376,229L380,228L380,235L376,239L376,247L378,257L389,266L394,267L395,271L401,287L400,290L393,310L395,310L395,314L393,314L382,335L390,342L383,347L381,348L381,350L385,359L386,364L387,364L387,370L389,374L389,378L387,383L387,385L385,389L386,395L385,402L383,406L384,408L393,409L395,410L402,412L404,411L413,414L421,413L425,409L428,409L432,415L443,417L446,420L446,423L449,428L448,435L450,445L450,0L0,0L0,29L4,26L6,23L17,16L15,21L16,24L14,28L14,64L18,62L22,65L27,65L35,61L43,62L46,62Z " data-iso="BRA"/><path d="M121,425L117,426L107,427L102,425L102,415L100,410L98,402L96,400L95,393L93,389L92,379L85,368L82,367L83,358L77,354L76,341L80,340L80,335L77,331L81,319L79,317L70,309L65,286L64,279L59,277L57,271L52,266L52,263L50,265L47,267L42,269L44,278L40,285L33,288L26,289L28,291L29,297L29,304L31,317L33,324L35,347L34,356L34,362L38,378L38,386L37,390L35,407L34,418L32,428L29,433L26,434L26,444L28,447L31,449L121,449L124,438L127,431L121,425Z " data-iso="CHL"/><path d="M26,289L33,288L40,285L44,278L42,269L47,267L50,265L52,263L52,263L48,254L54,248L61,240L63,238L65,233L64,232L63,231L65,229L65,228L65,225L66,224L66,224L65,223L63,222L62,223L61,224L57,224L55,223L52,222L52,222L53,220L53,218L53,217L48,216L44,213L42,211L41,211L41,212L41,214L40,214L36,212L36,210L36,209L38,206L39,206L42,207L42,207L42,206L40,202L38,199L38,198L39,198L40,197L41,196L43,195L44,194L45,194L47,196L50,197L53,200L55,201L60,192L56,187L55,179L57,178L59,173L69,161L66,154L64,148L63,145L65,139L66,136L65,120L72,114L74,109L50,68L46,62L43,62L35,61L27,65L22,65L18,62L14,64L14,28L16,24L15,21L17,16L6,23L4,26L0,29L0,271L7,275L10,277L14,281L24,287L26,289Z " data-iso="PER"/><path d="M381,348L382,343L381,337L355,320L329,319L285,328L278,329L273,341L262,356L262,372L251,406L250,408L251,408L258,414L263,419L267,427L270,433L274,437L285,446L290,449L450,449L450,449L450,448L450,447L450,445L448,435L449,428L446,423L446,420L443,417L432,415L428,409L425,409L421,413L413,414L404,411L402,412L395,410L393,409L384,408L383,406L385,402L386,395L385,389L387,385L387,383L389,378L389,374L387,370L387,364L386,364L385,359L381,350L381,348Z " data-iso="PRY"/></g><g fill="red" fill-opacity="0.35" id="regions"><path d="M194,211L179,213L179,213L174,224L171,227L160,230L151,228L143,220L140,215L131,206L129,208L127,211L127,217L129,222L130,222L131,228L131,230L132,234L132,239L127,241L126,244L127,249L128,252L130,258L130,261L126,263L131,267L131,267L133,269L135,273L137,277L139,276L144,277L151,273L154,273L157,276L159,276L162,278L167,283L174,290L174,290L174,290L177,293L177,295L181,297L184,294L193,294L196,297L199,297L201,296L203,297L203,297L204,296L204,293L201,290L200,288L193,273L202,262L203,259L207,259L206,256L202,252L194,246L191,242L190,238L191,233L194,227L193,226L194,219L193,215L192,213L194,212L194,211L194,211Z " data-fips="BL02" data-fips-="" data-iso3="BOL" data-name="Cochabamba"/><path d="M177,385L177,384L178,374L179,368L181,368L188,372L190,371L192,367L196,370L197,371L203,373L207,373L207,368L210,366L213,369L216,369L262,370L262,357L262,357L262,356L263,355L264,354L233,353L231,350L227,353L223,352L222,351L221,339L220,316L220,309L213,313L207,306L207,304L205,302L203,297L203,297L203,297L201,296L199,297L196,297L193,294L184,294L181,297L177,295L177,293L174,290L174,290L173,290L165,288L164,290L166,291L166,298L165,300L171,298L171,300L169,302L168,308L175,317L179,319L186,319L188,322L190,328L190,332L188,334L182,337L175,340L175,341L173,347L175,355L172,364L171,379L175,384L177,385Z " data-fips="BL01" data-fips-="" data-iso3="BOL" data-name="Chuquisaca"/><path d="M173,43L171,44L169,46L162,49L162,52L159,53L157,52L158,56L153,56L153,58L151,61L146,70L147,72L144,74L139,76L137,75L133,79L131,83L128,87L125,88L128,93L127,104L127,104L126,105L127,109L124,120L123,124L121,125L116,132L113,140L114,141L110,151L109,154L110,163L108,164L110,170L109,173L112,177L113,184L116,185L120,190L124,200L130,205L131,206L140,215L143,220L151,228L160,230L171,227L174,224L179,213L179,213L194,211L194,211L233,213L231,211L230,209L227,206L225,204L218,194L215,188L215,177L227,173L286,140L286,140L279,141L278,139L274,135L270,129L263,128L260,126L255,125L254,123L251,124L245,119L242,113L239,113L237,115L232,113L225,107L221,107L211,108L206,108L203,107L200,104L200,101L194,97L192,97L191,94L184,92L183,87L181,84L180,86L179,83L178,78L175,77L174,74L175,72L173,70L174,63L176,61L175,58L174,56L171,50L172,45L173,43L173,43Z " data-fips="BL03" data-fips-="" data-iso3="BOL" data-name="El Beni"/><path d="M74,109L71,115L69,116L65,120L66,133L66,140L64,144L66,155L68,156L69,161L65,162L66,166L60,170L60,173L58,173L57,178L54,180L54,185L61,193L58,195L56,199L55,201L55,201L57,205L58,205L60,207L63,209L65,210L66,212L66,214L66,214L69,215L71,215L72,215L70,218L69,219L70,220L71,222L75,223L77,223L78,223L78,225L75,226L74,228L73,229L69,229L68,230L69,231L71,232L70,234L68,234L65,233L65,237L63,238L56,247L49,253L48,253L49,257L51,259L52,265L57,271L58,277L59,277L64,279L65,279L71,277L76,273L78,270L83,267L91,267L96,269L102,273L104,268L117,260L122,259L125,263L126,263L130,261L130,258L128,252L127,249L126,244L127,241L132,239L132,234L131,230L131,228L130,222L129,222L127,217L127,211L129,208L131,206L130,205L124,200L120,190L116,185L113,184L112,177L109,173L110,170L108,164L110,163L109,154L110,151L114,141L113,140L116,132L121,125L123,124L124,120L127,109L126,105L127,104L96,90L94,92L87,95L86,99L80,106L77,106L76,108L74,108L74,109Z M62,223L66,224L68,223L70,224L69,223L68,222L66,220L64,219L63,219L62,223Z " data-fips="BL04" data-fips-="" data-iso3="BOL" data-name="La Paz"/><path d="M126,263L125,263L122,259L117,260L104,268L102,273L96,269L91,267L83,267L78,270L76,273L71,277L65,279L65,279L63,282L65,288L66,292L67,298L69,304L68,307L70,310L83,320L82,324L80,326L89,329L102,333L106,333L110,332L134,321L142,315L149,314L154,313L150,307L145,299L139,298L135,293L135,288L140,285L134,284L133,279L136,277L137,277L135,273L133,269L131,267L131,267L126,263Z " data-fips="BL05" data-fips-="" data-iso3="BOL" data-name="Oruro"/><path d="M74,108L76,108L77,106L80,106L86,99L87,95L94,92L96,90L127,104L127,104L128,93L125,88L128,87L131,83L133,79L137,75L139,76L144,74L147,72L146,70L151,61L153,58L153,56L158,56L157,52L159,53L162,52L162,49L169,46L171,44L173,43L173,43L175,41L175,34L175,32L175,26L172,21L171,22L167,26L161,23L155,24L152,25L141,28L135,28L127,34L122,39L119,41L115,41L114,43L112,43L101,53L100,52L94,52L92,53L87,58L85,62L75,66L71,67L71,64L64,63L62,62L52,61L47,63L74,108Z " data-fips="BL06" data-fips-="" data-iso3="BOL" data-name="Pando"/><path d="M137,277L136,277L133,279L134,284L140,285L135,288L135,293L139,298L145,299L150,307L154,313L149,314L142,315L134,321L110,332L106,333L102,333L89,329L80,326L79,328L77,331L81,334L80,340L75,342L76,344L78,349L76,350L78,355L81,356L81,366L85,368L92,378L95,394L95,399L99,403L100,408L100,410L102,418L102,425L109,428L121,425L126,419L126,416L133,413L135,406L136,406L145,403L148,393L152,395L157,398L162,403L166,403L178,403L179,403L178,399L174,394L177,386L177,385L175,384L171,379L172,364L175,355L173,347L175,341L175,340L182,337L188,334L190,332L190,328L188,322L186,319L179,319L175,317L168,308L169,302L171,300L171,298L165,300L166,298L166,291L164,290L165,288L173,290L174,290L174,290L167,283L162,278L159,276L157,276L154,273L151,273L144,277L139,276L137,277Z " data-fips="BL07" data-fips-="BL05" data-iso3="BOL" data-name="Potos"/><path d="M286,140L227,173L215,177L215,188L218,194L225,204L227,206L230,209L231,211L233,213L194,211L194,212L192,213L193,215L194,219L193,226L194,227L191,233L190,238L191,242L194,246L202,252L206,256L207,259L203,259L202,262L193,273L200,288L201,290L204,293L204,296L203,297L203,297L205,302L207,304L207,306L213,313L220,309L220,316L221,339L222,351L223,352L227,353L231,350L233,353L264,354L270,345L274,339L285,328L329,319L355,320L381,337L382,347L387,344L390,342L383,335L383,334L393,314L395,312L395,310L401,290L404,289L400,286L399,282L396,277L394,266L389,266L381,259L378,258L377,256L376,239L380,232L379,228L377,229L328,226L326,224L326,218L325,201L317,191L315,190L324,190L324,175L321,166L320,165L319,160L321,158L319,150L316,149L310,144L300,140L296,140L289,141L286,140L286,140Z " data-fips="BL08" data-fips-="" data-iso3="BOL" data-name="Santa Cruz"/><path d="M177,385L177,386L174,394L178,399L179,403L183,403L188,404L195,406L197,408L196,410L200,416L199,420L202,426L205,416L207,413L210,408L217,400L219,402L222,400L245,400L246,401L247,405L250,408L262,372L262,370L262,370L216,369L213,369L210,366L207,368L207,373L203,373L197,371L196,370L192,367L190,371L188,372L181,368L179,368L178,374L177,384L177,385Z " data-fips="BL09" data-fips-="" data-iso3="BOL" data-name="Tarija"/></g></svg>