<?xml version="1.0" encoding="UTF-8"?><!DOCTYPE svg  PUBLIC '-//W3C//DTD SVG 1.1//EN'  'http://www.w3.org/Graphics/SVG/1.1/DTD/svg11.dtd'><svg enable_background="new 0 0 450 451" height="451px" style="stroke-linejoin: round; stroke:#000; fill:#f6f3f0;" version="1.1" viewBox="0 0 450 451" width="450px" xmlns="http://www.w3.org/2000/svg" xmlns:xlink="http://www.w3.org/1999/xlink"><defs><style type="text/css"><![CDATA[path { fill-rule: evenodd; }
#context path { fill: #eee; stroke: #bbb; } ]]></style></defs><metadata><views><view h="451" padding="0.06" w="450"><proj id="laea" lat0="-9.12980417262" lon0="-70.6623386329"/><bbox h="549.8" w="606.66" x="926.43" y="791.42"/><llbbox lat0="-90" lat1="90" lon0="-180" lon1="180"/></view></views></metadata><g id="context"><path d="M153,390L155,381L157,374L159,370L159,370L160,370L164,366L176,353L187,347L193,344L195,337L194,332L191,329L189,330L188,330L187,334L185,339L180,342L177,346L174,345L171,346L153,342L163,328L162,324L151,318L143,313L137,311L130,305L126,300L123,296L123,296L123,296L118,294L112,294L108,300L102,294L97,294L93,291L91,294L88,295L84,300L84,301L86,302L82,312L73,317L72,325L73,330L74,338L72,339L64,350L60,359L61,366L59,369L57,373L58,386L59,392L59,394L61,395L61,403L56,415L57,417L54,423L52,424L51,435L52,443L49,446L49,449L116,449L118,446L134,446L147,444L151,441L156,435L160,426L156,424L156,420L158,417L154,412L150,410L149,408L149,401L152,391L153,390Z " data-iso="ARG"/><path d="M163,279L165,277L163,275L169,261L167,256L162,252L161,243L147,242L146,235L144,232L146,231L146,227L145,219L140,216L134,217L131,214L125,212L122,208L120,209L116,207L110,206L104,199L102,194L103,193L102,181L101,182L91,183L82,188L79,190L76,192L72,193L65,192L64,192L65,194L72,206L69,217L70,221L67,225L66,229L68,231L66,234L67,235L69,236L69,237L71,238L70,239L71,240L73,241L71,242L70,242L70,244L69,243L68,245L64,249L65,252L65,252L65,253L68,257L70,266L72,275L72,279L73,280L76,288L78,300L83,301L84,301L84,300L88,295L91,294L93,291L97,294L102,294L108,300L112,294L118,294L123,296L123,296L123,296L128,279L132,273L147,270L155,270L162,275L163,277L162,279L163,279Z M68,240L69,241L69,241L70,240L68,239L68,240Z " data-iso="BOL"/><path d="M246,94L241,94L243,96L246,94Z M226,108L230,107L233,102L232,100L228,103L226,108Z M247,98L237,98L236,102L236,107L237,110L235,107L235,104L223,110L223,108L227,106L228,102L232,96L233,96L238,92L241,88L244,81L241,79L237,76L237,74L234,65L232,58L229,56L229,58L217,74L210,73L206,75L202,73L202,73L201,73L196,71L195,72L190,71L189,77L185,76L185,76L184,76L181,76L179,75L173,78L168,79L166,81L159,80L156,77L155,72L152,68L154,60L157,57L154,52L151,51L152,46L146,45L146,45L146,45L147,48L138,53L133,55L130,54L126,60L121,56L115,56L108,54L114,59L114,63L116,69L121,70L121,72L117,74L115,77L106,82L102,86L100,83L94,85L92,83L89,81L88,81L87,76L85,73L81,76L77,76L62,76L63,82L67,82L68,84L60,87L60,92L64,96L66,101L66,105L61,130L61,131L61,131L52,132L44,133L36,138L27,154L27,159L24,161L32,172L33,178L40,179L41,183L46,183L56,178L55,182L55,193L63,192L64,192L65,192L72,193L76,192L79,190L82,188L91,183L101,182L102,181L103,193L102,194L104,199L110,206L116,207L120,209L122,208L125,212L131,214L134,217L140,216L145,219L146,227L146,231L144,232L146,235L147,242L161,243L162,252L167,256L169,261L163,275L165,277L163,279L162,279L162,279L164,284L164,290L163,296L171,298L176,297L182,307L182,311L189,314L192,316L188,328L188,330L189,330L191,329L194,332L195,337L193,344L187,347L176,353L164,366L160,370L159,370L160,371L164,370L166,370L170,375L172,379L175,377L178,381L182,383L191,395L193,394L196,391L196,392L196,394L193,397L193,396L192,396L190,398L190,398L188,401L188,402L188,402L189,404L192,402L196,397L200,390L203,384L211,375L214,376L211,382L214,381L217,376L220,371L225,365L231,361L234,356L235,348L236,341L235,340L239,334L237,333L241,332L244,329L255,322L264,319L265,320L273,315L273,314L280,313L285,314L285,312L287,314L294,315L298,309L304,307L305,302L306,300L312,294L319,283L320,277L321,273L326,269L331,252L331,240L332,234L332,230L336,221L340,224L348,213L349,210L366,195L372,185L374,175L374,165L370,153L356,149L355,147L345,137L332,128L321,127L315,126L312,126L303,121L298,123L295,125L295,122L291,128L292,121L290,120L292,118L287,112L285,113L284,111L266,103L266,104L261,103L257,109L258,110L255,110L248,118L247,117L249,112L247,113L241,114L239,114L238,111L240,112L250,111L250,109L254,109L254,108L258,99L247,98Z " data-iso="BRA"/><path d="M84,301L83,301L78,300L76,288L73,280L72,279L72,275L70,266L68,257L65,253L65,252L64,253L62,256L62,257L57,260L57,260L59,277L59,288L58,298L55,302L57,308L56,314L56,322L54,327L55,329L53,343L51,345L49,353L48,356L49,362L49,367L46,368L47,376L48,389L46,393L47,398L45,400L40,415L40,417L37,425L34,430L32,430L32,434L33,436L36,449L49,449L49,446L52,443L51,435L52,424L54,423L57,417L56,415L61,403L61,395L59,394L59,392L58,386L57,373L59,369L61,366L60,359L64,350L72,339L74,338L73,330L72,325L73,317L82,312L86,302L84,301Z " data-iso="CHL"/><path d="M12,93L13,92L23,101L27,103L28,107L31,109L32,111L39,114L46,112L60,117L55,125L56,127L60,130L61,131L61,130L66,105L66,101L64,96L60,92L60,87L68,84L67,82L63,82L62,76L77,76L81,76L85,73L87,76L88,81L89,81L89,80L86,71L83,67L84,63L85,62L82,57L80,49L81,44L84,37L80,35L75,36L66,36L60,29L53,27L51,28L42,28L40,25L38,24L39,16L35,9L30,8L33,4L34,0L9,0L9,6L4,8L3,10L0,13L0,90L2,88L5,89L10,92L12,93Z " data-iso="COL"/><path d="M12,93L10,92L5,89L2,88L0,90L0,115L10,106L11,101L12,93L12,93Z " data-iso="ECU"/><path d="M206,45L203,48L203,53L204,56L207,61L205,69L202,73L202,73L202,73L206,75L210,73L217,74L229,58L228,57L225,52L218,46L208,41L206,45L206,45Z " data-iso="FRA"/><path d="M178,43L178,40L177,36L171,31L165,34L166,29L163,22L159,19L154,16L152,15L152,15L154,18L146,24L149,28L145,31L140,38L144,43L146,45L146,45L152,46L151,51L154,52L157,57L154,60L152,68L155,72L156,77L159,80L166,81L168,79L173,78L179,75L181,76L184,76L185,76L184,76L183,75L178,68L177,63L174,63L170,57L171,49L173,48L177,47L178,43L178,43Z " data-iso="GUY"/><path d="M57,260L62,257L62,256L64,253L65,252L65,252L64,249L68,245L69,243L69,243L69,241L68,240L68,240L66,240L64,238L62,237L62,237L60,237L60,236L61,235L62,235L61,233L64,232L66,234L66,234L68,231L66,229L67,225L70,221L69,217L72,206L65,194L64,192L63,192L55,193L55,182L56,178L46,183L41,183L40,179L33,178L32,172L24,161L27,159L27,154L36,138L44,133L52,132L61,131L61,131L60,130L56,127L55,125L60,117L46,112L39,114L32,111L31,109L28,107L27,103L23,101L13,92L12,93L12,93L11,101L10,106L0,115L0,207L5,216L5,222L8,226L15,233L36,244L39,245L42,247L48,251L49,254L56,259L57,260Z " data-iso="PER"/><path d="M163,277L162,275L155,270L147,270L132,273L128,279L123,296L123,296L123,296L126,300L130,305L137,311L143,313L151,318L162,324L163,328L153,342L171,346L174,345L177,346L180,342L185,339L187,334L188,330L188,328L192,316L189,314L182,311L182,307L176,297L171,298L163,296L164,290L164,284L162,279L162,279L163,277Z " data-iso="PRY"/><path d="M206,44L199,39L187,40L180,39L178,43L178,43L177,47L173,48L171,49L170,57L174,63L177,63L178,68L183,75L184,76L185,76L185,76L189,77L190,71L195,72L196,71L201,73L202,73L202,73L205,69L207,61L204,56L203,53L203,48L206,45L206,44Z " data-iso="SUR"/><path d="M159,370L159,370L157,374L155,381L153,390L153,391L151,397L150,403L154,408L159,409L166,413L172,413L175,414L180,413L185,409L188,405L189,404L188,402L188,403L187,399L188,398L190,397L190,396L191,395L182,383L178,381L175,377L172,379L170,375L166,370L164,370L160,371L159,370Z M188,401L190,398L190,398L188,401L188,401Z " data-iso="URY"/><path d="M34,0L33,4L30,8L35,9L39,16L38,24L40,25L42,28L51,28L53,27L60,29L66,36L75,36L80,35L84,37L81,44L80,49L82,57L85,62L84,63L83,67L86,71L89,80L89,81L92,83L94,85L100,83L102,86L106,82L115,77L117,74L121,72L121,70L116,69L114,63L114,59L108,54L115,56L121,56L126,60L130,54L133,55L138,53L147,48L146,45L146,45L144,43L140,38L145,31L149,28L146,24L154,18L152,15L151,14L148,15L141,14L145,7L137,3L136,5L132,2L130,2L129,0L49,0L51,4L51,7L47,10L45,9L41,3L43,0L34,0Z " data-iso="VEN"/></g><g fill="red" fill-opacity="0.35" id="regions"><path d="M26,157L24,161L27,164L29,168L34,174L32,178L39,179L41,183L48,183L52,181L55,178L55,182L57,193L72,194L73,194L78,189L81,190L84,187L91,183L91,183L91,183L89,182L62,169L57,166L36,161L26,157L26,157Z " data-fips="BR01" data-fips-="" data-iso3="BRA" data-name="Acre"/><path d="M121,72L115,75L115,77L113,80L107,81L102,86L100,83L94,85L89,81L87,80L88,78L85,73L81,76L78,76L67,76L62,77L63,82L66,82L68,85L60,86L60,93L66,103L61,130L60,131L57,130L53,130L52,132L43,133L34,139L33,144L31,148L32,150L26,155L26,157L26,157L36,161L57,166L62,169L89,182L90,182L94,178L97,178L99,179L102,179L104,177L105,178L112,174L114,174L116,168L119,166L125,166L129,169L131,171L134,173L136,173L136,173L164,174L166,165L167,163L168,161L168,161L168,161L165,156L166,154L186,114L183,114L182,113L175,109L167,103L166,101L164,100L163,94L163,91L154,91L152,91L149,97L146,101L144,99L139,98L137,104L135,105L135,104L129,99L131,97L129,92L130,85L127,77L125,74L121,72L121,72Z " data-fips="BR04" data-fips-="" data-iso3="BRA" data-name="Amazonas"/><path d="M278,109L277,113L276,114L276,118L274,122L273,123L273,126L269,133L265,138L253,146L253,146L254,146L255,145L259,146L264,148L265,152L265,158L264,160L261,164L264,165L264,167L269,172L272,172L272,176L269,176L266,181L271,186L269,188L275,194L275,194L275,194L277,188L276,180L278,179L281,170L283,169L288,167L293,164L297,162L300,163L304,162L305,159L303,156L303,153L306,148L306,142L305,140L310,132L312,132L314,130L316,126L316,126L310,125L307,123L302,121L301,123L297,123L295,125L294,124L296,121L294,122L293,126L292,122L293,120L291,121L290,119L292,116L290,113L286,112L285,114L285,110L282,111L278,109L278,109Z " data-fips="BR13" data-fips-="BR31" data-iso3="BRA" data-name="Maranhão"/><path d="M232,101L231,100L228,103L228,105L225,109L229,107L231,105L232,101Z M242,97L239,97L237,98L236,106L240,113L241,110L246,112L248,110L250,111L252,110L253,108L255,106L256,103L258,99L252,98L249,99L242,97Z M235,98L236,96L234,97L235,98Z M248,95L245,97L248,97L248,95Z M246,94L240,94L240,96L245,96L246,94Z M240,91L239,93L241,93L240,91Z M243,90L241,91L241,93L243,90Z M162,81L162,81L163,91L163,94L164,100L166,101L167,103L175,109L182,113L183,114L186,114L166,154L165,156L168,161L168,161L169,161L172,169L176,177L180,180L182,181L228,186L238,187L238,187L240,182L247,174L248,169L247,166L248,162L255,156L258,150L256,147L254,146L253,146L253,146L265,138L269,133L273,126L273,123L274,122L276,118L276,114L277,113L278,109L278,109L277,107L274,107L272,104L270,105L263,103L260,105L257,112L255,110L250,114L247,120L247,119L249,114L244,114L244,113L239,114L237,112L235,104L231,107L223,110L223,109L219,109L226,106L226,106L223,106L220,103L220,102L216,94L215,89L210,81L206,81L204,78L200,78L200,72L200,72L197,71L189,72L188,73L190,75L187,76L180,76L179,75L167,79L166,82L162,81L162,81Z " data-fips="BR16" data-fips-="" data-iso3="BRA" data-name="Pará"/><path d="M89,182L91,183L91,183L91,183L102,181L103,182L102,189L102,194L106,202L110,204L110,206L113,207L116,206L121,209L122,208L126,211L131,213L133,217L138,217L142,218L143,218L150,210L151,204L149,199L150,195L146,194L137,192L137,180L137,173L136,173L136,173L134,173L131,171L129,169L125,166L119,166L116,168L114,174L112,174L105,178L104,177L102,179L99,179L97,178L94,178L90,182L89,182Z " data-fips="BR24" data-fips-="" data-iso3="BRA" data-name="Rondônia"/><path d="M275,194L269,188L271,186L266,181L269,176L272,176L272,172L269,172L264,167L264,165L261,164L264,160L265,158L265,152L264,148L259,146L255,145L254,146L253,146L254,146L256,147L258,150L255,156L248,162L247,166L248,169L247,174L240,182L238,187L238,187L238,188L234,194L232,202L233,211L232,213L234,215L234,215L234,215L235,212L237,212L236,216L243,219L246,215L247,214L248,221L250,219L254,218L255,220L258,221L258,219L259,221L270,217L271,217L271,217L272,214L271,211L273,206L270,205L270,202L277,194L277,194L276,194L275,194L275,194Z " data-fips="BR31" data-fips-="" data-iso3="BRA" data-name="Tocantins"/><path d="M259,246L259,242L258,242L252,241L251,246L256,246L259,246L259,246Z " data-fips="BR07" data-fips-="" data-iso3="BRA" data-name="Distrito Federal"/><path d="M167,257L168,261L167,267L163,275L165,277L162,279L164,284L164,293L163,293L168,298L172,298L175,297L181,300L183,315L190,314L192,316L192,316L195,310L200,305L203,304L203,304L204,303L210,299L213,295L213,294L215,293L215,291L218,287L223,282L223,282L223,281L224,277L224,276L224,276L224,275L211,268L210,265L208,265L208,262L208,261L208,261L202,257L202,254L199,257L196,257L195,256L189,257L181,252L175,254L173,257L170,258L167,256L167,257Z " data-fips="BR11" data-fips-="" data-iso3="BRA" data-name="Mato Grosso do Sul"/><path d="M317,270L315,262L321,255L322,252L316,249L310,248L307,242L300,240L297,237L296,236L291,237L289,233L286,232L275,237L273,239L271,239L271,237L271,236L271,237L267,235L266,238L263,238L263,244L259,246L259,246L259,247L259,255L256,258L257,265L251,268L243,267L239,269L237,268L230,269L228,273L224,276L224,276L224,276L224,277L223,281L223,282L224,281L228,279L229,280L237,282L238,284L247,283L249,284L250,283L254,284L255,285L254,291L255,294L258,296L258,300L257,305L262,311L264,309L272,308L272,307L273,307L278,306L280,306L285,305L287,306L295,303L294,302L297,296L299,295L299,295L299,295L301,290L304,290L308,284L309,279L307,277L310,274L309,273L314,269L317,270L317,270L317,270Z " data-fips="BR15" data-fips-="" data-iso3="BRA" data-name="Minas Gerais"/><path d="M168,161L168,161L167,163L166,165L164,174L136,173L137,173L137,180L137,192L146,194L150,195L149,199L151,204L150,210L143,218L144,219L145,219L145,224L146,226L144,232L146,235L147,242L163,245L162,246L162,252L167,255L167,256L167,256L170,258L173,257L175,254L181,252L189,257L195,256L196,257L199,257L202,254L202,257L208,261L208,261L208,261L209,251L212,248L213,245L220,241L223,235L226,234L234,215L234,215L234,215L232,213L233,211L232,202L234,194L238,188L238,187L228,186L182,181L180,180L176,177L172,169L169,161L168,161Z " data-fips="BR14" data-fips-="" data-iso3="BRA" data-name="Mato Grosso"/><path d="M193,345L190,345L184,348L182,350L180,351L176,355L175,354L168,361L168,363L159,370L162,371L163,370L172,377L171,379L175,377L176,379L182,383L185,387L186,387L190,394L191,395L191,395L193,394L196,391L196,392L196,394L193,397L193,396L192,396L190,398L190,398L188,401L188,402L188,403L188,402L187,403L189,404L195,399L200,391L200,387L202,386L203,383L207,381L208,378L210,375L210,372L213,379L211,382L209,382L207,386L201,390L201,391L210,385L217,377L220,371L222,368L223,367L220,365L224,360L223,359L221,359L217,358L213,352L211,349L208,349L204,347L193,345L193,345Z " data-fips="BR23" data-fips-="" data-iso3="BRA" data-name="Rio Grande do Sul"/><path d="M203,304L200,305L195,310L192,316L192,316L190,326L188,328L189,331L193,331L195,336L195,336L199,338L202,338L213,342L215,338L219,338L220,337L237,337L237,337L239,333L239,331L242,332L242,331L238,325L233,325L234,322L232,316L231,310L229,308L223,308L222,307L211,303L208,303L203,304L203,304Z " data-fips="BR18" data-fips-="" data-iso3="BRA" data-name="Paraná"/><path d="M235,354L236,350L235,351L235,354Z M195,337L194,339L193,343L193,345L193,345L204,347L208,349L211,349L213,352L217,358L221,359L223,359L224,360L220,365L223,367L225,365L231,361L234,354L234,352L235,348L236,341L237,337L237,337L220,337L219,338L215,338L213,342L202,338L199,338L195,336L195,337Z " data-fips="BR26" data-fips-="" data-iso3="BRA" data-name="Santa Catarina"/><path d="M355,148L351,145L351,144L345,137L341,134L334,130L327,127L321,129L321,129L320,137L321,150L324,164L326,165L325,170L325,170L327,171L331,170L338,176L340,174L341,174L341,174L342,171L341,169L341,167L343,163L343,162L343,162L344,159L345,159L348,155L355,149L355,148Z " data-fips="BR06" data-fips-="" data-iso3="BRA" data-name="Ceará"/><path d="M321,128L320,128L317,127L316,126L316,126L314,130L312,132L310,132L305,140L306,142L306,148L303,153L303,156L305,159L304,162L300,163L297,162L293,164L288,167L283,169L281,170L278,179L276,180L277,188L275,194L275,194L276,194L277,194L278,194L281,199L283,200L285,200L287,199L293,197L296,191L295,187L301,188L303,189L305,189L313,186L313,185L316,182L317,182L317,182L320,180L324,177L324,170L325,170L325,170L326,165L324,164L321,150L320,137L321,129L321,128Z " data-fips="BR20" data-fips-="" data-iso3="BRA" data-name="Piauí"/><path d="M343,191L344,191L345,192L345,192L345,193L345,193L347,194L352,197L358,203L359,202L359,201L366,195L370,190L370,189L365,188L357,192L352,191L351,189L347,187L344,190L343,191Z " data-fips="BR02" data-fips-="" data-iso3="BRA" data-name="Alagoas"/><path d="M317,182L316,182L313,185L313,186L305,189L303,189L301,188L295,187L296,191L293,197L287,199L285,200L283,200L281,199L278,194L277,194L277,194L270,202L270,205L273,206L271,211L272,214L271,217L271,217L271,217L272,222L270,225L270,227L272,231L271,236L271,236L271,237L271,239L273,239L275,237L286,232L289,233L291,237L296,236L297,237L300,240L307,242L310,248L316,249L322,252L321,255L315,262L317,270L317,270L317,271L321,274L321,274L326,269L326,264L331,252L331,240L332,238L332,233L332,232L332,229L336,221L338,222L337,225L341,223L346,216L348,212L348,212L344,210L344,209L342,205L343,204L346,204L347,198L345,196L345,193L345,193L345,192L345,192L344,191L343,191L343,190L341,185L340,186L334,182L321,190L322,187L321,184L317,182L317,182Z " data-fips="BR05" data-fips-="" data-iso3="BRA" data-name="Bahia"/><path d="M299,295L300,295L300,295L301,299L306,300L306,300L308,297L311,295L315,289L318,286L319,284L320,276L321,274L317,271L317,270L317,270L314,269L309,273L310,274L307,277L309,279L308,284L304,290L301,290L299,295L299,295Z " data-fips="BR08" data-fips-="" data-iso3="BRA" data-name="Espírito Santo"/><path d="M343,162L343,163L341,167L341,169L342,171L341,174L341,174L341,174L342,175L345,176L354,172L355,173L354,175L355,181L360,179L360,178L368,177L369,175L374,176L374,176L374,176L374,167L374,166L365,165L362,163L360,166L358,168L354,167L352,165L355,160L350,161L350,162L345,163L343,162L343,162Z " data-fips="BR17" data-fips-="" data-iso3="BRA" data-name="Paraíba"/><path d="M272,316L272,313L276,312L277,310L275,310L272,307L272,307L273,307L278,306L280,306L285,305L287,306L295,303L294,302L297,296L299,295L299,295L300,295L300,295L301,299L306,300L306,300L304,307L295,312L295,315L286,314L285,312L285,314L281,314L278,313L273,314L272,316L272,316Z " data-fips="BR21" data-fips-="" data-iso3="BRA" data-name="Rio de Janeiro"/><path d="M355,149L348,155L345,159L344,159L343,162L343,162L343,162L345,163L350,162L350,161L355,160L352,165L354,167L358,168L360,166L362,163L365,165L374,166L374,166L371,154L369,153L360,151L355,149L355,149Z " data-fips="BR22" data-fips-="" data-iso3="BRA" data-name="Rio Grande do Norte"/><path d="M345,193L345,193L345,196L347,198L346,204L343,204L342,205L344,209L344,210L348,212L348,212L351,208L353,205L358,203L358,203L352,197L347,194L345,193L345,193Z " data-fips="BR28" data-fips-="" data-iso3="BRA" data-name="Sergipe"/><path d="M121,72L125,74L127,77L130,85L129,92L131,97L129,99L135,104L135,105L137,104L139,98L144,99L146,101L149,97L152,91L154,91L163,91L162,81L162,81L161,81L155,77L155,72L153,69L154,60L156,57L155,53L152,51L152,50L152,46L147,48L143,51L139,53L135,55L127,56L127,59L115,56L115,55L109,53L108,54L113,58L116,68L115,70L122,70L122,72L121,72Z " data-fips="BR25" data-fips-="" data-iso3="BRA" data-name="Roraima"/><path d="M200,72L200,78L204,78L206,81L210,81L215,89L216,94L220,102L220,103L223,106L226,106L227,106L234,96L236,94L241,88L242,87L244,82L239,78L236,72L234,64L234,59L229,55L230,58L228,58L222,66L219,73L218,74L210,73L208,74L204,74L200,72L200,72Z " data-fips="BR03" data-fips-="" data-iso3="BRA" data-name="Amapá"/><path d="M271,217L272,222L270,225L270,227L272,231L271,236L271,236L271,237L267,235L266,238L263,238L263,244L259,246L259,246L259,246L259,242L258,242L252,241L251,246L256,246L259,246L259,247L259,255L256,258L257,265L251,268L243,267L239,269L237,268L230,269L228,273L224,276L224,276L224,275L211,268L210,265L208,265L208,262L208,261L208,261L209,251L212,248L213,245L220,241L223,235L226,234L234,215L234,215L234,215L235,212L237,212L236,216L243,219L246,215L247,214L248,221L250,219L254,218L255,220L258,221L258,219L259,221L270,217L271,217L271,217Z " data-fips="BR29" data-fips-="" data-iso3="BRA" data-name="Goiás"/><path d="M223,282L223,282L218,287L215,291L215,293L213,294L213,295L210,299L204,303L203,304L203,304L203,304L208,303L211,303L222,307L223,308L229,308L231,310L232,316L234,322L233,325L238,325L242,331L242,331L244,328L248,326L253,323L261,319L265,320L269,317L272,316L272,316L272,313L276,312L277,310L275,310L272,307L272,307L272,308L264,309L262,311L257,305L258,300L258,296L255,294L254,291L255,285L254,284L250,283L249,284L247,283L238,284L237,282L229,280L228,279L224,281L223,282Z " data-fips="BR27" data-fips-="BR27" data-iso3="BRA" data-name="São Paulo"/><path d="M341,174L340,174L338,176L331,170L327,171L325,170L324,170L324,177L320,180L317,182L317,182L317,182L321,184L322,187L321,190L334,182L340,186L341,185L343,190L343,191L344,190L347,187L351,189L352,191L357,192L365,188L370,189L370,189L373,181L374,176L374,176L369,175L368,177L360,178L360,179L355,181L354,175L355,173L354,172L345,176L342,175L341,174L341,174Z " data-fips="BR30" data-fips-="" data-iso3="BRA" data-name="Pernambuco"/></g></svg>