<?xml version="1.0" encoding="UTF-8"?><!DOCTYPE svg  PUBLIC '-//W3C//DTD SVG 1.1//EN'  'http://www.w3.org/Graphics/SVG/1.1/DTD/svg11.dtd'><svg enable_background="new 0 0 450 301" height="301px" style="stroke-linejoin: round; stroke:#000; fill:#f6f3f0;" version="1.1" viewBox="0 0 450 301" width="450px" xmlns="http://www.w3.org/2000/svg" xmlns:xlink="http://www.w3.org/1999/xlink"><defs><style type="text/css"><![CDATA[path { fill-rule: evenodd; }
#context path { fill: #eee; stroke: #bbb; } ]]></style></defs><metadata><views><view h="301.0" padding="0.06" w="450"><proj id="laea" lat0="13.0902865665" lon0="-59.5334721681"/><bbox h="3.95" w="3.06" x="998.39" y="996.7"/><llbbox lat0="-90" lat1="90" lon0="-180" lon1="180"/></view></views></metadata><g id="context"><path d="M268,258L328,192L273,150L179,38L128,51L132,194L161,239L242,276L268,258Z " data-iso="BRB"/></g><g fill="red" fill-opacity="0.35" id="regions"><path d="M250,213L198,233L199,239L199,241L199,241L171,256L183,257L203,261L220,271L229,287L235,283L241,282L247,282L254,281L273,261L284,254L279,247L270,244L268,240L261,220L258,216L250,213Z " data-fips="BB01" data-fips-="" data-iso3="BRB" data-name="Christ Church"/><path d="M217,102L199,64L191,64L189,65L183,66L179,70L172,71L169,70L166,77L165,108L170,132L181,132L184,133L188,138L198,116L201,112L203,113L207,113L218,107L220,107L217,102Z " data-fips="BB02" data-fips-="" data-iso3="BRB" data-name="Saint Andrew"/><path d="M246,184L244,182L225,164L225,164L212,166L206,174L204,175L183,184L198,233L250,213L254,198L246,184Z " data-fips="BB03" data-fips-="" data-iso3="BRB" data-name="Saint George"/><path d="M146,105L130,113L125,111L129,184L134,202L136,202L141,206L144,206L149,204L151,201L161,194L155,171L149,164L148,163L151,159L157,143L165,139L170,132L165,108L146,105Z " data-fips="BB04" data-fips-="" data-iso3="BRB" data-name="Saint James"/><path d="M283,157L269,149L245,131L243,132L228,146L226,149L225,164L244,182L246,184L254,198L266,182L273,179L290,162L291,160L283,157Z " data-fips="BB05" data-fips-="" data-iso3="BRB" data-name="Saint John"/><path d="M229,118L220,107L218,107L207,113L203,113L201,112L198,116L188,138L201,146L202,148L205,150L212,166L225,164L225,164L226,149L228,146L243,132L245,131L229,118Z " data-fips="BB06" data-fips-="" data-iso3="BRB" data-name="Saint Joseph"/><path d="M188,40L176,22L159,12L143,19L130,32L123,44L122,59L123,78L126,78L143,66L192,50L193,50L188,40Z " data-fips="BB07" data-fips-="" data-iso3="BRB" data-name="Saint Lucy"/><path d="M183,184L177,190L175,191L161,194L151,201L149,204L144,206L141,206L136,202L134,202L141,226L151,247L163,255L171,256L199,241L199,241L199,239L198,233L183,184Z " data-fips="BB08" data-fips-="" data-iso3="BRB" data-name="Saint Michael"/><path d="M193,50L192,50L143,66L126,78L123,78L125,111L130,113L146,105L165,108L166,77L169,70L172,71L179,70L183,66L189,65L191,64L199,64L193,50Z " data-fips="BB09" data-fips-="" data-iso3="BRB" data-name="Saint Peter"/><path d="M302,241L326,217L328,184L318,171L301,163L291,160L290,162L273,179L266,182L254,198L250,213L258,216L261,220L268,240L270,244L279,247L284,254L302,241Z " data-fips="BB10" data-fips-="" data-iso3="BRB" data-name="Saint Philip"/><path d="M184,133L181,132L170,132L165,139L157,143L151,159L148,163L149,164L155,171L161,194L175,191L177,190L183,184L204,175L206,174L212,166L205,150L202,148L201,146L188,138L184,133Z " data-fips="BB11" data-fips-="BB04" data-iso3="BRB" data-name="Saint Thomas"/></g></svg>