<?xml version="1.0" encoding="UTF-8"?><!DOCTYPE svg  PUBLIC '-//W3C//DTD SVG 1.1//EN'  'http://www.w3.org/Graphics/SVG/1.1/DTD/svg11.dtd'><svg enable_background="new 0 0 450 301" height="301px" style="stroke-linejoin: round; stroke:#000; fill:#f6f3f0;" version="1.1" viewBox="0 0 450 301" width="450px" xmlns="http://www.w3.org/2000/svg" xmlns:xlink="http://www.w3.org/1999/xlink"><defs><style type="text/css"><![CDATA[path { fill-rule: evenodd; }
#context path { fill: #eee; stroke: #bbb; } ]]></style></defs><metadata><views><view h="301.0" padding="0.06" w="450"><proj id="laea" lat0="4.3490630152" lon0="114.515106167"/><bbox h="14.85" w="18.76" x="992.64" y="990.25"/><llbbox lat0="-90" lat1="90" lon0="-180" lon1="180"/></view></views></metadata><g id="context"><path d="M311,59L311,79L311,111L317,138L331,186L347,192L365,197L376,195L383,192L385,188L374,169L370,125L361,96L346,68L339,59L311,59Z M316,44L316,30L303,29L265,48L240,64L217,85L192,103L162,119L131,132L101,136L72,136L80,142L98,152L112,164L121,180L128,195L128,207L137,218L160,219L167,232L184,255L198,271L207,277L219,274L236,259L249,241L257,217L251,213L263,195L265,185L259,176L252,168L250,146L245,117L242,105L251,95L271,84L291,70L311,59L316,44Z " data-iso="BRN"/><path d="M450,299L450,292L445,298L445,299L450,299Z " data-iso="IDN"/><path d="M450,0L444,0L441,11L433,22L410,42L397,51L339,59L346,68L361,96L370,125L374,169L385,188L383,192L376,195L365,197L347,192L331,186L317,138L311,111L311,79L311,59L291,70L271,84L251,95L242,105L245,117L250,146L252,168L259,176L265,185L263,195L251,213L257,217L249,241L236,259L219,274L207,277L198,271L184,255L167,232L160,219L137,218L128,207L128,195L121,180L112,164L98,152L80,142L72,136L70,136L60,140L53,147L54,163L54,178L45,211L38,222L0,266L0,299L445,299L445,298L450,292L450,0Z " data-iso="MYS"/></g><g fill="red" fill-opacity="0.35" id="regions"><path d="M155,123L138,132L119,136L72,141L86,143L91,146L99,152L105,155L108,157L110,162L117,163L119,169L122,171L123,174L125,181L125,188L128,193L130,204L129,207L125,211L125,215L127,217L135,218L146,220L156,218L161,218L164,222L169,237L171,242L175,247L190,261L196,265L201,276L202,278L224,272L247,250L248,247L250,236L252,231L257,223L259,218L250,212L252,210L253,208L244,203L240,197L238,189L234,182L229,176L223,170L218,164L212,158L204,153L203,147L204,139L201,134L191,133L187,129L184,125L179,114L155,123Z " data-fips="BX01" data-fips-="" data-iso3="BRN" data-name="Belait" data-p="BE"/><path d="M245,60L245,66L245,72L244,79L242,84L241,89L239,97L241,101L243,99L252,96L256,93L264,85L268,82L274,81L283,82L291,79L293,76L294,68L300,62L302,58L310,51L316,35L318,31L326,28L330,25L329,22L325,20L319,21L287,34L245,60Z " data-fips="BX02" data-fips-="" data-iso3="BRN" data-name="Brunei and Muara" data-p="BM"/><path d="M356,78L349,69L343,65L341,63L340,57L334,58L333,60L335,64L337,68L337,71L331,72L326,75L321,81L316,84L310,99L311,119L313,129L321,148L324,158L327,182L329,186L332,188L346,193L352,194L359,193L361,194L365,197L367,199L372,198L379,202L385,205L394,201L393,196L389,190L381,182L375,175L372,165L370,154L370,145L372,135L373,131L372,125L356,78Z " data-fips="BX03" data-fips-="" data-iso3="BRN" data-name="Temburong" data-p="TE"/><path d="M236,65L206,89L197,98L193,105L188,111L179,114L184,125L187,129L191,133L201,134L204,139L203,147L204,153L212,158L218,164L223,170L229,176L234,182L238,189L240,197L244,203L253,208L259,203L262,198L264,194L266,185L267,178L265,176L261,177L256,175L252,168L250,159L249,130L248,125L247,120L242,110L240,106L240,102L241,101L239,97L241,89L242,84L244,79L245,72L245,66L245,60L236,65Z " data-fips="BX04" data-fips-="" data-iso3="BRN" data-name="Tutong" data-p="TU"/></g></svg>