<?xml version="1.0" encoding="UTF-8"?><!DOCTYPE svg  PUBLIC '-//W3C//DTD SVG 1.1//EN'  'http://www.w3.org/Graphics/SVG/1.1/DTD/svg11.dtd'><svg enable_background="new 0 0 450 301" height="301px" style="stroke-linejoin: round; stroke:#000; fill:#f6f3f0;" version="1.1" viewBox="0 0 450 301" width="450px" xmlns="http://www.w3.org/2000/svg" xmlns:xlink="http://www.w3.org/1999/xlink"><defs><style type="text/css"><![CDATA[path { fill-rule: evenodd; }
#context path { fill: #eee; stroke: #bbb; } ]]></style></defs><metadata><views><view h="301.0" padding="0.06" w="450"><proj id="laea" lat0="27.0041142847" lon0="89.5496260641"/><bbox h="24.48" w="41.31" x="988.78" y="981.53"/><llbbox lat0="-90" lat1="90" lon0="-180" lon1="180"/></view></views></metadata><g id="context"><path d="M58,297L54,296L50,297L49,299L61,299L58,297Z M10,294L0,284L0,299L14,299L10,294Z " data-iso="BGD"/><path d="M370,108L371,92L366,88L353,84L338,79L331,73L327,72L321,73L312,79L304,86L297,87L290,83L283,79L261,73L250,72L232,74L217,72L215,71L215,67L217,61L219,54L217,50L202,46L188,43L173,42L163,44L154,49L146,58L134,62L121,69L114,75L104,89L89,106L76,122L69,138L60,148L50,155L44,175L42,178L28,188L25,194L28,200L34,204L37,209L39,223L47,227L61,236L74,243L96,238L102,241L113,244L122,245L127,248L129,250L129,256L142,256L148,258L169,255L191,251L201,238L205,237L218,232L230,238L243,245L251,247L265,248L279,247L312,243L331,245L347,234L351,234L358,242L377,242L387,238L397,235L409,234L416,235L422,232L425,226L424,218L419,210L415,204L415,202L416,195L419,186L425,176L420,166L413,155L409,154L397,156L384,156L374,149L366,141L364,134L366,125L369,117L370,114L370,108Z " data-iso="BTN"/><path d="M1,75L7,71L12,71L28,78L34,82L37,96L39,101L37,115L27,147L29,160L37,169L44,175L50,155L60,148L69,138L76,122L89,106L104,89L114,75L121,69L134,62L146,58L154,49L163,44L173,42L188,43L202,46L217,50L219,54L217,61L215,67L215,71L217,72L232,74L250,72L261,73L283,79L290,83L297,87L304,86L312,79L321,73L327,72L331,73L338,79L353,84L366,88L371,92L370,108L370,114L380,114L393,115L403,117L411,117L426,106L432,106L440,103L443,101L446,103L450,103L450,0L0,0L0,76L1,75Z " data-iso="CHN"/><path d="M711,2907L702,2918L686,2886L679,2884L678,2868L682,2861L701,2854L706,2858L716,2888L711,2907Z M688,2838L676,2851L670,2844L672,2839L678,2836L683,2831L688,2838Z M648,2770L637,2771L634,2765L630,2759L633,2753L638,2752L646,2761L648,2767L648,2770Z M660,2746L654,2751L652,2751L650,2740L649,2731L654,2724L659,2725L657,2733L660,2746Z M-2091,2603L-2096,2605L-2092,2602L-2088,2598L-2091,2603Z M606,2722L610,2727L603,2726L596,2719L598,2712L600,2709L606,2722Z M557,2605L551,2606L548,2602L547,2596L550,2593L554,2591L557,2591L560,2600L557,2605Z M517,2417L513,2422L499,2419L500,2405L496,2392L498,2386L509,2376L517,2372L523,2385L526,2397L517,2417Z M-2100,2207L-2099,2201L-2098,2199L-2099,2205L-2100,2207Z M540,2307L534,2310L527,2306L532,2301L533,2290L540,2296L539,2303L540,2307Z M582,2219L588,2237L577,2229L574,2223L579,2219L582,2219Z M541,2109L536,2118L535,2099L539,2096L542,2098L541,2109Z M544,2286L541,2289L537,2286L524,2262L522,2247L518,2242L522,2234L528,2231L531,2223L532,2210L536,2199L539,2196L549,2195L551,2194L550,2184L544,2180L542,2177L542,2152L543,2142L546,2135L544,2120L545,2115L552,2107L555,2090L552,2085L559,2060L558,2043L566,2025L580,2017L584,2017L585,2032L587,2036L579,2045L587,2056L583,2069L578,2078L571,2082L566,2094L563,2098L573,2110L577,2152L570,2163L561,2166L563,2193L562,2200L553,2214L551,2220L546,2225L549,2232L553,2235L553,2241L549,2256L549,2272L544,2286Z M1,75L7,71L12,71L28,78L34,82L37,96L39,101L37,115L27,147L29,160L37,169L44,175L42,178L28,188L25,194L28,200L34,204L37,209L39,223L47,227L61,236L74,243L96,238L102,241L113,244L122,245L127,248L129,250L129,256L142,256L148,258L169,255L191,251L201,238L205,237L218,232L230,238L243,245L251,247L265,248L279,247L312,243L331,245L347,234L351,234L358,242L377,242L387,238L397,235L409,234L416,235L422,232L425,226L424,218L419,210L415,204L415,202L416,195L419,186L425,176L420,166L413,155L409,154L397,156L384,156L374,149L366,141L364,134L366,125L369,117L370,114L380,114L393,115L403,117L411,117L426,106L432,106L440,103L443,101L446,103L454,104L463,103L471,100L478,95L492,86L495,80L495,75L489,71L490,66L496,59L517,48L535,34L544,23L548,11L554,-2L559,-8L572,-11L607,-17L619,-23L635,-33L643,-41L647,-48L648,-55L659,-58L668,-69L679,-81L699,-91L717,-105L723,-103L730,-97L734,-91L735,-87L758,-84L762,-85L779,-80L795,-73L804,-72L808,-72L812,-75L816,-81L822,-88L822,-96L844,-111L864,-123L881,-131L886,-128L892,-123L901,-108L906,-105L918,-108L920,-106L918,-101L911,-94L900,-88L894,-82L897,-67L897,-61L900,-60L921,-77L931,-80L935,-77L936,-68L946,-51L950,-43L930,-20L922,-9L922,-1L917,4L918,7L922,10L928,12L931,12L935,6L955,-2L961,-1L976,9L983,10L1001,12L1012,7L1020,10L1038,23L1042,26L1041,34L1041,43L1046,51L1046,57L1046,63L1043,67L1033,70L1026,78L1004,98L997,106L994,114L996,123L999,133L1025,169L1025,175L1017,178L1007,174L998,169L987,153L979,149L971,148L925,159L915,162L900,169L890,181L883,193L875,197L863,206L832,234L813,246L801,251L792,257L785,274L785,291L788,312L793,325L796,328L796,332L792,340L786,346L783,350L781,369L776,379L766,393L757,404L743,413L738,420L733,432L731,442L731,446L732,449L738,453L746,456L749,461L750,468L745,484L737,506L726,524L715,541L703,567L690,615L685,628L679,629L671,625L651,620L639,616L630,612L624,613L615,615L607,618L602,616L589,604L586,606L584,612L593,645L598,657L598,678L597,703L594,731L592,737L587,745L581,747L574,744L570,745L568,750L570,762L564,776L560,788L562,799L564,811L572,835L572,845L571,853L567,856L561,856L557,859L555,865L548,884L541,886L534,883L524,871L517,867L513,868L509,879L506,884L500,889L498,879L493,831L490,815L487,794L484,787L479,776L475,766L471,761L468,743L466,719L466,708L460,686L454,660L447,662L443,655L440,656L429,662L421,660L415,661L415,673L417,685L415,690L399,705L395,715L395,725L397,739L395,746L388,753L379,756L370,755L365,749L360,735L355,727L351,725L347,727L347,737L347,744L344,744L341,740L333,704L321,676L321,666L324,652L329,631L342,617L345,607L348,606L365,607L370,605L375,599L382,594L389,591L395,591L404,595L408,592L410,584L414,575L416,571L422,569L430,568L435,563L436,552L446,526L449,512L449,499L452,497L468,503L475,503L479,500L480,496L478,490L466,481L445,469L426,461L392,463L357,466L347,465L334,461L303,462L266,465L252,464L245,464L230,465L207,462L192,457L177,452L161,447L157,447L154,446L153,442L152,436L156,412L152,374L155,360L142,329L137,324L131,323L127,327L125,335L127,343L122,352L112,355L100,352L91,347L78,338L69,325L68,311L64,302L58,297L54,296L50,297L47,302L54,314L52,319L49,319L43,317L35,318L27,315L22,314L18,313L17,305L10,294L-2,282L-14,275L-20,276L-23,284L-22,287L-18,288L-12,293L-11,298L-11,302L-19,310L-24,317L-36,328L-47,340L-49,349L-53,357L-55,366L-52,373L-48,377L-35,380L-22,392L-11,409L-5,414L6,420L27,421L31,425L34,437L38,442L49,448L49,452L47,457L42,461L33,463L25,464L16,462L3,461L-11,461L-21,491L-29,502L-33,502L-44,497L-49,497L-62,524L-64,536L-58,546L-50,555L-40,559L-32,556L-26,560L-19,568L-7,574L11,577L21,584L22,590L20,612L18,621L8,644L1,665L5,674L9,681L17,689L22,697L18,716L20,721L30,725L42,727L45,730L36,750L38,764L42,776L44,805L50,821L60,853L61,865L60,877L57,898L47,898L56,912L59,922L60,936L49,938L42,936L36,924L33,935L21,946L17,940L15,935L15,925L21,889L20,885L17,882L11,881L9,873L-1,912L3,928L1,935L-16,941L-33,926L-36,922L-37,930L-40,940L-56,938L-65,930L-59,917L-49,885L-47,870L-60,860L-71,853L-78,838L-76,855L-70,860L-61,864L-51,873L-58,883L-65,889L-78,912L-94,925L-112,935L-172,949L-184,954L-203,972L-215,989L-218,1007L-211,1026L-206,1055L-202,1061L-209,1072L-220,1083L-230,1099L-229,1107L-231,1113L-263,1131L-270,1142L-279,1153L-290,1146L-296,1146L-288,1155L-289,1161L-292,1164L-300,1167L-346,1180L-382,1192L-392,1191L-390,1187L-384,1184L-384,1169L-390,1166L-396,1165L-423,1182L-434,1200L-432,1204L-426,1203L-408,1193L-399,1197L-399,1201L-427,1216L-486,1265L-489,1275L-497,1286L-508,1297L-527,1322L-564,1360L-575,1374L-633,1401L-644,1410L-669,1438L-694,1460L-723,1479L-773,1501L-804,1524L-814,1539L-815,1545L-812,1552L-807,1560L-806,1566L-811,1581L-820,1595L-836,1604L-886,1622L-932,1615L-947,1618L-954,1627L-970,1667L-983,1677L-989,1686L-991,1693L-999,1692L-1005,1689L-1010,1691L-1016,1677L-1025,1673L-1033,1672L-1067,1683L-1080,1693L-1107,1744L-1115,1777L-1111,1814L-1104,1844L-1103,1857L-1105,1875L-1110,1883L-1114,1892L-1111,1913L-1101,1941L-1099,1952L-1100,1964L-1093,1991L-1098,1986L-1102,1975L-1111,1960L-1124,1973L-1118,1984L-1095,1998L-1089,2008L-1108,2097L-1121,2128L-1136,2148L-1144,2156L-1161,2187L-1175,2227L-1178,2242L-1173,2259L-1180,2269L-1187,2276L-1173,2274L-1169,2283L-1168,2293L-1170,2350L-1174,2410L-1185,2411L-1197,2411L-1207,2409L-1215,2406L-1234,2408L-1244,2414L-1253,2424L-1253,2443L-1290,2487L-1298,2502L-1302,2517L-1298,2525L-1289,2534L-1277,2538L-1255,2543L-1245,2548L-1238,2556L-1264,2546L-1295,2542L-1370,2558L-1391,2572L-1402,2585L-1411,2614L-1413,2634L-1423,2651L-1463,2673L-1488,2680L-1498,2686L-1526,2674L-1557,2649L-1569,2636L-1613,2573L-1621,2565L-1629,2539L-1630,2530L-1632,2526L-1637,2523L-1639,2519L-1647,2489L-1650,2459L-1655,2425L-1649,2428L-1642,2439L-1639,2456L-1640,2478L-1634,2481L-1629,2479L-1641,2427L-1653,2413L-1657,2412L-1660,2403L-1659,2393L-1658,2388L-1667,2370L-1670,2360L-1690,2306L-1698,2269L-1711,2227L-1721,2211L-1735,2179L-1747,2163L-1760,2142L-1770,2132L-1774,2127L-1803,2056L-1810,2017L-1817,1999L-1820,1985L-1828,1926L-1827,1916L-1827,1904L-1834,1879L-1846,1851L-1849,1834L-1848,1828L-1855,1801L-1856,1789L-1861,1778L-1867,1767L-1874,1758L-1889,1730L-1895,1723L-1905,1705L-1911,1673L-1921,1660L-1904,1662L-1913,1649L-1917,1641L-1922,1636L-1914,1625L-1926,1624L-1933,1616L-1940,1593L-1955,1567L-1956,1553L-1967,1510L-1970,1410L-1977,1364L-1975,1351L-1985,1311L-1989,1285L-1990,1263L-1992,1248L-1992,1219L-1997,1210L-1997,1204L-1992,1192L-1980,1173L-1975,1161L-1977,1143L-1988,1160L-1997,1164L-2000,1150L-1998,1131L-1998,1127L-1995,1121L-1974,1126L-1998,1112L-2000,1104L-2000,1099L-1994,1091L-2002,1082L-2003,1057L-2005,1051L-2006,1047L-1997,1014L-1968,952L-1965,937L-1965,916L-1968,899L-1968,881L-1968,876L-1976,873L-1982,866L-1988,839L-1979,831L-1973,827L-1981,828L-1988,826L-1974,816L-1961,808L-1934,801L-1922,796L-1939,800L-1956,800L-1993,794L-1984,770L-1977,763L-1969,759L-1980,759L-1991,756L-1984,732L-1974,727L-1964,728L-1952,726L-1964,720L-1978,716L-1995,718L-2010,713L-2028,711L-2021,715L-2014,724L-2020,736L-2024,744L-2035,749L-2044,756L-2048,764L-2053,768L-2045,773L-2037,777L-2033,784L-2029,794L-2031,811L-2058,850L-2066,858L-2124,875L-2147,886L-2195,897L-2214,898L-2233,891L-2260,874L-2300,833L-2310,820L-2339,771L-2361,743L-2377,719L-2398,695L-2416,663L-2419,650L-2416,637L-2406,632L-2397,636L-2391,648L-2386,654L-2382,657L-2347,645L-2334,648L-2324,641L-2313,645L-2288,635L-2279,636L-2267,635L-2244,605L-2228,586L-2218,583L-2218,578L-2220,571L-2227,572L-2232,577L-2237,585L-2241,589L-2251,583L-2258,582L-2267,583L-2302,591L-2316,600L-2326,600L-2376,580L-2423,544L-2441,522L-2451,497L-2460,467L-2455,460L-2431,446L-2411,436L-2428,439L-2447,444L-2457,449L-2468,459L-2482,459L-2484,441L-2485,423L-2469,416L-2457,415L-2443,415L-2415,420L-2409,379L-2407,376L-2399,375L-2397,382L-2392,382L-2387,379L-2378,383L-2370,383L-2362,387L-2348,389L-2323,392L-2309,395L-2292,411L-2282,414L-2266,415L-2255,414L-2249,408L-2244,403L-2220,397L-2195,393L-2188,393L-2187,398L-2189,405L-2187,413L-2178,419L-2171,421L-2165,421L-2160,419L-2149,409L-2143,408L-2137,409L-2129,405L-2128,401L-2133,398L-2136,392L-2134,387L-2135,380L-2133,374L-2129,370L-2123,366L-2125,356L-2131,337L-2136,313L-2143,292L-2152,273L-2156,260L-2152,233L-2152,227L-2155,223L-2161,221L-2168,222L-2175,222L-2190,219L-2197,215L-2212,185L-2213,173L-2211,162L-2202,144L-2197,127L-2194,110L-2194,105L-2197,99L-2203,94L-2220,90L-2240,81L-2254,69L-2264,61L-2267,57L-2267,52L-2261,33L-2253,11L-2248,5L-2235,-6L-2227,-11L-2203,-29L-2181,-56L-2167,-75L-2160,-80L-2153,-85L-2144,-90L-2133,-94L-2123,-92L-2115,-86L-2109,-78L-2108,-64L-2105,-54L-2100,-48L-2094,-45L-2085,-44L-2046,-54L-2033,-55L-2004,-53L-1983,-56L-1964,-60L-1960,-71L-1950,-88L-1926,-107L-1919,-116L-1910,-135L-1901,-152L-1894,-158L-1858,-173L-1824,-186L-1817,-194L-1791,-228L-1776,-251L-1772,-259L-1762,-280L-1752,-300L-1741,-304L-1718,-309L-1700,-315L-1690,-323L-1683,-331L-1683,-339L-1687,-349L-1683,-360L-1669,-370L-1641,-400L-1625,-415L-1620,-414L-1604,-421L-1589,-430L-1590,-440L-1598,-444L-1599,-452L-1596,-461L-1586,-488L-1586,-496L-1591,-522L-1588,-529L-1584,-536L-1574,-544L-1561,-551L-1521,-565L-1513,-566L-1500,-569L-1490,-578L-1488,-587L-1491,-593L-1498,-601L-1524,-616L-1546,-618L-1557,-625L-1560,-628L-1560,-640L-1555,-660L-1558,-662L-1563,-661L-1575,-665L-1589,-666L-1594,-672L-1590,-679L-1590,-688L-1591,-697L-1593,-699L-1599,-702L-1609,-710L-1616,-721L-1620,-728L-1621,-732L-1620,-735L-1613,-742L-1604,-752L-1600,-761L-1598,-768L-1599,-773L-1605,-780L-1612,-787L-1614,-792L-1613,-799L-1609,-808L-1599,-813L-1583,-818L-1578,-825L-1578,-831L-1582,-834L-1592,-835L-1610,-839L-1612,-843L-1614,-848L-1613,-852L-1603,-862L-1603,-868L-1607,-876L-1619,-882L-1620,-890L-1617,-895L-1612,-903L-1607,-909L-1596,-924L-1585,-926L-1557,-934L-1526,-923L-1488,-909L-1470,-906L-1463,-905L-1455,-899L-1435,-888L-1419,-881L-1408,-880L-1390,-886L-1381,-892L-1369,-898L-1354,-896L-1322,-904L-1316,-902L-1307,-900L-1295,-906L-1288,-913L-1287,-917L-1284,-920L-1271,-924L-1258,-929L-1251,-945L-1207,-966L-1163,-988L-1158,-982L-1154,-980L-1148,-983L-1141,-985L-1137,-983L-1137,-979L-1143,-960L-1144,-953L-1139,-936L-1127,-886L-1123,-870L-1119,-863L-1082,-848L-1073,-838L-1063,-828L-1055,-823L-1052,-816L-1052,-810L-1053,-806L-1058,-801L-1079,-789L-1082,-785L-1083,-779L-1080,-751L-1081,-730L-1082,-710L-1075,-700L-1070,-693L-1067,-688L-1061,-680L-1055,-674L-1051,-670L-1049,-662L-1051,-654L-1054,-647L-1054,-643L-1050,-640L-1044,-632L-1044,-621L-1045,-613L-1044,-606L-1044,-599L-1047,-580L-1048,-572L-1053,-572L-1058,-569L-1066,-558L-1075,-556L-1083,-555L-1092,-563L-1099,-572L-1100,-576L-1101,-584L-1105,-590L-1113,-588L-1125,-588L-1138,-587L-1140,-586L-1141,-583L-1139,-575L-1137,-566L-1137,-552L-1133,-541L-1115,-513L-1110,-507L-1109,-504L-1117,-484L-1117,-475L-1111,-465L-1106,-457L-1112,-449L-1117,-438L-1113,-433L-1117,-418L-1115,-415L-1112,-414L-1099,-418L-1093,-418L-1090,-417L-1085,-428L-1081,-429L-1074,-425L-1051,-383L-1046,-377L-1035,-367L-1027,-360L-1016,-361L-1001,-360L-992,-354L-987,-349L-970,-333L-962,-333L-957,-329L-957,-319L-960,-308L-960,-303L-952,-302L-920,-286L-913,-284L-905,-278L-898,-270L-884,-260L-871,-252L-869,-242L-874,-244L-881,-244L-888,-240L-892,-237L-909,-222L-917,-217L-925,-210L-944,-189L-956,-168L-965,-149L-966,-135L-970,-118L-978,-109L-982,-106L-989,-93L-994,-76L-992,-71L-975,-55L-954,-38L-947,-37L-942,-45L-934,-42L-924,-34L-915,-26L-868,5L-864,12L-861,18L-853,28L-833,44L-802,66L-792,73L-786,73L-780,70L-775,68L-769,70L-761,75L-741,91L-722,104L-701,103L-695,105L-692,116L-690,126L-666,134L-651,138L-633,145L-625,149L-615,145L-613,140L-605,138L-593,140L-570,149L-560,152L-552,144L-537,141L-528,138L-512,147L-483,159L-468,166L-464,173L-463,179L-464,194L-460,201L-430,218L-421,225L-413,227L-408,227L-405,229L-403,238L-401,240L-395,243L-389,244L-369,237L-355,232L-346,234L-340,240L-339,250L-336,259L-329,264L-322,265L-303,259L-289,265L-275,267L-261,270L-255,273L-239,281L-221,290L-213,289L-182,275L-180,277L-174,291L-165,297L-150,302L-135,293L-123,296L-109,297L-95,293L-83,292L-65,300L-61,298L-58,294L-44,254L-45,243L-50,227L-64,205L-65,199L-60,162L-54,141L-50,131L-45,116L-44,110L-44,104L-49,100L-50,95L-49,92L-45,89L-29,87L-11,81L-4,78L1,75Z " data-iso="IND"/></g><g fill="red" fill-opacity="0.35" id="regions"><path d="M128,199L121,195L121,194L123,191L130,186L129,184L124,183L122,178L120,177L120,180L117,188L117,192L116,193L112,193L108,190L104,190L96,190L97,192L98,195L98,196L96,199L96,202L94,203L94,212L97,218L92,224L88,227L95,233L96,235L100,235L101,240L105,243L109,245L117,244L122,245L127,247L130,249L130,252L128,255L132,257L136,255L138,255L145,258L147,258L145,251L146,248L147,247L148,245L148,244L150,241L150,237L148,231L150,226L145,214L138,214L139,211L138,209L135,208L133,202L131,199L128,199Z " data-fips="BT06" data-fips-="" data-iso3="BTN" data-name="Chhukha"/><path d="M180,202L173,200L168,199L162,189L161,188L154,183L151,183L148,181L141,183L140,183L137,188L133,191L132,195L131,199L133,202L135,208L138,209L139,211L138,214L145,214L150,226L148,231L150,237L150,241L148,244L148,245L150,244L153,245L155,241L156,242L164,243L168,238L169,239L170,241L172,240L177,237L177,237L177,232L179,231L182,227L183,223L184,212L183,211L184,208L183,204L180,202Z " data-fips="BT08" data-fips-="" data-iso3="BTN" data-name="Daga"/><path d="M95,187L94,183L95,180L100,177L101,176L89,156L86,154L82,142L75,140L69,135L69,135L69,141L67,145L62,147L58,149L51,153L49,159L47,165L45,172L43,179L42,180L48,182L53,189L57,188L60,196L62,198L71,198L73,204L75,205L79,201L85,208L88,202L90,201L96,202L96,199L98,196L98,195L97,192L96,190L95,187Z " data-fips="BT10" data-fips-="" data-iso3="BTN" data-name="Ha"/><path d="M74,127L69,134L69,135L75,140L82,142L86,154L89,156L101,176L100,177L95,180L94,183L95,187L96,190L104,190L108,190L112,193L116,193L117,192L117,188L120,180L120,177L120,176L120,173L116,170L116,166L112,161L112,156L113,145L114,143L105,132L101,131L105,127L103,125L103,117L97,119L87,120L86,119L78,117L74,127Z " data-fips="BT13" data-fips-="" data-iso3="BTN" data-name="Paro"/><path d="M106,85L109,85L115,87L117,89L118,95L123,96L120,99L115,112L114,115L117,116L120,113L122,113L125,119L129,122L130,120L137,121L141,119L141,118L148,116L152,111L154,107L156,105L162,103L164,104L167,106L174,110L176,110L177,106L185,102L188,99L193,90L195,87L201,86L203,89L203,91L206,95L208,97L216,96L217,92L216,90L217,85L221,83L224,78L224,74L222,74L217,73L214,70L215,65L218,59L220,54L217,50L210,48L202,45L174,40L172,41L166,44L163,45L161,43L159,44L155,49L151,51L147,59L142,61L128,63L124,65L118,72L113,75L111,77L107,84L106,85Z " data-fips="BT15" data-fips-="" data-iso3="BTN" data-name="Gasa"/><path d="M40,181L30,185L27,189L25,193L24,197L33,202L36,205L37,208L40,223L45,220L47,223L47,227L56,228L62,232L64,234L68,242L72,243L78,243L82,243L92,239L97,237L101,240L100,235L96,235L95,233L88,227L92,224L97,218L94,212L94,203L96,202L90,201L88,202L85,208L79,201L75,205L73,204L71,198L62,198L60,196L57,188L53,189L48,182L42,180L40,181Z " data-fips="BT16" data-fips-="" data-iso3="BTN" data-name="Samchi"/><path d="M101,96L97,101L92,104L88,107L84,109L80,113L78,117L86,119L87,120L97,119L103,117L103,125L105,127L101,131L105,132L114,143L113,145L112,156L112,161L116,166L116,170L120,173L120,176L120,177L122,178L124,183L129,184L130,186L123,191L121,194L121,195L128,199L131,199L132,195L133,191L137,188L140,183L141,183L141,175L139,169L145,164L145,156L151,154L153,153L154,149L154,148L151,147L147,141L142,143L139,145L136,142L132,135L132,131L131,125L129,122L125,119L122,113L120,113L117,116L114,115L115,112L120,99L123,96L118,95L117,89L115,87L109,85L106,85L101,96Z " data-fips="BT20" data-fips-="" data-iso3="BTN" data-name="Thimphu"/><path d="M174,110L167,106L164,104L162,103L156,105L154,107L152,111L148,116L141,118L141,119L137,121L130,120L129,122L131,125L132,131L132,135L136,142L139,145L142,143L147,141L151,147L154,148L154,148L165,147L168,144L175,134L178,134L180,130L175,126L174,126L171,125L172,120L176,114L176,110L174,110Z " data-fips="BT00" data-fips-="BT20|BT15" data-iso3="BTN" data-name="Punakha"/><path d="M227,74L227,80L229,83L228,88L230,92L232,93L234,97L234,103L230,108L231,113L232,114L238,117L238,120L238,125L237,128L238,137L240,140L243,149L243,153L243,154L244,157L253,161L256,163L262,170L263,167L266,166L270,169L272,172L276,173L282,170L285,170L287,169L287,167L289,166L289,165L292,165L290,161L293,154L289,150L289,143L288,141L290,133L288,125L281,117L276,109L272,105L270,105L270,101L263,94L264,89L265,88L265,80L265,75L262,75L257,71L253,71L249,73L244,74L236,73L228,74L227,74Z " data-fips="BT05" data-fips-="" data-iso3="BTN" data-name="Bumthang"/><path d="M210,197L204,200L200,196L192,197L185,194L183,195L183,204L184,208L183,211L184,212L183,223L182,227L179,231L177,232L177,237L177,237L178,239L179,242L185,243L193,239L193,238L197,229L199,228L201,223L205,218L204,214L206,212L208,204L213,200L216,198L213,195L210,197Z " data-fips="BT07" data-fips-="" data-iso3="BTN" data-name="Chirang"/><path d="M216,190L215,191L213,193L213,195L216,198L213,200L208,204L206,212L204,214L205,218L201,223L199,228L197,229L193,238L193,239L185,243L179,242L178,239L177,237L172,240L170,241L169,239L168,238L164,243L156,242L155,241L153,245L150,244L148,245L147,247L146,248L145,251L147,258L147,258L154,259L157,254L158,255L166,256L173,254L187,253L192,251L194,248L204,237L208,238L212,235L214,234L218,232L222,232L233,240L247,247L262,249L290,247L291,246L290,240L287,242L283,242L273,241L270,232L262,225L259,224L258,220L257,216L254,209L252,208L248,209L243,206L239,203L238,201L236,200L233,200L230,199L224,194L216,190Z " data-fips="BT09" data-fips-="" data-iso3="BTN" data-name="Geylegphug"/><path d="M265,75L265,80L265,88L264,89L263,94L270,101L270,105L272,105L276,109L281,117L288,125L290,133L288,141L289,143L289,150L293,154L290,161L292,165L298,166L304,160L307,159L312,160L315,164L324,159L326,155L324,149L329,143L329,140L331,139L332,138L330,136L332,133L330,117L332,107L333,94L340,87L341,88L346,83L344,83L335,78L331,74L329,70L326,72L320,72L317,73L315,74L305,86L301,87L295,87L291,85L284,78L277,77L269,76L265,75Z " data-fips="BT11" data-fips-="" data-iso3="BTN" data-name="Lhuntshi"/><path d="M346,83L341,88L340,87L333,94L332,107L330,117L332,133L330,136L332,138L334,142L343,153L344,159L342,162L347,163L358,166L364,161L366,161L377,157L381,156L382,154L382,154L374,151L371,147L367,144L366,142L363,133L364,127L369,120L369,101L372,93L370,89L363,86L358,86L353,84L347,84L346,83Z " data-fips="BT00" data-fips-="BT11|" data-iso3="BTN" data-name="Tashi Yangtse"/><path d="M287,169L285,170L282,170L276,173L272,172L270,169L266,166L263,167L262,170L262,175L260,183L257,186L248,190L253,196L252,197L247,197L245,196L239,199L238,201L239,203L243,206L248,209L252,208L254,209L257,216L258,220L259,224L262,225L270,232L273,241L283,242L287,242L290,240L291,246L290,247L297,246L298,246L296,242L299,237L307,235L308,233L314,232L316,231L317,229L318,224L316,224L315,225L306,220L305,213L299,210L295,202L294,198L296,191L294,183L292,182L289,172L287,167L287,169Z " data-fips="BT18" data-fips-="" data-iso3="BTN" data-name="Shemgang"/><path d="M256,163L253,161L244,157L243,154L243,153L243,149L240,140L238,137L237,128L238,125L238,120L238,117L232,114L231,113L231,115L230,121L228,125L222,127L213,127L213,129L211,136L216,146L219,148L209,154L204,155L207,164L211,169L211,172L217,177L217,181L219,182L219,186L216,190L224,194L230,199L233,200L236,200L238,201L239,199L245,196L247,197L252,197L253,196L248,190L257,186L260,183L262,175L262,170L256,163Z " data-fips="BT21" data-fips-="" data-iso3="BTN" data-name="Tongsa"/><path d="M224,74L224,78L221,83L217,85L216,90L217,92L216,96L208,97L206,95L203,91L203,89L201,86L195,87L193,90L188,99L185,102L177,106L176,110L176,114L172,120L171,125L174,126L175,126L180,130L178,134L175,134L168,144L165,147L154,148L154,148L154,149L153,153L151,154L145,156L145,164L139,169L141,175L141,183L148,181L151,183L154,183L161,188L162,189L168,199L173,200L180,202L183,204L183,195L185,194L192,197L200,196L204,200L210,197L213,195L213,193L215,191L216,190L219,186L219,182L217,181L217,177L211,172L211,169L207,164L204,155L209,154L219,148L216,146L211,136L213,129L213,127L222,127L228,125L230,121L231,115L231,113L230,108L234,103L234,97L232,93L230,92L228,88L229,83L227,80L227,74L224,74Z " data-fips="BT22" data-fips-="" data-iso3="BTN" data-name="Wangdi Phodrang"/><path d="M344,159L343,153L334,142L332,138L331,139L329,140L329,143L324,149L326,155L324,159L315,164L312,160L307,159L304,160L298,166L292,165L289,165L289,166L287,167L289,172L292,182L294,183L296,191L294,198L295,202L299,210L305,213L306,220L315,225L316,224L318,224L319,221L322,215L327,210L335,207L337,205L341,196L341,194L341,193L342,186L342,184L347,179L352,177L349,170L342,165L343,164L342,162L344,159Z " data-fips="BT12" data-fips-="" data-iso3="BTN" data-name="Mongar"/><path d="M355,214L355,208L351,208L345,204L343,199L346,195L341,194L341,196L337,205L335,207L327,210L322,215L319,221L318,224L320,225L330,225L330,226L335,228L337,231L335,237L338,238L340,237L341,235L346,230L348,225L348,223L350,215L355,214Z " data-fips="BT14" data-fips-="" data-iso3="BTN" data-name="Pemagatsel"/><path d="M416,191L406,184L405,183L403,187L403,195L401,195L393,197L390,199L388,204L371,210L366,209L356,215L355,214L350,215L348,223L348,225L346,230L341,235L340,237L338,238L335,237L337,231L335,228L330,226L330,225L320,225L318,224L317,229L316,231L314,232L308,233L307,235L299,237L296,242L298,246L304,243L311,244L320,243L324,244L332,247L338,244L339,242L345,234L347,234L354,236L357,242L359,243L365,241L367,241L380,242L384,240L392,235L395,234L397,236L398,240L400,242L403,240L402,238L403,233L405,231L407,232L411,235L413,236L420,235L425,230L426,223L424,216L422,211L415,205L414,201L414,199L416,192L416,191Z " data-fips="BT17" data-fips-="" data-iso3="BTN" data-name="Samdrup Jongkhar"/><path d="M382,154L381,156L377,157L366,161L364,161L358,166L347,163L342,162L343,164L342,165L349,170L352,177L347,179L342,184L342,186L341,193L341,194L346,195L343,199L345,204L351,208L355,208L355,214L356,215L366,209L371,210L388,204L390,199L393,197L401,195L403,195L403,187L405,183L406,184L416,191L416,191L418,189L419,183L425,178L425,174L414,155L411,152L405,155L401,155L398,156L388,159L385,160L384,157L382,154Z " data-fips="BT19" data-fips-="" data-iso3="BTN" data-name="Tashigang"/></g></svg>