<?xml version="1.0" encoding="UTF-8"?><!DOCTYPE svg  PUBLIC '-//W3C//DTD SVG 1.1//EN'  'http://www.w3.org/Graphics/SVG/1.1/DTD/svg11.dtd'><svg enable_background="new 0 0 450 301" height="301px" style="stroke-linejoin: round; stroke:#000; fill:#f6f3f0;" version="1.1" viewBox="0 0 450 301" width="450px" xmlns="http://www.w3.org/2000/svg" xmlns:xlink="http://www.w3.org/1999/xlink"><defs><style type="text/css"><![CDATA[path { fill-rule: evenodd; }
#context path { fill: #eee; stroke: #bbb; } ]]></style></defs><metadata><views><view h="301.0" padding="0.06" w="450"><proj id="laea" lat0="-22.1592414281" lon0="22.3924108718"/><bbox h="125.08" w="119.91" x="965.95" y="939.85"/><llbbox lat0="-90" lat1="90" lon0="-180" lon1="180"/></view></views></metadata><g id="context"><path d="M191,11L185,6L179,0L179,0L0,0L0,6L51,5L53,6L60,14L63,15L86,18L93,18L101,18L107,18L117,22L127,20L132,20L134,21L182,12L191,11Z " data-iso="AGO"/><path d="M242,16L234,16L230,18L223,23L218,21L212,24L200,34L196,35L193,28L189,22L183,21L165,25L152,27L131,30L123,31L124,138L124,139L97,140L98,221L98,222L100,222L108,229L116,242L121,255L121,262L116,270L116,275L120,282L123,281L128,282L138,282L145,282L147,278L153,276L155,274L158,269L165,264L170,259L176,241L180,237L186,236L193,238L203,246L211,247L215,250L226,252L229,252L232,250L242,250L244,250L248,246L256,227L257,222L263,219L270,218L277,211L283,207L290,188L299,182L301,182L309,177L321,163L326,160L339,157L342,155L344,151L347,149L353,149L352,148L350,146L347,145L344,141L345,138L331,132L322,130L316,127L309,115L309,97L303,96L298,96L297,86L296,85L282,79L270,69L268,68L262,54L262,50L259,46L257,41L252,35L247,26L243,21L243,17L244,16L242,16Z " data-iso="BWA"/><path d="M405,158L405,160L408,171L412,193L418,207L420,220L418,247L418,255L416,259L416,262L416,264L417,265L419,266L418,274L419,281L419,290L421,290L425,292L436,292L439,292L439,292L443,270L441,271L439,275L433,267L437,262L439,256L444,252L450,249L450,100L447,105L443,107L440,117L437,123L437,128L409,155L405,158Z " data-iso="MOZ"/><path d="M98,222L98,221L97,140L124,139L124,138L123,31L131,30L152,27L165,25L183,21L189,22L193,28L196,35L200,34L212,24L218,21L223,23L230,18L234,16L242,16L244,16L239,11L229,7L216,6L197,9L191,11L182,12L134,21L132,20L127,20L117,22L107,18L101,18L93,18L86,18L63,15L60,14L53,6L51,5L0,6L0,299L100,299L99,273L99,260L99,234L98,222Z " data-iso="NAM"/><path d="M419,290L419,281L418,274L419,266L417,265L416,264L416,264L414,265L403,257L397,260L393,263L385,276L385,287L387,287L391,297L394,299L414,299L415,294L418,290L419,290Z " data-iso="SWZ"/><path d="M416,264L416,262L416,259L418,255L418,247L420,220L418,207L412,193L408,171L405,160L405,158L403,156L390,154L383,155L376,153L368,150L362,148L354,149L353,149L347,149L344,151L342,155L339,157L326,160L321,163L309,177L301,182L299,182L290,188L283,207L277,211L270,218L263,219L257,222L256,227L248,246L244,250L242,250L232,250L229,252L226,252L215,250L211,247L203,246L193,238L186,236L180,237L176,241L170,259L165,264L158,269L155,274L153,276L147,278L145,282L138,282L128,282L123,281L120,282L116,275L116,270L121,262L121,255L116,242L108,229L100,222L98,222L99,234L99,260L99,273L100,299L394,299L391,297L387,287L385,287L385,276L393,263L397,260L403,257L414,265L416,264L416,264Z M439,292L436,292L425,292L421,290L419,290L418,290L415,294L414,299L437,299L437,299L439,292Z " data-iso="ZAF"/><path d="M191,11L197,9L216,6L229,7L239,11L244,16L249,17L257,18L261,21L264,21L268,20L274,20L281,23L286,24L293,22L305,9L312,0L179,0L179,0L185,6L191,11Z " data-iso="ZMB"/><path d="M244,16L243,17L243,21L247,26L252,35L257,41L259,46L262,50L262,54L268,68L270,69L282,79L296,85L297,86L298,96L303,96L309,97L309,115L316,127L322,130L331,132L345,138L344,141L347,145L350,146L352,148L353,149L354,149L362,148L368,150L376,153L383,155L390,154L403,156L405,158L409,155L437,128L437,123L440,117L443,107L447,105L450,100L450,0L312,0L305,9L293,22L286,24L281,23L274,20L268,20L264,21L261,21L257,18L249,17L244,16Z " data-iso="ZWE"/></g><g fill="red" fill-opacity="0.35" id="regions"><path d="M204,110L125,110L124,110L124,110L125,138L97,140L97,140L98,178L98,178L181,178L240,179L246,168L204,110Z " data-fips="BC03" data-fips-="" data-iso3="BWA" data-name="Ghanzi"/><path d="M181,178L98,178L98,178L98,221L102,225L109,229L114,239L116,241L118,249L121,254L121,259L122,262L118,267L116,272L117,276L116,278L118,283L124,281L130,283L136,281L144,282L147,280L147,277L151,277L156,274L159,267L162,266L165,263L167,263L169,260L173,252L172,251L175,242L181,237L186,235L192,236L199,242L204,246L207,247L211,246L215,250L218,250L219,250L213,243L212,229L207,223L182,223L181,222L181,198L181,188L180,185L179,185L178,181L181,180L181,178Z " data-fips="BC04" data-fips-="" data-iso3="BWA" data-name="Kgalagadi"/><path d="M124,110L125,110L204,110L204,90L206,90L210,87L215,88L218,92L239,91L240,90L240,83L235,81L236,51L263,52L262,49L259,46L257,40L250,34L247,26L245,25L242,19L244,16L242,15L239,17L229,18L224,23L223,23L219,20L216,22L214,22L206,27L206,28L200,34L197,35L194,28L192,27L188,21L180,22L137,30L124,31L124,51L124,110Z " data-fips="BC08" data-fips-="BC02|BC11" data-iso3="BWA" data-name="North-West"/><path d="M263,52L236,51L235,81L240,83L240,90L239,91L218,92L215,88L210,87L206,90L204,90L204,110L246,168L254,179L256,180L258,181L261,186L280,198L284,193L286,193L286,192L287,192L296,184L297,183L303,181L304,177L309,177L310,174L313,173L316,169L317,167L320,164L321,162L330,160L340,156L342,154L342,152L345,150L349,149L352,149L350,146L345,144L344,141L345,137L340,136L332,132L329,132L327,131L317,129L312,118L310,117L309,101L303,96L298,97L298,93L298,89L296,85L289,82L286,80L278,75L272,71L273,70L267,67L262,55L263,52L263,52Z " data-fips="BC01" data-fips-="BC08" data-iso3="BWA" data-name="Central"/><path d="M259,204L258,209L257,212L258,214L259,214L263,217L264,218L264,219L264,219L267,218L271,218L274,213L283,207L284,203L287,193L286,193L284,193L280,198L261,186L259,204Z " data-fips="BC05" data-fips-="" data-iso3="BWA" data-name="Kgatleng"/><path d="M258,181L256,180L254,179L246,168L240,179L181,178L181,180L178,181L179,185L180,185L181,188L181,198L245,220L249,222L249,222L251,222L259,214L258,214L257,212L258,209L259,204L261,186L258,181Z " data-fips="BC06" data-fips-="" data-iso3="BWA" data-name="Kweneng"/><path d="M264,219L264,219L264,218L263,217L259,214L251,222L251,224L249,229L250,229L250,242L250,242L251,238L254,233L256,224L256,222L260,220L264,219Z " data-fips="BC09" data-fips-="" data-iso3="BWA" data-name="South-East"/><path d="M251,222L249,222L249,222L245,220L181,198L181,222L182,223L207,223L212,229L213,243L219,250L221,251L234,250L237,251L243,250L248,247L249,245L250,242L250,229L249,229L251,224L251,222Z " data-fips="BC10" data-fips-="" data-iso3="BWA" data-name="Southern"/></g></svg>