<?xml version="1.0" encoding="UTF-8"?><!DOCTYPE svg  PUBLIC '-//W3C//DTD SVG 1.1//EN'  'http://www.w3.org/Graphics/SVG/1.1/DTD/svg11.dtd'><svg enable_background="new 0 0 450 301" height="301px" style="stroke-linejoin: round; stroke:#000; fill:#f6f3f0;" version="1.1" viewBox="0 0 450 301" width="450px" xmlns="http://www.w3.org/2000/svg" xmlns:xlink="http://www.w3.org/1999/xlink"><defs><style type="text/css"><![CDATA[path { fill-rule: evenodd; }
#context path { fill: #eee; stroke: #bbb; } ]]></style></defs><metadata><views><view h="301.0" padding="0.06" w="450"><proj id="laea" lat0="4.9788695337" lon0="21.365218708"/><bbox h="127.16" w="179.48" x="904.79" y="916.08"/><llbbox lat0="-90" lat1="90" lon0="-180" lon1="180"/></view></views></metadata><g id="context"><path d="M279,25L270,23L259,28L255,30L249,33L248,36L248,38L247,43L242,47L239,52L235,52L228,60L221,69L209,77L201,77L197,78L188,80L174,80L169,82L167,85L173,91L167,98L163,102L159,105L158,108L134,110L131,110L109,120L107,122L101,117L99,114L94,118L84,121L79,124L72,123L69,123L66,127L62,130L56,144L50,151L48,156L46,159L42,161L38,165L43,171L43,181L41,188L44,191L45,205L54,214L55,224L55,226L67,241L76,250L80,252L84,257L84,261L86,273L88,275L90,271L96,259L96,249L99,241L120,237L124,235L137,238L144,239L145,240L150,238L154,237L156,240L158,241L158,235L159,227L158,222L157,218L158,216L161,214L165,210L171,200L179,195L184,193L193,194L205,202L210,206L217,213L221,213L226,214L243,219L247,218L254,218L268,222L271,220L274,213L281,205L285,204L294,206L297,206L305,203L310,202L323,197L327,196L336,198L342,197L345,197L354,189L358,187L377,191L390,194L397,194L401,191L404,190L412,193L410,191L408,188L407,178L403,173L393,167L386,165L380,154L382,149L374,142L372,139L368,136L353,129L348,122L349,119L348,115L343,110L338,105L335,104L322,101L320,99L319,96L320,92L319,91L318,90L315,89L304,88L300,86L301,82L298,79L298,77L302,73L303,71L303,57L300,51L292,38L283,29L281,25L279,25Z " data-iso="CAF"/><path d="M4,278L11,278L38,278L41,277L46,281L50,281L50,283L58,282L63,285L71,285L75,286L82,290L84,293L86,291L84,283L88,276L88,275L86,273L84,261L84,257L80,252L76,250L67,241L55,226L55,224L54,214L45,205L44,191L41,188L43,181L43,171L38,165L42,161L46,159L48,156L50,151L56,144L62,130L66,127L69,123L70,120L71,115L68,113L62,99L59,92L51,85L48,83L36,73L35,71L27,62L26,59L31,53L34,51L38,51L51,52L58,52L71,52L75,51L64,40L62,37L58,26L57,18L60,6L59,0L44,0L45,6L34,13L28,15L25,17L19,25L14,32L11,45L7,49L5,60L0,64L0,275L2,275L3,276L4,278Z " data-iso="CMR"/><path d="M412,193L404,190L401,191L397,194L390,194L377,191L358,187L354,189L345,197L342,197L336,198L327,196L323,197L310,202L305,203L297,206L294,206L285,204L281,205L274,213L271,220L268,222L254,218L247,218L243,219L226,214L221,213L217,213L210,206L205,202L193,194L184,193L179,195L171,200L165,210L161,214L158,216L157,218L158,222L159,227L158,235L158,241L158,246L155,257L146,272L142,283L141,299L450,299L450,210L442,215L435,215L425,207L420,200L415,197L413,195L412,193Z " data-iso="COD"/><path d="M158,241L156,240L154,237L150,238L145,240L144,239L137,238L124,235L120,237L99,241L96,249L96,259L90,271L88,275L88,276L84,283L86,291L84,293L82,290L75,286L71,285L63,285L58,282L50,283L50,281L46,281L41,277L38,278L11,278L4,278L4,280L0,289L0,293L2,299L141,299L142,283L146,272L155,257L158,246L158,241Z " data-iso="COG"/><path d="M4,278L3,276L2,275L0,275L0,299L2,299L0,293L0,289L4,280L4,278Z " data-iso="GAB"/><path d="M0,0L0,64L5,60L7,49L11,45L14,32L19,25L25,17L28,15L34,13L45,6L44,0L0,0Z " data-iso="NGA"/><path d="M281,25L283,29L292,38L300,51L303,57L303,71L302,73L298,77L298,79L301,82L300,86L304,88L315,89L318,90L318,90L318,89L322,86L329,84L330,79L332,74L332,71L336,65L336,58L342,50L342,44L344,43L350,42L364,39L368,46L375,52L386,65L389,66L392,65L401,62L422,63L429,70L450,70L450,0L272,0L273,6L278,11L282,13L281,22L281,25Z " data-iso="SDN"/><path d="M318,90L318,90L319,91L320,92L319,96L320,99L322,101L335,104L338,105L343,110L348,115L349,119L348,122L353,129L368,136L372,139L374,142L382,149L380,154L386,165L393,167L403,173L407,178L408,188L410,191L412,193L413,195L415,197L420,200L425,207L435,215L442,215L450,210L450,70L429,70L422,63L401,62L392,65L389,66L386,65L375,52L368,46L364,39L350,42L344,43L342,44L342,50L336,58L336,65L332,71L332,74L330,79L329,84L322,86L318,89L318,90Z " data-iso="SDS"/><path d="M69,123L72,123L79,124L84,121L94,118L99,114L101,117L107,122L109,120L131,110L134,110L158,108L159,105L163,102L167,98L173,91L167,85L169,82L174,80L188,80L197,78L201,77L209,77L221,69L228,60L235,52L239,52L242,47L247,43L248,38L248,36L249,33L255,30L259,28L270,23L279,25L281,25L281,22L282,13L278,11L273,6L272,0L59,0L60,6L57,18L58,26L62,37L64,40L75,51L71,52L58,52L51,52L38,51L34,51L31,53L26,59L27,62L35,71L36,73L48,83L51,85L59,92L62,99L68,113L71,115L70,120L69,123Z " data-iso="TCD"/></g><g fill="red" fill-opacity="0.35" id="regions"><path d="M215,213L221,213L222,213L229,214L232,217L238,217L242,218L246,217L255,219L256,219L257,219L258,215L260,211L254,208L251,206L249,205L251,195L250,195L253,190L253,184L253,183L251,182L249,181L246,181L246,182L245,183L241,180L234,178L231,178L228,176L228,180L226,185L226,190L224,193L225,197L224,202L216,207L212,210L215,213Z " data-fips="CT02" data-fips-="" data-iso3="CAF" data-name="Basse-Kotto"/><path d="M113,196L113,196L107,200L107,206L113,215L109,213L105,215L104,218L105,219L109,226L118,229L123,235L124,234L130,236L134,237L136,239L142,238L144,239L146,241L154,236L157,241L159,241L158,230L158,229L150,223L150,221L149,217L144,212L142,213L134,210L128,209L125,202L122,201L115,195L113,196Z " data-fips="CT07" data-fips-="" data-iso3="CAF" data-name="Lobaye"/><path d="M98,188L85,194L82,194L81,193L78,194L76,189L74,189L71,195L68,194L66,196L58,196L55,197L52,196L44,195L44,196L45,205L47,209L55,216L57,222L59,223L55,224L56,228L59,232L61,235L66,232L70,232L71,230L79,226L85,225L95,230L100,225L101,220L104,218L104,218L105,215L109,213L113,215L107,206L107,200L113,196L113,196L112,194L113,193L113,189L110,186L102,186L98,188Z " data-fips="CT04" data-fips-="" data-iso3="CAF" data-name="Mambr-Kad"/><path d="M104,218L104,218L101,220L100,225L95,230L85,225L79,226L71,230L70,232L66,232L61,235L76,251L80,251L84,256L85,258L84,263L85,263L85,268L86,272L88,276L95,262L96,250L98,245L102,239L106,239L109,238L111,239L117,238L122,235L123,235L118,229L109,226L105,219L104,218Z " data-fips="CT16" data-fips-="" data-iso3="CAF" data-name="Sangha-Mbar"/><path d="M49,154L46,159L39,163L37,165L41,169L43,171L42,184L41,188L44,192L44,195L44,195L52,196L55,197L58,196L66,196L68,194L71,195L74,189L76,189L78,194L81,193L82,194L85,194L98,188L98,186L97,184L98,181L98,180L97,179L94,175L89,170L86,173L83,173L78,169L77,163L75,159L77,156L76,155L70,158L65,157L60,145L52,147L49,154Z " data-fips="CT09" data-fips-="" data-iso3="CAF" data-name="Nana-Mambr"/><path d="M52,147L60,145L65,157L70,158L76,155L77,156L75,159L77,163L78,169L83,173L86,173L89,170L94,175L97,179L98,180L99,179L103,175L105,174L111,172L111,171L111,171L110,169L109,164L111,158L114,156L113,153L110,154L107,151L105,147L103,138L105,134L107,126L107,122L107,122L106,122L101,117L99,113L95,115L94,119L85,121L81,124L78,125L74,123L68,123L66,127L61,131L57,141L52,146L52,147Z " data-fips="CT13" data-fips-="" data-iso3="CAF" data-name="Ouham-Pend"/><path d="M222,68L213,75L211,77L199,77L196,79L193,79L182,80L178,80L171,81L168,83L167,85L172,91L172,91L172,91L172,92L172,93L173,93L174,98L176,100L180,106L179,115L187,120L186,122L192,124L192,126L195,128L196,131L203,136L203,136L203,136L206,138L211,138L215,136L220,132L224,131L231,119L231,118L231,116L231,111L238,110L241,102L250,100L252,103L256,103L256,97L255,93L259,92L267,93L267,92L267,91L266,90L262,89L260,88L258,81L254,77L251,73L249,69L242,63L242,60L240,59L235,64L229,65L225,69L222,68L222,68Z " data-fips="CT01" data-fips-="" data-iso3="CAF" data-name="Bamingui-Bangoran"/><path d="M203,136L196,131L195,128L192,126L192,124L186,122L187,120L179,115L180,106L176,100L174,98L173,93L172,93L172,93L170,102L171,108L170,112L169,116L164,120L162,122L165,131L163,133L160,141L162,145L166,148L163,151L163,153L169,152L171,152L174,155L185,153L191,154L192,154L203,139L203,137L203,136L203,136Z " data-fips="CT15" data-fips-="" data-iso3="CAF" data-name="Nana-Grbizi"/><path d="M163,153L162,153L166,158L164,164L160,167L159,174L159,175L161,177L166,179L166,182L170,186L169,192L172,196L173,199L173,198L181,193L186,192L194,195L194,195L196,193L199,184L184,182L184,180L185,180L188,175L187,174L187,170L192,167L193,165L195,158L191,155L191,154L185,153L174,155L171,152L169,152L163,153Z " data-fips="CT06" data-fips-="" data-iso3="CAF" data-name="Kmo"/><path d="M231,118L231,119L224,131L220,132L215,136L211,138L206,138L203,136L203,136L203,137L203,139L192,154L191,154L191,155L195,158L193,165L192,167L187,170L187,174L188,175L185,180L184,180L184,182L199,184L196,193L194,195L195,196L206,203L207,203L212,208L211,210L212,210L216,207L224,202L225,197L224,193L226,190L226,185L228,180L228,176L231,178L234,178L241,180L245,183L246,182L246,181L247,179L252,178L253,177L254,170L253,167L249,162L251,157L249,151L248,151L246,144L246,142L245,139L244,131L239,129L238,123L232,119L231,118Z " data-fips="CT11" data-fips-="" data-iso3="CAF" data-name="Ouaka"/><path d="M172,93L172,92L172,91L172,91L172,91L163,102L162,103L156,109L143,109L136,110L130,111L126,113L124,112L120,114L116,118L108,120L108,122L107,122L107,126L105,134L103,138L105,147L107,151L110,154L113,153L114,156L111,158L109,164L110,169L111,171L111,171L111,173L115,176L129,175L135,172L141,173L152,175L152,180L153,180L159,175L159,175L159,174L160,167L164,164L166,158L162,153L163,153L163,151L166,148L162,145L160,141L163,133L165,131L162,122L164,120L169,116L170,112L171,108L170,102L172,93L172,93Z " data-fips="CT12" data-fips-="" data-iso3="CAF" data-name="Ouham"/><path d="M222,68L225,69L229,65L235,64L240,59L242,60L242,63L249,69L251,73L254,77L258,81L260,88L262,89L266,90L267,91L267,92L268,92L271,92L275,90L285,88L286,88L288,83L293,80L294,79L298,76L298,76L301,75L303,72L302,68L304,62L302,54L293,39L288,34L285,32L281,26L276,24L270,23L266,24L260,28L257,27L256,30L251,32L247,43L246,45L242,46L238,52L235,52L229,59L229,58L223,67L222,69L222,68Z " data-fips="CT14" data-fips-="" data-iso3="CAF" data-name="Vakaga"/><path d="M298,76L294,79L293,80L288,83L286,88L285,88L275,90L271,92L268,92L267,92L267,93L259,92L255,93L256,97L256,103L252,103L250,100L241,102L238,110L231,111L231,116L231,118L232,119L238,123L239,129L244,131L245,139L246,142L246,144L248,151L249,151L251,157L249,162L253,167L254,170L253,177L252,178L247,179L246,181L249,181L251,182L253,183L253,183L259,178L258,176L258,170L260,168L264,166L265,167L269,165L272,161L280,160L284,163L294,164L293,163L297,161L298,159L321,146L322,145L323,140L329,138L328,130L331,124L328,120L328,118L327,111L327,108L321,102L321,102L317,100L317,98L320,90L304,89L299,88L301,82L298,81L298,76L298,76Z " data-fips="CT03" data-fips-="" data-iso3="CAF" data-name="Haute-Kotto"/><path d="M321,102L327,108L327,111L328,118L328,120L331,124L328,130L329,138L323,140L322,145L321,146L329,154L331,156L334,155L336,154L339,153L343,155L345,159L339,162L342,165L346,168L347,169L346,173L344,177L343,182L339,185L339,187L331,191L328,194L328,194L333,199L338,198L345,198L351,196L353,193L353,188L354,187L360,186L361,187L366,189L369,191L377,189L378,191L385,193L385,194L392,193L397,195L399,192L403,190L412,192L409,189L407,183L407,177L404,173L401,173L397,170L396,170L395,168L392,167L390,167L384,165L385,159L380,156L379,154L382,148L379,147L374,143L371,138L359,132L358,131L353,129L351,126L348,124L347,122L350,116L349,113L343,112L337,105L331,103L329,103L326,102L322,102L321,102Z " data-fips="CT05" data-fips-="" data-iso3="CAF" data-name="Haut-Mbomou"/><path d="M321,146L298,159L297,161L293,163L294,164L284,163L280,160L272,161L269,165L265,167L264,166L260,168L258,170L258,176L259,178L253,183L253,183L253,184L253,190L250,195L251,195L249,205L251,206L254,208L260,211L258,215L257,219L258,219L265,222L268,222L274,215L273,212L276,212L279,205L282,204L282,202L288,205L290,205L294,207L298,207L302,205L317,199L318,199L325,195L325,193L327,193L328,194L331,191L339,187L339,185L343,182L344,177L346,173L347,169L346,168L342,165L339,162L345,159L343,155L339,153L336,154L334,155L331,156L329,154L321,146Z " data-fips="CT08" data-fips-="" data-iso3="CAF" data-name="Mbomou"/><path d="M111,171L111,172L105,174L103,175L99,179L98,180L98,181L97,184L98,186L98,188L102,186L110,186L113,189L113,193L112,194L113,196L115,195L122,201L125,202L128,209L134,210L142,213L144,212L149,217L150,221L150,223L158,229L158,229L159,226L159,222L156,217L157,215L161,215L163,213L164,209L170,203L172,199L173,199L172,196L169,192L170,186L166,182L166,179L161,177L159,175L159,175L153,180L152,180L152,175L141,173L135,172L129,175L115,176L111,173L111,171Z " data-fips="CT10" data-fips-="CT17|CT18" data-iso3="CAF" data-name="Bangui"/></g></svg>