<?xml version="1.0" encoding="UTF-8"?><!DOCTYPE svg  PUBLIC '-//W3C//DTD SVG 1.1//EN'  'http://www.w3.org/Graphics/SVG/1.1/DTD/svg11.dtd'><svg enable_background="new 0 0 450 301" height="301px" style="stroke-linejoin: round; stroke:#000; fill:#f6f3f0;" version="1.1" viewBox="0 0 450 301" width="450px" xmlns="http://www.w3.org/2000/svg" xmlns:xlink="http://www.w3.org/1999/xlink"><defs><style type="text/css"><![CDATA[path { fill-rule: evenodd; }
#context path { fill: #eee; stroke: #bbb; } ]]></style></defs><metadata><views><view h="301.0" padding="0.06" w="450"><proj id="laea" lat0="54.4965576236" lon0="-97.2269236227"/><bbox h="576.18" w="670.27" x="714.5" y="604.32"/><llbbox lat0="-90" lat1="90" lon0="-180" lon1="180"/></view></views></metadata><g id="context"><path d="M364,229L364,229L363,230L364,229Z M337,241L337,240L337,240L337,241Z M334,239L333,239L334,238L334,239Z M303,245L303,245L303,244L303,245Z M304,246L302,246L303,245L304,246Z M311,233L311,233L312,232L311,233Z M353,220L354,221L355,218L357,218L357,220L353,223L352,221L352,214L354,217L353,220Z M341,223L347,219L347,224L340,224L341,223Z M346,214L346,214L347,211L346,214Z M335,216L335,216L334,216L335,216Z M91,222L91,222L91,221L91,222Z M300,250L304,246L304,244L308,236L313,232L318,219L325,211L331,209L333,210L331,219L334,217L338,225L341,226L349,225L351,223L355,224L345,236L342,242L339,243L337,238L341,228L337,233L334,236L331,237L331,237L327,233L324,228L322,226L317,227L316,236L316,238L312,246L300,250L300,250Z M365,185L364,186L364,185L365,185Z M366,183L366,184L365,184L366,183Z M90,216L90,216L89,214L90,216Z M81,212L80,210L81,210L81,212Z M341,204L334,205L334,202L337,202L341,204Z M88,212L88,211L89,211L88,212Z M358,181L357,181L358,180L358,181Z M81,205L87,209L87,214L90,218L91,222L87,222L86,218L81,213L83,212L78,206L81,205Z M355,176L356,189L357,186L360,185L360,189L364,188L369,184L374,187L374,193L376,189L377,193L378,191L380,197L379,199L377,197L375,197L373,193L371,198L371,196L369,199L364,201L356,207L354,205L354,200L353,200L354,193L353,192L352,185L355,176Z M81,199L81,197L81,197L81,199Z M354,174L354,174L354,174L354,174Z M269,213L268,213L269,212L269,213Z M80,191L80,189L80,189L80,191Z M80,187L80,186L80,186L80,187Z M263,209L258,207L260,207L263,209Z M73,182L72,189L70,183L73,182Z M83,189L81,188L82,186L83,189Z M81,187L81,187L81,186L81,187Z M265,205L264,205L264,205L265,205Z M79,185L78,182L79,184L79,185Z M73,175L74,178L72,181L70,178L73,175Z M79,176L80,175L80,175L79,176Z M81,175L82,175L83,174L83,174L83,174L82,175L81,175L81,175Z M322,163L322,162L322,162L322,163Z M264,186L264,184L264,185L264,186Z M260,187L261,185L261,185L260,187Z M263,186L262,187L260,189L263,186Z M315,155L316,156L315,156L315,155Z M259,178L258,179L258,178L259,178Z M254,166L254,165L254,165L254,166Z M299,143L297,144L298,143L299,143Z M288,149L288,147L289,148L288,149Z M212,158L211,157L212,157L212,158Z M293,136L293,136L292,136L293,136Z M251,148L252,153L250,150L251,148Z M291,131L292,131L292,132L291,131Z M277,138L275,139L274,138L277,138Z M243,146L241,152L239,150L239,147L243,146Z M254,140L255,142L252,141L254,140Z M254,137L253,137L253,137L254,137Z M232,134L233,132L240,135L242,140L245,139L247,140L241,142L237,142L233,147L232,144L228,145L229,142L229,132L229,130L232,134Z M173,121L172,121L173,119L173,121Z M171,117L171,117L171,117L171,117Z M170,116L170,116L170,116L170,116Z M225,119L224,117L225,115L225,119Z M250,109L252,112L252,114L249,116L247,113L250,109Z M182,116L181,115L181,114L182,116Z M251,108L250,106L250,106L251,108Z M215,111L214,110L214,110L215,111Z M215,109L215,110L215,110L215,109Z M190,110L190,109L190,109L190,110Z M203,109L203,110L203,109L203,109Z M263,95L262,95L263,94L263,95Z M242,102L240,104L241,103L242,102Z M199,109L203,114L201,116L196,114L196,109L199,109Z M222,104L221,105L221,104L222,104Z M193,103L192,102L192,102L193,103Z M268,272L268,271L265,257L253,249L237,243L236,243L220,244L216,243L216,243L216,243L216,243L210,242L208,238L207,240L198,241L176,240L146,236L120,230L94,222L94,221L93,213L90,214L86,206L82,203L81,196L83,192L83,188L82,184L81,185L79,181L84,174L86,169L86,169L83,159L84,156L82,138L78,140L74,139L74,130L71,125L109,78L109,78L113,86L116,87L121,87L123,88L131,88L131,89L121,91L121,93L124,91L136,90L136,94L137,97L141,99L143,97L145,97L158,107L159,109L156,114L166,117L168,116L171,123L174,124L173,119L174,117L172,115L182,118L184,118L188,120L195,121L198,116L202,118L201,122L208,115L208,109L202,108L201,104L201,100L203,94L208,98L211,104L209,108L214,110L216,117L218,110L221,113L221,117L224,123L226,117L226,109L227,105L235,108L238,120L231,127L226,126L228,129L226,134L218,131L221,135L227,135L223,143L218,146L209,143L213,147L215,146L218,150L213,152L207,167L207,176L210,178L213,178L216,187L220,187L232,191L253,196L254,202L256,203L256,208L260,212L264,215L266,218L269,218L272,210L263,196L269,190L271,185L271,183L268,175L261,168L263,164L258,155L257,150L256,146L259,145L262,146L268,142L276,148L282,146L287,157L287,161L294,160L296,162L300,153L298,145L303,147L303,148L310,151L319,160L316,161L318,162L325,163L327,167L329,164L330,165L337,164L338,165L336,169L333,174L333,175L340,166L342,168L346,167L348,168L352,173L351,178L346,184L345,191L342,195L338,198L333,199L323,204L320,208L320,213L314,223L308,224L314,224L311,234L308,236L305,240L301,249L300,250L294,258L293,262L284,264L283,266L284,269L279,274L275,276L266,277L268,273L268,272Z M200,88L200,87L200,86L200,88Z M166,86L170,84L172,89L175,85L177,93L179,93L179,85L183,87L184,95L184,99L191,105L191,108L188,107L187,113L185,113L178,108L177,110L171,112L163,112L161,106L157,105L156,101L158,99L167,100L160,97L156,87L159,84L165,81L168,82L166,86Z M184,87L182,82L186,83L184,87Z M231,79L236,79L237,82L230,82L229,79L231,79Z M222,98L225,95L223,90L222,83L226,80L227,80L231,85L232,90L236,86L236,84L240,83L244,86L244,91L247,87L251,87L255,89L259,89L260,94L262,94L264,99L262,100L268,101L269,102L274,103L277,102L283,103L286,106L284,107L285,116L282,116L280,114L274,116L271,115L280,120L285,121L288,124L290,129L288,131L279,130L282,133L286,134L289,137L280,138L270,135L271,133L268,133L263,130L255,135L251,133L252,129L256,128L261,124L257,121L260,113L253,107L253,105L246,106L246,103L241,99L239,100L225,103L223,102L217,102L216,99L220,98L215,96L214,86L216,82L221,80L220,89L221,92L224,95L222,98Z M194,81L199,85L197,88L201,89L200,93L195,98L193,94L189,89L190,87L191,89L193,87L191,84L194,81Z M197,82L195,81L198,80L197,82Z M206,80L211,82L209,89L206,90L206,93L202,89L202,84L204,80L206,80Z M160,74L163,74L166,80L156,84L155,85L153,88L146,89L146,85L145,81L149,77L152,72L153,69L158,70L160,74Z M199,78L198,78L199,77L199,78Z M203,78L202,78L202,77L203,78Z M205,74L200,75L201,73L205,74Z M201,71L200,72L201,71L201,71Z M162,63L162,63L162,63L162,63Z M166,66L164,65L168,63L166,66Z M228,65L227,65L227,64L228,65Z M191,68L188,67L190,66L191,68Z M189,64L190,66L190,66L189,64Z M199,65L198,74L195,75L195,71L192,71L193,66L195,69L195,64L199,65Z M193,65L193,64L194,64L193,65Z M182,67L184,67L184,73L173,75L171,72L176,71L173,71L172,69L170,71L166,67L171,66L168,66L173,62L180,70L179,65L182,67Z M175,61L173,60L175,60L175,61Z M204,63L211,66L208,67L213,70L218,69L221,67L227,68L228,69L228,73L225,75L222,73L221,76L214,77L208,75L208,71L205,67L202,67L204,63Z M173,56L172,60L168,61L169,59L162,61L161,59L169,55L173,56Z M210,60L208,58L209,58L210,60Z M189,61L188,57L189,60L189,61Z M193,58L193,56L194,57L193,58Z M177,54L176,52L176,53L177,54Z M182,53L181,56L178,58L178,54L182,53Z M191,55L191,54L191,54L191,55Z M183,50L179,51L182,49L183,50Z M201,53L202,56L200,57L198,54L199,51L201,53Z M192,47L196,51L197,56L193,54L190,54L191,51L190,50L192,47Z M205,36L214,46L211,49L211,54L206,54L203,50L200,42L202,35L205,36Z M221,20L223,21L227,20L229,21L228,27L229,30L228,37L226,45L228,47L223,58L227,58L227,62L223,62L218,65L211,65L213,55L212,54L215,47L211,42L211,40L218,43L215,40L219,36L219,31L217,36L213,39L207,37L206,33L205,33L208,30L210,30L210,27L213,25L217,24L216,22L221,20Z " data-iso="CAN"/><path d="M389,2L388,2L388,2L389,2Z M384,2L384,3L385,3L384,2Z M383,0L384,0L384,0L383,0Z " data-iso="FRO"/><path d="M429,14L433,18L434,18L436,12L436,12L429,10L429,14L429,14Z M424,9L426,10L425,10L424,9Z M425,8L423,7L424,8L425,8Z M422,7L420,7L422,8L422,7Z M418,7L417,8L418,8L418,7Z M416,10L415,10L415,10L416,10Z M409,5L410,7L410,8L409,5Z M438,0L442,2L442,6L444,9L448,8L450,0L438,0Z M432,0L434,2L436,1L432,0Z M408,0L413,4L428,7L424,6L425,4L431,6L431,0L408,0Z " data-iso="GBR"/><path d="M342,108L341,110L342,109L342,108Z M336,68L335,67L335,68L336,68Z M294,75L293,73L292,73L294,75Z M290,75L285,75L291,80L290,75Z M287,69L286,69L287,70L287,69Z M318,27L317,31L319,31L320,29L318,27Z M284,71L283,70L282,71L284,71Z M290,3L288,3L290,3L290,3Z M276,0L278,0L278,0L276,0Z M242,0L238,0L239,5L236,5L237,9L239,7L240,11L242,14L235,14L237,17L233,18L234,22L231,22L233,26L232,27L232,35L234,34L236,39L231,49L237,51L241,49L241,50L236,54L241,55L243,58L247,55L248,54L258,53L259,54L265,56L272,63L273,63L279,71L280,66L283,69L287,68L289,71L284,74L285,74L294,72L296,76L295,82L300,83L296,85L305,95L305,90L306,97L310,96L314,102L313,96L316,98L315,100L327,108L328,108L334,112L338,112L342,106L345,108L347,107L349,109L352,105L346,96L342,92L340,84L336,79L333,79L333,74L331,74L333,71L331,66L334,68L335,61L334,57L329,49L327,48L330,45L331,41L330,33L327,28L326,23L323,27L321,31L318,35L315,32L316,26L314,26L318,24L323,24L323,20L316,18L307,24L306,21L311,19L312,17L306,15L306,12L303,10L300,13L301,8L295,6L289,5L285,6L282,1L281,3L280,1L278,4L272,0L242,0Z " data-iso="GRL"/><path d="M436,5L435,5L436,7L436,5Z " data-iso="IMN"/><path d="M435,26L435,26L434,27L435,26Z M436,12L434,18L433,18L429,14L429,14L428,18L432,19L437,27L439,26L446,32L450,31L450,26L447,16L442,13L436,12L436,12Z " data-iso="IRL"/><path d="M354,17L352,19L354,21L354,24L355,24L352,29L354,31L353,33L348,33L352,39L355,34L357,35L357,39L360,37L363,40L364,36L368,35L370,31L366,18L363,15L356,15L354,17Z " data-iso="ISL"/><path d="M-88,-90L-88,-90L-88,-90L-88,-90Z M-82,-89L-86,-92L-85,-92L-82,-89Z M-81,-77L-82,-82L-80,-81L-81,-77Z M-76,-62L-76,-63L-74,-61L-76,-62Z M-72,-57L-72,-58L-71,-58L-72,-57Z M-66,-53L-65,-53L-66,-53L-66,-53Z M-63,-51L-63,-51L-61,-51L-63,-51Z M-58,-46L-59,-48L-56,-46L-58,-46Z M-56,-44L-55,-45L-55,-45L-56,-44Z M-15,-96L-26,-96L-30,-97L-49,-96L-47,-100L-54,-103L-57,-103L-66,-100L-67,-101L-62,-104L-64,-107L-58,-106L-48,-105L-43,-103L-33,-102L-26,-102L-19,-100L-20,-98L-15,-96Z M-35,-2L-34,-4L-34,-4L-35,-2Z M0,-114L-0,-115L1,-115L0,-114Z M-1,-112L-2,-111L-3,-113L-1,-112Z M414,-88L410,-90L412,-95L414,-96L418,-84L415,-85L414,-88Z M-9,-22L-8,-22L-6,-22L-9,-22Z M326,-109L327,-110L327,-109L326,-109Z M305,-117L305,-117L305,-117L305,-117Z M61,10L54,24L49,26L47,29L53,28L54,32L51,36L46,38L45,34L42,36L39,36L37,29L41,24L40,20L43,17L43,15L40,17L36,17L61,9L61,10Z M278,-119L283,-119L283,-118L278,-119Z M63,-15L65,-18L65,-15L63,-15Z M253,-127L257,-125L256,-123L253,-127Z M238,-128L238,-128L238,-127L238,-128Z M72,-33L73,-34L73,-33L72,-33Z M73,4L74,3L74,5L73,4Z M78,7L77,10L74,5L78,5L78,7Z M210,-123L209,-121L209,-122L210,-123Z M206,-121L208,-120L207,-119L206,-121Z M253,-105L251,-106L258,-112L257,-120L262,-118L265,-115L263,-114L266,-110L256,-104L253,-105Z M224,-116L224,-114L223,-114L224,-116Z M211,-116L212,-116L213,-116L211,-116Z M214,-116L214,-115L213,-115L214,-116Z M125,-87L125,-87L125,-87L125,-87Z M198,-113L198,-113L199,-113L198,-113Z M199,-113L200,-113L200,-113L199,-113Z M110,-71L113,-72L113,-71L110,-71Z M106,-64L107,-65L108,-65L106,-64Z M144,-97L146,-99L147,-99L144,-97Z M192,-108L191,-108L193,-108L192,-108Z M109,-52L106,-47L105,-51L109,-54L109,-52Z M119,-67L122,-66L120,-66L119,-67Z M111,-42L111,-43L111,-42L111,-42Z M118,-61L118,-58L112,-54L111,-58L114,-59L109,-60L113,-63L113,-66L117,-66L121,-61L118,-61Z M176,-98L177,-99L178,-99L176,-98Z M176,-98L176,-98L176,-97L176,-98Z M153,-87L153,-87L153,-87L153,-87Z M175,-96L176,-95L176,-95L175,-96Z M116,-47L117,-47L117,-46L116,-47Z M224,-97L240,-101L242,-101L250,-106L255,-104L251,-101L246,-98L246,-96L243,-97L234,-94L227,-95L222,-94L224,-97Z M189,-94L189,-94L189,-94L189,-94Z M162,-87L163,-87L162,-87L162,-87Z M167,-86L165,-88L161,-89L161,-91L155,-87L147,-92L150,-105L152,-108L150,-108L147,-105L148,-103L140,-102L138,-98L133,-95L131,-97L123,-93L124,-87L116,-84L110,-88L113,-88L103,-90L100,-89L104,-83L99,-82L93,-75L95,-74L94,-72L98,-70L96,-63L93,-62L90,-57L87,-53L81,-53L81,-52L76,-47L76,-43L75,-38L71,-35L67,-35L63,-32L64,-28L64,-18L61,-17L58,-12L59,-11L63,-13L66,-13L65,-4L66,-1L61,9L36,17L33,13L33,11L30,12L26,16L26,16L18,20L19,13L17,12L12,5L3,-1L-0,-2L3,-5L4,-9L-1,-15L1,-15L1,-23L-1,-24L-12,-28L-15,-23L-20,-24L-24,-21L-24,-24L-28,-27L-33,-25L-34,-28L-37,-32L-43,-31L-42,-32L-45,-37L-47,-37L-55,-43L-29,-49L-23,-49L-17,-48L-11,-43L-10,-40L-6,-36L-4,-35L11,-23L16,-22L18,-23L17,-26L12,-26L12,-28L6,-33L6,-35L10,-35L14,-34L15,-37L14,-44L9,-48L4,-53L2,-53L1,-51L-0,-54L1,-55L1,-63L5,-62L9,-68L6,-70L8,-72L10,-80L12,-81L15,-88L14,-92L13,-96L10,-99L8,-106L5,-112L4,-119L3,-121L-2,-116L-9,-117L-11,-112L-10,-107L-19,-102L-20,-104L-27,-104L-28,-106L-34,-109L-43,-111L-46,-115L-54,-124L-57,-131L-62,-140L-60,-150L-57,-154L-53,-155L-52,-159L-47,-156L-41,-156L-42,-151L-42,-142L-35,-136L-31,-137L-30,-141L-30,-145L-26,-151L-19,-150L-14,-152L-5,-158L5,-157L10,-157L19,-156L32,-165L36,-170L31,-174L31,-177L29,-184L27,-185L30,-191L36,-193L41,-196L44,-197L48,-199L50,-204L61,-213L69,-216L74,-216L81,-217L88,-219L94,-223L102,-224L105,-220L121,-222L123,-225L124,-228L121,-233L128,-236L136,-237L141,-235L151,-236L159,-240L165,-244L171,-245L174,-248L179,-244L181,-246L186,-245L198,-239L201,-240L206,-240L210,-237L213,-240L219,-231L224,-225L233,-221L239,-223L243,-223L243,-220L253,-217L252,-213L257,-210L263,-209L266,-210L288,-207L296,-205L298,-208L295,-210L300,-209L304,-216L304,-219L315,-216L317,-212L322,-211L323,-209L331,-208L334,-204L335,-206L336,-202L341,-197L341,-195L347,-192L360,-190L363,-192L365,-187L371,-188L377,-191L378,-195L374,-198L376,-204L377,-206L384,-205L387,-203L395,-204L395,-209L399,-211L399,-218L405,-218L407,-215L411,-207L409,-206L418,-194L423,-188L425,-184L428,-181L430,-172L429,-170L431,-164L426,-168L425,-167L420,-169L420,-166L413,-170L411,-169L414,-167L413,-165L403,-169L402,-168L396,-167L399,-161L401,-158L404,-153L405,-143L402,-140L406,-130L401,-129L401,-130L396,-125L390,-121L390,-118L392,-117L391,-115L393,-112L388,-109L379,-104L374,-105L371,-104L367,-110L367,-106L366,-102L351,-106L346,-104L345,-100L341,-99L336,-95L332,-94L318,-84L312,-85L307,-87L308,-90L306,-95L304,-107L303,-111L305,-113L312,-114L316,-112L320,-105L322,-96L324,-101L324,-105L328,-106L330,-108L329,-117L328,-118L326,-112L322,-118L319,-120L318,-119L311,-117L305,-120L305,-123L299,-119L294,-114L294,-111L290,-116L290,-119L296,-118L295,-124L293,-125L290,-122L274,-124L270,-125L275,-127L264,-130L259,-130L261,-133L255,-132L254,-128L252,-127L247,-130L240,-137L238,-141L235,-138L236,-135L237,-127L232,-123L226,-116L220,-119L224,-126L223,-130L227,-148L232,-152L235,-152L238,-150L236,-153L233,-153L225,-151L221,-147L221,-142L216,-141L214,-147L212,-146L213,-142L217,-140L221,-140L221,-134L219,-132L221,-126L215,-119L215,-122L216,-124L215,-128L209,-130L214,-127L209,-122L198,-127L200,-131L199,-131L199,-135L197,-133L198,-131L198,-126L201,-123L203,-120L204,-116L191,-111L194,-110L186,-104L177,-99L177,-100L170,-95L171,-90L167,-86Z M165,-82L166,-83L166,-83L165,-82Z M167,-83L167,-82L166,-82L167,-83Z M174,-79L169,-82L171,-85L173,-85L174,-79Z M178,-78L178,-77L178,-77L178,-78Z M187,-79L189,-78L186,-78L187,-79Z M235,-69L236,-68L235,-68L235,-69Z M226,-74L227,-73L227,-73L226,-74Z M182,-75L177,-81L178,-83L186,-80L184,-77L182,-75Z M236,-68L236,-67L235,-67L236,-68Z M228,-70L229,-72L230,-71L228,-70Z M230,-68L231,-69L231,-68L230,-68Z M236,-63L236,-63L237,-64L236,-63Z M221,-70L222,-71L225,-71L221,-70Z M202,-73L203,-73L202,-73L202,-73Z M222,-69L222,-68L221,-68L222,-69Z M224,-67L225,-69L226,-68L224,-67Z M221,-71L220,-69L219,-71L221,-71Z M190,-71L190,-72L192,-71L190,-71Z M185,-70L182,-75L186,-77L189,-76L185,-70Z M223,-66L224,-66L223,-66L223,-66Z M224,-64L225,-66L227,-65L224,-64Z M218,-66L219,-65L219,-65L218,-66Z " data-iso="RUS"/><path d="M369,204L369,204L369,205L369,204Z " data-iso="SPM"/><path d="M4,106L4,106L4,106L4,106Z M3,101L2,101L3,102L3,101Z M5,105L4,105L4,105L5,105Z M34,42L32,43L33,49L35,50L34,42Z M55,47L56,47L55,47L55,47Z M14,48L13,49L13,49L14,48Z M21,66L18,64L18,67L21,66Z M53,112L53,112L53,112L53,112Z M17,113L17,113L16,113L17,113Z M36,109L37,109L37,109L36,109Z M36,110L34,109L33,111L36,110Z M31,110L32,110L31,109L31,110Z M53,114L56,114L53,113L53,114Z M32,111L28,109L25,112L30,114L32,111Z M23,114L24,114L23,114L23,114Z M29,114L29,114L28,113L29,114Z M59,114L58,114L58,114L59,114Z M61,117L61,117L61,117L61,117Z M81,149L81,148L80,148L81,149Z M77,146L74,146L75,150L77,151L78,149L77,146Z M80,148L78,154L80,150L80,148Z M329,244L328,245L328,245L329,244Z M92,232L92,231L92,232L92,232Z M92,224L92,224L92,224L92,224Z M93,225L93,224L93,224L93,225Z M92,230L93,230L92,231L92,230Z M93,227L93,227L93,228L93,232L91,232L93,228L92,227L85,223L84,235L79,247L74,255L69,272L69,281L73,290L73,299L306,299L303,293L303,288L304,293L307,295L308,299L309,289L307,288L311,285L312,278L310,276L310,276L310,276L310,276L315,270L321,268L321,257L326,245L328,245L333,239L331,237L331,237L327,233L324,228L322,226L317,227L316,236L316,238L312,246L300,250L294,258L293,262L284,264L283,266L284,269L279,274L275,276L266,277L268,273L268,272L268,272L267,268L266,266L263,267L262,269L261,269L261,267L262,266L263,264L262,261L262,260L261,258L258,257L257,257L255,256L255,256L255,256L254,259L254,259L253,261L252,263L252,263L252,261L250,264L249,264L249,266L249,268L249,271L251,275L251,278L251,280L250,283L248,284L246,284L244,281L244,278L243,274L243,273L244,266L244,264L244,264L242,266L241,265L242,263L245,258L245,257L247,257L247,259L248,256L251,255L253,255L254,256L255,256L255,256L255,255L258,255L258,253L257,253L256,251L256,251L256,251L256,251L253,249L237,243L236,243L220,244L216,243L210,242L208,238L207,240L198,241L176,240L146,236L120,230L94,222L94,222L93,227L93,227Z M257,252L257,252L257,252L257,252Z M328,266L327,265L327,266L328,266Z M325,266L324,266L324,266L325,266Z M321,267L321,266L321,266L321,267Z M317,272L311,275L315,275L317,272Z M81,175L82,175L83,174L83,174L83,174L85,172L85,171L86,169L86,169L83,159L84,156L82,138L78,140L74,139L74,130L71,125L109,78L109,77L107,72L105,71L101,66L99,61L97,58L95,51L93,50L95,47L91,46L87,44L83,42L75,42L72,41L70,38L66,42L63,49L65,53L61,57L59,57L57,51L58,49L49,44L46,55L48,58L48,60L54,63L48,67L45,67L43,65L40,62L37,61L28,63L26,68L23,69L22,75L26,78L21,83L19,85L21,86L24,90L23,93L26,93L29,96L25,97L21,100L9,98L6,100L6,98L3,95L0,98L3,98L4,100L20,105L23,105L28,105L31,106L35,106L38,102L43,102L49,100L53,101L54,106L52,102L49,102L44,105L43,110L54,111L56,108L57,108L57,109L57,108L62,111L60,112L64,122L69,126L70,130L74,131L71,132L76,145L76,141L79,141L77,145L79,147L81,144L82,148L81,150L82,154L80,156L81,158L82,165L79,166L81,175L81,175Z M76,152L74,153L74,156L76,152Z M77,157L76,156L77,159L77,157Z M80,157L79,158L79,159L80,157Z M74,170L74,167L74,171L74,170Z M80,172L79,171L79,172L80,172Z M79,163L80,162L79,161L79,163Z M75,166L74,166L75,166L75,166Z M77,161L75,164L77,172L78,170L77,161Z " data-iso="USA"/></g><g fill="red" fill-opacity="0.35" id="regions"><path d="M228,189L218,188L215,188L216,187L213,178L209,178L207,176L207,170L207,170L201,170L190,170L185,170L184,170L184,170L182,196L182,231L182,240L182,240L208,240L208,238L208,238L207,216L213,210L228,189L228,189Z " data-fips="CA03" data-fips-="" data-iso3="CAN" data-name="Manitoba" data-p="MB"/><path d="M184,170L182,169L171,168L170,168L160,167L159,166L158,168L156,177L153,197L146,236L146,236L163,238L164,238L181,240L182,240L182,231L182,196L184,170L184,170Z " data-fips="CA11" data-fips-="" data-iso3="CAN" data-name="Saskatchewan" data-p="SK"/><path d="M159,166L157,166L143,163L141,162L130,159L128,158L128,159L119,184L115,196L116,201L117,201L124,213L124,215L128,221L129,232L130,232L139,234L142,235L145,236L146,236L153,197L156,177L158,168L159,166Z " data-fips="CA01" data-fips-="" data-iso3="CAN" data-name="Alberta" data-p="AB"/><path d="M91,223L91,223L91,223L91,223Z M92,222L92,222L92,222L92,222Z M91,221L91,222L91,222L91,221Z M92,221L91,221L92,221L92,221Z M82,216L82,215L82,215L82,216Z M82,215L82,214L82,214L82,215Z M93,219L93,218L93,218L93,219Z M89,216L89,216L89,216L89,216Z M93,218L93,217L93,217L93,218Z M88,216L88,216L88,216L88,216Z M88,216L88,215L88,215L88,216Z M91,215L90,215L91,215L91,215Z M90,215L90,216L90,216L90,215Z M80,208L80,208L80,208L80,208Z M89,211L89,210L89,211L89,211Z M90,211L89,211L89,211L90,211Z M88,209L88,209L88,209L88,209Z M78,204L78,204L78,204L78,204Z M86,208L86,208L86,208L86,208Z M84,206L83,206L83,206L84,206Z M85,207L84,206L83,206L85,207Z M84,206L84,206L84,206L84,206Z M82,205L83,205L83,205L82,205Z M84,204L83,204L83,205L84,204Z M78,204L82,210L81,213L83,214L85,219L89,224L91,224L90,218L88,214L86,209L81,204L78,204Z M81,202L81,201L81,201L81,202Z M72,189L71,190L72,190L72,189Z M81,195L82,195L82,194L81,195Z M82,194L81,193L81,194L82,194Z M85,195L84,194L82,196L85,195Z M81,191L80,192L81,192L81,191Z M82,191L81,191L82,192L82,191Z M72,185L72,186L72,185L72,185Z M83,191L84,190L83,190L83,191Z M72,184L71,184L71,184L72,184Z M83,190L83,189L82,190L83,190Z M70,182L70,182L70,182L70,182Z M79,187L79,187L79,187L79,187Z M79,186L79,187L80,186L79,186Z M73,181L70,181L70,185L71,187L71,183L73,181Z M83,187L81,187L81,190L83,187Z M83,184L84,184L83,184L83,184Z M81,183L80,181L79,181L81,183Z M72,174L70,177L70,181L73,180L75,178L74,177L72,174Z M81,179L80,179L80,179L81,179Z M72,174L72,173L72,173L72,174Z M81,178L81,178L80,178L81,178Z M80,177L79,177L79,177L80,177Z M80,175L79,175L79,176L80,175Z M81,175L81,175L81,175L81,175Z M82,175L83,174L83,174L82,175Z M128,158L126,158L122,156L121,156L118,154L116,154L115,153L95,143L93,143L74,131L74,131L75,137L75,139L79,139L81,138L83,140L83,142L84,149L84,152L83,162L87,169L84,175L81,177L80,181L81,183L84,183L83,190L82,193L83,192L86,196L84,195L83,198L86,199L82,199L81,201L85,206L85,206L91,210L89,212L89,214L92,214L92,218L94,217L93,220L99,223L105,225L129,232L129,232L128,221L124,215L124,213L117,201L116,201L115,196L119,184L128,159L128,158Z " data-fips="CA02" data-fips-="" data-iso3="CAN" data-name="British Columbia" data-p="BC"/><path d="M269,212L268,213L268,213L269,212Z M268,211L268,211L268,211L268,211Z M265,206L265,206L265,206L265,206Z M259,207L262,208L261,209L257,208L259,207Z M265,205L264,205L264,205L265,205Z M264,201L264,201L264,201L264,201Z M259,200L259,199L259,199L259,200Z M265,194L263,195L264,195L265,194Z M270,189L270,188L270,188L270,189Z M264,187L264,187L264,187L264,187Z M271,184L271,184L271,184L271,184Z M267,184L267,184L267,184L267,184Z M268,183L268,183L268,183L268,183Z M264,185L264,186L264,184L264,185Z M261,186L260,187L260,186L261,186Z M262,184L262,189L260,189L262,184Z M263,183L263,183L263,183L263,183Z M259,183L259,183L260,183L259,183Z M259,182L260,183L260,183L259,182Z M270,178L269,178L270,178L270,178Z M264,179L263,179L264,178L264,179Z M259,178L259,179L258,178L259,178Z M264,172L263,172L264,172L264,172Z M261,171L261,171L260,170L261,171Z M259,170L259,170L259,169L259,170Z M253,167L253,167L253,167L253,167Z M253,166L253,166L253,166L253,166Z M253,166L253,165L253,165L253,166Z M299,143L299,144L299,144L298,144L297,143L299,143L299,143Z M297,142L297,142L297,142L297,142Z M294,137L294,139L294,138L294,137Z M291,137L291,137L290,137L291,137Z M212,157L212,158L211,158L212,157Z M252,148L252,153L250,149L252,148Z M214,154L213,154L213,154L214,154Z M291,131L292,132L291,132L291,131Z M256,145L256,146L256,146L256,145Z M291,132L290,132L290,132L291,132Z M217,152L217,152L217,152L217,152Z M265,142L266,142L265,142L265,142Z M243,146L241,152L239,149L243,146Z M269,135L269,135L269,135L269,135Z M253,140L255,141L254,142L253,140Z M218,147L218,147L218,147L218,147Z M217,147L218,147L218,147L217,147Z M290,126L291,126L291,126L290,126Z M256,138L257,140L256,140L256,138Z M268,133L268,133L268,133L268,133Z M287,124L289,124L288,124L287,124Z M265,131L265,132L265,132L265,131Z M285,122L285,122L285,122L285,122Z M263,130L263,130L263,130L263,130Z M283,120L284,120L283,121L283,120Z M260,129L260,129L260,129L260,129Z M287,110L288,110L287,111L287,110Z M236,129L235,129L235,129L236,129Z M230,130L233,134L233,132L237,135L243,139L247,140L245,143L237,140L235,147L233,147L232,143L228,145L230,141L229,133L230,130Z M280,112L280,112L280,112L280,112Z M235,128L235,128L235,128L235,128Z M235,126L235,126L235,126L235,126Z M172,124L173,123L173,123L172,124Z M174,123L173,122L173,122L174,123Z M279,103L279,103L279,103L279,103Z M173,121L173,121L172,121L173,121Z M172,120L172,120L172,120L172,120Z M278,102L277,102L277,102L278,102Z M171,118L171,118L170,118L171,118Z M159,115L159,115L158,115L159,115Z M161,115L160,115L160,115L161,115Z M173,118L173,117L173,117L173,118Z M195,119L195,119L195,119L195,119Z M253,109L255,109L254,111L253,109Z M165,114L165,113L165,114L165,114Z M250,109L251,109L250,116L248,116L247,111L250,109Z M242,112L242,111L242,111L242,112Z M192,117L192,117L192,117L192,117Z M253,108L252,107L253,107L253,108Z M168,113L167,112L167,112L168,113Z M168,112L168,112L168,113L168,112Z M161,110L160,110L161,110L161,110Z M242,109L243,109L242,110L242,109Z M252,107L251,107L251,106L252,107Z M160,110L160,110L160,110L160,110Z M251,107L251,108L251,108L251,107Z M264,100L265,100L265,100L264,100Z M189,114L188,115L188,114L189,114Z M160,108L160,108L160,108L160,108Z M193,113L192,112L193,112L193,113Z M215,111L216,112L215,111L215,111Z M241,104L241,107L240,108L241,104Z M215,109L215,110L215,110L215,109Z M244,103L244,105L244,103L244,103Z M201,109L202,109L202,110L201,109Z M264,94L264,95L264,94L264,94Z M203,109L203,111L202,110L203,109Z M263,94L263,95L262,94L263,94Z M188,108L188,108L188,108L188,108Z M230,105L229,105L229,105L230,105Z M211,107L211,107L211,107L211,107Z M212,107L211,107L212,107L212,107Z M199,109L202,112L204,113L201,116L194,113L197,108L199,109Z M199,107L199,107L199,107L199,107Z M222,104L223,104L223,105L222,104Z M192,105L191,104L192,104L192,105Z M251,90L252,90L251,91L251,90Z M248,88L248,89L247,89L248,88Z M248,87L248,87L248,87L248,87Z M203,95L203,95L203,95L203,95Z M203,94L203,94L203,94L203,94Z M207,170L201,170L190,170L185,170L184,170L184,170L186,143L166,136L164,132L159,130L153,123L144,109L148,100L148,100L153,106L158,108L159,113L157,113L157,115L159,116L166,117L170,118L173,126L174,124L174,120L177,116L179,114L173,116L173,115L179,112L180,115L184,117L187,120L196,120L198,122L200,120L196,118L198,117L200,118L204,126L203,121L207,115L207,113L205,114L206,110L202,107L201,106L202,102L201,100L203,97L202,96L206,95L208,100L210,102L210,107L214,110L213,110L216,116L217,110L220,112L222,115L221,118L223,123L228,112L227,111L226,108L226,105L232,105L231,106L235,107L235,109L236,110L233,113L238,118L237,123L234,127L230,127L229,125L226,126L228,129L227,132L224,134L218,131L214,131L220,133L220,134L227,135L226,138L223,143L220,142L219,143L219,146L218,146L215,146L217,150L213,153L210,158L207,170L207,170Z M222,91L222,91L222,91L222,91Z M202,89L202,88L202,88L202,89Z M156,102L156,100L162,102L165,103L171,104L174,88L175,88L175,89L175,88L175,88L175,88L175,88L175,88L175,88L175,87L175,87L175,87L175,87L175,87L175,87L175,87L175,87L175,85L175,85L175,85L177,94L178,94L179,83L183,87L184,98L184,98L190,105L190,107L188,107L187,110L188,109L189,112L185,113L180,111L178,108L176,111L168,112L162,112L161,109L162,107L159,106L156,102L156,102Z M180,82L180,82L180,82L180,82Z M186,85L184,87L183,85L186,85Z M230,79L239,81L239,82L231,84L230,79Z M222,91L223,89L221,86L224,85L222,83L223,82L228,80L232,85L231,90L232,89L233,86L236,83L242,84L245,86L245,87L247,89L250,87L251,93L254,90L253,92L255,89L259,90L259,95L261,92L260,91L264,93L262,95L267,96L263,98L264,99L266,101L270,102L271,103L273,103L273,101L277,102L277,105L281,106L282,104L286,107L286,111L284,111L287,116L285,115L280,114L280,112L273,114L275,114L274,116L274,118L277,118L279,120L284,121L285,122L288,125L290,129L289,131L284,131L280,128L279,131L287,134L290,137L282,138L278,136L274,137L269,133L266,132L264,129L257,132L256,134L252,134L251,131L253,127L257,129L257,127L260,123L257,121L259,114L260,114L255,107L250,105L247,107L247,103L242,102L242,99L239,100L237,102L233,102L235,104L226,103L223,104L222,102L218,102L215,98L220,98L219,97L215,97L214,92L214,85L216,82L219,80L222,81L220,84L219,87L221,92L222,94L222,91Z M235,97L234,98L235,98L235,97Z M195,82L198,82L201,95L198,96L197,95L196,98L189,89L189,87L194,88L192,82L195,82Z M198,81L196,82L196,82L198,81Z M203,94L202,88L204,83L203,81L205,80L211,81L212,82L209,89L205,89L206,93L203,94Z M199,77L199,78L199,78L199,77Z M202,77L202,78L202,77L202,77Z M188,72L188,74L186,73L188,72Z M215,70L215,70L215,70L215,70Z M204,71L206,76L203,76L204,71Z M201,71L201,71L200,72L201,71Z M192,68L190,69L191,68L192,68Z M204,70L203,69L204,70L204,70Z M191,68L189,69L190,68L191,68Z M220,63L220,63L220,63L220,63Z M211,65L211,65L211,65L211,65Z M219,64L219,64L219,63L219,64Z M197,64L199,70L198,75L194,72L195,71L190,70L193,66L195,69L194,65L197,64Z M195,64L193,64L194,64L195,64Z M211,64L209,63L210,63L211,64Z M179,67L179,67L179,67L180,66L180,65L180,65L180,65L180,64L180,63L180,64L182,62L183,68L186,70L185,73L178,74L178,74L178,70L179,69L180,70L180,69L180,69L179,67L179,67Z M215,70L215,71L220,67L223,67L228,68L227,71L228,74L224,75L222,73L222,75L216,77L213,75L212,77L210,75L209,76L207,73L208,70L206,67L201,66L200,62L204,62L209,64L208,65L211,66L209,68L211,68L211,70L215,70Z M216,58L216,57L216,57L216,58Z M188,59L188,60L188,60L188,59Z M202,57L205,58L204,59L201,59L202,57Z M182,55L182,54L182,54L183,54L183,54L182,54L182,55L182,55Z M191,55L192,54L192,54L191,55Z M211,52L211,53L211,53L211,52Z M182,52L183,51L183,50L183,50L183,50L183,52L183,52L182,52Z M228,46L227,46L227,46L228,46Z M200,51L202,54L202,56L199,57L200,51Z M191,47L194,50L196,54L196,57L194,54L189,52L191,50L189,50L191,47Z M197,43L198,45L197,45L197,43Z M201,39L201,39L201,39L201,39Z M204,35L207,40L210,40L211,43L214,47L212,51L210,51L210,54L208,54L204,52L203,49L207,47L202,48L200,43L200,40L202,40L204,35Z M220,63L218,65L214,64L211,64L212,61L214,60L213,55L215,58L219,58L218,56L217,57L212,53L214,49L217,49L217,48L212,44L211,40L216,42L216,41L217,38L217,36L211,39L207,37L211,36L211,34L207,36L204,33L207,30L210,30L209,27L213,29L214,28L212,26L212,24L217,21L218,22L218,20L223,22L224,20L228,20L229,22L227,27L230,26L228,35L229,38L225,40L227,41L223,43L226,43L224,45L228,47L228,51L225,53L226,54L227,58L227,62L224,65L224,63L221,61L220,63Z " data-fips="CA10" data-fips-="CA14" data-iso3="CAN" data-name="Nunavut" data-p="NU"/><path d="M118,86L118,87L118,87L118,86Z M118,85L119,85L119,85L118,85Z M140,93L140,93L140,93L140,93Z M165,101L165,100L165,100L165,101Z M168,101L167,100L167,101L168,101Z M158,97L158,97L158,97L158,97Z M159,97L158,97L158,97L159,97Z M158,97L158,97L158,97L158,97Z M158,97L157,96L157,96L158,97Z M114,87L110,94L107,98L112,102L110,106L112,109L109,114L107,115L108,118L109,129L107,134L111,142L110,146L116,147L116,153L116,154L116,154L118,154L121,156L122,156L126,158L128,158L130,159L141,162L143,163L157,166L159,166L160,167L170,168L171,168L182,169L184,170L184,170L186,143L166,136L164,132L159,130L153,123L144,109L148,100L147,100L144,97L141,99L140,96L136,94L136,91L136,88L135,90L132,91L126,91L121,91L125,90L131,89L128,88L123,88L119,89L120,87L117,86L114,88L114,87Z M174,88L174,88L174,88L175,88L175,88L174,88Z M174,87L174,87L174,87L174,87Z M174,87L174,87L174,87L174,87Z M175,87L174,87L174,87L175,87L175,87L175,87L175,87Z M175,85L174,85L175,86L175,87L175,85L175,85L175,85Z M156,102L156,100L162,102L165,103L171,104L174,88L174,88L174,88L173,88L173,88L173,88L173,86L168,84L167,81L162,82L156,88L158,89L158,91L161,92L157,92L156,94L160,97L165,98L167,101L162,100L156,99L156,102L156,102Z M158,70L152,69L153,73L149,77L148,77L145,82L146,85L146,88L147,89L150,89L157,84L158,83L166,80L165,77L161,74L161,73L158,70Z M162,63L163,62L162,62L162,63Z M168,63L164,65L165,66L168,63Z M180,63L180,64L179,64L179,65L180,65L180,65L180,64L180,63L180,63Z M178,74L178,70L179,69L179,69L177,69L176,66L174,62L171,62L172,66L168,65L167,66L170,67L166,68L169,70L172,69L173,72L170,73L173,75L178,74L178,74Z M175,60L173,60L175,61L175,60Z M173,55L171,56L169,55L163,59L161,59L161,61L166,60L166,62L168,59L168,62L172,60L173,55Z M181,53L177,55L178,58L182,55L182,55L182,54L182,54L181,53Z M182,52L183,51L183,50L183,50L183,50L179,51L182,52L182,52Z " data-fips="CA13" data-fips-="" data-iso3="CAN" data-name="Northwest Territories" data-p="NT"/><path d="M74,131L93,143L95,143L115,153L116,154L116,154L116,153L116,147L110,146L111,142L107,134L109,129L108,118L107,115L109,114L112,109L110,106L112,102L107,98L110,94L114,87L114,87L112,84L112,81L109,78L105,82L91,99L76,118L71,125L73,128L74,128L74,130L74,131Z M112,81L112,80L112,81L112,81Z " data-fips="CA12" data-fips-="" data-iso3="CAN" data-name="Yukon" data-p="YT"/><path d="M269,216L269,217L269,217L270,219L270,219L270,218L269,217L269,216L269,216Z M228,189L213,210L207,216L208,238L208,238L210,241L216,242L220,244L221,244L224,246L227,245L231,245L237,243L253,249L255,252L256,252L256,251L256,251L256,251L256,251L256,251L257,251L258,252L260,252L262,252L265,252L268,252L268,251L268,252L271,252L273,252L274,254L274,254L275,255L276,254L276,256L278,257L278,258L277,258L277,259L277,260L275,260L274,259L273,260L272,259L272,259L271,258L271,257L269,257L271,258L272,260L271,262L270,264L271,269L271,269L269,271L269,272L268,274L266,278L269,280L275,276L279,274L285,269L283,265L288,263L293,262L294,258L298,252L300,250L300,250L300,250L300,249L300,249L301,249L301,248L300,247L296,248L294,249L289,248L279,246L275,240L270,219L270,219L260,213L256,209L254,196L247,195L243,197L240,194L234,193L232,191L228,189L228,189Z " data-fips="CA08" data-fips-="" data-iso3="CAN" data-name="Ontario" data-p="ON"/><path d="M302,247L302,248L302,248L302,247Z M302,246L302,246L302,246L302,246Z M303,244L302,246L303,246L303,244Z M304,245L303,245L302,247L304,245Z M311,233L312,233L312,232L311,233Z M313,229L313,229L313,229L313,229Z M346,212L346,212L346,212L346,212Z M346,212L346,215L346,214L346,212Z M300,250L300,250L313,246L315,243L317,238L316,233L318,228L318,228L320,225L320,222L324,221L325,220L325,220L328,217L332,216L334,211L332,209L328,210L325,211L319,218L318,220L313,232L307,237L304,242L304,246L300,250L300,250Z M330,203L329,205L336,205L339,205L342,203L337,202L330,203Z M331,201L330,201L330,201L331,201Z M345,190L345,190L345,190L345,190Z M269,216L269,217L270,218L270,219L270,219L271,220L271,220L270,220L270,219L275,240L279,246L289,248L294,249L296,248L300,247L301,248L301,248L300,246L304,244L304,242L307,238L310,235L314,225L310,224L314,223L316,216L319,213L321,206L321,206L338,197L344,194L345,188L345,185L350,181L350,181L348,177L334,186L326,191L324,185L322,186L324,190L324,194L323,193L319,193L319,193L316,193L315,190L312,192L311,189L306,185L306,182L307,181L305,179L308,179L307,176L312,178L318,176L318,170L314,168L315,167L311,164L310,159L307,157L306,151L303,151L300,149L299,144L299,144L298,145L299,148L298,148L300,156L298,155L298,157L296,161L294,159L291,158L288,159L288,156L283,147L279,148L276,147L275,145L272,145L271,143L267,143L266,144L263,145L257,145L255,148L258,153L258,156L261,158L261,161L262,161L261,171L265,172L268,175L270,177L271,185L270,188L268,193L264,196L265,198L266,199L269,206L272,210L271,212L272,215L272,216L269,216L269,216Z " data-fips="CA10" data-fips-="" data-iso3="CAN" data-name="Québec" data-p="QC"/><path d="M334,240L334,239L334,238L334,240Z M334,216L335,215L334,215L334,216Z M325,220L324,221L320,222L320,225L318,228L318,228L321,226L324,227L327,233L330,237L333,237L337,233L341,228L341,228L341,226L341,226L342,226L341,226L338,225L336,222L333,217L331,220L329,218L325,220L325,220Z " data-fips="CA04" data-fips-="" data-iso3="CAN" data-name="New Brunswick" data-p="NB"/><path d="M342,244L342,244L342,244L342,244Z M364,229L363,230L363,230L364,229Z M342,226L341,226L341,226L341,228L341,228L340,231L345,229L343,232L341,233L338,236L338,242L341,244L343,241L344,235L348,234L348,232L353,227L355,224L353,224L350,222L348,225L342,226L342,226Z M358,217L358,217L358,217L358,217Z M352,213L351,220L354,223L357,221L358,217L357,216L355,216L354,221L352,213Z " data-fips="CA07" data-fips-="" data-iso3="CAN" data-name="Nova Scotia" data-p="NS"/><path d="M368,201L368,201L368,201L368,201Z M367,199L367,199L366,199L367,199Z M374,195L373,194L373,194L374,195Z M372,191L372,191L374,191L372,191Z M365,186L365,186L365,186L365,186Z M365,185L364,185L364,186L365,185Z M366,183L366,184L366,183L366,183Z M358,181L357,181L357,181L358,181Z M357,180L357,180L357,180L357,180Z M353,177L352,181L351,185L353,195L353,199L356,199L354,206L358,204L363,202L366,197L367,200L370,199L370,203L372,200L371,197L373,193L375,196L378,198L379,197L379,191L378,190L377,193L376,189L374,193L372,192L373,187L369,188L370,184L365,187L362,187L360,189L360,185L356,188L356,179L354,178L355,177L353,177Z M354,174L354,174L354,174L354,174Z M335,163L335,164L335,164L335,163Z M321,163L321,164L321,164L321,163Z M322,162L322,162L322,163L322,162Z M319,162L320,162L320,161L319,162Z M320,160L320,161L321,160L320,160Z M318,158L318,159L319,159L318,158Z M315,155L314,156L315,156L315,155Z M314,154L313,154L314,154L314,154Z M299,144L300,149L303,151L306,151L307,157L310,159L311,164L315,167L314,168L318,170L318,176L312,178L307,176L308,179L305,179L307,181L306,182L306,185L311,189L312,192L315,190L316,193L319,193L319,193L323,193L324,194L324,190L322,186L324,185L326,191L334,186L348,177L350,181L350,181L352,175L350,172L349,171L348,168L346,167L343,168L340,166L336,172L331,175L335,170L334,170L338,164L333,165L331,164L329,164L327,166L325,163L324,164L316,161L318,158L311,154L310,151L308,151L304,148L304,149L299,144L299,144Z M299,143L299,144L299,144L299,144L299,144L299,144L299,143L299,143Z " data-fips="CA05" data-fips-="" data-iso3="CAN" data-name="Newfoundland and Labrador" data-p="NL"/><path d="M339,221L342,224L346,224L348,220L339,221Z " data-fips="CA09" data-fips-="" data-iso3="CAN" data-name="Prince Edward Island" data-p="PE"/></g></svg>