<?xml version="1.0" encoding="UTF-8"?><!DOCTYPE svg  PUBLIC '-//W3C//DTD SVG 1.1//EN'  'http://www.w3.org/Graphics/SVG/1.1/DTD/svg11.dtd'><svg enable_background="new 0 0 450 301" height="301px" style="stroke-linejoin: round; stroke:#000; fill:#f6f3f0;" version="1.1" viewBox="0 0 450 301" width="450px" xmlns="http://www.w3.org/2000/svg" xmlns:xlink="http://www.w3.org/1999/xlink"><defs><style type="text/css"><![CDATA[path { fill-rule: evenodd; }
#context path { fill: #eee; stroke: #bbb; } ]]></style></defs><metadata><views><view h="301.0" padding="0.06" w="450"><proj id="laea" lat0="46.231441962" lon0="6.13797670487"/><bbox h="28.9" w="42.85" x="996.14" y="978.02"/><llbbox lat0="-90" lat1="90" lon0="-180" lon1="180"/></view></views></metadata><g id="context"><path d="M335,56L338,58L344,63L343,73L337,88L338,90L340,99L344,106L345,109L344,113L343,115L346,115L357,117L366,121L369,130L380,136L392,139L396,138L410,121L416,124L420,132L420,136L422,137L431,137L441,137L447,144L450,145L450,51L440,51L433,48L418,50L414,49L413,50L412,66L409,73L405,80L399,84L394,85L394,80L395,74L391,73L385,72L383,71L383,66L379,61L374,57L362,51L354,49L352,52L346,55L337,55L335,56Z " data-iso="AUT"/><path d="M320,47L305,39L300,39L279,41L275,35L271,34L266,36L256,28L252,27L247,28L241,33L238,39L239,42L242,43L251,42L252,46L245,48L239,51L232,49L221,49L212,54L197,56L178,55L171,52L160,58L158,63L154,70L147,73L141,74L135,73L132,71L132,68L129,66L122,66L115,71L109,79L111,83L116,84L116,90L114,95L91,122L89,126L86,129L71,136L70,139L69,151L67,160L45,179L43,185L41,191L37,198L36,202L42,209L40,221L34,227L28,230L29,238L32,239L39,238L49,232L55,225L52,215L59,207L69,202L82,201L98,204L99,205L99,210L100,217L103,222L99,236L102,240L111,250L116,254L120,262L122,266L125,269L131,272L149,267L160,263L168,259L172,259L190,265L196,262L208,253L210,248L219,234L219,231L215,222L216,220L228,211L234,203L240,197L244,197L246,203L246,218L248,223L258,233L265,239L281,243L282,245L277,254L287,263L289,270L294,274L300,272L302,268L299,262L297,255L297,251L299,246L303,239L314,224L318,215L318,202L318,191L322,188L330,190L332,189L334,196L338,206L342,211L347,213L352,212L365,205L373,202L378,203L381,207L388,218L391,219L396,218L397,216L395,211L393,202L390,195L387,191L386,187L388,179L390,172L394,170L399,169L406,175L414,177L420,177L421,172L420,168L416,162L417,153L420,136L420,132L416,124L410,121L396,138L392,139L380,136L369,130L366,121L357,117L346,115L343,115L336,115L335,115L334,111L334,101L337,88L343,73L344,63L338,58L335,56L320,47Z " data-iso="CHE"/><path d="M171,52L178,55L197,56L212,54L221,49L232,49L239,51L245,48L252,46L251,42L242,43L239,42L238,39L241,33L247,28L252,27L256,28L266,36L271,34L275,35L279,41L300,39L305,39L320,47L335,56L337,55L346,55L352,52L354,49L362,51L374,57L379,61L383,66L383,71L385,72L391,73L395,74L394,80L394,85L399,84L405,80L409,73L412,66L413,50L414,49L418,50L433,48L440,51L450,51L450,0L169,0L168,12L164,29L163,42L166,51L171,52Z " data-iso="DEU"/><path d="M122,266L120,262L116,254L111,250L102,240L99,236L103,222L100,217L99,210L99,205L98,204L82,201L69,202L59,207L52,215L55,225L49,232L39,238L32,239L29,238L28,230L34,227L40,221L42,209L36,202L37,198L41,191L43,185L45,179L67,160L69,151L70,139L71,136L86,129L89,126L91,122L114,95L116,90L116,84L111,83L109,79L115,71L122,66L129,66L132,68L132,71L135,73L141,74L147,73L154,70L158,63L160,58L171,52L166,51L163,42L164,29L168,12L169,0L0,0L0,299L110,299L103,294L101,290L101,285L103,280L115,273L122,266Z " data-iso="FRA"/><path d="M420,136L417,153L416,162L420,168L421,172L420,177L414,177L406,175L399,169L394,170L390,172L388,179L386,187L387,191L390,195L393,202L395,211L397,216L396,218L391,219L388,218L381,207L378,203L373,202L365,205L352,212L347,213L342,211L338,206L334,196L332,189L330,190L322,188L318,191L318,202L318,215L314,224L303,239L299,246L297,251L297,255L299,262L302,268L300,272L294,274L289,270L287,263L277,254L282,245L281,243L265,239L258,233L248,223L246,218L246,203L244,197L240,197L234,203L228,211L216,220L215,222L219,231L219,234L210,248L208,253L196,262L190,265L172,259L168,259L160,263L149,267L131,272L125,269L122,266L115,273L103,280L101,285L101,290L103,294L110,299L450,299L450,145L447,144L441,137L431,137L422,137L420,136Z " data-iso="ITA"/><path d="M344,113L345,109L344,106L340,99L338,90L337,88L334,101L334,111L335,115L336,115L343,115L344,113Z " data-iso="LIE"/></g><g fill="red" fill-opacity="0.35" id="regions"><path d="M40,217L39,225L36,226L30,228L27,230L28,233L30,235L27,240L30,239L34,238L38,238L41,239L43,238L48,232L54,229L56,226L55,223L53,224L50,218L50,217L46,219L42,215L40,217Z " data-fips="SZ07" data-fips-="" data-iso3="CHE" data-name="Genève" data-p="GE"/><path d="M104,108L104,108L105,108L107,108L115,105L117,106L121,103L124,98L131,97L133,91L140,92L151,88L161,89L166,88L166,87L165,87L164,87L164,86L164,86L166,84L164,83L164,82L163,81L160,81L156,80L155,80L154,79L153,78L151,76L147,74L147,74L147,73L144,73L138,75L132,72L132,70L133,66L127,65L122,66L117,66L115,66L117,71L116,72L111,75L111,77L109,78L106,84L117,83L118,82L122,85L121,87L114,92L114,98L108,102L104,107L104,108Z " data-fips="SZ26" data-fips-="" data-iso3="CHE" data-name="Jura" data-p="JU"/><path d="M105,108L104,108L104,108L99,113L96,114L96,116L92,118L90,121L91,123L89,126L83,131L74,134L70,136L69,141L70,146L70,147L70,148L76,148L89,140L95,137L97,146L98,149L108,141L110,138L114,136L120,130L121,128L122,124L126,122L126,118L121,113L108,118L109,113L107,109L105,108Z " data-fips="SZ12" data-fips-="" data-iso3="CHE" data-name="Neuchtel" data-p="NE"/><path d="M240,52L234,52L230,51L228,48L224,47L219,48L207,56L196,56L188,52L184,57L180,58L185,62L189,60L189,58L191,58L196,66L199,66L199,68L200,69L202,69L204,74L207,76L203,86L196,84L192,88L190,93L189,93L190,96L190,96L191,98L196,97L201,96L201,92L204,93L206,96L212,94L215,96L219,96L219,98L222,97L226,91L227,91L230,94L237,108L240,108L240,108L239,104L239,98L239,98L239,97L240,95L238,91L238,90L240,89L243,84L240,85L239,80L237,78L239,75L235,66L235,61L240,52L240,52Z " data-fips="SZ01" data-fips-="" data-iso3="CHE" data-name="Aargau" data-p="AG"/><path d="M240,108L237,108L230,94L227,91L226,91L222,97L219,98L219,96L215,96L212,94L206,96L204,93L201,92L201,96L196,97L191,98L193,103L195,111L194,115L194,121L196,124L196,126L201,127L200,132L198,136L195,137L196,148L202,153L204,156L208,154L210,154L211,152L210,148L213,139L219,135L219,132L220,131L225,131L225,130L227,127L234,127L236,126L245,126L246,127L249,126L249,123L245,120L239,119L241,114L244,112L243,111L242,110L241,110L240,108L240,108Z " data-fips="SZ11" data-fips-="" data-iso3="CHE" data-name="Lucerne" data-p="LU"/><path d="M245,126L236,126L234,127L227,127L225,130L225,131L227,130L232,130L231,135L235,138L235,150L236,152L238,153L240,155L243,154L238,147L238,143L243,145L247,145L247,142L247,137L252,135L253,133L255,128L254,128L248,129L246,127L245,126Z " data-fips="SZ13" data-fips-="" data-iso3="CHE" data-name="Nidwalden" data-p="NW"/><path d="M245,184L243,180L242,178L243,173L243,171L242,170L241,171L240,173L238,180L228,187L224,188L222,187L220,186L217,185L209,184L207,184L204,186L204,189L198,193L193,194L183,202L182,202L176,199L167,204L167,207L164,208L156,207L152,211L148,211L147,209L144,210L142,212L139,214L138,215L133,225L130,228L123,232L120,227L114,217L107,205L106,206L101,205L101,206L100,208L97,213L99,216L102,219L104,222L101,228L100,233L99,237L100,240L107,241L107,251L110,250L112,250L118,257L121,265L126,270L128,272L136,272L145,267L152,268L155,267L160,263L165,261L168,258L177,260L178,261L181,265L185,264L189,266L199,258L207,255L208,254L210,243L214,242L218,239L219,230L217,225L214,223L215,220L223,216L224,215L229,209L233,206L233,201L237,198L241,197L241,193L246,190L249,186L245,184Z " data-fips="SZ22" data-fips-="" data-iso3="CHE" data-name="Valais" data-p="VS"/><path d="M339,65L333,65L327,68L325,71L316,73L310,73L307,79L308,81L310,81L308,83L309,87L308,88L310,89L314,90L319,92L320,91L320,90L318,81L320,78L321,74L330,78L333,78L332,76L333,73L333,71L336,68L337,70L337,72L341,70L341,69L338,67L339,67L341,66L343,65L339,65Z " data-fips="SZ02" data-fips-="" data-iso3="CHE" data-name="Appenzell Ausserrhoden" data-p="AR"/><path d="M285,76L285,77L287,81L288,83L284,91L279,93L275,93L273,94L272,97L277,98L285,97L288,98L288,101L290,103L292,102L298,107L308,109L307,116L304,119L308,120L310,119L313,125L313,129L314,133L314,134L315,136L316,136L333,137L335,131L339,125L336,120L333,114L334,112L336,109L336,106L334,101L334,96L335,92L339,85L342,81L343,77L346,72L347,70L344,63L341,61L338,58L338,57L329,59L328,57L324,61L323,62L318,55L314,57L316,60L316,62L312,63L305,61L303,60L296,62L296,61L291,64L293,66L293,68L290,69L286,76L285,76Z M343,65L341,67L341,68L341,69L341,70L337,72L336,72L335,72L333,73L332,76L333,78L332,85L330,89L326,92L324,93L321,92L320,91L319,92L314,90L310,89L308,88L309,87L308,83L310,81L308,81L307,79L310,73L316,73L325,71L327,68L333,65L339,65L343,65Z " data-fips="SZ15" data-fips-="" data-iso3="CHE" data-name="Sankt Gallen" data-p="SG"/><path d="M266,179L263,181L255,179L254,179L252,184L249,186L246,190L241,193L241,197L242,196L245,197L246,201L246,209L245,216L245,222L246,224L253,227L255,230L261,238L268,241L273,239L274,241L280,242L281,247L278,251L277,254L285,258L287,262L290,268L289,273L298,275L301,272L303,267L302,263L298,261L297,258L297,247L302,244L303,239L304,234L311,230L311,230L304,224L303,222L301,214L302,212L302,209L304,199L303,196L303,192L302,191L298,190L297,187L296,181L298,177L296,175L291,174L290,172L287,174L286,176L281,179L276,181L269,180L266,179Z " data-fips="SZ20" data-fips-="" data-iso3="CHE" data-name="Ticino" data-p="TI"/><path d="M314,133L313,129L313,125L310,119L308,120L304,119L307,116L308,109L298,107L292,102L290,103L289,109L286,118L284,120L284,123L287,126L286,127L289,131L289,134L287,135L288,137L288,141L284,143L282,146L282,149L284,149L286,151L294,148L295,146L297,141L300,141L302,142L310,139L312,136L314,134L314,133Z " data-fips="SZ08" data-fips-="" data-iso3="CHE" data-name="Glarus" data-p="GL"/><path d="M333,114L336,120L339,125L335,131L333,137L316,136L315,136L314,134L312,136L310,139L302,142L300,141L297,141L295,146L294,148L286,151L284,149L282,149L281,150L278,152L277,158L272,160L269,163L266,165L264,171L266,177L266,179L269,180L276,181L281,179L286,176L287,174L290,172L291,174L296,175L298,177L296,181L297,187L298,190L302,191L303,192L303,196L304,199L302,209L302,212L301,214L303,222L304,224L311,230L311,229L316,222L317,218L319,212L320,208L318,203L318,198L317,198L317,193L320,188L324,187L329,192L332,187L333,188L334,203L338,205L340,210L345,213L355,213L358,210L359,205L365,206L371,202L378,202L380,203L382,211L387,215L388,220L391,220L397,217L397,212L392,205L392,203L395,199L395,195L387,193L385,192L387,189L385,180L388,176L389,172L399,168L402,169L403,174L420,178L422,176L423,173L422,167L420,166L416,165L415,164L414,160L415,159L416,153L417,152L418,149L417,147L420,140L420,134L420,129L419,126L416,124L412,120L409,122L406,127L406,130L400,130L399,132L398,137L394,139L386,139L381,135L371,132L368,129L368,122L367,120L350,115L341,116L334,115L333,114Z " data-fips="SZ09" data-fips-="" data-iso3="CHE" data-name="Graubünden" data-p="GR"/><path d="M255,42L257,39L262,37L262,41L264,43L271,41L271,41L272,38L274,38L277,40L275,38L272,33L269,33L269,37L265,37L264,32L264,29L262,29L259,25L258,25L256,29L255,29L255,24L251,24L243,29L238,36L237,39L241,44L244,44L248,42L253,42L255,42Z " data-fips="SZ16" data-fips-="" data-iso3="CHE" data-name="Schaffhausen"/><path d="M253,50L252,51L251,50L250,53L251,55L253,50L253,50Z " data-fips="SZ16" data-fips-="" data-iso3="CHE" data-name="Schaffhausen" data-p="SH"/><path d="M288,101L288,98L285,97L277,98L272,97L268,98L264,101L264,102L264,104L264,105L266,106L261,113L254,115L253,114L248,114L247,111L244,111L244,112L241,114L239,119L245,120L249,123L249,126L246,127L248,129L254,128L257,127L259,131L265,132L267,135L272,133L277,134L280,139L283,137L287,135L289,134L289,131L286,127L287,126L284,123L284,120L286,118L289,109L290,103L288,101Z " data-fips="SZ17" data-fips-="" data-iso3="CHE" data-name="Schwyz" data-p="SZ"/><path d="M271,41L273,40L274,43L273,46L268,46L268,48L275,52L276,55L281,58L279,64L281,68L283,70L281,73L285,76L286,76L290,69L293,68L293,66L291,64L296,61L296,62L303,60L305,61L312,63L316,62L316,60L314,57L318,55L323,62L324,61L328,57L329,59L338,57L337,55L313,41L306,40L305,39L300,39L291,38L288,40L285,41L279,41L277,40L274,38L272,38L271,41Z " data-fips="SZ19" data-fips-="" data-iso3="CHE" data-name="Thurgau" data-p="TG"/><path d="M283,137L280,139L277,134L272,133L267,135L265,132L259,131L257,127L254,128L255,128L253,133L252,135L247,137L247,142L247,145L248,145L248,148L248,151L248,155L245,156L244,158L245,161L246,165L242,169L242,170L243,171L243,173L242,178L243,180L245,184L249,186L252,184L254,179L255,179L263,181L266,179L266,177L264,171L266,165L269,163L272,160L277,158L278,152L281,150L282,149L282,146L284,143L288,141L288,137L287,135L283,137Z " data-fips="SZ21" data-fips-="" data-iso3="CHE" data-name="Uri" data-p="UR"/><path d="M255,42L253,44L253,46L254,49L253,50L251,55L250,53L251,50L251,50L248,47L246,47L243,49L242,52L240,52L235,61L235,66L239,75L237,78L239,80L240,85L243,84L240,89L238,90L238,91L240,95L240,96L241,98L245,99L251,98L254,98L260,104L262,105L264,105L264,104L264,102L264,101L268,98L272,97L273,94L275,93L279,93L284,91L288,83L287,81L285,77L285,76L281,73L283,70L281,68L279,64L281,58L276,55L275,52L268,48L268,46L273,46L274,43L273,40L271,41L271,41L264,43L262,41L262,37L257,39L255,42L255,42Z " data-fips="SZ25" data-fips-="" data-iso3="CHE" data-name="Zürich" data-p="ZH"/><path d="M262,105L260,104L254,98L251,98L245,99L241,98L240,96L240,95L239,97L239,98L239,98L239,104L240,108L241,110L242,110L243,111L244,112L244,111L247,111L248,114L253,114L254,115L261,113L266,106L264,105L262,105Z " data-fips="SZ24" data-fips-="" data-iso3="CHE" data-name="Zug" data-p="ZG"/><path d="M99,164L100,161L98,165L99,164Z M109,162L109,161L106,158L103,162L107,164L109,162Z M108,141L98,149L99,152L101,155L100,156L105,157L108,157L112,155L111,153L112,148L111,144L108,141Z M124,132L124,136L128,142L124,147L122,146L119,143L114,136L110,138L113,142L115,145L118,145L118,149L116,152L116,155L112,160L107,171L102,174L102,183L106,183L111,184L107,188L105,187L104,191L106,192L111,190L117,194L119,200L121,199L126,194L128,194L131,191L138,187L140,185L144,182L147,178L147,175L152,172L152,168L146,164L145,161L146,151L146,147L149,147L150,142L143,142L136,140L137,138L136,134L139,130L138,130L131,131L124,132Z " data-fips="SZ06" data-fips-="" data-iso3="CHE" data-name="Fribourg" data-p="FR"/><path d="M98,149L97,146L95,137L89,140L76,148L70,148L70,149L69,159L67,162L64,163L55,170L43,181L42,184L44,187L41,190L36,198L37,201L36,203L41,206L43,211L42,215L46,219L50,217L50,217L55,209L58,207L66,205L74,200L79,198L85,199L98,202L100,204L101,205L106,206L107,205L114,217L120,227L123,232L130,228L133,225L138,215L139,214L139,211L140,210L137,207L139,199L140,196L141,186L140,185L138,187L131,191L128,194L126,194L121,199L119,200L117,194L111,190L106,192L104,191L105,187L107,188L111,184L106,183L102,183L102,174L107,171L112,160L116,155L116,152L118,149L118,145L115,145L113,142L110,138L108,141L111,144L112,148L111,153L112,155L108,157L105,157L100,156L101,155L99,152L98,149Z M106,158L109,161L109,162L107,164L103,162L106,158Z M124,132L120,130L114,136L119,143L122,146L124,147L128,142L124,136L124,132Z " data-fips="SZ23" data-fips-="" data-iso3="CHE" data-name="Vaud" data-p="VD"/><path d="M151,73L151,73L150,73L147,73L147,74L147,74L151,76L151,73Z M153,78L154,79L155,80L156,80L157,78L162,78L168,75L167,73L171,72L172,68L170,68L171,66L179,67L179,69L176,75L173,76L174,81L180,81L186,85L188,81L193,79L194,76L198,75L200,74L200,70L200,69L199,68L199,66L196,66L191,58L189,58L189,60L185,62L180,58L176,58L175,58L173,58L173,60L168,60L162,56L159,59L161,60L161,61L159,64L160,65L164,66L164,69L158,71L156,66L156,66L153,66L153,67L154,70L154,71L157,74L156,75L151,76L153,78Z " data-fips="SZ03" data-fips-="" data-iso3="CHE" data-name="Basel-Landschaft" data-p="BL"/><path d="M105,108L107,109L109,113L108,118L121,113L126,118L126,122L122,124L121,128L120,130L124,132L131,131L138,130L139,130L136,134L137,138L136,140L143,142L150,142L149,147L146,147L146,151L145,161L146,164L152,168L152,172L147,175L147,178L144,182L140,185L141,186L140,196L139,199L137,207L140,210L139,211L139,214L142,212L144,210L147,209L148,211L152,211L156,207L164,208L167,207L167,204L176,199L182,202L183,202L193,194L198,193L204,189L204,186L207,184L209,184L217,185L220,186L222,187L224,188L228,187L238,180L240,173L241,171L242,170L242,169L246,165L245,161L244,158L245,156L243,155L243,155L242,156L241,156L240,155L238,153L234,155L232,157L219,158L213,154L210,154L208,154L204,156L202,153L196,148L195,137L198,136L200,132L201,127L196,126L196,124L194,121L194,115L195,111L193,103L191,98L190,96L190,96L189,93L186,94L181,94L177,90L174,92L169,93L170,97L174,99L177,104L174,109L165,108L163,112L159,114L160,117L157,119L155,116L153,117L151,113L156,113L158,108L161,107L159,104L154,107L152,108L149,104L148,101L155,98L161,92L165,90L166,88L161,89L151,88L140,92L133,91L131,97L124,98L121,103L117,106L115,105L107,108L105,108Z M166,84L164,86L164,86L164,87L165,87L166,87L167,87L167,86L167,86L167,84L166,84Z " data-fips="SZ05" data-fips-="" data-iso3="CHE" data-name="Bern" data-p="BE"/><path d="M162,56L168,60L173,60L173,58L170,56L173,55L172,52L168,53L163,56L162,56Z " data-fips="SZ04" data-fips-="" data-iso3="CHE" data-name="Basel-Stadt" data-p="BS"/><path d="M153,72L151,73L151,73L151,76L156,75L157,74L154,71L153,72Z M156,80L160,81L163,81L164,82L164,83L166,84L167,84L167,86L167,86L167,87L166,87L166,88L165,90L161,92L155,98L148,101L149,104L152,108L154,107L159,104L161,107L158,108L156,113L151,113L153,117L155,116L157,119L160,117L159,114L163,112L165,108L174,109L177,104L174,99L170,97L169,93L174,92L177,90L181,94L186,94L189,93L190,93L192,88L196,84L203,86L207,76L204,74L202,69L200,69L200,70L200,74L198,75L194,76L193,79L188,81L186,85L180,81L174,81L173,76L176,75L179,69L179,67L171,66L170,68L172,68L171,72L167,73L168,75L162,78L157,78L156,80Z M160,65L158,67L157,67L156,66L158,71L164,69L164,66L160,65L160,65Z " data-fips="SZ18" data-fips-="" data-iso3="CHE" data-name="Solothurn" data-p="SO"/><path d="M240,155L241,156L242,156L243,155L243,155L245,156L248,155L248,151L248,148L248,145L247,145L243,145L238,143L238,147L243,154L240,155Z M225,131L220,131L219,132L219,135L213,139L210,148L211,152L210,154L213,154L219,158L232,157L234,155L238,153L236,152L235,150L235,138L231,135L232,130L227,130L225,131Z " data-fips="SZ14" data-fips-="SZ11" data-iso3="CHE" data-name="Obwalden" data-p="OW"/><path d="M333,78L330,78L321,74L320,78L318,81L320,90L320,91L321,92L324,93L326,92L330,89L332,85L333,78Z M333,73L335,72L336,72L337,72L337,70L336,68L333,71L333,73Z M341,66L339,67L338,67L341,69L341,68L341,67L343,65L341,66Z " data-fips="SZ10" data-fips-="" data-iso3="CHE" data-name="Appenzell Innerrhoden" data-p="AI"/></g></svg>
