<?xml version="1.0" encoding="UTF-8"?><!DOCTYPE svg  PUBLIC '-//W3C//DTD SVG 1.1//EN'  'http://www.w3.org/Graphics/SVG/1.1/DTD/svg11.dtd'><svg enable_background="new 0 0 450 643" height="643px" style="stroke-linejoin: round; stroke:#000; fill:#f6f3f0;" version="1.1" viewBox="0 0 450 643" width="450px" xmlns="http://www.w3.org/2000/svg" xmlns:xlink="http://www.w3.org/1999/xlink"><defs><style type="text/css"><![CDATA[path { fill-rule: evenodd; }
#context path { fill: #eee; stroke: #bbb; } ]]></style></defs><metadata><views><view h="643.857142857" padding="0.06" w="450"><proj id="laea" lat0="-36.5" lon0="-71.0"/><bbox h="522.08" w="161.91" x="919.05" y="739.68"/><llbbox lat0="-57.0" lat1="-16.0" lon0="-77.0" lon1="-65.0"/></view></views></metadata><g id="context"><path d="M247,565L246,586L246,598L246,597L264,601L275,599L276,596L272,596L266,592L258,586L252,578L251,575L249,571L250,570L248,565L247,565Z M449,172L448,179L445,187L439,192L435,192L430,198L426,196L421,199L420,197L398,191L392,191L392,189L397,185L399,181L399,177L403,173L407,168L408,167L408,163L406,160L388,149L379,140L376,139L367,136L354,124L349,115L343,109L343,109L343,109L341,106L335,105L324,105L318,115L315,107L309,105L300,104L293,99L291,104L286,105L284,108L282,109L279,113L279,114L281,117L276,132L263,137L260,141L259,145L261,148L260,149L258,154L260,162L258,167L258,169L261,176L254,179L250,190L245,196L242,201L240,209L238,210L239,223L239,227L236,227L233,235L234,237L230,245L235,251L235,257L237,266L237,270L240,271L239,276L239,286L235,291L233,300L231,301L232,305L233,309L232,314L228,318L224,320L223,332L223,339L226,354L220,358L220,361L217,368L216,377L217,379L215,387L215,394L216,405L212,408L213,420L217,428L216,440L223,440L222,445L215,446L214,448L219,449L221,452L220,457L217,460L218,465L216,466L215,481L214,484L211,487L210,494L212,498L209,502L208,507L205,510L204,514L201,514L200,523L204,536L208,534L212,535L213,550L216,554L235,555L242,557L249,560L249,559L243,548L242,540L241,540L245,530L250,527L248,521L250,525L257,523L258,515L260,509L270,502L272,501L278,495L276,492L279,489L279,486L277,482L269,480L261,467L261,465L265,458L277,450L282,447L283,445L286,443L287,432L289,429L291,425L298,422L292,417L292,416L298,414L306,419L308,415L308,411L306,408L301,410L302,412L297,412L297,410L293,407L292,405L292,392L293,388L296,388L304,391L308,394L317,394L325,390L326,388L324,381L326,377L328,375L330,369L327,366L329,360L330,362L336,363L357,363L367,362L377,360L384,357L387,351L392,347L398,338L398,331L396,330L392,327L392,320L395,317L395,315L389,307L383,303L381,299L383,295L382,287L384,281L387,279L388,271L388,270L392,254L396,246L396,242L400,237L400,236L401,235L408,230L418,220L427,212L429,212L429,210L440,204L442,202L450,200L450,173L449,172Z " data-iso="ARG"/><path d="M247,33L247,35L250,40L253,42L253,45L255,56L260,61L258,67L260,69L260,72L258,72L258,78L261,80L260,85L262,85L265,93L266,101L268,102L269,109L269,114L271,115L276,114L279,114L279,113L282,109L284,108L286,105L291,104L293,99L300,104L309,105L315,107L318,115L324,105L335,105L341,106L343,109L343,109L343,108L349,92L350,84L354,79L358,71L384,68L397,69L409,79L410,82L409,84L410,84L414,82L410,78L417,66L416,66L421,56L418,47L410,40L409,31L411,29L409,26L385,23L385,11L381,5L385,5L385,0L252,0L249,4L250,5L253,7L254,8L254,10L257,10L258,11L256,12L257,14L261,15L261,16L258,17L256,17L256,18L257,19L256,20L254,19L253,22L245,29L247,33L247,33Z M253,14L255,15L256,14L253,12L253,12L253,14Z " data-iso="BOL"/><path d="M450,296L450,287L449,288L448,288L447,289L446,292L446,294L445,295L446,298L450,296Z M400,236L401,237L403,238L408,236L412,238L418,245L421,253L425,250L429,257L436,262L438,266L445,272L446,278L450,281L450,200L442,202L440,204L429,210L429,212L427,212L418,220L408,230L401,235L400,236Z M449,172L450,173L450,169L449,170L449,172Z M409,84L409,85L413,97L409,114L413,115L423,118L431,116L433,119L440,126L440,140L442,147L450,147L450,0L385,0L385,5L381,5L385,11L385,23L409,26L411,29L409,31L410,40L418,47L421,56L416,66L417,66L410,78L414,82L410,84L409,84Z " data-iso="BRA"/><path d="M259,603L258,600L251,599L251,603L258,604L259,603Z M236,598L235,598L235,602L238,605L240,602L243,604L244,606L249,608L250,607L248,605L247,599L243,600L236,598Z M225,598L223,598L226,600L231,601L230,598L225,598Z M221,585L219,583L214,585L216,589L221,588L224,590L223,586L221,585Z M207,577L200,576L199,578L204,581L205,585L209,583L207,586L213,584L213,580L207,577Z M194,569L205,575L202,572L194,569Z M246,598L246,586L247,565L247,564L240,562L233,569L230,574L233,576L235,575L240,576L233,583L234,586L241,590L241,593L236,589L232,590L228,585L230,583L229,579L228,582L226,583L230,590L231,592L225,591L221,591L218,594L229,597L234,597L236,595L244,598L246,598Z M189,550L186,552L190,559L192,555L189,550Z M191,544L189,543L185,545L184,549L191,546L191,544Z M185,530L186,527L183,526L182,531L185,530Z M184,508L182,508L179,510L180,511L179,514L182,511L184,508Z M190,512L190,507L186,506L183,513L184,514L181,516L183,523L185,523L186,518L188,516L187,522L188,525L190,512Z M180,507L183,505L183,502L180,496L179,496L178,504L180,507Z M189,504L184,494L182,495L182,497L185,505L189,504Z M190,460L190,459L189,452L188,454L188,456L186,460L190,460Z M204,446L201,439L199,444L200,447L204,446Z M195,440L192,436L187,443L186,444L192,452L192,454L196,451L192,443L195,440Z M194,424L198,418L197,409L198,408L196,402L191,401L190,413L188,422L189,424L194,424Z M247,33L246,34L243,41L242,42L233,46L234,47L235,60L237,74L237,82L238,93L235,109L233,116L231,117L231,121L233,126L232,127L231,136L233,148L229,158L230,161L229,170L226,181L226,184L224,187L221,201L218,205L219,209L221,216L220,224L216,227L216,239L219,262L216,268L217,277L215,279L212,285L213,287L210,299L205,306L205,309L203,312L202,319L199,323L196,331L194,331L193,339L195,342L195,351L199,362L199,365L194,373L191,391L194,397L194,400L200,400L202,397L204,397L204,402L208,403L209,410L205,408L206,410L204,416L205,419L204,420L200,437L207,441L206,445L201,449L199,453L201,453L204,456L200,455L196,457L195,459L197,464L196,466L194,462L193,465L195,456L192,456L192,460L182,463L184,467L176,474L177,478L179,478L178,475L183,473L183,474L187,478L190,477L192,479L189,486L191,490L189,488L188,491L192,494L197,489L200,496L199,498L196,495L188,495L190,502L191,504L191,511L193,517L195,512L197,519L192,522L194,524L190,528L193,531L196,532L196,537L198,535L198,539L194,537L190,531L188,532L188,535L185,536L188,541L197,544L197,552L200,553L203,556L210,552L205,546L210,550L210,555L211,557L209,560L209,554L205,557L200,557L197,561L198,565L206,563L203,566L201,567L203,571L206,568L210,563L219,563L208,567L207,574L211,577L213,572L221,566L224,567L222,570L218,573L213,573L214,579L219,582L225,581L225,573L227,566L237,562L240,559L244,559L249,560L242,557L235,555L216,554L213,550L212,535L208,534L204,536L200,523L201,514L204,514L205,510L208,507L209,502L212,498L210,494L211,487L214,484L215,481L216,466L218,465L217,460L220,457L221,452L219,449L214,448L215,446L222,445L223,440L216,440L217,428L213,420L212,408L216,405L215,394L215,387L217,379L216,377L217,368L220,361L220,358L226,354L223,339L223,332L224,320L228,318L232,314L233,309L232,305L231,301L233,300L235,291L239,286L239,276L240,271L237,270L237,266L235,257L235,251L230,245L234,237L233,235L236,227L239,227L239,223L238,210L240,209L242,201L245,196L250,190L254,179L261,176L258,169L258,167L260,162L258,154L260,149L261,148L259,145L260,141L263,137L276,132L281,117L279,114L276,114L271,115L269,114L269,109L268,102L266,101L265,93L262,85L260,85L261,80L258,78L258,72L260,72L260,69L258,67L260,61L255,56L253,45L253,42L250,40L247,35L247,33Z " data-iso="CHL"/><path d="M327,553L323,556L326,558L319,561L322,563L326,560L329,561L336,553L335,552L327,553Z M341,551L338,554L337,558L332,560L331,563L333,566L341,564L341,562L344,561L350,558L349,554L346,555L341,551Z " data-iso="FLK"/><path d="M233,46L242,42L243,41L246,34L247,33L247,33L245,29L253,22L254,19L253,19L253,18L254,17L254,15L255,15L253,14L253,14L252,15L250,14L247,13L248,12L248,11L245,10L244,9L242,8L242,10L242,9L240,8L240,7L241,5L241,5L243,6L241,2L244,0L162,0L164,3L199,20L203,21L209,26L219,31L220,36L232,45L233,46Z M249,4L252,0L245,0L245,1L247,1L248,3L249,4L249,4Z " data-iso="PER"/><path d="M409,84L410,82L409,79L397,69L384,68L358,71L354,79L350,84L349,92L343,108L343,109L343,109L349,115L354,124L367,136L376,139L379,140L388,149L406,160L408,163L408,167L407,168L403,173L399,177L399,181L397,185L392,189L392,191L398,191L420,197L421,199L426,196L430,198L435,192L439,192L445,187L448,179L449,172L449,170L450,169L450,147L442,147L440,140L440,126L433,119L431,116L423,118L413,115L409,114L413,97L409,85L409,84Z " data-iso="PRY"/><path d="M400,236L400,237L396,242L396,246L392,254L388,270L389,271L388,279L385,281L383,291L389,300L397,301L401,305L409,310L419,310L424,313L431,311L440,305L445,299L446,298L445,295L444,295L444,294L444,291L444,289L445,288L447,286L448,286L450,283L450,281L446,278L445,272L438,266L436,262L429,257L425,250L421,253L418,245L412,238L408,236L403,238L401,237L400,236Z " data-iso="URY"/></g><g fill="red" fill-opacity="0.35" id="regions"><path d="M181,502L181,505L178,504L178,502L181,502Z M187,498L189,501L189,505L185,504L187,498Z M190,498L190,500L188,497L190,498Z M183,497L186,499L185,501L183,500L182,496L183,497Z M181,496L184,504L182,506L180,500L178,497L181,496Z M186,492L184,496L182,495L186,492Z M195,493L196,494L189,494L191,492L195,493Z M186,462L182,467L182,463L186,462Z M190,459L188,461L188,456L190,457L190,459Z M197,459L195,458L197,457L197,459Z M194,449L196,453L193,453L190,451L194,449Z M193,444L189,446L188,444L193,444Z M196,442L197,445L196,445L196,442Z M190,441L187,441L189,440L190,441Z M204,441L206,442L202,448L199,446L201,446L199,445L199,443L201,441L204,441Z M192,437L193,438L192,439L192,437Z M203,430L207,430L210,430L217,434L217,435L216,440L224,442L221,446L220,445L216,446L215,448L219,449L221,452L221,455L219,457L217,458L219,464L216,466L218,474L216,476L215,480L216,482L211,487L212,498L209,502L209,506L207,509L205,509L203,513L203,513L194,506L194,506L194,506L192,506L191,504L193,502L195,504L195,501L192,500L189,494L198,497L199,492L189,492L187,490L190,488L189,490L194,488L189,487L191,483L194,482L194,480L189,476L188,477L185,477L183,474L179,476L180,479L179,479L176,477L176,474L185,467L186,462L188,465L188,462L191,463L193,467L194,467L196,469L194,474L198,469L200,465L197,466L197,464L199,460L198,461L200,451L200,449L206,445L207,442L200,436L201,435L203,430L203,430Z " data-fips="CI02" data-fips-="" data-iso3="CHL" data-name="Aisn del General Carlos Ibez del Campo"/><path d="M248,600L248,603L248,607L244,607L244,603L240,603L240,607L237,605L236,603L234,602L234,601L239,600L248,600Z M253,599L258,599L259,600L259,603L256,605L255,603L253,603L250,602L250,600L253,599Z M229,599L231,601L231,602L225,600L226,599L229,599Z M238,598L237,600L235,600L235,598L238,598Z M220,584L222,585L225,587L224,589L219,588L219,584L220,584Z M217,583L218,589L214,586L217,583Z M230,580L231,584L228,587L226,583L229,578L230,580Z M207,577L208,577L210,580L213,583L211,586L209,585L208,583L206,583L206,585L201,579L207,577Z M191,566L195,570L197,570L201,572L201,571L206,575L198,571L194,571L193,570L191,566Z M242,565L245,564L247,564L246,597L240,598L237,595L235,597L230,597L220,594L220,593L216,593L216,591L219,591L220,592L225,592L226,590L232,593L232,593L226,586L229,588L235,589L241,591L243,591L238,588L234,586L232,581L236,579L240,575L232,577L230,574L230,569L233,570L233,568L232,567L236,566L237,565L238,563L240,561L242,565Z M200,561L198,564L197,563L200,561Z M197,557L199,559L198,561L196,558L197,557Z M195,557L196,561L196,559L195,557Z M188,550L189,552L188,556L187,555L188,550Z M196,549L197,551L194,551L196,549Z M185,546L186,548L184,548L185,546Z M190,543L189,547L187,547L190,543Z M189,536L188,538L187,536L189,536Z M183,533L184,534L183,537L183,533Z M191,532L194,537L190,534L190,532L191,532Z M183,526L188,528L184,531L182,530L184,529L183,526Z M182,520L184,524L180,520L182,520Z M184,511L186,512L185,513L184,511Z M181,511L180,515L179,514L181,511Z M194,506L194,506L203,513L203,513L201,514L200,519L201,528L202,528L204,536L208,534L210,534L213,538L212,541L212,544L211,548L215,551L216,554L235,555L239,557L249,560L242,558L240,558L237,563L235,563L230,565L229,564L226,565L227,567L226,572L225,581L222,583L217,580L212,577L212,574L215,573L216,576L221,571L223,567L218,569L215,572L211,571L211,574L213,578L209,576L205,573L208,570L207,567L209,565L212,567L214,564L219,565L220,563L212,564L208,562L207,567L205,571L204,568L201,567L204,566L206,562L204,561L204,565L201,566L201,562L200,557L203,558L206,556L208,559L209,554L211,558L211,551L208,548L205,547L210,551L206,551L204,554L204,557L201,555L201,550L199,549L198,546L200,549L198,543L195,543L194,539L198,539L197,537L198,533L196,537L193,533L196,530L189,528L189,527L194,527L192,524L195,524L193,523L194,521L192,521L193,518L196,519L194,517L194,514L197,515L195,511L193,513L193,518L190,507L191,506L194,506L194,506Z M188,506L189,506L190,517L191,521L189,526L188,524L187,525L189,515L185,519L186,520L184,523L181,515L185,514L185,510L185,507L188,506Z " data-fips="CI10" data-fips-="" data-iso3="CHL" data-name="Magallanes y Antrtica Chilena"/><path d="M254,55L252,57L250,57L244,56L242,56L236,58L236,58L236,64L237,66L238,71L237,74L238,92L238,92L247,92L257,89L260,86L260,85L260,85L260,79L258,79L258,76L257,72L260,72L260,69L258,67L262,63L254,55L254,55Z " data-fips="CI13" data-fips-="" data-iso3="CHL" data-name="Tarapac"/><path d="M236,58L242,56L244,56L250,57L252,57L254,55L255,54L254,48L252,44L253,42L250,40L249,37L247,35L242,36L243,40L241,44L235,48L234,50L235,58L236,58Z " data-fips="" data-fips-="" data-iso3="CHL" data-name="Arica y Parinacota"/><path d="M260,85L260,86L257,89L247,92L238,92L238,93L237,95L235,113L231,121L231,124L233,124L232,130L231,142L233,148L229,159L230,161L230,161L237,157L245,156L246,156L251,156L252,152L259,151L259,149L261,147L259,143L263,137L267,136L281,117L279,114L273,115L269,114L269,110L268,103L266,101L265,90L261,85L260,85Z " data-fips="CI03" data-fips-="" data-iso3="CHL" data-name="Antofagasta"/><path d="M230,162L229,170L227,174L228,176L226,179L224,186L223,193L223,196L220,203L219,204L218,209L219,210L221,209L224,212L225,210L229,207L233,215L234,217L239,217L239,217L238,211L241,208L242,201L245,194L246,194L250,190L252,183L253,182L254,178L257,179L261,175L258,168L258,166L260,164L258,153L259,151L252,152L251,156L246,156L245,156L237,157L230,161L230,162Z " data-fips="CI05" data-fips-="" data-iso3="CHL" data-name="Atacama"/><path d="M219,210L221,213L220,224L216,239L218,248L218,254L218,255L219,253L226,252L228,252L234,255L234,255L235,251L231,247L230,244L232,238L232,239L235,237L235,229L239,226L240,223L238,222L239,217L239,217L234,217L233,215L229,207L225,210L224,212L221,209L219,210L219,210Z " data-fips="CI07" data-fips-="" data-iso3="CHL" data-name="Coquimbo"/><path d="M216,282L216,282L224,285L227,282L232,281L234,283L235,284L237,286L237,286L238,286L240,271L236,268L236,268L231,268L224,268L219,274L220,277L217,281L216,282Z " data-fips="CI12" data-fips-="" data-iso3="CHL" data-name="Regin Metropolitana de Santiago"/><path d="M218,255L220,258L219,263L217,267L216,273L217,275L214,281L214,281L215,281L216,282L216,282L217,281L220,277L219,274L224,268L231,268L236,268L236,268L235,261L236,259L234,255L234,255L228,252L226,252L219,253L218,255L218,255Z " data-fips="CI01" data-fips-="" data-iso3="CHL" data-name="Valparaso"/><path d="M195,351L197,357L199,362L199,364L199,364L203,367L207,368L211,369L216,365L218,367L218,367L220,362L220,360L222,355L226,353L227,351L226,350L225,345L225,345L220,344L218,346L211,342L207,339L203,337L199,344L200,345L197,350L195,350L195,351Z " data-fips="CI04" data-fips-="" data-iso3="CHL" data-name="La Araucana"/><path d="M199,364L197,371L197,371L193,378L193,378L202,379L205,383L209,384L213,383L215,382L215,382L217,378L215,376L216,374L218,372L217,367L218,367L216,365L211,369L207,368L203,367L199,364L199,364Z " data-fips="CI09" data-fips-="CI04" data-iso3="CHL" data-name="Los Ros"/><path d="M203,314L202,320L198,325L199,328L197,331L194,330L193,333L194,334L193,339L196,345L195,350L195,350L197,350L200,345L199,344L203,337L207,339L211,342L218,346L220,344L225,345L225,345L223,337L223,336L223,330L223,327L223,323L224,320L225,320L216,316L205,313L203,313L203,314Z " data-fips="CI06" data-fips-="" data-iso3="CHL" data-name="Bo-Bo"/><path d="M216,282L216,282L215,281L214,281L214,281L213,284L212,292L211,294L211,294L217,296L219,296L223,295L229,297L233,298L233,298L234,292L237,288L237,287L237,286L235,284L234,283L232,281L227,282L224,285L216,282L216,282Z " data-fips="CI08" data-fips-="" data-iso3="CHL" data-name="Libertador General Bernardo O'Higgins"/><path d="M192,401L191,403L189,412L190,414L189,420L187,423L194,424L194,421L197,420L195,417L197,416L194,413L198,408L197,402L194,402L192,401Z M193,379L191,388L194,399L197,401L201,399L203,396L204,396L204,402L205,404L208,403L209,410L206,410L205,411L205,417L206,417L204,422L202,424L203,430L203,430L207,430L210,430L217,434L218,433L216,430L217,428L215,427L217,421L214,421L213,417L214,405L217,405L215,400L215,393L215,382L215,382L213,383L209,384L205,383L202,379L193,378L193,379Z " data-fips="CI09" data-fips-="" data-iso3="CHL" data-name="Los Lagos"/><path d="M211,294L209,300L205,306L206,309L203,313L203,313L205,313L216,316L225,320L225,320L228,319L230,315L232,314L233,310L232,304L233,299L233,298L229,297L223,295L219,296L217,296L211,294L211,294Z " data-fips="CI06" data-fips-="CI11" data-iso3="CHL" data-name="Maule"/></g></svg>