<?xml version="1.0" encoding="UTF-8"?><!DOCTYPE svg  PUBLIC '-//W3C//DTD SVG 1.1//EN'  'http://www.w3.org/Graphics/SVG/1.1/DTD/svg11.dtd'><svg enable_background="new 0 0 450 451" height="451px" style="stroke-linejoin: round; stroke:#000; fill:#f6f3f0;" version="1.1" viewBox="0 0 450 451" width="450px" xmlns="http://www.w3.org/2000/svg" xmlns:xlink="http://www.w3.org/1999/xlink"><defs><style type="text/css"><![CDATA[path { fill-rule: evenodd; }
#context path { fill: #eee; stroke: #bbb; } ]]></style></defs><metadata><views><view h="451" padding="0.06" w="450"><proj id="laea" lat0="37.6908779974" lon0="102.879992202"/><bbox h="514.82" w="596.01" x="693.71" y="754.35"/><llbbox lat0="-90" lat1="90" lon0="-180" lon1="180"/></view></views></metadata><g id="context"><path d="M25,190L25,190L24,189L26,188L28,189L28,189L28,189L27,187L19,184L14,184L12,186L4,186L4,182L7,176L5,174L6,172L0,171L0,190L8,187L11,187L20,190L24,190L25,190Z M0,196L0,196L0,196L0,196Z " data-iso="AFG"/><path d="M126,354L127,351L125,349L124,354L126,354Z M111,353L114,356L120,354L122,354L125,353L124,348L125,347L124,342L125,342L126,345L128,350L133,348L135,353L136,364L138,368L139,368L138,362L141,364L142,357L142,357L142,356L140,341L137,343L135,346L132,346L131,343L133,336L137,336L141,330L143,330L137,327L125,325L121,323L121,315L119,317L115,314L111,312L107,316L113,324L109,323L106,327L110,334L109,337L111,342L111,343L111,352L111,353Z " data-iso="BGD"/><path d="M138,302L135,299L134,300L128,299L127,296L118,301L116,303L116,304L115,304L117,309L121,310L127,310L130,311L141,311L141,306L138,305L138,303L138,303L138,302Z " data-iso="BTN"/><path d="M302,377L293,378L287,380L283,385L283,392L291,394L298,389L300,384L303,381L302,377Z M314,96L314,98L311,112L310,115L313,117L315,115L321,115L324,112L327,111L333,114L339,122L333,122L324,125L324,127L322,128L315,137L307,139L307,141L302,146L291,144L290,154L291,154L283,166L276,170L267,170L258,172L248,177L243,179L242,177L237,178L222,170L208,170L192,167L187,167L186,165L179,152L170,145L155,142L152,137L155,132L154,124L152,117L148,113L143,110L140,107L140,101L140,101L139,101L138,101L137,101L137,101L137,101L136,101L135,101L130,106L125,107L123,116L117,119L111,116L106,115L99,126L98,131L94,128L83,128L85,132L83,137L83,145L79,149L77,154L77,154L77,155L63,158L60,161L51,159L46,164L42,163L42,160L37,159L33,162L29,162L26,166L26,166L26,167L24,174L29,176L31,178L29,186L30,187L28,189L28,189L28,189L26,188L24,189L25,190L25,190L25,190L33,197L34,205L37,207L37,207L38,208L41,210L42,210L44,211L44,211L44,211L44,211L46,220L50,224L47,230L49,234L49,234L49,235L48,236L49,237L48,241L48,241L48,241L45,242L44,239L42,242L43,244L42,251L47,256L49,256L57,265L57,266L57,267L60,265L65,266L68,271L75,279L79,280L80,283L88,291L91,291L96,295L97,294L103,297L109,298L110,298L110,298L114,296L116,297L115,303L116,304L116,303L118,301L127,296L128,299L134,300L135,299L138,302L138,303L139,303L145,303L152,296L158,295L165,291L169,294L176,290L178,293L178,300L185,302L186,303L186,302L192,304L192,305L196,309L197,318L196,322L193,327L191,327L186,337L187,338L186,343L191,341L197,341L197,349L201,353L200,357L200,360L206,361L206,363L212,366L215,364L216,365L216,365L217,366L217,369L222,369L221,363L222,358L224,358L225,358L225,358L238,354L240,356L242,354L244,355L247,353L248,351L256,352L257,352L264,353L265,354L263,357L265,361L276,365L277,365L280,364L280,361L286,365L290,364L292,366L294,375L295,375L299,373L295,370L297,365L302,363L305,363L310,359L316,359L320,355L323,355L323,355L323,355L323,354L324,354L324,354L321,348L327,351L328,351L328,351L329,351L330,351L330,350L332,351L337,348L339,348L346,345L347,345L355,337L355,338L360,331L358,329L365,327L367,322L369,320L369,318L372,318L370,313L368,313L370,305L372,305L373,307L376,301L378,293L381,289L384,289L383,285L384,283L382,280L385,280L385,277L381,278L385,273L380,271L376,272L370,272L382,264L380,260L372,257L372,255L380,256L376,251L371,249L371,246L365,236L362,234L355,232L355,231L360,221L361,217L364,217L366,213L376,207L376,203L371,204L365,203L362,202L359,204L356,209L350,209L350,205L348,202L341,202L338,196L338,194L348,189L349,186L355,180L359,173L362,173L367,176L363,187L367,189L374,181L383,176L383,176L386,171L392,165L394,160L394,157L396,156L398,157L405,157L403,152L409,147L412,144L412,139L417,142L417,142L417,141L419,137L415,118L417,114L424,114L425,113L424,110L426,102L425,99L425,90L426,86L420,82L415,87L413,91L404,95L401,91L398,87L392,83L386,83L380,83L377,82L374,74L370,71L367,66L358,56L339,57L331,61L328,66L333,72L331,76L328,88L329,91L322,98L316,97L314,96Z " data-iso="CHN"/><path d="M330,351L329,351L328,351L328,351L328,352L327,352L330,351L330,351Z " data-iso="HKG"/><path d="M145,496L143,494L145,493L145,496Z M134,462L132,460L134,458L134,462Z M136,453L135,451L139,435L139,444L137,449L136,453Z M43,246L42,245L42,251L43,252L42,251L46,254L47,256L49,256L50,257L50,257L57,265L57,266L56,266L51,269L47,276L49,279L55,283L59,289L65,292L70,296L75,296L81,298L97,309L100,310L109,307L109,302L110,298L110,298L110,298L114,296L116,297L115,303L116,304L115,304L117,309L121,310L127,310L130,311L141,311L141,306L138,305L138,303L138,303L139,303L145,303L152,296L158,295L165,291L169,294L176,290L178,293L178,300L185,302L186,303L185,303L182,308L183,313L180,310L175,311L169,315L166,316L166,321L161,329L162,330L155,340L150,338L150,345L146,355L142,357L142,357L142,356L140,341L137,343L135,346L132,346L131,343L133,336L137,336L141,330L143,330L137,327L125,325L121,323L121,315L119,317L115,314L111,312L107,316L113,324L109,323L106,327L110,334L109,337L111,342L111,343L111,352L111,354L111,356L108,357L107,354L106,356L103,355L101,354L95,355L91,358L85,368L79,370L78,368L75,371L71,374L64,380L60,382L47,389L44,394L38,394L33,398L32,397L28,397L24,403L24,410L23,411L23,425L18,431L17,434L16,446L12,445L7,451L-1,455L-2,460L-5,461L-12,457L-17,446L-16,442L-21,424L-24,420L-25,415L-27,396L-29,391L-30,384L-32,379L-32,375L-32,364L-32,353L-30,351L-31,342L-28,334L-26,326L-29,325L-27,321L-30,319L-32,323L-31,326L-46,329L-52,319L-55,313L-54,311L-46,311L-42,307L-49,308L-53,306L-55,302L-58,293L-56,293L-52,291L-46,293L-45,295L-38,295L-38,296L-34,296L-34,294L-34,284L-37,282L-38,280L-36,275L-40,270L-32,263L-22,266L-18,264L-6,256L-0,252L1,251L3,249L10,244L11,238L16,233L15,232L11,223L14,217L12,213L14,210L17,210L27,216L34,215L38,213L38,213L39,213L42,212L43,211L44,211L44,211L46,220L50,224L47,230L49,234L49,235L48,236L49,237L48,241L48,241L45,242L44,239L42,242L43,244L43,246Z " data-iso="IND"/><path d="M450,220L444,219L441,221L440,223L437,227L436,227L440,231L437,230L439,233L442,228L445,231L443,237L444,244L448,245L447,241L450,245L450,220Z M450,206L445,214L443,216L444,219L449,216L450,206Z " data-iso="JPN"/><path d="M44,211L42,210L41,210L38,208L37,207L37,208L37,210L38,212L38,213L39,213L42,212L43,211L44,211L44,211Z " data-iso="KAS"/><path d="M17,135L17,134L21,131L27,133L30,136L35,136L36,134L41,133L45,138L58,141L71,147L72,150L76,153L77,154L77,154L79,149L83,145L83,137L85,132L83,128L94,128L98,131L99,126L106,115L111,116L117,119L123,116L125,107L130,106L135,101L136,101L137,101L137,101L133,96L134,94L131,96L125,93L123,88L121,87L120,82L119,80L112,80L106,78L105,75L103,73L98,76L93,50L89,42L92,38L83,39L76,43L71,41L73,37L69,34L62,30L64,27L65,20L60,18L52,16L48,17L38,15L27,14L14,9L10,14L13,18L13,20L8,17L4,22L0,22L2,30L0,34L0,140L10,136L13,135L17,135L17,135Z " data-iso="KAZ"/><path d="M26,166L26,166L29,162L33,162L37,159L42,160L42,163L46,164L51,159L60,161L63,158L77,155L77,154L76,153L72,150L71,147L58,141L45,138L41,133L36,134L35,136L30,136L27,133L21,131L17,134L17,135L18,135L19,136L15,137L16,145L27,153L19,154L16,155L11,153L11,153L11,153L4,151L1,151L0,155L12,160L12,161L16,165L19,164L25,166L26,166Z M11,156L10,155L10,154L11,156Z M8,156L6,155L6,155L8,156Z " data-iso="KGZ"/><path d="M274,427L273,428L261,435L259,435L253,432L252,431L252,432L237,431L232,434L228,439L226,439L228,447L230,449L274,449L274,443L275,438L273,434L273,431L274,428L274,427Z " data-iso="KHM"/><path d="M412,235L415,231L411,233L412,235Z M403,193L406,197L403,201L405,203L409,211L407,217L411,225L415,219L417,221L418,216L423,215L428,211L427,203L424,192L416,185L414,182L405,188L404,193L403,193Z " data-iso="KOR"/><path d="M225,359L232,364L231,369L234,372L239,373L244,372L244,376L247,377L249,379L246,383L242,385L241,386L251,392L252,395L264,408L265,410L272,415L270,418L274,426L274,427L273,428L261,435L259,435L253,432L252,431L253,431L256,425L254,416L251,415L249,412L249,404L241,395L236,394L233,397L233,397L233,397L233,397L232,398L227,398L224,397L215,403L216,396L217,389L214,383L209,383L210,377L207,377L207,377L207,376L211,371L211,371L215,366L216,365L217,366L217,369L222,369L221,363L222,358L224,358L225,358L225,359Z " data-iso="LAO"/><path d="M323,355L323,355L324,355L324,354L324,354L323,354L323,355L323,355L323,355Z " data-iso="MAC"/><path d="M207,377L207,376L211,371L211,371L215,366L216,365L216,365L215,364L212,366L206,363L206,361L200,360L200,357L201,353L197,349L197,341L191,341L186,343L187,338L186,337L191,327L193,327L196,322L197,318L196,309L192,305L192,304L186,302L186,303L185,303L182,308L183,313L180,310L175,311L169,315L166,316L166,321L161,329L162,330L155,340L150,338L150,345L146,355L142,357L142,357L142,357L141,364L138,362L139,368L139,369L142,373L145,372L151,381L148,382L151,387L152,384L155,393L157,399L156,402L153,409L152,412L154,413L157,409L156,415L162,416L164,416L166,413L174,410L177,406L180,405L181,410L184,411L183,415L185,421L185,426L188,434L188,436L192,445L192,449L199,449L196,443L197,441L196,435L192,431L188,423L192,421L192,415L193,413L191,407L185,399L182,392L185,392L189,381L196,381L197,379L201,378L201,376L206,376L207,377Z " data-iso="MMR"/><path d="M314,96L308,97L304,95L298,95L287,104L277,106L270,106L266,106L262,103L262,102L253,98L245,97L236,100L228,96L228,94L217,85L214,85L209,81L205,85L202,91L203,95L203,100L197,103L184,100L182,99L180,93L173,92L169,89L168,91L158,94L155,95L152,97L149,98L142,99L140,101L140,101L140,101L140,107L143,110L148,113L152,117L154,124L155,132L152,137L155,142L170,145L179,152L186,165L187,167L192,167L208,170L222,170L237,178L242,177L243,179L248,177L258,172L267,170L276,170L283,166L291,154L290,154L291,144L302,146L307,141L307,139L315,137L322,128L324,127L324,125L333,122L339,122L333,114L327,111L324,112L321,115L315,115L313,117L310,115L311,112L314,98L314,96L314,96Z " data-iso="MNG"/><path d="M109,298L103,297L97,294L96,295L91,291L88,291L80,283L79,280L75,279L68,271L65,266L60,265L57,267L57,266L56,266L51,269L47,276L49,279L55,283L59,289L65,292L70,296L75,296L81,298L97,309L100,310L109,307L109,302L110,298L110,298L109,298Z " data-iso="NPL"/><path d="M1,251L3,249L10,244L11,238L16,233L15,232L11,223L14,217L12,213L14,210L17,210L27,216L34,215L38,213L38,213L38,212L37,210L37,208L37,207L37,207L34,205L33,197L25,190L25,190L24,190L20,190L11,187L8,187L0,190L0,196L0,196L0,196L0,252L1,251Z " data-iso="PAK"/><path d="M423,449L424,445L419,446L418,449L423,449Z M429,449L429,444L428,441L426,449L429,449Z M438,449L440,447L435,438L432,443L434,442L436,449L438,449Z M414,449L417,447L419,443L417,440L409,438L410,440L410,449L414,449Z M438,427L429,428L431,432L436,434L439,440L443,438L441,435L441,429L438,427Z M424,432L419,430L420,435L422,433L427,436L427,434L424,432Z M395,426L392,427L396,431L397,433L400,437L404,432L403,428L400,426L395,426Z M428,418L427,415L426,419L428,418Z M393,378L390,380L388,388L389,393L389,400L390,401L385,401L388,414L391,416L393,413L397,416L394,420L394,421L400,424L405,420L407,421L413,426L411,419L412,419L418,422L419,425L423,426L425,426L426,429L427,424L421,420L424,418L419,417L418,419L415,416L406,419L402,414L403,413L400,406L401,402L404,400L408,390L404,385L404,379L403,378L401,380L393,378Z " data-iso="PHL"/><path d="M383,176L385,179L386,178L391,179L391,181L391,185L392,187L389,193L393,193L395,195L397,192L403,193L404,193L405,188L414,182L413,181L408,179L405,178L405,173L414,163L417,158L414,152L416,147L419,144L419,144L419,143L417,142L417,142L417,142L412,139L412,144L409,147L403,152L405,157L398,157L396,156L394,157L394,160L392,165L386,171L383,176L383,176Z " data-iso="PRK"/><path d="M450,24L441,12L438,10L437,12L441,19L439,21L441,24L445,33L450,37L450,24Z M413,16L410,15L413,20L414,16L413,16Z M0,22L4,22L8,17L13,20L13,18L10,14L14,9L27,14L38,15L48,17L52,16L60,18L65,20L64,27L62,30L69,34L73,37L71,41L76,43L83,39L92,38L89,42L93,50L98,76L103,73L105,75L106,78L112,80L119,80L120,82L121,87L123,88L125,93L131,96L134,94L133,96L137,101L137,101L137,101L137,101L138,101L139,101L140,101L140,101L142,99L149,98L152,97L155,95L158,94L168,91L169,89L173,92L180,93L182,99L184,100L197,103L203,100L203,95L202,91L205,85L209,81L214,85L217,85L228,94L228,96L236,100L245,97L253,98L262,102L262,103L266,106L270,106L277,106L287,104L298,95L304,95L308,97L314,96L314,96L316,97L322,98L329,91L328,88L331,76L333,72L328,66L331,61L339,57L358,56L367,66L370,71L374,74L377,82L380,83L386,83L392,83L398,87L401,91L404,95L413,91L415,87L420,82L426,86L425,90L425,99L426,102L424,110L425,113L424,114L417,114L415,118L419,137L417,141L417,142L417,142L419,143L419,144L419,143L423,133L426,132L427,135L433,135L443,123L444,119L444,113L446,108L450,93L450,57L448,52L445,48L443,38L444,34L436,26L438,26L437,23L432,22L425,18L423,20L420,21L422,27L416,30L417,27L413,29L410,22L405,24L401,24L402,20L404,15L407,0L0,0L0,22Z " data-iso="RUS"/><path d="M252,431L253,431L256,425L254,416L251,415L249,412L249,404L241,395L236,394L233,397L232,398L227,398L224,397L215,403L216,396L217,389L214,383L209,383L210,377L207,377L207,377L206,376L201,376L201,378L197,379L196,381L189,381L185,392L182,392L185,399L191,407L193,413L192,415L192,421L188,423L192,431L196,435L197,441L196,443L199,449L204,449L204,441L207,439L213,445L213,447L220,447L224,449L230,449L228,447L226,439L228,439L232,434L237,431L252,432L252,431Z " data-iso="THA"/><path d="M8,156L6,155L6,155L8,156Z M11,153L10,153L8,152L8,149L11,148L10,144L0,148L1,151L4,151L11,153L11,153Z M28,189L28,189L30,187L29,186L31,178L29,176L24,174L26,167L26,166L25,166L19,164L16,165L12,161L12,160L0,155L0,171L6,172L5,174L7,176L4,182L4,186L12,186L14,184L19,184L27,187L28,189L28,189Z " data-iso="TJK"/><path d="M387,342L390,334L392,323L391,320L387,317L384,319L382,325L379,335L379,338L381,343L387,348L387,342Z " data-iso="TWN"/><path d="M11,156L10,154L10,155L11,156Z M11,153L11,153L16,155L19,154L27,153L16,145L15,137L19,136L18,135L17,135L17,135L13,135L10,136L0,140L0,148L10,144L11,148L8,149L8,152L10,153L11,153Z " data-iso="UZB"/><path d="M276,365L265,361L263,357L265,354L264,353L257,352L256,352L248,351L247,353L244,355L242,354L240,356L238,354L225,358L225,358L225,359L232,364L231,369L234,372L239,373L244,372L244,376L247,377L249,379L246,383L242,385L241,386L251,392L252,395L264,408L265,410L272,415L270,418L274,426L274,427L274,428L273,431L273,434L275,438L274,443L274,449L290,449L292,442L291,434L286,421L283,419L278,412L276,412L266,403L263,399L258,393L256,389L259,380L265,372L265,370L268,370L275,365L276,365Z " data-iso="VNM"/></g><g fill="red" fill-opacity="0.35" id="regions"><path d="M187,167L187,167L187,167L184,169L183,174L177,175L173,177L163,186L161,186L160,198L160,198L160,198L171,198L178,201L181,204L185,207L188,208L192,201L196,204L202,202L204,203L207,207L210,209L211,208L215,211L222,216L225,217L225,218L229,221L228,222L230,224L231,228L232,229L230,236L227,237L227,239L224,243L223,243L225,248L223,249L216,246L216,251L218,253L223,254L223,254L223,254L224,255L223,258L228,254L227,253L232,247L235,252L241,253L245,262L249,263L252,260L252,260L253,260L255,259L254,255L256,253L257,254L259,252L260,247L261,247L259,243L260,239L267,240L268,237L275,235L274,231L275,227L264,221L264,221L264,220L260,220L258,226L259,228L261,229L262,233L258,234L258,238L255,236L254,236L253,234L250,233L251,229L249,224L243,218L242,218L242,218L237,215L235,214L235,209L241,202L238,199L234,201L228,201L225,202L225,205L222,206L220,206L217,202L216,199L214,199L207,195L212,187L211,186L209,185L203,187L198,188L199,185L196,182L195,179L196,178L192,167L187,167Z " data-fips="CH15" data-fips-="" data-iso3="CHN" data-name="Gansu" data-p="GS"/><path d="M223,254L218,253L216,251L216,246L223,249L225,248L223,243L224,243L227,239L227,237L230,236L232,229L231,228L230,224L228,222L229,221L225,218L225,217L222,216L215,211L211,208L210,209L207,207L204,203L202,202L196,204L192,201L188,208L185,207L181,204L178,201L171,198L160,198L160,198L160,198L152,200L139,202L140,208L144,212L145,214L143,217L142,217L141,220L143,221L143,225L141,225L136,224L134,224L132,224L132,224L131,230L130,230L132,235L130,244L133,249L142,251L152,257L157,260L160,260L166,260L170,264L172,265L172,268L181,269L183,267L185,267L188,263L191,263L191,262L190,262L189,253L189,251L195,250L197,251L207,261L207,260L214,263L218,262L218,258L220,257L223,255L223,254L223,254Z " data-fips="" data-fips-="" data-iso3="CHN" data-name="Qinghai" data-p="QH"/><path d="M287,322L286,323L285,325L283,325L281,327L280,327L276,329L276,330L266,328L266,331L264,331L259,335L256,336L253,334L250,334L247,337L246,336L245,336L245,336L247,339L251,340L251,341L258,341L260,344L258,347L257,347L254,350L254,350L262,352L265,353L263,357L265,361L267,362L272,364L276,364L279,363L280,364L283,363L287,365L290,363L291,364L291,363L293,361L297,360L296,357L300,356L300,353L305,348L304,346L308,339L309,333L309,333L309,332L306,333L305,334L302,329L302,327L303,322L301,322L302,319L296,319L293,322L287,322L287,322Z " data-fips="CH16" data-fips-="" data-iso3="CHN" data-name="Guangxi" data-p="GX"/><path d="M283,300L282,302L279,301L278,299L277,298L275,295L268,294L269,296L264,298L262,300L261,298L260,300L260,300L260,300L257,298L254,300L254,302L259,305L259,307L251,308L251,308L251,308L246,312L244,311L238,315L240,320L242,318L245,319L245,322L243,327L247,331L245,336L245,336L246,336L247,337L250,334L253,334L256,336L259,335L264,331L266,331L266,328L276,330L276,329L280,327L281,327L283,325L285,325L286,323L287,322L286,322L285,320L286,316L287,315L286,312L281,313L285,307L284,305L284,300L284,299L283,300Z " data-fips="CH18" data-fips-="" data-iso3="CHN" data-name="Guizhou" data-p="GZ"/><path d="M284,269L280,268L278,267L276,266L276,265L275,266L276,270L272,277L268,280L266,284L265,286L262,286L261,284L258,285L255,283L253,286L254,288L252,290L251,292L254,294L257,296L258,297L260,300L260,300L260,300L261,298L262,300L264,298L269,296L268,294L275,295L277,298L278,299L279,301L282,302L283,300L284,299L284,299L284,298L284,297L283,294L283,294L282,293L280,289L278,287L276,288L276,281L280,280L283,280L287,277L289,277L289,272L286,271L285,269L284,269L284,269Z " data-fips="CH33" data-fips-="CH18|CH32" data-iso3="CHN" data-name="Chongqing" data-p="CQ"/><path d="M333,184L332,181L328,178L326,178L327,180L322,183L323,184L320,188L323,192L330,190L331,190L331,190L331,190L331,190L331,190L331,189L331,189L330,188L330,187L332,186L333,185L333,185L334,184L334,184L334,184L333,184Z " data-fips="CH22" data-fips-="" data-iso3="CHN" data-name="Beijing" data-p="BJ"/><path d="M359,293L358,293L354,298L350,299L348,306L345,309L346,312L341,325L341,327L341,327L342,327L346,328L347,329L349,329L351,332L352,337L354,338L354,338L359,331L358,329L360,327L362,328L367,324L366,322L370,320L369,318L371,316L372,312L370,313L371,310L373,309L370,305L374,305L373,307L375,306L374,303L375,299L376,300L376,300L376,299L363,300L363,298L359,293L359,293Z " data-fips="CH07" data-fips-="" data-iso3="CHN" data-name="Fujian" data-p="FJ"/><path d="M364,265L361,264L358,265L357,262L353,260L355,256L354,254L356,253L359,252L356,249L354,252L352,252L350,248L348,248L349,243L346,244L346,243L339,238L334,237L334,237L334,237L333,238L333,237L333,237L333,238L333,238L337,243L333,244L330,243L328,250L326,254L334,261L330,267L330,268L330,268L333,269L335,272L336,276L338,282L338,282L339,282L342,279L344,280L345,282L348,280L350,282L355,283L355,283L356,283L360,277L360,273L362,273L364,266L364,265L364,265Z " data-fips="CH01" data-fips-="" data-iso3="CHN" data-name="Anhui" data-p="AH"/><path d="M309,333L309,333L308,339L304,346L305,348L300,353L300,356L296,357L297,360L293,361L291,363L291,363L291,370L293,373L297,375L298,372L296,367L297,365L301,364L302,363L308,362L310,359L314,360L319,357L320,355L324,354L323,350L324,348L327,352L330,350L333,351L339,346L340,347L349,344L350,341L354,338L354,338L352,337L351,332L349,329L347,329L346,328L342,327L341,327L341,327L341,329L338,329L329,333L328,331L331,327L330,324L326,325L325,324L324,324L324,324L319,325L317,326L316,330L313,328L310,328L309,333L309,333Z " data-fips="CH30" data-fips-="" data-iso3="CHN" data-name="Guangdong" data-p="GD"/><path d="M50,224L47,232L50,235L50,238L49,241L42,240L43,246L42,250L44,251L47,256L49,256L51,259L51,261L54,263L56,265L57,267L59,267L65,266L66,268L73,276L76,280L78,279L80,280L80,281L86,289L86,290L91,290L93,295L94,293L97,295L97,294L102,297L110,298L115,297L116,297L115,303L116,304L122,297L127,297L134,300L139,301L138,303L145,303L147,302L153,296L155,296L161,292L165,291L165,292L174,291L176,290L179,296L177,300L184,301L191,303L192,304L196,302L198,296L199,298L200,294L201,294L201,294L200,280L198,274L199,274L197,272L196,268L195,265L191,263L191,262L191,263L188,263L185,267L183,267L181,269L172,268L172,265L170,264L166,260L160,260L157,260L152,257L142,251L133,249L130,244L132,235L130,230L131,230L132,224L132,224L129,222L124,219L107,219L105,222L101,223L98,221L91,223L86,223L82,221L82,219L78,218L74,220L62,216L56,225L52,223L50,224L50,224Z " data-fips="CH14" data-fips-="" data-iso3="CHN" data-name="Xizang" data-p="XZ"/><path d="M50,224L52,223L56,225L62,216L74,220L78,218L82,219L82,221L86,223L91,223L98,221L101,223L105,222L107,219L124,219L129,222L132,224L134,224L136,224L141,225L143,225L143,221L141,220L142,217L143,217L145,214L144,212L140,208L139,202L152,200L160,198L160,198L160,198L161,186L163,186L173,177L177,175L183,174L184,169L187,167L187,167L186,165L184,162L181,152L179,152L174,148L172,148L165,144L161,143L153,140L152,138L152,135L155,133L153,117L149,115L148,113L145,113L139,105L140,101L133,102L132,104L126,106L123,110L122,118L117,118L112,116L107,113L98,127L100,129L99,131L94,128L88,129L83,128L82,130L84,133L83,137L83,147L80,147L77,151L77,156L74,155L64,158L60,161L56,160L52,159L47,163L45,163L42,160L38,160L32,162L30,161L27,166L26,166L25,175L30,176L31,178L29,186L30,188L24,189L31,195L34,198L37,207L41,210L44,211L45,213L46,220L50,224L50,224Z " data-fips="CH13" data-fips-="" data-iso3="CHN" data-name="Xinjiang Uygur" data-p="XJ"/><path d="M300,376L300,378L296,377L294,378L288,379L287,381L283,384L283,389L283,392L287,394L292,395L293,393L295,393L297,390L300,388L300,385L303,381L303,377L300,376Z " data-fips="CH31" data-fips-="CH" data-iso3="CHN" data-name="Hainan" data-p="HI"/><path d="M266,213L258,210L259,208L259,199L255,202L252,212L250,215L243,217L242,218L243,218L249,224L251,229L250,233L253,234L254,236L255,236L258,238L258,234L262,233L261,229L259,228L258,226L260,220L264,220L264,221L264,220L264,216L266,214L266,214L266,213L266,213Z " data-fips="CH21" data-fips-="" data-iso3="CHN" data-name="Ningxia Hui" data-p="NX"/><path d="M290,197L290,196L287,199L284,197L280,202L276,207L276,212L271,215L269,215L267,213L266,213L266,214L266,214L264,216L264,220L264,221L264,221L275,227L274,231L275,235L268,237L267,240L260,239L259,243L261,247L260,247L259,252L257,254L256,253L254,255L255,259L253,260L252,260L252,260L253,262L256,260L257,262L264,261L264,263L268,264L272,266L276,265L276,265L276,266L278,267L280,268L284,269L284,269L284,269L285,266L283,263L285,261L288,261L288,259L283,256L294,254L294,254L294,253L291,249L291,246L288,242L288,242L288,242L290,233L287,220L289,217L289,213L287,211L287,209L289,206L290,197L290,197L290,197Z " data-fips="CH26" data-fips-="" data-iso3="CHN" data-name="Shaanxi" data-p="SN"/><path d="M312,223L310,221L311,219L314,212L309,204L310,200L314,197L315,193L310,189L314,186L312,186L311,183L311,182L310,183L310,185L307,187L298,188L294,195L293,194L291,197L290,197L290,197L289,206L287,209L287,211L289,213L289,217L287,220L290,233L288,242L288,242L289,242L291,242L294,240L296,239L301,235L308,234L312,230L312,223L312,223L312,223Z " data-fips="CH24" data-fips-="" data-iso3="CHN" data-name="Shanxi" data-p="SX"/><path d="M330,268L324,267L324,266L319,266L318,265L316,260L314,261L312,260L304,261L299,260L294,255L294,254L294,254L283,256L288,259L288,261L285,261L283,263L285,266L284,269L284,269L285,269L286,271L289,272L289,277L287,277L283,280L280,280L276,281L276,288L278,287L280,289L282,293L283,294L283,294L286,289L290,287L292,285L296,284L303,285L307,287L313,286L313,288L315,287L316,285L318,286L319,287L318,290L321,291L321,291L322,290L325,288L328,287L335,282L336,283L338,282L338,282L338,282L336,276L335,272L333,269L330,268L330,268L330,268Z " data-fips="CH12" data-fips-="" data-iso3="CHN" data-name="Hubei" data-p="HB"/><path d="M321,291L318,290L319,287L318,286L316,285L315,287L313,288L313,286L307,287L303,285L296,284L292,285L290,287L286,289L283,294L283,294L283,294L284,297L284,298L284,299L284,299L284,300L284,305L285,307L281,313L286,312L287,315L286,316L285,320L286,322L287,322L287,322L293,322L296,319L302,319L301,322L303,322L302,327L302,329L305,334L306,333L309,332L309,333L309,333L310,328L313,328L316,330L317,326L319,325L324,324L324,324L325,324L325,314L323,313L322,307L320,307L320,305L321,301L322,301L323,295L321,292L321,291L321,291Z " data-fips="CH11" data-fips-="" data-iso3="CHN" data-name="Hunan" data-p="HN"/><path d="M252,260L249,263L245,262L241,253L235,252L232,247L227,253L228,254L223,258L224,255L223,254L223,254L223,255L220,257L218,258L218,262L214,263L207,260L207,261L197,251L195,250L189,251L189,253L190,262L191,262L191,263L195,265L196,268L197,272L199,274L198,274L200,280L201,294L201,294L200,295L200,298L202,303L204,299L206,300L208,305L210,308L213,307L216,313L223,324L232,321L231,316L232,311L233,311L236,308L236,305L238,304L239,300L243,300L243,303L246,307L249,305L251,306L251,308L251,308L251,308L259,307L259,305L254,302L254,300L257,298L260,300L260,300L260,300L258,297L257,296L254,294L251,292L252,290L254,288L253,286L255,283L258,285L261,284L262,286L265,286L266,284L268,280L272,277L276,270L275,266L276,265L276,265L272,266L268,264L264,263L264,261L257,262L256,260L253,262L252,260L252,260L252,260Z " data-fips="CH32" data-fips-="CH27" data-iso3="CHN" data-name="Sichuan" data-p="SC"/><path d="M201,294L200,294L199,298L198,296L196,302L192,304L192,304L193,309L194,308L196,309L197,317L195,323L195,325L193,327L191,327L191,329L187,333L186,338L187,341L185,342L190,341L197,341L195,344L197,348L197,350L202,351L200,354L201,355L199,360L205,360L207,366L211,366L216,363L216,367L218,369L221,369L221,363L220,362L226,357L238,354L241,357L242,354L247,354L248,350L251,350L254,350L254,350L257,347L258,347L260,344L258,341L251,341L251,340L247,339L245,336L245,336L245,336L247,331L243,327L245,322L245,319L242,318L240,320L238,315L244,311L246,312L251,308L251,308L251,308L251,306L249,305L246,307L243,303L243,300L239,300L238,304L236,305L236,308L233,311L232,311L231,316L232,321L223,324L216,313L213,307L210,308L208,305L206,300L204,299L202,303L200,298L200,295L201,294Z " data-fips="CH29" data-fips-="" data-iso3="CHN" data-name="Yunnan" data-p="YN"/><path d="M345,172L339,173L338,171L335,163L333,162L327,165L328,168L323,171L320,170L317,174L314,169L308,176L308,179L310,182L311,182L311,183L312,186L314,186L310,189L315,193L314,197L310,200L309,204L314,212L311,219L310,221L312,223L312,223L312,223L315,224L322,225L325,224L326,224L325,223L324,221L332,209L340,201L340,201L339,201L338,200L337,199L337,199L334,198L331,197L332,195L331,191L331,190L330,190L323,192L320,188L323,184L322,183L327,180L326,178L328,178L332,181L333,184L334,184L334,184L336,189L338,189L340,192L340,192L342,194L347,192L351,183L351,183L348,179L343,177L345,172L345,172L345,172Z " data-fips="CH10" data-fips-="" data-iso3="CHN" data-name="Hebei" data-p="HE"/><path d="M325,224L322,225L315,224L312,223L312,223L312,223L312,230L308,234L301,235L296,239L294,240L291,242L289,242L288,242L288,242L291,246L291,249L294,253L294,254L294,255L299,260L304,261L312,260L314,261L316,260L318,265L319,266L324,266L324,267L330,268L330,268L330,267L334,261L326,254L328,250L330,243L333,244L337,243L333,238L333,238L332,238L330,238L327,237L322,234L324,231L329,226L329,224L325,226L326,224L326,224L325,224Z " data-fips="CH09" data-fips-="" data-iso3="CHN" data-name="Henan" data-p="HA"/><path d="M371,147L371,147L371,149L369,150L366,154L363,153L364,155L361,156L360,158L357,158L355,161L354,161L350,167L349,165L345,161L344,163L345,168L346,171L345,172L345,172L343,177L348,179L351,183L352,183L354,181L357,175L364,173L365,173L363,182L364,186L366,187L362,192L363,193L369,189L370,185L373,182L378,178L382,178L383,175L386,171L386,170L390,166L390,166L390,163L385,158L385,155L381,151L379,147L377,150L371,146L371,147L371,147Z " data-fips="CH19" data-fips-="" data-iso3="CHN" data-name="Liaoning" data-p="LN"/><path d="M340,201L332,209L324,221L325,223L326,224L326,224L325,226L329,224L329,226L324,231L322,234L327,237L330,238L332,238L333,238L333,237L333,237L333,238L334,237L334,237L334,237L337,233L340,237L344,237L347,235L350,236L350,234L352,234L352,231L355,229L356,229L357,226L364,218L365,213L371,209L374,209L376,207L376,203L372,202L369,204L362,202L360,203L353,210L351,210L349,208L349,203L347,202L342,202L341,202L340,201Z " data-fips="CH25" data-fips-="" data-iso3="CHN" data-name="Shandong" data-p="SD"/><path d="M331,189L333,190L333,188L333,186L333,185L332,186L330,187L330,188L331,189L331,189L331,189Z " data-fips="CH22" data-fips-="CH28" data-iso3="CHN" data-name="Tianjin" data-p="TJ"/><path d="M334,184L334,184L334,184L333,185L333,185L333,186L333,188L333,190L331,189L331,189L331,190L331,190L331,190L331,190L331,190L331,191L332,195L331,197L334,198L337,199L337,199L338,193L340,193L340,192L338,189L336,189L334,184L334,184Z " data-fips="CH28" data-fips-="" data-iso3="CHN" data-name="Tianjin"/><path d="M355,283L350,282L348,280L345,282L344,280L342,279L339,282L338,282L338,282L336,283L335,282L328,287L325,288L322,290L321,291L321,292L323,295L322,301L321,301L320,305L320,307L322,307L323,313L325,314L325,324L324,324L325,324L326,325L330,324L331,327L328,331L329,333L338,329L341,329L341,327L341,327L341,327L341,325L346,312L345,309L348,306L350,299L354,298L358,293L359,293L359,293L355,287L354,286L355,283L355,283L355,283Z " data-fips="CH03" data-fips-="" data-iso3="CHN" data-name="Jiangxi" data-p="JX"/><path d="M355,229L352,231L352,234L350,234L350,236L347,235L344,237L340,237L337,233L334,237L334,237L334,237L339,238L346,243L346,244L349,243L348,248L350,248L352,252L354,252L356,249L359,252L356,253L354,254L355,256L353,260L357,262L358,265L361,264L364,265L364,265L364,265L367,265L372,267L374,265L374,264L374,264L375,263L376,260L377,259L377,259L370,256L367,257L366,257L369,255L381,257L380,255L376,252L376,251L371,249L371,246L364,236L359,234L355,229L355,229Z " data-fips="CH04" data-fips-="" data-iso3="CHN" data-name="Jiangsu" data-p="JS"/><path d="M374,264L375,264L376,266L376,266L378,267L378,267L380,265L382,264L381,261L377,259L377,259L376,260L375,263L374,264L374,264Z M381,258L376,256L378,259L381,258Z " data-fips="CH23" data-fips-="" data-iso3="CHN" data-name="Shanghai" data-p="SH"/><path d="M364,265L364,266L362,273L360,273L360,277L356,283L355,283L355,283L354,286L355,287L359,293L359,293L359,293L363,298L363,300L376,299L376,300L376,300L380,290L382,290L383,287L382,285L384,282L382,282L382,279L385,280L385,276L383,277L384,273L382,273L378,270L374,273L372,271L375,270L378,267L378,267L376,266L376,266L375,264L374,264L374,265L372,267L367,265L364,265L364,265Z " data-fips="CH02" data-fips-="" data-iso3="CHN" data-name="Zhejiang" data-p="ZJ"/><path d="M361,121L361,121L359,127L353,126L352,128L357,131L356,133L357,137L359,141L362,139L364,137L369,144L369,146L370,147L371,147L371,147L371,146L377,150L379,147L381,151L385,155L385,158L390,163L390,166L390,166L392,165L395,157L405,157L405,155L403,152L408,149L410,145L411,145L412,139L413,139L415,141L417,139L420,137L419,132L419,132L417,133L411,129L405,133L404,136L399,131L398,129L395,133L391,129L389,129L386,125L384,125L374,125L371,127L369,125L367,123L366,120L361,121L361,121Z " data-fips="CH05" data-fips-="" data-iso3="CHN" data-name="Jilin" data-p="JL"/><path d="M192,167L196,178L195,179L196,182L199,185L198,188L203,187L209,185L211,186L212,187L207,195L214,199L216,199L217,202L220,206L222,206L225,205L225,202L228,201L234,201L238,199L241,202L235,209L235,214L237,215L242,218L242,218L243,217L250,215L252,212L255,202L259,199L259,208L258,210L266,213L266,213L267,213L269,215L271,215L276,212L276,207L280,202L284,197L287,199L290,196L290,197L290,197L291,197L293,194L294,195L298,188L307,187L310,185L310,183L311,182L310,182L308,179L308,176L314,169L317,174L320,170L323,171L328,168L327,165L333,162L335,163L338,171L339,173L345,172L345,172L346,171L345,168L344,163L345,161L349,165L350,167L354,161L355,161L357,158L360,158L361,156L364,155L363,153L366,154L369,150L371,149L371,147L371,147L370,147L369,146L369,144L364,137L362,139L359,141L357,137L356,133L357,131L352,128L353,126L359,127L361,121L361,121L360,120L360,118L362,116L360,116L355,114L354,111L357,107L358,105L362,99L364,102L363,98L364,92L366,91L364,86L365,80L366,78L361,70L359,70L358,72L351,75L347,74L345,72L344,68L342,67L339,68L335,66L334,59L334,59L328,67L332,69L333,73L329,84L328,92L326,93L322,98L314,96L311,109L311,112L310,113L313,116L314,115L318,114L322,116L324,112L328,111L334,116L339,120L338,123L329,123L327,125L324,126L324,127L321,128L317,135L313,138L307,140L302,146L299,146L294,144L290,145L289,148L289,151L292,155L290,159L286,161L283,166L280,168L258,172L247,178L246,179L243,179L243,177L237,178L233,175L225,174L220,170L212,169L208,170L192,167L192,167Z " data-fips="CH20" data-fips-="" data-iso3="CHN" data-name="Nei Mongol" data-p="NM"/><path d="M334,59L335,66L339,68L342,67L344,68L345,72L347,74L351,75L358,72L359,70L361,70L366,78L365,80L364,86L366,91L364,92L363,98L364,102L362,99L358,105L357,107L354,111L355,114L360,116L362,116L360,118L360,120L361,121L361,121L366,120L367,123L369,125L371,127L374,125L384,125L386,125L389,129L391,129L395,133L398,129L399,131L404,136L405,133L411,129L417,133L419,132L418,132L417,127L413,120L418,115L424,114L425,104L425,96L424,90L426,86L424,83L421,81L413,89L413,91L406,93L404,95L401,91L401,89L397,85L396,86L389,82L382,83L379,82L377,80L377,78L375,77L373,74L370,72L365,64L361,59L361,59L354,55L353,57L344,55L342,56L337,58L334,59L334,59Z " data-fips="CH08" data-fips-="" data-iso3="CHN" data-name="Heilongjiang" data-p="HL"/></g></svg>