<?xml version="1.0" encoding="UTF-8"?><!DOCTYPE svg  PUBLIC '-//W3C//DTD SVG 1.1//EN'  'http://www.w3.org/Graphics/SVG/1.1/DTD/svg11.dtd'><svg enable_background="new 0 0 450 451" height="451px" pretty_print="False" style="stroke-linejoin: round; stroke:#000; fill: none;" version="1.1" viewBox="0 0 450 451" width="450px" xmlns="http://www.w3.org/2000/svg" xmlns:xlink="http://www.w3.org/1999/xlink"><defs><style type="text/css"><![CDATA[path { fill-rule: evenodd; }]]></style></defs><metadata><views><view h="451" padding="0.06" w="450"><proj id="laea" lat0="37.6908779974" lon0="102.879992202"/><bbox h="489.34" w="596.01" x="693.71" y="754.35"/></view></views></metadata><g class="" id="context"><path d="M25,200L25,200L24,198L26,198L28,199L28,199L28,198L27,197L19,193L14,194L12,195L4,195L4,191L7,186L5,184L6,182L0,180L0,200L8,197L11,197L20,200L24,200L25,200Z M0,206L0,206L0,206L0,206Z " data-iso="AFG"/><path d="M136,370L135,369L135,370L136,370Z M129,364L129,360L128,364L129,364Z M133,362L132,361L132,362L133,362Z M126,364L127,360L125,359L124,364L126,364Z M111,363L114,366L120,363L122,364L125,362L124,357L125,356L124,352L125,351L126,355L128,359L133,357L135,363L136,374L138,377L139,377L138,372L141,373L142,367L142,367L142,366L140,351L137,352L135,356L132,355L131,353L133,346L137,346L141,340L143,339L137,337L125,335L121,333L121,325L119,327L115,323L111,321L107,326L113,333L109,333L106,337L110,344L109,347L111,352L111,353L111,362L111,363Z " data-iso="BGD"/><path d="M138,312L135,309L134,310L128,308L127,306L118,310L116,312L116,314L115,314L117,319L121,320L127,319L130,321L141,321L141,316L138,314L138,313L138,312L138,312Z " data-iso="BTN"/><path d="M381,268L377,266L376,266L381,268Z M387,282L385,280L384,280L387,282Z M388,282L387,282L388,283L388,282Z M382,301L381,300L381,300L382,301Z M302,387L293,388L287,390L283,395L283,401L291,404L298,399L300,393L303,390L302,387Z M314,106L314,107L311,121L310,124L313,126L315,124L321,124L324,122L327,121L333,123L339,131L333,132L324,135L324,137L322,137L315,147L307,149L307,150L302,155L291,154L290,163L291,164L283,176L276,179L267,180L258,182L248,187L243,188L242,186L237,187L222,180L208,179L192,177L187,177L186,175L179,162L170,154L155,151L152,147L155,142L154,133L152,126L148,123L143,120L140,116L140,111L140,111L139,111L138,111L137,111L137,111L137,111L136,111L135,110L130,115L125,117L123,126L117,128L111,126L106,125L99,136L98,141L94,138L83,138L85,141L83,147L83,155L79,158L77,164L77,164L77,165L63,168L60,170L51,169L46,173L42,172L42,169L37,169L33,171L29,172L26,176L26,176L26,176L24,184L29,185L31,188L29,195L30,197L28,199L28,199L28,199L26,198L24,198L25,200L25,200L25,200L33,207L34,214L37,217L37,217L38,218L41,219L42,220L44,221L44,221L44,221L44,221L46,230L50,234L47,239L49,244L49,244L49,244L48,246L49,247L48,250L48,251L48,251L45,252L44,249L42,252L43,254L42,261L47,266L49,266L57,275L57,276L57,276L60,275L65,276L68,280L75,289L79,289L80,293L88,300L91,301L96,305L97,304L103,307L109,307L110,308L110,307L114,306L116,307L115,313L116,314L116,312L118,310L127,306L128,308L134,310L135,309L138,312L138,312L139,312L145,312L152,306L158,305L165,301L169,303L176,300L178,302L178,310L185,312L186,312L186,312L192,313L192,315L196,319L197,328L196,331L193,337L191,337L186,347L187,348L186,352L191,351L197,351L197,358L201,363L200,367L200,370L206,371L206,373L212,375L215,373L216,375L216,375L217,375L217,378L222,378L221,373L222,367L224,367L225,367L225,367L238,364L240,366L242,364L244,364L247,363L248,361L256,361L257,362L264,362L265,363L263,367L265,370L276,374L277,374L280,373L280,371L286,375L290,373L292,376L294,385L295,385L299,382L295,379L297,375L302,373L305,373L310,369L316,369L320,365L323,364L323,364L323,364L323,364L324,364L324,364L321,358L327,361L328,361L328,361L329,360L330,361L330,360L332,360L337,357L339,358L346,354L347,355L355,346L355,347L360,341L358,339L361,338L361,338L361,338L361,338L365,336L367,331L369,330L369,328L372,328L370,322L368,323L370,315L372,314L373,316L376,310L378,303L381,298L384,298L383,295L384,293L382,290L385,290L385,287L381,287L385,283L380,281L376,282L370,282L382,273L380,270L372,267L372,265L380,265L376,261L371,259L371,256L365,246L362,244L355,242L355,241L360,231L361,227L364,227L366,222L376,217L376,212L371,213L365,213L362,211L359,214L356,219L350,218L350,215L348,212L341,212L338,206L338,203L348,199L349,195L355,190L359,183L362,182L367,186L363,196L367,199L374,191L383,186L383,186L386,181L392,175L394,169L394,167L396,165L398,167L405,167L403,162L409,157L412,154L412,148L417,151L417,151L417,151L419,146L415,127L417,124L424,124L425,123L424,119L426,111L425,109L425,99L426,96L420,92L415,96L413,101L404,104L401,101L398,96L392,93L386,92L380,93L377,91L374,84L370,81L367,75L358,66L339,66L331,71L328,75L333,82L331,86L328,98L329,101L322,107L316,106L314,106Z M316,370L316,370L316,370L316,370Z M297,377L297,378L298,378L297,377Z " data-iso="CHN"/><path d="M328,364L327,363L326,364L328,364Z M330,361L329,360L328,361L328,361L328,361L327,362L330,361L330,361Z " data-iso="HKG"/><path d="M145,506L143,504L145,502L145,506Z M142,495L142,494L142,494L142,495Z M139,493L138,493L138,492L139,493Z M136,484L135,484L136,483L136,484Z M134,471L132,469L134,468L134,471Z M136,464L135,463L135,463L136,464Z M139,458L140,459L139,459L139,458Z M136,462L135,461L139,445L139,454L137,458L136,462Z M43,255L42,255L42,261L43,262L42,261L46,264L47,266L49,266L50,267L50,267L57,275L57,276L56,275L51,278L47,286L49,289L55,293L59,298L65,301L70,305L75,306L81,308L97,319L100,320L109,316L109,312L110,308L110,308L110,307L114,306L116,307L115,313L116,314L115,314L117,319L121,320L127,319L130,321L141,321L141,316L138,314L138,313L138,312L139,312L145,312L152,306L158,305L165,301L169,303L176,300L178,302L178,310L185,312L186,312L185,313L182,317L183,322L180,320L175,321L169,325L166,326L166,331L161,338L162,340L155,350L150,348L150,355L146,365L142,366L142,367L142,366L140,351L137,352L135,356L132,355L131,353L133,346L137,346L141,340L143,339L137,337L125,335L121,333L121,325L119,327L115,323L111,321L107,326L113,333L109,333L106,337L110,344L109,347L111,352L111,353L111,362L111,363L111,366L108,366L107,364L106,366L103,365L101,363L95,365L91,367L85,377L79,380L78,377L75,381L71,384L64,390L60,391L47,398L44,403L38,403L33,408L32,407L28,406L24,412L24,419L23,420L23,434L18,440L17,444L16,455L12,455L7,460L-1,465L-2,469L-5,470L-12,467L-17,456L-16,452L-21,433L-24,429L-25,424L-27,406L-29,401L-30,393L-32,389L-32,385L-32,374L-32,362L-30,360L-31,352L-28,344L-26,336L-29,335L-27,330L-30,329L-32,332L-31,335L-46,339L-52,329L-55,323L-54,320L-46,320L-42,316L-49,317L-53,315L-55,312L-58,303L-56,303L-52,301L-46,303L-45,305L-38,305L-38,306L-34,306L-34,303L-34,294L-37,292L-38,290L-36,285L-40,280L-32,272L-22,276L-18,274L-6,266L-0,261L1,261L3,258L10,254L11,248L16,242L15,242L11,233L14,226L12,223L14,220L17,220L27,225L34,225L38,223L38,223L39,222L42,221L43,221L44,221L44,221L46,230L50,234L47,239L49,244L49,244L48,246L49,247L48,250L48,251L45,252L44,249L42,252L43,254L43,255Z " data-iso="IND"/><path d="M412,328L410,330L411,330L412,328Z M421,324L420,323L420,323L421,324Z M440,301L437,305L438,304L440,301Z M446,285L444,285L445,286L446,285Z M450,261L449,262L449,263L450,261Z M441,252L441,251L440,251L441,252Z M444,243L443,243L442,243L444,243Z M433,243L432,240L432,241L433,243Z M435,238L435,237L435,237L435,238Z M450,230L444,229L441,230L440,232L437,236L436,237L440,240L437,239L439,243L442,237L445,241L443,247L444,253L448,254L447,251L450,255L450,230Z M431,230L430,229L431,230L431,230Z M432,228L431,225L430,226L432,228Z M450,216L445,224L443,226L444,228L449,226L450,216Z " data-iso="JPN"/><path d="M44,221L42,220L41,219L38,218L37,217L37,218L37,219L38,222L38,223L39,222L42,221L43,221L44,221L44,221Z " data-iso="KAS"/><path d="M17,144L17,144L21,141L27,143L30,146L35,146L36,144L41,143L45,148L58,151L71,157L72,160L76,163L77,164L77,164L79,158L83,155L83,147L85,141L83,138L94,138L98,141L99,136L106,125L111,126L117,128L123,126L125,117L130,115L135,110L136,111L137,111L137,110L133,106L134,104L131,106L125,103L123,97L121,96L120,91L119,89L112,90L106,88L105,84L103,82L98,86L93,60L89,52L92,48L83,49L76,52L71,51L73,46L69,43L62,40L64,36L65,29L60,27L52,25L48,27L38,24L27,23L14,18L10,24L13,28L13,29L8,26L4,32L0,32L2,40L0,44L0,149L10,146L13,145L17,145L17,144Z M81,120L82,120L82,122L82,122L79,124L76,123L76,123L74,122L73,121L69,120L67,119L67,118L62,117L60,116L57,116L57,116L55,116L54,118L52,119L51,118L50,119L49,121L49,121L47,122L46,126L45,127L46,125L45,122L45,121L44,120L47,117L47,115L49,116L49,115L50,114L52,114L54,113L55,112L58,113L59,114L62,114L65,116L66,117L69,118L69,119L71,119L74,119L76,121L77,121L79,120L79,120L81,120Z " data-iso="KAZ"/><path d="M26,176L26,176L29,172L33,171L37,169L42,169L42,172L46,173L51,169L60,170L63,168L77,165L77,164L76,163L72,160L71,157L58,151L45,148L41,143L36,144L35,146L30,146L27,143L21,141L17,144L17,144L18,144L19,146L15,147L16,155L27,162L19,163L16,165L11,162L11,162L11,163L4,160L1,160L0,165L12,170L12,170L16,175L19,174L25,176L26,176Z M11,166L10,165L10,164L11,166Z M8,165L6,165L6,165L8,165Z M65,157L64,157L62,158L61,159L59,159L57,159L55,158L53,156L51,155L51,155L53,154L55,154L59,154L61,155L62,155L65,155L64,156L65,157Z " data-iso="KGZ"/><path d="M274,437L273,437L261,445L259,445L253,441L252,441L252,441L251,441L233,442L228,448L226,449L275,449L273,444L273,443L274,438L274,437Z " data-iso="KHM"/><path d="M412,245L415,241L411,242L412,245Z M408,234L408,233L407,234L408,234Z M407,231L407,230L406,230L407,231Z M405,214L404,214L404,215L405,214Z M434,196L434,196L433,197L434,196Z M403,202L406,206L403,210L405,212L409,220L407,226L411,234L415,229L417,230L418,226L423,225L428,221L427,213L424,202L416,195L414,191L405,197L404,202L403,202Z " data-iso="KOR"/><path d="M225,368L232,374L231,378L234,382L239,383L244,382L244,385L247,386L249,389L246,393L242,394L241,396L251,401L252,404L264,418L265,420L272,425L270,427L274,436L274,437L273,437L261,445L259,445L253,441L252,441L253,441L256,435L254,426L251,424L249,422L249,414L241,405L236,404L233,407L233,407L233,407L233,407L232,408L227,408L224,406L215,412L216,406L217,399L214,393L209,392L210,387L207,387L207,386L207,386L211,381L211,381L215,376L216,375L217,375L217,378L222,378L221,373L222,367L224,367L225,367L225,368Z " data-iso="LAO"/><path d="M323,364L323,364L324,364L324,364L324,364L323,364L323,364L323,364L323,364Z " data-iso="MAC"/><path d="M158,425L158,424L157,425L158,425Z M155,424L156,421L154,423L155,424Z M183,423L183,420L182,421L183,423Z M150,390L151,392L151,392L150,390Z M148,387L147,386L148,388L148,387Z M144,386L143,384L143,385L144,386Z M207,386L207,386L211,381L211,381L215,376L216,375L216,375L215,373L212,375L206,373L206,371L200,370L200,367L201,363L197,358L197,351L191,351L186,352L187,348L186,347L191,337L193,337L196,331L197,328L196,319L192,315L192,313L186,312L186,312L185,313L182,317L183,322L180,320L175,321L169,325L166,326L166,331L161,338L162,340L155,350L150,348L150,355L146,365L142,366L142,367L142,367L141,373L138,372L139,377L139,378L142,382L145,382L151,390L148,391L151,396L152,394L155,403L157,409L156,411L153,418L152,422L154,422L157,419L156,424L162,426L164,425L166,422L174,419L177,415L180,415L181,420L184,421L183,425L187,442L190,449L197,449L196,444L192,440L188,432L192,431L192,425L193,423L191,416L185,408L182,402L185,402L189,391L196,391L197,388L201,388L201,386L206,386L207,386Z " data-iso="MMR"/><path d="M314,105L308,106L304,104L298,105L287,113L277,116L270,116L266,116L262,113L262,111L253,107L245,106L236,109L228,105L228,104L217,95L214,94L209,91L205,94L202,100L203,104L203,109L197,112L184,109L182,108L180,103L173,101L169,99L168,100L158,104L155,104L152,107L149,108L142,108L140,111L140,111L140,111L140,116L143,120L148,123L152,126L154,133L155,142L152,147L155,151L170,154L179,162L186,175L187,177L192,177L208,179L222,180L237,187L242,186L243,188L248,187L258,182L267,180L276,179L283,176L291,164L290,163L291,154L302,155L307,150L307,149L315,147L322,137L324,137L324,135L333,132L339,131L333,123L327,121L324,122L321,124L315,124L313,126L310,124L311,121L314,107L314,106L314,105Z " data-iso="MNG"/><path d="M109,307L103,307L97,304L96,305L91,301L88,300L80,293L79,289L75,289L68,280L65,276L60,275L57,276L57,276L56,275L51,278L47,286L49,289L55,293L59,298L65,301L70,305L75,306L81,308L97,319L100,320L109,316L109,312L110,308L110,308L109,307Z " data-iso="NPL"/><path d="M1,261L3,258L10,254L11,248L16,242L15,242L11,233L14,226L12,223L14,220L17,220L27,225L34,225L38,223L38,223L38,222L37,219L37,218L37,217L37,217L34,214L33,207L25,200L25,200L24,200L20,200L11,197L8,197L0,200L0,206L0,206L0,206L0,261L1,261Z " data-iso="PAK"/><path d="M414,443L414,442L414,443L414,443Z M444,449L440,441L441,439L437,436L431,438L433,442L436,444L436,446L439,449L444,449Z M424,442L419,440L420,445L422,443L427,445L427,444L424,442Z M411,442L410,442L411,442L411,442Z M419,437L416,435L416,436L419,437Z M395,436L392,437L396,440L397,442L400,446L404,442L403,438L400,435L395,436Z M391,434L390,434L391,434L391,434Z M428,428L427,424L426,429L428,428Z M406,420L404,420L405,421L406,420Z M393,388L390,389L388,398L389,403L389,410L390,411L385,411L388,424L391,426L393,423L397,425L394,429L394,431L400,433L405,430L407,431L413,435L411,429L412,429L418,432L419,435L423,436L425,435L426,438L427,434L421,429L424,427L419,426L418,428L415,426L406,429L402,423L403,423L400,416L401,412L404,409L408,399L404,394L404,389L403,387L401,390L393,388Z M400,384L400,383L399,385L400,384Z M394,383L394,383L394,384L394,383Z M399,371L398,370L398,371L399,371Z M397,367L397,366L397,367L397,367Z " data-iso="PHL"/><path d="M387,189L387,189L387,190L387,189Z M383,186L385,189L386,188L391,189L391,191L391,195L392,197L389,203L393,202L395,205L397,202L403,202L404,202L405,197L414,191L413,191L408,188L405,188L405,182L414,173L417,167L414,162L416,157L419,154L419,153L419,153L417,152L417,151L417,151L412,148L412,154L409,157L403,162L405,167L398,167L396,165L394,167L394,169L392,175L386,181L383,186L383,186Z " data-iso="PRK"/><path d="M450,34L441,21L438,20L437,22L441,29L439,30L441,33L445,43L450,47L450,34Z M409,27L408,27L409,29L409,27Z M413,25L410,25L413,30L414,26L413,25Z M0,32L4,32L8,26L13,29L13,28L10,24L14,18L27,23L38,24L48,27L52,25L60,27L65,29L64,36L62,40L69,43L73,46L71,51L76,52L83,49L92,48L89,52L93,60L98,86L103,82L105,84L106,88L112,90L119,89L120,91L121,96L123,97L125,103L131,106L134,104L133,106L137,110L137,111L137,111L137,111L138,111L139,111L140,111L140,111L142,108L149,108L152,107L155,104L158,104L168,100L169,99L173,101L180,103L182,108L184,109L197,112L203,109L203,104L202,100L205,94L209,91L214,94L217,95L228,104L228,105L236,109L245,106L253,107L262,111L262,113L266,116L270,116L277,116L287,113L298,105L304,104L308,106L314,105L314,106L316,106L322,107L329,101L328,98L331,86L333,82L328,75L331,71L339,66L358,66L367,75L370,81L374,84L377,91L380,93L386,92L392,93L398,96L401,101L404,104L413,101L415,96L420,92L426,96L425,99L425,109L426,111L424,119L425,123L424,124L417,124L415,127L419,146L417,151L417,151L417,152L419,153L419,153L419,153L423,142L426,141L427,144L433,144L443,132L444,129L444,123L446,118L450,103L450,67L448,61L445,58L443,48L444,44L436,36L438,35L437,32L432,32L425,28L423,30L420,30L422,37L416,40L417,36L413,39L410,32L405,34L401,34L402,29L406,19L407,12L410,0L0,0L0,32Z M268,58L268,64L268,67L268,70L268,71L266,74L266,76L266,76L264,74L263,77L265,77L265,78L262,81L262,81L260,84L258,85L254,87L254,89L252,88L251,89L251,91L250,92L249,94L248,95L243,97L239,96L236,95L237,95L242,94L244,93L247,91L248,88L249,87L252,85L254,82L253,82L255,80L257,78L258,77L260,74L261,73L263,66L264,64L265,63L265,61L265,58L267,56L268,56L269,57L268,58Z " data-iso="RUS"/><path d="M252,441L253,441L256,435L254,426L251,424L249,422L249,414L241,405L236,404L233,407L232,408L227,408L224,406L215,412L216,406L217,399L214,393L209,392L210,387L207,387L207,386L206,386L201,386L201,388L197,388L196,391L189,391L185,402L182,402L185,408L191,416L193,423L192,425L192,431L188,432L192,440L196,444L197,449L206,449L210,449L210,448L212,449L226,449L228,448L233,442L251,441L252,441L252,441Z " data-iso="THA"/><path d="M8,165L6,165L6,165L8,165Z M11,162L10,162L8,162L8,159L11,158L10,154L0,158L1,160L4,160L11,163L11,162Z M28,199L28,199L30,197L29,195L31,188L29,185L24,184L26,176L26,176L25,176L19,174L16,175L12,170L12,170L0,165L0,180L6,182L5,184L7,186L4,191L4,195L12,195L14,194L19,193L27,197L28,198L28,199Z " data-iso="TJK"/><path d="M363,338L362,338L363,338L363,338Z M387,351L390,343L392,332L391,330L387,326L384,329L382,335L379,344L379,348L381,352L387,358L387,351Z " data-iso="TWN"/><path d="M11,166L10,164L10,165L11,166Z M11,162L11,162L16,165L19,163L27,162L16,155L15,147L19,146L18,144L17,144L17,145L13,145L10,146L0,149L0,158L10,154L11,158L8,159L8,162L10,162L11,162Z " data-iso="UZB"/><path d="M266,381L266,380L265,381L266,381Z M273,377L271,377L271,378L273,377Z M276,374L265,370L263,367L265,363L264,362L257,362L256,361L248,361L247,363L244,364L242,364L240,366L238,364L225,367L225,367L225,368L232,374L231,378L234,382L239,383L244,382L244,385L247,386L249,389L246,393L242,394L241,396L251,401L252,404L264,418L265,420L272,425L270,427L274,436L274,437L274,438L273,443L273,444L275,449L291,449L291,444L286,430L283,429L278,422L276,421L266,413L263,408L258,403L256,399L259,390L265,382L265,380L268,379L275,375L276,374Z " data-iso="VNM"/></g><g class="" id="regions"><path d="M187,177L187,177L187,177L184,179L183,184L177,185L173,186L163,196L161,196L160,208L160,208L160,208L171,207L178,211L181,213L185,216L188,217L192,211L196,214L202,212L204,213L207,216L210,219L211,217L215,221L222,226L225,226L225,227L229,230L228,232L230,234L231,238L232,239L230,245L227,247L227,248L224,253L223,253L225,257L223,259L216,256L216,260L218,263L223,264L223,264L223,264L224,265L223,268L228,264L227,263L232,257L235,262L241,263L245,272L249,272L252,269L252,270L253,270L255,268L254,265L256,263L257,263L259,262L260,257L261,256L259,252L260,249L267,250L268,246L275,245L274,241L275,236L264,231L264,230L264,230L260,229L258,236L259,238L261,239L262,242L258,243L258,247L255,245L254,245L253,243L250,242L251,239L249,233L243,228L242,228L242,228L237,224L235,224L235,218L241,212L238,209L234,210L228,211L225,212L225,214L222,216L220,215L217,212L216,209L214,209L207,204L212,197L211,195L209,195L203,196L198,198L199,195L196,191L195,189L196,188L192,177L187,177Z " data-fips="CH15" data-fips-="" data-iso3="CHN" data-name="Gansu" data-p="GS"/><path d="M223,264L218,263L216,260L216,256L223,259L225,257L223,253L224,253L227,248L227,247L230,245L232,239L231,238L230,234L228,232L229,230L225,227L225,226L222,226L215,221L211,217L210,219L207,216L204,213L202,212L196,214L192,211L188,217L185,216L181,213L178,211L171,207L160,208L160,208L160,208L152,209L139,212L140,218L144,222L145,223L143,227L142,227L141,230L143,231L143,235L141,235L135,232L132,233L132,233L131,240L130,240L132,245L130,253L133,258L142,261L152,267L157,269L160,270L166,269L170,273L172,275L172,278L181,279L183,277L185,277L188,272L191,272L191,272L189,268L189,263L189,260L195,259L197,260L207,271L207,269L214,273L218,272L218,267L220,267L223,265L223,264L223,264Z " data-fips="" data-fips-="" data-iso3="CHN" data-name="Qinghai" data-p=""/><path d="M286,378L286,378L286,378L286,378Z M287,332L286,332L285,335L283,334L281,337L280,337L276,339L276,340L266,338L266,340L264,341L259,344L256,346L253,344L250,343L247,347L246,345L245,346L245,346L247,348L251,349L251,351L258,351L260,353L258,357L257,357L254,360L254,360L262,362L265,363L263,366L265,370L267,372L272,374L276,374L279,372L280,373L283,372L287,375L290,372L291,373L291,373L293,370L297,370L296,367L300,366L300,363L305,358L304,356L308,349L309,342L309,342L309,342L306,342L305,343L302,339L302,337L303,332L301,332L302,329L296,329L293,331L287,332L287,332Z " data-fips="CH16" data-fips-="" data-iso3="CHN" data-name="Guangxi" data-p="GX"/><path d="M283,309L282,312L279,311L278,309L277,308L275,304L268,304L269,306L264,307L262,310L261,307L260,310L260,310L260,310L257,308L254,310L254,312L259,315L259,317L251,318L251,318L251,318L246,322L244,321L238,325L240,329L242,328L245,328L245,331L243,337L247,341L245,346L245,346L246,345L247,347L250,343L253,344L256,346L259,344L264,341L266,340L266,338L276,340L276,339L280,337L281,337L283,334L285,335L286,332L287,332L286,331L285,329L286,325L287,324L286,322L281,323L285,316L284,315L284,309L284,309L283,309Z " data-fips="CH18" data-fips-="" data-iso3="CHN" data-name="Guizhou" data-p="GZ"/><path d="M284,279L280,277L278,276L276,275L276,275L275,275L276,279L272,287L268,289L266,294L265,296L262,296L261,294L258,294L255,292L253,296L254,298L252,299L251,302L254,303L257,306L258,306L260,309L260,310L260,310L261,307L262,310L264,307L269,306L268,304L275,304L277,308L278,309L279,311L282,312L283,309L284,309L284,309L284,308L284,307L283,304L283,304L282,303L280,299L278,297L276,298L276,291L280,290L283,290L287,287L289,287L289,282L286,280L285,279L284,279L284,279Z " data-fips="CH33" data-fips-="CH18|CH32" data-iso3="CHN" data-name="Chongqing" data-p="CQ"/><path d="M333,193L332,191L328,188L326,188L327,189L322,192L323,194L320,198L323,202L330,200L331,200L331,200L331,200L331,200L331,199L331,199L331,199L330,197L330,197L332,195L333,195L333,195L334,194L334,194L334,193L333,193Z " data-fips="CH22" data-fips-="" data-iso3="CHN" data-name="Beijing" data-p="BJ"/><path d="M356,346L356,347L356,346L356,346Z M361,338L360,338L361,338L361,338Z M369,328L370,327L369,327L369,328Z M373,326L373,326L373,326L373,326Z M369,323L368,322L368,323L369,323Z M371,322L371,321L371,321L371,322Z M359,303L358,303L354,308L350,309L348,316L345,318L346,321L341,334L341,337L341,337L342,337L346,337L347,339L349,338L351,342L352,346L354,347L354,347L359,341L358,339L360,337L362,337L367,333L366,331L370,329L369,327L371,326L372,322L370,323L371,320L373,318L370,315L374,314L373,317L375,316L374,312L375,309L376,310L376,310L376,309L363,309L363,307L359,303L359,303Z " data-fips="CH07" data-fips-="" data-iso3="CHN" data-name="Fujian" data-p="FJ"/><path d="M364,275L361,274L358,275L357,271L353,269L355,265L354,264L356,262L359,262L356,259L354,261L352,262L350,258L348,257L349,253L346,253L346,252L339,248L334,246L334,246L334,247L333,247L333,247L333,247L333,247L333,248L337,252L333,254L330,253L328,260L326,264L334,271L330,277L330,277L330,278L333,279L335,281L336,286L338,291L338,292L339,292L342,288L344,289L345,292L348,290L350,291L355,292L355,293L356,292L360,287L360,283L362,283L364,276L364,275L364,275Z " data-fips="CH01" data-fips-="" data-iso3="CHN" data-name="Anhui" data-p="AH"/><path d="M299,379L299,378L299,378L299,379Z M297,377L298,378L298,377L297,377Z M298,376L298,376L299,376L298,376Z M316,370L316,370L316,370L316,370Z M322,367L322,367L321,367L322,367Z M322,365L322,365L322,365L322,365Z M353,349L353,349L352,349L353,349Z M309,342L309,342L308,349L304,356L305,358L300,363L300,366L296,367L297,370L293,370L291,373L291,373L291,379L293,383L297,384L298,382L296,377L297,374L301,374L302,372L308,372L310,368L314,369L319,366L320,365L324,364L323,359L324,358L327,361L330,360L333,361L339,356L340,357L349,354L350,350L354,347L354,347L352,346L351,342L349,338L347,339L346,337L342,337L341,337L341,337L341,339L338,339L329,342L328,340L331,336L330,334L326,335L325,334L324,334L324,334L319,334L317,336L316,340L313,338L310,338L309,342L309,342Z " data-fips="CH30" data-fips-="" data-iso3="CHN" data-name="Guangdong" data-p="GD"/><path d="M132,233L135,232L141,235L143,235L143,231L141,230L142,227L143,227L145,223L144,222L140,218L139,212L152,209L160,208L160,208L160,208L161,196L163,196L173,186L177,185L183,184L184,179L187,177L187,177L186,175L184,172L181,162L179,162L174,158L172,157L165,153L161,153L153,150L152,147L152,145L155,142L153,127L149,125L148,123L145,123L139,114L140,111L133,111L132,113L126,116L123,119L122,127L117,128L112,126L107,123L98,137L100,138L99,140L94,138L88,138L83,138L82,140L84,142L83,146L83,156L80,157L77,161L77,165L74,165L64,168L60,171L56,170L52,168L47,173L45,173L42,169L38,170L32,171L30,171L27,176L26,176L25,185L30,186L31,188L29,195L30,198L24,199L31,204L34,208L37,216L41,220L44,220L45,223L46,230L51,233L56,234L62,226L74,230L78,227L82,229L82,230L86,232L91,233L98,231L101,232L105,231L107,229L124,229L129,231L132,233Z " data-fips="CH13" data-fips-="" data-iso3="CHN" data-name="Xinjiang Uygur" data-p="XJ"/><path d="M266,223L258,219L259,218L259,209L255,212L252,221L250,224L243,227L242,228L243,228L249,233L251,239L250,242L253,243L254,245L255,245L258,247L258,243L262,242L261,239L259,238L258,236L260,229L264,230L264,230L264,230L264,225L266,224L266,223L266,223L266,223Z " data-fips="CH21" data-fips-="" data-iso3="CHN" data-name="Ningxia Hui" data-p="NX"/><path d="M290,207L290,205L287,208L284,207L280,211L276,217L276,222L271,225L269,225L267,223L266,223L266,223L266,224L264,225L264,230L264,230L264,231L275,236L274,241L275,245L268,246L267,250L260,249L259,252L261,256L260,257L259,262L257,263L256,263L254,265L255,268L253,270L252,270L252,270L253,271L256,270L257,272L264,271L264,273L268,274L272,276L276,275L276,275L276,275L278,276L280,277L284,279L284,279L284,279L285,276L283,273L285,271L288,270L288,269L283,265L294,264L294,264L294,263L291,258L291,256L288,252L288,252L288,252L290,243L287,230L289,227L289,222L287,220L287,218L289,216L290,207L290,207L290,207Z " data-fips="CH26" data-fips-="" data-iso3="CHN" data-name="Shaanxi" data-p="SA"/><path d="M312,233L310,231L311,229L314,221L309,214L310,210L314,206L315,203L310,199L314,195L312,195L311,192L311,192L310,192L310,194L307,196L298,198L294,204L293,204L291,207L290,207L290,207L289,216L287,218L287,220L289,222L289,227L287,230L290,243L288,252L288,252L289,252L291,252L294,249L296,249L301,245L308,244L312,240L312,233L312,233L312,233Z " data-fips="CH24" data-fips-="" data-iso3="CHN" data-name="Shanxi" data-p="SX"/><path d="M330,277L324,277L324,275L319,276L318,275L316,270L314,271L312,270L304,271L299,270L294,264L294,264L294,264L283,265L288,269L288,270L285,271L283,273L285,276L284,279L284,279L285,279L286,280L289,282L289,287L287,287L283,290L280,290L276,291L276,298L278,297L280,299L282,303L283,304L283,303L286,299L290,297L292,294L296,294L303,294L307,297L313,296L313,297L315,297L316,294L318,295L319,297L318,299L321,300L321,300L322,299L325,298L328,297L335,291L336,292L338,292L338,292L338,291L336,286L335,281L333,279L330,278L330,277L330,277Z " data-fips="CH12" data-fips-="" data-iso3="CHN" data-name="Hubei" data-p="HU"/><path d="M321,300L318,299L319,297L318,295L316,294L315,297L313,297L313,296L307,297L303,294L296,294L292,294L290,297L286,299L283,303L283,304L283,304L284,307L284,308L284,309L284,309L284,309L284,315L285,316L281,323L286,322L287,324L286,325L285,329L286,331L287,332L287,332L293,331L296,329L302,329L301,332L303,332L302,337L302,339L305,343L306,342L309,342L309,342L309,342L310,338L313,338L316,340L317,336L319,334L324,334L324,334L325,334L325,323L323,323L322,316L320,317L320,314L321,311L322,310L323,304L321,301L321,300L321,300Z " data-fips="CH11" data-fips-="" data-iso3="CHN" data-name="Hunan" data-p="HN"/><path d="M252,269L249,272L245,272L241,263L235,262L232,257L227,263L228,264L223,268L224,265L223,264L223,264L223,265L220,267L218,267L218,272L214,273L207,269L207,271L197,260L195,259L189,260L189,263L189,268L191,272L191,272L195,275L196,278L197,281L199,284L198,284L200,289L201,303L201,303L200,307L202,313L204,309L206,310L208,314L210,318L213,316L216,323L223,333L232,331L231,325L232,321L233,321L236,318L236,315L238,313L239,310L243,310L243,312L246,317L249,314L251,315L251,317L251,318L251,318L259,317L259,315L254,312L254,310L257,308L260,310L260,310L260,309L258,306L257,306L254,303L251,302L252,299L254,298L253,296L255,292L258,294L261,294L262,296L265,296L266,294L268,289L272,287L276,279L275,275L276,275L276,275L272,276L268,274L264,273L264,271L257,272L256,270L253,271L252,270L252,270L252,269Z " data-fips="CH32" data-fips-="CH27" data-iso3="CHN" data-name="Sichuan" data-p="SC"/><path d="M200,303L199,307L198,305L196,311L195,312L194,311L193,319L194,318L196,319L197,327L195,332L195,335L193,337L191,337L191,338L187,343L186,347L187,350L185,352L190,351L197,351L195,354L197,357L197,359L202,361L200,363L201,365L199,369L205,370L207,375L211,376L216,373L216,376L218,378L221,379L221,373L220,371L226,367L238,364L241,366L242,364L247,363L248,360L251,359L254,360L254,360L257,357L258,357L260,353L258,351L251,351L251,349L247,348L245,346L245,346L245,346L247,341L243,337L245,331L245,328L242,328L240,329L238,325L244,321L246,322L251,318L251,318L251,317L251,315L249,314L246,317L243,312L243,310L239,310L238,313L236,315L236,318L233,321L232,321L231,325L232,331L223,333L216,323L213,316L210,318L208,314L206,310L204,309L202,313L200,307L201,303L200,303Z " data-fips="CH29" data-fips-="" data-iso3="CHN" data-name="Yunnan" data-p="YN"/><path d="M345,182L339,182L338,181L335,173L333,171L327,174L328,177L323,180L320,180L317,183L314,179L308,186L308,189L310,192L311,192L311,192L312,195L314,195L310,199L315,203L314,206L310,210L309,214L314,221L311,229L310,231L312,233L312,233L312,233L315,233L322,235L325,234L326,233L325,233L324,230L332,219L340,211L340,211L339,210L338,210L337,208L337,208L334,208L331,207L332,204L331,200L331,200L330,200L323,202L320,198L323,194L322,192L327,189L326,188L328,188L332,191L333,193L334,193L334,193L336,199L338,199L340,202L340,202L342,203L347,202L351,193L351,193L348,188L343,186L345,182L345,182L345,182Z " data-fips="CH10" data-fips-="" data-iso3="CHN" data-name="Hebei" data-p="HB"/><path d="M325,234L322,235L315,233L312,233L312,233L312,233L312,240L308,244L301,245L296,249L294,249L291,252L289,252L288,252L288,252L291,256L291,258L294,263L294,264L294,264L299,270L304,271L312,270L314,271L316,270L318,275L319,276L324,275L324,277L330,277L330,277L330,277L334,271L326,264L328,260L330,253L333,254L337,252L333,248L333,247L332,247L330,248L327,247L322,243L324,241L329,235L329,234L325,235L326,233L326,233L325,234Z " data-fips="CH09" data-fips-="" data-iso3="CHN" data-name="Henan" data-p="HE"/><path d="M373,195L371,195L372,196L373,195Z M364,196L364,196L364,196L364,196Z M364,196L362,196L362,196L364,196Z M371,156L371,156L371,159L369,160L366,163L363,163L364,164L361,165L360,167L357,167L355,170L354,170L350,177L349,174L345,171L344,172L345,177L346,181L345,182L345,182L343,186L348,188L351,193L352,193L354,191L357,185L364,182L365,183L363,192L364,195L366,196L362,201L363,202L369,198L370,195L373,192L378,188L382,187L383,185L386,180L386,180L390,176L390,176L390,173L385,167L385,164L381,161L379,157L377,160L371,155L371,156L371,156Z " data-fips="CH19" data-fips-="" data-iso3="CHN" data-name="Liaoning" data-p="LN"/><path d="M361,210L360,210L360,210L361,210Z M361,210L361,210L361,210L361,210Z M340,211L332,219L324,230L325,233L326,233L326,233L325,235L329,234L329,235L324,241L322,243L327,247L330,248L332,247L333,247L333,247L333,247L333,247L334,247L334,246L334,246L337,243L340,246L344,247L347,244L350,246L350,243L352,243L352,240L355,239L356,239L357,236L364,227L365,223L371,219L374,218L376,217L376,213L372,212L369,213L362,211L360,213L353,220L351,220L349,218L349,213L347,211L342,212L341,211L340,211Z M361,207L361,207L361,207L361,207Z " data-fips="CH25" data-fips-="" data-iso3="CHN" data-name="Shandong" data-p="SD"/><path d="M331,199L333,199L333,197L333,195L333,195L332,195L330,197L330,197L331,199L331,199L331,199Z " data-fips="CH22" data-fips-="CH28" data-iso3="CHN" data-name="Tianjin" data-p="TJ"/><path d="M334,193L334,194L334,194L333,195L333,195L333,195L333,197L333,199L331,199L331,199L331,199L331,200L331,200L331,200L331,200L331,200L332,204L331,207L334,208L337,208L337,208L338,203L340,202L340,202L338,199L336,199L334,193L334,193Z " data-fips="CH28" data-fips-="" data-iso3="CHN" data-name="Tianjin" data-p="TJ"/><path d="M355,292L350,291L348,290L345,292L344,289L342,288L339,292L338,292L338,292L336,292L335,291L328,297L325,298L322,299L321,300L321,301L323,304L322,310L321,311L320,314L320,317L322,316L323,323L325,323L325,334L324,334L325,334L326,335L330,334L331,336L328,340L329,342L338,339L341,339L341,337L341,337L341,337L341,334L346,321L345,318L348,316L350,309L354,308L358,303L359,303L359,302L355,296L354,295L355,293L355,293L355,292Z " data-fips="CH03" data-fips-="" data-iso3="CHN" data-name="Jiangxi" data-p="JX"/><path d="M365,266L364,265L364,265L365,266Z M355,239L352,240L352,243L350,243L350,246L347,244L344,247L340,246L337,243L334,246L334,246L334,246L339,248L346,252L346,253L349,253L348,257L350,258L352,262L354,261L356,259L359,262L356,262L354,264L355,265L353,269L357,271L358,275L361,274L364,275L364,275L364,275L367,275L372,277L374,274L374,274L374,274L375,272L376,270L377,269L377,269L370,265L367,267L366,266L369,265L381,266L380,264L376,262L376,261L371,259L371,256L364,245L359,243L355,239L355,239Z " data-fips="CH04" data-fips-="" data-iso3="CHN" data-name="Jiangsu" data-p="JS"/><path d="M381,270L379,269L379,269L381,270Z M374,274L375,274L376,275L376,276L378,277L378,276L380,275L382,274L381,271L377,269L377,269L376,270L375,272L374,274L374,274Z M381,268L376,266L378,268L381,268Z " data-fips="CH23" data-fips-="" data-iso3="CHN" data-name="Shanghai" data-p="SH"/><path d="M381,302L380,302L381,302L381,302Z M381,300L381,301L381,301L381,300Z M385,290L384,290L385,290L385,290Z M386,290L385,290L385,290L386,290Z M387,283L387,283L387,283L387,283Z M385,283L384,282L384,282L385,283Z M384,282L383,281L383,281L384,282Z M386,281L385,282L386,282L386,281Z M386,279L385,278L385,279L386,279Z M387,274L387,274L387,275L387,274Z M364,275L364,276L362,283L360,283L360,287L356,292L355,293L355,293L354,295L355,296L359,302L359,303L359,303L363,307L363,309L376,309L376,310L376,310L380,299L382,300L383,296L382,295L384,292L382,291L382,289L385,289L385,285L383,286L384,283L382,282L378,280L374,283L372,280L375,279L378,277L378,277L376,276L376,275L375,274L374,274L374,274L372,277L367,275L364,275L364,275Z " data-fips="CH02" data-fips-="" data-iso3="CHN" data-name="Zhejiang" data-p="ZJ"/><path d="M361,131L361,131L359,136L353,136L352,138L357,141L356,142L357,147L359,150L362,149L364,146L369,153L369,156L370,156L371,156L371,156L371,155L377,160L379,157L381,161L385,164L385,167L390,173L390,176L390,176L392,175L395,166L405,166L405,165L403,161L408,159L410,155L411,155L412,149L413,148L415,151L417,149L420,147L419,141L419,141L417,142L411,138L405,143L404,145L399,141L398,139L395,143L391,138L389,138L386,135L384,134L374,135L371,136L369,135L367,132L366,129L361,131L361,131Z " data-fips="CH05" data-fips-="" data-iso3="CHN" data-name="Jilin" data-p="JL"/><path d="M192,177L196,188L195,189L196,191L199,195L198,198L203,196L209,195L211,195L212,197L207,204L214,209L216,209L217,212L220,215L222,216L225,214L225,212L228,211L234,210L238,209L241,212L235,218L235,224L237,224L242,228L242,228L243,227L250,224L252,221L255,212L259,209L259,218L258,219L266,223L266,223L267,223L269,225L271,225L276,222L276,217L280,211L284,207L287,208L290,205L290,207L290,207L291,207L293,204L294,204L298,198L307,196L310,194L310,192L311,192L310,192L308,189L308,186L314,179L317,183L320,180L323,180L328,177L327,174L333,171L335,173L338,181L339,182L345,182L345,182L346,181L345,177L344,172L345,171L349,174L350,177L354,170L355,170L357,167L360,167L361,165L364,164L363,163L366,163L369,160L371,159L371,156L371,156L370,156L369,156L369,153L364,146L362,149L359,150L357,147L356,142L357,141L352,138L353,136L359,136L361,131L361,131L360,130L360,128L362,125L360,126L355,124L354,121L357,116L358,115L362,108L364,112L363,108L364,102L366,101L364,95L365,89L366,88L361,80L359,79L358,82L351,85L347,84L345,81L344,77L342,76L339,78L335,76L334,69L334,69L328,77L332,79L333,82L329,94L328,102L326,103L322,107L314,106L311,119L311,121L310,122L313,126L314,125L318,124L322,125L324,122L328,121L334,125L339,130L338,132L329,133L327,135L324,135L324,137L321,137L317,145L313,148L307,150L302,155L299,155L294,153L290,154L289,157L289,161L292,165L290,168L286,171L283,176L280,177L258,182L247,187L246,189L243,188L243,186L237,187L233,185L225,183L220,180L212,178L208,179L192,177L192,177Z " data-fips="CH20" data-fips-="" data-iso3="CHN" data-name="Nei Mongol" data-p="NM"/><path d="M334,69L335,76L339,78L342,76L344,77L345,81L347,84L351,85L358,82L359,79L361,80L366,88L365,89L364,95L366,101L364,102L363,108L364,112L362,108L358,115L357,116L354,121L355,124L360,126L362,125L360,128L360,130L361,131L361,131L366,129L367,132L369,135L371,136L374,135L384,134L386,135L389,138L391,138L395,143L398,139L399,141L404,145L405,143L411,138L417,142L419,141L418,141L417,136L413,130L418,124L424,124L425,113L425,106L424,100L426,96L424,93L421,91L413,98L413,101L406,103L404,104L401,101L401,99L397,95L396,95L389,92L382,93L379,92L377,90L377,88L375,87L373,84L370,81L365,73L361,69L361,68L354,65L353,66L344,64L342,66L337,67L334,69L334,69Z " data-fips="CH08" data-fips-="" data-iso3="CHN" data-name="Heilongjiang" data-p="HL"/></g></svg>