<?xml version="1.0" encoding="UTF-8"?><!DOCTYPE svg  PUBLIC '-//W3C//DTD SVG 1.1//EN'  'http://www.w3.org/Graphics/SVG/1.1/DTD/svg11.dtd'><svg enable_background="new 0 0 450 301" height="301px" style="stroke-linejoin: round; stroke:#000; fill:#f6f3f0;" version="1.1" viewBox="0 0 450 301" width="450px" xmlns="http://www.w3.org/2000/svg" xmlns:xlink="http://www.w3.org/1999/xlink"><defs><style type="text/css"><![CDATA[path { fill-rule: evenodd; }
#context path { fill: #eee; stroke: #bbb; } ]]></style></defs><metadata><views><view h="301.0" padding="0.06" w="450"><proj id="laea" lat0="9.6279914412" lon0="-5.59008650162"/><bbox h="87.68" w="83.79" x="958.36" y="981.94"/><llbbox lat0="-90" lat1="90" lon0="-180" lon1="180"/></view></views></metadata><g id="context"><path d="M227,28L229,31L233,33L238,32L244,36L249,44L250,49L256,53L260,56L264,58L268,57L276,61L279,57L283,55L299,49L307,49L322,50L325,52L328,56L332,59L334,62L339,70L343,68L344,67L344,65L341,60L341,56L342,54L342,49L340,42L340,37L338,26L335,21L335,15L341,4L389,3L392,2L404,3L412,2L418,3L426,3L435,2L436,0L231,0L228,2L230,13L228,26L227,28Z " data-iso="BFA"/><path d="M324,250L322,251L328,252L329,251L324,250Z M125,39L124,40L119,45L118,47L118,67L123,71L128,70L127,80L133,84L127,89L126,97L133,99L136,103L137,106L137,113L133,112L131,110L122,109L115,109L113,119L115,120L122,123L123,124L118,135L119,140L114,148L106,146L103,148L104,149L111,169L109,180L107,184L98,192L103,195L105,194L111,200L115,202L124,202L128,204L132,212L132,215L134,217L138,218L144,221L146,221L147,229L147,242L145,246L144,252L141,253L140,264L141,282L142,283L147,282L155,278L162,275L168,271L171,270L184,266L211,256L225,253L246,251L244,249L233,250L237,247L248,248L250,250L253,250L263,249L289,246L286,245L265,246L268,244L276,244L286,243L291,244L296,247L318,251L320,249L323,242L326,241L326,247L332,250L332,250L335,251L341,249L342,242L343,238L341,231L334,229L332,222L324,199L322,191L323,180L325,174L331,167L333,161L334,153L336,143L341,132L349,126L348,124L353,121L350,109L346,89L345,86L342,86L342,83L345,76L345,69L344,67L343,68L339,70L334,62L332,59L328,56L325,52L322,50L307,49L299,49L283,55L279,57L276,61L268,57L264,58L260,56L256,53L250,49L249,44L244,36L238,32L233,33L229,31L227,28L226,27L220,28L214,30L211,33L206,38L197,35L199,29L196,15L190,18L190,22L184,21L180,18L179,24L179,29L178,31L168,31L164,40L161,37L151,35L150,31L145,27L138,28L135,31L132,36L126,39L125,39Z " data-iso="CIV"/><path d="M344,67L345,69L345,76L342,83L342,86L345,86L346,89L350,109L353,121L348,124L349,126L341,132L336,143L334,153L333,161L331,167L325,174L323,180L322,191L324,199L332,222L334,229L341,231L343,238L342,242L341,249L335,251L332,250L329,251L328,252L329,252L334,254L344,255L358,259L364,261L371,266L375,266L384,261L390,256L396,254L414,248L425,246L430,242L438,238L444,234L450,232L450,0L436,0L435,2L426,3L418,3L412,2L404,3L392,2L389,3L341,4L335,15L335,21L338,26L340,37L340,42L342,49L342,54L341,56L341,60L344,65L344,67Z " data-iso="GHA"/><path d="M29,108L31,108L34,107L38,111L49,107L55,109L55,111L61,115L67,142L65,150L62,154L67,154L71,156L76,161L86,160L93,151L94,144L96,143L102,147L103,148L106,146L114,148L119,140L118,135L123,124L122,123L115,120L113,119L115,109L122,109L131,110L133,112L137,113L137,106L136,103L133,99L126,97L127,89L133,84L127,80L128,70L123,71L118,67L118,47L119,45L124,40L125,39L125,36L124,32L115,27L113,25L111,14L112,5L105,1L98,4L98,0L0,0L0,56L10,70L12,73L10,81L15,84L16,92L20,101L14,106L11,114L17,115L24,108L26,108L29,108Z " data-iso="GIN"/><path d="M142,283L141,282L140,264L141,253L144,252L145,246L147,242L147,229L146,221L144,221L138,218L134,217L132,215L132,212L128,204L124,202L115,202L111,200L105,194L103,195L98,192L107,184L109,180L111,169L104,149L103,148L102,147L96,143L94,144L93,151L86,160L76,161L71,156L67,154L62,154L65,150L67,142L61,115L55,111L55,109L49,107L38,111L34,107L31,108L29,108L29,110L27,116L24,122L19,123L17,126L13,139L11,140L4,148L0,150L0,191L4,193L7,200L15,204L22,206L28,210L54,234L65,245L76,253L112,273L123,277L137,283L142,283Z " data-iso="LBR"/><path d="M125,39L126,39L132,36L135,31L138,28L145,27L150,31L151,35L161,37L164,40L168,31L178,31L179,29L179,24L180,18L184,21L190,22L190,18L196,15L199,29L197,35L206,38L211,33L214,30L220,28L226,27L227,28L228,26L230,13L228,2L231,0L98,0L98,4L105,1L112,5L111,14L113,25L115,27L124,32L125,36L125,39Z " data-iso="MLI"/><path d="M29,108L26,108L24,108L17,115L11,114L14,106L20,101L16,92L15,84L10,81L12,73L10,70L0,56L0,150L4,148L11,140L13,139L17,126L19,123L24,122L27,116L29,110L29,108Z " data-iso="SLE"/></g><g fill="red" fill-opacity="0.35" id="regions"><path d="M179,30L181,35L183,36L183,39L179,41L176,41L175,40L171,41L169,48L174,48L177,52L176,54L176,57L174,64L176,68L175,69L175,75L176,77L176,82L176,83L178,83L178,85L182,85L183,84L184,81L185,82L188,85L193,79L196,79L198,82L197,85L198,88L200,90L209,103L218,106L223,108L224,107L222,104L220,104L220,100L219,98L223,95L227,94L230,93L229,89L230,87L228,85L230,83L233,74L239,72L240,75L242,75L247,75L250,81L254,84L251,92L267,92L275,96L277,100L281,103L293,104L293,104L293,103L299,97L297,93L294,90L298,87L295,86L296,83L293,81L284,77L283,78L282,71L277,62L277,62L274,63L269,57L267,59L262,59L258,57L257,52L255,51L252,51L250,50L250,46L250,44L246,41L246,38L244,37L244,34L236,33L233,33L229,30L223,27L215,29L212,31L211,34L207,37L203,38L200,37L197,33L200,31L196,24L197,15L189,18L190,22L185,22L180,18L178,26L180,29L179,30Z " data-fips="" data-fips-="" data-iso3="CIV" data-name="Savanes"/><path d="M134,85L138,90L143,94L153,103L155,105L156,107L158,108L157,106L157,101L158,97L157,91L156,90L159,88L169,90L169,87L170,85L175,84L176,83L176,82L176,77L175,75L175,69L176,68L174,64L176,57L176,54L177,52L174,48L169,48L171,41L175,40L176,41L179,41L183,39L183,36L181,35L179,30L179,31L177,31L174,30L167,32L166,36L167,37L165,40L164,40L154,35L151,35L151,32L147,32L146,27L145,26L141,28L139,27L135,30L136,30L131,37L124,40L120,43L118,46L119,52L118,67L122,71L124,71L130,70L127,80L130,81L134,85L134,85Z " data-fips="IV23" data-fips-="" data-iso3="CIV" data-name="Dengul"/><path d="M134,85L131,85L126,89L125,96L126,97L131,98L137,104L137,111L138,114L134,114L131,110L130,112L127,111L126,109L116,109L113,111L113,118L113,119L116,122L120,123L124,122L123,126L125,128L125,129L129,129L133,134L136,136L140,135L142,135L145,133L144,126L144,125L150,125L154,127L157,130L162,130L161,129L161,122L160,120L161,116L159,114L158,109L158,108L156,107L155,105L153,103L143,94L138,90L134,85L134,85Z " data-fips="IV26" data-fips-="" data-iso3="CIV" data-name="Bafing"/><path d="M125,129L121,129L118,135L118,142L112,148L111,147L105,146L103,148L107,154L111,167L112,171L109,181L109,182L105,186L109,189L113,188L113,186L119,180L120,176L124,173L129,176L130,178L140,175L153,174L158,174L162,175L163,175L163,174L163,170L162,165L162,160L162,156L165,153L164,149L166,148L164,146L163,146L162,142L162,142L162,141L161,135L161,134L162,132L162,130L157,130L154,127L150,125L144,125L144,126L145,133L142,135L140,135L136,136L133,134L129,129L125,129L125,129Z " data-fips="IV36" data-fips-="" data-iso3="CIV" data-name="Dix-Huit Montagnes"/><path d="M218,106L209,103L200,90L198,88L197,85L198,82L196,79L193,79L188,85L185,82L184,81L183,84L182,85L178,85L178,83L176,83L175,84L170,85L169,87L169,90L159,88L156,90L157,91L158,97L157,101L157,106L158,108L158,109L159,114L161,116L160,120L161,122L161,129L162,130L162,132L161,134L161,135L162,141L162,142L163,141L165,140L181,139L189,141L195,139L198,143L202,145L203,146L204,145L208,141L211,142L214,141L216,141L216,140L218,135L218,130L226,126L231,126L232,123L234,123L234,118L223,111L227,110L224,109L223,108L218,106Z " data-fips="IV25" data-fips-="" data-iso3="CIV" data-name="Worodougou"/><path d="M221,161L218,156L217,147L216,147L216,142L216,141L214,141L211,142L208,141L204,145L203,146L194,151L188,161L194,163L197,163L198,160L202,161L203,162L210,165L206,167L198,172L198,175L203,190L205,192L218,194L219,193L227,188L229,187L232,187L232,185L227,177L229,170L227,166L224,166L221,162L221,161L221,161Z " data-fips="IV34" data-fips-="" data-iso3="CIV" data-name="Marahou"/><path d="M239,199L236,197L236,189L232,188L232,187L229,187L227,188L219,193L218,194L205,192L205,195L203,198L202,198L198,200L196,200L191,201L190,201L191,208L193,214L195,216L195,219L198,224L201,223L204,225L205,227L205,228L213,219L216,215L217,212L218,206L228,207L236,204L237,205L239,205L240,202L240,201L240,200L240,199L239,199Z " data-fips="IV18" data-fips-="" data-iso3="CIV" data-name="Fromager"/><path d="M202,145L198,143L195,139L189,141L181,139L165,140L163,141L162,142L162,142L163,146L164,146L166,148L164,149L165,153L162,156L162,160L162,165L163,170L163,174L163,175L163,176L163,179L165,180L166,185L165,190L165,191L167,192L166,197L171,203L172,204L178,204L183,201L185,202L189,202L190,201L191,201L196,200L198,200L202,198L203,198L205,195L205,192L203,190L198,175L198,172L206,167L210,165L203,162L202,161L198,160L197,163L194,163L188,161L194,151L203,146L202,145Z " data-fips="" data-fips-="" data-iso3="CIV" data-name="Haut-Sassandra"/><path d="M237,205L236,204L228,207L218,206L217,212L216,215L213,219L205,228L205,228L206,233L214,233L218,245L217,247L213,249L212,251L213,255L213,255L222,254L226,251L228,252L231,252L230,246L231,245L235,248L235,248L235,247L235,247L239,247L239,247L245,247L247,243L247,241L249,234L249,229L251,223L249,219L249,210L247,209L241,208L239,205L237,205Z " data-fips="IV29" data-fips-="" data-iso3="CIV" data-name="Sud-Bandama"/><path d="M165,191L165,191L161,193L160,200L162,214L161,227L148,230L148,230L149,232L147,238L149,243L145,245L144,250L141,257L142,260L140,260L141,282L145,284L153,279L158,276L161,276L171,270L175,269L184,266L188,265L190,264L201,260L208,257L213,255L212,251L213,249L217,247L218,245L214,233L206,233L205,228L205,228L205,227L204,225L201,223L198,224L195,219L195,216L193,214L191,208L190,201L189,202L185,202L183,201L178,204L172,204L171,203L166,197L167,192L165,191Z " data-fips="IV32" data-fips-="" data-iso3="CIV" data-name="Bas-Sassandra"/><path d="M277,62L282,71L283,78L284,77L293,81L296,83L295,86L298,87L294,90L297,93L299,97L293,103L293,104L293,104L291,108L293,109L291,112L292,117L289,119L290,119L290,122L291,123L290,127L290,129L290,131L293,131L292,134L296,136L296,139L302,142L304,145L308,148L307,150L310,151L311,153L311,157L310,158L311,157L315,158L317,162L319,161L322,162L326,165L328,170L328,169L333,162L333,161L335,147L341,135L341,132L345,129L347,128L349,127L348,123L353,121L349,97L349,95L346,88L345,86L341,85L342,81L346,76L344,75L345,68L343,68L342,70L340,70L335,65L331,57L327,54L323,49L321,52L318,50L300,48L297,50L295,50L287,54L285,53L278,59L277,62L277,62Z " data-fips="IV11" data-fips-="" data-iso3="CIV" data-name="Zanzan"/><path d="M293,104L281,103L277,100L275,96L267,92L251,92L254,84L250,81L247,75L242,75L240,75L239,72L233,74L230,83L228,85L230,87L229,89L230,93L227,94L223,95L219,98L220,100L220,104L222,104L224,107L223,108L224,109L227,110L223,111L234,118L234,123L232,123L231,126L231,126L231,126L231,126L226,126L218,130L218,135L216,140L216,141L216,142L216,147L217,147L218,156L221,161L221,161L222,162L228,160L233,162L246,156L248,153L250,152L254,149L256,149L260,151L263,150L264,149L269,146L268,138L272,138L279,135L284,130L290,129L290,127L291,123L290,122L290,119L289,119L292,117L291,112L293,109L291,108L293,104L293,104L293,104Z M234,145L234,145L234,145L234,145Z " data-fips="IV20" data-fips-="" data-iso3="CIV" data-name="Valle du Bandama"/><path d="M313,220L316,214L315,212L316,207L313,204L313,204L310,198L307,199L305,195L305,194L300,188L300,188L289,193L285,196L281,206L276,205L273,203L271,205L263,220L271,225L272,228L278,231L294,230L294,224L295,223L303,218L313,221L313,220Z " data-fips="IV06" data-fips-="" data-iso3="CIV" data-name="Agnby"/><path d="M311,157L311,153L310,151L307,150L308,148L304,145L302,142L296,139L296,136L292,134L293,131L290,131L290,129L284,130L279,135L272,138L268,138L269,146L264,149L263,150L264,152L264,153L260,155L261,161L257,171L257,174L252,179L250,183L251,186L253,189L253,189L259,189L259,194L261,197L262,202L261,202L271,205L273,203L276,205L281,206L285,196L289,193L300,188L300,187L299,186L299,182L301,180L301,172L306,169L308,168L306,167L305,165L308,163L308,160L310,158L310,158L311,157Z " data-fips="IV27" data-fips-="" data-iso3="CIV" data-name="N'zi-Como"/><path d="M237,252L238,251L249,251L246,248L244,249L241,248L236,251L232,249L234,251L235,248L235,248L231,245L230,246L231,252L237,252Z M240,199L240,200L240,201L240,202L239,205L241,208L247,209L249,210L249,219L251,223L249,229L249,234L247,241L247,243L245,247L239,247L239,247L244,249L246,247L248,248L253,251L265,249L291,246L288,245L282,245L278,246L262,248L261,247L257,248L259,245L262,244L263,246L265,246L272,245L273,244L276,245L277,243L280,244L293,244L295,243L300,244L299,240L301,240L303,244L300,245L296,244L291,245L291,246L301,248L302,247L306,249L310,249L315,245L315,241L314,237L315,233L314,230L315,224L314,223L314,223L313,223L313,222L313,221L313,221L303,218L295,223L294,224L294,230L278,231L272,228L271,225L263,220L271,205L261,202L260,204L251,204L241,198L241,198L240,199Z " data-fips="IV61" data-fips-="" data-iso3="CIV" data-name="Lagunes"/><path d="M104,187L97,193L100,193L102,195L105,194L106,198L116,202L121,201L127,203L129,205L131,211L132,215L141,219L146,221L146,225L147,229L148,230L161,227L162,214L160,200L161,193L165,191L165,191L165,190L166,185L165,180L163,179L163,176L163,175L162,175L158,174L153,174L140,175L130,178L129,176L124,173L120,176L119,180L113,186L113,188L109,189L105,186L104,187Z " data-fips="" data-fips-="" data-iso3="CIV" data-name="Moyen-Cavally"/><path d="M310,158L310,158L308,160L308,163L305,165L306,167L308,168L306,169L301,172L301,180L299,182L299,186L300,187L300,188L300,188L305,194L305,195L307,199L310,198L313,204L313,204L316,207L315,212L316,214L313,220L313,221L313,221L313,222L313,223L314,223L314,223L316,223L320,217L325,203L325,203L321,188L323,186L323,178L328,170L328,170L326,165L322,162L319,161L317,162L315,158L311,157L310,158Z " data-fips="" data-fips-="" data-iso3="CIV" data-name="Moyen-Comoe"/><path d="M260,151L256,149L254,149L250,152L248,153L246,156L233,162L228,160L222,162L221,161L221,162L224,166L227,166L229,170L227,177L232,185L232,187L232,188L236,189L236,197L239,199L240,199L241,198L241,198L251,204L260,204L261,202L262,202L261,197L259,194L259,189L253,189L253,189L251,186L250,183L252,179L257,174L257,171L261,161L260,155L264,153L264,152L263,150L260,151Z " data-fips="IV56" data-fips-="" data-iso3="CIV" data-name="Lacs"/><path d="M325,250L323,249L321,251L325,250Z M325,203L320,217L316,223L314,223L315,224L314,230L315,233L314,237L315,241L315,245L310,249L317,251L320,251L321,250L322,243L322,242L327,240L327,241L324,247L327,250L335,251L335,248L343,248L341,244L344,240L342,234L342,232L337,229L336,230L332,222L330,216L328,207L325,204L325,203Z " data-fips="IV63" data-fips-="IV04|" data-iso3="CIV" data-name="Sud-Como"/></g></svg>