<?xml version="1.0" encoding="UTF-8"?><!DOCTYPE svg  PUBLIC '-//W3C//DTD SVG 1.1//EN'  'http://www.w3.org/Graphics/SVG/1.1/DTD/svg11.dtd'><svg enable_background="new 0 0 450 301" height="301px" style="stroke-linejoin: round; stroke:#000; fill:#f6f3f0;" version="1.1" viewBox="0 0 450 301" width="450px" xmlns="http://www.w3.org/2000/svg" xmlns:xlink="http://www.w3.org/1999/xlink"><defs><style type="text/css"><![CDATA[path { fill-rule: evenodd; }
#context path { fill: #eee; stroke: #bbb; } ]]></style></defs><metadata><views><view h="301.0" padding="0.06" w="450"><proj id="laea" lat0="5.59296641682" lon0="10.5963625133"/><bbox h="152.28" w="106.31" x="968.58" y="901.75"/><llbbox lat0="-90" lat1="90" lon0="-180" lon1="180"/></view></views></metadata><g id="context"><path d="M16,44L15,42L6,33L0,28L0,107L4,101L4,98L9,93L9,90L14,87L17,81L15,78L20,74L21,70L19,66L19,59L13,51L15,45L16,44Z " data-iso="BEN"/><path d="M300,146L297,150L294,152L289,164L285,169L281,177L275,182L279,186L279,195L278,200L280,203L282,215L289,222L292,230L290,231L292,235L309,253L315,257L315,261L316,271L318,273L319,270L324,259L325,251L327,244L344,240L348,238L364,241L365,243L373,239L375,242L376,243L376,238L376,231L375,224L375,222L378,221L381,217L387,208L393,204L397,203L404,203L415,210L425,219L428,219L436,221L442,222L446,223L450,222L450,67L447,70L447,72L442,79L440,83L437,84L431,90L425,98L415,105L409,105L406,106L393,108L382,110L381,113L386,117L381,123L375,129L374,132L354,134L352,134L333,143L332,144L326,140L325,138L321,142L313,144L311,146L302,146L300,146Z " data-iso="CAF"/><path d="M301,144L301,139L300,139L294,126L291,121L284,115L281,113L270,103L264,96L263,93L267,88L269,86L284,87L289,86L300,87L303,85L294,77L292,74L289,65L288,59L290,48L284,31L283,25L281,21L276,17L275,14L269,11L264,11L267,23L268,28L275,30L277,47L275,51L268,55L263,57L261,58L252,71L250,82L246,85L245,95L237,103L235,115L230,119L226,120L222,129L220,136L217,141L216,144L211,150L213,156L206,161L205,166L202,170L198,172L194,171L186,159L183,157L180,161L175,162L171,159L164,164L160,170L144,185L142,188L139,202L133,213L133,213L133,219L142,218L141,221L144,229L151,232L155,233L160,230L159,232L159,241L162,241L160,243L167,254L165,258L164,267L163,273L165,275L167,276L194,276L200,276L200,274L201,273L215,273L225,273L237,274L244,274L247,274L248,276L253,276L276,276L279,275L286,278L287,279L293,279L297,281L307,282L315,287L317,286L315,279L318,273L318,273L316,271L315,261L315,257L309,253L292,235L290,231L292,230L289,222L282,215L280,203L278,200L279,195L279,186L275,182L281,177L285,169L289,164L294,152L297,150L300,146L301,144Z " data-iso="CMR"/><path d="M376,243L376,247L373,256L367,269L363,279L363,286L360,299L450,299L450,222L446,223L442,222L436,221L428,219L425,219L415,210L404,203L397,203L393,204L387,208L381,217L378,221L375,222L375,224L376,231L376,238L376,243Z " data-iso="COD"/><path d="M376,243L375,242L373,239L365,243L364,241L348,238L344,240L327,244L325,251L324,259L319,270L318,273L318,273L315,279L317,286L315,287L307,282L297,281L293,279L287,279L286,278L279,275L276,276L253,276L248,276L248,278L245,285L245,288L247,298L261,294L271,296L272,299L360,299L363,286L363,279L367,269L373,256L376,247L376,243Z " data-iso="COG"/><path d="M248,276L247,274L244,274L237,274L225,273L215,273L201,273L200,274L200,276L200,282L200,286L200,299L272,299L271,296L261,294L247,298L245,288L245,285L248,278L248,276Z " data-iso="GAB"/><path d="M200,276L194,276L167,276L165,275L163,273L163,278L163,282L158,291L156,294L154,299L200,299L200,286L200,282L200,276Z M137,237L133,244L131,245L135,250L142,240L142,237L137,237Z " data-iso="GNQ"/><path d="M85,0L89,4L93,11L97,13L106,11L116,5L123,6L132,12L139,16L149,18L159,18L167,10L169,9L179,6L191,5L208,6L215,9L218,11L226,11L228,9L231,6L242,0L85,0Z M16,44L17,43L18,24L25,18L28,11L30,1L33,0L0,0L0,28L6,33L15,42L16,44Z " data-iso="NER"/><path d="M103,221L101,219L99,222L103,221Z M16,44L15,45L13,51L19,59L19,66L21,70L20,74L15,78L17,81L14,87L9,90L9,93L4,98L4,101L0,107L0,172L8,172L10,169L18,168L13,170L11,172L27,172L34,174L39,177L44,182L52,192L58,192L52,194L57,197L61,195L56,199L58,208L61,215L66,220L73,224L78,222L79,224L85,223L85,220L87,223L92,222L90,220L90,214L94,222L96,222L99,219L99,216L102,218L111,219L127,218L128,216L126,209L130,213L133,213L133,213L139,202L142,188L144,185L160,170L164,164L171,159L175,162L180,161L183,157L186,159L194,171L198,172L202,170L205,166L206,161L213,156L211,150L216,144L217,141L220,136L222,129L226,120L230,119L235,115L237,103L245,95L246,85L250,82L252,71L261,58L263,57L268,55L275,51L277,47L275,30L268,28L267,23L264,11L261,7L257,1L256,0L242,0L231,6L228,9L226,11L218,11L215,9L208,6L191,5L179,6L169,9L167,10L159,18L149,18L139,16L132,12L123,6L116,5L106,11L97,13L93,11L89,4L85,0L33,0L30,1L28,11L25,18L18,24L17,43L16,44Z " data-iso="NGA"/><path d="M450,9L448,15L450,18L450,9Z " data-iso="SDN"/><path d="M450,0L256,0L257,1L261,7L264,11L269,11L275,14L276,17L281,21L283,25L284,31L290,48L288,59L289,65L292,74L294,77L303,85L300,87L289,86L284,87L269,86L267,88L263,93L264,96L270,103L281,113L284,115L291,121L294,126L300,139L301,139L301,144L300,146L302,146L311,146L313,144L321,142L325,138L326,140L332,144L333,143L352,134L354,134L374,132L375,129L381,123L386,117L381,113L382,110L393,108L406,106L409,105L415,105L425,98L431,90L437,84L440,83L442,79L447,72L447,70L450,67L450,18L448,15L450,9L450,0Z " data-iso="TCD"/></g><g fill="red" fill-opacity="0.35" id="regions"><path d="M199,183L200,182L198,176L197,176L196,177L192,177L192,180L183,185L182,187L172,188L170,190L171,191L169,191L167,194L166,198L165,199L165,200L167,201L168,204L171,209L172,207L180,209L180,209L182,210L191,208L194,202L194,200L196,198L198,190L200,188L199,183L199,183L199,183Z " data-fips="CM08" data-fips-="" data-iso3="CMR" data-name="Ouest"/><path d="M161,170L155,173L144,185L140,187L140,191L141,192L139,203L134,211L132,216L132,219L134,220L136,218L139,218L139,217L141,218L141,220L143,228L147,231L150,232L151,231L151,233L152,233L153,232L154,231L155,230L155,230L155,229L156,229L156,229L157,226L155,224L158,216L159,216L161,211L163,209L163,207L164,206L164,204L164,199L165,199L166,198L167,194L169,191L171,191L170,190L170,189L163,188L158,185L158,183L163,179L163,177L161,170L161,170Z " data-fips="CM09" data-fips-="" data-iso3="CMR" data-name="Sud-Ouest"/><path d="M230,242L230,242L228,240L219,247L216,245L210,248L209,249L205,252L197,252L193,246L187,244L175,247L174,243L174,242L174,242L171,242L169,244L169,246L166,249L166,249L166,256L164,266L164,274L167,276L178,276L200,276L201,273L210,273L227,273L234,274L243,274L244,273L248,276L257,276L256,258L253,259L252,261L247,260L244,259L239,259L235,256L235,253L230,245L230,242Z " data-fips="CM14" data-fips-="" data-iso3="CMR" data-name="Sud"/><path d="M249,83L250,84L256,83L256,81L262,81L268,86L274,86L289,87L291,86L298,87L303,85L294,78L290,73L291,70L289,66L288,57L289,43L288,40L288,35L284,33L285,29L282,22L274,16L275,15L264,11L268,29L273,29L279,33L277,43L276,44L278,46L278,49L267,56L264,55L258,61L257,63L253,69L251,78L249,83L249,83Z " data-fips="CM12" data-fips-="" data-iso3="CMR" data-name="Extrme-Nord"/><path d="M155,230L154,231L153,232L152,233L152,234L155,234L155,230L155,230Z M165,199L164,199L164,204L164,206L163,207L163,209L161,211L159,216L158,216L155,224L157,226L156,229L156,229L158,231L161,229L159,232L162,233L161,234L159,235L160,238L157,236L159,241L166,249L166,249L169,246L169,244L171,242L174,242L174,242L174,242L176,240L179,235L183,237L186,230L190,229L195,226L191,221L190,216L188,216L182,221L178,220L180,214L180,213L177,214L177,213L180,211L180,209L180,209L172,207L171,209L168,204L167,201L165,200L165,199Z " data-fips="CM05" data-fips-="" data-iso3="CMR" data-name="Littoral"/><path d="M161,170L163,177L163,179L158,183L158,185L163,188L170,189L170,190L172,188L182,187L183,185L192,180L192,177L196,177L197,176L197,175L197,174L197,172L195,173L194,171L193,165L188,160L182,157L180,161L174,162L171,159L165,164L162,164L161,170Z " data-fips="CM07" data-fips-="" data-iso3="CMR" data-name="Nord-Ouest"/><path d="M231,183L224,178L217,178L216,177L207,181L199,183L199,183L199,183L200,188L198,190L196,198L194,200L194,202L191,208L182,210L180,209L180,211L177,213L177,214L180,213L180,214L178,220L182,221L188,216L190,216L191,221L195,226L190,229L186,230L183,237L179,235L176,240L174,242L174,242L174,243L175,247L187,244L193,246L197,252L205,252L209,249L210,248L216,245L219,247L228,240L230,242L230,242L231,241L231,237L228,235L235,230L236,223L238,218L239,218L245,217L246,212L244,208L242,207L238,202L237,200L241,197L240,190L237,183L237,183L231,183Z " data-fips="CM11" data-fips-="" data-iso3="CMR" data-name="Centre"/><path d="M275,181L269,181L263,182L261,182L249,183L237,183L237,183L240,190L241,197L237,200L238,202L242,207L244,208L246,212L245,217L239,218L238,218L236,223L235,230L228,235L231,237L231,241L230,242L230,245L235,253L235,256L239,259L244,259L247,260L252,261L253,259L256,258L257,276L271,276L275,277L279,275L285,278L286,277L286,279L291,280L293,279L296,281L300,280L307,282L315,288L317,286L315,279L315,276L318,274L316,271L315,267L315,259L313,256L311,253L308,253L293,237L291,234L291,231L293,230L290,223L283,218L282,215L280,204L280,202L277,200L279,195L279,189L278,185L275,181L275,181Z " data-fips="CM04" data-fips-="" data-iso3="CMR" data-name="Est"/><path d="M221,130L220,132L221,135L217,140L215,146L210,152L213,156L205,162L206,166L203,169L201,172L198,172L197,172L197,174L197,175L197,176L198,176L200,182L199,183L199,183L199,183L207,181L216,177L217,178L224,178L231,183L237,183L249,183L261,182L263,182L269,181L275,181L275,181L277,179L282,176L287,165L290,161L294,152L294,152L281,158L278,157L276,154L272,154L272,152L267,145L262,144L260,142L256,143L253,144L247,142L246,144L242,144L240,143L232,140L231,136L229,136L223,132L222,130L221,130Z " data-fips="CM10" data-fips-="" data-iso3="CMR" data-name="Adamaoua"/><path d="M249,83L245,85L245,88L246,91L245,95L243,98L236,102L237,102L236,107L235,115L229,120L225,120L225,123L222,124L222,130L222,130L223,132L229,136L231,136L232,140L240,143L242,144L246,144L247,142L253,144L256,143L260,142L262,144L267,145L272,152L272,154L276,154L278,157L281,158L294,152L294,152L297,150L301,143L302,139L299,138L296,131L292,122L289,119L284,115L283,114L272,106L271,104L265,96L264,92L268,86L268,86L262,81L256,81L256,83L250,84L249,83L249,83Z " data-fips="CM13" data-fips-="" data-iso3="CMR" data-name="Nord"/></g></svg>