<?xml version="1.0" encoding="UTF-8"?><!DOCTYPE svg  PUBLIC '-//W3C//DTD SVG 1.1//EN'  'http://www.w3.org/Graphics/SVG/1.1/DTD/svg11.dtd'><svg enable_background="new 0 0 450 301" height="301px" style="stroke-linejoin: round; stroke:#000; fill:#f6f3f0;" version="1.1" viewBox="0 0 450 301" width="450px" xmlns="http://www.w3.org/2000/svg" xmlns:xlink="http://www.w3.org/1999/xlink"><defs><style type="text/css"><![CDATA[path { fill-rule: evenodd; }
#context path { fill: #eee; stroke: #bbb; } ]]></style></defs><metadata><views><view h="301.0" padding="0.06" w="450"><proj id="laea" lat0="1.31628947618" lon0="20.3145332978"/><bbox h="260.59" w="262.8" x="886.31" y="935.72"/><llbbox lat0="-90" lat1="90" lon0="-180" lon1="180"/></view></views></metadata><g id="context"><path d="M256,246L255,246L248,248L244,249L235,249L233,251L231,250L233,243L233,239L230,232L226,226L227,210L226,207L226,197L225,196L209,195L209,191L195,192L194,193L191,205L188,206L180,205L166,207L158,195L154,186L154,181L150,176L121,176L115,175L102,175L102,176L99,177L95,186L99,191L100,195L103,203L107,211L107,215L104,225L107,234L114,247L114,259L111,266L109,269L103,273L102,277L97,282L96,287L95,291L94,299L228,299L228,276L254,276L256,268L256,248L256,246Z M102,158L102,158L100,155L93,158L92,160L88,163L88,164L90,168L90,170L90,174L90,174L94,173L95,165L94,164L99,159L102,158L102,158Z " data-iso="AGO"/><path d="M349,126L343,126L340,131L333,132L330,129L328,130L328,131L328,131L331,136L330,145L333,153L333,155L337,155L341,153L346,146L348,143L353,136L349,127L349,126L349,126Z " data-iso="BDI"/><path d="M146,60L147,58L150,52L150,48L152,43L162,41L164,40L174,42L180,43L181,43L180,40L181,36L180,31L182,30L187,23L191,21L198,20L209,30L211,29L222,32L234,34L241,25L248,26L261,22L267,23L272,22L278,17L294,20L297,20L301,19L305,20L304,19L302,13L300,10L293,7L289,1L289,0L128,0L122,7L124,9L125,19L126,26L130,31L130,35L136,43L141,48L143,49L145,53L146,59L146,60Z " data-iso="CAF"/><path d="M39,24L44,27L45,34L49,36L52,36L58,48L56,56L56,59L57,61L59,61L74,61L78,61L78,60L81,60L103,60L105,61L105,62L109,62L122,62L124,61L132,63L134,65L138,65L146,68L145,64L146,60L146,60L146,59L145,53L143,49L141,48L136,43L130,35L130,31L126,26L125,19L124,9L122,7L128,0L78,0L54,0L45,8L42,18L39,24L39,24Z " data-iso="CMR"/><path d="M301,19L297,20L294,20L278,17L272,22L267,23L261,22L248,26L241,25L234,34L222,32L211,29L209,30L198,20L191,21L187,23L182,30L180,31L181,36L180,40L181,43L181,46L175,58L173,64L173,68L171,77L171,85L170,89L168,96L168,100L157,109L155,112L151,118L147,123L146,141L144,146L133,153L126,161L122,161L122,155L121,153L115,156L111,155L111,159L107,161L103,158L102,158L102,158L99,159L94,164L95,165L94,173L90,174L91,175L92,176L95,177L102,175L102,175L115,175L121,176L150,176L154,181L154,186L158,195L166,207L180,205L188,206L191,205L194,193L195,192L209,191L209,195L225,196L226,197L226,207L227,210L226,226L230,232L233,239L233,243L231,250L233,251L235,249L244,249L248,248L255,246L256,246L256,246L261,250L261,253L275,251L274,253L277,259L294,262L295,262L300,256L301,259L307,266L317,269L321,274L325,282L332,280L335,283L336,282L337,264L333,265L333,268L326,267L319,260L318,258L320,245L321,243L321,232L318,224L326,212L349,209L351,209L351,207L343,190L341,189L334,177L336,173L332,163L333,156L333,155L333,153L330,145L331,136L328,131L328,131L326,130L325,127L329,123L335,112L336,112L336,111L338,91L341,85L341,83L355,68L360,62L358,60L352,57L353,52L354,43L353,43L353,42L349,40L349,38L344,36L337,27L330,30L323,28L318,31L316,31L305,21L305,20L301,19Z " data-iso="COD"/><path d="M180,43L174,42L164,40L162,41L152,43L150,48L150,52L147,58L146,60L146,60L145,64L146,68L138,65L134,65L132,63L124,61L122,62L109,62L105,62L105,63L104,75L113,72L119,74L121,80L119,85L117,85L114,90L114,96L116,96L122,101L121,106L122,112L118,126L115,128L112,123L108,126L101,125L98,120L93,125L88,126L81,126L81,133L82,133L86,140L85,145L77,144L75,148L78,151L84,157L85,160L87,163L88,163L92,160L93,158L100,155L102,158L102,158L103,158L107,161L111,159L111,155L115,156L121,153L122,155L122,161L126,161L133,153L144,146L146,141L147,123L151,118L155,112L157,109L168,100L168,96L170,89L171,85L171,77L173,68L173,64L175,58L181,46L181,43L180,43Z " data-iso="COG"/><path d="M415,13L415,14L422,16L422,23L427,28L437,28L450,36L450,0L408,0L411,6L411,8L415,13L415,13Z " data-iso="ETH"/><path d="M105,61L103,60L81,60L78,60L78,61L78,65L78,78L57,78L53,77L53,78L54,81L49,83L56,92L51,90L49,88L49,97L44,102L41,101L50,118L50,121L59,131L64,135L68,140L74,147L75,148L77,144L85,145L86,140L82,133L81,133L81,126L88,126L93,125L98,120L101,125L108,126L112,123L115,128L118,126L122,112L121,106L122,101L116,96L114,96L114,90L117,85L119,85L121,80L119,74L113,72L104,75L105,63L105,62L105,61Z " data-iso="GAB"/><path d="M78,61L74,61L59,61L57,61L56,59L56,63L53,70L50,76L53,77L53,77L57,78L78,78L78,65L78,61Z M41,39L38,46L40,46L44,39L41,39Z " data-iso="GNQ"/><path d="M415,13L412,16L403,26L400,29L397,32L399,37L404,41L403,43L406,50L409,53L410,57L411,68L409,72L409,74L405,77L404,80L400,83L397,90L397,104L397,106L398,106L449,135L449,136L450,143L450,36L437,28L427,28L422,23L422,16L415,14L415,13Z " data-iso="KEN"/><path d="M383,291L380,292L370,295L362,298L359,299L400,299L398,297L389,299L384,292L383,291Z M409,257L407,257L404,258L400,266L401,272L402,282L408,286L411,290L418,299L450,299L450,253L448,256L442,259L435,257L427,259L422,255L418,257L412,257L409,257Z M405,264L404,263L405,263L405,264Z M404,263L403,263L403,263L404,263Z " data-iso="MOZ"/><path d="M405,264L405,263L404,263L405,264Z M404,263L403,263L403,263L404,263Z M409,257L408,256L406,253L405,243L403,234L401,231L396,227L388,229L387,227L381,226L381,226L381,226L386,232L386,235L389,238L388,245L386,246L387,251L385,254L386,258L385,264L386,270L380,274L379,282L377,284L382,290L383,291L384,292L389,299L398,297L400,299L418,299L411,290L408,286L402,282L401,272L400,266L404,258L407,257L409,257Z " data-iso="MWI"/><path d="M39,24L42,18L45,8L54,0L0,0L0,28L11,30L14,25L16,29L19,28L35,27L35,22L39,24L39,24Z " data-iso="NGA"/><path d="M348,107L346,108L342,113L340,111L336,112L336,112L335,112L329,123L325,127L326,130L328,131L328,130L330,129L333,132L340,131L343,126L349,126L349,126L350,126L354,124L353,114L348,108L349,107L348,107Z " data-iso="RWA"/><path d="M305,20L305,21L316,31L318,31L323,28L330,30L337,27L344,36L349,38L349,40L353,42L353,43L354,42L367,38L369,41L372,41L374,39L384,37L390,39L394,35L397,32L400,29L403,26L412,16L415,13L415,13L411,8L411,6L408,0L289,0L289,1L293,7L300,10L302,13L304,19L305,20Z " data-iso="SDS"/><path d="M12,90L12,86L10,91L12,90Z " data-iso="STP"/><path d="M397,106L395,106L370,106L358,106L349,107L349,107L348,108L353,114L354,124L350,126L349,126L349,127L353,136L348,143L346,146L341,153L337,155L333,155L333,156L332,163L336,173L334,177L341,189L343,190L351,207L351,209L352,210L356,214L360,214L366,219L380,225L381,226L381,226L387,227L388,229L396,227L401,231L403,234L405,243L406,253L408,256L409,257L412,257L418,257L422,255L427,259L435,257L442,259L448,256L450,253L450,143L449,136L449,135L398,106L397,106Z " data-iso="TZA"/><path d="M397,104L397,90L400,83L404,80L405,77L409,74L409,72L411,68L410,57L409,53L406,50L403,43L404,41L399,37L397,32L394,35L390,39L384,37L374,39L372,41L369,41L367,38L354,42L353,43L354,43L353,52L352,57L358,60L360,62L355,68L341,83L341,85L338,91L336,111L336,112L336,112L340,111L342,113L346,108L348,107L349,107L349,107L358,106L370,106L395,106L397,106L397,104Z " data-iso="UGA"/><path d="M383,291L382,290L377,284L379,282L380,274L386,270L385,264L386,258L385,254L387,251L386,246L388,245L389,238L386,235L386,232L381,226L381,226L380,225L366,219L360,214L356,214L352,210L351,209L349,209L326,212L318,224L321,232L321,243L320,245L318,258L319,260L326,267L333,268L333,265L337,264L336,282L335,283L332,280L325,282L321,274L317,269L307,266L301,259L300,256L295,262L294,262L277,259L274,253L275,251L261,253L261,250L256,246L256,246L256,248L256,268L254,276L228,276L228,299L359,299L362,298L370,295L380,292L383,291Z " data-iso="ZMB"/></g><g fill="red" fill-opacity="0.35" id="regions"><path d="M151,119L153,121L156,121L155,118L159,118L160,117L177,109L178,110L183,110L184,108L183,106L185,104L193,117L196,116L199,119L203,120L206,122L210,121L214,127L214,128L217,128L221,126L227,128L227,128L227,127L231,125L233,126L231,119L233,120L237,118L244,120L246,122L252,121L254,119L258,117L263,118L262,115L261,112L257,111L248,105L250,102L249,99L247,99L245,98L248,96L242,87L239,76L237,73L235,72L233,71L236,66L239,64L247,61L252,61L252,60L247,56L242,55L244,48L240,50L240,47L237,44L243,42L245,41L248,41L249,38L241,38L235,34L235,34L231,34L224,32L222,32L216,31L209,30L204,24L198,21L194,19L192,20L188,22L183,30L180,32L181,36L181,45L180,48L178,54L174,60L173,65L171,77L170,77L171,87L168,95L168,97L166,102L163,106L158,108L156,110L152,117L151,119Z " data-fips="CG02" data-fips-="" data-iso3="COD" data-name="quateur"/><path d="M235,34L241,38L249,38L248,41L245,41L243,42L237,44L240,47L240,50L244,48L242,55L247,56L252,60L252,61L247,61L239,64L236,66L233,71L235,72L237,73L239,76L242,87L248,96L245,98L247,99L249,99L250,102L248,105L257,111L261,112L262,115L263,118L263,118L263,120L269,120L273,122L278,119L283,118L283,112L285,113L289,101L291,99L287,94L292,98L297,95L309,100L310,100L310,100L315,95L314,87L310,85L314,83L319,82L321,84L333,81L333,80L340,79L341,80L342,80L345,76L354,68L359,62L358,59L352,57L354,51L349,41L349,38L344,36L343,34L333,27L332,30L325,29L324,28L319,31L313,29L310,26L310,25L303,19L301,19L296,21L291,20L288,19L284,19L279,16L275,21L266,23L262,20L256,23L251,25L245,25L241,24L241,26L237,29L235,34L235,34Z " data-fips="CG09" data-fips-="" data-iso3="COD" data-name="Orientale"/><path d="M151,119L147,123L146,125L146,133L147,140L142,148L142,148L147,149L150,152L151,154L148,160L148,162L148,163L147,164L147,170L147,173L145,175L148,175L154,180L154,185L158,192L157,193L158,196L159,197L165,206L169,207L179,205L183,205L183,206L191,206L191,204L193,199L194,191L200,191L196,185L196,179L200,177L203,172L203,165L201,160L201,153L205,155L206,153L209,152L210,139L214,129L214,128L214,127L210,121L206,122L203,120L199,119L196,116L193,117L185,104L183,106L184,108L183,110L178,110L177,109L160,117L159,118L155,118L156,121L153,121L151,119L151,119Z " data-fips="CG01" data-fips-="" data-iso3="COD" data-name="Bandundu"/><path d="M214,128L214,129L210,139L209,152L206,153L205,155L201,153L201,160L203,165L203,172L200,177L196,179L196,185L200,191L204,191L208,195L225,195L226,200L226,201L231,203L236,202L238,204L241,204L244,203L245,203L245,199L245,193L246,191L242,187L243,184L242,178L243,174L252,172L253,169L248,166L247,167L242,163L242,162L245,159L242,156L234,151L230,149L230,148L231,147L229,144L228,142L231,135L228,128L227,128L227,128L221,126L217,128L214,128Z " data-fips="CG03" data-fips-="" data-iso3="COD" data-name="Kasa-Occidental"/><path d="M145,175L147,173L147,170L147,164L148,163L144,163L141,164L138,162L140,159L139,157L136,157L134,158L132,155L131,156L125,162L121,160L121,157L122,155L121,153L114,156L113,155L111,159L107,161L107,160L98,160L98,161L94,165L95,165L95,173L90,174L94,178L100,175L103,175L109,175L123,176L129,176L145,175Z " data-fips="CG08" data-fips-="" data-iso3="COD" data-name="Bas-Congo"/><path d="M142,148L137,150L136,151L132,154L132,155L134,158L136,157L139,157L140,159L138,162L141,164L144,163L148,163L148,162L148,160L151,154L150,152L147,149L142,148L142,148Z " data-fips="CG06" data-fips-="" data-iso3="COD" data-name="Kinshasa City"/><path d="M310,121L305,121L303,124L298,123L297,125L297,128L298,132L300,134L301,146L306,149L309,149L314,151L317,152L322,159L325,163L325,163L329,163L332,163L332,163L332,162L333,157L330,146L331,143L328,132L326,130L327,126L329,123L330,118L330,117L326,116L323,118L321,120L320,119L314,122L311,120L310,121Z " data-fips="CG12" data-fips-="" data-iso3="COD" data-name="Sud-Kivu"/><path d="M309,100L297,95L292,98L287,94L291,99L289,101L285,113L283,112L283,118L278,119L273,122L269,120L263,120L263,121L267,127L272,127L273,131L270,139L268,142L267,146L271,151L271,155L269,157L270,160L272,163L289,163L325,163L325,163L322,159L317,152L314,151L309,149L306,149L301,146L300,134L298,132L297,128L297,125L298,123L303,124L305,121L310,121L310,120L302,109L304,109L303,106L309,105L311,101L310,100L309,100Z " data-fips="" data-fips-="" data-iso3="COD" data-name="Maniema"/><path d="M258,117L254,119L252,121L246,122L244,120L237,118L233,120L231,119L233,126L231,125L227,127L227,128L228,128L231,135L228,142L229,144L231,147L230,148L230,149L234,151L242,156L245,159L242,162L242,163L247,167L248,166L253,169L252,172L243,174L242,178L243,184L242,187L246,191L245,193L245,199L245,203L245,203L249,204L254,204L256,199L256,194L259,190L260,191L264,192L267,190L272,187L275,188L277,187L277,185L274,183L284,180L287,181L287,174L286,173L286,169L288,164L289,163L272,163L270,160L269,157L271,155L271,151L267,146L268,142L270,139L273,131L272,127L267,127L263,121L263,120L263,118L263,118L258,117Z " data-fips="CG04" data-fips-="" data-iso3="COD" data-name="Kasa-Oriental"/><path d="M332,163L332,163L329,163L325,163L289,163L288,164L286,169L286,173L287,174L287,181L284,180L274,183L277,185L277,187L275,188L272,187L267,190L264,192L260,191L259,190L256,194L256,199L254,204L249,204L245,203L245,203L244,203L241,204L238,204L236,202L231,203L226,201L225,203L228,212L225,225L229,232L230,233L232,240L233,244L231,247L232,251L235,250L240,249L245,249L249,247L254,248L257,246L259,248L261,249L262,254L275,251L274,255L277,258L282,259L284,261L290,261L296,262L297,261L300,256L301,259L306,266L310,266L311,267L316,268L317,270L320,274L321,275L324,281L328,282L333,280L334,282L336,282L337,265L332,266L331,268L326,268L325,265L319,260L317,254L318,253L322,242L321,238L321,230L318,223L323,219L325,217L325,212L351,207L347,200L346,196L342,190L339,188L334,181L334,177L336,172L332,163L332,163Z " data-fips="CG05" data-fips-="" data-iso3="COD" data-name="Katanga"/><path d="M310,100L311,101L309,105L303,106L304,109L302,109L310,120L310,121L311,120L314,122L320,119L321,120L323,118L326,116L330,117L331,116L333,114L336,111L335,105L337,93L341,85L341,80L341,80L340,79L333,80L333,81L321,84L319,82L314,83L310,85L314,87L315,95L310,100L310,100Z " data-fips="CG11" data-fips-="" data-iso3="COD" data-name="Nord-Kivu"/></g></svg>