<?xml version="1.0" encoding="UTF-8"?><!DOCTYPE svg  PUBLIC '-//W3C//DTD SVG 1.1//EN'  'http://www.w3.org/Graphics/SVG/1.1/DTD/svg11.dtd'><svg enable_background="new 0 0 450 451" height="451px" style="stroke-linejoin: round; stroke:#000; fill:#f6f3f0;" version="1.1" viewBox="0 0 450 451" width="450px" xmlns="http://www.w3.org/2000/svg" xmlns:xlink="http://www.w3.org/1999/xlink"><defs><style type="text/css"><![CDATA[path { fill-rule: evenodd; }
#context path { fill: #eee; stroke: #bbb; } ]]></style></defs><metadata><views><view h="451" padding="0.06" w="450"><proj id="laea" lat0="0.102629706596" lon0="14.554652458"/><bbox h="118.75" w="103.7" x="952.22" y="949.94"/><llbbox lat0="-90" lat1="90" lon0="-180" lon1="180"/></view></views></metadata><g id="context"><path d="M141,410L139,410L136,406L132,401L124,403L121,405L114,408L109,410L105,416L100,417L94,425L92,428L93,429L96,437L99,443L100,449L115,449L115,434L112,431L122,423L129,415L140,411L141,410Z " data-iso="AGO"/><path d="M286,88L289,82L299,62L298,59L299,46L304,32L308,29L324,28L337,25L344,22L361,27L365,28L375,28L378,31L385,27L392,25L396,30L399,32L398,22L400,9L399,2L398,0L235,0L237,6L232,7L236,16L252,33L266,48L270,49L280,58L281,62L280,65L282,71L282,79L283,84L286,88Z " data-iso="CAF"/><path d="M59,93L60,90L60,87L70,87L88,87L107,87L131,89L147,89L150,90L151,93L162,93L197,93L206,94L211,91L219,97L225,97L226,100L235,101L238,99L246,103L250,103L258,103L265,105L276,112L280,116L283,114L283,110L281,105L280,100L281,96L282,93L285,91L286,89L286,88L283,84L282,79L282,71L280,65L281,62L280,58L270,49L266,48L252,33L236,16L232,7L237,6L235,0L0,0L0,93L12,93L48,93L59,93Z " data-iso="CMR"/><path d="M399,32L399,40L393,58L380,81L374,100L374,114L373,122L366,142L365,154L367,169L365,183L360,197L357,207L359,220L349,230L337,241L329,244L323,247L313,258L306,273L302,280L297,286L290,292L287,296L286,300L286,309L287,335L284,356L276,370L271,378L265,380L258,382L255,385L253,389L249,392L243,395L235,402L226,414L220,420L217,422L213,422L203,419L203,412L201,408L205,402L200,395L198,395L190,399L186,400L181,403L178,403L172,401L171,402L169,413L168,414L155,419L147,414L144,409L141,409L141,410L140,411L129,415L122,423L112,431L115,434L115,449L450,449L450,0L398,0L399,2L400,9L398,22L399,32Z " data-iso="COD"/><path d="M396,30L392,25L385,27L378,31L375,28L365,28L361,27L344,22L337,25L324,28L308,29L304,32L299,46L298,59L299,62L289,82L286,88L286,89L285,91L282,93L281,96L280,100L281,105L283,110L283,114L280,116L276,112L265,105L258,103L250,103L246,103L238,99L235,101L226,100L225,97L219,97L211,91L206,94L197,93L162,93L151,93L151,96L147,104L145,111L145,117L146,122L149,130L147,136L150,136L171,130L177,128L187,129L192,130L195,132L198,142L202,147L204,152L202,159L200,163L195,168L188,169L185,174L181,178L178,185L179,191L177,204L179,205L187,207L193,214L201,216L206,223L203,239L205,260L205,265L203,268L203,274L202,282L197,285L195,287L193,296L191,298L193,304L188,309L183,310L178,309L177,307L176,301L174,295L171,294L166,300L159,306L154,306L145,305L137,302L133,296L127,284L124,281L118,279L111,284L111,287L113,293L111,303L93,307L88,304L78,306L72,303L71,304L72,315L72,319L69,326L74,327L79,333L76,340L77,342L87,349L87,350L83,359L85,365L84,367L76,366L69,359L67,358L57,364L53,370L50,377L61,387L62,390L75,401L80,407L81,412L86,421L91,427L92,428L94,425L100,417L105,416L109,410L114,408L121,405L124,403L132,401L136,406L139,410L141,410L141,409L144,409L147,414L155,419L168,414L169,413L171,402L172,401L178,403L181,403L186,400L190,399L198,395L200,395L205,402L201,408L203,412L203,419L213,422L217,422L220,420L226,414L235,402L243,395L249,392L253,389L255,385L258,382L265,380L271,378L276,370L284,356L287,335L286,309L286,300L287,296L290,292L297,286L302,280L306,273L313,258L323,247L329,244L337,241L349,230L359,220L357,207L360,197L365,183L367,169L365,154L366,142L373,122L374,114L374,100L380,81L393,58L399,40L399,32L396,30Z " data-iso="COG"/><path d="M50,377L53,370L57,364L67,358L69,359L76,366L84,367L85,365L83,359L87,350L87,349L77,342L76,340L79,333L74,327L69,326L72,319L72,315L71,304L72,303L78,306L88,304L93,307L111,303L113,293L111,287L111,284L118,279L124,281L127,284L133,296L137,302L145,305L154,306L159,306L166,300L171,294L174,295L176,301L177,307L178,309L183,310L188,309L193,304L191,298L193,296L195,287L197,285L202,282L203,274L203,268L205,265L205,260L203,239L206,223L201,216L193,214L187,207L179,205L177,204L179,191L178,185L181,178L185,174L188,169L195,168L200,163L202,159L204,152L202,147L198,142L195,132L192,130L187,129L177,128L171,130L150,136L147,136L149,130L146,122L145,117L145,111L147,104L151,96L151,93L150,90L147,89L131,89L107,87L88,87L70,87L60,87L60,90L59,93L59,104L59,133L59,147L0,147L0,313L0,324L14,335L25,347L27,353L37,360L42,365L46,373L50,377Z " data-iso="GAB"/><path d="M59,93L48,93L12,93L0,93L0,147L59,147L59,133L59,104L59,93Z " data-iso="GNQ"/></g><g fill="red" fill-opacity="0.35" id="regions"><path d="M194,131L197,137L197,140L203,150L206,151L205,156L199,162L199,165L195,169L190,169L186,171L186,175L182,177L178,185L179,192L180,192L180,197L176,202L176,204L178,206L185,206L189,208L191,215L197,214L202,217L207,222L207,224L205,230L205,234L202,241L204,249L204,249L218,246L227,246L230,245L233,243L237,238L239,234L238,233L231,226L235,221L237,216L235,208L228,205L226,199L225,194L226,193L232,192L239,191L242,188L241,185L238,183L237,180L243,176L244,175L244,175L244,175L235,170L234,162L235,156L237,150L237,147L234,145L230,145L222,140L216,139L208,135L207,129L199,130L194,131L194,131Z " data-fips="CF10" data-fips-="CF14" data-iso3="COG" data-name="Cuvette-Ouest"/><path d="M177,359L175,362L171,366L171,368L166,370L161,382L155,382L154,380L149,377L145,377L139,377L133,373L131,370L132,368L128,362L124,360L124,359L121,359L121,359L120,360L119,362L121,369L119,372L123,376L124,378L133,389L139,398L147,399L150,401L152,404L156,410L163,414L164,417L164,417L166,415L170,413L170,411L171,407L170,402L174,400L179,404L179,404L181,399L182,395L183,393L191,387L190,385L197,381L199,381L201,378L199,375L198,374L194,366L198,364L196,358L190,355L188,357L183,361L179,360L177,359Z " data-fips="CF01" data-fips-="" data-iso3="COG" data-name="Bouenza"/><path d="M297,67L303,77L306,77L309,79L311,83L311,89L313,95L311,98L311,106L312,110L311,118L311,122L310,125L311,127L311,132L313,134L314,139L314,144L310,147L309,153L310,156L326,176L328,177L333,184L332,186L333,189L330,191L331,195L331,207L332,208L330,210L332,211L331,213L334,217L333,224L333,226L337,229L348,229L349,229L352,226L359,219L358,210L357,203L359,195L364,183L368,176L368,172L365,164L366,161L365,154L365,144L366,143L374,122L374,103L374,93L375,88L378,86L380,81L389,67L391,60L392,59L395,51L399,47L400,39L399,32L397,32L392,25L391,25L382,27L379,31L378,32L374,28L368,29L367,28L363,29L360,25L353,25L349,24L344,21L340,24L337,25L335,25L333,27L324,29L320,28L315,30L309,29L305,31L303,32L302,38L299,47L300,51L298,56L299,62L297,67Z " data-fips="CF06" data-fips-="" data-iso3="COG" data-name="Likouala"/><path d="M286,90L284,92L281,94L280,100L283,108L284,113L278,114L276,111L274,111L263,104L259,103L253,102L247,104L245,104L244,101L240,99L234,102L225,100L224,96L222,97L219,98L211,91L209,93L204,95L199,93L151,96L151,98L147,101L145,105L146,108L144,116L144,119L148,128L148,132L145,136L149,137L151,135L156,134L158,134L163,134L164,132L173,129L174,127L190,129L194,131L194,131L199,130L207,129L208,135L216,139L222,140L230,145L234,145L237,147L237,150L235,156L234,162L235,170L244,175L244,175L244,175L244,176L249,176L255,178L258,174L265,172L272,174L275,175L275,177L279,179L282,182L283,188L289,190L293,192L326,176L310,156L309,153L310,147L314,144L314,139L313,134L311,132L311,127L310,125L311,122L311,118L312,110L311,106L311,98L313,95L311,89L311,83L309,79L306,77L303,77L297,67L286,90Z " data-fips="CF10" data-fips-="" data-iso3="COG" data-name="Sangha"/><path d="M196,333L193,335L191,337L190,343L186,348L180,353L178,359L177,359L179,360L183,361L188,357L190,355L196,358L198,364L194,366L198,374L199,375L201,378L199,381L197,381L190,385L191,387L183,393L182,395L181,399L179,404L181,404L185,400L191,399L197,395L201,394L203,398L206,401L200,406L200,408L203,417L202,421L205,421L208,420L211,421L216,422L222,419L227,411L231,407L241,396L253,389L255,383L256,383L271,378L279,363L282,359L287,351L286,345L286,343L286,333L286,331L277,331L272,327L268,326L262,328L261,329L253,334L248,335L244,335L238,333L235,329L232,329L228,329L225,321L221,323L218,327L210,334L208,338L204,336L197,335L196,333Z " data-fips="CF11" data-fips-="" data-iso3="COG" data-name="Pool"/><path d="M244,175L244,175L243,176L237,180L238,183L241,185L242,188L239,191L232,192L226,193L225,194L226,199L228,205L235,208L237,216L235,221L231,226L238,233L239,234L237,238L233,243L230,245L227,246L218,246L204,249L205,250L204,256L206,259L205,266L201,269L204,273L203,275L203,282L201,284L201,284L202,288L207,287L211,284L214,280L217,275L218,273L222,269L231,266L235,261L237,254L242,247L248,243L251,240L258,238L269,245L275,249L278,250L289,255L292,259L293,263L305,266L308,268L308,267L311,263L315,255L325,245L335,242L343,237L349,229L348,229L337,229L333,226L333,224L334,217L331,213L332,211L330,210L332,208L331,207L331,195L330,191L333,189L332,186L333,184L328,177L326,176L293,192L289,190L283,188L282,182L279,179L275,177L275,175L272,174L265,172L258,174L255,178L249,176L244,176L244,175L244,175Z " data-fips="CF13" data-fips-="CF03" data-iso3="COG" data-name="Cuvette"/><path d="M127,399L126,398L123,396L118,396L116,389L111,382L104,379L101,378L98,376L93,375L83,367L83,367L75,366L71,360L66,358L64,360L58,363L54,367L53,368L51,377L61,386L64,392L65,392L76,402L81,407L80,412L82,416L82,418L91,428L97,423L98,421L99,417L105,417L108,412L108,410L114,408L119,407L127,399L127,399Z " data-fips="CF04" data-fips-="" data-iso3="COG" data-name="Kouilou"/><path d="M137,304L139,308L139,316L140,323L139,326L138,327L138,330L142,332L142,342L138,345L132,347L122,349L121,352L121,357L121,359L121,359L124,359L124,360L128,362L132,368L131,370L133,373L139,377L145,377L149,377L154,380L155,382L161,382L166,370L171,368L171,366L175,362L177,359L178,359L180,353L186,348L190,343L191,337L193,335L196,333L196,333L200,328L198,322L198,320L193,320L190,318L193,316L190,314L191,313L188,310L188,310L182,309L177,310L178,306L177,301L172,292L169,297L159,308L155,308L142,305L138,303L137,304Z " data-fips="CF05" data-fips-="" data-iso3="COG" data-name="Lkoumou"/><path d="M83,367L93,375L98,376L101,378L104,379L111,382L116,389L118,396L123,396L126,398L127,399L128,400L130,399L133,403L138,409L141,408L145,411L145,412L153,417L156,422L160,418L161,416L164,417L164,417L163,414L156,410L152,404L150,401L147,399L139,398L133,389L124,378L123,376L119,372L121,369L119,362L120,360L121,359L121,357L121,352L122,349L132,347L138,345L142,342L142,332L138,330L138,327L139,326L140,323L139,316L139,308L137,304L136,305L136,298L133,296L128,285L120,279L118,279L115,281L110,283L111,288L114,292L112,295L113,297L111,302L93,307L90,306L88,303L79,307L75,304L70,303L70,304L71,307L71,312L73,316L72,319L69,325L69,328L71,326L76,330L79,333L80,335L77,336L76,342L82,346L88,350L83,360L86,363L84,367L83,367Z " data-fips="CF07" data-fips-="" data-iso3="COG" data-name="Niari"/><path d="M195,286L195,293L193,297L191,297L191,299L194,302L194,304L192,304L190,306L189,309L188,310L191,313L190,314L193,316L190,318L193,320L198,320L198,322L200,328L196,333L196,333L197,335L204,336L208,338L210,334L218,327L221,323L225,321L228,329L232,329L235,329L238,333L244,335L248,335L253,334L261,329L262,328L268,326L272,327L277,331L286,331L285,329L286,324L287,317L285,301L286,296L289,292L295,288L298,284L306,273L307,270L308,268L305,266L293,263L292,259L289,255L278,250L275,249L269,245L258,238L251,240L248,243L242,247L237,254L235,261L231,266L222,269L218,273L217,275L214,280L211,284L207,287L202,288L201,284L195,286Z " data-fips="CF08" data-fips-="" data-iso3="COG" data-name="Plateaux"/></g></svg>