<?xml version="1.0" encoding="UTF-8"?><!DOCTYPE svg  PUBLIC '-//W3C//DTD SVG 1.1//EN'  'http://www.w3.org/Graphics/SVG/1.1/DTD/svg11.dtd'><svg enable_background="new 0 0 450 451" height="451px" style="stroke-linejoin: round; stroke:#000; fill:#f6f3f0;" version="1.1" viewBox="0 0 450 451" width="450px" xmlns="http://www.w3.org/2000/svg" xmlns:xlink="http://www.w3.org/1999/xlink"><defs><style type="text/css"><![CDATA[path { fill-rule: evenodd; }
#context path { fill: #eee; stroke: #bbb; } ]]></style></defs><metadata><views><view h="451" padding="0.06" w="450"><proj id="laea" lat0="-2.05150237399" lon0="-71.3424854859"/><bbox h="241.26" w="202.76" x="863.22" y="796.58"/><llbbox lat0="-90" lat1="90" lon0="-180" lon1="180"/></view></views></metadata><g id="context"><path d="M324,46L320,43L320,44L324,46Z " data-iso="ABW"/><path d="M393,303L389,304L388,292L383,284L380,283L377,285L372,290L368,291L363,286L362,289L336,292L334,291L325,292L325,307L341,312L341,317L334,315L320,318L320,331L321,336L323,339L330,343L333,353L334,354L335,360L335,364L323,428L322,429L322,430L314,429L312,427L303,427L299,431L279,435L268,441L260,448L256,449L450,449L450,298L448,298L434,306L426,316L424,316L425,312L424,310L420,309L412,314L406,314L399,309L393,303Z M450,237L445,236L444,234L440,234L450,245L450,237Z " data-iso="BRA"/><path d="M153,133L151,137L155,144L157,150L155,150L154,155L149,158L146,155L141,166L143,168L149,178L151,178L153,182L152,188L151,190L153,194L156,199L154,201L149,204L152,207L154,226L152,234L151,238L153,241L155,239L155,242L159,242L154,252L153,255L146,265L135,274L131,274L126,276L125,278L124,284L125,287L125,291L120,289L116,291L115,294L118,297L118,298L131,308L142,313L145,312L158,323L165,326L174,326L175,322L182,324L187,328L193,330L196,332L200,334L202,333L207,335L211,336L216,340L222,350L226,354L229,355L238,360L241,369L245,372L248,374L250,379L249,382L254,386L261,385L267,387L286,383L292,385L296,383L301,382L307,387L312,389L320,394L307,414L310,420L314,419L317,423L321,427L322,429L323,428L335,364L335,360L334,354L333,353L330,343L323,339L321,336L320,331L320,318L334,315L341,317L341,312L325,307L325,292L334,291L336,292L362,289L363,286L368,291L372,290L377,285L380,283L383,284L388,292L389,304L393,303L393,302L393,300L386,279L386,278L378,270L377,268L373,266L371,267L379,258L382,255L379,247L375,243L373,235L371,224L371,211L377,198L380,193L377,188L371,187L357,190L351,190L346,189L336,190L331,186L319,172L313,172L307,169L303,169L298,171L276,170L274,169L271,162L266,160L265,159L266,149L268,145L267,141L261,134L258,123L254,122L252,119L245,121L245,121L253,107L256,91L260,83L266,77L270,75L277,64L291,60L292,59L296,56L295,53L293,49L287,47L282,47L273,52L272,55L270,59L260,63L246,73L238,73L229,72L226,77L221,85L219,83L220,80L211,77L202,84L197,90L193,98L194,102L192,108L193,110L193,115L187,115L182,119L178,125L169,132L164,135L167,141L168,148L167,150L163,149L163,145L156,137L154,133L153,133Z " data-iso="COL"/><path d="M28,146L26,142L29,137L29,133L27,131L31,126L27,123L27,114L29,112L36,112L35,111L31,109L26,102L23,101L16,91L13,82L12,81L8,85L6,85L0,84L0,116L6,118L11,124L11,131L9,134L12,137L19,138L15,132L22,134L23,140L26,144L28,146Z " data-iso="CRI"/><path d="M350,55L348,53L344,51L340,48L340,50L344,53L350,55Z " data-iso="CUW"/><path d="M89,400L95,395L92,393L87,395L87,401L89,400Z M119,302L117,304L110,306L104,307L101,309L98,309L90,314L92,322L91,328L81,340L82,345L80,351L73,354L72,357L74,364L73,370L75,380L70,382L73,386L77,387L84,393L86,394L92,386L92,391L95,388L95,381L96,379L96,386L99,391L97,396L89,408L86,410L85,410L89,421L86,424L81,424L82,429L85,429L84,435L90,431L102,435L104,439L108,445L114,447L118,440L123,437L123,433L126,424L129,419L130,411L135,411L140,402L141,400L168,391L182,381L194,367L197,354L201,353L200,348L201,344L196,339L196,337L199,335L200,334L196,332L193,330L187,328L182,324L175,322L174,326L165,326L158,323L145,312L142,313L131,308L118,298L119,302Z " data-iso="ECU"/><path d="M11,80L7,72L10,66L13,64L11,60L9,59L11,55L13,51L11,44L14,42L16,42L17,34L16,26L18,16L20,10L21,9L25,2L25,0L0,0L0,84L6,85L8,85L12,81L11,80Z " data-iso="NIC"/><path d="M57,163L52,157L51,159L53,162L57,163Z M119,142L120,138L117,138L119,142Z M36,112L29,112L27,114L27,123L31,126L27,131L29,133L29,137L26,142L28,146L29,146L28,142L30,141L40,142L43,141L43,143L49,143L55,147L59,154L66,157L66,152L69,150L70,154L74,166L83,165L87,161L91,161L93,159L92,157L83,145L83,143L99,134L98,133L101,128L106,125L115,125L127,134L130,140L130,136L133,138L137,137L138,139L144,145L138,141L136,139L133,142L133,145L129,147L130,150L135,158L140,165L141,166L146,155L149,158L154,155L155,150L157,150L155,144L151,137L153,133L146,128L143,123L137,120L128,116L118,115L114,113L104,111L91,120L81,123L75,128L63,130L59,129L55,124L52,124L51,126L47,126L43,124L42,120L41,120L40,115L37,113L36,112Z " data-iso="PAN"/><path d="M322,429L321,427L317,423L314,419L310,420L307,414L320,394L312,389L307,387L301,382L296,383L292,385L286,383L267,387L261,385L254,386L249,382L250,379L248,374L245,372L241,369L238,360L229,355L226,354L222,350L216,340L211,336L207,335L202,333L200,334L199,335L196,337L196,339L201,344L200,348L201,353L197,354L194,367L182,381L168,391L141,400L140,402L135,411L130,411L129,419L126,424L123,433L123,437L118,440L114,447L108,445L104,439L102,435L90,431L84,435L85,429L82,429L81,424L86,424L89,421L85,410L81,412L74,418L72,421L65,430L63,432L62,440L68,448L67,449L256,449L260,448L268,441L279,435L299,431L303,427L312,427L314,429L322,430L322,429Z " data-iso="PER"/><path d="M291,60L277,64L270,75L266,77L260,83L256,91L253,107L245,121L245,121L252,119L254,122L258,123L261,134L267,141L268,145L266,149L265,159L266,160L271,162L274,169L276,170L298,171L303,169L307,169L313,172L319,172L331,186L336,190L346,189L351,190L357,190L371,187L377,188L380,193L377,198L371,211L371,224L373,235L375,243L379,247L382,255L379,258L371,267L373,266L377,268L378,270L386,278L386,279L393,300L393,302L393,303L399,309L406,314L412,314L420,309L424,310L425,312L424,316L426,316L434,306L448,298L450,298L450,245L440,234L444,234L445,236L450,237L450,93L438,100L432,101L416,96L407,88L390,88L386,89L376,90L370,91L364,91L359,84L361,82L358,76L348,70L339,68L330,69L328,67L326,60L325,57L321,53L318,54L315,59L317,65L325,64L324,69L320,67L316,71L309,74L303,75L293,79L288,80L288,83L286,85L290,96L293,99L297,106L297,109L297,117L292,122L286,124L282,122L281,117L276,113L273,107L277,100L284,92L283,83L282,80L284,79L281,76L279,65L288,63L291,61L291,60Z " data-iso="VEN"/></g><g fill="red" fill-opacity="0.35" id="regions"><path d="M291,328L290,330L279,337L276,337L272,339L270,345L268,346L266,344L255,345L253,344L249,345L240,343L237,341L235,341L233,341L220,344L220,344L221,348L224,354L227,355L228,355L233,359L238,360L241,365L241,371L249,373L250,379L248,382L250,384L253,385L255,387L258,386L266,387L274,385L277,385L282,380L289,385L292,385L299,382L301,382L305,385L307,388L311,388L314,390L319,392L320,395L306,418L309,420L314,419L323,428L334,367L335,361L335,360L333,358L330,357L330,356L323,355L321,353L316,354L315,353L317,351L316,344L317,342L314,342L308,339L302,337L299,332L295,330L295,329L292,329L291,328Z " data-fips="CO01" data-fips-="" data-iso3="COL" data-name="Amazonas"/><path d="M211,144L209,146L202,147L195,155L194,157L187,163L175,162L173,154L175,146L178,140L180,137L175,128L174,128L170,131L170,132L164,134L164,136L167,139L168,146L166,150L163,149L166,147L162,142L162,142L163,144L161,150L159,152L159,153L173,167L173,169L165,171L166,173L163,175L164,180L168,190L178,190L179,193L182,194L182,203L183,204L184,204L184,204L186,205L187,206L187,206L189,205L190,204L194,205L193,200L198,201L201,207L207,200L210,200L213,201L215,199L215,199L215,198L215,197L218,188L218,187L219,187L221,184L221,183L223,179L228,176L230,173L233,170L232,164L232,164L224,171L222,170L221,166L222,161L219,163L217,161L217,156L219,155L217,148L211,144L211,144Z " data-fips="CO02" data-fips-="" data-iso3="COL" data-name="Antioquia"/><path d="M276,171L276,171L272,170L269,172L265,173L264,173L265,174L265,177L263,181L261,184L260,182L259,189L255,191L253,195L250,195L244,199L242,198L244,194L241,191L238,200L237,199L231,200L226,196L225,197L225,194L223,192L221,192L218,188L218,187L218,188L215,197L215,198L215,199L215,199L215,199L215,199L216,199L222,198L223,202L227,206L230,208L234,204L240,208L242,215L241,219L243,219L249,225L251,223L252,223L252,222L253,217L254,211L257,208L260,210L266,204L270,202L266,197L267,194L266,189L268,186L268,186L269,185L273,181L274,177L277,171L276,171Z " data-fips="CO36" data-fips-="" data-iso3="COL" data-name="Boyac"/><path d="M191,115L189,115L183,117L181,120L179,125L175,128L175,128L180,137L178,140L175,146L173,154L175,162L187,163L194,157L195,155L202,147L209,146L211,144L211,144L211,143L212,143L212,142L212,142L212,142L212,140L208,137L203,139L200,136L199,130L203,126L202,123L198,122L197,120L192,117L192,116L191,115Z " data-fips="CO12" data-fips-="" data-iso3="COL" data-name="Crdoba"/><path d="M236,154L236,153L235,145L235,144L235,145L233,148L234,153L234,157L232,159L232,163L232,164L232,164L233,170L230,173L228,176L223,179L221,183L221,184L219,187L218,187L218,188L221,192L223,192L225,194L225,197L226,196L231,200L237,199L238,200L241,191L244,194L242,198L244,199L250,195L253,195L255,191L259,189L260,182L261,184L263,181L265,177L265,174L264,173L264,173L263,171L259,171L256,169L257,167L257,163L253,157L244,158L241,157L239,155L239,154L236,154Z " data-fips="CO26" data-fips-="" data-iso3="COL" data-name="Santander"/><path d="M240,73L239,76L239,77L239,81L239,83L243,83L247,83L248,86L252,88L250,91L251,93L255,93L255,92L261,82L265,77L270,76L277,64L288,61L296,56L296,55L294,50L287,46L284,47L280,49L279,52L276,51L273,53L273,54L270,59L266,61L260,63L244,73L240,73Z " data-fips="CO17" data-fips-="" data-iso3="COL" data-name="La Guajira"/><path d="M215,199L213,201L210,200L207,200L201,207L198,201L193,200L194,205L190,204L189,205L187,206L187,208L191,208L192,210L187,218L190,216L198,221L198,221L199,220L200,214L206,211L213,210L213,210L213,210L215,204L215,202L215,200L215,199L215,199L215,199L215,199L215,199Z " data-fips="CO37" data-fips-="" data-iso3="COL" data-name="Caldas"/><path d="M251,223L249,225L243,219L241,219L242,215L240,208L234,204L230,208L227,206L223,202L222,198L216,199L215,199L215,200L215,202L215,204L213,210L213,210L213,210L212,220L210,233L217,233L218,234L217,243L217,245L218,246L219,246L220,244L221,242L222,237L224,237L226,231L226,228L225,225L230,221L229,225L230,225L227,229L226,233L228,237L227,238L226,240L227,240L236,235L235,231L237,228L239,229L242,233L244,232L250,234L251,223L252,223L251,223Z " data-fips="" data-fips-="" data-iso3="COL" data-name="Cundinamarca"/><path d="M227,238L228,237L226,233L227,229L230,225L229,225L230,221L225,225L226,228L226,231L224,237L222,237L221,242L220,244L219,246L219,247L221,246L223,243L225,239L226,240L227,238Z " data-fips="CO34" data-fips-="CO33" data-iso3="COL" data-name="Bogota"/><path d="M198,224L196,224L195,224L191,223L191,223L191,224L187,226L187,230L189,232L188,237L189,238L189,238L191,237L193,233L195,228L198,223L198,223L198,224Z " data-fips="CO23" data-fips-="" data-iso3="COL" data-name="Quindo"/><path d="M187,206L186,205L184,204L184,204L183,204L182,204L181,207L180,210L182,215L182,216L183,216L184,219L186,221L189,223L191,223L191,223L195,224L196,224L198,224L198,223L198,221L198,221L190,216L187,218L192,210L191,208L187,208L187,206L187,206Z " data-fips="CO24" data-fips-="" data-iso3="COL" data-name="Risaralda"/><path d="M213,210L206,211L200,214L199,220L198,221L198,223L198,223L195,228L193,233L191,237L189,238L190,239L184,248L184,250L182,257L182,258L182,258L181,260L181,260L183,263L183,264L184,264L188,265L193,259L196,254L199,253L201,254L204,253L206,253L209,256L210,255L213,249L217,245L217,245L217,243L218,234L217,233L210,233L212,220L213,210L213,210L213,210Z " data-fips="CO28" data-fips-="" data-iso3="COL" data-name="Tolima"/><path d="M235,294L232,294L218,289L216,288L216,285L217,282L215,278L215,275L216,270L214,266L212,265L209,264L209,264L206,268L207,271L206,272L201,274L200,278L188,293L182,296L181,295L180,296L177,301L177,304L180,306L183,308L183,308L186,309L188,311L194,313L195,314L200,314L202,317L203,320L207,321L208,325L214,328L215,330L220,333L223,335L233,341L233,341L235,341L237,341L240,343L249,345L253,344L255,345L266,344L268,346L270,345L272,339L276,337L279,337L290,330L291,328L291,328L282,324L279,323L275,316L275,316L274,316L270,315L269,312L263,306L260,304L256,305L255,307L253,309L250,310L247,308L237,295L237,294L235,294Z " data-fips="CO08" data-fips-="" data-iso3="COL" data-name="Caquet"/><path d="M142,272L140,270L141,272L142,272Z M182,258L181,257L173,256L174,258L171,260L166,259L164,261L160,258L156,260L151,257L151,257L145,265L145,266L142,268L144,271L143,272L139,273L139,273L142,282L142,282L150,281L154,283L156,287L154,289L154,293L155,293L160,292L163,293L164,296L163,297L163,301L163,301L164,301L166,302L169,299L170,299L173,308L174,309L182,308L183,308L180,306L177,304L177,301L180,296L181,295L180,295L172,290L170,286L174,283L176,279L175,277L178,277L183,276L184,274L188,276L183,265L183,264L183,263L181,260L181,260L182,258L182,258Z " data-fips="CO09" data-fips-="" data-iso3="COL" data-name="Cauca"/><path d="M218,246L217,245L217,245L213,249L210,255L209,256L206,253L204,253L201,254L199,253L196,254L193,259L188,265L184,264L183,264L183,265L188,276L184,274L183,276L178,277L175,277L176,279L174,283L170,286L172,290L180,295L181,295L182,296L188,293L200,278L201,274L206,272L207,271L206,268L209,264L209,264L209,264L211,260L214,258L216,251L218,247L219,246L218,246Z " data-fips="CO16" data-fips-="" data-iso3="COL" data-name="Huila"/><path d="M159,324L158,318L155,316L158,312L160,309L159,306L162,302L163,301L163,301L163,297L164,296L163,293L160,292L155,293L154,293L154,289L156,287L154,283L150,281L142,282L142,282L139,273L138,274L132,273L130,275L128,274L128,275L125,276L122,281L125,290L124,291L118,290L115,292L115,295L116,295L119,299L127,305L129,307L136,311L140,312L141,313L144,312L148,316L151,318L151,320L153,323L158,323L159,324Z M136,274L136,272L133,272L136,274Z " data-fips="CO20" data-fips-="" data-iso3="COL" data-name="Nario"/><path d="M163,301L162,302L159,306L160,309L158,312L155,316L158,318L159,324L159,324L163,326L170,327L174,326L174,323L178,322L196,332L203,332L210,337L212,336L217,342L220,344L220,344L233,341L233,341L223,335L220,333L215,330L214,328L208,325L207,321L203,320L202,317L200,314L195,314L194,313L188,311L186,309L183,308L183,308L182,308L174,309L173,308L170,299L169,299L166,302L164,301L163,301Z " data-fips="CO22" data-fips-="" data-iso3="COL" data-name="Putumayo"/><path d="M189,223L186,221L184,219L183,216L182,216L182,217L179,220L177,222L174,228L174,235L167,240L155,234L155,234L155,235L155,235L154,236L154,236L151,236L151,237L153,241L155,237L156,240L154,240L157,243L160,242L158,244L156,249L154,250L154,252L151,254L151,257L151,257L156,260L160,258L164,261L166,259L171,260L174,258L173,256L181,257L182,258L182,257L184,250L184,248L190,239L189,238L189,238L188,237L189,232L187,230L187,226L191,224L191,223L189,223Z " data-fips="CO11" data-fips-="CO29" data-iso3="COL" data-name="Valle del Cauca"/><path d="M211,94L212,91L214,90L214,85L211,76L211,77L208,79L203,83L203,84L203,84L203,84L203,85L203,85L203,85L202,86L202,86L202,86L206,93L209,96L210,96L211,94Z " data-fips="CO04" data-fips-="" data-iso3="COL" data-name="Atlntico"/><path d="M202,86L199,87L195,93L196,94L194,100L194,100L200,105L200,109L200,110L210,115L209,117L212,124L215,126L218,129L215,141L212,141L212,142L212,142L212,142L212,143L211,143L211,144L217,148L219,155L217,156L217,161L219,163L222,161L221,166L222,170L224,171L232,164L232,163L232,159L234,157L234,153L233,148L235,145L235,144L235,144L236,138L235,134L234,128L233,128L233,127L233,125L227,124L225,122L219,119L219,120L214,115L213,116L211,109L212,108L211,103L212,103L211,101L209,99L209,96L210,96L209,96L206,93L202,86L202,86Z M203,84L202,84L202,85L203,85L203,85L203,84L203,84L203,84L203,84Z " data-fips="CO35" data-fips-="" data-iso3="COL" data-name="Bolvar"/><path d="M239,83L239,83L240,86L240,91L236,93L232,95L229,98L229,101L230,104L234,107L234,111L230,112L228,113L231,118L231,120L234,123L234,126L233,128L234,128L235,134L236,138L235,144L235,144L235,145L236,153L236,154L239,154L238,154L243,155L246,149L244,147L244,143L245,139L242,138L240,135L245,121L244,121L247,117L250,112L254,106L253,105L255,98L255,93L255,93L251,93L250,91L252,88L248,86L247,83L243,83L239,83Z " data-fips="CO10" data-fips-="" data-iso3="COL" data-name="Cesar"/><path d="M151,236L154,236L154,236L155,235L154,235L153,235L151,236L151,236Z M153,234L152,232L149,235L153,234Z M155,234L167,240L174,235L174,228L177,222L179,220L182,217L182,216L182,215L180,210L181,207L182,204L183,204L182,203L182,194L179,193L178,190L168,190L164,180L163,175L166,173L165,171L173,169L173,167L159,153L159,152L161,150L163,144L162,142L162,142L161,142L159,139L156,137L154,133L151,137L152,137L156,146L157,149L155,150L153,155L145,159L143,160L141,165L146,169L149,177L152,178L154,182L150,189L153,193L155,201L150,203L149,205L152,206L153,217L155,224L154,222L154,227L152,232L153,233L156,234L155,234Z " data-fips="CO11" data-fips-="" data-iso3="COL" data-name="Choc"/><path d="M240,73L237,73L232,72L226,73L225,74L226,77L223,83L218,85L219,82L220,83L220,80L211,76L211,76L214,85L214,90L212,91L211,94L210,96L209,96L209,99L211,101L212,103L211,103L212,108L211,109L213,116L214,115L219,120L219,119L225,122L227,124L233,125L233,127L233,128L234,126L234,123L231,120L231,118L228,113L230,112L234,111L234,107L230,104L229,101L229,98L232,95L236,93L240,91L240,86L239,83L239,83L239,81L239,77L239,76L240,73L240,73Z " data-fips="CO18" data-fips-="CO38" data-iso3="COL" data-name="Magdalena"/><path d="M212,141L215,141L218,129L215,126L212,124L209,117L210,115L200,110L200,109L200,105L194,100L195,101L193,106L191,109L193,109L194,111L192,116L192,116L192,117L197,120L198,122L202,123L203,126L199,130L200,136L203,139L208,137L212,140L212,142L212,141Z " data-fips="CO27" data-fips-="" data-iso3="COL" data-name="Sucre"/><path d="M277,171L274,177L273,181L269,185L268,186L268,187L270,191L274,191L284,189L292,188L294,188L302,189L313,187L318,188L323,191L324,193L325,193L325,193L327,192L331,193L335,191L334,191L319,172L319,172L314,172L310,171L308,169L302,169L300,171L292,171L289,170L283,170L279,171L277,171Z " data-fips="CO03" data-fips-="" data-iso3="COL" data-name="Arauca"/><path d="M245,121L240,135L242,138L245,139L244,143L244,147L246,149L243,155L238,154L239,154L239,155L241,157L244,158L253,157L257,163L257,167L256,169L259,171L263,171L264,173L264,173L265,173L269,172L272,170L276,171L276,170L272,164L272,163L266,161L265,158L265,149L268,147L267,140L265,139L257,122L255,123L252,118L247,121L245,121Z " data-fips="CO21" data-fips-="" data-iso3="COL" data-name="Norte de Santander"/><path d="M324,193L323,191L318,188L313,187L302,189L294,188L292,188L284,189L274,191L270,191L268,187L268,186L268,186L266,189L267,194L266,197L270,202L266,204L260,210L257,208L254,211L253,217L252,222L252,223L252,223L258,231L263,232L273,229L286,224L297,219L297,219L298,218L300,214L311,205L317,203L320,202L322,198L324,194L325,193L324,193Z " data-fips="CO32" data-fips-="" data-iso3="COL" data-name="Casanare"/><path d="M297,266L292,265L291,266L287,266L284,267L282,265L275,267L271,266L270,270L269,268L257,272L252,276L243,278L238,277L238,294L237,294L237,295L247,308L250,310L253,309L255,307L256,305L260,304L263,306L269,312L270,315L274,316L275,316L279,312L282,309L283,309L287,305L286,304L289,296L290,292L293,293L301,288L304,288L318,284L319,283L319,283L321,279L315,280L308,279L305,274L301,271L310,268L308,266L305,268L299,267L298,266L297,266L297,266Z " data-fips="CO14" data-fips-="" data-iso3="COL" data-name="Guaviare"/><path d="M374,239L370,241L365,240L364,241L361,240L355,244L350,246L346,246L345,248L338,246L331,247L330,250L326,250L323,251L320,250L318,255L315,261L315,264L311,267L310,268L301,271L305,274L308,279L315,280L321,279L319,283L319,283L319,284L318,289L321,291L325,292L326,292L328,292L334,291L337,292L364,292L362,291L362,289L365,287L366,289L372,291L375,286L380,283L383,284L389,296L388,303L389,305L393,304L393,301L391,295L391,293L388,283L387,282L386,277L383,275L376,267L371,267L371,266L381,257L383,255L380,247L375,243L374,239L374,239Z " data-fips="CO15" data-fips-="" data-iso3="COL" data-name="Guaina"/><path d="M297,254L297,219L297,219L286,224L273,229L263,232L258,231L252,223L252,223L251,223L250,234L244,232L242,233L239,229L237,228L235,231L236,235L227,240L226,240L225,239L223,243L221,246L219,247L219,246L218,247L216,251L214,258L211,260L209,264L209,264L212,265L214,266L216,270L215,275L215,278L217,282L216,285L216,288L218,289L232,294L235,294L237,294L238,294L238,277L243,278L252,276L257,272L269,268L270,270L271,266L275,267L282,265L284,267L287,266L291,266L292,265L297,266L297,266L297,254Z " data-fips="CO19" data-fips-="" data-iso3="COL" data-name="Meta"/><path d="M319,283L318,284L304,288L301,288L293,293L290,292L289,296L286,304L287,305L283,309L282,309L279,312L275,316L275,316L279,323L282,324L291,328L291,328L292,329L295,329L295,330L299,332L302,337L308,339L314,342L317,342L316,344L317,351L315,353L316,354L321,353L323,355L330,356L330,357L333,358L335,360L335,359L333,353L332,353L321,337L320,334L320,318L329,316L330,317L334,315L336,317L341,314L341,312L338,308L335,308L325,307L325,292L325,292L321,291L318,289L319,284L319,283Z " data-fips="CO30" data-fips-="" data-iso3="COL" data-name="Vaups"/><path d="M335,191L331,193L327,192L325,193L325,193L324,194L322,198L320,202L317,203L311,205L300,214L298,218L297,219L297,254L297,266L298,266L299,267L305,268L308,266L310,268L311,267L315,264L315,261L318,255L320,250L323,251L326,250L330,250L331,247L338,246L345,248L346,246L350,246L355,244L361,240L364,241L365,240L370,241L374,239L374,238L372,236L373,231L372,229L371,224L372,215L371,214L373,207L376,206L375,201L377,198L380,193L378,189L374,187L371,187L360,190L357,189L352,191L340,191L335,191L335,191Z " data-fips="CO31" data-fips-="" data-iso3="COL" data-name="Vichada"/></g></svg>