<?xml version="1.0" encoding="UTF-8"?><!DOCTYPE svg  PUBLIC '-//W3C//DTD SVG 1.1//EN'  'http://www.w3.org/Graphics/SVG/1.1/DTD/svg11.dtd'><svg enable_background="new 0 0 450 301" height="301px" style="stroke-linejoin: round; stroke:#000; fill:#f6f3f0;" version="1.1" viewBox="0 0 450 301" width="450px" xmlns="http://www.w3.org/2000/svg" xmlns:xlink="http://www.w3.org/1999/xlink"><defs><style type="text/css"><![CDATA[path { fill-rule: evenodd; }
#context path { fill: #eee; stroke: #bbb; } ]]></style></defs><metadata><views><view h="301.0" padding="0.06" w="450"><proj id="laea" lat0="9.80190847455" lon0="-83.702696169"/><bbox h="44.17" w="45.98" x="970.35" y="980.09"/><llbbox lat0="-90" lat1="90" lon0="-180" lon1="180"/></view></views></metadata><g id="context"><path d="M103,31L102,35L91,41L89,43L95,47L105,52L109,56L108,61L109,65L106,71L95,84L94,93L98,107L107,121L112,126L137,134L151,150L154,153L157,151L158,146L163,143L173,133L171,128L166,124L150,117L144,109L142,96L144,98L147,102L161,108L187,127L193,136L190,143L191,148L198,154L206,158L227,163L236,170L254,179L267,189L276,199L277,205L277,218L275,224L268,234L278,245L283,248L291,249L297,251L304,251L304,243L293,234L289,226L296,225L305,230L315,236L317,243L318,256L325,261L333,270L338,279L338,274L335,269L332,264L326,259L326,257L328,255L340,247L341,244L341,238L340,232L335,223L338,218L344,214L350,210L351,209L349,206L346,202L338,197L333,197L333,181L333,164L340,159L341,154L344,152L357,159L360,158L364,153L360,150L346,146L344,140L339,137L326,119L318,115L299,92L291,79L281,57L280,50L277,45L275,42L274,48L269,53L261,56L252,57L238,53L232,53L230,51L229,48L225,43L217,36L213,37L206,35L194,31L188,30L171,39L120,20L116,18L113,19L105,29L103,29L103,31Z " data-iso="CRI"/><path d="M103,29L105,29L113,19L116,18L120,20L171,39L188,30L194,31L206,35L213,37L217,36L225,43L229,48L230,51L232,53L238,53L252,57L261,56L269,53L274,48L275,42L269,40L265,34L260,24L257,10L257,5L259,0L171,0L176,7L179,13L181,17L182,21L183,25L180,29L177,30L172,32L169,30L163,30L155,28L142,24L130,20L121,16L116,13L111,11L108,8L105,5L102,0L77,0L85,6L96,18L103,27L103,29Z " data-iso="NIC"/><path d="M391,170L389,166L384,167L390,174L391,170Z M364,153L360,158L357,159L344,152L341,154L340,159L333,164L333,181L333,197L338,197L346,202L349,206L351,209L350,210L344,214L338,218L335,223L340,232L341,238L341,244L340,247L328,255L326,257L326,259L332,264L335,269L338,274L338,279L340,277L339,265L346,260L355,258L367,261L381,262L391,259L392,266L398,269L403,266L413,267L422,271L433,273L438,283L447,299L450,299L450,216L448,216L434,200L427,195L424,191L419,190L419,192L424,198L429,205L425,206L419,205L404,207L400,203L390,199L391,190L395,185L394,184L388,186L383,184L380,173L381,170L380,166L369,158L364,153Z " data-iso="PAN"/></g><g fill="red" fill-opacity="0.35" id="regions"><path d="M288,162L286,159L286,154L287,152L292,146L294,142L300,133L301,132L300,125L302,121L300,120L279,120L277,119L261,112L250,107L252,111L256,115L256,121L253,123L252,123L246,124L245,129L243,133L239,137L239,139L246,138L248,140L252,145L261,152L265,152L269,157L272,156L275,154L279,157L288,163L288,162Z " data-fips="CS02" data-fips-="" data-iso3="CRI" data-name="Cartago" data-p="C"/><path d="M233,52L232,105L230,119L229,121L229,122L231,122L233,123L236,121L243,120L245,115L243,111L240,107L240,105L248,104L250,102L253,102L257,97L258,95L259,90L256,85L260,77L259,74L260,65L268,59L268,56L265,54L265,54L253,58L252,58L246,54L246,53L241,53L239,54L233,52L233,52Z " data-fips="CS04" data-fips-="" data-iso3="CRI" data-name="Heredia" data-p="H"/><path d="M265,54L268,56L268,59L260,65L259,74L260,77L256,85L259,90L258,95L257,97L253,102L252,102L251,103L250,107L261,112L277,119L279,120L300,120L302,121L300,125L301,132L300,133L294,142L292,146L287,152L286,154L286,159L288,162L288,163L291,170L291,171L292,171L293,172L295,173L299,173L300,172L303,172L309,175L314,175L322,183L323,188L327,190L333,196L333,165L333,164L335,162L339,161L341,160L338,155L339,153L342,151L347,153L350,156L353,157L354,159L360,160L360,157L362,156L363,153L360,149L358,149L352,148L347,146L345,145L344,139L342,140L338,137L333,130L332,129L327,122L326,118L321,118L318,115L312,108L311,107L295,87L290,77L285,65L281,54L279,58L279,56L275,58L278,56L278,53L277,47L279,52L280,53L280,51L275,41L273,42L273,51L270,52L265,54Z " data-fips="CS06" data-fips-="" data-iso3="CRI" data-name="Limn" data-p="L"/><path d="M150,116L148,120L144,122L142,121L138,124L140,125L146,127L148,132L148,137L144,141L144,141L151,150L154,155L164,143L163,139L167,141L168,138L170,137L174,132L169,132L171,130L170,129L167,123L165,123L151,118L150,116Z M151,109L154,109L152,108L147,108L148,110L155,111L151,109Z M181,92L180,91L177,91L174,93L174,103L170,106L165,105L158,105L158,105L158,107L162,108L172,117L174,118L181,119L181,120L176,120L176,121L183,120L185,121L187,125L186,126L194,137L192,141L190,147L194,151L194,152L202,158L208,158L219,161L227,164L226,162L232,167L231,169L234,170L237,170L245,173L252,177L259,183L265,187L265,189L268,190L274,197L276,199L278,205L281,212L277,211L277,212L280,215L275,219L281,219L276,221L275,223L274,228L270,229L267,233L267,236L278,244L282,249L290,248L303,254L304,254L305,246L304,244L303,241L300,238L296,237L292,233L288,226L293,226L294,224L296,223L301,225L302,229L304,231L306,230L308,233L314,232L318,235L315,237L314,234L313,235L317,242L321,248L316,254L319,257L329,265L331,267L336,276L337,280L338,277L333,267L332,264L329,263L324,259L324,258L330,254L332,252L337,250L341,246L341,244L340,233L339,230L335,224L335,221L338,220L339,215L348,212L348,203L344,202L335,196L333,197L333,196L327,190L323,188L322,183L314,175L309,175L303,172L300,172L299,173L295,173L293,172L291,174L289,178L287,180L289,189L288,194L287,195L281,195L274,190L272,186L268,182L264,184L260,182L258,178L258,176L255,172L254,170L245,165L242,160L239,159L240,156L235,155L233,150L229,151L224,150L222,149L217,149L213,149L213,152L211,154L201,153L198,145L197,140L201,138L201,135L198,133L199,133L197,130L191,128L194,123L200,118L197,117L191,109L191,101L192,98L189,95L184,96L183,95L181,92Z " data-fips="CS07" data-fips-="CS01" data-iso3="CRI" data-name="Puntarenas" data-p="P"/><path d="M251,103L252,102L253,102L250,102L248,104L240,105L240,107L243,111L245,115L243,120L236,121L233,123L231,122L229,122L228,123L219,126L215,125L208,125L200,132L199,133L199,133L198,133L201,135L201,138L197,140L198,145L201,153L211,154L213,152L213,149L217,149L222,149L224,150L229,151L233,150L235,155L240,156L239,159L242,160L245,165L254,170L255,172L258,176L258,178L260,182L264,184L268,182L272,186L274,190L281,195L287,195L288,194L289,189L287,180L289,178L291,174L293,172L292,171L291,171L291,170L288,163L279,157L275,154L272,156L269,157L265,152L261,152L252,145L248,140L246,138L239,139L239,137L243,133L245,129L246,124L252,123L253,123L256,121L256,115L252,111L250,107L251,103Z " data-fips="CS08" data-fips-="" data-iso3="CRI" data-name="San Jos" data-p="SJ"/><path d="M144,30L142,31L138,35L131,41L128,41L128,42L131,46L135,49L138,49L140,54L150,54L155,57L160,59L162,60L168,70L176,73L183,81L182,86L182,89L181,92L183,95L184,96L189,95L192,98L191,101L191,109L197,117L200,118L194,123L191,128L197,130L199,133L199,133L200,132L208,125L215,125L219,126L228,123L229,122L229,121L230,119L232,105L233,52L232,52L229,52L228,51L229,48L229,46L220,41L217,35L211,38L206,35L200,32L195,32L192,29L188,29L173,39L169,39L155,34L144,30Z " data-fips="CS01" data-fips-="" data-iso3="CRI" data-name="Alajuela" data-p="A"/><path d="M135,26L122,22L115,17L112,18L110,21L106,27L109,30L108,32L105,31L103,33L106,36L105,40L99,40L98,42L97,39L92,39L93,40L91,41L86,43L89,44L96,47L98,47L98,48L105,50L109,53L108,64L106,66L107,67L110,64L112,66L106,71L106,72L99,72L97,75L100,80L97,84L95,83L93,89L94,92L93,93L94,98L99,111L108,121L108,125L123,129L124,130L127,129L136,132L139,134L141,136L141,138L144,140L144,141L148,137L148,132L146,127L140,125L138,124L142,121L144,122L148,120L150,116L148,115L149,114L147,111L145,110L143,98L140,96L140,94L145,99L144,101L146,103L149,104L155,104L157,105L158,105L165,105L170,106L174,103L174,93L177,91L180,91L181,92L182,89L182,86L183,81L176,73L168,70L162,60L160,59L155,57L150,54L140,54L138,49L135,49L131,46L128,42L128,41L131,41L138,35L142,31L144,30L135,26Z " data-fips="CS03" data-fips-="" data-iso3="CRI" data-name="Guanacaste" data-p="G"/></g></svg>