<?xml version="1.0" encoding="UTF-8"?><!DOCTYPE svg  PUBLIC '-//W3C//DTD SVG 1.1//EN'  'http://www.w3.org/Graphics/SVG/1.1/DTD/svg11.dtd'><svg enable_background="new 0 0 450 301" height="301px" style="stroke-linejoin: round; stroke:#000; fill:#f6f3f0;" version="1.1" viewBox="0 0 450 301" width="450px" xmlns="http://www.w3.org/2000/svg" xmlns:xlink="http://www.w3.org/1999/xlink"><defs><style type="text/css"><![CDATA[path { fill-rule: evenodd; }
#context path { fill: #eee; stroke: #bbb; } ]]></style></defs><metadata><views><view h="301.0" padding="0.06" w="450"><proj id="laea" lat0="22.2059704658" lon0="-80.4941800846"/><bbox h="57.09" w="139.6" x="941.51" y="979.44"/><llbbox lat0="-90" lat1="90" lon0="-180" lon1="180"/></view></views></metadata><g id="context"><path d="M450,158L447,158L442,164L442,169L450,168L450,158Z M420,119L424,115L428,112L433,105L431,100L432,97L428,98L429,108L425,111L423,114L418,118L417,120L420,119Z M425,98L420,97L418,95L415,94L417,99L423,101L425,98Z M396,92L395,88L392,85L387,83L385,75L381,67L377,62L377,65L383,75L384,81L381,82L385,84L390,86L395,94L396,92Z M365,71L354,64L352,63L351,66L354,66L360,71L365,71Z M409,45L405,44L404,49L406,50L409,45Z M291,41L290,40L279,43L282,48L285,50L286,56L287,57L288,61L295,62L297,57L295,46L293,43L291,47L288,45L291,41Z M377,41L368,31L363,22L360,24L363,26L370,36L373,39L370,42L377,43L377,41Z M302,11L303,8L295,9L298,12L302,11Z M288,23L284,20L281,14L279,12L279,8L277,6L272,4L271,4L273,11L272,15L268,22L270,26L267,28L266,26L263,27L266,30L274,32L274,35L276,37L277,40L288,33L288,23Z M339,0L345,6L345,9L343,13L342,20L345,24L345,20L346,15L346,6L341,0L339,0Z " data-iso="BHS"/><path d="M112,148L110,141L105,135L96,133L93,138L93,139L97,147L92,148L89,146L93,152L97,153L101,153L109,151L112,148Z M293,133L294,129L289,128L283,128L284,130L290,132L291,134L293,133Z M285,126L284,123L279,123L285,126Z M279,120L277,116L273,114L270,115L274,118L279,120Z M257,110L255,110L260,113L270,113L267,110L262,110L257,110Z M231,105L222,100L220,100L224,104L231,106L231,105Z M139,85L130,84L121,86L109,90L87,93L58,104L55,106L49,111L46,115L45,120L47,127L46,129L40,129L27,134L30,136L34,134L41,133L40,139L50,134L58,133L63,124L71,124L76,123L78,123L82,122L86,119L92,114L96,111L102,108L106,104L137,105L143,107L144,108L142,113L130,116L134,120L140,124L154,125L157,128L159,128L163,121L166,127L171,130L188,129L189,127L192,131L202,139L210,142L237,150L250,147L254,148L257,151L261,159L263,169L270,174L277,181L281,182L287,182L306,184L310,185L312,188L315,191L313,196L298,207L293,216L302,216L311,214L319,214L327,212L337,211L351,210L365,210L373,213L383,213L387,210L388,208L390,212L394,211L399,208L407,205L422,204L425,200L424,195L416,194L411,192L397,182L385,180L380,180L369,179L366,180L365,176L371,175L368,173L370,169L369,166L366,165L353,164L346,161L338,159L331,159L327,156L323,157L324,154L314,147L308,151L308,149L304,146L311,147L312,145L305,140L299,136L296,135L299,139L294,139L286,135L275,127L255,117L237,116L233,116L223,109L219,102L212,99L213,97L204,94L197,95L186,92L183,88L170,89L160,87L149,87L139,85Z " data-iso="CUB"/><path d="M156,237L154,236L154,240L166,239L165,237L159,237L156,237Z " data-iso="CYM"/><path d="M450,265L445,263L439,263L429,261L425,260L419,262L416,269L418,273L426,276L439,284L443,278L450,276L450,265Z " data-iso="HTI"/><path d="M314,299L318,294L320,295L323,296L326,291L339,294L347,294L351,292L345,283L332,279L324,274L315,273L311,272L303,271L287,269L279,273L275,273L270,277L270,279L272,282L280,283L284,288L292,295L296,296L303,296L314,299Z " data-iso="JAM"/><path d="M169,24L173,22L167,23L169,24Z M195,0L192,5L190,7L185,14L193,7L196,0L195,0Z M166,0L164,3L166,7L170,7L175,6L180,6L186,3L189,3L193,0L172,2L172,4L166,0Z " data-iso="USA"/></g><g fill="red" fill-opacity="0.35" id="regions"><path d="M206,134L203,126L202,119L197,110L196,109L193,111L190,109L189,109L188,110L187,111L186,113L184,114L176,113L172,118L174,124L179,127L184,127L185,130L188,130L190,129L187,125L189,125L192,128L190,129L196,135L203,139L203,139L203,137L204,137L205,136L206,134L206,134Z " data-fips="CU08" data-fips-="" data-iso3="CUB" data-name="Cienfuegos"/><path d="M101,134L96,133L96,135L93,137L93,141L97,149L93,149L92,148L90,149L92,151L102,153L105,152L112,148L110,145L110,141L104,135L101,134Z " data-fips="CU04" data-fips-="" data-iso3="CUB" data-name="Isla de la Juventud"/><path d="M103,107L100,96L99,95L99,92L98,93L92,91L91,94L89,91L84,94L82,96L81,95L79,97L77,96L76,98L69,99L60,103L59,102L54,108L48,111L45,116L44,122L44,124L47,125L46,129L41,129L38,130L29,133L24,134L26,137L30,136L33,134L39,132L41,133L41,135L40,138L43,138L48,135L55,133L58,134L59,132L61,129L59,129L62,124L68,124L72,123L75,121L76,123L79,124L88,117L91,117L93,113L100,109L102,107L103,107Z " data-fips="CU01" data-fips-="" data-iso3="CUB" data-name="Pinar del Ro"/><path d="M228,113L227,115L229,119L230,122L226,123L225,125L222,125L215,124L217,128L214,133L210,132L207,134L206,134L205,136L204,137L203,137L203,139L204,139L210,142L212,145L215,143L220,144L221,146L224,147L225,146L232,149L235,150L239,149L245,148L245,148L245,144L243,143L240,145L239,142L242,134L244,134L245,131L242,128L242,125L246,116L244,116L237,117L235,117L231,115L228,113Z " data-fips="CU14" data-fips-="" data-iso3="CUB" data-name="Sancti Spritus"/><path d="M247,179L246,180L249,180L247,179Z M237,171L238,173L241,176L240,174L237,171Z M245,148L247,148L253,146L257,150L257,150L262,147L264,147L265,145L268,142L269,139L272,141L274,139L274,137L271,134L272,133L277,128L277,128L274,126L269,125L266,122L263,121L260,119L254,117L252,119L252,116L250,116L246,116L242,125L242,128L245,131L244,134L242,134L239,142L240,145L243,143L245,144L245,148L245,148Z M267,110L264,109L259,110L255,110L255,111L264,113L264,115L270,114L267,110Z " data-fips="CU05" data-fips-="CU07" data-iso3="CUB" data-name="Ciego de vila"/><path d="M277,128L272,133L271,134L274,137L274,139L272,141L269,139L268,142L265,145L264,147L262,147L257,150L258,151L261,159L263,161L261,162L263,168L267,173L268,173L272,178L275,179L281,183L287,182L288,182L288,179L290,176L294,175L294,172L297,173L299,171L300,170L301,168L307,171L308,168L313,163L313,160L315,158L313,157L314,154L316,154L320,152L320,152L313,149L312,151L308,152L308,148L305,147L309,146L312,148L313,146L305,140L299,136L297,134L296,136L304,143L303,145L301,142L302,141L301,140L298,141L297,140L292,139L288,132L282,133L278,128L278,128L277,128Z M285,128L282,127L284,131L290,132L292,135L294,130L293,128L290,128L285,128Z M281,122L281,119L280,119L279,123L282,126L285,127L286,123L281,122Z M273,114L270,115L274,119L279,120L277,115L273,114Z " data-fips="CU05" data-fips-="" data-iso3="CUB" data-name="Camagey"/><path d="M383,213L388,210L390,206L391,208L395,210L395,209L401,206L410,205L416,204L422,203L422,202L425,196L422,194L416,196L412,193L404,186L404,185L401,188L399,191L393,189L394,191L389,189L386,189L384,192L380,191L379,192L379,192L376,196L376,199L378,204L375,206L377,210L380,213L383,213Z " data-fips="CU10" data-fips-="" data-iso3="CUB" data-name="Guantnamo"/><path d="M327,182L326,181L318,180L311,180L306,182L307,182L311,185L310,188L316,192L315,195L312,199L304,202L297,207L292,214L293,217L302,216L307,214L316,215L318,215L318,212L320,212L330,209L334,210L336,208L339,208L341,205L342,198L343,195L348,193L349,192L348,190L342,188L342,186L335,184L334,182L329,181L329,181L327,182Z " data-fips="CU09" data-fips-="" data-iso3="CUB" data-name="Granma"/><path d="M343,160L342,165L337,169L336,171L332,172L331,171L329,178L329,181L329,181L329,181L334,182L335,184L342,186L342,188L348,190L349,192L350,192L352,192L352,189L355,187L361,193L369,191L373,187L378,187L378,190L379,192L380,191L384,192L386,189L389,189L394,191L393,189L399,191L401,188L404,185L403,185L397,181L393,180L389,182L384,179L383,182L380,182L379,179L375,180L376,181L370,179L369,178L366,181L365,180L364,177L372,177L372,176L368,173L371,168L370,166L366,164L360,166L359,165L355,166L350,165L350,164L344,160L343,160Z " data-fips="CU12" data-fips-="" data-iso3="CUB" data-name="Holgun"/><path d="M343,160L341,158L336,158L336,162L332,161L335,158L331,158L330,160L328,159L328,158L331,157L325,155L324,158L322,158L325,154L320,152L320,152L316,154L314,154L313,157L315,158L313,160L313,163L308,168L307,171L301,168L300,170L299,171L297,173L294,172L294,175L290,176L288,179L288,182L288,182L293,183L302,183L306,182L306,182L311,180L318,180L326,181L327,182L329,181L329,181L329,178L331,171L332,172L336,171L337,169L342,165L343,160L343,160Z " data-fips="CU13" data-fips-="CU05" data-iso3="CUB" data-name="Las Tunas"/><path d="M378,190L378,187L373,187L369,191L361,193L355,187L352,189L352,192L350,192L349,192L348,193L343,195L342,198L341,205L339,208L336,208L334,210L330,209L320,212L318,212L318,215L321,214L332,212L337,212L349,210L357,211L361,210L367,210L371,213L380,213L380,213L377,210L375,206L378,204L376,199L376,196L379,192L379,192L378,190Z " data-fips="CU15" data-fips-="" data-iso3="CUB" data-name="Santiago de Cuba"/><path d="M129,85L124,85L122,85L114,89L114,89L115,89L115,91L117,93L125,92L128,87L129,89L130,84L129,85Z " data-fips="CU02" data-fips-="" data-iso3="CUB" data-name="Ciudad de la Habana"/><path d="M130,84L129,89L128,87L125,92L117,93L115,91L115,89L114,89L112,89L107,90L100,90L99,92L99,92L99,95L100,96L103,107L103,107L105,104L113,104L118,104L128,105L136,105L146,109L146,109L147,107L147,103L145,99L145,94L143,93L145,89L145,86L139,86L138,86L130,84L130,84Z " data-fips="CU11" data-fips-="" data-iso3="CUB" data-name="La Habana"/><path d="M176,85L171,87L175,86L176,85Z M145,86L145,89L143,93L145,94L145,99L147,103L147,107L146,109L146,109L142,114L139,114L130,115L129,117L132,119L138,122L140,124L151,124L155,125L156,128L159,128L160,127L163,128L162,121L164,121L166,127L168,129L173,130L179,130L183,130L185,130L184,127L179,127L174,124L172,118L176,113L184,114L186,113L187,111L188,110L187,109L185,99L181,99L180,94L184,93L185,89L185,89L184,88L181,89L171,90L167,88L166,91L163,90L160,86L152,88L150,87L146,86L145,86Z " data-fips="CU03" data-fips-="" data-iso3="CUB" data-name="Matanzas"/><path d="M222,100L223,102L227,104L230,105L222,100Z M213,96L213,94L211,94L213,96Z M185,89L184,93L180,94L181,99L185,99L187,109L188,110L189,109L190,109L193,111L196,109L197,110L202,119L203,126L206,134L206,134L207,134L210,132L214,133L217,128L215,124L222,125L225,125L226,123L230,122L229,119L227,115L228,113L228,113L221,106L219,101L211,99L213,97L208,98L205,95L201,94L198,96L191,94L186,92L185,89Z " data-fips="CU16" data-fips-="" data-iso3="CUB" data-name="Villa Clara"/></g></svg>