<?xml version="1.0" encoding="UTF-8"?><!DOCTYPE svg  PUBLIC '-//W3C//DTD SVG 1.1//EN'  'http://www.w3.org/Graphics/SVG/1.1/DTD/svg11.dtd'><svg enable_background="new 0 0 450 301" height="301px" style="stroke-linejoin: round; stroke:#000; fill:#f6f3f0;" version="1.1" viewBox="0 0 450 301" width="450px" xmlns="http://www.w3.org/2000/svg" xmlns:xlink="http://www.w3.org/1999/xlink"><defs><style type="text/css"><![CDATA[path { fill-rule: evenodd; }
#context path { fill: #eee; stroke: #bbb; } ]]></style></defs><metadata><views><view h="301.0" padding="0.06" w="450"><proj id="laea" lat0="34.8758560247" lon0="33.3819793127"/><bbox h="9.17" w="20.68" x="987.68" y="995.02"/><llbbox lat0="-90" lat1="90" lon0="-180" lon1="180"/></view></views></metadata><g id="context"><path d="M121,78L123,85L137,93L155,100L166,101L181,93L201,85L226,78L239,83L256,83L268,81L277,87L284,97L286,123L289,125L300,114L319,118L333,120L344,115L351,114L358,112L367,106L375,99L383,101L396,109L405,107L389,87L383,70L391,46L450,3L450,0L408,0L317,30L285,34L252,33L211,28L172,20L168,50L158,76L134,81L121,78Z " data-iso="CYN"/><path d="M108,75L87,82L69,100L50,110L31,101L34,136L55,183L62,196L75,203L116,218L128,219L154,215L165,222L171,238L185,240L189,232L189,222L197,212L209,206L223,206L249,200L275,192L297,177L338,133L351,132L365,134L390,132L415,127L409,112L405,107L396,109L383,101L375,99L367,106L358,112L351,114L344,115L333,120L319,118L300,114L289,125L286,123L284,97L277,87L268,81L256,83L239,83L226,78L201,85L181,93L166,101L155,100L137,93L123,85L121,78L108,75Z " data-iso="CYP"/></g><g fill="red" fill-opacity="0.35" id="regions"><path d="M354,127L354,130L359,130L358,129L354,127Z M348,124L349,123L349,121L347,121L347,124L348,124Z M295,116L299,125L297,125L293,134L287,134L281,136L277,134L276,134L273,142L272,143L260,145L256,142L254,143L249,147L242,153L241,154L236,150L228,151L227,149L224,149L215,153L214,155L213,157L213,162L214,163L230,168L240,178L242,181L244,187L243,195L244,203L246,202L249,200L266,197L272,193L272,186L275,190L287,185L297,182L304,174L307,174L314,173L317,172L320,166L323,164L324,162L323,157L324,152L326,143L329,138L334,134L338,132L335,125L329,124L320,120L317,121L314,120L312,119L310,121L308,124L304,126L301,125L300,121L300,115L298,113L296,115L295,116Z " data-fips="CY03" data-fips-="" data-iso3="CYP" data-name="Larnaca"/><path d="M293,118L292,125L291,130L285,131L283,128L282,124L285,113L285,104L285,97L277,90L277,82L275,82L266,83L262,82L261,83L256,88L253,90L250,94L245,93L242,91L237,84L234,83L226,81L222,81L217,85L211,89L206,89L200,88L194,87L192,88L190,90L181,95L173,103L170,105L167,105L160,100L158,101L153,107L148,108L144,107L142,105L142,99L139,97L130,92L124,90L121,88L119,85L116,76L116,75L109,74L107,81L104,83L101,83L98,83L95,81L93,78L89,78L89,78L89,79L98,88L98,90L103,96L102,105L98,107L99,110L102,115L107,118L111,126L112,139L111,140L109,147L112,151L114,153L117,151L118,153L123,152L125,149L127,148L133,150L133,147L135,139L141,137L144,139L156,142L163,142L167,141L175,136L179,135L180,136L185,143L193,149L196,154L204,153L213,157L214,155L215,153L224,149L227,149L228,151L236,150L241,154L242,153L249,147L254,143L256,142L260,145L272,143L273,142L276,134L277,134L281,136L287,134L293,134L297,125L299,125L295,116L293,118Z " data-fips="CY04" data-fips-="" data-iso3="CYP" data-name="Nicosia"/><path d="M87,76L86,76L84,79L81,82L78,86L75,94L70,101L63,108L55,112L46,112L42,111L38,108L32,100L27,97L25,99L24,104L25,110L27,115L31,123L32,128L33,137L37,144L35,147L35,151L40,159L47,164L52,178L53,182L54,190L56,191L64,198L68,201L72,202L81,203L86,205L90,206L101,214L105,215L105,209L107,203L108,201L112,199L117,195L119,194L120,188L119,181L122,176L127,172L132,163L136,159L134,154L133,150L127,148L125,149L123,152L118,153L117,151L114,153L112,151L109,147L111,140L112,139L111,126L107,118L102,115L99,110L98,107L102,105L103,96L98,90L98,88L89,79L89,78L87,76Z " data-fips="CY06" data-fips-="" data-iso3="CYP" data-name="Paphos"/><path d="M387,110L381,108L377,105L372,110L369,111L366,108L361,111L360,114L365,116L367,118L369,126L373,127L373,131L371,132L368,134L370,135L374,134L380,137L384,132L395,129L407,128L409,129L412,132L417,133L426,133L423,132L420,127L418,123L415,115L412,112L409,109L404,111L399,109L396,109L392,111L387,110Z " data-fips="CY01" data-fips-="" data-iso3="CYP" data-name="Famagusta"/><path d="M204,153L196,154L193,149L185,143L180,136L179,135L175,136L167,141L163,142L156,142L144,139L141,137L135,139L133,147L133,150L134,154L136,159L132,163L127,172L122,176L119,181L120,188L119,194L117,195L112,199L108,201L107,203L105,209L105,215L110,217L119,219L128,218L131,217L131,213L132,211L139,213L141,209L147,205L153,205L153,208L154,211L160,215L164,217L165,214L170,216L171,214L174,211L181,212L181,220L177,220L176,218L174,220L174,224L175,225L177,223L182,223L187,223L189,218L200,209L203,207L206,206L222,204L238,206L241,205L244,203L243,195L244,187L242,181L240,178L230,168L214,163L213,162L213,157L204,153Z " data-fips="CY05" data-fips-="" data-iso3="CYP" data-name="Limassol"/></g></svg>