<?xml version="1.0" encoding="UTF-8"?><!DOCTYPE svg  PUBLIC '-//W3C//DTD SVG 1.1//EN'  'http://www.w3.org/Graphics/SVG/1.1/DTD/svg11.dtd'><svg enable_background="new 0 0 450 301" height="301px" style="stroke-linejoin: round; stroke:#000; fill: none;" version="1.1" viewBox="0 0 450 301" width="450px" xmlns="http://www.w3.org/2000/svg" xmlns:xlink="http://www.w3.org/1999/xlink"><defs><style type="text/css"><![CDATA[path { fill-rule: evenodd; }]]></style></defs><metadata><views><view h="301.0" padding="0.06" w="450"><proj id="laea" lat0="50.5587142416" lon0="13.8064989625"/><bbox h="37.1" w="60.37" x="983.13" y="990.81"/></view></views></metadata><g class="" id="context"><path d="M317,256L316,254L313,247L302,244L295,240L288,239L281,244L272,245L262,244L248,234L240,234L234,232L222,226L217,225L208,227L206,225L202,223L197,222L196,224L195,238L193,244L187,243L180,253L180,260L167,257L164,258L160,262L149,262L141,260L137,251L133,248L128,245L126,245L126,246L125,258L124,261L121,265L118,267L106,262L105,263L101,279L96,285L90,287L81,290L70,296L66,299L324,299L320,293L313,276L312,271L317,260L317,257L317,256Z " data-iso="AUT"/><path d="M183,53L182,55L179,56L173,52L173,47L171,46L169,43L169,39L166,38L153,36L152,39L154,43L159,47L158,48L149,52L143,55L137,57L131,61L120,65L111,66L109,67L106,74L104,76L101,74L93,78L89,84L80,86L75,93L71,92L65,91L61,93L52,94L46,98L41,105L36,113L33,108L28,101L25,105L27,110L30,114L31,121L35,126L42,130L46,134L49,140L49,142L45,149L42,154L43,157L51,170L56,180L66,192L72,192L79,199L86,208L91,213L95,214L98,217L101,225L104,227L110,227L118,234L124,240L126,245L128,245L133,248L137,251L141,260L149,262L160,262L164,258L167,257L180,260L180,253L187,243L193,244L195,238L196,224L197,222L202,223L206,225L208,227L217,225L222,226L234,232L240,234L248,234L262,244L272,245L281,244L288,239L295,240L302,244L313,247L316,254L317,256L319,249L323,239L327,233L330,231L337,233L348,233L357,232L365,227L372,219L382,212L384,210L384,199L387,192L399,184L408,171L412,169L424,166L426,166L425,163L424,157L410,144L408,139L407,133L405,131L395,129L392,131L386,127L379,124L375,121L373,124L366,127L361,124L358,120L349,111L355,107L357,104L356,98L346,101L338,103L322,92L312,89L306,88L305,89L308,96L313,103L313,105L301,113L298,117L295,119L290,117L283,105L275,97L274,95L268,93L267,90L271,84L275,83L278,76L275,71L270,68L258,71L254,73L251,68L247,67L238,62L233,61L222,57L218,57L211,49L210,42L202,39L194,37L194,49L189,51L184,52L183,53Z " data-iso="CZE"/><path d="M126,245L124,240L118,234L110,227L104,227L101,225L98,217L95,214L91,213L86,208L79,199L72,192L66,192L56,180L51,170L43,157L42,154L45,149L49,142L49,140L46,134L42,130L35,126L31,121L30,114L27,110L25,105L28,101L33,108L36,113L41,105L46,98L52,94L61,93L65,91L71,92L75,93L80,86L89,84L93,78L101,74L104,76L106,74L109,67L111,66L120,65L131,61L137,57L143,55L149,52L158,48L159,47L154,43L152,39L153,36L166,38L169,39L169,43L171,46L173,47L173,52L179,56L182,55L183,53L184,52L184,51L190,38L193,30L195,15L192,4L191,0L0,0L0,299L66,299L70,296L81,290L90,287L96,285L101,279L105,263L106,262L118,267L121,265L124,261L125,258L126,246L126,245Z " data-iso="DEU"/><path d="M184,52L189,51L194,49L194,37L202,39L210,42L211,49L218,57L222,57L233,61L238,62L247,67L251,68L254,73L258,71L270,68L275,71L278,76L275,83L271,84L267,90L268,93L274,95L275,97L283,105L290,117L295,119L298,117L301,113L313,105L313,103L308,96L305,89L306,88L312,89L322,92L338,103L346,101L356,98L357,104L355,107L349,111L358,120L361,124L366,127L373,124L375,121L379,124L386,127L392,131L395,129L405,131L407,133L408,139L410,144L424,157L425,163L426,166L432,167L435,176L445,175L450,165L450,0L191,0L192,4L195,15L193,30L190,38L184,51L184,52Z " data-iso="POL"/><path d="M450,165L445,175L435,176L432,167L426,166L424,166L412,169L408,171L399,184L387,192L384,199L384,210L382,212L372,219L365,227L357,232L348,233L337,233L330,231L327,233L323,239L319,249L317,256L317,257L317,260L312,271L313,276L320,293L324,299L444,299L450,298L450,165Z " data-iso="SVK"/></g><g class="" id="regions"><path d="M76,93L79,95L83,96L90,99L92,104L92,106L94,117L93,118L95,120L95,121L96,122L97,123L100,124L101,124L102,123L103,122L105,121L110,115L117,111L121,111L127,108L128,109L134,105L136,104L138,100L145,101L149,100L152,101L158,99L158,92L160,92L164,90L164,86L165,85L164,83L160,80L157,68L161,62L163,56L164,55L168,59L170,54L172,52L172,51L173,46L170,48L169,47L170,41L168,39L166,37L165,36L164,37L159,38L155,35L152,37L151,41L154,43L159,46L159,49L157,50L150,50L148,53L139,57L136,57L133,59L131,59L130,63L119,66L114,66L109,68L109,69L106,75L104,76L101,74L97,76L95,79L92,77L90,83L88,85L79,86L79,89L77,92L76,93Z " data-fips="CZ89" data-iso3="CZE" data-name="Ústecký"/><path d="M101,124L100,124L97,123L96,122L95,121L95,121L95,125L91,128L91,130L87,129L83,128L81,129L75,133L74,137L70,137L68,138L67,136L55,138L54,139L50,139L50,141L47,146L46,146L45,151L42,153L41,154L48,161L53,174L56,183L61,187L63,191L69,193L70,192L73,192L77,196L78,198L81,201L90,213L93,213L100,219L101,225L106,229L109,226L109,226L110,222L113,218L113,215L114,211L120,205L120,199L124,192L124,183L124,180L123,178L123,177L123,173L122,168L119,166L119,160L120,159L124,157L125,155L125,148L127,139L116,131L111,131L109,128L103,128L102,127L103,125L102,123L101,124Z " data-fips="CZ87" data-iso3="CZE" data-name="Plzenský"/><path d="M303,164L297,162L290,162L281,166L280,165L280,167L279,170L281,175L278,177L280,188L275,191L274,196L274,196L272,201L274,204L273,208L273,209L272,213L267,214L265,217L254,216L251,220L242,226L240,224L233,225L233,225L233,225L231,229L231,229L231,231L234,232L242,235L248,233L253,237L255,239L261,243L264,245L270,244L279,245L282,245L285,239L290,238L298,240L298,241L306,246L313,247L314,253L317,256L318,251L321,242L324,238L326,234L329,231L332,231L335,231L342,235L346,232L349,234L352,235L358,232L355,226L352,226L349,222L343,222L340,220L339,217L335,217L332,214L332,212L326,211L327,206L329,205L329,202L328,201L325,196L326,194L326,194L326,193L323,187L321,187L319,182L316,180L313,174L311,173L309,174L311,180L309,183L308,184L304,181L305,177L303,174L304,171L300,167L303,165L303,164L303,164Z " data-fips="CZ78" data-iso3="CZE" data-name="Jihomoravský"/><path d="M370,168L370,170L365,170L364,173L364,176L362,177L354,176L354,180L348,181L345,184L336,181L336,187L333,191L329,191L326,194L326,194L326,194L325,196L328,201L329,202L329,205L327,206L326,211L332,212L332,214L335,217L339,217L340,220L343,222L349,222L352,226L355,226L358,232L363,229L367,224L371,224L373,215L375,214L379,214L381,213L384,209L384,200L385,197L389,190L397,186L400,183L400,180L399,180L392,170L388,171L385,169L376,171L373,168L370,168Z " data-fips="CZ90" data-iso3="CZE" data-name="Zlínský"/><path d="M306,110L303,121L303,125L298,128L300,140L299,142L303,150L304,152L306,157L305,159L304,163L303,164L303,165L300,167L304,171L303,174L305,177L304,181L308,184L309,183L311,180L309,174L311,173L313,174L316,180L319,182L321,187L323,187L326,193L326,194L326,194L329,191L333,191L336,187L336,181L345,184L348,181L354,180L354,176L362,177L364,176L364,173L365,170L370,170L370,168L369,167L367,166L364,161L362,160L359,156L356,155L356,152L353,150L349,151L347,149L345,150L341,150L336,145L328,143L327,142L323,141L323,137L325,133L323,131L323,128L326,123L326,119L328,114L332,111L335,108L336,109L337,106L336,101L335,101L334,103L332,97L329,97L326,96L324,92L321,92L318,90L307,88L305,90L307,93L309,98L313,103L313,107L312,106L309,107L307,110L306,110Z " data-fips="CZ84" data-iso3="CZE" data-name="Olomoucký"/><path d="M306,110L303,110L302,112L297,119L294,119L292,118L290,116L283,115L282,118L276,121L274,125L267,127L261,123L259,120L255,120L254,115L252,115L245,119L243,115L240,116L237,120L235,118L232,119L230,118L224,122L220,121L219,122L219,126L216,127L219,129L221,130L226,134L225,141L225,141L228,143L232,148L236,147L243,151L243,152L247,155L254,156L255,155L272,161L273,163L279,165L280,165L281,166L290,162L297,162L303,164L303,164L304,163L305,159L306,157L304,152L303,150L299,142L300,140L298,128L303,125L303,121L306,110L306,110Z " data-fips="CZ86" data-iso3="CZE" data-name="Pardubický"/><path d="M50,139L54,139L55,138L67,136L68,138L70,137L74,137L75,133L81,129L83,128L87,129L91,130L91,128L95,125L95,121L95,121L95,120L93,118L94,117L92,106L92,104L90,99L83,96L79,95L76,93L76,93L74,94L62,92L61,94L52,94L50,95L47,98L44,101L39,106L38,115L35,114L33,109L34,107L30,105L30,102L24,101L25,102L24,108L28,111L30,114L30,121L34,126L47,133L46,137L49,139L50,139Z " data-fips="CZ81" data-iso3="CZE" data-name="Karlovarský"/><path d="M123,178L124,180L124,183L124,192L120,199L120,205L114,211L113,215L113,218L110,222L109,226L110,226L113,228L115,231L118,234L120,235L125,243L136,250L138,257L140,260L142,261L151,262L157,264L162,261L165,256L169,259L174,258L174,260L179,262L180,258L180,255L185,248L187,243L194,244L195,243L195,239L196,233L196,225L196,223L201,223L206,223L207,227L212,227L215,224L222,226L231,231L231,231L231,229L231,229L233,225L233,225L232,225L228,222L228,220L234,214L227,211L222,211L219,208L217,203L210,201L208,203L205,202L200,197L195,197L193,195L190,188L192,183L190,177L194,175L193,173L192,173L192,173L184,168L181,168L181,171L175,175L164,174L161,174L158,175L150,174L144,174L140,173L138,173L137,176L131,178L126,176L123,178Z " data-fips="CZ79" data-iso3="CZE" data-name="Jihoceský"/><path d="M225,141L225,142L225,144L219,149L212,154L207,159L207,160L210,162L211,166L204,168L194,170L193,172L192,173L193,173L194,175L190,177L192,183L190,188L193,195L195,197L200,197L205,202L208,203L210,201L217,203L219,208L222,211L227,211L234,214L228,220L228,222L232,225L233,225L233,225L240,224L242,226L251,220L254,216L265,217L267,214L272,213L273,209L273,208L274,204L272,201L274,196L274,196L275,191L280,188L278,177L281,175L279,170L280,167L280,165L279,165L273,163L272,161L255,155L254,156L247,155L243,152L243,151L236,147L232,148L228,143L225,141Z " data-fips="CZ80" data-iso3="CZE" data-name="Vysocina"/><path d="M172,131L175,131L175,126L177,122L170,116L165,116L157,118L156,120L155,120L150,123L156,132L156,135L164,134L169,131L172,131Z " data-fips="CZ52" data-iso3="CZE" data-name="Prague"/><path d="M165,85L164,86L164,90L160,92L158,92L158,99L152,101L149,100L145,101L138,100L136,104L134,105L128,109L127,108L121,111L117,111L110,115L105,121L103,122L102,123L103,125L102,127L103,128L109,128L111,131L116,131L127,139L125,148L125,155L124,157L120,159L119,160L119,166L122,168L123,173L123,177L123,178L126,176L131,178L137,176L138,173L140,173L144,174L150,174L158,175L161,174L164,174L175,175L181,171L181,168L184,168L192,173L192,173L193,172L194,170L204,168L211,166L210,162L207,160L207,159L212,154L219,149L225,144L225,142L225,141L225,141L226,134L221,130L219,129L216,127L219,126L219,122L220,121L221,120L217,115L219,113L216,105L208,104L207,101L203,99L204,92L203,86L203,83L203,83L201,81L200,77L197,77L196,76L193,75L190,76L183,83L178,86L172,87L170,85L166,85L165,85Z M157,118L165,116L170,116L177,122L175,126L175,131L172,131L169,131L164,134L156,135L156,132L150,123L155,120L156,120L157,118Z " data-fips="CZ88" data-iso3="CZE" data-name="Stredoceský"/><path d="M172,52L170,54L168,59L164,55L163,56L161,62L157,68L160,80L164,83L165,85L166,85L170,85L172,87L178,86L183,83L190,76L193,75L196,76L197,77L200,77L201,81L203,83L203,83L209,86L212,83L221,86L222,83L232,84L232,82L230,77L230,75L228,70L229,65L226,58L221,56L217,58L215,54L212,52L211,43L205,40L203,37L201,40L199,38L193,39L195,42L194,46L194,52L187,51L184,52L182,56L178,56L173,53L172,52Z " data-fips="CZ83" data-iso3="CZE" data-name="Liberecký"/><path d="M226,58L229,65L228,70L230,75L230,77L232,82L232,84L222,83L221,86L212,83L209,86L203,83L203,83L203,83L203,86L204,92L203,99L207,101L208,104L216,105L219,113L217,115L221,120L220,121L224,122L230,118L232,119L235,118L237,120L240,116L243,115L245,119L252,115L254,115L255,120L259,120L261,123L267,127L274,125L276,121L282,118L283,115L290,116L288,115L286,109L284,107L280,101L276,99L275,95L271,94L270,95L268,92L266,91L270,85L272,83L274,83L277,78L279,76L278,74L273,69L261,70L259,70L255,73L253,74L254,71L250,66L245,67L242,62L240,61L235,62L233,60L226,58Z " data-fips="CZ82" data-iso3="CZE" data-name="Královéhradecký"/><path d="M336,101L337,106L336,109L335,108L332,111L328,114L326,119L326,123L323,128L323,131L325,133L323,137L323,141L327,142L328,143L336,145L341,150L345,150L347,149L349,151L353,150L356,152L356,155L359,156L362,160L364,161L367,166L369,167L370,168L373,168L376,171L385,169L388,171L392,170L399,180L400,180L400,179L407,174L409,169L412,169L414,168L420,169L426,166L426,163L421,151L418,152L415,149L413,149L409,143L408,138L409,136L408,135L407,131L403,132L394,130L392,131L390,131L389,128L383,125L379,124L379,122L373,120L375,124L364,127L360,123L355,115L351,116L348,112L349,110L352,110L357,106L358,105L355,96L354,96L351,100L349,102L344,101L341,101L338,104L338,102L336,101Z " data-fips="CZ85" data-iso3="CZE" data-name="Moravskoslezský"/></g></svg>