<?xml version="1.0" encoding="UTF-8"?><!DOCTYPE svg  PUBLIC '-//W3C//DTD SVG 1.1//EN'  'http://www.w3.org/Graphics/SVG/1.1/DTD/svg11.dtd'><svg enable_background="new 0 0 450 301" height="301px" style="stroke-linejoin: round; stroke:#000; fill:#f6f3f0;" version="1.1" viewBox="0 0 450 301" width="450px" xmlns="http://www.w3.org/2000/svg" xmlns:xlink="http://www.w3.org/1999/xlink"><defs><style type="text/css"><![CDATA[path { fill-rule: evenodd; }
#context path { fill: #eee; stroke: #bbb; } ]]></style></defs><metadata><views><view h="301.0" padding="0.06" w="450"><proj id="laea" lat0="11.2285397407" lon0="42.8569994876"/><bbox h="24.35" w="22.6" x="985.39" y="980.53"/><llbbox lat0="-90" lat1="90" lon0="-180" lon1="180"/></view></views></metadata><g id="context"><path d="M311,188L293,185L274,185L256,189L235,197L225,198L219,197L216,187L233,189L257,162L294,148L327,127L337,118L343,108L348,93L339,66L331,52L306,22L304,15L288,22L270,28L267,28L261,36L252,58L243,65L238,65L210,44L205,43L199,47L195,51L180,73L138,135L131,144L111,164L108,169L104,184L103,211L108,276L119,280L132,282L146,278L163,275L184,273L207,267L221,261L236,262L248,267L255,272L264,274L275,274L294,244L311,218L323,198L311,188Z " data-iso="DJI"/><path d="M195,51L199,47L205,43L210,44L238,65L243,65L252,58L261,36L267,28L270,28L288,22L304,15L300,0L150,0L159,5L172,22L182,36L195,51Z " data-iso="ERI"/><path d="M275,274L264,274L255,272L248,267L236,262L221,261L207,267L184,273L163,275L146,278L132,282L119,280L108,276L103,211L104,184L108,169L111,164L131,144L138,135L180,73L195,51L182,36L172,22L159,5L150,0L0,0L0,299L257,299L259,297L267,288L273,280L275,274Z " data-iso="ETH"/><path d="M323,198L311,218L294,244L275,274L273,280L267,288L259,297L257,299L408,299L381,268L352,221L323,198Z " data-iso="SOL"/><path d="M357,0L359,16L381,9L410,20L424,28L436,30L450,25L450,0L357,0Z " data-iso="YEM"/></g><g fill="red" fill-opacity="0.35" id="regions"><path d="M243,234L231,240L229,245L229,260L229,260L230,260L240,263L244,263L247,264L250,272L253,274L262,276L266,277L270,276L272,274L276,274L315,212L300,203L296,201L274,206L267,219L262,222L243,234Z " data-fips="DJ01" data-fips-="GM15" data-iso3="DJI" data-name="Ali Sabieh" data-p="AS"/><path d="M312,191L310,183L309,181L305,186L302,186L299,184L293,185L272,185L280,194L289,195L294,195L313,192L312,191Z " data-fips="DJ07" data-fips-="DJ03|GM15" data-iso3="DJI" data-name="Djibouti" data-p="DJ"/><path d="M193,175L193,181L197,198L200,210L212,228L243,234L262,222L267,219L274,206L296,201L300,203L315,212L323,200L321,198L316,195L314,194L313,192L294,195L289,195L280,194L272,185L268,185L266,183L258,187L248,188L241,191L238,193L237,196L240,198L238,201L234,200L230,202L218,197L218,194L217,191L200,183L198,181L193,175Z " data-fips="" data-fips-="" data-iso3="DJI" data-name="Arta" data-p="AR"/><path d="M229,260L229,260L229,245L231,240L243,234L212,228L200,210L197,198L193,181L193,175L167,149L161,146L137,141L135,140L129,148L123,152L122,153L117,158L110,162L108,167L106,178L101,192L101,200L105,218L107,234L106,263L105,270L103,274L104,276L108,278L126,282L127,284L131,282L140,282L144,281L148,276L152,275L161,274L168,276L171,276L178,273L184,273L188,271L196,273L223,261L229,260Z " data-fips="DJ06" data-fips-="DJ02|GM15" data-iso3="DJI" data-name="Dikhil" data-p="DI"/><path d="M242,65L242,70L240,72L239,77L244,86L252,93L258,95L289,129L291,132L295,141L300,147L301,146L301,146L313,132L317,129L320,128L327,128L330,127L334,125L343,121L346,118L348,113L349,108L348,97L348,88L348,85L342,78L340,64L337,58L336,56L336,48L333,50L331,49L329,47L325,41L311,25L307,16L304,15L272,29L267,27L265,29L261,38L255,44L255,48L257,53L256,57L250,59L246,63L242,65Z " data-fips="DJ04" data-fips-="GM15" data-iso3="DJI" data-name="Obock" data-p="OB"/><path d="M135,140L137,141L161,146L167,149L193,175L198,181L200,183L217,191L217,191L217,185L220,185L222,188L233,189L240,185L250,166L254,163L258,160L272,155L274,155L278,156L285,153L293,153L298,147L300,147L295,141L291,132L289,129L258,95L252,93L244,86L239,77L240,72L242,70L242,65L241,65L239,68L216,47L209,44L205,43L203,43L195,51L186,64L181,73L162,100L158,108L155,110L153,111L147,123L135,140Z " data-fips="DJ05" data-fips-="GM15" data-iso3="DJI" data-name="Tadjourah" data-p="TA"/></g></svg>