<?xml version="1.0" encoding="UTF-8"?><!DOCTYPE svg  PUBLIC '-//W3C//DTD SVG 1.1//EN'  'http://www.w3.org/Graphics/SVG/1.1/DTD/svg11.dtd'><svg enable_background="new 0 0 450 301" height="301px" style="stroke-linejoin: round; stroke:#000; fill:#f6f3f0;" version="1.1" viewBox="0 0 450 301" width="450px" xmlns="http://www.w3.org/2000/svg" xmlns:xlink="http://www.w3.org/1999/xlink"><defs><style type="text/css"><![CDATA[path { fill-rule: evenodd; }
#context path { fill: #eee; stroke: #bbb; } ]]></style></defs><metadata><views><view h="301.0" padding="0.06" w="450"><proj id="laea" lat0="15.5389872301" lon0="-61.3536410472"/><bbox h="5.67" w="3.19" x="998.22" y="998.66"/><llbbox lat0="-90" lat1="90" lon0="-180" lon1="180"/></view></views></metadata><g id="context"><path d="M280,259L299,179L283,79L256,41L169,9L162,29L155,80L196,161L221,273L280,259Z " data-iso="DMA"/></g><g fill="red" fill-opacity="0.35" id="regions"><path d="M278,76L269,59L265,49L263,45L232,32L225,34L215,39L207,33L197,18L189,13L182,10L175,9L180,34L182,37L186,41L189,44L193,45L194,52L194,71L194,75L198,78L199,81L201,94L202,100L210,108L215,111L226,108L232,111L238,112L244,115L254,123L257,132L269,121L272,119L274,119L276,117L280,115L284,112L284,94L288,90L278,76Z " data-fips="DO02" data-fips-="" data-iso3="DMA" data-name="Saint Andrew"/><path d="M296,184L300,160L297,159L294,157L292,156L296,138L295,114L289,91L288,90L284,94L284,112L280,115L276,117L274,119L272,119L269,121L257,132L247,158L251,169L251,197L261,203L263,205L263,206L264,212L263,215L268,211L271,210L297,205L296,184Z " data-fips="DO03" data-fips-="" data-iso3="DMA" data-name="Saint David"/><path d="M264,212L263,206L263,205L261,203L251,197L225,210L223,215L219,218L210,217L210,221L211,229L219,238L223,245L222,248L222,252L233,256L242,243L248,238L258,231L266,218L265,217L263,215L264,212Z " data-fips="DO04" data-fips-="" data-iso3="DMA" data-name="Saint George"/><path d="M162,9L155,37L150,45L155,45L162,48L167,49L163,55L153,62L150,67L150,73L152,76L153,77L156,74L165,75L166,75L201,94L199,81L198,78L194,75L194,71L194,52L193,45L189,44L186,41L182,37L180,34L175,9L162,9Z " data-fips="DO05" data-fips-="" data-iso3="DMA" data-name="Saint John"/><path d="M254,123L244,115L238,112L232,111L226,108L215,111L210,108L202,100L191,101L186,103L181,109L171,118L172,119L174,126L176,132L178,137L192,152L194,157L196,168L203,165L210,165L221,168L226,168L247,158L257,132L254,123Z " data-fips="DO06" data-fips-="" data-iso3="DMA" data-name="Saint Joseph"/><path d="M222,252L223,267L223,268L223,268L233,263L233,256L222,252Z " data-fips="DO07" data-fips-="" data-iso3="DMA" data-name="Saint Luke"/><path d="M233,263L223,268L223,268L221,283L222,288L229,290L236,288L239,284L233,263Z " data-fips="DO08" data-fips-="" data-iso3="DMA" data-name="Saint Mark"/><path d="M240,283L242,278L250,275L254,266L257,263L261,262L266,263L278,262L283,258L296,236L297,210L297,205L271,210L268,211L263,215L265,217L266,218L258,231L248,238L242,243L233,256L233,263L239,284L240,283Z " data-fips="DO09" data-fips-="" data-iso3="DMA" data-name="Saint Patrick"/><path d="M251,169L247,158L226,168L221,168L210,165L203,165L196,168L196,169L197,174L206,193L209,205L210,217L219,218L223,215L225,210L251,197L251,169Z " data-fips="DO10" data-fips-="" data-iso3="DMA" data-name="Saint Paul"/><path d="M166,75L165,75L156,74L153,77L156,79L158,84L159,100L160,108L165,112L168,114L171,118L181,109L186,103L191,101L202,100L201,94L166,75Z " data-fips="DO11" data-fips-="" data-iso3="DMA" data-name="Saint Peter"/></g></svg>