<?xml version="1.0" encoding="UTF-8"?><!DOCTYPE svg  PUBLIC '-//W3C//DTD SVG 1.1//EN'  'http://www.w3.org/Graphics/SVG/1.1/DTD/svg11.dtd'><svg enable_background="new 0 0 450 301" height="301px" style="stroke-linejoin: round; stroke:#000; fill: none;" version="1.1" viewBox="0 0 450 301" width="450px" xmlns="http://www.w3.org/2000/svg" xmlns:xlink="http://www.w3.org/1999/xlink"><defs><style type="text/css"><![CDATA[path { fill-rule: evenodd; }]]></style></defs><metadata><views><view h="301.0" padding="0.06" w="450"><proj id="laea" lat0="56.2435163432" lon0="9.23914549151"/><bbox h="44.94" w="55.62" x="989.03" y="978.33"/></view></views></metadata><g class="" id="context"><path d="M211,293L208,286L201,283L199,285L198,289L200,290L203,293L211,293Z M314,299L316,294L321,294L327,298L328,296L327,290L321,287L320,284L324,278L322,274L315,272L311,265L307,265L303,270L303,275L300,278L301,281L300,290L302,296L306,299L314,299Z M82,270L81,267L74,268L73,270L76,271L80,272L82,270Z M137,261L131,258L125,259L118,262L114,262L110,259L97,255L86,254L87,263L92,271L96,280L100,284L99,290L93,293L85,296L84,299L180,299L167,292L159,294L156,288L143,289L146,286L151,280L150,273L144,264L137,262L137,261Z M199,299L198,296L195,297L190,299L199,299Z M300,299L294,290L288,289L282,287L272,286L263,296L261,299L300,299Z M69,263L71,259L83,257L84,255L72,254L72,252L76,242L74,241L68,254L68,265L69,263Z " data-iso="DEU"/><path d="M213,254L208,249L199,250L198,254L198,264L218,275L224,272L229,273L233,270L232,263L231,260L227,258L222,258L213,254Z M172,258L173,257L168,254L165,254L161,250L158,249L159,251L165,257L169,259L172,258Z M269,245L262,240L257,240L256,238L255,241L249,250L252,252L260,246L267,247L269,245Z M152,255L149,247L141,241L138,241L140,254L144,255L147,257L152,255Z M184,266L192,240L193,232L192,232L189,241L184,249L182,254L178,258L182,266L184,266Z M388,233L390,227L389,223L371,212L369,217L368,228L378,233L386,234L388,233Z M178,196L177,195L172,200L168,200L165,197L162,196L148,202L142,204L142,217L145,227L148,233L161,239L170,242L178,241L186,235L186,229L185,223L187,219L183,209L180,200L178,196Z M272,193L269,187L265,192L267,197L272,193Z M176,181L178,174L177,171L173,164L172,167L173,171L172,176L172,181L175,183L176,181Z M267,178L264,167L265,164L267,158L266,155L254,151L249,151L241,157L234,164L236,167L237,170L237,176L232,187L226,184L226,176L226,170L223,166L216,167L215,172L209,183L205,185L197,184L193,186L195,192L200,196L201,201L204,207L203,218L209,228L226,229L228,236L229,241L231,246L231,251L237,263L246,259L246,238L247,228L257,224L261,219L260,211L254,209L251,205L252,199L256,195L260,192L267,186L267,178Z M193,60L195,58L199,54L195,54L188,56L186,60L192,62L193,60Z M86,254L97,255L110,259L114,262L118,262L125,259L131,258L137,261L135,252L136,249L129,243L123,243L125,237L132,229L133,224L131,212L129,206L133,200L138,196L139,193L143,188L148,186L149,184L144,177L149,174L156,175L158,163L162,146L167,141L172,147L176,147L182,144L187,139L190,127L186,120L170,121L165,118L160,113L161,100L160,96L160,82L162,80L166,67L170,62L170,50L170,45L166,35L168,28L173,21L170,21L158,31L145,34L138,43L127,63L122,68L116,70L104,69L100,70L94,73L85,73L77,83L70,94L69,102L73,105L78,109L84,106L92,105L97,91L102,81L107,78L114,81L112,98L111,107L105,99L97,104L90,113L89,119L87,123L84,122L82,118L78,118L70,113L64,114L62,137L62,152L65,165L64,172L62,197L71,204L84,212L86,219L86,233L82,235L85,242L86,247L86,254Z " data-iso="DNK"/><path d="M450,281L445,288L439,291L432,292L416,299L450,299L450,281Z " data-iso="POL"/><path d="M450,64L448,72L444,74L437,101L437,108L438,122L440,127L443,127L444,123L450,87L450,64Z M219,0L220,0L222,21L229,24L229,30L233,45L237,43L242,61L256,86L263,93L270,106L278,109L280,117L277,123L273,123L268,124L270,129L272,132L275,138L271,141L262,137L260,137L263,140L266,149L278,170L284,176L285,180L285,198L285,202L283,208L303,212L326,204L339,206L343,206L350,194L346,186L342,178L342,170L344,165L357,151L361,153L366,151L363,143L366,141L378,139L391,140L399,136L404,135L409,137L414,140L418,136L421,131L426,107L428,100L433,89L435,81L436,71L438,59L434,50L434,43L439,29L439,23L437,18L435,12L434,2L433,0L219,0Z " data-iso="SWE"/></g><g class="" id="regions"><path d="M177,173L177,170L174,167L173,164L172,166L172,168L175,171L172,176L172,181L175,183L176,182L177,176L177,173Z M219,106L220,104L215,105L219,106Z M64,180L73,180L78,183L81,180L82,178L88,178L93,180L95,175L99,174L103,178L108,175L112,169L113,169L118,170L127,182L129,182L130,185L133,186L133,188L134,188L139,191L147,188L148,189L150,179L143,177L148,174L154,176L156,178L159,171L160,162L158,162L160,158L158,152L162,146L165,142L168,139L171,141L170,147L167,145L164,147L166,150L172,151L170,152L172,155L174,154L173,149L176,144L179,146L177,148L178,150L182,151L183,143L185,142L189,136L191,126L185,119L183,119L172,121L169,121L164,118L160,117L158,118L158,125L156,125L157,122L157,118L163,113L163,108L162,106L158,107L156,107L151,113L148,115L142,116L141,118L137,118L135,118L131,114L131,112L126,112L125,109L122,112L117,109L116,112L118,117L119,119L116,121L113,117L115,113L115,112L110,112L109,110L106,117L105,112L110,106L108,101L107,99L105,97L100,98L95,103L98,106L93,107L90,112L91,119L90,124L86,125L83,117L80,119L77,116L72,116L70,117L70,115L66,111L68,107L67,105L65,109L62,118L62,147L61,156L62,164L63,161L63,155L69,158L70,160L71,165L72,167L74,171L74,173L67,178L64,178L65,174L63,166L62,167L64,180Z " data-fips="DK18" data-iso3="DNK" data-name="Midtjylland"/><path d="M165,254L162,251L158,249L159,251L167,260L173,258L171,255L169,256L167,254L165,254Z M139,240L131,241L132,243L134,242L133,244L139,245L139,247L141,250L141,251L138,248L138,251L144,254L143,255L147,258L152,255L150,249L147,245L139,240Z M188,251L192,243L194,233L192,232L189,242L186,246L182,251L183,255L177,259L184,266L188,251Z M74,210L74,208L73,211L74,215L77,217L74,210Z M164,196L163,195L156,198L150,200L146,203L143,204L137,202L135,204L135,206L140,210L141,214L138,215L141,217L143,218L143,220L145,228L148,229L148,236L150,236L148,231L153,231L156,234L152,238L158,241L158,239L160,238L163,241L171,242L173,243L176,241L183,240L185,235L187,229L186,225L185,223L188,222L187,220L181,209L176,208L175,210L174,208L179,208L183,205L179,197L177,195L176,203L171,208L170,209L168,208L171,205L169,201L164,196Z M64,183L63,193L60,200L61,202L63,202L70,207L67,201L68,198L71,199L74,206L76,208L83,209L84,210L85,217L85,223L87,235L81,234L83,231L82,230L78,230L77,232L76,238L78,241L81,238L82,234L87,235L85,242L85,244L87,255L97,255L101,256L111,259L113,263L122,262L123,260L128,254L129,253L132,256L131,257L136,260L137,260L135,256L138,254L137,248L136,246L133,245L128,242L127,243L122,243L125,242L128,239L126,236L123,236L125,233L128,230L132,231L134,230L134,224L132,221L130,211L131,210L133,207L130,206L126,205L135,202L135,200L141,195L135,192L132,190L127,189L129,188L133,188L133,186L130,185L129,182L127,182L118,170L113,169L112,169L108,175L103,178L99,174L95,175L93,180L88,178L82,178L81,180L78,183L73,180L64,180L64,183Z " data-fips="DK21" data-iso3="DNK" data-name="Syddanmark"/><path d="M98,86L96,85L94,89L86,91L87,93L86,96L86,98L82,99L82,101L80,103L84,104L87,108L92,107L97,98L96,91L99,89L98,86Z M199,54L197,54L196,55L192,55L189,56L185,59L193,64L195,59L194,57L197,56L199,54Z M117,109L122,112L125,109L126,112L131,112L131,114L135,118L137,118L141,118L142,116L148,115L151,113L156,107L156,107L153,105L147,110L141,112L139,111L145,110L154,105L156,106L163,105L160,98L159,89L160,85L161,83L157,83L152,80L148,75L145,77L146,75L151,77L154,80L158,82L161,82L163,81L167,66L171,62L170,54L170,49L171,46L169,42L167,38L165,35L167,30L170,24L172,22L175,21L174,20L170,20L167,23L162,28L159,31L155,32L151,33L145,33L142,38L137,44L128,62L124,66L121,68L117,70L113,70L101,69L97,73L84,73L80,79L78,82L69,95L68,97L68,106L69,106L68,100L71,102L72,105L74,108L78,110L81,115L84,110L84,108L80,109L80,105L79,105L79,103L79,99L82,97L87,88L87,86L90,85L92,86L98,83L103,80L107,79L107,77L112,82L124,78L132,76L134,77L137,73L141,75L143,77L135,78L133,79L129,85L129,82L123,80L122,80L114,84L112,86L110,91L111,92L112,94L110,97L113,102L112,105L110,108L110,109L116,107L117,109L117,109Z " data-fips="DK19" data-iso3="DNK" data-name="Nordjylland"/><path d="M377,216L375,215L370,214L369,216L369,226L373,232L377,232L387,235L389,233L389,231L390,227L389,223L387,222L382,219L381,217L377,216Z M268,197L271,195L272,193L269,185L265,192L267,197L268,197Z M234,184L237,183L239,185L240,184L242,185L243,183L242,177L240,173L240,170L236,167L238,174L237,176L234,178L234,184L234,184Z M244,180L246,180L252,185L250,187L249,192L250,193L258,193L260,192L264,193L266,189L268,184L268,181L265,169L264,167L268,157L262,153L258,153L254,151L250,151L247,153L240,159L234,164L235,167L238,165L241,166L243,175L244,180Z " data-fips="DK17" data-iso3="DNK" data-name="Hovedstaden"/><path d="M208,249L207,248L200,250L198,252L197,255L201,259L201,261L197,261L198,265L205,267L211,270L214,273L219,275L226,272L233,273L237,269L235,268L237,265L237,263L234,260L233,258L227,251L223,257L224,260L214,254L212,251L208,249Z M268,242L267,241L259,240L254,239L257,241L256,244L250,246L249,251L254,252L256,249L261,246L267,247L268,242Z M258,193L250,193L249,192L250,187L252,185L246,180L244,180L245,184L244,190L242,189L242,187L240,187L240,188L237,190L239,186L239,185L237,183L234,184L234,184L231,189L229,184L226,185L226,183L230,183L227,179L225,180L222,180L228,176L224,170L228,170L229,164L227,166L221,166L213,165L212,166L206,163L208,165L212,167L217,170L217,173L216,176L211,177L211,182L208,184L203,188L200,185L202,184L196,185L189,184L193,186L194,188L198,190L199,191L191,191L191,191L196,192L199,194L201,196L201,203L203,205L205,213L202,215L199,215L204,216L202,218L209,224L207,225L209,229L210,228L213,228L215,226L219,228L226,229L228,227L230,231L232,231L233,233L229,234L231,236L234,238L235,240L232,239L227,237L225,237L227,239L232,240L235,241L238,246L232,247L230,248L231,250L232,255L235,260L237,262L238,265L240,267L238,272L243,279L243,268L252,257L248,252L239,250L238,244L240,243L246,246L251,241L249,237L251,235L250,233L245,232L243,231L245,228L247,230L251,225L260,222L264,219L262,213L259,210L254,209L252,208L251,203L253,198L256,194L258,193Z " data-fips="DK20" data-iso3="DNK" data-name="Sjaælland"/></g></svg>