<?xml version="1.0" encoding="UTF-8"?><!DOCTYPE svg  PUBLIC '-//W3C//DTD SVG 1.1//EN'  'http://www.w3.org/Graphics/SVG/1.1/DTD/svg11.dtd'><svg enable_background="new 0 0 450 301" height="301px" style="stroke-linejoin: round; stroke:#000; fill:#f6f3f0;" version="1.1" viewBox="0 0 450 301" width="450px" xmlns="http://www.w3.org/2000/svg" xmlns:xlink="http://www.w3.org/1999/xlink"><defs><style type="text/css"><![CDATA[path { fill-rule: evenodd; }
#context path { fill: #eee; stroke: #bbb; } ]]></style></defs><metadata><views><view h="301.0" padding="0.06" w="450"><proj id="laea" lat0="19.3383548039" lon0="-70.9644115991"/><bbox h="34.68" w="48.23" x="985.18" y="990.02"/><llbbox lat0="-90" lat1="90" lon0="-180" lon1="180"/></view></views></metadata><g id="context"><path d="M69,228L73,233L75,240L75,247L77,252L84,254L89,258L97,267L101,266L105,261L114,244L131,221L133,215L133,205L134,202L138,199L149,197L166,192L177,193L185,200L194,205L224,201L228,199L236,191L240,188L253,184L265,181L278,182L291,184L303,183L315,181L336,185L350,184L362,191L366,199L372,204L378,203L382,194L387,189L394,186L399,182L408,169L410,161L405,155L399,151L374,131L352,122L339,120L326,118L314,116L303,112L291,110L280,109L280,104L281,100L290,99L310,100L316,97L319,92L309,86L268,90L259,83L254,71L252,59L246,50L240,50L229,54L222,54L211,50L198,40L193,39L178,39L173,38L163,32L158,28L146,25L133,27L118,32L113,32L97,27L85,27L80,29L75,32L71,37L68,44L63,45L65,49L70,70L70,77L66,87L66,91L76,101L76,105L75,108L67,117L60,123L62,130L67,137L68,143L66,150L58,160L54,163L42,163L40,165L53,184L64,192L67,199L64,207L64,224L69,228Z " data-iso="DOM"/><path d="M64,224L64,207L67,199L64,192L53,184L40,165L42,163L54,163L58,160L66,150L68,143L67,137L62,130L60,123L67,117L75,108L76,105L76,101L66,91L66,87L70,77L70,70L65,49L63,45L58,48L46,45L19,42L0,36L0,153L5,156L5,162L2,167L0,168L0,204L34,204L40,206L46,208L55,216L64,224Z " data-iso="HTI"/></g><g fill="red" fill-opacity="0.35" id="regions"><path d="M181,65L178,60L176,55L170,53L170,59L165,59L161,55L158,54L155,54L154,57L153,61L150,61L148,59L148,61L152,65L151,71L153,73L153,74L148,74L144,73L142,75L141,75L137,74L134,72L132,74L132,76L134,78L127,81L123,81L117,87L117,96L118,97L119,101L118,104L122,106L129,111L129,113L135,118L140,119L144,118L147,118L150,119L150,117L149,115L162,109L167,105L168,102L173,102L173,99L174,96L172,93L169,92L167,90L167,88L170,87L175,85L180,83L182,82L183,80L183,76L183,73L186,69L187,67L181,65Z " data-fips="DR25" data-fips-="" data-iso3="DOM" data-name="Santiago"/><path d="M121,64L120,65L116,65L113,63L109,65L106,65L101,62L100,64L98,68L96,72L94,84L90,86L91,88L92,90L96,93L100,97L104,99L108,102L113,104L118,104L119,101L118,97L117,96L117,87L123,81L127,81L134,78L132,76L132,74L134,72L126,71L123,65L121,64Z " data-fips="DR26" data-fips-="" data-iso3="DOM" data-name="Santiago Rodrguez"/><path d="M151,53L147,51L144,49L137,47L131,43L128,42L127,45L126,48L126,55L124,55L123,57L124,61L123,65L126,71L134,72L137,74L141,75L142,75L144,73L148,74L153,74L153,73L151,71L152,65L148,61L148,59L150,61L153,61L154,57L155,54L151,53Z " data-fips="DR27" data-fips-="" data-iso3="DOM" data-name="Valverde"/><path d="M113,104L108,102L108,105L107,108L104,111L100,111L97,109L94,108L92,112L91,117L89,120L83,121L81,123L78,129L78,134L79,137L78,142L82,145L83,150L85,152L88,153L89,156L87,159L92,161L97,162L102,164L106,165L111,162L114,163L121,161L125,163L129,162L132,158L135,155L135,154L135,147L139,146L139,148L143,145L143,140L144,134L145,132L149,127L151,126L152,123L151,121L150,119L147,118L144,118L140,119L135,118L129,113L129,111L122,106L118,104L113,104Z " data-fips="DR23" data-fips-="" data-iso3="DOM" data-name="San Juan"/><path d="M281,158L278,158L268,162L263,167L263,164L260,162L256,156L253,153L245,156L241,158L230,155L228,151L225,150L225,155L228,160L227,165L228,168L230,172L236,179L240,179L241,181L242,184L243,183L244,183L245,179L242,176L243,173L245,171L248,175L255,175L254,178L257,178L274,180L276,183L280,184L281,179L285,181L290,184L291,178L285,177L281,173L285,167L284,160L285,159L281,158Z " data-fips="DR00" data-fips-="DR05|DR37" data-iso3="DOM" data-name="Santo Domingo"/><path d="M251,115L251,112L249,110L240,109L230,106L226,106L213,106L214,106L214,107L214,107L205,111L202,114L204,117L205,122L208,123L210,128L217,133L219,137L225,136L229,135L231,133L237,133L239,132L244,134L247,131L248,124L250,118L251,115Z " data-fips="DR21" data-fips-="" data-iso3="DOM" data-name="Snchez Ramrez"/><path d="M314,162L312,166L307,172L304,165L300,158L298,149L297,146L296,142L291,149L285,159L284,160L285,167L281,173L285,177L291,178L290,184L290,184L296,183L309,182L311,180L313,181L319,180L322,180L324,183L335,185L335,185L334,182L331,177L332,174L334,171L334,169L335,166L329,166L323,162L319,160L317,159L314,162Z " data-fips="DR24" data-fips-="" data-iso3="DOM" data-name="San Pedro de Macors"/><path d="M66,53L77,57L88,56L90,57L92,60L96,62L100,64L101,62L106,65L109,65L113,63L116,65L120,65L121,64L123,65L124,61L123,57L124,55L126,55L126,48L127,45L128,42L125,41L122,40L120,37L119,33L119,33L111,31L108,32L106,31L96,26L91,25L81,26L75,27L75,30L71,32L69,35L67,35L65,37L64,39L67,40L69,48L64,46L67,51L66,53Z " data-fips="DR15" data-fips-="" data-iso3="DOM" data-name="Monte Cristi"/><path d="M198,39L192,39L191,40L183,41L179,40L171,37L166,33L162,33L158,26L157,25L151,26L147,25L147,27L145,27L144,24L139,23L136,24L126,30L124,33L121,30L120,33L119,33L120,37L122,40L125,41L128,42L131,43L137,47L144,49L147,51L151,53L155,54L158,54L161,55L165,59L170,59L170,53L176,55L178,60L181,65L187,67L189,62L190,54L192,53L202,52L204,46L198,39Z " data-fips="DR18" data-fips-="" data-iso3="DOM" data-name="Puerto Plata"/><path d="M66,55L67,58L70,65L71,73L71,78L68,84L64,89L69,96L76,99L80,96L82,95L84,92L88,93L91,92L92,90L91,88L90,86L94,84L96,72L98,68L100,64L96,62L92,60L90,57L88,56L77,57L66,53L66,55Z " data-fips="DR04" data-fips-="" data-iso3="DOM" data-name="Dajabn"/><path d="M232,54L228,56L222,54L218,53L213,53L208,50L204,46L202,52L192,53L190,54L189,62L187,67L186,69L183,73L183,76L183,80L182,82L180,83L182,85L186,85L190,84L192,89L195,88L197,82L197,76L197,69L201,65L204,66L205,69L208,67L210,64L213,62L216,65L218,69L219,69L220,69L220,66L221,63L225,63L230,60L232,54L232,54Z " data-fips="DR08" data-fips-="" data-iso3="DOM" data-name="Espaillat"/><path d="M216,65L213,62L210,64L208,67L205,69L204,66L201,65L197,69L197,76L197,82L195,88L196,92L198,95L201,98L205,98L205,93L207,89L207,84L209,79L214,77L216,75L217,71L218,69L216,65Z " data-fips="" data-fips-="" data-iso3="DOM" data-name="Hermanas"/><path d="M121,161L114,163L111,162L106,165L102,164L97,162L92,161L87,159L84,160L81,161L80,166L79,168L81,177L99,186L103,187L107,185L112,185L115,190L117,193L121,192L121,189L123,186L135,178L138,173L140,175L142,174L142,172L139,171L136,170L130,168L125,163L121,161Z " data-fips="DR02" data-fips-="" data-iso3="DOM" data-name="Bahoruco"/><path d="M138,173L135,178L123,186L121,189L121,192L118,197L112,198L107,197L103,198L106,209L101,209L99,211L99,214L102,216L102,224L98,227L101,232L106,236L111,236L113,240L113,244L113,244L118,240L120,239L122,235L131,221L135,211L133,205L131,203L133,196L134,195L142,197L145,201L145,201L146,198L145,192L145,191L138,189L136,185L141,180L141,177L140,175L138,173Z " data-fips="DR03" data-fips-="" data-iso3="DOM" data-name="Barahona"/><path d="M87,159L81,158L75,157L68,156L62,155L61,156L56,162L52,164L45,162L41,163L39,164L40,166L49,176L50,178L49,180L49,182L62,191L67,193L70,195L68,197L68,197L77,202L86,206L93,209L96,211L99,214L99,211L101,209L106,209L103,198L107,197L112,198L118,197L121,192L117,193L115,190L112,185L107,185L103,187L99,186L81,177L79,168L80,166L81,161L84,160L87,159Z " data-fips="DR" data-fips-="DR09" data-iso3="DOM" data-name="Independencia"/><path d="M92,90L91,92L88,93L84,92L82,95L80,96L76,99L77,99L76,108L75,109L67,117L62,122L56,124L54,126L54,127L59,126L62,127L63,130L67,134L69,147L65,154L62,155L68,156L75,157L81,158L87,159L89,156L88,153L85,152L83,150L82,145L78,142L79,137L78,134L78,129L81,123L83,121L89,120L91,117L92,112L94,108L97,109L100,111L104,111L107,108L108,105L108,102L104,99L100,97L96,93L92,90Z " data-fips="DR11" data-fips-="DR" data-iso3="DOM" data-name="La Estrelleta"/><path d="M90,276L94,273L88,269L87,271L86,276L90,276Z M99,214L96,211L93,209L86,206L77,202L68,197L64,205L63,207L64,219L64,221L68,226L72,229L75,233L74,237L77,244L77,248L72,253L76,254L84,253L87,254L89,256L96,268L99,270L104,263L108,253L113,244L113,244L113,240L111,236L106,236L101,232L98,227L102,224L102,216L99,214Z " data-fips="DR16" data-fips-="" data-iso3="DOM" data-name="Pedernales"/><path d="M173,150L169,146L163,143L159,137L158,127L152,123L151,126L149,127L145,132L144,134L143,140L143,145L139,148L139,146L135,147L135,154L135,155L132,158L129,162L125,163L130,168L136,170L139,171L142,172L142,174L140,175L141,177L141,180L136,185L138,189L145,191L145,192L146,198L145,201L146,201L148,201L155,193L162,191L164,191L167,191L170,188L171,183L173,182L180,184L184,187L185,193L182,199L184,199L189,198L193,194L193,191L195,186L194,184L192,180L190,176L183,173L181,172L177,168L174,162L172,156L173,150Z " data-fips="DR01" data-fips-="" data-iso3="DOM" data-name="Azua"/><path d="M192,89L190,84L186,85L182,85L180,83L175,85L170,87L167,88L167,90L169,92L172,93L174,96L173,99L173,102L168,102L167,105L162,109L149,115L150,117L150,119L151,121L152,123L158,127L159,137L163,143L169,146L173,150L172,156L176,156L181,156L187,149L188,145L182,138L183,130L189,125L189,118L191,114L196,113L197,111L199,110L202,112L202,114L205,111L214,107L214,107L214,106L209,103L205,98L201,98L198,95L196,92L195,88L192,89Z " data-fips="DR30" data-fips-="" data-iso3="DOM" data-name="La Vega"/><path d="M202,112L199,110L197,111L196,113L191,114L189,118L189,125L183,130L182,138L188,145L192,147L197,150L202,149L204,150L207,152L211,152L212,148L213,145L217,143L217,140L219,137L217,133L210,128L208,123L205,122L204,117L202,114L202,112Z " data-fips="DR31" data-fips-="" data-iso3="DOM" data-name="Monseor Nouel"/><path d="M206,175L204,177L202,179L197,180L194,184L195,186L193,191L193,194L189,198L184,199L184,200L187,203L185,205L186,207L193,207L196,206L202,203L215,203L222,203L224,203L223,199L222,198L215,189L216,186L218,185L218,182L215,181L211,177L206,175Z " data-fips="DR35" data-fips-="DR17" data-iso3="DOM" data-name="Peravia"/><path d="M204,150L202,149L197,150L192,147L188,145L187,149L181,156L176,156L172,156L174,162L177,168L181,172L183,173L190,176L192,180L194,184L197,180L202,179L204,177L206,175L205,172L204,168L205,164L205,161L205,156L207,152L204,150Z " data-fips="DR00" data-fips-="DR17|DR36" data-iso3="DOM" data-name="San Jos de Ocoa"/><path d="M219,69L218,69L217,71L216,75L214,77L209,79L207,84L207,89L205,93L205,98L209,103L214,106L213,106L226,106L230,106L240,109L249,110L251,112L251,115L250,118L253,118L254,113L260,112L266,112L268,110L269,107L274,102L274,100L268,98L263,101L256,99L250,96L243,94L238,90L236,88L233,87L230,85L229,80L228,77L227,73L224,71L220,69L219,69Z " data-fips="DR06" data-fips-="" data-iso3="DOM" data-name="Duarte"/><path d="M280,111L280,111L280,114L280,118L278,121L283,125L299,133L302,133L304,135L298,140L296,142L297,146L298,149L300,158L304,165L307,172L312,166L314,162L317,159L319,156L320,151L321,147L319,143L313,137L310,129L315,128L324,130L321,125L321,119L312,116L305,114L304,111L295,110L298,112L296,112L291,111L289,111L287,111L281,112L280,111Z " data-fips="DR29" data-fips-="" data-iso3="DOM" data-name="Hato Mayor"/><path d="M260,112L254,113L253,118L250,118L248,124L247,131L244,134L239,132L237,133L231,133L229,135L225,136L219,137L217,140L217,143L218,145L220,147L223,149L225,150L228,151L230,155L241,158L245,156L253,153L256,156L260,162L263,164L263,167L268,162L278,158L281,158L285,159L291,149L296,142L298,140L304,135L302,133L299,133L283,125L278,121L275,118L272,117L269,114L266,112L260,112Z " data-fips="DR32" data-fips-="" data-iso3="DOM" data-name="Monte Plata"/><path d="M262,86L255,76L254,68L253,66L251,65L253,59L253,57L252,54L248,50L243,50L237,50L235,51L232,54L230,60L225,63L221,63L220,66L220,69L224,71L227,73L228,77L229,80L230,85L233,87L236,88L238,90L243,94L250,96L256,99L263,101L263,98L263,95L265,89L262,86Z " data-fips="DR14" data-fips-="" data-iso3="DOM" data-name="Mara Trinidad Snchez"/><path d="M279,110L279,104L282,97L294,99L300,101L309,100L317,102L321,100L323,94L326,91L326,88L319,90L317,89L319,83L316,83L311,86L308,90L307,89L301,86L300,87L296,86L294,87L288,85L285,87L268,91L265,90L265,89L263,95L263,98L263,101L268,98L274,100L274,102L269,107L268,110L266,112L269,114L272,117L275,118L278,121L280,118L280,114L280,111L280,111L279,110Z " data-fips="DR20" data-fips-="" data-iso3="DOM" data-name="Saman"/><path d="M223,149L220,147L218,145L217,143L213,145L212,148L211,152L207,152L205,156L205,161L205,164L204,168L205,172L206,175L211,177L215,181L218,182L218,185L216,186L215,189L222,198L223,199L224,203L224,203L232,196L233,194L235,193L237,189L241,184L242,184L241,181L240,179L236,179L230,172L228,168L227,165L228,160L225,155L225,150L223,149Z " data-fips="DR33" data-fips-="" data-iso3="DOM" data-name="San Cristbal"/><path d="M246,182L252,179L254,178L254,178L255,175L248,175L245,171L243,173L242,176L245,179L244,183L246,182Z " data-fips="DR34" data-fips-="DR" data-iso3="DOM" data-name="Distrito Nacional"/><path d="M321,119L321,125L324,130L315,128L310,129L313,137L319,143L321,147L320,151L319,156L317,159L319,160L323,162L329,166L335,166L334,169L334,171L339,168L343,163L345,158L349,156L349,154L349,152L354,150L359,146L361,140L358,135L359,128L364,123L364,123L355,121L353,119L349,118L345,117L337,123L336,122L332,120L328,116L327,116L329,119L325,120L321,119Z " data-fips="DR28" data-fips-="" data-iso3="DOM" data-name="El Seybo"/><path d="M373,208L365,206L368,212L370,214L382,214L385,215L387,214L384,209L373,208Z M364,123L359,128L358,135L361,140L359,146L354,150L349,152L349,154L349,156L351,160L353,164L358,169L358,172L353,184L355,185L358,187L361,191L365,196L367,201L368,205L369,205L380,203L381,197L384,191L383,187L390,189L397,189L398,189L400,186L399,182L410,165L411,161L408,157L402,153L395,148L385,140L381,135L369,124L365,123L364,123Z " data-fips="DR10" data-fips-="" data-iso3="DOM" data-name="La Altagracia"/><path d="M349,156L345,158L343,163L339,168L334,171L332,174L331,177L334,182L335,185L342,185L347,183L351,183L353,184L358,172L358,169L353,164L351,160L349,156Z " data-fips="DR12" data-fips-="" data-iso3="DOM" data-name="La Romana"/></g></svg>