<?xml version="1.0" encoding="UTF-8"?><!DOCTYPE svg  PUBLIC '-//W3C//DTD SVG 1.1//EN'  'http://www.w3.org/Graphics/SVG/1.1/DTD/svg11.dtd'><svg enable_background="new 0 0 450 301" height="301px" style="stroke-linejoin: round; stroke:#000; fill:#f6f3f0;" version="1.1" viewBox="0 0 450 301" width="450px" xmlns="http://www.w3.org/2000/svg" xmlns:xlink="http://www.w3.org/1999/xlink"><defs><style type="text/css"><![CDATA[path { fill-rule: evenodd; }
#context path { fill: #eee; stroke: #bbb; } ]]></style></defs><metadata><views><view h="301.0" padding="0.06" w="450"><proj id="laea" lat0="25.3172405053" lon0="-2.01860351771"/><bbox h="253.31" w="258.43" x="913.12" y="837.58"/><llbbox lat0="-90" lat1="90" lon0="-180" lon1="180"/></view></views></metadata><g id="context"><path d="M294,18L283,16L283,18L280,19L274,17L270,21L261,24L254,21L243,22L240,23L229,27L226,27L214,28L201,35L198,39L194,38L188,41L175,50L173,49L178,60L179,75L181,82L187,88L157,99L153,104L152,106L154,109L150,110L146,113L138,116L134,122L125,125L118,125L117,128L111,128L109,128L95,136L90,140L89,152L89,155L89,158L89,161L91,163L103,171L120,183L135,194L138,196L142,199L167,217L198,239L218,253L218,257L229,264L233,265L237,268L246,270L247,271L248,282L257,281L261,280L264,279L282,274L283,274L304,252L309,249L355,213L361,208L360,206L343,195L340,196L337,195L333,184L325,174L325,170L330,166L329,162L327,156L328,149L326,138L326,132L319,114L320,114L319,110L311,87L302,79L298,74L293,70L290,63L291,59L294,55L297,52L299,43L297,34L297,26L295,24L299,18L299,17L294,18Z " data-iso="DZA"/><path d="M0,147L3,147L3,142L0,141L0,147Z M19,143L23,142L24,137L22,135L19,142L19,143Z M26,133L30,129L27,130L24,133L26,133Z M115,18L117,18L123,22L126,31L130,34L136,32L141,29L144,29L147,26L166,26L176,23L178,18L183,14L190,13L191,5L195,0L114,0L117,5L115,6L111,12L112,18L115,18Z " data-iso="ESP"/><path d="M342,0L351,4L359,8L363,8L367,12L374,12L375,8L373,0L342,0Z " data-iso="ITA"/><path d="M340,68L340,72L341,79L335,84L331,88L326,95L328,105L321,113L320,114L319,114L326,132L326,138L328,149L327,156L329,162L330,166L325,170L325,174L333,184L337,195L340,196L343,195L360,206L361,208L368,209L383,212L392,218L402,211L402,211L406,208L414,203L432,210L450,217L450,61L445,67L444,73L449,84L449,85L445,93L439,98L433,96L426,92L415,89L408,88L400,89L393,86L388,77L386,74L369,71L360,70L355,72L342,69L340,68Z " data-iso="LBY"/><path d="M89,155L89,152L90,140L95,136L109,128L111,128L117,128L118,125L125,125L134,122L138,116L146,113L150,110L154,109L152,106L153,104L157,99L187,88L181,82L179,75L178,60L173,49L170,49L163,46L161,47L152,47L147,48L144,48L137,41L135,37L129,39L123,53L118,62L108,69L98,73L86,84L85,91L80,96L78,100L77,110L79,116L79,119L71,129L65,135L59,138L53,144L47,146L35,148L28,159L26,163L20,168L17,168L13,172L12,175L7,182L5,192L0,196L0,240L5,237L5,234L11,228L12,222L16,211L18,208L25,205L37,194L40,190L44,176L48,176L50,173L54,168L55,164L60,163L64,164L74,166L88,163L87,155L89,155Z " data-iso="MAR"/><path d="M261,280L257,281L248,282L247,271L246,270L237,268L233,265L229,264L218,257L218,253L198,239L167,217L142,199L138,196L133,196L115,195L118,242L123,299L262,299L262,294L261,290L261,282L261,280Z " data-iso="MLI"/><path d="M138,196L135,194L120,183L103,171L91,163L89,161L89,163L88,176L85,180L44,177L42,214L28,220L26,221L26,244L0,242L0,299L123,299L118,242L115,195L133,196L138,196Z " data-iso="MRT"/><path d="M402,211L402,211L392,218L383,212L368,209L361,208L355,213L309,249L304,252L283,274L282,274L264,279L261,280L261,282L261,290L262,294L262,299L418,299L417,255L419,248L415,244L414,240L408,233L404,220L402,211Z " data-iso="NER"/><path d="M112,18L111,12L115,6L117,5L114,0L97,0L96,6L96,13L94,19L98,18L106,20L111,18L112,18Z " data-iso="PRT"/><path d="M89,161L89,158L89,155L87,155L88,163L74,166L64,164L60,163L55,164L54,168L50,173L48,176L44,176L40,190L37,194L25,205L18,208L16,211L12,222L11,228L5,234L5,237L0,240L0,242L26,244L26,221L28,220L42,214L44,177L85,180L88,176L89,163L89,161Z " data-iso="SAH"/><path d="M402,211L404,220L408,233L414,240L415,244L419,248L417,255L418,299L450,299L450,217L432,210L414,203L406,208L402,211Z " data-iso="TCD"/><path d="M332,61L331,59L330,61L332,61Z M299,17L299,18L295,24L297,26L297,34L299,43L297,52L294,55L291,59L290,63L293,70L298,74L302,79L311,87L319,110L320,114L321,113L328,105L326,95L331,88L335,84L341,79L340,72L340,68L338,68L332,63L330,64L326,63L321,57L322,53L327,48L331,39L329,33L323,28L322,24L325,21L326,13L319,18L319,16L313,11L311,10L305,13L301,16L299,17Z " data-iso="TUN"/></g><g fill="red" fill-opacity="0.35" id="regions"><path d="M227,137L225,121L226,110L226,99L213,106L211,107L210,108L205,113L198,127L190,138L189,139L177,141L174,143L170,146L165,148L162,148L155,144L153,144L163,164L127,188L127,188L129,190L142,199L218,253L218,258L227,264L231,265L234,265L235,267L245,269L247,271L247,274L248,277L246,280L249,283L250,282L255,281L254,260L254,256L251,254L221,237L220,236L219,188L216,186L216,182L212,177L215,175L222,174L226,169L228,151L228,145L227,137Z " data-fips="AG34" data-fips-="" data-iso3="DZA" data-name="Adrar"/><path d="M191,46L190,44L186,42L186,42L185,43L184,45L183,46L183,46L183,46L183,47L187,49L187,50L188,49L189,48L189,47L190,46L191,46L191,46Z " data-fips="AG36" data-fips-="" data-iso3="DZA" data-name="An Tmouchent"/><path d="M198,39L195,38L192,40L186,42L186,42L190,44L191,46L191,46L191,46L192,46L192,46L192,45L193,45L193,45L193,44L196,41L197,40L198,39L198,39L198,39Z " data-fips="AG09" data-fips-="" data-iso3="DZA" data-name="Oran"/><path d="M197,48L197,46L195,45L193,45L193,45L192,45L192,46L192,46L191,46L191,46L190,46L189,47L189,48L188,49L187,50L187,50L189,54L187,60L186,61L186,61L186,62L189,62L190,62L193,61L194,62L198,57L198,55L196,53L197,49L197,49L197,48Z " data-fips="AG30" data-fips-="AG09" data-iso3="DZA" data-name="Sidi Bel Abbs"/><path d="M183,46L177,49L173,50L178,54L178,60L179,64L179,64L182,63L184,62L186,62L186,61L186,61L187,60L189,54L187,50L187,50L187,49L183,47L183,46L183,46L183,46Z " data-fips="AG15" data-fips-="" data-iso3="DZA" data-name="Tlemcen"/><path d="M190,93L188,91L187,91L184,91L184,91L185,93L169,92L164,94L163,96L154,106L155,109L150,110L146,113L139,116L130,124L124,125L124,125L124,125L133,149L153,144L155,144L162,148L165,148L170,146L174,143L177,141L189,139L190,138L198,127L205,113L198,107L196,104L195,103L195,103L199,89L190,93Z " data-fips="AG38" data-fips-="" data-iso3="DZA" data-name="Bchar"/><path d="M193,61L190,62L189,62L186,62L186,61L186,62L184,62L182,63L179,64L179,64L178,70L180,72L179,76L184,84L187,87L184,91L184,91L187,91L188,91L190,93L199,89L200,88L199,80L200,76L200,71L200,65L201,64L200,64L199,65L197,64L195,66L193,62L194,62L193,61Z " data-fips="AG49" data-fips-="" data-iso3="DZA" data-name="Nama"/><path d="M124,125L118,126L116,129L111,128L106,131L96,136L90,141L89,161L127,188L127,188L163,164L153,144L133,149L124,125L124,125L124,125Z " data-fips="AG54" data-fips-="AG13" data-iso3="DZA" data-name="Tindouf"/><path d="M289,19L288,18L286,17L283,17L283,17L284,19L285,21L285,22L286,22L287,23L288,23L288,23L288,22L288,22L289,21L289,21L289,19L289,19Z " data-fips="AG37" data-fips-="" data-iso3="DZA" data-name="Annaba"/><path d="M289,19L289,21L289,21L288,22L288,22L289,22L292,24L292,24L293,24L293,25L293,26L295,24L295,24L297,21L299,18L290,19L289,19Z " data-fips="AG44" data-fips-="" data-iso3="DZA" data-name="El Tarf"/><path d="M274,24L273,22L272,20L272,19L272,20L266,21L262,24L262,24L262,24L262,25L263,25L263,25L263,25L265,25L265,26L266,25L267,25L267,25L269,24L273,24L275,24L274,24Z " data-fips="AG24" data-fips-="" data-iso3="DZA" data-name="Jijel"/><path d="M283,17L282,17L282,19L272,19L272,19L272,20L273,22L274,24L275,24L275,24L275,24L279,26L279,26L280,26L281,26L282,24L284,23L285,22L285,22L285,21L284,19L283,17L283,17Z " data-fips="AG31" data-fips-="" data-iso3="DZA" data-name="Skikda"/><path d="M318,117L292,136L287,136L283,138L277,142L284,147L285,151L282,153L276,160L279,167L282,169L283,171L282,175L293,181L295,192L300,197L307,201L315,202L318,205L357,202L355,198L354,198L343,195L339,196L334,192L333,184L324,173L325,170L329,168L330,162L328,161L327,156L329,148L323,122L319,118L318,117Z " data-fips="AG46" data-fips-="" data-iso3="DZA" data-name="Illizi"/><path d="M239,135L227,137L228,145L228,151L226,169L222,174L215,175L212,177L216,182L216,186L219,188L220,236L221,237L251,254L254,256L254,260L255,281L261,280L282,274L304,252L361,208L357,202L318,205L315,202L307,201L300,197L295,192L293,181L282,175L283,171L282,169L279,167L276,160L282,153L285,151L284,147L277,142L262,144L250,143L239,135Z " data-fips="AG53" data-fips-="" data-iso3="DZA" data-name="Tamanghasset"/><path d="M215,63L212,62L212,62L211,59L208,59L208,59L207,59L201,64L201,64L200,65L200,71L200,76L199,80L200,88L199,89L195,103L195,103L196,104L198,107L205,113L210,108L211,107L213,106L226,99L226,98L227,95L229,93L228,84L228,83L228,83L224,74L224,74L220,67L216,65L216,64L215,63Z " data-fips="AG42" data-fips-="" data-iso3="DZA" data-name="El Bayadh"/><path d="M262,69L261,71L275,71L277,72L279,74L282,83L285,88L290,90L312,88L311,87L302,81L301,78L298,73L294,72L290,64L290,60L290,59L287,59L286,59L286,59L284,59L283,59L281,57L280,57L280,56L280,57L272,56L264,56L262,57L264,62L264,65L263,67L262,69Z " data-fips="" data-fips-="" data-iso3="DZA" data-name="El Oued"/><path d="M251,78L247,78L246,78L242,80L235,81L232,82L228,83L228,84L229,93L227,95L226,98L226,99L226,110L225,121L227,137L239,135L243,132L245,127L248,122L250,99L254,88L258,84L261,80L251,78Z " data-fips="AG45" data-fips-="" data-iso3="DZA" data-name="Ghardaa"/><path d="M251,77L249,74L244,70L236,60L232,63L231,66L229,65L227,58L228,55L228,54L227,54L221,58L220,59L219,61L216,64L216,65L220,67L224,74L224,74L228,83L228,83L232,82L235,81L242,80L246,78L247,78L251,78L251,77Z " data-fips="AG25" data-fips-="" data-iso3="DZA" data-name="Laghouat"/><path d="M318,116L320,114L320,114L312,88L290,90L285,88L282,83L279,74L277,72L275,71L261,71L260,73L260,74L261,80L258,84L254,88L250,99L248,122L245,127L243,132L239,135L250,143L262,144L277,142L283,138L287,136L292,136L318,117L318,116Z " data-fips="AG50" data-fips-="" data-iso3="DZA" data-name="Ouargla"/><path d="M236,24L235,24L234,23L234,23L234,24L233,24L234,24L234,25L235,25L235,26L235,26L236,25L237,25L236,24L236,24L236,24Z " data-fips="AG01" data-fips-="" data-iso3="DZA" data-name="Alger"/><path d="M246,22L242,22L240,23L236,24L236,24L236,24L237,25L237,25L238,25L239,25L239,25L240,25L240,25L241,25L242,25L242,26L243,26L243,25L245,25L245,24L246,22L246,22Z " data-fips="AG40" data-fips-="" data-iso3="DZA" data-name="Boumerds"/><path d="M252,21L251,21L246,22L246,22L245,24L245,25L243,25L243,26L243,26L244,28L245,28L250,27L250,27L251,27L253,25L252,23L252,21L252,21Z " data-fips="AG14" data-fips-="" data-iso3="DZA" data-name="Tizi Ouzou"/><path d="M234,23L231,26L228,27L227,26L219,28L219,28L219,28L219,28L218,29L218,29L219,30L220,29L223,29L226,29L228,29L228,29L232,26L232,26L234,25L234,25L234,24L233,24L234,24L234,23L234,23Z " data-fips="AG55" data-fips-="" data-iso3="DZA" data-name="Tipaza"/><path d="M226,29L223,29L220,29L219,30L218,29L218,30L217,31L219,36L219,37L220,37L221,38L224,37L226,37L226,37L227,37L229,34L230,30L230,30L230,30L229,30L229,30L228,30L228,29L226,29Z " data-fips="AG35" data-fips-="" data-iso3="DZA" data-name="An Defla"/><path d="M217,28L211,29L208,31L208,31L208,31L208,32L208,32L207,33L207,33L208,33L209,33L210,35L215,38L216,38L216,38L217,36L217,36L219,37L219,37L219,36L217,31L218,30L218,29L218,29L219,28L219,28L219,28L217,28Z " data-fips="AG41" data-fips-="" data-iso3="DZA" data-name="Chlef"/><path d="M201,41L201,41L199,40L198,39L198,39L197,40L196,41L193,44L193,45L193,45L193,45L195,45L197,46L197,48L197,49L198,49L201,49L201,50L205,49L205,49L205,49L206,47L209,44L209,44L208,44L203,42L202,41L202,40L201,41Z " data-fips="AG26" data-fips-="" data-iso3="DZA" data-name="Mascara"/><path d="M207,33L208,32L208,32L208,31L207,31L200,35L200,37L198,39L198,39L198,39L198,39L199,40L201,41L201,41L202,40L202,40L204,37L205,36L207,34L207,33L207,33Z " data-fips="AG07" data-fips-="" data-iso3="DZA" data-name="Mostaganem"/><path d="M215,38L210,35L209,33L208,33L207,33L207,34L205,36L204,37L202,40L202,40L202,41L203,42L208,44L209,44L209,44L210,42L211,42L213,41L214,41L214,40L214,39L214,39L216,38L216,38L215,38Z " data-fips="AG51" data-fips-="" data-iso3="DZA" data-name="Relizane"/><path d="M205,49L201,50L201,49L198,49L197,49L197,49L196,53L198,55L198,57L194,62L193,62L195,66L197,64L199,65L200,64L201,64L201,64L207,59L208,59L208,59L209,58L210,58L207,54L208,51L207,49L205,49L205,49Z " data-fips="AG10" data-fips-="" data-iso3="DZA" data-name="Sada"/><path d="M225,42L220,42L217,41L214,41L214,41L213,41L211,42L210,42L209,44L209,44L209,44L206,47L205,49L205,49L207,49L208,51L207,54L210,58L209,58L208,59L211,59L212,62L212,62L215,63L216,64L219,61L220,59L221,58L227,54L228,54L228,53L230,49L226,45L226,44L226,42L225,42Z " data-fips="AG13" data-fips-="AG54" data-iso3="DZA" data-name="Tiaret"/><path d="M219,37L217,36L217,36L216,38L216,38L216,38L214,39L214,39L214,40L214,41L214,41L217,41L220,42L225,42L226,42L226,41L225,40L225,40L226,39L226,37L226,37L224,37L221,38L220,37L219,37L219,37Z " data-fips="AG56" data-fips-="" data-iso3="DZA" data-name="Tissemsilt"/><path d="M255,28L253,31L250,30L250,29L250,30L249,31L248,32L247,34L247,34L247,34L253,35L252,36L256,36L258,37L259,37L259,36L259,31L258,29L255,29L255,29L255,28Z " data-fips="AG39" data-fips-="" data-iso3="DZA" data-name="Bordj Bou Arrridj"/><path d="M262,24L260,24L258,23L253,21L252,21L252,23L253,25L251,27L250,27L250,28L251,29L250,29L250,29L250,30L253,31L255,28L255,29L256,29L257,27L261,28L263,25L263,25L263,25L262,25L262,24L262,24L262,24Z " data-fips="AG18" data-fips-="" data-iso3="DZA" data-name="Bjaa"/><path d="M239,25L239,25L238,25L237,25L237,25L236,25L235,26L235,26L235,25L234,25L234,25L232,26L232,26L228,29L228,29L228,30L229,30L229,30L230,30L230,30L230,30L233,29L234,30L237,28L237,28L237,27L239,27L240,26L240,26L240,25L239,25Z " data-fips="AG20" data-fips-="" data-iso3="DZA" data-name="Blida"/><path d="M242,26L242,25L241,25L240,25L240,25L240,26L240,26L239,27L237,27L237,28L238,28L240,28L241,29L241,35L242,36L243,36L243,36L245,37L247,35L247,34L247,34L248,32L249,31L250,30L250,29L250,29L251,29L250,28L250,27L250,27L245,28L244,28L243,26L243,26L242,26Z " data-fips="AG21" data-fips-="" data-iso3="DZA" data-name="Bouira"/><path d="M278,51L276,46L273,48L270,46L268,44L261,48L260,47L259,47L260,49L254,52L250,56L251,60L250,60L250,60L251,61L253,64L262,69L263,67L264,65L264,62L262,57L264,56L272,56L280,57L280,56L280,56L280,51L280,50L278,50L278,50L278,51Z " data-fips="AG19" data-fips-="" data-iso3="DZA" data-name="Biskra"/><path d="M239,39L236,40L234,38L231,43L229,43L226,44L226,45L230,49L228,53L228,54L228,55L227,58L229,65L231,66L232,63L236,60L244,70L249,74L251,77L251,78L261,80L260,74L260,73L261,71L262,69L253,64L251,61L250,60L250,60L250,60L248,57L246,53L241,48L243,45L243,42L240,40L239,39L239,39Z " data-fips="AG22" data-fips-="" data-iso3="DZA" data-name="Djelfa"/><path d="M241,35L241,29L240,28L238,28L237,28L237,28L234,30L233,29L230,30L230,30L230,30L229,34L227,37L226,37L226,39L225,40L225,40L226,41L226,42L226,44L229,43L231,43L234,38L236,40L239,39L239,39L239,38L242,37L242,36L242,36L241,35Z " data-fips="AG06" data-fips-="" data-iso3="DZA" data-name="Mda"/><path d="M258,37L256,36L252,36L253,35L247,34L247,34L247,35L245,37L243,36L243,36L242,36L242,36L242,37L239,38L239,39L240,40L243,42L243,45L241,48L246,53L248,57L250,60L250,60L251,60L250,56L254,52L260,49L259,47L259,47L256,46L257,44L257,41L262,40L263,39L261,39L259,38L259,37L259,37L258,37Z " data-fips="AG32" data-fips-="AG27" data-iso3="DZA" data-name="M'Sila"/><path d="M265,26L265,25L263,25L263,25L263,25L261,28L257,27L256,29L255,29L255,29L258,29L259,31L259,36L259,37L259,37L259,38L261,39L263,39L263,39L267,36L269,35L270,34L270,34L268,31L269,30L266,26L266,25L265,26Z " data-fips="AG12" data-fips-="" data-iso3="DZA" data-name="Stif"/><path d="M271,35L270,35L270,35L270,34L269,35L267,36L263,39L263,39L262,40L257,41L257,44L256,46L259,47L259,47L260,47L261,48L268,44L270,46L273,48L276,46L278,51L278,50L278,50L277,45L278,41L279,38L279,37L278,36L278,36L273,35L272,35L271,35Z " data-fips="AG03" data-fips-="" data-iso3="DZA" data-name="Batna"/><path d="M279,26L279,26L275,24L275,24L275,25L275,27L275,27L276,30L276,30L276,31L277,31L281,30L282,30L282,30L282,28L281,28L280,26L280,26L279,26Z " data-fips="AG48" data-fips-="AG04" data-iso3="DZA" data-name="Constantine"/><path d="M288,23L288,23L287,23L286,22L285,22L285,22L284,23L282,24L281,26L280,26L280,26L281,28L282,28L282,30L282,30L282,30L282,32L283,32L285,30L285,30L285,30L291,27L290,25L291,25L293,24L292,24L292,24L289,22L288,22L288,23Z " data-fips="AG23" data-fips-="" data-iso3="DZA" data-name="Guelma"/><path d="M288,40L286,39L286,38L280,37L279,37L279,38L278,41L277,45L278,50L278,50L278,50L280,50L280,51L280,56L280,56L280,57L281,57L283,59L284,59L286,59L286,57L287,53L288,50L287,47L288,40L289,40L288,40Z " data-fips="AG47" data-fips-="" data-iso3="DZA" data-name="Khenchela"/><path d="M273,24L269,24L267,25L267,25L266,25L266,26L269,30L268,31L270,34L270,34L270,35L270,35L271,35L272,35L272,34L274,33L276,30L276,30L276,30L275,27L275,27L275,25L275,24L275,24L273,24Z " data-fips="AG48" data-fips-="" data-iso3="DZA" data-name="Mila"/><path d="M281,30L277,31L276,31L276,30L276,30L274,33L272,34L272,35L273,35L278,36L278,36L279,37L280,37L286,38L286,39L288,40L289,40L291,38L292,36L292,36L292,34L292,34L291,33L289,34L287,33L285,31L285,30L285,30L283,32L282,32L282,30L282,30L281,30Z " data-fips="AG29" data-fips-="" data-iso3="DZA" data-name="Oum el Bouaghi"/><path d="M295,24L293,26L293,25L293,24L291,25L290,25L291,27L285,30L285,30L285,31L287,33L289,34L291,33L292,34L292,33L293,32L297,32L297,31L297,28L297,26L295,24L295,24Z " data-fips="AG52" data-fips-="AG44" data-iso3="DZA" data-name="Souk Ahras"/><path d="M297,32L293,32L292,33L292,34L292,34L292,36L292,36L291,38L289,40L288,40L287,47L288,50L287,53L286,57L286,59L286,59L287,59L290,59L291,59L293,57L294,55L298,51L298,48L299,42L296,33L297,32Z " data-fips="AG33" data-fips-="" data-iso3="DZA" data-name="Tbessa"/></g></svg>