<?xml version="1.0" encoding="UTF-8"?><!DOCTYPE svg  PUBLIC '-//W3C//DTD SVG 1.1//EN'  'http://www.w3.org/Graphics/SVG/1.1/DTD/svg11.dtd'><svg enable_background="new 0 0 450 301" height="301px" style="stroke-linejoin: round; stroke:#000; fill:#f6f3f0;" version="1.1" viewBox="0 0 450 301" width="450px" xmlns="http://www.w3.org/2000/svg" xmlns:xlink="http://www.w3.org/1999/xlink"><defs><style type="text/css"><![CDATA[path { fill-rule: evenodd; }
#context path { fill: #eee; stroke: #bbb; } ]]></style></defs><metadata><views><view h="301.0" padding="0.06" w="450"><proj id="laea" lat0="-1.5" lon0="-78.0"/><bbox h="98.29" w="110.57" x="944.72" y="950.89"/><llbbox lat0="-5.0" lat1="2.0" lon0="-82.0" lon1="-74.0"/></view></views></metadata><g id="context"><path d="M450,299L450,265L440,272L436,273L432,277L423,284L418,285L415,287L416,289L414,299L450,299Z " data-iso="BRA"/><path d="M193,38L197,42L199,45L206,48L213,54L224,59L231,62L236,62L238,66L245,69L247,77L248,78L258,80L269,84L273,83L282,84L284,83L286,78L298,80L305,87L308,90L314,91L320,95L327,97L329,95L331,95L337,99L345,101L349,106L352,107L359,115L363,124L363,125L368,131L373,132L380,138L388,140L393,148L394,151L393,155L399,160L405,162L408,171L407,179L413,181L415,183L423,183L427,182L435,185L448,181L450,181L450,0L213,0L208,0L205,2L202,7L201,16L204,21L203,27L195,24L189,27L187,32L192,36L193,38Z " data-iso="COL"/><path d="M145,205L150,199L153,195L150,193L142,196L141,199L141,206L144,206L145,205Z M194,44L191,48L179,52L170,53L164,57L160,56L154,61L149,62L147,64L149,78L148,87L145,93L141,97L138,99L132,107L132,109L135,115L139,116L136,117L133,115L131,119L129,125L127,127L118,130L116,134L119,141L120,145L119,154L121,162L121,171L114,175L119,181L124,183L133,192L139,195L141,192L145,188L148,183L150,181L149,189L153,189L154,184L154,174L156,171L157,182L160,186L160,190L157,197L153,209L151,212L144,218L139,220L138,220L140,222L142,229L141,233L143,239L139,243L134,243L131,246L133,251L137,251L132,258L136,261L139,259L143,255L145,254L158,261L164,260L168,264L169,268L175,278L185,280L188,276L191,275L191,270L199,264L200,259L199,258L204,243L206,241L209,235L212,222L214,221L218,224L219,223L218,219L227,207L230,205L249,199L275,189L297,173L313,153L316,151L322,129L328,129L327,120L328,114L322,108L319,102L314,98L320,99L325,98L327,97L320,95L314,91L308,90L305,87L298,80L286,78L284,83L282,84L273,83L269,84L258,80L248,78L247,77L245,69L238,66L236,62L231,62L224,59L213,54L206,48L199,45L197,42L193,38L194,44Z " data-iso="ECU"/><path d="M450,181L448,181L435,185L427,182L423,183L415,183L413,181L407,179L408,171L405,162L399,160L393,155L394,151L393,148L388,140L380,138L373,132L368,131L363,125L363,124L359,115L352,107L349,106L345,101L337,99L331,95L329,95L327,97L325,98L320,99L314,98L319,102L322,108L328,114L327,120L328,129L322,129L316,151L313,153L297,173L275,189L249,199L230,205L227,207L218,219L219,223L218,224L214,221L212,222L209,235L206,241L204,243L199,258L200,259L199,264L191,270L191,275L188,276L185,280L175,278L169,268L168,264L164,260L158,261L145,254L143,255L139,259L136,261L132,258L137,251L133,251L131,246L134,243L139,243L143,239L141,233L142,229L140,222L138,220L131,224L126,230L120,233L117,239L104,252L102,255L100,269L109,282L107,287L115,299L414,299L416,289L415,287L418,285L423,284L432,277L436,273L440,272L450,265L450,181Z " data-iso="PER"/></g><g fill="red" fill-opacity="0.35" id="regions"><path d="M204,189L202,192L195,195L194,199L191,199L189,197L174,189L172,187L171,187L172,188L162,199L161,204L159,207L159,208L164,211L165,214L163,218L169,218L170,218L171,218L176,219L178,223L181,224L183,229L184,230L184,229L186,226L189,219L190,218L190,217L190,217L198,211L200,208L203,200L203,197L204,195L209,192L208,190L205,191L204,190L204,189L204,189Z " data-fips="EC02" data-fips-="" data-iso3="ECU" data-name="Azuay" data-p="A"/><path d="M159,208L157,208L157,208L154,207L154,207L153,209L152,213L149,216L148,213L144,218L138,221L140,222L142,230L142,232L144,239L144,239L162,235L164,234L167,236L171,236L173,232L172,228L169,229L170,225L170,220L170,218L169,218L163,218L165,214L164,211L159,208Z " data-fips="EC08" data-fips-="" data-iso3="ECU" data-name="El Oro" data-p="O"/><path d="M170,218L170,220L170,225L169,229L172,228L173,232L171,236L167,236L164,234L162,235L144,239L144,239L140,241L139,243L133,243L131,247L132,251L137,252L132,258L132,260L135,261L141,258L143,254L145,254L151,258L154,258L158,261L164,260L166,262L168,266L170,272L170,272L176,265L176,263L180,262L183,259L184,250L182,247L182,245L182,237L180,233L183,231L184,230L183,229L181,224L178,223L176,219L171,218L170,218Z " data-fips="EC12" data-fips-="" data-iso3="ECU" data-name="Loja" data-p="L"/><path d="M190,218L189,219L186,226L184,229L184,230L183,231L180,233L182,237L182,245L182,247L184,250L183,259L180,262L176,263L176,265L170,272L170,273L171,274L177,280L180,280L185,281L188,277L191,276L191,270L195,267L201,260L199,257L203,247L204,242L206,241L207,238L209,235L211,226L211,226L200,226L199,227L194,226L193,220L190,218Z " data-fips="EC20" data-fips-="" data-iso3="ECU" data-name="Zamora Chinchipe" data-p="Z"/><path d="M191,137L189,138L184,136L179,138L177,138L175,139L173,142L176,144L175,147L178,151L175,154L177,157L180,170L179,173L179,174L180,174L182,174L182,174L183,174L183,176L185,175L186,173L187,165L187,160L192,158L192,149L192,148L192,147L190,146L190,145L192,139L192,137L191,137Z " data-fips="EC03" data-fips-="" data-iso3="ECU" data-name="Bolivar" data-p="B"/><path d="M203,180L190,183L186,181L183,177L183,176L182,177L179,179L172,181L172,184L168,187L170,187L171,187L172,187L174,189L189,197L191,199L194,199L195,195L202,192L204,189L204,189L205,189L207,187L207,182L203,180L203,180L203,180Z " data-fips="EC04" data-fips-="" data-iso3="ECU" data-name="Caar" data-p="F"/><path d="M208,116L203,116L202,116L198,116L194,113L190,106L186,111L188,113L185,115L184,114L184,115L181,123L176,129L177,137L177,138L179,138L184,136L189,138L191,137L192,137L194,137L197,136L199,136L204,134L205,133L208,133L209,130L210,129L210,129L209,127L209,126L210,120L210,119L208,116Z " data-fips="EC07" data-fips-="" data-iso3="ECU" data-name="Cotopaxi" data-p="X"/><path d="M150,199L154,195L149,193L142,195L140,200L140,205L141,207L145,206L146,204L144,200L150,199Z M164,125L162,125L160,126L153,136L151,135L148,141L145,144L143,150L140,153L142,156L140,156L134,160L134,162L131,162L129,161L129,159L129,156L119,156L119,157L122,165L121,172L112,176L115,179L115,180L120,182L122,182L128,187L132,191L140,196L139,192L143,190L147,185L149,181L152,180L148,185L152,186L152,187L147,189L151,191L154,188L155,179L154,174L157,170L159,168L155,174L156,177L157,184L157,186L160,187L160,190L155,202L154,207L154,207L154,207L157,208L157,208L159,208L159,207L161,204L162,199L172,188L171,187L170,187L168,187L172,184L172,181L179,179L182,177L183,176L183,174L182,174L182,174L180,174L179,174L177,172L174,168L169,164L167,164L164,165L163,164L158,156L155,155L155,147L159,139L167,129L168,125L165,125L164,125Z " data-fips="EC10" data-fips-="" data-iso3="ECU" data-name="Guayas" data-p="G"/><path d="M184,114L178,118L175,119L174,114L171,114L169,114L169,115L167,119L165,121L165,123L164,125L165,125L168,125L167,129L159,139L155,147L155,155L158,156L163,164L164,165L167,164L169,164L174,168L177,172L179,174L179,173L180,170L177,157L175,154L178,151L175,147L176,144L173,142L175,139L177,138L177,137L176,129L181,123L184,115L184,114L184,114Z " data-fips="EC13" data-fips-="" data-iso3="ECU" data-name="Los Rios" data-p="R"/><path d="M164,93L161,86L161,81L161,80L150,80L150,80L148,81L148,89L146,92L141,98L137,100L135,103L131,108L137,117L134,114L130,120L130,124L120,128L119,128L116,132L117,136L121,142L120,148L118,152L119,154L119,156L129,156L129,159L129,161L131,162L134,162L134,160L140,156L142,156L140,153L143,150L145,144L148,141L151,135L153,136L160,126L162,125L164,125L165,123L165,121L167,119L169,115L169,114L170,113L172,109L172,100L169,99L165,94L165,94L164,93Z " data-fips="EC14" data-fips-="" data-iso3="ECU" data-name="Manabi" data-p="M"/><path d="M211,150L207,147L206,149L193,148L192,148L192,149L192,158L187,160L187,165L186,173L185,175L183,176L183,177L186,181L190,183L203,180L203,180L205,179L206,174L208,171L207,167L209,163L208,157L212,154L211,151L212,150L211,150Z " data-fips="EC06" data-fips-="" data-iso3="ECU" data-name="Chimborazo" data-p="H"/><path d="M219,147L218,148L214,149L212,150L212,150L211,151L212,154L208,157L209,163L207,167L208,171L206,174L205,179L203,180L203,180L207,182L207,187L205,189L204,189L204,190L205,191L208,190L209,192L204,195L203,197L203,200L200,208L198,211L190,217L190,217L190,218L193,220L194,226L199,227L200,226L211,226L211,224L211,221L215,221L216,224L219,224L218,219L221,215L223,213L227,208L230,205L274,190L275,189L267,188L263,187L258,181L248,174L236,169L234,166L230,162L221,148L220,148L219,147Z " data-fips="EC15" data-fips-="" data-iso3="ECU" data-name="Morona Santiago" data-p="S"/><path d="M251,95L252,98L251,100L253,104L250,109L246,112L242,110L239,114L242,116L244,120L241,128L243,129L252,125L257,120L255,124L258,127L260,128L261,130L261,131L260,132L260,134L272,134L276,133L280,133L283,140L289,142L291,141L295,141L304,144L310,146L315,150L316,151L316,151L317,150L322,128L324,130L329,130L326,121L327,117L328,117L323,116L321,114L317,113L311,110L310,109L302,110L302,114L300,114L296,110L289,110L285,112L282,111L278,108L277,109L265,96L261,97L256,97L252,95L251,95Z " data-fips="EC24" data-fips-="EC21|EC23" data-iso3="ECU" data-name="Orellana" data-p="D"/><path d="M186,82L182,81L178,82L174,85L175,86L173,92L166,94L165,94L165,94L169,99L172,100L172,109L170,113L169,114L171,114L174,114L175,119L178,118L184,114L184,114L185,115L188,113L186,111L190,106L194,113L198,116L202,116L203,116L208,116L210,119L211,118L215,114L216,110L216,109L218,104L218,100L221,100L226,95L231,93L231,92L231,92L230,90L226,89L227,87L223,86L218,88L215,88L211,84L204,85L197,84L188,84L187,83L186,82Z " data-fips="EC19" data-fips-="EC18" data-iso3="ECU" data-name="Pichincha" data-p="P"/><path d="M261,131L254,131L242,136L236,136L232,138L223,140L221,139L221,143L221,144L220,145L219,147L219,147L220,148L221,148L230,162L234,166L236,169L248,174L258,181L263,187L267,188L275,189L277,188L297,173L313,154L315,152L316,151L315,150L310,146L304,144L295,141L291,141L289,142L283,140L280,133L276,133L272,134L260,134L260,132L261,131Z " data-fips="EC17" data-fips-="" data-iso3="ECU" data-name="Pastaza" data-p="Y"/><path d="M221,138L218,137L214,136L212,137L213,133L211,131L210,129L209,130L208,133L205,133L204,134L199,136L197,136L194,137L192,137L192,139L190,145L190,146L192,147L192,148L193,148L206,149L207,147L211,150L212,150L212,150L214,149L218,148L219,147L219,147L220,145L221,144L221,143L221,139L221,138Z " data-fips="" data-fips-="" data-iso3="ECU" data-name="Napo" data-p="N"/><path d="M250,96L249,98L246,98L245,94L241,97L234,96L233,92L231,92L231,93L226,95L221,100L218,100L218,104L216,109L216,110L215,114L211,118L210,119L210,120L209,126L209,127L210,129L210,129L211,131L213,133L212,137L214,136L218,137L221,138L221,139L223,140L232,138L236,136L242,136L254,131L261,131L261,130L260,128L258,127L255,124L257,120L252,125L243,129L241,128L244,120L242,116L239,114L242,110L246,112L250,109L253,104L251,100L252,98L251,95L250,96Z " data-fips="EC23" data-fips-="EC19" data-iso3="ECU" data-name="Tungurahua" data-p="T"/><path d="M191,45L191,42L188,44L188,46L191,45Z M150,80L161,80L161,81L161,86L164,93L165,94L166,94L173,92L175,86L174,85L178,82L182,81L186,82L187,83L188,83L194,77L199,79L201,78L209,70L206,65L208,63L208,62L208,60L208,60L205,57L206,51L207,49L207,48L203,48L202,46L194,39L188,51L187,48L185,48L182,51L179,52L171,53L166,56L164,56L164,60L162,59L163,55L157,59L152,61L148,62L146,64L149,72L150,80L150,80Z " data-fips="EC09" data-fips-="" data-iso3="ECU" data-name="Esmeraldas" data-p="E"/><path d="M207,49L206,51L205,57L208,60L208,60L209,61L214,63L219,71L220,74L231,80L232,80L233,79L233,77L236,73L238,71L238,69L241,70L243,68L242,68L237,65L235,61L232,63L229,62L228,60L220,58L215,54L211,53L207,49L207,49Z " data-fips="EC05" data-fips-="" data-iso3="ECU" data-name="Carchi" data-p="C"/><path d="M231,80L220,74L219,71L214,63L209,61L208,60L208,62L208,63L206,65L209,70L201,78L199,79L194,77L188,83L187,83L188,84L197,84L204,85L211,84L215,88L218,88L223,86L227,87L228,86L231,83L231,83L231,82L232,80L231,80Z " data-fips="EC11" data-fips-="" data-iso3="ECU" data-name="Imbabura" data-p="I"/><path d="M243,68L241,70L238,69L238,71L236,73L233,77L233,79L232,80L231,82L231,83L231,83L228,86L227,87L226,89L230,90L231,92L231,92L233,92L234,96L241,97L245,94L246,98L249,98L250,96L251,95L252,95L256,97L261,97L265,96L277,109L278,108L282,111L285,112L289,110L296,110L300,114L302,114L302,110L310,109L311,110L317,113L321,114L323,116L328,117L328,117L327,113L321,108L316,100L314,100L314,97L318,98L321,99L327,98L326,97L320,95L301,84L296,80L295,79L290,77L289,76L284,78L284,84L273,83L271,84L266,83L261,82L259,80L253,80L249,79L246,74L245,70L243,68L243,68Z " data-fips="EC22" data-fips-="" data-iso3="ECU" data-name="Sucumbios" data-p="U"/></g></svg>