<?xml version="1.0" encoding="UTF-8"?><!DOCTYPE svg  PUBLIC '-//W3C//DTD SVG 1.1//EN'  'http://www.w3.org/Graphics/SVG/1.1/DTD/svg11.dtd'><svg enable_background="new 0 0 450 301" height="301px" style="stroke-linejoin: round; stroke:#000; fill:#f6f3f0;" version="1.1" viewBox="0 0 450 301" width="450px" xmlns="http://www.w3.org/2000/svg" xmlns:xlink="http://www.w3.org/1999/xlink"><defs><style type="text/css"><![CDATA[path { fill-rule: evenodd; }
#context path { fill: #eee; stroke: #bbb; } ]]></style></defs><metadata><views><view h="301.0" padding="0.06" w="450"><proj id="laea" lat0="30.8490863104" lon0="31.0180448942"/><bbox h="137.16" w="153.08" x="922.56" y="980.21"/><llbbox lat0="-90" lat1="90" lon0="-180" lon1="180"/></view></views></metadata><g id="context"><path d="M300,30L293,33L288,35L281,35L277,36L276,34L262,36L257,32L252,36L247,33L244,31L247,26L251,30L253,30L249,25L239,27L231,23L228,23L227,27L217,28L224,25L225,24L217,26L213,27L209,32L202,33L190,41L182,43L180,43L169,37L157,36L154,33L140,27L129,25L122,23L110,20L98,22L94,21L93,18L85,26L87,41L85,50L81,55L80,58L82,65L84,79L85,84L81,175L76,271L76,277L86,278L133,280L162,280L233,281L235,276L239,277L237,281L258,281L300,280L373,277L373,277L372,275L361,267L357,261L349,259L343,253L340,245L338,240L338,229L338,227L344,227L337,221L329,213L320,195L316,187L313,181L307,172L300,158L298,155L296,144L294,139L291,137L287,130L287,122L279,114L271,104L269,98L265,88L259,78L258,76L261,70L261,68L263,66L265,71L267,79L270,85L275,90L280,104L284,109L288,112L292,118L299,123L303,125L308,116L308,109L312,98L314,84L317,80L318,78L312,59L308,53L303,38L301,32L300,30L300,29L300,30Z " data-iso="EGY"/><path d="M304,30L303,28L306,22L304,25L300,29L300,30L301,32L304,30Z " data-iso="PSE"/><path d="M412,2L417,3L440,5L443,6L450,9L450,0L414,0L412,2Z " data-iso="IRQ"/><path d="M306,22L303,28L304,30L301,32L303,38L308,53L312,59L318,78L320,76L323,59L323,50L329,34L328,28L329,24L328,24L321,28L316,28L319,19L323,16L319,15L317,6L318,0L314,0L313,5L311,14L306,22L306,22Z " data-iso="ISR"/><path d="M329,24L328,28L329,34L323,50L323,59L320,76L320,78L319,82L334,84L346,85L355,76L360,67L361,66L377,62L388,48L363,22L409,5L412,2L414,0L359,0L359,0L357,0L330,0L331,4L330,10L331,16L329,22L329,24Z " data-iso="JOR"/><path d="M76,277L76,271L81,175L85,84L84,79L82,65L80,58L81,55L85,50L87,41L85,26L93,18L92,16L90,12L83,8L78,8L70,7L63,3L51,0L0,0L0,299L75,299L75,291L76,277Z " data-iso="LBY"/><path d="M370,187L371,185L361,179L361,181L365,183L370,187Z M412,2L409,5L363,22L388,48L377,62L361,66L360,67L355,76L346,85L334,84L319,82L316,99L316,105L313,117L315,115L323,116L326,117L332,125L336,133L340,137L343,142L347,147L349,150L353,155L360,168L364,169L366,177L370,180L376,189L379,197L378,201L387,215L394,217L396,217L406,224L411,229L424,251L422,251L427,258L428,264L426,278L431,287L430,293L434,299L450,299L450,9L443,6L440,5L417,3L412,2Z " data-iso="SAU"/><path d="M373,277L300,280L258,281L237,281L239,277L235,276L233,281L162,280L133,280L86,278L76,277L75,291L75,299L383,299L379,295L375,288L374,284L373,277Z " data-iso="SDN"/><path d="M357,0L359,0L359,0L357,0Z " data-iso="SYR"/><path d="M329,24L329,22L331,16L330,10L331,4L330,0L318,0L317,6L319,15L323,16L319,19L316,28L321,28L328,24L329,24Z " data-iso="PSE"/></g><g fill="red" fill-opacity="0.35" id="regions"><path d="M232,36L228,36L228,38L223,40L221,39L221,40L221,40L221,41L221,44L222,47L222,48L222,48L225,47L231,49L232,50L232,51L232,50L233,49L233,38L232,39L232,36L232,36L232,36Z " data-fips="EG05" data-fips-="" data-iso3="EGY" data-name="Al Gharbiyah" data-p="GH"/><path d="M257,36L256,36L255,36L255,36L253,37L253,37L253,37L252,48L250,50L245,51L245,54L246,57L247,60L256,59L263,59L264,59L268,59L267,56L265,52L265,49L264,40L257,36Z " data-fips="EG07" data-fips-="" data-iso3="EGY" data-name="Al Isma`iliyah" data-p="IS"/><path d="M232,50L231,49L225,47L222,48L222,48L222,49L223,53L223,54L223,57L223,57L223,57L226,60L228,60L230,61L230,61L230,61L228,56L233,51L232,51L232,50Z " data-fips="EG09" data-fips-="" data-iso3="EGY" data-name="Al Minufiyah" data-p="MNF"/><path d="M246,57L240,61L237,61L235,62L234,62L234,62L232,63L232,66L233,68L233,70L233,72L248,72L248,69L248,64L247,61L247,60L246,57Z " data-fips="EG11" data-fips-="" data-iso3="EGY" data-name="Al Qahirah" data-p="C"/><path d="M234,50L233,51L233,50L232,50L232,51L233,51L228,56L230,61L230,61L230,62L231,62L232,62L232,63L232,63L234,62L234,62L235,62L237,61L240,61L236,58L233,53L233,53L234,51L235,51L234,50Z " data-fips="EG12" data-fips-="" data-iso3="EGY" data-name="Al Qalyubiyah" data-p="KB"/><path d="M251,36L245,37L240,44L238,44L235,50L235,51L234,51L233,53L233,53L236,58L240,61L246,57L245,54L245,51L250,50L252,48L253,37L253,37L252,38L252,37L251,36L251,36Z M256,36L256,34L256,34L256,34L256,36L254,36L253,36L253,37L255,36L255,36L256,36Z " data-fips="EG14" data-fips-="" data-iso3="EGY" data-name="Ash Sharqiyah" data-p="SHR"/><path d="M264,59L263,59L256,59L247,60L247,61L248,64L248,69L248,72L248,73L247,94L248,94L251,94L254,93L265,89L265,87L264,83L258,77L258,74L261,70L265,71L265,71L270,68L270,68L269,67L269,67L269,61L268,59L264,59Z " data-fips="EG15" data-fips-="" data-iso3="EGY" data-name="As Suways" data-p="SUZ"/><path d="M255,31L254,31L254,31L255,31L255,31L255,31L255,31L255,31Z M252,29L252,29L251,29L251,29L253,30L252,29L252,29Z M235,25L233,26L233,35L233,36L232,36L232,36L232,39L233,38L233,49L232,50L233,50L233,51L234,50L235,51L235,50L238,44L240,44L245,37L251,36L251,35L250,33L248,34L245,32L245,32L241,35L242,32L238,29L240,27L239,27L239,27L236,26L235,25L235,25Z " data-fips="EG01" data-fips-="" data-iso3="EGY" data-name="Ad Daqahliyah" data-p="DK"/><path d="M263,37L259,33L258,33L256,31L255,31L255,31L255,31L256,32L256,32L256,33L256,34L256,34L256,34L256,36L257,36L264,40L263,37L263,37L263,37Z " data-fips="EG19" data-fips-="" data-iso3="EGY" data-name="Bur Sa`id" data-p="PTS"/><path d="M252,29L250,28L247,25L240,27L240,27L238,29L242,32L241,35L245,32L245,32L246,29L247,25L251,29L251,29L252,29L252,29L252,29Z " data-fips="EG20" data-fips-="" data-iso3="EGY" data-name="Dumyat" data-p="DT"/><path d="M83,125L84,125L139,127L150,106L153,103L172,98L177,95L193,80L211,69L196,59L195,57L194,39L194,39L193,39L185,43L181,43L168,37L168,36L157,36L155,35L154,32L146,32L142,28L140,28L132,26L129,24L120,23L111,20L108,20L98,22L93,21L85,26L85,31L88,42L85,50L80,57L82,65L82,69L83,71L83,76L85,84L83,125Z " data-fips="EG22" data-fips-="" data-iso3="EGY" data-name="Matruh" data-p="MT"/><path d="M212,27L211,30L208,32L207,32L206,31L204,35L201,37L201,40L204,47L201,51L196,53L195,57L196,59L211,69L212,67L223,57L223,57L223,54L223,53L222,49L222,48L222,47L221,44L221,41L221,40L221,40L221,39L220,37L215,33L215,30L213,27L212,27Z " data-fips="EG03" data-fips-="" data-iso3="EGY" data-name="Al Buhayrah" data-p="BH"/><path d="M227,75L226,73L221,74L210,80L199,90L209,92L221,91L223,90L228,83L229,82L227,75Z " data-fips="EG04" data-fips-="" data-iso3="EGY" data-name="Al Fayyum" data-p="FYM"/><path d="M206,31L204,31L200,35L194,39L194,39L194,39L195,57L196,53L201,51L204,47L201,40L201,37L204,35L206,31L206,31Z " data-fips="EG06" data-fips-="" data-iso3="EGY" data-name="Al Iskandariyah" data-p="ALX"/><path d="M230,61L228,60L226,60L223,57L223,57L212,67L211,69L193,80L177,95L172,98L153,103L150,106L139,127L171,128L172,124L175,121L186,116L190,113L193,109L197,99L198,97L199,90L210,80L221,74L226,73L227,75L229,82L230,82L232,83L232,83L233,85L233,85L234,87L235,88L237,90L238,91L247,94L248,73L248,72L233,72L233,70L233,68L232,66L232,63L232,63L232,62L231,62L230,62L230,61L230,61Z " data-fips="EG08" data-fips-="" data-iso3="EGY" data-name="Al Jizah" data-p="GZ"/><path d="M222,99L221,99L197,99L193,109L190,113L186,116L175,121L172,124L171,128L219,129L219,129L219,130L219,130L220,130L223,130L225,130L226,127L223,116L222,112L224,107L225,101L222,99Z " data-fips="EG10" data-fips-="" data-iso3="EGY" data-name="Al Minya" data-p="MN"/><path d="M233,85L232,83L232,83L230,82L229,82L228,83L223,90L221,91L209,92L199,90L198,97L197,99L221,99L222,99L225,101L225,100L226,97L232,88L232,86L233,85L233,85Z " data-fips="EG18" data-fips-="" data-iso3="EGY" data-name="Bani Suwayf" data-p="BNS"/><path d="M232,23L227,23L230,25L227,25L217,29L217,28L223,24L219,26L212,27L213,27L215,30L215,33L220,37L221,39L221,40L221,39L223,40L228,38L228,36L232,36L232,36L233,36L233,35L233,26L235,25L232,23Z " data-fips="EG21" data-fips-="" data-iso3="EGY" data-name="Kafr ash Shaykh" data-p="KFS"/><path d="M268,193L268,194L268,195L268,195L267,196L267,196L269,197L271,201L272,204L274,209L273,216L273,225L271,226L267,227L270,233L264,235L263,236L262,242L266,243L269,243L270,245L268,247L265,253L260,259L256,257L247,262L243,261L242,266L240,272L233,274L232,276L234,278L235,276L238,275L239,276L237,281L239,281L247,275L248,274L253,271L254,266L260,268L264,268L270,262L271,258L278,258L285,260L283,257L278,253L281,246L280,242L280,234L276,228L275,221L279,213L276,206L276,202L273,197L268,193Z " data-fips="EG16" data-fips-="" data-iso3="EGY" data-name="Aswan" data-p="ASN"/><path d="M223,130L220,130L219,130L219,130L219,131L221,137L231,145L234,151L236,150L238,148L239,149L240,151L241,151L239,146L235,142L233,139L228,137L225,132L225,130L223,130Z " data-fips="EG17" data-fips-="" data-iso3="EGY" data-name="Asyut" data-p="AST"/><path d="M250,170L239,157L237,155L234,151L231,145L221,137L219,131L219,130L219,129L219,129L171,128L139,127L84,125L83,125L83,130L82,147L76,277L233,281L233,281L234,278L232,276L233,274L240,272L242,266L243,261L247,262L256,257L260,259L265,253L268,247L270,245L269,243L266,243L262,242L263,236L264,235L270,233L267,227L271,226L273,225L273,216L274,209L272,204L271,201L269,197L267,196L265,195L263,192L262,185L262,183L269,174L267,170L253,173L250,170Z " data-fips="EG13" data-fips-="" data-iso3="EGY" data-name="Al Wadi at Jadid" data-p="WAD"/><path d="M267,192L266,189L267,185L272,180L273,174L273,172L269,167L264,167L259,169L258,169L257,170L254,167L253,168L250,169L250,170L253,173L267,170L269,174L262,183L262,185L263,192L265,195L267,196L267,196L268,195L268,195L268,194L268,193L267,192Z " data-fips="EG02" data-fips-="EG23" data-iso3="EGY" data-name="Qina" data-p="KN"/><path d="M240,151L239,149L238,148L236,150L234,151L237,155L239,157L250,170L250,169L253,168L254,167L257,170L258,169L256,166L255,165L245,154L241,151L240,151Z " data-fips="EG24" data-fips-="" data-iso3="EGY" data-name="Suhaj" data-p="SHG"/><path d="M238,91L237,90L235,88L234,87L233,85L232,86L232,88L226,97L225,100L225,101L224,107L222,112L223,116L226,127L225,130L225,132L228,137L233,139L235,142L239,146L241,151L245,154L255,165L256,166L258,169L259,169L264,167L269,167L273,172L273,174L272,180L267,185L266,189L267,192L268,193L273,197L276,202L276,206L279,213L275,221L276,228L280,234L280,242L281,246L278,253L283,257L285,260L278,258L271,258L270,262L264,268L260,268L254,266L253,271L248,274L247,275L239,281L265,281L280,281L374,277L369,273L363,269L360,266L358,263L356,261L350,260L347,258L342,252L342,250L339,243L338,238L338,235L337,226L345,227L344,226L337,222L328,211L326,206L318,190L315,184L307,172L299,157L297,155L297,150L298,149L294,143L294,139L288,131L286,129L287,127L285,124L288,125L286,120L282,118L277,112L274,106L271,104L269,98L265,94L266,90L265,89L254,93L251,94L248,94L247,94L238,91Z " data-fips="EG02" data-fips-="" data-iso3="EGY" data-name="Al Bahr al Ahmar" data-p="BA"/><path d="M270,68L265,71L265,71L267,77L267,80L268,81L270,84L275,91L279,99L279,103L280,104L287,111L291,117L300,124L304,124L305,122L308,119L307,110L311,102L312,95L314,83L317,78L318,78L308,77L297,73L291,70L276,68L270,68Z " data-fips="EG26" data-fips-="" data-iso3="EGY" data-name="Janub Sina'" data-p="JS"/><path d="M263,37L263,37L264,40L265,49L265,52L267,56L268,59L269,61L269,67L269,67L270,68L270,68L276,68L291,70L297,73L308,77L318,78L318,78L317,76L313,64L310,55L309,54L307,47L303,38L297,32L292,34L288,35L282,35L276,37L275,34L272,36L272,36L263,37L263,37Z " data-fips="EG32" data-fips-="EG27" data-iso3="EGY" data-name="Shamal Sina'" data-p="SIN"/></g></svg>