<?xml version="1.0" encoding="UTF-8"?><!DOCTYPE svg  PUBLIC '-//W3C//DTD SVG 1.1//EN'  'http://www.w3.org/Graphics/SVG/1.1/DTD/svg11.dtd'><svg enable_background="new 0 0 450 301" height="301px" style="stroke-linejoin: round; stroke:#000; fill:#f6f3f0;" version="1.1" viewBox="0 0 450 301" width="450px" xmlns="http://www.w3.org/2000/svg" xmlns:xlink="http://www.w3.org/1999/xlink"><defs><style type="text/css"><![CDATA[path { fill-rule: evenodd; }
#context path { fill: #eee; stroke: #bbb; } ]]></style></defs><metadata><views><view h="301.0" padding="0.06" w="450"><proj id="laea" lat0="15.2705927596" lon0="37.6600768095"/><bbox h="78.68" w="90.16" x="980.44" y="961.4"/><llbbox lat0="-90" lat1="90" lon0="-180" lon1="180"/></view></views></metadata><g id="context"><path d="M378,264L364,271L362,278L358,280L349,274L345,275L344,276L340,283L334,292L329,299L385,299L390,293L392,288L389,280L386,275L378,266L378,264Z " data-iso="DJI"/><path d="M240,126L240,121L236,118L232,117L234,120L231,124L234,124L235,128L231,126L233,130L238,131L243,131L247,132L252,131L252,129L245,126L242,129L240,126Z M237,108L233,110L238,113L237,108Z M76,194L77,194L83,192L89,191L99,193L104,187L106,185L110,185L114,189L121,199L124,199L138,166L144,172L154,176L161,184L163,186L166,186L180,184L192,177L198,184L201,184L213,181L223,182L230,185L241,184L244,185L258,195L269,199L272,200L277,206L286,217L297,228L309,237L315,243L324,257L333,262L340,271L344,276L345,275L349,274L358,280L362,278L364,271L378,264L376,258L372,255L371,259L363,257L360,250L350,240L344,241L342,232L337,223L310,205L302,193L288,176L270,170L263,164L259,162L254,160L248,160L243,158L238,152L236,143L228,137L225,139L224,144L224,153L221,149L217,138L215,134L211,134L208,122L202,116L198,103L195,78L190,61L184,45L170,18L167,21L162,27L155,38L148,41L144,40L131,46L121,52L119,60L117,63L98,65L97,75L93,83L94,99L90,113L86,122L84,125L79,142L77,148L72,153L75,181L76,194Z " data-iso="ERI"/><path d="M344,276L340,271L333,262L324,257L315,243L309,237L297,228L286,217L277,206L272,200L269,199L258,195L244,185L241,184L230,185L223,182L213,181L201,184L198,184L192,177L180,184L166,186L163,186L161,184L154,176L144,172L138,166L124,199L121,199L114,189L110,185L106,185L104,187L99,193L89,191L83,192L77,194L76,194L73,207L73,214L70,224L62,240L59,249L57,266L51,267L37,270L34,274L27,285L19,299L98,299L99,292L100,290L101,289L102,288L104,287L105,288L107,289L110,290L113,287L115,287L117,286L119,286L121,287L122,288L123,290L124,292L125,295L124,299L329,299L334,292L340,283L344,276Z " data-iso="ETH"/><path d="M322,77L321,75L320,67L319,64L316,64L318,66L313,71L314,74L318,78L321,80L326,79L331,82L331,77L326,73L326,77L322,77Z M359,92L367,86L373,78L375,77L374,70L373,65L374,53L378,50L376,45L385,38L391,39L399,45L403,45L416,44L419,42L427,41L436,42L445,40L450,40L450,0L297,0L299,5L306,17L311,22L324,32L335,43L337,51L340,57L344,61L347,65L348,69L352,72L354,75L356,83L359,89L359,92Z " data-iso="SAU"/><path d="M76,194L75,181L72,153L77,148L79,142L84,125L86,122L90,113L94,99L93,83L97,75L98,65L117,63L119,60L121,52L131,46L144,40L148,41L155,38L162,27L167,21L170,18L169,15L158,8L156,5L152,7L147,0L0,0L0,299L19,299L27,285L34,274L37,270L51,267L57,266L59,249L62,240L70,224L73,214L73,207L76,194Z " data-iso="SDN"/><path d="M360,217L359,215L357,219L360,217Z M361,205L360,200L357,203L361,205Z M351,143L351,137L350,138L351,143Z M361,108L356,126L360,139L360,144L356,141L354,146L363,150L365,156L368,167L371,177L371,181L375,194L375,203L382,210L384,217L384,220L382,237L394,257L395,264L401,262L411,265L415,267L418,268L423,266L430,265L434,264L446,257L450,258L450,40L445,40L436,42L427,41L419,42L416,44L403,45L399,45L391,39L385,38L376,45L378,50L374,53L373,65L374,70L375,77L373,78L367,86L359,92L361,108Z " data-iso="YEM"/></g><g fill="red" fill-opacity="0.35" id="regions"><path d="M95,93L96,101L93,104L87,120L83,125L81,134L77,148L72,152L72,154L74,169L77,194L78,193L83,191L91,191L99,194L101,193L102,188L106,185L110,185L119,194L120,197L121,197L124,201L139,166L144,172L149,174L152,174L154,175L155,176L155,173L153,169L153,166L155,163L159,160L165,154L169,154L176,152L179,152L179,133L174,134L164,132L160,127L157,125L149,127L141,123L132,120L123,120L122,118L112,109L107,106L103,105L99,100L96,92L95,92L95,93Z " data-fips="ER04" data-fips-="" data-iso3="ERI" data-name="Gash Barka"/><path d="M202,150L198,148L193,143L187,134L187,132L184,133L180,133L179,133L179,133L179,152L202,152L202,152L203,152L203,151L203,151L202,150Z " data-fips="ER05" data-fips-="ER01" data-iso3="ERI" data-name="Anseba"/><path d="M235,117L235,120L230,123L234,124L237,128L232,129L236,131L243,131L248,132L252,131L252,129L244,127L244,129L241,128L239,121L238,122L238,119L235,117Z M239,113L237,110L239,109L236,107L236,109L234,112L239,113Z M144,40L144,46L144,65L146,76L145,81L147,83L157,85L166,100L167,104L166,108L167,115L170,116L174,118L180,118L185,126L187,132L187,134L193,143L198,148L202,150L203,151L205,153L206,155L219,178L222,182L222,182L224,182L231,186L233,184L239,184L243,185L247,187L250,190L254,183L256,178L260,172L261,167L260,161L260,161L259,159L257,160L255,158L252,158L246,161L241,160L238,155L239,153L235,148L238,144L229,136L225,137L224,145L226,146L227,150L226,155L222,155L221,149L221,147L219,143L216,136L214,134L210,135L208,131L210,129L208,123L208,122L203,117L199,104L197,98L196,88L195,87L196,83L195,79L191,68L191,64L186,54L186,52L185,47L182,41L179,34L174,28L173,23L170,18L164,24L162,26L160,33L154,41L150,39L149,40L147,43L146,40L144,40L144,40Z " data-fips="ER06" data-fips-="ER02" data-iso3="ERI" data-name="Debub"/><path d="M141,42L139,44L136,45L135,43L133,44L131,48L121,51L121,54L119,61L117,64L111,63L109,64L98,62L97,69L98,73L97,79L94,83L93,88L95,92L95,92L96,92L99,100L103,105L107,106L112,109L122,118L123,120L132,120L141,123L149,127L157,125L160,127L164,132L174,134L179,133L179,133L180,133L184,133L187,132L185,126L180,118L174,118L170,116L167,115L166,108L167,104L166,100L157,85L147,83L145,81L146,76L144,65L144,46L144,40L141,42Z " data-fips="ER01" data-fips-="ER06" data-iso3="ERI" data-name="Semenawi Keyih Bahri"/><path d="M203,151L203,152L202,152L202,152L179,152L176,152L169,154L165,154L159,160L155,163L153,166L153,169L155,173L155,176L155,176L159,183L161,184L163,187L171,186L174,184L178,184L187,180L189,179L194,177L195,178L199,185L202,183L211,181L213,179L216,182L220,183L222,182L219,178L206,155L205,153L203,151L203,151Z " data-fips="ER02" data-fips-="ER05" data-iso3="ERI" data-name="Maekel"/><path d="M260,161L261,167L260,172L256,178L254,183L250,190L254,193L262,197L266,197L270,198L272,200L282,211L289,223L290,224L305,233L313,240L318,246L322,254L324,257L335,264L338,269L344,276L346,273L351,274L358,281L363,277L363,273L368,268L378,264L373,256L372,255L371,259L369,260L365,257L363,258L360,249L358,248L350,240L349,242L345,241L343,240L343,238L339,225L336,225L331,221L327,216L325,215L324,211L318,209L317,208L310,205L308,202L305,199L303,195L300,192L294,182L289,178L287,175L281,174L278,174L274,172L269,173L267,169L267,166L263,164L260,161L260,161Z " data-fips="DJ04" data-fips-="ER03" data-iso3="ERI" data-name="Debubawi Keyih Bahri"/></g></svg>