<?xml version="1.0" encoding="UTF-8"?><!DOCTYPE svg  PUBLIC '-//W3C//DTD SVG 1.1//EN'  'http://www.w3.org/Graphics/SVG/1.1/DTD/svg11.dtd'><svg enable_background="new 0 0 450 301" height="301px" style="stroke-linejoin: round; stroke:#000; fill:#f6f3f0;" version="1.1" viewBox="0 0 450 301" width="450px" xmlns="http://www.w3.org/2000/svg" xmlns:xlink="http://www.w3.org/1999/xlink"><defs><style type="text/css"><![CDATA[path { fill-rule: evenodd; }
#context path { fill: #eee; stroke: #bbb; } ]]></style></defs><metadata><views><view h="301.0" padding="0.06" w="450"><proj id="laea" lat0="37.3709621241" lon0="-4.55878532293"/><bbox h="120.9" w="142.26" x="949.59" y="912.53"/><llbbox lat0="-90" lat1="90" lon0="-180" lon1="180"/></view></views></metadata><g id="context"><path d="M315,54L315,52L311,51L309,52L308,53L308,54L312,57L314,55L315,55L315,54Z " data-iso="AND"/><path d="M232,285L233,287L243,295L242,299L450,299L450,213L444,212L442,209L438,211L437,214L432,217L424,220L418,225L414,226L412,225L401,220L377,222L371,225L358,227L349,233L343,233L334,235L316,238L309,241L305,244L299,247L290,253L288,258L285,261L282,261L276,260L264,267L254,276L250,278L246,282L240,285L237,285L232,285Z " data-iso="DZA"/><path d="M320,172L316,169L316,172L320,172Z M316,165L320,161L319,158L314,160L311,165L315,166L316,165Z M354,135L355,130L354,129L346,134L337,142L340,146L344,143L350,148L354,150L358,147L361,135L357,136L354,135Z M381,131L379,125L375,124L370,125L371,128L381,131Z M78,75L80,73L90,69L91,69L90,77L98,78L103,77L109,79L112,78L115,75L118,76L127,76L128,77L129,85L134,86L134,91L125,98L123,102L119,105L121,109L120,122L121,125L116,131L119,137L117,142L114,145L106,145L106,149L108,151L109,155L112,162L115,163L115,169L109,174L107,182L113,191L116,193L115,195L111,196L104,204L103,209L105,221L110,220L115,221L127,229L129,232L129,238L132,240L137,252L139,252L143,255L147,257L151,256L152,253L154,254L155,251L159,245L165,243L171,243L178,236L192,235L201,236L214,235L217,236L222,233L229,232L232,235L234,234L238,228L241,220L245,215L252,209L261,209L266,206L264,204L267,195L268,191L270,189L270,185L274,182L281,177L287,171L286,169L281,167L277,162L273,152L273,148L279,137L288,123L293,114L299,111L297,108L296,108L302,100L314,95L326,91L331,85L346,75L351,69L350,65L348,63L348,60L351,57L349,56L349,55L341,54L334,58L318,56L315,55L314,55L312,57L308,54L308,53L306,50L293,46L290,47L290,50L281,50L275,52L269,48L263,49L259,46L247,41L246,40L243,42L244,36L235,31L234,31L231,33L223,34L217,32L211,30L207,33L199,31L189,29L179,32L175,32L162,29L157,28L149,27L145,25L140,26L131,26L122,26L118,27L114,26L104,20L101,22L98,22L91,26L92,30L85,32L78,32L71,37L69,43L73,48L76,48L73,52L74,55L78,53L78,59L79,62L78,66L76,70L76,75L78,75Z " data-iso="ESP"/><path d="M235,31L244,36L243,42L246,40L247,41L259,46L263,49L269,48L275,52L281,50L290,50L290,47L293,46L306,50L308,53L309,52L311,51L315,52L315,54L315,55L318,56L334,58L341,54L349,55L348,54L346,50L344,40L348,31L358,22L361,19L364,18L367,20L379,23L387,20L387,22L393,22L395,26L401,26L404,28L411,28L421,23L426,15L434,6L436,5L437,4L438,4L438,4L439,4L438,2L438,1L438,0L246,0L244,12L242,26L239,30L235,31Z " data-iso="FRA"/><path d="M444,2L447,0L438,0L438,1L438,2L439,4L444,2Z " data-iso="ITA"/><path d="M227,284L219,284L211,279L207,281L203,282L198,282L195,280L193,281L188,281L179,284L172,282L167,280L160,274L157,270L154,266L155,262L156,261L153,260L150,262L140,264L139,268L129,295L127,299L242,299L243,295L233,287L232,285L227,284Z " data-iso="MAR"/><path d="M438,4L438,4L437,4L436,5L438,4Z " data-iso="MCO"/><path d="M76,78L78,82L77,83L78,95L79,99L78,111L76,115L73,126L74,130L66,147L60,153L57,172L62,173L65,172L68,167L69,170L62,174L63,178L65,181L70,179L74,180L76,182L70,181L72,186L72,189L70,196L72,203L71,212L66,224L76,222L87,224L91,226L94,226L102,221L105,221L103,209L104,204L111,196L115,195L116,193L113,191L107,182L109,174L115,169L115,163L112,162L109,155L108,151L106,149L106,145L114,145L117,142L119,137L116,131L121,125L120,122L121,109L119,105L123,102L125,98L134,91L134,86L129,85L128,77L127,76L118,76L115,75L112,78L109,79L103,77L98,78L90,77L91,69L90,69L80,73L78,75L76,78Z " data-iso="PRT"/></g><g fill="red" fill-opacity="0.35" id="regions"><path d="M227,196L223,193L224,191L223,184L221,184L221,181L217,180L214,183L209,182L202,182L201,184L196,185L194,184L190,185L182,185L180,186L177,186L170,179L167,179L166,177L164,176L162,175L162,175L154,180L153,181L150,184L151,190L150,192L146,191L141,193L140,197L136,197L135,199L128,195L127,196L125,194L120,193L116,190L116,190L114,196L112,195L109,198L107,202L105,204L102,211L103,211L104,221L113,220L116,222L115,220L118,218L116,220L126,228L130,233L130,239L131,239L131,241L137,252L140,253L142,254L148,257L152,253L154,254L158,246L166,242L169,243L175,239L177,236L182,236L191,235L197,235L201,236L206,235L213,235L216,236L221,235L222,232L228,232L232,235L238,229L238,229L244,215L244,215L242,213L240,213L235,207L236,200L231,200L228,196L227,196L227,196Z " data-fips="SP80" data-fips-="SP51" data-iso3="ESP" data-name="Andaluca" data-p="AN"/><path d="M231,101L223,103L213,97L211,95L200,98L197,101L197,101L197,101L200,103L200,106L198,112L202,117L203,119L208,128L208,134L206,133L198,135L192,139L190,138L196,134L194,132L192,132L185,128L180,129L179,128L174,130L173,130L173,130L170,128L160,133L158,133L156,132L155,133L155,139L156,142L159,142L159,148L166,155L170,153L170,156L171,161L168,161L166,166L167,169L165,171L163,175L162,175L164,176L166,177L167,179L170,179L177,186L180,186L182,185L190,185L194,184L196,185L201,184L202,182L209,182L214,183L217,180L221,181L221,184L223,184L224,191L223,193L227,196L227,196L227,195L235,188L241,185L243,186L247,184L248,176L250,174L254,173L257,175L258,176L258,175L261,175L260,173L259,167L255,167L252,163L248,154L247,154L246,148L252,140L252,137L253,136L254,135L253,134L253,134L251,135L248,134L246,131L246,130L246,130L240,126L238,123L243,117L243,110L240,105L233,100L231,100L231,101Z " data-fips="SP84" data-fips-="SP54" data-iso3="ESP" data-name="Castilla-La Mancha" data-p="CM"/><path d="M204,33L202,32L198,31L195,28L192,29L191,31L189,29L182,32L175,32L175,32L173,36L171,36L168,39L168,39L168,40L170,44L176,43L181,46L184,52L190,50L189,46L187,47L190,42L194,39L198,40L199,40L199,40L199,37L201,36L205,33L204,33Z " data-fips="SP85" data-fips-="SP39" data-iso3="ESP" data-name="Cantabria" data-p="CB"/><path d="M217,51L213,50L219,55L217,51Z M168,39L167,38L166,37L163,39L161,41L153,43L148,43L145,45L142,43L140,42L136,44L133,43L131,45L130,46L124,47L124,47L123,47L123,47L122,50L119,52L117,59L121,59L123,60L125,65L123,68L122,68L118,72L119,73L119,75L119,76L123,75L124,76L128,77L128,82L133,85L136,88L128,97L126,97L121,103L119,104L121,110L121,114L121,118L120,127L120,127L127,127L128,125L136,121L138,123L138,125L143,126L145,125L151,130L155,128L155,132L156,132L158,133L160,133L170,128L173,130L173,130L174,129L174,127L179,124L180,117L182,117L185,112L187,112L189,107L196,101L197,101L197,101L200,98L211,95L213,97L223,103L231,101L231,100L231,100L229,99L230,91L232,93L233,90L232,87L234,86L237,83L236,81L235,77L235,76L234,76L233,77L229,76L227,71L222,70L219,74L217,75L215,71L209,72L207,68L207,58L211,56L212,55L212,55L207,51L204,49L203,47L204,46L208,45L208,43L205,44L205,40L202,38L200,40L199,40L198,40L194,39L190,42L187,47L189,46L190,50L184,52L181,46L176,43L170,44L168,40L168,39Z " data-fips="SP85" data-fips-="SP55|SP39" data-iso3="ESP" data-name="Castilla y Len" data-p="CL"/><path d="M174,130L179,128L180,129L185,128L192,132L194,132L196,134L190,138L192,139L198,135L206,133L208,134L208,128L203,119L202,117L198,112L200,106L200,103L197,101L197,101L196,101L189,107L187,112L185,112L182,117L180,117L179,124L174,127L174,129L173,130L174,130Z " data-fips="SP87" data-fips-="SP29" data-iso3="ESP" data-name="Comunidad de Madrid" data-p="MD"/><path d="M291,50L293,53L293,64L292,72L291,73L291,76L285,82L288,86L286,95L284,98L283,111L283,111L284,111L287,114L288,115L292,117L292,115L293,114L299,111L298,109L296,108L303,99L314,95L326,92L327,91L330,86L338,81L348,74L351,69L350,65L348,61L351,60L352,57L349,57L349,54L342,54L333,59L327,56L322,59L314,55L311,57L309,57L306,49L302,50L297,47L297,47L291,46L291,50L291,50Z " data-fips="SP86" data-fips-="SP56" data-iso3="ESP" data-name="Catalua" data-p="CT"/><path d="M227,196L228,196L231,200L236,200L235,207L240,213L242,213L244,215L245,214L248,213L252,209L257,210L258,208L264,208L267,207L264,205L263,203L265,201L265,200L262,198L258,193L260,187L257,183L259,177L258,176L257,175L254,173L250,174L248,176L247,184L243,186L241,185L235,188L227,195L227,196Z " data-fips="SP96" data-fips-="SP31" data-iso3="ESP" data-name="Regin de Murcia" data-p="MC"/><path d="M154,263L156,261L153,260L154,263Z " data-fips="SP00" data-fips-="SP|" data-iso3="ESP" data-name="Ceuta" data-p="CE"/><path d="M170,31L157,28L149,27L146,24L144,26L138,26L137,26L131,26L128,26L120,26L119,29L119,29L118,36L123,40L121,41L120,44L123,45L123,47L124,47L124,47L130,46L131,45L133,43L136,44L140,42L142,43L145,45L148,43L153,43L161,41L163,39L166,37L167,38L168,39L168,39L171,36L173,36L175,32L170,31Z " data-fips="SP95" data-fips-="SP34" data-iso3="ESP" data-name="Principado de Asturias" data-p="AS"/><path d="M119,75L119,73L118,72L122,68L123,68L125,65L123,60L121,59L117,59L119,52L122,50L123,47L123,47L123,45L120,44L121,41L123,40L118,36L119,29L119,29L118,26L114,26L112,23L109,21L104,20L100,22L100,19L96,21L96,23L92,25L90,28L93,28L93,33L88,31L78,32L75,35L70,37L69,40L69,45L70,43L72,49L77,48L75,50L72,54L74,56L78,52L79,53L78,56L78,58L76,59L78,61L81,60L76,65L82,63L77,68L76,76L82,71L88,70L91,69L91,72L93,71L91,76L91,79L93,79L98,76L98,78L102,77L106,78L108,79L113,78L115,75L118,75L119,75Z " data-fips="SP91" data-fips-="SP58" data-iso3="ESP" data-name="Galicia" data-p="GA"/><path d="M120,127L116,128L116,130L119,135L116,145L112,145L103,145L104,147L107,151L109,151L110,157L110,159L116,164L115,168L109,174L108,183L110,187L112,190L116,190L116,190L120,193L125,194L127,196L128,195L135,199L136,197L140,197L141,193L146,191L150,192L151,190L150,184L153,181L154,180L162,175L162,175L163,175L165,171L167,169L166,166L168,161L171,161L170,156L170,153L166,155L159,148L159,142L156,142L155,139L155,133L156,132L155,132L155,128L151,130L145,125L143,126L138,125L138,123L136,121L128,125L127,127L120,127L120,127Z " data-fips="SP90" data-fips-="SP57" data-iso3="ESP" data-name="Extremadura" data-p="EX"/><path d="M222,59L220,59L218,59L216,56L213,57L212,55L212,55L211,56L207,58L207,68L209,72L215,71L217,75L219,74L222,70L227,71L229,76L233,77L234,76L235,76L235,75L235,75L235,74L234,73L237,70L239,70L235,65L229,61L227,61L225,59L223,59L222,59L222,59Z " data-fips="SP85" data-fips-="SP27" data-iso3="ESP" data-name="La Rioja" data-p="LO"/><path d="M205,33L201,36L199,37L199,40L199,40L200,40L202,38L205,40L205,44L208,43L208,45L204,46L203,47L204,49L207,51L212,55L212,55L212,55L213,57L216,56L218,59L220,59L222,59L222,59L222,59L222,56L223,55L226,49L226,45L228,45L231,42L232,40L236,35L236,34L235,31L228,35L223,34L214,30L212,30L205,33L205,33Z " data-fips="SP94" data-fips-="SP59" data-iso3="ESP" data-name="Pas Vasco" data-p="PV"/><path d="M319,158L313,163L311,163L312,166L315,167L319,158Z M355,129L348,133L336,142L336,143L339,144L340,146L343,143L345,144L346,147L348,148L352,149L354,151L358,146L358,144L361,135L360,135L356,136L354,135L355,129Z M376,124L370,125L371,129L374,129L378,131L381,131L380,126L376,124Z " data-fips="SP07" data-fips-="" data-iso3="ESP" data-name="Islas Baleares" data-p="IB"/><path d="M259,45L257,47L257,50L253,54L250,54L247,58L248,59L245,65L245,70L247,72L245,77L235,74L235,74L235,75L235,75L235,76L235,77L236,81L237,83L234,86L232,87L233,90L232,93L230,91L229,99L231,100L231,100L233,100L240,105L243,110L243,117L238,123L240,126L246,130L246,130L248,131L254,132L254,134L253,134L254,135L254,136L255,135L260,139L263,133L266,131L267,127L268,127L273,122L272,120L273,119L272,115L275,110L283,111L283,111L283,111L284,98L286,95L288,86L285,82L291,76L291,73L292,72L293,64L293,53L291,50L291,51L285,51L284,50L282,52L279,51L274,51L272,48L264,48L264,49L259,46L259,45Z M251,60L252,60L251,60L251,60Z " data-fips="SP81" data-fips-="SP52" data-iso3="ESP" data-name="Aragn" data-p="AR"/><path d="M236,35L232,40L231,42L228,45L226,45L226,49L223,55L222,56L222,59L222,59L223,59L225,59L227,61L229,61L235,65L239,70L237,70L234,73L235,74L235,74L245,77L247,72L245,70L245,65L248,59L247,58L250,54L253,54L257,50L257,47L259,45L259,44L254,44L245,40L245,42L242,41L243,35L236,35L236,35Z " data-fips="SP88" data-fips-="SP32" data-iso3="ESP" data-name="Comunidad Foral de Navarra" data-p="NC"/><path d="M246,130L246,131L248,134L251,135L253,134L253,134L254,134L254,132L248,131L246,130Z M254,135L253,136L252,137L252,140L246,148L247,154L248,154L252,163L255,167L259,167L260,173L261,175L258,175L258,176L259,177L257,183L260,187L258,193L262,198L265,200L265,200L270,189L270,186L279,178L281,176L285,173L287,171L280,167L277,161L274,152L273,148L278,138L282,132L283,131L288,124L291,118L292,117L288,115L287,114L284,111L283,111L283,111L275,110L272,115L273,119L272,120L273,122L268,127L267,127L266,131L263,133L260,139L255,135L254,136L254,135Z " data-fips="SP89" data-fips-="SP60|SP52" data-iso3="ESP" data-name="Comunidad Valenciana" data-p="VC"/></g></svg>