<?xml version="1.0" encoding="UTF-8"?><!DOCTYPE svg  PUBLIC '-//W3C//DTD SVG 1.1//EN'  'http://www.w3.org/Graphics/SVG/1.1/DTD/svg11.dtd'><svg enable_background="new 0 0 450 301" height="301px" style="stroke-linejoin: round; stroke:#000; fill:#f6f3f0;" version="1.1" viewBox="0 0 450 301" width="450px" xmlns="http://www.w3.org/2000/svg" xmlns:xlink="http://www.w3.org/1999/xlink"><defs><style type="text/css"><![CDATA[path { fill-rule: evenodd; }
#context path { fill: #eee; stroke: #bbb; } ]]></style></defs><metadata><views><view h="301.0" padding="0.06" w="450"><proj id="laea" lat0="59.3278260361" lon0="25.0019264985"/><bbox h="31.36" w="45.34" x="977.1" y="993.31"/><llbbox lat0="-90" lat1="90" lon0="-180" lon1="180"/></view></views></metadata><g id="context"><path d="M81,144L77,143L72,146L63,148L59,157L55,155L53,156L48,160L43,156L38,155L34,157L41,170L40,175L37,178L33,180L34,185L43,191L47,196L53,198L50,203L39,216L39,220L40,224L45,224L49,220L55,210L58,198L64,191L72,189L87,190L88,187L96,181L102,175L106,174L112,167L124,166L122,162L102,147L94,145L85,147L81,144Z M125,154L126,151L125,142L115,139L111,141L108,146L120,155L125,154Z M101,121L106,120L105,110L100,101L89,98L88,91L85,90L81,90L76,96L73,102L48,105L55,111L63,111L70,115L73,128L73,133L77,136L84,134L91,121L93,124L95,126L101,121Z M185,235L187,236L193,231L213,222L217,221L222,219L234,213L241,220L243,220L245,214L248,215L263,227L268,229L272,230L277,235L289,239L292,245L304,259L309,266L319,273L324,274L342,267L347,264L351,264L355,268L365,272L374,273L376,273L376,270L377,263L378,256L384,249L386,241L399,235L400,230L394,224L392,215L387,201L382,191L381,185L383,172L383,166L375,131L375,125L377,118L380,113L386,106L394,93L399,76L401,66L404,63L408,63L411,58L415,56L416,54L415,50L407,41L406,43L400,50L367,47L345,48L338,45L324,36L314,36L274,27L264,28L257,27L258,36L254,41L220,41L202,49L190,47L178,58L170,58L172,68L154,69L145,73L136,78L138,89L135,93L134,97L137,101L135,106L132,111L136,123L136,126L138,127L147,127L145,130L137,135L136,141L139,151L147,160L147,168L151,177L166,183L172,188L180,186L183,181L186,175L190,174L198,178L199,184L198,187L195,189L194,207L185,230L185,235Z " data-iso="EST"/><path d="M109,0L107,3L110,5L120,1L121,0L109,0Z " data-iso="FIN"/><path d="M376,273L374,273L365,272L355,268L351,264L347,264L342,267L324,274L319,273L309,266L304,259L292,245L289,239L277,235L272,230L268,229L263,227L248,215L245,214L243,220L241,220L234,213L222,219L217,221L213,222L193,231L187,236L185,235L183,245L187,262L189,299L407,299L405,297L397,291L388,284L386,275L383,273L376,273Z M109,299L103,290L79,265L77,258L73,250L53,256L34,263L21,265L2,294L1,299L109,299Z " data-iso="LVA"/><path d="M407,41L415,50L416,54L415,56L411,58L408,63L404,63L401,66L399,76L394,93L386,106L380,113L377,118L375,125L375,131L383,166L383,172L381,185L382,191L387,201L392,215L394,224L400,230L399,235L386,241L384,249L378,256L377,263L376,270L376,273L383,273L386,275L388,284L397,291L405,297L407,299L450,299L450,1L432,0L431,1L430,11L425,16L418,12L412,5L408,6L406,13L408,22L410,33L407,41Z " data-iso="RUS"/></g><g fill="red" fill-opacity="0.35" id="regions"><path d="M200,38L200,37L197,32L197,36L198,38L200,38Z M150,74L159,84L161,86L168,86L171,87L174,89L175,96L173,99L172,103L173,104L175,102L177,99L184,100L189,92L196,91L201,91L201,83L207,77L214,78L219,76L221,76L221,81L226,86L230,88L231,89L234,91L237,92L244,102L247,103L251,100L251,94L255,94L257,91L255,87L258,77L257,71L267,70L275,68L278,68L283,69L284,68L284,67L281,57L281,54L277,44L276,40L277,37L277,34L276,34L274,32L274,27L270,24L268,23L267,25L268,26L268,28L270,33L269,35L264,34L262,31L259,28L257,24L256,30L257,35L259,40L253,40L251,42L239,41L236,39L234,40L234,43L228,41L223,43L222,42L218,37L215,35L214,36L214,41L216,43L214,49L212,50L210,46L208,44L206,47L205,47L207,50L206,51L200,48L197,50L191,46L187,47L186,53L183,54L178,54L177,55L180,60L177,60L172,55L171,55L168,59L173,65L173,67L172,70L169,67L158,68L152,68L150,70L151,73L151,74L150,74Z " data-fips="EN01" data-fips-="" data-iso3="EST" data-name="Harju"/><path d="M333,42L333,44L334,48L332,53L332,56L330,58L330,60L334,60L334,62L332,67L332,70L334,72L338,71L340,76L344,78L343,81L340,84L336,87L336,96L337,98L333,104L330,106L332,108L334,115L338,114L341,114L346,116L376,121L378,114L391,100L392,97L398,80L400,71L401,68L405,62L412,62L412,60L409,58L414,57L416,55L413,46L409,44L405,46L404,48L399,51L390,49L380,49L371,47L354,48L343,48L336,45L333,42Z " data-fips="EN03" data-fips-="" data-iso3="EST" data-name="Ida-Viru"/><path d="M278,68L275,68L267,70L257,71L258,77L255,87L257,91L255,94L251,94L251,100L247,103L244,105L245,107L245,112L243,113L242,116L244,119L242,125L240,126L241,131L239,135L241,135L245,137L244,141L243,145L246,147L248,148L254,148L258,145L260,146L261,144L267,141L272,140L275,139L275,137L281,129L284,130L285,129L287,123L295,121L296,116L297,115L297,114L298,109L296,104L292,100L290,97L286,95L284,95L284,90L288,84L289,81L286,80L282,72L283,70L283,69L278,68Z " data-fips="EN04" data-fips-="" data-iso3="EST" data-name="Jrva"/><path d="M330,106L329,106L323,109L318,109L316,111L315,114L313,115L310,114L308,111L302,114L297,115L296,116L295,121L287,123L285,129L284,130L281,129L275,137L275,139L275,139L275,145L273,148L283,149L286,153L289,154L293,159L297,162L299,162L303,161L310,156L312,158L315,156L320,155L324,157L326,157L329,153L333,154L338,152L340,149L341,144L343,144L346,146L351,147L350,142L358,137L375,134L374,128L376,121L346,116L341,114L338,114L334,115L332,108L330,106Z " data-fips="EN05" data-fips-="" data-iso3="EST" data-name="Jgeva"/><path d="M331,39L326,36L321,36L319,37L314,37L311,35L307,34L303,32L291,31L289,28L285,28L285,32L283,32L280,28L277,34L277,34L277,37L276,40L277,44L281,54L281,57L284,67L284,68L283,69L283,70L282,72L286,80L289,81L288,84L284,90L284,95L286,95L290,97L292,100L296,104L298,109L297,114L297,115L302,114L308,111L310,114L313,115L315,114L316,111L318,109L323,109L329,106L330,106L333,104L337,98L336,96L336,87L340,84L343,81L344,78L340,76L338,71L334,72L332,70L332,67L334,62L334,60L330,60L330,58L332,56L332,53L334,48L333,44L333,42L331,39Z " data-fips="EN08" data-fips-="" data-iso3="EST" data-name="Lne-Viru"/><path d="M297,162L299,170L299,171L295,177L291,184L292,193L294,204L304,205L308,203L312,199L315,201L321,199L325,202L326,204L328,203L330,199L332,197L336,198L339,196L343,190L348,189L366,188L368,192L372,192L381,195L383,194L382,191L381,185L381,179L385,170L375,134L358,137L350,142L351,147L346,146L343,144L341,144L340,149L338,152L333,154L329,153L326,157L324,157L320,155L315,156L312,158L310,156L303,161L299,162L297,162Z " data-fips="EN18" data-fips-="EN05" data-iso3="EST" data-name="Tartu"/><path d="M82,89L79,95L75,98L75,102L73,103L55,104L51,104L48,104L48,106L49,107L57,112L63,111L68,113L71,117L74,129L74,130L72,133L74,135L78,136L81,136L84,135L85,132L88,126L89,123L93,120L95,121L92,125L92,126L96,126L98,125L98,120L103,118L106,121L108,119L106,113L103,109L102,102L96,99L90,99L87,95L89,92L82,89Z " data-fips="EN02" data-fips-="" data-iso3="EST" data-name="Hiiu"/><path d="M119,96L116,95L113,97L115,104L116,105L119,103L129,104L129,103L128,98L127,96L123,97L119,96Z M150,74L147,71L142,75L135,76L136,81L138,87L138,93L137,91L132,95L132,98L131,98L134,102L138,103L143,100L140,95L144,100L144,102L143,105L141,107L138,106L137,108L133,108L131,110L131,112L134,117L137,123L134,125L131,129L136,127L138,128L142,126L151,127L153,125L157,127L154,127L153,130L154,133L152,133L148,131L141,132L138,131L135,137L135,140L136,148L135,152L136,154L139,150L140,155L140,155L144,154L150,155L155,154L160,154L158,150L163,143L164,140L171,139L174,137L175,134L175,132L172,132L171,130L173,129L176,126L175,123L177,122L174,112L172,108L172,106L173,104L172,103L173,99L175,96L174,89L171,87L168,86L161,86L159,84L150,74L150,74Z " data-fips="EN07" data-fips-="" data-iso3="EST" data-name="Lne"/><path d="M165,207L166,204L166,201L161,203L161,206L163,208L165,207Z M174,137L171,139L164,140L163,143L158,150L160,154L155,154L150,155L144,154L140,155L141,156L145,156L146,160L146,168L148,172L153,178L158,180L160,180L164,182L169,187L170,190L173,191L174,188L176,187L178,188L181,186L183,182L184,176L188,173L193,174L198,179L200,183L199,186L194,190L193,198L194,202L194,211L190,217L188,222L185,229L184,234L186,236L188,236L195,229L204,226L207,226L210,221L216,223L219,220L224,219L226,218L229,214L228,209L231,205L234,205L233,201L236,197L240,195L242,196L242,192L242,188L228,181L227,183L224,180L225,177L226,170L228,169L227,162L229,159L233,157L236,155L238,152L241,151L241,146L243,145L244,141L245,137L241,135L239,135L237,135L231,134L223,140L222,141L221,133L218,132L208,132L206,135L198,133L196,134L191,140L188,141L176,139L174,137Z " data-fips="EN11" data-fips-="" data-iso3="EST" data-name="Prnu"/><path d="M326,204L325,206L324,210L324,214L323,218L323,224L326,225L332,225L337,227L348,225L355,228L355,224L363,226L371,229L371,230L368,235L371,237L377,236L380,236L387,239L396,237L400,235L402,233L401,229L394,226L393,225L394,220L393,218L391,216L391,206L387,202L385,197L383,194L381,195L372,192L368,192L366,188L348,189L343,190L339,196L336,198L332,197L330,199L328,203L326,204Z " data-fips="EN12" data-fips-="" data-iso3="EST" data-name="Plva"/><path d="M244,102L237,92L234,91L231,89L230,88L226,86L221,81L221,76L219,76L214,78L207,77L201,83L201,91L196,91L189,92L184,100L177,99L175,102L173,104L172,106L172,108L174,112L177,122L175,123L176,126L173,129L171,130L172,132L175,132L175,134L174,137L176,139L188,141L191,140L196,134L198,133L206,135L208,132L218,132L221,133L222,141L223,140L231,134L237,135L239,135L241,131L240,126L242,125L244,119L242,116L243,113L245,112L245,107L244,105L247,103L244,102Z " data-fips="EN13" data-fips-="" data-iso3="EST" data-name="Rapla"/><path d="M294,204L288,206L285,207L282,203L280,202L278,207L272,212L265,219L262,226L262,226L263,229L268,230L273,229L277,237L290,238L291,246L298,252L301,254L307,264L312,268L317,271L317,269L319,261L318,260L318,256L319,254L317,249L319,245L314,242L315,235L312,233L314,226L316,225L323,224L323,218L324,214L324,210L325,206L326,204L325,202L321,199L315,201L312,199L308,203L304,205L294,204Z " data-fips="EN19" data-fips-="" data-iso3="EST" data-name="Valga"/><path d="M275,139L272,140L267,141L261,144L260,146L258,145L254,148L248,148L246,147L243,145L241,146L241,151L238,152L236,155L233,157L229,159L227,162L228,169L226,170L225,177L224,180L227,183L228,181L242,188L242,192L242,196L240,195L236,197L233,201L234,205L231,205L228,209L229,214L230,213L236,212L237,213L240,221L244,221L244,217L243,214L243,211L246,212L247,216L252,217L256,222L261,225L262,226L265,219L272,212L278,207L280,202L282,203L285,207L288,206L294,204L292,193L291,184L295,177L299,171L299,170L297,162L293,159L289,154L286,153L283,149L273,148L275,145L275,139L275,139Z " data-fips="EN20" data-fips-="" data-iso3="EST" data-name="Viljandi"/><path d="M323,224L316,225L314,226L312,233L315,235L314,242L319,245L317,249L319,254L318,256L318,260L319,261L317,269L317,271L318,272L322,276L325,274L328,275L330,271L334,269L342,268L344,263L345,262L352,264L359,271L364,271L374,274L376,273L374,268L377,263L378,254L384,252L385,249L384,246L387,241L386,239L387,239L380,236L377,236L371,237L368,235L371,230L371,229L363,226L355,224L355,228L348,225L337,227L332,225L326,225L323,224Z " data-fips="EN21" data-fips-="" data-iso3="EST" data-name="Vru"/><path d="M119,244L119,242L116,239L115,242L119,244Z M82,148L80,143L77,143L72,147L63,148L61,150L60,157L58,157L56,152L55,152L53,155L50,158L48,163L48,166L47,166L46,162L44,157L38,155L36,157L33,155L39,165L42,170L43,174L41,174L38,178L35,175L34,175L36,180L32,180L33,184L35,186L41,187L42,188L44,194L46,195L53,199L51,202L50,207L44,210L42,213L39,218L38,218L39,222L39,223L41,226L43,226L52,218L57,205L58,200L58,196L61,192L66,190L67,191L73,190L74,188L76,189L82,189L83,191L86,191L88,189L85,187L93,185L94,183L98,181L102,176L102,173L105,175L109,172L109,168L111,168L114,162L117,166L121,167L119,165L120,164L124,167L124,163L122,161L113,157L110,151L104,147L98,145L95,146L93,144L90,148L82,148Z M126,145L125,142L122,140L114,139L113,141L112,144L108,147L110,149L113,150L118,156L121,154L127,156L126,145Z " data-fips="EN14" data-fips-="" data-iso3="EST" data-name="Saare"/></g></svg>