<?xml version="1.0" encoding="UTF-8"?><!DOCTYPE svg  PUBLIC '-//W3C//DTD SVG 1.1//EN'  'http://www.w3.org/Graphics/SVG/1.1/DTD/svg11.dtd'><svg enable_background="new 0 0 450 301" height="301px" style="stroke-linejoin: round; stroke:#000; fill:#f6f3f0;" version="1.1" viewBox="0 0 450 301" width="450px" xmlns="http://www.w3.org/2000/svg" xmlns:xlink="http://www.w3.org/1999/xlink"><defs><style type="text/css"><![CDATA[path { fill-rule: evenodd; }
#context path { fill: #eee; stroke: #bbb; } ]]></style></defs><metadata><views><view h="301.0" padding="0.06" w="450"><proj id="laea" lat0="11.2663152129" lon0="38.3111557051"/><bbox h="163.5" w="205.07" x="923.96" y="944.42"/><llbbox lat0="-90" lat1="90" lon0="-180" lon1="180"/></view></views></metadata><g id="context"><path d="M8,275L7,274L6,272L2,271L0,267L0,299L6,299L6,294L8,290L6,285L7,283L9,277L9,276L8,275Z " data-iso="COD"/><path d="M284,94L270,96L272,94L276,90L281,88L286,85L289,80L288,76L283,69L282,68L276,71L275,75L273,76L268,73L267,73L266,74L264,77L257,88L254,91L254,108L255,108L271,105L277,107L279,107L281,102L284,99L286,95L284,94Z " data-iso="DJI"/><path d="M212,0L213,3L222,4L216,0L212,0Z M137,34L138,34L148,34L152,30L160,37L167,21L170,23L175,25L178,29L181,30L187,29L193,26L196,29L203,28L208,29L230,36L238,46L244,51L252,58L257,65L263,70L264,72L266,74L267,73L268,73L273,76L275,75L276,71L282,68L282,66L280,64L279,66L275,65L274,61L269,57L266,57L263,49L250,40L246,34L239,26L231,23L227,20L218,17L215,12L214,10L210,7L209,10L209,14L203,5L201,0L142,0L138,12L135,14L137,28L137,34Z " data-iso="ERI"/><path d="M137,34L136,40L134,48L130,56L129,60L128,68L118,71L117,73L109,86L102,101L102,108L92,111L87,118L88,124L85,131L82,141L82,142L82,143L82,162L79,165L64,165L58,175L60,178L73,182L78,186L86,197L91,200L96,205L101,219L102,223L106,230L108,231L108,232L108,232L119,235L120,237L119,247L124,254L126,255L150,260L171,273L183,275L197,277L203,278L210,271L211,269L215,267L232,259L240,266L242,267L254,266L257,266L258,264L260,262L278,258L285,250L295,245L305,243L325,244L330,239L348,219L387,178L392,172L385,172L370,173L369,172L304,152L294,144L292,143L286,135L285,132L277,125L273,115L278,108L279,107L277,107L271,105L255,108L254,108L254,91L257,88L264,77L266,74L264,72L263,70L257,65L252,58L244,51L238,46L230,36L208,29L203,28L196,29L193,26L187,29L181,30L178,29L175,25L170,23L167,21L160,37L152,30L148,34L138,34L137,34Z M154,90L150,88L149,89L148,87L148,81L149,80L150,79L154,80L155,79L158,78L159,79L160,80L160,81L161,82L160,85L160,86L159,89L157,91L156,93L154,93L155,92L154,90Z " data-iso="ETH"/><path d="M257,266L254,266L242,267L240,266L232,259L215,267L211,269L210,271L203,278L197,277L183,275L171,273L150,260L126,255L124,254L119,247L120,237L119,235L108,232L108,232L104,236L88,251L83,256L79,260L82,267L89,274L88,278L89,284L91,285L92,289L97,294L99,299L237,299L237,291L245,283L254,270L257,266Z " data-iso="KEN"/><path d="M82,142L82,142L82,141L85,131L88,124L87,118L92,111L102,108L102,101L109,86L117,73L118,71L128,68L129,60L130,56L134,48L136,40L137,34L137,28L135,14L138,12L142,0L0,0L0,127L9,134L19,133L29,124L35,114L46,105L45,101L45,90L39,83L54,84L64,79L61,93L63,111L69,117L78,125L80,133L78,136L82,142L82,142Z " data-iso="SDN"/><path d="M8,275L9,274L15,269L24,271L30,269L33,273L38,275L42,271L53,269L57,267L60,270L68,270L73,265L79,260L83,256L88,251L104,236L108,232L108,231L106,230L102,223L101,219L96,205L91,200L86,197L78,186L73,182L60,178L58,175L64,165L79,165L82,162L82,143L82,142L82,142L82,142L78,136L80,133L78,125L69,117L63,111L61,93L64,79L54,84L39,83L45,90L45,101L46,105L35,114L29,124L19,133L9,134L0,127L0,267L2,271L6,272L7,274L8,275Z " data-iso="SSD"/><path d="M411,98L406,96L391,101L384,102L374,102L368,107L359,111L357,111L343,109L332,114L324,119L311,119L299,111L294,106L290,99L286,95L284,99L281,102L279,107L278,108L273,115L277,125L285,132L286,135L292,143L294,144L304,152L369,172L370,173L385,172L392,172L396,167L413,138L412,127L411,98L411,98Z " data-iso="SOL"/><path d="M411,98L412,127L413,138L396,167L392,172L387,178L348,219L330,239L325,244L305,243L295,245L285,250L278,258L260,262L258,264L257,266L254,270L245,283L237,291L237,299L350,299L351,298L370,279L384,263L394,251L400,241L409,228L417,213L418,207L421,199L424,194L432,178L434,171L440,166L443,159L446,151L450,146L450,80L445,86L437,90L427,93L421,95L414,97L411,98Z " data-iso="SOM"/><path d="M79,260L73,265L68,270L60,270L57,267L53,269L42,271L38,275L33,273L30,269L24,271L15,269L9,274L8,275L9,276L9,277L7,283L6,285L8,290L6,294L6,299L99,299L97,294L92,289L91,285L89,284L88,278L89,274L82,267L79,260Z " data-iso="UGA"/><path d="M273,0L272,2L274,8L271,11L276,14L279,27L281,34L281,39L284,42L285,56L290,65L290,68L294,67L302,70L315,65L318,66L325,65L327,61L332,59L338,53L362,49L366,47L376,44L381,40L388,35L395,36L403,35L405,33L410,27L411,25L422,19L429,16L435,15L442,11L450,8L450,0L273,0Z " data-iso="YEM"/></g><g fill="red" fill-opacity="0.35" id="regions"><path d="M135,47L134,49L131,54L128,69L126,69L120,70L117,72L109,86L109,86L112,90L115,89L119,86L124,85L131,91L133,91L134,98L137,100L136,106L133,110L132,111L134,113L133,118L134,120L145,123L148,123L149,124L154,129L159,130L163,134L175,128L179,127L181,122L186,122L189,123L188,128L184,129L187,132L188,135L197,139L202,143L202,145L198,147L200,151L198,154L199,157L202,157L203,158L208,156L209,150L210,150L210,149L212,146L211,142L212,139L211,136L214,136L216,131L214,129L217,128L218,119L217,113L217,109L218,107L218,103L215,100L215,97L212,91L209,79L209,78L208,78L204,79L204,78L200,78L197,77L196,72L198,66L194,62L192,62L186,54L185,51L180,49L178,51L170,52L167,50L164,50L163,52L158,54L146,54L137,49L136,45L135,47Z M154,90L150,88L149,89L148,87L148,81L149,80L150,79L154,80L155,79L158,78L159,79L160,80L160,81L161,82L160,85L160,86L159,89L157,91L156,93L154,93L155,92L154,90Z " data-fips="ET46" data-fips-="ET19" data-iso3="ETH" data-name="Amhara" data-p="AM"/><path d="M136,45L137,49L146,54L158,54L163,52L164,50L167,50L170,52L178,51L180,49L185,51L186,54L192,62L194,62L198,66L196,72L197,77L200,78L204,78L204,79L208,78L209,78L209,77L211,68L208,65L209,58L208,56L208,52L210,49L209,46L208,37L207,36L208,33L207,32L212,32L213,30L213,29L211,30L210,29L203,27L199,29L196,29L193,25L189,29L181,31L177,29L174,24L170,24L167,20L160,37L154,30L152,30L149,33L148,34L142,32L142,33L136,44L136,45Z " data-fips="ET06" data-fips-="ET37|ET54" data-iso3="ETH" data-name="Tigray" data-p="TI"/><path d="M213,30L212,32L207,32L208,33L207,36L208,37L209,46L210,49L208,52L208,56L209,58L208,65L211,68L209,77L209,78L209,79L212,91L215,97L215,100L218,103L218,107L217,109L217,113L218,119L217,128L214,129L216,131L214,136L211,136L212,139L211,142L212,146L210,149L210,150L211,149L212,149L215,156L216,155L219,153L223,146L225,144L229,143L230,143L230,141L232,135L237,131L235,129L238,114L242,108L253,107L253,107L253,101L253,96L257,88L266,74L262,68L255,63L254,59L251,56L247,53L236,43L232,37L223,34L220,31L214,30L213,30Z " data-fips="ET26" data-fips-="ET21|ET45" data-iso3="ETH" data-name="Afar" data-p="AF"/><path d="M108,185L109,186L110,188L110,195L106,195L104,194L98,195L95,197L93,197L90,196L84,195L84,195L87,198L90,199L92,201L92,203L96,205L97,210L101,220L102,223L105,229L108,232L108,233L120,236L120,240L119,241L119,246L125,255L139,256L139,256L141,255L145,248L144,244L146,240L147,238L157,239L162,236L167,238L168,231L168,229L172,227L169,222L165,220L165,218L166,214L167,207L170,207L174,210L175,210L176,213L174,223L177,223L178,222L177,221L179,215L179,212L183,211L187,211L189,213L191,216L193,217L195,217L195,212L192,207L191,206L184,203L183,196L177,194L173,197L176,189L179,186L180,181L183,175L182,171L185,173L185,170L184,166L181,165L179,168L175,166L163,168L161,167L160,166L158,168L158,169L161,170L161,174L156,175L156,182L157,185L155,189L150,193L142,192L138,189L128,185L126,185L125,181L122,179L123,176L122,174L120,173L120,177L119,178L115,179L114,178L112,178L108,183L108,185Z " data-fips="ET54" data-fips-="ET39|ET53" data-iso3="ETH" data-name="Southern Nations, Nationalities and Peoples" data-p="SN"/><path d="M83,162L75,166L72,164L66,165L64,164L62,168L63,169L62,171L60,172L58,176L59,178L64,180L70,181L77,185L84,194L84,195L90,196L93,197L95,197L98,195L104,194L106,195L110,195L110,188L109,186L108,185L108,186L105,187L105,185L103,184L100,179L101,174L100,174L105,171L96,169L85,161L83,161L83,162Z " data-fips="ET49" data-fips-="ET40" data-iso3="ETH" data-name="Gambela Peoples" data-p="GA"/><path d="M148,123L148,124L147,125L142,123L139,125L137,125L138,122L130,128L129,129L128,137L128,138L130,145L127,149L123,145L121,145L114,137L109,132L101,131L99,135L91,138L90,142L89,148L82,148L83,161L83,161L85,161L96,169L105,171L100,174L101,174L100,179L103,184L105,185L105,187L108,186L108,185L108,183L112,178L114,178L115,179L119,178L120,177L120,173L122,174L123,176L122,179L125,181L126,185L128,185L138,189L142,192L150,193L155,189L157,185L156,182L156,175L161,174L161,170L158,169L158,168L160,166L161,167L163,168L175,166L179,168L181,165L184,166L185,170L185,173L182,171L183,175L180,181L179,186L176,189L173,197L177,194L183,196L184,203L191,206L192,207L195,212L195,217L193,217L191,216L189,213L187,211L183,211L179,212L179,215L177,221L178,222L177,223L174,223L176,213L175,210L174,210L170,207L167,207L166,214L165,218L165,220L169,222L172,227L168,229L168,231L167,238L162,236L157,239L147,238L146,240L144,244L145,248L141,255L139,256L139,256L143,256L149,259L169,272L174,274L178,275L184,274L190,276L194,276L194,276L200,273L209,251L209,249L213,237L215,234L219,235L227,233L230,230L235,227L234,218L234,210L239,205L240,205L247,208L251,212L253,209L258,207L261,202L264,191L257,188L256,185L258,180L257,178L257,172L263,161L265,161L271,165L272,168L273,171L277,166L279,166L276,154L273,149L270,141L267,139L267,136L266,136L266,136L262,140L260,142L253,141L253,142L252,142L248,142L243,141L236,145L232,144L235,143L230,142L230,143L229,143L225,144L223,146L219,153L216,155L215,156L212,149L211,149L210,150L209,150L208,156L203,158L202,157L199,157L198,154L200,151L198,147L202,145L202,143L197,139L188,135L187,132L184,129L188,128L189,123L186,122L181,122L179,127L175,128L163,134L159,130L154,129L149,124L148,123Z M135,141L135,141L135,141L136,142L136,142L136,142L136,142L135,143L135,145L135,144L134,145L134,145L134,145L134,145L133,143L134,141L135,141Z M188,151L188,151L189,151L189,151L190,152L190,153L190,153L190,153L190,154L190,154L190,154L189,154L189,154L188,156L188,156L188,157L187,156L187,156L187,156L186,156L186,155L186,155L185,155L185,155L185,155L185,154L185,154L184,153L184,153L184,153L184,153L184,153L184,152L185,152L185,151L185,151L186,151L187,151L187,151L187,151L187,151L187,151L188,151L188,151Z M130,155L130,156L130,156L130,156L130,156L130,157L130,157L130,157L130,157L130,157L130,157L130,157L130,157L130,157L130,157L130,156L129,155L128,156L128,156L127,156L127,156L127,156L126,156L126,156L126,156L126,156L125,156L125,156L125,155L125,155L125,154L125,154L125,154L126,153L126,152L128,152L128,152L128,152L129,152L129,153L129,153L129,153L129,153L130,153L130,153L130,153L130,154L130,154L130,155Z M131,153L131,153L132,153L132,153L132,154L132,154L132,154L132,154L132,154L131,154L131,154L131,154L130,154L130,154L130,153L130,153L131,153Z M265,144L265,144L265,145L264,146L264,146L264,146L265,147L265,147L265,148L264,148L264,148L263,147L263,147L263,147L262,148L262,148L262,147L262,147L261,147L261,147L260,147L260,147L260,147L260,146L260,145L261,144L262,144L262,144L262,144L263,144L263,144L264,144L264,144L265,144Z " data-fips="ET44" data-fips-="ET27" data-iso3="ETH" data-name="Addis Ababa" data-p="AA"/><path d="M132,154L132,154L132,154L132,153L132,153L131,153L131,153L130,153L130,153L130,154L130,154L131,154L131,154L131,154L132,154L132,154L132,154Z M125,154L125,154L125,154L125,155L125,155L125,155L125,156L125,156L126,156L126,156L126,156L126,156L127,156L127,156L127,156L128,156L128,156L129,155L130,156L130,157L130,157L130,157L130,157L130,157L130,157L130,157L130,157L130,157L130,157L130,156L130,156L130,156L130,156L130,155L130,154L130,154L130,153L130,153L130,153L129,153L129,153L129,153L129,153L129,152L129,152L128,152L128,152L128,152L126,152L126,153L125,154Z M136,142L136,142L136,142L135,141L135,141L135,141L134,141L133,143L134,145L134,145L134,145L134,145L134,145L135,144L135,145L135,143L136,142L136,142Z M109,86L106,88L104,91L105,95L102,101L103,104L101,108L98,114L93,110L90,112L87,117L88,124L88,127L86,129L83,137L82,142L82,148L89,148L90,142L91,138L99,135L101,131L109,132L114,137L121,145L123,145L127,149L130,145L128,138L128,137L129,129L130,128L138,122L137,125L139,125L142,123L147,125L148,124L148,123L145,123L134,120L133,118L134,113L132,111L133,110L136,106L137,100L134,98L133,91L131,91L124,85L119,86L115,89L112,90L109,86L109,86Z " data-fips="ET47" data-fips-="ET43" data-iso3="ETH" data-name="Benshangul-Gumaz" data-p="BE"/><path d="M188,151L187,151L187,151L187,151L187,151L187,151L187,151L186,151L185,151L185,151L185,152L184,152L184,153L184,153L184,153L184,153L184,153L185,154L185,154L185,155L185,155L185,155L186,155L186,155L186,155L186,156L187,156L187,156L187,156L188,157L188,156L188,156L189,154L189,154L190,154L190,154L190,154L190,153L190,153L190,153L190,152L189,151L189,151L188,151L188,151L188,151Z " data-fips="ET44" data-fips-="ET01" data-iso3="ETH" data-name="Addis Ababa" data-p="AA"/><path d="M253,107L242,108L238,114L235,129L237,131L232,135L230,141L230,143L230,142L235,143L232,144L236,145L243,141L248,142L252,142L253,142L253,141L256,137L260,138L262,135L265,135L266,136L267,136L267,139L270,141L273,149L276,154L279,166L277,166L273,171L272,168L271,165L265,161L263,161L257,172L257,178L258,180L256,185L257,188L264,191L261,202L258,207L253,209L251,212L247,208L240,205L239,205L234,210L234,218L235,227L230,230L227,233L219,235L215,234L213,237L209,249L209,251L200,273L194,276L196,277L202,278L204,279L209,273L211,269L223,263L223,263L232,260L240,266L249,266L253,265L263,261L266,260L278,258L280,257L281,253L285,250L294,246L304,243L325,244L326,244L348,219L358,207L392,172L370,173L369,172L304,152L295,144L290,142L290,141L278,125L276,120L273,115L278,107L275,107L274,105L269,106L263,107L253,108L253,107Z " data-fips="ET48" data-fips-="ET38|ET52" data-iso3="ETH" data-name="Somali" data-p="SO"/><path d="M265,135L262,135L260,138L256,137L253,141L253,142L253,141L260,142L262,140L266,136L266,136L265,135Z " data-fips="ET48" data-fips-="" data-iso3="ETH" data-name="Dire Dawa" data-p="DD"/><path d="M264,144L263,144L263,144L262,144L262,144L262,144L261,144L260,145L260,146L260,147L260,147L260,147L261,147L261,147L262,147L262,147L262,148L262,148L263,147L263,147L263,147L264,148L264,148L265,148L265,147L265,147L264,146L264,146L264,146L265,145L265,144L265,144L264,144L264,144Z " data-fips="ET50" data-fips-="" data-iso3="ETH" data-name="Harari People" data-p="HA"/></g></svg>