<?xml version="1.0" encoding="UTF-8"?><!DOCTYPE svg  PUBLIC '-//W3C//DTD SVG 1.1//EN'  'http://www.w3.org/Graphics/SVG/1.1/DTD/svg11.dtd'><svg enable_background="new 0 0 500 367" height="367px" style="stroke-linejoin: round; stroke:#000; fill:#f6f3f0;" version="1.1" viewBox="0 0 500 367" width="500px" xmlns="http://www.w3.org/2000/svg" xmlns:xlink="http://www.w3.org/1999/xlink"><defs><style type="text/css"><![CDATA[path { fill-rule: evenodd; }
#context path { fill: #eee; stroke: #bbb; } ]]></style></defs><metadata><views><view h="367.363973732" padding="0" w="500"><proj id="laea" lat0="50.5" lon0="14.0"/><bbox h="461.97" w="630.48" x="684.76" y="753.17"/><llbbox lat0="33.0" lat1="68.0" lon0="-17.0" lon1="45.0"/></view></views></metadata><g id="countries"><path d="M293.5,271.0L291.3,270.6L290.7,270.5L288.9,278.0L289.8,278.1L289.9,288.5L290.5,291.6L295.1,297.7L295.2,298.6L298.0,297.5L297.4,296.1L299.8,294.3L301.7,290.4L301.5,287.7L301.5,287.0L301.5,286.8L297.2,280.8L297.7,277.4L297.8,277.3L297.9,276.9L297.2,274.4L295.9,273.2L294.0,271.2L293.7,271.0L293.5,271.0Z " data-iso="ALB" data-name="Albania" data-pop="3639453.0"/><path d="M161.8,265.9L161.9,265.1L161.0,264.7L160.2,264.7L159.9,264.9L159.8,265.3L160.8,266.4L161.6,266.1L161.8,266.1L161.8,265.9Z " data-iso="AND" data-name="Andorra" data-pop="83888.0"/><path d="M471.0,239.3L470.8,239.5L466.1,242.3L461.4,245.2L461.1,245.5L461.4,245.8L468.3,254.0L470.6,252.9L474.6,254.2L475.0,254.5L475.7,254.1L476.6,253.2L480.5,254.4L482.5,252.9L486.7,257.4L487.2,258.0L487.6,257.9L488.5,257.1L489.7,256.6L489.3,255.7L485.2,251.2L480.2,249.5L475.7,243.5L476.6,242.0L472.1,240.8L471.3,239.7L471.0,239.3Z " data-iso="ARM" data-name="Armenia" data-pop="2967004.0"/><path d="M268.9,213.2L268.6,212.4L256.2,210.0L254.6,213.0L250.3,213.7L249.0,212.2L248.8,212.1L248.7,212.3L246.7,213.9L243.5,224.7L238.2,222.3L232.2,224.9L230.1,225.1L226.8,223.5L225.1,226.0L220.7,223.3L220.5,223.4L220.7,223.5L221.1,224.0L221.0,224.7L220.4,225.8L220.4,226.0L220.5,226.7L220.6,227.0L220.7,227.8L220.6,227.9L220.9,228.0L224.5,230.1L225.7,228.9L226.4,229.8L226.3,230.1L226.5,230.2L230.4,230.4L237.8,228.4L239.2,232.2L246.6,233.7L248.0,234.0L248.3,234.1L258.2,232.8L261.8,232.1L263.6,230.7L264.0,230.5L265.0,229.4L266.1,225.5L270.2,219.6L270.6,219.1L270.1,218.8L268.6,215.5L268.5,215.0L269.0,213.5L269.1,213.4L268.9,213.2Z " data-iso="AUT" data-name="Austria" data-pop="8210281.0"/><path d="M475.0,254.5L475.2,254.7L475.6,254.9L475.8,255.0L482.4,258.8L485.8,258.3L487.2,258.0L486.7,257.4L482.5,252.9L480.5,254.4L476.6,253.2L475.7,254.1L475.0,254.5Z M492.2,223.3L490.1,231.3L485.8,232.2L480.5,229.3L478.9,229.4L478.2,229.6L478.1,230.0L478.1,232.7L482.0,234.3L481.9,236.6L477.5,237.5L473.3,236.8L471.9,237.5L471.0,239.3L471.3,239.7L472.1,240.8L476.6,242.0L475.7,243.5L480.2,249.5L485.2,251.2L489.3,255.7L489.7,256.6L490.2,256.4L497.0,244.7L500.0,246.0L500.0,228.6L494.7,224.4L493.1,223.5L492.2,223.3Z " data-iso="AZE" data-name="Azerbaijan" data-pop="8238672.0"/><path d="M198.9,189.6L199.7,189.4L200.1,190.0L199.5,189.9L200.7,190.1L200.7,190.3L202.0,191.8L200.8,196.1L200.8,196.3L200.7,196.3L199.2,196.5L198.0,199.1L198.3,201.6L198.1,201.7L197.6,201.7L192.3,196.9L193.0,195.3L188.5,196.4L183.9,190.4L180.0,183.9L182.9,182.7L184.6,182.1L185.4,182.0L189.4,183.8L195.6,182.5L196.5,184.4L200.1,186.4L198.9,189.7L198.9,189.6Z " data-iso="BEL" data-name="Belgium" data-pop="10414336.0"/><path d="M310.8,252.8L310.6,253.0L310.6,260.5L311.7,261.0L312.2,265.9L310.6,266.5L310.8,271.6L310.2,271.8L311.5,273.1L315.6,277.0L315.4,278.1L315.5,280.6L315.4,280.8L316.2,280.8L325.9,277.6L328.9,278.8L333.4,279.1L338.7,277.0L338.7,273.5L339.6,273.6L339.5,273.4L343.8,269.9L347.5,270.0L351.3,269.1L351.0,268.4L346.7,265.0L348.3,262.3L348.7,257.5L349.8,255.2L352.6,253.6L352.3,251.3L348.5,251.2L347.0,249.8L339.6,249.6L337.2,250.6L331.0,255.7L314.8,255.9L312.7,256.6L311.3,253.2L310.8,252.8Z " data-iso="BGR" data-name="Bulgaria" data-pop="7204687.0"/><path d="M282.0,271.7L282.1,271.7L281.8,267.8L284.5,263.9L286.6,261.9L286.8,261.9L287.2,261.4L289.2,256.8L285.8,252.7L284.9,249.0L284.6,249.0L284.2,249.1L282.1,247.1L270.1,245.8L264.9,248.0L262.3,247.0L262.0,251.0L264.7,253.3L265.5,256.3L277.5,269.2L281.3,271.5L282.0,271.7Z " data-iso="BIH" data-name="Bosnia and Herz." data-pop="4613414.0"/><path d="M326.3,132.7L322.6,136.8L321.2,136.8L319.1,138.7L319.0,138.8L319.1,139.2L320.1,143.2L315.9,147.6L315.5,152.8L311.6,156.8L304.8,158.3L304.3,158.1L305.4,161.3L307.8,166.7L308.1,170.2L304.8,174.6L307.4,175.8L307.6,180.6L308.1,181.5L308.2,181.4L316.3,176.3L328.9,175.9L329.9,177.1L338.0,176.3L340.5,175.0L342.4,176.7L347.3,175.0L350.1,175.9L349.6,171.1L354.2,167.0L355.3,166.8L355.2,166.6L350.8,156.9L354.6,157.0L357.3,152.7L351.6,150.7L349.8,147.9L347.5,146.6L345.7,143.4L343.6,142.6L342.4,135.0L337.2,133.5L334.5,135.6L333.4,133.3L327.4,133.4L326.5,132.7L326.3,132.7Z " data-iso="BLR" data-name="Belarus" data-pop="9648533.0"/><path d="M219.4,222.6L215.4,221.3L212.7,222.0L208.5,222.1L208.0,221.8L207.2,222.2L203.4,224.6L199.5,228.5L196.6,234.9L200.1,232.4L202.6,237.3L202.7,237.7L202.9,237.9L207.8,238.2L211.2,234.3L212.6,233.8L214.9,237.2L219.3,234.0L222.3,234.8L226.0,231.4L226.3,230.1L226.4,229.8L225.7,228.9L224.5,230.1L220.9,228.0L220.6,227.9L220.1,227.9L220.0,227.9L220.0,227.5L220.0,226.8L220.4,225.8L221.0,224.7L221.1,224.0L220.7,223.5L220.5,223.4L219.4,222.6Z " data-iso="CHE" data-name="Switzerland" data-pop="7604467.0"/><path d="M408.6,324.4L411.2,318.8L408.9,321.0L404.5,323.5L400.4,324.0L399.5,326.5L399.0,326.5L404.6,325.4L406.8,326.1L409.3,325.0L408.6,324.4Z " data-iso="CYN" data-name="N. Cyprus" data-pop="265100.0"/><path d="M398.5,326.5L396.8,328.3L398.3,331.3L399.9,331.5L409.5,325.1L409.3,325.0L406.8,326.1L404.6,325.4L399.0,326.5L398.5,326.5Z " data-iso="CYP" data-name="Cyprus" data-pop="531640.0"/><path d="M254.9,191.8L251.7,190.0L251.2,191.7L245.3,194.4L243.4,196.1L241.0,196.2L239.2,198.2L242.5,206.6L248.5,211.7L248.8,212.1L249.0,212.2L250.3,213.7L254.6,213.0L256.2,210.0L268.6,212.4L268.9,213.2L269.1,213.4L269.2,212.6L274.6,209.9L276.1,208.5L280.4,203.9L280.6,203.9L280.6,203.6L278.4,200.2L275.7,199.5L272.2,197.0L268.5,195.7L267.1,198.7L262.8,193.8L257.9,191.4L255.5,191.7L255.0,191.7L254.9,191.8Z " data-iso="CZE" data-name="Czech Rep." data-pop="10211904.0"/><path d="M250.2,160.7L249.0,159.8L250.3,162.4L251.0,162.3L251.2,162.3L251.1,161.8L251.2,161.5L250.2,160.7Z M220.1,152.2L221.4,155.5L219.4,156.5L221.0,157.5L220.8,160.0L223.1,162.0L219.1,161.1L218.3,163.1L211.2,162.4L210.1,165.8L210.4,166.2L209.0,171.4L206.7,173.6L208.4,174.5L206.4,179.3L201.5,180.2L202.7,183.1L200.3,187.8L201.2,188.6L200.7,190.1L200.7,190.3L202.0,191.8L200.8,196.1L200.8,196.3L200.7,196.6L200.6,197.1L201.6,202.4L201.5,202.9L201.8,202.9L203.7,206.0L208.2,206.5L212.4,209.5L207.7,221.6L208.0,221.8L208.5,222.1L212.7,222.0L215.4,221.3L219.4,222.6L220.5,223.4L220.7,223.3L225.1,226.0L226.8,223.5L230.1,225.1L232.2,224.9L238.2,222.3L243.5,224.7L246.7,213.9L248.7,212.3L248.8,212.1L248.5,211.7L242.5,206.6L239.2,198.2L241.0,196.2L243.4,196.1L245.3,194.4L251.2,191.7L251.7,190.0L254.9,191.8L255.0,191.7L255.0,191.6L256.2,187.8L253.6,182.2L254.5,179.8L251.5,172.9L251.5,163.7L251.4,163.7L244.5,157.0L241.9,156.4L235.1,161.3L233.3,158.0L228.1,155.7L226.6,155.8L226.1,152.5L226.0,152.3L222.9,151.9L221.4,151.3L220.1,151.2L220.1,152.2Z " data-iso="DEU" data-name="Germany" data-pop="82329758.0"/><path d="M231.5,144.9L227.0,147.2L231.1,150.4L232.1,149.6L231.5,144.9Z M242.1,143.6L242.4,141.2L236.1,142.5L234.3,147.8L236.9,149.3L238.0,153.3L239.0,153.0L240.3,145.9L242.1,143.6Z M220.1,151.2L221.4,151.3L222.9,151.9L226.0,152.3L225.9,151.3L225.6,145.8L228.0,143.5L227.5,142.5L231.2,139.2L233.0,136.1L230.0,135.0L230.3,131.3L231.8,127.0L228.8,125.6L225.8,129.3L221.5,129.7L219.3,133.0L222.0,133.5L224.8,130.9L221.6,135.2L218.6,134.4L217.7,144.2L218.8,145.1L220.1,150.3L220.1,151.2Z " data-iso="DNK" data-name="Denmark" data-pop="5500510.0"/><path d="M203.9,325.8L196.8,323.5L197.0,324.7L191.8,323.9L191.2,323.0L187.7,324.8L185.0,325.2L177.5,323.4L169.9,322.4L167.8,323.1L160.3,324.0L158.4,323.6L147.5,323.5L140.5,326.0L139.5,327.4L135.7,327.1L131.5,328.3L121.9,332.1L120.4,331.6L122.5,339.3L121.6,349.5L123.4,361.8L101.8,361.3L100.6,365.4L202.3,365.4L196.8,355.1L197.5,352.4L202.4,348.5L204.2,343.6L204.1,336.6L205.3,331.2L204.3,329.9L207.4,325.8L203.9,325.8Z " data-iso="DZA" data-name="Algeria" data-pop="34178188.0"/><path d="M419.4,360.9L418.9,360.2L418.7,360.0L418.6,360.2L414.8,362.9L412.4,363.5L406.9,365.4L422.1,365.4L421.4,364.2L420.5,362.8L419.4,360.9Z M401.0,365.4L400.1,362.8L391.1,365.4L401.0,365.4Z " data-iso="EGY" data-name="Egypt" data-pop="83082869.0"/><path d="M168.5,293.9L165.9,292.8L162.5,294.7L168.8,297.9L170.8,294.5L168.5,293.9Z M87.0,254.1L91.4,253.5L92.9,256.6L99.1,257.6L103.1,263.8L97.5,266.8L97.7,268.1L94.7,274.8L95.0,276.9L92.9,278.9L90.5,278.3L91.2,284.0L90.8,287.0L88.3,290.1L88.4,294.7L85.0,298.0L84.8,302.0L86.6,302.2L91.1,306.1L92.2,312.6L94.4,315.6L98.4,315.2L102.0,313.4L104.0,313.9L106.8,312.4L118.9,315.3L125.8,314.4L127.4,311.9L131.5,309.5L136.3,309.8L140.2,302.5L142.9,301.5L144.8,299.5L143.5,298.6L144.8,289.1L148.7,285.5L152.1,281.1L156.1,279.0L164.6,276.8L170.0,274.6L172.5,269.1L172.4,268.4L167.7,268.6L166.4,267.9L162.8,266.7L161.8,266.1L161.6,266.1L160.8,266.4L159.8,265.3L159.9,264.9L159.5,263.9L148.1,260.5L146.0,260.3L141.4,256.5L138.7,252.8L138.5,252.8L134.8,252.7L130.0,251.2L124.5,248.6L119.9,248.4L111.4,243.8L104.1,242.4L90.1,240.8L87.6,241.7L88.4,248.2L86.4,254.1L87.0,254.1Z " data-iso="ESP" data-name="Spain" data-pop="40525002.0"/><path d="M293.8,113.4L291.3,119.8L293.6,117.2L297.6,114.6L293.8,113.4Z M295.1,111.2L294.8,109.6L290.6,110.6L293.3,112.8L295.1,111.2Z M303.5,119.5L307.2,117.0L311.0,118.4L319.5,120.3L319.6,120.2L319.6,120.0L320.1,117.4L317.7,108.6L320.0,101.8L319.1,100.8L319.1,101.0L315.9,101.8L306.7,101.6L306.5,102.7L299.9,105.2L297.4,107.3L298.6,113.2L303.1,114.5L303.5,119.1L303.5,119.5Z " data-iso="EST" data-name="Estonia" data-pop="1299371.0"/><path d="M273.4,14.0L274.4,14.4L283.7,21.5L284.2,21.5L287.0,31.5L288.6,33.8L288.1,38.1L290.8,43.3L291.1,43.2L295.6,45.1L296.3,49.0L294.0,52.7L293.3,55.6L286.6,68.3L283.3,69.7L282.2,73.8L285.3,88.3L284.9,90.5L287.5,94.8L291.4,96.6L292.2,99.8L293.2,97.9L294.3,101.6L296.2,99.7L300.4,98.5L308.0,94.4L307.4,93.2L315.8,91.1L316.0,91.0L321.2,82.4L326.3,70.9L325.2,62.3L319.2,58.9L317.8,52.4L314.2,46.5L313.1,37.0L308.0,29.9L307.7,28.8L309.5,22.6L308.5,20.8L303.4,17.6L302.3,9.7L302.5,9.5L302.1,9.2L302.7,5.0L301.6,3.3L296.5,0.5L291.8,4.2L291.0,6.2L291.2,12.7L289.3,16.3L285.6,14.8L282.5,16.4L276.6,11.4L273.5,13.6L273.4,14.0Z " data-iso="FIN" data-name="Finland" data-pop="5250275.0"/><path d="M217.6,269.3L211.9,271.4L210.7,274.6L212.6,281.6L215.2,282.3L217.8,275.6L217.6,269.3Z M179.5,184.2L176.1,184.4L173.0,191.2L163.4,194.9L160.5,198.4L154.2,194.1L150.7,192.5L151.2,203.1L147.6,202.9L144.9,201.7L143.1,202.4L140.4,198.7L130.5,199.3L132.0,203.4L130.0,203.7L131.9,207.0L132.9,206.9L139.4,210.9L140.9,211.2L141.8,214.4L145.2,215.1L143.6,218.7L147.1,225.1L148.6,225.8L147.3,231.8L147.6,233.4L144.9,241.5L146.0,241.5L141.2,251.7L139.9,252.7L138.7,252.8L141.4,256.5L146.0,260.3L148.1,260.5L159.5,263.9L159.9,264.9L160.2,264.7L161.0,264.7L161.9,265.1L161.8,265.9L161.8,266.1L162.8,266.7L166.4,267.9L167.7,268.6L172.4,268.4L172.3,268.1L171.7,264.3L173.7,261.1L179.8,258.0L184.2,260.7L186.7,261.1L193.8,264.8L197.1,263.9L202.4,259.5L203.3,259.2L203.6,258.8L203.7,259.0L203.7,259.1L204.1,258.9L205.2,255.1L203.6,255.4L200.9,253.6L199.3,245.7L202.9,242.6L201.1,238.6L202.1,238.2L202.7,237.7L202.6,237.3L200.1,232.4L196.6,234.9L199.5,228.5L203.4,224.6L207.2,222.2L208.0,221.8L207.7,221.6L212.4,209.5L208.2,206.5L203.7,206.0L201.8,202.9L201.5,202.9L201.1,202.7L200.1,202.5L199.8,202.7L198.3,202.1L198.1,201.7L197.6,201.7L192.3,196.9L193.0,195.3L188.5,196.4L183.9,190.4L180.0,183.9L179.5,184.2Z " data-iso="FRA" data-name="France" data-pop="64057792.0"/><path d="M420.0,359.9L419.9,359.3L420.5,356.9L419.9,358.0L418.7,360.0L418.9,360.2L419.4,360.9L420.0,359.9Z " data-iso="PSE" data-name="Palestine" data-pop="1604238.0"/><path d="M133.4,133.3L128.5,135.8L127.2,137.3L127.4,140.4L133.7,142.7L135.9,144.3L136.4,144.7L140.3,142.6L141.1,140.3L139.5,133.8L137.7,133.0L133.5,133.7L133.4,133.3Z M145.8,112.2L142.5,112.2L145.2,116.7L147.2,115.8L145.6,114.4L145.8,112.2Z M148.0,104.1L142.9,104.9L145.9,107.0L148.0,104.1Z M163.5,106.7L164.1,105.7L151.0,108.0L151.7,109.8L148.2,111.3L148.0,115.6L144.3,121.0L148.4,120.7L146.9,122.6L145.3,127.9L148.4,128.9L144.6,137.6L144.2,139.7L147.0,140.5L153.3,140.0L151.5,143.6L152.2,147.2L154.6,148.3L152.0,154.3L153.3,156.7L145.4,155.7L141.1,158.8L144.7,158.6L142.5,164.5L135.5,166.7L136.9,169.6L141.7,170.5L141.4,171.4L145.8,174.3L139.0,176.3L132.4,181.2L129.4,182.1L131.7,184.4L140.8,184.7L142.7,182.0L146.6,181.2L151.6,183.5L155.9,181.5L159.4,183.5L168.5,184.1L173.1,182.2L173.7,180.3L169.4,179.3L168.6,178.2L171.7,175.5L173.7,175.5L176.2,172.8L177.7,168.9L177.5,167.1L173.7,164.5L171.5,163.9L169.6,165.2L168.4,164.0L170.7,161.9L168.0,156.0L169.8,155.9L169.3,151.3L167.5,147.8L165.1,145.8L164.4,139.6L162.4,132.7L160.3,131.0L157.7,131.1L157.4,129.8L160.7,128.2L160.4,126.4L164.0,123.4L167.9,118.0L167.7,116.8L158.9,114.2L156.1,114.3L163.4,107.5L163.5,106.7Z " data-iso="GBR" data-name="United Kingdom" data-pop="61113205.0"/><path d="M478.0,229.5L472.6,229.2L471.4,226.4L464.8,226.3L462.4,227.4L459.5,230.6L457.9,230.7L450.5,228.3L441.6,230.9L434.5,230.3L430.4,233.0L432.1,233.5L439.9,235.7L442.1,235.8L447.4,244.6L446.7,246.9L449.1,246.8L453.4,245.1L454.4,243.1L461.1,245.3L461.1,245.5L461.4,245.2L466.1,242.3L470.8,239.5L471.0,239.3L471.9,237.5L473.3,236.8L477.5,237.5L481.9,236.6L482.0,234.3L478.1,232.7L478.1,230.0L478.2,229.6L478.0,229.5Z " data-iso="GEO" data-name="Georgia" data-pop="4615807.0"/><path d="M328.7,335.9L326.4,336.2L327.8,339.0L336.0,339.3L336.5,340.6L347.7,338.3L344.0,335.8L341.8,336.4L331.4,336.3L328.7,335.9Z M321.6,303.3L318.8,304.5L321.5,305.5L324.0,308.1L327.0,308.2L328.6,310.7L329.7,310.1L322.2,304.3L321.6,303.3Z M343.7,296.5L340.0,297.5L345.2,299.6L343.7,296.5Z M339.6,273.6L338.7,273.5L338.7,277.0L333.4,279.1L328.9,278.8L325.9,277.6L316.2,280.8L315.4,280.8L315.0,280.8L307.4,285.4L302.5,286.8L301.5,287.0L301.5,287.7L301.7,290.4L299.8,294.3L297.4,296.1L298.0,297.5L295.2,298.6L296.0,299.2L301.6,304.9L305.2,311.1L311.1,309.8L320.7,311.5L318.9,313.4L311.1,310.7L305.3,315.2L309.8,320.0L309.3,323.0L312.1,326.1L313.3,323.1L319.5,325.8L320.4,322.5L319.0,319.9L322.0,318.7L322.9,316.6L321.4,316.4L319.9,314.1L321.0,313.2L325.2,313.4L327.6,315.1L327.2,310.6L325.5,309.0L315.5,304.7L318.0,303.9L317.0,300.9L320.7,301.3L314.3,293.6L314.1,289.1L319.7,292.5L322.4,289.8L326.7,290.1L322.2,285.7L325.7,284.9L326.6,283.5L331.8,282.0L338.7,283.1L339.0,283.5L340.9,280.5L340.4,278.2L340.3,273.7L339.6,273.6Z " data-iso="GRC" data-name="Greece" data-pop="10737428.0"/><path d="M282.6,272.9L282.3,272.5L282.0,272.1L282.0,271.7L281.3,271.5L277.5,269.2L276.7,269.2L273.0,267.6L281.2,272.1L282.6,272.9Z M266.9,234.0L266.3,233.8L261.1,237.1L261.1,240.6L258.7,241.7L258.5,244.5L247.1,243.8L246.7,244.2L248.2,249.0L249.8,250.5L251.8,246.1L253.8,246.0L256.3,249.1L256.8,252.7L258.9,254.8L258.3,256.9L267.0,262.8L270.6,264.2L275.3,268.1L265.5,256.3L264.7,253.3L262.0,251.0L262.3,247.0L264.9,248.0L270.1,245.8L282.1,247.1L284.2,249.1L284.6,249.0L284.5,248.7L286.2,244.9L284.3,243.8L283.3,238.9L283.3,238.7L283.3,238.7L280.2,240.5L275.9,240.5L267.3,234.1L266.9,234.0Z " data-iso="HRV" data-name="Croatia" data-pop="4489409.0"/><path d="M302.5,212.9L300.0,213.7L292.9,212.3L291.1,215.0L288.4,216.8L282.0,218.1L281.0,220.7L274.7,221.2L270.7,219.1L270.6,219.1L270.2,219.6L266.1,225.5L265.0,229.4L264.0,230.5L265.2,230.5L265.6,231.8L266.8,233.8L266.9,234.0L267.3,234.1L275.9,240.5L280.2,240.5L283.3,238.7L283.3,238.7L283.5,238.7L284.9,238.1L286.9,236.9L292.0,236.2L292.2,236.3L292.5,236.1L297.5,234.5L301.6,225.3L302.6,221.6L307.8,217.0L307.9,216.7L307.7,216.6L305.3,214.5L304.1,214.1L303.2,212.7L302.6,212.8L302.5,212.9Z " data-iso="HUN" data-name="Hungary" data-pop="9905596.0"/><path d="M133.7,132.9L127.9,131.0L125.4,134.0L126.2,137.1L123.5,139.0L119.8,137.1L115.1,137.0L117.0,140.6L117.1,148.4L112.3,151.7L112.5,152.9L107.0,155.3L106.2,158.5L110.6,159.2L108.1,162.4L111.2,163.3L117.3,162.8L117.4,161.3L121.9,161.8L123.1,160.9L130.3,161.5L129.8,160.4L134.2,154.0L134.8,146.1L136.1,144.7L135.9,144.3L133.7,142.7L127.4,140.4L127.2,137.3L128.5,135.8L133.4,133.3L133.7,132.9Z " data-iso="IRL" data-name="Ireland" data-pop="4203200.0"/><path d="M489.7,256.6L488.5,257.1L487.6,257.9L487.2,258.0L485.8,258.3L482.4,258.8L475.8,255.0L475.6,254.9L475.3,255.0L473.6,254.5L473.1,258.6L471.1,259.5L476.2,267.7L477.6,268.2L477.5,272.9L478.3,272.7L483.8,277.9L483.9,278.1L483.9,278.1L492.4,286.5L495.2,287.1L498.5,285.8L500.0,290.9L500.0,248.9L500.0,246.8L500.0,246.0L497.0,244.7L490.2,256.4L489.7,256.6Z M500.0,293.1L498.9,298.9L497.8,299.3L499.4,302.5L500.0,293.1Z " data-iso="IRN" data-name="Iran" data-pop="66429284.0"/><path d="M483.9,278.1L483.5,278.0L476.9,280.1L468.6,282.0L467.3,285.0L466.7,285.4L466.7,285.6L464.1,291.8L461.6,293.6L463.8,301.9L463.8,305.5L465.1,310.1L462.6,315.9L452.3,327.9L450.4,329.9L451.6,331.8L454.9,337.4L457.4,339.1L456.6,340.6L458.4,340.4L482.6,342.2L484.7,343.0L500.0,348.5L499.4,302.5L497.8,299.3L498.9,298.9L500.0,293.1L500.0,290.9L498.5,285.8L495.2,287.1L492.4,286.5L483.9,278.1L483.9,278.1Z " data-iso="IRQ" data-name="Iraq" data-pop="28945657.0"/><path d="M136.8,17.8L134.6,14.1L133.3,16.6L125.2,12.8L122.0,13.2L121.2,14.7L119.1,11.1L116.2,13.7L112.6,15.7L113.1,11.2L115.1,10.6L111.4,3.1L107.9,4.1L104.5,7.3L105.1,9.4L108.0,9.9L111.0,13.2L108.7,16.4L104.0,14.6L102.5,15.3L105.7,20.8L102.4,24.3L99.6,25.1L104.2,27.4L107.3,32.6L112.5,37.0L115.8,37.2L123.2,36.6L132.4,35.4L137.8,31.5L138.9,31.5L140.7,27.5L138.9,20.7L136.8,17.8Z " data-iso="ISL" data-name="Iceland" data-pop="306694.0"/><path d="M428.6,355.7L428.2,355.8L424.5,358.1L424.6,353.2L423.1,350.4L423.3,347.3L426.8,347.0L427.4,346.9L427.0,344.7L427.2,344.0L428.1,343.3L428.5,343.1L428.5,342.7L428.3,339.6L428.5,339.1L427.5,337.0L427.5,336.4L427.3,336.6L425.3,340.2L424.7,340.8L422.3,341.4L422.3,342.5L421.8,350.4L421.4,353.5L420.5,356.8L420.5,356.9L419.9,359.3L420.0,359.9L419.4,360.9L420.5,362.8L421.4,364.2L422.1,365.4L428.4,365.4L429.2,359.0L428.8,358.3L428.7,357.2L428.6,355.7Z " data-iso="ISR" data-name="Israel" data-pop="7233701.0"/><path d="M262.2,314.7L259.9,314.7L252.2,316.8L247.5,317.0L240.2,315.1L238.0,319.1L238.5,320.1L243.5,322.0L248.4,325.4L251.1,325.7L254.0,328.6L257.9,329.6L260.2,326.5L258.6,323.0L259.6,319.0L262.2,314.7Z M217.7,288.1L215.3,284.8L209.8,287.9L207.4,287.1L206.9,288.4L208.6,294.8L207.6,303.7L209.2,306.6L212.1,305.6L212.5,303.8L216.8,302.9L217.4,294.0L218.8,291.9L217.7,288.1Z M226.3,230.1L226.0,231.4L222.3,234.8L219.3,234.0L214.9,237.2L212.6,233.8L211.2,234.3L207.8,238.2L202.9,237.9L202.7,237.7L202.1,238.2L201.1,238.6L202.9,242.6L199.3,245.7L200.9,253.6L203.6,255.4L205.2,255.1L204.1,258.9L205.8,258.7L213.5,253.3L217.1,254.5L223.5,259.4L225.1,268.1L231.9,274.3L240.0,283.2L243.3,285.4L245.3,285.1L249.0,286.6L250.6,289.8L252.3,289.7L256.2,291.4L257.1,295.2L262.7,297.5L266.9,307.6L266.8,309.4L263.4,317.4L265.9,317.3L269.6,309.7L272.5,307.4L273.6,303.1L269.0,298.6L270.0,295.9L272.6,292.1L275.4,293.7L278.9,294.1L282.7,298.4L283.4,294.4L279.4,290.4L268.8,285.3L264.0,281.6L265.8,278.9L258.5,278.7L253.9,275.7L251.3,273.2L247.8,264.6L245.0,261.7L240.8,258.6L238.2,254.3L237.8,251.4L238.9,248.4L238.2,244.4L243.4,242.6L244.6,241.3L248.5,242.8L248.1,243.1L247.3,239.3L245.9,236.0L247.8,234.6L248.0,234.0L246.6,233.7L239.2,232.2L237.8,228.4L230.4,230.4L226.5,230.2L226.3,230.1Z " data-iso="ITA" data-name="Italy" data-pop="58126212.0"/><path d="M456.6,340.6L457.4,339.1L454.9,337.4L451.6,331.8L450.4,329.9L448.8,331.9L437.7,344.7L434.8,345.1L429.4,343.1L428.5,343.1L428.1,343.3L427.2,344.0L427.0,344.7L427.4,346.9L427.9,348.3L428.1,350.8L428.8,352.8L428.5,354.9L428.6,355.7L428.7,357.2L428.8,358.3L429.2,359.0L428.4,365.4L447.5,365.4L449.1,361.3L451.3,358.9L440.7,352.1L455.7,342.1L456.6,340.6Z " data-iso="JOR" data-name="Jordan" data-pop="6342948.0"/><path d="M500.0,179.1L494.7,182.6L494.2,187.2L495.0,188.7L499.2,189.5L494.7,190.9L491.5,193.8L492.3,195.3L496.4,194.9L500.0,198.2L500.0,179.1Z M477.2,180.6L480.7,175.9L482.0,172.4L486.0,167.7L492.9,166.1L495.9,163.6L500.0,168.3L500.0,114.2L493.6,120.8L492.4,123.2L484.7,123.4L487.1,126.6L481.3,124.0L471.5,125.4L469.1,124.6L464.0,128.3L461.7,128.7L455.8,145.1L458.5,151.3L457.8,152.2L450.6,149.3L450.2,149.7L449.8,157.7L450.2,159.6L452.9,163.4L452.8,168.6L453.8,169.9L459.5,173.9L465.4,171.9L471.2,175.7L474.2,178.3L471.8,179.2L472.7,180.8L477.5,180.9L477.2,180.6Z " data-iso="KAZ" data-name="Kazakhstan" data-pop="15399437.0"/><path d="M304.5,272.7L300.3,265.1L297.2,264.4L296.3,267.8L295.5,268.2L294.6,268.5L293.4,269.0L293.3,269.3L293.7,270.9L293.7,271.0L294.0,271.2L295.9,273.2L297.2,274.4L297.9,276.9L297.8,277.3L297.9,277.4L299.2,275.2L304.7,273.0L304.7,273.0L304.5,272.7Z " data-iso="KOS" data-name="Kosovo" data-pop="1804838.0"/><path d="M427.8,336.0L427.6,334.0L430.4,331.3L431.3,327.3L427.9,323.7L425.6,324.8L425.8,325.6L423.9,329.2L424.1,331.3L422.5,340.5L422.3,341.4L424.7,340.8L425.3,340.2L427.3,336.6L427.5,336.4L427.8,336.0Z " data-iso="LBN" data-name="Lebanon" data-pop="4017095.0"/><path d="M229.4,363.3L229.4,363.5L229.0,365.4L229.0,365.4L233.8,365.4L231.9,364.2L230.6,363.9L229.4,363.3Z M325.7,365.4L325.5,364.7L317.7,362.6L313.2,362.9L311.5,364.4L307.9,365.4L325.7,365.4Z " data-iso="LBY" data-name="Libya" data-pop="6310434.0"/><path d="M220.7,227.8L220.6,227.0L220.5,226.7L220.4,226.0L220.4,225.8L220.0,226.8L220.0,227.5L220.0,227.9L220.1,227.9L220.6,227.9L220.7,227.8Z " data-iso="LIE" data-name="Liechtenstein" data-pop="34761.0"/><path d="M288.3,146.7L288.6,146.7L289.0,146.0L289.2,144.6L288.8,145.5L288.3,146.7Z M288.5,139.5L288.7,141.5L289.9,146.0L290.2,146.7L290.2,146.7L299.5,149.9L299.1,152.0L299.5,154.2L299.7,154.6L300.0,154.2L303.9,156.2L304.3,157.9L304.3,158.1L304.8,158.3L311.6,156.8L315.5,152.8L315.9,147.6L320.1,143.2L319.1,139.2L319.0,138.8L318.7,138.8L313.2,135.4L299.6,134.8L293.6,135.2L288.4,139.0L288.5,139.5Z " data-iso="LTU" data-name="Lithuania" data-pop="3555179.0"/><path d="M200.7,196.3L199.2,196.5L198.0,199.1L198.3,201.6L198.1,201.7L198.3,202.1L199.8,202.7L200.1,202.5L201.1,202.7L201.5,202.9L201.6,202.4L200.6,197.1L200.7,196.6L200.8,196.3L200.7,196.3Z " data-iso="LUX" data-name="Luxembourg" data-pop="491775.0"/><path d="M319.5,120.3L311.0,118.4L307.2,117.0L303.5,119.5L303.5,120.3L302.7,128.1L299.2,127.8L295.2,123.3L290.4,124.1L289.3,126.6L288.0,137.2L288.4,139.0L293.6,135.2L299.6,134.8L313.2,135.4L318.7,138.8L319.0,138.8L319.1,138.7L321.2,136.8L322.6,136.8L326.3,132.7L326.5,132.7L326.5,132.2L322.5,125.1L322.7,123.2L320.2,120.1L319.6,120.2L319.5,120.3Z " data-iso="LVA" data-name="Latvia" data-pop="2231503.0"/><path d="M118.8,331.1L114.1,328.1L112.9,328.6L101.7,326.3L97.7,321.2L96.1,318.4L92.9,318.3L87.4,327.0L82.8,332.2L75.4,335.1L68.9,335.9L59.6,341.2L57.6,345.6L54.1,348.3L50.0,357.1L48.4,365.4L100.6,365.4L101.8,361.3L123.4,361.8L121.6,349.5L122.5,339.3L120.4,331.6L118.8,331.1Z " data-iso="MAR" data-name="Morocco" data-pop="34859364.0"/><path d="M203.7,259.1L203.7,259.0L203.6,258.8L203.3,259.2L203.7,259.1Z " data-iso="MCO" data-name="Monaco" data-pop="32965.0"/><path d="M347.0,235.0L349.5,230.8L351.6,225.1L355.1,223.8L355.5,220.3L353.1,219.2L351.9,216.0L350.6,215.4L348.1,210.0L343.6,209.6L339.0,207.3L331.6,209.8L331.6,210.2L332.2,210.0L335.5,212.5L337.2,215.3L343.1,220.8L344.0,222.5L345.1,230.5L346.3,234.8L346.7,235.3L347.0,235.0Z " data-iso="MDA" data-name="Moldova" data-pop="4320748.0"/><path d="M310.0,271.7L305.9,272.7L305.1,273.0L304.7,273.0L304.7,273.0L299.2,275.2L297.9,277.4L297.8,277.3L297.7,277.4L297.2,280.8L301.5,286.8L301.5,287.0L302.5,286.8L307.4,285.4L315.0,280.8L315.4,280.8L315.5,280.6L315.4,278.1L315.6,277.0L311.5,273.1L310.2,271.8L310.0,271.7Z " data-iso="MKD" data-name="Macedonia" data-pop="2066718.0"/><path d="M286.6,261.9L284.5,263.9L281.8,267.8L282.1,271.7L282.0,271.7L282.0,272.1L282.3,272.5L282.6,272.9L282.9,273.0L283.5,273.4L285.4,274.5L287.7,277.3L288.9,278.0L290.7,270.5L291.3,270.6L293.5,271.0L293.7,271.0L293.7,270.9L293.3,269.3L293.4,269.0L294.6,268.5L295.5,268.2L295.5,267.9L291.2,265.7L290.4,265.3L286.8,262.0L286.8,261.9L286.6,261.9Z " data-iso="MNE" data-name="Montenegro" data-pop="672180.0"/><path d="M189.9,182.8L189.4,182.4L188.6,182.7L185.9,181.9L185.4,182.0L189.4,183.8L189.9,182.8Z M198.9,189.7L199.2,189.9L199.5,189.9L200.7,190.1L201.2,188.6L200.3,187.8L202.7,183.1L201.5,180.2L206.4,179.3L208.4,174.5L206.7,173.6L209.0,171.4L210.4,166.2L209.6,166.0L202.8,164.5L197.6,168.0L188.3,182.1L190.2,182.4L195.6,182.5L196.5,184.4L200.1,186.4L198.9,189.7L198.9,189.7Z " data-iso="NLD" data-name="Netherlands" data-pop="16715999.0"/><path d="M256.4,19.6L256.6,12.7L254.0,20.8L255.2,22.0L257.4,20.5L256.4,19.6Z M262.1,9.4L260.5,13.9L264.0,11.7L262.1,9.4Z M267.7,4.5L267.2,2.8L264.6,8.9L268.2,6.8L267.7,4.5Z M236.9,111.7L238.5,112.0L238.5,106.4L242.6,101.5L243.0,97.2L242.0,93.8L243.8,92.4L244.7,89.4L241.4,85.8L242.2,81.0L242.1,73.3L241.2,70.5L244.3,64.1L246.6,63.0L249.8,63.6L250.6,61.2L248.5,58.1L251.5,52.4L252.6,46.4L252.2,43.1L255.9,41.4L257.3,36.9L259.3,33.1L260.3,25.9L261.7,24.5L264.5,25.0L265.8,19.1L271.5,18.9L271.6,14.3L272.9,14.0L273.4,14.0L273.5,13.6L276.6,11.4L282.5,16.4L285.6,14.8L289.3,16.3L291.2,12.7L291.0,6.2L291.8,4.2L296.5,0.5L301.6,3.3L302.7,5.0L302.1,9.2L302.5,9.5L303.0,9.2L303.3,6.6L307.4,3.3L307.0,0.9L306.5,0.9L301.8,0.0L281.9,0.0L281.2,2.7L276.9,1.6L272.5,5.6L273.3,9.3L271.4,5.3L269.6,10.5L269.6,7.1L267.8,7.6L266.1,10.7L267.0,11.8L263.1,14.1L260.4,18.2L261.3,21.3L258.7,21.2L253.0,26.9L256.1,31.3L252.2,32.1L250.1,34.0L246.3,40.2L245.9,44.2L242.3,50.5L239.6,54.1L240.1,55.7L237.1,57.9L232.9,62.5L230.7,66.0L234.0,67.5L236.7,65.7L236.7,64.2L239.0,63.5L235.5,67.7L232.5,69.2L231.2,66.8L227.5,66.4L225.5,67.3L226.1,69.5L224.1,70.8L218.9,72.3L217.6,74.7L222.2,74.9L219.7,75.9L215.6,75.4L216.3,77.4L209.5,79.1L209.2,80.3L215.2,83.2L208.5,81.5L209.6,85.7L207.8,86.5L209.0,89.3L219.5,89.8L217.1,90.4L207.9,89.6L207.2,93.0L207.7,98.0L209.6,99.1L207.0,99.5L206.3,103.4L212.1,97.2L209.8,101.1L207.1,103.5L205.7,107.4L209.9,107.2L207.2,113.5L207.7,114.5L213.8,120.1L221.9,118.1L228.9,111.4L232.2,109.2L236.9,111.4L236.9,111.7Z " data-iso="NOR" data-name="Norway" data-pop="4676305.0"/><path d="M281.5,155.6L278.3,156.7L276.0,155.2L275.0,153.0L273.0,152.3L264.5,155.4L263.5,156.6L251.4,161.7L251.2,161.5L251.1,161.8L251.2,162.3L252.0,162.4L253.2,162.8L252.8,164.3L251.5,163.7L251.5,172.9L254.5,179.8L253.6,182.2L256.2,187.8L255.0,191.6L255.0,191.7L255.5,191.7L257.9,191.4L262.8,193.8L267.1,198.7L268.5,195.7L272.2,197.0L275.7,199.5L278.4,200.2L280.6,203.6L280.6,203.9L281.3,204.0L282.7,204.8L284.6,203.0L288.6,206.5L290.4,204.4L298.4,203.4L304.0,206.0L304.5,206.0L304.7,206.0L306.5,205.9L304.9,200.7L310.3,192.5L311.8,191.9L312.0,187.3L308.6,182.1L308.1,181.5L307.6,180.6L307.4,175.8L304.8,174.6L308.1,170.2L307.8,166.7L305.4,161.3L304.3,158.1L304.3,157.9L303.9,156.2L300.0,154.2L299.7,154.6L299.6,154.7L296.4,155.0L281.8,155.4L281.5,155.6Z " data-iso="POL" data-name="Poland" data-pop="38482919.0"/><path d="M86.0,254.9L85.6,261.8L81.8,269.8L76.3,276.9L73.5,282.8L74.9,285.2L78.5,287.5L76.9,289.5L74.9,296.5L72.5,299.9L75.8,299.9L80.4,302.5L84.1,301.9L84.8,302.0L85.0,298.0L88.4,294.7L88.3,290.1L90.8,287.0L91.2,284.0L90.5,278.3L92.9,278.9L95.0,276.9L94.7,274.8L97.7,268.1L97.5,266.8L103.1,263.8L99.1,257.6L92.9,256.6L91.4,253.5L87.0,254.1L86.0,254.9Z " data-iso="PRT" data-name="Portugal" data-pop="10707924.0"/><path d="M346.3,234.8L345.1,230.5L344.0,222.5L343.1,220.8L337.2,215.3L335.5,212.5L332.2,210.0L331.6,210.2L331.3,210.3L329.1,213.2L322.9,215.9L321.3,217.2L318.3,215.3L312.7,215.6L308.1,216.5L307.9,216.7L307.8,217.0L302.6,221.6L301.6,225.3L297.5,234.5L292.5,236.1L292.2,236.3L292.7,236.9L297.6,243.1L299.0,243.7L303.7,249.2L306.3,250.3L309.9,248.9L309.5,251.6L310.7,252.7L310.8,252.8L311.3,253.2L312.7,256.6L314.8,255.9L331.0,255.7L337.2,250.6L339.6,249.6L347.0,249.8L348.5,251.2L352.3,251.3L352.2,250.7L352.7,240.6L356.9,239.4L357.1,235.8L357.1,235.2L352.5,235.5L348.6,236.6L347.6,236.2L346.7,235.3L346.3,234.8Z " data-iso="ROU" data-name="Romania" data-pop="22215421.0"/><path d="M288.6,146.7L288.3,146.7L288.1,147.3L285.8,150.2L283.1,153.6L282.6,154.5L281.8,155.4L296.4,155.0L299.6,154.7L299.7,154.6L299.5,154.2L299.1,152.0L299.5,149.9L290.2,146.7L290.3,148.3L286.9,149.8L288.2,147.7L288.6,146.7Z M500.0,0.0L372.3,0.0L373.6,3.6L371.3,7.3L365.8,6.1L364.4,0.0L357.0,0.0L359.5,8.4L361.9,9.0L366.1,18.8L362.8,17.0L357.2,17.4L352.5,30.7L357.7,35.9L352.6,38.3L348.0,38.3L345.3,36.9L342.6,37.2L342.0,39.8L345.5,43.2L348.6,43.1L351.1,46.9L349.9,47.9L344.1,48.4L340.3,46.1L336.6,45.4L332.2,38.2L331.6,32.7L326.2,30.6L322.3,27.4L319.5,24.0L321.6,24.1L329.4,27.2L333.3,27.6L342.1,27.4L346.1,26.6L350.5,22.5L352.3,15.3L347.9,8.6L341.8,7.3L333.2,4.0L325.3,1.6L313.7,2.1L311.6,0.8L314.4,0.0L309.9,0.0L307.7,0.9L307.0,0.9L307.4,3.3L303.3,6.6L303.0,9.2L302.5,9.5L302.3,9.7L303.4,17.6L308.5,20.8L309.5,22.6L307.7,28.8L308.0,29.9L313.1,37.0L314.2,46.5L317.8,52.4L319.2,58.9L325.2,62.3L326.3,70.9L321.2,82.4L316.0,91.0L317.7,90.3L322.7,93.1L325.8,92.3L328.5,94.6L323.5,94.8L322.6,96.9L318.8,98.0L319.2,100.1L319.1,100.8L320.0,101.8L317.7,108.6L320.1,117.4L319.6,120.0L319.6,120.2L320.2,120.1L322.7,123.2L322.5,125.1L326.5,132.2L326.5,132.7L327.4,133.4L333.4,133.3L334.5,135.6L337.2,133.5L342.4,135.0L343.6,142.6L345.7,143.4L347.5,146.6L349.8,147.9L351.6,150.7L357.3,152.7L354.6,157.0L350.8,156.9L355.2,166.6L355.3,166.8L355.4,166.8L357.5,166.8L358.4,164.3L366.0,161.5L371.3,165.8L371.8,171.1L373.4,170.8L382.8,177.1L385.2,175.7L387.8,176.2L398.0,176.6L398.9,174.9L409.4,176.2L411.3,175.8L412.3,179.0L410.7,181.7L411.7,184.9L414.7,187.9L409.2,194.4L406.8,198.2L407.7,202.7L409.2,201.3L413.3,198.9L413.6,201.4L410.0,204.8L410.8,206.1L406.9,208.8L412.5,211.5L408.6,217.3L409.2,219.4L403.1,223.9L408.2,225.2L409.0,226.1L412.5,225.9L415.5,227.8L419.4,227.8L429.5,232.8L430.4,233.0L434.5,230.3L441.6,230.9L450.5,228.3L457.9,230.7L459.5,230.6L462.4,227.4L464.8,226.3L471.4,226.4L472.6,229.2L478.0,229.5L478.2,229.6L478.9,229.4L480.5,229.3L485.8,232.2L490.1,231.3L492.2,223.3L491.4,223.0L480.4,216.0L477.8,208.5L478.3,211.3L475.1,206.9L470.4,205.6L470.4,192.7L473.1,190.0L477.8,181.3L477.5,180.9L472.7,180.8L471.8,179.2L474.2,178.3L471.2,175.7L465.4,171.9L459.5,173.9L453.8,169.9L452.8,168.6L452.9,163.4L450.2,159.6L449.8,157.7L450.2,149.7L450.6,149.3L457.8,152.2L458.5,151.3L455.8,145.1L461.7,128.7L464.0,128.3L469.1,124.6L471.5,125.4L481.3,124.0L487.1,126.6L484.7,123.4L492.4,123.2L493.6,120.8L500.0,114.2L500.0,78.4L500.0,74.9L500.0,0.0Z " data-iso="RUS" data-name="Russia" data-pop="140041247.0"/><path d="M456.6,340.6L455.7,342.1L440.7,352.1L451.3,358.9L449.1,361.3L447.5,365.4L500.0,365.4L500.0,348.5L484.7,343.0L482.6,342.2L458.4,340.4L456.6,340.6Z " data-iso="SAU" data-name="Saudi Arabia" data-pop="28686633.0"/><path d="M283.3,238.7L283.3,238.9L284.3,243.8L286.2,244.9L284.5,248.7L284.6,249.0L284.9,249.0L285.8,252.7L289.2,256.8L287.2,261.4L286.8,261.9L286.8,262.0L290.4,265.3L291.2,265.7L295.5,267.9L295.5,268.2L296.3,267.8L297.2,264.4L300.3,265.1L304.5,272.7L304.7,273.0L305.1,273.0L305.9,272.7L310.0,271.7L310.2,271.8L310.8,271.6L310.6,266.5L312.2,265.9L311.7,261.0L310.6,260.5L310.6,253.0L310.8,252.8L310.7,252.7L309.5,251.6L309.9,248.9L306.3,250.3L303.7,249.2L299.0,243.7L297.6,243.1L292.7,236.9L292.2,236.3L292.0,236.2L286.9,236.9L284.9,238.1L283.5,238.7L283.3,238.7Z " data-iso="SRB" data-name="Serbia" data-pop="7379339.0"/><path d="M304.0,206.0L298.4,203.4L290.4,204.4L288.6,206.5L284.6,203.0L282.7,204.8L281.3,204.0L280.6,203.9L280.4,203.9L276.1,208.5L274.6,209.9L269.2,212.6L269.1,213.4L269.0,213.5L268.5,215.0L268.6,215.5L270.1,218.8L270.6,219.1L270.7,219.1L274.7,221.2L281.0,220.7L282.0,218.1L288.4,216.8L291.1,215.0L292.9,212.3L300.0,213.7L302.5,212.9L302.6,212.8L302.5,211.2L303.5,209.4L303.7,208.1L304.4,206.4L304.5,206.0L304.0,206.0Z " data-iso="SVK" data-name="Slovakia" data-pop="5463046.0"/><path d="M266.8,233.8L265.6,231.8L265.2,230.5L264.0,230.5L263.6,230.7L261.8,232.1L258.2,232.8L248.3,234.1L248.0,234.0L247.8,234.6L245.9,236.0L247.3,239.3L248.1,243.1L247.5,243.6L247.1,243.8L258.5,244.5L258.7,241.7L261.1,240.6L261.1,237.1L266.3,233.8L266.9,234.0L266.8,233.8Z " data-iso="SVN" data-name="Slovenia" data-pop="2005692.0"/><path d="M276.4,122.7L271.7,125.8L272.3,129.9L274.8,128.6L276.4,122.7Z M273.4,14.0L272.9,14.0L271.6,14.3L271.5,18.9L265.8,19.1L264.5,25.0L261.7,24.5L260.3,25.9L259.3,33.1L257.3,36.9L255.9,41.4L252.2,43.1L252.6,46.4L251.5,52.4L248.5,58.1L250.6,61.2L249.8,63.6L246.6,63.0L244.3,64.1L241.2,70.5L242.1,73.3L242.2,81.0L241.4,85.8L244.7,89.4L243.8,92.4L242.0,93.8L243.0,97.2L242.6,101.5L238.5,106.4L238.5,112.0L236.9,111.7L236.4,111.2L235.7,112.8L236.0,117.2L238.1,122.1L238.2,124.6L239.8,127.3L241.6,132.6L244.2,136.5L243.0,139.2L241.9,138.6L244.1,146.6L246.2,147.9L251.0,147.4L251.9,146.2L251.4,142.6L257.2,140.0L260.4,139.8L263.4,130.9L263.8,127.4L263.3,123.7L263.6,117.6L262.6,115.9L265.2,115.4L273.0,108.4L272.7,107.8L266.5,109.3L265.8,108.5L260.7,107.8L266.8,107.1L269.8,108.3L274.1,104.4L273.4,101.0L269.3,97.1L265.6,95.4L264.8,85.5L266.1,85.8L265.4,77.9L269.9,73.8L270.7,71.1L277.0,65.8L281.8,57.6L280.9,48.5L283.6,43.9L289.8,43.7L290.8,43.3L288.1,38.1L288.6,33.8L287.0,31.5L284.2,21.5L283.7,21.5L274.4,14.4L273.4,14.0Z " data-iso="SWE" data-name="Sweden" data-pop="9059651.0"/><path d="M466.0,284.5L453.1,291.6L450.4,294.4L444.1,298.1L436.7,298.3L431.7,302.5L425.3,303.1L425.5,306.3L426.8,308.2L425.2,309.0L424.1,313.1L421.9,312.9L421.6,313.6L421.7,316.4L423.1,317.5L424.5,322.9L425.6,324.8L427.9,323.7L431.3,327.3L430.4,331.3L427.6,334.0L427.8,336.0L427.5,336.4L427.5,337.0L428.5,339.1L428.3,339.6L428.5,342.7L428.5,343.1L429.4,343.1L434.8,345.1L437.7,344.7L448.8,331.9L450.4,329.9L452.3,327.9L462.6,315.9L465.1,310.1L463.8,305.5L463.8,301.9L461.6,293.6L464.1,291.8L466.7,285.6L466.7,285.4L466.0,284.5Z " data-iso="SYR" data-name="Syria" data-pop="20178485.0"/><path d="M228.5,362.8L225.0,358.8L223.0,359.8L220.9,358.3L219.1,351.6L226.8,343.3L226.0,339.5L222.2,335.4L222.5,332.6L227.4,327.5L226.1,325.6L221.2,327.3L216.3,322.4L212.0,323.6L209.4,325.4L207.4,325.8L204.3,329.9L205.3,331.2L204.1,336.6L204.2,343.6L202.4,348.5L197.5,352.4L196.8,355.1L202.3,365.4L229.0,365.4L229.0,365.4L229.4,363.5L229.4,363.3L228.5,362.8Z " data-iso="TUN" data-name="Tunisia" data-pop="10486339.0"/><path d="M421.9,312.9L424.1,313.1L425.2,309.0L426.8,308.2L425.5,306.3L425.3,303.1L431.7,302.5L436.7,298.3L444.1,298.1L450.4,294.4L453.1,291.6L466.0,284.5L466.7,285.4L467.3,285.0L468.6,282.0L476.9,280.1L483.5,278.0L483.9,278.1L483.8,277.9L478.3,272.7L477.5,272.9L477.6,268.2L476.2,267.7L471.1,259.5L473.1,258.6L473.6,254.5L475.3,255.0L475.6,254.9L475.2,254.7L475.0,254.5L474.6,254.2L470.6,252.9L468.3,254.0L461.4,245.8L461.1,245.5L461.1,245.3L454.4,243.1L453.4,245.1L449.1,246.8L446.7,246.9L446.3,248.0L442.4,252.8L436.7,256.1L433.7,255.9L427.0,260.1L417.1,260.6L414.6,259.6L413.0,261.1L408.7,258.1L405.3,259.6L401.7,258.0L401.5,256.7L386.4,262.1L383.8,263.7L373.0,273.5L369.4,273.1L366.4,274.2L362.0,274.4L360.4,276.0L363.0,278.3L366.7,278.3L360.4,280.6L361.2,282.9L355.9,283.8L351.7,283.8L350.1,285.7L348.5,284.6L344.6,285.8L341.0,290.4L341.3,295.6L346.5,293.8L348.0,303.4L344.5,304.0L346.2,307.6L347.4,307.1L351.9,308.5L351.8,312.2L355.4,315.9L353.6,318.1L361.0,316.6L355.4,320.4L359.8,320.0L367.2,318.2L373.7,322.4L379.7,317.4L379.8,314.1L385.3,313.5L388.9,314.5L395.8,318.0L397.9,318.1L404.5,315.0L408.2,309.8L414.8,307.7L420.7,303.2L421.5,303.5L420.6,308.3L422.2,312.0L421.9,312.9Z M339.6,273.6L340.3,273.7L340.4,278.2L340.9,280.5L339.0,283.5L339.2,283.9L344.6,283.6L344.7,284.8L348.9,280.7L349.2,279.3L354.8,277.3L359.7,277.0L354.6,273.5L351.3,270.2L351.3,269.1L347.5,270.0L343.8,269.9L339.5,273.4L339.6,273.6Z " data-iso="TUR" data-name="Turkey" data-pop="76805524.0"/><path d="M355.3,166.8L354.2,167.0L349.6,171.1L350.1,175.9L347.3,175.0L342.4,176.7L340.5,175.0L338.0,176.3L329.9,177.1L328.9,175.9L316.3,176.3L308.2,181.4L308.1,181.5L308.6,182.1L312.0,187.3L311.8,191.9L310.3,192.5L304.9,200.7L306.5,205.9L304.7,206.0L304.5,206.0L304.4,206.4L303.7,208.1L303.5,209.4L302.5,211.2L302.6,212.8L303.2,212.7L304.1,214.1L305.3,214.5L307.7,216.6L307.9,216.7L308.1,216.5L312.7,215.6L318.3,215.3L321.3,217.2L322.9,215.9L329.1,213.2L331.3,210.3L331.6,210.2L331.6,209.8L339.0,207.3L343.6,209.6L348.1,210.0L350.6,215.4L351.9,216.0L353.1,219.2L355.5,220.3L355.1,223.8L351.6,225.1L349.5,230.8L347.0,235.0L346.7,235.3L347.6,236.2L348.6,236.6L352.5,235.5L357.1,235.2L357.1,234.3L356.0,230.4L359.3,228.6L361.4,224.1L361.7,221.2L368.5,218.6L366.5,213.4L370.3,218.7L366.7,220.0L369.9,220.5L370.4,222.1L373.7,223.0L378.2,220.9L381.8,222.3L375.5,229.5L383.1,230.6L383.8,235.9L388.2,236.0L390.1,232.5L394.0,230.5L396.4,226.6L401.9,225.5L400.2,222.0L395.8,224.8L391.3,222.2L390.7,214.8L394.0,211.9L399.9,209.2L403.6,204.3L407.6,202.9L407.7,202.7L406.8,198.2L409.2,194.4L414.7,187.9L411.7,184.9L410.7,181.7L412.3,179.0L411.3,175.8L409.4,176.2L398.9,174.9L398.0,176.6L387.8,176.2L385.2,175.7L382.8,177.1L373.4,170.8L371.8,171.1L371.3,165.8L366.0,161.5L358.4,164.3L357.5,166.8L355.4,166.8L355.3,166.8Z " data-iso="UKR" data-name="Ukraine" data-pop="45700395.0"/><path d="M426.8,347.0L423.3,347.3L423.1,350.4L424.6,353.2L424.5,358.1L428.2,355.8L428.6,355.7L428.5,354.9L428.8,352.8L428.1,350.8L427.9,348.3L427.4,346.9L426.8,347.0Z " data-iso="PSE" data-name="Palestine" data-pop="2514845.0"/></g></svg>
