<?xml version="1.0" encoding="UTF-8"?><!DOCTYPE svg  PUBLIC '-//W3C//DTD SVG 1.1//EN'  'http://www.w3.org/Graphics/SVG/1.1/DTD/svg11.dtd'><svg enable_background="new 0 0 450 451" height="451px" style="stroke-linejoin: round; stroke:#000; fill:#f6f3f0;" version="1.1" viewBox="0 0 450 451" width="450px" xmlns="http://www.w3.org/2000/svg" xmlns:xlink="http://www.w3.org/1999/xlink"><defs><style type="text/css"><![CDATA[path { fill-rule: evenodd; }
#context path { fill: #eee; stroke: #bbb; } ]]></style></defs><metadata><views><view h="451" padding="0.06" w="450"><proj id="laea" lat0="67.8337409533" lon0="26.5577495205"/><bbox h="133.27" w="67.91" x="963.89" y="968.64"/><llbbox lat0="-90" lat1="90" lon0="-180" lon1="180"/></view></views></metadata><g id="context"><path d="M109,424L106,422L107,425L109,424Z M90,416L89,413L87,417L90,416Z M97,409L94,408L93,412L90,414L91,419L97,420L102,414L97,409Z " data-iso="ALD"/><path d="M228,449L216,446L212,446L210,449L228,449Z " data-iso="EST"/><path d="M134,422L135,419L132,420L134,422Z M142,413L140,416L142,420L145,421L145,417L147,416L142,413Z M138,414L138,411L135,411L138,414Z M128,405L123,405L124,407L128,405Z M132,292L130,291L131,294L136,294L136,292L132,292Z M202,223L203,222L201,219L199,220L197,224L200,225L202,223Z M144,51L148,54L148,57L152,61L155,67L163,75L166,77L174,81L179,87L180,92L182,92L187,100L184,103L184,110L185,114L183,119L187,122L185,129L186,136L190,147L189,149L188,157L184,162L184,165L188,175L191,189L193,189L199,191L200,195L203,196L210,201L211,203L209,217L211,223L210,224L210,229L204,228L197,231L191,243L187,248L180,258L178,262L176,262L172,268L162,276L158,277L158,280L155,284L152,286L153,291L149,293L145,295L143,293L138,294L140,301L136,301L136,305L130,311L128,318L128,326L131,330L130,339L129,344L131,347L134,361L133,366L132,365L131,374L128,383L127,400L128,402L131,405L135,403L136,407L137,407L144,411L150,414L149,417L150,419L148,420L147,427L151,427L157,420L158,425L162,430L158,437L162,436L168,430L173,431L186,429L192,426L203,423L206,421L209,420L214,417L215,420L220,417L221,417L220,411L222,411L225,414L229,414L232,405L232,414L240,412L243,409L251,412L257,409L258,409L270,393L275,389L276,386L286,377L294,365L310,340L317,332L321,325L323,321L327,308L326,306L319,295L304,283L297,276L304,262L303,253L296,248L293,240L296,236L295,231L289,230L287,226L286,221L289,218L289,213L286,213L287,208L287,202L289,194L292,194L292,189L289,179L283,166L282,162L277,152L274,146L273,141L276,135L286,116L284,108L279,101L276,95L265,90L263,84L261,76L264,62L261,62L260,61L267,56L268,56L267,54L266,49L273,37L270,28L265,26L253,17L251,13L244,17L242,19L235,18L229,25L224,33L222,42L220,58L219,60L213,64L210,72L208,74L204,71L192,64L189,68L181,71L180,69L170,67L168,61L160,43L154,42L151,46L152,50L145,50L144,51Z " data-iso="FIN"/><path d="M0,149L0,148L0,148L0,149Z M21,81L25,73L19,82L21,81Z M38,68L33,67L26,77L28,76L30,74L31,75L41,70L38,68Z M64,44L62,41L61,46L58,47L57,49L53,47L50,51L51,55L56,57L61,57L64,55L65,51L64,44Z M69,61L73,55L73,42L76,39L80,33L76,32L73,36L68,41L67,43L68,48L67,50L64,58L58,64L50,64L44,69L44,72L49,73L55,69L59,70L60,67L62,70L71,68L73,66L81,60L82,57L81,51L80,50L74,57L72,58L69,61Z M101,23L97,27L99,29L98,31L94,30L88,43L93,45L99,39L100,41L106,40L109,32L106,26L103,25L101,23Z M281,23L280,18L279,18L278,24L281,23Z M151,8L149,2L147,3L145,6L146,8L151,8Z M128,0L126,8L117,18L115,17L112,23L110,23L112,27L120,26L122,21L129,17L134,9L132,8L130,9L128,0Z M135,0L136,7L138,8L141,5L139,2L135,0Z M0,239L4,241L9,235L10,232L10,223L4,217L15,204L24,191L28,177L30,171L31,157L38,157L46,155L48,153L49,145L51,143L58,135L65,127L70,121L69,116L67,109L68,106L73,104L80,91L87,86L90,84L98,91L103,82L105,68L108,67L114,70L130,78L131,79L136,74L132,71L138,63L139,59L137,51L142,51L144,51L145,50L152,50L151,46L154,42L160,43L168,61L170,67L180,69L181,71L189,68L192,64L204,71L208,74L210,72L213,64L219,60L220,58L222,42L224,33L229,25L235,18L242,19L244,17L251,13L253,17L265,26L270,28L273,37L266,49L267,54L268,56L270,54L274,44L284,38L285,31L284,29L291,33L295,33L295,28L294,22L292,22L289,22L288,25L287,21L284,25L279,26L276,24L276,17L276,15L264,11L264,9L280,10L285,9L287,6L294,2L294,0L256,0L255,5L255,0L218,0L216,6L213,10L210,6L213,0L190,0L187,6L186,10L187,14L187,15L183,10L181,0L174,0L165,3L162,2L159,3L162,9L165,10L166,13L167,20L161,15L159,12L157,12L155,17L148,15L146,18L148,32L144,30L139,37L137,37L141,30L144,17L144,13L138,18L136,22L133,31L131,34L134,19L134,18L127,20L124,23L123,27L117,29L117,32L119,37L116,36L114,34L113,31L110,31L108,35L108,42L101,44L98,47L97,52L95,55L90,59L87,59L80,64L81,67L90,69L94,68L92,71L88,72L81,70L77,70L74,79L75,82L73,85L73,90L71,84L71,77L65,77L62,79L59,83L63,84L59,86L57,84L54,84L49,89L49,92L52,95L56,92L54,97L58,106L58,110L52,101L49,99L46,102L39,109L41,111L45,111L54,116L44,114L38,115L36,114L31,117L27,121L23,122L24,128L22,127L16,130L14,132L13,136L11,135L10,140L9,148L13,149L24,147L24,148L17,152L13,151L2,152L5,156L0,159L0,239Z " data-iso="NOR"/><path d="M393,204L392,203L388,206L389,208L394,212L393,204Z M294,22L295,28L295,33L291,33L284,29L285,31L284,38L274,44L270,54L268,56L267,56L260,61L261,62L264,62L261,76L263,84L265,90L276,95L279,101L284,108L286,116L276,135L273,141L274,146L277,152L282,162L283,166L289,179L292,189L292,194L289,194L287,202L287,208L286,213L289,213L289,218L286,221L287,226L289,230L295,231L296,236L293,240L296,248L303,253L304,262L297,276L304,283L319,295L326,306L327,308L323,321L321,325L317,332L310,340L294,365L286,377L276,386L275,389L270,393L258,409L265,407L272,402L275,405L275,410L272,408L275,415L279,417L284,422L291,423L298,421L301,424L303,428L308,431L307,434L297,431L286,430L282,437L281,438L273,437L271,442L270,443L264,440L263,442L264,449L450,449L450,213L441,211L440,210L433,210L423,202L416,200L412,201L411,209L409,212L407,212L408,216L419,229L427,232L432,231L437,233L438,238L441,245L440,248L434,251L431,255L422,253L410,251L405,244L398,239L395,237L392,239L389,239L384,236L380,232L379,226L381,224L378,222L377,214L374,207L368,198L370,196L372,178L370,175L364,168L359,165L349,162L347,162L350,157L342,154L341,148L335,146L328,139L329,136L323,131L318,130L326,130L335,131L334,134L337,139L340,141L353,145L357,145L362,147L363,151L368,147L378,154L381,155L396,156L411,157L418,160L422,161L431,160L435,159L445,155L450,150L450,83L447,82L436,71L437,74L433,75L419,67L413,67L412,64L400,55L381,45L369,39L360,37L357,39L337,38L334,46L330,49L332,45L333,40L333,34L332,33L326,37L324,33L321,32L317,33L313,25L322,27L324,27L325,22L324,21L318,19L316,17L310,14L306,24L303,26L297,23L294,22Z M428,358L428,360L428,364L429,366L429,367L427,370L424,372L420,378L421,380L421,380L420,381L417,380L414,379L412,378L412,377L410,375L409,376L406,377L405,378L404,376L402,375L401,375L399,377L399,377L398,376L398,375L398,372L398,371L399,370L401,370L403,369L404,370L406,371L405,371L403,372L402,372L404,374L405,375L407,375L409,374L411,374L413,376L414,375L414,372L414,370L413,368L412,366L409,362L406,360L403,358L394,354L391,352L389,350L387,349L386,347L384,344L387,346L388,346L389,345L389,344L389,341L388,338L382,333L381,332L381,329L381,328L379,325L377,324L375,323L374,319L375,318L375,318L378,322L382,327L382,328L382,329L383,330L385,332L387,333L388,334L389,334L389,330L389,328L388,325L387,324L388,324L389,324L389,323L388,321L385,318L385,316L385,316L387,318L389,320L391,324L392,325L393,328L394,330L397,334L398,335L399,334L399,333L399,331L397,328L396,327L401,330L403,330L406,327L406,326L406,322L405,321L402,317L401,315L399,314L396,314L393,311L392,311L390,313L389,312L388,312L386,309L384,304L382,302L382,301L383,300L385,302L387,303L391,304L394,306L399,309L402,311L403,310L405,312L408,314L410,316L410,318L411,320L411,323L410,329L409,332L410,333L413,337L414,341L417,344L419,348L424,354L428,357L428,358Z " data-iso="RUS"/><path d="M64,442L67,440L65,439L64,442Z M191,189L188,175L184,165L184,162L188,157L189,149L190,147L186,136L185,129L187,122L183,119L185,114L184,110L184,103L187,100L182,92L180,92L179,87L174,81L166,77L163,75L155,67L152,61L148,57L148,54L144,51L142,51L137,51L139,59L138,63L132,71L136,74L131,79L130,78L114,70L108,67L105,68L103,82L98,91L90,84L87,86L80,91L73,104L68,106L67,109L69,116L70,121L65,127L58,135L51,143L49,145L48,153L46,155L38,157L31,157L30,171L28,177L24,191L15,204L4,217L10,223L10,232L9,235L4,241L0,239L0,449L62,449L64,448L63,445L54,447L50,447L48,449L36,447L34,443L31,442L29,438L25,439L22,437L13,436L11,434L20,434L23,431L26,434L28,432L31,434L33,434L39,438L39,434L42,437L45,437L45,435L48,437L47,442L50,445L60,441L68,435L72,432L74,429L73,424L71,418L66,414L67,410L58,398L57,395L51,396L45,391L43,388L44,384L44,376L46,357L46,352L48,349L48,346L53,348L53,340L57,329L58,327L56,321L57,314L59,316L65,316L70,312L68,300L71,304L73,305L75,302L79,301L80,297L77,296L81,294L87,288L92,288L96,284L99,279L101,282L102,278L103,279L107,277L110,275L115,273L120,269L126,266L132,253L137,249L142,242L136,227L138,225L145,215L146,209L146,203L148,203L153,201L152,199L156,195L158,196L161,186L164,188L168,185L170,189L183,188L187,190L191,189Z " data-iso="SWE"/></g><g fill="red" fill-opacity="0.35" id="regions"><path d="M207,199L212,193L214,192L219,192L225,190L226,194L237,194L242,192L247,184L249,185L251,184L253,189L260,190L265,185L263,183L264,182L268,182L268,179L267,178L269,174L267,170L266,165L268,161L277,164L282,163L282,161L278,153L274,146L273,143L278,130L286,117L286,111L281,105L275,95L265,91L261,77L266,63L261,62L268,55L266,52L266,48L271,41L271,32L269,28L259,23L258,21L255,20L251,12L247,13L243,18L238,19L237,18L230,22L227,28L225,28L224,30L224,33L223,36L222,41L221,45L220,48L221,57L218,62L215,62L212,65L210,72L207,75L204,71L199,69L193,64L191,65L188,69L186,69L179,69L176,69L172,67L170,66L169,62L167,59L167,57L155,42L152,44L151,46L152,50L145,52L147,54L148,55L147,57L151,60L155,64L156,68L157,68L159,71L162,72L164,76L173,79L175,81L176,83L178,85L180,90L184,97L187,99L186,102L184,103L184,108L183,120L188,122L188,125L187,127L185,128L184,132L186,139L190,145L188,150L188,157L184,163L185,172L188,175L190,180L190,183L192,191L199,187L198,191L200,194L200,197L204,196L207,198L207,199Z " data-c2="FI06" data-fips="" data-fips-="" data-iso3="FIN" data-name="Lapland" data-p=""/><path d="M222,288L221,289L212,284L210,282L207,282L205,287L204,287L201,289L199,291L198,300L194,299L191,301L191,302L190,309L192,311L191,312L194,320L193,325L191,328L190,327L186,329L184,331L183,332L183,333L183,334L188,339L189,340L193,339L195,342L196,346L199,345L201,351L201,363L198,362L200,369L200,370L201,371L209,369L211,366L212,361L218,359L219,356L223,362L226,363L227,364L228,364L228,364L229,356L228,351L229,349L226,344L228,340L232,338L234,338L235,330L235,329L235,329L231,326L233,323L230,316L228,317L223,309L227,307L226,306L228,305L225,300L225,298L224,292L225,288L224,288L222,288Z " data-c2="FI03" data-fips="" data-fips-="" data-iso3="FIN" data-name="Central Finland" data-p=""/><path d="M265,276L262,276L260,274L254,269L247,266L238,264L235,265L228,271L227,282L226,284L225,287L224,288L225,288L224,292L225,298L225,300L228,305L226,306L227,307L223,309L228,317L230,316L233,323L231,326L235,329L235,329L236,330L238,328L240,329L244,329L249,327L254,332L256,335L260,337L262,335L266,332L265,330L267,329L268,324L272,322L272,321L272,320L273,320L272,317L275,313L280,312L276,303L271,297L273,292L273,290L271,288L270,284L270,279L266,275L265,275L265,276Z " data-c2="FI04" data-fips="" data-fips-="" data-iso3="FIN" data-name="Eastern Finland" data-p=""/><path d="M238,264L247,266L254,269L260,274L262,276L265,276L265,275L267,272L268,269L276,271L289,269L292,275L296,274L296,273L299,272L301,267L305,261L304,253L302,252L295,248L293,239L296,238L295,231L288,229L286,223L287,219L290,217L289,213L285,212L287,208L287,202L287,201L279,201L278,203L274,204L267,211L259,213L257,214L255,219L253,219L246,220L245,221L247,226L247,230L245,231L243,231L239,233L236,238L234,238L232,242L231,242L228,246L230,247L231,250L235,252L236,255L237,263L238,264Z " data-c2="FI08" data-fips="" data-fips-="" data-iso3="FIN" data-name="Oulu" data-p=""/><path d="M203,221L200,220L198,221L198,224L200,224L200,225L202,224L201,222L203,221Z M207,199L210,201L210,208L211,209L209,217L211,219L213,225L208,225L211,230L209,231L208,228L199,230L193,238L193,240L190,245L188,246L185,252L185,254L184,253L181,256L181,257L186,261L188,266L194,272L196,277L203,286L204,287L205,287L207,282L210,282L212,284L221,289L222,288L224,288L225,287L226,284L227,282L228,271L235,265L238,264L237,263L236,255L235,252L231,250L230,247L228,246L231,242L232,242L234,238L236,238L239,233L243,231L245,231L247,230L247,226L245,221L246,220L253,219L255,219L257,214L259,213L267,211L274,204L278,203L279,201L287,201L287,201L288,198L287,195L291,194L291,186L288,175L284,169L282,164L282,163L277,164L268,161L266,165L267,170L269,174L267,178L268,179L268,182L264,182L263,183L265,185L260,190L253,189L251,184L249,185L247,184L242,192L237,194L226,194L225,190L219,192L214,192L212,193L207,199L207,199Z " data-c2="FI08" data-fips="" data-fips-="" data-iso3="FIN" data-name="Northern Ostrobothnia" data-p=""/><path d="M203,286L196,277L194,272L188,266L186,261L181,257L181,257L178,260L179,262L175,261L173,267L167,271L167,272L175,274L176,273L180,277L177,280L178,284L179,289L179,290L179,291L181,293L186,296L188,299L191,301L194,299L198,300L199,291L201,289L204,287L203,286Z " data-c2="FI12" data-fips="" data-fips-="" data-iso3="FIN" data-name="Central Ostrobothnia" data-p=""/><path d="M131,303L130,302L130,304L131,303Z M130,290L130,293L132,295L136,294L134,292L130,290Z M148,290L147,291L148,292L148,290Z M152,291L149,290L151,292L152,291Z M135,289L133,289L134,290L135,289Z M149,288L147,288L146,289L149,288Z M163,272L161,273L162,274L163,272Z M130,346L131,345L132,344L134,343L136,344L136,343L137,338L139,335L137,324L137,319L141,315L140,314L141,309L145,312L149,314L151,312L154,308L158,301L159,298L158,297L158,292L162,290L168,290L173,285L176,285L178,289L179,290L179,289L178,284L177,280L180,277L176,273L175,274L167,272L167,272L165,274L164,274L162,278L161,276L159,275L158,280L156,281L156,284L153,284L155,287L151,286L154,289L150,294L149,294L146,297L145,296L145,293L138,295L140,302L138,301L136,302L136,305L134,307L132,308L128,315L128,321L128,327L131,330L132,335L128,344L130,346L130,346Z " data-c2="FI12" data-fips="" data-fips-="" data-iso3="FIN" data-name="Ostrobothnia" data-p=""/><path d="M178,289L176,285L173,285L168,290L162,290L158,292L158,297L159,298L158,301L154,308L151,312L149,314L145,312L141,309L140,314L141,315L137,319L137,324L139,335L137,338L136,343L136,344L142,345L150,340L158,334L160,335L162,335L165,334L169,330L173,331L174,330L181,327L182,331L183,332L184,331L186,329L190,327L191,328L193,325L194,320L191,312L192,311L190,309L191,302L191,301L188,299L186,296L181,293L179,291L179,290L178,289Z " data-c2="FI12" data-fips="" data-fips-="" data-iso3="FIN" data-name="Southern Ostrobothnia" data-p=""/><path d="M227,364L226,363L223,362L219,356L218,359L212,361L211,366L209,369L201,371L200,370L199,370L198,370L199,375L199,376L199,376L202,379L205,379L206,385L206,388L204,393L203,397L203,397L205,396L207,399L208,399L211,401L211,402L212,402L219,401L223,402L225,400L225,400L225,399L223,397L224,393L222,391L223,390L222,386L224,383L227,383L230,379L231,378L231,377L227,374L227,373L227,366L228,365L228,364L227,364Z " data-c2="FI02" data-fips="" data-fips-="" data-iso3="FIN" data-name="Päijänne Tavastia" data-p=""/><path d="M203,397L204,393L206,388L206,385L205,379L202,379L199,376L199,376L199,376L197,378L195,377L187,381L185,382L177,386L178,389L170,389L166,387L164,388L165,389L166,390L166,392L163,393L163,398L166,399L170,399L171,401L175,403L178,403L179,403L188,406L191,407L192,403L195,403L201,403L202,403L204,401L203,400L204,399L203,397L203,397L203,397Z " data-c2="" data-fips="" data-fips-="" data-iso3="FIN" data-name="Tavastia Proper" data-p=""/><path d="M182,331L181,327L174,330L173,331L169,330L165,334L162,335L160,335L160,336L160,339L158,340L156,344L154,345L158,351L158,356L156,357L155,363L154,364L153,371L153,373L156,377L158,378L160,385L160,386L160,386L162,386L163,386L164,387L164,388L166,387L170,389L178,389L177,386L185,382L187,381L195,377L197,378L199,376L199,376L199,375L198,370L199,370L200,370L200,369L198,362L201,363L201,351L199,345L196,346L195,342L193,339L189,340L188,339L183,334L183,333L183,332L182,331Z " data-c2="" data-fips="" data-fips-="" data-iso3="FIN" data-name="Pirkanmaa" data-p=""/><path d="M232,415L234,414L231,414L232,415Z M231,378L230,379L227,383L224,383L222,386L223,390L222,391L224,393L223,397L225,399L225,400L226,400L228,403L228,403L232,407L233,405L234,404L232,408L231,411L232,413L234,412L235,414L240,411L241,413L242,408L245,410L246,409L251,412L252,410L253,411L254,410L256,411L261,404L262,403L258,399L255,398L252,398L249,395L246,394L245,387L245,384L245,383L241,383L239,378L234,381L233,378L231,378Z " data-c2="FI05" data-fips="" data-fips-="" data-iso3="FIN" data-name="Southern Finland" data-p=""/><path d="M275,405L273,404L273,405L275,405Z M303,352L303,352L303,352L301,352L292,358L291,360L287,363L284,366L278,366L276,369L272,369L265,374L252,375L245,373L243,374L244,376L246,376L248,379L248,383L245,383L245,384L245,387L246,394L249,395L252,398L255,398L258,399L262,403L265,399L268,395L274,391L280,383L284,380L287,374L296,363L297,361L300,358L303,352Z " data-c2="FI05" data-fips="" data-fips-="" data-iso3="FIN" data-name="South Karelia" data-p=""/><path d="M293,356L293,353L292,350L293,348L290,344L288,340L287,336L285,331L281,327L280,326L275,321L272,320L272,321L272,322L268,324L267,329L265,330L266,332L262,335L260,337L256,335L254,332L249,327L244,329L240,329L238,328L236,330L235,329L235,330L234,338L232,338L228,340L226,344L229,349L228,351L229,356L228,364L228,364L228,365L227,366L227,373L227,374L231,377L231,378L233,378L234,381L239,378L241,383L245,383L248,383L248,379L246,376L244,376L243,374L245,373L252,375L265,374L272,369L276,369L278,366L284,366L287,363L291,360L292,358L293,356Z " data-c2="FI07" data-fips="" data-fips-="" data-iso3="FIN" data-name="Southern Savonia" data-p=""/><path d="M265,275L266,275L270,279L270,284L271,288L273,290L273,292L271,297L276,303L280,312L275,313L272,317L273,320L272,320L275,321L280,326L281,327L285,331L287,336L288,340L290,344L293,348L292,350L293,353L293,356L292,358L301,352L303,352L303,352L303,352L306,346L314,335L316,333L322,324L324,318L325,314L327,307L319,294L315,292L312,288L305,285L303,282L300,280L295,274L296,274L292,275L289,269L276,271L268,269L267,272L265,275Z " data-c2="FI09" data-fips="" data-fips-="" data-iso3="FIN" data-name="North Karelia" data-p=""/><path d="M156,428L155,426L156,426L156,428Z M147,426L145,428L145,426L147,426Z M137,423L136,422L137,422L137,423Z M130,421L129,422L128,420L130,421Z M144,422L144,420L146,420L144,422Z M125,419L127,419L124,419L125,419Z M143,420L142,420L144,418L143,420Z M130,416L129,418L129,417L130,416Z M155,421L155,424L153,429L150,428L150,427L148,428L146,422L157,417L158,417L155,421Z M137,415L137,416L136,415L137,415Z M145,416L141,417L140,415L143,415L145,416Z M147,414L145,415L145,414L147,414Z M143,414L142,413L144,413L143,414Z M125,411L125,411L124,411L125,411Z M138,411L138,414L135,412L134,411L137,409L138,411Z M133,408L132,407L133,406L133,408Z M125,407L124,405L123,403L125,407Z M128,405L127,407L126,406L128,405Z M125,403L124,400L124,400L125,403Z M126,390L126,388L127,388L126,390Z M164,388L165,389L166,390L166,392L163,393L163,398L166,399L170,399L171,401L175,403L178,403L178,404L177,409L174,411L175,411L174,417L171,419L172,420L165,423L165,422L161,425L159,425L159,424L158,424L156,423L158,419L158,416L153,419L149,420L152,417L151,417L150,413L148,412L145,412L141,409L134,408L134,403L128,403L126,399L128,395L126,391L128,389L127,385L129,384L129,383L130,385L133,384L139,387L140,391L143,391L145,390L151,389L152,388L157,384L159,385L160,386L160,386L162,386L163,386L164,387L164,388Z " data-c2="FI10" data-fips="" data-fips-="" data-iso3="FIN" data-name="Finland Proper" data-p=""/><path d="M129,377L128,377L128,378L129,377Z M160,335L158,334L150,340L142,345L136,344L134,343L132,344L131,345L130,346L130,346L133,359L136,364L131,366L132,369L132,377L129,383L129,383L130,385L133,384L139,387L140,391L143,391L145,390L151,389L152,388L157,384L159,385L160,386L160,385L158,378L156,377L153,373L153,371L154,364L155,363L156,357L158,356L158,351L154,345L156,344L158,340L160,339L160,336L160,335Z " data-c2="FI10" data-fips="" data-fips-="" data-iso3="FIN" data-name="Satakunta" data-p=""/><path d="M218,423L218,422L217,422L218,423Z M213,422L214,421L212,419L213,422Z M225,400L223,402L219,401L212,402L211,402L211,402L209,404L211,407L209,408L209,414L207,413L204,410L204,421L204,421L210,421L213,417L214,416L215,421L219,421L218,415L222,419L223,418L221,413L224,415L226,414L228,416L231,413L230,410L232,407L228,403L228,403L226,400L225,400L225,400Z " data-c2="FI11" data-fips="" data-fips-="" data-iso3="FIN" data-name="Eastern Uusimaa" data-p=""/><path d="M177,432L176,431L176,431L177,432Z M203,397L203,397L204,399L203,400L204,401L202,403L201,403L195,403L192,403L191,407L188,406L179,403L178,403L178,404L177,409L174,411L175,411L174,417L171,419L172,420L165,423L165,422L161,425L159,425L159,425L159,427L164,428L160,432L163,432L165,428L164,431L161,434L156,435L157,437L163,436L163,434L167,431L175,432L178,430L187,427L185,430L189,430L192,425L197,424L200,422L200,424L204,423L204,422L204,421L204,410L207,413L209,414L209,408L211,407L209,404L211,402L211,402L211,401L208,399L207,399L205,396L203,397Z " data-c2="FI11" data-fips="" data-fips-="" data-iso3="FIN" data-name="Southern Finland" data-p=""/></g></svg>