<?xml version="1.0" encoding="UTF-8"?><!DOCTYPE svg  PUBLIC '-//W3C//DTD SVG 1.1//EN'  'http://www.w3.org/Graphics/SVG/1.1/DTD/svg11.dtd'><svg enable_background="new 0 0 450 301" height="301px" style="stroke-linejoin: round; stroke:#000; fill:#f6f3f0;" version="1.1" viewBox="0 0 450 301" width="450px" xmlns="http://www.w3.org/2000/svg" xmlns:xlink="http://www.w3.org/1999/xlink"><defs><style type="text/css"><![CDATA[path { fill-rule: evenodd; }
#context path { fill: #eee; stroke: #bbb; } ]]></style></defs><metadata><views><view h="301.0" padding="0.06" w="450"><proj id="laea" lat0="-17.9116970759" lon0="178.289753188"/><bbox h="124.32" w="93.19" x="952.55" y="927.99"/><llbbox lat0="-90" lat1="90" lon0="-180" lon1="180"/></view></views></metadata><g id="context"><path d="M233,205L225,205L220,210L223,209L227,206L229,207L233,206L233,205Z M257,179L256,174L254,177L257,179Z M325,175L323,173L322,174L325,175Z M227,157L226,156L217,158L214,158L208,160L202,165L203,168L198,173L198,175L204,180L209,181L215,183L223,183L228,180L238,178L234,164L230,162L227,157Z M259,157L260,155L258,154L259,157Z M197,151L199,148L196,149L197,151Z M276,145L276,140L274,143L276,145Z M276,144L279,142L281,139L279,137L276,140L276,144Z M276,122L270,123L268,123L261,125L258,128L243,133L242,135L237,136L235,135L233,140L236,140L239,145L249,141L253,138L256,138L257,139L260,140L274,139L273,136L274,132L272,132L263,139L263,135L265,132L269,130L276,122Z " data-iso="FJI"/><path d="M415,277L413,280L415,282L415,277Z M408,273L404,270L403,271L408,276L408,273Z M445,199L442,199L444,201L445,199Z " data-iso="TON"/><path d="M332,68L328,66L329,67L332,68Z " data-iso="WLF"/></g><g fill="red" fill-opacity="0.35" id="regions"><path d="M214,183L220,184L226,181L235,180L238,178L236,175L237,172L236,166L232,162L232,162L230,166L219,166L218,171L219,174L218,176L214,175L214,179L213,182L214,183Z " data-fips="FJ01" data-fips-="" data-iso3="FJI" data-name="Central"/><path d="M230,203L228,204L224,207L221,207L218,209L222,210L224,210L224,207L228,206L229,207L233,206L233,204L230,203Z M273,194L274,192L271,193L273,194Z M256,174L254,174L254,177L256,179L257,177L256,174Z M324,176L324,173L322,173L324,176Z M242,168L243,165L242,164L242,168Z M259,157L260,153L258,154L259,157Z " data-fips="FJ02" data-fips-="" data-iso3="FJI" data-name="Eastern"/><path d="M274,146L276,145L276,140L272,145L274,146Z M279,142L281,140L279,137L277,144L279,142Z M273,124L275,121L272,123L268,122L265,124L264,124L261,125L256,129L253,129L246,130L245,132L243,133L242,135L241,134L238,136L235,135L233,141L237,140L239,146L242,145L243,142L248,143L249,140L254,137L257,139L256,140L260,141L264,140L273,137L271,136L274,131L274,131L268,135L266,137L261,139L263,135L273,124Z " data-fips="FJ03" data-fips-="" data-iso3="FJI" data-name="Northern"/><path d="M213,182L214,179L214,175L218,176L219,174L218,171L219,166L230,166L232,162L231,162L226,156L215,158L214,159L209,159L209,161L202,166L203,168L201,171L198,172L198,175L200,179L210,182L213,182Z M199,148L197,148L196,150L199,148Z M204,140L206,138L203,140L204,140Z " data-fips="FJ05" data-fips-="" data-iso3="FJI" data-name="Western"/></g></svg>