<?xml version="1.0" encoding="UTF-8"?><!DOCTYPE svg  PUBLIC '-//W3C//DTD SVG 1.1//EN'  'http://www.w3.org/Graphics/SVG/1.1/DTD/svg11.dtd'><svg enable_background="new 0 0 450 451" height="451px" style="stroke-linejoin: round; stroke:#000; fill: none;" version="1.1" viewBox="0 0 450 451" width="450px" xmlns="http://www.w3.org/2000/svg" xmlns:xlink="http://www.w3.org/1999/xlink"><defs><style type="text/css"><![CDATA[path { fill-rule: evenodd; }]]></style></defs><metadata><views><view h="451" padding="0.06" w="450"><proj id="laea" lat0="46.1" lon0="2.0"/><bbox h="143.91" w="145.97" x="927.02" y="926.83"/></view></views></metadata><g class="" id="context"><path d="M217,364L217,361L213,360L210,361L209,361L209,363L213,367L216,365L217,365L217,364Z " data-iso="AND"/><path d="M314,48L317,47L319,49L316,49L321,49L321,50L327,54L326,56L330,60L331,65L327,68L326,72L325,73L325,73L322,71L319,74L316,85L321,91L319,95L319,95L317,95L312,97L306,90L297,87L295,87L293,80L295,73L287,80L283,81L278,81L278,77L277,74L278,70L275,67L266,67L264,62L261,61L257,60L253,52L250,51L247,52L243,51L239,45L239,44L238,38L248,32L254,28L257,27L263,31L274,32L278,26L280,27L284,23L288,25L290,22L293,25L297,23L299,27L304,30L309,30L311,32L316,35L315,42L313,45L314,48L314,48Z " data-iso="BEL"/><path d="M369,166L366,168L362,173L357,171L355,171L352,176L353,180L346,189L340,194L340,200L334,206L331,213L333,215L331,220L329,221L333,224L337,219L336,216L341,212L350,213L352,218L351,222L357,229L358,231L359,231L361,232L373,228L378,229L384,224L388,213L392,208L394,210L394,214L400,221L405,221L404,225L409,230L411,230L410,223L415,212L415,205L416,204L420,207L421,210L425,211L432,208L436,212L438,212L437,207L435,204L436,198L437,198L443,200L445,199L444,187L444,186L441,183L437,188L433,188L429,186L425,183L419,182L418,181L421,170L421,167L419,165L418,165L409,160L397,160L394,158L389,159L390,162L393,162L389,165L384,165L371,167L369,166Z " data-iso="CHE"/><path d="M321,49L321,50L327,54L326,56L330,60L331,65L327,68L326,72L325,73L325,74L325,76L329,82L335,86L333,92L332,95L332,98L333,97L339,104L343,108L349,107L350,109L354,109L361,107L370,111L378,113L378,116L372,126L367,145L367,148L368,166L369,166L371,167L384,165L389,165L393,162L390,162L389,159L394,158L397,160L409,160L418,165L419,164L426,163L431,166L432,168L435,169L436,172L437,172L442,162L447,161L450,162L450,0L336,0L338,1L336,4L331,6L326,7L323,6L318,9L318,11L324,21L324,26L322,31L324,34L320,37L318,38L318,40L322,43L321,49Z " data-iso="DEU"/><path d="M259,368L252,366L250,367L241,371L221,367L217,365L216,365L213,367L209,363L209,361L207,358L191,352L187,353L187,357L175,356L168,357L161,352L153,353L149,348L143,347L134,342L133,341L129,342L130,335L122,332L120,328L119,328L115,330L109,331L105,330L98,327L90,325L86,328L75,324L70,321L66,322L63,321L59,322L51,324L45,323L29,318L24,316L14,314L9,311L3,312L0,312L0,449L176,449L184,437L188,436L193,433L190,429L188,429L197,420L202,418L213,415L227,411L234,404L254,393L260,386L260,381L257,378L258,374L262,373L260,370L259,368Z " data-iso="ESP"/><path d="M434,344L432,337L429,339L429,348L424,348L416,353L413,355L411,360L413,366L410,368L411,371L414,373L416,381L415,384L420,387L419,390L421,394L430,399L432,395L435,385L434,377L438,368L436,353L433,350L434,344Z M141,234L138,230L136,231L140,237L141,234Z M236,39L223,42L216,49L215,52L214,69L215,70L211,76L207,80L199,83L191,85L180,91L179,98L186,100L179,102L175,105L171,106L163,103L156,103L152,102L147,102L144,94L145,90L142,89L137,91L130,90L131,97L133,104L136,108L136,123L139,130L129,130L127,127L124,131L122,129L113,128L107,132L104,129L100,122L94,120L88,120L82,124L78,124L73,123L61,126L56,128L55,135L60,135L66,136L67,138L60,137L59,138L65,143L57,146L55,147L61,150L66,157L70,156L74,157L90,163L93,163L95,166L98,167L104,167L102,171L110,171L111,173L108,176L109,179L113,180L122,180L128,184L121,181L119,181L116,185L121,190L119,194L126,210L136,217L142,219L143,233L145,240L140,239L141,242L148,248L152,254L154,265L153,265L151,257L143,248L141,255L139,262L137,281L140,277L142,280L139,281L137,285L133,305L129,323L125,327L120,328L122,332L130,335L129,342L133,341L134,342L143,347L149,348L153,353L161,352L168,357L175,356L187,357L187,353L191,352L207,358L209,361L210,361L213,360L217,361L217,364L217,365L221,367L241,371L250,367L252,366L259,368L259,366L256,362L254,352L254,349L260,339L274,328L278,324L282,323L285,326L300,331L310,328L310,331L317,331L319,335L327,337L331,340L337,340L339,341L344,338L352,335L359,325L368,317L370,315L373,313L374,312L374,312L374,313L376,312L375,308L380,299L378,296L372,298L360,293L356,285L361,277L360,272L353,269L349,262L355,261L361,257L362,250L359,247L355,241L353,239L352,235L356,233L358,231L357,229L351,222L352,218L350,213L341,212L336,216L337,219L333,224L329,221L331,220L333,215L331,213L334,206L340,200L340,194L346,189L353,180L352,176L355,171L357,171L362,173L366,168L369,166L368,166L367,148L367,145L372,126L378,116L378,113L370,111L361,107L354,109L350,109L349,107L343,108L339,104L333,97L332,98L331,97L327,97L326,98L319,96L319,95L317,95L312,97L306,90L297,87L295,87L293,80L295,73L287,80L283,81L278,81L278,77L277,74L278,70L275,67L266,67L264,62L261,61L257,60L253,52L250,51L247,52L243,51L239,45L239,44L238,38L236,39Z " data-iso="FRA"/><path d="M151,52L145,49L140,53L145,56L151,52Z M55,0L56,3L62,11L71,7L75,8L81,11L78,14L86,14L89,16L93,21L99,23L107,18L113,16L121,11L116,16L109,23L105,29L103,30L86,28L74,35L69,36L67,44L59,50L58,52L47,62L41,63L39,66L41,68L44,67L49,71L51,71L53,67L62,62L67,60L72,60L82,64L84,66L87,66L89,63L92,54L95,51L105,49L107,49L115,53L118,54L120,53L128,54L128,50L132,50L140,50L145,47L143,44L146,46L158,50L166,48L172,48L182,50L184,50L193,46L196,44L200,45L202,40L210,36L211,28L210,28L199,28L194,27L190,22L197,21L199,20L199,15L196,14L200,11L208,10L207,6L209,5L215,0L55,0Z " data-iso="GBR"/><path d="M405,414L406,411L405,412L405,414Z M450,428L446,419L443,412L440,408L433,405L432,403L429,408L425,409L421,416L414,420L411,421L407,421L405,419L403,424L404,429L409,434L411,440L413,442L413,449L449,446L447,440L450,428Z M444,187L445,199L443,200L437,198L436,198L435,204L437,207L438,212L436,212L432,208L425,211L421,210L420,207L416,204L415,205L415,212L410,223L411,230L409,230L404,225L405,221L400,221L394,214L394,210L392,208L388,213L384,224L378,229L373,228L361,232L359,231L358,231L356,233L352,235L353,239L355,241L359,247L362,250L361,257L355,261L349,262L353,269L360,272L361,277L356,285L360,293L372,298L378,296L380,299L375,308L376,312L382,310L390,307L392,305L397,296L403,288L409,284L413,284L421,287L423,287L436,294L445,296L449,299L450,301L450,187L445,188L444,187Z " data-iso="ITA"/><path d="M125,107L120,105L120,108L125,107Z " data-iso="JEY"/><path d="M325,73L322,71L319,74L316,85L321,91L319,95L319,95L319,96L326,98L327,97L331,97L332,98L332,95L333,92L335,86L329,82L325,76L325,74L325,73L325,73Z " data-iso="LUX"/><path d="M374,313L374,312L374,312L373,313L374,313Z " data-iso="MCO"/><path d="M275,27L273,26L270,28L263,26L259,27L257,27L263,31L274,32L278,26L275,27Z M271,13L267,13L266,16L268,15L271,17L274,17L271,13Z M278,26L280,27L284,23L288,25L290,22L293,25L297,23L299,27L304,30L309,30L311,32L316,35L315,42L313,45L314,48L314,48L315,49L316,49L321,49L322,43L318,40L318,38L320,37L324,34L322,31L324,26L324,21L318,11L318,9L323,6L326,7L331,6L336,4L338,1L336,0L277,0L271,11L275,16L277,18L272,19L276,24L270,20L266,19L259,21L261,23L268,26L273,24L276,26L278,26Z " data-iso="NLD"/></g><g class="" id="regions"><path d="M275,221L273,222L272,224L272,227L270,239L273,245L276,248L278,251L276,256L280,256L286,254L289,259L291,262L290,265L289,264L289,268L287,268L283,274L280,275L276,279L276,279L276,280L279,290L281,295L287,296L289,295L294,294L296,296L297,296L297,295L302,298L308,295L311,296L311,297L320,301L322,301L323,299L325,300L325,296L323,293L319,292L318,290L320,290L319,288L322,288L323,284L327,281L329,277L331,277L336,273L339,273L343,271L342,268L338,266L339,263L341,263L343,264L345,265L346,263L349,262L349,262L355,261L357,258L361,257L361,253L363,250L358,246L354,240L352,239L352,235L356,233L357,228L353,226L352,218L350,216L342,212L336,217L337,221L333,224L330,224L330,221L333,218L334,216L333,214L331,213L327,219L323,219L321,217L318,220L312,214L312,213L310,212L308,211L302,211L299,223L297,224L296,221L294,221L288,223L286,224L277,225L275,221L275,221Z " data-fips="FRB9" data-fips-="" data-iso3="FRA" data-name="Rhône-Alpes" data-p=""/><path d="M180,102L176,105L170,106L165,104L155,103L152,102L148,103L146,103L146,100L143,95L145,93L144,90L142,89L138,91L130,92L129,95L131,102L137,108L135,108L135,114L137,115L135,122L137,126L138,129L135,129L135,129L138,136L144,134L147,135L147,135L149,136L152,136L154,137L158,137L166,136L169,134L170,134L173,139L173,141L176,140L179,138L182,137L184,140L185,143L192,147L194,149L195,149L195,148L195,146L199,140L199,136L195,132L195,130L195,130L194,127L190,123L185,121L186,113L185,107L184,107L183,101L180,102Z " data-fips="FR99" data-fips-="" data-iso3="FRA" data-name="Basse-Normandie" data-p=""/><path d="M93,177L90,175L90,178L94,178L93,177Z M110,174L113,173L115,172L117,173L119,171L121,166L126,165L131,164L137,161L142,163L145,155L147,155L148,152L146,144L147,143L147,137L147,135L147,135L144,134L138,136L135,129L135,130L130,130L128,128L129,127L126,127L124,129L126,133L122,129L119,131L116,129L116,127L114,128L112,128L108,132L106,132L104,127L102,126L101,123L98,119L95,120L95,119L89,120L87,119L85,123L85,125L78,124L78,126L75,123L67,125L66,124L64,125L60,125L59,127L55,128L54,134L59,135L64,134L62,137L69,138L63,138L59,139L60,142L61,140L65,142L65,146L64,145L54,147L56,148L62,152L62,157L66,157L69,154L71,155L74,155L76,158L83,160L86,162L91,164L93,163L92,161L92,165L94,168L105,167L102,171L108,171L110,173L110,174Z " data-fips="FRA2" data-fips-="" data-iso3="FRA" data-name="Bretagne" data-p=""/><path d="M138,230L136,229L136,231L139,235L139,237L141,234L138,230Z M134,221L131,220L139,224L139,223L134,221Z M175,188L174,187L169,191L169,190L159,190L155,193L149,193L151,195L154,202L156,208L156,211L158,217L153,219L150,218L143,219L143,219L143,221L141,222L144,229L142,238L146,241L144,240L140,241L149,249L153,257L153,257L155,256L160,260L161,263L167,265L171,264L171,263L175,261L178,258L179,253L183,251L188,244L189,243L189,241L194,235L197,233L194,230L193,227L195,222L198,221L203,217L203,217L204,216L203,213L199,211L197,208L197,205L195,202L191,196L188,194L184,196L181,195L181,193L175,188L175,188Z " data-fips="FRB7" data-fips-="" data-iso3="FRA" data-name="Poitou-Charentes" data-p=""/><path d="M113,202L113,202L111,202L113,202Z M116,192L116,190L114,190L116,192Z M147,135L147,137L147,143L146,144L148,152L147,155L145,155L142,163L137,161L131,164L126,165L121,166L119,171L117,173L115,172L113,173L110,174L110,174L110,175L108,176L108,179L110,181L115,182L118,179L122,179L125,181L127,183L124,181L119,180L118,181L117,185L115,186L121,188L122,189L118,198L120,199L126,211L126,210L131,214L134,215L141,220L143,218L143,219L150,218L153,219L158,217L156,211L156,208L154,202L151,195L149,193L155,193L159,190L169,190L169,191L174,187L175,188L175,185L178,179L180,171L184,171L188,168L192,164L195,157L194,153L197,151L196,150L195,149L194,149L192,147L185,143L184,140L182,137L179,138L176,140L173,141L173,139L170,134L169,134L166,136L158,137L154,137L152,136L149,136L147,135Z " data-fips="FRA5" data-fips-="FRB5" data-iso3="FRA" data-name="Pays de la Loire" data-p=""/><path d="M189,243L188,244L183,251L179,253L178,258L175,261L171,263L171,264L167,265L161,263L160,260L155,256L153,257L153,264L153,266L150,255L143,247L141,249L140,258L139,264L137,282L138,279L140,277L143,281L138,282L138,283L133,306L130,319L128,324L124,328L120,328L120,331L122,333L125,335L129,334L130,338L128,341L131,343L132,341L142,346L148,347L150,350L154,353L156,353L161,352L161,352L160,349L161,345L167,339L170,332L169,330L169,326L164,323L163,319L165,314L164,311L170,309L170,311L173,309L175,309L176,307L186,305L191,305L192,302L194,301L200,294L198,287L201,285L203,282L207,278L210,273L210,270L210,269L210,269L206,264L205,262L206,253L204,253L199,247L194,247L192,245L189,243L189,243Z " data-fips="FR97" data-fips-="" data-iso3="FRA" data-name="Aquitaine" data-p=""/><path d="M433,349L434,343L431,336L429,337L430,339L429,343L429,349L426,347L422,350L416,353L415,355L412,357L412,360L409,362L409,364L413,366L411,367L410,370L411,372L415,374L413,377L411,378L412,380L416,379L417,383L415,384L414,386L422,387L418,390L419,393L421,394L428,397L427,398L432,397L432,394L434,387L434,378L435,376L438,370L437,363L437,358L435,353L434,351L433,349Z " data-fips="FR14" data-fips-="FRA5" data-iso3="FRA" data-name="Corse" data-p=""/><path d="M343,342L342,343L341,343L343,342Z M297,296L298,297L299,300L299,303L302,305L302,309L297,312L298,314L296,318L293,319L289,325L287,327L295,327L302,331L304,329L309,328L310,324L312,328L309,329L308,331L313,331L318,331L318,336L325,336L330,340L334,340L333,339L336,339L340,340L342,338L346,339L346,337L351,335L353,336L355,334L352,332L354,330L356,325L360,326L362,321L366,320L367,316L373,312L374,312L377,305L380,300L378,296L377,297L371,299L362,295L359,293L357,288L356,283L361,278L360,273L349,262L349,262L346,263L345,265L343,264L341,263L339,263L338,266L342,268L343,271L339,273L336,273L331,277L329,277L327,281L323,284L322,288L319,288L320,290L318,290L319,292L323,293L325,296L325,300L323,299L322,301L320,301L311,297L311,296L308,295L302,298L297,295L297,296Z " data-fips="FRB8" data-fips-="" data-iso3="FRA" data-name="Provence-Alpes-Côte-d'Azur" data-p=""/><path d="M275,279L269,274L266,276L262,271L255,274L252,282L252,283L254,286L256,292L256,296L261,304L260,305L265,307L262,311L258,315L254,316L254,320L252,319L246,323L243,322L242,325L243,329L242,329L235,330L232,329L231,332L226,330L223,331L221,330L220,333L217,335L217,339L219,340L223,342L225,348L224,349L224,351L222,354L224,356L227,356L229,358L224,360L223,362L218,363L218,363L217,365L221,367L225,371L232,368L236,369L239,371L251,366L255,368L259,367L258,365L256,363L255,356L253,352L256,349L255,348L260,338L264,335L266,335L279,325L274,328L277,325L283,322L286,327L287,327L289,325L293,319L296,318L298,314L297,312L302,309L302,305L299,303L299,300L298,297L297,296L296,296L294,294L289,295L287,296L281,295L279,290L276,280L276,279L275,279Z M225,367L223,367L224,366L225,367Z " data-fips="FRA9" data-fips-="" data-iso3="FRA" data-name="Languedoc-Roussillon" data-p=""/><path d="M210,269L210,270L210,273L207,278L203,282L201,285L198,287L200,294L194,301L192,302L191,305L186,305L176,307L175,309L173,309L170,311L170,309L164,311L165,314L163,319L164,323L169,326L169,330L170,332L167,339L161,345L160,349L161,352L162,353L165,353L167,357L168,357L173,356L177,358L179,356L180,358L187,358L187,352L195,354L196,354L201,357L206,357L209,362L217,361L218,362L218,363L223,362L224,360L229,358L227,356L224,356L222,354L224,351L224,349L225,348L223,342L219,340L217,339L217,335L220,333L221,330L223,331L226,330L231,332L232,329L235,330L242,329L243,329L242,325L243,322L246,323L252,319L254,320L254,316L258,315L262,311L265,307L260,305L261,304L256,296L256,292L254,286L252,283L251,283L250,279L246,275L245,272L241,276L238,282L233,283L230,284L229,282L229,277L227,272L227,271L225,271L219,273L217,271L211,269L210,269Z " data-fips="FRB3" data-fips-="" data-iso3="FRA" data-name="Midi-Pyrénées" data-p=""/><path d="M251,202L249,202L245,205L244,204L241,207L240,209L241,211L238,212L232,215L232,216L233,217L235,220L239,225L241,232L238,237L236,239L239,243L238,252L238,255L235,254L234,257L230,262L231,264L227,271L227,271L227,272L229,277L229,282L230,284L233,283L238,282L241,276L245,272L246,275L250,279L251,283L252,283L252,282L255,274L262,271L266,276L269,274L275,279L276,279L276,279L280,275L283,274L287,268L289,268L289,264L290,265L291,262L289,259L286,254L280,256L276,256L278,251L276,248L273,245L270,239L272,227L272,224L273,222L275,221L277,220L277,214L271,211L271,208L267,203L266,206L263,207L262,205L261,206L257,206L252,202L252,202L251,202Z " data-fips="FR98" data-fips-="" data-iso3="FRA" data-name="Auvergne" data-p=""/><path d="M311,169L304,168L301,166L301,164L301,162L296,155L294,154L284,157L274,158L274,156L270,151L265,149L266,147L261,140L260,140L260,141L256,142L251,142L250,147L249,149L248,150L249,150L253,156L250,164L247,167L247,167L250,172L248,173L249,177L248,181L250,184L253,195L252,201L252,202L252,202L257,206L261,206L262,205L263,207L266,206L267,203L271,208L271,211L277,214L277,220L275,221L275,221L277,225L286,224L288,223L294,221L296,221L297,224L299,223L302,211L308,211L310,212L312,213L312,213L313,210L314,205L313,201L315,198L309,193L313,188L315,183L315,178L313,175L314,170L313,169L312,169L312,169L311,169Z " data-fips="FRA1" data-fips-="" data-iso3="FRA" data-name="Bourgogne" data-p=""/><path d="M246,151L236,151L238,147L232,144L228,145L225,144L223,139L219,137L216,131L214,123L212,120L211,121L206,127L203,127L200,129L196,130L195,130L195,132L199,136L199,140L195,146L195,148L195,149L196,150L197,151L194,153L195,157L192,164L188,168L184,171L180,171L178,179L175,185L175,188L175,188L181,193L181,195L184,196L188,194L191,196L195,202L197,205L197,208L199,211L203,213L204,216L203,217L204,218L210,219L212,216L215,217L229,216L232,216L232,215L238,212L241,211L240,209L241,207L244,204L245,205L249,202L251,202L252,202L252,201L253,195L250,184L248,181L249,177L248,173L250,172L247,167L247,167L250,164L253,156L249,150L248,150L246,151Z " data-fips="FRA3" data-fips-="" data-iso3="FRA" data-name="Centre" data-p=""/><path d="M217,109L219,108L218,102L217,92L219,88L217,84L213,80L210,77L207,80L205,81L195,84L192,84L182,89L178,98L179,99L186,100L186,100L183,101L184,107L185,107L186,113L185,121L190,123L194,127L195,130L195,130L196,130L200,129L203,127L206,127L211,121L212,120L212,120L211,116L216,115L217,111L217,109L217,109Z " data-fips="FRA7" data-fips-="" data-iso3="FRA" data-name="Haute-Normandie" data-p=""/><path d="M261,123L258,121L252,114L246,115L240,115L233,111L231,112L227,110L223,111L218,111L218,109L217,109L217,111L216,115L211,116L212,120L212,120L214,123L216,131L219,137L223,139L225,144L228,145L232,144L238,147L236,151L246,151L248,150L249,149L250,147L251,142L256,142L260,141L260,140L260,140L263,132L262,131L261,128L260,127L262,124L262,123L261,123Z " data-fips="FRA8" data-fips-="" data-iso3="FRA" data-name="Île-de-France" data-p=""/><path d="M229,216L215,217L212,216L210,219L204,218L203,217L203,217L198,221L195,222L193,227L194,230L197,233L194,235L189,241L189,243L189,243L192,245L194,247L199,247L204,253L206,253L205,262L206,264L210,269L210,269L211,269L217,271L219,273L225,271L227,271L227,271L231,264L230,262L234,257L235,254L238,255L238,252L239,243L236,239L238,237L241,232L239,225L235,220L233,217L232,216L229,216Z " data-fips="FRB1" data-fips-="" data-iso3="FRA" data-name="Limousin" data-p=""/><path d="M279,81L280,84L279,86L280,89L276,93L276,96L275,101L276,104L267,105L265,114L265,115L262,122L262,123L262,124L260,127L261,128L262,131L263,132L260,140L260,140L261,140L266,147L265,149L270,151L274,156L274,158L284,157L294,154L296,155L301,162L301,164L301,166L304,168L311,169L312,169L312,167L319,166L320,161L324,157L324,156L323,155L322,155L321,153L318,150L319,146L314,141L312,141L312,139L307,135L305,134L301,130L298,124L299,120L300,119L300,116L299,110L299,108L301,106L302,95L306,95L309,93L308,93L306,91L301,88L295,86L294,76L295,73L290,76L289,80L285,81L281,81L279,81Z " data-fips="FRA4" data-fips-="" data-iso3="FRA" data-name="Champagne-Ardenne" data-p=""/><path d="M215,66L220,66L224,68L227,72L234,72L235,71L239,76L242,77L242,75L243,78L246,79L250,77L253,79L261,79L263,78L266,77L271,78L276,80L277,80L277,80L279,77L277,74L279,70L277,69L274,66L265,67L265,63L263,61L258,61L256,60L255,54L252,50L247,52L247,53L239,45L239,43L237,39L228,41L223,42L219,44L215,49L215,53L215,63L216,66L215,66Z " data-fips="FRB4" data-fips-="" data-iso3="FRA" data-name="Nord-Pas-de-Calais" data-p=""/><path d="M215,66L214,70L217,73L214,72L210,77L210,77L213,80L217,84L219,88L217,92L218,102L219,108L217,109L217,109L218,109L218,111L223,111L227,110L231,112L233,111L240,115L246,115L252,114L258,121L261,123L262,123L262,122L265,115L265,114L267,105L276,104L275,101L276,96L276,93L280,89L279,86L280,84L279,81L279,81L279,81L277,80L277,80L277,80L276,80L271,78L266,77L263,78L261,79L253,79L250,77L246,79L243,78L242,75L242,77L239,76L235,71L234,72L227,72L224,68L220,66L215,66L215,66Z " data-fips="FRB6" data-fips-="" data-iso3="FRA" data-name="Picardie" data-p=""/><path d="M324,156L324,157L320,161L319,166L312,167L312,169L312,169L313,169L314,170L313,175L315,178L315,183L313,188L309,193L315,198L313,201L314,205L313,210L312,213L312,213L312,214L318,220L321,217L323,219L327,219L331,213L331,213L333,207L340,200L340,193L346,190L348,185L355,177L350,177L353,171L357,171L357,171L357,169L355,167L354,163L349,160L349,159L349,159L343,155L341,156L337,155L332,155L331,154L328,154L325,156L324,156Z " data-fips="FRA6" data-fips-="" data-iso3="FRA" data-name="Franche-Comté" data-p=""/><path d="M349,159L349,160L354,163L355,167L357,169L357,171L357,171L360,174L364,173L366,170L366,168L368,167L366,163L367,157L368,152L367,147L370,138L370,135L371,130L373,125L377,119L379,113L369,111L366,111L366,111L363,115L358,115L357,114L353,113L350,116L350,118L353,122L355,119L356,120L358,127L357,130L356,131L353,132L357,140L354,146L351,158L350,159L349,159Z " data-fips="FRC1" data-fips-="FRC1" data-iso3="FRA" data-name="Alsace" data-p=""/><path d="M309,93L306,95L302,95L301,106L299,108L299,110L300,116L300,119L299,120L298,124L301,130L305,134L307,135L312,139L312,141L314,141L319,146L318,150L321,153L322,155L323,155L324,156L325,156L328,154L331,154L332,155L337,155L341,156L343,155L349,159L349,159L350,159L351,158L354,146L357,140L353,132L356,131L357,130L358,127L356,120L355,119L353,122L350,118L350,116L353,113L357,114L358,115L363,115L366,111L365,111L361,107L358,107L356,109L352,109L351,110L349,107L347,106L345,109L342,108L338,101L336,98L334,97L323,98L318,95L313,96L311,97L309,93L309,93Z " data-fips="FRB2" data-fips-="" data-iso3="FRA" data-name="Lorraine" data-p=""/></g></svg>