<?xml version="1.0" encoding="UTF-8" standalone="no"?>
<svg
   xmlns:dc="http://purl.org/dc/elements/1.1/"
   xmlns:cc="http://creativecommons.org/ns#"
   xmlns:rdf="http://www.w3.org/1999/02/22-rdf-syntax-ns#"
   xmlns:svg="http://www.w3.org/2000/svg"
   xmlns="http://www.w3.org/2000/svg"
   id="svg1076"
   width="450px"
   viewBox="0 0 450 451"
   version="1.1"
   style="stroke-linejoin: round; stroke:#000; fill: none;"
   height="451px"
   enable_background="new 0 0 450 451">
  <defs
     id="defs1002">
    <style
       id="style1000"
       type="text/css"><![CDATA[path { fill-rule: evenodd; }]]></style>
  </defs>
  <metadata
     id="metadata1004">
    <views>
      <view
         w="450"
         padding="0.06"
         h="451">
        <proj
           lon0="2.0"
           lat0="46.1"
           id="laea" />
        <bbox
           y="926.83"
           x="927.02"
           w="145.97"
           h="143.91" />
      </view>
    </views>
    <rdf:RDF>
      <cc:Work
         rdf:about="">
        <dc:format>image/svg+xml</dc:format>
        <dc:type
           rdf:resource="http://purl.org/dc/dcmitype/StillImage" />
        <dc:title></dc:title>
      </cc:Work>
    </rdf:RDF>
  </metadata>
  <g
     id="context"
     class="">
    <path
       id="path1006"
       data-iso="AND"
       d="M217,364L217,361L213,360L210,361L209,361L209,363L213,367L216,365L217,365L217,364Z " />
    <path
       id="path1008"
       data-iso="BEL"
       d="M314,48L317,47L319,49L316,49L321,49L321,50L327,54L326,56L330,60L331,65L327,68L326,72L325,73L325,73L322,71L319,74L316,85L321,91L319,95L319,95L317,95L312,97L306,90L297,87L295,87L293,80L295,73L287,80L283,81L278,81L278,77L277,74L278,70L275,67L266,67L264,62L261,61L257,60L253,52L250,51L247,52L243,51L239,45L239,44L238,38L248,32L254,28L257,27L263,31L274,32L278,26L280,27L284,23L288,25L290,22L293,25L297,23L299,27L304,30L309,30L311,32L316,35L315,42L313,45L314,48L314,48Z " />
    <path
       id="path1010"
       data-iso="CHE"
       d="M369,166L366,168L362,173L357,171L355,171L352,176L353,180L346,189L340,194L340,200L334,206L331,213L333,215L331,220L329,221L333,224L337,219L336,216L341,212L350,213L352,218L351,222L357,229L358,231L359,231L361,232L373,228L378,229L384,224L388,213L392,208L394,210L394,214L400,221L405,221L404,225L409,230L411,230L410,223L415,212L415,205L416,204L420,207L421,210L425,211L432,208L436,212L438,212L437,207L435,204L436,198L437,198L443,200L445,199L444,187L444,186L441,183L437,188L433,188L429,186L425,183L419,182L418,181L421,170L421,167L419,165L418,165L409,160L397,160L394,158L389,159L390,162L393,162L389,165L384,165L371,167L369,166Z " />
    <path
       id="path1012"
       data-iso="DEU"
       d="M321,49L321,50L327,54L326,56L330,60L331,65L327,68L326,72L325,73L325,74L325,76L329,82L335,86L333,92L332,95L332,98L333,97L339,104L343,108L349,107L350,109L354,109L361,107L370,111L378,113L378,116L372,126L367,145L367,148L368,166L369,166L371,167L384,165L389,165L393,162L390,162L389,159L394,158L397,160L409,160L418,165L419,164L426,163L431,166L432,168L435,169L436,172L437,172L442,162L447,161L450,162L450,0L336,0L338,1L336,4L331,6L326,7L323,6L318,9L318,11L324,21L324,26L322,31L324,34L320,37L318,38L318,40L322,43L321,49Z " />
    <path
       id="path1014"
       data-iso="ESP"
       d="M259,368L252,366L250,367L241,371L221,367L217,365L216,365L213,367L209,363L209,361L207,358L191,352L187,353L187,357L175,356L168,357L161,352L153,353L149,348L143,347L134,342L133,341L129,342L130,335L122,332L120,328L119,328L115,330L109,331L105,330L98,327L90,325L86,328L75,324L70,321L66,322L63,321L59,322L51,324L45,323L29,318L24,316L14,314L9,311L3,312L0,312L0,449L176,449L184,437L188,436L193,433L190,429L188,429L197,420L202,418L213,415L227,411L234,404L254,393L260,386L260,381L257,378L258,374L262,373L260,370L259,368Z " />
    <path
       id="path1016"
       data-iso="FRA"
       d="M434,344L432,337L429,339L429,348L424,348L416,353L413,355L411,360L413,366L410,368L411,371L414,373L416,381L415,384L420,387L419,390L421,394L430,399L432,395L435,385L434,377L438,368L436,353L433,350L434,344Z M141,234L138,230L136,231L140,237L141,234Z M236,39L223,42L216,49L215,52L214,69L215,70L211,76L207,80L199,83L191,85L180,91L179,98L186,100L179,102L175,105L171,106L163,103L156,103L152,102L147,102L144,94L145,90L142,89L137,91L130,90L131,97L133,104L136,108L136,123L139,130L129,130L127,127L124,131L122,129L113,128L107,132L104,129L100,122L94,120L88,120L82,124L78,124L73,123L61,126L56,128L55,135L60,135L66,136L67,138L60,137L59,138L65,143L57,146L55,147L61,150L66,157L70,156L74,157L90,163L93,163L95,166L98,167L104,167L102,171L110,171L111,173L108,176L109,179L113,180L122,180L128,184L121,181L119,181L116,185L121,190L119,194L126,210L136,217L142,219L143,233L145,240L140,239L141,242L148,248L152,254L154,265L153,265L151,257L143,248L141,255L139,262L137,281L140,277L142,280L139,281L137,285L133,305L129,323L125,327L120,328L122,332L130,335L129,342L133,341L134,342L143,347L149,348L153,353L161,352L168,357L175,356L187,357L187,353L191,352L207,358L209,361L210,361L213,360L217,361L217,364L217,365L221,367L241,371L250,367L252,366L259,368L259,366L256,362L254,352L254,349L260,339L274,328L278,324L282,323L285,326L300,331L310,328L310,331L317,331L319,335L327,337L331,340L337,340L339,341L344,338L352,335L359,325L368,317L370,315L373,313L374,312L374,312L374,313L376,312L375,308L380,299L378,296L372,298L360,293L356,285L361,277L360,272L353,269L349,262L355,261L361,257L362,250L359,247L355,241L353,239L352,235L356,233L358,231L357,229L351,222L352,218L350,213L341,212L336,216L337,219L333,224L329,221L331,220L333,215L331,213L334,206L340,200L340,194L346,189L353,180L352,176L355,171L357,171L362,173L366,168L369,166L368,166L367,148L367,145L372,126L378,116L378,113L370,111L361,107L354,109L350,109L349,107L343,108L339,104L333,97L332,98L331,97L327,97L326,98L319,96L319,95L317,95L312,97L306,90L297,87L295,87L293,80L295,73L287,80L283,81L278,81L278,77L277,74L278,70L275,67L266,67L264,62L261,61L257,60L253,52L250,51L247,52L243,51L239,45L239,44L238,38L236,39Z " />
    <path
       id="path1018"
       data-iso="GBR"
       d="M151,52L145,49L140,53L145,56L151,52Z M55,0L56,3L62,11L71,7L75,8L81,11L78,14L86,14L89,16L93,21L99,23L107,18L113,16L121,11L116,16L109,23L105,29L103,30L86,28L74,35L69,36L67,44L59,50L58,52L47,62L41,63L39,66L41,68L44,67L49,71L51,71L53,67L62,62L67,60L72,60L82,64L84,66L87,66L89,63L92,54L95,51L105,49L107,49L115,53L118,54L120,53L128,54L128,50L132,50L140,50L145,47L143,44L146,46L158,50L166,48L172,48L182,50L184,50L193,46L196,44L200,45L202,40L210,36L211,28L210,28L199,28L194,27L190,22L197,21L199,20L199,15L196,14L200,11L208,10L207,6L209,5L215,0L55,0Z " />
    <path
       id="path1020"
       data-iso="ITA"
       d="M405,414L406,411L405,412L405,414Z M450,428L446,419L443,412L440,408L433,405L432,403L429,408L425,409L421,416L414,420L411,421L407,421L405,419L403,424L404,429L409,434L411,440L413,442L413,449L449,446L447,440L450,428Z M444,187L445,199L443,200L437,198L436,198L435,204L437,207L438,212L436,212L432,208L425,211L421,210L420,207L416,204L415,205L415,212L410,223L411,230L409,230L404,225L405,221L400,221L394,214L394,210L392,208L388,213L384,224L378,229L373,228L361,232L359,231L358,231L356,233L352,235L353,239L355,241L359,247L362,250L361,257L355,261L349,262L353,269L360,272L361,277L356,285L360,293L372,298L378,296L380,299L375,308L376,312L382,310L390,307L392,305L397,296L403,288L409,284L413,284L421,287L423,287L436,294L445,296L449,299L450,301L450,187L445,188L444,187Z " />
    <path
       id="path1022"
       data-iso="JEY"
       d="M125,107L120,105L120,108L125,107Z " />
    <path
       id="path1024"
       data-iso="LUX"
       d="M325,73L322,71L319,74L316,85L321,91L319,95L319,95L319,96L326,98L327,97L331,97L332,98L332,95L333,92L335,86L329,82L325,76L325,74L325,73L325,73Z " />
    <path
       id="path1026"
       data-iso="MCO"
       d="M374,313L374,312L374,312L373,313L374,313Z " />
    <path
       id="path1028"
       data-iso="NLD"
       d="M275,27L273,26L270,28L263,26L259,27L257,27L263,31L274,32L278,26L275,27Z M271,13L267,13L266,16L268,15L271,17L274,17L271,13Z M278,26L280,27L284,23L288,25L290,22L293,25L297,23L299,27L304,30L309,30L311,32L316,35L315,42L313,45L314,48L314,48L315,49L316,49L321,49L322,43L318,40L318,38L320,37L324,34L322,31L324,26L324,21L318,11L318,9L323,6L326,7L331,6L336,4L338,1L336,0L277,0L271,11L275,16L277,18L272,19L276,24L270,20L266,19L259,21L261,23L268,26L273,24L276,26L278,26Z " />
  </g>
  <g
     id="regions"
     class="">
    <path
       data-fips-=""
       data-iso3="FRA"
       data-fips="FRB9"
       data-p="ARA"
       data-name="Auvergne-Rhône-Alpes"
       id="path1031"
       d="M 249 202 L 245 205 L 244 204 L 241 207 L 240 209 L 241 211 L 238 212 L 232 215 L 232 216 L 233 217 L 235 220 L 239 225 L 241 232 L 238 237 L 236 239 L 239 243 L 238 252 L 238 255 L 235 254 L 234 257 L 230 262 L 231 264 L 227 271 L 227 272 L 229 277 L 229 282 L 230 284 L 233 283 L 238 282 L 241 276 L 245 272 L 246 275 L 250 279 L 251 283 L 252 283 L 252 282 L 255 274 L 262 271 L 266 276 L 269 274 L 275 279 L 276 279 L 276 280 L 279 290 L 281 295 L 287 296 L 289 295 L 294 294 L 296 296 L 297 296 L 297 295 L 302 298 L 308 295 L 311 296 L 311 297 L 320 301 L 322 301 L 323 299 L 325 300 L 325 296 L 323 293 L 319 292 L 318 290 L 320 290 L 319 288 L 322 288 L 323 284 L 327 281 L 329 277 L 331 277 L 336 273 L 339 273 L 343 271 L 342 268 L 338 266 L 339 263 L 341 263 L 343 264 L 345 265 L 346 263 L 349 262 L 355 261 L 357 258 L 361 257 L 361 253 L 363 250 L 358 246 L 354 240 L 352 239 L 352 235 L 356 233 L 357 228 L 353 226 L 352 218 L 350 216 L 342 212 L 336 217 L 337 221 L 333 224 L 330 224 L 330 221 L 333 218 L 334 216 L 333 214 L 331 213 L 327 219 L 323 219 L 321 217 L 318 220 L 312 214 L 312 213 L 310 212 L 308 211 L 302 211 L 299 223 L 297 224 L 296 221 L 294 221 L 288 223 L 286 224 L 277 225 L 275 221 L 277 220 L 277 214 L 271 211 L 271 208 L 267 203 L 266 206 L 263 207 L 262 205 L 261 206 L 257 206 L 252 202 L 251 202 L 249 202 z " />
    <path
       data-fips-=""
       data-iso3="FRA"
       data-fips="FR99"
       data-p="NOR"
       data-name="Normandie"
       id="path1033"
       d="M 210 77 L 207 80 L 205 81 L 195 84 L 192 84 L 182 89 L 178 98 L 179 99 L 186 100 L 183 101 L 180 102 L 176 105 L 170 106 L 165 104 L 155 103 L 152 102 L 148 103 L 146 103 L 146 100 L 143 95 L 145 93 L 144 90 L 142 89 L 138 91 L 130 92 L 129 95 L 131 102 L 137 108 L 135 108 L 135 114 L 137 115 L 135 122 L 137 126 L 138 129 L 135 129 L 138 136 L 144 134 L 147 135 L 149 136 L 152 136 L 154 137 L 158 137 L 166 136 L 169 134 L 170 134 L 173 139 L 173 141 L 176 140 L 179 138 L 182 137 L 184 140 L 185 143 L 192 147 L 194 149 L 195 149 L 195 148 L 195 146 L 199 140 L 199 136 L 195 132 L 195 130 L 196 130 L 200 129 L 203 127 L 206 127 L 211 121 L 212 120 L 211 116 L 216 115 L 217 111 L 217 109 L 219 108 L 218 102 L 217 92 L 219 88 L 217 84 L 213 80 L 210 77 z " />
    <path
       id="path1035"
       data-p="BRE"
       data-name="Bretagne"
       data-iso3="FRA"
       data-fips-=""
       data-fips="FRA2"
       d="M93,177L90,175L90,178L94,178L93,177Z M110,174L113,173L115,172L117,173L119,171L121,166L126,165L131,164L137,161L142,163L145,155L147,155L148,152L146,144L147,143L147,137L147,135L147,135L144,134L138,136L135,129L135,130L130,130L128,128L129,127L126,127L124,129L126,133L122,129L119,131L116,129L116,127L114,128L112,128L108,132L106,132L104,127L102,126L101,123L98,119L95,120L95,119L89,120L87,119L85,123L85,125L78,124L78,126L75,123L67,125L66,124L64,125L60,125L59,127L55,128L54,134L59,135L64,134L62,137L69,138L63,138L59,139L60,142L61,140L65,142L65,146L64,145L54,147L56,148L62,152L62,157L66,157L69,154L71,155L74,155L76,158L83,160L86,162L91,164L93,163L92,161L92,165L94,168L105,167L102,171L108,171L110,173L110,174Z " />
    <path
       data-fips-=""
       data-iso3="FRA"
       data-fips="FRB7"
       data-p="NAQ"
       data-name="Nouvelle-Aquitaine"
       id="path1037"
       d="M 174 187 L 169 191 L 169 190 L 159 190 L 155 193 L 149 193 L 151 195 L 154 202 L 156 208 L 156 211 L 158 217 L 153 219 L 150 218 L 143 219 L 143 221 L 141 222 L 144 229 L 142 238 L 146 241 L 144 240 L 140 241 L 149 249 L 153 257 L 153 264 L 153 266 L 150 255 L 143 247 L 141 249 L 140 258 L 139 264 L 137 282 L 138 279 L 140 277 L 143 281 L 138 282 L 138 283 L 133 306 L 130 319 L 128 324 L 124 328 L 120 328 L 120 331 L 122 333 L 125 335 L 129 334 L 130 338 L 128 341 L 131 343 L 132 341 L 142 346 L 148 347 L 150 350 L 154 353 L 156 353 L 161 352 L 160 349 L 161 345 L 167 339 L 170 332 L 169 330 L 169 326 L 164 323 L 163 319 L 165 314 L 164 311 L 170 309 L 170 311 L 173 309 L 175 309 L 176 307 L 186 305 L 191 305 L 192 302 L 194 301 L 200 294 L 198 287 L 201 285 L 203 282 L 207 278 L 210 273 L 210 270 L 210 269 L 211 269 L 217 271 L 219 273 L 225 271 L 227 271 L 231 264 L 230 262 L 234 257 L 235 254 L 238 255 L 238 252 L 239 243 L 236 239 L 238 237 L 241 232 L 239 225 L 235 220 L 233 217 L 232 216 L 229 216 L 215 217 L 212 216 L 210 219 L 204 218 L 203 217 L 204 216 L 203 213 L 199 211 L 197 208 L 197 205 L 195 202 L 191 196 L 188 194 L 184 196 L 181 195 L 181 193 L 175 188 L 174 187 z M 131 220 L 139 224 L 139 223 L 134 221 L 131 220 z M 136 229 L 136 231 L 139 235 L 139 237 L 141 234 L 138 230 L 136 229 z " />
    <path
       id="path1039"
       data-p="PDL"
       data-name="Pays de la Loire"
       data-iso3="FRA"
       data-fips-="FRB5"
       data-fips="FRA5"
       d="M113,202L113,202L111,202L113,202Z M116,192L116,190L114,190L116,192Z M147,135L147,137L147,143L146,144L148,152L147,155L145,155L142,163L137,161L131,164L126,165L121,166L119,171L117,173L115,172L113,173L110,174L110,174L110,175L108,176L108,179L110,181L115,182L118,179L122,179L125,181L127,183L124,181L119,180L118,181L117,185L115,186L121,188L122,189L118,198L120,199L126,211L126,210L131,214L134,215L141,220L143,218L143,219L150,218L153,219L158,217L156,211L156,208L154,202L151,195L149,193L155,193L159,190L169,190L169,191L174,187L175,188L175,185L178,179L180,171L184,171L188,168L192,164L195,157L194,153L197,151L196,150L195,149L194,149L192,147L185,143L184,140L182,137L179,138L176,140L173,141L173,139L170,134L169,134L166,136L158,137L154,137L152,136L149,136L147,135Z " />
    <path
       id="path1043"
       data-p="COR"
       data-name="Corse"
       data-iso3="FRA"
       data-fips-="FRA5"
       data-fips="FR14"
       d="M433,349L434,343L431,336L429,337L430,339L429,343L429,349L426,347L422,350L416,353L415,355L412,357L412,360L409,362L409,364L413,366L411,367L410,370L411,372L415,374L413,377L411,378L412,380L416,379L417,383L415,384L414,386L422,387L418,390L419,393L421,394L428,397L427,398L432,397L432,394L434,387L434,378L435,376L438,370L437,363L437,358L435,353L434,351L433,349Z " />
    <path
       id="path1045"
       data-p="PAC"
       data-name="Provence-Alpes-Côte-d'Azur"
       data-iso3="FRA"
       data-fips-=""
       data-fips="FRB8"
       d="M343,342L342,343L341,343L343,342Z M297,296L298,297L299,300L299,303L302,305L302,309L297,312L298,314L296,318L293,319L289,325L287,327L295,327L302,331L304,329L309,328L310,324L312,328L309,329L308,331L313,331L318,331L318,336L325,336L330,340L334,340L333,339L336,339L340,340L342,338L346,339L346,337L351,335L353,336L355,334L352,332L354,330L356,325L360,326L362,321L366,320L367,316L373,312L374,312L377,305L380,300L378,296L377,297L371,299L362,295L359,293L357,288L356,283L361,278L360,273L349,262L349,262L346,263L345,265L343,264L341,263L339,263L338,266L342,268L343,271L339,273L336,273L331,277L329,277L327,281L323,284L322,288L319,288L320,290L318,290L319,292L323,293L325,296L325,300L323,299L322,301L320,301L311,297L311,296L308,295L302,298L297,295L297,296Z " />
    <path
       data-fips-=""
       data-iso3="FRA"
       data-fips="FRA9"
       data-p="OCC"
       data-name="Occitanie"
       id="path1047"
       d="M 210 269 L 210 270 L 210 273 L 207 278 L 203 282 L 201 285 L 198 287 L 200 294 L 194 301 L 192 302 L 191 305 L 186 305 L 176 307 L 175 309 L 173 309 L 170 311 L 170 309 L 164 311 L 165 314 L 163 319 L 164 323 L 169 326 L 169 330 L 170 332 L 167 339 L 161 345 L 160 349 L 161 352 L 162 353 L 165 353 L 167 357 L 168 357 L 173 356 L 177 358 L 179 356 L 180 358 L 187 358 L 187 352 L 195 354 L 196 354 L 201 357 L 206 357 L 209 362 L 217 361 L 218 362 L 218 363 L 217 365 L 221 367 L 225 371 L 232 368 L 236 369 L 239 371 L 251 366 L 255 368 L 259 367 L 258 365 L 256 363 L 255 356 L 253 352 L 256 349 L 255 348 L 260 338 L 264 335 L 266 335 L 279 325 L 274 328 L 277 325 L 283 322 L 286 327 L 287 327 L 289 325 L 293 319 L 296 318 L 298 314 L 297 312 L 302 309 L 302 305 L 299 303 L 299 300 L 298 297 L 297 296 L 296 296 L 294 294 L 289 295 L 287 296 L 281 295 L 279 290 L 276 280 L 276 279 L 275 279 L 269 274 L 266 276 L 262 271 L 255 274 L 252 282 L 252 283 L 251 283 L 250 279 L 246 275 L 245 272 L 241 276 L 238 282 L 233 283 L 230 284 L 229 282 L 229 277 L 227 272 L 227 271 L 225 271 L 219 273 L 217 271 L 211 269 L 210 269 z M 224 366 L 225 367 L 223 367 L 224 366 z " />
    <path
       data-fips-=""
       data-iso3="FRA"
       data-fips="FRA1"
       data-p="BFC"
       data-name="Bourgogne-Franche-Comté"
       id="path1053"
       d="M 260 140 L 260 141 L 256 142 L 251 142 L 250 147 L 249 149 L 248 150 L 249 150 L 253 156 L 250 164 L 247 167 L 250 172 L 248 173 L 249 177 L 248 181 L 250 184 L 253 195 L 252 201 L 252 202 L 257 206 L 261 206 L 262 205 L 263 207 L 266 206 L 267 203 L 271 208 L 271 211 L 277 214 L 277 220 L 275 221 L 277 225 L 286 224 L 288 223 L 294 221 L 296 221 L 297 224 L 299 223 L 302 211 L 308 211 L 310 212 L 312 213 L 312 214 L 318 220 L 321 217 L 323 219 L 327 219 L 331 213 L 333 207 L 340 200 L 340 193 L 346 190 L 348 185 L 355 177 L 350 177 L 353 171 L 357 171 L 357 169 L 355 167 L 354 163 L 349 160 L 349 159 L 343 155 L 341 156 L 337 155 L 332 155 L 331 154 L 328 154 L 325 156 L 324 156 L 324 157 L 320 161 L 319 166 L 312 167 L 312 169 L 311 169 L 304 168 L 301 166 L 301 164 L 301 162 L 296 155 L 294 154 L 284 157 L 274 158 L 274 156 L 270 151 L 265 149 L 266 147 L 261 140 L 260 140 z " />
    <path
       id="path1055"
       data-p="CVL"
       data-name="Centre-Val de Loire"
       data-iso3="FRA"
       data-fips-=""
       data-fips="FRA3"
       d="M246,151L236,151L238,147L232,144L228,145L225,144L223,139L219,137L216,131L214,123L212,120L211,121L206,127L203,127L200,129L196,130L195,130L195,132L199,136L199,140L195,146L195,148L195,149L196,150L197,151L194,153L195,157L192,164L188,168L184,171L180,171L178,179L175,185L175,188L175,188L181,193L181,195L184,196L188,194L191,196L195,202L197,205L197,208L199,211L203,213L204,216L203,217L204,218L210,219L212,216L215,217L229,216L232,216L232,215L238,212L241,211L240,209L241,207L244,204L245,205L249,202L251,202L252,202L252,201L253,195L250,184L248,181L249,177L248,173L250,172L247,167L247,167L250,164L253,156L249,150L248,150L246,151Z " />
    <path
       id="path1059"
       data-p="IDF"
       data-name="Île-de-France"
       data-iso3="FRA"
       data-fips-=""
       data-fips="FRA8"
       d="M261,123L258,121L252,114L246,115L240,115L233,111L231,112L227,110L223,111L218,111L218,109L217,109L217,111L216,115L211,116L212,120L212,120L214,123L216,131L219,137L223,139L225,144L228,145L232,144L238,147L236,151L246,151L248,150L249,149L250,147L251,142L256,142L260,141L260,140L260,140L263,132L262,131L261,128L260,127L262,124L262,123L261,123Z " />
    <path
       data-fips-=""
       data-iso3="FRA"
       data-fips="FRA4"
       data-p="GES"
       data-name="Grand Est"
       id="path1063"
       d="M 295 73 L 290 76 L 289 80 L 285 81 L 281 81 L 279 81 L 280 84 L 279 86 L 280 89 L 276 93 L 276 96 L 275 101 L 276 104 L 267 105 L 265 114 L 265 115 L 262 122 L 262 123 L 262 124 L 260 127 L 261 128 L 262 131 L 263 132 L 260 140 L 261 140 L 266 147 L 265 149 L 270 151 L 274 156 L 274 158 L 284 157 L 294 154 L 296 155 L 301 162 L 301 164 L 301 166 L 304 168 L 311 169 L 312 169 L 312 167 L 319 166 L 320 161 L 324 157 L 324 156 L 325 156 L 328 154 L 331 154 L 332 155 L 337 155 L 341 156 L 343 155 L 349 159 L 349 160 L 354 163 L 355 167 L 357 169 L 357 171 L 360 174 L 364 173 L 366 170 L 366 168 L 368 167 L 366 163 L 367 157 L 368 152 L 367 147 L 370 138 L 370 135 L 371 130 L 373 125 L 377 119 L 379 113 L 369 111 L 366 111 L 365 111 L 361 107 L 358 107 L 356 109 L 352 109 L 351 110 L 349 107 L 347 106 L 345 109 L 342 108 L 338 101 L 336 98 L 334 97 L 323 98 L 318 95 L 313 96 L 311 97 L 309 93 L 308 93 L 306 91 L 301 88 L 295 86 L 294 76 L 295 73 z " />
    <path
       data-fips-=""
       data-iso3="FRA"
       data-fips="FRB4"
       data-p="HDF"
       data-name="Hauts-de-France"
       id="path1065"
       d="M 237 39 L 228 41 L 223 42 L 219 44 L 215 49 L 215 53 L 215 63 L 216 66 L 215 66 L 214 70 L 217 73 L 214 72 L 210 77 L 213 80 L 217 84 L 219 88 L 217 92 L 218 102 L 219 108 L 217 109 L 218 109 L 218 111 L 223 111 L 227 110 L 231 112 L 233 111 L 240 115 L 246 115 L 252 114 L 258 121 L 261 123 L 262 123 L 262 122 L 265 115 L 265 114 L 267 105 L 276 104 L 275 101 L 276 96 L 276 93 L 280 89 L 279 86 L 280 84 L 279 81 L 277 80 L 279 77 L 277 74 L 279 70 L 277 69 L 274 66 L 265 67 L 265 63 L 263 61 L 258 61 L 256 60 L 255 54 L 252 50 L 247 52 L 247 53 L 239 45 L 239 43 L 237 39 z " />
  </g>
</svg>
