<?xml version="1.0" encoding="UTF-8"?><!DOCTYPE svg  PUBLIC '-//W3C//DTD SVG 1.1//EN'  'http://www.w3.org/Graphics/SVG/1.1/DTD/svg11.dtd'><svg enable_background="new 0 0 450 301" height="301px" style="stroke-linejoin: round; stroke:#000; fill:#f6f3f0;" version="1.1" viewBox="0 0 450 301" width="450px" xmlns="http://www.w3.org/2000/svg" xmlns:xlink="http://www.w3.org/1999/xlink"><defs><style type="text/css"><![CDATA[path { fill-rule: evenodd; }
#context path { fill: #eee; stroke: #bbb; } ]]></style></defs><metadata><views><view h="301.0" padding="0.06" w="450"><proj id="laea" lat0="62.1992528346" lon0="-6.78808412278"/><bbox h="13.35" w="8.83" x="994.58" y="997.06"/><llbbox lat0="-90" lat1="90" lon0="-180" lon1="180"/></view></views></metadata><g id="context"><path d="M259,274L259,260L254,249L254,240L250,236L235,231L232,223L228,222L229,231L234,250L250,272L259,282L262,283L259,274Z M269,175L269,169L264,159L247,150L240,148L235,149L238,159L241,165L251,172L263,185L266,185L269,175Z M196,82L190,79L177,82L165,82L171,100L187,108L197,110L205,108L212,101L207,93L196,82Z M268,58L245,47L226,33L198,42L218,95L245,127L256,134L257,131L256,124L245,99L241,95L241,88L243,82L250,85L259,95L265,95L268,58Z M297,49L288,40L277,23L278,44L277,59L279,64L281,66L291,69L297,49Z " data-iso="FRO"/></g><g fill="red" fill-opacity="0.35" id="regions"><path d="M234,225L233,225L235,220L233,218L231,218L226,221L227,224L225,224L227,234L230,241L234,247L237,252L237,259L242,267L254,278L259,286L262,288L265,288L266,285L266,280L264,276L261,275L262,271L256,270L254,271L252,275L252,272L248,269L248,267L251,268L253,267L258,265L262,265L263,262L257,259L258,257L257,252L252,252L248,245L245,244L246,242L250,243L254,247L256,246L257,244L257,240L254,237L246,236L243,231L231,233L231,231L237,225L234,225Z M240,149L235,146L232,146L233,150L236,157L237,165L241,168L253,170L255,172L263,190L265,190L268,185L269,173L270,170L270,168L266,164L265,160L263,158L253,155L252,154L247,149L243,149L240,149Z M149,94L148,91L144,88L140,89L137,91L137,93L148,94L149,94Z M199,84L196,83L191,79L192,75L183,78L179,81L178,85L172,84L167,79L164,80L165,85L167,91L170,94L177,96L183,100L171,100L171,102L173,102L178,106L186,108L192,112L193,111L193,109L189,104L191,102L193,104L195,111L194,115L196,113L204,110L199,108L201,106L208,108L211,106L215,96L213,92L209,92L206,92L203,91L199,84Z M307,52L310,48L309,43L313,39L313,37L311,36L307,36L303,40L301,41L299,43L303,53L307,52Z M196,35L195,34L193,45L193,50L196,55L194,56L192,64L190,66L190,71L193,75L198,79L203,76L205,79L203,80L202,83L204,86L206,87L216,89L222,95L223,97L224,105L225,107L232,110L239,122L247,128L250,134L254,138L259,136L258,132L259,126L255,123L254,119L257,112L253,108L245,108L240,106L240,104L248,104L249,103L244,92L233,93L238,89L239,87L239,80L232,78L225,71L220,70L221,64L214,51L213,44L211,41L207,38L196,35Z M235,32L233,32L229,28L228,28L222,29L217,33L215,34L210,32L209,36L213,41L218,55L226,68L233,76L238,76L248,89L254,93L256,87L255,80L251,75L247,72L244,68L248,67L252,71L255,76L258,81L259,88L259,95L260,101L265,104L264,102L266,98L266,96L264,95L265,92L273,91L273,89L268,84L266,82L263,81L263,79L270,82L276,83L272,78L256,70L256,68L258,67L266,68L271,67L271,65L265,61L258,58L253,61L248,57L248,55L251,54L253,51L254,48L253,47L243,45L246,43L244,40L241,40L231,43L231,46L232,55L230,52L229,41L230,39L235,35L235,32Z M299,49L292,45L287,39L282,32L279,21L280,19L276,21L275,25L276,30L279,46L278,53L275,51L274,53L274,58L275,62L280,68L282,72L284,71L280,58L282,57L284,60L287,67L289,70L292,70L297,68L297,66L295,58L292,60L290,58L285,51L286,49L289,52L293,54L297,53L299,49Z M274,47L272,37L267,24L265,20L263,17L261,20L261,26L262,32L270,47L272,49L274,47Z M266,55L267,52L256,30L252,21L249,16L247,17L248,21L251,30L259,47L260,51L262,54L264,56L266,55Z M290,31L288,24L286,21L284,14L282,12L279,11L277,13L278,16L280,18L281,25L283,30L286,35L290,39L294,41L297,39L298,35L297,32L294,31L292,33L290,31Z " data-fips="FO00" data-fips-="" data-iso3="FRO" data-name="Eysturoyar"/></g></svg>