<?xml version="1.0" encoding="UTF-8"?><!DOCTYPE svg  PUBLIC '-//W3C//DTD SVG 1.1//EN'  'http://www.w3.org/Graphics/SVG/1.1/DTD/svg11.dtd'><svg enable_background="new 0 0 450 301" height="301px" style="stroke-linejoin: round; stroke:#000; fill:#f6f3f0;" version="1.1" viewBox="0 0 450 301" width="450px" xmlns="http://www.w3.org/2000/svg" xmlns:xlink="http://www.w3.org/1999/xlink"><defs><style type="text/css"><![CDATA[path { fill-rule: evenodd; }
#context path { fill: #eee; stroke: #bbb; } ]]></style></defs><metadata><views><view h="301.0" padding="0.06" w="450"><proj id="laea" lat0="0.241690985601" lon0="10.2331554254"/><bbox h="85.54" w="80.19" x="976.73" y="970.02"/><llbbox lat0="-90" lat1="90" lon0="-180" lon1="180"/></view></views></metadata><g id="context"><path d="M423,17L426,11L428,5L431,0L418,0L419,8L421,13L423,17Z " data-iso="CAF"/><path d="M148,16L151,20L155,22L203,22L213,22L214,19L214,16L223,16L240,17L258,16L280,18L295,18L297,19L298,22L308,22L341,22L349,22L353,20L361,26L366,25L367,28L376,29L379,27L386,31L390,31L398,31L404,32L414,39L417,43L421,41L421,38L419,32L418,28L422,20L423,17L423,17L421,13L419,8L418,0L150,0L148,6L148,16Z " data-iso="CMR"/><path d="M450,299L450,172L448,175L442,189L438,195L433,200L427,206L424,209L423,214L423,222L424,246L421,265L414,278L409,285L404,287L397,289L394,292L392,295L387,299L450,299Z " data-iso="COD"/><path d="M450,0L431,0L428,5L426,11L423,17L423,17L422,20L418,28L419,32L421,38L421,41L417,43L414,39L404,32L398,31L390,31L386,31L379,27L376,29L367,28L366,25L361,26L353,20L349,22L341,22L308,22L298,22L298,25L294,32L293,38L292,44L293,49L296,56L295,61L297,62L322,54L331,55L336,56L339,58L342,67L345,72L347,76L345,83L343,86L339,91L332,92L330,97L326,100L324,107L324,112L323,124L324,126L332,127L338,134L344,135L349,140L349,142L346,157L348,176L347,189L345,197L339,202L337,209L336,211L337,217L332,222L328,223L324,222L323,220L322,214L319,209L317,207L312,214L305,219L301,219L292,217L285,215L277,199L268,194L261,198L261,201L263,206L262,216L245,219L240,216L231,219L225,216L224,217L225,227L225,230L222,238L227,238L232,244L229,250L230,252L239,258L235,268L237,273L236,275L229,274L222,267L221,267L212,272L207,277L205,284L215,293L216,296L219,299L387,299L392,295L394,292L397,289L404,287L409,285L414,278L421,265L424,246L423,222L423,214L424,209L427,206L433,200L438,195L442,189L448,175L450,172L450,0Z " data-iso="COG"/><path d="M297,19L295,18L280,18L258,16L240,17L223,16L214,16L214,19L213,22L213,32L214,72L157,72L152,74L146,69L143,69L138,71L138,72L140,82L140,88L137,90L136,87L134,87L127,89L127,91L130,94L133,100L137,102L146,107L154,106L156,107L148,110L147,113L145,112L138,109L133,108L131,107L128,100L126,103L128,118L126,130L119,140L113,143L111,145L105,146L103,142L100,141L106,155L110,161L116,171L122,175L128,172L125,179L130,181L132,180L136,184L131,186L127,186L115,172L115,175L120,181L124,190L124,194L128,194L134,197L134,200L128,197L126,197L136,209L140,217L142,219L146,219L154,223L159,225L156,227L146,222L146,224L156,234L171,245L181,257L184,262L193,269L197,273L201,280L205,284L207,277L212,272L221,267L222,267L229,274L236,275L237,273L235,268L239,258L230,252L229,250L232,244L227,238L222,238L225,230L225,227L224,217L225,216L231,219L240,216L245,219L262,216L263,206L261,201L261,198L268,194L277,199L285,215L292,217L301,219L305,219L312,214L317,207L319,209L322,214L323,220L324,222L328,223L332,222L337,217L336,211L337,209L339,202L345,197L347,189L348,176L346,157L349,142L349,140L344,135L338,134L332,127L324,126L323,124L324,112L324,107L326,100L330,97L332,92L339,91L343,86L345,83L347,76L345,72L342,67L339,58L336,56L331,55L322,54L297,62L295,61L296,56L293,49L292,44L293,38L294,32L298,25L298,22L297,19Z " data-iso="GAB"/><path d="M213,22L203,22L155,22L151,20L148,16L147,26L148,32L144,38L138,49L134,53L132,59L130,66L135,67L139,70L138,71L143,69L146,69L152,74L157,72L214,72L213,32L213,22Z " data-iso="GNQ"/><path d="M12,110L16,105L16,101L13,98L11,98L6,101L4,105L8,113L12,110Z M45,48L46,45L45,42L41,46L45,48Z " data-iso="STP"/></g><g fill="red" fill-opacity="0.35" id="regions"><path d="M126,127L128,131L134,137L136,138L138,140L138,139L137,134L142,131L146,130L148,131L152,128L154,129L156,133L161,131L166,128L169,125L179,119L184,112L183,109L186,106L190,105L191,105L191,105L193,98L198,86L197,80L175,88L174,78L174,72L157,72L155,72L154,75L149,72L148,73L146,70L142,70L138,76L140,80L141,89L139,93L136,90L133,89L135,86L133,87L127,88L126,92L129,93L131,95L133,100L142,106L145,107L151,107L153,106L157,107L150,108L148,110L146,110L148,114L144,109L142,110L140,109L138,110L137,108L129,106L129,102L128,100L126,103L128,113L127,117L128,119L126,124L126,127Z " data-fips="GB01" data-fips-="" data-iso3="GAB" data-name="Estuaire"/><path d="M294,62L258,62L253,70L252,72L251,79L220,100L220,101L224,105L224,107L222,110L215,113L213,115L211,118L213,120L214,127L217,131L217,134L218,137L221,141L222,145L224,148L255,136L262,133L269,103L270,104L274,103L276,105L281,106L288,106L291,111L297,113L298,113L306,114L308,114L317,116L324,119L324,118L325,114L324,113L324,110L325,103L326,100L331,95L331,94L334,92L339,92L343,88L344,83L348,80L347,77L349,76L344,68L341,67L340,61L339,57L335,55L332,56L328,54L320,53L318,56L310,58L307,60L302,59L296,62L294,63L294,62Z " data-fips="GB06" data-fips-="" data-iso3="GAB" data-name="Ogoou-Ivindo"/><path d="M174,72L174,78L175,88L197,80L198,86L193,98L191,105L191,105L224,105L220,101L220,100L251,79L252,72L253,70L258,62L294,62L293,62L293,61L296,59L296,56L291,46L294,36L292,33L298,27L298,20L297,18L291,17L289,18L282,18L275,19L267,17L256,15L249,17L232,17L226,16L214,16L213,21L214,72L198,72L174,72Z " data-fips="GB09" data-fips-="" data-iso3="GAB" data-name="Wouleu-Ntem"/><path d="M190,105L186,106L183,109L184,112L179,119L169,125L166,128L161,131L156,133L154,129L152,128L148,131L146,130L142,131L137,134L138,139L138,140L140,149L151,155L153,156L154,160L152,165L153,166L158,169L159,169L163,166L165,164L171,165L174,158L176,157L179,150L185,144L185,142L188,142L189,143L196,141L207,140L213,145L220,148L224,148L222,145L221,141L218,137L217,134L217,131L214,127L213,120L211,118L213,115L215,113L222,110L224,107L224,105L191,105L190,105Z " data-fips="GB03" data-fips-="" data-iso3="GAB" data-name="Moyen-Ogoou"/><path d="M159,169L159,171L155,175L155,183L151,188L155,194L163,196L166,198L170,198L172,198L176,201L176,204L177,206L181,212L182,215L201,212L204,216L208,219L209,222L212,226L216,229L222,236L222,236L226,231L226,228L224,224L224,216L225,216L230,219L240,216L242,218L245,219L262,215L263,211L263,209L264,206L261,202L261,197L261,197L262,197L252,194L248,191L244,186L244,181L243,175L234,167L232,163L232,161L225,164L223,163L223,160L221,156L221,151L223,149L224,148L220,148L213,145L207,140L196,141L189,143L188,142L185,142L185,144L179,150L176,157L174,158L171,165L165,164L163,166L159,169Z " data-fips="GB04" data-fips-="" data-iso3="GAB" data-name="Ngouni"/><path d="M222,236L216,229L212,226L209,222L208,219L204,216L201,212L182,215L176,218L174,220L174,224L171,226L171,228L169,229L156,233L156,233L164,240L166,241L171,245L184,259L184,263L191,268L196,272L199,279L201,281L208,276L208,275L214,271L217,270L219,267L222,267L224,268L228,274L236,275L238,273L235,268L240,259L229,252L229,249L233,245L227,237L223,239L222,238L222,236Z " data-fips="GB05" data-fips-="" data-iso3="GAB" data-name="Nyanga"/><path d="M114,148L115,147L114,143L111,144L112,147L114,148Z M136,138L134,137L128,131L126,127L126,130L117,142L118,145L114,150L114,152L113,149L110,145L108,145L109,146L107,146L107,149L105,148L103,143L100,141L101,144L106,153L108,157L115,168L114,170L118,173L119,173L121,176L123,176L125,174L124,179L127,183L134,179L134,182L137,185L131,185L126,187L124,181L123,181L119,177L115,172L114,172L119,180L122,182L124,189L124,194L130,194L131,196L133,195L136,201L135,203L132,198L126,197L129,202L130,202L138,210L139,217L145,222L148,220L151,220L154,223L155,225L156,223L160,226L160,223L161,227L159,227L155,229L155,227L151,224L148,222L144,222L154,232L156,233L169,229L171,228L171,226L174,224L174,220L176,218L182,215L181,212L177,206L176,204L176,201L172,198L170,198L166,198L163,196L155,194L151,188L155,183L155,175L159,171L159,169L158,169L153,166L152,165L154,160L153,156L151,155L140,149L138,140L136,138Z " data-fips="GB08" data-fips-="" data-iso3="GAB" data-name="Ogoou-Maritime"/><path d="M298,116L295,120L299,126L309,147L310,148L304,156L297,165L293,163L293,170L290,172L282,179L276,191L274,197L274,197L278,199L280,204L281,209L283,209L285,212L285,215L287,216L291,218L293,217L302,220L306,220L312,214L316,208L318,206L320,208L323,215L324,216L322,221L324,223L327,222L328,223L333,223L336,217L338,215L335,213L336,211L338,210L339,200L345,198L346,197L346,195L347,189L348,188L344,185L347,180L349,175L346,159L348,152L348,149L350,142L350,141L344,135L335,133L334,128L329,126L324,127L321,123L322,122L324,119L317,116L308,114L306,114L298,113L298,116Z " data-fips="GB02" data-fips-="" data-iso3="GAB" data-name="Haut-Ogoou"/><path d="M224,148L223,149L221,151L221,156L223,160L223,163L225,164L232,161L232,163L234,167L243,175L244,181L244,186L248,191L252,194L262,197L263,198L265,196L267,194L271,195L274,197L276,191L282,179L290,172L293,170L293,163L297,165L304,156L310,148L309,147L299,126L295,120L298,116L298,113L297,113L291,111L288,106L281,106L276,105L274,103L270,104L269,103L262,133L255,136L224,148Z " data-fips="GB07" data-fips-="" data-iso3="GAB" data-name="Ogoou-Lolo"/></g></svg>