<?xml version="1.0" encoding="UTF-8"?><!DOCTYPE svg  PUBLIC '-//W3C//DTD SVG 1.1//EN'  'http://www.w3.org/Graphics/SVG/1.1/DTD/svg11.dtd'><svg enable_background="new 0 0 450 451" height="451px" style="stroke-linejoin: round; stroke:#000; fill: none;" version="1.1" viewBox="0 0 450 451" width="450px" xmlns="http://www.w3.org/2000/svg" xmlns:xlink="http://www.w3.org/1999/xlink"><defs><style type="text/css"><![CDATA[path { fill-rule: evenodd; }]]></style></defs><metadata><views><view h="451" padding="0.06" w="450"><proj id="laea" lat0="54.5" lon0="-2.8"/><bbox h="136.05" w="104.1" x="947.95" y="931.21"/></view></views></metadata><g class="" id="context"><path d="M443,365L447,364L448,366L446,366L451,366L458,371L457,373L461,377L463,382L458,386L457,390L453,389L451,393L449,405L454,411L452,415L450,416L444,417L438,411L428,408L426,408L424,401L425,394L417,402L413,403L408,403L407,399L406,396L406,391L403,389L393,389L392,384L387,383L383,383L379,374L375,373L372,375L368,374L363,368L364,366L361,360L372,353L378,349L381,347L384,353L387,351L399,351L403,345L405,346L410,341L413,342L416,339L419,343L423,339L426,344L429,347L431,347L436,346L439,349L445,351L444,359L442,362L443,366L443,365Z " data-iso="BEL"/><path d="M450,416L444,417L438,411L428,408L426,408L424,401L425,394L417,402L413,403L408,403L407,399L406,396L406,391L403,389L393,389L392,384L387,383L383,383L379,374L375,373L372,375L368,374L363,368L364,366L361,360L359,362L346,366L338,373L338,377L338,395L339,396L335,403L331,407L323,411L315,414L304,421L303,429L310,431L303,433L299,436L295,438L286,436L279,436L274,434L269,435L266,426L266,423L263,422L257,423L250,423L251,431L254,438L257,442L258,449L450,449L450,416L450,416Z " data-iso="FRA"/><path d="M270,382L268,380L263,378L258,383L264,386L270,382Z M191,275L188,271L185,271L182,272L182,277L184,280L187,282L194,277L195,275L191,275Z M122,200L118,203L113,212L105,215L107,220L101,222L99,224L99,226L105,234L109,236L112,238L120,235L120,232L122,230L127,229L133,237L133,242L141,241L143,242L146,243L150,242L153,236L158,235L160,231L157,224L161,228L161,221L159,219L152,220L153,218L157,213L153,208L151,204L150,199L148,196L140,195L134,196L129,196L126,200L123,201L122,200Z M172,187L172,182L169,176L167,177L165,180L167,186L172,187Z M149,167L143,169L141,172L141,176L144,173L146,180L149,178L149,167Z M152,172L157,164L157,160L154,162L154,165L150,169L151,172L152,172Z M158,150L158,145L154,143L153,139L149,138L147,139L146,141L150,144L149,150L146,152L149,152L158,150Z M140,140L141,137L138,139L140,140Z M148,125L144,122L145,124L148,125Z M127,117L127,107L124,106L123,114L124,117L127,117Z M152,103L152,100L148,96L147,99L142,100L142,102L140,103L139,106L140,108L145,110L149,116L154,115L154,121L156,121L161,116L161,113L153,112L152,103Z M129,94L122,97L126,100L129,100L131,97L129,94Z M152,68L153,65L151,63L140,70L141,74L133,74L133,76L135,80L133,81L137,85L132,89L133,91L147,82L147,79L144,79L149,75L152,68Z M218,63L220,59L215,58L202,61L195,62L190,63L178,61L177,63L177,74L171,74L169,81L174,87L164,88L161,97L162,103L159,106L159,108L164,115L163,120L160,125L160,130L156,133L153,133L152,136L154,136L155,140L161,143L171,134L167,144L163,154L161,162L160,172L163,173L156,190L159,192L161,190L166,174L165,167L169,161L175,156L171,160L169,165L177,164L180,159L179,163L184,168L179,168L177,174L177,177L182,186L181,189L175,200L172,206L170,206L173,216L175,219L178,212L185,216L191,213L195,215L198,215L207,209L210,208L214,210L209,216L206,224L207,228L213,238L216,242L223,240L223,249L220,251L221,258L222,258L219,267L222,274L226,275L222,276L219,271L216,272L218,277L212,274L193,279L189,282L186,287L183,289L179,295L181,295L190,291L193,291L194,300L194,306L196,307L190,317L185,320L181,322L173,326L168,328L163,333L172,343L181,339L185,339L192,342L189,346L197,345L201,347L206,353L212,354L220,348L226,346L234,339L230,345L223,353L219,359L216,361L198,360L187,368L181,370L179,378L172,386L171,388L159,399L153,401L150,403L153,405L156,405L159,406L161,408L164,408L166,404L175,398L181,396L188,394L196,398L199,401L202,400L205,397L207,388L209,384L220,381L222,381L232,385L234,386L237,384L245,386L245,381L249,381L258,380L263,376L261,373L264,375L275,378L277,378L285,376L292,376L302,378L305,377L315,372L317,370L322,370L323,365L331,360L332,352L331,351L319,352L314,352L309,347L316,345L318,344L318,339L315,338L320,334L323,335L327,332L326,328L331,326L335,319L336,314L338,306L337,302L335,295L328,289L320,287L307,287L304,292L301,294L295,291L301,283L302,280L300,273L296,268L285,259L286,257L291,261L295,262L287,245L290,241L286,239L275,226L273,225L264,220L260,215L257,205L255,196L250,181L247,179L240,170L230,165L224,165L219,168L207,165L205,163L210,165L216,163L221,158L226,158L228,156L228,153L223,150L213,151L219,148L226,146L232,140L233,136L237,131L241,121L242,115L247,105L245,100L241,97L237,97L224,97L219,98L207,98L196,101L197,97L201,91L198,90L199,86L204,82L212,75L216,71L219,67L218,63Z M222,54L222,50L220,51L222,54Z M217,52L215,48L213,47L213,50L215,53L217,52Z M220,43L220,40L218,38L214,41L214,45L221,46L224,48L226,46L225,45L219,44L220,43Z M230,34L233,32L231,31L228,34L230,34Z M226,36L221,30L220,31L224,34L224,36L226,36Z M256,0L255,6L256,8L258,0L256,0Z " data-iso="GBR"/><path d="M187,239L188,236L188,231L184,232L182,236L180,238L179,242L182,244L187,239Z " data-iso="IMN"/><path d="M54,242L54,239L49,237L47,239L51,240L54,242Z M123,198L128,194L122,189L121,191L115,195L116,201L112,201L114,198L112,192L109,194L98,196L95,201L95,206L90,210L88,211L85,214L92,217L99,217L97,222L89,225L87,228L87,232L78,229L74,232L70,228L61,227L58,228L53,228L51,232L54,231L55,236L57,235L54,244L59,244L63,244L62,247L58,248L54,250L55,254L58,255L48,258L48,262L55,264L53,266L60,267L60,269L63,271L71,271L76,273L70,276L62,283L63,285L54,294L49,297L53,297L57,295L68,296L73,291L77,295L71,297L56,298L50,305L50,308L51,310L47,310L43,308L41,308L36,313L46,314L46,317L39,320L35,324L35,327L42,329L54,326L42,333L40,336L46,334L54,333L50,336L47,341L49,342L60,342L73,339L75,337L79,337L85,334L86,332L84,328L87,328L91,331L93,331L99,326L103,325L107,321L118,320L120,319L121,316L122,319L131,319L137,317L134,312L140,305L141,300L146,289L146,283L144,271L144,263L143,260L142,252L140,250L144,243L143,242L141,241L133,242L133,237L127,229L122,230L120,232L120,235L112,238L109,236L105,234L99,226L99,224L101,222L107,220L105,215L113,212L118,203L122,200L123,198Z " data-iso="IRL"/><path d="M401,346L398,345L395,347L387,346L383,347L381,347L384,353L387,351L399,351L403,345L401,346Z M395,331L391,331L390,334L392,333L395,336L398,335L395,331Z M413,275L412,270L409,275L411,278L413,275Z M403,345L405,346L410,341L413,342L416,339L419,343L423,339L426,344L429,347L431,347L436,346L439,349L445,351L444,359L442,362L443,366L443,366L445,366L446,366L450,366L450,357L446,354L450,352L450,332L445,325L446,322L450,319L450,256L440,258L435,260L427,265L426,268L424,273L417,279L413,282L410,281L409,286L407,301L406,307L404,312L397,321L395,328L400,334L401,336L397,337L404,341L401,342L394,338L390,338L383,341L385,343L393,345L398,343L401,345L403,345Z M422,261L424,259L419,261L422,261Z M436,256L431,256L431,258L436,256Z M446,253L444,253L442,255L446,253Z " data-iso="NLD"/><path d="M407,0L403,3L401,6L397,5L392,8L390,16L390,25L391,28L395,27L397,25L399,21L404,18L412,10L407,20L407,30L412,34L416,31L414,34L406,34L401,33L400,34L401,44L402,48L406,52L412,55L414,57L421,61L426,60L428,61L426,64L427,67L430,68L431,64L436,69L440,67L446,67L450,65L450,0L407,0Z M387,0L387,7L388,8L392,3L387,0Z " data-iso="NOR"/></g><g class="" id="regions"><path d="M247,266L247,267L245,272L244,273L245,279L245,280L246,279L250,284L251,288L249,291L250,293L254,294L254,296L252,299L256,302L256,303L262,309L266,314L264,315L265,317L262,321L262,322L264,324L262,325L264,329L272,325L273,327L273,323L277,321L279,320L279,319L279,317L283,315L283,313L285,311L286,308L283,305L282,302L286,301L295,301L298,298L301,296L301,294L300,294L298,292L294,291L302,280L302,277L295,267L293,265L291,266L290,269L288,267L287,263L286,263L281,265L281,268L279,269L278,267L275,266L274,269L271,268L266,272L266,274L261,275L254,275L247,266L247,266Z " data-fips-="---" data-iso3="GBR" data-name="East Midlands" data-region="East Midlands"/><path d="M229,336L229,336L232,335L234,332L233,329L239,330L242,327L242,329L248,328L249,328L252,326L254,329L254,329L255,330L256,329L259,324L261,325L262,322L262,322L262,321L265,317L264,315L266,314L262,309L256,303L256,302L252,299L254,296L254,294L250,293L249,291L251,288L250,284L246,279L245,280L244,280L242,281L239,285L237,285L233,290L229,289L227,289L227,289L227,291L225,292L224,291L220,290L216,295L221,299L220,300L218,307L220,306L221,307L215,310L215,312L218,315L221,315L217,322L217,324L220,332L223,332L229,336L229,336Z " data-fips-="---" data-iso3="GBR" data-name="West Midlands" data-region="West Midlands"/><path d="M229,336L229,336L228,338L228,344L230,342L233,339L235,338L231,343L228,349L225,350L219,356L219,362L217,361L210,362L206,360L200,359L189,361L189,363L184,369L183,368L181,370L178,379L173,385L168,387L167,392L163,396L158,399L156,401L150,402L149,405L151,407L153,406L155,404L160,406L163,410L166,407L166,403L173,400L176,397L181,396L185,395L189,397L189,395L186,394L189,391L189,394L193,398L195,397L197,399L203,401L203,400L205,396L206,396L207,391L207,388L209,384L212,384L213,383L218,381L223,380L228,382L233,386L234,385L242,385L246,386L247,383L245,381L248,381L254,380L254,380L251,379L251,375L247,370L249,369L256,370L255,370L254,363L253,360L257,359L258,356L257,354L257,351L253,345L253,334L254,330L254,329L254,329L252,326L249,328L248,328L242,329L242,327L239,330L233,329L234,332L232,335L229,336L229,336Z M177,362L177,361L177,362L177,362Z M133,410L132,409L132,410L133,410Z " data-fips-="---" data-iso3="GBR" data-name="South West" data-region="South West"/><path d="M240,229L241,229L243,228L246,229L248,227L249,228L252,226L259,227L260,228L262,227L271,227L273,224L273,224L265,222L261,217L258,207L257,206L254,193L250,181L243,174L243,174L236,181L239,187L237,190L231,194L228,198L228,199L228,199L230,208L230,208L232,215L234,213L237,215L236,220L240,228L240,229Z " data-fips-="---" data-iso3="GBR" data-name="North East" data-region="North East"/><path d="M228,199L228,198L231,194L237,190L239,187L236,181L243,174L243,174L240,169L236,169L229,164L225,163L220,168L214,167L204,165L203,162L211,165L216,164L222,157L225,158L230,155L228,153L226,152L225,148L223,147L217,151L215,151L219,147L227,147L233,138L239,129L241,121L244,111L246,109L248,106L246,100L242,96L231,98L231,97L222,97L219,98L214,96L210,96L209,98L202,101L198,102L194,105L193,102L196,101L197,98L194,97L189,101L192,97L198,97L201,95L204,90L201,92L199,91L196,91L199,88L199,87L203,83L210,78L212,74L219,68L219,62L220,58L216,58L214,58L213,60L206,59L202,61L199,60L192,62L189,66L190,62L186,63L183,66L185,62L183,59L182,59L176,64L176,72L178,74L169,73L172,78L171,78L171,81L169,82L172,85L176,90L172,87L170,86L166,89L164,86L163,88L164,89L164,92L160,89L160,90L162,95L160,95L162,100L164,102L159,100L158,101L159,109L165,109L161,112L166,111L167,115L165,113L162,118L166,120L159,121L157,128L161,129L157,131L157,134L156,133L150,133L148,135L156,137L153,139L158,142L159,141L160,144L164,141L170,135L173,132L169,138L167,143L167,143L168,146L165,150L162,151L163,156L162,158L162,161L160,164L159,168L160,168L161,174L164,171L159,178L159,178L156,191L157,193L160,193L162,191L162,189L164,181L163,181L164,177L166,175L165,164L174,155L173,159L170,160L167,167L168,171L169,169L172,169L173,168L175,170L177,166L180,164L182,167L186,168L180,167L177,168L178,175L177,178L182,182L183,187L180,190L174,200L172,205L174,209L172,209L171,204L169,209L174,217L174,219L176,212L178,212L183,215L185,218L189,218L189,216L187,212L191,213L194,216L195,214L196,216L200,214L201,212L203,212L207,211L207,208L217,208L219,207L220,205L221,205L225,201L227,199L228,199Z M233,32L229,32L227,35L230,35L233,32Z M229,38L228,37L229,41L231,40L229,38Z M218,38L213,40L213,43L219,47L221,45L224,49L227,47L224,45L218,43L218,38Z M226,34L225,36L226,37L226,34Z M222,30L221,33L223,31L222,30Z M223,51L221,54L223,54L223,51Z M220,36L218,37L221,38L220,36Z M216,48L214,51L217,51L216,48Z M149,95L146,97L147,99L145,103L141,98L141,100L143,102L140,102L139,104L138,104L142,109L146,110L144,110L146,113L148,115L147,117L152,116L152,118L154,116L153,114L158,116L156,117L154,122L155,122L159,119L159,117L162,113L157,114L156,113L153,112L154,111L152,109L152,99L149,95Z M155,103L153,106L153,110L155,103Z M148,123L146,121L144,123L146,125L148,125L148,123Z M174,176L174,173L173,171L170,169L172,174L174,176Z M171,188L172,185L170,177L168,176L165,179L167,187L171,188Z M164,148L162,149L163,149L164,148Z M162,151L161,152L161,152L162,151Z M161,154L161,154L160,157L161,154Z M153,139L149,138L146,141L149,143L153,144L153,145L150,146L149,149L144,151L147,152L151,152L156,150L156,152L161,146L158,144L154,142L153,139Z M157,164L159,159L154,162L150,168L153,172L157,164Z M149,171L144,171L144,169L142,170L140,177L144,175L146,178L144,180L145,181L151,177L149,171Z M149,145L147,144L148,145L149,145Z M149,160L147,163L148,162L149,160Z M141,139L139,139L139,140L141,139Z M133,145L137,141L131,143L131,144L133,145Z M152,68L153,65L152,62L149,64L141,68L139,70L141,74L138,74L134,72L134,74L132,74L134,79L132,82L135,84L136,87L132,89L135,92L140,88L139,86L141,86L140,82L141,80L141,83L142,86L148,80L144,79L148,77L149,75L152,74L153,72L149,74L149,73L152,68Z M138,72L138,73L139,73L138,72Z M129,96L126,95L125,96L123,95L121,98L126,100L126,101L130,101L131,97L132,97L129,96Z M130,93L130,92L129,93L130,93Z M127,102L126,106L128,105L127,102Z M125,105L123,106L124,110L123,112L124,118L127,117L126,113L128,110L125,105Z M123,122L119,123L121,124L123,122Z " data-fips-="---" data-iso3="GBR" data-name="Scotland" data-region="Scotland"/><path d="M218,278L222,281L221,282L226,289L227,289L229,289L233,290L237,285L239,285L242,281L244,280L245,280L245,279L244,273L245,272L247,267L247,266L246,265L243,260L241,260L240,258L243,253L239,248L238,249L236,247L234,246L232,243L231,241L233,238L235,238L236,233L240,229L240,229L240,228L236,220L237,215L234,213L232,215L230,208L230,208L228,199L228,199L227,199L225,201L221,205L220,205L219,207L219,207L220,208L217,209L215,208L212,211L210,216L207,221L205,226L212,239L215,237L214,243L217,245L219,241L219,238L221,241L225,239L225,242L222,249L219,250L219,255L221,258L218,266L220,271L218,277L218,278Z " data-fips-="---" data-iso3="GBR" data-name="North West" data-region="North West"/><path d="M254,380L257,381L258,379L263,377L265,376L267,378L269,375L270,378L271,375L275,377L287,377L290,375L293,375L300,378L304,378L314,373L316,370L322,370L322,367L323,365L331,361L332,357L332,350L324,352L321,353L316,352L314,349L307,349L306,349L304,349L303,349L302,349L301,349L300,351L300,354L297,356L296,355L293,356L291,354L288,355L288,354L284,350L284,346L283,345L283,344L283,341L282,339L279,338L278,336L281,336L281,334L278,332L281,324L279,321L279,320L277,321L273,323L273,327L272,325L264,329L262,325L264,324L262,322L262,322L261,325L259,324L256,329L255,330L254,329L254,330L253,334L253,345L257,351L257,354L258,356L257,359L253,360L254,363L255,370L256,370L249,369L247,370L251,375L251,379L254,380L254,380Z M269,381L263,378L258,381L259,383L264,386L267,385L269,381Z M273,378L272,376L271,378L273,378Z M320,352L319,350L316,349L316,352L320,352Z " data-fips-="---" data-iso3="GBR" data-name="South East" data-region="South East"/><path d="M283,345L284,346L284,350L288,354L288,355L291,354L293,356L296,355L297,356L300,354L300,351L301,349L302,349L302,348L304,346L302,342L296,342L295,341L292,340L289,342L284,344L283,345Z " data-fips-="---" data-iso3="GBR" data-name="London" data-region="London"/><path d="M273,224L271,227L262,227L260,228L259,227L252,226L249,228L248,227L246,229L243,228L241,229L240,229L240,229L236,233L235,238L233,238L231,241L232,243L234,246L236,247L238,249L239,248L243,253L240,258L241,260L243,260L246,265L247,266L247,266L254,275L261,275L266,274L266,272L271,268L274,269L275,266L278,267L279,269L281,268L281,265L286,263L287,263L288,267L290,269L291,266L293,265L293,265L288,262L285,258L275,259L277,257L282,258L285,257L291,261L296,260L289,250L287,245L290,242L284,237L283,236L278,227L273,224Z " data-fips-="---" data-iso3="GBR" data-name="Yorkshire and the Humber" data-region="Yorkshire and the Humber"/><path d="M153,218L157,216L155,212L153,207L145,196L143,195L139,194L137,196L133,197L128,196L127,201L126,202L121,201L116,206L116,209L113,213L106,213L104,215L106,217L108,219L106,221L102,221L98,224L101,228L104,231L105,235L108,235L110,237L115,238L118,237L119,238L122,234L121,233L124,228L127,229L129,235L134,239L132,242L138,243L144,242L148,244L152,239L152,236L157,236L160,231L156,224L157,222L160,225L161,232L163,227L160,218L153,219L153,218Z M147,192L146,193L146,194L147,192Z " data-fips-="---" data-iso3="GBR" data-name="Northern Ireland" data-region="Northern Ireland"/><path d="M228,344L228,338L229,336L229,336L229,336L223,332L220,332L217,324L217,322L221,315L218,315L215,312L215,310L221,307L220,306L218,307L220,300L221,299L216,295L220,290L224,291L225,292L227,291L227,289L227,289L226,289L221,282L222,281L218,278L218,278L211,274L208,275L203,276L199,274L199,276L194,278L188,284L187,287L181,290L177,296L181,295L182,296L185,293L190,291L193,291L192,297L194,299L196,299L192,305L194,306L197,306L194,309L192,314L187,320L185,321L178,323L178,324L174,327L172,327L167,330L162,331L166,337L164,339L170,340L172,340L173,337L173,339L169,341L169,344L173,342L175,343L178,340L184,339L187,342L193,342L189,344L187,346L190,347L192,346L195,346L195,345L199,344L206,353L213,354L216,353L217,350L226,346L228,344L228,344Z M191,276L189,271L182,271L182,276L184,280L189,281L194,276L191,276Z " data-fips-="---" data-iso3="GBR" data-name="Wales" data-region="Wales"/><path d="M279,320L279,321L281,324L278,332L281,334L281,336L278,336L279,338L282,339L283,341L283,344L283,345L284,344L289,342L292,340L295,341L296,342L302,342L304,346L302,348L302,349L303,349L304,349L306,349L306,349L308,347L315,346L319,343L319,337L315,339L314,338L320,334L322,335L324,335L326,331L327,329L323,328L327,328L329,328L333,323L335,322L335,314L337,312L338,305L336,296L328,289L325,288L317,288L314,287L308,287L306,288L303,296L301,294L301,294L301,296L298,298L295,301L286,301L282,302L283,305L286,308L285,311L283,313L283,315L279,317L279,319L279,320Z " data-fips-="---" data-iso3="GBR" data-name="East" data-region="East"/></g></svg>