<?xml version="1.0" encoding="UTF-8"?><!DOCTYPE svg  PUBLIC '-//W3C//DTD SVG 1.1//EN'  'http://www.w3.org/Graphics/SVG/1.1/DTD/svg11.dtd'><svg enable_background="new 0 0 450 301" height="301px" style="stroke-linejoin: round; stroke:#000; fill:#f6f3f0;" version="1.1" viewBox="0 0 450 301" width="450px" xmlns="http://www.w3.org/2000/svg" xmlns:xlink="http://www.w3.org/1999/xlink"><defs><style type="text/css"><![CDATA[path { fill-rule: evenodd; }
#context path { fill: #eee; stroke: #bbb; } ]]></style></defs><metadata><views><view h="301.0" padding="0.06" w="450"><proj id="laea" lat0="42.9912263046" lon0="41.4316950177"/><bbox h="37.77" w="69.16" x="983.33" y="988.99"/><llbbox lat0="-90" lat1="90" lon0="-180" lon1="180"/></view></views></metadata><g id="context"><path d="M360,283L360,280L355,280L355,284L360,283Z M324,230L322,231L312,233L314,237L298,238L292,240L277,238L272,239L268,241L258,243L251,246L242,247L233,247L230,248L231,251L235,256L239,259L242,262L246,273L248,279L247,285L245,291L239,298L240,299L362,299L354,290L349,282L350,276L361,268L357,260L352,257L350,254L347,252L341,252L331,248L329,245L336,243L333,239L329,238L325,234L324,230Z M323,251L324,247L326,247L325,252L323,251Z " data-iso="ARM"/><path d="M326,247L324,247L323,251L325,252L326,247Z M407,178L406,181L403,186L400,189L394,191L393,194L395,201L398,202L401,209L406,212L414,216L421,221L425,225L422,236L417,242L413,243L401,237L395,234L386,237L380,236L372,233L366,228L367,224L349,218L340,217L336,219L324,230L325,234L329,238L333,239L336,243L329,245L331,248L341,252L347,252L350,254L352,257L357,260L361,268L350,276L349,282L354,290L362,299L450,299L450,204L443,200L438,194L431,188L427,183L423,182L415,184L414,179L407,178Z M355,284L355,280L360,280L360,283L355,284Z " data-iso="AZE"/><path d="M406,177L397,173L394,171L384,170L378,168L371,162L364,159L359,155L358,153L361,143L363,133L353,129L340,130L331,121L329,119L311,113L310,114L306,124L301,117L298,115L294,114L290,114L279,118L266,126L261,128L258,130L250,130L246,128L245,126L245,123L248,119L247,116L238,111L234,108L221,105L206,97L201,93L200,89L194,86L186,83L175,85L166,79L158,79L145,82L117,80L110,75L104,71L88,67L80,64L72,59L63,54L55,56L45,54L34,51L30,52L24,63L36,72L52,86L55,88L74,92L87,103L91,111L108,119L112,125L122,166L128,180L128,192L125,201L113,217L125,220L132,223L138,218L155,219L165,221L171,222L173,220L177,213L184,211L190,212L192,218L197,220L206,229L213,234L212,236L212,238L216,241L220,242L225,242L230,247L230,248L233,247L242,247L251,246L258,243L268,241L272,239L277,238L292,240L298,238L314,237L312,233L322,231L324,230L336,219L340,217L349,218L367,224L366,228L372,233L380,236L386,237L395,234L401,237L413,243L417,242L422,236L425,225L421,221L414,216L406,212L401,209L398,202L395,201L393,194L394,191L400,189L403,186L406,181L407,178L406,177Z " data-iso="GEO"/><path d="M24,63L30,52L34,51L45,54L55,56L63,54L72,59L80,64L88,67L104,71L110,75L117,80L145,82L158,79L166,79L175,85L186,83L194,86L200,89L201,93L206,97L221,105L234,108L238,111L247,116L248,119L245,123L245,126L246,128L250,130L258,130L261,128L266,126L279,118L290,114L294,114L298,115L301,117L306,124L310,114L311,113L329,119L331,121L340,130L353,129L363,133L361,143L358,153L359,155L364,159L371,162L378,168L384,170L394,171L397,173L406,177L407,178L414,179L415,184L423,182L427,183L431,188L438,194L443,200L450,204L450,4L448,0L0,0L0,41L18,59L24,63Z " data-iso="RUS"/><path d="M230,248L230,247L225,242L220,242L216,241L212,238L212,236L213,234L206,229L197,220L192,218L190,212L184,211L177,213L173,220L171,222L165,221L155,219L138,218L132,223L125,220L113,217L107,224L87,237L80,241L72,243L63,249L38,261L29,262L22,259L16,260L10,259L0,254L0,299L240,299L239,298L245,291L247,285L248,279L246,273L242,262L239,259L235,256L231,251L230,248Z " data-iso="TUR"/></g><g fill="red" fill-opacity="0.35" id="regions"><path d="M116,145L120,143L122,140L125,139L131,136L138,128L139,123L137,120L136,111L138,109L136,102L135,100L136,98L142,97L145,96L149,91L150,88L150,82L151,80L146,83L135,81L131,81L123,80L119,80L111,76L108,75L104,70L100,71L92,67L86,68L84,67L76,61L68,58L63,54L53,56L39,51L35,51L29,54L24,64L27,67L30,67L33,70L38,71L41,77L40,80L44,86L46,84L48,84L57,89L59,90L65,90L70,91L75,92L79,99L84,98L88,105L89,110L93,114L95,113L101,116L106,117L108,118L113,126L116,145Z " data-fips="GG02" data-fips-="" data-iso3="GEO" data-name="Abkhazia"/><path d="M129,192L127,198L123,205L120,207L118,210L114,217L120,220L128,222L131,224L134,222L136,219L140,217L144,219L151,218L158,219L169,223L172,222L175,217L176,213L178,211L178,211L174,205L171,201L172,196L171,194L169,193L167,191L161,193L156,194L152,192L146,193L140,189L139,187L137,186L129,186L129,192Z " data-fips="GG04" data-fips-="" data-iso3="GEO" data-name="Ajaria"/><path d="M153,168L149,168L146,166L143,165L135,166L128,167L125,173L128,177L128,178L128,180L129,185L129,186L137,186L139,187L140,189L146,193L152,192L156,194L161,193L167,191L169,193L171,194L174,193L178,193L179,192L180,191L181,191L181,187L180,183L177,183L167,178L165,174L163,173L161,175L156,174L155,172L156,170L153,168Z " data-fips="GG04" data-fips-="" data-iso3="GEO" data-name="Guria"/><path d="M151,80L150,82L150,88L149,91L145,96L142,97L136,98L135,100L136,102L138,109L136,111L137,120L139,123L138,128L131,136L125,139L122,140L120,143L116,145L116,147L118,150L121,161L122,167L124,170L125,173L128,167L135,166L143,165L146,166L149,168L153,168L156,170L158,170L160,167L160,159L164,152L168,147L172,138L173,136L177,135L178,135L174,126L175,123L173,120L166,117L163,114L164,111L170,109L170,108L174,107L182,109L186,109L189,107L195,110L199,109L205,111L206,107L209,103L211,102L210,101L203,95L200,89L195,87L190,83L188,83L177,86L173,84L166,79L153,79L151,80L151,80Z " data-fips="GG04" data-fips-="" data-iso3="GEO" data-name="Samegrelo-Zemo Svaneti"/><path d="M231,143L225,143L219,143L213,146L211,148L209,149L205,150L199,147L198,144L195,141L192,139L186,140L180,142L179,137L178,135L177,135L173,136L172,138L168,147L164,152L160,159L160,167L158,170L156,170L155,172L156,174L161,175L163,173L165,174L167,178L177,183L180,183L181,187L181,191L185,193L191,191L199,192L202,191L210,191L228,183L228,180L230,178L231,172L236,166L238,160L238,155L242,152L247,151L247,146L246,144L241,146L238,146L236,145L231,143Z " data-fips="GG00" data-fips-="" data-iso3="GEO" data-name="Imereti"/><path d="M337,128L335,131L335,137L333,142L333,145L333,148L329,150L328,152L326,158L324,165L327,173L326,175L326,177L332,178L334,181L330,182L326,180L323,183L325,184L326,186L328,188L331,191L333,192L336,200L334,205L335,209L342,212L343,217L346,218L354,221L363,223L367,224L366,226L367,230L373,234L383,237L387,237L397,234L405,240L414,245L416,244L418,241L421,241L423,237L423,231L425,229L425,225L416,217L410,215L407,213L402,210L401,209L399,203L394,201L393,198L393,191L396,189L399,190L402,188L407,178L404,175L399,174L396,171L393,170L389,171L385,171L385,169L380,168L377,168L373,163L369,162L362,158L357,154L363,135L363,133L361,131L356,129L348,129L343,130L338,129L337,128Z " data-fips="AJ52" data-fips-="" data-iso3="GEO" data-name="Kakheti"/><path d="M271,125L273,129L276,130L280,135L278,138L278,140L280,145L281,151L283,156L278,161L277,165L277,169L279,175L285,172L289,173L291,174L293,179L296,184L296,186L293,187L292,188L292,191L291,193L291,195L294,195L297,197L300,199L303,198L304,196L306,193L310,190L312,190L316,192L317,190L320,186L323,187L326,186L325,184L323,183L326,180L330,182L334,181L332,178L326,177L326,175L327,173L324,165L326,158L328,152L329,150L333,148L333,145L333,142L335,137L335,131L337,128L337,127L330,119L326,117L321,118L313,113L310,113L307,120L306,124L305,124L303,120L295,114L293,114L281,118L276,119L272,125L271,125Z " data-fips="RS19" data-fips-="" data-iso3="GEO" data-name="Mtskheta-Mtianeti"/><path d="M211,102L209,103L206,107L205,111L199,109L195,110L189,107L186,109L182,109L174,107L170,108L170,109L164,111L163,114L166,117L173,120L175,123L174,126L178,135L179,137L180,142L186,140L192,139L195,141L198,144L199,147L205,150L209,149L211,148L213,146L219,143L225,143L231,143L236,145L241,140L249,140L252,137L255,134L255,130L254,129L246,128L244,126L244,123L249,118L248,116L245,115L240,113L235,109L231,107L212,102L211,102Z " data-fips="GG00" data-fips-="" data-iso3="GEO" data-name="Racha-Lechkhumi-Kvemo Svaneti"/><path d="M312,190L310,190L306,193L304,196L303,198L304,198L307,200L312,202L321,203L323,200L319,201L317,200L314,195L314,194L316,192L312,190Z " data-fips="AJ40" data-fips-="GG51" data-iso3="GEO" data-name="Tbilisi"/><path d="M316,192L314,194L314,195L317,200L319,201L323,200L321,203L312,202L307,200L304,198L303,198L300,199L297,197L294,195L291,195L290,197L286,197L282,195L279,197L269,198L256,197L253,200L246,200L245,203L245,211L243,215L245,215L251,214L254,214L257,219L258,223L260,229L260,233L262,243L264,242L272,241L275,237L280,240L285,238L288,240L293,240L295,238L296,240L299,238L304,238L313,237L312,233L321,233L338,217L342,216L343,217L342,212L335,209L334,205L336,200L333,192L331,191L328,188L326,186L323,187L320,186L317,190L316,192Z " data-fips="AJ40" data-fips-="" data-iso3="GEO" data-name="Kvemo Kartli"/><path d="M228,183L210,191L202,191L199,192L191,191L185,193L181,191L180,191L179,192L178,193L174,193L171,194L172,196L171,201L174,205L178,211L179,211L182,210L191,211L189,217L190,218L195,217L200,222L203,227L212,233L214,233L213,235L209,237L214,238L217,243L224,241L230,244L231,246L248,248L255,243L262,243L262,243L260,233L260,229L258,223L257,219L254,214L251,214L245,215L243,215L245,211L245,203L246,200L253,200L256,197L253,194L247,195L243,193L242,191L238,189L235,185L229,183L228,183Z " data-fips="TU86" data-fips-="" data-iso3="GEO" data-name="Samtskhe-Javakheti"/><path d="M269,126L263,126L261,127L258,131L256,131L255,130L255,134L252,137L249,140L241,140L236,145L238,146L241,146L246,144L247,146L247,151L242,152L238,155L238,160L236,166L231,172L230,178L228,180L228,183L229,183L235,185L238,189L242,191L243,193L247,195L253,194L256,197L269,198L279,197L282,195L286,197L290,197L291,195L291,193L292,191L292,188L293,187L296,186L296,184L293,179L291,174L289,173L285,172L279,175L277,169L277,165L278,161L283,156L281,151L280,145L278,140L278,138L280,135L276,130L273,129L271,125L269,126Z " data-fips="GG00" data-fips-="" data-iso3="GEO" data-name="Shida Kartli"/></g></svg>