<?xml version="1.0" encoding="UTF-8"?><!DOCTYPE svg  PUBLIC '-//W3C//DTD SVG 1.1//EN'  'http://www.w3.org/Graphics/SVG/1.1/DTD/svg11.dtd'><svg enable_background="new 0 0 450 451" height="451px" style="stroke-linejoin: round; stroke:#000; fill:#f6f3f0;" version="1.1" viewBox="0 0 450 451" width="450px" xmlns="http://www.w3.org/2000/svg" xmlns:xlink="http://www.w3.org/1999/xlink"><defs><style type="text/css"><![CDATA[path { fill-rule: evenodd; }
#context path { fill: #eee; stroke: #bbb; } ]]></style></defs><metadata><views><view h="451" padding="0.06" w="450"><proj id="laea" lat0="9.3323247338" lon0="-1.09166950242"/><bbox h="85.84" w="61.15" x="970.1" y="974.12"/><llbbox lat0="-90" lat1="90" lon0="-180" lon1="180"/></view></views></metadata><g id="context"><path d="M348,28L346,35L343,43L341,46L339,67L340,69L375,92L376,94L377,120L379,126L379,133L382,138L391,147L393,153L394,185L395,203L396,285L390,286L393,293L394,302L393,306L394,310L397,312L403,322L406,331L395,334L396,336L408,333L438,328L450,327L450,0L398,0L392,1L391,0L379,0L374,8L363,11L363,16L360,17L359,22L358,24L353,22L349,28L348,28Z " data-iso="BEN"/><path d="M391,0L392,1L398,0L391,0Z M119,126L119,122L115,114L114,108L116,105L116,98L114,87L114,80L115,77L114,74L112,71L111,69L114,66L114,64L111,63L108,59L106,54L106,45L111,28L116,28L189,28L193,26L213,28L225,27L233,29L242,28L246,28L250,32L259,27L263,22L269,22L271,20L272,17L286,20L301,23L321,28L322,30L325,30L331,29L348,28L349,28L353,22L358,24L359,22L360,17L363,16L363,11L374,8L379,0L0,0L0,109L3,109L6,112L11,114L15,114L19,108L25,105L44,98L50,97L63,97L76,98L82,99L86,99L90,102L94,108L101,112L103,117L112,129L115,129L118,127L119,126Z " data-iso="BFA"/><path d="M85,405L83,407L91,409L93,406L85,405Z M97,406L102,407L105,405L111,405L112,403L112,394L114,392L115,387L112,376L110,375L101,373L99,369L95,355L92,345L86,328L84,316L83,308L85,306L84,298L88,289L97,279L100,272L102,256L106,241L112,228L113,226L121,220L124,218L125,216L124,213L129,210L131,208L128,189L122,159L120,155L116,154L116,150L120,142L121,138L119,137L119,134L120,129L119,126L118,127L115,129L112,129L103,117L101,112L94,108L90,102L86,99L82,99L76,98L63,97L50,97L44,98L25,105L19,108L15,114L11,114L6,112L3,109L0,109L0,396L11,395L27,394L35,395L43,400L76,406L79,404L83,393L86,392L89,392L88,402L97,405L97,406Z M0,402L32,399L30,398L27,397L0,399L0,402Z " data-iso="CIV"/><path d="M272,17L271,20L269,22L263,22L259,27L250,32L246,28L242,28L233,29L225,27L213,28L193,26L189,28L116,28L111,28L106,45L106,54L108,59L111,63L114,64L114,66L111,69L112,71L114,74L115,77L114,80L114,87L116,98L116,105L114,108L115,114L119,122L119,126L120,129L119,134L119,137L121,138L120,142L116,150L116,154L120,155L122,159L128,189L131,208L129,210L124,213L125,216L124,218L121,220L113,226L112,228L106,241L102,256L100,272L97,279L88,289L84,298L85,306L83,308L84,316L86,328L92,345L95,355L99,369L101,373L110,375L112,376L115,387L114,392L112,394L112,403L111,405L105,405L102,407L97,406L93,406L91,409L93,409L101,412L116,414L137,419L146,423L157,430L163,430L177,423L186,416L195,413L223,403L240,400L249,394L260,390L269,383L284,378L308,366L340,366L353,362L359,350L363,347L368,344L368,341L359,337L356,333L355,329L350,329L339,321L330,302L325,295L325,290L330,279L332,263L329,261L326,260L324,258L323,250L330,239L329,212L330,208L335,201L335,198L331,190L322,184L318,179L315,172L322,166L323,163L320,158L321,149L325,133L324,131L319,126L315,125L309,129L306,127L308,125L307,122L308,120L313,118L308,117L308,114L312,112L313,97L314,77L315,73L312,72L304,67L293,56L287,51L285,46L287,41L290,35L291,26L290,24L286,20L272,17Z " data-iso="GHA"/><path d="M331,29L325,30L322,30L321,28L301,23L286,20L290,24L291,26L290,35L287,41L285,46L287,51L293,56L304,67L312,72L315,73L314,77L313,97L312,112L308,114L308,117L313,118L308,120L307,122L308,125L306,127L309,129L315,125L319,126L324,131L325,133L321,149L320,158L323,163L322,166L315,172L318,179L322,184L331,190L335,198L335,201L330,208L329,212L330,239L323,250L324,258L326,260L329,261L332,263L330,279L325,290L325,295L330,302L339,321L350,329L355,329L356,333L359,337L368,341L368,344L376,341L396,336L395,334L406,331L403,322L397,312L394,310L393,306L394,302L393,293L390,286L396,285L395,203L394,185L393,153L391,147L382,138L379,133L379,126L377,120L376,94L375,92L340,69L339,67L341,46L343,43L346,35L348,28L331,29Z " data-iso="TGO"/></g><g fill="red" fill-opacity="0.35" id="regions"><path d="M285,47L280,49L277,50L262,53L260,52L258,57L246,59L246,51L242,51L237,58L234,60L226,58L219,61L217,64L215,65L214,68L214,72L209,72L204,68L204,67L202,66L198,65L195,66L194,69L188,74L186,81L186,82L192,87L186,89L188,90L183,93L184,97L183,99L179,102L177,103L167,103L159,104L153,104L149,105L143,104L137,106L129,109L125,113L116,114L117,115L115,116L115,119L121,126L121,132L119,138L122,139L115,147L114,153L120,155L122,158L123,161L124,171L124,171L128,172L134,179L136,181L139,184L142,192L143,192L145,197L145,201L150,206L152,207L157,212L160,212L167,210L172,205L177,206L178,206L179,203L178,200L171,200L170,197L171,190L171,186L175,180L180,181L186,178L190,178L197,173L207,175L210,177L216,179L218,184L213,192L213,195L210,198L214,203L221,222L224,224L227,218L225,215L226,212L230,211L233,206L240,201L250,204L257,210L260,212L265,213L266,212L267,211L271,208L273,207L278,208L282,202L284,201L292,201L300,206L304,205L304,200L307,199L305,196L298,196L297,192L299,191L297,187L300,183L302,183L300,180L302,177L303,172L305,171L310,172L315,172L314,171L319,170L321,170L323,165L323,162L319,155L321,147L322,146L322,140L324,138L325,131L322,126L317,125L312,126L311,128L308,129L305,126L308,126L310,123L307,123L305,122L309,120L315,119L315,119L309,117L308,114L308,112L311,115L312,115L313,112L311,108L313,103L313,97L314,95L313,92L316,89L313,85L314,75L316,74L310,73L307,66L302,67L298,59L292,54L285,51L284,49L285,47Z " data-fips="GH06" data-fips-="" data-iso3="GHA" data-name="Northern"/><path d="M200,27L199,35L199,37L196,39L195,42L191,45L191,50L192,55L201,63L202,62L205,67L204,67L204,68L209,72L214,72L214,68L215,65L217,64L219,61L226,58L234,60L237,58L242,51L246,51L246,59L258,57L260,52L262,53L277,50L280,49L285,47L285,46L286,42L289,40L292,24L291,22L280,19L271,17L266,22L265,21L262,23L261,26L258,28L253,30L250,34L247,31L248,29L247,28L239,28L234,30L233,28L223,27L220,28L205,28L201,27L200,27Z " data-fips="GH10" data-fips-="" data-iso3="GHA" data-name="Upper East"/><path d="M200,26L192,26L189,28L116,28L116,28L112,32L112,33L109,36L105,52L107,56L109,62L111,64L115,65L111,68L110,71L116,75L113,80L115,93L115,99L117,103L113,109L116,114L116,114L125,113L129,109L137,106L143,104L149,105L153,104L159,104L167,103L177,103L179,102L183,99L184,97L183,93L188,90L186,89L192,87L186,82L186,81L188,74L194,69L195,66L198,65L202,66L204,67L205,67L202,62L201,63L192,55L191,50L191,45L195,42L196,39L199,37L199,35L200,27L200,26Z " data-fips="GH11" data-fips-="" data-iso3="GHA" data-name="Upper West"/><path d="M275,268L274,267L264,263L255,261L251,254L247,251L240,254L238,253L232,253L228,251L225,251L222,254L216,256L210,256L208,255L207,253L205,247L203,246L199,250L193,255L194,260L191,260L187,264L182,263L180,264L174,260L174,257L172,256L167,256L163,256L161,256L157,256L155,259L155,263L160,265L164,266L172,272L172,276L167,278L164,281L160,283L151,283L151,282L147,282L143,287L141,292L147,295L144,305L141,306L137,307L139,312L139,316L136,320L135,322L136,325L136,325L136,327L140,326L141,319L144,318L150,320L148,324L149,326L157,331L159,331L162,331L162,332L161,337L162,342L164,343L167,348L177,352L178,353L184,356L192,355L197,360L198,359L203,356L207,357L208,358L212,356L212,356L213,354L212,352L216,340L215,337L218,335L220,328L223,323L231,315L234,310L230,304L231,302L235,301L239,300L241,299L252,283L263,282L264,280L269,278L274,274L278,273L275,268Z " data-fips="GH02" data-fips-="" data-iso3="GHA" data-name="Ashanti"/><path d="M125,170L125,171L131,208L124,213L125,215L124,219L115,225L113,225L112,230L110,232L104,246L103,248L100,268L101,271L97,281L93,282L93,282L94,287L97,290L100,289L105,290L106,292L109,299L109,303L111,309L116,311L122,312L123,315L127,317L130,323L135,325L136,325L136,325L135,322L136,320L139,316L139,312L137,307L141,306L144,305L147,295L141,292L143,287L147,282L151,282L151,283L160,283L164,281L167,278L172,276L172,272L164,266L160,265L155,263L155,259L157,256L161,256L163,256L167,256L172,256L174,257L174,260L180,264L182,263L187,264L191,260L194,260L193,255L199,250L203,246L205,247L207,253L208,255L210,256L216,256L222,254L225,251L228,251L232,253L238,253L240,254L247,251L251,254L255,261L264,263L274,267L275,268L278,273L294,274L297,275L299,275L303,274L306,275L305,273L307,266L305,262L300,260L298,252L294,245L292,240L290,238L285,233L280,221L271,214L270,213L266,212L265,213L260,212L257,210L250,204L240,201L233,206L230,211L226,212L225,215L227,218L224,224L221,222L214,203L210,198L213,195L213,192L218,184L216,179L210,177L207,175L197,173L190,178L186,178L180,181L175,180L171,186L171,190L170,197L171,200L178,200L179,203L178,206L177,206L172,205L167,210L160,212L157,212L152,207L150,206L145,201L145,197L143,192L142,192L139,184L136,181L134,179L128,172L124,171L125,170Z " data-fips="GH03" data-fips-="" data-iso3="GHA" data-name="Brong Ahafo"/><path d="M212,356L208,358L207,357L203,356L198,359L197,360L192,355L184,356L178,353L177,352L167,348L164,343L162,342L161,337L162,332L162,331L159,331L158,332L156,334L153,336L152,337L153,341L160,345L160,347L169,355L172,357L175,360L175,364L176,365L175,367L175,374L176,375L181,374L186,376L189,378L188,384L188,386L194,393L196,395L198,400L195,402L191,406L191,414L192,413L198,412L215,407L217,405L227,401L228,402L233,401L235,402L243,399L251,393L259,391L261,390L263,387L268,383L269,383L266,376L265,376L261,373L259,368L256,367L254,367L244,368L235,366L231,366L226,365L221,365L218,363L216,358L214,357L212,356L212,356Z " data-fips="GH04" data-fips-="" data-iso3="GHA" data-name="Central"/><path d="M303,274L299,275L297,275L294,274L278,273L274,274L269,278L264,280L263,282L252,283L241,299L239,300L235,301L231,302L230,304L234,310L231,315L223,323L220,328L218,335L215,337L216,340L212,352L213,354L212,356L214,357L216,358L218,363L221,365L226,365L231,366L235,366L244,368L254,367L256,367L259,368L259,368L259,365L261,364L269,367L272,367L275,364L280,365L284,358L287,357L289,352L291,353L295,351L298,351L301,355L309,357L312,354L312,348L306,344L302,344L297,341L298,333L304,330L305,323L303,318L301,316L299,316L302,307L305,306L303,299L301,298L302,292L305,289L306,278L306,275L303,274Z " data-fips="GH05" data-fips-="" data-iso3="GHA" data-name="Eastern"/><path d="M92,283L85,295L86,304L84,307L82,310L87,333L90,336L91,340L93,350L97,360L98,362L101,375L104,375L107,374L112,376L115,393L112,396L114,403L114,404L103,407L101,409L98,407L93,407L91,409L101,412L110,413L119,414L129,418L140,420L147,423L153,429L156,429L156,431L164,431L174,424L179,423L182,419L186,417L187,415L191,414L191,414L191,406L195,402L198,400L196,395L194,393L188,386L188,384L189,378L186,376L181,374L176,375L175,374L175,367L176,365L175,364L175,360L172,357L169,355L160,347L160,345L153,341L152,337L153,336L156,334L158,332L159,331L157,331L149,326L148,324L150,320L144,318L141,319L140,326L136,327L136,325L135,325L130,323L127,317L123,315L122,312L116,311L111,309L109,303L109,299L106,292L105,290L100,289L97,290L94,287L93,282L92,283Z " data-fips="GH09" data-fips-="" data-iso3="GHA" data-name="Western"/><path d="M312,354L309,357L301,355L298,351L295,351L291,353L289,352L287,357L284,358L280,365L275,364L272,367L269,367L261,364L259,365L259,368L259,368L261,373L265,376L266,376L269,383L269,383L272,382L286,378L294,374L296,371L299,370L302,368L308,366L315,364L335,366L336,365L332,359L330,353L328,352L323,350L317,350L314,351L313,353L312,354Z " data-fips="GH01" data-fips-="" data-iso3="GHA" data-name="Greater Accra"/><path d="M266,212L270,213L271,214L280,221L285,233L290,238L292,240L294,245L298,252L300,260L305,262L307,266L305,273L306,275L306,278L305,289L302,292L301,298L303,299L305,306L302,307L299,316L301,316L303,318L305,323L304,330L298,333L297,341L302,344L306,344L312,348L312,354L313,353L314,351L317,350L323,350L328,352L330,353L332,359L336,365L335,366L338,366L350,365L353,364L358,352L362,347L368,341L367,340L362,340L355,329L350,329L341,323L338,319L337,313L334,312L332,309L332,304L325,296L326,290L323,287L328,286L330,284L330,275L331,272L333,265L331,260L326,261L324,259L323,253L329,240L330,241L329,224L328,213L329,211L328,208L331,205L336,203L335,196L332,194L330,190L326,188L319,182L317,178L315,174L315,172L310,172L305,171L303,172L302,177L300,180L302,183L300,183L297,187L299,191L297,192L298,196L305,196L307,199L304,200L304,205L300,206L292,201L284,201L282,202L278,208L273,207L271,208L267,211L266,212Z " data-fips="GH08" data-fips-="" data-iso3="GHA" data-name="Volta"/></g></svg>