<?xml version="1.0" encoding="UTF-8"?><!DOCTYPE svg  PUBLIC '-//W3C//DTD SVG 1.1//EN'  'http://www.w3.org/Graphics/SVG/1.1/DTD/svg11.dtd'><svg enable_background="new 0 0 450 301" height="301px" style="stroke-linejoin: round; stroke:#000; fill:#f6f3f0;" version="1.1" viewBox="0 0 450 301" width="450px" xmlns="http://www.w3.org/2000/svg" xmlns:xlink="http://www.w3.org/1999/xlink"><defs><style type="text/css"><![CDATA[path { fill-rule: evenodd; }
#context path { fill: #eee; stroke: #bbb; } ]]></style></defs><metadata><views><view h="301.0" padding="0.06" w="450"><proj id="laea" lat0="11.7157063867" lon0="-11.9566361527"/><bbox h="78.4" w="101.13" x="956.72" y="982.69"/><llbbox lat0="-90" lat1="90" lon0="-180" lon1="180"/></view></views></metadata><g id="context"><path d="M381,138L380,140L374,145L373,147L375,169L377,172L379,174L386,173L385,184L391,189L386,192L384,194L384,203L391,206L394,209L396,213L396,220L391,220L390,218L379,216L372,217L370,228L371,229L379,232L381,233L376,246L376,251L371,261L362,259L359,261L360,261L362,263L363,268L368,283L367,296L365,299L450,299L450,118L447,117L442,114L441,120L442,126L441,128L438,128L429,129L425,138L422,135L410,133L409,129L405,127L404,124L396,125L392,129L389,134L386,137L382,138L381,138Z " data-iso="CIV"/><path d="M220,33L215,33L204,34L200,34L193,34L188,35L182,37L177,37L174,35L171,35L159,31L152,27L149,30L146,29L147,24L145,23L131,21L116,21L116,24L118,30L118,34L114,40L110,40L106,42L106,44L112,50L115,52L115,65L105,68L97,69L91,68L82,73L75,75L67,80L59,96L55,102L54,107L58,108L60,102L67,102L68,106L71,114L75,110L74,120L83,135L95,140L99,140L105,148L111,152L116,154L118,157L118,164L117,168L122,168L128,174L130,179L135,183L136,186L135,190L135,191L143,191L145,190L151,181L157,180L160,176L169,161L172,153L175,152L182,150L189,153L199,150L199,147L229,147L232,148L236,154L239,157L248,169L256,179L253,188L260,191L260,200L265,210L259,216L255,225L262,226L265,224L270,218L272,217L275,218L277,218L281,216L285,220L297,216L304,218L305,220L311,224L318,254L316,263L314,268L319,268L323,270L329,276L330,277L336,275L340,275L347,264L349,256L351,255L358,259L359,261L362,259L371,261L376,251L376,246L381,233L379,232L371,229L370,228L372,217L379,216L390,218L391,220L396,220L396,213L394,209L391,206L384,203L384,194L386,192L391,189L385,184L386,173L379,174L377,172L375,169L373,147L374,145L380,140L381,138L382,135L380,130L370,125L368,123L365,110L366,101L364,99L358,96L354,99L349,98L349,97L354,90L361,83L358,79L353,76L349,75L347,70L342,67L342,55L337,47L333,36L331,33L323,29L319,29L315,31L317,35L317,40L315,40L303,45L300,50L296,50L280,44L275,42L266,46L256,57L253,56L247,45L244,43L241,43L238,45L229,52L227,52L219,45L218,43L222,35L223,34L220,33Z " data-iso="GIN"/><path d="M0,94L1,96L8,93L7,89L0,94Z M23,88L25,88L26,85L22,86L23,88Z M15,77L15,71L12,70L10,74L13,78L15,77Z M31,73L35,72L35,69L32,70L28,73L31,73Z M12,57L4,57L6,62L9,63L12,57Z M55,102L59,96L67,80L75,75L82,73L91,68L97,69L105,68L115,65L115,52L112,50L106,44L106,42L110,40L114,40L118,34L118,30L116,24L116,21L100,20L48,20L31,28L19,31L5,30L0,30L0,40L0,53L5,55L13,53L16,55L14,61L19,63L27,60L33,55L37,54L48,55L54,54L52,56L47,58L38,58L36,59L34,65L38,70L40,69L42,67L46,66L51,68L54,71L45,72L37,75L35,79L41,81L39,83L39,89L42,92L47,91L46,97L48,97L52,92L54,92L52,98L55,102Z " data-iso="GNB"/><path d="M359,261L358,259L351,255L349,256L347,264L340,275L336,275L330,277L329,276L323,270L319,268L314,268L316,263L318,254L311,224L305,220L304,218L297,216L285,220L281,216L277,218L275,218L275,219L274,226L272,232L270,233L264,235L262,237L258,252L256,253L248,262L229,277L224,283L221,290L218,292L225,299L365,299L367,296L368,283L363,268L362,263L360,261L359,261Z " data-iso="LBR"/><path d="M223,34L222,35L218,43L219,45L227,52L229,52L238,45L241,43L244,43L247,45L253,56L256,57L266,46L275,42L280,44L296,50L300,50L303,45L315,40L317,40L317,35L315,31L319,29L323,29L331,33L333,36L337,47L342,55L342,67L347,70L349,75L353,76L358,79L361,83L354,90L349,97L349,98L354,99L358,96L364,99L366,101L365,110L368,123L370,125L380,130L382,135L381,138L382,138L386,137L389,134L392,129L396,125L404,124L405,127L409,129L410,133L422,135L425,138L429,129L438,128L441,128L442,126L441,120L442,114L447,117L450,118L450,0L218,0L223,8L221,28L224,30L223,34Z " data-iso="MLI"/><path d="M116,21L131,21L145,23L147,24L146,29L149,30L152,27L159,31L171,35L174,35L177,37L182,37L188,35L193,34L200,34L204,34L215,33L220,33L223,34L224,30L221,28L223,8L218,0L0,0L0,30L5,30L19,31L31,28L48,20L100,20L116,21Z " data-iso="SEN"/><path d="M171,267L172,263L166,258L155,259L151,261L167,266L170,269L171,267Z M136,194L142,199L146,199L145,200L139,201L138,208L140,214L145,211L151,212L153,213L149,216L145,221L141,220L139,218L136,218L136,221L139,225L142,231L148,231L151,234L152,238L154,248L163,254L169,255L173,252L171,257L175,262L173,267L173,270L179,272L198,279L208,284L216,290L218,292L221,290L224,283L229,277L248,262L256,253L258,252L262,237L264,235L270,233L272,232L274,226L275,219L275,218L272,217L270,218L265,224L262,226L255,225L259,216L265,210L260,200L260,191L253,188L256,179L248,169L239,157L236,154L232,148L229,147L199,147L199,150L189,153L182,150L175,152L172,153L169,161L160,176L157,180L151,181L145,190L143,191L135,191L136,194Z " data-iso="SLE"/></g><g fill="red" fill-opacity="0.35" id="regions"><path d="M169,36L162,40L160,40L157,45L158,48L157,53L156,57L159,58L158,60L158,66L160,69L163,72L163,73L161,74L150,88L149,90L148,91L151,94L157,94L159,95L159,96L159,95L162,89L166,85L170,85L172,88L174,92L178,92L186,89L190,86L194,86L196,90L198,90L200,93L199,96L201,100L211,98L213,96L215,94L215,93L219,91L219,89L223,87L225,87L229,82L232,80L235,77L231,74L236,67L236,65L234,62L234,60L233,56L236,51L236,47L236,48L233,51L229,53L225,51L223,48L219,45L218,44L221,38L221,35L223,34L218,32L202,34L199,33L196,34L192,33L190,34L186,36L179,38L176,35L174,34L169,35L169,36Z " data-fips="" data-fips-="" data-iso3="GIN" data-name="Labe"/><path d="M283,45L280,46L277,49L279,56L279,59L276,68L276,72L278,74L287,79L290,83L297,87L299,89L295,91L289,90L283,87L277,86L261,88L255,93L250,104L246,106L254,111L258,113L261,116L267,123L269,122L274,121L277,122L279,126L281,124L281,122L282,124L282,127L280,131L278,131L278,139L273,143L272,148L273,152L271,156L271,157L269,159L269,165L275,165L280,161L284,160L288,161L293,165L298,169L310,169L309,173L304,175L302,183L308,185L309,188L307,190L308,192L313,197L315,197L316,197L319,200L326,204L333,203L336,203L337,200L341,197L343,198L347,192L348,188L352,178L351,172L352,170L356,171L373,165L375,153L373,146L375,143L380,140L382,134L380,130L375,128L374,125L370,126L367,120L366,111L364,109L366,104L366,100L364,97L357,96L355,99L348,101L351,94L351,93L354,91L355,89L357,87L362,85L360,83L361,80L353,77L349,75L347,69L340,68L342,51L337,50L336,43L333,40L335,37L334,35L326,30L324,29L317,29L314,31L319,36L318,39L313,40L303,45L301,50L297,51L293,50L283,45L283,45Z " data-fips="" data-fips-="" data-iso3="GIN" data-name="Kankan"/><path d="M159,96L158,97L157,99L153,102L151,111L153,113L151,118L153,123L154,122L158,122L161,124L163,124L169,120L171,118L172,119L177,125L175,131L176,134L182,134L187,138L189,142L189,148L190,152L199,150L199,150L199,147L213,147L219,147L224,135L221,133L216,130L215,125L219,117L221,115L220,111L214,109L214,101L219,98L216,96L215,94L213,96L211,98L201,100L199,96L200,93L198,90L196,90L194,86L190,86L186,89L178,92L174,92L172,88L170,85L166,85L162,89L159,95L159,96Z " data-fips="" data-fips-="" data-iso3="GIN" data-name="Mamou"/><path d="M117,149L112,147L107,142L113,133L122,134L123,131L125,129L125,125L131,122L133,116L129,111L125,110L118,116L112,112L107,115L104,113L106,106L113,102L111,98L113,96L114,94L113,89L111,86L116,84L129,83L130,86L135,84L137,84L138,93L141,93L147,92L148,91L149,90L150,88L161,74L163,73L163,72L160,69L158,66L158,60L159,58L156,57L157,53L158,48L157,45L160,40L162,40L169,36L169,36L166,33L159,31L153,27L151,30L146,30L146,23L134,22L131,21L116,21L119,32L116,40L115,40L110,40L105,43L104,45L110,48L113,51L115,51L115,66L111,66L107,68L106,68L102,69L98,69L94,68L90,68L79,75L73,75L69,77L65,83L63,89L59,97L54,103L53,106L55,109L58,109L59,109L57,105L59,105L60,101L64,101L66,98L68,100L71,97L69,101L65,102L65,107L69,105L68,108L66,111L68,113L72,108L70,111L70,115L72,115L76,108L79,106L74,118L75,118L72,121L72,123L74,124L77,122L78,127L81,130L82,136L85,135L90,139L92,141L94,139L97,139L94,142L98,143L98,140L103,137L100,145L105,148L110,153L112,154L116,151L117,149L117,149Z " data-fips="" data-fips-="" data-iso3="GIN" data-name="Boke"/><path d="M117,149L116,152L115,155L115,159L117,159L119,154L122,157L120,159L119,165L118,167L119,168L120,167L123,170L125,172L130,174L129,175L135,177L134,180L134,185L136,186L137,184L138,185L134,191L140,190L143,192L150,184L150,182L154,181L156,180L160,176L163,174L166,166L167,165L167,163L171,158L172,153L182,150L189,153L190,152L189,148L189,142L187,138L182,134L176,134L175,131L177,125L172,119L171,118L169,120L163,124L161,124L158,122L154,122L153,123L151,118L153,113L151,111L153,102L157,99L158,97L159,96L159,95L157,94L151,94L148,91L147,92L141,93L138,93L137,84L135,84L130,86L129,83L116,84L111,86L113,89L114,94L113,96L111,98L113,102L106,106L104,113L107,115L112,112L118,116L125,110L129,111L133,116L131,122L125,125L125,129L123,131L122,134L113,133L107,142L112,147L117,149L117,149Z " data-fips="" data-fips-="" data-iso3="GIN" data-name="Kindia"/><path d="M373,165L356,171L352,170L351,172L352,178L348,188L347,192L343,198L341,197L337,200L336,203L333,203L326,204L319,200L316,197L315,197L310,199L307,200L289,196L284,199L278,199L275,197L274,192L272,190L270,191L268,187L266,185L264,189L261,191L261,192L260,196L260,202L266,209L264,212L261,213L259,216L257,222L255,226L263,226L270,218L277,218L281,216L284,217L285,220L286,221L292,217L296,217L298,214L301,220L305,219L303,221L307,221L312,224L311,232L313,234L314,238L314,245L318,254L318,255L319,258L316,264L313,267L312,270L314,268L316,270L317,268L324,269L326,273L330,277L329,278L336,275L339,276L342,274L342,271L348,262L348,259L350,254L355,256L355,258L359,261L361,259L369,261L373,258L376,253L377,250L376,247L376,245L379,239L383,239L378,232L373,231L369,228L370,227L370,218L372,217L377,216L384,217L388,219L390,217L393,222L397,222L396,219L396,216L396,211L389,204L383,203L383,201L384,194L385,192L392,188L389,186L384,184L384,182L387,173L381,174L378,174L374,169L373,166L373,165Z " data-fips="" data-fips-="" data-iso3="GIN" data-name="Nzerekore"/><path d="M236,47L236,51L233,56L234,60L234,62L236,65L236,67L231,74L235,77L232,80L229,82L225,87L223,87L219,89L219,91L215,93L215,94L216,96L219,98L214,101L214,109L220,111L221,115L219,117L215,125L216,130L221,133L224,135L219,147L229,147L233,149L234,152L239,157L243,162L244,164L248,170L249,175L252,175L256,182L254,185L253,190L261,191L261,191L264,189L266,185L268,187L270,191L272,190L274,192L275,197L278,199L284,199L289,196L307,200L310,199L315,197L313,197L308,192L307,190L309,188L308,185L302,183L304,175L309,173L310,169L298,169L293,165L288,161L284,160L280,161L275,165L269,165L269,159L271,157L271,156L273,152L272,148L273,143L278,139L278,131L280,131L282,127L282,124L281,122L281,124L279,126L277,122L274,121L269,122L267,123L261,116L258,113L254,111L246,106L250,104L255,93L261,88L277,86L283,87L289,90L295,91L299,89L297,87L290,83L287,79L278,74L276,72L276,68L279,59L279,56L277,49L280,46L283,45L283,45L276,43L275,42L271,45L270,44L267,46L264,47L264,50L261,52L262,53L259,54L256,58L255,58L250,48L247,46L245,43L242,42L238,43L238,46L236,47L236,47Z " data-fips="" data-fips-="" data-iso3="GIN" data-name="Faranah"/><path d="M116,169L115,169L116,169L117,169L119,168L118,167L116,169Z " data-fips="" data-fips-="" data-iso3="GIN" data-name="Conakry"/></g></svg>