<?xml version="1.0" encoding="UTF-8"?><!DOCTYPE svg  PUBLIC '-//W3C//DTD SVG 1.1//EN'  'http://www.w3.org/Graphics/SVG/1.1/DTD/svg11.dtd'><svg enable_background="new 0 0 450 301" height="301px" style="stroke-linejoin: round; stroke:#000; fill:#f6f3f0;" version="1.1" viewBox="0 0 450 301" width="450px" xmlns="http://www.w3.org/2000/svg" xmlns:xlink="http://www.w3.org/1999/xlink"><defs><style type="text/css"><![CDATA[path { fill-rule: evenodd; }
#context path { fill: #eee; stroke: #bbb; } ]]></style></defs><metadata><views><view h="301.0" padding="0.06" w="450"><proj id="laea" lat0="13.5716008571" lon0="-14.8021772893"/><bbox h="13.57" w="40.48" x="973.49" y="994.76"/><llbbox lat0="-90" lat1="90" lon0="-180" lon1="180"/></view></views></metadata><g id="context"><path d="M438,255L438,266L446,282L445,294L443,299L450,299L450,256L438,255Z " data-iso="GIN"/><path d="M64,147L76,162L88,163L117,149L155,147L192,142L210,144L211,146L205,148L186,147L161,152L137,154L114,158L110,165L110,171L99,170L80,173L61,168L55,161L53,150L46,145L35,151L25,163L32,189L33,201L41,193L48,189L104,188L157,189L160,166L181,162L204,159L230,156L236,152L240,144L243,137L248,134L265,140L275,146L312,163L343,174L369,178L400,170L422,165L425,155L421,145L405,136L382,137L375,139L365,142L358,144L348,142L334,134L326,126L314,123L300,119L277,103L265,100L254,99L232,102L211,111L200,130L94,128L60,129L64,147Z " data-iso="GMB"/><path d="M438,255L393,255L274,255L242,255L191,281L156,288L115,285L102,287L78,297L66,299L443,299L445,294L446,282L438,266L438,255Z M40,299L62,299L46,297L39,298L40,299Z " data-iso="GNB"/><path d="M438,255L450,256L450,0L0,0L0,12L6,17L18,44L29,60L30,72L37,72L46,68L53,67L50,72L38,78L33,86L36,94L49,104L57,115L60,129L94,128L200,130L211,111L232,102L254,99L265,100L277,103L300,119L314,123L326,126L334,134L348,142L358,144L365,142L375,139L382,137L405,136L421,145L425,155L422,165L400,170L369,178L343,174L312,163L275,146L265,140L248,134L243,137L240,144L236,152L230,156L204,159L181,162L160,166L157,189L104,188L48,189L41,193L33,201L33,212L32,226L33,251L30,255L32,261L35,267L40,264L44,262L49,253L54,249L61,256L73,261L75,264L74,268L69,267L60,264L44,270L32,275L29,282L34,292L39,298L46,297L62,299L66,299L78,297L102,287L115,285L156,288L191,281L242,255L274,255L393,255L438,255Z " data-iso="SEN"/></g><g fill="red" fill-opacity="0.35" id="regions"><path d="M202,123L210,124L218,124L219,125L219,133L220,137L229,141L237,137L244,134L246,132L250,130L254,132L260,138L266,143L275,147L279,148L298,154L300,158L304,161L309,163L313,164L323,162L324,163L328,166L332,158L337,156L336,156L333,149L335,147L340,140L339,139L338,138L335,130L334,127L329,123L324,120L318,120L313,121L304,126L301,126L295,121L292,112L289,107L284,104L280,102L266,101L258,98L255,98L246,102L236,108L228,103L222,102L216,105L210,109L206,113L202,122L202,123Z " data-fips="GA03" data-fips-="" data-iso3="GMB" data-name="Maccarthy Island"/><path d="M340,140L335,147L333,149L336,156L337,156L332,158L328,166L329,168L333,169L337,169L340,171L344,175L353,178L356,179L364,178L371,179L378,178L384,173L388,172L394,170L400,170L405,168L415,167L422,164L425,159L424,148L421,144L418,142L415,136L413,134L406,132L401,131L397,134L392,134L383,138L373,141L366,145L355,149L350,147L340,140Z " data-fips="GA04" data-fips-="" data-iso3="GMB" data-name="Upper River"/><path d="M158,176L139,172L129,173L127,173L123,176L122,175L119,171L116,170L114,171L115,171L115,172L110,175L107,176L104,175L105,170L104,167L100,166L98,166L85,174L83,171L76,172L76,173L79,173L84,181L81,179L79,181L79,175L75,174L71,171L69,170L62,170L56,163L56,161L55,157L54,153L52,151L53,150L57,149L56,147L50,144L48,146L45,143L44,142L41,145L33,154L27,158L25,162L24,163L25,171L29,177L28,185L31,192L31,194L30,198L34,201L35,196L38,193L40,188L45,187L157,189L158,188L158,179L158,176Z " data-fips="GA05" data-fips-="GA01" data-iso3="GMB" data-name="Banjul"/><path d="M244,134L237,137L229,141L229,143L228,148L223,150L217,150L212,148L208,143L206,143L202,144L196,141L194,141L190,146L188,147L184,148L179,145L174,148L166,151L164,151L155,150L152,150L148,152L145,152L136,154L117,153L113,151L111,155L106,159L105,161L108,174L108,175L113,171L114,171L116,170L119,171L122,175L123,176L127,173L129,173L139,172L158,176L158,167L161,164L170,163L176,161L187,162L199,158L203,158L218,161L223,161L235,156L238,152L239,140L241,137L244,134Z M202,124L201,130L199,131L124,130L60,129L62,135L61,140L66,148L68,155L65,161L70,161L80,164L92,163L95,162L94,158L96,154L97,156L96,160L102,158L107,153L116,148L123,150L166,147L170,145L176,142L181,142L185,144L187,143L192,139L194,138L206,141L213,146L221,148L224,148L228,145L220,137L219,133L219,125L218,124L210,124L202,123L202,124Z " data-fips="GA02" data-fips-="" data-iso3="GMB" data-name="Lower River"/></g></svg>