<?xml version="1.0" encoding="UTF-8"?><!DOCTYPE svg  PUBLIC '-//W3C//DTD SVG 1.1//EN'  'http://www.w3.org/Graphics/SVG/1.1/DTD/svg11.dtd'><svg enable_background="new 0 0 450 301" height="301px" style="stroke-linejoin: round; stroke:#000; fill:#f6f3f0;" version="1.1" viewBox="0 0 450 301" width="450px" xmlns="http://www.w3.org/2000/svg" xmlns:xlink="http://www.w3.org/1999/xlink"><defs><style type="text/css"><![CDATA[path { fill-rule: evenodd; }
#context path { fill: #eee; stroke: #bbb; } ]]></style></defs><metadata><views><view h="301.0" padding="0.06" w="450"><proj id="laea" lat0="11.8852955186" lon0="-15.6149363047"/><bbox h="26.06" w="41.4" x="984.36" y="987.97"/><llbbox lat0="-90" lat1="90" lon0="-180" lon1="180"/></view></views></metadata><g id="context"><path d="M417,32L416,43L424,58L423,70L420,80L417,85L413,87L401,87L389,94L388,99L395,103L400,110L406,115L416,121L417,128L418,145L417,158L388,168L366,169L347,168L339,172L323,182L303,188L293,189L288,193L280,203L258,248L251,258L245,265L244,279L249,284L254,284L261,265L266,262L272,262L281,266L283,276L291,292L294,299L305,288L305,293L304,299L450,299L450,33L417,32Z " data-iso="GIN"/><path d="M133,246L128,231L126,233L124,245L126,246L124,249L132,250L133,246Z M104,249L110,246L112,242L110,231L100,235L96,240L94,240L88,242L89,245L94,251L104,249Z M156,228L161,226L163,223L164,219L163,218L157,217L152,221L148,231L150,233L156,234L156,228Z M132,195L131,178L124,177L117,187L116,193L120,197L126,199L132,195Z M178,185L182,183L187,181L187,173L180,175L169,186L177,188L178,185Z M121,139L117,138L99,140L100,144L106,154L114,155L121,139Z M417,32L373,32L256,32L225,32L175,57L141,64L101,62L88,64L65,74L51,76L33,74L26,75L62,96L79,91L87,91L86,95L78,104L76,116L83,126L101,134L125,129L130,132L132,134L127,152L143,155L165,148L183,134L194,131L226,133L236,127L240,127L241,130L237,135L233,136L223,140L196,140L189,144L185,153L185,160L197,175L204,174L209,168L221,165L235,169L241,177L229,179L218,180L194,190L188,202L192,205L198,203L204,204L205,207L199,212L198,222L199,228L209,237L216,236L222,236L222,253L227,253L238,239L244,238L239,256L245,265L251,258L258,248L280,203L288,193L293,189L303,188L323,182L339,172L347,168L366,169L388,168L417,158L418,145L417,128L416,121L406,115L400,110L395,103L388,99L389,94L401,87L413,87L417,85L420,80L423,70L424,58L416,43L417,32Z " data-iso="GNB"/><path d="M26,75L33,74L51,76L65,74L88,64L101,62L141,64L175,57L225,32L256,32L373,32L417,32L450,33L450,0L20,0L19,4L20,29L18,33L19,39L22,44L28,42L32,40L36,31L41,27L48,34L60,39L62,41L61,45L56,45L47,42L31,48L20,52L17,60L22,69L26,75Z " data-iso="SEN"/></g><g fill="red" fill-opacity="0.35" id="regions"><path d="M169,128L163,139L162,144L162,146L162,149L164,148L170,145L178,138L179,137L179,137L174,133L173,132L170,131L169,128Z " data-fips="PU11" data-fips-="" data-iso3="GNB" data-name="Bissau"/><path d="M132,238L131,235L126,230L125,234L125,237L125,242L124,244L125,246L126,244L129,245L122,248L122,251L124,250L133,250L135,247L133,244L132,238Z M123,236L122,230L115,232L112,237L113,239L116,239L117,248L119,247L123,240L123,236Z M112,233L109,230L106,229L104,231L104,234L101,232L98,235L97,240L93,242L93,239L87,243L88,246L91,250L95,252L98,252L100,253L99,252L102,253L105,252L109,252L112,251L113,241L110,237L110,235L112,233Z M140,230L141,229L141,223L142,218L142,217L138,217L135,220L133,224L133,228L136,230L140,230Z M164,219L164,217L159,216L156,217L154,220L152,220L149,227L151,228L148,230L148,232L154,233L155,235L156,229L155,228L158,229L162,223L164,226L164,219Z M92,216L87,218L85,220L85,222L84,222L88,228L97,228L98,224L99,223L98,218L93,217L92,216Z M163,191L163,189L160,190L157,195L154,194L154,196L158,198L160,197L162,198L165,192L163,191Z M92,197L98,191L98,188L95,188L88,189L86,192L80,196L90,198L92,197Z M88,180L83,180L82,179L79,183L74,184L68,184L63,186L65,190L64,192L68,190L75,190L77,192L82,191L86,185L88,180Z M129,180L127,176L126,176L123,179L119,181L116,189L113,192L108,195L109,196L114,199L115,201L118,199L119,197L124,200L127,199L133,196L131,194L131,190L131,187L133,185L131,183L132,180L130,178L129,180Z M189,173L184,174L181,174L177,178L177,180L174,180L171,184L168,186L174,188L176,189L178,188L180,184L184,181L189,181L187,178L189,173Z M206,166L204,165L199,165L195,166L195,167L191,174L189,176L192,182L193,183L196,175L197,175L199,179L199,177L202,178L199,171L199,169L206,176L207,174L204,168L206,168L205,166L206,166Z M121,138L118,137L111,139L100,140L98,140L99,149L104,150L107,155L108,156L113,155L114,156L116,152L118,147L121,142L121,138Z M162,149L162,146L162,144L163,139L169,128L168,125L168,124L163,119L158,122L158,122L158,122L156,128L150,126L148,123L143,123L137,127L134,132L132,136L129,138L127,147L123,154L125,159L132,155L133,148L136,147L135,152L135,153L138,154L139,153L143,145L144,140L146,139L149,139L152,141L147,142L144,146L142,157L144,156L151,153L153,151L162,150L162,149Z " data-fips="PU05" data-fips-="PU12" data-iso3="GNB" data-name="Bolama"/><path d="M195,49L162,64L157,65L133,64L120,64L112,61L109,61L98,63L95,63L92,62L89,62L69,73L65,75L59,75L52,76L32,75L27,76L25,80L31,78L38,82L40,86L45,86L48,88L53,94L55,98L58,98L60,100L66,95L72,97L74,97L75,95L76,90L78,85L78,88L77,93L79,94L90,85L99,83L108,76L111,76L106,78L100,84L90,90L86,92L84,94L85,99L83,99L82,97L78,100L76,102L73,110L74,115L75,119L77,124L83,126L86,132L88,133L91,135L95,135L99,135L103,139L105,138L112,134L122,134L127,129L128,124L141,121L146,121L151,124L153,124L157,121L158,122L158,122L163,119L163,118L164,113L164,109L165,102L164,100L160,98L153,91L153,88L156,82L157,84L159,84L160,81L168,79L170,76L175,73L184,69L188,69L189,71L195,69L197,67L199,61L198,57L195,48L195,49Z " data-fips="PU06" data-fips-="" data-iso3="GNB" data-name="Cacheu"/><path d="M225,32L221,33L218,34L210,40L202,43L195,48L198,57L199,61L197,67L195,69L189,71L188,69L184,69L175,73L170,76L168,79L160,81L159,84L157,84L156,82L153,88L153,91L160,98L164,100L165,102L164,109L164,113L163,118L163,119L168,124L168,125L169,128L170,131L173,132L174,133L179,137L181,136L185,132L191,131L198,128L204,128L210,132L225,135L234,128L238,125L242,125L245,126L252,128L252,129L255,129L257,127L256,122L256,118L248,114L247,112L241,101L244,96L251,95L255,97L260,97L261,87L260,84L257,82L256,66L257,65L263,63L270,60L270,59L267,54L264,52L263,49L264,47L269,38L267,32L225,32Z " data-fips="PU04" data-fips-="" data-iso3="GNB" data-name="Oio"/><path d="M259,156L256,157L253,156L250,152L242,149L239,144L239,141L242,133L242,131L239,131L233,137L229,138L226,140L210,140L202,139L196,139L196,140L193,139L190,143L190,144L188,146L183,151L181,155L178,159L178,161L180,167L187,162L186,168L188,170L191,168L195,164L195,166L199,165L204,165L206,166L207,166L208,173L210,168L213,169L214,167L208,162L213,162L213,160L216,157L215,161L216,163L215,165L217,167L219,164L221,156L226,159L226,161L223,160L222,163L224,164L220,166L220,168L221,169L223,166L226,168L226,166L234,162L233,165L230,167L228,169L234,170L235,165L237,168L235,170L239,174L241,170L243,171L243,174L241,177L246,177L250,175L249,178L245,180L237,180L236,184L234,181L232,179L239,178L236,174L234,174L234,176L232,177L231,173L226,171L223,174L226,178L223,180L220,178L221,174L219,175L214,174L214,175L217,176L219,180L217,181L213,178L212,176L207,179L209,179L211,181L213,185L210,185L210,183L207,183L206,182L202,186L198,185L199,191L195,191L194,193L193,190L189,191L189,196L191,196L188,201L185,212L186,213L192,211L195,206L200,203L204,195L207,195L204,200L203,204L206,207L208,205L216,199L215,201L223,195L225,194L232,198L234,201L237,202L255,198L258,195L262,187L262,184L264,178L270,169L273,164L269,164L269,163L272,158L269,156L267,157L265,152L261,152L261,154L259,156Z " data-fips="PU02" data-fips-="" data-iso3="GNB" data-name="Quinara"/><path d="M267,32L269,38L264,47L263,49L264,52L267,54L270,59L270,60L263,63L257,65L256,66L257,82L260,84L261,87L260,97L255,97L251,95L244,96L241,101L247,112L248,114L256,118L256,122L257,127L255,129L252,129L252,129L248,131L245,137L242,142L246,148L251,149L255,153L257,155L261,154L261,152L265,152L267,157L269,156L272,158L269,163L269,164L273,164L275,165L277,170L279,173L282,176L286,177L289,176L292,172L296,172L299,174L313,171L316,171L316,164L317,162L322,158L322,158L320,151L319,147L319,138L320,133L320,131L317,129L316,126L317,122L318,118L317,115L313,113L313,108L319,107L323,105L325,99L325,98L320,95L318,88L320,83L319,80L314,78L312,76L309,74L309,71L310,69L312,69L316,68L315,63L322,61L319,57L313,58L313,51L315,54L316,53L322,56L332,52L333,51L328,48L328,46L327,38L333,40L336,32L267,32Z " data-fips="PU01" data-fips-="" data-iso3="GNB" data-name="Bafat"/><path d="M336,32L333,40L327,38L328,46L328,48L333,51L332,52L322,56L316,53L315,54L313,51L313,58L319,57L322,61L315,63L316,68L312,69L310,69L309,71L309,74L312,76L314,78L319,80L320,83L318,88L320,95L325,98L325,99L323,105L319,107L313,108L313,113L317,115L318,118L317,122L316,126L317,129L320,131L320,133L319,138L319,147L320,151L322,158L322,158L317,162L316,164L316,171L321,172L322,175L322,178L325,182L338,175L343,168L345,168L356,168L358,168L367,171L374,170L380,171L383,170L389,166L392,167L395,167L397,166L399,157L406,162L405,163L409,165L415,163L418,161L419,151L417,136L417,130L418,125L418,122L415,119L411,118L407,116L404,113L402,110L399,109L392,104L386,103L386,96L389,93L397,89L403,85L406,84L416,88L419,86L422,83L423,69L425,63L426,58L424,56L417,47L416,44L416,41L417,32L336,32Z " data-fips="PU10" data-fips-="" data-iso3="GNB" data-name="Gab"/><path d="M273,164L270,169L264,178L262,184L262,187L258,195L255,198L237,202L234,201L232,198L225,194L223,195L215,201L215,201L214,203L206,208L201,207L196,213L195,218L197,220L197,229L197,232L205,238L208,238L217,240L220,241L221,235L220,228L221,226L224,226L222,229L224,241L222,248L215,252L215,254L219,257L221,258L227,251L235,242L235,240L237,238L239,239L240,235L243,234L246,233L248,230L249,227L251,228L251,231L248,235L251,238L245,239L245,241L242,242L240,247L238,250L236,259L236,261L240,262L241,261L244,258L242,263L239,265L240,267L243,265L248,262L256,252L269,228L271,217L273,212L286,193L289,190L292,189L297,188L308,189L314,188L325,182L322,178L322,175L321,172L316,171L313,171L299,174L296,172L292,172L289,176L286,177L282,176L279,173L277,170L275,165L273,164Z " data-fips="PU07" data-fips-="" data-iso3="GNB" data-name="Tombali"/></g></svg>