<?xml version="1.0" encoding="UTF-8"?><!DOCTYPE svg  PUBLIC '-//W3C//DTD SVG 1.1//EN'  'http://www.w3.org/Graphics/SVG/1.1/DTD/svg11.dtd'><svg enable_background="new 0 0 450 301" height="301px" style="stroke-linejoin: round; stroke:#000; fill:#f6f3f0;" version="1.1" viewBox="0 0 450 301" width="450px" xmlns="http://www.w3.org/2000/svg" xmlns:xlink="http://www.w3.org/1999/xlink"><defs><style type="text/css"><![CDATA[path { fill-rule: evenodd; }
#context path { fill: #eee; stroke: #bbb; } ]]></style></defs><metadata><views><view h="301.0" padding="0.06" w="450"><proj id="laea" lat0="-1.44572539656" lon0="5.63310697886"/><bbox h="73.22" w="79.09" x="995.5" y="931.39"/><llbbox lat0="-90" lat1="90" lon0="-180" lon1="180"/></view></views></metadata><g id="context"><path d="M292,91L295,96L301,98L357,98L369,98L369,95L370,92L380,91L399,92L421,92L446,94L450,94L450,0L251,0L251,1L266,7L267,9L275,9L276,6L276,3L282,4L285,2L284,8L288,12L289,13L283,12L279,16L282,21L284,25L290,25L285,29L295,41L297,44L299,52L296,60L295,70L293,79L292,91Z " data-iso="CMR"/><path d="M369,98L369,110L369,157L303,157L297,159L290,153L287,153L281,155L281,157L283,168L283,176L280,178L279,174L276,174L268,177L268,180L272,183L275,189L279,193L291,198L299,196L302,198L292,201L292,205L289,203L280,200L275,199L272,197L269,190L267,193L269,210L266,225L258,236L251,239L249,242L243,243L239,238L237,237L244,253L249,261L255,273L262,277L269,274L266,282L271,285L274,284L278,288L272,290L268,290L253,273L254,277L259,284L264,294L265,299L450,299L450,94L446,94L421,92L399,92L380,91L370,92L369,95L369,98Z " data-iso="GAB"/><path d="M369,98L357,98L301,98L295,96L292,91L291,103L292,110L288,117L283,129L281,130L276,135L273,142L271,150L277,151L282,154L281,155L287,153L290,153L297,159L303,157L369,157L369,110L369,98Z M238,18L235,19L233,23L232,27L230,32L224,34L223,41L225,43L234,45L237,45L239,41L241,36L249,25L249,21L247,18L238,18Z " data-iso="GNQ"/><path d="M134,201L138,195L138,191L135,187L132,187L127,190L124,193L124,196L128,205L134,201Z M172,128L174,125L172,122L167,127L170,130L172,128Z " data-iso="STP"/></g><g fill="red" fill-opacity="0.35" id="regions"><path d="M311,98L312,104L311,106L307,110L307,116L302,125L298,129L307,132L308,133L309,143L315,151L313,152L307,153L302,157L303,157L323,157L350,157L351,155L347,148L341,143L341,141L345,135L348,130L348,128L340,127L337,129L331,127L332,124L331,122L332,119L333,116L329,113L328,111L328,111L324,106L323,101L322,98L311,98Z " data-fips="EK06" data-fips-="" data-iso3="GNQ" data-name="Centro Sur" data-p="CS"/><path d="M322,98L323,101L324,106L328,111L328,111L334,108L337,107L343,110L346,110L349,108L350,109L352,119L353,120L360,120L364,119L369,120L369,100L368,98L337,98L322,98Z " data-fips="EK07" data-fips-="" data-iso3="GNQ" data-name="Ki-Ntem" data-p="KN"/><path d="M302,157L307,153L313,152L315,151L309,143L308,133L307,132L298,129L302,125L307,116L307,110L311,106L312,104L311,98L301,98L294,95L291,90L290,91L291,94L291,100L290,101L292,108L290,113L287,119L282,125L285,129L283,127L280,132L275,136L271,146L269,148L270,150L273,152L274,151L280,152L281,154L284,154L290,152L297,160L300,160L301,157L302,157Z " data-fips="EK08" data-fips-="" data-iso3="GNQ" data-name="Litoral" data-p="LI"/><path d="M328,111L329,113L333,116L332,119L331,122L332,124L331,127L337,129L340,127L348,128L348,130L345,135L341,141L341,143L347,148L351,155L350,157L369,157L369,157L369,120L364,119L360,120L353,120L352,119L350,109L349,108L346,110L343,110L337,107L334,108L328,111Z " data-fips="EK09" data-fips-="" data-iso3="GNQ" data-name="Wele-Nzs" data-p="WN"/><path d="M246,28L250,22L249,20L245,19L236,18L235,20L233,24L233,24L242,27L243,28L245,30L246,28Z " data-fips="EK05" data-fips-="EK04" data-iso3="GNQ" data-name="Bioko Norte" data-p="BN"/><path d="M232,28L229,33L225,33L223,36L223,38L224,42L229,45L235,46L240,40L241,36L242,35L244,30L245,30L243,28L242,27L233,24L232,28Z " data-fips="EK04" data-fips-="EK05" data-iso3="GNQ" data-name="Bioko Sur" data-p="BS"/></g></svg>