<?xml version="1.0" encoding="UTF-8"?><!DOCTYPE svg  PUBLIC '-//W3C//DTD SVG 1.1//EN'  'http://www.w3.org/Graphics/SVG/1.1/DTD/svg11.dtd'><svg enable_background="new 0 0 450 451" height="451px" style="stroke-linejoin: round; stroke:#000; fill:#f6f3f0;" version="1.1" viewBox="0 0 450 451" width="450px" xmlns="http://www.w3.org/2000/svg" xmlns:xlink="http://www.w3.org/1999/xlink"><defs><style type="text/css"><![CDATA[path { fill-rule: evenodd; }
#context path { fill: #eee; stroke: #bbb; } ]]></style></defs><metadata><views><view h="451" padding="0.06" w="450"><proj id="laea" lat0="37.7904843203" lon0="20.781995771"/><bbox h="96.66" w="95.13" x="983.94" y="944.55"/><llbbox lat0="-90" lat1="90" lon0="-180" lon1="180"/></view></views></metadata><g id="context"><path d="M23,24L27,28L27,37L24,41L21,49L23,60L21,67L21,77L18,85L16,92L16,95L20,104L21,107L15,107L18,114L22,118L38,128L43,138L44,142L44,147L50,150L53,151L57,146L61,142L58,134L58,132L62,128L71,126L73,124L76,114L80,105L86,103L90,95L86,86L87,82L86,81L82,78L77,79L76,78L73,70L69,66L66,58L66,51L64,44L67,41L67,33L69,24L69,24L70,21L70,16L68,6L66,3L62,0L18,0L15,6L18,12L17,23L23,24Z " data-iso="ALB"/><path d="M171,53L175,54L181,54L184,50L201,50L207,48L212,45L218,44L219,41L233,41L239,39L245,46L250,49L253,47L260,49L266,51L271,55L283,51L294,49L300,50L306,47L309,45L310,42L307,32L305,30L306,25L310,24L316,25L315,24L317,20L323,19L326,11L327,10L339,8L344,4L351,2L353,1L364,9L367,10L372,7L378,7L387,6L385,1L384,0L147,0L152,6L155,10L160,12L164,14L166,16L174,31L172,38L171,52L171,53Z " data-iso="BGR"/><path d="M222,384L219,383L218,379L216,378L215,384L214,386L210,383L209,385L208,392L209,399L215,402L224,401L229,402L251,405L257,407L263,409L265,416L267,417L286,415L305,411L316,410L326,410L331,409L335,408L336,401L337,395L336,392L331,398L324,398L311,403L311,401L311,393L310,391L298,395L290,393L281,393L276,390L263,389L254,392L244,394L242,392L241,388L237,388L235,385L238,384L236,381L233,381L230,384L222,384Z M377,381L380,380L378,375L375,371L377,366L378,360L375,362L375,366L372,374L374,378L373,382L375,384L377,381Z M184,348L186,345L179,337L177,341L177,346L178,349L183,351L184,348Z M406,352L411,345L417,343L416,340L419,335L422,325L422,322L419,322L408,328L403,332L402,336L399,339L402,344L400,351L406,352Z M295,332L295,330L292,330L290,334L293,335L295,332Z M340,319L336,318L334,319L331,319L331,321L334,323L336,320L340,319Z M404,316L404,311L403,312L403,317L404,316Z M251,313L246,316L243,314L242,320L251,318L251,313Z M290,316L291,314L286,310L284,312L289,317L290,316Z M362,309L365,306L371,306L373,304L380,300L376,298L373,299L366,302L362,307L362,309Z M312,309L317,303L321,302L318,300L315,303L306,309L312,309Z M259,304L261,302L259,298L257,302L259,304Z M364,296L364,293L358,289L360,292L360,297L364,296Z M284,294L284,290L282,290L278,292L276,296L278,298L281,299L284,294Z M297,299L298,295L298,288L295,286L288,294L290,299L293,302L297,299Z M250,292L248,287L246,289L245,292L248,293L250,292Z M245,280L247,276L243,274L242,276L243,278L243,282L245,280Z M268,270L266,270L266,273L268,276L268,270Z M289,274L292,271L286,269L285,270L285,274L289,274Z M317,266L325,263L329,260L325,259L319,260L315,264L315,266L317,266Z M282,264L280,262L274,261L270,260L277,267L280,267L282,264Z M241,267L243,262L242,261L239,261L237,265L238,270L241,267Z M352,248L348,248L344,250L341,253L348,254L351,256L354,257L359,253L363,253L362,249L352,248Z M83,257L81,255L78,254L75,250L71,254L75,260L80,265L84,261L88,262L83,257Z M269,255L267,249L267,247L263,246L260,242L256,244L256,248L260,252L264,255L268,259L269,255Z M204,248L203,245L200,245L202,249L204,248Z M71,224L69,218L67,226L65,227L63,225L62,226L59,233L61,235L64,232L67,239L71,239L78,241L79,237L75,231L72,230L71,224Z M78,227L74,218L72,218L73,222L75,227L78,227Z M318,226L318,223L320,221L320,208L317,207L313,204L305,206L306,210L311,215L313,219L311,222L308,224L314,230L318,226Z M74,211L76,209L76,200L75,197L72,199L70,202L69,208L68,212L74,211Z M252,196L248,192L247,188L244,186L243,191L248,194L248,197L252,196Z M196,189L191,185L184,187L177,192L172,195L175,196L179,194L184,196L189,198L194,202L206,212L207,218L212,220L225,221L232,231L233,236L238,239L240,241L243,241L247,244L250,241L250,235L249,234L245,234L240,233L236,230L233,223L231,216L232,212L227,204L217,204L209,200L201,197L199,195L196,189Z M212,180L204,174L207,181L210,182L212,180Z M217,177L219,174L220,170L217,173L215,178L217,177Z M328,162L325,159L317,160L317,162L311,165L306,165L303,171L306,174L314,176L318,170L322,170L321,172L316,177L318,180L328,182L332,182L335,181L332,176L337,177L336,174L334,170L327,165L328,162Z M47,163L42,161L37,150L41,145L37,141L31,142L29,144L29,146L36,154L39,162L43,164L48,167L47,163Z M283,127L283,124L280,125L277,129L274,126L266,127L267,135L270,136L275,132L278,137L280,137L283,127Z M293,101L287,96L282,98L288,103L293,101Z M252,92L250,82L245,82L241,88L241,91L247,94L252,92Z M316,25L310,24L306,25L305,30L307,32L310,42L309,45L306,47L300,50L294,49L283,51L271,55L266,51L260,49L253,47L250,49L245,46L239,39L233,41L219,41L218,44L212,45L207,48L201,50L184,50L181,54L175,54L171,53L168,53L164,55L163,62L153,66L137,65L131,66L128,67L122,76L113,81L106,79L102,81L92,82L87,82L86,86L90,95L86,103L80,105L76,114L73,124L71,126L62,128L58,132L58,134L61,142L57,146L53,151L50,150L44,147L49,151L53,157L57,169L65,174L69,180L79,188L85,186L94,186L95,193L92,195L84,192L78,192L78,199L83,201L88,208L94,223L97,226L102,224L103,221L106,222L110,227L125,224L132,222L144,225L148,225L151,223L152,220L160,225L167,228L176,233L178,232L185,234L187,236L184,240L177,240L174,242L175,247L170,246L166,242L159,238L145,234L131,227L126,226L122,230L118,235L113,236L109,234L107,234L102,244L95,250L95,254L102,258L104,264L107,266L115,272L120,280L120,285L115,291L115,298L123,310L130,318L132,314L132,303L138,301L142,308L145,309L152,319L152,330L157,334L157,327L163,315L168,314L170,314L173,320L180,329L188,333L186,327L183,322L184,314L183,310L180,301L173,285L169,279L167,271L169,268L173,271L177,272L184,276L184,281L187,282L191,280L202,276L198,270L197,268L191,267L188,266L186,260L186,256L181,251L188,246L205,243L212,250L219,256L223,262L227,260L226,246L225,235L224,230L222,227L216,225L209,223L204,216L195,214L189,206L184,206L179,202L168,199L164,196L158,195L160,194L169,193L174,190L180,185L176,185L175,181L172,177L170,172L177,168L184,172L185,175L183,179L184,181L187,181L192,177L190,170L181,159L176,155L173,151L169,141L158,128L157,123L158,114L160,109L159,102L164,99L167,97L172,96L169,102L171,107L180,112L189,117L190,124L193,130L204,133L206,131L196,125L193,117L194,114L205,116L213,127L218,130L220,127L218,122L212,117L207,112L207,110L212,108L215,108L222,111L226,112L230,116L235,119L232,114L229,109L220,105L213,105L212,101L214,97L209,93L207,90L208,86L216,86L222,87L229,83L235,76L239,73L242,74L248,77L253,78L261,71L266,69L272,73L275,72L283,75L299,76L306,80L307,83L310,81L313,77L319,69L318,53L326,46L329,45L330,43L327,31L326,31L320,26L316,25Z " data-iso="GRC"/><path d="M69,24L70,24L75,25L77,22L77,15L79,12L90,6L94,6L99,11L100,10L102,5L104,4L112,2L112,2L111,0L111,0L62,0L66,3L68,6L70,16L70,21L69,24Z " data-iso="KOS"/><path d="M112,2L112,2L104,4L102,5L100,10L99,11L94,6L90,6L79,12L77,15L77,22L75,25L70,24L69,24L69,24L67,33L67,41L64,44L66,51L66,58L69,66L73,70L76,78L77,79L82,78L86,81L87,82L92,82L102,81L106,79L113,81L122,76L128,67L131,66L137,65L153,66L163,62L164,55L168,53L171,53L171,52L172,38L174,31L166,16L164,14L160,12L155,10L152,6L147,0L120,0L119,1L114,2L112,2Z " data-iso="MKD"/><path d="M17,23L18,12L15,6L18,0L0,0L0,3L8,12L11,19L17,23Z " data-iso="MNE"/><path d="M112,2L114,2L119,1L120,0L111,0L111,0L112,2Z " data-iso="SRB"/><path d="M306,117L306,114L303,111L296,114L293,117L296,119L306,117Z M450,74L434,79L427,85L435,88L439,90L437,93L426,93L421,95L406,94L392,97L390,97L393,91L387,90L383,90L381,92L387,97L382,101L371,102L364,99L362,95L355,95L350,99L338,100L328,112L321,122L316,125L315,131L316,144L314,149L314,155L325,153L331,151L346,147L349,148L349,150L346,156L341,160L340,163L348,173L349,176L347,179L347,182L350,184L356,185L352,192L347,195L346,196L350,205L353,209L356,211L364,210L362,212L352,215L344,214L343,218L340,213L340,209L339,205L335,202L332,201L329,202L329,206L332,213L332,217L328,217L326,222L328,224L333,226L337,228L340,229L344,226L350,229L354,233L356,233L366,236L370,237L371,242L370,251L364,254L364,256L367,258L370,265L372,270L375,273L379,273L380,275L386,278L387,282L379,285L376,285L374,288L375,294L379,291L394,291L415,288L420,288L419,290L413,294L410,300L407,301L393,304L385,306L385,308L389,310L394,310L401,306L414,304L411,309L411,311L415,310L419,307L423,300L432,300L443,305L450,306L450,74Z M450,44L446,43L439,44L437,47L436,57L446,65L450,67L450,44Z M316,25L320,26L326,31L327,31L330,43L329,45L326,46L318,53L319,69L313,77L310,81L307,83L308,85L310,89L315,88L321,89L331,87L340,86L337,91L326,98L318,106L318,112L316,120L322,117L327,108L340,94L348,89L360,82L367,72L369,64L380,61L387,62L394,58L398,56L403,56L424,60L432,57L435,44L430,44L403,33L396,29L389,19L386,12L387,6L378,7L372,7L367,10L364,9L353,1L351,2L344,4L339,8L327,10L326,11L323,19L317,20L315,24L316,25Z " data-iso="TUR"/></g><g fill="red" fill-opacity="0.35" id="regions"><path d="M77,254L75,250L71,253L71,256L80,265L84,261L88,262L88,261L85,259L82,255L77,254Z M69,218L68,219L68,223L60,231L59,235L63,235L63,230L66,235L66,238L71,239L79,242L80,240L78,236L74,230L72,231L69,218Z M74,218L71,218L73,222L75,227L78,227L78,224L74,224L75,220L74,218Z M83,212L86,208L84,209L83,212Z M75,206L76,204L76,201L74,197L71,201L69,206L68,211L71,210L72,211L75,210L76,206L75,206Z M52,177L50,174L51,177L52,177Z M41,143L34,142L28,145L30,149L32,149L33,152L36,154L39,162L41,162L44,165L49,166L48,162L42,162L41,161L41,152L40,152L37,148L41,146L41,143Z " data-fips="GR25" data-fips-="" data-iso3="GRC" data-name="Ionioi Nisoi"/><path d="M184,347L186,344L181,340L179,337L177,340L177,348L178,348L184,351L184,347Z M205,281L201,281L197,283L203,282L205,281Z M188,267L188,272L190,273L193,275L199,275L200,277L200,277L199,272L197,272L196,269L197,265L194,266L196,270L194,270L188,267L188,267Z M202,262L203,261L204,257L198,257L202,262Z M203,245L202,244L198,246L200,248L197,248L200,250L202,250L204,246L203,245Z M213,224L209,226L207,229L206,234L204,237L198,233L196,233L194,229L191,231L191,233L186,234L188,235L189,235L187,237L188,238L183,241L182,241L184,243L185,245L186,248L187,247L189,246L194,245L205,241L204,245L208,246L207,247L210,247L215,254L217,254L219,256L222,262L226,263L228,261L228,254L227,250L225,249L226,248L225,245L225,243L223,237L226,235L227,232L222,227L214,224L213,224Z " data-fips="GR35" data-fips-="" data-iso3="GRC" data-name="Attiki"/><path d="M150,236L150,240L148,246L144,247L143,252L144,254L140,257L137,256L134,258L131,256L128,253L126,254L124,258L124,263L124,269L128,270L132,273L129,279L120,281L120,282L120,285L116,290L115,292L115,298L121,305L120,311L122,313L126,314L129,318L133,314L131,309L132,302L138,301L141,301L141,308L145,308L151,319L152,325L153,325L152,332L156,333L157,336L158,335L157,325L159,323L161,317L161,315L166,313L171,314L171,315L172,321L173,320L177,324L181,329L182,329L185,333L190,334L190,333L187,330L187,327L183,323L183,319L182,318L185,317L186,314L181,305L181,302L179,296L176,295L176,291L172,283L169,279L168,268L171,270L179,273L180,275L182,274L182,275L186,276L184,279L183,279L186,283L192,281L190,279L194,278L200,277L199,275L193,275L190,273L188,272L188,267L187,266L187,260L185,259L187,257L187,255L184,253L180,253L179,251L180,249L183,249L185,248L186,248L185,245L184,243L182,241L182,241L177,240L172,242L178,246L175,248L172,248L165,241L157,237L150,236L150,236Z " data-fips="GR36" data-fips-="" data-iso3="GRC" data-name="Peloponnisos"/><path d="M120,281L129,279L132,273L128,270L124,269L124,263L124,258L126,254L128,253L131,256L134,258L137,256L140,257L144,254L143,252L144,247L148,246L150,240L150,236L149,235L141,233L140,231L136,229L134,227L127,226L123,228L120,234L116,237L112,236L110,234L105,239L101,245L103,244L98,249L96,250L94,255L99,256L102,259L104,264L107,265L116,274L119,280L120,281Z M104,179L103,180L99,183L93,183L91,186L91,186L92,185L96,190L95,192L96,195L95,194L90,194L90,192L87,191L82,192L79,192L80,196L78,196L76,199L80,202L81,200L83,201L84,205L87,207L93,215L93,222L95,223L92,226L98,227L104,223L102,218L104,218L105,222L110,226L115,225L124,224L126,223L127,223L128,219L133,216L133,213L132,208L133,206L131,201L127,203L125,203L124,206L123,207L121,205L117,206L113,203L112,201L113,199L116,197L112,195L109,191L105,188L104,181L104,179Z " data-fips="GR38" data-fips-="" data-iso3="GRC" data-name="Dytiki Ellada"/><path d="M77,113L78,114L81,112L83,116L86,121L85,126L88,130L90,132L89,134L90,136L92,140L97,139L101,141L101,142L102,143L105,141L109,139L115,139L121,141L128,139L127,136L125,135L130,131L131,128L134,126L135,122L136,121L136,120L139,114L135,109L135,107L132,107L128,104L126,93L122,92L122,89L119,85L123,82L121,78L120,78L118,78L112,81L107,79L101,81L96,81L93,82L87,82L87,89L89,91L90,94L89,99L84,105L81,104L77,111L77,113Z " data-fips="GR08" data-fips-="" data-iso3="GRC" data-name="Dytiki Makedonia"/><path d="M200,176L198,174L195,178L197,178L200,176Z M204,174L207,181L210,182L210,178L204,174Z M217,177L220,170L220,169L216,176L214,178L217,177Z M224,165L223,167L225,168L224,165Z M136,121L135,122L134,126L131,128L130,131L125,135L127,136L128,139L121,141L115,139L109,139L105,141L102,143L101,142L100,142L97,145L98,148L95,149L94,154L96,156L95,160L98,166L99,168L105,170L105,172L103,177L103,178L104,179L105,180L110,176L111,177L113,175L117,174L118,178L119,179L120,182L122,182L125,180L129,183L130,186L132,186L138,182L139,179L143,174L151,178L151,180L155,181L155,185L158,186L161,186L172,190L177,189L178,189L179,186L180,185L176,185L177,184L177,182L172,177L171,178L169,175L169,172L175,170L174,168L177,167L178,169L185,171L187,176L186,178L182,182L185,181L192,176L189,168L187,166L182,160L173,153L170,143L168,140L165,137L163,134L163,134L160,134L156,135L154,134L152,131L147,128L147,123L145,122L141,125L140,123L140,121L138,121L137,122L136,121Z " data-fips="GR21" data-fips-="" data-iso3="GRC" data-name="Thessalia"/><path d="M77,113L73,121L72,126L62,128L60,131L58,131L58,136L61,143L57,142L57,148L53,151L45,148L52,152L50,157L53,158L56,163L54,163L57,167L57,169L60,172L65,172L65,175L70,181L74,184L76,191L80,189L78,187L80,182L81,182L82,185L84,184L88,187L91,186L91,186L93,183L99,183L103,180L104,179L103,178L103,177L105,172L105,170L99,168L98,166L95,160L96,156L94,154L95,149L98,148L97,145L100,142L101,142L101,141L97,139L92,140L90,136L89,134L90,132L88,130L85,126L86,121L83,116L81,112L78,114L77,113L77,113Z " data-fips="GR17" data-fips-="" data-iso3="GRC" data-name="Ipeiros"/><path d="M330,259L332,256L328,257L324,260L320,259L317,261L314,266L317,266L330,259Z M358,250L351,247L344,250L341,252L342,255L348,254L351,257L355,257L356,255L362,253L361,249L358,248L358,250Z M315,205L312,204L306,206L305,209L310,213L311,216L313,219L307,225L312,229L317,227L321,221L320,219L318,206L317,208L315,205Z M294,205L293,209L295,207L294,205Z M328,162L325,159L317,160L313,165L306,165L305,167L306,174L313,176L315,175L319,170L321,169L323,171L315,177L318,180L323,180L330,182L335,181L335,180L331,176L333,174L335,179L338,179L334,171L331,167L329,167L328,162Z M265,157L267,153L266,152L264,153L265,157Z M283,124L281,125L279,127L276,129L274,126L270,126L266,130L267,132L267,135L270,135L271,137L275,131L276,136L280,138L280,135L279,131L282,128L283,124Z " data-fips="GR48" data-fips-="" data-iso3="GRC" data-name="Voreio Aigaio"/><path d="M248,191L247,188L243,186L243,192L247,194L248,196L246,197L250,198L253,196L252,195L248,191Z M197,192L194,188L194,187L191,184L170,196L171,197L177,196L178,194L181,196L184,195L192,201L193,202L197,205L200,208L206,212L207,215L205,218L210,220L214,221L225,220L226,224L229,225L231,227L229,230L232,230L232,235L239,240L239,243L242,244L243,241L246,245L247,244L251,238L250,237L250,233L243,234L235,230L235,228L233,223L231,218L231,216L233,213L228,207L229,205L226,204L220,205L216,204L210,200L205,200L201,197L197,192Z M104,179L104,181L105,188L109,191L112,195L116,197L113,199L112,201L113,203L117,206L121,205L123,207L124,206L125,203L127,203L131,201L133,206L132,208L133,213L133,216L128,219L127,223L127,223L133,222L134,223L140,224L146,225L151,224L151,219L155,222L158,227L159,228L161,224L164,225L166,227L169,228L168,230L174,233L177,233L179,232L181,233L184,232L185,235L188,235L186,234L191,233L191,231L194,229L196,233L198,233L204,237L206,234L207,229L209,226L213,224L211,224L209,223L206,220L205,216L204,215L201,216L197,215L191,211L193,209L192,207L186,205L183,208L180,202L172,201L164,196L161,197L157,194L161,192L164,194L168,194L177,189L177,189L172,190L161,186L158,186L155,185L155,181L151,180L151,178L143,174L139,179L138,182L132,186L130,186L129,183L125,180L122,182L120,182L119,179L118,178L117,174L113,175L111,177L110,176L105,180L104,179Z " data-fips="GR33" data-fips-="" data-iso3="GRC" data-name="Stere Ellda"/><path d="M224,385L220,385L218,379L215,381L216,384L214,387L211,385L210,382L209,391L208,394L207,399L210,402L215,402L221,401L223,402L232,404L235,403L243,404L248,403L254,406L256,407L259,408L263,408L264,409L265,418L276,417L284,415L287,415L293,413L300,413L305,411L315,411L320,409L326,409L330,410L337,402L338,399L335,394L329,398L326,397L320,400L319,400L316,403L315,404L310,404L310,399L311,396L310,395L312,392L306,392L298,395L296,395L293,393L288,393L279,393L277,389L274,389L274,390L271,389L263,389L260,390L257,392L251,393L249,393L245,394L242,394L241,387L238,389L232,386L238,385L238,384L232,381L233,383L229,385L224,385Z " data-fips="GR43" data-fips-="" data-iso3="GRC" data-name="Kriti"/><path d="M121,78L123,82L119,85L122,89L122,92L126,93L128,104L132,107L135,107L135,109L139,114L136,120L136,121L137,122L138,121L140,121L140,123L141,125L145,122L147,123L147,128L152,131L154,134L156,135L160,134L163,134L163,134L159,129L157,127L156,121L161,108L157,103L160,101L163,101L169,93L170,93L173,95L175,98L168,101L171,108L174,108L182,114L189,116L190,117L189,123L193,129L192,131L197,131L203,133L209,133L207,132L206,130L203,129L198,127L193,121L192,121L192,114L193,113L197,114L199,115L205,116L212,128L213,127L217,131L220,131L219,121L211,117L207,115L207,108L209,109L216,107L219,110L219,110L219,108L219,106L219,106L219,106L218,107L211,102L212,99L215,98L213,97L212,96L208,92L206,90L205,88L208,85L212,84L212,84L216,83L220,79L223,74L223,72L219,67L216,68L210,64L205,59L205,55L202,54L201,50L200,50L196,49L192,49L188,51L186,49L183,52L183,53L179,54L167,53L163,55L163,63L158,63L156,66L151,66L147,65L145,66L143,64L138,64L135,66L134,65L128,67L122,75L121,78L121,78Z " data-fips="GR05" data-fips-="" data-iso3="GRC" data-name="Kentriki Makedonia"/><path d="M220,111L227,112L234,121L236,120L236,118L234,115L231,111L227,108L224,108L221,106L220,104L220,106L219,106L219,106L219,108L219,110L220,111Z " data-fips="GR15" data-fips-="" data-iso3="GRC" data-name="Ayion Oros"/><path d="M292,97L288,96L283,98L286,102L292,101L292,97Z M253,92L253,88L249,82L246,81L243,84L241,89L245,92L247,95L253,92Z M201,50L202,54L205,55L205,59L210,64L216,68L219,67L223,72L223,74L220,79L216,83L212,84L213,84L222,87L223,87L233,80L232,78L235,74L238,73L243,73L245,78L247,77L249,78L253,78L257,74L263,70L263,69L268,69L267,71L273,73L274,72L285,76L288,75L293,76L301,76L303,76L309,82L310,81L312,78L318,72L317,71L320,69L320,64L318,61L319,60L318,57L318,52L322,50L326,46L329,47L330,45L330,41L328,31L327,32L322,29L318,26L315,26L311,24L305,26L305,31L307,32L310,36L309,39L310,43L308,46L299,50L296,48L290,51L283,50L282,52L280,52L273,55L270,55L268,52L264,50L256,47L252,47L250,50L244,46L245,46L239,38L229,41L229,40L220,40L219,41L219,45L217,45L207,47L207,49L202,49L201,50L201,50Z " data-fips="GR01" data-fips-="" data-iso3="GRC" data-name="Anatoliki Makedonia kai Thraki"/><path d="M369,384L364,384L362,388L369,385L369,384Z M378,361L375,365L374,369L371,374L373,375L374,383L377,383L376,382L380,380L379,376L377,373L376,369L378,365L378,361Z M394,336L394,335L390,335L391,337L394,336Z M313,333L310,332L307,332L307,333L313,333Z M422,322L415,324L410,327L404,332L402,336L398,339L402,345L400,351L403,354L405,353L414,343L417,344L418,336L421,328L422,322Z M296,333L294,329L293,333L290,335L294,336L296,333Z M382,322L379,323L379,325L385,328L386,327L382,322Z M373,318L374,316L372,315L371,318L373,318Z M340,318L337,316L337,319L334,320L332,319L334,324L335,323L336,320L340,318Z M402,312L400,315L404,313L402,312Z M271,321L270,320L265,318L269,321L271,321Z M279,318L279,314L277,316L276,319L279,318Z M247,314L242,314L242,316L243,319L249,319L252,317L251,314L250,313L247,314Z M257,313L256,312L254,312L257,313Z M291,313L288,312L284,311L284,314L290,318L291,313Z M253,309L253,312L254,310L253,309Z M293,308L294,305L292,307L293,308Z M372,304L380,300L377,299L371,299L365,304L363,307L361,307L360,310L363,312L364,308L372,304Z M321,302L317,301L316,302L311,305L311,308L308,308L307,310L313,308L314,306L318,302L321,302Z M275,300L276,296L273,297L274,300L275,300Z M256,296L259,305L261,302L260,300L256,296Z M362,291L358,289L361,292L360,294L361,298L365,296L365,293L362,291Z M284,291L282,289L278,292L276,297L279,299L282,298L284,291Z M354,283L352,284L356,288L357,287L354,283Z M299,292L297,287L293,288L288,293L292,302L297,299L298,296L299,292Z M248,288L247,288L245,293L248,292L248,288Z M342,273L341,273L341,276L342,273Z M246,275L245,274L245,272L243,274L242,282L245,280L246,275Z M286,269L285,274L289,274L291,272L292,271L288,269L288,271L286,269Z M269,276L268,270L266,271L264,276L265,278L269,276Z M258,265L258,263L256,264L258,265Z M274,261L273,260L270,259L270,262L275,265L276,266L280,268L282,264L281,262L278,261L277,262L274,261Z M240,261L237,264L238,270L243,264L243,262L240,261Z M262,246L258,242L255,244L255,246L264,255L268,259L268,254L268,253L267,250L267,247L262,246Z " data-fips="GR47" data-fips-="" data-iso3="GRC" data-name="Notio Aigaio"/></g></svg>