<?xml version="1.0" encoding="UTF-8"?><!DOCTYPE svg  PUBLIC '-//W3C//DTD SVG 1.1//EN'  'http://www.w3.org/Graphics/SVG/1.1/DTD/svg11.dtd'><svg enable_background="new 0 0 450 451" height="451px" style="stroke-linejoin: round; stroke:#000; fill:#f6f3f0;" version="1.1" viewBox="0 0 450 451" width="450px" xmlns="http://www.w3.org/2000/svg" xmlns:xlink="http://www.w3.org/1999/xlink"><defs><style type="text/css"><![CDATA[path { fill-rule: evenodd; }
#context path { fill: #eee; stroke: #bbb; } ]]></style></defs><metadata><views><view h="451" padding="0.06" w="450"><proj id="laea" lat0="90.0" lon0="-45.0"/><bbox h="312.03" w="187.21" x="918.19" y="1066.43"/><llbbox lat0="-90" lat1="90" lon0="-180" lon1="180"/></view></views></metadata><g id="context"><path d="M-161,582L-164,579L-161,579L-161,582Z M-4,638L-4,642L-2,641L5,636L8,635L13,639L10,643L4,645L0,645L-8,642L-9,636L-8,634L-4,632L5,624L9,623L10,627L4,636L-4,638Z M-35,619L-31,619L-27,622L-15,625L-13,627L-18,628L-24,631L-26,630L-26,627L-34,624L-39,618L-38,616L-42,614L-37,610L-34,609L-37,613L-35,619Z M-8,613L-7,611L0,610L-8,613Z M-178,581L-168,582L-160,582L-156,579L-149,576L-145,577L-132,575L-129,576L-113,577L-105,574L-104,573L-94,569L-87,567L-78,565L-66,565L-48,566L-33,572L-30,574L-28,580L-29,579L-31,586L-35,586L-41,588L-44,588L-50,585L-51,583L-56,584L-52,587L-51,592L-42,592L-39,595L-44,600L-49,604L-45,605L-47,611L-46,612L-46,617L-46,619L-42,621L-37,624L-41,625L-30,632L-28,633L-23,637L-15,636L-15,638L-10,640L-8,645L-6,648L-17,649L-27,650L-42,649L-43,651L-47,646L-50,648L-52,646L-53,650L-58,651L-63,654L-67,655L-70,655L-71,657L-77,650L-80,649L-76,641L-74,638L-69,637L-49,634L-47,638L-38,636L-44,634L-55,631L-45,626L-52,627L-59,628L-63,628L-71,626L-76,628L-77,627L-87,623L-85,615L-89,612L-81,591L-84,584L-94,582L-93,579L-96,578L-109,585L-115,590L-121,597L-126,598L-129,600L-134,599L-135,598L-140,601L-160,591L-178,581Z M-483,37L-483,34L-480,31L-483,37Z M-487,7L-484,3L-483,4L-487,7Z M2,585L-3,584L-12,578L-17,574L-25,563L-25,562L-20,563L-11,568L-5,574L4,584L2,585Z M-476,23L-473,20L-471,21L-474,24L-476,23Z M-471,-3L-472,4L-473,17L-474,20L-482,27L-485,29L-488,40L-490,42L-497,48L-495,49L-500,51L-500,37L-500,33L-497,27L-494,29L-495,20L-491,18L-492,16L-489,12L-490,8L-485,12L-483,2L-479,-5L-480,-10L-474,-13L-469,-15L-469,-14L-471,-3Z M86,564L84,566L79,567L81,570L80,573L65,588L64,592L73,586L79,589L81,589L72,594L75,595L72,596L76,596L82,599L82,601L85,602L92,599L93,601L98,601L102,606L97,610L94,611L99,614L94,618L100,617L107,619L106,620L99,622L95,628L100,630L103,626L107,626L104,635L110,632L109,637L106,641L104,646L102,648L96,648L96,642L91,644L89,643L90,639L93,628L90,628L87,633L81,633L74,640L68,639L68,636L73,635L77,631L83,629L80,629L73,630L66,628L69,627L70,624L66,624L65,625L58,625L44,620L40,620L28,619L27,612L38,607L39,605L32,603L36,601L43,596L46,597L48,596L46,593L51,588L57,580L65,572L78,563L80,562L83,564L84,562L86,564Z M-458,-13L-456,-16L-454,-14L-458,-13Z M-167,452L-169,449L-164,451L-167,452Z M-443,-20L-444,-21L-439,-21L-438,-19L-443,-20Z M-442,-27L-439,-30L-438,-30L-442,-27Z M-172,432L-172,432L-181,420L-177,419L-171,423L-172,432Z M-433,-59L-438,-58L-439,-59L-443,-57L-449,-51L-449,-54L-439,-64L-437,-63L-436,-67L-433,-59Z M-435,-23L-442,-22L-446,-23L-438,-25L-435,-30L-429,-29L-432,-24L-435,-23Z M-432,-38L-427,-46L-428,-39L-431,-37L-432,-38Z M-419,-43L-421,-44L-417,-45L-419,-43Z M-418,-70L-418,-67L-423,-65L-426,-69L-426,-68L-423,-64L-419,-64L-417,-59L-423,-61L-432,-62L-434,-66L-429,-70L-429,-72L-424,-74L-420,-75L-418,-70Z M-405,-46L-406,-48L-401,-45L-405,-46Z M-122,397L-118,393L-119,396L-122,397Z M-122,394L-128,397L-125,395L-133,396L-128,393L-134,394L-134,393L-123,389L-121,388L-122,394Z M44,449L43,451L42,449L44,449Z M35,395L34,396L32,393L34,392L35,395Z M2,385L3,381L6,380L7,383L2,385Z M37,378L34,371L39,373L37,378Z M-67,304L-67,309L-69,311L-75,314L-77,314L-78,308L-73,304L-69,303L-67,304Z M44,358L47,361L45,362L44,358Z M1,341L-2,339L-2,335L1,341Z M-78,284L-88,289L-93,289L-98,286L-94,281L-88,278L-86,281L-83,281L-78,284Z M-45,297L-49,301L-50,294L-45,297Z M-38,303L-40,300L-41,297L-38,297L-38,303Z M-72,239L-68,238L-67,245L-64,248L-64,253L-62,259L-62,265L-67,270L-59,276L-58,281L-66,282L-67,281L-73,272L-73,265L-73,263L-76,261L-80,264L-88,265L-90,266L-95,266L-99,264L-94,256L-94,255L-104,250L-104,248L-98,246L-94,247L-75,229L-70,227L-68,230L-71,234L-72,239Z M-67,236L-67,235L-64,228L-63,229L-67,236Z M-59,237L-60,239L-60,234L-59,230L-58,232L-59,237Z M-147,86L-147,84L-144,83L-147,86Z M20,249L15,245L16,241L22,248L20,249Z M-53,198L-51,192L-46,191L-47,193L-50,197L-53,198Z M13,234L15,237L11,244L6,249L3,249L-3,246L-5,245L-4,240L-0,235L6,231L9,231L13,234Z M-121,98L-120,94L-119,94L-121,98Z M18,236L16,232L18,229L19,230L18,236Z M-2,213L-3,212L7,208L8,210L2,213L-2,213Z M13,217L12,215L14,212L17,214L13,217Z M-70,134L-71,135L-74,135L-70,134Z M13,205L12,206L6,206L9,204L13,205Z M6,199L4,201L1,199L0,201L-2,196L6,198L6,199Z M-77,124L-76,124L-77,133L-82,143L-90,141L-92,136L-93,129L-93,123L-94,120L-90,120L-82,119L-82,123L-80,119L-76,119L-77,124Z M-178,581L-188,579L-197,581L-207,582L-214,585L-237,571L-243,569L-246,576L-245,579L-248,580L-266,576L-280,569L-298,566L-301,564L-303,556L-300,552L-288,552L-276,544L-263,517L-269,503L-266,501L-271,496L-269,490L-272,487L-273,484L-271,478L-275,468L-289,431L-292,429L-307,418L-313,411L-313,410L-319,407L-322,401L-322,398L-325,395L-324,392L-326,386L-334,379L-335,375L-338,368L-334,361L-334,357L-339,361L-354,342L-370,321L-394,286L-405,268L-413,254L-426,231L-433,216L-440,202L-446,187L-456,163L-469,128L-475,108L-480,92L-486,67L-490,52L-485,49L-484,52L-484,48L-480,48L-484,45L-483,41L-480,38L-480,42L-475,39L-479,36L-479,32L-472,24L-469,23L-470,21L-471,12L-470,7L-464,5L-467,-1L-466,-4L-463,-10L-459,-9L-453,-2L-454,-8L-458,-10L-456,-12L-446,-13L-443,-9L-442,-6L-437,-6L-444,-13L-453,-16L-447,-19L-439,-18L-436,-22L-431,-23L-428,-27L-428,-30L-424,-30L-427,-24L-418,-26L-424,-32L-428,-32L-429,-34L-428,-38L-426,-39L-423,-44L-415,-39L-414,-44L-407,-45L-393,-38L-393,-41L-401,-43L-396,-43L-392,-44L-384,-44L-381,-49L-376,-61L-376,-63L-372,-66L-368,-67L-368,-69L-365,-69L-347,-80L-346,-80L-341,-84L-338,-88L-331,-95L-326,-96L-322,-100L-325,-108L-333,-110L-333,-113L-337,-120L-331,-120L-321,-129L-319,-130L-316,-134L-311,-133L-312,-143L-311,-145L-311,-150L-149,-133L-151,-127L-153,-122L-158,-117L-163,-110L-166,-101L-168,-97L-164,-101L-161,-101L-157,-100L-155,-96L-153,-92L-151,-91L-153,-90L-155,-84L-152,-82L-150,-80L-149,-76L-142,-69L-142,-64L-144,-63L-151,-70L-161,-82L-166,-81L-161,-81L-157,-76L-155,-75L-154,-70L-158,-70L-153,-68L-149,-65L-144,-58L-149,-58L-144,-55L-141,-54L-138,-51L-136,-54L-133,-54L-136,-50L-145,-44L-150,-39L-152,-36L-150,-34L-147,-35L-137,-32L-137,-31L-144,-29L-145,-28L-150,-29L-149,-24L-142,-22L-140,-16L-139,-14L-144,-0L-144,6L-146,14L-142,29L-144,35L-147,40L-150,42L-152,37L-159,35L-160,37L-157,51L-156,56L-149,65L-146,67L-147,73L-146,75L-149,80L-146,80L-151,88L-154,85L-158,94L-157,93L-152,91L-153,95L-142,83L-137,82L-130,88L-129,88L-122,89L-122,88L-128,86L-128,85L-134,81L-136,77L-134,74L-127,77L-118,85L-118,87L-123,92L-123,96L-126,101L-121,106L-121,119L-118,123L-114,126L-111,135L-106,137L-104,134L-106,140L-103,135L-99,134L-96,135L-94,133L-93,136L-94,141L-91,146L-97,150L-101,152L-104,156L-103,161L-104,163L-109,158L-109,161L-105,163L-100,161L-97,156L-96,154L-91,151L-87,155L-74,155L-71,149L-77,148L-72,146L-69,143L-64,144L-67,142L-69,129L-67,123L-64,121L-58,120L-58,115L-51,111L-48,111L-47,114L-45,112L-38,109L-36,110L-36,116L-35,117L-38,126L-42,131L-46,141L-47,145L-51,142L-50,145L-58,145L-56,151L-53,154L-51,159L-54,159L-61,169L-63,170L-48,167L-47,168L-47,178L-53,186L-55,183L-61,190L-62,200L-63,202L-56,202L-52,199L-46,197L-35,190L-35,190L-29,186L-30,184L-25,178L-19,179L-17,183L-10,190L-14,192L-12,194L-14,196L-10,201L-16,202L-15,203L-15,208L-21,208L-24,206L-27,215L-27,222L-32,230L-37,230L-44,231L-52,230L-51,227L-51,221L-51,218L-52,217L-52,223L-54,231L-59,229L-60,225L-61,218L-68,214L-69,215L-68,222L-84,226L-88,222L-88,214L-92,205L-99,197L-99,200L-97,199L-93,208L-94,217L-85,229L-90,233L-99,235L-108,236L-113,229L-118,230L-125,229L-128,222L-131,218L-134,205L-136,211L-134,211L-132,219L-134,220L-130,221L-129,226L-128,232L-133,236L-139,234L-144,229L-145,234L-148,230L-152,231L-154,229L-155,232L-162,231L-164,235L-167,234L-172,236L-173,235L-177,237L-188,241L-204,253L-207,254L-208,261L-212,266L-209,264L-206,263L-201,270L-203,273L-210,284L-212,290L-215,293L-216,296L-214,298L-204,304L-199,315L-195,322L-193,333L-194,342L-184,361L-185,369L-173,376L-172,379L-166,384L-163,390L-164,394L-172,402L-173,407L-183,417L-183,432L-185,432L-181,445L-183,453L-182,454L-178,463L-177,459L-169,457L-168,460L-165,462L-165,458L-155,453L-154,450L-148,430L-144,426L-143,412L-134,414L-119,414L-105,410L-100,406L-95,399L-93,394L-91,386L-90,379L-94,369L-95,362L-90,359L-86,357L-79,353L-78,355L-73,349L-75,348L-71,341L-71,339L-68,336L-72,333L-69,332L-64,327L-61,326L-62,320L-59,314L-52,311L-47,315L-41,323L-42,325L-38,325L-34,331L-24,330L-22,336L-20,338L-18,347L-16,350L-18,353L-18,357L-13,363L-9,364L-6,369L-4,367L-11,382L-17,381L-13,383L-17,393L-14,394L-20,401L-20,399L-25,400L-22,403L-16,402L-11,404L-10,414L-8,414L-7,418L-8,422L-6,419L5,417L7,415L10,416L19,413L20,409L22,407L22,403L26,403L26,401L30,395L34,398L32,400L35,402L36,411L34,413L37,415L37,417L32,418L38,420L39,427L41,431L35,436L40,437L43,446L38,449L42,451L43,455L46,459L44,464L42,464L34,459L34,460L38,465L36,466L41,472L41,475L40,475L47,482L50,487L49,491L54,492L52,498L58,494L62,501L64,503L70,503L70,505L73,507L73,511L60,515L57,514L50,516L44,516L42,520L39,521L47,520L56,517L66,515L64,514L65,513L73,516L75,520L74,524L71,524L76,525L78,524L86,528L88,535L85,545L85,549L83,549L86,551L86,553L69,561L63,560L53,561L50,560L35,570L31,572L22,571L20,570L14,569L8,569L2,564L-7,561L-12,560L-14,559L-19,558L-23,556L-27,555L-37,551L-39,550L-42,551L-47,549L-52,550L-61,558L-72,556L-82,558L-93,564L-95,564L-102,558L-103,557L-97,563L-97,565L-102,569L-109,572L-114,574L-124,576L-132,574L-144,575L-148,575L-158,578L-160,577L-166,578L-166,581L-178,581Z M-80,12L-78,17L-74,16L-71,17L-71,26L-74,28L-79,28L-76,29L-77,30L-70,33L-66,28L-65,32L-69,39L-69,41L-80,50L-80,53L-75,53L-70,47L-59,39L-55,38L-54,41L-55,44L-53,46L-55,53L-68,64L-71,69L-80,74L-83,80L-84,86L-83,88L-83,101L-89,105L-92,101L-91,97L-94,96L-97,97L-97,93L-101,97L-98,99L-106,105L-111,100L-112,94L-115,90L-112,89L-113,88L-111,77L-121,76L-124,71L-129,69L-132,67L-138,57L-139,57L-143,49L-140,41L-134,38L-134,35L-137,23L-137,20L-132,14L-124,15L-118,26L-115,37L-113,40L-110,39L-115,20L-116,16L-119,7L-114,1L-108,5L-100,14L-100,13L-104,7L-106,1L-106,-1L-102,1L-103,-4L-99,-7L-94,-6L-89,-7L-72,3L-68,7L-70,11L-72,12L-80,12Z M-54,54L-50,44L-46,42L-41,48L-43,52L-49,54L-54,54Z M44,143L52,150L52,161L47,162L44,159L35,156L35,154L37,146L36,145L39,139L40,138L44,143Z M-15,155L-9,157L-6,161L0,155L-1,151L-1,145L4,144L7,148L9,143L7,141L12,134L14,136L14,132L18,130L32,132L36,136L34,144L34,147L32,153L23,157L27,157L20,164L27,162L28,160L37,167L37,165L41,161L45,163L48,168L50,169L51,177L45,179L49,179L53,182L46,185L46,187L42,192L46,189L52,187L48,191L52,190L51,194L56,191L62,198L61,202L58,203L57,202L51,205L53,205L62,205L60,210L52,213L55,213L53,218L57,214L65,211L71,219L72,220L59,223L67,225L65,228L73,226L73,235L68,233L64,235L67,239L70,240L72,246L67,244L65,242L62,249L55,245L59,249L61,254L65,258L64,264L67,262L69,262L67,267L69,266L71,268L71,271L75,269L78,277L78,282L73,281L79,284L79,283L84,286L77,292L86,293L90,292L87,298L89,301L89,304L87,304L83,301L82,304L85,308L80,307L81,311L78,314L75,313L73,308L73,311L71,311L71,319L67,323L66,319L63,317L61,318L60,312L60,304L64,301L58,300L54,287L51,287L49,291L47,287L47,290L49,296L44,295L42,292L41,294L44,304L43,306L44,317L46,315L52,324L51,325L53,327L52,329L49,328L54,336L54,339L51,348L49,347L49,338L48,344L47,347L47,353L40,351L32,341L29,336L28,330L27,335L25,331L21,327L20,328L22,339L30,352L31,357L33,361L31,364L29,365L21,357L14,353L10,347L9,341L4,338L-2,330L-4,321L1,321L-1,317L-4,316L-2,313L-4,313L-6,304L-5,298L-10,295L-11,290L-13,289L-14,294L-17,294L-19,291L-23,292L-25,291L-31,290L-34,287L-37,282L-35,277L-30,273L-27,274L-16,279L-15,281L-17,286L-14,284L-15,279L-11,281L-9,280L-5,282L-3,281L2,284L3,279L1,272L2,270L15,267L19,263L23,263L26,254L26,245L24,238L27,234L23,235L22,234L23,227L25,226L18,225L12,226L14,221L15,220L20,216L19,208L16,204L19,198L16,195L16,189L13,190L12,197L6,197L4,193L-1,190L-2,194L-3,189L-8,188L-10,182L-12,181L-17,177L-20,172L-22,172L-24,169L-20,163L-26,162L-28,160L-30,153L-26,143L-20,152L-18,153L-19,147L-21,145L-23,138L-18,130L-14,129L-11,125L-5,122L-0,119L9,116L14,116L21,120L23,124L21,126L13,128L5,132L4,136L-3,145L-4,156L-7,157L-15,155Z M-25,67L-25,73L-18,81L-19,82L-23,82L-24,84L-34,85L-31,86L-35,93L-32,95L-36,98L-38,98L-40,100L-46,103L-48,103L-52,99L-52,97L-55,101L-57,101L-59,97L-54,85L-52,78L-54,76L-50,68L-44,66L-44,71L-46,74L-42,77L-40,75L-39,77L-36,66L-31,67L-29,65L-25,67Z M-21,75L-24,71L-23,70L-16,74L-17,76L-21,75Z M-1,91L4,101L5,105L-16,112L-23,104L-23,109L-32,113L-36,108L-30,102L-27,98L-17,89L-13,90L-11,87L-7,87L-1,91Z M-63,-22L-61,-20L-59,-15L-59,-10L-64,-2L-67,2L-69,2L-78,-5L-86,-11L-94,-12L-96,-15L-106,-14L-110,-16L-111,-20L-115,-22L-119,-27L-110,-34L-106,-42L-107,-44L-104,-45L-99,-44L-73,-40L-71,-43L-65,-46L-58,-32L-61,-23L-63,-22Z M-19,40L-20,37L-14,36L-13,37L-17,41L-19,40Z M9,80L5,84L1,80L-0,70L3,68L10,67L13,68L14,70L13,74L11,79L9,80Z M8,66L4,64L10,63L8,66Z M16,68L16,67L19,65L16,68Z M-37,-22L-38,-24L-36,-27L-27,-21L-37,-22Z M68,111L66,110L71,108L68,111Z M-0,39L-1,40L-6,38L-7,37L-3,35L-3,29L2,33L-0,39Z M17,50L9,57L7,57L4,62L2,60L-1,64L-9,58L-10,56L-6,51L-1,51L0,50L-8,42L-2,40L-1,43L5,39L4,36L8,37L4,48L6,45L8,47L10,39L14,40L17,50Z M-13,15L-13,24L-10,22L-10,27L-17,31L-23,32L-28,29L-31,23L-29,21L-34,20L-36,17L-40,15L-47,10L-48,5L-46,0L-43,1L-37,7L-32,11L-31,10L-34,7L-34,5L-36,4L-33,-3L-41,-4L-43,-8L-41,-12L-42,-17L-39,-18L-32,-10L-30,-9L-33,-13L-34,-18L-31,-17L-27,-10L-29,-17L-24,-17L-22,-12L-20,-16L-16,-13L-20,-8L-18,-3L-24,6L-25,10L-23,17L-20,16L-18,10L-15,11L-12,6L-2,6L-2,9L-13,15Z M40,74L40,70L43,69L43,71L40,74Z M-11,-10L-12,-14L-9,-12L-11,-10Z M32,56L34,57L32,61L38,68L34,70L39,78L34,77L31,73L33,78L32,85L30,86L29,90L33,88L32,91L37,96L38,99L42,98L51,100L56,104L58,106L61,114L60,114L60,120L53,125L51,126L42,122L40,119L42,114L37,117L33,115L26,109L25,110L19,103L23,100L19,98L18,99L13,93L11,91L13,86L16,82L21,78L25,74L28,65L25,65L21,60L21,56L23,54L23,51L25,50L27,47L32,56Z M-3,-21L-14,-19L-19,-22L-22,-21L-24,-22L-22,-25L-16,-26L-17,-28L-22,-29L-24,-27L-34,-31L-35,-32L-33,-39L-35,-42L-30,-44L-28,-43L-19,-37L-8,-34L-6,-30L-6,-28L-3,-27L-2,-23L-3,-21Z M49,64L47,59L51,57L52,59L49,64Z M12,20L18,10L19,11L14,19L12,20Z M41,42L45,48L42,51L39,49L37,42L41,42Z M26,24L28,21L29,24L26,24Z M16,-8L17,-5L11,-7L9,-3L2,-8L3,-13L7,-15L10,-15L16,-8Z M26,-10L24,-7L21,-7L20,-12L18,-13L15,-18L17,-19L26,-13L26,-10Z M50,32L51,37L45,41L38,38L43,34L42,30L45,26L50,26L51,29L50,32Z M47,4L45,8L46,11L44,19L34,30L34,18L29,11L32,6L33,6L34,10L38,8L37,4L40,2L39,0L41,-1L44,-0L47,4Z M65,9L61,12L61,7L64,5L65,9Z M93,12L90,20L89,24L90,24L87,30L91,28L92,29L88,38L84,41L88,44L86,50L75,51L73,52L76,47L73,48L70,52L67,52L63,56L63,55L65,47L61,54L56,49L56,45L56,42L60,43L57,39L60,33L64,33L66,34L70,31L65,29L66,27L63,25L66,23L69,23L66,19L71,13L72,16L79,8L82,14L83,9L86,7L89,8L92,5L94,9L93,12Z M157,17L162,21L161,23L156,24L158,25L164,24L167,26L167,30L170,36L162,42L153,43L152,45L146,46L147,47L155,46L156,47L149,52L145,54L137,60L129,62L132,63L124,67L122,63L120,63L121,67L118,67L112,65L110,62L112,70L112,73L109,70L104,68L109,75L109,80L105,80L99,87L92,84L86,91L79,89L77,86L72,84L72,86L76,88L78,90L78,96L81,97L81,100L77,103L71,104L64,103L67,100L67,97L59,93L59,87L55,92L52,90L50,83L45,82L44,77L40,76L44,71L50,70L57,73L58,65L64,63L65,68L63,73L64,76L67,78L70,77L66,74L69,67L75,66L71,64L66,60L75,53L82,56L88,62L85,57L87,54L89,44L88,42L91,37L95,33L100,40L99,52L102,40L114,41L118,41L122,42L119,38L121,36L128,34L124,33L114,38L106,37L109,35L106,34L101,34L98,31L103,27L111,28L104,25L97,27L96,20L100,22L105,24L106,22L103,22L98,19L97,15L104,14L104,12L100,12L103,10L101,6L106,6L107,7L112,7L117,12L117,8L122,7L122,16L127,22L126,14L129,11L131,11L132,9L136,11L140,12L141,17L142,11L145,10L147,12L151,13L153,16L155,15L157,17Z " data-iso="CAN"/><path d="M170,264L171,257L169,258L169,264L170,264Z M160,256L159,252L151,248L149,248L148,251L151,254L147,254L146,257L147,259L153,262L153,263L150,264L153,267L163,264L165,262L160,256Z M321,222L318,221L315,225L308,227L309,230L309,234L314,232L320,230L323,226L321,222Z M158,236L159,232L156,234L158,236Z M155,204L150,203L149,204L151,207L155,204Z M325,135L324,142L326,142L331,139L328,138L325,135Z M318,126L313,117L313,121L318,126Z M107,105L108,104L106,102L107,105Z M291,65L290,61L288,62L287,66L291,67L291,65Z M272,34L268,31L272,35L272,34Z M208,45L208,38L204,35L203,37L204,40L208,45Z M238,15L236,15L230,17L223,19L221,23L223,24L223,28L218,22L216,27L212,24L210,26L206,27L205,29L207,31L216,32L215,34L208,32L207,34L209,42L208,50L207,49L199,39L194,37L193,47L190,39L188,47L186,51L185,38L183,40L175,41L173,42L173,45L170,43L167,46L164,54L160,53L158,58L158,56L154,55L150,59L146,61L143,64L143,68L149,70L141,82L137,84L128,83L128,85L118,85L116,85L110,90L111,95L112,98L116,99L114,101L116,107L120,106L121,107L128,110L126,113L120,110L116,112L109,109L107,110L109,115L112,114L110,118L115,121L114,122L109,123L108,125L111,131L117,131L118,133L124,135L128,133L141,141L143,144L149,154L147,157L149,163L155,173L150,178L153,180L154,185L153,187L153,200L156,201L156,207L154,209L152,209L150,214L154,213L151,216L148,224L149,227L155,229L157,228L161,221L162,223L162,228L165,226L170,226L164,229L161,231L162,234L171,236L170,244L167,247L164,243L160,241L152,242L154,246L169,256L170,255L175,256L175,259L169,270L173,269L168,274L168,280L163,281L160,277L155,278L154,284L164,285L165,284L165,288L164,289L153,285L148,296L154,293L158,292L162,295L168,294L166,297L161,296L158,294L153,294L147,298L146,303L147,307L156,309L151,309L146,314L145,320L148,320L159,313L157,316L147,322L148,324L147,330L150,331L151,333L158,329L161,329L151,335L153,345L153,354L155,354L160,346L160,349L164,346L163,339L165,347L168,348L168,352L165,348L158,351L156,357L165,355L166,357L156,359L158,369L159,372L164,380L168,377L164,382L164,388L167,390L168,395L175,394L170,397L174,408L178,411L179,416L184,418L199,412L201,411L198,418L200,421L205,423L209,422L205,428L212,431L216,427L213,431L218,434L218,431L224,432L225,430L223,423L219,422L226,422L228,418L231,402L233,399L231,394L232,386L226,385L234,383L236,378L239,376L242,369L243,359L240,359L235,356L241,357L246,352L243,347L239,346L241,342L244,343L249,338L244,334L256,331L259,330L256,325L259,326L263,321L260,329L261,331L265,329L265,327L271,323L272,325L278,317L280,316L286,307L288,295L290,289L294,283L293,278L299,280L304,278L314,271L331,256L331,254L337,243L336,242L344,231L344,228L339,231L333,231L329,231L317,236L316,232L312,235L303,236L307,232L307,227L304,226L310,225L314,224L318,217L315,214L308,215L308,214L315,212L325,216L331,224L336,225L339,224L338,217L341,223L344,219L340,210L336,205L335,211L334,208L334,203L330,200L323,199L317,196L314,197L315,195L313,189L312,189L307,194L304,195L312,186L316,191L324,195L330,196L329,191L326,183L314,179L308,181L307,183L302,188L302,186L297,184L304,185L306,183L309,178L303,174L309,176L310,173L314,176L323,177L326,173L329,170L327,164L317,165L316,162L324,160L324,157L328,156L328,152L319,146L318,150L315,146L312,148L315,144L320,142L321,140L317,132L313,129L311,126L307,126L305,127L298,123L302,121L304,115L308,115L311,108L308,106L306,108L300,107L300,102L303,102L296,100L293,103L290,85L292,76L290,75L286,68L284,68L282,64L283,60L287,60L290,58L291,53L287,52L291,44L291,34L290,30L282,29L279,31L278,40L271,40L271,45L269,54L268,41L268,39L261,36L262,40L260,42L256,38L252,39L245,39L257,32L261,26L257,23L255,23L249,19L237,25L236,24L247,18L238,15Z " data-iso="GRL"/><path d="M414,269L412,268L406,269L408,273L398,280L397,281L401,284L394,281L391,286L392,289L388,289L386,287L384,288L386,293L385,295L384,302L378,297L379,296L379,294L368,288L364,292L367,294L370,294L367,297L366,296L361,298L364,300L362,306L359,308L363,308L370,303L378,302L375,308L381,309L372,314L372,313L366,317L369,319L372,317L378,315L384,317L385,326L383,328L383,331L392,326L393,324L396,325L401,324L400,326L403,327L411,325L416,324L420,319L420,317L427,308L428,305L431,299L436,293L437,280L433,273L427,273L425,272L423,274L421,269L419,270L418,264L414,269Z " data-iso="ISL"/><path d="M407,178L410,172L407,172L407,178Z M376,17L371,15L373,17L383,18L376,17Z M386,0L390,2L389,15L391,16L395,14L395,11L397,5L399,6L397,14L399,16L398,18L402,20L416,18L417,16L406,7L399,0L386,0Z M361,0L362,3L359,4L358,6L365,11L368,10L368,8L374,11L378,14L385,14L386,11L381,6L382,4L385,5L385,0L367,0L370,2L365,1L364,4L361,0Z " data-iso="NOR"/></g><g fill="red" fill-opacity="0.35" id="regions"><path d="M115,123L112,122L111,123L111,123L112,127L114,124L115,123L115,123Z " data-fips="" data-fips-="" data-iso3="GRL" data-name="Pituffik"/><path d="M236,371L234,371L240,374L236,371Z M161,353L163,351L161,350L159,355L161,353Z M159,353L160,350L159,350L159,353Z M243,348L241,345L240,345L245,353L246,352L243,348Z M163,343L158,345L156,348L153,349L153,349L153,349L155,354L160,347L162,348L164,343L163,343Z M264,327L263,326L261,327L260,330L261,332L265,329L264,327Z M271,324L269,325L269,327L271,324Z M310,227L309,229L311,226L310,227Z M322,225L321,222L319,221L312,226L310,231L308,233L309,235L317,231L323,226L322,225Z M306,224L302,227L281,232L266,235L240,239L217,240L214,240L214,247L215,279L215,292L215,300L215,304L216,338L197,338L185,338L169,337L164,339L164,340L164,345L169,348L168,349L170,353L167,351L167,349L163,349L161,355L158,356L155,355L157,358L163,356L166,354L164,357L162,358L157,358L157,362L156,363L156,367L161,367L158,369L161,370L158,374L166,374L162,376L163,378L166,378L164,382L165,383L163,386L167,390L169,390L168,395L173,394L174,394L170,396L170,398L171,400L172,398L176,396L172,400L174,400L173,402L171,403L175,404L179,403L180,404L178,404L173,406L179,407L176,409L181,408L180,411L182,413L182,413L183,413L183,413L189,409L192,406L193,405L196,403L196,402L198,401L201,398L205,395L208,392L211,389L214,386L216,384L218,384L221,384L223,383L223,383L229,384L229,382L233,382L236,379L232,377L232,375L237,378L233,375L237,377L236,374L234,372L235,370L238,371L237,369L241,371L242,368L241,367L238,365L244,366L244,365L242,362L243,359L235,357L237,355L239,356L243,355L244,354L243,353L242,349L238,346L241,341L244,343L245,334L247,334L250,333L256,332L257,331L259,331L256,325L260,325L261,319L258,319L261,318L264,319L261,324L266,327L266,324L267,326L268,325L271,321L273,324L276,320L274,320L277,317L275,316L282,315L286,308L286,304L288,299L288,292L289,290L294,282L295,282L292,277L290,276L290,273L292,276L294,278L297,279L297,281L304,280L305,277L308,277L307,275L308,272L311,275L312,273L316,271L316,269L319,266L323,265L327,262L328,259L332,256L330,253L333,252L333,248L334,248L338,244L335,242L339,242L339,240L337,238L343,232L343,229L336,231L331,232L325,230L320,236L316,236L316,241L310,242L310,240L319,233L318,232L308,237L302,238L302,237L307,233L307,230L306,224L306,224Z M307,223L309,226L311,225L316,222L319,216L316,213L314,214L314,214L314,214L314,217L307,223L307,223Z M318,214L320,215L322,215L325,216L328,221L331,224L336,226L340,224L338,219L338,217L340,223L343,222L345,222L345,221L343,216L342,216L339,207L335,206L335,210L333,206L333,203L332,202L329,206L330,200L330,200L321,205L322,211L322,212L318,213L318,214Z " data-fips="" data-fips-="" data-iso3="GRL" data-name="Kommuneqarfik Sermersooq"/><path d="M216,428L221,432L221,429L216,428Z M205,424L204,428L207,425L205,424Z M182,416L179,417L183,418L182,416Z M223,383L221,384L218,384L216,384L212,388L208,392L205,395L201,398L199,401L196,402L196,403L193,405L192,406L189,409L183,413L183,413L182,413L182,413L184,414L182,415L186,416L188,414L192,415L193,414L200,412L202,412L201,415L204,412L203,414L200,418L202,417L205,414L203,419L200,421L204,422L205,422L206,423L209,421L209,425L206,429L212,423L210,427L207,430L212,430L215,428L214,427L216,424L216,427L225,429L225,425L223,424L219,423L218,422L224,423L224,420L228,418L221,416L228,417L226,416L228,413L223,412L224,411L229,412L224,410L229,410L231,406L227,404L230,404L231,403L231,398L233,396L229,397L231,394L231,391L227,389L232,390L230,387L224,384L223,383Z " data-fips="" data-fips-="" data-iso3="GRL" data-name="Kommune Kujalleq"/><path d="M153,349L156,348L158,345L163,343L163,343L163,343L163,341L165,339L164,339L169,337L185,338L197,338L216,338L215,304L215,300L211,301L198,300L178,299L173,300L173,300L168,299L164,296L156,293L148,297L147,298L151,301L158,300L163,301L165,305L164,305L162,302L159,301L149,301L146,304L147,307L153,308L156,309L150,310L147,313L154,315L148,314L147,314L145,317L145,321L147,321L151,319L152,318L157,315L158,313L166,308L167,308L159,313L158,316L154,317L147,322L146,324L150,323L147,325L148,326L150,325L153,326L158,323L154,326L152,325L147,328L150,331L151,331L151,334L156,331L156,330L160,329L157,331L151,337L154,337L153,340L153,345L154,343L154,345L156,344L153,348L153,349L153,349Z " data-fips="" data-fips-="" data-iso3="GRL" data-name="Qeqqata Kommunia"/><path d="M317,187L314,189L320,194L325,195L327,196L329,193L326,193L326,191L328,190L325,189L321,186L317,187Z M319,183L317,185L313,186L314,188L321,186L324,187L327,184L324,182L319,183Z M311,179L307,181L307,183L313,186L320,182L311,179Z M320,156L319,156L318,162L323,161L326,158L320,156Z M318,145L319,150L322,150L322,147L320,146L318,145Z M327,136L325,135L322,138L325,143L329,140L331,141L330,137L328,139L326,137L327,136Z M313,117L312,117L312,119L316,124L318,126L313,117Z M301,94L300,94L301,97L301,94Z M299,90L298,88L297,90L299,90Z M291,62L290,61L286,64L287,67L290,68L291,66L291,62Z M272,34L268,31L269,33L272,34Z M193,46L190,42L188,42L190,45L193,46Z M205,34L202,35L203,39L209,45L209,40L208,38L205,34Z M220,28L220,26L217,25L220,28Z M217,25L217,28L219,28L217,25Z M218,22L219,25L222,26L218,22Z M162,55L164,65L168,72L175,83L184,93L189,98L200,108L212,117L214,239L214,240L217,240L240,239L266,235L281,232L302,227L306,224L306,224L306,223L306,223L307,223L307,223L307,223L314,217L314,214L314,214L313,214L311,215L306,213L302,211L304,210L307,213L311,214L316,212L318,213L318,213L322,212L322,211L321,205L330,200L330,200L323,198L316,196L313,200L313,191L309,191L306,196L306,194L302,193L308,190L310,189L310,186L307,186L302,188L299,192L298,189L302,188L302,185L298,185L297,184L304,185L307,180L309,178L308,177L310,172L313,172L311,173L312,176L319,178L323,177L324,172L330,171L327,167L327,164L325,164L320,163L319,166L317,159L318,157L323,155L325,157L328,155L329,151L326,150L324,151L323,151L320,152L318,149L317,146L315,146L312,149L309,147L314,148L314,145L317,144L311,141L307,141L310,140L314,141L318,140L320,142L317,134L314,130L306,133L312,130L312,125L312,125L305,128L301,126L303,125L302,123L297,120L302,119L306,114L309,115L312,111L311,109L308,106L306,109L305,108L299,107L298,104L300,102L304,104L304,102L303,101L299,100L295,103L295,105L293,105L293,102L291,89L289,88L292,83L291,79L292,76L290,74L290,75L288,70L286,68L285,70L282,64L285,60L288,60L291,57L291,53L287,52L286,53L283,54L290,49L292,45L291,43L291,34L292,32L287,29L283,29L279,31L278,33L279,39L275,40L274,42L273,38L272,40L270,52L269,58L268,50L269,49L268,41L266,35L265,33L261,36L262,41L261,41L256,49L255,47L256,45L259,41L258,38L250,39L243,44L241,45L241,48L239,46L244,39L257,32L260,28L260,24L255,22L251,23L250,19L247,21L239,23L238,22L247,18L247,17L234,15L223,19L221,22L222,24L224,25L221,27L225,27L217,29L213,24L210,25L211,26L208,28L212,30L209,29L205,30L217,32L220,34L220,38L218,35L215,33L208,33L207,33L212,41L209,42L209,45L210,50L209,50L206,46L199,40L199,38L194,37L194,43L197,47L196,48L193,47L189,44L186,53L186,48L184,39L173,42L174,48L176,53L173,48L174,46L171,42L167,45L167,49L165,51L163,56L162,55Z " data-fips="" data-fips-="" data-iso3="GRL" data-name="Nationalparken"/><path d="M161,278L155,278L155,279L161,278Z M171,257L168,261L169,264L171,257Z M160,256L158,251L151,248L148,250L148,252L151,255L148,253L147,255L146,259L154,263L150,263L150,264L154,267L158,266L164,263L165,259L160,256Z M158,236L159,234L159,231L156,234L158,236Z M164,234L166,231L162,231L162,234L164,234Z M162,225L160,225L160,227L163,227L162,225Z M154,211L151,212L150,215L154,211Z M155,204L154,203L150,206L152,208L155,204Z M151,183L150,184L153,186L151,183Z M106,102L105,103L106,104L109,105L106,102Z M111,104L110,105L113,107L111,104Z M108,123L110,131L117,136L115,133L116,130L120,131L122,133L120,135L122,136L125,136L128,133L128,135L129,136L132,133L134,135L133,137L136,138L141,141L144,148L145,147L149,152L148,160L149,162L153,168L151,168L154,171L154,174L153,174L155,176L152,176L152,179L154,177L155,188L153,187L152,188L155,192L156,193L154,198L156,200L157,203L156,204L156,208L155,208L157,210L154,209L154,213L151,216L147,223L148,223L148,226L150,228L157,228L161,222L161,219L160,217L159,213L161,213L160,216L161,218L161,223L165,220L164,222L162,224L167,227L171,225L170,227L164,228L162,230L165,231L167,231L167,235L171,236L173,238L172,239L168,237L173,246L172,247L174,249L169,248L164,243L158,241L155,239L152,240L151,241L155,247L158,248L162,252L163,254L168,255L170,254L171,257L176,255L174,257L175,260L172,261L174,262L171,265L173,266L171,267L169,270L173,268L172,271L174,273L170,272L169,271L168,274L167,277L171,276L163,281L162,280L158,280L157,281L152,283L154,284L157,283L158,286L166,285L170,291L173,292L170,293L166,289L161,289L156,286L152,286L154,288L152,289L153,291L149,292L148,297L151,296L155,293L163,291L158,293L162,295L166,291L167,293L165,293L167,295L169,292L172,294L165,295L167,296L168,299L173,300L173,300L178,299L198,300L211,301L215,300L215,292L215,279L214,247L214,240L214,239L212,117L200,108L189,98L184,93L175,83L168,72L164,65L162,55L162,55L160,53L158,54L155,55L148,60L143,63L142,68L145,70L147,71L146,75L146,78L143,81L140,85L134,82L128,83L126,85L124,84L116,85L111,88L109,90L111,96L112,96L112,99L117,100L113,101L117,102L114,104L117,107L120,106L120,108L123,109L126,107L128,109L128,112L123,111L120,113L124,116L123,116L120,113L117,112L109,109L106,110L107,115L110,115L109,116L111,119L114,121L115,123L115,123L114,124L112,127L108,123Z " data-fips="" data-fips-="" data-iso3="GRL" data-name="Qaasuitsup Kommunia"/></g></svg>