<?xml version="1.0" encoding="UTF-8"?><!DOCTYPE svg  PUBLIC '-//W3C//DTD SVG 1.1//EN'  'http://www.w3.org/Graphics/SVG/1.1/DTD/svg11.dtd'><svg enable_background="new 0 0 450 301" height="301px" style="stroke-linejoin: round; stroke:#000; fill:#f6f3f0;" version="1.1" viewBox="0 0 450 301" width="450px" xmlns="http://www.w3.org/2000/svg" xmlns:xlink="http://www.w3.org/1999/xlink"><defs><style type="text/css"><![CDATA[path { fill-rule: evenodd; }
#context path { fill: #eee; stroke: #bbb; } ]]></style></defs><metadata><views><view h="301.0" padding="0.06" w="450"><proj id="laea" lat0="15.088614203" lon0="-90.4529400823"/><bbox h="55.96" w="53.68" x="975.7" y="963.44"/><llbbox lat0="-90" lat1="90" lon0="-180" lon1="180"/></view></views></metadata><g id="context"><path d="M375,40L378,37L379,34L377,32L372,40L370,47L370,50L375,40Z M369,0L368,5L365,9L368,7L372,0L369,0Z M293,15L292,31L288,142L296,142L310,142L309,138L311,134L323,118L331,116L337,106L341,102L347,93L350,71L347,56L348,48L349,43L353,35L349,28L352,19L352,13L357,0L318,0L315,5L309,9L299,3L294,5L292,10L293,15Z " data-iso="BLZ"/><path d="M279,15L201,16L178,15L177,53L151,52L157,56L163,62L170,71L178,78L188,83L195,89L198,94L200,98L200,102L204,104L210,106L214,109L214,112L212,118L211,125L212,130L178,131L130,130L101,180L100,185L108,196L107,199L104,201L103,207L101,213L103,221L98,231L124,252L135,259L152,268L167,272L202,272L210,274L234,284L234,278L237,273L244,267L254,264L256,262L261,255L268,252L268,241L277,239L280,239L281,240L283,237L286,232L293,227L294,223L292,215L290,210L293,198L295,196L305,191L324,177L353,152L329,138L333,145L329,150L322,148L316,144L314,144L310,142L296,142L288,142L292,31L293,15L279,15Z " data-iso="GTM"/><path d="M450,147L446,147L436,149L412,145L406,145L400,148L396,145L391,140L386,140L375,142L366,148L364,150L359,154L353,152L324,177L305,191L295,196L293,198L290,210L292,215L294,223L293,227L286,232L283,237L281,240L283,240L293,243L297,242L304,250L313,256L314,259L321,262L331,267L336,268L338,276L340,276L351,270L359,267L363,269L366,273L369,274L375,273L381,273L386,277L387,278L383,294L383,298L385,299L449,299L447,285L448,282L450,281L450,147Z " data-iso="HND"/><path d="M98,231L103,221L101,213L103,207L104,201L107,199L108,196L100,185L101,180L130,130L178,131L212,130L211,125L212,118L214,112L214,109L210,106L204,104L200,102L200,98L198,94L195,89L188,83L178,78L170,71L163,62L157,56L151,52L177,53L178,15L201,16L279,15L293,15L292,10L294,5L299,3L309,9L315,5L318,0L0,0L0,138L3,141L15,150L39,171L48,180L55,185L61,191L79,211L96,229L98,231Z " data-iso="MEX"/><path d="M450,299L450,281L448,282L447,285L449,299L450,299Z " data-iso="NIC"/><path d="M281,240L280,239L277,239L268,241L268,252L261,255L256,262L254,264L244,267L237,273L234,278L234,284L242,288L253,296L269,299L385,299L383,298L383,294L387,278L386,277L381,273L375,273L369,274L366,273L363,269L359,267L351,270L340,276L338,276L336,268L331,267L321,262L314,259L313,256L304,250L297,242L293,243L283,240L281,240Z " data-iso="SLV"/></g><g fill="red" fill-opacity="0.35" id="regions"><path d="M245,187L243,182L235,183L225,182L224,182L223,185L221,188L215,184L210,184L208,184L206,187L196,187L185,184L185,191L189,198L198,206L198,208L201,208L204,209L209,207L212,208L215,207L215,208L216,209L221,208L222,204L240,192L242,191L245,187Z " data-fips="GT02" data-fips-="" data-iso3="GTM" data-name="Baja Verapaz" data-p="BV"/><path d="M131,130L130,131L129,132L111,163L106,171L108,174L109,182L110,182L117,179L127,179L130,178L135,183L137,186L137,186L142,188L142,188L142,189L142,189L144,191L146,191L147,188L148,186L155,184L157,184L157,183L165,182L165,176L160,175L156,169L157,162L159,160L163,157L169,147L177,131L131,130Z " data-fips="GT08" data-fips-="" data-iso3="GTM" data-name="Huehuetenango" data-p="HU"/><path d="M212,130L212,130L213,130L226,132L237,135L243,136L247,138L251,141L256,140L263,142L270,142L271,145L277,145L278,144L279,144L280,142L281,141L289,141L290,110L292,19L179,15L178,16L150,52L153,55L154,57L159,57L161,61L162,61L164,65L166,67L170,70L173,75L178,77L183,81L187,82L198,92L198,96L201,102L205,103L206,105L208,104L210,107L215,108L215,112L212,115L211,123L213,124L212,125L211,129L212,130L212,130Z " data-fips="GT12" data-fips-="" data-iso3="GTM" data-name="Petn" data-p="PE"/><path d="M142,189L142,189L142,188L142,188L137,186L137,188L131,195L134,199L133,202L129,208L128,211L123,218L116,218L108,220L106,222L105,225L109,226L110,227L112,232L112,231L117,233L122,232L127,224L128,221L132,221L135,223L138,220L140,221L143,220L144,220L147,218L148,216L149,213L148,211L147,207L143,207L139,195L142,191L144,191L142,189Z " data-fips="GT13" data-fips-="" data-iso3="GTM" data-name="Quezaltenango" data-p="QZ"/><path d="M143,220L140,221L138,220L135,223L132,221L128,221L127,224L122,232L117,233L112,231L112,232L110,232L106,233L105,233L102,235L109,240L118,248L133,258L134,259L134,256L136,253L137,246L138,245L138,239L137,237L138,232L140,226L141,223L142,222L144,220L143,220Z " data-fips="GT15" data-fips-="" data-iso3="GTM" data-name="Retalhuleu" data-p="RE"/><path d="M100,182L100,185L108,196L106,200L104,200L103,203L103,207L101,211L101,217L102,223L98,230L97,231L102,235L105,233L106,233L110,232L112,232L110,227L109,226L105,225L106,222L108,220L116,218L123,218L128,211L129,208L133,202L134,199L131,195L137,188L137,186L137,186L135,183L130,178L127,179L117,179L110,182L109,182L108,174L106,171L100,182Z " data-fips="GT17" data-fips-="" data-iso3="GTM" data-name="San Marcos" data-p="SM"/><path d="M212,130L212,130L212,130L212,134L205,135L198,133L192,137L192,140L192,143L194,144L188,152L190,152L190,156L196,158L200,161L199,162L202,167L199,170L199,171L195,172L196,175L199,177L209,179L210,179L209,183L208,184L210,184L215,184L221,188L223,185L224,182L225,182L235,183L243,182L245,187L242,191L245,191L246,191L248,191L250,190L252,190L254,191L261,190L265,189L264,188L264,185L263,182L263,173L265,172L266,169L262,164L266,158L270,152L273,150L277,147L278,144L277,145L271,145L270,142L263,142L256,140L251,141L247,138L243,136L237,135L226,132L213,130L212,130L212,130Z " data-fips="GT01" data-fips-="" data-iso3="GTM" data-name="Alta Verapaz" data-p="AV"/><path d="M197,207L189,206L186,205L179,205L175,207L173,212L171,213L171,213L172,218L170,227L169,232L170,233L170,233L170,234L170,236L169,239L170,239L173,239L178,242L182,236L183,235L183,235L185,230L191,223L190,218L191,216L193,214L195,211L196,210L198,209L198,208L197,207Z " data-fips="GT03" data-fips-="" data-iso3="GTM" data-name="Chimaltenango" data-p="CM"/><path d="M195,238L193,237L188,240L185,236L183,235L182,236L178,242L173,239L170,239L169,239L168,242L167,247L166,249L158,247L154,247L153,242L152,242L149,245L150,247L147,247L147,253L143,262L143,264L156,269L166,272L171,272L187,272L199,271L200,272L201,263L203,257L207,253L203,253L203,251L204,250L204,249L203,241L202,240L200,239L199,236L195,238Z " data-fips="GT06" data-fips-="" data-iso3="GTM" data-name="Escuintla" data-p="ES"/><path d="M215,207L212,208L209,207L204,209L201,208L198,208L198,209L196,210L195,211L193,214L191,216L193,217L199,223L201,225L200,228L199,234L199,236L200,239L202,240L203,241L204,249L204,250L206,250L212,245L212,242L213,239L216,234L219,235L221,234L222,233L222,231L223,227L225,225L226,224L227,223L226,222L219,218L218,212L214,209L215,208L215,207Z " data-fips="GT07" data-fips-="" data-iso3="GTM" data-name="Guatemala" data-p="GU"/><path d="M167,230L160,231L157,225L151,225L150,227L146,225L148,223L147,219L147,218L144,220L142,222L141,223L140,226L138,232L137,237L138,239L138,245L137,246L136,253L134,256L134,259L136,260L138,261L141,263L143,264L143,262L147,253L147,247L150,247L149,245L152,242L153,242L154,247L158,247L166,249L167,247L168,242L169,239L170,236L170,234L170,233L170,233L169,232L167,230Z " data-fips="GT20" data-fips-="" data-iso3="GTM" data-name="Suchitepquez" data-p="SU"/><path d="M199,234L200,228L201,225L199,223L193,217L191,216L190,218L191,223L185,230L183,235L183,235L185,236L188,240L193,237L195,238L199,236L199,234Z " data-fips="GT16" data-fips-="" data-iso3="GTM" data-name="Sacatepquez" data-p="SA"/><path d="M170,212L169,211L167,209L166,207L165,207L164,208L162,210L154,210L149,213L149,213L148,216L147,218L147,219L148,223L146,225L150,227L151,225L157,225L160,231L167,230L169,232L170,227L172,218L171,213L171,213L170,212Z " data-fips="GT19" data-fips-="" data-iso3="GTM" data-name="Solol" data-p="SO"/><path d="M155,184L148,186L147,188L146,191L144,191L142,191L139,195L143,207L147,207L148,211L149,213L149,213L154,210L162,210L164,208L165,207L163,205L163,203L159,197L162,195L156,186L157,184L155,184Z " data-fips="GT21" data-fips-="" data-iso3="GTM" data-name="Totonicapn" data-p="TO"/><path d="M252,208L255,205L253,205L250,199L253,199L250,194L248,191L246,191L245,191L242,191L240,192L222,204L221,208L216,209L215,208L214,209L218,212L219,218L226,222L227,223L227,223L236,219L238,216L243,214L250,209L251,209L252,208Z " data-fips="GT05" data-fips-="" data-iso3="GTM" data-name="El Progreso" data-p="PR"/><path d="M235,237L232,234L232,233L223,234L222,233L221,234L219,235L216,234L213,239L212,242L212,245L206,250L204,250L203,251L203,253L207,253L203,257L201,263L200,272L203,272L205,272L208,273L215,275L225,280L225,275L222,268L222,266L227,268L231,268L232,266L237,263L237,258L235,254L228,250L230,245L236,242L237,239L235,237Z " data-fips="GT18" data-fips-="" data-iso3="GTM" data-name="Santa Rosa" data-p="SR"/><path d="M289,141L281,141L280,142L279,144L278,144L277,147L273,150L270,152L266,158L262,164L266,169L265,172L263,173L263,182L264,185L264,188L265,189L268,189L276,186L284,183L288,181L293,184L292,192L295,196L295,196L306,192L342,163L345,160L347,156L351,155L353,153L351,152L345,147L339,144L332,139L329,137L335,145L332,144L332,147L330,152L329,152L327,154L327,151L321,147L317,144L314,144L312,144L310,142L307,143L301,141L292,142L289,143L289,142L289,141Z " data-fips="GT09" data-fips-="" data-iso3="GTM" data-name="Izabal" data-p="IZ"/><path d="M257,216L260,215L261,216L262,221L260,228L260,229L260,229L263,229L266,233L271,232L272,239L273,239L279,238L279,239L284,235L286,232L290,229L293,229L294,226L294,223L295,220L289,212L291,208L292,207L290,205L279,207L275,207L272,210L267,210L261,208L259,213L257,216Z " data-fips="GT04" data-fips-="" data-iso3="GTM" data-name="Chiquimula" data-p="CQ"/><path d="M250,209L243,214L238,216L236,219L227,223L227,223L226,224L225,225L223,227L222,231L222,233L223,234L232,233L232,234L235,237L237,239L241,238L245,236L248,238L252,233L255,234L259,232L261,230L260,229L260,229L260,228L262,221L261,216L260,215L257,216L256,215L253,215L253,214L250,210L251,209L250,209Z " data-fips="GT10" data-fips-="" data-iso3="GTM" data-name="Jalapa" data-p="JA"/><path d="M260,229L261,230L259,232L255,234L252,233L248,238L245,236L241,238L237,239L236,242L230,245L228,250L235,254L237,258L237,263L232,266L231,268L227,268L222,266L222,268L225,275L225,280L232,283L234,284L233,278L237,274L239,271L248,264L251,263L256,265L256,262L259,257L263,254L270,252L270,250L268,247L266,246L267,241L270,242L272,239L272,239L271,232L266,233L263,229L260,229Z " data-fips="GT11" data-fips-="" data-iso3="GTM" data-name="Jutiapa" data-p="JU"/><path d="M265,189L261,190L254,191L252,190L250,190L248,191L250,194L253,199L250,199L253,205L255,205L252,208L251,209L250,210L253,214L253,215L256,215L257,216L259,213L261,208L267,210L272,210L275,207L279,207L290,205L292,207L292,206L293,202L292,201L294,196L295,196L292,192L293,184L288,181L284,183L276,186L268,189L265,189Z " data-fips="GT22" data-fips-="" data-iso3="GTM" data-name="Zacapa" data-p="ZA"/><path d="M212,130L211,130L209,131L177,131L169,147L163,157L159,160L157,162L156,169L160,175L165,176L165,182L157,183L157,184L156,186L162,195L159,197L163,203L163,205L165,207L166,207L167,209L169,211L170,212L171,213L173,212L175,207L179,205L186,205L189,206L197,207L198,208L198,206L189,198L185,191L185,188L185,184L196,187L206,187L208,184L209,183L210,179L209,179L199,177L196,175L195,172L199,171L199,170L202,167L199,162L200,161L196,158L190,156L190,152L188,152L194,144L192,143L192,140L192,137L198,133L205,135L212,134L212,130L212,130L212,130Z " data-fips="GT14" data-fips-="" data-iso3="GTM" data-name="Quich" data-p="QC"/></g></svg>