<?xml version="1.0" encoding="UTF-8"?><!DOCTYPE svg  PUBLIC '-//W3C//DTD SVG 1.1//EN'  'http://www.w3.org/Graphics/SVG/1.1/DTD/svg11.dtd'><svg enable_background="new 0 0 450 451" height="451px" style="stroke-linejoin: round; stroke:#000; fill:#f6f3f0;" version="1.1" viewBox="0 0 450 451" width="450px" xmlns="http://www.w3.org/2000/svg" xmlns:xlink="http://www.w3.org/1999/xlink"><defs><style type="text/css"><![CDATA[path { fill-rule: evenodd; }
#context path { fill: #eee; stroke: #bbb; } ]]></style></defs><metadata><views><view h="451" padding="0.06" w="450"><proj id="laea" lat0="3.90092499404" lon0="-58.1317853682"/><bbox h="98.24" w="67.68" x="956.29" y="938.88"/><llbbox lat0="-90" lat1="90" lon0="-180" lon1="180"/></view></views></metadata><g id="context"><path d="M363,390L361,391L359,392L356,391L343,393L336,391L327,386L311,392L306,399L300,403L289,403L285,405L279,406L277,412L270,414L268,412L260,410L258,410L255,416L251,417L249,418L250,423L249,427L239,427L231,432L229,431L223,426L208,422L191,403L184,401L182,394L179,394L179,380L179,371L171,366L165,348L165,343L166,331L168,325L172,314L174,310L174,304L173,297L183,291L184,288L187,284L190,277L186,272L182,265L180,261L182,254L174,247L167,245L159,245L157,244L163,232L166,213L161,209L157,204L152,203L146,206L142,205L139,207L133,206L129,205L123,206L125,206L127,208L131,220L123,230L114,235L111,241L103,245L93,244L88,249L82,251L78,257L63,262L48,266L44,268L29,264L26,265L18,271L12,272L11,276L9,291L4,296L0,296L0,449L450,449L450,357L446,353L443,355L436,355L430,358L427,359L425,361L409,363L405,363L394,357L391,358L389,364L383,370L382,372L386,373L395,384L394,393L389,395L365,390L363,390Z " data-iso="BRA"/><path d="M322,185L324,167L323,155L321,151L314,146L303,142L299,136L289,127L278,117L273,115L268,114L261,111L254,113L249,120L246,126L244,135L240,139L243,133L243,122L245,113L251,102L251,86L249,82L242,74L238,70L232,63L210,44L195,34L184,28L180,27L175,27L167,18L165,17L175,31L174,34L168,37L166,39L164,45L156,48L150,53L144,58L137,58L135,61L132,68L125,74L125,76L131,84L132,86L130,90L130,92L133,96L136,96L139,95L144,95L147,99L146,104L143,107L133,112L125,117L117,116L113,119L104,120L98,127L101,135L101,139L102,149L92,158L87,164L88,166L112,192L123,206L129,205L133,206L139,207L142,205L146,206L152,203L157,204L161,209L166,213L163,232L157,244L159,245L167,245L174,247L182,254L180,261L182,265L186,272L190,277L187,284L184,288L183,291L173,297L174,304L174,310L172,314L168,325L166,331L165,343L165,348L171,366L179,371L179,380L179,394L182,394L184,401L191,403L208,422L223,426L229,431L231,432L239,427L249,427L250,423L249,418L251,417L255,416L258,410L260,410L268,412L270,414L277,412L279,406L285,405L289,403L300,403L306,399L311,392L327,386L336,391L343,393L356,391L359,392L361,391L363,390L361,388L359,386L351,384L347,380L338,364L327,343L325,340L321,330L320,322L318,321L318,310L317,309L310,309L303,310L300,309L297,301L293,297L287,292L285,286L283,282L276,274L274,268L274,264L280,254L286,236L282,227L286,222L294,218L311,217L315,216L317,215L316,211L320,204L318,203L316,198L320,190L323,186L322,185Z " data-iso="GUY"/><path d="M323,186L320,190L316,198L318,203L320,204L316,211L317,215L315,216L311,217L294,218L286,222L282,227L286,236L280,254L274,264L274,268L276,274L283,282L285,286L287,292L293,297L297,301L300,309L303,310L310,309L317,309L318,310L318,321L320,322L321,330L325,340L327,343L338,364L347,380L351,384L359,386L361,388L363,390L365,390L389,395L394,393L395,384L386,373L382,372L383,370L389,364L391,358L394,357L405,363L409,363L425,361L427,359L430,358L436,355L443,355L446,353L450,357L450,161L437,161L425,163L409,162L399,163L395,167L396,172L396,178L393,172L377,167L364,164L335,161L330,164L326,176L326,181L323,187L323,186Z " data-iso="SUR"/><path d="M123,206L112,192L88,166L87,164L92,158L102,149L101,139L101,135L98,127L104,120L113,119L117,116L125,117L133,112L143,107L146,104L147,99L144,95L139,95L136,96L133,96L130,92L130,90L132,86L131,84L125,76L125,74L132,68L135,61L137,58L144,58L150,53L156,48L164,45L166,39L168,37L174,34L175,31L165,17L156,13L147,13L143,14L139,17L121,14L118,15L108,20L99,20L93,25L85,19L76,14L96,14L100,7L103,0L0,0L0,296L4,296L9,291L11,276L12,272L18,271L26,265L29,264L44,268L48,266L63,262L78,257L82,251L88,249L93,244L103,245L111,241L114,235L123,230L131,220L127,208L125,206L123,206Z " data-iso="VEN"/></g><g fill="red" fill-opacity="0.35" id="regions"><path d="M304,146L298,153L299,160L294,160L295,162L295,166L295,168L297,172L300,175L298,178L295,190L294,198L290,205L285,217L279,223L274,237L271,238L262,238L261,240L256,248L255,252L253,258L253,260L254,261L257,266L259,275L261,286L267,295L269,299L271,314L272,319L278,327L281,335L276,347L276,354L271,367L262,392L252,410L249,417L249,417L254,416L256,415L255,413L259,409L262,411L268,411L269,414L271,414L276,414L278,409L278,406L285,405L293,403L298,404L302,403L304,402L308,396L310,392L315,388L320,389L325,386L328,385L330,387L332,390L333,391L338,391L340,393L346,393L349,391L354,390L359,392L363,390L362,388L358,386L352,385L350,385L345,377L340,366L338,364L338,362L334,358L332,350L331,351L330,347L328,345L328,343L326,342L327,340L323,340L322,335L323,332L321,332L322,329L320,324L321,322L318,322L317,315L318,311L316,308L313,309L303,310L298,309L296,306L298,301L291,295L288,293L286,291L286,288L285,284L282,280L276,274L274,264L280,257L280,251L287,237L286,235L282,230L283,226L287,221L290,221L293,218L299,218L305,217L312,217L317,216L316,214L317,208L320,208L321,209L323,208L323,206L318,204L317,200L316,200L318,195L320,190L323,185L324,176L323,173L325,171L326,163L324,160L325,158L322,152L316,146L306,141L305,146L304,146Z " data-fips="GY13" data-fips-="GY15" data-iso3="GUY" data-name="Mahaica-Berbice"/><path d="M161,209L166,212L164,227L163,229L163,234L160,239L157,240L156,242L156,244L159,245L159,244L170,247L171,246L176,248L183,252L183,253L185,253L188,251L190,248L195,245L197,251L196,252L196,259L195,261L200,265L207,265L214,265L216,263L224,273L225,274L229,273L232,270L240,263L242,260L245,258L248,258L253,260L253,258L255,252L256,248L261,240L262,238L261,238L257,239L248,239L240,236L233,231L231,223L230,217L231,208L231,204L229,194L230,194L229,192L216,188L216,185L211,178L208,178L202,183L199,184L194,183L189,186L188,188L189,194L189,195L173,195L170,196L168,198L166,203L164,205L160,208L161,209Z " data-fips="GY17" data-fips-="" data-iso3="GUY" data-name="Potaro-Siparuni"/><path d="M261,154L257,153L255,146L249,140L246,135L245,135L245,135L244,137L244,137L244,137L245,148L246,149L245,157L246,160L246,164L243,185L240,192L239,193L232,194L230,194L229,194L231,204L231,208L230,217L231,223L233,231L240,236L248,239L257,239L261,238L262,238L271,238L274,237L279,223L285,217L290,205L294,198L295,190L298,178L300,175L297,172L295,168L295,168L287,170L283,169L280,165L276,164L272,163L271,158L270,156L270,156L267,154L265,155L264,156L262,155L261,154Z " data-fips="GY18" data-fips-="GY19" data-iso3="GUY" data-name="Upper Takutu-Upper Essequibo"/><path d="M183,253L180,257L180,262L185,266L184,268L190,278L187,282L188,285L183,289L183,290L179,294L174,296L173,297L174,301L175,310L171,318L170,323L167,328L166,333L165,338L165,348L170,361L170,365L175,370L179,372L180,379L179,383L179,389L178,392L181,395L185,395L183,400L184,401L190,402L197,411L203,414L203,416L207,422L211,423L220,424L225,427L227,431L231,432L236,430L239,427L247,428L250,423L249,418L249,417L252,410L262,392L271,367L276,354L276,347L281,335L278,327L272,319L271,314L269,299L267,295L261,286L259,275L257,266L254,261L253,260L248,258L245,258L242,260L240,263L232,270L229,273L225,274L224,273L216,263L214,265L207,265L200,265L195,261L196,259L196,252L197,251L195,245L190,248L188,251L185,253L183,253L183,253Z " data-fips="GY19" data-fips-="GY18" data-iso3="GUY" data-name="Upper Demerara-Berbice"/><path d="M146,96L149,96L154,99L161,101L163,98L169,98L172,94L175,94L183,98L190,100L194,105L202,107L205,106L205,105L210,104L213,105L213,105L212,101L212,98L215,89L218,86L216,81L221,76L228,73L234,66L233,64L228,59L212,45L202,39L196,34L191,32L185,28L179,25L178,25L179,28L188,33L192,35L197,41L192,36L175,27L173,25L170,20L165,17L168,22L174,28L176,33L175,34L169,36L165,42L164,46L158,46L155,49L142,58L137,58L133,63L131,69L125,73L125,76L126,79L129,80L130,83L132,87L129,90L130,92L135,97L139,94L145,95L146,96Z " data-fips="GY10" data-fips-="" data-iso3="GUY" data-name="Barima-Waini"/><path d="M146,96L149,98L148,102L145,104L144,108L142,108L135,112L129,114L126,117L121,116L118,116L115,115L113,119L106,119L105,120L102,120L100,123L97,129L101,139L100,141L103,146L102,150L99,151L93,157L90,161L87,164L88,166L124,206L127,205L131,205L134,207L137,206L140,207L142,205L147,205L150,203L155,204L158,203L160,208L160,208L164,205L166,203L168,198L170,196L173,195L189,195L189,194L188,188L189,186L194,183L199,184L202,183L208,178L211,178L216,185L216,188L229,192L230,194L232,194L239,193L240,192L243,185L246,164L246,160L245,157L246,149L245,148L244,137L243,137L239,139L243,134L243,133L235,131L231,130L232,122L231,121L230,119L225,117L223,113L222,112L219,114L213,112L213,107L213,105L210,104L205,105L205,106L202,107L194,105L190,100L183,98L175,94L172,94L169,98L163,98L161,101L154,99L149,96L146,96L146,96Z " data-fips="GY11" data-fips-="GY16" data-iso3="GUY" data-name="Pomeroon-Supenaam"/><path d="M280,118L275,115L269,114L268,115L268,115L267,119L268,123L264,130L261,134L261,139L262,143L261,148L263,154L262,155L264,156L265,155L267,154L270,156L270,156L270,154L270,149L274,140L278,136L281,135L284,127L282,121L280,118Z " data-fips="GY12" data-fips-="GY13" data-iso3="GUY" data-name="East Berbice-Corentyne"/><path d="M268,115L266,113L258,111L255,111L252,115L246,125L245,127L245,135L246,135L249,140L255,146L257,153L261,154L262,155L263,154L261,148L262,143L261,139L261,134L264,130L268,123L267,119L268,115L268,115Z M253,110L256,109L256,106L252,108L253,110Z M248,106L242,110L241,113L233,119L231,121L232,122L231,130L235,131L243,133L243,132L243,122L244,120L244,117L247,106L248,106Z " data-fips="GY14" data-fips-="GY12" data-iso3="GUY" data-name="Demerara-Mahaica"/><path d="M304,146L304,143L294,132L291,129L283,121L282,121L284,127L281,135L278,136L274,140L270,149L270,154L270,156L271,158L272,163L276,164L280,165L283,169L287,170L295,168L295,168L295,166L295,162L294,160L299,160L298,153L304,146L304,146Z " data-fips="GY15" data-fips-="GY14" data-iso3="GUY" data-name="Essequibo Islands-West Demerara"/><path d="M250,105L250,104L251,98L251,91L250,83L245,79L241,71L237,68L237,70L234,66L228,73L221,76L216,81L218,86L215,89L212,98L212,101L213,105L213,105L213,107L213,112L219,114L222,112L223,113L225,117L230,119L231,121L233,119L241,113L242,110L248,106L250,105Z " data-fips="GY16" data-fips-="GY11" data-iso3="GUY" data-name="Cuyuni-Mazaruni"/></g></svg>