<?xml version="1.0"?>
<svg xmlns="http://www.w3.org/2000/svg" version="1.2" baseProfile="tiny" width="800" height="549" viewBox="0 0 800 549" stroke-linecap="round" stroke-linejoin="round" enable_background="new 0 0 800 549" style="stroke-linejoin: round; stroke:#000; fill:#f6f3f0;" xmlns:xlink="http://www.w3.org/1999/xlink"><defs><style type="text/css"><![CDATA[path { fill-rule: evenodd; }
#context path { fill: #eee; stroke: #bbb; } ]]></style></defs>
<g id="HKG" fill="red" fill-opacity="0.35" >
<path d="M 556.3758 12.5082 563.2848 11.9901 552.6909 24.887 545.5515 32.8325 535.1879 42.6779 528.2788 42.6779 527.3576 57.9355 539.5636 54.6537 540.6 49.2416 557.1818 44.8658 562.7091 39.2234 573.6485 20.4537 579.1758 19.3598 583.5515 23.7931 591.3818 19.3598 595.7576 23.7931 589.5394 35.6537 597.9455 33.7537 607.0424 41.584 606.3515 51.1992 613.2606 55.287 624.5455 49.2416 627.0788 54.6537 627.0788 63.5779 624.0848 74.9779 634.6788 75.6689 640.4364 84.1325 653.5636 90.0628 693.2909 79.0658 702.0424 74.5749 676.031 93.6021 651.74 104.6435 630.7613 100.227 597.6372 103.5394 566.7213 104.6435 553.4716 92.498 534.7013 91.3939 513.7226 101.3311 489.4316 113.4766 481.7026 110.1642 465.1405 113.4766 462.9322 124.518 428.7039 136.6636 416.5584 128.9346 375.7053 133.3511 367.9763 99.1228 360.2473 63.7904 351.8667 59.0295 347.7212 49.9325 360.5934 42.8242 384.5772 42.8242 392.4743 50.7213 396.8616 52.4762 413.5332 37.5595 426.695 35.8046 441.6117 37.5595 448.9239 18.1092 460.3308 5.8249 476.2723 1 490.1642 11.967 514.0017 11.967 543.4788 13.487 556.3758 12.5082 Z"/>
<path d="M 425.5636 546.0052 388.0242 548.4234 392.6303 536.1598 392.6303 493.1507 378.697 493.381 381.6909 484.284 382.1515 465.3416 391.4788 468.7961 397.3515 485.0325 409.097 496.9507 419.1152 493.1507 419.1152 501.9022 409.097 508.581 426.7152 507.4295 442.9515 507.4295 449.9758 510.884 433.6242 521.4779 427.9818 528.5598 436.8485 546.1204 425.5636 546.0052 Z M 224.9926 352.0721 274.2698 351.6068 273.103 361.7628 249.1515 358.4234 249.1515 377.1931 262.5091 371.781 256.0606 389.9749 257.903 424.5779 237.0606 424.5779 224.6242 420.087 241.4364 442.2537 220.4788 457.684 252.3758 477.6628 231.4182 493.1507 205.6242 504.3204 203.7818 494.3022 203.7818 463.2689 187.4303 463.2689 173.9576 463.2689 154.2667 463.2689 129.8545 482.0385 120.0667 482.0385 115.5758 488.7749 129.8545 492.0567 129.8545 500.7507 116.7273 508.8688 98.5333 510.3082 81.2606 494.3022 79.0727 484.284 66.9818 487.681 52.4727 497.4689 31.8606 513.9931 13.897 520.0961 3.6485 509.0416 1.8061 490.5598 1 475.4749 3.6485 467.587 17.8121 467.587 17.8121 453.5385 28.5212 450.8901 28.5212 442.0234 19.7697 435.6901 20.4606 435.1719 32.897 426.1901 42.9152 418.3598 43.8364 415.884 56.8485 413.6961 66.9818 403.6779 79.0727 384.7931 105.6727 384.7931 120.0667 386.0022 129.8545 395.9052 144.3636 390.4355 177.297 372.8173 198.2545 377.1931 208.1576 361.7052 220.4788 359.5173 224.9926 352.0721 Z"/>
<path d="M 587.0061 446.8022 578.2545 456.7052 583.5515 469.9476 590.2303 482.0385 583.5515 484.284 593.5697 510.884 575.9515 514.1658 571.4606 508.581 560.5212 499.7143 560.4061 484.8598 555.9152 468.4507 546.2424 461.0234 537.9515 467.4143 546.2424 469.9476 546.2424 480.9446 540.6 482.0385 530.8121 493.1507 540.6 507.487 536.2242 517.4476 541.7515 527.4658 525.0545 530.7476 522.7515 508.581 527.3576 505.2992 523.4424 498.4476 508.5879 505.2992 502.0242 501.9022 508.5879 494.3022 498.6848 488.7749 505.2485 479.8507 502.0242 472.1355 489.703 469.9476 491.3152 457.9143 473.3515 468.8537 467.8242 476.5689 464.4848 476.5689 461.2606 468.8537 458.9576 458.8355 446.5212 452.2719 423.6061 451.2355 413.8182 446.8022 408.0606 435.6901 405.9879 429.1264 399.3091 418.0719 390.4424 414.7901 411.0377 414.9065 424.2874 421.5314 443.0577 434.781 461.0855 433.5792 476.1819 432.5728 498.3089 431.9581 515.9309 431.4686 557.8882 434.781 587.0061 446.8022 Z"/>
<path d="M 390.4424 414.7901 391.5939 405.8658 394.8182 403.6779 401.6121 400.3961 413.8182 394.8113 427.9818 390.4355 443.297 394.8113 453.4303 400.3961 465.6364 403.6779 461.0855 433.5792 443.0577 434.781 424.2874 421.5314 411.0377 414.9065 390.4424 414.7901 Z"/>
<path d="M 465.6364 403.6779 484.2909 403.6779 494.9523 409.3859 507.0978 411.5941 503.7854 420.4272 498.3089 431.9581 476.1819 432.5728 461.0855 433.5792 465.6364 403.6779 Z"/>
<path d="M 484.2909 403.6779 497.4182 392.6234 509.6242 386.0022 523.2121 391.1264 536.2242 394.8113 544.9758 403.6779 553.9576 401.4901 564.897 405.8658 575.9515 424.5779 587.0061 432.4082 587.0061 446.8022 557.8882 434.781 515.9309 431.4686 498.3089 431.9581 503.7854 420.4272 507.0978 411.5941 494.9523 409.3859 484.2909 403.6779 Z"/>
<path d="M 224.9926 352.0721 230.497 342.9931 255.7152 324.2234 260.2061 334.1264 293.1394 309.7143 300.9697 314.7234 308.8 323.0719 304.4242 334.1264 302.2364 346.2749 296.4788 341.7264 285.4242 339.7113 275.6364 339.7113 274.2698 351.6068 224.9926 352.0721 Z M 390.3414 292.8862 388.2545 281.1567 379.503 275.6295 369.1394 285.3022 343.1152 281.1567 341.9636 285.5325 330.7939 285.5325 326.303 291.0022 313.1758 287.7204 302.2364 291.0022 287.6121 296.6446 260.2061 303.2082 274.1245 284.6182 261.979 272.4726 281.8535 258.1188 333.748 240.4526 393.3715 223.8905 425.3915 216.1616 448.5784 208.4326 472.8201 207.7592 476.1819 238.2443 444.1619 280.2016 432.0163 261.4312 420.975 265.8478 427.0052 284.2784 415.4543 289.0347 390.3414 292.8862 Z"/>
<path d="M 702.0424 74.5749 705.3818 82.4052 678.7818 102.2689 663.3515 115.5113 646.6545 122.2476 628 129.8476 611.4182 140.9598 604.8545 150.8052 590.2303 159.7295 579.1758 159.7295 558.3333 134.2234 538.4121 137.6779 530.8121 133.1295 527.3576 139.8658 529.6606 151.8992 536.2242 155.181 538.4121 165.1416 528.2788 162.9537 527.3576 156.4476 517.3394 150.8052 500.8727 152.9931 495.3455 159.7295 468.1697 164.9689 480.9515 171.8204 496.497 181.8385 514.4606 193.1234 521.603 197.8011 488.3274 207.3284 472.8201 207.7592 448.5784 208.4326 425.3915 216.1616 408.8294 159.8505 428.7039 136.6636 462.9322 124.518 465.1405 113.4766 481.7026 110.1642 489.4316 113.4766 513.7226 101.3311 534.7013 91.3939 553.4716 92.498 566.7213 104.6435 597.6372 103.5394 630.7613 100.227 651.74 104.6435 676.031 93.6021 702.0424 74.5749 Z M 587.0061 189.4961 609.2303 189.4961 612.3394 196.8658 609.2303 210.3961 616.8303 219.3204 622.3576 204.9264 640.0909 196.1749 622.3576 170.7264 640.0909 157.5416 657.9394 152.9931 656.7879 140.9598 689.2606 119.7143 691.103 126.5658 699.1636 128.1204 691.103 142.0537 706.1879 145.6234 709.5273 167.387 702.0424 176.3689 708.6061 188.287 716.2061 179.6507 723 200.5507 729.6788 199.4567 728.6424 174.987 740.3879 146.4295 751.6727 155.181 750.9818 167.5022 744.4876 186.3498 746.6959 216.1616 726.8214 228.3071 702.5304 217.2657 681.5517 206.2243 655.0524 218.3698 629.6572 232.7236 586.5958 239.3485 587.6999 215.0574 587.0061 189.4961 Z"/>
<path d="M 521.603 197.8011 530.8121 203.8325 528.2788 214.9446 535.1879 220.4143 527.3576 234.8658 536.2242 232.5052 547.2788 211.7204 562.5939 197.9598 568.2364 182.9325 576.1818 182.7022 587.0061 189.4961 587.6999 215.0574 586.5958 239.3485 567.8254 264.7437 546.8468 295.6595 493.8225 306.5763 471.7653 311.1175 456.8329 315.2326 449.6826 297.8678 444.1619 280.2016 476.1819 238.2443 472.8201 207.7592 488.3274 207.3284 521.603 197.8011 Z"/>
<path d="M 750.9818 167.5022 755.0121 176.3689 777.0061 177.4628 796.8121 181.8385 793.4727 192.7779 799 214.9446 782.0727 207.6325 771.3636 206.0204 755.0121 235.8446 761.8061 232.2173 775.8545 250.8719 782.6485 281.1567 778.1576 282.1931 777.0061 275.1689 763.7636 274.5355 768.1394 286.6264 762.6121 298.8325 755.0121 305.3961 741.7697 309.7143 737.1636 328.5992 729.6788 318.6385 729.6788 301.0204 715.0545 309.7143 710.9091 299.9264 702.0424 289.9082 704.2303 267.9143 684.5394 260.1992 682.0061 247.9931 669.9152 255.9385 655.7515 259.0476 635.8303 245.7476 624.5455 245.7476 611.4182 263.481 617.9818 284.4385 627.0788 296.6446 622.3576 306.4901 609.2303 295.5507 608.0788 281.1567 596.7939 286.6264 592.7636 295.3779 607.2727 308.9082 616.8303 345.181 623.3939 347.3113 643.3152 351.0537 644.4667 367.1749 649.9939 367.1749 661.1636 364.987 672.103 378.287 663.697 387.5567 652.4121 394.8113 642.2788 391.5295 640.0909 392.6234 641.1273 400.3961 640.897 411.3931 655.7515 406.9598 660.1273 418.0719 660.1273 428.0325 651.0303 433.5022 640.0909 424.5779 625.0061 416.287 627.0788 403.6779 617.9818 380.4749 605.8909 371.7234 607.0424 360.6113 608.0788 351.8598 592.7636 342.8779 587.0061 367.1749 589.1939 380.4749 575.6477 394.0212 565.6171 372.9493 573.3461 346.4499 562.3047 327.6796 546.8468 295.6595 567.8254 264.7437 586.5958 239.3485 629.6572 232.7236 655.0524 218.3698 681.5517 206.2243 702.5304 217.2657 726.8214 228.3071 746.6959 216.1616 744.4876 186.3498 750.9818 167.5022 Z"/>
<path d="M 575.6477 394.0212 569.2727 400.3961 553.9576 386.0022 530.8121 359.5173 525.8681 340.9292 521.4686 325.6072 562.3047 327.6796 573.3461 346.4499 565.6171 372.9493 575.6477 394.0212 Z"/>
<path d="M 530.8121 359.5173 535.1879 372.8173 531.8485 372.8173 507.7818 348.6355 495.1152 362.1082 502.0242 371.7234 502.0242 376.0416 491.0848 371.7234 488.2061 382.3749 480.9515 387.0961 481.7026 368.5327 478.3902 354.1789 479.2701 341.8596 480.5985 323.263 471.7653 311.1175 493.8225 306.5763 504.8895 327.6796 521.4686 325.6072 525.8681 340.9292 530.8121 359.5173 Z"/>
<path d="M 480.9515 387.0961 474.3879 390.4355 467.8242 382.7204 469.2061 366.7143 465.6364 359.5173 464.4848 352.9537 456.8848 352.9537 456.8848 342.9931 479.2701 341.8596 478.3902 354.1789 481.7026 368.5327 480.9515 387.0961 Z"/>
<path d="M 456.8848 342.9931 446.5212 334.1264 437.3136 329.2014 441.052 319.5815 456.8329 315.2326 471.7653 311.1175 480.5985 323.263 479.2701 341.8596 456.8848 342.9931 Z"/>
<path d="M 437.3136 329.2014 426.7152 323.5325 407.1394 314.7234 405.9879 321.9204 391.5939 299.9264 390.3414 292.8862 415.4543 289.0347 427.0052 284.2784 420.975 265.8478 432.0163 261.4312 444.1619 280.2016 449.6826 297.8678 456.8329 315.2326 441.052 319.5815 437.3136 329.2014 Z"/>
<path d="M 260.2061 303.2082 252.3758 298.8325 252.3758 291.0022 229.2303 291.0022 219.6727 283.8052 206.6606 280.0052 198.2545 262.387 192.8424 261.2931 189.6182 251.2749 180.7515 260.3143 195.2606 272.5204 167.3939 275.6295 153.1152 286.6264 133.0788 276.7234 126.4 276.7234 110.0485 266.7628 115.5758 250.181 104.6364 234.8658 85.4061 220.587 103.0242 206.6537 133.0788 204.9264 147.703 195.081 175.8561 209.5367 214.501 227.2029 280.7493 227.2029 281.8535 258.1188 261.979 272.4726 274.1245 284.6182 260.2061 303.2082 Z"/>
<path d="M 147.703 195.081 166.2424 162.9537 199.4061 149.7113 229.2303 107.681 238.097 107.681 249.1515 111.1355 247.7697 119.7143 246.9636 129.8476 252.3758 126.5658 269.0727 122.2476 273.4485 122.2476 275.6364 116.6052 274.4848 108.9476 274.4848 97.8355 290.9515 90.0628 313.1758 84.5931 318.5879 79.0658 324.2303 69.0476 335.1697 65.7658 341.9636 63.5779 351.8667 59.0295 360.2473 63.7904 367.9763 99.1228 375.7053 133.3511 416.5584 128.9346 428.7039 136.6636 408.8294 159.8505 425.3915 216.1616 393.3715 223.8905 333.748 240.4526 281.8535 258.1188 280.7493 227.2029 214.501 227.2029 175.8561 209.5367 147.703 195.081 Z"/>
<path d="M 493.8225 306.5763 546.8468 295.6595 562.3047 327.6796 521.4686 325.6072 504.8895 327.6796 493.8225 306.5763 Z"/>
</g>
</svg>
