<?xml version="1.0" encoding="UTF-8"?><!DOCTYPE svg  PUBLIC '-//W3C//DTD SVG 1.1//EN'  'http://www.w3.org/Graphics/SVG/1.1/DTD/svg11.dtd'><svg enable_background="new 0 0 450 301" height="301px" style="stroke-linejoin: round; stroke:#000; fill:#f6f3f0;" version="1.1" viewBox="0 0 450 301" width="450px" xmlns="http://www.w3.org/2000/svg" xmlns:xlink="http://www.w3.org/1999/xlink"><defs><style type="text/css"><![CDATA[path { fill-rule: evenodd; }
#context path { fill: #eee; stroke: #bbb; } ]]></style></defs><metadata><views><view h="301.0" padding="0.06" w="450"><proj id="laea" lat0="15.6810586614" lon0="-87.0563680264"/><bbox h="52.45" w="83.3" x="967.95" y="985.34"/><llbbox lat0="-90" lat1="90" lon0="-180" lon1="180"/></view></views></metadata><g id="context"><path d="M54,68L56,64L68,49L77,46L83,37L87,33L93,23L96,1L96,0L37,0L33,72L41,72L55,73L54,68Z " data-iso="BLZ"/><path d="M24,171L26,168L29,163L37,158L37,154L35,146L34,141L37,129L39,127L50,122L68,108L98,84L75,69L78,75L74,81L67,78L61,74L59,74L55,73L41,72L33,72L37,0L0,0L0,191L4,186L11,183L11,172L21,170L23,170L24,171Z " data-iso="GTM"/><path d="M98,84L68,108L50,122L39,127L37,129L34,141L35,146L37,154L37,158L29,163L26,168L24,171L26,171L37,174L40,174L48,182L56,188L57,190L64,194L74,199L79,200L81,209L83,209L94,203L102,200L107,202L110,205L113,207L119,206L125,206L129,210L130,212L127,227L126,231L129,236L124,239L127,241L131,242L138,240L145,242L144,247L150,257L155,260L155,267L173,266L176,265L179,262L181,258L182,251L185,248L194,247L196,245L194,239L192,219L194,215L202,214L217,215L220,214L226,206L232,199L236,196L239,196L243,201L255,209L259,207L259,203L262,200L269,197L275,191L282,184L288,179L293,178L294,176L293,173L294,169L295,164L298,160L302,160L303,158L303,153L307,148L315,144L319,146L323,151L329,154L336,156L341,155L345,152L348,151L353,151L353,149L360,150L363,149L366,145L372,146L379,145L386,140L391,138L394,139L396,137L400,132L408,130L424,131L420,127L415,125L410,114L392,106L390,106L398,111L402,116L400,116L396,113L391,113L388,116L385,116L382,112L374,105L369,103L363,104L362,98L364,97L371,96L385,104L384,102L352,76L336,73L338,75L342,76L338,78L333,78L328,73L307,66L302,67L294,71L274,72L255,65L242,64L244,65L245,69L236,72L229,73L218,80L210,79L192,79L183,82L158,77L153,77L145,80L142,77L137,72L132,72L121,74L112,80L109,81L104,86L98,84Z M214,40L224,37L219,36L213,38L205,42L200,46L204,46L214,40Z M249,35L251,31L248,31L245,33L243,37L244,39L249,35Z " data-iso="HND"/><path d="M424,131L408,130L400,132L396,137L394,139L391,138L386,140L379,145L372,146L366,145L363,149L360,150L353,149L353,151L348,151L345,152L341,155L336,156L329,154L323,151L319,146L315,144L307,148L303,153L303,158L302,160L298,160L295,164L294,169L293,173L294,176L293,178L288,179L282,184L275,191L269,197L262,200L259,203L259,207L255,209L243,201L239,196L236,196L232,199L226,206L220,214L217,215L202,214L194,215L192,219L194,239L196,245L194,247L185,248L182,251L181,258L179,262L176,265L173,266L155,267L155,269L151,271L149,271L144,267L141,263L139,263L133,268L133,272L147,282L165,299L389,299L388,297L390,294L396,290L398,283L399,286L399,292L397,296L396,299L404,299L402,291L403,268L399,243L404,215L409,197L413,193L421,179L423,174L415,147L410,146L408,142L409,139L412,137L415,138L415,144L416,143L420,135L422,133L424,131Z " data-iso="NIC"/><path d="M124,239L129,236L126,231L127,227L130,212L129,210L125,206L119,206L113,207L110,205L107,202L102,200L94,203L83,209L81,209L79,200L74,199L64,194L57,190L56,188L48,182L40,174L37,174L26,171L24,171L23,170L21,170L11,172L11,183L4,186L0,191L0,228L13,231L29,233L56,246L79,253L80,252L74,249L69,248L67,247L73,247L85,251L100,255L110,254L116,254L124,247L122,240L124,239Z " data-iso="SLV"/></g><g fill="red" fill-opacity="0.35" id="regions"><path d="M213,80L209,79L196,80L191,79L182,82L173,80L167,79L161,77L153,76L149,78L148,80L144,79L138,74L138,72L136,73L130,71L130,71L128,76L127,81L127,84L126,84L131,88L134,95L137,98L147,96L149,97L149,101L153,103L156,102L165,104L168,102L172,100L177,96L181,96L186,94L187,96L191,96L197,93L213,93L214,94L215,93L218,91L215,85L213,83L213,80L213,80Z " data-fips="HO01" data-fips-="" data-iso3="HND" data-name="Atlntida"/><path d="M303,66L298,70L293,71L283,72L275,72L270,72L262,68L261,70L261,67L250,64L247,65L242,63L240,64L246,65L245,70L241,72L232,73L230,73L225,76L214,81L213,80L213,83L215,85L218,91L215,93L214,94L216,95L223,97L225,97L226,103L226,105L230,107L243,104L247,100L249,97L251,97L254,96L256,93L266,96L273,102L280,105L282,107L286,112L299,121L302,123L305,127L305,66L303,66Z " data-fips="HO03" data-fips-="" data-iso3="HND" data-name="Coln"/><path d="M175,131L169,130L166,131L164,134L162,137L161,139L162,140L162,143L160,143L161,148L160,152L156,155L154,159L151,158L150,161L147,164L150,169L150,171L152,172L151,174L149,177L147,177L148,182L149,184L146,186L144,188L140,189L137,192L137,193L138,202L138,203L138,206L137,208L135,210L135,212L138,218L146,221L147,221L147,220L147,215L152,216L151,217L153,220L160,220L163,221L165,220L168,222L170,217L169,216L169,212L173,214L176,212L177,209L177,201L180,202L182,199L180,194L178,190L182,190L183,184L187,181L188,177L190,175L195,171L195,170L193,161L189,156L188,156L186,153L181,139L183,136L178,132L178,131L175,131Z " data-fips="HO08" data-fips-="" data-iso3="HND" data-name="Francisco Morazn"/><path d="M305,66L305,127L306,133L306,149L306,149L311,145L316,143L319,144L321,147L322,147L325,153L326,153L331,154L339,157L344,155L347,150L348,153L352,153L353,151L353,147L356,148L358,150L364,149L362,145L363,145L369,147L375,147L375,144L377,145L380,144L382,142L385,142L390,138L395,139L395,137L400,134L401,133L406,131L409,128L412,131L417,130L420,131L423,130L426,130L418,127L416,126L408,113L399,110L389,104L388,106L399,111L400,110L403,116L400,117L397,120L396,117L396,115L400,115L400,112L393,111L393,114L389,115L388,117L385,114L384,112L376,105L370,103L368,105L380,112L376,115L375,114L372,112L374,110L369,109L363,106L362,104L364,101L361,96L358,99L358,97L356,94L362,95L364,99L364,97L369,95L375,99L376,101L382,103L387,105L381,102L373,95L367,89L359,83L355,79L351,76L343,75L333,73L332,74L342,76L343,77L339,79L335,79L333,77L331,79L329,77L328,73L326,72L315,68L308,66L305,66Z " data-fips="HO09" data-fips-="" data-iso3="HND" data-name="Gracias a Dios"/><path d="M184,57L181,57L178,59L177,60L181,60L184,57Z M220,37L219,37L202,44L200,46L202,47L203,46L216,39L221,38L220,37Z M246,36L249,35L250,32L248,32L245,34L244,36L246,36Z " data-fips="HO01" data-fips-="HO11" data-iso3="HND" data-name="Islas de la Baha"/><path d="M226,105L223,107L217,110L214,110L209,106L200,110L198,114L196,115L192,113L189,113L186,116L184,127L182,129L178,130L178,131L178,132L183,136L181,139L186,153L188,156L189,156L193,161L195,170L195,171L198,172L200,172L208,175L211,177L214,180L218,180L223,177L226,176L230,177L234,182L238,181L240,182L246,189L248,190L252,187L254,188L256,186L266,188L270,196L271,196L272,195L273,192L275,192L285,180L292,178L296,176L294,172L296,166L297,160L302,162L304,158L302,154L306,149L306,149L306,133L305,127L302,123L299,121L286,112L282,107L280,105L273,102L266,96L256,93L254,96L251,97L249,97L247,100L243,104L230,107L226,105Z " data-fips="HO15" data-fips-="" data-iso3="HND" data-name="Olancho"/><path d="M213,93L197,93L191,96L187,96L186,94L181,96L177,96L172,100L168,102L165,104L156,102L153,103L149,101L149,97L147,96L137,98L134,95L131,88L126,84L124,86L124,88L128,92L126,94L123,98L122,102L124,105L121,109L118,111L117,113L118,120L119,119L126,123L127,123L129,128L129,131L135,131L142,129L147,135L147,136L151,138L154,137L159,138L161,139L162,137L164,134L166,131L169,130L175,131L178,131L178,130L182,129L184,127L186,116L189,113L192,113L196,115L198,114L200,110L209,106L214,110L217,110L223,107L226,105L226,103L225,97L223,97L216,95L214,94L213,93Z " data-fips="HO18" data-fips-="" data-iso3="HND" data-name="Yoro"/><path d="M136,249L134,246L133,247L136,249Z M136,241L134,244L138,245L139,244L139,242L136,241Z M130,211L129,216L129,218L128,221L127,225L126,228L127,232L129,232L130,235L129,236L124,239L129,242L134,240L134,236L136,235L138,240L141,242L146,242L148,238L151,239L152,240L154,237L153,231L151,229L149,226L149,223L147,221L147,221L146,221L138,218L135,212L135,210L133,210L132,209L128,209L130,211Z " data-fips="HO17" data-fips-="" data-iso3="HND" data-name="Valle"/><path d="M159,138L154,137L151,138L147,136L147,135L142,129L135,131L129,131L129,133L125,138L115,145L114,144L113,143L113,146L111,147L109,149L108,153L107,155L108,156L114,158L117,163L122,169L122,170L122,170L122,171L127,174L132,175L136,178L136,180L128,183L123,184L132,193L132,196L135,193L137,193L137,192L140,189L144,188L146,186L149,184L148,182L147,177L149,177L151,174L152,172L150,171L150,169L147,164L150,161L151,158L154,159L156,155L160,152L161,148L160,143L162,143L162,140L161,139L159,138Z " data-fips="HO04" data-fips-="" data-iso3="HND" data-name="Comayagua"/><path d="M130,71L128,72L122,73L118,74L116,74L113,80L105,86L103,87L98,84L97,86L92,87L90,91L87,94L82,97L86,96L90,97L96,99L97,100L97,103L100,105L104,107L104,114L106,117L108,118L105,122L106,126L111,129L109,133L109,136L113,140L113,143L114,144L115,145L125,138L129,133L129,131L129,128L127,123L126,123L119,119L118,120L117,113L118,111L121,109L124,105L122,102L123,98L126,94L128,92L124,88L124,86L126,84L127,84L127,81L128,76L130,71L130,71Z " data-fips="HO06" data-fips-="" data-iso3="HND" data-name="Corts"/><path d="M106,155L104,155L102,155L95,156L90,155L91,156L91,161L89,166L83,167L80,169L80,172L85,176L86,179L85,182L91,184L91,191L84,198L82,198L80,201L80,202L80,208L89,206L91,206L97,202L96,200L98,199L98,199L98,196L97,194L101,189L109,182L111,182L115,176L115,173L119,173L122,170L122,170L122,169L117,163L114,158L108,156L107,155L106,155Z " data-fips="HO10" data-fips-="HO02" data-iso3="HND" data-name="Intibuc"/><path d="M122,170L119,173L115,173L115,176L111,182L109,182L101,189L97,194L98,196L98,199L100,200L106,200L111,208L115,206L116,207L124,205L127,208L128,209L132,209L133,210L135,210L137,208L138,206L138,203L138,202L137,193L135,193L132,196L132,193L123,184L128,183L136,180L136,178L132,175L127,174L122,171L122,170Z " data-fips="HO12" data-fips-="HO10" data-iso3="HND" data-name="La Paz"/><path d="M113,140L109,136L109,133L111,129L106,126L105,122L108,118L106,117L104,114L104,107L100,105L97,103L97,100L96,99L90,97L86,96L82,97L80,99L80,99L80,99L63,112L66,116L66,118L70,123L69,130L69,137L71,137L73,136L77,136L80,143L81,145L84,142L86,143L89,144L89,150L92,151L91,153L90,155L95,156L102,155L104,155L106,155L107,155L108,153L109,149L111,147L113,146L113,143L113,140Z " data-fips="HO16" data-fips-="HO05" data-iso3="HND" data-name="Santa Brbara"/><path d="M50,122L41,126L38,128L36,132L37,135L36,137L33,141L33,143L37,149L38,151L38,151L46,150L48,155L57,165L62,162L64,162L65,162L65,158L62,154L61,151L70,150L69,146L69,144L71,139L71,137L69,137L69,130L70,123L66,118L66,116L63,112L50,122Z " data-fips="HO05" data-fips-="" data-iso3="HND" data-name="Copn"/><path d="M71,137L71,139L69,144L69,146L70,150L61,151L62,154L65,158L65,162L66,162L63,170L59,171L60,173L56,171L50,177L49,185L49,185L54,185L57,190L58,192L64,191L65,196L68,198L71,198L80,201L80,201L80,201L82,198L84,198L91,191L91,184L85,182L86,179L85,176L80,172L80,169L83,167L89,166L91,161L91,156L90,155L91,153L92,151L89,150L89,144L86,143L84,142L81,145L80,143L77,136L73,136L71,137Z " data-fips="HO13" data-fips-="" data-iso3="HND" data-name="Lempira"/><path d="M38,151L37,160L33,160L29,163L27,166L24,167L35,174L38,174L41,172L42,176L44,176L46,180L49,184L49,185L50,177L56,171L60,173L59,171L63,170L66,162L65,162L64,162L62,162L57,165L48,155L46,150L38,151L38,151Z " data-fips="HO14" data-fips-="HO05" data-iso3="HND" data-name="Ocotepeque"/><path d="M147,221L147,221L149,223L149,226L151,229L153,231L154,237L152,240L152,240L152,241L144,246L148,253L151,258L153,258L156,267L171,266L174,267L175,266L179,263L180,261L183,250L189,246L193,248L196,246L196,243L194,239L195,237L191,222L192,219L189,220L184,222L181,222L179,226L177,227L174,231L171,232L169,229L166,229L162,224L163,221L160,220L153,220L151,217L152,216L147,215L147,220L147,221Z " data-fips="HO02" data-fips-="" data-iso3="HND" data-name="Choluteca"/><path d="M195,171L190,175L188,177L187,181L183,184L182,190L178,190L180,194L182,199L180,202L177,201L177,209L176,212L173,214L169,212L169,216L170,217L168,222L165,220L163,221L162,224L166,229L169,229L171,232L174,231L177,227L179,226L181,222L184,222L189,220L192,219L192,217L199,215L206,214L210,215L212,214L215,216L218,216L227,205L230,201L235,196L240,196L240,199L244,202L250,205L253,209L259,210L258,207L259,202L269,196L270,196L266,188L256,186L254,188L252,187L248,190L246,189L240,182L238,181L234,182L230,177L226,176L223,177L218,180L214,180L211,177L208,175L200,172L198,172L195,171Z " data-fips="HO07" data-fips-="" data-iso3="HND" data-name="El Paraso"/></g></svg>