<?xml version="1.0" encoding="UTF-8"?><!DOCTYPE svg  PUBLIC '-//W3C//DTD SVG 1.1//EN'  'http://www.w3.org/Graphics/SVG/1.1/DTD/svg11.dtd'><svg enable_background="new 0 0 450 301" height="301px" style="stroke-linejoin: round; stroke:#000; fill:#f6f3f0;" version="1.1" viewBox="0 0 450 301" width="450px" xmlns="http://www.w3.org/2000/svg" xmlns:xlink="http://www.w3.org/1999/xlink"><defs><style type="text/css"><![CDATA[path { fill-rule: evenodd; }
#context path { fill: #eee; stroke: #bbb; } ]]></style></defs><metadata><views><view h="301.0" padding="0.06" w="450"><proj id="laea" lat0="42.9468879259" lon0="16.9128488201"/><bbox h="57.0" w="57.34" x="967.42" y="952.48"/><llbbox lat0="-90" lat1="90" lon0="-180" lon1="180"/></view></views></metadata><g id="context"><path d="M396,272L395,272L386,277L383,277L380,274L380,269L376,268L371,277L361,293L359,298L360,299L420,299L417,292L410,287L405,285L402,280L398,274L396,272Z " data-iso="ALB"/><path d="M102,15L104,16L108,16L120,20L138,23L140,24L149,18L153,13L156,11L160,10L170,9L180,10L185,9L189,6L195,5L203,8L204,0L44,0L49,3L79,11L87,12L93,13L102,15Z " data-iso="AUT"/><path d="M318,274L319,273L323,268L323,266L319,260L318,247L320,244L326,243L326,237L329,230L337,222L341,223L343,226L345,226L345,221L341,213L342,210L345,210L351,210L353,210L355,206L360,206L365,208L366,198L360,189L354,182L359,180L364,181L368,180L370,176L358,165L353,161L349,160L348,158L348,148L349,146L355,134L358,124L352,120L347,121L343,123L342,124L339,124L334,123L331,121L329,114L325,110L318,110L308,107L301,108L295,107L289,111L287,111L281,106L279,106L274,108L259,106L255,105L246,98L240,104L228,102L225,106L220,112L217,116L214,114L211,112L205,104L196,103L194,104L192,125L191,131L198,137L206,146L208,147L213,167L221,177L225,181L230,187L236,195L254,212L261,215L262,217L263,224L263,226L269,233L279,243L280,248L277,250L281,252L285,251L288,252L290,256L303,265L312,271L314,272L318,274Z " data-iso="BIH"/><path d="M279,261L270,259L266,259L285,265L279,261Z M233,246L237,251L243,253L249,250L254,251L259,251L254,248L248,247L242,248L233,246Z M322,282L320,279L318,276L318,274L314,272L312,271L303,265L290,256L288,252L285,251L281,252L284,255L260,244L252,245L262,248L277,256L289,259L305,269L313,276L322,282Z M259,238L252,236L235,234L233,232L227,231L220,232L228,236L234,238L255,238L259,238Z M239,228L244,225L242,223L231,221L224,221L222,225L226,227L232,228L239,228Z M174,182L169,180L171,183L174,186L177,187L174,182Z M167,176L160,170L162,174L168,179L167,176Z M165,185L154,172L150,169L152,172L163,186L165,185Z M166,159L168,158L162,152L158,145L153,140L146,135L146,137L152,145L153,149L157,152L164,160L166,159Z M150,131L146,125L143,125L143,130L147,131L151,134L150,131Z M134,137L133,132L133,123L133,117L130,113L129,109L129,104L126,105L128,113L128,116L126,118L126,121L129,130L131,136L133,139L134,137Z M149,117L146,111L144,109L141,103L139,100L136,105L132,108L136,112L140,113L144,118L149,117Z M228,19L224,18L219,17L215,20L216,26L215,27L209,27L208,27L205,32L202,33L188,38L186,44L189,48L190,52L187,62L180,64L172,68L175,74L172,76L174,85L170,87L164,86L157,83L152,85L149,84L141,75L140,73L136,76L133,82L130,83L117,83L113,81L110,85L108,86L96,83L94,80L91,82L95,98L95,106L100,114L105,124L110,125L116,114L123,104L125,96L127,93L131,92L138,96L141,100L151,110L154,117L152,127L153,134L156,141L169,156L179,163L174,162L170,162L163,164L165,169L180,186L187,193L194,198L200,203L200,209L202,212L209,213L221,211L231,216L245,220L256,232L265,238L275,248L277,250L280,248L279,243L269,233L263,226L263,224L262,217L261,215L254,212L236,195L230,187L225,181L221,177L213,167L208,147L206,146L198,137L191,131L192,125L194,104L196,103L205,104L211,112L214,114L217,116L220,112L225,106L228,102L240,104L246,98L255,105L259,106L274,108L279,106L281,106L287,111L289,111L295,107L301,108L308,107L318,110L325,110L329,114L331,121L334,123L339,124L342,124L341,121L346,117L344,106L347,105L347,102L350,104L359,102L359,101L356,97L353,97L345,93L341,89L341,85L343,81L338,79L336,76L338,73L335,66L332,61L335,59L335,57L335,55L335,55L332,56L327,57L324,57L314,66L311,67L293,66L286,65L281,63L278,60L277,57L273,55L268,55L263,52L260,47L256,43L251,39L247,35L244,30L238,25L230,20L228,19Z " data-iso="HRV"/><path d="M228,19L230,20L238,25L244,30L247,35L251,39L256,43L260,47L263,52L268,55L273,55L277,57L278,60L281,63L286,65L293,66L311,67L314,66L324,57L327,57L332,56L335,55L335,55L336,55L340,53L343,49L346,51L352,50L360,44L363,40L367,39L377,40L381,39L391,40L393,41L395,42L397,40L407,37L412,39L414,38L418,32L421,31L430,31L434,29L437,21L440,20L439,15L441,7L449,0L219,0L220,5L222,10L227,18L228,19Z " data-iso="HUN"/><path d="M101,76L108,74L106,70L95,61L95,59L97,51L96,50L92,50L92,46L98,37L90,34L89,35L87,31L88,28L92,25L101,19L102,15L93,13L87,12L79,11L49,3L44,0L0,0L0,297L2,299L139,299L132,293L115,276L107,264L104,253L99,231L94,218L88,206L86,203L76,198L59,182L49,176L40,167L36,161L33,147L31,128L33,121L38,124L41,121L45,113L39,108L35,97L32,95L35,82L39,79L45,76L47,76L42,81L45,81L57,76L64,72L70,71L78,63L90,67L94,63L97,64L104,73L101,76Z M35,180L37,177L40,176L41,179L39,182L36,182L35,180Z " data-iso="ITA"/><path d="M450,245L445,238L441,235L431,230L429,225L427,225L421,229L420,230L422,237L421,240L414,245L414,251L408,254L402,256L401,259L395,259L394,260L397,267L396,272L396,272L398,274L402,280L405,285L410,287L417,292L420,299L436,299L444,295L448,294L450,296L450,245Z " data-iso="KOS"/><path d="M450,299L450,296L448,294L444,295L436,299L450,299Z " data-iso="MKD"/><path d="M396,272L396,272L397,267L394,260L395,259L401,259L402,256L408,254L408,252L408,249L404,247L400,245L389,238L381,236L376,233L373,233L370,230L363,222L354,215L352,211L353,210L351,210L345,210L342,210L341,213L345,221L345,226L343,226L341,223L337,222L329,230L326,237L326,243L320,244L318,247L319,260L323,266L323,268L319,273L318,274L318,276L320,279L322,282L324,282L328,281L328,285L340,293L346,299L360,299L359,298L361,293L371,277L376,268L380,269L380,274L383,277L386,277L395,272L396,272Z " data-iso="MNE"/><path d="M450,109L449,110L449,112L450,109Z M395,42L398,45L401,50L411,56L414,62L417,65L420,64L420,74L421,78L425,84L429,88L438,93L442,96L450,98L450,0L449,0L441,7L439,15L440,20L437,21L434,29L430,31L421,31L418,32L414,38L412,39L407,37L397,40L395,42Z " data-iso="ROU"/><path d="M39,182L41,179L40,176L37,177L35,180L36,182L39,182Z " data-iso="SMR"/><path d="M395,42L393,41L391,40L381,39L377,40L367,39L363,40L360,44L352,50L346,51L343,49L340,53L336,55L335,55L335,57L335,59L332,61L335,66L338,73L336,76L338,79L343,81L341,85L341,89L345,93L353,97L356,97L359,101L359,102L350,104L347,102L347,105L344,106L346,117L341,121L342,124L343,123L347,121L352,120L358,124L355,134L349,146L348,148L348,158L349,160L353,161L358,165L370,176L368,180L364,181L359,180L354,182L360,189L366,198L365,208L360,206L355,206L353,210L352,211L354,215L363,222L370,230L373,233L376,233L381,236L389,238L400,245L404,247L408,249L408,252L408,254L414,251L414,245L421,240L422,237L420,230L421,229L427,225L429,225L431,230L441,235L445,238L450,245L449,120L450,120L449,112L449,110L450,109L450,98L442,96L438,93L429,88L425,84L421,78L420,74L420,64L417,65L414,62L411,56L401,50L398,45L395,42Z " data-iso="SRB"/><path d="M102,15L101,19L92,25L88,28L87,31L89,35L90,34L98,37L92,46L92,50L96,50L97,51L95,59L95,61L106,70L108,74L101,76L97,79L94,80L96,83L108,86L110,85L113,81L117,83L130,83L133,82L136,76L140,73L141,75L149,84L152,85L157,83L164,86L170,87L174,85L172,76L175,74L172,68L180,64L187,62L190,52L189,48L186,44L188,38L202,33L205,32L208,27L209,27L215,27L216,26L215,20L219,17L224,18L228,19L227,18L222,10L220,5L219,0L204,0L203,8L195,5L189,6L185,9L180,10L170,9L160,10L156,11L153,13L149,18L140,24L138,23L120,20L108,16L104,16L102,15Z " data-iso="SVN"/></g><g fill="red" fill-opacity="0.35" id="regions"><path d="M247,261L241,260L242,263L245,263L247,261Z M268,259L265,259L268,261L285,265L284,264L280,263L278,262L273,260L269,260L268,259Z M239,248L233,246L232,247L236,248L232,250L243,252L250,250L255,251L256,248L251,247L241,248L239,248Z M252,244L250,242L254,247L259,247L271,254L277,256L285,257L287,259L289,258L299,265L299,265L305,270L309,274L317,279L319,280L317,273L316,273L296,261L294,259L290,257L287,252L284,251L282,254L274,251L273,251L270,248L261,244L257,244L252,244Z M267,241L271,244L273,243L276,249L277,249L281,248L279,243L277,240L271,236L266,236L269,239L267,241L267,241Z " data-fips="HR03" data-fips-="" data-iso3="HRV" data-name="Dubrovacko-Neretvanska"/><path d="M173,194L172,193L167,189L173,194Z M183,190L186,191L185,192L189,196L196,198L200,202L201,205L199,207L199,209L201,213L203,213L203,213L207,210L205,207L218,200L220,195L223,193L223,192L219,188L219,186L219,185L212,186L210,183L209,179L208,180L204,181L203,184L193,184L190,189L188,188L186,189L184,188L182,189L183,190Z " data-fips="HR13" data-fips-="" data-iso3="HRV" data-name="ibensko-Kninska"/><path d="M212,241L205,241L208,245L212,244L212,241Z M229,231L230,234L226,232L220,233L229,237L235,238L259,238L251,237L242,235L236,235L234,232L229,231Z M241,224L241,223L235,221L226,221L223,220L224,223L222,224L226,227L232,229L242,228L244,225L241,224Z M217,220L213,219L212,221L219,224L221,223L217,220Z M218,213L214,213L214,215L218,215L218,213Z M228,183L223,184L222,185L221,186L219,186L219,188L223,192L223,193L220,195L218,200L205,207L207,210L203,213L203,213L211,214L208,212L214,212L218,210L225,211L221,213L228,214L232,217L238,219L244,220L246,222L253,230L258,234L265,238L267,241L269,239L266,236L271,236L270,236L263,226L262,223L263,217L261,215L256,214L254,213L241,200L236,196L235,191L229,185L228,183Z " data-fips="HR15" data-fips-="" data-iso3="HRV" data-name="Splitsko-Dalmatinska"/><path d="M177,187L175,184L174,182L170,180L172,184L177,187Z M167,176L160,170L161,172L165,177L167,176Z M151,171L154,175L163,186L165,187L166,186L158,178L154,172L151,171Z M148,157L147,153L146,153L146,156L148,157Z M184,124L183,125L181,132L179,133L181,135L183,142L183,143L187,149L186,155L182,159L180,157L176,156L173,154L171,157L171,157L176,160L178,162L181,163L180,164L170,161L170,164L166,161L166,163L163,168L167,171L177,184L178,185L180,186L182,188L182,189L184,188L186,189L188,188L190,189L193,184L203,184L204,181L208,180L209,179L210,183L212,186L219,185L219,186L221,186L222,185L223,184L228,183L227,182L223,180L223,178L218,176L213,167L212,163L213,158L207,146L204,146L205,143L205,140L202,139L201,136L192,133L191,130L193,126L191,121L191,120L188,119L186,120L185,120L182,121L184,123L184,124Z " data-fips="HR19" data-fips-="" data-iso3="HRV" data-name="Zadarska"/><path d="M197,35L194,37L188,39L187,40L187,45L190,48L190,52L190,53L200,54L201,55L202,56L202,56L202,57L203,57L210,53L211,53L212,53L214,51L213,50L215,47L216,48L216,44L214,38L212,39L206,39L204,39L199,36L199,35L197,35Z " data-fips="SI92" data-fips-="HR07" data-iso3="HRV" data-name="Krapinsko-Zagorska"/><path d="M175,72L175,74L172,76L171,78L173,83L171,86L169,87L164,96L160,94L158,95L157,106L158,107L164,109L168,109L176,114L178,118L182,122L184,124L184,123L182,121L185,120L186,120L188,119L191,120L192,120L193,118L193,113L194,104L195,103L187,102L189,94L189,93L189,88L195,91L196,90L196,85L196,82L195,82L193,77L187,76L185,77L179,72L176,71L175,72L175,72Z " data-fips="HR05" data-fips-="SI73" data-iso3="HRV" data-name="Karlovacka"/><path d="M150,141L147,136L146,137L151,143L153,147L152,148L162,155L161,156L163,159L167,159L165,157L169,158L161,150L159,152L156,146L153,144L158,146L153,140L152,142L150,141Z M158,107L159,109L158,111L155,110L153,113L154,116L154,118L152,129L153,135L158,143L162,147L164,150L171,157L173,154L176,156L180,157L182,159L186,155L187,149L183,143L183,142L181,135L179,133L181,132L183,125L184,124L182,122L178,118L176,114L168,109L164,109L158,107Z " data-fips="HR08" data-fips-="" data-iso3="HRV" data-name="Licko-Senjska"/><path d="M135,139L135,139L135,139L135,139Z M135,139L135,139L135,139L135,139Z " data-fips="HR12" data-fips-="" data-iso3="HRV" data-name="Primorsko-Goranska"/><path d="M128,141L127,133L130,135L129,136L135,147L131,143L128,141Z M135,139L135,139L135,139L135,139L135,139L135,139L135,139Z M146,125L146,126L149,129L151,133L151,134L146,129L144,130L142,128L145,128L146,125Z M134,118L133,124L133,126L133,132L135,138L133,139L131,137L130,134L128,126L128,126L126,118L130,120L129,115L125,106L127,103L129,104L129,110L132,115L134,118Z M138,99L141,104L143,104L143,109L146,110L146,112L149,115L149,117L145,119L141,116L139,113L132,109L134,106L137,106L138,99Z M169,87L164,96L160,94L158,95L157,106L158,107L159,109L158,111L155,110L153,113L151,110L150,108L147,106L131,93L128,92L127,92L125,98L124,102L123,104L122,104L122,97L122,88L119,84L119,84L122,82L128,84L131,83L135,81L136,77L140,72L140,75L144,79L145,81L149,85L153,85L155,82L165,88L167,88L169,87Z " data-fips="HR12" data-fips-="" data-iso3="HRV" data-name="Primorsko-Goranska"/><path d="M217,73L218,75L217,77L214,77L210,75L206,78L208,81L206,85L205,85L201,85L201,83L200,82L200,82L198,81L198,81L197,81L196,82L196,85L196,90L195,91L189,88L189,93L189,94L187,102L195,103L196,102L205,102L209,110L216,116L220,115L221,109L228,102L231,102L240,105L245,99L246,98L247,101L249,101L254,105L255,105L253,102L256,98L258,95L258,94L256,94L252,92L249,88L248,87L246,86L245,86L242,85L243,83L238,76L227,70L227,67L227,67L225,64L222,64L221,68L219,68L218,72L217,73Z " data-fips="HR14" data-fips-="" data-iso3="HRV" data-name="Sisacko-Moslavacka"/><path d="M190,55L189,58L190,61L188,63L182,62L179,64L179,65L171,69L172,72L174,71L175,72L176,71L179,72L185,77L187,76L193,77L195,82L196,82L197,81L198,81L198,81L200,82L200,82L201,77L199,74L196,72L194,68L197,64L196,62L194,60L198,57L200,56L202,56L201,55L200,54L190,53L190,55Z " data-fips="HR20" data-fips-="" data-iso3="HRV" data-name="Zagrebacka"/><path d="M216,73L215,71L214,71L212,66L214,61L212,56L211,53L210,53L203,57L202,57L202,56L202,56L200,56L198,57L194,60L196,62L197,64L194,68L196,72L199,74L201,77L200,82L201,83L201,85L205,85L206,85L208,81L206,78L210,75L214,77L217,77L218,75L217,73L216,73Z " data-fips="HR21" data-fips-="" data-iso3="HRV" data-name="Grad Zagreb"/><path d="M119,84L112,81L112,84L108,86L106,86L102,84L96,84L92,80L91,81L91,85L94,95L93,96L94,104L95,106L103,119L103,122L105,123L105,125L112,126L111,124L112,123L111,120L113,120L114,117L115,117L119,116L119,110L121,107L121,106L123,105L123,104L122,104L122,97L122,88L119,84L119,84Z " data-fips="HR04" data-fips-="SIJ9" data-iso3="HRV" data-name="Istarska"/><path d="M258,94L258,95L256,98L253,102L255,105L258,107L261,106L267,107L270,106L272,108L279,105L283,108L286,111L292,110L295,107L299,109L306,106L310,108L313,108L319,112L320,110L320,110L318,107L318,107L319,104L320,103L317,102L309,100L307,101L301,100L299,98L291,97L288,102L286,102L283,104L282,100L276,98L271,94L267,91L263,92L260,92L258,94Z " data-fips="HR02" data-fips-="" data-iso3="HRV" data-name="Brodsko-Posavska"/><path d="M290,65L292,69L294,69L295,72L298,74L298,75L302,76L305,78L304,80L312,84L313,82L315,85L303,89L301,91L300,96L299,98L301,100L307,101L309,100L317,102L320,103L320,103L321,101L318,99L319,96L324,95L327,89L331,88L331,85L333,85L338,87L341,86L340,86L341,83L344,83L344,81L341,78L338,80L336,78L336,75L338,71L336,69L335,67L333,63L335,56L335,55L329,58L325,57L323,58L321,62L316,65L312,68L311,67L298,66L293,65L290,65Z " data-fips="HR10" data-fips-="" data-iso3="HRV" data-name="Osjecko-Baranjska"/><path d="M300,96L301,91L303,89L315,85L313,82L312,84L304,80L305,78L302,76L298,75L297,76L293,81L291,84L288,85L279,83L276,81L271,79L269,79L269,80L269,82L260,84L257,83L250,84L248,82L246,85L246,86L248,87L249,88L252,92L256,94L258,94L260,92L263,92L267,91L271,94L276,98L282,100L283,104L286,102L288,102L291,97L299,98L300,96Z " data-fips="HR11" data-fips-="" data-iso3="HRV" data-name="Brodsko-Posavska"/><path d="M320,103L319,104L318,107L318,107L320,110L320,110L323,109L326,110L330,115L331,115L331,119L331,121L336,124L342,124L341,122L342,120L344,121L347,118L344,106L346,106L347,103L354,103L355,104L359,104L359,101L357,99L348,96L339,90L342,88L342,87L341,86L338,87L333,85L331,85L331,88L327,89L324,95L319,96L318,99L321,101L320,103L320,103Z " data-fips="HR18" data-fips-="" data-iso3="HRV" data-name="Vukovarsko-Srijemska"/><path d="M263,53L258,54L257,56L255,59L256,60L262,64L264,68L267,71L270,70L272,73L269,78L269,79L271,79L276,81L279,83L288,85L291,84L293,81L297,76L298,75L298,74L295,72L294,69L292,69L290,65L290,65L288,66L286,63L279,62L279,59L276,56L272,54L269,54L264,53L263,53Z " data-fips="HR17" data-fips-="" data-iso3="HRV" data-name="Viroviticko-Podravska"/><path d="M254,59L249,56L249,54L245,51L246,49L242,46L241,48L238,49L236,54L236,57L236,57L235,62L231,63L231,66L227,66L227,67L227,67L227,70L238,76L243,83L242,85L245,86L246,86L246,85L248,82L250,84L257,83L260,84L269,82L269,80L269,79L269,78L272,73L270,70L267,71L264,68L262,64L256,60L254,59Z " data-fips="HR01" data-fips-="" data-iso3="HRV" data-name="Bjelovarska-Bilogorska"/><path d="M243,28L242,30L241,33L240,32L238,32L239,33L237,37L234,39L227,41L226,43L221,43L220,49L221,50L224,51L227,54L227,53L232,56L235,56L236,57L236,54L238,49L241,48L242,46L246,49L245,51L249,54L249,56L254,59L256,60L255,59L257,56L258,54L263,53L263,53L261,46L252,42L248,38L244,33L243,28L243,28Z " data-fips="HR06" data-fips-="" data-iso3="HRV" data-name="Koprivnicko-Krievacka"/><path d="M217,27L220,30L221,31L237,31L238,32L240,32L241,33L242,30L243,28L243,27L237,25L234,22L231,21L226,18L220,16L217,18L215,20L216,25L217,26L217,27Z " data-fips="HR09" data-fips-="" data-iso3="HRV" data-name="Medimurska"/><path d="M199,35L199,36L204,39L206,39L212,39L214,38L216,44L216,48L217,49L218,51L218,51L219,50L221,50L220,49L221,43L226,43L227,41L234,39L237,37L239,33L238,32L237,31L221,31L220,30L217,27L217,27L211,26L207,27L207,29L202,33L199,35L199,35Z " data-fips="HR16" data-fips-="" data-iso3="HRV" data-name="Varadinska"/><path d="M215,47L213,50L214,51L212,53L211,53L212,56L214,61L212,66L214,71L215,71L216,73L217,73L218,72L219,68L221,68L222,64L225,64L227,67L227,66L231,66L231,63L235,62L236,57L236,57L235,56L232,56L227,53L227,54L224,51L221,50L219,50L218,51L218,51L217,49L216,48L215,47Z " data-fips="HR20" data-fips-="HR16" data-iso3="HRV" data-name="Grad Zagreb"/></g></svg>