<?xml version="1.0" encoding="UTF-8"?><!DOCTYPE svg  PUBLIC '-//W3C//DTD SVG 1.1//EN'  'http://www.w3.org/Graphics/SVG/1.1/DTD/svg11.dtd'><svg enable_background="new 0 0 450 301" height="301px" style="stroke-linejoin: round; stroke:#000; fill:#f6f3f0;" version="1.1" viewBox="0 0 450 301" width="450px" xmlns="http://www.w3.org/2000/svg" xmlns:xlink="http://www.w3.org/1999/xlink"><defs><style type="text/css"><![CDATA[path { fill-rule: evenodd; }
#context path { fill: #eee; stroke: #bbb; } ]]></style></defs><metadata><views><view h="301.0" padding="0.06" w="450"><proj id="laea" lat0="18.5152267525" lon0="-74.0997120344"/><bbox h="29.51" w="37.21" x="993.45" y="978.52"/><llbbox lat0="-90" lat1="90" lon0="-180" lon1="180"/></view></views></metadata><g id="context"><path d="M0,38L2,37L15,31L40,25L66,23L85,22L89,17L97,11L99,3L97,0L0,0L0,38Z " data-iso="CUB"/><path d="M376,65L379,69L384,94L385,102L380,115L381,119L392,131L393,135L391,139L382,149L374,157L377,165L383,173L384,180L382,189L372,200L368,204L353,204L352,206L367,228L380,238L383,246L380,255L380,275L387,280L391,286L394,294L394,299L440,299L450,283L450,45L440,48L434,48L415,43L402,43L395,45L389,49L385,56L381,63L376,65Z " data-iso="DOM"/><path d="M256,184L243,174L225,165L213,161L200,163L199,170L224,183L254,193L256,184Z M380,275L380,255L383,246L380,238L367,228L352,206L353,204L368,204L372,200L382,189L384,180L383,173L377,165L374,157L382,149L391,139L393,135L392,131L381,119L380,115L385,102L384,94L379,69L376,65L370,68L355,65L324,63L299,54L275,44L247,40L218,44L207,46L195,50L185,56L181,67L186,74L195,77L226,80L249,91L268,101L263,114L260,126L263,140L255,148L274,170L296,188L310,197L311,203L307,209L302,211L279,212L274,217L269,223L264,226L258,227L243,225L163,217L152,211L131,210L118,207L103,202L88,199L81,200L69,204L58,226L60,233L65,239L92,248L105,255L116,264L128,277L134,275L136,267L145,258L157,253L172,251L188,250L201,253L214,256L248,263L263,262L277,259L282,258L287,255L292,254L345,252L352,254L359,257L370,266L380,275Z M272,27L257,20L249,20L243,21L237,24L244,28L250,27L263,31L275,33L276,29L272,27Z " data-iso="HTI"/></g><g fill="red" fill-opacity="0.35" id="regions"><path d="M149,207L148,204L146,202L142,202L139,203L139,207L142,208L146,208L149,207Z M61,237L68,237L74,236L93,233L105,232L120,236L126,237L126,234L127,231L137,230L140,229L142,224L145,221L143,218L146,214L145,214L141,214L139,215L135,212L127,211L122,209L120,209L118,207L111,207L96,200L91,199L83,198L81,201L69,202L64,206L66,211L64,213L62,219L60,221L61,222L57,228L61,236L61,237Z " data-fips="HA00" data-fips-="HA08" data-iso3="HTI" data-name="Grand'Anse"/><path d="M224,225L214,221L209,221L199,221L197,221L192,218L190,218L171,216L166,217L162,220L160,219L156,219L154,218L153,216L149,214L151,213L158,214L161,213L164,212L164,210L158,209L153,210L147,213L146,214L143,218L145,221L142,224L140,229L144,229L148,229L153,231L155,229L162,229L166,232L169,234L166,239L172,240L188,239L195,236L202,237L214,237L217,237L220,237L228,245L229,250L232,254L232,251L232,249L233,245L234,241L232,239L231,236L229,234L226,234L226,230L227,227L227,224L224,225Z " data-fips="HA15" data-fips-="HA08" data-iso3="HTI" data-name="Nippes"/><path d="M218,78L219,71L224,65L229,64L234,66L243,67L252,65L260,59L267,55L270,55L270,55L271,53L277,54L281,51L283,47L283,46L276,44L271,41L258,38L255,38L244,41L242,40L237,42L236,44L231,42L225,43L213,39L210,43L206,46L192,53L185,53L183,54L189,54L189,55L183,58L181,59L177,66L178,73L181,74L183,77L188,78L199,79L204,78L206,76L208,77L215,80L218,78L218,78Z M260,23L253,20L244,21L237,24L238,25L244,28L246,28L250,27L258,29L263,31L273,32L275,33L276,30L271,27L260,23Z " data-fips="HA03" data-fips-="" data-iso3="HTI" data-name="Nord-Ouest"/><path d="M151,269L149,270L152,273L161,275L165,272L159,270L155,270L153,268L151,269Z M140,229L137,230L127,231L126,234L126,237L120,236L105,232L93,233L74,236L68,237L61,237L62,239L66,241L71,245L75,246L83,243L87,243L93,245L93,247L97,249L102,251L114,260L119,264L126,275L127,277L130,279L138,279L139,278L138,273L133,268L135,264L137,262L146,258L151,254L151,252L153,253L157,250L155,256L157,254L158,251L160,251L160,254L163,254L165,255L167,251L172,253L176,251L179,250L189,250L197,250L197,251L192,251L191,254L198,253L223,258L233,259L233,258L232,256L232,254L229,250L228,245L220,237L217,237L214,237L202,237L195,236L188,239L172,240L166,239L169,234L166,232L162,229L155,229L153,231L148,229L144,229L140,229Z " data-fips="HA12" data-fips-="" data-iso3="HTI" data-name="Sud"/><path d="M267,55L260,59L252,65L243,67L234,66L229,64L224,65L219,71L218,78L219,78L223,79L230,82L232,81L236,85L241,86L247,90L254,93L257,95L261,100L267,100L268,101L270,105L265,104L265,106L264,109L260,108L259,109L260,114L265,116L266,120L261,120L260,121L256,127L260,134L261,136L267,139L267,142L266,143L264,144L259,145L254,147L255,150L267,163L268,163L271,160L279,160L294,161L296,165L302,168L305,170L308,173L314,172L319,173L322,171L322,167L324,163L323,154L324,147L323,141L324,138L321,135L322,126L327,118L326,115L324,111L323,108L324,104L322,100L317,97L312,93L312,85L306,84L304,86L301,86L301,89L298,90L293,88L287,82L283,72L280,71L279,69L280,65L277,63L275,63L274,60L272,58L270,55L267,55Z " data-fips="HA06" data-fips-="" data-iso3="HTI" data-name="L'Artibonite"/><path d="M353,114L345,118L337,123L334,123L331,119L327,118L322,126L321,135L324,138L323,141L324,147L323,154L324,163L322,167L322,171L319,173L314,172L308,173L311,177L315,179L319,180L323,183L330,190L339,193L348,189L358,188L371,192L376,195L380,193L383,189L385,182L384,177L383,172L383,170L378,165L376,161L372,161L367,162L367,160L369,158L375,157L377,156L382,150L385,145L391,140L393,136L392,128L384,124L380,120L376,121L364,120L362,118L357,116L353,114Z " data-fips="HA07" data-fips-="" data-iso3="HTI" data-name="Centre"/><path d="M344,67L343,74L340,77L337,79L337,85L340,92L342,95L342,98L341,100L345,101L351,107L353,114L357,116L362,118L364,120L376,121L380,120L380,120L378,117L382,111L385,103L385,98L384,88L380,80L380,77L380,70L377,66L369,66L368,66L369,70L372,70L371,73L368,71L362,71L360,69L366,68L367,67L357,64L354,64L350,66L348,68L345,67L344,67Z " data-fips="HA10" data-fips-="" data-iso3="HTI" data-name="Nord-Est"/><path d="M283,47L281,51L277,54L271,53L270,55L270,55L272,58L274,60L275,63L277,63L280,65L279,69L280,71L283,72L287,82L293,88L298,90L301,89L301,86L304,86L306,84L312,85L312,93L317,97L322,100L324,104L323,108L324,111L326,115L327,118L331,119L334,123L337,123L345,118L353,114L351,107L345,101L341,100L342,98L342,95L340,92L337,85L337,79L340,77L343,74L344,67L344,66L342,65L333,62L329,63L325,62L326,59L324,57L320,61L318,61L314,60L314,64L313,65L309,62L311,62L305,57L305,55L303,55L294,52L292,53L289,52L286,50L283,47Z " data-fips="HA09" data-fips-="" data-iso3="HTI" data-name="Nord"/><path d="M254,194L256,191L255,182L251,178L243,175L234,170L226,168L209,161L201,162L199,163L198,168L202,172L205,175L208,177L218,180L229,187L236,188L247,190L251,191L252,194L254,194Z M270,164L272,165L278,170L284,180L290,185L293,185L300,192L306,192L313,197L311,201L311,213L310,215L307,215L302,211L301,213L281,211L277,212L274,216L270,224L267,227L262,228L254,226L252,226L245,227L245,225L235,223L227,224L227,227L226,230L226,234L229,234L231,236L232,239L234,241L235,244L237,246L246,245L247,247L250,249L253,246L261,248L265,242L269,243L274,241L284,237L290,233L294,231L298,231L304,234L307,234L310,237L320,238L330,237L351,241L361,241L369,242L375,245L385,243L387,241L383,239L377,236L369,229L362,227L362,224L363,222L362,219L352,208L350,206L352,204L357,203L366,205L370,203L376,195L376,195L371,192L358,188L348,189L339,193L330,190L323,183L319,180L315,179L311,177L308,173L305,170L302,168L296,165L294,161L279,160L271,160L268,163L270,164Z " data-fips="HA11" data-fips-="" data-iso3="HTI" data-name="Ouest"/><path d="M234,241L233,245L232,249L232,251L232,254L232,256L233,258L233,259L235,259L247,264L250,263L257,263L260,261L263,262L263,259L266,260L279,258L286,260L287,258L286,254L291,255L300,253L317,253L330,253L339,251L344,251L351,254L361,258L365,260L369,263L377,274L379,275L381,269L381,264L379,255L380,253L385,244L385,243L375,245L369,242L361,241L351,241L330,237L320,238L310,237L307,234L304,234L298,231L294,231L290,233L284,237L274,241L269,243L265,242L261,248L253,246L250,249L247,247L246,245L237,246L235,244L234,241Z " data-fips="HA13" data-fips-="" data-iso3="HTI" data-name="Sud-Est"/></g></svg>