<?xml version="1.0" encoding="UTF-8"?><!DOCTYPE svg  PUBLIC '-//W3C//DTD SVG 1.1//EN'  'http://www.w3.org/Graphics/SVG/1.1/DTD/svg11.dtd'><svg enable_background="new 0 0 450 301" height="301px" style="stroke-linejoin: round; stroke:#000; fill:#f6f3f0;" version="1.1" viewBox="0 0 450 301" width="450px" xmlns="http://www.w3.org/2000/svg" xmlns:xlink="http://www.w3.org/1999/xlink"><defs><style type="text/css"><![CDATA[path { fill-rule: evenodd; }
#context path { fill: #eee; stroke: #bbb; } ]]></style></defs><metadata><views><view h="301.0" padding="0.06" w="450"><proj id="laea" lat0="47.0753568586" lon0="16.8381229565"/><bbox h="42.51" w="62.88" x="990.35" y="977.19"/><llbbox lat0="-90" lat1="90" lon0="-180" lon1="180"/></view></views></metadata><g id="context"><path d="M28,179L37,169L42,167L47,167L51,156L48,154L47,148L50,143L48,135L49,132L53,132L59,128L62,120L60,114L48,110L47,108L55,102L61,103L66,107L69,108L85,106L83,94L83,91L86,89L86,83L90,80L86,77L85,73L80,63L73,47L73,42L78,32L78,29L78,28L77,26L74,19L65,16L58,12L51,11L45,16L36,16L27,14L14,5L7,5L0,2L0,193L8,192L19,195L21,184L24,180L28,179Z " data-iso="AUT"/><path d="M78,28L80,21L85,12L89,7L92,5L98,7L109,8L117,7L124,3L127,0L0,0L0,2L7,5L14,5L27,14L36,16L45,16L51,11L58,12L65,16L74,19L77,26L78,28Z " data-iso="CZE"/><path d="M197,258L196,258L192,260L186,261L182,261L176,269L169,273L164,274L140,273L130,272L124,269L120,265L118,261L113,259L106,258L100,254L96,247L90,242L83,238L78,232L74,224L66,218L56,212L52,210L47,208L41,207L36,212L37,220L35,221L28,220L26,221L22,227L17,229L0,236L0,248L1,249L2,255L1,262L0,265L0,299L204,299L207,294L207,293L200,290L198,287L200,282L196,272L193,267L196,264L196,260L197,258Z " data-iso="HRV"/><path d="M375,36L356,42L353,41L350,39L346,32L343,29L337,24L333,25L322,29L315,30L303,27L290,27L282,30L281,32L274,50L262,57L252,64L249,65L244,63L238,60L233,58L229,59L226,63L224,68L212,72L192,74L185,79L183,84L183,88L185,92L182,97L148,100L126,100L118,96L109,90L100,81L97,80L91,79L90,80L86,83L86,89L83,91L83,94L85,106L69,108L66,107L61,103L55,102L47,108L48,110L60,114L62,120L59,128L53,132L49,132L48,135L50,143L47,148L48,154L51,156L47,167L42,167L37,169L28,179L39,179L42,191L45,198L52,208L52,210L56,212L66,218L74,224L78,232L83,238L90,242L96,247L100,254L106,258L113,259L118,261L120,265L124,269L130,272L140,273L164,274L169,273L176,269L182,261L186,261L192,260L196,258L197,258L198,258L203,255L207,250L211,253L215,253L229,244L234,238L239,236L245,237L252,238L258,236L272,237L275,239L277,240L279,238L292,234L299,237L302,236L307,227L312,225L324,226L330,220L332,213L336,211L335,204L339,193L349,184L347,180L348,177L353,169L357,161L357,154L364,146L368,131L375,123L374,113L376,110L380,107L384,102L387,96L390,93L393,92L397,89L401,88L405,89L408,88L412,85L421,73L422,71L421,70L421,64L419,62L415,58L411,58L404,56L400,50L394,47L390,47L388,44L385,38L384,34L382,34L377,35L375,36Z " data-iso="HUN"/><path d="M422,71L421,73L412,85L408,88L405,89L401,88L397,89L393,92L390,93L387,96L384,102L380,107L376,110L374,113L375,123L368,131L364,146L357,154L357,161L353,169L348,177L347,180L349,184L339,193L335,204L336,211L332,213L330,220L324,226L312,225L307,227L302,236L299,237L292,234L279,238L277,240L280,245L284,251L298,260L303,267L306,271L310,270L311,277L310,283L312,288L311,293L319,299L450,299L450,63L440,58L437,58L432,65L424,70L422,71Z " data-iso="ROU"/><path d="M277,240L275,239L272,237L258,236L252,238L245,237L239,236L234,238L229,244L215,253L211,253L207,250L203,255L198,258L197,258L196,260L196,264L193,267L196,272L200,282L198,287L200,290L207,293L207,294L204,299L319,299L311,293L312,288L310,283L311,277L310,270L306,271L303,267L298,260L284,251L280,245L277,240Z " data-iso="SRB"/><path d="M78,28L78,29L78,32L73,42L73,47L80,63L85,73L86,77L90,80L91,79L97,80L100,81L109,90L118,96L126,100L148,100L182,97L185,92L183,88L183,84L185,79L192,74L212,72L224,68L226,63L229,59L233,58L238,60L244,63L249,65L252,64L262,57L274,50L281,32L282,30L290,27L303,27L315,30L322,29L333,25L337,24L343,29L346,32L350,39L353,41L356,42L375,36L377,35L376,20L384,10L386,4L387,0L127,0L124,3L117,7L109,8L98,7L92,5L89,7L85,12L80,21L78,28Z " data-iso="SVK"/><path d="M52,210L52,208L45,198L42,191L39,179L28,179L24,180L21,184L19,195L8,192L0,193L0,236L17,229L22,227L26,221L28,220L35,221L37,220L36,212L41,207L47,208L52,210Z M0,265L1,262L2,255L1,249L0,248L0,265Z " data-iso="SVN"/><path d="M377,35L382,34L384,34L385,38L388,44L390,47L394,47L400,50L404,56L411,58L415,58L419,62L421,64L421,70L422,71L424,70L432,65L437,58L440,58L450,63L450,0L387,0L386,4L384,10L376,20L377,35Z " data-iso="UKR"/></g><g fill="red" fill-opacity="0.35" id="regions"><path d="M57,130L51,133L50,132L48,132L47,137L50,143L46,149L48,151L49,155L52,156L49,160L51,163L48,164L51,166L41,167L37,169L28,178L30,179L38,179L42,181L40,186L41,189L44,193L44,193L47,189L46,185L49,185L52,184L53,182L56,179L58,174L61,173L67,172L71,171L72,170L79,169L81,167L82,164L85,165L87,163L94,161L93,152L93,145L95,140L99,138L96,136L93,132L92,130L90,129L85,132L84,128L78,131L73,130L72,129L67,132L66,132L64,131L61,130L59,128L57,130Z " data-fips="HU22" data-fips-="" data-iso3="HUN" data-name="Vas"/><path d="M147,221L146,222L145,225L138,226L132,234L130,235L125,236L123,238L123,244L122,246L119,248L120,253L120,255L120,258L124,263L124,266L121,266L121,267L130,270L133,273L141,271L147,273L160,275L164,274L166,275L168,274L170,272L174,271L177,268L180,262L181,261L186,261L188,262L191,260L192,260L190,259L193,250L193,248L190,244L189,244L186,243L183,241L176,232L174,233L171,230L166,233L165,226L164,223L159,217L152,218L149,221L147,221Z " data-fips="HU02" data-fips-="" data-iso3="HUN" data-name="Baranya"/><path d="M59,128L61,130L64,131L66,132L67,132L72,129L73,130L78,131L84,128L85,132L90,129L92,130L93,132L95,132L103,129L107,130L112,127L115,128L116,127L119,128L121,126L124,125L126,126L129,125L129,124L131,125L133,127L133,125L136,119L134,117L135,113L134,112L133,101L129,102L124,100L121,98L118,96L109,90L103,82L101,80L92,78L86,83L85,90L82,92L84,96L84,106L75,108L73,107L72,105L69,108L66,108L63,104L58,102L56,101L53,103L54,104L50,108L48,110L51,111L52,111L56,113L58,112L61,116L61,118L63,120L63,122L60,128L59,128Z " data-fips="HU09" data-fips-="" data-iso3="HUN" data-name="Gyor-Moson-Sopron"/><path d="M154,184L153,182L153,177L152,174L151,170L148,169L145,169L139,172L134,176L131,177L121,183L109,189L106,189L103,190L99,190L97,192L95,196L95,207L92,215L84,217L86,222L85,224L78,228L76,226L74,227L75,228L83,238L85,240L96,247L98,253L102,257L102,257L112,258L117,259L121,266L121,266L124,266L124,263L120,258L120,255L120,253L119,248L122,246L123,244L123,238L125,236L130,235L132,234L138,226L145,225L146,222L147,221L145,213L144,212L143,209L144,204L146,201L147,194L151,186L154,184Z " data-fips="HU17" data-fips-="" data-iso3="HUN" data-name="Somogy"/><path d="M131,125L129,124L129,125L126,126L124,125L121,126L119,128L116,127L115,128L112,127L107,130L103,129L95,132L93,132L96,136L99,138L95,140L93,145L93,152L94,161L87,163L88,164L89,169L90,189L89,195L91,197L95,196L97,192L99,190L103,190L106,189L109,189L121,183L131,177L134,176L139,172L145,169L148,169L151,170L153,167L154,163L153,160L154,155L151,152L149,147L146,144L146,140L148,139L146,135L139,137L137,133L133,132L133,130L133,127L131,125Z " data-fips="HU23" data-fips-="" data-iso3="HUN" data-name="Veszprm"/><path d="M87,163L85,165L82,164L81,167L79,169L72,170L71,171L67,172L61,173L58,174L56,179L53,182L52,184L49,185L46,185L47,189L44,193L44,193L45,196L44,197L50,205L61,213L64,218L74,224L74,225L74,227L76,226L78,228L85,224L86,222L84,217L92,215L95,207L95,196L91,197L89,195L90,189L89,169L88,164L87,163Z " data-fips="HU24" data-fips-="" data-iso3="HUN" data-name="Zala"/><path d="M210,117L203,112L201,113L194,116L196,130L196,133L202,132L207,134L213,130L216,126L218,122L210,117Z " data-fips="HU05" data-fips-="" data-iso3="HUN" data-name="Budapest"/><path d="M198,162L198,163L198,171L198,172L196,177L196,179L196,180L198,183L201,191L198,195L194,197L192,199L193,201L196,211L195,219L196,223L196,231L192,233L193,235L192,238L189,239L190,243L189,244L190,244L193,248L193,250L190,259L192,260L192,260L196,258L201,259L202,255L204,255L207,250L211,253L218,253L219,250L229,244L232,241L232,238L233,237L241,236L243,236L244,237L241,229L241,220L243,219L247,219L253,216L254,212L253,208L250,206L250,202L252,201L257,201L259,199L260,189L258,187L260,183L263,180L262,180L259,178L260,176L263,173L265,173L264,169L268,168L266,168L266,166L268,165L265,162L263,161L260,163L258,166L254,165L250,168L245,168L241,166L237,162L233,156L231,154L227,154L220,162L219,163L218,161L219,156L219,154L217,152L215,152L209,155L204,158L199,159L198,162Z " data-fips="HU01" data-fips-="" data-iso3="HUN" data-name="Bcs-Kiskun"/><path d="M195,159L193,156L192,152L193,147L194,145L194,140L191,139L187,134L186,130L185,125L182,122L180,117L170,118L168,119L167,122L163,125L160,127L161,130L158,131L152,126L147,128L146,134L146,135L148,139L146,140L146,144L149,147L151,152L154,155L153,160L154,163L153,167L151,170L152,174L153,177L153,182L154,184L157,184L167,188L170,188L174,185L178,191L180,192L185,189L190,181L193,179L196,179L196,177L198,172L198,171L198,163L198,162L195,159Z " data-fips="HU08" data-fips-="" data-iso3="HUN" data-name="Fejr"/><path d="M181,115L183,111L185,110L184,108L190,108L189,103L194,102L193,101L191,95L187,93L185,94L180,98L172,97L160,99L155,101L153,101L146,100L133,101L134,112L135,113L134,117L136,119L133,125L133,127L133,130L133,132L137,133L139,137L146,135L146,134L147,128L152,126L158,131L161,130L160,127L163,125L167,122L168,119L170,118L180,117L181,115Z " data-fips="HU12" data-fips-="" data-iso3="HUN" data-name="Komrom-Esztergom"/><path d="M188,75L184,80L183,90L187,93L187,93L191,95L193,101L194,102L189,103L190,108L184,108L185,110L183,111L181,115L180,117L182,122L185,125L186,130L187,134L191,139L194,140L194,145L193,147L192,152L193,156L195,159L198,162L199,159L204,158L209,155L215,152L217,152L219,154L219,156L218,161L219,163L220,162L227,154L231,154L233,156L237,162L241,166L245,168L250,168L254,165L258,166L260,163L263,161L265,162L268,165L271,162L267,161L264,158L262,154L262,150L263,146L261,143L258,140L258,135L243,121L243,118L240,118L238,117L237,115L238,112L237,111L237,110L233,104L233,102L232,100L228,101L225,103L224,97L222,93L220,92L207,90L202,90L195,86L194,82L196,81L195,77L193,74L188,75Z M196,130L194,116L201,113L203,112L210,117L218,122L216,126L213,130L207,134L202,132L196,133L196,130Z " data-fips="HU16" data-fips-="" data-iso3="HUN" data-name="Pest"/><path d="M190,243L189,239L192,238L193,235L192,233L196,231L196,223L195,219L196,211L193,201L192,199L194,197L198,195L201,191L198,183L196,180L196,179L193,179L190,181L185,189L180,192L178,191L174,185L170,188L167,188L157,184L154,184L151,186L147,194L146,201L144,204L143,209L144,212L145,213L147,221L149,221L152,218L159,217L164,223L165,226L166,233L171,230L174,233L176,232L183,241L186,243L189,244L190,243Z " data-fips="HU21" data-fips-="" data-iso3="HUN" data-name="Tolna"/><path d="M193,74L195,77L196,81L194,82L195,86L202,90L207,90L220,92L222,93L224,97L225,103L228,101L232,100L237,93L239,93L242,87L244,86L245,87L249,83L250,84L253,81L253,79L257,75L256,73L254,69L254,68L260,64L260,64L259,63L258,62L257,61L257,61L249,66L244,63L242,64L242,61L241,60L236,60L233,58L227,59L226,61L225,67L222,70L214,70L196,73L193,74Z " data-fips="HU14" data-fips-="" data-iso3="HUN" data-name="Ngrd"/><path d="M257,61L258,62L259,63L260,64L262,63L264,66L270,68L271,66L274,66L276,67L279,62L283,66L283,74L280,78L282,82L283,87L287,93L290,96L292,101L298,102L300,103L302,103L303,102L304,102L309,101L311,98L313,93L316,90L317,86L317,83L320,78L320,77L320,75L321,73L328,69L335,70L338,68L339,65L338,61L339,57L348,56L352,57L361,51L365,50L368,47L370,44L374,43L378,35L378,35L374,37L370,37L365,38L357,42L352,41L347,34L346,30L341,28L340,26L336,24L328,26L326,29L324,28L317,31L313,29L308,29L305,27L302,27L300,25L286,28L283,29L281,30L277,40L274,49L271,53L270,54L267,53L265,54L261,56L259,59L257,61Z " data-fips="HU04" data-fips-="" data-iso3="HUN" data-name="Borsod-Abaj-Zempln"/><path d="M378,35L374,43L370,44L368,47L365,50L361,51L352,57L348,56L339,57L338,61L339,65L338,68L335,70L328,69L321,73L320,75L320,77L324,77L329,81L332,80L341,78L343,77L345,77L346,79L346,89L351,93L352,94L364,98L367,93L369,93L373,95L375,97L375,100L376,101L379,98L380,99L381,104L383,106L383,105L385,101L385,98L389,93L392,92L399,87L403,89L410,87L414,83L417,77L419,76L420,70L420,69L421,64L420,63L417,59L413,57L411,59L404,57L402,53L398,47L396,48L390,48L387,44L384,37L385,34L382,33L378,35L378,35Z " data-fips="HU18" data-fips-="" data-iso3="HUN" data-name="Szabolcs-Szatmr-Bereg"/><path d="M317,140L315,141L314,144L311,147L307,149L303,154L302,157L300,160L301,165L301,168L298,170L292,169L290,172L286,172L284,174L284,176L285,179L290,181L293,181L295,183L295,189L294,193L295,199L298,202L296,207L296,213L298,213L297,215L303,214L305,215L309,225L309,225L312,224L314,225L317,225L323,227L328,223L329,223L331,215L332,212L336,211L337,208L335,205L335,203L337,199L337,195L339,193L342,192L344,191L345,188L348,186L349,183L347,181L349,176L351,173L353,172L358,159L356,157L355,157L351,158L348,163L345,163L341,164L338,163L338,161L335,158L335,149L333,147L329,145L324,144L317,140Z " data-fips="HU03" data-fips-="" data-iso3="HUN" data-name="Bks"/><path d="M285,179L283,180L279,183L277,182L274,180L268,183L263,180L260,183L258,187L260,189L259,199L257,201L252,201L250,202L250,206L253,208L254,212L253,216L247,219L243,219L241,220L241,229L244,237L248,239L249,239L257,236L261,236L264,237L272,237L277,240L279,237L292,234L298,237L304,234L306,232L306,228L308,225L309,225L305,215L303,214L297,215L298,213L296,213L296,207L298,202L295,199L294,193L295,189L295,183L293,181L290,181L285,179Z " data-fips="HU06" data-fips-="" data-iso3="HUN" data-name="Csongrd"/><path d="M320,77L320,78L317,83L317,86L316,90L313,93L311,98L309,101L304,102L306,106L312,110L314,111L315,115L316,122L318,130L318,136L317,140L324,144L329,145L333,147L335,149L335,158L338,161L338,163L341,164L345,163L348,163L351,158L355,157L355,156L363,146L366,136L368,131L371,126L375,123L374,114L376,110L380,107L382,106L383,106L381,104L380,99L379,98L376,101L375,100L375,97L373,95L369,93L367,93L364,98L352,94L351,93L346,89L346,79L345,77L343,77L341,78L332,80L329,81L324,77L320,77Z " data-fips="HU07" data-fips-="HU10" data-iso3="HUN" data-name="Hajd-Bihar"/><path d="M300,103L298,102L292,101L290,96L287,93L283,87L282,82L280,78L283,74L283,66L279,62L276,67L274,66L271,66L270,68L264,66L262,63L260,64L260,64L254,68L254,69L256,73L257,75L253,79L253,81L250,84L249,83L245,87L244,86L242,87L239,93L237,93L232,100L233,102L233,104L237,110L237,111L238,112L241,111L244,110L246,111L249,107L254,105L257,106L258,113L261,115L263,112L268,110L271,114L273,115L276,123L279,125L286,122L287,119L297,111L298,107L301,103L302,103L300,103Z " data-fips="HU11" data-fips-="" data-iso3="HUN" data-name="Heves"/><path d="M318,136L318,130L316,122L315,115L314,111L312,110L306,106L304,102L303,102L302,103L301,103L298,107L297,111L287,119L286,122L279,125L276,123L273,115L271,114L268,110L263,112L261,115L258,113L257,106L254,105L249,107L246,111L244,110L241,111L238,112L237,115L238,117L240,118L243,118L243,121L258,135L258,140L261,143L263,146L262,150L262,154L264,158L267,161L271,162L268,165L266,166L266,168L268,168L264,169L265,173L263,173L260,176L259,178L262,180L263,180L268,183L274,180L277,182L279,183L283,180L285,179L284,176L284,174L286,172L290,172L292,169L298,170L301,168L301,165L300,160L302,157L303,154L307,149L311,147L314,144L315,141L317,140L318,136Z " data-fips="HU20" data-fips-="" data-iso3="HUN" data-name="Jsz-Nagykun-Szolnok"/></g></svg>