<?xml version="1.0" encoding="UTF-8"?><!DOCTYPE svg  PUBLIC '-//W3C//DTD SVG 1.1//EN'  'http://www.w3.org/Graphics/SVG/1.1/DTD/svg11.dtd'><svg enable_background="new 0 0 450 301" height="301px" style="stroke-linejoin: round; stroke:#000; fill:#f6f3f0;" version="1.1" viewBox="0 0 450 301" width="450px" xmlns="http://www.w3.org/2000/svg" xmlns:xlink="http://www.w3.org/1999/xlink"><defs><style type="text/css"><![CDATA[path { fill-rule: evenodd; }
#context path { fill: #eee; stroke: #bbb; } ]]></style></defs><metadata><views><view h="301.0" padding="0.06" w="450"><proj id="laea" lat0="2.27371165602" lon0="99.2032646745"/><bbox h="275.32" w="622.25" x="915.2" y="921.64"/><llbbox lat0="-90" lat1="90" lon0="-180" lon1="180"/></view></views></metadata><g id="context"><path d="M403,280L402,279L400,281L403,280Z M384,253L381,256L385,258L384,253Z M333,233L332,229L329,234L333,233Z M335,230L335,233L337,235L340,233L341,229L335,230Z M450,264L446,259L441,260L440,244L438,240L439,237L435,225L431,227L429,237L426,241L427,245L425,246L425,249L423,254L423,264L419,276L417,281L413,288L406,291L400,287L399,284L393,281L389,276L373,264L372,262L376,256L378,248L383,246L383,244L387,240L382,239L380,240L377,238L373,238L369,236L367,237L356,233L354,230L346,228L347,231L350,231L352,237L349,238L336,239L329,246L330,247L322,257L324,264L312,260L308,255L305,253L300,251L293,257L290,255L290,258L286,263L279,266L280,272L274,274L272,273L271,277L273,279L270,284L266,275L264,278L258,282L259,288L259,290L255,293L251,299L450,299L450,264Z " data-iso="AUS"/><path d="M202,82L202,87L204,87L202,82Z M202,82L201,81L200,82L194,85L193,85L198,90L200,87L199,84L202,82L202,82Z " data-iso="BRN"/><path d="M269,225L273,222L268,223L269,225Z M244,211L236,211L236,214L241,214L245,218L248,219L247,213L244,211Z M287,207L285,208L285,209L284,209L283,209L283,210L282,211L279,211L279,211L275,217L282,218L288,213L288,212L289,209L289,209L287,207L287,207Z M215,204L215,201L213,200L210,205L215,206L215,204Z M279,201L274,201L274,202L279,201Z M285,200L283,203L289,202L289,200L285,200Z M269,204L269,200L270,200L264,204L262,203L257,203L250,201L244,202L244,206L258,206L259,207L269,204Z M229,201L227,199L226,201L227,205L217,204L216,207L222,208L228,206L230,204L231,206L237,204L234,201L229,201Z M205,200L196,199L201,203L202,206L206,203L205,200Z M304,195L297,195L295,197L301,198L304,195Z M403,202L407,198L406,193L404,193L399,196L398,198L401,203L403,202Z M343,199L346,193L346,190L342,194L341,197L343,199Z M191,190L192,188L183,188L182,191L191,190Z M371,184L367,182L368,189L371,184Z M134,180L122,180L121,181L117,187L115,187L126,190L125,192L127,193L143,196L148,196L156,197L162,200L181,202L186,201L197,205L196,202L196,196L193,195L184,195L182,194L180,189L171,186L167,186L165,184L162,188L145,187L144,185L136,182L134,180Z M373,177L371,175L368,180L370,183L373,177Z M269,174L270,168L266,170L268,175L269,174Z M273,167L271,168L269,177L270,177L274,174L273,167Z M213,161L212,156L211,162L213,161Z M306,153L298,154L299,158L306,160L309,158L306,153Z M331,151L326,152L325,151L314,155L315,157L318,155L319,156L324,155L329,156L331,155L340,160L340,157L336,152L331,151Z M142,154L138,149L136,153L137,155L140,156L142,154Z M299,148L298,143L297,144L299,148Z M336,140L333,141L332,143L336,140Z M289,141L287,140L285,144L292,143L289,141Z M380,139L386,142L392,141L380,139Z M122,142L121,140L119,142L118,140L114,145L120,146L122,152L127,154L129,150L125,149L122,142Z M317,140L312,137L311,138L317,140Z M61,143L58,135L56,138L61,143Z M342,137L341,133L339,133L342,137Z M379,130L382,132L383,135L387,134L383,131L379,130Z M423,210L424,188L425,179L426,148L424,148L413,144L399,137L394,141L391,144L387,145L383,152L379,156L376,155L374,151L371,151L368,145L369,136L368,133L357,128L354,128L349,131L344,132L344,138L350,139L353,145L358,145L366,144L365,149L359,147L356,150L353,149L350,150L352,152L357,161L360,162L365,154L364,157L366,159L373,161L373,163L377,166L384,166L389,169L394,170L401,175L401,177L404,183L405,189L409,191L407,193L408,195L406,201L415,200L416,199L423,209L423,210Z M312,128L310,130L311,132L312,128Z M340,125L337,126L338,128L341,128L340,125Z M95,120L91,117L90,119L95,120Z M46,114L42,114L49,122L50,119L46,114Z M289,116L292,112L288,111L283,116L280,118L264,116L255,114L251,118L249,117L246,120L244,127L244,133L242,134L238,148L236,158L242,162L242,166L240,174L243,178L249,175L248,173L249,156L248,153L252,150L255,150L254,158L257,161L262,170L264,167L271,166L269,161L266,158L266,152L258,142L260,143L266,139L271,134L276,134L271,132L261,134L260,133L256,138L252,138L251,135L248,134L246,128L247,124L251,121L255,122L271,121L275,123L285,121L289,116Z M84,108L81,110L83,112L84,108Z M313,117L316,109L315,105L312,108L312,111L312,121L313,122L313,127L319,133L316,129L315,122L316,121L323,123L318,118L322,115L322,112L317,112L315,117L313,117Z M319,106L321,102L319,101L317,104L319,106Z M37,106L36,104L30,102L37,106Z M225,89L226,90L227,89L227,89L227,88L226,88L225,88L225,89Z M142,94L143,91L140,91L142,94Z M152,109L148,122L150,127L150,130L151,134L156,136L157,138L157,143L160,151L166,154L173,152L174,158L182,156L184,153L193,157L194,156L197,158L198,163L210,159L213,154L216,147L214,142L219,137L224,131L224,129L224,123L228,118L233,119L236,116L226,108L228,105L224,98L224,93L224,88L224,88L215,87L207,88L207,91L206,97L203,103L200,107L200,109L198,113L192,113L190,115L184,112L177,114L174,117L167,117L163,119L158,116L154,112L154,108L152,109Z M37,80L26,77L26,80L29,85L37,93L41,94L45,100L47,101L49,107L56,110L58,114L61,123L65,126L71,134L76,144L76,146L85,157L94,167L103,172L105,175L110,179L110,176L112,178L116,176L120,177L121,167L120,164L122,155L118,149L116,148L112,148L109,143L107,136L102,135L99,132L101,124L99,122L96,122L94,120L90,119L86,114L78,107L76,109L70,103L68,100L55,91L53,90L50,83L46,80L37,80Z " data-iso="IDN"/><path d="M14,66L12,64L14,62L14,66Z M5,24L3,22L7,6L7,15L5,20L5,24Z M-88,-147L-83,-144L-88,-140L-92,-133L-83,-128L-78,-123L-67,-118L-62,-119L-57,-117L-40,-109L-37,-109L-29,-113L-29,-117L-28,-121L-24,-123L-23,-122L-23,-117L-21,-112L-17,-111L-11,-112L-8,-111L-0,-111L4,-115L-0,-118L8,-121L8,-122L13,-127L19,-128L25,-133L30,-130L36,-134L38,-132L39,-125L46,-123L45,-120L43,-118L36,-114L28,-109L27,-102L24,-99L24,-96L18,-86L13,-87L13,-81L10,-71L6,-69L3,-84L1,-82L-1,-78L-4,-79L-5,-81L-3,-88L1,-88L4,-94L6,-95L0,-97L-12,-97L-16,-99L-17,-106L-18,-104L-22,-107L-27,-109L-30,-104L-24,-98L-27,-98L-31,-94L-26,-87L-27,-84L-24,-80L-25,-79L-24,-66L-27,-66L-28,-68L-29,-66L-33,-68L-40,-66L-43,-63L-48,-53L-54,-50L-55,-52L-57,-48L-61,-45L-67,-38L-71,-36L-83,-28L-85,-22L-92,-21L-97,-17L-101,-16L-104,-10L-104,11L-107,18L-108,21L-108,33L-112,33L-116,39L-123,45L-125,50L-127,51L-134,49L-139,40L-139,35L-145,19L-149,11L-153,-6L-155,-10L-156,-17L-159,-21L-160,-25L-160,-35L-161,-46L-160,-48L-162,-56L-159,-65L-159,-72L-161,-73L-160,-77L-162,-78L-165,-74L-163,-71L-177,-65L-187,-77L-186,-80L-179,-82L-175,-86L-182,-84L-186,-85L-189,-87L-193,-95L-190,-95L-187,-98L-181,-97L-179,-96L-173,-98L-173,-97L-169,-98L-169,-100L-170,-109L-173,-110L-178,-120L-171,-129L-160,-128L-156,-131L-137,-148L-136,-150L-131,-155L-131,-160L-126,-167L-132,-174L-130,-181L-131,-181L-127,-187L-117,-184L-106,-188L-100,-192L-97,-184L-95,-183L-95,-175L-93,-169L-93,-165L-96,-164L-97,-166L-99,-163L-88,-147Z " data-iso="IND"/><path d="M94,22L96,29L100,28L101,33L106,33L107,34L116,29L122,28L120,26L121,22L124,22L130,18L134,13L132,0L121,0L121,1L120,2L118,1L114,0L114,0L94,0L90,6L88,6L90,14L92,16L94,22L94,22Z " data-iso="KHM"/><path d="M121,1L120,2L118,1L114,0L114,-0L116,-7L115,-16L112,-17L110,-20L110,-27L102,-36L97,-37L94,-34L90,-32L86,-35L78,-29L78,-35L79,-42L76,-48L72,-48L73,-52L70,-57L78,-65L81,-62L83,-62L83,-73L87,-70L93,-66L92,-62L95,-59L105,-58L105,-55L110,-51L107,-48L103,-47L101,-45L112,-40L112,-37L127,-21L132,-16L134,-9L133,-5L130,-2L120,-1L121,1Z " data-iso="LAO"/><path d="M57,36L58,31L65,22L63,15L61,13L61,7L57,0L51,0L52,5L55,7L57,15L57,22L58,22L55,32L57,36L57,36Z " data-iso="MMR"/><path d="M226,88L225,88L225,88L225,88L225,88L226,88L227,88L226,88Z M70,70L72,75L75,92L80,98L80,100L88,107L98,113L99,115L104,114L106,114L106,111L102,104L100,102L98,94L99,88L97,80L91,75L89,72L87,71L83,75L78,77L77,75L78,72L69,69L70,70Z M204,87L202,87L202,82L199,84L200,87L198,90L193,85L193,85L192,88L184,98L173,101L168,105L169,107L167,113L168,114L155,110L154,108L154,112L158,116L163,119L167,117L174,117L177,114L184,112L190,115L192,113L198,113L200,109L200,107L203,103L206,97L207,91L207,88L215,87L224,88L224,88L233,86L229,82L230,81L239,77L236,77L228,71L224,72L225,69L221,66L221,64L219,65L217,63L211,71L209,75L207,76L206,80L205,82L204,87Z " data-iso="MYS"/><path d="M263,67L263,64L261,65L263,67Z M296,40L294,38L290,37L291,43L286,43L285,46L283,47L280,51L278,51L277,47L271,48L270,51L264,53L261,60L263,63L267,55L269,57L271,55L274,58L275,54L280,56L279,62L283,69L292,74L294,70L294,68L291,64L295,58L298,63L299,63L301,59L299,47L297,46L298,43L296,40Z M283,36L281,33L277,36L279,38L283,36Z M271,43L272,40L271,38L273,29L269,26L268,34L264,37L271,43Z M273,39L278,31L277,23L273,35L273,39Z M221,50L227,46L234,36L236,35L237,30L235,32L227,42L225,43L221,47L221,50Z M282,22L281,26L283,25L285,32L287,34L288,29L286,27L286,24L282,22Z M264,20L260,19L260,30L267,27L269,24L267,20L264,20Z M287,11L279,11L281,14L285,18L288,23L292,23L290,20L290,14L287,11Z M274,13L270,11L271,16L273,14L277,18L277,16L274,13Z M248,4L245,4L248,8L252,15L255,11L255,7L252,4L248,4Z M269,0L265,0L269,3L270,6L273,8L276,8L276,11L277,7L274,0L269,0Z M258,0L264,6L263,0L258,0Z M249,0L252,2L254,0L249,0Z " data-iso="PHL"/><path d="M426,148L426,148L426,148L425,179L424,188L423,210L424,211L434,210L436,212L443,206L439,203L436,202L445,201L445,199L447,194L450,197L450,158L446,155L442,154L426,148L426,148Z " data-iso="PNG"/><path d="M56,39L53,52L53,54L57,53L63,61L66,63L67,67L69,69L78,72L77,75L78,77L83,75L87,71L84,69L81,65L77,66L73,63L72,60L68,50L68,46L66,44L62,45L61,35L64,30L68,17L68,9L70,7L77,7L76,13L78,14L83,14L91,19L92,19L94,22L94,22L92,16L90,14L88,6L90,6L94,0L57,0L61,7L61,13L63,15L65,22L58,31L57,36L56,39Z " data-iso="THA"/><path d="M281,210L279,211L282,211L283,210L283,209L281,210Z M287,207L289,209L289,209L288,212L290,211L306,204L305,201L303,202L291,204L288,206L287,207Z " data-iso="TLS"/><path d="M108,35L113,37L112,39L111,48L114,50L117,46L123,43L120,37L126,40L122,35L126,39L126,33L132,34L139,31L139,29L147,25L150,11L149,8L148,0L132,0L134,13L130,18L124,22L121,22L120,26L122,28L116,29L107,34L108,35Z " data-iso="VNM"/></g><g fill="red" fill-opacity="0.35" id="regions"><path d="M45,113L43,114L45,118L49,122L50,117L45,113Z M53,89L51,89L50,92L49,94L50,96L52,107L52,108L57,111L58,114L61,125L61,125L68,122L66,119L70,120L70,120L70,120L69,114L72,113L71,104L71,104L69,104L66,99L57,93L53,89L53,89Z " data-fips="ID26" data-fips-="" data-iso3="IDN" data-name="Sumatera Utara" data-p="SU"/><path d="M92,118L91,117L91,120L95,120L94,119L92,118Z M96,118L93,118L96,119L96,118Z M90,118L89,114L88,116L90,118Z M84,109L81,110L82,112L84,109Z M71,104L72,113L69,114L70,120L70,120L70,120L70,121L76,125L75,129L84,136L84,136L85,136L88,135L92,136L93,134L99,134L99,134L98,130L101,127L102,124L98,122L94,124L91,125L94,120L90,120L88,115L81,112L79,108L76,107L73,108L71,104L71,104Z " data-fips="ID37" data-fips-="ID19" data-iso3="IDN" data-name="Riau" data-p="RI"/><path d="M273,117L277,121L276,123L276,123L278,123L284,122L292,112L291,110L288,111L286,114L282,117L273,117L273,117Z M305,88L305,83L304,83L305,88Z " data-fips="ID31" data-fips-="ID23" data-iso3="IDN" data-name="Sulawesi Utara" data-p="SA"/><path d="M293,142L293,143L300,142L298,142L293,142Z M286,140L284,144L292,142L286,140Z M314,138L311,141L316,141L317,139L314,138Z M313,129L310,128L310,130L314,133L315,133L312,130L313,129Z M323,123L322,120L317,118L321,115L322,110L318,112L315,117L313,117L316,111L316,105L313,107L311,115L312,120L313,122L313,128L316,132L318,132L317,130L315,124L315,121L320,121L323,123Z M321,101L317,104L318,106L320,106L321,104L321,101Z " data-fips="ID29" data-fips-="ID16|ID15" data-iso3="IDN" data-name="Maluku Utara" data-p="MU"/><path d="M73,154L70,152L71,154L73,154Z M70,152L68,149L69,152L70,152Z M59,135L58,141L61,143L62,143L59,135Z M61,125L66,127L67,130L72,136L72,137L76,144L78,149L78,149L80,148L80,147L80,147L80,146L78,142L83,141L84,136L84,136L84,136L75,129L76,125L70,121L70,120L70,120L70,120L66,119L68,122L61,125L61,125Z " data-fips="ID24" data-fips-="" data-iso3="IDN" data-name="Sumatera Barat" data-p="SB"/><path d="M160,198L161,199L162,199L163,200L164,200L162,197L161,194L157,197L160,198Z " data-fips="ID10" data-fips-="" data-iso3="IDN" data-name="Yogyakarta" data-p="YO"/><path d="M329,197L328,198L329,199L329,197Z M303,195L297,195L296,198L299,198L304,196L303,195Z M346,191L345,191L341,197L343,198L344,197L346,191Z M370,184L368,182L368,185L366,187L368,188L370,184Z M371,175L369,178L369,181L371,184L373,182L371,175Z M318,158L315,158L315,160L318,158Z M306,154L304,153L298,156L300,158L308,159L309,157L306,154Z M329,150L325,152L325,151L317,152L314,154L315,157L316,154L324,155L328,157L335,158L338,156L335,152L329,150Z " data-fips="ID28" data-fips-="" data-iso3="IDN" data-name="Maluku" data-p="MA"/><path d="M215,205L216,201L212,200L210,205L208,205L213,207L215,205Z M227,199L227,203L230,204L227,205L223,202L220,202L217,203L219,208L228,206L231,204L231,206L236,204L235,201L233,202L233,201L229,201L227,199Z " data-fips="ID17" data-fips-="" data-iso3="IDN" data-name="Nusa Tenggara Barat" data-p="NB"/><path d="M270,171L267,169L266,175L268,174L270,171Z M274,168L272,166L271,167L268,176L270,177L273,169L274,168Z M255,152L254,155L256,160L260,164L259,168L264,169L264,167L269,166L271,166L265,158L266,155L266,155L264,154L261,153L260,153L259,153L259,153L255,152L255,152Z " data-fips="ID22" data-fips-="" data-iso3="IDN" data-name="Sulawesi Tenggara" data-p="SG"/><path d="M274,136L271,137L273,140L277,139L274,136Z M242,134L242,138L243,139L245,144L245,144L245,143L250,143L259,148L262,151L260,153L260,153L261,153L264,154L266,155L266,155L261,146L257,143L261,143L265,140L271,134L274,134L276,135L276,132L274,131L271,133L264,134L256,137L252,138L251,136L247,132L246,128L249,122L258,122L258,122L256,120L262,117L265,116L265,116L259,116L255,114L253,116L251,118L249,117L245,122L244,124L242,133L242,134Z " data-fips="ID21" data-fips-="" data-iso3="IDN" data-name="Sulawesi Tengah" data-p="ST"/><path d="M406,199L408,195L405,193L401,194L396,203L403,203L406,199Z M373,151L369,155L378,159L374,164L374,164L377,166L383,166L392,169L392,170L399,173L403,180L404,184L406,186L406,191L407,192L408,195L406,202L409,199L411,201L420,207L423,210L424,188L425,170L424,148L423,146L419,145L417,146L407,140L400,137L393,141L395,143L387,145L384,150L383,152L380,155L376,155L373,152L373,151Z M379,130L386,134L382,131L379,130Z " data-fips="ID36" data-fips-="ID09" data-iso3="IDN" data-name="Papua" data-p="PA"/><path d="M32,101L31,103L37,106L32,101Z M52,107L50,96L49,94L50,92L51,89L53,89L53,89L49,83L46,80L43,80L33,79L29,77L28,76L26,80L28,84L38,93L40,93L45,101L47,101L51,107L52,107Z " data-fips="ID01" data-fips-="" data-iso3="IDN" data-name="Aceh" data-p="AC"/><path d="M195,113L193,117L192,118L191,121L191,121L191,121L199,121L202,120L201,124L202,128L205,126L204,129L206,134L209,136L208,139L208,139L208,139L207,140L211,147L216,148L216,146L214,145L216,139L220,136L222,133L225,133L225,130L223,131L224,126L225,122L228,119L227,116L231,118L236,116L233,114L228,110L227,108L229,105L225,100L226,100L222,97L221,93L223,92L226,93L223,88L221,87L214,88L209,87L207,89L205,99L202,101L203,104L196,113L195,113Z " data-fips="ID14" data-fips-="" data-iso3="IDN" data-name="Kalimantan Timur" data-p="KI"/><path d="M147,188L145,187L143,183L137,182L131,180L131,181L131,181L130,183L130,183L129,183L129,183L129,184L126,184L126,184L125,189L126,189L126,193L136,194L138,195L143,196L146,195L146,195L145,191L147,188L147,188Z " data-fips="ID30" data-fips-="ID06" data-iso3="IDN" data-name="Jawa Barat" data-p="JB"/><path d="M147,188L145,191L146,195L146,195L148,196L157,197L157,197L161,194L162,197L164,200L164,200L165,200L165,200L169,197L168,196L171,191L172,187L172,187L167,187L166,184L161,189L153,188L147,188L147,188Z " data-fips="ID07" data-fips-="" data-iso3="IDN" data-name="Jawa Tengah" data-p="JT"/><path d="M80,147L80,147L80,148L78,149L78,150L81,153L88,160L89,162L100,171L101,171L101,171L101,170L102,170L102,170L102,170L100,166L99,166L96,163L93,162L95,159L92,157L90,154L87,152L87,152L87,152L84,150L82,147L81,147L80,147Z " data-fips="ID03" data-fips-="" data-iso3="IDN" data-name="Bengkulu" data-p="BE"/><path d="M125,189L126,184L126,184L129,184L129,183L128,183L128,182L128,181L128,181L128,181L123,180L117,187L121,188L125,189L125,189Z " data-fips="ID33" data-fips-="ID04" data-iso3="IDN" data-name="Banten" data-p="BT"/><path d="M129,181L129,181L128,181L128,181L128,181L128,182L128,183L129,183L129,183L130,183L130,183L131,181L129,181Z " data-fips="ID04" data-fips-="" data-iso3="IDN" data-name="Jakarta Raya" data-p="JK"/><path d="M154,135L153,136L152,138L155,137L154,135Z M166,152L168,151L167,146L167,140L173,135L176,133L185,131L188,128L189,124L191,122L191,121L191,121L192,118L193,117L195,113L195,113L192,113L188,115L179,112L177,114L176,116L171,118L168,117L162,119L154,112L154,109L152,109L151,111L149,113L149,116L148,116L147,119L150,125L151,127L150,130L151,132L151,134L153,134L157,137L158,138L159,153L164,153L166,152L166,152Z " data-fips="ID11" data-fips-="" data-iso3="IDN" data-name="Kalimantan Barat" data-p="KB"/><path d="M102,170L102,170L101,170L101,171L101,171L101,171L109,180L110,180L110,176L114,178L115,175L119,179L120,176L121,171L120,165L120,164L116,160L115,162L112,165L107,170L102,170L102,170Z " data-fips="ID15" data-fips-="" data-iso3="IDN" data-name="Lampung" data-p="LA"/><path d="M87,152L87,152L90,154L92,157L95,159L93,162L96,163L99,166L100,166L102,170L102,170L102,170L107,170L112,165L115,162L116,160L120,164L120,164L121,158L122,153L121,153L119,148L112,147L111,148L109,142L109,142L103,143L100,144L99,148L97,146L97,148L90,151L87,151L87,152Z " data-fips="ID32" data-fips-="ID25" data-iso3="IDN" data-name="Sumatera Selatan" data-p="SS"/><path d="M138,150L137,150L137,155L142,155L142,151L138,150Z M121,140L119,141L114,145L118,145L121,149L122,152L126,153L128,151L125,148L124,144L121,140Z " data-fips="ID35" data-fips-="ID25" data-iso3="IDN" data-name="Bangka-Belitung" data-p="BB"/><path d="M205,200L196,199L196,200L202,204L203,206L207,202L205,200Z " data-fips="ID02" data-fips-="" data-iso3="IDN" data-name="Bali" data-p="BA"/><path d="M192,188L182,188L181,191L192,190L192,188Z M172,187L171,191L168,196L169,197L165,200L166,200L172,201L175,201L180,202L183,201L186,201L197,205L195,201L196,196L193,195L189,196L183,195L182,193L179,188L176,188L172,187L172,187Z " data-fips="ID08" data-fips-="" data-iso3="IDN" data-name="Jawa Timur" data-p="JI"/><path d="M212,163L213,161L213,157L212,156L212,163Z M208,139L208,139L206,139L205,145L201,147L200,151L197,152L196,157L196,157L198,162L198,164L207,160L210,159L215,149L216,148L211,147L207,140L208,139L208,139Z " data-fips="ID12" data-fips-="" data-iso3="IDN" data-name="Kalimantan Selatan" data-p="KS"/><path d="M273,222L273,221L268,225L272,224L273,222Z M245,211L235,212L235,212L241,215L245,218L250,218L251,217L248,213L247,213L245,211Z M287,208L287,208L280,211L279,211L276,213L274,220L283,218L287,214L287,208Z M279,201L275,201L273,203L275,204L279,201Z M282,202L282,200L280,202L282,202Z M285,200L283,203L288,202L289,200L285,200Z M271,200L266,204L262,203L257,204L256,203L247,201L243,204L244,206L246,205L252,207L260,206L263,205L268,204L271,201L271,200Z " data-fips="ID18" data-fips-="" data-iso3="IDN" data-name="Nusa Tenggara Timur" data-p="NT"/><path d="M250,185L250,181L249,179L250,185Z M245,144L244,144L243,151L242,151L242,154L241,158L241,158L242,162L242,167L240,175L243,178L245,176L250,177L248,173L250,168L249,164L249,159L249,155L248,155L251,150L255,150L255,152L255,152L259,153L259,153L260,153L260,153L262,151L259,148L250,143L245,143L245,144Z " data-fips="ID38" data-fips-="ID20" data-iso3="IDN" data-name="Sulawesi Selatan" data-p="SN"/><path d="M245,144L243,139L242,138L242,134L242,134L240,139L240,141L238,147L235,151L235,154L237,158L241,158L241,158L242,154L242,151L243,151L244,144L245,144L245,144Z " data-fips="ID41" data-fips-="ID20" data-iso3="IDN" data-name="Sulawesi Barat" data-p="SR"/><path d="M142,90L139,91L141,94L143,93L142,90Z " data-fips="ID40" data-fips-="" data-iso3="IDN" data-name="Kepulauan Riau" data-p="KR"/><path d="M273,117L271,118L269,117L265,116L265,116L262,117L256,120L258,122L258,122L261,121L263,122L272,121L276,123L276,123L277,121L273,117L273,117Z " data-fips="ID34" data-fips-="ID23" data-iso3="IDN" data-name="Gorontalo" data-p="GO"/><path d="M109,142L108,136L102,136L99,134L99,134L93,134L92,136L88,135L85,136L84,136L84,136L83,141L78,142L80,146L80,147L81,147L82,147L84,150L87,152L87,152L87,151L90,151L97,148L97,146L99,148L100,144L103,143L109,142L109,142Z " data-fips="ID05" data-fips-="" data-iso3="IDN" data-name="Jambi" data-p="JA"/><path d="M208,139L209,136L206,134L204,129L205,126L202,128L201,124L202,120L199,121L191,121L191,121L191,122L189,124L188,128L185,131L176,133L173,135L167,140L167,146L168,151L166,152L166,153L164,154L166,154L172,153L174,159L177,156L181,157L187,156L189,155L196,157L196,157L197,152L200,151L201,147L205,145L206,139L208,139L208,139L208,139Z " data-fips="ID13" data-fips-="" data-iso3="IDN" data-name="Kalimantan Tengah" data-p="KT"/><path d="M336,140L331,142L334,144L337,143L336,140Z M374,164L378,159L369,155L373,151L373,150L373,148L371,148L371,151L368,140L369,138L368,132L367,131L360,129L352,128L349,130L344,132L344,135L341,138L348,139L350,140L350,143L352,145L356,146L366,146L362,148L360,147L356,151L353,149L350,151L353,152L356,155L356,158L362,160L364,153L366,152L364,156L367,160L370,160L374,164L374,164Z M340,125L337,125L336,127L341,128L338,125L344,128L343,126L340,125Z " data-fips="ID39" data-fips-="ID09" data-iso3="IDN" data-name="Irian Jaya Barat" data-p="PB"/></g></svg>