<?xml version="1.0" encoding="UTF-8"?><!DOCTYPE svg  PUBLIC '-//W3C//DTD SVG 1.1//EN'  'http://www.w3.org/Graphics/SVG/1.1/DTD/svg11.dtd'><svg enable_background="new 0 0 450 376" height="376px" style="stroke-linejoin: round; stroke:#000; fill:#f6f3f0;" version="1.1" viewBox="0 0 450 376" width="450px" xmlns="http://www.w3.org/2000/svg" xmlns:xlink="http://www.w3.org/1999/xlink"><defs><style type="text/css"><![CDATA[path { fill-rule: evenodd; }
#context path { fill: #eee; stroke: #bbb; } ]]></style></defs><metadata><views><view h="376.0" padding="0.06" w="450"><proj id="laea" lat0="30.7356565416" lon0="76.7701955882"/><bbox h="377.7" w="358.35" x="883.21" y="922.02"/><llbbox lat0="-90" lat1="90" lon0="-180" lon1="180"/></view></views></metadata><g id="context"><path d="M141,0L141,0L141,0L120,0L115,3L113,3L112,0L44,0L43,2L36,5L29,6L27,11L23,13L19,13L12,9L11,6L10,6L10,7L7,16L3,19L4,22L0,23L0,31L3,31L0,34L0,57L6,59L7,66L0,72L0,78L12,84L23,84L29,86L31,85L39,85L51,83L54,71L59,67L62,66L66,67L69,63L75,61L78,61L80,63L86,60L86,54L88,49L91,46L97,43L95,39L95,35L99,36L106,34L105,29L110,24L112,18L109,10L118,3L123,2L134,2L140,1L141,0Z " data-iso="AFG"/><path d="M326,172L324,168L325,173L326,172Z M322,173L322,169L318,165L320,171L319,174L322,173Z M303,176L306,180L307,178L307,173L308,179L314,174L314,177L316,177L319,172L317,166L318,164L316,158L318,158L319,161L323,167L325,167L328,163L337,183L341,187L341,187L339,180L343,181L342,173L342,172L342,171L338,161L336,152L332,152L331,160L329,161L326,160L324,155L326,148L331,146L334,137L336,136L332,134L314,136L307,135L307,132L304,125L302,128L297,125L293,125L291,123L287,130L293,135L295,134L297,138L292,139L292,141L289,142L288,145L294,149L295,149L296,153L295,157L297,160L297,161L300,162L299,164L302,176L303,176Z " data-iso="BGD"/><path d="M323,103L321,101L318,100L317,101L309,101L309,99L306,99L297,107L295,110L294,112L294,112L298,118L300,117L308,117L309,116L315,116L329,113L328,106L323,106L323,103L323,103L323,103Z " data-iso="BTN"/><path d="M141,0L142,0L149,2L155,6L156,13L158,15L163,17L163,17L164,18L168,19L170,19L173,19L173,19L174,19L174,19L176,19L176,22L179,30L182,31L185,33L184,41L187,47L187,47L187,47L188,49L188,50L188,55L188,55L188,55L185,57L183,54L181,59L183,61L184,66L193,74L195,74L208,82L208,83L209,84L211,84L212,81L219,81L224,85L229,89L231,89L236,94L240,93L241,93L243,97L253,103L259,104L263,108L263,106L267,107L269,105L277,108L284,106L285,106L285,106L290,103L293,104L294,112L294,112L295,110L297,107L306,99L309,99L309,101L317,101L318,100L321,101L323,103L323,103L324,103L331,101L334,99L334,98L339,90L346,87L353,80L354,81L359,82L367,75L370,78L373,87L382,88L383,88L383,88L391,87L392,89L396,93L398,93L401,105L402,113L398,118L397,118L392,133L394,134L395,140L400,136L407,135L407,140L409,145L416,149L415,155L416,159L424,158L424,161L428,164L433,163L436,159L438,161L438,161L438,161L440,165L446,164L445,163L442,148L446,148L447,149L447,148L450,143L450,143L450,0L141,0L141,0L141,0Z " data-iso="CHN"/><path d="M428,374L425,370L423,369L412,368L409,369L403,369L398,366L392,368L394,374L428,374Z " data-iso="IDN"/><path d="M375,354L372,352L373,349L375,354Z M354,311L352,309L354,307L354,311Z M356,299L354,297L355,289L356,275L358,280L358,286L356,293L356,299Z M183,63L183,62L184,66L185,71L185,70L190,73L193,74L195,74L196,75L196,75L208,82L208,83L208,83L202,89L198,99L202,103L206,103L211,106L214,109L218,111L221,111L225,113L227,113L234,116L240,115L248,116L272,125L276,125L287,118L285,112L286,106L285,106L285,106L290,103L293,104L294,112L294,112L294,112L298,118L300,117L308,117L309,116L315,116L329,113L328,106L323,106L323,103L323,103L324,103L331,101L334,99L334,98L339,90L346,87L353,80L354,81L359,82L367,75L370,78L373,87L382,88L383,88L383,89L379,96L380,98L383,102L377,100L371,103L366,109L363,112L364,119L363,122L359,130L361,131L360,135L355,147L349,146L348,146L349,154L348,169L343,172L342,172L342,171L338,161L336,152L332,152L331,160L329,161L326,160L324,155L326,148L331,146L334,137L336,136L332,134L314,136L307,135L307,132L304,125L302,128L297,125L293,125L291,123L287,130L293,135L295,134L297,138L292,139L292,141L289,142L288,145L294,149L295,149L296,153L295,157L297,160L297,161L300,162L299,164L302,176L302,177L303,181L299,182L299,177L296,182L292,182L290,180L282,184L278,188L280,194L278,200L272,203L273,204L265,208L263,206L261,208L261,211L256,216L249,226L244,229L239,235L229,242L228,249L227,250L218,251L213,259L211,258L206,259L203,264L202,268L204,276L203,278L206,287L204,284L203,285L206,288L205,296L201,305L199,310L201,325L195,325L190,334L181,342L179,349L172,352L170,351L166,348L161,343L158,336L157,330L159,335L158,330L152,316L148,309L144,304L141,298L139,292L135,276L131,270L128,261L124,256L123,251L121,237L120,233L118,222L120,219L116,209L119,197L116,191L118,188L115,187L115,181L112,180L109,185L112,189L102,196L94,197L91,196L86,192L83,188L75,179L77,176L78,178L89,175L93,169L84,172L78,171L74,168L70,161L67,159L67,158L73,157L74,153L83,154L86,155L94,153L94,154L99,153L100,150L96,138L92,137L90,134L91,127L90,126L84,123L92,110L97,110L97,111L107,111L111,109L119,99L124,93L130,85L133,83L134,79L140,72L140,65L141,63L148,59L145,56L143,56L142,52L140,52L135,46L136,37L135,37L133,33L135,29L138,28L153,31L160,28L166,24L166,24L167,23L171,20L172,20L173,19L174,19L176,19L176,22L179,30L182,31L185,33L184,41L187,47L187,47L188,49L188,50L188,55L188,55L185,57L183,54L181,59L183,61L183,63Z " data-iso="IND"/><path d="M10,6L10,6L10,3L10,1L10,0L0,0L0,23L4,22L3,19L7,16L10,7L10,6Z M0,34L3,31L0,31L0,34Z M0,72L7,66L6,59L0,57L0,72Z M0,122L7,118L14,118L16,111L13,111L12,108L12,101L10,97L4,94L1,89L0,85L0,122Z " data-iso="IRN"/><path d="M173,19L170,19L168,19L164,18L163,17L164,18L164,20L166,23L166,24L167,23L171,20L172,20L173,19L173,19Z " data-iso="KAS"/><path d="M448,150L449,151L451,152L457,155L458,161L462,165L468,165L469,164L475,162L476,167L479,167L483,170L480,176L474,177L475,179L473,182L488,186L489,190L495,194L501,199L504,201L508,204L509,207L511,209L512,208L520,212L524,222L523,224L524,228L520,233L516,235L509,242L507,242L502,240L501,241L498,239L501,236L500,221L497,220L497,218L493,217L490,214L488,207L488,204L476,194L469,194L466,199L462,202L455,200L450,206L450,206L443,210L445,202L443,199L445,192L442,185L434,186L434,181L431,177L429,179L429,178L429,178L433,171L432,170L437,162L438,161L438,161L440,165L446,164L445,163L442,148L446,148L447,149L448,150Z " data-iso="LAO"/><path d="M219,374L225,370L226,361L221,351L220,347L218,346L212,336L208,334L204,334L204,340L202,342L202,344L200,352L202,367L204,374L219,374Z " data-iso="LKA"/><path d="M383,88L383,89L379,96L380,98L383,102L377,100L371,103L366,109L363,112L364,119L363,122L359,130L361,131L360,135L355,147L349,146L348,146L349,154L348,169L343,172L342,172L342,173L343,181L339,180L341,187L341,188L346,193L350,191L349,193L357,197L362,201L359,204L356,203L362,208L361,205L368,215L371,223L371,226L369,236L368,241L371,241L374,235L374,243L380,243L382,239L382,244L384,242L386,238L389,236L391,232L396,231L398,225L397,223L401,224L405,230L408,231L408,236L409,238L412,250L416,258L418,264L419,263L421,265L425,273L425,279L426,280L427,286L428,285L428,292L426,299L428,307L429,305L429,305L429,298L434,293L438,283L434,275L432,273L430,269L430,267L427,258L422,254L416,248L416,245L420,242L419,234L422,232L422,229L420,230L416,223L406,214L406,212L401,206L405,205L405,194L408,189L409,190L417,188L417,184L422,182L421,180L428,178L429,178L429,178L433,171L432,170L437,162L438,161L438,161L436,159L433,163L428,164L424,161L424,158L416,159L415,155L416,149L409,145L407,140L407,135L400,136L395,140L394,134L392,133L397,118L398,118L402,113L401,105L398,93L396,93L392,89L391,87L383,88L383,88Z " data-iso="MMR"/><path d="M447,347L445,348L446,350L447,347Z " data-iso="MYS"/><path d="M284,106L277,108L269,105L267,107L263,106L263,108L259,104L253,103L243,97L241,93L240,93L236,94L231,89L229,89L224,85L219,81L212,81L211,84L209,84L208,83L208,83L202,89L198,99L202,103L206,103L211,106L214,109L218,111L221,111L225,113L227,113L234,116L240,115L248,116L272,125L276,125L287,118L285,112L286,106L285,106L284,106Z " data-iso="NPL"/><path d="M67,158L73,157L74,153L83,154L86,155L94,153L94,154L99,153L100,150L96,138L92,137L90,134L91,127L90,126L84,123L92,110L97,110L97,111L107,111L111,109L119,99L124,93L130,85L133,83L134,79L140,72L140,65L141,63L148,59L145,56L143,56L142,52L140,52L135,46L136,37L135,37L133,33L135,29L138,28L153,31L160,28L166,24L166,24L166,23L164,20L164,18L163,17L163,17L158,15L156,13L155,6L149,2L142,0L141,0L140,1L134,2L123,2L118,3L109,10L112,18L110,24L105,29L106,34L99,36L95,35L95,39L97,43L91,46L88,49L86,54L86,60L80,63L78,61L75,61L69,63L66,67L62,66L59,67L54,71L51,83L39,85L31,85L29,86L23,84L12,84L0,78L0,85L1,89L4,94L10,97L12,101L12,108L13,111L16,111L14,118L7,118L0,122L0,135L4,136L12,136L17,136L18,135L22,135L28,137L31,137L41,137L48,135L52,140L52,144L57,146L58,153L61,158L67,158L67,158Z " data-iso="PAK"/><path d="M450,206L443,210L445,202L443,199L445,192L442,185L434,186L434,181L431,177L429,179L429,178L428,178L421,180L422,182L417,184L417,188L409,190L408,189L405,194L405,205L401,206L406,212L406,214L416,223L420,230L422,229L422,232L419,234L420,242L416,245L416,248L422,254L427,258L430,267L430,269L432,273L434,275L438,283L434,293L429,298L429,305L428,309L426,316L426,327L427,329L431,328L433,330L436,332L440,337L443,337L445,340L445,343L450,347L450,324L446,320L445,315L442,313L438,315L435,307L434,302L437,295L438,287L441,276L440,272L441,266L440,265L442,261L450,260L450,206L450,206Z " data-iso="THA"/><path d="M112,0L113,3L115,3L120,0L112,0Z " data-iso="TJK"/><path d="M10,6L11,6L12,9L19,13L23,13L27,11L29,6L36,5L43,2L44,0L10,0L10,1L10,3L10,6L10,6Z " data-iso="TKM"/><path d="M447,149L448,150L449,151L450,151L450,143L450,143L447,148L447,149Z " data-iso="VNM"/></g><g fill="red" fill-opacity="0.35" id="regions"><path d="M163,76L163,77L163,77L164,78L164,78L164,78L164,77L164,77L164,77L164,77L163,76Z " data-fips="IN05" data-fips-="" data-iso3="IND" data-name="Chandigarh" data-p="CH"/><path d="M167,100L164,103L164,104L169,104L169,104L169,104L168,101L168,100L168,100L167,100Z " data-fips="IN07" data-fips-="" data-iso3="IND" data-name="Delhi" data-p="DL"/><path d="M154,55L154,55L151,61L153,62L157,69L160,70L163,75L163,75L163,75L167,77L167,80L172,82L172,81L172,81L174,80L174,74L175,72L179,71L184,71L185,70L185,70L183,68L185,66L184,62L180,55L180,55L180,53L175,53L173,49L169,51L167,50L163,47L161,47L155,51L153,51L155,54L154,55L154,55Z " data-fips="IN11" data-fips-="" data-iso3="IND" data-name="Himachal Pradesh" data-p="HP"/><path d="M172,82L167,80L167,77L163,75L163,75L163,75L164,76L164,76L164,76L164,77L164,77L164,77L164,77L164,78L164,78L164,78L165,80L163,81L162,84L158,85L157,87L154,89L146,88L146,87L143,86L140,87L139,87L139,87L140,93L144,95L148,95L150,102L153,105L155,112L156,113L157,110L162,110L164,108L165,110L165,114L168,113L169,113L169,113L171,111L169,104L169,104L169,104L164,104L164,103L167,100L168,100L168,100L167,92L168,86L172,82L172,81L172,82Z " data-fips="IN10" data-fips-="" data-iso3="IND" data-name="Haryana" data-p="HR"/><path d="M148,58L150,58L153,56L154,56L154,55L154,55L155,54L153,51L155,51L161,47L163,47L167,50L169,51L173,49L175,53L180,53L180,55L180,55L182,55L187,57L190,55L190,51L190,47L184,43L183,37L186,34L185,33L179,30L176,22L176,20L173,19L166,24L161,28L160,28L153,31L152,31L148,29L146,29L138,28L135,29L135,35L134,36L138,37L135,39L137,43L135,47L139,52L142,51L141,54L147,57L148,58Z " data-fips="IN12" data-fips-="" data-iso3="IND" data-name="Jammu and Kashmir" data-p="JK"/><path d="M172,229L173,229L172,235L171,237L174,238L171,243L171,252L172,253L171,257L167,258L166,261L167,268L163,268L165,278L168,277L171,277L170,280L167,281L166,284L171,283L172,285L175,282L178,282L179,284L182,287L183,289L185,289L183,294L181,296L181,296L181,297L185,296L187,292L192,292L195,290L195,289L200,290L205,287L205,287L203,287L203,285L205,285L205,286L205,286L205,286L205,286L205,285L204,280L204,274L202,267L206,259L210,257L211,259L212,256L214,257L217,251L226,250L229,247L228,245L230,241L245,229L248,227L256,216L256,216L254,216L252,219L248,220L246,220L243,218L241,218L239,221L236,223L237,224L234,226L232,228L229,225L228,229L227,231L225,231L218,234L217,234L216,234L213,234L212,232L208,225L204,223L204,223L204,223L199,219L200,216L200,214L196,213L188,212L187,211L183,211L179,216L176,217L175,219L176,222L174,224L172,228L172,228L172,229Z M228,247L228,246L228,247L228,247Z " data-fips="IN02" data-fips-="" data-iso3="IND" data-name="Andhra Pradesh" data-p="AP"/><path d="M159,309L152,306L147,302L146,300L140,296L140,296L141,299L143,302L144,305L144,305L145,304L146,304L145,305L146,305L152,316L155,324L160,335L157,331L158,335L162,343L166,349L167,350L168,345L169,343L169,341L171,335L168,334L169,332L169,326L166,327L164,325L164,321L165,320L162,318L163,317L162,315L160,315L157,311L159,309L159,309L159,309Z " data-fips="IN13" data-fips-="" data-iso3="IND" data-name="Kerala" data-p="KL"/><path d="M275,176L267,174L268,177L266,180L265,179L262,178L259,180L256,175L251,176L248,177L245,175L245,175L245,175L244,177L240,180L237,192L230,194L229,196L228,201L229,206L232,207L227,209L223,206L222,208L224,211L227,219L226,222L223,224L217,233L217,234L217,234L218,234L225,231L227,231L228,229L229,225L232,228L234,226L237,224L236,223L239,221L241,218L243,218L246,220L248,220L252,219L254,216L256,216L256,216L263,209L261,210L261,208L265,206L264,209L271,206L274,203L275,201L280,196L280,194L279,187L280,185L285,183L285,183L284,181L282,181L279,178L276,177L275,177L275,176Z " data-fips="IN21" data-fips-="" data-iso3="IND" data-name="Orissa" data-p="OR"/><path d="M122,206L121,204L121,203L119,206L119,206L119,206L121,207L121,207L122,207L122,206L122,206Z " data-fips="IN06" data-fips-="" data-iso3="IND" data-name="Dadra and Nagar Haveli" data-p="DN"/><path d="M172,229L169,228L167,230L166,230L164,234L162,236L161,235L158,237L158,240L149,240L150,243L143,245L141,246L141,247L133,250L136,253L134,260L132,261L132,261L132,261L133,262L131,270L131,270L133,272L138,284L138,287L140,295L140,296L146,300L147,302L152,306L159,309L159,309L159,309L164,310L166,307L167,308L171,308L175,304L174,303L174,297L180,296L181,296L181,296L183,294L185,289L183,289L182,287L179,284L178,282L175,282L172,285L171,283L166,284L167,281L170,280L171,277L168,277L165,278L163,268L167,268L166,261L167,258L171,257L172,253L171,252L171,243L174,238L171,237L172,235L173,229L172,229L172,229Z " data-fips="IN19" data-fips-="" data-iso3="IND" data-name="Karnataka" data-p="KA"/><path d="M208,191L205,190L202,188L198,189L198,189L188,189L184,190L181,188L178,191L171,190L172,189L171,187L167,187L163,189L162,193L157,195L156,193L153,191L147,191L143,189L140,188L138,187L137,184L133,184L133,184L132,184L130,189L130,198L125,199L124,205L122,206L122,206L122,207L121,207L121,207L119,206L119,206L119,206L118,206L117,206L116,207L116,207L116,213L118,216L117,219L119,218L118,227L121,237L122,246L124,255L126,260L127,260L129,260L129,261L131,261L132,261L132,261L134,260L136,253L133,250L141,247L141,246L143,245L150,243L149,240L158,240L158,237L161,235L162,236L164,234L166,230L167,230L169,228L172,229L172,229L172,228L172,228L174,224L176,222L175,219L176,217L179,216L183,211L187,211L188,212L196,213L200,214L200,216L199,219L204,223L204,223L204,223L205,219L206,216L210,216L211,214L206,208L207,206L205,206L207,204L207,200L206,200L205,195L208,192L208,191L208,191Z " data-fips="IN16" data-fips-="IN35" data-iso3="IND" data-name="Maharashtra" data-p="MH"/><path d="M374,349L372,350L374,355L375,352L374,349Z M355,308L353,308L354,312L355,308Z M357,274L356,277L356,278L355,286L355,291L354,295L356,299L356,292L358,287L357,281L358,280L357,274Z " data-fips="IN01" data-fips-="" data-iso3="IND" data-name="Andaman and Nicobar" data-p="AN"/><path d="M329,113L325,115L322,114L322,115L315,116L311,115L308,118L306,118L306,118L306,122L304,125L304,125L305,125L306,128L307,133L307,134L309,128L312,126L319,126L321,127L322,128L325,124L327,125L328,123L332,123L332,128L338,128L337,129L339,132L335,136L336,136L334,137L334,139L334,142L334,142L335,144L335,145L335,145L336,145L336,145L339,145L340,143L343,142L343,142L343,142L344,138L345,134L346,131L347,130L347,130L345,128L351,122L351,119L353,115L355,112L362,107L362,106L362,106L366,103L370,102L370,100L366,94L364,95L351,102L348,107L348,108L343,110L339,111L337,110L331,113L329,113L329,113Z " data-fips="IN03" data-fips-="" data-iso3="IND" data-name="Assam" data-p="AS"/><path d="M347,130L346,131L345,134L344,138L343,142L343,142L343,142L344,145L347,146L347,146L355,147L357,144L358,138L360,133L361,131L359,130L359,127L359,127L350,127L348,131L347,130L347,130Z " data-fips="IN17" data-fips-="" data-iso3="IND" data-name="Manipur" data-p="MN"/><path d="M362,106L362,107L355,112L353,115L351,119L351,122L345,128L347,130L347,130L347,130L348,131L350,127L359,127L359,127L363,122L364,111L364,111L363,110L363,109L362,107L362,106Z " data-fips="IN20" data-fips-="" data-iso3="IND" data-name="Nagaland" data-p="NL"/><path d="M307,134L308,136L311,136L316,136L323,135L325,135L331,134L335,135L335,136L339,132L337,129L338,128L332,128L332,123L328,123L327,125L325,124L322,128L321,127L319,126L312,126L309,128L307,134L307,134Z " data-fips="IN18" data-fips-="" data-iso3="IND" data-name="Meghalaya" data-p="ML"/><path d="M154,55L154,56L153,56L150,58L148,58L148,58L140,65L141,73L138,75L132,81L133,83L133,83L133,86L138,86L139,87L140,87L143,86L146,87L146,88L154,89L157,87L158,85L162,84L163,81L165,80L164,78L164,78L164,78L163,77L163,77L163,76L164,77L164,76L164,76L164,76L163,75L163,75L163,75L160,70L157,69L153,62L151,61L154,55L154,55Z " data-fips="IN23" data-fips-="" data-iso3="IND" data-name="Punjab" data-p="PB"/><path d="M133,84L127,87L126,91L122,97L116,100L111,108L110,110L103,111L100,112L94,109L92,110L84,120L84,124L87,126L90,126L90,131L90,134L91,136L96,138L96,140L100,149L100,149L108,151L114,151L116,153L124,154L124,159L125,158L126,162L130,167L136,171L136,171L136,171L140,169L138,168L142,165L143,163L142,158L141,156L141,150L143,151L145,150L152,150L152,158L149,159L151,162L152,160L154,160L156,156L163,158L165,157L164,155L166,153L164,149L165,147L169,146L170,144L168,142L165,143L160,141L161,137L175,128L179,125L179,125L179,125L174,124L170,124L174,123L171,122L172,119L170,118L169,113L169,113L168,113L165,114L165,110L164,108L162,110L157,110L156,113L155,112L153,105L150,102L148,95L144,95L140,93L139,87L139,87L138,86L133,86L133,83L133,84Z " data-fips="IN24" data-fips-="" data-iso3="IND" data-name="Rajasthan" data-p="RJ"/><path d="M172,81L172,82L168,86L167,92L168,100L168,100L168,100L168,101L169,104L169,104L169,104L171,111L169,113L169,113L169,113L170,118L172,119L171,122L174,123L170,124L174,124L179,125L179,125L179,125L185,125L187,126L188,131L185,139L181,140L181,147L179,148L181,155L183,155L186,157L188,154L187,152L185,152L183,145L183,142L187,141L187,144L192,144L195,145L197,145L201,142L204,144L202,146L208,144L207,147L212,147L213,144L215,144L221,148L224,148L226,150L230,150L229,156L230,157L231,158L231,158L232,159L234,159L236,156L237,156L237,155L238,153L237,152L237,151L238,151L238,151L238,148L236,147L236,144L237,142L244,136L249,135L249,135L242,130L244,129L243,125L246,124L244,122L243,121L240,116L240,116L235,116L235,116L228,115L227,113L225,113L219,111L215,110L210,105L206,104L203,102L199,100L199,100L193,100L184,95L186,93L183,92L179,87L178,90L175,90L174,87L175,83L172,81L172,81Z " data-fips="IN36" data-fips-="IN27" data-iso3="IND" data-name="Uttar Pradesh" data-p="UP"/><path d="M185,70L184,71L179,71L175,72L174,74L174,80L172,81L172,81L172,81L175,83L174,87L175,90L178,90L179,87L183,92L186,93L184,95L193,100L199,100L198,100L200,96L201,89L206,83L208,83L204,80L199,79L198,76L194,74L193,74L187,68L185,70L185,70Z " data-fips="IN39" data-fips-="" data-iso3="IND" data-name="Uttaranchal" data-p="UT"/><path d="M285,139L281,138L278,142L277,147L273,148L271,151L265,147L262,148L256,152L253,150L250,153L244,149L242,150L239,151L238,151L237,151L237,152L238,153L237,155L237,156L237,156L242,162L244,163L247,172L245,175L245,175L245,175L248,177L251,176L256,175L259,180L262,178L265,179L266,180L268,177L267,174L275,176L275,177L276,176L273,170L272,170L272,167L270,167L265,165L271,160L275,158L276,156L283,153L285,150L287,146L285,139L285,139L285,139Z " data-fips="IN38" data-fips-="IN04|IN34" data-iso3="IND" data-name="Jharkhand" data-p="JH"/><path d="M285,114L285,115L287,118L287,122L287,122L284,131L287,133L288,135L284,136L285,138L285,139L285,139L287,146L285,150L283,153L276,156L275,158L271,160L265,165L270,167L272,167L272,170L273,170L276,176L275,177L276,177L279,178L282,181L284,181L285,183L287,183L292,177L293,182L296,182L296,179L298,178L299,182L301,181L302,182L301,178L303,177L300,167L297,161L298,159L295,156L297,150L295,149L289,147L288,145L291,142L295,134L293,135L288,131L287,130L291,124L290,121L293,123L294,125L297,125L296,123L297,124L299,126L303,128L304,125L304,125L306,122L306,118L306,118L297,118L294,117L293,114L293,114L291,114L290,115L285,114L285,114Z " data-fips="IN28" data-fips-="" data-iso3="IND" data-name="West Bengal" data-p="WB"/><path d="M240,116L243,121L244,122L246,124L243,125L244,129L242,130L249,135L249,135L244,136L237,142L236,144L236,147L238,148L238,151L238,151L239,151L242,150L244,149L250,153L253,150L256,152L262,148L265,147L271,151L273,148L277,147L278,142L281,138L285,139L285,139L285,138L284,136L288,135L287,133L284,131L287,122L287,123L285,125L282,124L278,125L275,123L272,125L265,124L262,124L259,121L256,123L249,119L249,117L245,116L240,116L240,116Z " data-fips="IN34" data-fips-="" data-iso3="IND" data-name="Bihar" data-p="BR"/><path d="M285,114L290,115L291,114L293,114L293,114L294,112L293,111L293,106L293,104L286,105L286,107L285,111L285,113L285,114Z " data-fips="IN29" data-fips-="" data-iso3="IND" data-name="Sikkim" data-p="SK"/><path d="M245,175L247,172L244,163L242,162L237,156L237,156L236,156L234,159L232,159L231,158L231,158L230,158L228,161L218,160L219,164L224,167L224,169L220,172L219,175L216,177L213,178L212,180L208,190L208,191L208,192L205,195L206,200L207,200L207,204L205,206L207,206L206,208L211,214L210,216L206,216L205,219L204,223L204,223L204,223L208,225L212,232L213,234L216,234L217,234L217,234L217,233L223,224L226,222L227,219L224,211L222,208L223,206L227,209L232,207L229,206L228,201L229,196L230,194L237,192L240,180L244,177L245,175L245,175L245,175Z " data-fips="IN37" data-fips-="IN02" data-iso3="IND" data-name="Chhattisgarh" data-p="CT"/><path d="M230,157L229,156L230,150L226,150L224,148L221,148L215,144L213,144L212,147L207,147L208,144L202,146L204,144L201,142L197,145L195,145L192,144L187,144L187,141L183,142L183,145L185,152L187,152L188,154L186,157L183,155L181,155L179,148L181,147L181,140L185,139L188,131L187,126L185,125L179,125L179,125L179,125L175,128L161,137L160,141L165,143L168,142L170,144L169,146L165,147L164,149L166,153L164,155L165,157L163,158L156,156L154,160L152,160L151,162L149,159L152,158L152,150L145,150L143,151L141,150L141,156L142,158L143,163L142,165L138,168L140,169L136,171L136,171L136,172L137,173L136,176L133,177L133,183L133,184L133,184L137,184L138,187L140,188L143,189L147,191L153,191L156,193L157,195L162,193L163,189L167,187L171,187L172,189L171,190L178,191L181,188L184,190L188,189L198,189L198,189L202,188L205,190L208,191L208,191L208,190L212,180L213,178L216,177L219,175L220,172L224,169L224,167L219,164L218,160L228,161L230,158L231,158L230,157Z " data-fips="IN35" data-fips-="IN15" data-iso3="IND" data-name="Madhya Pradesh" data-p="MP"/><path d="M201,318L201,317L201,317L199,318L199,318L201,319L201,318Z M200,306L200,306L201,305L199,305L200,307L200,306Z M145,305L145,305L145,305L145,305L145,305L146,304L145,304L144,305L145,305Z " data-fips="IN22" data-fips-="" data-iso3="IND" data-name="Puducherry" data-p="PY"/><path d="M205,286L205,286L205,286L205,286L206,287L206,287L206,287L205,286Z M181,296L180,296L174,297L174,303L175,304L171,308L167,308L166,307L164,310L159,309L159,309L159,309L157,311L160,315L162,315L163,317L162,318L165,320L164,321L164,325L166,327L169,326L169,332L168,334L171,335L169,341L169,343L168,345L167,350L168,350L179,349L181,343L183,340L187,339L194,337L190,336L190,334L194,329L194,326L201,325L201,320L201,319L199,318L199,318L201,317L201,317L199,313L200,312L200,307L200,307L199,305L201,305L201,305L204,300L205,296L206,287L205,287L205,287L200,290L195,289L195,290L192,292L187,292L185,296L181,297L181,296Z " data-fips="IN22" data-fips-="IN25" data-iso3="IND" data-name="Tamil Nadu" data-p="TN"/><path d="M97,198L103,196L109,193L112,189L109,184L112,182L112,179L115,180L119,180L115,183L116,184L117,187L117,194L119,198L119,201L118,202L118,202L118,203L118,203L117,206L116,206L116,207L117,206L118,206L119,206L119,206L119,206L121,203L121,204L122,206L122,206L122,206L124,205L125,199L130,198L130,189L132,184L133,184L133,183L133,177L136,176L137,173L136,172L136,171L136,171L130,167L126,162L125,158L124,159L124,154L116,153L114,151L108,151L100,149L100,150L96,155L92,153L85,155L80,153L74,153L67,160L71,163L71,165L74,168L84,172L85,171L92,168L92,170L88,175L84,176L83,177L78,178L75,176L77,181L89,194L92,197L95,198L97,198L97,198L97,198L97,198L97,198Z " data-fips="IN32" data-fips-="" data-iso3="IND" data-name="Gujarat" data-p="GJ"/><path d="M131,261L129,261L129,260L127,260L127,260L129,262L129,267L131,270L131,270L133,262L132,261L132,261L131,261Z " data-fips="IN08" data-fips-="IN33" data-iso3="IND" data-name="Goa" data-p="GA"/><path d="M329,113L331,113L337,110L339,111L343,110L348,108L348,107L351,102L364,95L366,94L370,100L370,102L366,103L362,106L362,106L362,107L363,109L363,110L364,111L364,111L370,105L371,103L377,100L383,102L380,99L380,95L383,92L380,87L379,87L373,87L371,88L373,82L372,79L369,82L369,79L370,78L367,75L361,82L353,80L348,83L347,86L343,89L340,90L334,97L334,99L332,101L323,104L324,107L328,106L329,113L329,113Z " data-fips="IN30" data-fips-="" data-iso3="IND" data-name="Arunachal Pradesh" data-p="AR"/><path d="M336,145L336,145L336,146L336,150L336,152L336,152L339,161L340,164L343,171L343,170L346,172L348,166L347,165L349,150L347,146L347,146L344,145L343,142L343,142L343,142L340,143L339,145L336,145L336,145Z " data-fips="IN31" data-fips-="" data-iso3="IND" data-name="Mizoram" data-p="MZ"/><path d="M333,142L333,143L328,146L324,153L327,159L332,160L332,155L335,152L336,152L336,152L336,150L336,146L336,145L336,145L335,145L335,145L335,144L334,142L333,142Z " data-fips="IN26" data-fips-="" data-iso3="IND" data-name="Tripura" data-p="TR"/><path d="M118,202L118,202L118,202L118,203L118,203L118,202L118,202L118,202Z M97,198L97,198L97,198L97,198L97,198L97,198L97,198Z " data-fips="IN32" data-fips-="" data-iso3="IND" data-name="Daman and Diu" data-p="DD"/></g></svg>