<?xml version="1.0" encoding="UTF-8"?><!DOCTYPE svg  PUBLIC '-//W3C//DTD SVG 1.1//EN'  'http://www.w3.org/Graphics/SVG/1.1/DTD/svg11.dtd'><svg enable_background="new 0 0 450 451" height="451px" style="stroke-linejoin: round; stroke:#000; fill:#f6f3f0;" version="1.1" viewBox="0 0 450 451" width="450px" xmlns="http://www.w3.org/2000/svg" xmlns:xlink="http://www.w3.org/1999/xlink"><defs><style type="text/css"><![CDATA[path { fill-rule: evenodd; }
#context path { fill: #eee; stroke: #bbb; } ]]></style></defs><metadata><views><view h="451" padding="0.06" w="450"><proj id="laea" lat0="52.8616057399" lon0="-8.92426623473"/><bbox h="52.73" w="37.57" x="986.22" y="966.71"/><llbbox lat0="-90" lat1="90" lon0="-180" lon1="180"/></view></views></metadata><g id="context"><path d="M285,48L276,55L274,57L272,68L271,71L266,82L262,85L254,89L251,88L246,88L244,90L250,96L254,99L251,103L236,110L232,113L230,116L232,120L244,132L246,134L248,141L259,144L263,148L267,149L276,148L279,150L282,146L289,140L291,137L288,131L292,125L297,119L300,120L304,123L308,127L309,134L313,139L315,141L321,142L322,144L322,153L323,155L338,155L344,151L349,151L355,154L362,155L366,151L370,143L373,135L380,134L386,130L388,120L382,119L382,109L381,102L384,103L387,105L390,111L393,112L393,106L392,101L389,94L385,89L376,89L368,92L367,88L374,83L377,80L377,74L367,64L359,52L356,40L350,33L344,33L335,31L329,31L316,36L308,38L304,37L301,38L296,49L292,52L287,51L285,48Z M395,0L396,3L402,6L410,5L410,0L395,0Z M450,358L444,362L430,368L425,373L420,381L424,382L426,388L427,395L430,398L445,406L450,403L450,358Z M435,0L433,7L430,14L420,36L415,54L412,51L408,54L409,61L411,68L418,77L426,85L427,76L429,70L431,68L441,73L450,76L450,0L435,0Z M373,0L371,16L373,19L378,20L383,13L386,0L373,0Z " data-iso="GBR"/><path d="M450,121L447,128L442,133L440,144L437,149L443,148L448,150L450,147L450,121Z " data-iso="IMN"/><path d="M119,172L119,165L116,163L107,163L105,161L99,165L112,167L114,172L119,175L119,172Z M288,43L294,39L300,32L294,29L288,25L283,20L279,19L275,20L279,26L270,28L267,32L266,38L268,43L269,53L263,59L259,61L263,55L260,52L263,49L265,45L264,40L261,37L260,32L258,31L252,32L253,39L250,37L240,38L237,38L230,42L221,43L220,47L218,53L214,56L213,62L215,70L210,76L206,79L206,81L199,84L195,87L192,92L211,100L230,96L227,103L225,110L221,113L213,115L205,121L201,127L204,132L206,138L203,139L193,136L178,134L176,134L171,140L169,142L158,132L143,131L134,132L127,135L120,135L117,134L113,136L111,141L110,147L118,144L120,148L120,155L125,153L125,158L125,163L122,170L121,178L131,175L142,176L141,180L142,184L131,186L122,192L121,199L124,202L133,205L123,206L115,209L111,209L108,211L108,215L112,218L109,221L109,225L115,227L121,226L128,227L123,232L126,235L129,235L134,233L138,234L140,235L141,240L148,244L169,243L175,244L182,247L178,252L174,253L169,255L162,256L159,259L148,274L151,276L153,280L148,287L145,292L130,306L119,314L129,313L138,308L142,305L148,308L152,309L166,307L171,304L178,295L182,299L191,303L174,309L156,313L140,315L137,316L129,325L124,327L119,331L123,334L123,343L128,347L117,349L109,344L105,344L100,345L90,351L88,359L97,360L116,359L119,361L116,365L110,369L103,371L98,376L88,387L90,394L97,393L99,396L107,397L139,387L129,392L125,397L117,402L108,410L104,415L111,414L119,411L140,406L143,407L142,409L131,415L123,428L129,429L142,424L147,423L152,424L156,427L158,427L190,418L195,412L204,411L211,405L216,404L220,401L221,396L220,390L218,387L216,386L223,385L233,393L239,392L245,388L251,380L253,379L264,375L269,371L273,363L278,360L292,357L301,358L306,355L308,346L312,354L313,355L320,350L326,349L335,352L342,350L350,345L340,335L344,333L348,329L355,314L356,301L358,293L360,286L363,279L366,273L364,256L362,248L357,234L356,227L357,224L357,217L357,213L356,205L352,198L350,187L347,178L344,173L342,167L342,162L344,160L349,160L353,159L352,155L349,151L344,151L338,155L323,155L322,153L322,144L321,142L315,141L313,139L309,134L308,127L304,123L300,120L297,119L292,125L288,131L291,137L289,140L282,146L279,150L276,148L267,149L263,148L259,144L248,141L246,134L244,132L232,120L230,116L232,113L236,110L251,103L254,99L250,96L244,90L246,88L251,88L254,89L262,85L266,82L271,71L272,68L274,57L276,55L285,48L288,43Z " data-iso="IRL"/></g><g fill="red" fill-opacity="0.35" id="regions"><path d="M193,303L199,305L201,305L201,302L204,303L209,299L209,296L211,295L212,293L213,285L216,278L219,279L223,274L222,271L221,271L219,272L215,271L213,272L210,271L208,268L203,265L195,267L194,269L189,272L187,272L185,271L184,263L177,259L176,257L177,253L177,254L173,251L170,252L171,256L168,257L160,253L156,261L150,272L147,275L154,278L150,282L146,289L147,290L146,295L143,296L141,296L138,299L125,311L122,312L118,315L129,314L132,313L133,311L142,307L141,304L146,307L148,309L153,309L160,307L156,311L161,310L167,309L168,308L174,301L176,297L180,293L181,293L179,295L182,302L186,301L192,303L193,303Z " data-fips="EI03" data-fips-="EI10" data-iso3="IRL" data-name="Clare"/><path d="M329,295L324,290L326,284L332,287L335,285L336,279L334,279L329,278L321,276L320,279L319,280L310,280L309,279L309,281L308,286L308,286L303,288L302,289L300,290L299,297L302,298L306,302L307,308L310,312L309,317L310,323L313,323L317,316L319,312L320,308L324,305L325,305L327,303L326,300L328,299L330,297L329,295Z " data-fips="EI01" data-fips-="" data-iso3="IRL" data-name="Carlow"/><path d="M124,412L121,411L118,413L119,414L124,413L124,412Z M164,343L164,344L160,348L162,353L163,360L165,365L164,370L167,373L170,374L167,376L162,378L159,380L158,382L160,386L157,390L151,393L148,396L142,396L138,397L131,402L127,406L121,399L121,400L120,399L114,402L112,404L115,404L112,407L107,408L106,409L108,410L108,412L103,414L101,416L108,415L110,416L112,415L116,413L118,411L120,410L129,409L131,408L137,407L142,403L146,404L149,403L148,407L141,410L138,411L122,421L126,421L139,414L142,415L137,418L134,421L124,427L125,432L131,429L130,428L134,425L136,426L141,425L148,422L151,426L153,424L156,423L153,426L154,427L152,429L160,426L160,427L163,428L165,424L167,424L170,423L170,420L173,421L179,420L180,421L185,421L185,419L190,417L193,417L197,418L198,415L198,413L195,413L193,411L201,412L204,411L208,415L206,405L209,405L211,408L212,405L214,406L221,402L223,399L224,395L222,395L220,392L221,388L214,386L224,384L230,385L230,390L227,391L226,394L234,394L242,391L241,390L250,385L249,385L251,381L252,376L252,376L247,375L246,372L242,368L241,365L238,360L236,359L233,359L234,353L235,352L236,351L233,350L232,348L231,345L230,344L229,344L219,342L218,342L210,345L207,344L203,339L200,338L197,334L188,336L185,340L178,343L176,341L168,340L166,342L164,343Z " data-fips="EI04" data-fips-="" data-iso3="IRL" data-name="Cork"/><path d="M243,132L237,137L237,141L237,143L241,145L250,152L255,153L265,161L265,168L264,170L265,172L267,173L267,177L268,178L271,178L274,183L278,186L281,184L283,183L288,186L293,183L298,185L303,186L305,185L307,181L306,176L306,174L311,175L317,171L313,169L313,168L312,168L312,167L312,166L312,166L311,166L309,162L309,162L309,162L308,161L308,160L308,160L308,160L307,160L306,160L301,154L300,154L300,153L300,153L300,153L300,153L301,153L301,152L301,152L300,152L300,152L300,152L299,152L298,152L298,152L297,153L297,153L297,153L297,153L296,153L295,153L295,153L294,153L294,153L294,153L293,153L293,153L293,153L293,154L292,154L288,152L288,152L288,152L287,152L287,153L286,152L285,152L282,151L282,151L282,151L281,151L281,151L278,150L274,147L270,150L262,145L257,142L249,142L247,139L247,135L243,132L243,132Z " data-fips="EI02" data-fips-="" data-iso3="IRL" data-name="Cavan"/><path d="M326,157L327,157L328,157L328,158L328,158L329,160L329,160L329,161L329,161L329,161L329,161L329,162L329,162L329,162L329,163L329,163L329,164L329,164L328,164L328,164L327,164L327,164L326,163L326,164L325,164L325,164L325,164L324,165L324,165L324,166L324,166L324,167L324,167L324,167L324,167L324,168L324,168L324,168L324,169L324,170L324,170L321,172L326,175L331,184L337,186L335,190L344,191L349,189L349,186L349,184L350,182L348,179L348,175L344,174L340,172L340,165L341,159L344,160L353,163L354,163L356,159L355,157L345,150L341,149L340,151L339,154L326,156L325,157L326,157Z " data-fips="EI19" data-fips-="" data-iso3="IRL" data-name="Louth"/><path d="M130,254L126,254L128,256L136,259L135,255L130,254Z M136,244L137,242L133,240L132,241L134,245L136,244Z M189,199L187,200L179,201L179,204L175,211L171,217L169,218L165,219L161,215L160,212L156,212L155,209L149,210L144,207L142,205L134,205L134,206L126,205L124,204L120,205L115,205L112,205L117,209L108,208L108,210L104,210L102,211L108,216L114,218L114,219L110,218L111,220L110,222L107,221L105,223L104,225L108,225L111,225L115,229L117,229L121,224L125,223L122,226L128,224L126,227L128,227L125,230L122,231L121,234L125,235L128,237L132,234L137,227L138,228L137,233L138,234L139,230L139,229L143,228L140,230L142,233L139,235L139,240L139,244L140,244L142,238L142,241L144,244L148,245L152,243L173,241L181,241L180,243L176,245L182,246L184,246L180,250L182,254L179,251L175,251L177,253L177,253L176,257L177,259L184,263L185,271L187,272L189,272L194,269L195,267L203,265L208,268L210,271L213,272L215,271L219,272L221,271L222,270L225,263L227,262L231,254L235,251L236,251L238,249L241,248L242,244L238,240L238,240L235,239L232,239L230,238L229,233L226,231L226,225L222,215L222,209L215,202L217,200L212,197L212,194L210,194L203,195L199,198L194,199L190,199L189,199Z " data-fips="EI10" data-fips-="" data-iso3="IRL" data-name="Galway"/><path d="M119,162L112,161L108,163L106,161L99,166L106,167L110,166L112,168L112,171L116,174L120,175L121,168L118,168L119,164L120,164L119,162Z M134,205L142,205L144,207L149,210L155,209L156,212L160,212L161,215L165,219L169,218L171,217L175,211L179,204L179,201L187,200L189,199L191,196L195,195L197,185L195,184L197,179L199,178L200,174L197,172L198,167L202,169L203,168L203,167L203,162L198,160L193,166L186,165L180,162L177,161L182,153L182,152L180,148L172,149L169,146L169,147L164,140L165,135L158,130L154,132L145,131L134,130L130,128L126,129L127,132L131,134L129,134L131,137L126,134L124,138L124,139L122,142L118,141L118,138L122,138L124,136L121,134L118,134L116,131L115,133L110,139L113,140L111,143L108,150L109,153L112,153L112,148L117,141L120,144L118,145L122,151L117,152L119,156L121,156L126,152L122,159L123,163L125,163L126,168L127,167L128,173L124,167L121,168L121,172L119,176L121,178L125,177L131,174L140,174L141,177L143,178L141,180L139,183L143,185L131,187L129,186L121,188L122,190L120,196L121,201L126,204L129,205L134,205L134,205Z " data-fips="EI20" data-fips-="" data-iso3="IRL" data-name="Mayo"/><path d="M320,171L318,170L318,171L317,171L311,175L306,174L306,176L307,181L305,185L303,186L298,185L293,183L288,186L283,183L281,184L284,186L288,193L292,196L296,197L299,199L304,197L305,199L302,208L302,211L301,214L300,215L299,218L297,220L292,222L291,223L298,228L299,226L307,220L310,222L311,224L315,225L318,222L323,223L326,224L330,225L334,225L337,225L339,223L341,220L343,219L345,214L341,211L339,206L343,204L345,206L352,199L351,198L351,198L349,194L349,189L344,191L335,190L337,186L331,184L326,175L321,172L320,171Z " data-fips="EI21" data-fips-="" data-iso3="IRL" data-name="Meath"/><path d="M291,223L290,225L286,226L280,232L275,234L271,232L269,232L264,225L261,227L259,230L254,232L247,231L244,230L243,232L240,234L238,238L237,239L238,240L238,240L242,244L241,248L238,249L236,251L240,254L245,257L245,264L244,265L241,270L242,273L238,276L239,279L242,281L242,284L244,282L244,281L250,277L254,271L258,273L259,272L261,266L265,261L266,258L263,253L264,251L274,248L278,246L281,246L284,250L284,251L287,254L292,251L296,251L298,250L297,249L296,248L301,248L302,245L300,244L302,241L304,236L298,229L298,228L291,223Z " data-fips="EI23" data-fips-="" data-iso3="IRL" data-name="Offaly"/><path d="M292,222L297,220L299,218L300,215L301,214L302,211L302,208L305,199L304,197L299,199L296,197L292,196L288,193L284,186L281,184L278,186L278,187L279,190L270,195L266,199L267,203L262,211L255,212L251,211L245,212L242,213L243,217L243,221L244,227L244,230L244,230L247,231L254,232L259,230L261,227L264,225L269,232L271,232L275,234L280,232L286,226L290,225L291,223L292,222Z " data-fips="EI29" data-fips-="" data-iso3="IRL" data-name="Westmeath"/><path d="M330,297L328,299L326,300L327,303L325,305L324,305L320,308L319,312L317,316L313,323L310,323L311,325L310,328L309,328L308,331L306,335L305,341L306,343L306,342L311,350L311,359L313,356L318,353L318,349L317,350L317,347L318,347L321,344L320,350L325,349L332,353L340,351L343,351L346,349L345,352L346,352L350,346L341,338L341,337L340,332L341,334L345,333L347,328L351,322L356,313L356,309L355,303L355,301L358,295L359,293L354,289L353,288L350,289L348,288L345,288L338,298L335,300L332,298L330,297Z " data-fips="EI30" data-fips-="" data-iso3="IRL" data-name="Wexford"/><path d="M337,243L335,244L334,247L332,247L332,250L331,252L330,254L327,257L324,259L319,266L320,271L321,274L321,276L329,278L334,279L336,279L335,285L332,287L326,284L324,290L329,295L330,297L332,298L335,300L338,298L345,288L348,288L350,289L353,288L354,289L359,293L359,292L358,290L360,285L364,280L363,279L368,269L364,264L365,258L365,254L363,249L361,244L361,244L358,245L354,244L352,245L347,244L346,247L342,244L337,243Z " data-fips="EI31" data-fips-="" data-iso3="IRL" data-name="Wicklow"/><path d="M360,243L359,240L360,235L356,234L352,228L356,225L362,225L358,224L358,222L357,219L353,217L356,216L357,217L360,209L359,205L354,202L353,199L352,199L345,206L343,204L339,206L341,211L345,214L343,219L341,220L339,223L337,225L336,229L333,237L334,241L336,242L337,243L342,244L346,247L347,244L352,245L354,244L358,245L361,244L360,243Z " data-fips="EI07" data-fips-="" data-iso3="IRL" data-name="Dublin"/><path d="M334,225L330,225L326,224L323,223L318,222L315,225L311,224L310,222L307,220L299,226L298,228L298,229L304,236L302,241L300,244L302,245L301,248L296,248L297,249L298,250L299,250L298,252L301,261L299,267L301,270L306,272L309,278L309,279L310,280L319,280L320,279L321,276L321,274L320,271L319,266L324,259L327,257L330,254L331,252L332,250L332,247L334,247L335,244L337,243L336,242L334,241L333,237L336,229L337,225L334,225Z " data-fips="EI12" data-fips-="" data-iso3="IRL" data-name="Kildare"/><path d="M301,288L299,286L298,286L296,281L292,279L286,283L283,286L279,289L275,290L268,287L265,291L262,291L263,293L265,296L270,300L273,306L275,309L277,318L279,319L276,323L281,328L281,334L282,338L285,339L289,344L293,346L294,345L298,345L300,346L307,344L306,343L305,341L306,335L308,331L309,328L310,328L311,325L310,323L309,317L310,312L307,308L306,302L302,298L299,297L300,290L302,289L301,288Z " data-fips="EI13" data-fips-="" data-iso3="IRL" data-name="Kilkenny"/><path d="M296,251L292,251L287,254L284,251L284,250L281,246L278,246L274,248L264,251L263,253L266,258L265,261L261,266L259,272L258,273L259,274L263,276L260,280L259,285L261,288L262,291L265,291L268,287L275,290L279,289L283,286L286,283L292,279L296,281L298,286L299,286L301,288L302,289L303,288L308,286L308,286L309,281L309,279L309,278L306,272L301,270L299,267L301,261L298,252L299,250L298,250L296,251Z " data-fips="EI15" data-fips-="" data-iso3="IRL" data-name="Laoighis"/><path d="M254,271L250,277L244,281L244,282L242,284L242,281L239,279L238,276L242,273L241,270L244,265L245,264L245,257L240,254L236,251L235,251L231,254L227,262L225,263L222,270L221,271L222,271L223,274L219,279L216,278L213,285L212,293L211,295L211,296L212,301L215,302L220,302L223,301L226,304L229,304L227,312L227,319L223,320L221,324L220,321L217,324L217,327L227,332L229,335L231,335L232,342L230,344L231,345L232,348L233,350L236,351L235,352L241,352L243,348L245,348L248,349L257,350L258,348L257,345L255,344L255,339L256,338L268,335L275,337L282,338L281,334L281,328L276,323L279,319L277,318L275,309L273,306L270,300L265,296L263,293L262,291L261,288L259,285L260,280L263,276L259,274L258,273L254,271Z " data-fips="EI26" data-fips-="" data-iso3="IRL" data-name="Tipperary"/><path d="M92,380L89,381L85,385L89,384L93,382L92,380Z M121,399L127,406L131,402L138,397L142,396L148,396L151,393L157,390L160,386L158,382L159,380L162,378L167,376L170,374L167,373L164,370L165,365L163,360L162,353L160,348L164,344L164,343L163,342L156,337L156,326L158,321L154,313L150,313L146,314L141,314L138,313L135,316L137,324L132,323L130,326L123,329L117,330L118,331L123,333L124,334L124,339L124,341L122,342L123,344L121,342L122,345L123,345L130,348L125,348L124,348L121,349L119,349L113,347L112,341L109,341L111,343L107,348L102,349L103,344L102,343L93,348L90,349L87,352L83,354L84,355L82,357L83,362L85,363L89,360L95,361L93,359L96,359L97,361L101,362L102,361L111,359L116,360L116,358L129,358L126,359L128,361L123,361L119,360L115,366L115,364L113,368L111,369L105,370L96,374L96,376L93,377L96,381L96,383L87,385L87,389L90,390L90,395L95,392L97,389L100,390L101,393L100,395L98,396L105,400L110,396L113,396L120,392L126,392L128,390L135,387L140,387L134,390L130,391L125,396L126,398L122,399L121,399Z " data-fips="EI11" data-fips-="" data-iso3="IRL" data-name="Kerry"/><path d="M232,342L231,335L229,335L227,332L217,327L217,324L220,321L221,324L223,320L227,319L227,312L229,304L226,304L223,301L220,302L215,302L212,301L211,296L211,295L209,296L209,299L204,303L201,302L201,305L199,305L193,303L191,304L180,305L177,309L174,308L173,308L165,311L162,313L155,313L154,313L158,321L156,326L156,337L163,342L164,343L166,342L168,340L176,341L178,343L185,340L188,336L197,334L200,338L203,339L207,344L210,345L218,342L219,342L229,344L230,344L232,342Z " data-fips="EI16" data-fips-="" data-iso3="IRL" data-name="Limerick"/><path d="M244,182L240,172L238,171L234,171L233,167L235,164L234,159L236,157L235,153L231,151L230,152L230,153L227,155L225,159L224,159L221,161L219,164L215,166L215,168L218,169L218,172L212,172L208,171L207,169L204,168L203,168L202,169L198,167L197,172L200,174L199,178L197,179L195,184L197,185L195,195L191,196L189,199L190,199L194,199L199,198L203,195L210,194L212,194L212,197L217,200L215,202L222,209L222,215L226,225L226,231L229,233L230,238L232,239L235,239L238,240L237,239L238,238L240,234L243,232L244,230L244,230L244,227L243,221L243,217L242,213L241,209L238,203L243,191L244,190L245,185L245,183L244,182Z " data-fips="EI24" data-fips-="" data-iso3="IRL" data-name="Roscommon"/><path d="M215,114L212,117L210,116L210,118L209,119L201,124L200,125L198,128L205,128L208,130L206,131L210,135L206,134L203,134L201,136L204,138L205,140L208,142L204,143L200,139L199,136L198,135L194,136L192,135L187,136L181,133L180,134L175,133L171,141L169,142L170,145L169,146L172,149L180,148L182,152L182,153L177,161L180,162L186,165L193,166L198,160L203,162L203,167L203,168L204,168L207,169L208,171L212,172L218,172L218,169L215,168L215,166L219,164L221,161L224,159L225,159L227,155L230,153L230,152L229,152L226,148L223,148L220,146L217,132L215,128L217,125L217,120L215,119L215,114L215,114Z " data-fips="EI25" data-fips-="" data-iso3="IRL" data-name="Sligo"/><path d="M209,61L205,57L204,61L209,61Z M220,113L224,115L225,114L228,115L230,114L234,112L239,106L248,106L254,101L256,100L253,98L251,97L247,96L244,91L248,86L252,89L254,89L260,85L265,85L266,85L266,80L270,74L272,65L274,62L274,59L277,53L281,53L283,50L288,42L292,40L294,38L301,34L300,30L293,29L289,27L286,22L274,17L273,18L276,20L276,22L278,25L282,28L280,29L278,25L275,25L273,28L269,26L269,28L266,27L267,29L266,38L270,43L270,48L271,49L270,53L266,55L260,62L260,59L264,53L260,53L263,50L266,46L266,44L264,42L261,36L261,33L258,29L254,32L252,31L250,37L255,40L255,35L256,36L258,43L256,48L255,41L251,38L250,39L250,32L246,36L247,43L246,41L243,38L238,40L239,35L238,35L236,39L231,42L228,45L222,42L221,43L219,49L220,52L218,55L218,52L214,55L212,58L211,58L214,63L216,64L213,65L210,65L213,70L215,71L218,69L219,71L215,72L219,76L214,75L210,75L209,74L205,77L205,78L210,80L214,84L209,81L206,81L206,83L211,84L200,83L198,84L190,90L190,94L197,96L198,99L202,99L209,97L210,100L212,96L215,100L211,104L213,103L221,97L224,97L231,96L230,100L228,98L228,101L225,104L226,106L222,109L226,110L226,111L221,113L220,113Z " data-fips="EI06" data-fips-="" data-iso3="IRL" data-name="Donegal"/><path d="M215,114L215,119L217,120L217,125L215,128L217,132L220,146L223,148L226,148L229,152L230,152L231,151L235,153L236,157L234,159L235,164L233,167L234,171L238,171L240,172L244,182L245,183L247,182L249,181L250,183L261,171L262,170L264,170L265,168L265,161L255,153L250,152L241,145L237,143L237,141L237,137L243,132L242,132L239,126L237,126L234,124L228,115L228,115L225,114L224,115L220,113L215,114Z " data-fips="EI14" data-fips-="" data-iso3="IRL" data-name="Leitrim"/><path d="M262,170L261,171L250,183L249,181L247,182L245,183L245,185L244,190L243,191L238,203L241,209L242,213L245,212L251,211L255,212L262,211L267,203L266,199L270,195L279,190L278,187L278,186L274,183L271,178L268,178L267,177L267,173L265,172L264,170L262,170Z " data-fips="EI18" data-fips-="" data-iso3="IRL" data-name="Longford"/><path d="M275,337L268,335L256,338L255,339L255,344L257,345L258,348L257,350L248,349L245,348L243,348L241,352L235,352L234,353L233,359L236,359L238,360L241,365L242,368L246,372L247,375L252,376L252,376L253,378L260,379L261,376L266,376L269,373L269,370L271,367L266,367L266,365L269,362L271,364L278,360L291,358L294,359L300,357L299,354L302,355L300,358L306,357L308,354L307,352L308,349L307,345L307,344L300,346L298,345L294,345L293,346L289,344L285,339L282,338L275,337Z " data-fips="EI32" data-fips-="EI27" data-iso3="IRL" data-name="Waterford"/><path d="M281,151L281,151L282,151L282,151L282,151L285,152L286,152L287,153L287,152L288,152L288,152L288,152L292,154L293,153L293,153L293,153L293,153L294,153L294,153L294,153L295,153L295,153L296,153L297,153L297,153L297,153L297,153L298,152L298,152L299,152L300,152L300,152L300,152L301,152L301,152L301,153L300,153L300,153L300,153L300,153L300,154L301,154L306,160L308,160L308,160L308,160L308,160L308,161L309,162L309,162L309,162L311,166L312,166L312,166L312,167L312,168L313,168L313,169L317,171L318,171L318,171L320,171L321,172L324,170L324,170L324,169L324,168L324,167L324,167L324,167L324,167L324,166L324,166L324,165L324,165L325,164L325,164L325,164L326,164L326,163L327,164L327,164L328,164L328,164L329,164L329,164L329,163L329,163L329,162L329,162L329,162L329,161L329,161L329,161L329,161L329,160L329,160L328,158L328,158L328,157L327,157L326,157L325,157L321,150L323,148L322,143L319,141L317,142L312,139L310,134L308,126L305,123L299,119L297,119L295,121L292,126L287,131L289,134L292,136L290,140L287,141L286,145L284,146L284,149L280,148L282,151L281,151Z " data-fips="" data-fips-="SP32" data-iso3="IRL" data-name="Monaghan"/></g></svg>