<?xml version="1.0" encoding="UTF-8"?><!DOCTYPE svg  PUBLIC '-//W3C//DTD SVG 1.1//EN'  'http://www.w3.org/Graphics/SVG/1.1/DTD/svg11.dtd'><svg enable_background="new 0 0 450 301" height="301px" style="stroke-linejoin: round; stroke:#000; fill:#f6f3f0;" version="1.1" viewBox="0 0 450 301" width="450px" xmlns="http://www.w3.org/2000/svg" xmlns:xlink="http://www.w3.org/1999/xlink"><defs><style type="text/css"><![CDATA[path { fill-rule: evenodd; }
#context path { fill: #eee; stroke: #bbb; } ]]></style></defs><metadata><views><view h="301.0" padding="0.06" w="450"><proj id="laea" lat0="30.8163622097" lon0="50.8860806524"/><bbox h="201.88" w="226.07" x="922.23" y="875.68"/><llbbox lat0="-90" lat1="90" lon0="-180" lon1="180"/></view></views></metadata><g id="context"><path d="M417,49L417,48L412,48L407,47L403,47L399,48L398,48L388,46L385,52L377,54L375,57L373,70L364,78L354,82L354,89L348,93L342,95L338,91L331,91L328,89L327,89L327,90L325,103L321,109L323,113L320,114L318,118L318,125L321,127L325,128L323,132L321,138L326,151L327,162L340,166L342,167L343,176L334,189L330,195L336,196L357,200L374,197L382,198L385,195L398,193L414,186L416,183L415,182L414,168L415,165L419,160L423,157L430,157L434,151L440,145L446,144L450,147L450,35L442,36L441,37L439,46L434,43L426,48L422,52L417,49L417,49Z M450,28L449,30L450,31L450,28Z " data-iso="AFG"/><path d="M264,288L263,278L262,276L260,277L259,276L258,269L258,269L256,274L249,280L243,288L235,295L233,299L254,299L254,291L255,290L259,293L264,289L264,288Z " data-iso="ARE"/><path d="M87,19L88,19L90,18L96,24L101,23L103,29L104,34L105,35L106,36L108,35L110,35L110,33L111,30L110,27L110,25L108,22L107,22L99,15L104,12L104,11L99,7L97,2L99,0L73,0L72,3L72,11L75,13L80,13L86,19L87,19Z " data-iso="ARM"/><path d="M87,19L87,20L87,20L87,21L96,33L102,35L105,35L104,34L103,29L101,23L96,24L90,18L88,19L87,19Z M110,35L111,35L120,28L126,24L132,22L136,27L133,29L136,33L132,37L136,41L144,45L144,38L146,32L149,33L153,15L154,13L159,11L165,11L165,9L157,5L152,0L99,0L97,2L99,7L104,11L104,12L99,15L107,22L108,22L110,25L110,27L111,30L110,33L110,35Z " data-iso="AZE"/><path d="M168,274L168,270L166,273L168,274Z " data-iso="BHR"/><path d="M259,253L257,252L246,260L251,258L256,258L259,253Z M87,20L87,20L84,18L80,25L76,24L78,29L77,33L78,35L78,42L80,44L77,52L78,52L82,61L83,62L84,66L84,66L84,66L85,72L87,74L92,87L96,91L103,91L104,92L100,95L100,98L102,104L98,105L95,109L94,114L92,113L91,116L92,119L91,125L100,138L100,143L107,146L115,153L117,153L121,159L125,166L123,173L123,180L128,180L128,190L132,193L134,198L136,199L137,199L142,197L143,190L147,191L143,192L152,198L159,195L160,195L162,201L169,210L169,215L173,216L172,220L179,232L179,233L183,237L191,239L199,242L202,248L219,258L228,259L232,260L238,261L247,257L250,253L255,251L258,249L268,249L269,250L273,255L275,263L279,273L289,274L290,275L303,276L307,278L314,276L317,278L324,277L330,278L332,276L334,278L344,280L349,279L350,279L350,272L351,267L352,261L361,252L367,250L372,250L372,239L368,240L365,237L366,236L364,226L358,220L349,217L343,212L339,204L334,198L330,195L331,194L334,189L343,176L342,167L340,166L327,162L326,151L321,138L323,132L325,128L321,127L318,125L318,118L320,114L323,113L321,109L325,103L327,90L327,89L326,88L324,83L325,80L324,72L323,71L311,72L307,66L297,62L296,58L288,54L280,55L277,53L266,51L266,48L257,46L251,47L251,49L240,50L238,51L227,62L221,64L217,64L217,67L219,73L209,73L192,78L186,78L176,76L168,71L165,68L162,64L148,60L147,59L144,45L144,45L136,41L132,37L136,33L133,29L136,27L132,22L126,24L120,28L111,35L110,35L108,35L106,36L105,35L102,35L96,33L87,21L87,20Z " data-iso="IRN"/><path d="M103,214L106,211L114,198L119,196L123,197L127,199L127,198L133,199L134,200L136,199L134,198L132,193L128,190L128,180L123,180L123,173L125,166L121,159L117,153L115,153L107,146L100,143L100,138L91,125L92,119L91,116L92,113L94,114L95,109L98,105L102,104L100,98L100,95L104,92L103,91L96,91L92,87L87,74L85,72L84,66L84,66L83,66L73,62L70,64L66,63L60,60L54,60L50,64L49,64L48,64L39,73L34,74L31,79L31,82L31,90L29,96L28,105L19,113L0,122L0,153L10,156L28,169L38,177L42,181L74,211L100,215L103,214Z " data-iso="IRQ"/><path d="M430,0L431,2L440,0L430,0Z " data-iso="KGZ"/><path d="M131,205L133,203L128,202L131,205Z M127,199L123,197L119,196L114,198L106,211L103,214L106,215L118,217L120,223L121,225L134,225L133,224L130,217L128,210L122,209L126,205L129,206L127,199L127,199Z " data-iso="KWT"/><path d="M264,289L259,293L255,290L254,291L254,299L270,299L269,298L266,293L264,289Z M258,269L259,276L260,277L262,276L262,275L264,268L259,266L258,269Z " data-iso="OMN"/><path d="M330,195L334,198L339,204L343,212L349,217L358,220L364,226L366,236L365,237L368,240L372,239L372,250L367,250L361,252L352,261L351,267L350,272L350,279L349,279L355,279L360,278L362,279L373,276L381,275L382,273L398,273L402,271L406,270L412,269L416,268L423,265L426,262L428,263L433,268L434,275L442,276L446,286L450,291L450,147L446,144L440,145L434,151L430,157L423,157L419,160L415,165L414,168L415,182L416,183L414,186L398,193L385,195L382,198L374,197L357,200L336,196L330,195Z " data-iso="PAK"/><path d="M181,297L184,292L185,288L183,281L184,274L179,269L175,272L171,283L172,293L171,294L172,296L179,298L181,297Z " data-iso="QAT"/><path d="M179,298L172,296L171,294L170,293L167,289L167,285L162,279L161,270L162,266L159,262L161,260L158,257L154,255L151,251L145,246L146,245L141,242L139,237L135,229L134,227L134,225L121,225L120,223L118,217L106,215L103,214L100,215L74,211L42,181L38,177L28,169L10,156L0,153L0,299L182,299L180,298L179,298Z " data-iso="SAU"/><path d="M49,64L48,62L36,64L28,62L21,64L14,66L0,67L0,122L19,113L28,105L29,96L31,90L31,82L31,79L34,74L39,73L48,64L49,64Z " data-iso="SYR"/><path d="M421,0L418,4L414,5L407,6L405,8L405,12L410,14L410,15L415,15L417,17L416,21L419,26L422,28L422,30L417,41L417,47L417,49L417,49L422,52L426,48L434,43L439,46L441,37L442,36L450,35L450,31L449,30L450,28L450,0L440,0L431,2L430,0L421,0Z " data-iso="TJK"/><path d="M217,64L221,64L227,62L238,51L240,50L251,49L251,47L257,46L266,48L266,51L277,53L280,55L288,54L296,58L297,62L307,66L311,72L323,71L324,72L325,80L324,83L326,88L327,89L328,89L331,91L338,91L342,95L348,93L354,89L354,82L364,78L373,70L375,57L377,54L385,52L388,46L398,48L399,48L398,46L398,36L389,33L383,34L363,23L361,24L354,20L336,8L332,0L225,0L221,3L219,3L213,4L209,1L201,0L199,12L202,18L207,17L211,24L206,23L204,28L205,29L213,30L216,37L215,43L216,58L217,63L217,64Z " data-iso="TKM"/><path d="M49,64L50,64L54,60L60,60L66,63L70,64L73,62L83,66L84,66L84,66L83,62L82,61L78,52L77,52L80,44L78,42L78,35L77,33L78,29L76,24L80,25L84,18L87,20L87,20L87,20L87,19L86,19L80,13L75,13L72,11L72,3L73,0L0,0L0,67L14,66L21,64L28,62L36,64L48,62L49,64Z " data-iso="TUR"/><path d="M399,48L403,47L407,47L412,48L417,48L417,49L417,47L417,41L422,30L422,28L419,26L416,21L417,17L415,15L410,15L410,14L405,12L405,8L407,6L414,5L418,4L421,0L332,0L336,8L354,20L361,24L363,23L383,34L389,33L398,36L398,46L399,48Z " data-iso="UZB"/></g><g fill="red" fill-opacity="0.35" id="regions"><path d="M179,178L174,179L168,174L164,173L163,172L162,173L158,177L158,183L163,185L165,187L164,189L165,192L166,195L167,196L168,196L168,196L168,196L177,194L177,187L183,189L185,187L185,185L184,185L182,183L180,181L180,179L179,178L179,178Z " data-fips="IR05" data-fips-="" data-iso3="IRN" data-name="Kohgiluyeh and Buyer Ahmad"/><path d="M168,196L168,196L167,196L166,195L163,195L162,194L161,195L160,195L160,195L161,200L165,204L169,209L170,215L173,216L172,219L176,222L176,226L179,234L184,238L187,238L199,243L200,244L201,247L202,248L206,247L206,247L207,247L203,244L199,240L194,232L191,224L184,210L181,209L177,203L170,201L168,197L168,196Z " data-fips="IR22" data-fips-="" data-iso3="IRN" data-name="Bushehr"/><path d="M240,118L239,118L203,120L195,117L189,118L186,116L181,117L175,118L174,123L175,124L175,124L175,125L173,129L169,131L163,133L161,134L159,135L159,136L159,138L155,142L153,146L151,147L151,148L151,149L154,150L155,150L155,152L155,153L158,152L161,151L164,153L172,151L174,157L178,160L179,167L178,169L180,177L179,178L180,179L180,181L182,183L184,185L185,185L186,185L187,178L188,174L185,171L192,168L194,170L204,170L204,170L203,167L204,153L209,150L215,151L231,145L233,144L236,136L240,134L241,131L241,118L240,118Z " data-fips="IR28" data-fips-="" data-iso3="IRN" data-name="Esfahan"/><path d="M204,170L194,170L192,168L185,171L188,174L187,178L186,185L185,185L185,187L183,189L177,187L177,194L168,196L168,196L168,197L170,201L177,203L181,209L184,210L191,224L194,232L199,240L203,244L207,247L207,247L208,249L214,250L221,251L223,250L223,246L226,244L234,243L239,244L241,243L242,240L248,237L246,234L246,226L241,221L242,220L241,217L237,209L236,209L233,208L229,202L229,202L226,200L223,198L222,194L219,189L216,185L212,176L208,171L204,170L204,170Z " data-fips="IR07" data-fips-="" data-iso3="IRN" data-name="Fars"/><path d="M214,74L215,76L218,77L220,79L220,80L223,80L227,79L228,78L234,74L240,74L245,64L245,63L246,63L247,61L251,59L251,58L249,54L249,50L249,50L246,50L242,49L238,50L230,56L227,62L226,62L217,64L219,73L216,74L214,74Z " data-fips="IR37" data-fips-="IR17" data-iso3="IRN" data-name="Golestan"/><path d="M214,74L210,73L191,78L188,79L176,76L169,72L168,71L168,73L167,73L165,77L164,77L168,80L169,81L171,83L172,83L172,84L174,84L186,89L190,93L191,94L195,90L203,91L205,92L205,92L209,91L213,89L216,86L217,82L219,80L220,80L220,79L218,77L215,76L214,74L214,74Z " data-fips="IR17" data-fips-="IR35" data-iso3="IRN" data-name="Mazandaran"/><path d="M255,76L252,75L249,72L249,69L250,67L248,66L245,63L245,64L240,74L234,74L228,78L227,79L223,80L220,80L219,80L217,82L216,86L213,89L209,91L205,92L205,92L205,94L205,98L203,100L198,101L187,97L187,102L189,105L188,109L188,110L188,111L188,112L188,114L187,115L186,116L189,118L195,117L203,120L239,118L240,118L241,118L241,118L246,118L248,117L253,107L255,104L262,98L265,94L264,91L260,88L259,82L259,77L258,75L258,75L255,76Z " data-fips="IR25" data-fips-="" data-iso3="IRN" data-name="Semnan"/><path d="M168,83L166,84L168,88L167,91L164,95L164,95L164,96L169,95L171,97L173,100L171,104L171,104L176,104L179,105L188,110L188,109L189,105L187,102L187,97L198,101L203,100L205,98L205,94L205,92L203,91L195,90L191,94L190,93L186,89L174,84L172,84L168,83Z " data-fips="IR26" data-fips-="" data-iso3="IRN" data-name="Tehran"/><path d="M284,145L278,141L277,139L276,131L274,129L270,130L267,130L265,124L265,121L268,113L273,108L274,105L270,102L268,101L264,102L259,106L253,107L248,117L246,118L241,118L241,118L241,131L240,134L236,136L233,144L231,145L215,151L209,150L204,153L203,167L204,170L208,171L212,176L216,185L219,189L222,194L223,198L226,200L229,202L230,202L231,199L231,193L228,186L229,182L230,181L239,179L245,178L248,177L248,170L249,169L264,160L281,166L281,165L284,159L285,156L286,153L284,147L284,145L284,145Z " data-fips="IR40" data-fips-="IR31" data-iso3="IRN" data-name="Yazd"/><path d="M180,177L178,169L179,167L178,160L174,157L172,151L164,153L161,151L158,152L155,153L155,154L159,161L160,161L163,166L164,168L164,171L163,172L164,173L168,174L174,179L179,178L179,178L180,177Z " data-fips="IR03" data-fips-="" data-iso3="IRN" data-name="Chahar Mahall and Bakhtiari"/><path d="M127,151L125,154L124,158L124,159L122,160L122,160L125,165L123,173L122,180L128,180L128,190L130,191L130,193L133,195L135,199L137,198L142,198L141,192L142,190L146,190L146,192L144,191L147,196L150,196L151,198L157,195L159,195L160,195L161,195L162,194L163,195L166,195L165,192L164,189L165,187L163,185L158,183L158,177L162,173L163,172L164,171L164,168L163,166L160,161L159,161L155,154L155,153L155,152L155,150L154,150L151,149L151,148L150,148L147,148L144,145L137,143L131,144L130,144L128,150L127,151Z " data-fips="IR15" data-fips-="" data-iso3="IRN" data-name="Khuzestan"/><path d="M124,119L122,122L120,122L120,124L120,124L120,125L111,133L113,136L122,142L124,145L127,151L127,151L128,150L130,144L131,144L137,143L144,145L147,148L150,148L151,148L151,147L153,146L155,142L159,138L159,136L159,135L159,135L157,132L153,131L153,130L151,128L149,129L148,131L143,130L143,126L144,126L140,124L137,125L132,124L125,119L125,119L124,119Z " data-fips="IR23" data-fips-="" data-iso3="IRN" data-name="Lorestan"/><path d="M120,124L120,124L117,125L117,128L112,129L106,127L99,124L97,124L94,131L94,131L97,131L96,133L99,136L99,143L105,145L114,152L117,153L119,154L122,160L122,160L124,159L124,158L125,154L127,151L127,151L124,145L122,142L113,136L111,133L120,125L120,124Z " data-fips="IR10" data-fips-="" data-iso3="IRN" data-name="Ilam"/><path d="M259,254L257,252L252,253L253,256L245,259L245,261L254,257L255,258L259,254Z M241,217L242,220L241,221L246,226L246,234L248,237L242,240L241,243L239,244L234,243L226,244L223,246L223,250L221,251L214,250L208,249L207,247L207,247L206,247L206,247L202,248L203,248L208,252L214,254L218,258L230,260L233,260L234,262L237,262L242,258L246,257L249,254L251,252L261,248L268,249L271,252L274,258L275,265L276,266L279,273L282,274L286,275L288,274L295,276L296,276L305,276L307,278L310,278L311,278L307,272L303,268L304,268L304,267L303,266L301,267L290,264L292,254L289,251L279,250L278,242L276,237L272,233L271,230L265,230L264,231L259,230L256,226L256,224L255,217L252,218L249,220L245,218L242,217L241,217Z " data-fips="IR11" data-fips-="" data-iso3="IRN" data-name="Hormozgan"/><path d="M118,30L119,33L117,35L111,37L117,39L121,34L125,32L125,36L126,38L120,46L123,48L127,48L128,53L129,54L130,60L133,62L137,67L137,67L138,67L140,68L140,67L143,67L144,67L143,67L139,58L138,55L140,45L140,45L137,41L131,37L135,35L136,33L133,30L136,26L132,21L130,22L119,28L118,30L118,30Z " data-fips="IR32" data-fips-="" data-iso3="IRN" data-name="Ardebil"/><path d="M173,100L171,97L169,95L164,96L164,95L163,95L163,95L155,98L154,99L151,100L151,100L151,105L151,108L153,110L153,113L149,109L147,109L143,114L145,123L145,124L144,126L143,126L143,130L148,131L149,129L151,128L153,130L153,131L157,132L159,135L159,135L161,134L163,133L169,131L173,129L175,125L175,124L172,123L166,122L160,115L162,114L162,112L168,110L170,109L171,104L171,104L173,100Z " data-fips="IR34" data-fips-="IR24" data-iso3="IRN" data-name="Markazi"/><path d="M179,105L176,104L171,104L171,104L171,104L170,109L168,110L162,112L162,114L160,115L166,122L172,123L175,124L175,124L174,123L175,118L181,117L186,116L187,115L188,114L188,112L188,111L188,110L179,105Z " data-fips="IR39" data-fips-="IR24" data-iso3="IRN" data-name="Qom"/><path d="M131,93L131,96L128,95L127,96L129,101L131,104L132,107L128,108L127,108L127,108L124,114L128,115L129,118L125,118L125,119L125,119L132,124L137,125L140,124L144,126L145,124L145,123L143,114L147,109L149,109L153,113L153,110L151,108L151,105L151,100L151,100L151,99L144,96L142,95L142,96L142,96L141,97L134,96L133,95L131,93Z " data-fips="IR09" data-fips-="IR27" data-iso3="IRN" data-name="Hamadan"/><path d="M143,67L140,67L140,68L138,67L137,67L137,67L136,68L130,67L125,67L119,74L119,75L121,79L121,80L128,81L129,91L133,94L133,95L134,96L141,97L142,96L142,96L141,94L151,87L151,85L146,78L148,75L149,74L148,71L147,70L146,69L144,67L143,67Z " data-fips="IR36" data-fips-="IR27" data-iso3="IRN" data-name="Zanjan"/><path d="M162,77L158,79L152,78L150,75L149,74L148,75L146,78L151,85L151,87L141,94L142,96L142,95L144,96L151,99L151,100L154,99L155,98L163,95L163,95L164,95L164,95L167,91L168,88L166,84L168,83L172,84L172,83L171,83L169,81L168,80L164,77L162,77Z " data-fips="IR38" data-fips-="IR27" data-iso3="IRN" data-name="Qazvin"/><path d="M93,87L97,83L102,80L105,80L113,80L118,82L120,79L121,79L119,75L115,75L112,70L106,72L97,67L93,64L91,50L89,46L93,37L96,33L96,33L93,29L92,28L89,24L88,22L84,18L82,19L81,24L76,24L76,27L79,35L78,41L80,43L78,48L76,52L82,55L81,57L83,62L84,63L84,68L85,71L84,72L86,73L87,80L89,80L91,88L93,87L93,87Z " data-fips="IR01" data-fips-="" data-iso3="IRN" data-name="West Azarbaijan"/><path d="M117,31L116,30L106,35L96,33L96,33L93,37L89,46L91,50L93,64L97,67L106,72L112,70L115,75L119,75L119,74L125,67L130,67L136,68L137,67L137,67L137,67L133,62L130,60L129,54L128,53L127,48L123,48L120,46L126,38L125,36L125,32L121,34L117,39L111,37L117,35L119,33L118,30L117,31Z " data-fips="IR01" data-fips-="IR02|IR33" data-iso3="IRN" data-name="East Azarbaijan"/><path d="M102,101L102,104L98,104L96,109L95,109L95,114L92,114L91,116L92,119L89,124L94,131L94,131L97,124L99,124L106,127L112,129L117,128L117,125L120,124L120,124L120,124L120,122L122,122L124,119L125,119L125,118L129,118L128,115L124,114L127,108L127,108L127,108L122,104L110,111L105,103L102,101L102,101Z " data-fips="IR13" data-fips-="" data-iso3="IRN" data-name="Kermanshah"/><path d="M167,71L165,69L163,64L159,63L152,62L147,60L145,57L144,45L141,45L140,45L138,55L139,58L143,67L144,67L146,69L147,70L148,71L149,74L150,75L152,78L158,79L162,77L164,77L165,77L167,73L168,73L168,71L167,71Z " data-fips="IR08" data-fips-="" data-iso3="IRN" data-name="Gilan"/><path d="M121,79L120,79L118,82L113,80L105,80L102,80L97,83L93,87L94,88L97,91L101,90L105,92L100,94L99,97L102,101L102,101L105,103L110,111L122,104L127,108L127,108L128,108L132,107L131,104L129,101L127,96L128,95L131,96L131,93L133,95L133,94L129,91L128,81L121,80L121,79Z " data-fips="IR16" data-fips-="" data-iso3="IRN" data-name="Kordestan"/><path d="M284,145L284,147L286,153L285,156L284,159L281,165L281,166L299,173L301,174L308,183L309,182L320,178L326,181L330,185L333,183L331,180L331,174L332,165L328,165L326,151L321,138L321,135L325,128L320,127L319,126L318,120L318,118L307,119L305,119L304,116L293,119L290,119L291,121L291,129L294,131L287,138L286,141L285,145L284,145Z " data-fips="IR41" data-fips-="IR30" data-iso3="IRN" data-name="South Khorasan"/><path d="M272,52L269,55L276,56L279,59L279,61L277,67L279,68L279,70L278,74L274,74L264,69L262,69L258,72L258,75L258,75L258,75L259,77L259,82L260,88L264,91L265,94L262,98L255,104L253,107L259,106L264,102L268,101L270,102L274,105L273,108L268,113L265,121L265,124L267,130L270,130L274,129L276,131L277,139L278,141L284,145L284,145L285,145L286,141L287,138L294,131L291,129L291,121L290,119L293,119L304,116L305,119L307,119L318,118L318,118L320,114L323,113L320,110L324,107L326,98L325,96L326,93L326,84L325,83L325,80L324,76L323,71L311,72L305,65L304,65L296,61L295,57L284,54L282,56L279,55L278,53L272,52L272,52Z " data-fips="IR42" data-fips-="IR30" data-iso3="IRN" data-name="Razavi Khorasan"/><path d="M249,50L249,54L251,58L251,59L247,61L246,63L245,63L248,66L250,67L249,69L249,72L252,75L255,76L258,75L258,75L258,72L262,69L264,69L274,74L278,74L279,70L279,68L277,67L279,61L279,59L276,56L269,55L272,52L272,52L268,51L260,47L258,46L251,48L249,50L249,50Z " data-fips="IR43" data-fips-="" data-iso3="IRN" data-name="North Khorasan"/><path d="M332,165L331,174L331,180L333,183L330,185L326,181L320,178L309,182L308,183L306,198L308,202L309,209L307,211L309,217L304,221L301,222L303,227L302,229L301,245L302,252L304,255L304,267L304,267L304,268L303,268L307,272L311,278L311,277L315,277L317,278L324,277L326,278L330,278L332,276L334,278L340,279L347,281L349,278L350,270L351,267L352,260L366,250L373,250L374,241L372,238L367,240L366,240L366,236L363,226L363,221L361,222L357,219L355,218L347,216L338,202L330,195L344,175L342,168L340,166L332,165Z " data-fips="IR04" data-fips-="" data-iso3="IRN" data-name="Sistan and Baluchestan"/><path d="M264,160L249,169L248,170L248,177L245,178L239,179L230,181L229,182L228,186L231,193L231,199L230,202L229,202L229,202L233,208L236,209L237,209L241,217L242,217L245,218L249,220L252,218L255,217L256,224L256,226L259,230L264,231L265,230L271,230L272,233L276,237L278,242L279,250L289,251L292,254L290,264L301,267L303,266L304,267L304,267L304,255L302,252L301,245L302,229L303,227L301,222L304,221L309,217L307,211L309,209L308,202L306,198L308,183L301,174L299,173L281,166L264,160Z " data-fips="IR29" data-fips-="" data-iso3="IRN" data-name="Kerman"/></g></svg>