<?xml version="1.0" encoding="UTF-8"?><!DOCTYPE svg  PUBLIC '-//W3C//DTD SVG 1.1//EN'  'http://www.w3.org/Graphics/SVG/1.1/DTD/svg11.dtd'><svg enable_background="new 0 0 450 301" height="301px" style="stroke-linejoin: round; stroke:#000; fill:#f6f3f0;" version="1.1" viewBox="0 0 450 301" width="450px" xmlns="http://www.w3.org/2000/svg" xmlns:xlink="http://www.w3.org/1999/xlink"><defs><style type="text/css"><![CDATA[path { fill-rule: evenodd; }
#context path { fill: #eee; stroke: #bbb; } ]]></style></defs><metadata><views><view h="301.0" padding="0.06" w="450"><proj id="laea" lat0="37.0341222191" lon0="43.0157152588"/><bbox h="114.27" w="115.44" x="950.1" y="989.6"/><llbbox lat0="-90" lat1="90" lon0="-180" lon1="180"/></view></views></metadata><g id="context"><path d="M238,0L245,5L245,14L248,16L250,23L250,23L250,24L253,34L256,38L257,45L267,60L269,60L273,62L275,65L287,65L290,66L284,70L283,72L283,78L286,81L287,85L287,87L281,91L275,98L274,106L271,106L269,111L272,115L272,119L270,123L270,127L278,137L280,136L282,140L289,149L288,153L288,157L301,161L316,172L321,172L325,176L328,182L337,193L333,206L334,219L343,219L344,236L354,243L356,249L359,251L361,251L363,249L370,245L369,237L372,235L371,233L375,233L378,235L373,239L384,244L388,247L399,241L402,241L405,250L412,257L416,261L419,265L420,271L421,273L427,276L427,282L431,284L433,286L434,293L438,299L450,299L450,26L442,29L431,30L414,28L409,26L398,20L393,16L387,8L383,7L367,6L362,4L358,0L238,0Z " data-iso="IRN"/><path d="M249,23L244,23L237,29L236,29L234,19L230,18L226,21L217,20L207,16L203,18L198,17L195,20L190,24L188,25L188,25L187,26L178,37L173,41L163,44L161,45L159,54L158,58L161,69L161,72L157,83L156,99L151,111L149,112L143,114L98,139L90,143L92,150L97,172L95,172L96,178L102,176L103,180L99,184L105,185L132,191L135,192L165,211L178,219L192,231L216,251L252,280L253,280L299,283L304,282L308,276L314,267L318,258L320,252L325,249L330,248L337,249L344,251L344,250L348,249L354,252L357,252L359,251L356,249L354,243L344,236L343,219L334,219L333,206L337,193L328,182L325,176L321,172L316,172L301,161L288,157L288,153L289,149L282,140L280,136L278,137L270,127L270,123L272,119L272,115L269,111L271,106L274,106L275,98L281,91L287,87L287,85L286,81L283,78L283,72L284,70L290,66L287,65L275,65L273,62L269,60L267,60L257,45L256,38L253,34L250,24L250,23L249,23Z " data-iso="IRQ"/><path d="M1,169L2,162L3,160L7,159L8,159L9,157L12,152L11,147L12,146L12,138L12,136L11,137L3,142L1,146L0,146L0,169L1,169Z " data-iso="ISR"/><path d="M99,184L103,180L102,176L96,178L95,172L97,172L92,150L90,143L83,147L70,154L35,174L23,171L20,167L15,166L11,160L8,159L7,159L3,160L2,162L1,169L1,174L0,179L0,179L0,272L8,273L21,264L28,254L29,253L49,250L64,235L38,201L45,199L94,187L99,184Z " data-iso="JOR"/><path d="M352,262L354,257L351,252L349,252L347,257L349,261L352,262Z M344,251L337,249L330,248L325,249L320,252L318,258L314,267L308,276L304,282L309,282L330,284L332,289L334,295L337,298L359,297L357,294L353,286L351,283L347,271L345,271L341,271L337,271L344,263L349,264L348,263L343,252L344,251Z " data-iso="KWT"/><path d="M12,136L13,135L15,133L15,129L19,124L26,124L24,122L33,112L31,105L29,98L26,97L18,98L18,101L13,104L8,110L7,117L4,121L0,129L0,146L1,146L3,142L11,137L12,136Z " data-iso="LBN"/><path d="M359,297L337,298L334,295L332,289L330,284L309,282L304,282L299,283L253,280L252,280L216,251L192,231L178,219L165,211L135,192L132,191L105,185L99,184L94,187L45,199L38,201L64,235L49,250L29,253L28,254L21,264L8,273L0,272L0,299L360,299L359,297Z " data-iso="SAU"/><path d="M186,21L180,22L172,24L166,25L155,25L152,24L145,24L138,27L127,33L110,37L103,37L93,35L86,30L80,28L73,31L60,36L51,35L48,31L40,29L40,30L36,40L39,48L33,48L32,49L31,54L27,56L25,60L19,56L17,58L14,67L18,72L18,79L16,84L16,91L18,98L26,97L29,98L31,105L33,112L24,122L26,124L19,124L15,129L15,133L13,135L12,136L12,138L12,146L11,147L12,152L9,157L8,159L11,160L15,166L20,167L23,171L35,174L70,154L83,147L90,143L98,139L143,114L149,112L151,111L156,99L157,83L161,72L161,69L158,58L159,54L161,45L163,44L173,41L178,37L187,26L188,25L188,25L186,21Z " data-iso="SYR"/><path d="M19,56L25,60L27,56L31,54L32,49L33,48L39,48L36,40L40,30L40,29L48,31L51,35L60,36L73,31L80,28L86,30L93,35L103,37L110,37L127,33L138,27L145,24L152,24L155,25L166,25L172,24L180,22L186,21L188,25L190,24L195,20L198,17L203,18L207,16L217,20L226,21L230,18L234,19L236,29L237,29L244,23L249,23L250,23L250,23L248,16L245,14L245,5L238,0L0,0L0,31L7,34L11,34L14,30L25,25L27,27L28,33L19,41L17,44L20,54L19,56Z " data-iso="TUR"/><path d="M1,169L0,169L0,179L0,179L1,174L1,169Z " data-iso="WEB"/></g><g fill="red" fill-opacity="0.35" id="regions"><path d="M188,26L189,28L191,29L194,35L196,35L200,38L204,36L209,35L212,30L216,32L222,33L221,29L221,27L225,28L225,28L226,27L231,23L232,21L232,18L231,18L227,21L216,20L208,16L197,17L194,22L188,26L188,26Z " data-fips="IZ08" data-fips-="" data-iso3="IRQ" data-name="Dihok"/><path d="M247,64L244,65L241,65L232,68L229,66L224,70L224,75L220,76L219,78L215,79L214,78L213,78L211,79L214,82L215,85L214,85L217,89L228,96L234,98L239,102L241,96L245,92L245,88L245,88L247,87L250,84L250,80L251,79L248,67L247,64L247,64Z " data-fips="IZ13" data-fips-="" data-iso3="IRQ" data-name="At-Ta'mim"/><path d="M232,18L232,21L231,23L226,27L225,28L227,29L234,33L236,34L238,37L234,41L226,44L226,45L218,57L217,59L213,62L214,63L212,69L213,70L213,70L214,76L214,78L214,78L215,79L219,78L220,76L224,75L224,70L229,66L232,68L241,65L244,65L247,64L247,64L247,64L250,64L256,64L250,59L246,55L248,54L246,52L244,48L247,46L248,46L256,43L256,43L257,38L256,36L251,34L253,31L253,28L251,27L250,23L246,22L238,28L238,29L235,26L236,21L232,18L232,18Z " data-fips="IZ11" data-fips-="" data-iso3="IRQ" data-name="Arbil"/><path d="M187,27L174,40L173,41L162,44L159,50L158,59L161,65L161,71L160,75L156,87L156,87L160,88L167,89L179,94L183,94L185,94L191,94L191,91L194,90L205,90L205,88L201,79L202,77L205,75L213,70L213,70L212,69L214,63L213,62L217,59L218,57L226,45L226,44L234,41L238,37L236,34L234,33L227,29L225,28L225,28L221,27L221,29L222,33L216,32L212,30L209,35L204,36L200,38L196,35L194,35L191,29L189,28L188,26L187,27Z " data-fips="IZ15" data-fips-="" data-iso3="IRQ" data-name="Ninawa"/><path d="M214,78L214,76L213,70L213,70L213,70L205,75L202,77L201,79L205,88L205,90L194,90L191,91L191,94L191,94L191,101L192,106L199,111L202,109L203,115L206,123L208,125L216,133L233,138L234,142L236,143L238,143L239,141L242,139L242,130L243,127L239,125L240,121L244,116L244,114L244,106L246,107L249,106L250,104L255,98L256,97L256,94L256,93L252,91L248,91L245,88L245,88L245,92L241,96L239,102L234,98L228,96L217,89L214,85L215,85L214,82L211,79L213,78L214,78L214,78Z " data-fips="IZ18" data-fips-="" data-iso3="IRQ" data-name="Sala ad-Din"/><path d="M240,179L238,180L236,180L223,184L226,187L225,190L221,192L217,193L211,201L210,205L205,220L198,236L200,238L200,238L227,260L234,249L239,234L241,230L247,225L250,220L252,208L246,206L243,203L247,201L246,195L245,191L248,186L249,184L247,184L245,182L242,185L240,183L241,180L240,178L240,179Z " data-fips="IZ17" data-fips-="" data-iso3="IRQ" data-name="An-Najaf"/><path d="M230,163L223,164L211,171L211,173L217,180L222,183L223,184L236,180L238,180L240,179L240,178L240,178L237,170L238,165L236,164L235,164L230,163Z " data-fips="IZ12" data-fips-="IZ06" data-iso3="IRQ" data-name="Karbala'"/><path d="M239,145L239,145L239,145L237,148L237,149L239,151L239,151L239,151L240,151L240,151L245,151L245,150L246,146L244,145L240,143L240,145L239,145Z " data-fips="IZ07" data-fips-="" data-iso3="IRQ" data-name="Baghdad"/><path d="M333,211L320,212L318,213L318,215L319,218L319,225L318,230L318,233L313,233L304,236L304,238L305,243L308,246L309,249L307,262L307,270L305,273L305,281L309,276L315,264L317,259L322,251L326,249L335,248L350,250L356,252L359,252L357,250L355,243L349,240L347,236L344,236L343,219L334,219L333,211Z " data-fips="IZ02" data-fips-="" data-iso3="IRQ" data-name="Al-Basrah"/><path d="M252,208L250,220L247,225L241,230L239,234L234,249L227,260L252,280L253,280L299,283L304,282L305,281L305,273L307,270L307,262L309,249L308,246L305,243L304,238L304,236L303,236L298,229L293,228L280,226L279,222L280,218L281,218L280,214L282,210L281,205L282,201L281,200L281,200L265,198L260,200L262,202L259,210L259,213L257,212L252,208Z " data-fips="IZ03" data-fips-="" data-iso3="IRQ" data-name="Al-Muthannia"/><path d="M264,176L259,180L254,182L252,185L250,184L249,184L248,186L245,191L246,195L247,201L243,203L246,206L252,208L257,212L259,213L259,210L262,202L260,200L265,198L281,200L281,200L280,196L279,192L279,192L279,191L279,190L277,187L278,187L274,185L270,181L269,178L266,177L264,176L264,176Z " data-fips="IZ04" data-fips-="" data-iso3="IRQ" data-name="Al-Qadisiyah"/><path d="M313,215L309,215L307,212L306,209L304,207L303,203L299,198L296,189L295,188L288,188L286,189L286,189L282,190L279,190L279,191L279,192L279,192L280,196L281,200L282,201L281,205L282,210L280,214L281,218L280,218L279,222L280,226L293,228L298,229L303,236L304,236L313,233L318,233L318,230L319,225L319,218L318,215L313,215Z " data-fips="IZ09" data-fips-="" data-iso3="IRQ" data-name="Dhi-Qar"/><path d="M302,161L300,163L298,174L303,184L302,188L298,188L295,188L296,189L299,198L303,203L304,207L306,209L307,212L309,215L313,215L318,215L318,213L320,212L333,211L333,206L337,194L332,186L327,182L324,174L320,172L317,173L315,171L302,161L302,161Z " data-fips="IZ14" data-fips-="" data-iso3="IRQ" data-name="Maysan"/><path d="M284,140L283,143L277,147L275,150L271,154L261,152L254,151L246,157L246,157L245,157L247,163L250,163L257,166L260,173L264,176L264,176L266,177L269,178L270,181L274,185L278,187L277,187L279,190L282,190L286,189L286,189L288,188L295,188L298,188L302,188L303,184L298,174L300,163L302,161L299,160L293,157L288,158L287,152L288,152L290,150L290,148L286,144L284,140L284,140Z " data-fips="IZ16" data-fips-="" data-iso3="IRQ" data-name="Wasit"/><path d="M256,43L248,46L247,46L244,48L246,52L248,54L246,55L250,59L256,64L250,64L247,64L247,64L248,67L251,79L250,80L250,84L247,87L245,88L248,91L252,91L256,93L256,94L256,97L258,98L262,100L262,107L264,107L269,103L271,97L273,95L276,88L278,91L278,95L278,95L280,93L281,90L287,88L287,84L286,81L282,77L283,70L289,68L291,66L290,65L287,66L285,64L278,66L276,66L271,61L268,59L265,61L265,56L263,51L264,51L262,46L258,47L256,43L256,43Z " data-fips="IZ05" data-fips-="" data-iso3="IRQ" data-name="As-Sulaymaniyah"/><path d="M256,97L255,98L250,104L249,106L246,107L244,106L244,114L244,116L240,121L239,125L243,127L242,130L242,139L239,141L238,143L239,145L239,145L240,145L240,143L244,145L246,146L245,150L245,152L245,153L246,155L246,156L246,157L246,157L254,151L261,152L271,154L275,150L277,147L283,143L284,140L284,140L281,140L280,136L277,136L273,131L271,126L268,125L272,120L270,109L271,106L275,102L274,102L278,95L278,95L278,91L276,88L273,95L271,97L269,103L264,107L262,107L262,100L258,98L256,97Z " data-fips="IZ10" data-fips-="" data-iso3="IRQ" data-name="Diyala"/><path d="M156,93L149,112L143,114L90,143L97,172L95,172L102,178L103,180L99,184L132,191L178,219L190,229L198,236L205,220L210,205L211,201L217,193L221,192L225,190L226,187L223,184L222,183L217,180L211,173L211,171L223,164L230,163L235,164L235,161L233,159L232,154L226,152L231,151L238,152L239,151L239,151L237,149L237,148L239,145L239,145L239,145L239,145L238,143L236,143L234,142L233,138L216,133L208,125L206,123L203,115L202,109L199,111L192,106L191,101L191,94L191,94L185,94L183,94L179,94L167,89L160,88L156,87L156,93Z " data-fips="IZ01" data-fips-="" data-iso3="IRQ" data-name="Al-Anbar"/><path d="M238,152L231,151L226,152L232,154L233,159L235,161L235,164L236,164L238,165L237,170L240,178L240,178L241,180L240,183L242,185L245,182L247,184L249,184L250,184L252,185L254,182L259,180L264,176L264,176L264,176L260,173L257,166L250,163L247,163L245,157L246,157L246,156L246,155L245,153L245,152L245,151L240,151L240,151L239,151L239,151L238,152Z " data-fips="IZ06" data-fips-="" data-iso3="IRQ" data-name="Babil"/></g></svg>