<?xml version="1.0" encoding="UTF-8"?><!DOCTYPE svg  PUBLIC '-//W3C//DTD SVG 1.1//EN'  'http://www.w3.org/Graphics/SVG/1.1/DTD/svg11.dtd'><svg enable_background="new 0 0 450 301" height="301px" style="stroke-linejoin: round; stroke:#000; fill:#f6f3f0;" version="1.1" viewBox="0 0 450 301" width="450px" xmlns="http://www.w3.org/2000/svg" xmlns:xlink="http://www.w3.org/1999/xlink"><defs><style type="text/css"><![CDATA[path { fill-rule: evenodd; }
#context path { fill: #eee; stroke: #bbb; } ]]></style></defs><metadata><views><view h="301.0" padding="0.06" w="450"><proj id="laea" lat0="65.6279324408" lon0="-22.5588599256"/><bbox h="46.97" w="63.9" x="986.44" y="983.69"/><llbbox lat0="-90" lat1="90" lon0="-180" lon1="180"/></view></views></metadata><g id="context"><path d="M330,44L324,40L323,35L313,23L312,23L305,24L298,28L297,30L301,43L300,50L296,52L292,56L290,56L285,54L279,51L270,68L268,70L265,68L259,60L256,58L247,57L243,58L243,63L249,77L251,83L251,87L250,90L245,79L239,73L234,65L228,58L226,57L215,64L209,66L207,73L208,87L207,90L203,90L194,78L189,69L183,65L180,67L178,71L178,77L179,87L179,95L178,103L173,107L170,101L165,102L161,108L159,115L157,119L155,132L151,120L145,117L145,116L147,107L143,103L139,99L137,96L144,98L146,95L148,84L145,79L141,77L145,72L138,67L127,54L120,50L112,41L108,40L103,41L98,40L96,41L90,48L95,49L100,49L104,48L105,51L109,52L109,54L102,54L96,56L96,58L100,63L112,69L112,80L112,82L108,82L106,84L106,79L105,73L103,72L93,76L93,70L92,68L84,61L80,60L77,61L78,72L70,69L69,74L77,84L70,83L67,86L71,91L75,93L83,93L84,94L78,98L74,99L64,93L58,93L61,98L61,104L66,110L62,109L56,105L53,104L50,105L46,111L46,113L54,114L60,118L64,121L67,120L74,116L90,111L97,108L100,110L105,109L113,111L116,115L126,114L131,118L129,122L121,126L116,130L111,135L110,138L113,141L125,143L134,138L134,139L130,149L116,150L104,151L100,150L97,153L90,156L87,153L77,157L70,160L64,159L60,161L59,163L64,172L66,173L70,172L77,168L82,167L102,170L111,169L119,176L116,183L121,189L123,190L129,187L138,181L140,184L137,185L128,191L127,196L128,201L130,201L125,207L129,207L139,200L145,202L140,203L135,209L133,215L129,220L125,226L121,229L110,232L105,226L103,225L102,235L103,242L105,245L106,245L114,244L146,243L148,241L153,236L156,236L162,244L166,246L171,247L172,249L176,251L182,246L184,249L182,250L179,253L183,259L190,265L199,265L205,266L216,270L224,273L245,274L257,270L260,268L258,265L260,263L263,266L265,266L269,262L271,258L270,254L273,248L279,245L297,239L303,236L312,233L318,228L325,218L330,212L338,206L348,198L356,194L364,193L367,191L371,186L376,182L379,179L382,172L382,168L380,164L382,161L381,155L384,157L390,157L395,151L398,144L396,134L398,132L402,131L404,129L404,122L403,121L397,118L399,110L397,110L394,105L398,98L398,92L392,91L390,88L387,86L379,85L375,86L370,91L374,84L374,82L369,74L359,78L356,77L358,72L360,67L360,62L357,55L355,55L352,57L348,55L344,53L344,51L346,46L349,38L352,33L355,32L355,30L350,30L346,32L341,39L333,44L330,44Z " data-iso="ISL"/></g><g fill="red" fill-opacity="0.35" id="regions"><path d="M108,104L108,104L108,104L108,104Z " data-fips="IC04" data-fips-="" data-iso3="ISL" data-name="Vestfirir"/><path d="M123,99L126,100L131,107L131,109L135,113L137,113L139,114L138,114L136,118L135,118L136,117L128,119L128,116L126,113L122,115L120,119L114,115L115,113L118,112L121,110L121,108L119,110L115,112L113,110L112,113L111,113L110,108L108,103L108,104L108,104L108,104L108,104L108,104L108,108L107,111L106,109L105,112L103,104L102,104L102,107L103,113L97,111L100,107L98,105L97,108L96,107L96,107L97,105L95,96L94,94L96,95L111,99L115,100L120,97L121,98L123,99Z " data-fips="IC04" data-fips-="" data-iso3="ISL" data-name="Reykhlahreppur"/><path d="M127,53L122,53L120,52L118,48L117,45L114,44L113,39L112,41L107,38L104,42L100,39L96,38L96,39L90,40L93,46L88,46L91,50L96,51L99,46L100,46L99,49L101,49L104,47L103,51L105,52L111,50L108,53L110,54L107,56L101,54L95,56L96,60L98,62L106,65L111,69L111,73L114,80L114,81L112,87L111,87L112,84L112,80L109,77L105,86L107,77L106,74L102,70L101,72L101,78L100,81L100,76L99,74L97,78L99,73L97,73L97,72L92,77L95,72L94,69L90,69L90,66L84,60L79,58L77,60L76,60L81,65L88,77L88,78L90,85L92,86L94,93L94,94L96,95L111,99L115,100L120,97L121,98L121,97L120,93L126,89L126,86L125,82L125,74L123,66L120,63L127,54L127,53Z " data-fips="IC19" data-fips-="" data-iso3="ISL" data-name="Vestfirir"/><path d="M156,140L156,136L153,128L152,121L150,116L148,115L145,117L147,115L149,109L148,105L143,109L145,105L144,102L139,103L137,97L135,94L136,93L140,98L144,99L148,95L143,92L146,91L147,84L148,83L148,79L147,79L144,80L146,77L145,77L140,78L143,76L148,75L147,73L145,72L141,73L140,70L141,69L140,67L137,68L138,71L136,73L137,70L134,60L131,59L128,57L128,56L127,54L120,63L123,66L125,74L125,82L126,86L126,89L120,93L121,97L121,98L123,99L126,100L131,107L131,109L135,113L137,113L139,114L139,115L139,125L143,124L146,130L150,134L150,145L151,148L153,151L153,152L156,154L157,154L158,155L160,155L160,153L158,147L157,142L157,139L156,140Z " data-fips="IC30" data-fips-="" data-iso3="ISL" data-name="rneshreppur"/><path d="M77,98L82,100L77,102L75,104L76,101L73,97L60,89L57,91L57,94L59,97L65,102L67,105L63,103L58,101L61,106L64,110L67,111L64,111L62,109L52,102L49,104L49,108L43,112L45,114L55,113L60,115L63,121L64,121L70,119L72,116L73,116L78,115L81,113L83,115L85,115L88,108L89,110L94,110L96,106L96,107L97,105L95,96L94,94L94,96L92,98L89,98L83,99L81,98L79,99L77,97L77,98Z " data-fips="IC34" data-fips-="" data-iso3="ISL" data-name="Vesturbygg"/><path d="M94,93L92,86L90,85L88,78L88,77L81,65L76,60L76,60L75,63L79,63L76,64L74,67L80,72L77,72L72,69L70,68L68,71L68,73L74,81L83,85L77,83L75,84L70,81L66,82L68,89L70,92L72,91L75,93L83,94L88,92L86,93L86,95L79,95L77,97L77,97L79,99L81,98L83,99L89,98L92,98L94,96L94,94L94,93Z " data-fips="IC36" data-fips-="" data-iso3="ISL" data-name="safjararbr"/><path d="M355,162L351,163L351,164L348,171L336,177L331,181L327,189L321,189L300,186L287,221L287,241L287,242L289,241L293,238L296,240L300,239L301,233L302,240L304,233L308,238L308,234L313,232L322,224L321,222L324,218L327,216L328,216L333,210L333,209L341,205L339,205L350,198L348,197L352,196L352,191L351,188L348,187L355,191L357,196L360,194L367,196L369,194L368,191L371,186L373,182L377,181L380,179L380,179L372,177L370,174L365,175L363,172L361,164L358,163L357,162L355,162Z " data-fips="IC06" data-fips-="" data-iso3="ISL" data-name="Sveitarflagi Hornafjrur"/><path d="M317,106L317,107L317,110L319,112L322,116L321,118L317,125L317,127L317,137L318,138L317,142L311,147L306,150L305,155L304,158L306,164L305,172L300,186L321,189L327,189L331,181L336,177L348,171L351,164L351,163L355,162L357,162L358,160L361,149L361,144L363,138L364,131L369,124L371,120L375,115L375,111L375,102L378,100L380,102L385,103L383,106L383,110L384,112L383,114L381,114L383,119L389,117L394,116L399,112L402,111L402,110L398,109L393,110L389,113L389,111L396,108L396,106L394,105L397,104L397,100L398,99L398,92L395,89L394,90L392,92L391,89L390,88L389,85L384,86L376,83L378,86L375,84L374,84L370,93L368,94L370,90L374,83L375,83L372,74L371,73L368,76L361,78L358,81L356,80L358,75L356,76L357,73L359,71L362,65L362,61L359,56L357,53L355,54L353,57L345,56L346,55L342,52L343,50L346,49L347,47L341,47L339,54L339,66L340,69L340,72L339,75L330,82L329,84L331,93L331,98L320,97L318,105L317,106Z " data-fips="IC20" data-fips-="" data-iso3="ISL" data-name="Austurland"/><path d="M357,162L358,163L361,164L363,172L365,175L370,174L372,177L380,179L380,178L383,167L383,167L381,170L379,171L381,167L378,163L380,161L386,161L382,159L378,152L379,152L382,155L383,157L385,159L393,156L394,154L392,151L394,150L398,149L398,147L394,147L395,145L399,146L400,144L397,141L392,141L396,139L402,138L401,137L395,135L394,132L383,133L383,132L390,131L390,128L398,134L405,131L404,129L406,127L405,118L404,120L401,122L398,121L401,120L402,117L398,118L396,117L400,115L402,112L402,111L399,112L394,116L389,117L383,119L381,114L383,114L384,112L383,110L383,106L385,103L380,102L378,100L375,102L375,111L375,115L371,120L369,124L364,131L363,138L361,144L361,149L358,160L357,162Z " data-fips="IC31" data-fips-="" data-iso3="ISL" data-name="Austur-Hra"/><path d="M185,63L183,63L180,65L176,67L175,71L177,74L179,87L182,91L182,100L179,105L179,110L178,105L174,107L177,109L176,113L176,113L178,118L177,126L181,132L190,156L199,156L200,158L200,159L196,164L194,167L203,170L213,167L222,167L231,162L229,156L226,150L222,145L219,140L211,125L201,114L202,112L198,105L197,106L195,103L193,101L191,91L190,89L187,80L183,70L185,63L185,63Z " data-fips="IC05" data-fips-="" data-iso3="ISL" data-name="Norurland vestra"/><path d="M218,59L223,66L226,69L226,73L226,77L225,80L223,84L226,88L229,91L229,95L228,98L226,103L228,106L233,109L231,115L233,117L234,119L237,121L239,125L241,129L244,130L246,132L247,141L247,146L247,152L246,158L249,161L252,163L262,167L262,164L262,154L263,136L259,118L260,114L261,113L261,105L259,102L256,94L254,94L254,95L253,97L252,94L249,90L249,87L247,80L246,80L243,74L236,73L237,68L236,64L234,63L233,64L233,62L231,57L227,60L228,56L225,57L224,58L222,56L218,59L218,59Z " data-fips="IC09" data-fips-="" data-iso3="ISL" data-name="Akureyri"/><path d="M247,152L247,146L247,141L246,132L244,130L241,129L239,125L237,121L234,119L233,117L231,115L233,109L228,106L226,103L228,98L229,95L229,91L226,88L223,84L225,80L226,77L226,73L226,69L223,66L218,59L218,60L218,64L219,66L216,64L216,65L214,64L210,65L207,68L207,73L205,76L207,78L209,85L209,91L205,93L200,85L200,83L194,80L188,67L186,63L185,63L183,70L187,80L190,89L191,91L193,101L195,103L197,106L198,105L202,112L201,114L211,125L219,140L222,145L226,150L229,156L231,162L246,158L247,152Z " data-fips="IC28" data-fips-="" data-iso3="ISL" data-name="Akrahreppur"/><path d="M176,113L174,112L171,106L170,109L170,103L169,98L167,99L165,102L161,105L159,113L160,118L161,125L160,125L158,118L156,118L155,132L157,139L157,139L157,142L158,147L160,153L160,155L161,156L168,159L169,159L182,156L190,156L181,132L177,126L178,118L176,113L176,113Z " data-fips="IC35" data-fips-="" data-iso3="ISL" data-name="Hnaing vestra"/><path d="M284,51L283,57L285,69L293,69L295,78L295,80L299,81L306,79L307,88L311,91L314,95L317,105L317,106L318,105L320,97L331,98L331,93L329,84L330,82L339,75L340,72L340,69L339,66L339,54L341,47L347,47L348,45L346,39L346,38L350,36L352,33L358,30L359,28L353,30L350,29L348,30L345,35L343,37L343,39L336,41L337,46L335,50L325,45L325,42L322,40L324,36L322,31L319,31L316,30L315,26L316,25L312,22L310,23L308,22L305,26L302,25L300,26L298,25L297,27L296,26L295,28L298,32L297,33L298,37L302,44L301,47L302,54L299,51L299,50L294,53L295,56L294,55L291,56L292,54L286,56L285,52L284,51Z " data-fips="IC21" data-fips-="" data-iso3="ISL" data-name="Kelduneshreppur"/><path d="M284,51L279,50L279,51L276,54L276,57L274,59L271,68L266,69L268,74L265,69L264,68L262,64L257,60L254,57L251,58L243,56L242,62L245,71L248,77L250,78L252,83L251,91L253,93L254,94L256,94L259,102L261,105L261,113L260,114L259,118L263,136L262,154L262,164L262,167L280,176L300,186L305,172L306,164L304,158L305,155L306,150L311,147L317,142L318,138L317,137L317,127L317,125L321,118L322,116L319,112L317,110L317,107L317,106L317,105L314,95L311,91L307,88L306,79L299,81L295,80L295,78L293,69L285,69L283,57L284,51L284,51Z " data-fips="IC32" data-fips-="" data-iso3="ISL" data-name="Hlshreppur"/><path d="M249,161L246,158L231,162L222,167L213,167L203,170L194,167L194,169L194,173L193,174L192,175L183,180L173,187L163,195L158,199L156,203L148,211L147,214L147,217L147,219L144,225L143,227L140,232L139,232L131,241L130,244L134,242L139,245L149,243L151,240L152,240L154,235L155,234L160,235L158,237L155,237L159,243L164,245L169,247L172,244L171,241L172,241L182,229L185,228L189,229L199,223L203,224L206,218L213,212L217,210L219,204L224,200L225,196L228,193L231,191L232,187L234,186L242,177L245,175L248,167L250,166L251,163L252,163L249,161Z " data-fips="IC03" data-fips-="" data-iso3="ISL" data-name="Biskupstungnahreppur"/><path d="M135,218L133,218L133,220L127,218L130,223L126,224L128,225L126,228L118,229L115,230L113,234L109,233L108,230L103,226L102,240L103,242L102,245L109,246L116,242L125,245L129,244L130,244L131,241L139,232L140,232L143,227L144,225L141,225L138,224L138,221L136,218L135,218Z " data-fips="IC10" data-fips-="" data-iso3="ISL" data-name="Suurnes"/><path d="M280,176L262,167L252,163L251,163L250,166L248,167L245,175L242,177L234,186L232,187L231,191L228,193L225,196L224,200L219,204L217,210L213,212L206,218L203,224L199,223L189,229L185,228L182,229L172,241L173,241L173,248L175,247L176,249L170,249L175,252L177,252L178,249L182,245L181,247L184,249L186,251L182,249L177,251L179,255L182,258L179,254L180,254L183,259L185,262L191,266L206,266L213,268L218,271L218,271L220,261L227,255L233,246L234,241L232,235L233,230L240,220L243,217L253,206L254,205L259,203L280,176Z " data-fips="IC23" data-fips-="" data-iso3="ISL" data-name="Suurland"/><path d="M275,249L274,248L273,250L275,249Z M280,176L259,203L254,205L253,206L243,217L240,220L233,230L232,235L234,241L233,246L227,255L220,261L218,271L220,271L231,274L234,273L241,275L242,275L250,273L254,270L261,269L258,269L256,262L259,264L262,264L261,268L263,267L269,263L271,259L269,256L269,254L272,254L274,251L268,253L270,250L271,247L277,243L279,244L276,248L285,243L287,242L287,241L287,221L300,186L280,176Z " data-fips="IC37" data-fips-="" data-iso3="ISL" data-name="Mrdalshreppur"/><path d="M182,177L168,173L165,175L163,175L148,176L145,177L143,180L143,180L140,180L137,183L142,186L141,187L139,184L133,187L134,189L132,189L128,191L127,196L126,196L125,200L126,201L132,201L125,205L127,208L128,208L137,201L139,200L146,200L147,201L146,202L152,201L155,200L156,202L156,203L158,199L163,195L173,187L183,180L182,177Z " data-fips="IC07" data-fips-="" data-iso3="ISL" data-name="Akranes"/><path d="M153,151L151,148L150,145L150,134L146,130L143,124L139,125L139,115L139,114L138,114L136,118L135,118L134,119L130,120L128,123L126,123L120,128L116,129L112,132L108,139L110,139L109,141L125,144L127,143L132,139L133,137L135,138L135,140L132,150L128,150L127,151L125,155L126,159L130,158L130,160L131,160L135,162L138,161L139,164L144,163L147,159L146,158L148,156L149,153L153,152L153,151Z " data-fips="IC08" data-fips-="" data-iso3="ISL" data-name="Bjarhreppur"/><path d="M156,202L155,200L152,201L146,202L146,203L139,202L135,205L131,211L129,213L134,213L133,215L136,214L135,217L137,216L136,218L136,218L138,221L138,224L141,225L144,225L147,219L147,217L147,214L148,211L156,203L156,202Z " data-fips="IC15" data-fips-="" data-iso3="ISL" data-name="Hfuborgarsvi"/><path d="M160,155L158,155L157,154L156,154L153,152L149,153L148,156L146,158L147,159L144,163L139,164L138,161L135,162L131,160L130,160L127,163L123,170L122,171L120,174L120,174L119,175L115,177L115,181L112,179L115,183L114,186L117,188L119,186L118,193L124,195L124,192L126,190L134,185L141,180L143,180L145,177L148,176L163,175L165,175L168,173L182,177L183,180L192,175L193,174L194,173L194,169L194,167L196,164L200,159L200,158L199,156L190,156L182,156L169,159L168,159L161,156L160,155Z " data-fips="IC17" data-fips-="" data-iso3="ISL" data-name="Vesturland"/><path d="M127,151L121,151L118,149L114,149L108,149L106,152L107,154L104,153L103,148L101,147L99,150L98,152L95,154L93,152L90,159L88,157L90,152L88,151L85,153L86,158L83,159L81,156L80,156L72,161L68,160L58,161L59,164L61,171L65,174L71,173L72,169L78,169L80,167L85,166L87,168L95,169L100,169L104,169L108,171L113,167L112,170L116,172L113,178L115,177L120,174L120,174L122,171L123,170L127,163L130,160L130,158L126,159L125,155L127,151L127,151Z " data-fips="IC29" data-fips-="" data-iso3="ISL" data-name="Eyja- og Miklaholtshreppur"/></g></svg>