<?xml version="1.0" encoding="UTF-8"?><!DOCTYPE svg  PUBLIC '-//W3C//DTD SVG 1.1//EN'  'http://www.w3.org/Graphics/SVG/1.1/DTD/svg11.dtd'><svg enable_background="new 0 0 450 563" height="563px" style="stroke-linejoin: round; stroke:#000; fill:#f6f3f0;" version="1.1" viewBox="0 0 450 563" width="450px" xmlns="http://www.w3.org/2000/svg" xmlns:xlink="http://www.w3.org/1999/xlink"><defs><style type="text/css"><![CDATA[path { fill-rule: evenodd; }
#context path { fill: #eee; stroke: #bbb; } ]]></style></defs><metadata><views><view h="563.5" padding="0.06" w="450"><proj id="laea" lat0="30.6838638372" lon0="34.8541779513"/><bbox h="50.44" w="19.16" x="992.57" y="965.33"/><llbbox lat0="-90" lat1="90" lon0="-180" lon1="180"/></view></views></metadata><g id="context"><path d="M207,552L203,540L193,506L187,482L178,454L163,419L161,410L158,398L148,366L139,343L129,314L126,302L124,298L121,301L89,317L61,324L27,323L6,330L0,321L0,562L198,562L200,558L207,552Z " data-iso="EGY"/><path d="M142,302L142,293L163,270L162,268L157,262L146,276L124,298L126,302L129,314L142,302Z " data-iso="GAZ"/><path d="M310,97L317,86L323,74L319,68L318,62L318,55L322,49L320,41L316,33L314,29L314,22L315,16L317,8L314,10L308,17L302,22L290,30L287,34L284,30L279,33L275,51L265,57L253,57L244,55L230,56L227,72L219,92L209,121L195,178L181,220L158,261L157,262L162,268L163,270L142,293L142,302L129,314L139,343L148,366L158,398L161,410L163,419L178,454L187,482L193,506L203,540L207,552L215,541L221,509L225,494L226,483L235,460L234,453L236,427L235,422L239,408L246,387L253,370L256,362L263,345L270,324L265,311L268,298L268,298L271,277L266,276L251,284L230,292L207,294L204,292L203,288L210,269L212,260L222,250L236,242L242,239L241,236L233,230L224,227L216,230L213,229L213,227L215,224L217,217L216,206L215,193L213,183L218,167L219,159L225,142L240,132L253,135L260,135L263,137L265,143L274,150L282,151L284,120L284,117L289,111L303,105L309,104L310,97Z " data-iso="ISR"/><path d="M450,145L429,160L390,154L377,151L367,141L359,136L341,131L329,113L321,107L309,104L303,105L289,111L284,117L284,120L282,151L284,172L280,191L280,207L283,237L276,250L273,265L271,277L268,298L268,298L265,311L270,324L263,345L256,362L253,370L246,387L239,408L235,422L236,427L234,453L235,460L226,483L225,494L221,509L215,541L216,551L214,562L379,562L395,548L421,501L427,496L450,491L450,275L448,273L450,272L450,145Z " data-iso="JOR"/><path d="M230,56L244,55L253,57L265,57L275,51L279,33L284,30L287,34L290,30L302,22L308,17L314,10L317,8L323,3L323,0L255,0L247,14L241,32L236,46L230,56Z " data-iso="LBN"/><path d="M450,562L450,491L427,496L421,501L395,548L379,562L450,562Z M450,272L448,273L450,275L450,272Z " data-iso="SAU"/><path d="M317,8L315,16L314,22L314,29L316,33L320,41L322,49L318,55L318,62L319,68L323,74L317,86L310,97L309,104L321,107L329,113L341,131L359,136L367,141L377,151L390,154L429,160L450,145L450,0L323,0L323,3L317,8Z " data-iso="SYR"/><path d="M274,150L265,143L263,137L260,135L253,135L240,132L225,142L219,159L218,167L213,183L215,193L216,206L217,217L215,224L213,227L213,229L216,230L224,227L233,230L241,236L242,239L236,242L222,250L212,260L210,269L203,288L204,292L207,294L230,292L251,284L266,276L271,277L273,265L276,250L283,237L280,207L280,191L284,172L282,151L274,150Z " data-iso="WEB"/></g><g fill="red" fill-opacity="0.35" id="regions"><path d="M172,237L172,238L161,256L158,260L157,262L161,265L163,268L163,271L157,276L144,288L141,293L142,300L142,303L138,307L132,312L139,343L157,390L159,401L160,407L160,409L163,414L162,420L163,425L169,431L171,433L186,477L188,488L197,515L200,530L200,539L201,542L204,548L206,550L208,550L212,544L214,534L217,528L218,520L219,517L224,502L225,499L225,490L226,486L229,475L234,468L236,463L236,459L233,450L233,446L234,444L235,437L237,432L235,421L237,415L237,412L242,395L249,381L251,373L256,367L256,358L258,354L262,350L264,347L263,343L264,339L270,328L270,324L269,320L265,311L265,307L268,301L268,298L267,297L269,293L271,287L272,284L264,275L257,279L244,290L237,293L223,293L216,294L210,295L206,295L204,293L202,288L204,283L209,275L211,263L213,259L203,251L203,240L201,238L198,234L194,237L193,237L190,232L185,232L183,235L180,235L182,231L180,229L184,228L184,224L183,222L179,223L172,237Z " data-fips="IS01" data-fips-="" data-iso3="ISR" data-name="HaDarom"/><path d="M226,86L221,92L213,91L212,93L211,106L209,117L207,127L207,128L203,146L203,149L210,149L216,149L219,152L222,153L223,146L225,142L242,131L242,131L236,128L232,132L231,132L225,131L221,122L224,121L222,118L230,113L230,109L233,109L234,105L234,103L236,99L234,90L230,88L230,85L227,82L226,86Z " data-fips="IS04" data-fips-="" data-iso3="ISR" data-name="Haifa"/><path d="M199,167L195,179L202,183L202,187L200,194L202,196L204,202L196,205L189,205L187,203L184,212L182,215L179,223L183,222L184,224L184,228L180,229L182,231L180,235L183,235L185,232L190,232L193,237L194,237L198,234L205,232L207,231L210,228L212,227L213,225L219,222L217,218L215,212L216,200L214,187L212,181L213,177L218,173L219,168L218,167L217,161L218,159L220,158L221,155L222,153L219,152L216,149L210,149L203,149L199,167Z " data-fips="IS02" data-fips-="" data-iso3="ISR" data-name="HaMerkaz"/><path d="M227,82L230,85L230,88L234,90L236,99L234,103L234,105L233,109L230,109L230,113L222,118L224,121L221,122L225,131L231,132L232,132L236,128L242,131L244,131L247,134L249,135L256,135L260,135L263,137L264,140L265,148L268,149L283,152L282,145L283,144L285,137L283,134L283,129L285,128L284,126L284,120L283,117L289,111L285,106L285,106L287,106L287,106L291,102L291,100L291,100L291,99L291,99L292,99L292,99L291,85L287,82L287,78L285,68L284,66L290,58L291,51L292,43L292,34L290,34L289,34L289,34L289,34L288,35L288,35L285,33L282,29L281,29L278,34L278,37L277,44L273,56L269,56L264,58L258,60L250,54L239,56L230,56L228,58L229,61L227,68L226,76L225,78L227,81L227,82Z " data-fips="IS03" data-fips-="" data-iso3="ISR" data-name="HaZafon"/><path d="M190,196L188,197L188,200L187,203L189,205L196,205L204,202L202,196L200,194L202,187L202,183L195,179L190,196Z " data-fips="IS05" data-fips-="" data-iso3="ISR" data-name="Tel Aviv"/><path d="M213,258L215,256L224,249L233,242L240,240L242,240L241,233L239,232L231,230L225,227L222,227L220,230L217,231L213,230L212,228L212,227L210,228L207,231L205,232L198,234L201,238L203,240L203,251L213,259L213,258Z " data-fips="IS06" data-fips-="" data-iso3="ISR" data-name="Jerusalem"/><path d="M288,35L288,35L289,34L289,34L289,34L292,34L292,38L292,43L291,51L290,58L284,66L285,68L287,78L287,82L291,85L292,99L292,99L291,99L291,99L291,100L291,100L291,102L287,106L287,106L285,106L285,106L285,108L289,111L291,112L297,107L303,103L305,102L308,98L314,91L315,87L315,86L316,82L320,75L317,70L315,56L316,54L311,52L314,45L313,41L311,40L310,33L306,30L310,24L305,21L311,18L311,15L310,14L306,20L300,23L294,28L287,31L288,35L288,35Z " data-fips="" data-fips-="" data-iso3="ISR" data-name="Golan"/></g></svg>