<?xml version="1.0" encoding="UTF-8"?><!DOCTYPE svg  PUBLIC '-//W3C//DTD SVG 1.1//EN'  'http://www.w3.org/Graphics/SVG/1.1/DTD/svg11.dtd'><svg enable_background="new 0 0 450 451" height="451px" style="stroke-linejoin: round; stroke:#000; fill:#f6f3f0;" version="1.1" viewBox="0 0 450 451" width="450px" xmlns="http://www.w3.org/2000/svg" xmlns:xlink="http://www.w3.org/1999/xlink"><defs><style type="text/css"><![CDATA[path { fill-rule: evenodd; }
#context path { fill: #eee; stroke: #bbb; } ]]></style></defs><metadata><views><view h="451" padding="0.06" w="450"><proj id="laea" lat0="44.4463312853" lon0="11.1445032049"/><bbox h="156.02" w="122.15" x="953.92" y="960.83"/><llbbox lat0="-90" lat1="90" lon0="-180" lon1="180"/></view></views></metadata><g id="context"><path d="M414,168L406,169L406,166L404,166L397,180L396,183L398,194L402,194L405,196L402,209L404,216L404,220L405,226L403,232L406,245L403,245L408,252L418,257L423,265L423,268L429,269L433,264L431,258L438,253L440,252L442,242L446,237L448,233L445,228L445,225L445,224L433,216L431,211L429,203L430,190L430,190L431,188L428,180L423,175L420,174L416,168L415,168L414,168Z " data-iso="ALB"/><path d="M143,3L144,4L145,5L145,8L143,12L143,13L143,15L144,16L144,19L144,20L145,20L148,20L154,26L158,27L163,22L165,26L165,27L166,27L171,27L174,30L179,29L182,24L184,23L197,22L207,19L206,24L212,32L214,33L231,37L239,37L244,38L245,38L248,38L264,41L265,42L273,34L281,32L287,32L294,29L299,30L299,26L301,24L302,23L306,19L310,18L311,13L310,13L310,8L309,5L314,0L227,0L227,5L226,5L221,0L206,0L196,1L190,4L186,7L178,8L175,4L170,3L166,3L160,12L159,12L158,9L156,8L155,5L151,2L144,3L143,3Z " data-iso="AUT"/><path d="M372,171L373,171L371,157L376,154L375,151L376,147L381,142L384,144L385,142L383,139L383,135L388,135L389,135L390,133L395,133L396,128L392,124L391,119L394,119L397,116L390,110L384,107L384,102L388,91L388,88L385,86L380,88L379,88L378,88L370,82L353,81L349,83L345,81L342,82L331,81L326,78L323,81L316,81L311,89L307,87L304,83L299,83L298,83L298,98L301,101L306,106L307,106L311,117L313,120L330,136L335,140L344,151L350,156L351,159L349,160L355,161L356,163L370,171L372,171Z " data-iso="BIH"/><path d="M80,58L81,58L83,59L94,57L99,59L105,54L110,44L114,41L116,42L115,46L120,53L125,54L123,57L128,63L129,62L129,56L135,47L136,40L137,39L140,42L141,45L145,47L151,44L155,49L157,49L156,44L155,41L156,36L157,36L163,38L164,38L164,31L165,27L165,26L163,22L158,27L154,26L148,20L145,20L144,20L142,19L142,19L142,18L142,15L143,12L145,8L145,5L144,4L143,3L139,0L138,0L109,0L99,0L96,0L92,4L87,4L84,2L80,7L81,10L68,21L67,27L60,32L57,38L59,40L56,45L55,46L57,48L62,45L62,42L64,40L70,39L74,40L76,45L74,49L80,56L80,58Z " data-iso="CHE"/><path d="M221,0L226,5L227,5L227,0L221,0Z M143,3L144,3L151,2L155,5L156,8L158,9L159,12L160,12L166,3L170,3L175,4L178,8L186,7L190,4L196,1L206,0L138,0L139,0L143,3Z " data-iso="DEU"/><path d="M96,379L90,380L86,379L81,375L76,373L70,371L71,376L62,377L52,373L50,370L45,371L43,375L37,377L28,379L19,383L15,384L12,383L7,377L0,374L0,449L98,449L99,443L102,439L100,432L100,426L98,418L98,416L102,398L100,395L98,393L103,389L105,384L109,382L109,378L96,379Z " data-iso="DZA"/><path d="M138,171L138,164L135,166L134,174L130,173L121,177L118,179L116,183L117,189L114,191L115,193L117,195L119,203L118,206L122,209L120,212L122,216L130,221L132,218L135,209L136,202L140,193L140,180L138,176L138,171Z M85,136L86,135L87,135L87,135L88,135L88,131L93,124L92,121L86,122L76,116L73,108L78,101L77,97L71,93L69,86L74,85L80,82L82,76L79,73L76,66L74,65L74,61L78,60L80,58L80,56L74,49L76,45L74,40L70,39L64,40L62,42L62,45L57,48L55,46L56,45L59,40L57,38L60,32L67,27L68,21L81,10L80,7L84,2L87,4L92,4L96,0L0,0L0,135L2,139L16,144L25,142L25,145L32,147L34,151L40,153L44,156L49,156L51,158L57,155L63,154L72,146L80,138L82,137L85,136Z " data-iso="FRA"/><path d="M450,330L449,329L450,335L450,330Z M450,320L446,317L443,310L443,315L440,315L439,320L441,319L444,323L446,322L450,324L450,320Z M449,315L446,310L446,312L448,315L449,315Z M446,305L446,298L446,297L443,303L443,306L446,305Z M427,278L422,276L419,270L422,267L419,265L415,266L414,269L419,273L421,277L427,280L427,278Z M450,293L448,293L450,298L450,293Z M445,225L445,228L448,233L446,237L442,242L440,252L438,253L431,258L433,264L429,269L423,268L426,270L429,273L433,281L438,283L441,286L447,290L450,289L450,224L450,224L449,224L445,225Z " data-iso="GRC"/><path d="M350,166L343,165L354,168L350,166Z M325,159L327,162L330,163L333,161L336,162L336,160L330,160L325,159Z M375,176L374,174L372,173L372,171L370,171L356,163L355,161L353,163L339,157L335,158L341,159L349,163L356,164L365,169L370,173L375,176Z M339,154L326,153L321,151L322,154L325,155L337,154L339,154Z M328,149L329,147L319,146L320,149L328,149Z M290,127L287,126L292,129L290,127Z M285,114L277,105L273,102L277,109L284,115L285,114Z M275,100L273,97L271,99L275,100Z M266,103L265,96L265,92L263,89L262,86L261,86L265,103L266,103Z M274,92L268,83L266,90L269,90L271,93L274,92Z M313,35L311,35L308,35L301,43L292,47L291,51L294,55L293,60L284,64L286,67L285,69L286,74L284,75L273,74L268,70L267,68L262,74L255,75L253,74L250,77L243,75L242,74L241,75L244,88L250,98L253,98L259,86L260,82L267,81L269,83L275,88L276,92L276,101L279,105L287,112L289,116L283,117L285,120L293,129L305,137L306,142L317,140L322,143L330,145L337,151L342,154L348,159L349,160L351,159L350,156L344,151L335,140L330,136L313,120L311,117L307,106L306,106L301,101L298,98L298,83L299,83L304,83L307,87L311,89L316,81L323,81L326,78L331,81L342,82L345,81L349,83L353,81L370,82L378,88L379,88L379,87L381,84L380,79L381,76L383,77L388,76L385,73L380,71L378,69L378,65L376,64L372,54L373,52L373,51L373,51L367,52L362,58L360,58L351,59L347,58L334,52L322,41L319,38L314,36L313,35Z " data-iso="HRV"/><path d="M302,23L307,23L308,28L313,35L313,35L314,36L319,38L322,41L334,52L347,58L351,59L360,58L362,58L367,52L373,51L373,51L374,51L377,47L379,48L386,44L390,41L404,41L405,41L406,40L412,38L414,39L417,35L424,34L426,32L427,28L429,27L433,16L432,15L436,7L436,4L438,0L314,0L309,5L310,8L310,13L311,13L310,18L306,19L302,23Z " data-iso="HUN"/><path d="M208,385L205,382L206,386L208,385Z M306,330L307,329L299,331L297,331L293,334L289,333L282,334L280,337L270,339L263,339L253,340L248,337L244,336L244,334L238,334L235,338L230,339L226,335L221,339L218,348L221,353L226,356L232,356L235,358L239,359L245,364L251,367L257,371L260,372L267,372L273,376L278,382L285,385L289,384L295,385L297,377L300,374L296,367L294,361L294,358L297,346L306,330Z M108,303L105,303L107,306L108,303Z M141,239L140,235L138,231L132,227L131,225L127,229L124,230L120,236L113,239L110,240L106,239L104,237L102,242L102,246L109,259L109,265L107,272L111,275L110,279L109,278L107,286L107,298L113,308L119,308L123,304L124,297L130,298L136,301L138,300L140,293L142,273L141,261L146,253L143,241L141,239Z M162,169L161,170L155,171L155,172L161,172L162,169Z M165,27L164,31L164,38L163,38L157,36L156,36L155,41L156,44L157,49L155,49L151,44L145,47L141,45L140,42L137,39L136,40L135,47L129,56L129,62L128,63L123,57L125,54L120,53L115,46L116,42L114,41L110,44L105,54L99,59L94,57L83,59L81,58L80,58L78,60L74,61L74,65L76,66L79,73L82,76L80,82L74,85L69,86L71,93L77,97L78,101L73,108L76,116L86,122L92,121L93,124L88,131L88,135L94,134L102,131L104,130L109,122L116,115L122,113L126,113L132,117L135,117L146,125L154,128L157,130L159,134L161,146L164,151L166,162L165,165L171,166L173,171L176,173L182,181L181,185L182,186L186,185L191,187L195,189L199,197L206,202L210,206L221,218L227,220L234,226L241,224L246,226L255,229L260,238L261,241L267,240L271,243L268,248L279,245L281,246L286,255L284,257L285,260L295,265L303,266L306,268L308,272L311,280L316,290L319,301L322,304L322,310L318,311L313,316L314,321L312,327L309,329L308,332L308,337L310,340L320,340L325,328L332,322L333,319L332,311L333,308L337,305L342,303L346,303L348,300L347,295L346,287L342,283L337,280L331,279L329,275L329,271L332,261L335,254L338,249L341,247L345,247L347,250L353,253L364,253L371,265L375,268L378,268L381,258L380,254L376,249L368,243L365,240L352,234L346,230L341,227L326,222L311,216L308,213L308,209L315,202L315,199L309,198L294,200L288,199L280,196L271,189L261,180L257,174L254,168L251,157L248,149L237,139L227,131L221,128L216,124L214,120L211,113L210,103L215,98L217,94L213,91L210,85L209,84L210,77L216,73L214,76L222,73L229,70L233,65L239,67L243,65L247,70L246,71L250,70L242,57L240,58L240,55L243,50L238,49L237,45L244,40L244,38L239,37L231,37L214,33L212,32L206,24L207,19L197,22L184,23L182,24L179,29L174,30L171,27L166,27L165,27Z M214,131L215,129L216,132L214,131Z " data-iso="ITA"/><path d="M421,157L418,158L414,160L413,161L415,167L415,168L416,168L420,174L423,175L428,180L431,188L430,190L431,190L434,190L435,182L442,178L450,176L450,157L448,156L448,153L438,145L432,143L430,140L427,143L427,149L424,152L424,155L421,157Z " data-iso="KOS"/><path d="M144,19L144,16L143,15L143,13L143,12L142,15L142,18L142,19L142,19L144,20L144,19Z " data-iso="LIE"/><path d="M87,135L87,135L86,135L85,136L87,135Z " data-iso="MCO"/><path d="M430,190L430,190L429,203L431,211L433,216L445,224L445,225L449,224L450,224L450,224L450,176L442,178L435,182L434,190L431,190L430,190Z " data-iso="MKD"/><path d="M281,416L277,412L274,411L274,415L277,417L281,416Z M273,410L272,408L269,409L273,410Z " data-iso="MLT"/><path d="M388,135L383,135L383,139L385,142L384,144L381,142L376,147L375,151L376,154L371,157L373,171L372,171L372,173L374,174L375,176L376,176L385,181L392,187L394,191L398,194L396,183L397,180L404,166L406,166L406,169L414,168L415,168L415,167L413,161L414,160L418,158L421,157L421,156L416,152L410,149L405,148L402,147L392,139L389,135L389,135L388,135Z " data-iso="MNE"/><path d="M405,41L407,43L409,46L415,49L418,53L424,63L426,65L433,69L440,71L438,77L442,81L438,82L438,83L445,85L446,86L450,87L450,0L438,0L436,4L436,7L432,15L433,16L429,27L427,28L426,32L424,34L417,35L414,39L412,38L406,40L405,41Z " data-iso="ROU"/><path d="M216,132L215,129L214,131L216,132Z " data-iso="SMR"/><path d="M405,41L404,41L390,41L386,44L379,48L377,47L374,51L373,51L373,52L372,54L376,64L378,65L378,69L380,71L385,73L388,76L383,77L381,76L380,79L381,84L379,87L379,88L380,88L385,86L388,88L388,91L384,102L384,107L390,110L397,116L394,119L391,119L392,124L396,128L395,133L390,133L389,135L389,135L392,139L402,147L405,148L410,149L416,152L421,156L421,157L424,155L424,152L427,149L427,143L430,140L432,143L438,145L448,153L448,156L450,157L450,87L446,86L445,85L438,83L438,82L442,81L438,77L440,71L433,69L426,65L424,63L418,53L415,49L409,46L407,43L405,41Z " data-iso="SRB"/><path d="M313,35L308,28L307,23L302,23L301,24L299,26L299,30L294,29L287,32L281,32L273,34L265,42L264,41L248,38L245,38L244,38L244,40L237,45L238,49L243,50L240,55L240,58L242,57L250,70L246,71L244,73L242,74L243,75L250,77L253,74L255,75L262,74L267,68L268,70L273,74L284,75L286,74L285,69L286,67L284,64L293,60L294,55L291,51L292,47L301,43L308,35L311,35L313,35L313,35Z " data-iso="SVN"/><path d="M109,378L109,382L105,384L103,389L98,393L100,395L102,398L98,416L98,418L100,426L100,432L102,439L99,443L98,449L175,449L181,439L179,436L178,425L171,420L169,420L166,416L163,411L164,401L167,398L172,395L177,386L181,381L179,374L176,375L171,379L166,381L164,384L161,386L158,385L159,382L155,376L155,370L149,368L146,368L145,372L145,366L141,365L125,369L116,376L109,378Z " data-iso="TUN"/></g><g fill="red" fill-opacity="0.35" id="regions"><path d="M188,95L183,95L180,94L175,96L172,95L172,94L165,96L158,91L155,92L153,89L149,90L145,90L144,88L139,89L136,96L137,97L134,104L133,104L133,106L133,106L138,107L140,109L139,113L143,113L145,115L145,116L145,115L151,112L159,119L162,119L167,124L169,123L176,126L184,125L183,123L189,120L191,123L195,124L196,127L197,133L199,135L206,137L206,137L207,136L207,134L208,131L214,130L214,129L215,129L216,129L216,130L216,131L218,132L218,133L223,129L222,129L214,120L212,116L210,105L210,102L213,100L213,100L211,98L210,95L200,93L194,97L192,96L189,95L189,95L188,95Z " data-fips="IT05" data-fips-="" data-iso3="ITA" data-name="Emilia-Romagna"/><path d="M94,124L92,126L88,131L89,134L90,134L100,132L105,129L109,122L112,121L114,117L121,112L131,116L133,117L134,116L137,118L140,119L143,123L148,126L148,124L153,127L153,127L152,123L149,122L149,119L146,117L145,116L145,115L143,113L139,113L140,109L138,107L133,106L133,106L133,107L130,106L127,104L125,105L122,109L118,107L117,108L112,109L112,110L108,108L104,116L102,123L96,122L94,123L94,124Z " data-fips="IT12" data-fips-="IT08" data-iso3="ITA" data-name="Liguria"/><path d="M105,301L107,306L107,301L105,301Z M104,301L104,298L102,299L104,301Z M131,226L129,226L125,230L120,236L111,240L106,239L103,235L103,238L101,243L101,249L104,248L107,254L107,256L110,259L110,273L111,277L108,278L108,284L107,287L106,292L107,295L106,297L109,302L113,309L115,308L120,309L122,306L124,304L123,302L124,296L131,298L135,301L136,301L140,295L140,294L141,289L140,288L142,280L142,272L143,267L141,265L141,261L146,251L144,249L143,241L144,240L138,237L140,235L142,235L138,234L140,230L137,230L136,228L131,226Z " data-fips="IT14" data-fips-="" data-iso3="ITA" data-name="Sardegna"/><path d="M163,171L164,170L155,172L156,173L160,173L163,174L163,171Z M145,116L146,117L149,119L149,122L152,123L153,127L154,127L157,130L159,135L160,144L166,155L166,159L165,166L170,166L172,167L171,171L177,173L181,180L182,184L180,184L183,187L185,185L189,186L190,186L191,184L194,182L193,179L196,179L199,173L198,171L200,170L201,169L202,168L203,162L202,161L203,158L205,155L208,155L209,153L206,150L208,144L209,142L209,141L212,137L210,137L207,137L206,137L206,137L199,135L197,133L196,127L195,124L191,123L189,120L183,123L184,125L176,126L169,123L167,124L162,119L159,119L151,112L145,115L145,116Z " data-fips="IT16" data-fips-="" data-iso3="ITA" data-name="Toscana"/><path d="M300,230L301,231L295,237L296,242L299,244L299,247L307,257L304,266L304,266L305,267L306,268L307,270L307,270L310,267L314,267L316,270L320,269L325,262L326,262L331,261L332,260L333,259L334,256L335,255L337,251L333,249L332,240L329,239L326,239L324,241L319,236L312,233L313,230L308,227L301,228L300,230L300,230Z " data-fips="IT02" data-fips-="" data-iso3="ITA" data-name="Basilicata"/><path d="M308,271L309,278L314,285L316,290L318,299L320,303L322,304L322,307L321,311L320,312L312,314L314,317L314,321L311,328L309,329L308,339L311,341L320,340L322,332L326,327L330,324L333,321L331,312L333,308L339,304L342,303L346,303L348,301L347,297L347,293L345,285L338,280L330,278L328,274L329,270L331,267L331,262L331,261L326,262L325,262L320,269L316,270L314,267L310,267L307,270L308,271Z " data-fips="IT03" data-fips-="" data-iso3="ITA" data-name="Calabria"/><path d="M257,217L257,217L255,220L254,224L251,226L252,227L255,230L261,240L264,241L265,239L267,240L272,244L268,249L272,246L274,247L279,244L283,248L286,254L284,260L290,262L294,266L298,268L301,265L304,265L304,266L307,257L299,247L299,244L296,242L295,237L301,231L300,230L297,229L292,229L290,227L292,225L291,223L289,222L284,216L284,216L283,217L274,220L266,217L261,216L260,220L257,217L257,217Z " data-fips="IT04" data-fips-="" data-iso3="ITA" data-name="Campania"/><path d="M287,199L282,197L280,196L278,195L277,195L274,201L271,205L270,206L261,205L262,206L257,209L256,209L256,210L258,212L258,215L257,217L257,217L257,217L260,220L261,216L266,217L274,220L283,217L284,216L283,214L283,210L284,211L288,208L287,206L287,199L287,199Z " data-fips="IT11" data-fips-="" data-iso3="ITA" data-name="Molise"/><path d="M338,249L341,247L344,247L347,248L346,250L354,253L363,253L368,259L369,263L370,266L378,269L380,261L382,257L379,252L373,246L368,243L364,239L362,239L356,236L352,235L347,231L340,227L327,223L325,222L313,217L312,216L308,212L309,209L315,203L314,198L311,198L304,199L288,200L287,199L287,206L288,208L284,211L283,210L283,214L284,216L284,216L289,222L291,223L292,225L290,227L292,229L297,229L300,230L300,230L301,228L308,227L313,230L312,233L319,236L324,241L326,239L329,239L332,240L333,249L337,251L338,249Z " data-fips="IT13" data-fips-="" data-iso3="ITA" data-name="Apulia"/><path d="M307,329L301,330L299,331L296,331L295,332L292,334L287,333L281,335L276,338L274,338L270,339L260,339L258,340L252,340L249,337L245,337L243,334L237,334L232,340L229,338L227,335L223,339L222,339L218,348L219,351L222,353L225,357L230,356L236,359L239,359L244,363L247,366L251,367L254,369L260,372L265,371L271,374L280,383L286,385L287,384L294,386L296,386L295,381L296,377L299,374L300,371L298,370L297,364L296,364L293,358L295,354L297,346L304,335L307,329Z " data-fips="IT15" data-fips-="" data-iso3="ITA" data-name="Sicily"/><path d="M277,195L262,181L258,176L255,170L254,166L244,170L241,174L239,174L239,175L240,176L240,178L235,178L234,182L235,186L237,189L240,192L237,194L233,193L231,195L232,198L233,198L241,202L241,205L244,206L255,208L256,209L257,209L262,206L261,205L270,206L271,205L274,201L277,195L277,195Z " data-fips="IT01" data-fips-="" data-iso3="ITA" data-name="Abruzzo"/><path d="M200,170L198,171L199,173L196,179L193,179L194,182L191,184L190,186L191,187L196,191L200,198L204,199L208,203L212,209L216,212L221,218L229,221L234,226L247,225L251,225L251,226L254,224L255,220L257,217L257,217L257,217L258,215L258,212L256,210L256,209L255,208L244,206L241,205L241,202L233,198L232,198L231,195L233,193L237,194L240,192L237,189L235,186L234,182L235,178L240,178L240,176L239,175L239,174L238,173L237,173L237,173L237,173L235,173L235,173L235,176L225,180L223,183L218,186L216,185L208,175L205,176L203,175L203,173L202,171L201,169L200,170Z M216,203L217,203L217,203L216,203Z " data-fips="IT07" data-fips-="" data-iso3="ITA" data-name="Lazio"/><path d="M253,163L250,155L245,143L236,138L228,132L223,129L223,129L218,133L218,132L216,131L216,131L216,132L214,131L214,130L214,130L208,131L207,134L207,136L206,137L207,137L210,137L212,137L209,141L209,142L209,142L213,142L213,144L217,146L220,148L223,148L225,154L226,156L227,161L228,165L230,168L231,167L236,169L235,172L235,173L237,173L237,173L237,173L238,173L239,174L241,174L244,170L254,166L253,163Z " data-fips="IT10" data-fips-="" data-iso3="ITA" data-name="Marche"/><path d="M235,172L236,169L231,167L230,168L228,165L227,161L226,156L225,154L223,148L220,148L217,146L213,144L213,142L209,142L209,142L208,144L206,150L209,153L208,155L205,155L203,158L202,161L203,162L202,168L201,169L202,171L203,173L203,175L205,176L208,175L216,185L218,186L223,183L225,180L235,176L235,173L235,173L235,172Z " data-fips="IT18" data-fips-="" data-iso3="ITA" data-name="Umbria"/><path d="M100,58L102,66L102,69L98,71L92,70L84,74L81,74L81,74L82,76L80,83L77,83L75,85L71,85L68,86L71,90L71,93L79,101L76,102L76,104L73,108L75,115L86,122L92,120L93,123L94,123L96,122L102,123L104,116L108,108L112,110L112,109L117,108L118,107L122,109L125,105L127,104L130,106L133,107L133,106L133,104L133,102L127,94L124,90L122,91L119,91L116,81L119,79L121,81L123,78L124,78L122,74L118,64L119,62L119,59L122,56L122,53L122,53L119,52L115,46L115,40L113,41L112,43L109,46L107,46L108,49L104,56L101,57L100,58Z " data-fips="IT12" data-fips-="" data-iso3="ITA" data-name="Piemonte"/><path d="M81,74L84,74L92,70L98,71L102,69L102,66L100,58L100,58L93,56L89,58L84,59L78,60L74,61L74,65L78,72L80,74L81,74Z " data-fips="IT19" data-fips-="" data-iso3="ITA" data-name="Valle d'Aosta"/><path d="M122,53L122,56L119,59L119,62L118,64L122,74L124,78L123,78L121,81L119,79L116,81L119,91L122,91L124,90L127,94L133,102L133,104L134,104L137,97L136,96L139,89L144,88L145,90L149,90L153,89L155,92L158,91L165,96L172,94L172,95L175,96L180,94L183,95L188,95L189,95L189,94L182,89L180,90L173,82L169,73L173,65L174,63L174,63L172,63L167,64L166,57L168,47L165,38L165,38L160,37L159,35L154,41L157,43L157,49L155,50L152,44L147,46L143,47L140,44L140,39L138,39L135,42L136,46L129,55L130,61L128,63L127,62L124,56L124,54L122,53L122,53Z " data-fips="IT09" data-fips-="" data-iso3="ITA" data-name="Lombardia"/><path d="M221,34L221,38L216,41L214,45L212,47L212,49L215,53L213,55L217,62L220,64L223,63L228,65L230,69L230,69L232,67L230,68L233,65L238,67L237,68L244,65L247,69L250,70L247,66L242,63L243,58L243,52L243,51L236,46L244,40L244,38L236,37L234,37L223,35L222,35L221,34Z " data-fips="IT06" data-fips-="" data-iso3="ITA" data-name="Friuli-Venezia Giulia"/><path d="M165,38L168,47L166,57L167,64L172,63L174,63L174,63L175,64L175,67L178,68L183,65L183,64L190,57L195,58L196,54L200,53L201,50L198,45L200,41L199,40L203,38L207,35L212,35L214,33L214,33L209,29L209,27L206,22L207,21L201,21L198,22L191,22L190,22L184,23L180,26L178,30L175,30L170,27L166,27L163,34L165,38L165,38Z " data-fips="IT17" data-fips-="" data-iso3="ITA" data-name="Trentino-Alto Adige"/><path d="M214,33L212,35L207,35L203,38L199,40L200,41L198,45L201,50L200,53L196,54L195,58L190,57L183,64L183,65L178,68L175,67L175,64L174,63L173,65L169,73L173,82L180,90L182,89L189,94L189,95L189,95L192,96L194,97L200,93L210,95L211,98L213,100L213,100L216,97L216,93L211,89L211,85L209,86L207,83L216,72L216,75L213,77L223,73L227,70L230,70L230,69L228,65L223,63L220,64L217,62L213,55L215,53L212,49L212,47L214,45L216,41L221,38L221,34L221,34L219,34L218,34L215,33L214,33Z " data-fips="IT20" data-fips-="" data-iso3="ITA" data-name="Veneto"/></g></svg>