<?xml version="1.0" encoding="UTF-8"?><!DOCTYPE svg  PUBLIC '-//W3C//DTD SVG 1.1//EN'  'http://www.w3.org/Graphics/SVG/1.1/DTD/svg11.dtd'><svg enable_background="new 0 0 450 301" height="301px" style="stroke-linejoin: round; stroke:#000; fill:#f6f3f0;" version="1.1" viewBox="0 0 450 301" width="450px" xmlns="http://www.w3.org/2000/svg" xmlns:xlink="http://www.w3.org/1999/xlink"><defs><style type="text/css"><![CDATA[path { fill-rule: evenodd; }
#context path { fill: #eee; stroke: #bbb; } ]]></style></defs><metadata><views><view h="301.0" padding="0.06" w="450"><proj id="laea" lat0="17.9536331241" lon0="-77.2663554624"/><bbox h="13.23" w="28.73" x="985.47" y="991.4"/><llbbox lat0="-90" lat1="90" lon0="-180" lon1="180"/></view></views></metadata><g id="context"><path d="M228,83L211,81L194,81L116,71L106,75L97,81L76,85L53,85L47,89L33,103L31,116L39,129L79,134L85,138L100,162L115,168L120,174L135,195L153,199L191,199L210,204L225,214L239,227L247,202L255,195L263,191L270,200L287,201L296,190L304,177L314,176L323,178L318,183L337,185L345,191L364,197L384,197L405,194L422,188L418,177L396,142L331,122L314,113L293,96L284,94L274,94L251,90L228,83Z " data-iso="JAM"/></g><g fill="red" fill-opacity="0.35" id="regions"><path d="M221,135L212,134L207,132L201,134L197,136L191,135L186,134L187,137L207,178L206,185L208,188L210,190L210,192L208,199L204,200L218,208L221,212L237,226L240,228L247,229L252,228L253,224L251,217L247,218L243,218L240,218L237,216L242,214L244,215L243,210L248,208L247,202L250,198L252,196L252,194L250,182L247,178L245,165L242,158L244,152L243,149L238,136L221,135Z " data-fips="JM01" data-fips-="" data-iso3="JAM" data-name="Clarendon"/><path d="M91,84L87,84L75,86L68,84L65,84L62,87L57,83L51,85L45,90L43,96L40,95L35,100L32,100L30,112L29,113L41,115L44,114L51,106L52,106L75,106L78,107L88,112L92,113L107,114L105,109L101,107L99,104L96,96L92,92L93,85L91,84Z " data-fips="JM02" data-fips-="" data-iso3="JAM" data-name="Hanover"/><path d="M178,128L175,127L168,126L161,128L159,129L160,146L172,198L173,199L176,200L184,202L188,202L192,199L195,198L200,198L204,200L204,200L208,199L210,192L210,190L208,188L206,185L207,178L187,137L186,134L178,128Z " data-fips="JM04" data-fips-="" data-iso3="JAM" data-name="Manchester"/><path d="M133,126L112,134L109,135L106,140L104,149L101,159L99,162L101,165L104,166L116,166L121,168L122,172L122,181L126,183L129,191L132,194L143,200L168,198L173,199L172,198L160,146L159,129L133,126Z " data-fips="JM11" data-fips-="" data-iso3="JAM" data-name="Saint Elizabeth"/><path d="M127,70L118,70L111,71L108,73L102,80L100,84L99,86L94,86L93,85L92,92L96,96L99,104L101,107L105,109L107,114L109,119L114,127L114,129L112,134L133,126L141,74L142,74L127,70Z " data-fips="JM12" data-fips-="" data-iso3="JAM" data-name="Saint James"/><path d="M180,79L172,77L155,76L142,74L141,74L133,126L159,129L161,128L168,126L175,127L178,128L186,134L194,99L193,96L193,91L191,85L191,80L180,79Z " data-fips="JM15" data-fips-="" data-iso3="JAM" data-name="Trelawny"/><path d="M92,113L88,112L78,107L75,106L52,106L51,106L44,114L41,115L29,113L29,115L24,120L25,123L27,126L30,128L37,129L51,134L54,132L57,132L66,133L79,133L84,136L87,143L89,150L95,153L96,155L99,162L101,159L104,149L106,140L109,135L112,134L114,129L114,127L109,119L107,114L92,113Z " data-fips="JM16" data-fips-="" data-iso3="JAM" data-name="Westmoreland"/><path d="M315,177L317,179L323,179L325,179L326,180L328,180L328,177L326,174L321,172L317,172L312,175L315,177Z " data-fips="JM17" data-fips-="" data-iso3="JAM" data-name="Kingston"/><path d="M412,169L406,156L402,150L397,145L396,141L389,139L375,136L372,132L358,132L354,129L344,128L339,125L335,122L332,120L331,120L331,121L322,145L323,149L325,154L328,156L334,153L337,154L345,157L348,160L353,164L362,166L363,167L366,167L369,165L372,165L376,163L381,166L387,167L393,168L396,171L399,173L406,174L413,172L412,169Z " data-fips="JM07" data-fips-="" data-iso3="JAM" data-name="Portland"/><path d="M257,93L251,93L246,89L238,87L235,89L233,85L226,83L217,82L207,82L202,83L198,81L193,80L191,80L191,85L193,91L193,96L194,99L186,134L191,135L197,136L201,134L207,132L212,134L221,135L238,136L262,133L266,131L277,125L274,121L272,116L268,109L268,105L263,92L257,93Z " data-fips="JM09" data-fips-="" data-iso3="JAM" data-name="Saint Ann"/><path d="M296,141L291,136L285,124L280,124L277,125L266,131L262,133L238,136L243,149L244,152L242,158L245,165L247,178L250,182L252,194L252,196L259,191L265,191L273,199L270,200L270,201L280,201L285,204L287,204L290,202L293,198L300,180L303,175L305,174L302,169L297,166L301,156L301,152L299,148L300,143L296,141Z " data-fips="JM10" data-fips-="" data-iso3="JAM" data-name="Saint Catherine"/><path d="M329,119L320,119L315,117L310,109L306,106L296,98L293,95L290,94L286,93L275,94L267,91L263,92L268,105L268,109L272,116L274,121L277,125L280,124L285,124L291,136L296,141L300,143L302,142L304,140L309,139L312,140L322,145L331,121L331,120L329,119Z " data-fips="JM13" data-fips-="" data-iso3="JAM" data-name="Saint Mary"/><path d="M312,140L309,139L304,140L302,142L300,143L299,148L301,152L301,156L297,166L302,169L305,174L307,173L310,174L312,175L317,172L321,172L326,174L328,177L328,180L326,180L328,181L307,183L307,184L317,184L326,182L330,182L335,184L340,185L342,182L344,176L346,176L343,164L343,159L345,157L337,154L334,153L328,156L325,154L323,149L322,145L312,140Z " data-fips="JM08" data-fips-="" data-iso3="JAM" data-name="Saint Andrew"/><path d="M345,157L343,159L343,164L346,176L344,176L342,182L340,185L340,185L343,189L346,190L348,196L350,197L354,197L364,198L379,197L384,195L394,198L397,197L400,193L403,192L401,195L404,196L408,195L414,191L424,189L426,187L421,184L417,180L415,175L413,172L406,174L399,173L396,171L393,168L387,167L381,166L376,163L372,165L369,165L366,167L363,167L362,166L353,164L348,160L345,157Z " data-fips="JM14" data-fips-="" data-iso3="JAM" data-name="Saint Thomas"/></g></svg>