<?xml version="1.0" encoding="UTF-8"?><!DOCTYPE svg  PUBLIC '-//W3C//DTD SVG 1.1//EN'  'http://www.w3.org/Graphics/SVG/1.1/DTD/svg11.dtd'><svg enable_background="new 0 0 450 301" height="301px" style="stroke-linejoin: round; stroke:#000; fill:#f6f3f0;" version="1.1" viewBox="0 0 450 301" width="450px" xmlns="http://www.w3.org/2000/svg" xmlns:xlink="http://www.w3.org/1999/xlink"><defs><style type="text/css"><![CDATA[path { fill-rule: evenodd; }
#context path { fill: #eee; stroke: #bbb; } ]]></style></defs><metadata><views><view h="301.0" padding="0.06" w="450"><proj id="laea" lat0="29.9761292589" lon0="35.1987712554"/><bbox h="57.61" w="50.84" x="994.6" y="954.78"/><llbbox lat0="-90" lat1="90" lon0="-180" lon1="180"/></view></views></metadata><g id="context"><path d="M105,267L103,261L91,221L84,204L82,195L77,180L73,169L69,156L67,150L66,148L65,149L50,157L37,160L21,160L11,163L8,157L0,159L0,289L2,291L6,299L91,299L95,280L102,270L105,267Z " data-iso="EGY"/><path d="M75,150L75,146L84,135L82,132L77,138L66,148L67,150L69,156L75,150Z " data-iso="GAZ"/><path d="M312,14L317,28L330,70L326,71L329,82L340,79L343,85L335,93L347,95L383,100L402,103L408,105L450,128L450,0L334,0L327,5L312,14Z " data-iso="IRQ"/><path d="M154,55L160,44L158,41L157,35L159,32L155,23L156,17L157,13L155,14L144,23L143,26L141,24L139,25L137,33L133,36L122,35L116,36L115,43L111,52L106,66L100,92L93,112L82,131L82,132L84,135L75,146L75,150L69,156L73,169L77,180L82,195L84,204L91,221L103,261L105,267L109,262L114,235L118,224L117,221L118,209L118,206L120,200L123,190L131,170L134,161L133,155L133,148L135,138L133,138L125,142L116,146L105,147L103,144L108,131L112,126L121,121L121,119L117,117L113,115L109,117L110,111L108,95L111,83L114,76L121,71L131,73L132,76L137,79L140,80L141,65L143,61L150,58L153,58L154,55Z " data-iso="ISR"/><path d="M343,85L340,79L329,82L326,71L330,70L317,28L312,14L299,23L275,39L209,84L190,82L185,80L176,73L168,71L162,62L159,59L153,58L150,58L143,61L141,65L140,80L141,90L139,98L139,106L141,120L138,126L136,133L135,138L133,148L133,155L134,161L131,170L123,190L120,200L118,206L118,209L117,221L118,224L114,235L109,262L109,266L107,275L167,285L170,284L192,265L205,243L208,241L247,232L248,231L256,212L258,209L275,199L246,167L217,137L231,133L294,112L327,101L335,93L343,85Z " data-iso="JOR"/><path d="M116,36L122,35L133,36L137,33L139,25L141,24L143,26L144,23L155,14L157,13L159,11L162,7L165,5L162,0L132,0L128,9L124,16L121,24L119,31L116,36Z " data-iso="LBN"/><path d="M335,93L327,101L294,112L231,133L217,137L246,167L275,199L258,209L256,212L248,231L247,232L208,241L205,243L192,265L170,284L167,285L107,275L102,299L450,299L450,128L408,105L402,103L383,100L347,95L335,93Z " data-iso="SAU"/><path d="M157,13L156,17L155,23L159,32L157,35L158,41L160,44L154,55L153,58L159,59L162,62L168,71L176,73L185,80L190,82L209,84L275,39L299,23L312,14L327,5L334,0L162,0L165,5L162,7L159,11L157,13Z " data-iso="SYR"/><path d="M137,79L132,76L131,73L121,71L114,76L111,83L108,95L110,111L109,117L113,115L117,117L121,119L121,121L112,126L108,131L103,144L105,147L116,146L125,142L133,138L135,138L136,133L138,126L141,120L139,106L139,98L141,90L140,80L137,79Z " data-iso="WEB"/></g><g fill="red" fill-opacity="0.35" id="regions"><path d="M135,194L134,194L130,191L129,190L125,187L125,187L121,194L118,206L119,211L118,213L117,219L118,223L115,231L113,243L110,250L109,257L108,261L110,263L108,268L108,274L107,275L151,282L148,261L145,247L140,238L135,236L128,235L127,227L131,220L131,218L131,211L133,203L135,198L135,194Z " data-fips="JO21" data-fips-="" data-iso3="JOR" data-name="Aqaba"/><path d="M169,72L170,77L165,79L166,82L165,83L165,84L162,88L163,91L164,92L165,93L165,95L169,95L177,96L181,98L185,97L193,101L261,123L271,120L326,102L327,101L343,85L342,81L340,79L329,82L330,70L320,38L300,23L275,39L245,60L217,78L209,84L202,84L200,83L190,82L185,80L180,75L175,71L170,72L169,72Z " data-fips="JO15" data-fips-="JO10" data-iso3="JOR" data-name="Mafraq"/><path d="M161,102L160,103L151,110L147,112L146,114L150,115L149,118L149,119L151,119L156,119L156,125L155,126L155,130L158,133L156,142L155,143L156,145L156,150L156,151L157,153L173,153L232,152L217,137L217,137L219,136L204,121L202,121L199,122L194,120L191,116L191,115L194,111L192,109L187,104L173,106L167,108L163,104L161,102Z " data-fips="JO16" data-fips-="JO11" data-iso3="JOR" data-name="Amman"/><path d="M164,181L156,174L147,171L136,170L135,176L133,176L129,174L129,175L128,180L126,182L125,186L125,187L129,190L130,191L134,194L135,194L137,194L147,194L152,194L162,191L167,184L164,181Z " data-fips="JO12" data-fips-="" data-iso3="JOR" data-name="Tafilah"/><path d="M232,152L173,153L174,159L176,163L173,172L167,184L162,191L152,194L147,194L137,194L135,194L135,198L133,203L131,211L131,218L131,220L127,227L128,235L135,236L140,238L145,247L148,261L151,282L167,285L170,284L192,265L205,243L208,241L247,232L248,231L256,212L258,209L275,199L246,167L232,152Z " data-fips="JO19" data-fips-="JO07" data-iso3="JOR" data-name="Ma`an"/><path d="M141,93L141,93L145,93L145,93L144,89L149,82L155,80L156,79L158,82L159,83L161,82L162,82L164,83L165,83L166,82L165,79L170,77L169,72L168,72L165,66L165,63L161,62L159,60L153,58L147,59L145,61L143,61L141,64L142,69L141,72L140,78L140,84L141,90L141,93Z " data-fips="JO18" data-fips-="JO14" data-iso3="JOR" data-name="Irbid"/><path d="M158,82L156,79L155,80L149,82L144,89L145,93L145,93L146,94L147,95L148,95L150,92L156,86L158,84L159,83L158,82Z " data-fips="JO20" data-fips-="JO14" data-iso3="JOR" data-name="Ajlun"/><path d="M164,83L162,82L161,82L159,83L158,84L156,86L150,92L148,95L148,96L154,96L155,96L157,97L159,99L161,96L163,95L164,94L164,94L164,92L163,91L162,88L165,84L165,83L164,83Z " data-fips="JO22" data-fips-="JO14" data-iso3="JOR" data-name="Jarash"/><path d="M141,93L141,93L140,94L139,100L139,104L141,120L139,122L138,125L142,125L145,121L148,120L149,119L149,118L150,115L146,114L147,112L151,110L160,103L161,102L160,101L160,101L160,101L159,100L159,99L157,97L155,96L154,96L148,96L148,95L147,95L146,94L145,93L141,93Z " data-fips="JO02" data-fips-="" data-iso3="JOR" data-name="Balqa"/><path d="M156,142L158,133L155,130L155,126L156,125L156,119L151,119L149,119L148,120L145,121L142,125L138,125L136,128L136,133L135,138L135,141L141,141L148,143L153,142L155,143L156,142Z " data-fips="JO23" data-fips-="JO02" data-iso3="JOR" data-name="Madaba"/><path d="M153,142L148,143L141,141L135,141L135,142L133,148L132,153L134,162L132,168L131,173L129,174L133,176L135,176L136,170L147,171L156,174L164,181L167,184L173,172L176,163L174,159L173,153L157,153L156,151L156,150L156,145L155,143L153,142Z " data-fips="JO09" data-fips-="" data-iso3="JOR" data-name="Karak"/><path d="M164,92L164,94L164,94L163,95L161,96L159,99L159,100L160,101L160,101L160,101L161,102L163,104L167,108L173,106L187,104L192,109L194,111L191,115L191,116L194,120L199,122L202,121L204,121L219,136L261,123L193,101L185,97L181,98L177,96L169,95L165,95L165,93L164,92Z " data-fips="JO13" data-fips-="JO17" data-iso3="JOR" data-name="Zarqa"/></g></svg>