<?xml version="1.0" encoding="UTF-8"?><!DOCTYPE svg  PUBLIC '-//W3C//DTD SVG 1.1//EN'  'http://www.w3.org/Graphics/SVG/1.1/DTD/svg11.dtd'><svg enable_background="new 0 0 450 451" height="451px" style="stroke-linejoin: round; stroke:#000; fill: none;" version="1.1" viewBox="0 0 450 451" width="450px" xmlns="http://www.w3.org/2000/svg" xmlns:xlink="http://www.w3.org/1999/xlink"><defs><style type="text/css"><![CDATA[path { fill-rule: evenodd; }]]></style></defs><metadata><views><view h="451" padding="0.06" w="450"><proj id="laea" lat0="38.0" lon0="137.5"/><bbox h="226.03" w="227.49" x="886.26" y="884.81"/></view></views></metadata><g class="" id="context"><path d="M100,113L101,113L100,107L110,104L111,102L114,92L115,78L115,77L112,59L112,58L120,55L128,47L130,49L145,54L149,53L151,44L156,41L157,37L159,33L163,27L164,20L165,18L169,7L170,5L170,0L0,0L0,149L5,147L8,145L13,145L24,134L27,128L33,126L36,131L41,134L52,136L54,137L57,132L53,125L56,122L70,123L75,119L76,116L79,114L81,115L85,114L87,106L89,101L95,104L95,108L99,112L100,113Z " data-iso="CHN"/><path d="M80,412L78,407L75,409L80,412Z M87,410L90,400L89,400L87,410Z M63,377L65,374L63,376L63,377Z M78,359L78,357L76,358L78,359Z M44,348L43,351L48,350L47,349L44,348Z M273,349L274,348L272,347L273,349Z M52,347L54,340L52,344L52,347Z M62,339L63,335L61,336L62,339Z M96,332L92,325L87,324L83,325L80,330L71,333L69,337L64,336L63,338L68,342L71,348L69,348L65,343L65,347L68,354L70,352L77,353L78,353L76,349L74,342L78,341L79,343L82,350L84,355L82,359L77,366L74,367L73,375L76,379L75,382L72,384L73,387L81,390L82,388L80,386L81,381L83,377L85,388L82,394L87,392L91,389L91,384L96,386L99,379L100,374L105,360L106,357L112,350L111,348L109,345L111,341L103,340L105,331L99,333L96,332Z M119,325L121,327L122,326L119,325Z M126,321L125,320L123,322L126,321Z M59,316L58,311L57,316L59,316Z M162,319L153,317L146,319L147,322L146,324L137,326L134,322L130,324L126,331L113,339L121,338L123,341L122,344L122,350L127,351L125,354L130,355L132,352L133,349L136,347L139,340L151,337L153,339L157,344L158,341L161,335L169,330L167,320L162,319Z M162,314L161,312L158,313L162,314Z M173,319L173,316L175,313L171,314L168,318L171,321L173,319Z M62,311L64,303L61,305L59,310L62,311Z M144,271L142,267L140,270L144,271Z M241,233L244,231L246,227L244,221L239,227L241,229L240,232L241,233Z M293,145L288,142L287,143L286,151L291,150L294,152L292,157L288,156L285,159L281,149L278,149L277,155L276,159L271,163L271,169L272,172L268,182L272,183L273,185L273,192L264,216L262,222L259,228L252,232L245,244L241,248L233,252L222,259L218,259L216,257L215,253L214,249L218,246L222,243L222,240L212,244L210,248L210,254L209,259L203,269L197,275L195,278L197,283L196,285L189,289L180,287L181,285L179,283L173,285L165,286L160,288L150,288L148,288L143,289L141,287L134,287L124,295L112,305L107,308L99,313L94,312L92,315L92,322L97,323L116,327L119,318L123,315L130,318L135,316L148,313L152,313L162,308L167,307L176,310L183,311L183,313L180,317L177,318L177,326L178,328L183,337L188,339L193,337L201,322L206,320L212,315L207,312L206,310L209,302L214,307L219,308L221,309L216,311L226,310L235,311L239,312L240,308L247,300L253,301L251,302L252,311L253,311L257,306L258,297L260,295L266,296L268,298L269,295L268,292L270,289L271,285L277,287L271,294L272,296L271,303L273,304L278,299L281,297L283,295L284,289L287,285L292,283L287,275L286,264L289,256L293,252L293,241L291,226L291,224L297,218L301,217L302,209L307,200L308,200L309,184L308,179L305,171L302,167L300,165L297,158L297,152L297,144L293,145Z M336,76L326,69L315,60L310,53L301,44L297,47L295,53L299,63L299,69L295,87L294,96L294,98L290,101L276,99L278,105L277,107L268,115L267,124L272,133L271,141L273,145L279,141L283,135L285,136L290,136L291,135L284,127L280,127L276,122L279,117L283,117L288,122L295,116L303,115L315,122L329,128L331,120L337,109L341,106L345,103L357,101L368,96L368,92L364,93L359,82L359,80L362,71L362,68L353,79L348,79L341,76L336,76Z " data-iso="JPN"/><path d="M0,332L5,332L9,330L10,326L0,326L0,332Z M0,303L1,300L0,299L0,303Z M36,297L36,296L32,295L34,300L36,297Z M50,299L50,294L45,297L48,300L50,299Z M8,253L7,250L7,253L8,253Z M98,237L97,235L96,237L98,237Z M14,223L11,222L11,225L13,226L14,223Z M16,223L15,230L18,234L17,236L20,244L18,245L13,240L8,241L5,243L5,248L8,249L10,248L12,264L11,267L12,271L7,273L9,276L7,277L3,284L2,285L4,293L7,294L1,299L4,302L4,306L9,302L12,304L15,300L20,297L18,302L21,304L24,301L23,296L27,299L30,297L28,296L30,293L33,293L41,295L44,295L44,293L48,291L51,292L60,290L65,283L69,270L65,269L67,255L68,253L67,240L62,229L55,216L51,205L47,211L42,212L30,210L24,212L17,219L16,222L16,223Z " data-iso="KOR"/><path d="M16,222L17,219L24,212L30,210L42,212L47,211L51,205L51,204L44,198L41,193L34,189L34,187L39,175L45,173L47,171L53,171L60,167L62,164L69,161L74,156L81,153L82,151L83,135L90,125L98,119L101,120L102,119L102,119L100,115L100,113L99,112L95,108L95,104L89,101L87,106L85,114L81,115L79,114L76,116L75,119L70,123L56,122L53,125L57,132L54,137L52,136L41,134L36,131L33,126L27,128L24,134L13,145L8,145L5,147L0,149L0,215L3,218L8,220L11,219L16,222L16,222Z " data-iso="PRK"/><path d="M373,89L374,90L374,90L373,89Z M387,80L389,77L386,79L387,80Z M377,63L375,63L372,69L365,79L367,84L367,80L376,69L379,68L383,64L379,64L377,63Z M415,38L419,37L417,33L415,34L411,40L406,41L404,38L403,42L401,43L396,50L389,64L394,60L395,57L399,52L400,49L402,49L410,42L415,38Z M433,28L445,12L436,18L434,22L431,23L429,30L433,28Z M300,0L300,7L298,15L298,21L300,30L303,34L305,29L308,18L312,14L315,16L322,17L325,25L326,30L328,21L325,12L321,11L316,0L300,0Z M100,113L100,115L102,119L102,119L103,119L105,114L104,110L111,112L116,107L118,103L124,97L127,97L125,101L131,98L133,98L132,107L139,108L147,112L157,110L163,107L165,105L175,99L183,93L185,90L189,86L197,73L207,62L213,54L219,48L224,42L228,38L235,28L237,22L239,20L240,15L243,8L250,0L170,0L170,5L169,7L165,18L164,20L163,27L159,33L157,37L156,41L151,44L149,53L145,54L130,49L128,47L120,55L112,58L112,59L115,77L115,78L114,92L111,102L110,104L100,107L101,113L100,113Z " data-iso="RUS"/></g><g class="" id="regions"><path d="M156,314L156,314L157,313L156,314Z M73,334L70,331L69,337L64,335L63,339L66,340L67,343L70,344L70,348L67,346L68,345L66,342L65,343L65,348L68,352L72,350L75,350L74,354L75,355L79,351L75,349L76,346L75,342L77,341L79,342L79,342L80,340L83,338L82,335L81,336L78,334L73,334L73,334Z M68,324L67,327L69,326L68,324Z M64,302L61,304L61,306L59,310L62,311L62,309L63,307L64,302Z M63,332L62,332L62,332L63,332Z M63,334L61,335L59,339L62,338L63,334Z M58,312L57,315L58,317L61,312L58,312Z M53,342L52,345L52,348L55,344L53,342Z M55,337L54,336L53,337L55,337Z M52,346L50,346L50,346L52,346Z M50,346L49,346L48,346L50,346Z M47,349L44,348L43,352L46,353L46,351L48,352L47,349Z " data-iso3="JPN" data-region=""/><path d="M289,256L285,254L285,256L276,250L270,250L261,255L254,254L253,256L249,259L248,260L248,260L243,264L242,266L247,268L247,272L247,275L249,280L242,279L238,285L240,290L240,294L244,298L245,293L249,293L255,293L257,299L257,298L260,295L263,294L266,295L267,298L270,295L268,295L268,290L270,289L271,286L276,287L275,290L271,293L272,295L272,298L272,301L271,303L274,304L275,301L278,298L280,298L282,297L282,292L283,289L288,284L291,283L287,276L286,269L286,268L289,256L289,256Z M278,388L278,388L278,388L278,388Z M272,363L272,364L272,364L272,363Z M268,329L268,328L267,329L268,329Z M266,325L267,324L267,323L266,325Z M264,309L263,307L262,307L264,309Z M262,335L262,335L262,335L262,335Z M261,318L261,316L260,317L261,318Z " data-iso3="JPN" data-region="Kanto"/><path d="M161,308L160,301L163,298L163,295L165,294L163,286L163,286L159,288L150,288L146,288L142,289L141,287L138,285L133,287L129,290L128,293L125,294L112,306L107,307L103,312L98,313L94,312L92,314L92,322L94,321L99,324L109,322L109,324L111,323L116,327L117,327L118,324L119,318L120,316L131,317L135,316L139,315L141,316L144,313L149,312L153,314L154,312L153,311L158,310L160,308L161,308Z M133,318L131,319L132,319L133,318Z M129,320L128,319L128,320L129,320Z M144,271L144,270L140,271L143,272L144,271Z M137,272L137,274L138,272L137,272Z M137,275L137,275L136,275L137,275Z M120,325L118,327L121,328L120,325Z " data-iso3="JPN" data-region="Chugoku"/><path d="M227,254L229,255L230,259L233,255L236,258L240,257L243,253L245,253L248,257L248,259L248,260L249,259L253,256L254,254L261,255L270,250L276,250L285,256L285,254L289,256L289,256L292,253L294,243L293,236L291,226L292,223L294,220L295,218L300,218L302,221L301,216L302,215L302,208L303,207L304,203L305,204L308,197L309,193L310,190L308,179L306,177L303,168L299,164L297,156L297,150L297,144L293,145L287,141L286,146L285,151L292,148L294,150L294,154L292,157L289,155L284,158L283,154L283,150L277,148L277,154L276,159L271,161L269,165L270,166L270,169L272,171L271,176L267,183L272,183L273,187L273,191L271,197L268,208L265,213L260,227L253,232L250,234L249,239L241,248L238,249L237,249L229,254L227,254Z M243,227L244,221L239,229L241,229L240,233L244,231L246,228L243,227Z " data-iso3="JPN" data-region="Tohoku"/><path d="M257,299L255,293L249,293L245,293L244,298L240,294L240,290L238,285L242,279L249,280L247,275L247,272L247,268L242,266L243,264L248,260L248,260L248,259L248,257L245,253L243,253L240,257L236,258L233,255L230,259L229,255L227,254L227,254L223,256L223,258L221,259L217,258L215,256L216,254L216,251L213,249L214,247L217,247L220,244L221,240L212,243L209,249L210,250L210,255L208,261L204,267L201,270L200,270L202,273L208,276L209,279L211,281L207,283L202,283L201,285L203,291L203,295L204,299L202,304L197,306L195,307L196,311L199,315L196,316L197,326L195,326L192,331L194,334L194,334L197,329L199,328L200,326L199,325L205,320L209,318L209,319L212,320L213,316L208,312L206,312L206,308L209,302L212,300L212,305L212,308L213,307L214,305L217,307L221,307L221,308L219,310L216,310L215,312L224,310L227,310L231,311L236,310L239,312L242,304L245,302L247,299L251,299L253,301L251,301L250,309L252,312L255,310L255,309L258,305L257,300L257,299L257,299Z M211,306L211,305L211,305L211,306Z M216,250L214,250L214,251L216,250Z M212,314L213,314L213,313L212,314Z M213,315L213,314L212,314L213,315Z " data-iso3="JPN" data-region="Chubu"/><path d="M133,321L133,321L129,324L127,331L123,333L121,335L115,338L119,337L122,337L121,340L124,342L122,343L122,345L123,351L127,351L127,354L133,356L133,350L133,348L138,344L138,341L140,340L146,337L148,336L152,337L157,344L158,340L160,336L166,332L168,328L166,325L167,321L167,319L159,317L158,317L150,318L144,326L136,326L133,321Z M135,319L134,318L133,319L135,319Z M126,325L127,324L126,324L126,325Z M162,313L158,313L158,314L162,313Z M149,316L149,315L148,316L149,316Z M109,354L112,351L111,346L109,344L110,343L107,341L103,340L107,337L108,334L107,332L105,330L101,333L97,332L97,332L96,334L92,334L89,339L89,344L91,345L92,343L95,343L97,350L102,353L108,352L109,354L109,354Z " data-iso3="JPN" data-region="Shikoku"/><path d="M199,271L195,277L197,282L197,286L196,283L195,286L192,286L191,289L189,288L186,290L185,287L179,288L181,285L175,285L174,286L167,285L163,286L163,286L165,294L163,295L163,298L160,301L161,308L161,308L164,306L169,307L174,310L180,310L183,309L183,312L181,315L179,318L178,323L177,324L177,326L176,329L177,328L182,333L181,334L183,337L192,337L194,334L194,334L192,331L195,326L197,326L196,316L199,315L196,311L195,307L197,306L202,304L204,299L203,295L203,291L201,285L202,283L207,283L211,281L209,279L208,276L202,273L200,270L199,271Z M173,317L175,311L175,311L171,315L168,319L169,321L170,321L173,317Z M180,315L180,315L179,316L180,315Z " data-iso3="JPN" data-region="Kinki"/><path d="M302,45L300,44L296,48L295,52L299,59L299,62L299,70L298,74L298,79L297,84L293,87L293,93L295,96L294,99L287,100L284,101L279,97L275,100L279,105L277,108L275,112L273,111L268,114L266,122L267,125L271,128L273,133L271,138L270,141L272,145L283,134L285,136L290,137L292,134L284,128L279,126L275,124L275,123L277,117L279,116L283,116L288,123L290,120L296,116L298,115L303,115L307,118L309,118L315,122L320,125L324,126L329,130L330,122L332,117L334,113L339,107L344,103L347,102L354,103L354,101L358,102L359,101L361,98L364,97L368,96L373,91L369,91L367,94L364,94L361,87L360,85L359,80L363,69L360,70L360,72L352,79L349,79L345,78L343,75L338,76L333,74L328,71L319,64L312,55L306,49L302,45Z M363,88L364,87L363,87L363,88Z M347,79L347,79L347,79L347,79Z M338,75L336,74L336,74L338,75Z M290,54L290,52L288,51L289,54L290,54Z " data-iso3="JPN" data-region="Hokkaido"/><path d="M97,332L95,331L93,326L94,323L91,324L90,324L83,325L82,327L79,329L78,331L77,329L75,331L75,332L73,334L73,334L78,334L81,336L82,335L83,338L80,340L79,342L79,342L81,348L83,350L83,353L81,354L84,354L82,357L79,364L76,367L74,368L73,375L75,378L75,383L73,385L74,388L78,388L80,391L82,388L80,384L81,380L83,377L85,377L85,381L82,379L85,387L83,393L87,392L89,390L92,384L95,386L99,380L100,377L99,374L106,357L109,354L109,354L108,352L102,353L97,350L95,343L92,343L91,345L89,344L89,339L92,334L96,334L97,332L97,332Z M79,357L75,359L78,359L80,357L79,357Z M80,355L79,356L80,356L80,355Z M75,363L75,362L75,363L75,363Z M75,357L71,356L70,360L70,364L75,357Z M73,367L74,365L72,364L73,367Z M89,406L90,400L89,399L87,403L87,405L85,410L87,410L89,406Z M78,407L75,410L76,413L79,413L81,410L78,407Z M71,406L71,408L73,408L71,406Z M67,372L66,372L67,374L67,372Z M66,398L67,397L66,397L66,398Z M63,378L65,375L63,375L63,378Z M65,419L64,418L64,418L65,419Z M57,431L57,430L57,430L57,431Z M57,420L56,419L56,419L57,420Z " data-iso3="JPN" data-region="Kyushu"/></g></svg>