<?xml version="1.0" encoding="UTF-8"?><!DOCTYPE svg  PUBLIC '-//W3C//DTD SVG 1.1//EN'  'http://www.w3.org/Graphics/SVG/1.1/DTD/svg11.dtd'><svg enable_background="new 0 0 450 301" height="301px" style="stroke-linejoin: round; stroke:#000; fill:#f6f3f0;" version="1.1" viewBox="0 0 450 301" width="450px" xmlns="http://www.w3.org/2000/svg" xmlns:xlink="http://www.w3.org/1999/xlink"><defs><style type="text/css"><![CDATA[path { fill-rule: evenodd; }
#context path { fill: #eee; stroke: #bbb; } ]]></style></defs><metadata><views><view h="301.0" padding="0.06" w="450"><proj id="laea" lat0="48.2290332098" lon0="59.3809600237"/><bbox h="221.79" w="363.92" x="875.4" y="887.09"/><llbbox lat0="-90" lat1="90" lon0="-180" lon1="180"/></view></views></metadata><g id="context"><path d="M301,299L297,298L296,293L290,292L286,299L301,299Z " data-iso="AFG"/><path d="M1,282L1,280L2,275L2,273L0,271L0,281L1,282Z " data-iso="ARM"/><path d="M1,282L2,282L10,276L15,274L21,273L24,278L21,281L23,283L19,285L22,289L28,293L29,287L31,283L33,284L39,269L40,267L49,267L49,265L42,261L41,259L32,242L31,241L22,249L16,247L11,238L9,237L8,237L7,237L5,241L7,249L0,246L0,271L2,273L2,275L1,280L1,282Z " data-iso="AZE"/><path d="M430,85L429,86L427,87L427,88L427,88L426,88L425,88L423,89L422,94L422,96L421,100L418,102L415,107L415,109L418,118L420,121L419,123L417,125L414,130L403,131L395,130L395,155L399,160L398,163L396,162L391,163L389,162L374,172L373,173L380,175L379,177L381,184L388,195L384,206L387,213L387,213L387,214L387,215L378,222L369,230L368,236L362,238L353,240L350,251L347,251L343,253L340,249L337,252L333,252L329,259L324,262L323,265L324,268L322,270L321,271L322,272L325,278L326,283L328,284L334,282L338,284L341,296L344,299L450,299L450,97L442,96L438,94L435,94L435,91L430,86L430,85Z " data-iso="CHN"/><path d="M8,237L7,236L5,235L3,233L0,231L0,246L7,249L5,241L7,237L8,237Z M0,229L1,226L1,226L0,229Z " data-iso="GEO"/><path d="M28,293L22,289L19,285L23,283L21,281L24,278L21,273L15,274L10,276L2,282L1,282L0,281L0,299L28,299L28,297L28,294L28,293Z " data-iso="IRN"/><path d="M47,173L56,170L61,167L63,167L70,165L75,168L79,170L87,169L88,180L84,190L88,194L87,194L69,191L64,197L64,199L69,204L62,202L55,203L55,205L61,208L64,224L68,225L74,230L78,231L78,235L76,245L76,247L85,241L90,240L96,240L101,244L109,257L115,256L115,256L115,253L117,201L145,193L167,207L173,213L183,224L196,221L210,222L215,219L219,223L222,224L226,231L229,229L229,244L233,244L236,247L238,256L240,256L250,254L254,256L254,260L260,262L260,259L265,250L268,247L276,241L279,237L281,237L283,234L284,234L284,233L287,226L293,223L305,225L309,225L311,222L311,217L318,213L325,215L332,216L337,213L344,212L350,210L352,210L358,209L372,208L377,211L383,211L385,212L387,213L387,213L384,206L388,195L381,184L379,177L380,175L373,173L374,172L389,162L391,163L396,162L398,163L399,160L395,155L395,130L403,131L414,130L417,125L419,123L420,121L418,118L415,109L415,107L418,102L421,100L422,96L422,94L423,89L425,88L426,88L425,88L417,84L416,81L413,86L403,87L395,81L391,81L386,75L382,74L378,75L373,80L363,82L362,80L359,81L359,78L356,76L354,77L353,83L351,86L348,84L342,77L325,59L320,54L307,47L308,39L300,45L297,47L289,56L289,58L286,57L283,58L281,60L279,57L282,51L279,53L272,51L270,54L268,49L263,52L258,53L258,47L252,37L245,39L244,38L237,37L231,42L231,44L227,47L210,52L205,56L199,57L194,59L171,63L170,70L170,74L178,77L179,79L169,79L166,92L165,92L161,96L170,102L173,103L175,106L173,112L166,115L162,113L155,117L155,116L152,115L144,109L139,109L135,111L131,108L118,115L108,108L108,115L103,106L89,99L86,96L80,99L78,98L76,96L73,94L68,99L64,101L51,109L50,112L48,119L47,120L42,112L39,110L31,120L30,122L30,130L26,136L26,139L30,142L30,149L39,152L44,162L45,168L41,167L41,169L47,174L47,173Z " data-iso="KAZ"/><path d="M385,212L383,211L377,211L372,208L358,209L352,210L350,210L344,212L337,213L332,216L325,215L318,213L311,217L311,222L309,225L305,225L293,223L287,226L284,233L284,234L285,233L288,234L284,237L277,246L283,246L291,250L292,247L295,244L297,248L300,248L301,250L305,250L306,251L312,251L304,259L302,259L298,263L289,264L289,264L289,264L284,269L283,268L277,266L272,268L272,271L270,271L271,277L274,276L286,275L287,276L291,276L296,273L297,274L303,275L306,277L307,275L310,274L317,273L321,271L321,271L322,270L324,268L323,265L324,262L329,259L333,252L337,252L340,249L343,253L347,251L350,251L353,240L362,238L368,236L369,230L378,222L387,215L387,214L387,213L385,212Z M292,269L290,268L289,266L292,269Z M287,271L284,271L284,270L287,271Z " data-iso="KGZ"/><path d="M430,85L430,86L435,91L435,94L438,94L442,96L450,97L450,57L449,59L445,63L443,69L443,70L439,77L438,76L432,80L430,85L430,85Z " data-iso="MNG"/><path d="M8,237L9,237L11,238L16,247L22,249L31,241L31,240L25,228L22,221L25,209L23,213L22,205L17,199L22,194L28,182L28,181L34,181L41,177L48,175L47,174L41,169L41,167L45,168L44,162L39,152L30,149L30,142L26,139L26,136L30,130L30,122L31,120L39,110L42,112L47,120L48,119L50,112L51,109L64,101L68,99L73,94L76,96L78,98L80,99L86,96L89,99L103,106L108,115L108,108L118,115L131,108L135,111L139,109L144,109L152,115L155,116L155,117L162,113L166,115L173,112L175,106L173,103L170,102L161,96L165,92L166,92L169,79L179,79L178,77L170,74L170,70L171,63L194,59L199,57L205,56L210,52L227,47L231,44L231,42L237,37L244,38L245,39L252,37L258,47L258,53L263,52L268,49L270,54L272,51L279,53L282,51L279,57L281,60L283,58L286,57L289,58L289,56L297,47L300,45L308,39L307,47L320,54L325,59L342,77L348,84L351,86L353,83L354,77L356,76L359,78L359,81L362,80L363,82L373,80L378,75L382,74L386,75L391,81L395,81L403,87L413,86L416,81L417,84L425,88L426,88L427,88L427,88L427,87L429,86L430,85L430,85L432,80L438,76L439,77L443,70L443,69L445,63L449,59L450,57L450,0L0,0L1,226L1,226L0,229L0,231L3,233L5,235L7,236L8,237Z " data-iso="RUS"/><path d="M287,271L284,270L284,271L287,271Z M321,271L321,271L317,273L310,274L307,275L306,277L303,275L297,274L296,273L291,276L287,276L286,275L274,276L271,277L270,271L272,271L272,268L277,266L283,268L284,269L289,264L289,264L288,264L285,265L282,262L285,257L281,253L269,259L268,262L269,267L262,269L265,273L260,279L250,279L248,284L252,286L253,287L257,287L258,289L257,292L262,299L286,299L290,292L296,293L297,298L301,299L344,299L341,296L338,284L334,282L328,284L326,283L325,278L322,272L321,271Z " data-iso="TJK"/><path d="M115,256L115,256L109,257L101,244L96,240L90,240L85,241L76,247L77,251L79,254L79,248L81,244L89,243L91,243L95,254L100,259L98,263L96,265L90,265L86,262L81,261L80,259L77,268L77,271L79,276L83,275L86,282L82,281L80,286L87,287L89,292L88,299L225,299L215,293L213,291L211,292L206,288L203,286L191,278L189,272L186,267L183,260L178,258L176,259L162,256L162,248L161,248L158,242L153,242L145,235L145,237L140,237L142,240L138,240L135,244L131,244L127,249L128,257L127,258L118,257L115,256Z " data-iso="TKM"/><path d="M292,269L289,266L290,268L292,269Z M289,264L289,264L298,263L302,259L304,259L312,251L306,251L305,250L301,250L300,248L297,248L295,244L292,247L291,250L283,246L277,246L284,237L288,234L285,233L284,234L283,234L281,237L279,237L276,241L268,247L265,250L260,259L260,262L254,260L254,256L250,254L240,256L238,256L236,247L233,244L229,244L229,229L226,231L222,224L219,223L215,219L210,222L196,221L183,224L173,213L167,207L145,193L117,201L115,253L115,256L118,257L127,258L128,257L127,249L131,244L135,244L138,240L142,240L140,237L145,237L145,235L153,242L158,242L161,248L162,248L162,256L176,259L178,258L183,260L186,267L189,272L191,278L203,286L206,288L211,292L213,291L215,293L225,299L262,299L257,292L258,289L257,287L253,287L252,286L248,284L250,279L260,279L265,273L262,269L269,267L268,262L269,259L281,253L285,257L282,262L285,265L288,264L289,264Z " data-iso="UZB"/></g><g fill="red" fill-opacity="0.35" id="regions"><path d="M176,105L175,106L174,112L163,114L161,112L157,117L155,118L153,116L147,113L146,109L144,107L140,108L138,111L136,112L133,108L128,110L126,108L123,110L122,113L119,115L109,108L107,115L107,115L106,118L107,123L104,129L99,130L98,131L97,134L97,135L98,136L100,136L101,143L104,144L108,143L108,148L108,153L109,154L109,167L111,173L113,175L121,178L123,183L123,184L124,186L125,198L125,198L125,198L134,196L142,194L145,193L146,193L151,196L150,189L151,185L157,177L162,172L165,172L168,169L174,159L179,158L182,162L186,166L189,167L190,167L202,157L203,156L203,155L201,152L197,147L191,144L191,141L187,141L185,139L185,136L183,133L184,130L189,126L188,124L185,118L181,108L179,107L178,105L176,105L176,105Z " data-fips="KZ04" data-fips-="" data-iso3="KAZ" data-name="Aqtbe" data-p="AKT"/><path d="M176,105L178,105L179,107L181,108L185,118L188,124L189,126L184,130L183,133L185,136L185,139L187,141L191,141L191,144L197,147L201,152L203,149L203,148L206,144L207,144L208,141L211,140L216,140L222,137L234,123L236,119L236,118L240,115L239,113L238,112L238,113L231,116L226,112L222,111L218,108L215,110L215,108L212,103L213,102L213,98L211,97L215,93L216,89L216,86L216,83L216,75L219,74L216,69L216,65L214,61L217,59L214,57L215,57L213,52L212,52L212,51L206,55L206,57L200,56L193,59L188,60L183,63L170,63L171,65L168,65L170,67L169,69L170,70L174,70L172,72L171,71L170,74L175,75L179,78L171,79L166,83L166,85L170,89L166,92L165,92L162,95L160,95L164,98L163,100L169,100L169,102L174,103L175,105L176,105Z " data-fips="KZ13" data-fips-="" data-iso3="KAZ" data-name="Qostanay" data-p="KUS"/><path d="M172,210L173,213L183,224L196,221L210,221L214,219L216,219L218,222L222,225L226,231L229,229L229,238L229,238L231,238L234,235L237,234L239,231L244,227L249,224L247,221L250,216L250,213L248,210L244,207L242,196L239,193L239,188L238,184L238,182L237,181L234,181L219,179L213,176L200,172L198,172L191,169L188,169L190,167L189,167L186,166L182,162L179,158L174,159L168,169L165,172L162,172L157,177L151,185L150,189L151,196L172,210Z M197,191L193,191L191,189L191,183L193,180L199,179L202,182L202,187L201,190L197,191Z " data-fips="KZ14" data-fips-="" data-iso3="KAZ" data-name="Qyzylorda" data-p="KZY"/><path d="M97,135L95,137L93,138L90,138L88,139L88,141L85,146L78,144L74,141L58,149L53,149L53,150L48,147L30,142L30,142L30,144L29,146L31,151L32,150L39,152L46,167L43,168L42,166L40,168L48,173L50,171L54,172L60,167L60,168L66,165L69,164L78,170L80,170L82,168L87,169L88,175L88,182L85,186L85,187L87,187L92,186L97,181L107,180L111,180L113,178L117,182L122,184L123,184L123,183L121,178L113,175L111,173L109,167L109,154L108,153L108,148L108,143L104,144L101,143L100,136L98,136L97,135Z " data-fips="KZ06" data-fips-="" data-iso3="KAZ" data-name="Atyrau" data-p="ATY"/><path d="M30,142L48,147L53,150L53,149L58,149L74,141L78,144L85,146L88,141L88,139L90,138L93,138L95,137L97,135L97,134L98,131L99,130L104,129L107,123L106,118L107,115L107,115L106,114L107,111L102,105L99,104L96,100L89,99L83,96L82,99L77,97L77,95L71,95L68,99L63,102L59,102L59,105L51,109L50,119L47,120L44,118L43,113L41,111L39,109L37,111L37,114L32,118L29,125L32,127L31,129L29,131L24,138L30,142L30,142Z " data-fips="KZ07" data-fips-="" data-iso3="KAZ" data-name="West Kazakhstan" data-p="ZAP"/><path d="M286,73L279,72L278,68L274,69L272,71L268,71L265,64L263,66L260,65L258,65L256,68L253,66L252,67L252,65L250,64L248,62L245,64L245,65L240,64L238,68L241,72L240,77L236,82L236,83L234,86L229,85L229,87L218,86L216,86L216,89L215,93L211,97L213,98L213,102L212,103L215,108L215,110L218,108L222,111L226,112L231,116L238,113L238,112L238,111L241,110L245,108L247,108L246,116L249,117L253,113L255,115L259,114L261,115L261,118L264,116L264,113L266,113L271,105L273,104L279,108L279,106L281,106L283,100L285,100L289,96L286,94L288,93L290,93L291,92L291,90L294,88L290,86L291,83L289,73L288,73L286,73Z " data-fips="KZ03" data-fips-="" data-iso3="KAZ" data-name="Aqmola" data-p="AKM"/><path d="M288,93L286,94L289,96L285,100L283,100L281,106L279,106L279,108L273,104L271,105L266,113L264,113L264,116L261,118L261,115L259,114L255,115L253,113L249,117L246,116L247,108L245,108L241,110L238,111L238,112L239,113L240,115L236,118L236,119L234,123L222,137L216,140L211,140L208,141L207,144L206,144L203,148L203,149L201,152L203,155L203,156L202,157L190,167L188,169L191,169L198,172L200,172L213,176L219,179L234,181L237,181L238,182L258,180L310,172L315,164L320,158L332,156L336,157L335,155L343,153L342,151L341,146L338,147L338,148L334,144L336,143L334,140L336,133L333,131L334,131L330,129L331,128L333,125L333,122L328,122L329,119L324,116L325,113L328,110L327,106L331,102L331,100L331,100L329,97L324,95L323,96L321,102L318,104L316,104L312,106L309,106L305,109L307,106L301,101L296,102L294,102L294,96L293,93L290,93L288,93Z " data-fips="KZ12" data-fips-="" data-iso3="KAZ" data-name="Qaraghandy" data-p="KAR"/><path d="M213,52L215,57L214,57L217,59L214,61L216,65L216,69L219,74L216,75L216,83L216,86L218,86L229,87L229,85L234,86L236,83L236,82L240,77L241,72L238,68L240,64L245,65L245,64L248,62L250,64L252,65L252,67L253,66L256,68L258,65L260,65L263,66L265,64L268,71L272,71L274,69L278,68L279,72L286,73L288,73L288,72L288,68L284,67L285,64L281,60L281,61L279,59L280,55L282,53L282,51L271,52L269,50L260,53L260,54L257,51L259,51L258,45L256,44L255,40L253,38L251,37L248,40L243,37L239,38L236,37L233,41L231,41L232,43L224,47L216,50L213,52Z " data-fips="KZ16" data-fips-="" data-iso3="KAZ" data-name="North Kazakhstan" data-p="SEV"/><path d="M281,60L285,64L284,67L288,68L288,72L288,73L289,73L291,83L290,86L294,88L291,90L291,92L290,93L293,93L294,96L294,102L296,102L301,101L307,106L305,109L309,106L312,106L316,104L318,104L321,102L323,96L324,95L329,97L331,100L331,100L332,100L339,101L340,99L341,96L338,91L337,82L340,75L336,71L322,56L318,52L307,47L305,44L307,44L308,39L306,40L298,47L297,49L292,52L289,56L289,59L288,57L283,58L282,60L281,60Z " data-fips="KZ11" data-fips-="" data-iso3="KAZ" data-name="Pavlodar" data-p="PAV"/><path d="M340,75L337,82L338,91L341,96L340,99L339,101L332,100L331,100L331,102L327,106L328,110L325,113L324,116L329,119L328,122L333,122L333,125L331,128L330,129L334,131L333,131L336,133L334,140L336,143L334,144L338,148L338,147L341,146L341,145L347,142L352,144L353,144L359,144L361,146L366,144L369,144L375,146L381,146L384,147L389,150L393,155L393,157L395,157L395,156L395,151L395,134L395,130L404,131L412,128L415,129L417,126L419,124L420,120L415,112L415,104L422,99L423,96L421,92L421,90L426,88L421,86L419,84L416,84L416,80L413,87L411,86L407,87L400,85L398,82L392,82L386,75L381,73L374,77L375,78L370,81L368,81L363,83L362,80L359,80L359,77L354,78L352,79L353,83L352,84L351,86L349,85L342,77L340,75Z " data-fips="KZ15" data-fips-="" data-iso3="KAZ" data-name="East Kazakhstan" data-p="VOS"/><path d="M341,146L342,151L343,153L335,155L336,157L332,156L320,158L315,164L310,172L309,175L310,178L311,182L308,183L308,184L317,191L321,195L323,195L328,197L328,201L326,206L330,208L330,209L336,214L337,213L344,212L350,210L353,210L357,209L367,208L368,208L373,207L374,209L379,211L380,210L385,212L386,213L387,211L384,206L385,203L387,201L385,201L387,198L389,198L388,196L387,195L387,193L380,183L379,177L380,174L372,174L374,171L388,163L390,162L393,164L395,162L398,163L399,161L399,158L395,157L395,157L393,157L393,155L389,150L384,147L381,146L375,146L369,144L366,144L361,146L359,144L353,144L352,144L347,142L341,145L341,146Z " data-fips="KZ01" data-fips-="" data-iso3="KAZ" data-name="Almaty" data-p="ALM"/><path d="M85,187L83,190L84,191L88,193L87,194L79,192L74,191L73,190L68,193L67,196L66,196L67,203L69,204L63,203L62,202L56,201L59,207L61,209L63,217L65,220L64,225L68,225L71,230L76,231L78,232L76,245L81,242L87,241L95,240L101,245L103,247L104,248L110,257L114,256L117,201L125,198L125,198L125,198L124,186L123,184L122,184L117,182L113,178L111,180L107,180L97,181L92,186L87,187L85,187L85,187Z " data-fips="KZ09" data-fips-="" data-iso3="KAZ" data-name="Mangghystau" data-p="MAN"/><path d="M258,180L238,182L238,184L239,188L239,193L242,196L244,207L248,210L250,213L250,216L247,221L249,224L244,227L239,231L237,234L234,235L231,238L229,238L229,244L235,243L238,255L240,256L250,254L255,256L254,260L259,262L262,254L265,252L265,251L273,244L278,237L281,237L282,235L284,234L283,233L283,232L276,227L273,221L266,218L267,216L269,208L267,199L262,188L259,182L258,180Z " data-fips="KZ10" data-fips-="" data-iso3="KAZ" data-name="South Kazakhstan" data-p="YUZ"/><path d="M310,172L258,180L259,182L262,188L267,199L269,208L267,216L266,218L273,221L276,227L283,232L284,232L285,228L287,226L291,224L303,224L306,226L310,225L310,227L311,221L311,217L319,213L331,216L335,216L336,214L336,214L330,209L330,208L326,206L328,201L328,197L323,195L321,195L317,191L308,184L308,183L311,182L310,178L309,175L310,172Z " data-fips="KZ17" data-fips-="" data-iso3="KAZ" data-name="Zhambyl" data-p="ZHA"/></g></svg>