<?xml version="1.0" encoding="UTF-8"?><!DOCTYPE svg  PUBLIC '-//W3C//DTD SVG 1.1//EN'  'http://www.w3.org/Graphics/SVG/1.1/DTD/svg11.dtd'><svg enable_background="new 0 0 450 451" height="451px" style="stroke-linejoin: round; stroke:#000; fill:#f6f3f0;" version="1.1" viewBox="0 0 450 451" width="450px" xmlns="http://www.w3.org/2000/svg" xmlns:xlink="http://www.w3.org/1999/xlink"><defs><style type="text/css"><![CDATA[path { fill-rule: evenodd; }
#context path { fill: #eee; stroke: #bbb; } ]]></style></defs><metadata><views><view h="451" padding="0.06" w="450"><proj id="laea" lat0="0.691043402681" lon0="38.4607587629"/><bbox h="137.33" w="110.39" x="937.69" y="934.82"/><llbbox lat0="-90" lat1="90" lon0="-180" lon1="180"/></view></views></metadata><g id="context"><path d="M120,19L120,21L122,24L128,22L139,25L141,28L139,41L140,47L146,55L148,59L153,61L182,62L186,63L205,75L233,94L239,95L254,96L260,97L279,101L290,102L292,101L296,97L302,90L304,86L311,82L341,69L356,81L359,82L380,80L386,80L387,78L392,74L400,71L405,71L423,68L428,61L432,57L436,53L450,47L450,0L108,0L109,5L112,12L119,19L120,19Z " data-iso="ETH"/><path d="M350,328L355,326L354,323L350,326L350,328Z M120,19L113,27L84,54L76,63L68,71L74,84L75,87L79,90L84,92L86,95L85,103L87,113L90,115L92,123L100,131L101,135L105,141L104,143L105,151L107,158L108,166L107,175L100,185L101,190L95,193L88,199L85,206L79,213L75,217L73,221L70,229L66,234L65,242L65,257L64,275L64,281L67,281L215,364L216,365L217,374L215,378L214,383L216,383L220,388L231,396L278,430L279,430L279,429L282,427L285,428L290,422L303,394L305,385L310,376L315,372L315,369L318,363L318,355L319,349L322,347L327,344L336,343L343,338L343,335L347,333L347,327L346,323L350,320L355,321L361,319L366,316L372,309L372,304L350,276L350,219L349,127L350,126L364,112L381,88L386,80L380,80L359,82L356,81L341,69L311,82L304,86L302,90L296,97L292,101L290,102L279,101L260,97L254,96L239,95L233,94L205,75L186,63L182,62L153,61L148,59L146,55L140,47L139,41L141,28L139,25L128,22L122,24L120,21L120,19Z " data-iso="KEN"/><path d="M68,71L76,63L84,54L113,27L120,19L119,19L112,12L109,5L108,0L0,0L0,92L2,91L10,89L22,87L28,84L35,88L41,89L48,89L58,80L68,71Z " data-iso="SDS"/><path d="M386,80L381,88L364,112L350,126L349,127L350,219L350,276L372,304L372,309L376,305L380,299L390,280L400,271L407,262L410,259L414,254L420,248L450,216L450,47L436,53L432,57L428,61L423,68L405,71L400,71L392,74L387,78L386,80Z " data-iso="SOM"/><path d="M305,449L305,439L301,440L297,440L298,447L298,449L305,449Z M279,430L278,430L231,396L220,388L216,383L214,383L215,378L217,374L216,365L215,364L67,281L64,281L60,281L46,281L24,281L0,281L0,449L274,449L275,442L278,434L279,430Z " data-iso="TZA"/><path d="M64,281L64,275L65,257L65,242L66,234L70,229L73,221L75,217L79,213L85,206L88,199L95,193L101,190L100,185L107,175L108,166L107,158L105,151L104,143L105,141L101,135L100,131L92,123L90,115L87,113L85,103L86,95L84,92L79,90L75,87L74,84L68,71L58,80L48,89L41,89L35,88L28,84L22,87L10,89L2,91L0,92L0,281L24,281L46,281L60,281L64,281Z " data-iso="UGA"/></g><g fill="red" fill-opacity="0.35" id="regions"><path d="M151,62L151,109L153,111L155,115L154,120L159,121L159,122L164,125L167,131L167,134L170,138L172,144L174,144L179,139L183,149L185,151L189,159L195,160L200,164L202,168L204,169L205,173L209,177L211,183L212,184L222,181L227,184L227,190L231,195L232,209L230,209L226,211L217,214L212,218L207,217L204,216L201,211L193,209L186,211L186,213L184,217L203,220L204,224L205,227L204,232L200,237L194,240L193,240L194,241L207,258L207,263L209,265L209,271L203,273L200,272L199,276L204,280L204,283L197,285L195,290L195,291L194,292L191,294L188,294L185,298L184,298L184,299L189,300L188,302L189,305L196,313L195,315L201,322L203,322L214,328L218,329L217,331L216,334L213,336L226,350L226,351L226,353L227,353L234,350L236,350L241,354L244,359L248,361L251,360L254,362L262,364L272,363L255,338L262,335L269,320L269,318L268,312L270,309L270,287L265,276L246,244L248,244L252,242L259,243L260,244L259,235L260,232L257,223L258,221L261,220L263,217L276,212L282,204L288,201L281,183L282,182L288,179L284,175L279,172L275,166L271,161L268,152L265,140L268,138L274,126L275,123L281,120L282,100L280,101L266,99L256,96L252,95L251,94L245,96L237,95L229,91L194,68L190,65L183,62L175,62L174,62L160,62L157,62L151,62Z " data-fips="KE03" data-fips-="" data-iso3="KEN" data-name="Eastern"/><path d="M91,196L94,200L98,204L102,207L108,205L113,206L115,212L112,216L107,216L105,218L103,218L102,221L105,222L106,226L105,234L100,240L99,241L99,241L106,243L108,242L111,243L112,242L117,242L120,247L121,251L115,248L114,246L111,250L109,256L110,259L111,269L111,271L108,277L97,280L94,280L92,281L95,289L97,298L215,364L216,365L217,370L223,369L223,369L224,362L226,353L226,351L226,350L213,336L216,334L217,331L218,329L214,328L203,322L201,322L195,315L196,313L189,305L188,302L189,300L184,299L184,298L183,297L182,297L178,294L176,293L176,293L169,292L171,286L173,285L172,278L170,274L170,270L169,266L165,264L165,258L164,257L159,257L157,252L157,250L158,244L159,241L168,237L170,239L175,241L171,244L172,246L178,247L182,246L184,247L183,250L185,253L188,253L190,250L190,246L191,243L193,240L194,240L200,237L204,232L205,227L204,224L203,220L184,217L186,213L186,211L193,209L201,211L204,216L207,217L212,218L217,214L226,211L230,209L232,209L231,195L227,190L227,184L222,181L212,184L211,183L209,177L205,173L204,169L202,168L200,164L195,160L189,159L185,151L183,149L179,139L174,144L172,144L170,138L167,134L167,131L164,125L159,122L159,121L154,120L155,115L153,111L151,109L151,62L151,62L147,58L146,55L141,49L139,45L139,37L142,33L141,26L135,24L132,24L130,23L126,23L124,24L121,25L119,22L120,20L84,54L69,71L71,80L73,81L72,84L77,86L75,86L79,90L80,91L87,94L86,99L84,101L84,105L87,114L89,114L94,125L98,126L100,133L101,136L105,140L105,143L103,145L103,146L107,156L107,161L109,164L108,165L108,173L106,177L103,180L102,183L100,185L101,190L99,192L92,194L91,196L91,196Z " data-fips="KE08" data-fips-="" data-iso3="KEN" data-name="Rift Valley"/><path d="M91,197L88,197L87,201L85,206L80,212L79,213L74,218L71,225L72,226L64,236L64,237L66,244L71,236L73,232L78,229L83,229L85,232L87,234L89,239L89,241L98,242L99,241L100,240L105,234L106,226L105,222L102,221L103,218L105,218L107,216L112,216L115,212L113,206L108,205L102,207L98,204L94,200L91,196L91,197Z " data-fips="KE09" data-fips-="" data-iso3="KEN" data-name="Western"/><path d="M282,100L281,120L275,123L274,126L268,138L265,140L268,152L271,161L275,166L279,172L284,175L288,179L282,182L281,183L288,201L282,204L276,212L263,217L261,220L258,221L257,223L260,232L259,235L260,244L267,245L269,243L272,243L276,246L282,246L289,250L291,252L293,254L296,261L299,265L300,265L303,270L305,279L308,285L307,287L310,290L312,302L315,307L315,311L315,315L316,316L317,325L319,324L351,310L372,309L372,306L372,304L350,276L349,241L349,160L349,127L350,126L364,112L373,100L386,81L382,81L381,80L368,82L359,82L355,81L353,80L349,75L347,74L341,68L338,70L326,75L325,76L318,78L304,85L300,93L293,100L292,103L282,100L282,100Z " data-fips="KE06" data-fips-="" data-iso3="KEN" data-name="North-Eastern"/><path d="M357,325L356,324L353,325L350,326L351,328L357,325Z M226,353L224,362L223,369L223,369L217,370L218,375L213,378L214,383L218,383L220,388L278,430L281,427L286,428L288,424L288,426L290,422L291,419L297,407L297,406L293,405L297,401L297,404L302,399L305,390L302,387L302,386L305,387L309,377L316,372L318,363L317,359L318,354L317,353L320,348L326,344L335,344L339,341L342,333L344,332L349,333L347,328L347,325L345,321L347,322L348,324L349,324L350,319L350,322L351,323L355,321L358,321L364,318L368,315L372,309L372,309L351,310L319,324L317,325L316,316L315,315L315,311L315,307L312,302L310,290L307,287L308,285L305,279L303,270L300,265L299,265L296,261L293,254L291,252L289,250L282,246L276,246L272,243L269,243L267,245L260,244L259,243L252,242L248,244L246,244L265,276L270,287L270,309L268,312L269,318L269,320L262,335L255,338L272,363L262,364L254,362L251,360L248,361L244,359L241,354L236,350L234,350L227,353L226,353Z " data-fips="KE02" data-fips-="" data-iso3="KEN" data-name="Coast"/><path d="M191,243L190,246L190,250L188,253L185,253L183,250L184,247L182,246L178,247L172,246L171,244L175,241L170,239L168,237L159,241L158,244L157,250L157,252L159,257L164,257L165,258L165,264L169,266L170,270L170,274L172,278L173,285L171,286L169,292L176,293L176,293L177,292L185,288L187,287L189,290L194,290L195,291L195,290L197,285L204,283L204,280L199,276L200,272L203,273L209,271L209,265L207,263L207,258L194,241L193,240L191,243Z " data-fips="KE01" data-fips-="" data-iso3="KEN" data-name="Central"/><path d="M194,290L189,290L187,287L185,288L177,292L176,293L178,294L182,297L183,297L184,298L185,298L188,294L191,294L194,292L195,291L194,290Z " data-fips="KE05" data-fips-="" data-iso3="KEN" data-name="Nairobi"/><path d="M98,242L89,241L89,239L87,234L85,232L83,229L78,229L73,232L71,236L66,244L66,246L66,247L64,268L64,281L68,281L70,283L97,298L95,289L92,281L94,280L97,280L108,277L111,271L111,269L110,259L109,256L111,250L114,246L115,248L121,251L120,247L117,242L112,242L111,243L108,242L106,243L99,241L99,241L98,242Z " data-fips="KE07" data-fips-="" data-iso3="KEN" data-name="Nyanza"/></g></svg>