<?xml version="1.0" encoding="UTF-8"?><!DOCTYPE svg  PUBLIC '-//W3C//DTD SVG 1.1//EN'  'http://www.w3.org/Graphics/SVG/1.1/DTD/svg11.dtd'><svg enable_background="new 0 0 450 301" height="301px" style="stroke-linejoin: round; stroke:#000; fill:#f6f3f0;" version="1.1" viewBox="0 0 450 301" width="450px" xmlns="http://www.w3.org/2000/svg" xmlns:xlink="http://www.w3.org/1999/xlink"><defs><style type="text/css"><![CDATA[path { fill-rule: evenodd; }
#context path { fill: #eee; stroke: #bbb; } ]]></style></defs><metadata><views><view h="301.0" padding="0.06" w="450"><proj id="laea" lat0="42.8582628445" lon0="74.5862793119"/><bbox h="62.28" w="115.07" x="943.0" y="988.84"/><llbbox lat0="-90" lat1="90" lon0="-180" lon1="180"/></view></views></metadata><g id="context"><path d="M98,299L99,295L97,289L89,283L83,281L77,282L73,286L69,293L64,299L98,299Z " data-iso="AFG"/><path d="M424,97L425,100L425,104L414,106L411,107L409,112L394,119L392,119L387,122L373,130L360,140L359,144L352,155L346,156L340,156L332,159L321,159L317,159L310,158L304,161L300,169L296,181L292,187L287,192L284,188L281,191L277,190L270,194L263,194L262,193L261,184L257,179L247,186L238,188L233,185L231,189L232,193L226,194L216,203L210,205L201,207L199,210L195,219L198,228L194,234L190,235L187,236L187,238L186,246L193,260L191,261L190,266L193,276L196,278L202,280L206,274L211,274L220,277L229,281L231,284L232,286L230,292L230,299L450,299L450,0L423,0L423,5L426,11L428,14L437,36L439,43L441,51L440,52L435,51L427,55L427,57L430,60L433,61L433,63L429,64L423,68L421,74L423,87L425,93L425,96L424,97Z " data-iso="CHN"/><path d="M93,98L91,96L91,93L95,88L96,84L105,75L111,73L125,71L137,75L141,75L150,79L155,80L161,85L173,87L177,88L181,92L184,93L182,84L183,79L187,64L198,58L200,55L209,55L210,53L215,56L224,62L231,66L239,69L250,72L260,73L262,72L265,67L267,67L291,68L310,65L317,67L337,67L344,69L362,68L372,71L385,72L387,76L395,84L397,86L409,86L413,87L419,92L424,97L425,96L425,93L423,87L421,74L423,68L429,64L433,63L433,61L430,60L427,57L427,55L435,51L440,52L441,51L439,43L437,36L428,14L426,11L423,5L423,0L0,0L0,172L3,171L3,161L10,152L20,144L22,142L23,137L34,132L36,129L46,123L50,122L56,120L61,117L74,105L76,105L80,108L84,101L90,100L93,98Z " data-iso="KAZ"/><path d="M419,92L413,87L409,86L397,86L395,84L387,76L385,72L372,71L362,68L344,69L337,67L317,67L310,65L291,68L267,67L265,67L262,72L260,73L250,72L239,69L231,66L224,62L215,56L210,53L209,55L200,55L198,58L187,64L183,79L182,84L184,93L181,92L177,88L173,87L161,85L155,80L150,79L141,75L137,75L125,71L111,73L105,75L96,84L95,88L91,93L91,96L93,98L94,97L96,96L99,98L103,103L96,106L89,109L87,113L78,118L74,122L64,129L65,132L68,133L74,138L80,136L84,139L85,145L88,147L97,151L103,151L107,152L108,142L113,144L116,138L115,135L119,134L119,137L121,139L124,144L125,150L131,152L135,151L136,159L139,158L147,161L151,166L165,167L170,169L169,171L157,177L156,179L149,183L143,180L142,183L143,186L141,189L135,186L133,187L124,196L116,200L102,193L90,194L89,195L89,196L89,197L81,200L77,202L76,206L72,208L70,203L53,195L36,199L35,201L34,207L28,205L24,215L26,219L26,226L32,226L37,224L44,226L57,226L59,225L61,227L67,226L75,227L79,234L82,235L89,235L92,231L100,229L102,228L107,226L108,227L108,232L110,234L114,234L116,235L116,241L119,243L126,239L128,239L135,246L140,240L150,238L159,239L168,240L172,239L181,235L185,235L187,236L190,235L194,234L198,228L195,219L199,210L201,207L210,205L216,203L226,194L232,193L231,189L233,185L238,188L247,186L257,179L261,184L262,193L263,194L270,194L277,190L281,191L284,188L287,192L292,187L296,181L300,169L304,161L310,158L317,159L321,159L332,159L340,156L346,156L352,155L359,144L360,140L373,130L387,122L392,119L394,119L409,112L411,107L414,106L425,104L425,100L424,97L419,92Z M98,212L91,212L92,208L89,202L92,199L93,203L99,205L97,208L98,212Z M79,214L72,214L71,212L79,214Z " data-iso="KGZ"/><path d="M79,214L71,212L72,214L79,214Z M80,161L77,156L78,161L80,161Z M187,236L185,235L181,235L172,239L168,240L159,239L150,238L140,240L135,246L128,239L126,239L119,243L116,241L116,235L114,234L110,234L108,232L108,227L107,226L102,228L100,229L92,231L89,235L82,235L79,234L75,227L67,226L61,227L59,225L57,226L44,226L37,224L32,226L26,226L26,219L24,215L28,205L34,207L35,201L36,199L53,195L70,203L72,208L76,206L77,202L81,200L89,197L89,196L89,195L87,195L78,196L74,190L68,187L69,184L81,174L83,171L79,168L79,165L72,156L70,156L66,162L45,172L37,167L34,165L30,168L30,173L26,176L29,187L25,189L27,194L15,192L4,193L4,195L14,196L16,197L13,199L9,200L10,204L11,206L3,209L0,219L0,299L64,299L69,293L73,286L77,282L83,281L89,283L97,289L99,295L98,299L230,299L230,292L232,286L231,284L229,281L220,277L211,274L206,274L202,280L196,278L193,276L190,266L191,261L193,260L186,246L187,238L187,236Z " data-iso="TJK"/><path d="M98,212L97,208L99,205L93,203L92,199L89,202L92,208L91,212L98,212Z M89,195L90,194L102,193L116,200L124,196L133,187L135,186L141,189L143,186L142,183L143,180L149,183L156,179L157,177L169,171L170,169L165,167L151,166L147,161L139,158L136,159L135,151L131,152L125,150L124,144L121,139L119,137L119,134L115,135L116,138L113,144L108,142L107,152L103,151L97,151L88,147L85,145L84,139L80,136L74,138L68,133L65,132L64,129L74,122L78,118L87,113L89,109L96,106L103,103L99,98L96,96L94,97L93,98L90,100L84,101L80,108L76,105L74,105L61,117L56,120L50,122L46,123L36,129L34,132L23,137L22,142L20,144L10,152L3,161L3,171L0,172L0,219L3,209L11,206L10,204L9,200L13,199L16,197L14,196L4,195L4,193L15,192L27,194L25,189L29,187L26,176L30,173L30,168L34,165L37,167L45,172L66,162L70,156L72,156L79,165L79,168L83,171L81,174L69,184L68,187L74,190L78,196L87,195L89,195Z " data-iso="UZB"/></g><g fill="red" fill-opacity="0.35" id="regions"><path d="M225,74L226,71L224,68L221,70L220,71L225,74Z " data-fips="KG01" data-fips-="" data-iso3="KGZ" data-name="Bishkek"/><path d="M184,92L190,91L191,93L188,97L174,99L171,100L169,104L171,105L170,106L170,106L183,112L185,112L188,113L194,113L195,115L199,114L202,114L207,119L208,117L210,116L213,112L215,108L213,107L217,101L218,102L227,100L228,99L231,92L240,92L248,92L250,91L257,93L260,91L260,90L262,89L267,84L271,84L277,83L282,80L289,76L296,75L298,74L301,75L302,73L313,72L316,67L315,67L311,65L307,64L302,65L298,68L293,69L291,68L288,69L282,68L275,67L273,68L269,67L265,67L260,74L257,73L247,72L224,62L221,59L211,54L210,52L209,55L204,56L201,54L195,59L189,61L185,67L184,70L185,74L181,82L182,87L184,92Z M220,71L221,70L224,68L226,71L225,74L220,71Z " data-fips="KG02" data-fips-="" data-iso3="KGZ" data-name="Chuy"/><path d="M316,67L313,72L302,73L301,75L298,74L296,75L289,76L282,80L277,83L271,84L267,84L262,89L260,90L260,91L265,95L271,94L274,98L273,102L274,105L275,110L275,112L279,111L297,115L296,119L290,120L291,122L300,123L298,131L304,132L309,131L311,132L318,131L323,130L321,135L321,138L325,141L323,147L332,144L334,145L335,148L338,148L343,149L348,148L351,146L353,146L355,150L356,148L359,141L365,136L369,134L370,131L375,129L390,121L395,119L403,114L408,113L411,107L414,106L423,105L424,98L422,96L419,92L413,86L405,85L397,86L387,77L384,70L380,72L375,72L372,71L368,70L365,68L357,67L355,69L348,69L345,69L336,68L333,67L328,68L326,67L321,67L316,67L316,67Z " data-fips="KG06" data-fips-="KG07" data-iso3="KGZ" data-name="Ysyk-Kl"/><path d="M260,90L260,91L257,93L250,91L248,92L240,92L231,92L228,99L227,100L218,102L217,101L213,107L215,108L213,112L210,116L208,117L207,119L202,114L199,114L195,115L194,115L195,120L196,119L201,120L201,125L206,127L206,132L204,131L202,127L199,128L200,131L210,134L214,134L217,135L219,133L221,134L226,132L227,141L225,142L214,147L215,149L211,151L209,151L205,153L204,155L207,157L206,158L203,162L204,163L215,175L223,180L223,183L227,184L232,185L232,185L237,187L240,188L248,186L256,179L260,180L263,188L262,191L263,195L267,194L270,195L274,192L277,190L280,191L284,187L286,191L291,188L297,180L298,173L299,170L302,167L302,163L307,159L311,158L315,159L329,160L335,159L340,156L342,156L350,157L354,152L355,150L353,146L351,146L348,148L343,149L338,148L335,148L334,145L332,144L323,147L325,141L321,138L321,135L323,130L318,131L311,132L309,131L304,132L298,131L300,123L291,122L290,120L296,119L297,115L279,111L275,112L275,110L274,105L273,102L274,98L271,94L265,95L260,91L260,90Z " data-fips="KG03" data-fips-="KG04" data-iso3="KGZ" data-name="Naryn"/><path d="M108,227L111,222L119,222L125,223L130,226L137,225L147,220L147,218L143,215L141,212L138,210L138,202L135,199L136,195L135,194L128,195L128,195L122,196L119,199L117,201L115,200L114,195L112,198L108,197L104,193L102,193L100,191L98,194L93,193L88,198L84,198L77,202L74,208L70,210L70,209L73,206L72,203L67,202L59,198L54,195L53,194L38,199L36,198L34,204L35,207L31,208L29,204L27,206L24,216L26,220L26,225L26,227L29,225L30,226L35,226L37,224L40,224L50,227L53,226L57,227L59,224L61,228L65,226L71,225L73,226L78,231L79,236L84,235L89,235L92,231L93,230L99,230L100,229L108,227L108,227Z M91,199L97,205L99,205L97,208L98,212L94,213L93,211L90,212L92,207L90,205L89,203L91,199Z M117,212L119,209L119,212L117,212Z M76,213L79,213L79,215L74,217L72,211L76,213Z " data-fips="KG09" data-fips-="" data-iso3="KGZ" data-name="Batken"/><path d="M104,101L94,108L89,108L86,114L83,114L76,120L74,123L64,129L65,133L71,134L73,137L75,137L80,135L82,136L84,140L84,146L87,146L90,149L92,149L97,151L101,150L102,152L104,151L107,153L108,151L108,143L112,145L114,143L116,137L115,136L116,133L118,135L118,139L120,138L124,144L124,150L130,152L135,151L135,159L135,160L141,156L142,158L146,159L146,161L149,162L150,165L154,167L160,167L161,169L165,167L167,168L169,168L170,169L174,166L175,160L182,157L189,154L187,160L191,163L192,160L197,155L199,160L203,162L206,158L207,157L204,155L205,153L209,151L211,151L215,149L214,147L225,142L227,141L226,132L221,134L219,133L217,135L214,134L210,134L200,131L199,128L202,127L204,131L206,132L206,127L201,125L201,120L196,119L195,120L194,115L195,115L194,113L188,113L185,112L183,112L170,106L170,106L169,106L161,109L159,109L157,107L153,105L150,105L143,102L139,103L137,107L135,108L132,108L130,106L124,104L118,101L110,102L104,101L104,101Z " data-fips="KG02" data-fips-="KG03" data-iso3="KGZ" data-name="Jalal-Abad"/><path d="M104,101L110,102L118,101L124,104L130,106L132,108L135,108L137,107L139,103L143,102L150,105L153,105L157,107L159,109L161,109L169,106L170,106L171,105L169,104L171,100L174,99L188,97L191,93L190,91L184,92L184,92L183,93L178,92L176,88L174,87L169,86L164,86L157,81L152,79L142,75L137,75L128,72L121,72L117,74L111,72L109,74L105,74L101,77L101,81L96,83L98,87L93,90L90,95L93,98L98,97L103,100L104,101Z " data-fips="KG04" data-fips-="KG06" data-iso3="KGZ" data-name="Talas"/><path d="M170,169L170,170L156,178L156,181L152,181L151,184L146,182L142,179L141,179L142,184L143,185L142,189L136,188L137,186L135,186L132,187L130,190L126,193L128,195L128,195L135,194L136,195L135,199L138,202L138,210L141,212L143,215L147,218L147,220L137,225L130,226L125,223L119,222L111,222L108,227L108,227L108,233L117,234L116,239L116,241L119,243L128,238L129,242L134,245L135,247L138,241L142,240L144,240L145,239L147,239L164,240L166,239L169,240L176,238L183,235L186,235L194,235L196,231L198,229L197,222L195,221L195,217L196,216L201,206L204,206L207,204L214,205L219,201L222,197L227,193L233,194L231,185L232,185L227,184L223,183L223,180L215,175L204,163L203,162L199,160L197,155L192,160L191,163L187,160L189,154L182,157L175,160L174,166L170,169L170,169Z " data-fips="KG08" data-fips-="" data-iso3="KGZ" data-name="Osh"/></g></svg>