<?xml version="1.0" encoding="UTF-8"?><!DOCTYPE svg  PUBLIC '-//W3C//DTD SVG 1.1//EN'  'http://www.w3.org/Graphics/SVG/1.1/DTD/svg11.dtd'><svg enable_background="new 0 0 450 301" height="301px" style="stroke-linejoin: round; stroke:#000; fill:#f6f3f0;" version="1.1" viewBox="0 0 450 301" width="450px" xmlns="http://www.w3.org/2000/svg" xmlns:xlink="http://www.w3.org/1999/xlink"><defs><style type="text/css"><![CDATA[path { fill-rule: evenodd; }
#context path { fill: #eee; stroke: #bbb; } ]]></style></defs><metadata><views><view h="301.0" padding="0.06" w="450"><proj id="laea" lat0="13.823575141" lon0="103.070484678"/><bbox h="61.01" w="71.2" x="987.1" y="984.81"/><llbbox lat0="-90" lat1="90" lon0="-180" lon1="180"/></view></views></metadata><g id="context"><path d="M128,262L123,258L123,260L126,265L128,262Z M112,228L112,222L109,224L109,228L112,228Z M374,19L371,21L368,27L366,28L361,26L356,32L350,37L346,36L340,42L333,43L329,39L315,27L311,31L306,35L298,34L297,39L295,40L286,41L284,42L286,47L291,55L293,60L290,67L280,67L276,64L270,58L258,54L250,57L247,57L239,48L238,44L238,42L237,43L231,50L229,50L225,41L220,39L214,38L202,40L192,41L182,40L171,42L158,42L153,41L145,38L142,39L135,41L121,44L111,49L104,56L102,60L94,73L87,81L83,84L84,86L83,89L71,90L70,92L70,107L72,113L78,123L80,135L80,144L88,150L95,159L92,169L94,179L106,202L106,200L107,198L110,202L110,210L117,217L116,223L115,232L116,241L119,250L126,251L131,250L134,247L137,240L141,236L148,242L152,252L150,260L145,262L142,265L141,269L144,272L149,275L160,271L161,266L163,267L165,270L185,273L194,281L203,274L218,274L220,273L231,263L232,261L230,252L231,250L238,251L247,254L251,248L263,246L270,245L273,245L280,253L284,251L294,256L298,256L296,249L298,243L294,239L281,229L279,227L278,208L279,206L285,203L288,198L293,199L307,203L312,199L312,187L317,185L328,184L332,180L342,178L349,172L355,166L365,163L369,167L372,165L376,160L378,156L378,150L378,140L374,126L373,120L377,108L380,95L380,90L376,82L367,62L366,60L364,54L365,39L370,34L375,22L374,19Z " data-iso="KHM"/><path d="M371,2L373,6L374,9L373,12L374,19L371,21L368,27L366,28L361,26L356,32L350,37L346,36L340,42L333,43L329,39L315,27L311,31L306,35L298,34L297,39L295,40L286,41L284,42L286,47L291,55L293,60L290,67L280,67L276,64L270,58L258,54L250,57L247,57L239,48L238,44L238,42L241,41L247,38L251,35L255,31L256,27L257,12L258,7L258,0L255,-5L255,-13L256,-19L260,-22L262,-27L263,-33L263,-37L262,-40L259,-42L253,-45L249,-48L248,-51L248,-54L250,-57L245,-60L235,-63L229,-67L227,-72L223,-78L215,-86L211,-97L211,-111L211,-123L215,-136L210,-146L205,-151L198,-155L192,-160L186,-167L179,-178L170,-191L164,-197L161,-196L155,-197L146,-201L138,-203L131,-204L126,-203L126,-197L125,-195L121,-194L118,-192L113,-180L109,-177L104,-177L99,-175L93,-172L91,-169L88,-168L87,-174L84,-176L79,-177L72,-181L65,-187L61,-191L58,-191L54,-189L49,-183L45,-181L42,-182L39,-180L37,-175L34,-172L18,-161L12,-156L4,-148L0,-147L-8,-151L-11,-154L-6,-166L1,-181L3,-187L3,-196L-2,-203L-2,-205L4,-216L8,-226L12,-238L11,-244L8,-252L7,-259L8,-268L8,-272L4,-274L-6,-276L-19,-270L-26,-270L-32,-273L-37,-278L-39,-285L-32,-300L-30,-305L-33,-311L-36,-314L-39,-320L-43,-323L-46,-323L-48,-321L-53,-315L-54,-316L-53,-323L-50,-336L-46,-344L-42,-348L-37,-350L-32,-349L-28,-350L-25,-352L-25,-353L-29,-353L-30,-355L-30,-360L-28,-362L-25,-364L-23,-368L-20,-375L-17,-379L-13,-379L-7,-382L1,-388L5,-394L8,-391L7,-384L9,-380L9,-377L13,-371L22,-374L27,-374L37,-369L42,-372L42,-374L38,-379L39,-407L39,-409L37,-413L31,-419L29,-427L29,-430L27,-435L32,-440L35,-448L40,-450L45,-443L51,-446L55,-446L61,-443L64,-437L71,-431L78,-421L81,-417L86,-414L88,-411L91,-400L93,-399L97,-402L99,-408L101,-404L107,-400L107,-394L105,-390L101,-375L103,-372L116,-353L122,-350L136,-346L146,-341L150,-342L155,-348L160,-351L169,-356L172,-356L177,-354L186,-349L200,-338L199,-336L197,-333L190,-329L187,-326L189,-325L195,-324L202,-322L204,-319L206,-312L213,-312L217,-310L219,-304L219,-301L215,-296L213,-294L212,-289L209,-285L200,-276L198,-276L182,-280L169,-279L168,-278L170,-273L170,-268L168,-264L161,-257L162,-255L173,-251L192,-238L202,-230L208,-227L224,-223L231,-220L231,-213L229,-206L234,-199L244,-190L251,-188L259,-178L261,-169L265,-163L270,-158L277,-151L283,-144L299,-132L302,-128L308,-119L312,-116L314,-112L315,-98L318,-95L324,-87L327,-86L333,-90L336,-83L338,-80L346,-76L355,-68L359,-65L365,-62L366,-59L363,-55L353,-50L352,-47L359,-36L362,-33L376,-23L381,-15L380,-11L376,-3L372,-0L371,2Z " data-iso="LAO"/><path d="M86,204L82,208L85,211L86,204Z M76,185L69,176L67,175L67,177L68,186L76,187L76,185Z M106,202L94,179L92,169L95,159L88,150L80,144L80,135L78,123L72,113L70,107L70,92L71,90L83,89L84,86L83,84L87,81L94,73L102,60L104,56L111,49L121,44L135,41L142,39L145,38L153,41L158,42L171,42L182,40L192,41L202,40L214,38L220,39L225,41L229,50L231,50L237,43L238,42L241,41L247,38L251,35L255,31L256,27L257,12L258,7L258,0L258,0L0,0L0,144L18,147L34,143L41,146L53,152L58,158L64,165L66,161L71,169L76,174L82,178L86,172L89,176L96,184L97,191L103,198L104,203L106,202Z " data-iso="THA"/><path d="M171,299L174,292L174,285L171,280L168,280L163,283L160,283L161,285L166,291L169,299L171,299Z M358,280L357,278L352,280L353,283L358,280Z M371,2L373,6L374,9L373,12L374,19L375,22L370,34L365,39L364,54L366,60L367,62L376,82L380,90L380,95L377,108L373,120L374,126L378,140L378,150L378,156L376,160L372,165L369,167L365,163L355,166L349,172L342,178L332,180L328,184L317,185L312,187L312,199L307,203L293,199L288,198L285,203L279,206L278,208L279,227L281,229L294,239L298,243L296,249L298,256L294,256L284,251L280,253L273,245L270,245L263,246L251,248L247,254L238,251L231,250L230,252L232,261L231,263L220,273L218,274L203,274L194,281L200,285L204,289L206,293L209,295L214,293L217,293L221,298L225,299L302,299L299,296L296,291L305,299L333,299L335,297L335,295L332,292L324,290L316,286L317,286L326,287L333,286L334,281L332,277L324,276L331,272L336,278L342,281L344,280L346,277L346,267L348,264L350,270L353,274L359,275L363,280L370,276L375,274L381,270L398,261L407,259L412,248L423,246L431,239L439,232L448,229L450,227L450,0L372,0L371,2Z " data-iso="VNM"/></g><g fill="red" fill-opacity="0.35" id="regions"><path d="M110,50L106,52L104,56L103,59L101,64L96,68L94,74L90,79L85,82L83,84L86,88L77,90L70,90L70,94L70,95L88,96L90,99L93,99L97,97L104,99L119,97L124,99L133,98L133,85L134,77L134,72L135,71L135,69L130,64L129,60L125,64L120,60L121,57L117,56L111,49L110,50Z " data-fips="CB25" data-fips-="CB01" data-iso3="KHM" data-name="Bntay Manchey"/><path d="M70,95L70,103L73,116L80,124L80,125L85,124L87,118L90,117L92,118L95,124L95,128L94,140L90,143L80,145L80,145L90,152L96,158L96,159L107,156L109,154L114,155L118,153L123,151L135,150L139,151L145,149L147,144L146,139L147,136L147,132L148,132L150,123L153,120L157,115L154,112L149,104L138,100L135,100L133,98L124,99L119,97L104,99L97,97L93,99L90,99L88,96L70,95L70,95Z " data-fips="CB29" data-fips-="CB01" data-iso3="KHM" data-name="Batdmbng"/><path d="M126,261L122,259L121,260L123,262L128,263L126,261Z M109,220L108,222L109,228L112,229L112,222L109,220Z M112,219L113,217L111,214L109,214L112,219Z M96,182L98,188L105,201L105,205L104,206L107,209L107,206L108,202L111,201L112,202L109,203L108,205L109,210L107,212L108,213L113,213L116,217L118,216L120,219L116,218L116,224L118,226L116,227L113,232L115,232L116,235L115,240L116,245L115,249L118,251L117,252L123,253L123,252L126,249L132,252L135,251L136,240L137,236L139,237L143,236L146,240L150,241L149,243L152,252L152,255L150,257L151,260L151,261L153,259L156,252L160,250L165,246L168,243L171,242L173,241L175,236L177,235L176,230L174,228L175,225L172,217L173,214L172,213L168,211L165,211L157,206L156,197L157,191L161,190L160,190L149,184L146,181L140,177L134,176L129,182L127,183L120,185L115,185L110,183L96,182L96,182Z " data-fips="CB08" data-fips-="" data-iso3="KHM" data-name="Kah Kong"/><path d="M178,136L157,115L153,120L150,123L148,132L147,132L147,136L146,139L147,144L145,149L139,151L135,150L123,151L118,153L114,155L109,154L107,156L96,159L96,160L93,164L91,174L92,176L95,181L96,182L110,183L115,185L120,185L127,183L129,182L134,176L140,177L146,181L149,184L160,190L161,190L162,189L165,186L168,188L170,188L173,186L175,181L179,179L180,178L179,174L180,170L182,167L189,164L192,159L192,154L193,151L183,143L180,139L178,136Z " data-fips="CB12" data-fips-="" data-iso3="KHM" data-name="Pouthisat"/><path d="M171,42L173,49L163,53L157,56L150,64L145,66L142,68L137,70L135,71L134,72L134,77L133,85L133,98L135,100L138,100L149,104L154,112L157,115L178,136L180,139L181,138L190,130L192,125L196,117L197,112L201,108L202,107L202,99L203,96L208,90L193,88L193,78L189,72L192,68L194,58L197,51L194,48L195,42L195,42L187,41L184,39L177,41L173,41L171,42Z " data-fips="CB24" data-fips-="CB16" data-iso3="KHM" data-name="Siemrab"/><path d="M111,49L117,56L121,57L120,60L125,64L129,60L130,64L135,69L135,71L137,70L142,68L145,66L150,64L157,56L163,53L173,49L171,42L170,42L168,43L167,41L163,42L163,43L152,41L149,40L149,38L148,37L145,39L141,38L136,41L134,41L130,43L126,43L118,44L115,46L111,49Z " data-fips="CB27" data-fips-="CB16" data-iso3="KHM" data-name="Otdar Mean Chey"/><path d="M80,125L78,128L80,140L79,140L79,145L80,145L90,143L94,140L95,128L95,124L92,118L90,117L87,118L85,124L80,125L80,125Z " data-fips="CB30" data-fips-="" data-iso3="KHM" data-name="Krong Pailin"/><path d="M272,153L261,155L257,156L254,155L251,155L248,163L247,161L243,160L238,160L236,162L240,171L234,171L228,170L224,169L223,169L221,170L222,173L220,179L222,182L221,185L219,187L217,191L218,193L225,192L227,191L230,194L232,199L237,200L242,196L247,192L252,194L255,198L265,199L269,199L274,203L277,202L277,206L278,204L282,205L286,201L288,198L296,199L300,200L304,203L308,202L313,203L311,199L312,193L313,192L311,187L310,185L303,186L300,186L297,182L290,175L288,174L285,171L281,170L278,171L277,169L272,168L274,163L273,155L272,153Z " data-fips="CB02" data-fips-="" data-iso3="KHM" data-name="Kmpng Cham"/><path d="M220,169L219,166L222,163L223,161L220,159L218,157L218,152L214,151L208,149L201,150L198,153L194,152L193,151L192,154L192,159L189,164L182,167L180,170L179,174L180,178L181,180L184,186L188,194L190,197L198,200L213,195L214,195L214,194L215,192L215,192L216,191L217,191L219,187L221,185L222,182L220,179L222,173L221,170L220,169Z " data-fips="CB03" data-fips-="" data-iso3="KHM" data-name="Kmpng Chhnang"/><path d="M217,191L216,191L215,192L215,192L214,194L214,195L214,198L212,200L209,208L207,218L216,220L213,223L215,224L224,225L224,228L229,234L231,249L231,249L233,248L233,248L235,250L241,251L240,243L242,235L245,231L244,224L246,220L240,214L236,212L235,210L237,200L237,200L232,199L230,194L227,191L225,192L218,193L217,191Z M217,219L215,217L217,206L220,206L220,204L224,204L225,211L226,211L226,214L223,218L222,217L217,219Z " data-fips="CB07" data-fips-="" data-iso3="KHM" data-name="Kndal"/><path d="M213,195L198,200L190,197L188,194L184,186L181,180L180,178L179,179L175,181L173,186L170,188L168,188L165,186L162,189L161,190L157,191L156,197L157,206L165,211L168,211L172,213L173,214L172,217L175,225L174,228L176,230L177,235L178,236L184,238L189,237L193,237L195,238L197,238L202,240L209,239L210,231L211,225L213,223L216,220L207,218L209,208L212,200L214,198L214,195L213,195Z " data-fips="CB04" data-fips-="" data-iso3="KHM" data-name="Kmpng Sp"/><path d="M260,103L259,101L259,100L259,95L251,99L250,100L238,108L237,110L233,114L227,117L224,117L221,114L220,110L221,104L215,102L211,102L207,104L202,107L201,108L197,112L196,117L192,125L190,130L181,138L180,139L183,143L193,151L194,152L198,153L201,150L208,149L214,151L218,152L218,157L220,159L223,161L222,163L219,166L220,169L221,170L223,169L224,169L228,170L234,171L240,171L236,162L238,160L243,160L247,161L248,163L251,155L254,155L257,156L261,155L272,153L270,146L268,137L268,133L266,125L265,119L263,115L261,107L260,103Z " data-fips="CB05" data-fips-="" data-iso3="KHM" data-name="Kmpng Thum"/><path d="M226,214L226,211L225,211L224,204L220,204L220,206L217,206L215,217L217,219L222,217L223,218L226,214Z " data-fips="CB22" data-fips-="CB11" data-iso3="KHM" data-name="Phnom Penh"/><path d="M237,200L237,200L235,210L236,212L240,214L246,220L244,224L245,231L242,235L240,243L241,251L241,251L243,252L247,254L250,250L252,247L256,248L259,247L265,246L264,243L265,237L264,234L265,230L267,228L267,220L269,211L275,209L275,209L275,208L276,207L277,206L277,206L277,202L274,203L269,199L265,199L255,198L252,194L247,192L242,196L237,200Z " data-fips="CB14" data-fips-="" data-iso3="KHM" data-name="Prey Vng"/><path d="M195,42L194,48L197,51L194,58L192,68L189,72L193,78L193,88L208,90L203,96L202,99L202,107L207,104L211,102L215,102L221,104L220,110L221,114L224,117L227,117L233,114L237,110L238,108L250,100L251,99L259,95L261,94L261,85L258,73L261,70L268,72L271,68L277,68L280,67L278,67L273,62L271,58L269,57L264,56L263,57L255,55L253,56L246,56L245,54L242,52L236,43L233,49L230,50L225,40L218,38L213,37L211,39L208,37L206,39L203,39L195,42L195,42Z " data-fips="CB13" data-fips-="" data-iso3="KHM" data-name="Preah Vihar"/><path d="M280,67L277,68L271,68L268,72L261,70L258,73L261,85L261,94L259,95L259,100L259,101L260,103L261,107L266,110L278,116L283,114L285,111L288,110L288,108L292,102L297,101L298,101L305,98L307,97L311,97L312,97L316,100L318,101L322,102L322,101L322,96L319,87L324,69L323,61L320,54L322,43L321,39L322,35L321,34L316,27L314,30L310,34L303,35L299,33L298,34L296,40L294,40L289,40L284,41L286,45L286,49L290,52L294,60L290,64L291,67L289,68L280,67L280,67Z " data-fips="CB17" data-fips-="" data-iso3="KHM" data-name="Stng Trng"/><path d="M305,98L298,101L297,101L292,102L288,108L288,110L285,111L283,114L278,116L266,110L261,107L263,115L265,119L266,125L268,133L268,137L270,146L272,153L273,155L274,163L272,168L277,169L278,171L281,170L285,171L288,174L290,175L297,182L300,186L303,186L310,185L310,185L315,186L317,185L325,186L324,185L329,185L333,179L334,179L334,172L328,166L323,165L318,157L317,157L309,148L310,142L312,139L321,134L323,131L322,127L307,117L308,113L312,113L312,112L308,109L308,104L307,97L305,98Z " data-fips="CB09" data-fips-="" data-iso3="KHM" data-name="Krchh"/><path d="M322,102L318,101L316,100L312,97L311,97L307,97L308,104L308,109L312,112L312,113L308,113L307,117L322,127L323,131L321,134L312,139L310,142L309,148L317,157L318,157L323,165L328,166L334,172L334,179L334,179L339,179L345,177L355,166L365,163L371,167L372,164L376,162L379,154L379,146L377,139L377,134L375,130L373,125L373,122L372,121L379,104L367,105L366,103L363,103L360,100L357,103L353,103L349,105L350,106L347,112L346,112L341,113L336,112L333,111L325,105L322,102Z " data-fips="CB10" data-fips-="" data-iso3="KHM" data-name="Mndl Kiri"/><path d="M322,35L321,39L322,43L320,54L323,61L324,69L319,87L322,96L322,101L322,102L325,105L333,111L336,112L341,113L346,112L347,112L350,106L349,105L353,103L357,103L360,100L363,103L366,103L367,105L379,104L381,99L380,89L375,80L370,69L370,62L365,61L364,57L363,54L365,45L365,40L368,35L370,36L373,29L375,20L374,19L370,23L369,28L367,29L362,25L357,29L357,30L354,32L352,36L346,36L340,43L338,42L333,43L327,36L322,35L322,35Z " data-fips="CB23" data-fips-="CB15" data-iso3="KHM" data-name="Rtnkiri"/><path d="M177,235L175,236L173,241L171,242L168,243L165,246L166,248L166,264L166,266L164,268L164,269L168,270L173,272L177,272L180,272L182,271L184,271L185,272L186,271L191,271L193,275L194,278L195,278L197,280L203,273L206,273L211,274L211,268L210,266L211,259L213,257L211,252L205,251L203,252L201,250L201,244L199,242L195,241L195,240L195,238L193,237L189,237L184,238L178,236L177,235Z " data-fips="CB21" data-fips-="CB06" data-iso3="KHM" data-name="Kmpt"/><path d="M185,272L189,276L191,276L194,278L194,278L193,275L191,271L186,271L185,272L185,272Z " data-fips="CB26" data-fips-="CB06|" data-iso3="KHM" data-name="Kep"/><path d="M150,261L150,261L150,261L150,261Z " data-fips="CB28" data-fips-="CB06" data-iso3="KHM" data-name="Krong Preah Sihanouk"/><path d="M157,278L156,274L154,277L154,278L157,278Z M165,246L160,250L156,252L153,259L151,261L151,261L150,261L150,261L150,261L146,261L143,262L139,268L142,270L143,272L147,275L153,275L153,273L155,273L159,272L161,268L161,265L164,268L164,268L166,266L166,264L166,248L165,246Z " data-fips="CB28" data-fips-="CB06" data-iso3="KHM" data-name="Krong Preah Sihanouk"/><path d="M266,246L271,243L273,243L280,254L282,255L284,251L292,256L295,257L298,258L297,252L295,249L295,247L299,245L297,241L294,239L289,237L286,233L278,226L280,217L279,214L276,210L275,209L269,211L267,220L267,228L265,230L264,234L265,237L264,243L265,246L266,246Z " data-fips="CB18" data-fips-="" data-iso3="KHM" data-name="Svay Rieng"/><path d="M213,223L211,225L210,231L209,239L202,240L197,238L195,238L195,240L195,241L199,242L201,244L201,250L203,252L205,251L211,252L213,257L211,259L210,266L211,268L211,274L212,274L220,273L225,266L231,263L232,260L229,254L230,250L231,249L229,234L224,228L224,225L215,224L213,223Z " data-fips="CB19" data-fips-="" data-iso3="KHM" data-name="Takv"/></g></svg>