<?xml version="1.0" encoding="UTF-8"?><!DOCTYPE svg  PUBLIC '-//W3C//DTD SVG 1.1//EN'  'http://www.w3.org/Graphics/SVG/1.1/DTD/svg11.dtd'><svg enable_background="new 0 0 450 451" height="451px" style="stroke-linejoin: round; stroke:#000; fill:#f6f3f0;" version="1.1" viewBox="0 0 450 451" width="450px" xmlns="http://www.w3.org/2000/svg" xmlns:xlink="http://www.w3.org/1999/xlink"><defs><style type="text/css"><![CDATA[path { fill-rule: evenodd; }
#context path { fill: #eee; stroke: #bbb; } ]]></style></defs><metadata><views><view h="451" padding="0.06" w="450"><proj id="laea" lat0="36.5967458156" lon0="127.536109319"/><bbox h="74.31" w="68.94" x="967.87" y="971.25"/><llbbox lat0="-90" lat1="90" lon0="-180" lon1="180"/></view></views></metadata><g id="context"><path d="M309,449L310,446L312,445L314,442L312,441L310,436L309,431L305,444L302,445L304,449L309,449Z M333,424L334,419L338,414L331,416L325,428L329,428L333,424Z M351,384L350,379L346,376L344,385L347,388L351,384Z M450,394L445,395L437,393L429,388L426,380L422,373L415,370L408,370L405,371L393,377L391,385L387,392L381,395L374,395L369,401L359,404L353,408L355,412L355,416L343,413L340,415L338,423L344,427L352,434L359,438L364,449L376,449L376,439L373,432L380,426L389,432L393,443L398,449L450,449L450,394Z M356,449L354,448L351,441L345,436L344,441L346,449L356,449Z M319,357L322,349L322,345L314,343L313,356L315,360L319,357Z M325,340L324,335L330,326L328,315L321,321L321,327L317,339L319,341L324,344L325,340Z M450,328L446,332L440,334L432,333L424,334L418,341L418,344L420,366L425,363L429,362L434,365L440,367L445,365L450,362L450,328Z " data-iso="JPN"/><path d="M135,425L151,424L159,421L170,416L173,409L171,403L163,400L159,401L136,407L128,414L125,418L126,420L133,426L135,425Z M163,342L159,338L156,338L156,341L159,344L164,345L163,342Z M131,339L137,335L140,330L138,326L132,325L130,327L124,334L123,337L127,340L131,339Z M227,321L226,316L223,320L226,324L227,321Z M127,312L127,305L122,298L117,302L120,304L121,308L124,313L126,314L127,312Z M243,307L242,302L237,301L234,299L229,302L229,307L232,313L236,310L238,315L243,314L243,307Z M285,307L283,291L280,292L275,298L269,303L271,306L279,312L285,307Z M144,181L142,175L138,172L139,183L143,186L144,181Z M411,104L412,101L410,99L406,100L405,102L405,105L408,107L411,104Z M151,88L149,85L145,82L142,86L144,95L151,98L151,88Z M157,87L154,88L153,90L154,95L159,102L158,110L161,113L167,122L164,129L166,132L166,136L171,145L177,147L176,151L172,154L171,157L169,155L166,147L160,146L154,142L148,143L145,146L140,146L132,153L129,160L130,166L133,166L142,169L148,166L149,174L152,182L151,192L152,200L151,206L154,210L159,215L160,217L157,224L162,226L164,228L161,235L154,239L151,243L147,244L147,247L155,250L153,253L148,255L146,258L141,269L139,276L135,281L137,289L141,297L143,306L146,307L150,305L153,306L150,309L146,311L149,315L143,315L135,313L133,317L137,323L146,330L148,335L148,341L149,344L152,343L154,337L163,329L165,330L167,334L172,335L180,322L193,311L194,314L194,318L190,322L189,327L198,333L201,330L203,326L207,321L202,312L203,306L207,304L210,305L213,310L217,316L222,314L223,309L219,304L217,301L218,298L222,296L231,295L238,291L241,291L245,298L249,299L256,299L263,302L266,302L267,298L265,291L267,287L270,285L278,284L288,285L299,285L305,283L313,278L320,267L325,255L329,240L333,221L334,213L330,214L327,217L323,213L322,202L322,193L324,188L325,182L324,170L327,162L324,148L323,138L318,122L300,92L288,77L274,56L260,22L258,24L254,30L251,38L248,42L240,46L232,47L225,46L223,45L211,46L197,46L189,46L185,48L180,51L165,70L160,75L158,85L157,87Z " data-iso="KOR"/><path d="M158,85L160,75L165,70L180,51L185,48L189,46L197,46L211,46L223,45L225,46L232,47L240,46L248,42L251,38L254,30L258,24L260,22L257,18L252,13L236,2L235,0L74,0L73,2L73,7L81,12L88,12L92,14L96,17L92,17L87,17L81,18L67,26L61,31L56,41L55,50L44,57L49,59L57,59L62,61L72,60L76,63L73,65L61,72L68,76L80,79L83,86L82,88L88,88L96,82L101,74L103,71L107,69L117,78L123,78L127,88L130,86L132,81L142,78L154,84L157,84L158,85Z " data-iso="PRK"/></g><g fill="red" fill-opacity="0.35" id="regions"><path d="M276,141L272,140L267,138L264,139L261,135L255,136L258,130L250,128L247,130L246,130L241,132L240,130L238,127L235,128L234,130L234,133L227,135L228,131L221,132L215,134L215,135L210,143L207,143L202,148L202,150L197,152L194,153L195,154L199,161L198,165L196,165L194,170L192,176L191,178L196,177L200,178L200,184L201,186L205,187L207,188L208,190L208,189L211,189L207,196L207,199L207,203L209,203L212,204L215,214L216,216L216,217L224,220L228,218L231,218L231,218L233,217L234,216L237,207L238,206L241,206L240,202L239,201L236,202L231,199L229,200L229,196L231,194L230,189L230,185L232,182L229,178L227,178L226,176L230,173L230,170L236,166L242,168L240,165L242,160L244,161L245,160L251,160L253,156L256,159L257,161L259,161L264,159L265,156L264,155L266,150L276,142L277,142L276,141Z " data-fips="KS05" data-fips-="" data-iso3="KOR" data-name="Chungcheongbuk-do" data-p="43"/><path d="M142,109L145,112L145,110L142,109Z M159,104L160,107L157,108L160,113L164,115L164,115L167,110L165,107L165,106L161,102L159,103L159,104Z " data-fips="KS12" data-fips-="" data-iso3="KOR" data-name="Inch'on-gwangyoksi" data-p="28"/><path d="M177,53L182,56L184,60L190,64L191,62L194,61L197,59L197,63L201,65L203,64L206,65L207,72L212,73L213,75L215,76L216,78L214,82L211,85L212,91L210,93L212,93L212,100L214,99L222,103L227,104L228,106L225,110L225,112L218,128L215,134L221,132L228,131L227,135L234,133L234,130L235,128L238,127L240,130L241,132L246,130L247,130L250,128L258,130L255,136L261,135L264,139L267,138L272,140L276,141L277,142L279,142L284,144L284,138L285,137L288,136L291,141L294,139L299,140L305,140L307,140L309,143L308,144L304,145L304,147L307,152L308,153L311,156L315,156L316,159L315,163L316,168L315,170L319,172L324,171L324,171L327,163L326,160L324,153L324,138L320,133L319,130L318,124L317,122L314,119L313,115L312,113L309,108L306,105L302,97L301,92L293,83L279,64L278,62L271,47L266,37L264,31L259,22L254,25L254,33L251,39L248,42L244,45L240,46L236,47L230,46L224,45L212,46L207,47L202,45L189,46L178,53L177,53Z " data-fips="KS06" data-fips-="" data-iso3="KOR" data-name="Gangwon-do"/><path d="M187,100L186,95L185,93L181,93L177,98L175,98L173,101L171,102L168,100L167,102L170,106L170,108L173,109L174,112L182,110L183,112L188,109L191,103L190,102L186,103L187,100Z " data-fips="KS11" data-fips-="KS13" data-iso3="KOR" data-name="Seoul" data-p="11"/><path d="M129,126L126,123L125,126L129,126Z M148,125L148,123L147,122L148,125Z M45,81L45,78L43,79L45,81Z M46,68L44,67L41,69L40,68L39,71L41,72L43,73L46,71L46,68Z M177,54L175,59L170,63L165,70L160,74L162,82L160,92L163,96L159,93L159,87L156,87L153,86L152,87L152,93L154,97L158,99L159,101L159,103L161,102L165,106L165,107L167,110L164,115L164,116L162,118L165,118L170,120L166,127L165,125L161,128L162,127L159,130L160,132L162,131L163,133L165,131L171,132L165,137L166,137L164,140L167,141L171,140L172,136L174,143L168,143L174,149L176,149L179,146L179,147L177,150L177,151L182,151L187,149L192,152L194,153L197,152L202,150L202,148L207,143L210,143L215,135L215,134L218,128L225,112L225,110L228,106L227,104L222,103L214,99L212,100L212,93L210,93L212,91L211,85L214,82L216,78L215,76L213,75L212,73L207,72L206,65L203,64L201,65L197,63L197,59L194,61L191,62L190,64L184,60L182,56L177,53L177,54Z M181,93L185,93L186,95L187,100L186,103L190,102L191,103L188,109L183,112L182,110L174,112L173,109L170,108L170,106L167,102L168,100L171,102L173,101L175,98L177,98L181,93Z " data-fips="KS13" data-fips-="" data-iso3="KOR" data-name="Gyeonggi-do" data-p="41"/><path d="M136,246L134,247L133,250L136,246Z M171,213L169,215L161,219L156,220L156,226L158,225L162,227L168,225L167,228L162,228L164,231L166,234L165,235L160,235L159,238L156,238L147,245L146,248L148,249L157,248L160,253L156,251L155,252L147,256L144,259L143,264L144,265L151,263L153,263L152,270L154,271L159,269L164,267L166,261L170,258L174,260L177,264L181,261L182,261L184,263L185,268L184,270L186,272L188,272L194,270L196,272L204,271L208,268L212,269L216,272L217,271L218,267L220,264L218,255L217,254L220,242L221,240L224,235L225,233L231,231L231,229L234,227L234,222L231,218L231,218L228,218L224,220L216,217L216,216L214,217L213,219L208,220L205,219L202,216L199,211L197,209L195,211L185,214L184,212L185,209L182,208L170,211L167,215L171,213Z " data-fips="KS03" data-fips-="" data-iso3="KOR" data-name="Jeollabuk-do" data-p="45"/><path d="M63,362L61,358L60,360L63,362Z M151,355L148,354L148,358L149,358L151,355Z M157,358L157,353L156,355L157,358Z M173,355L172,352L171,351L168,354L171,356L173,355Z M152,354L154,351L150,350L151,354L152,354Z M118,343L118,345L121,346L120,344L118,343Z M168,341L164,342L167,343L168,345L170,344L171,342L168,341Z M162,343L161,339L157,338L159,345L162,345L162,343Z M169,337L164,335L164,337L165,339L169,337Z M208,333L207,334L208,336L211,334L208,333Z M191,336L193,333L191,331L187,332L188,336L191,336Z M226,331L224,326L223,329L226,331Z M136,327L132,324L130,328L127,332L125,332L123,337L126,338L125,340L129,340L135,337L139,333L140,330L136,327Z M120,327L123,325L123,323L120,320L122,323L118,325L120,327Z M119,324L120,323L118,319L119,324Z M82,314L79,317L80,319L83,315L82,314Z M117,316L116,312L112,315L112,317L116,317L117,316Z M124,309L123,313L125,313L127,314L124,309Z M117,308L112,308L110,310L112,313L113,310L117,310L117,308Z M126,301L121,304L123,307L126,304L126,301Z M139,303L137,299L134,299L134,301L131,304L136,303L138,306L139,303Z M122,299L119,299L117,302L123,300L122,299Z M129,285L127,285L132,290L133,290L130,287L132,285L129,285Z M124,288L126,286L125,283L121,285L124,288Z M145,266L141,267L140,274L139,274L145,287L143,291L142,289L139,287L138,284L133,283L134,287L136,287L136,286L139,290L140,291L135,294L137,297L139,298L140,295L142,293L144,294L141,296L142,303L140,308L147,306L147,309L149,308L150,302L152,300L153,302L152,306L155,306L156,308L152,307L150,308L150,311L140,310L140,311L148,313L151,318L155,320L153,321L149,319L147,320L144,318L144,315L142,315L142,318L144,321L143,323L140,322L138,316L139,315L136,311L135,311L134,314L135,320L136,321L137,324L138,323L145,327L146,325L150,329L145,330L146,334L148,335L146,339L149,342L148,344L154,343L155,338L159,335L161,334L163,331L162,329L164,328L165,323L166,324L166,332L172,336L172,333L174,334L174,330L178,327L179,322L187,316L190,316L193,310L196,314L197,313L200,315L198,318L195,315L193,318L194,323L192,324L190,324L190,321L187,329L192,327L198,333L202,332L205,327L200,327L200,323L203,323L206,325L210,323L207,318L203,315L200,306L205,306L209,301L214,312L212,316L212,318L218,321L218,313L221,314L223,313L226,304L221,305L218,307L216,305L213,299L214,298L219,300L222,297L223,294L224,296L227,296L227,296L226,292L223,288L218,281L217,277L216,274L216,272L212,269L208,268L204,271L196,272L194,270L188,272L186,272L184,270L185,268L184,263L182,261L181,261L177,264L174,260L170,258L166,261L164,267L159,269L154,271L152,270L153,263L151,263L144,265L145,266Z M174,274L177,275L179,278L176,282L172,281L169,279L167,275L169,274L174,274Z " data-fips="KS16" data-fips-="" data-iso3="KOR" data-name="Gwangju" data-p="46"/><path d="M227,324L228,320L227,316L227,314L225,314L225,318L223,322L227,324Z " data-fips="KS20" data-fips-="KS16" data-iso3="KOR" data-name="Kyongsang-namdo" data-p="48"/><path d="M142,179L139,175L139,181L139,184L144,187L142,179Z M167,215L170,211L182,208L185,209L184,212L185,214L195,211L197,209L199,211L202,216L205,219L208,220L213,219L214,217L216,216L215,214L212,204L209,203L207,203L207,199L207,196L211,189L208,189L208,190L207,192L206,197L204,198L200,196L197,188L198,182L188,185L182,184L184,182L191,178L192,176L194,170L196,165L198,165L199,161L195,154L194,153L192,152L187,149L182,151L177,151L175,152L171,153L171,158L170,160L169,160L169,157L168,150L167,151L167,147L162,146L161,145L157,150L157,148L153,142L150,139L150,140L153,145L149,143L153,148L153,151L151,148L147,154L145,146L146,143L140,144L144,149L142,152L139,155L140,159L137,159L139,152L138,150L138,146L136,146L135,153L134,153L133,150L131,153L132,154L132,157L129,158L127,160L127,165L129,161L132,164L129,167L130,167L136,166L135,168L137,170L138,171L137,166L138,166L141,162L142,165L141,170L143,170L145,164L146,164L150,168L150,174L147,174L147,178L150,178L148,181L149,185L152,186L150,188L150,190L152,190L153,192L150,193L152,198L151,202L154,204L155,205L149,207L150,208L154,208L157,212L156,212L159,218L160,218L166,215L167,215Z " data-fips="KS17" data-fips-="" data-iso3="KOR" data-name="Chungcheongnam-do" data-p="44"/><path d="M207,188L205,187L201,186L200,184L200,178L196,177L191,178L184,182L182,184L188,185L198,182L197,188L200,196L204,198L206,197L207,192L208,190L207,188Z " data-fips="KS19" data-fips-="KS17" data-iso3="KOR" data-name="Daejeon" data-p="30"/><path d="M277,142L276,142L266,150L264,155L265,156L264,159L259,161L257,161L256,159L253,156L251,160L245,160L244,161L242,160L240,165L242,168L236,166L230,170L230,173L226,176L227,178L229,178L232,182L230,185L230,189L231,194L229,196L229,200L231,199L236,202L239,201L240,202L241,206L238,206L237,207L234,216L233,217L231,218L234,222L234,227L234,228L238,231L245,233L252,240L251,244L252,247L258,247L265,249L268,248L269,248L272,245L273,249L276,252L281,251L287,253L294,248L298,250L300,249L302,248L304,244L306,242L312,241L314,242L317,246L323,245L328,246L328,245L330,236L334,217L334,212L328,216L324,217L323,213L325,211L323,205L322,193L325,180L324,174L324,171L319,172L315,170L316,168L315,163L316,159L315,156L311,156L308,153L307,152L304,147L304,145L308,144L309,143L307,140L305,140L299,140L294,139L291,141L288,136L285,137L284,138L284,144L279,142L277,142Z M270,232L268,229L271,227L270,226L271,224L271,220L274,218L281,217L283,219L285,224L285,228L281,234L277,233L271,233L270,232Z M410,106L411,100L410,99L406,101L405,104L409,106L410,106Z " data-fips="KS06" data-fips-="KS14" data-iso3="KOR" data-name="Daegu" data-p="42"/><path d="M240,303L239,299L237,302L238,304L244,305L240,303Z M236,306L234,305L235,300L234,298L231,299L229,305L231,314L234,314L235,310L236,311L239,315L243,311L244,307L236,306Z M283,296L284,292L282,293L277,296L278,301L275,299L272,300L270,301L269,304L272,307L275,304L276,305L276,308L274,308L276,310L276,313L281,313L282,312L281,307L285,308L283,296Z M234,227L231,229L231,231L225,233L224,235L221,240L220,242L217,254L218,255L220,264L218,267L217,271L216,272L216,274L217,277L218,281L223,288L226,292L227,296L228,296L233,297L235,294L235,291L236,294L238,293L239,290L241,290L243,287L243,290L243,298L245,298L247,300L258,299L260,297L261,299L259,301L265,303L263,303L264,305L268,301L266,298L265,293L268,293L269,289L268,289L262,292L263,289L269,287L268,285L271,285L277,287L275,281L276,277L277,282L278,281L281,284L282,282L282,285L288,285L288,286L294,283L295,285L298,283L298,283L300,279L301,274L304,272L306,272L312,280L313,279L315,277L316,274L317,270L317,269L313,266L313,264L308,261L304,257L300,257L299,255L300,252L300,249L298,250L294,248L287,253L281,251L276,252L273,249L272,245L269,248L268,248L265,249L258,247L252,247L251,244L252,240L245,233L238,231L234,228L234,227Z " data-fips="KS20" data-fips-="KS08" data-iso3="KOR" data-name="Gyeongsangnam-do" data-p="48"/><path d="M174,274L169,274L167,275L169,279L172,281L176,282L179,278L177,275L174,274Z " data-fips="KS18" data-fips-="" data-iso3="KOR" data-name="Kwangju-gwangyoksi" data-p="29"/><path d="M299,282L299,289L302,288L304,283L308,284L308,282L312,280L312,280L306,272L304,272L301,274L300,279L298,283L299,282Z " data-fips="KS10" data-fips-="" data-iso3="KOR" data-name="Busan" data-p="26"/><path d="M300,249L300,252L299,255L300,257L304,257L308,261L313,264L313,266L317,269L318,269L322,265L323,261L322,258L324,256L323,252L325,257L328,250L328,246L328,246L323,245L317,246L314,242L312,241L306,242L304,244L302,248L300,249Z " data-fips="KS10" data-fips-="KS21" data-iso3="KOR" data-name="Ulsan" data-p="31"/><path d="M285,228L285,224L283,219L281,217L274,218L271,220L271,224L270,226L271,227L268,229L270,232L271,233L277,233L281,234L285,228Z " data-fips="KS15" data-fips-="" data-iso3="KOR" data-name="Taegu-gwangyoksi" data-p="27"/><path d="M173,406L171,403L166,400L147,404L137,407L134,409L126,416L125,419L127,423L133,426L136,424L150,424L156,423L168,419L173,412L173,406Z " data-fips="KS01" data-fips-="" data-iso3="KOR" data-name="Jeju" data-p="49"/></g></svg>