<?xml version="1.0" encoding="UTF-8"?><!DOCTYPE svg  PUBLIC '-//W3C//DTD SVG 1.1//EN'  'http://www.w3.org/Graphics/SVG/1.1/DTD/svg11.dtd'><svg enable_background="new 0 0 450 301" height="301px" style="stroke-linejoin: round; stroke:#000; fill:#f6f3f0;" version="1.1" viewBox="0 0 450 301" width="450px" xmlns="http://www.w3.org/2000/svg" xmlns:xlink="http://www.w3.org/1999/xlink"><defs><style type="text/css"><![CDATA[path { fill-rule: evenodd; }
#context path { fill: #eee; stroke: #bbb; } ]]></style></defs><metadata><views><view h="301.0" padding="0.06" w="450"><proj id="laea" lat0="29.3538933373" lon0="47.9467766996"/><bbox h="21.78" w="22.99" x="983.51" y="989.57"/><llbbox lat0="-90" lat1="90" lon0="-180" lon1="180"/></view></views></metadata><g id="context"><path d="M389,38L400,29L423,27L429,23L436,13L435,0L359,0L360,2L358,7L360,15L365,27L372,33L382,40L389,38Z " data-iso="IRN"/><path d="M84,186L108,158L120,143L140,111L151,89L161,63L170,43L171,40L176,33L187,26L203,20L230,17L249,17L253,18L265,21L298,37L299,32L312,26L322,27L353,41L368,44L382,40L372,33L365,27L360,15L358,7L360,2L359,0L0,0L0,185L58,191L84,186Z " data-iso="IRQ"/><path d="M342,97L351,85L353,81L353,70L335,44L328,37L325,41L322,51L319,53L318,59L313,68L322,90L328,100L334,101L342,97Z M298,37L265,21L253,18L249,17L230,17L203,20L187,26L176,33L171,40L170,43L161,63L151,89L140,111L120,143L108,158L84,186L113,190L151,195L217,205L230,231L239,266L253,282L341,281L367,280L359,265L357,255L352,243L339,220L329,207L316,167L314,156L309,143L301,138L292,141L279,141L260,137L261,132L274,121L297,99L309,102L315,105L323,106L321,98L302,62L298,43L298,37Z " data-iso="KWT"/><path d="M367,280L341,281L253,282L239,266L230,231L217,205L151,195L113,190L84,186L58,191L0,185L0,299L376,299L376,296L367,280Z " data-iso="SAU"/></g><g fill="red" fill-opacity="0.35" id="regions"><path d="M300,147L298,144L303,141L300,137L297,136L294,139L285,145L281,147L280,147L281,149L281,151L288,149L300,147Z M356,128L354,126L345,123L343,123L341,126L342,128L350,129L355,134L358,135L360,134L359,131L356,128Z " data-fips="KU02" data-fips-="" data-iso3="KWT" data-name="Al Asimah" data-p="KU"/><path d="M305,158L300,147L288,149L281,151L279,151L278,158L281,161L283,165L283,172L307,168L305,158Z " data-fips="KU06" data-fips-="" data-iso3="KWT" data-name="Al Farwaniyah" data-p="FA"/><path d="M278,158L270,169L268,191L267,194L264,195L231,199L219,207L226,219L235,242L235,246L236,255L237,260L239,265L241,269L248,275L251,278L252,282L366,281L362,276L360,272L359,262L355,265L354,264L354,260L357,261L359,258L358,249L360,247L354,245L350,244L348,239L344,234L343,230L343,224L343,221L337,219L335,217L328,206L325,200L317,176L318,170L316,167L316,167L307,168L283,172L283,165L281,161L278,158Z " data-fips="KU04" data-fips-="KU01" data-iso3="KWT" data-name="Al Ahmadi" data-p="AH"/><path d="M305,158L307,168L316,167L316,167L313,158L313,153L313,152L309,153L303,153L305,158Z " data-fips="" data-fips-="" data-iso3="KWT" data-name="Mubarak Al-Kabeer" data-p="MU"/><path d="M329,37L325,34L323,35L319,38L322,39L322,44L330,46L330,48L325,50L326,53L321,54L317,52L315,52L314,54L319,55L316,62L308,68L309,69L312,71L314,73L320,84L325,96L329,101L335,101L341,99L346,94L351,88L353,83L354,75L352,69L329,37Z M306,39L310,37L313,33L317,31L317,29L315,29L309,30L308,31L305,35L303,36L305,39L306,39Z M219,207L231,199L264,195L267,194L268,191L270,169L278,158L279,151L281,151L281,149L280,147L276,147L274,146L273,144L274,141L276,137L276,135L260,139L255,137L264,131L267,128L273,119L277,116L286,110L290,106L296,96L301,96L304,97L306,99L303,99L305,101L311,102L313,103L315,107L318,109L322,110L325,109L326,105L325,101L319,92L316,85L313,77L309,77L305,71L301,63L299,57L298,53L298,47L298,43L295,38L262,19L254,17L216,17L207,18L184,28L176,33L171,40L158,72L153,82L148,97L137,116L132,127L130,130L120,141L111,156L84,186L150,195L218,204L219,207Z " data-fips="KU05" data-fips-="" data-iso3="KWT" data-name="Al Jahrah" data-p="JA"/><path d="M313,144L307,144L305,143L303,141L303,141L298,144L300,147L303,153L309,153L313,152L313,144Z " data-fips="KU03" data-fips-="" data-iso3="KWT" data-name="Hawalli" data-p="HA"/></g></svg>