<?xml version="1.0" encoding="UTF-8"?><!DOCTYPE svg  PUBLIC '-//W3C//DTD SVG 1.1//EN'  'http://www.w3.org/Graphics/SVG/1.1/DTD/svg11.dtd'><svg enable_background="new 0 0 450 451" height="451px" style="stroke-linejoin: round; stroke:#000; fill:#f6f3f0;" version="1.1" viewBox="0 0 450 451" width="450px" xmlns="http://www.w3.org/2000/svg" xmlns:xlink="http://www.w3.org/1999/xlink"><defs><style type="text/css"><![CDATA[path { fill-rule: evenodd; }
#context path { fill: #eee; stroke: #bbb; } ]]></style></defs><metadata><views><view h="451" padding="0.06" w="450"><proj id="laea" lat0="20.3093808049" lon0="100.73922601"/><bbox h="115.75" w="100.69" x="987.17" y="967.58"/><llbbox lat0="-90" lat1="90" lon0="-180" lon1="180"/></view></views></metadata><g id="context"><path d="M450,154L443,160L437,167L437,184L439,192L441,202L450,207L450,154Z M406,60L409,58L413,58L416,55L417,52L422,55L426,52L424,49L423,41L428,41L428,45L429,47L437,54L448,53L450,54L450,0L342,0L346,3L343,9L338,13L336,16L336,21L341,26L341,28L342,41L345,40L356,43L366,53L370,53L374,58L377,56L379,58L386,57L392,55L393,55L401,61L406,60Z M97,65L100,68L99,73L101,76L101,79L104,84L111,82L115,81L123,85L127,82L123,77L124,55L124,53L118,45L114,33L118,29L121,23L125,21L128,26L133,24L139,25L141,26L143,25L149,18L156,8L158,9L167,13L172,16L177,22L179,23L185,18L185,16L191,10L193,7L195,8L200,15L203,14L205,9L207,7L220,18L223,15L226,7L230,5L233,4L237,9L240,9L247,4L254,3L257,0L24,0L20,5L18,12L17,21L13,27L10,35L10,37L16,40L20,39L29,40L43,43L44,45L43,53L46,59L51,61L51,66L56,70L62,69L70,71L77,69L84,61L95,56L97,59L98,65L97,65Z " data-iso="CHN"/><path d="M394,388L391,390L389,395L383,394L379,398L375,402L370,404L367,407L362,408L347,396L344,399L340,402L334,401L331,406L323,408L324,411L328,418L330,421L327,428L320,428L312,420L302,417L296,420L294,420L287,413L286,410L286,408L285,409L281,414L279,414L276,408L267,405L258,407L250,408L241,407L233,409L222,409L212,406L210,407L194,411L186,415L180,420L172,435L167,441L164,443L164,447L153,449L399,449L399,444L396,438L389,422L387,421L386,416L387,404L391,400L394,390L394,388Z " data-iso="KHM"/><path d="M143,31L149,36L155,43L157,46L161,49L165,60L167,60L173,57L178,59L174,79L175,82L185,97L190,99L201,102L209,106L213,105L216,101L228,94L234,95L241,99L252,108L249,112L242,118L254,121L255,123L257,129L262,128L266,130L268,134L268,137L260,150L253,157L251,157L238,154L228,155L227,156L229,160L229,164L228,167L222,172L223,174L232,178L247,187L255,193L260,196L272,199L278,201L278,206L277,210L280,217L288,224L294,226L300,234L302,241L305,246L320,261L332,270L335,273L340,280L343,282L345,286L346,296L353,305L355,306L360,302L362,308L370,313L377,320L386,324L386,326L384,330L377,334L376,336L381,345L395,355L399,361L398,364L395,371L391,375L393,383L394,388L391,390L389,395L383,394L379,398L375,402L370,404L367,407L362,408L347,396L344,399L340,402L334,401L331,406L323,408L324,411L328,418L330,421L327,428L320,428L312,420L302,417L296,420L294,420L287,413L286,410L286,408L289,407L297,402L299,399L301,384L302,380L301,375L299,371L300,360L303,357L305,353L305,343L297,340L294,337L294,330L291,327L282,325L278,322L277,318L273,313L267,307L264,299L263,288L263,278L266,268L262,260L258,256L253,253L248,249L243,243L237,235L230,224L225,220L223,221L218,220L211,217L204,215L199,215L195,216L194,222L189,225L186,229L187,229L186,229L186,229L185,234L182,236L170,241L165,244L164,239L162,238L158,237L153,234L141,226L138,228L134,232L131,234L129,233L127,235L125,238L123,241L110,250L99,260L96,261L89,258L87,256L91,246L97,235L98,226L98,223L94,217L93,215L99,207L104,189L104,184L102,178L100,173L101,165L101,162L98,161L90,159L80,164L74,164L69,162L65,158L64,152L69,141L71,136L68,132L66,129L63,124L61,122L51,128L52,125L52,123L55,112L58,106L61,102L65,101L72,101L70,96L76,86L78,81L80,78L83,78L88,75L95,70L97,65L100,68L99,73L101,76L101,79L104,84L111,82L115,81L123,85L127,82L123,77L124,55L124,53L118,45L114,33L118,29L121,23L125,21L128,26L133,24L139,25L141,26L143,31Z " data-iso="LAO"/><path d="M52,125L52,123L55,112L58,106L61,102L65,101L72,101L70,96L76,86L78,81L80,78L83,78L88,75L95,70L97,65L98,65L97,59L95,56L84,61L77,69L70,71L62,69L56,70L51,66L51,61L46,59L43,53L44,45L43,43L29,40L20,39L16,40L10,37L10,35L13,27L17,21L18,12L20,5L24,0L0,0L0,148L2,138L7,135L10,135L16,137L23,133L22,123L30,125L34,125L41,120L46,122L52,125Z M0,449L6,449L5,441L3,436L0,431L0,449Z " data-iso="MMR"/><path d="M286,408L289,407L297,402L299,399L301,384L302,380L301,375L299,371L300,360L303,357L305,353L305,343L297,340L294,337L294,330L291,327L282,325L278,322L277,318L273,313L267,307L264,299L263,288L263,278L266,268L262,260L258,256L253,253L248,249L243,243L237,235L230,224L225,220L223,221L218,220L211,217L204,215L199,215L195,216L194,222L189,225L186,229L185,234L182,236L170,241L165,244L164,239L162,238L158,237L153,234L141,226L138,228L134,232L131,234L129,233L127,235L125,238L123,241L110,250L99,260L96,261L89,258L87,256L91,246L97,235L98,226L98,223L94,217L93,215L99,207L104,189L104,184L102,178L100,173L101,165L101,162L98,161L90,159L80,164L74,164L69,162L65,158L64,152L69,141L71,136L68,132L66,129L63,124L61,122L51,128L52,125L46,122L41,120L34,125L30,125L22,123L23,133L16,137L10,135L7,135L2,138L0,148L0,431L3,436L5,441L6,449L72,449L73,448L74,449L153,449L164,447L164,443L167,441L172,435L180,420L186,415L194,411L210,407L212,406L222,409L233,409L241,407L250,408L258,407L267,405L276,408L279,414L281,414L285,409L286,408Z " data-iso="THA"/><path d="M361,99L357,94L355,96L359,100L361,99Z M353,96L350,91L349,94L353,96Z M382,90L384,87L377,91L382,90Z M386,76L380,74L377,82L379,82L386,76Z M401,61L393,55L392,55L386,57L379,58L377,56L374,58L370,53L366,53L356,43L345,40L342,41L341,28L341,26L336,21L336,16L338,13L343,9L346,3L342,0L257,0L254,3L247,4L240,9L237,9L233,4L230,5L226,7L223,15L220,18L207,7L205,9L203,14L200,15L195,8L193,7L191,10L185,16L185,18L179,23L177,22L172,16L167,13L158,9L156,8L149,18L143,25L141,26L143,31L149,36L155,43L157,46L161,49L165,60L167,60L173,57L178,59L174,79L175,82L185,97L190,99L201,102L209,106L213,105L216,101L228,94L234,95L241,99L252,108L249,112L242,118L254,121L255,123L257,129L262,128L266,130L268,134L268,137L260,150L253,157L251,157L238,154L228,155L227,156L229,160L229,164L228,167L222,172L223,174L232,178L247,187L255,193L260,196L272,199L278,201L278,206L277,210L280,217L288,224L294,226L300,234L302,241L305,246L320,261L332,270L335,273L340,280L343,282L345,286L346,296L353,305L355,306L360,302L362,308L370,313L377,320L386,324L386,326L384,330L377,334L376,336L381,345L395,355L399,361L398,364L395,371L391,375L393,383L394,388L394,390L391,400L387,404L386,416L387,421L389,422L396,438L399,444L399,449L450,449L450,352L441,344L435,335L432,330L427,325L424,320L423,320L421,317L417,313L414,309L408,310L405,310L404,306L400,302L391,297L392,295L383,288L374,283L371,276L362,268L353,262L341,245L340,238L342,234L338,229L329,222L325,220L321,217L313,209L300,187L301,182L305,179L308,171L307,167L308,163L308,157L315,140L319,137L323,137L333,126L339,122L341,117L340,111L349,100L345,90L345,88L356,89L362,87L367,90L375,84L375,77L377,73L390,67L394,62L399,62L401,61Z " data-iso="VNM"/></g><g fill="red" fill-opacity="0.35" id="regions"><path d="M73,101L69,102L63,101L59,103L54,110L53,114L52,121L51,123L51,127L54,128L54,126L56,124L60,121L62,122L67,132L70,133L68,146L65,150L65,150L69,151L76,149L80,147L81,147L80,145L80,143L83,141L87,141L95,135L99,137L102,134L102,129L102,127L101,126L100,125L97,126L93,125L91,124L88,117L84,117L83,114L79,104L74,100L73,101Z " data-fips="LA22" data-fips-="" data-iso3="LAO" data-name="Bokeo" data-p="BK"/><path d="M74,100L79,104L83,114L84,117L88,117L91,124L93,125L97,126L100,125L101,126L101,125L108,125L112,123L115,118L117,114L114,107L109,105L111,105L113,101L117,99L119,96L124,93L125,89L125,85L125,85L123,86L113,81L103,84L100,81L102,75L99,72L99,68L97,68L91,73L83,78L79,78L77,85L75,89L71,91L71,93L70,97L70,99L74,98L74,100L74,100Z " data-fips="LA16" data-fips-="LA05" data-iso3="LAO" data-name="Louang Namtha" data-p="LM"/><path d="M123,144L123,144L116,149L103,149L97,146L92,148L88,147L81,146L81,147L80,147L76,149L69,151L65,150L63,152L67,160L67,163L71,165L75,162L81,165L83,163L90,159L97,161L102,161L102,166L101,166L99,170L101,174L102,178L102,182L106,187L104,189L101,195L102,203L99,209L93,215L93,216L95,219L98,220L98,230L99,234L96,236L91,243L89,248L86,257L91,258L94,260L99,260L103,256L109,251L110,249L112,249L117,246L116,245L116,245L115,243L112,242L111,240L111,232L110,229L110,228L114,222L116,221L121,214L124,213L128,206L129,202L130,200L130,197L128,194L128,187L128,186L128,181L129,176L130,171L132,169L128,165L128,157L125,157L125,156L126,150L126,147L124,145L123,144Z " data-fips="LA13" data-fips-="" data-iso3="LAO" data-name="Xaignabouri" data-p="XA"/><path d="M303,356L298,360L301,361L302,364L298,368L297,372L301,374L302,377L304,377L301,380L299,387L300,389L301,396L299,401L295,405L291,406L289,408L286,409L286,410L289,416L293,419L301,418L302,417L312,420L314,424L318,427L326,428L328,427L328,425L331,421L327,416L324,412L324,410L322,407L327,406L337,402L339,402L339,402L339,398L337,395L335,392L331,384L337,377L338,376L341,376L342,377L345,376L346,377L346,384L351,386L355,385L358,381L360,380L361,374L360,372L354,369L354,369L354,369L353,365L348,361L344,360L342,357L340,357L338,357L334,359L330,362L326,359L327,355L326,354L312,356L311,355L307,355L304,356L303,356Z " data-fips="LA02" data-fips-="" data-iso3="LAO" data-name="Champasak" data-p="CH"/><path d="M356,307L357,311L355,312L352,312L350,318L339,321L337,321L335,323L334,321L330,319L328,320L327,323L328,329L325,331L321,330L317,334L312,334L310,333L301,330L299,329L295,329L295,329L292,331L297,340L299,340L304,342L305,344L306,349L304,356L304,356L307,355L311,355L312,356L326,354L327,355L326,359L330,362L334,359L338,357L340,357L337,356L336,353L338,351L342,352L344,350L350,350L351,349L354,349L354,341L352,338L356,332L359,325L363,326L367,325L371,323L374,318L373,318L372,314L365,310L362,309L360,302L356,307L356,307Z " data-fips="LA19" data-fips-="LA09" data-iso3="LAO" data-name="Saravan" data-p="SL"/><path d="M263,286L264,292L265,296L263,302L264,305L268,308L276,316L277,320L279,324L287,327L289,327L295,329L295,329L299,329L301,330L310,333L312,334L317,334L321,330L325,331L328,329L327,323L328,320L330,319L334,321L335,323L337,321L339,321L350,318L352,312L355,312L357,311L356,307L355,307L352,306L351,305L350,300L347,298L345,295L345,281L339,280L339,279L336,280L331,278L328,276L325,278L320,278L315,278L306,275L304,276L302,278L297,276L291,277L287,278L285,279L282,276L278,278L276,277L267,278L266,282L267,286L264,286L263,285L263,286Z " data-fips="LA20" data-fips-="LA10" data-iso3="LAO" data-name="Savannakht" data-p="SV"/><path d="M140,226L144,226L149,231L152,234L154,234L157,237L163,237L164,238L165,244L167,245L168,242L180,235L183,236L185,235L186,229L186,229L184,229L182,224L180,222L178,222L175,221L167,223L165,225L161,224L159,222L158,222L150,220L148,219L146,215L141,217L139,217L139,227L140,226Z " data-fips="LA00" data-fips-="LA24" data-iso3="LAO" data-name="Vientiane [prefecture]" data-p="VT"/><path d="M128,186L128,187L128,194L130,197L130,200L129,202L128,206L124,213L121,214L116,221L114,222L110,228L110,229L111,232L111,240L112,242L115,243L116,245L117,245L120,241L125,240L126,236L133,234L139,227L139,217L141,217L146,215L148,219L150,220L158,222L159,222L161,224L165,225L167,223L175,221L178,222L178,219L178,217L177,216L176,215L174,211L173,212L169,212L169,210L163,199L165,195L164,190L162,189L161,184L160,182L162,178L162,177L161,176L157,172L150,171L149,170L141,170L140,173L136,178L135,181L129,185L128,186Z " data-fips="LA27" data-fips-="LA11" data-iso3="LAO" data-name="Vientiane" data-p="VI"/><path d="M222,190L222,187L214,184L211,184L205,180L200,182L197,181L194,182L189,181L180,178L177,178L171,174L170,173L168,175L166,176L162,177L162,178L160,182L161,184L162,189L164,190L165,195L163,199L169,210L169,212L173,212L174,211L177,211L186,211L195,210L199,209L204,205L204,191L208,190L217,195L221,194L222,193L222,190Z " data-fips="LA27" data-fips-="LA11|LA25" data-iso3="LAO" data-name="Xaismboun" data-p="XS"/><path d="M187,144L187,145L184,146L179,149L179,153L175,153L173,157L167,163L166,165L169,170L170,173L171,174L177,178L180,178L189,181L194,182L197,181L200,182L205,180L211,184L214,184L222,187L222,190L222,193L224,193L228,195L233,195L239,188L239,182L238,182L236,182L235,179L228,176L223,175L220,172L224,169L227,168L230,161L228,159L226,155L227,154L230,156L234,154L235,153L235,150L236,146L235,144L231,146L230,146L228,148L224,150L221,147L221,143L219,139L214,138L212,140L211,143L204,146L196,144L194,145L189,143L187,144Z " data-fips="LA14" data-fips-="" data-iso3="LAO" data-name="Xiangkhoang" data-p="XI"/><path d="M186,229L186,229L186,229L186,229L186,229L186,229Z " data-fips="LA00" data-fips-="LA23" data-iso3="LAO" data-name="Bolikhamxai" data-p="BL"/><path d="M198,102L191,106L190,108L190,113L190,116L190,120L192,123L186,131L188,134L187,142L187,144L189,143L194,145L196,144L204,146L211,143L212,140L214,138L219,139L221,143L221,147L224,150L228,148L230,146L231,146L235,144L236,146L235,150L235,153L237,153L247,156L249,158L263,148L263,147L260,144L265,140L269,138L269,134L267,130L263,128L257,129L255,128L255,125L257,124L256,122L252,119L245,119L242,117L245,115L246,113L250,113L253,109L252,107L250,106L246,102L243,102L238,97L235,96L232,94L228,93L226,96L216,99L215,99L213,107L211,108L207,104L200,101L198,102L198,102Z " data-fips="LA03" data-fips-="" data-iso3="LAO" data-name="Houaphan" data-p="HO"/><path d="M197,102L192,100L189,100L184,97L181,90L178,87L177,85L172,85L171,91L166,93L165,95L163,94L159,99L151,95L150,94L150,95L151,97L151,102L152,106L150,110L147,110L142,122L144,125L143,128L145,132L143,136L138,138L136,137L130,142L125,143L123,144L124,145L126,147L126,150L125,156L125,157L128,157L128,165L132,169L130,171L129,176L128,181L128,186L129,185L135,181L136,178L140,173L141,170L149,170L150,171L157,172L161,176L162,177L166,176L168,175L170,173L169,170L166,165L167,163L173,157L175,153L179,153L179,149L184,146L187,145L187,144L187,142L188,134L186,131L192,123L190,120L190,116L190,113L190,108L191,106L198,102L197,102Z " data-fips="LA17" data-fips-="LA06" data-iso3="LAO" data-name="Louangphrabang" data-p="LP"/><path d="M128,82L125,83L125,84L125,84L125,85L125,89L124,93L119,96L117,99L113,101L111,105L109,105L114,107L117,114L115,118L112,123L108,125L101,125L101,126L102,127L102,129L102,134L99,137L95,135L87,141L83,141L80,143L80,145L81,147L81,146L88,147L92,148L97,146L103,149L116,149L123,144L123,144L125,143L130,142L136,137L138,138L143,136L145,132L143,128L144,125L142,122L147,110L150,110L152,106L151,102L151,97L150,95L150,94L149,93L142,92L137,87L133,85L128,82L128,82Z " data-fips="LA07" data-fips-="" data-iso3="LAO" data-name="Oudmxai" data-p="OU"/><path d="M128,82L133,85L137,87L142,92L149,93L150,94L151,95L159,99L163,94L165,95L166,93L171,91L172,85L177,85L177,85L175,81L171,80L176,71L174,71L175,68L179,64L178,57L177,57L173,58L172,53L171,53L170,58L167,61L165,61L163,53L162,49L157,46L157,43L154,41L148,35L145,34L142,30L139,24L136,23L131,24L127,25L126,22L121,23L118,31L114,33L116,36L118,46L121,48L124,54L124,57L125,61L127,63L124,65L123,75L124,79L126,79L128,82L128,82Z " data-fips="LA18" data-fips-="LA08" data-iso3="LAO" data-name="Phngsali" data-p="PH"/><path d="M239,182L239,188L233,195L228,195L224,193L222,193L221,194L217,195L208,190L204,191L204,205L199,209L195,210L186,211L177,211L174,211L176,215L177,216L178,217L178,219L178,222L180,222L182,224L184,229L186,229L187,229L187,229L186,229L186,229L186,229L186,229L187,229L191,223L195,222L194,216L200,214L207,215L214,218L218,219L220,220L224,220L225,219L229,221L234,231L237,233L241,241L241,241L242,239L244,234L246,228L247,226L253,223L264,230L266,234L270,236L275,237L278,236L279,234L284,225L285,222L284,222L277,213L277,212L278,206L280,203L278,200L271,199L269,199L267,197L257,194L252,191L250,189L247,188L243,184L239,182L239,182Z " data-fips="LA00" data-fips-="LA23" data-iso3="LAO" data-name="Bolikhamxai" data-p="BL"/><path d="M285,222L284,225L279,234L278,236L275,237L270,236L266,234L264,230L253,223L247,226L246,228L244,234L242,239L241,241L241,241L250,252L261,257L266,264L266,270L263,282L263,285L264,286L267,286L266,282L267,278L276,277L278,278L282,276L285,279L287,278L291,277L297,276L302,278L304,276L306,275L315,278L320,278L325,278L328,276L331,278L336,280L339,279L338,278L334,272L334,269L332,266L329,268L321,262L312,252L306,248L301,238L301,235L297,229L294,224L291,225L291,226L287,224L286,222L285,222Z " data-fips="LA15" data-fips-="LA04" data-iso3="LAO" data-name="Khammouan" data-p="KH"/><path d="M354,369L354,369L360,372L361,374L360,380L358,381L355,385L351,386L346,384L346,377L345,376L342,377L341,376L338,376L337,377L331,384L335,392L337,395L339,398L339,402L342,402L344,398L346,398L347,395L353,402L356,402L370,404L372,402L376,402L380,397L381,396L384,393L388,396L390,395L394,387L395,379L390,375L390,373L391,372L392,372L390,365L387,366L380,362L376,361L371,363L366,364L362,363L358,364L355,368L354,369Z " data-fips="LA01" data-fips-="" data-iso3="LAO" data-name="Attapu" data-p="AT"/><path d="M374,318L371,323L367,325L363,326L359,325L356,332L352,338L354,341L354,349L351,349L350,350L344,350L342,352L338,351L336,353L337,356L340,357L342,357L344,360L348,361L353,365L354,369L354,369L355,368L358,364L362,363L366,364L371,363L376,361L380,362L387,366L390,365L392,372L393,371L399,361L398,359L395,356L395,355L391,351L388,350L385,350L383,346L375,338L375,336L387,326L387,323L381,323L378,320L374,318L374,318Z " data-fips="LA26" data-fips-="" data-iso3="LAO" data-name="Xkong" data-p="XE"/></g></svg>