<?xml version="1.0" encoding="UTF-8"?><!DOCTYPE svg  PUBLIC '-//W3C//DTD SVG 1.1//EN'  'http://www.w3.org/Graphics/SVG/1.1/DTD/svg11.dtd'><svg enable_background="new 0 0 450 451" height="451px" style="stroke-linejoin: round; stroke:#000; fill:#f6f3f0;" version="1.1" viewBox="0 0 450 451" width="450px" xmlns="http://www.w3.org/2000/svg" xmlns:xlink="http://www.w3.org/1999/xlink"><defs><style type="text/css"><![CDATA[path { fill-rule: evenodd; }
#context path { fill: #eee; stroke: #bbb; } ]]></style></defs><metadata><views><view h="451" padding="0.06" w="450"><proj id="laea" lat0="33.9596328805" lon0="36.1123137277"/><bbox h="21.97" w="17.34" x="988.6" y="990.08"/><llbbox lat0="-90" lat1="90" lon0="-180" lon1="180"/></view></views></metadata><g id="context"><path d="M230,336L224,340L212,351L201,361L178,375L173,384L168,376L158,381L150,414L133,425L111,424L93,421L69,423L62,449L234,449L232,445L230,435L229,422L237,410L233,396L227,382L223,374L223,361L226,351L230,336Z " data-iso="ISR"/><path d="M239,327L242,318L250,310L262,303L264,297L263,294L251,288L245,276L251,260L254,255L261,247L277,235L289,233L299,233L317,234L330,236L334,233L333,229L316,219L315,211L320,203L331,190L346,180L353,178L369,158L379,136L362,83L352,75L336,68L326,66L325,63L338,49L347,38L337,26L319,21L312,33L289,34L252,34L253,54L241,68L217,82L184,130L176,184L155,222L117,317L99,345L89,379L79,403L69,423L93,421L111,424L133,425L150,414L158,381L168,376L173,384L178,375L201,361L212,351L224,340L230,336L239,327Z " data-iso="LBN"/><path d="M252,34L289,34L312,33L319,21L337,26L347,38L338,49L325,63L326,66L336,68L352,75L362,83L379,136L369,158L353,178L346,180L331,190L320,203L315,211L316,219L333,229L334,233L330,236L317,234L299,233L289,233L277,235L261,247L254,255L251,260L245,276L251,288L263,294L264,297L262,303L250,310L242,318L239,327L230,336L226,351L223,361L223,374L227,382L233,396L237,410L229,422L230,435L232,445L234,449L450,449L450,0L243,0L252,34Z " data-iso="SYR"/></g><g fill="red" fill-opacity="0.35" id="regions"><path d="M326,67L322,67L309,76L308,80L304,86L298,101L296,104L291,108L289,112L286,120L280,126L272,136L271,145L266,152L264,154L260,154L258,158L258,160L257,175L247,194L242,203L239,204L230,213L223,225L209,241L216,246L217,248L214,251L209,251L203,259L206,264L200,269L188,287L184,296L181,309L178,314L176,316L176,322L179,328L180,330L180,335L184,337L186,336L192,328L197,323L202,325L206,327L210,335L211,337L221,338L224,339L229,336L240,328L243,320L241,315L248,310L253,310L257,308L261,305L264,301L265,297L263,294L260,291L253,289L248,286L243,285L241,283L241,278L245,276L247,272L246,268L248,263L252,260L256,253L263,247L266,241L268,238L279,235L286,230L292,235L300,233L303,231L306,230L309,230L320,236L328,237L335,233L334,228L330,226L322,225L316,220L313,215L318,206L320,201L324,197L332,190L343,179L346,179L350,181L356,179L358,176L359,170L363,165L373,157L377,149L383,142L382,139L377,134L376,131L375,126L378,120L379,117L377,115L373,114L371,111L365,101L365,99L367,95L368,88L367,86L357,79L354,78L351,75L345,67L339,66L333,67L326,68L326,67Z " data-fips="LE11" data-fips-="LE01" data-iso3="LBN" data-name="Beqaa" data-p="BI"/><path d="M183,137L189,138L203,145L215,145L223,144L230,147L234,149L240,151L241,150L243,148L254,153L258,153L260,154L264,154L266,152L271,145L272,136L280,126L286,120L289,112L291,108L296,104L298,101L304,86L308,80L309,76L322,67L326,67L324,63L327,59L337,53L338,49L338,45L341,40L348,42L349,34L344,35L339,35L334,34L329,30L325,21L317,22L316,24L316,29L316,31L312,34L299,35L295,33L293,33L290,34L275,33L270,34L265,34L261,33L257,30L251,29L253,31L255,36L255,41L255,53L254,57L252,59L237,72L221,76L217,75L217,77L221,83L217,88L205,94L203,99L199,107L196,112L193,109L188,114L185,120L184,128L184,136L183,137Z " data-fips="LE09" data-fips-="LE03" data-iso3="LBN" data-name="North Lebanon" data-p="AS"/><path d="M160,216L158,217L153,214L150,214L148,215L146,217L149,224L149,226L156,227L158,225L160,224L163,216L160,216Z " data-fips="LE04" data-fips-="" data-iso3="LBN" data-name="Beirut" data-p="BA"/><path d="M258,153L254,153L243,148L241,150L240,151L234,149L230,147L223,144L215,145L203,145L189,138L183,137L183,138L180,140L180,142L180,150L180,154L183,159L184,162L183,170L179,181L179,187L182,190L181,193L175,196L172,202L171,205L172,206L169,213L168,215L165,216L163,216L160,224L158,225L156,227L149,226L149,237L148,242L139,262L139,265L136,267L133,277L130,280L131,282L126,295L134,296L139,299L152,299L161,296L162,295L172,292L174,295L174,300L177,309L176,316L178,314L181,309L184,296L188,287L200,269L206,264L203,259L209,251L214,251L217,248L216,246L209,241L223,225L230,213L239,204L242,203L247,194L257,175L258,160L258,158L260,154L258,153Z " data-fips="LE05" data-fips-="" data-iso3="LBN" data-name="Mount Lebanon" data-p="JL"/><path d="M108,419L116,430L118,430L130,427L141,423L147,422L148,418L152,411L154,407L155,401L156,388L157,383L162,373L164,373L169,381L174,383L173,378L175,376L181,375L185,371L193,363L203,361L208,358L212,354L216,346L219,342L224,339L221,338L211,337L210,335L206,327L202,325L197,323L192,328L186,336L184,337L180,335L178,338L173,343L171,347L164,348L163,350L161,356L157,347L157,344L158,320L158,318L154,320L135,324L133,325L134,328L130,329L126,334L128,336L128,338L124,344L123,348L118,343L114,345L113,348L111,351L111,352L115,353L117,354L119,356L118,360L121,364L125,365L131,366L137,365L135,370L135,374L133,378L125,387L121,389L123,391L121,394L118,395L116,400L115,401L110,402L108,409L107,419L108,419Z " data-fips="LE07" data-fips-="" data-iso3="LBN" data-name="An Nabatiyah" data-p="NA"/><path d="M123,304L123,307L120,315L115,320L104,329L105,332L103,335L99,341L98,344L98,351L98,354L94,365L90,370L86,373L90,380L89,387L83,401L81,401L77,408L72,410L68,415L67,418L68,421L85,423L89,420L95,421L103,418L106,418L107,419L108,409L110,402L115,401L116,400L118,395L121,394L123,391L121,389L125,387L133,378L135,374L135,370L137,365L131,366L125,365L121,364L118,360L119,356L117,354L115,353L111,352L111,351L113,348L114,345L118,343L123,348L124,344L128,338L128,336L126,334L130,329L134,328L133,325L135,324L154,320L158,318L158,320L157,344L157,347L161,356L163,350L164,348L171,347L173,343L178,338L180,335L180,330L179,328L176,322L176,316L177,309L174,300L174,295L172,292L162,295L161,296L152,299L139,299L134,296L126,295L123,304Z " data-fips="LE06" data-fips-="" data-iso3="LBN" data-name="South Lebanon" data-p="JA"/></g></svg>