<?xml version="1.0" encoding="UTF-8"?><!DOCTYPE svg  PUBLIC '-//W3C//DTD SVG 1.1//EN'  'http://www.w3.org/Graphics/SVG/1.1/DTD/svg11.dtd'><svg enable_background="new 0 0 450 301" height="301px" style="stroke-linejoin: round; stroke:#000; fill:#f6f3f0;" version="1.1" viewBox="0 0 450 301" width="450px" xmlns="http://www.w3.org/2000/svg" xmlns:xlink="http://www.w3.org/1999/xlink"><defs><style type="text/css"><![CDATA[path { fill-rule: evenodd; }
#context path { fill: #eee; stroke: #bbb; } ]]></style></defs><metadata><views><view h="301.0" padding="0.06" w="450"><proj id="laea" lat0="4.81288483332" lon0="-8.33929404858"/><bbox h="58.09" w="56.18" x="958.56" y="950.66"/><llbbox lat0="-90" lat1="90" lon0="-180" lon1="180"/></view></views></metadata><g id="context"><path d="M284,80L286,80L288,82L289,89L296,110L296,116L295,120L294,128L290,134L277,146L284,150L287,149L293,156L302,160L311,160L316,160L322,164L326,174L328,176L328,180L332,184L338,184L346,189L350,189L352,201L353,207L351,212L351,221L348,227L347,233L346,235L342,237L342,242L341,253L342,269L342,281L344,283L352,282L364,275L375,271L383,265L388,263L407,257L450,240L450,0L318,0L318,2L329,6L333,11L334,16L335,25L334,28L331,28L326,22L312,20L302,21L299,35L301,38L312,41L314,42L314,47L310,53L307,60L308,67L302,78L300,80L293,78L288,77L284,80Z " data-iso="CIV"/><path d="M172,21L175,20L180,18L183,19L185,24L202,18L206,23L210,21L212,24L220,29L219,35L220,40L222,41L229,70L226,83L223,89L230,89L236,91L244,99L245,101L249,101L254,99L259,98L263,90L268,84L269,77L270,73L274,71L279,72L280,75L282,78L284,80L288,77L293,78L300,80L302,78L308,67L307,60L310,53L314,47L314,42L312,41L301,38L299,35L302,21L312,20L326,22L331,28L334,28L335,25L334,16L333,11L329,6L318,2L318,0L153,0L158,8L158,9L150,18L147,26L145,30L146,31L154,31L158,28L165,21L167,20L172,21Z " data-iso="GIN"/><path d="M282,78L280,75L279,72L274,71L270,73L269,77L268,84L263,90L259,98L254,99L249,101L245,101L244,99L236,91L230,89L223,89L226,83L229,70L222,41L220,40L219,35L220,29L212,24L210,21L206,23L202,18L185,24L183,19L180,18L175,20L172,21L171,22L170,32L167,39L165,41L157,43L153,47L150,58L148,67L146,68L134,81L126,85L121,89L116,95L109,100L102,109L97,118L94,120L107,134L126,143L135,149L139,159L144,162L151,165L162,168L171,173L211,209L228,227L244,239L299,268L315,273L337,282L344,283L342,281L342,269L341,253L342,242L342,237L346,235L347,233L348,227L351,221L351,212L353,207L352,201L350,189L346,189L338,184L332,184L328,180L328,176L326,174L322,164L316,160L311,160L302,160L293,156L287,149L284,150L277,146L290,134L294,128L295,120L296,116L296,110L289,89L288,82L286,80L284,80L282,78Z " data-iso="LBR"/><path d="M30,86L32,80L31,77L24,74L9,74L3,78L25,84L29,88L30,86Z M94,120L97,118L102,109L109,100L116,95L121,89L126,85L134,81L146,68L148,67L150,58L153,47L157,43L165,41L167,39L170,32L171,22L172,21L167,20L165,21L158,28L154,31L146,31L145,30L147,26L150,18L158,9L158,8L153,0L0,0L0,11L4,11L7,9L6,13L0,18L0,38L3,41L5,47L8,60L10,62L14,64L19,69L27,70L31,66L33,66L31,72L36,80L33,86L33,90L41,92L67,103L80,109L91,118L94,120Z " data-iso="SLE"/></g><g fill="red" fill-opacity="0.35" id="regions"><path d="M305,233L299,232L298,232L296,231L295,232L291,236L286,237L280,241L277,246L274,248L272,252L271,253L277,256L280,258L287,263L296,266L299,269L301,270L309,270L318,273L324,276L325,277L327,273L327,268L322,258L319,256L315,254L309,249L314,237L314,235L305,233Z " data-fips="LI16" data-fips-="" data-iso3="LBR" data-name="GrandKru"/><path d="M314,235L314,237L309,249L315,254L319,256L322,258L327,268L327,273L325,277L326,277L333,282L341,284L342,282L342,273L342,260L340,254L340,254L336,251L333,250L330,251L325,247L325,237L324,237L314,235Z " data-fips="LI13" data-fips-="LI06" data-iso3="LBR" data-name="Maryland"/><path d="M288,212L285,209L285,207L293,202L293,201L289,194L284,192L282,192L278,197L275,196L258,186L257,188L257,188L256,189L248,189L247,189L245,190L243,196L235,200L229,205L231,208L232,214L230,219L225,223L225,225L230,229L233,230L233,232L245,240L250,242L251,243L256,245L268,252L271,253L272,252L274,248L277,246L280,241L286,237L291,236L295,232L296,231L296,229L295,227L293,224L289,219L287,215L288,212L288,212Z " data-fips="LI10" data-fips-="" data-iso3="LBR" data-name="Sinoe"/><path d="M158,123L151,123L143,126L141,124L141,121L143,118L142,117L130,115L130,115L130,116L128,127L124,136L121,138L121,141L122,141L132,147L135,148L137,150L138,153L139,150L138,146L143,143L153,142L153,141L153,131L153,130L154,126L156,126L157,125L157,125L158,125L158,124L159,123L158,123Z " data-fips="LI15" data-fips-="LI14" data-iso3="LBR" data-name="Bomi"/><path d="M221,91L220,94L218,95L212,97L210,101L204,103L201,101L194,107L189,108L184,112L181,107L179,106L177,106L172,111L170,113L166,116L164,116L160,121L159,123L158,124L158,125L157,125L157,125L159,128L161,129L165,129L166,130L169,130L172,130L176,133L184,136L189,134L194,136L197,138L202,128L205,129L206,134L205,137L205,137L211,138L215,142L211,150L216,148L219,149L224,146L227,143L231,139L233,140L240,139L240,139L241,139L245,127L244,121L241,117L242,111L243,110L245,102L245,102L239,96L236,91L234,91L232,89L230,88L226,91L222,91L221,91Z " data-fips="LI01" data-fips-="" data-iso3="LBR" data-name="Bong"/><path d="M240,139L233,140L231,139L227,143L224,146L219,149L216,148L211,150L215,142L211,138L205,137L205,137L200,143L198,144L195,143L192,146L186,146L184,147L180,146L178,143L174,145L175,147L172,152L172,155L169,157L168,161L167,163L166,169L167,169L166,171L175,176L177,178L182,182L190,191L199,198L206,205L209,199L208,195L208,189L210,186L210,181L211,177L213,175L214,173L217,172L223,168L223,164L223,158L230,156L243,156L243,154L244,148L243,144L246,140L243,140L240,139L240,139Z " data-fips="LI11" data-fips-="LI03" data-iso3="LBR" data-name="Grand Bassa"/><path d="M134,81L127,84L118,91L107,101L106,101L103,107L104,109L102,110L97,119L103,127L102,132L104,134L111,137L121,141L121,138L124,136L128,127L130,116L130,115L129,115L135,110L140,108L144,103L147,102L157,95L156,91L152,84L147,83L147,83L146,83L141,82L140,82L135,80L134,81Z " data-fips="LI12" data-fips-="LI04" data-iso3="LBR" data-name="Grand Cape Mount"/><path d="M221,91L220,94L218,95L212,97L210,101L204,103L201,101L194,107L189,108L184,112L181,107L179,106L180,104L185,97L186,94L183,90L179,88L177,86L178,83L175,81L171,81L165,84L151,82L147,83L146,83L141,82L140,82L135,80L143,70L150,66L150,51L159,42L164,42L167,41L169,38L168,34L170,32L172,24L178,18L180,18L184,19L185,20L184,23L187,24L194,20L199,20L200,20L206,23L207,24L208,20L211,22L212,23L210,25L215,26L216,27L221,30L219,36L220,40L222,42L223,47L222,50L224,48L224,60L230,68L228,74L230,75L228,78L226,84L223,87L221,91L221,91Z " data-fips="LI20" data-fips-="LI05" data-iso3="LBR" data-name="Lofa"/><path d="M165,129L161,129L159,128L157,125L156,126L154,126L153,130L153,131L153,141L153,142L143,143L138,146L139,150L138,153L138,153L141,153L139,157L139,160L147,164L149,164L150,159L158,155L161,151L163,151L165,144L163,139L167,132L166,130L165,129Z " data-fips="LI14" data-fips-="LI08|LI15" data-iso3="LBR" data-name="Montserrado"/><path d="M206,134L205,129L202,128L197,138L194,136L189,134L184,136L176,133L172,130L169,130L166,130L167,132L163,139L165,144L163,151L161,151L158,155L150,159L149,164L160,167L165,170L162,166L166,169L166,169L167,163L168,161L169,157L172,155L172,152L175,147L174,145L178,143L180,146L184,147L186,146L192,146L195,143L198,144L200,143L205,137L206,134Z " data-fips="LI17" data-fips-="" data-iso3="LBR" data-name="Margibi"/><path d="M245,102L243,110L242,111L241,117L244,121L245,127L241,139L240,139L243,140L246,140L243,144L244,148L243,154L243,156L244,159L248,161L248,165L246,167L246,173L247,175L246,179L247,188L247,189L248,189L256,189L257,188L257,188L258,186L258,185L257,183L257,181L256,179L257,178L261,176L262,172L261,171L267,165L270,162L274,155L276,147L278,145L293,131L294,129L294,122L297,114L296,108L294,102L290,94L290,88L287,81L281,77L279,75L279,71L272,71L269,76L269,81L265,87L265,88L263,90L261,93L261,98L257,99L253,98L246,102L245,102Z " data-fips="LI09" data-fips-="" data-iso3="LBR" data-name="Nimba"/><path d="M247,188L246,179L247,175L246,173L246,167L248,165L248,161L244,159L243,156L230,156L223,158L223,164L223,168L217,172L214,173L213,175L211,177L210,181L210,186L208,189L208,195L209,199L206,205L208,207L214,211L221,218L222,222L225,225L225,223L230,219L232,214L231,208L229,205L235,200L243,196L245,190L247,189L247,188Z " data-fips="LI18" data-fips-="" data-iso3="LBR" data-name="River Cess"/><path d="M276,147L274,155L270,162L267,165L261,171L262,172L261,176L257,178L256,179L257,181L257,183L258,185L258,186L275,196L278,197L282,192L284,192L289,194L293,201L293,202L285,207L285,209L288,212L288,212L290,213L297,213L305,212L309,211L352,209L352,209L354,206L351,200L350,195L350,188L348,187L345,189L345,187L337,184L335,182L334,184L328,180L327,174L324,173L324,165L321,161L311,159L304,161L295,157L293,156L289,155L289,150L285,149L277,147L276,147Z " data-fips="LI19" data-fips-="LI02" data-iso3="LBR" data-name="GrandGedeh"/><path d="M352,209L309,211L305,212L297,213L290,213L288,212L287,215L289,219L293,224L295,227L296,229L296,231L298,232L299,232L305,233L314,235L324,237L325,237L325,247L330,251L333,250L336,251L340,254L340,253L343,247L342,237L345,236L348,233L347,228L349,225L354,222L354,220L351,215L352,211L353,209L352,209Z " data-fips="LI22" data-fips-="" data-iso3="LBR" data-name="River Gee"/><path d="M180,104L185,97L186,94L183,90L179,88L177,86L178,83L175,81L171,81L165,84L151,82L147,83L147,83L152,84L156,91L157,95L147,102L144,103L140,108L135,110L129,115L130,115L130,115L142,117L143,118L141,121L141,124L143,126L151,123L158,123L159,123L160,121L164,116L166,116L170,113L172,111L177,106L179,106L180,104Z " data-fips="LI21" data-fips-="" data-iso3="LBR" data-name="Gbapolu"/></g></svg>