<?xml version="1.0" encoding="UTF-8"?><!DOCTYPE svg  PUBLIC '-//W3C//DTD SVG 1.1//EN'  'http://www.w3.org/Graphics/SVG/1.1/DTD/svg11.dtd'><svg enable_background="new 0 0 450 301" height="301px" style="stroke-linejoin: round; stroke:#000; fill:#f6f3f0;" version="1.1" viewBox="0 0 450 301" width="450px" xmlns="http://www.w3.org/2000/svg" xmlns:xlink="http://www.w3.org/1999/xlink"><defs><style type="text/css"><![CDATA[path { fill-rule: evenodd; }
#context path { fill: #eee; stroke: #bbb; } ]]></style></defs><metadata><views><view h="301.0" padding="0.06" w="450"><proj id="laea" lat0="30.4735536769" lon0="10.7901061943"/><bbox h="185.23" w="202.33" x="973.1" y="952.6"/><llbbox lat0="-90" lat1="90" lon0="-180" lon1="180"/></view></views></metadata><g id="context"><path d="M127,215L125,211L103,194L99,196L93,190L91,184L91,179L81,164L82,159L89,153L89,149L87,141L87,139L90,130L89,125L88,115L89,106L86,94L80,83L82,82L83,81L82,77L76,44L64,35L63,32L60,24L57,22L54,18L51,11L51,4L55,0L0,0L0,296L10,294L12,293L43,267L50,263L108,227L117,221L127,215Z " data-iso="DZA"/><path d="M347,37L343,44L347,55L346,62L344,66L344,69L346,73L351,87L359,154L366,225L367,230L374,229L395,226L402,225L450,218L450,23L446,23L445,26L438,28L443,25L435,28L433,32L428,34L421,41L415,44L405,41L396,42L394,40L383,38L360,36L352,40L349,40L347,37Z " data-iso="EGY"/><path d="M347,36L345,33L339,31L330,32L324,30L315,30L312,26L311,22L295,18L286,19L283,22L277,23L270,27L266,31L262,35L259,43L265,58L263,64L258,70L251,75L245,75L240,73L232,66L225,64L217,61L207,59L196,59L187,54L185,51L182,45L182,41L179,37L168,35L156,30L153,30L147,27L138,30L130,29L122,24L120,24L117,23L116,28L118,36L117,38L109,43L102,48L102,48L94,57L96,69L95,70L85,80L83,81L82,82L80,83L86,94L89,106L88,115L89,125L90,130L87,139L87,141L89,149L89,153L82,159L81,164L91,179L91,184L93,190L99,196L103,194L125,211L127,215L136,217L154,221L169,232L182,224L182,224L189,220L200,214L242,234L279,251L344,278L353,281L353,279L352,272L371,269L368,240L367,230L366,225L359,154L351,87L346,73L344,69L344,66L346,62L347,55L343,44L347,37L347,36Z " data-iso="LBY"/><path d="M182,224L182,224L169,232L154,221L136,217L127,215L117,221L108,227L50,263L43,267L12,293L10,294L0,296L0,299L197,299L198,285L201,275L196,270L194,266L195,264L189,255L187,254L186,245L184,235L182,224Z " data-iso="NER"/><path d="M367,230L368,240L371,269L352,272L353,279L353,281L354,290L355,299L450,299L450,218L402,225L395,226L374,229L367,230Z " data-iso="SDN"/><path d="M353,281L344,278L279,251L242,234L200,214L189,220L182,224L184,235L186,245L187,254L189,255L195,264L194,266L196,270L201,275L198,285L197,299L355,299L354,290L353,281Z " data-iso="TCD"/><path d="M108,12L109,11L107,8L105,12L108,12Z M83,81L85,80L95,70L96,69L94,57L102,48L102,48L109,43L117,38L118,36L116,28L117,23L115,22L111,19L110,15L108,14L104,16L104,12L100,13L95,9L95,0L55,0L51,4L51,11L54,18L57,22L60,24L63,32L64,35L76,44L82,77L83,81Z " data-iso="TUN"/></g><g fill="red" fill-opacity="0.35" id="regions"><path d="M117,38L106,44L105,45L102,47L102,49L97,52L94,56L94,58L96,64L96,68L95,71L89,79L87,79L79,83L84,90L86,94L88,103L89,110L88,113L94,111L98,114L107,109L109,113L114,115L121,114L123,115L125,114L125,114L125,110L121,104L121,98L119,85L119,74L124,67L125,64L125,64L123,52L123,50L123,42L123,40L120,40L119,40L117,38L117,38Z " data-fips="LY56" data-fips-="" data-iso3="LBY" data-name="Ghadamis"/><path d="M202,95L198,94L191,96L187,92L185,92L179,90L176,88L175,87L175,89L174,97L173,98L170,100L168,101L168,103L169,109L170,110L176,114L178,116L179,122L181,122L188,120L193,121L195,124L193,129L193,129L193,130L197,136L198,138L202,142L202,142L202,143L203,147L207,149L209,155L215,159L224,161L230,159L235,155L237,154L243,158L254,160L255,160L254,150L254,140L252,113L249,113L249,113L244,112L240,111L240,112L233,109L231,107L229,102L225,97L224,96L220,95L219,97L214,96L212,94L205,96L203,95L203,95L202,95Z " data-fips="LY05" data-fips-="" data-iso3="LBY" data-name="Al Jufrah"/><path d="M254,140L254,150L255,160L256,170L258,200L260,229L261,242L353,282L352,272L371,269L367,230L356,133L356,129L333,132L323,134L292,137L260,140L254,140Z " data-fips="LY08" data-fips-="" data-iso3="LBY" data-name="Al Kufrah"/><path d="M167,35L163,32L163,31L159,31L158,30L157,31L156,33L156,33L156,34L156,35L162,39L163,40L164,39L164,38L166,37L167,35L167,35Z " data-fips="LY50" data-fips-="" data-iso3="LBY" data-name="Al Marqab"/><path d="M168,101L168,100L164,96L159,94L153,100L152,102L146,111L141,113L137,117L135,115L126,113L125,114L125,114L123,115L121,114L114,115L109,113L107,109L98,114L94,111L88,113L87,120L88,122L90,128L90,129L90,129L96,132L103,134L107,135L111,137L112,139L113,151L116,161L132,150L144,140L148,139L155,141L162,142L168,142L177,135L178,133L181,132L189,129L193,129L193,129L195,124L193,121L188,120L181,122L179,122L178,116L176,114L170,110L169,109L168,103L168,101Z " data-fips="LY13" data-fips-="" data-iso3="LBY" data-name="Ash Shati'"/><path d="M89,133L88,134L86,140L88,147L89,149L89,153L82,158L80,162L80,163L90,178L91,180L92,189L95,194L98,196L104,194L117,199L117,194L115,190L115,178L116,175L120,172L128,174L130,174L133,171L138,171L144,168L148,168L153,163L157,162L161,160L161,158L162,156L165,151L163,148L162,143L162,142L155,141L148,139L144,140L132,150L116,161L113,151L112,139L111,137L107,135L103,134L96,132L90,129L89,133Z " data-fips="LY52" data-fips-="" data-iso3="LBY" data-name="Ghat"/><path d="M202,142L193,145L180,148L177,149L170,157L161,160L161,160L157,162L153,163L148,168L144,168L138,171L133,171L130,174L128,174L120,172L116,175L115,178L115,190L117,194L117,199L118,199L119,200L127,215L155,221L157,222L169,232L200,214L200,214L261,242L260,229L258,200L256,170L255,160L254,160L243,158L237,154L235,155L230,159L224,161L215,159L209,155L207,149L203,147L202,143L202,142Z " data-fips="LY30" data-fips-="" data-iso3="LBY" data-name="Murzuq"/><path d="M182,42L182,41L179,37L174,36L172,36L172,40L171,44L171,46L172,45L177,44L179,44L182,43L182,42Z " data-fips="LY58" data-fips-="" data-iso3="LBY" data-name="Misratah"/><path d="M189,129L181,132L178,133L177,135L168,142L162,142L162,143L163,148L165,151L162,156L161,158L161,160L161,160L170,157L177,149L180,148L193,145L202,142L202,142L198,138L197,136L193,130L193,129L189,129Z " data-fips="LY34" data-fips-="" data-iso3="LBY" data-name="Sabha"/><path d="M171,36L171,36L170,35L167,35L166,37L164,38L164,39L163,40L164,40L161,42L164,44L166,46L167,46L170,46L171,46L171,44L172,40L172,36L171,36Z " data-fips="LY45" data-fips-="" data-iso3="LBY" data-name="Zlitan"/><path d="M145,38L145,37L145,34L145,33L143,31L143,31L142,32L139,38L139,39L139,41L142,40L143,40L145,40L146,39L147,39L146,39L145,38Z " data-fips="LY03" data-fips-="" data-iso3="LBY" data-name="Al Jifarah"/><path d="M117,38L119,40L120,40L123,40L127,39L133,34L135,30L131,29L123,24L119,24L117,23L117,25L117,34L118,37L117,38Z " data-fips="LY51" data-fips-="" data-iso3="LBY" data-name="An Nuqat al Khams"/><path d="M144,30L144,28L144,28L144,28L143,28L139,30L138,30L135,30L133,34L127,39L123,40L128,40L130,40L132,40L136,41L137,41L138,41L139,41L139,39L139,38L142,32L143,31L143,31L144,30Z " data-fips="LY53" data-fips-="" data-iso3="LBY" data-name="Az Zawiyah"/><path d="M149,43L148,42L147,40L147,39L146,39L145,40L143,40L142,40L139,41L138,41L137,41L136,42L139,54L135,52L132,64L131,65L126,65L125,64L124,67L119,74L119,85L121,98L121,104L125,110L125,114L126,113L135,115L137,117L141,113L146,111L152,102L153,100L159,94L164,96L168,100L168,101L170,100L173,98L174,97L175,89L175,87L175,87L177,86L177,79L177,76L174,75L170,74L164,71L161,65L159,60L153,55L151,49L150,46L149,45L149,43Z " data-fips="LY57" data-fips-="" data-iso3="LBY" data-name="Mizdah"/><path d="M170,46L167,46L166,46L164,44L161,42L160,44L153,45L150,45L149,45L150,46L151,49L153,55L159,60L161,65L164,71L170,74L174,75L177,76L177,79L177,86L175,87L175,87L176,88L179,90L185,92L187,92L191,96L198,94L202,95L203,95L204,93L203,85L200,77L199,74L196,63L196,59L195,58L185,51L183,46L182,44L182,43L179,44L177,44L172,45L171,46L170,46Z " data-fips="LY59" data-fips-="" data-iso3="LBY" data-name="Bani Walid"/><path d="M157,30L152,30L148,28L144,28L144,28L144,28L144,28L144,30L143,31L145,33L145,34L145,37L145,38L146,39L148,38L149,37L150,35L154,33L156,33L156,33L157,31L158,30L157,30Z " data-fips="LY61" data-fips-="" data-iso3="LBY" data-name="Tajura' wa an Nawahi al Arba"/><path d="M162,39L156,35L156,34L156,33L154,33L150,35L149,37L148,38L146,39L147,39L147,40L148,42L149,43L149,45L150,45L153,45L160,44L161,42L164,40L163,40L162,39Z " data-fips="LY41" data-fips-="" data-iso3="LBY" data-name="Tarhunah"/><path d="M136,41L132,40L130,40L128,40L123,40L123,42L123,50L123,52L125,64L125,64L126,65L131,65L132,64L135,52L139,54L136,42L137,41L136,41Z " data-fips="LY62" data-fips-="" data-iso3="LBY" data-name="Yafran-Jadu"/><path d="M281,22L277,23L275,24L273,26L269,28L265,37L266,39L270,47L280,46L282,47L283,52L284,57L286,57L290,56L291,56L291,51L289,48L288,39L288,37L285,35L282,28L284,24L282,22L281,22Z " data-fips="LY48" data-fips-="" data-iso3="LBY" data-name="Al Hizam Al Akhdar"/><path d="M290,19L287,18L286,19L283,22L282,22L284,24L282,28L285,35L288,37L288,39L289,48L291,51L291,56L292,55L295,54L298,54L294,51L294,36L293,34L292,18L290,19Z " data-fips="LY49" data-fips-="" data-iso3="LBY" data-name="Al Jabal al Akhdar"/><path d="M278,57L271,58L265,54L264,55L264,55L264,61L263,63L259,70L250,75L245,75L242,74L242,84L242,88L242,91L240,94L239,98L239,104L240,111L244,112L249,113L249,113L252,113L254,140L260,140L292,137L323,134L333,132L356,129L356,128L355,121L353,108L320,111L314,59L313,59L313,59L311,59L307,59L305,58L300,53L298,54L295,54L292,55L291,56L290,56L286,57L284,57L278,57Z " data-fips="LY47" data-fips-="" data-iso3="LBY" data-name="Ajdabiya"/><path d="M283,52L282,47L280,46L270,47L266,39L265,37L269,28L269,28L261,36L260,42L260,45L262,52L264,55L264,55L265,54L271,58L278,57L284,57L283,52Z " data-fips="LY54" data-fips-="" data-iso3="LBY" data-name="Benghazi"/><path d="M242,74L231,66L217,61L206,59L200,59L196,59L196,63L199,74L200,77L203,85L204,93L203,95L203,95L205,96L212,94L214,96L219,97L220,95L224,96L225,97L229,102L231,107L233,109L240,112L240,111L239,104L239,98L240,94L242,91L242,88L242,84L242,74L242,74Z " data-fips="LY60" data-fips-="" data-iso3="LBY" data-name="Surt"/><path d="M314,30L311,28L312,25L311,22L309,21L302,20L298,19L294,18L292,18L293,34L294,36L294,51L298,54L300,53L305,58L307,59L311,59L313,59L312,55L312,47L313,44L313,38L314,30L314,30Z " data-fips="LY55" data-fips-="" data-iso3="LBY" data-name="Al Qubbah"/><path d="M314,30L313,38L313,44L312,47L312,55L313,59L313,59L314,59L320,111L353,108L351,87L348,81L346,73L344,70L344,65L346,62L347,55L344,48L343,43L346,41L347,36L344,32L339,31L337,32L329,33L327,31L315,30L314,30Z " data-fips="LY42" data-fips-="" data-iso3="LBY" data-name="Al Butnan"/></g></svg>