<?xml version="1.0" encoding="UTF-8"?><!DOCTYPE svg  PUBLIC '-//W3C//DTD SVG 1.1//EN'  'http://www.w3.org/Graphics/SVG/1.1/DTD/svg11.dtd'><svg enable_background="new 0 0 450 301" height="301px" style="stroke-linejoin: round; stroke:#000; fill:#f6f3f0;" version="1.1" viewBox="0 0 450 301" width="450px" xmlns="http://www.w3.org/2000/svg" xmlns:xlink="http://www.w3.org/1999/xlink"><defs><style type="text/css"><![CDATA[path { fill-rule: evenodd; }
#context path { fill: #eee; stroke: #bbb; } ]]></style></defs><metadata><views><view h="301.0" padding="0.06" w="450"><proj id="laea" lat0="7.21599396425" lon0="80.6429054088"/><bbox h="51.48" w="30.57" x="986.34" y="966.11"/><llbbox lat0="-90" lat1="90" lon0="-180" lon1="180"/></view></views></metadata><g id="context"><path d="M1156,211L1152,217L1143,199L1139,198L1139,189L1141,186L1151,182L1153,184L1159,201L1156,211Z M1144,173L1138,180L1134,176L1136,173L1141,170L1144,173Z M1122,136L1117,137L1113,130L1114,127L1117,126L1122,131L1122,136Z M1129,123L1125,126L1123,115L1125,111L1128,112L1127,116L1129,123Z M1100,110L1102,113L1099,112L1095,108L1097,103L1100,110Z M1073,47L1070,47L1068,45L1068,42L1073,39L1075,44L1073,47Z M1050,-55L1048,-52L1041,-54L1041,-61L1039,-68L1040,-71L1045,-77L1050,-79L1053,-72L1055,-65L1050,-55Z M1061,-114L1058,-113L1054,-115L1057,-118L1057,-124L1061,-120L1061,-114Z M1082,-162L1086,-153L1080,-157L1078,-160L1082,-162Z M1059,-221L1057,-217L1056,-227L1059,-227L1059,-221Z M1063,-126L1061,-124L1059,-126L1052,-138L1051,-147L1049,-150L1051,-154L1054,-155L1055,-160L1055,-167L1059,-174L1065,-175L1064,-181L1060,-185L1060,-198L1060,-203L1062,-207L1060,-215L1061,-218L1065,-222L1066,-231L1064,-234L1067,-248L1067,-257L1071,-266L1078,-271L1080,-271L1081,-263L1082,-261L1078,-256L1082,-250L1080,-243L1078,-238L1074,-236L1070,-227L1076,-221L1079,-198L1075,-192L1070,-191L1072,-176L1071,-172L1067,-165L1066,-162L1063,-159L1065,-155L1067,-153L1067,-150L1065,-142L1065,-133L1063,-126Z M94,-1553L94,-1548L101,-1540L98,-1535L96,-1529L98,-1527L97,-1519L100,-1517L106,-1519L111,-1519L113,-1525L116,-1526L119,-1524L134,-1503L137,-1500L148,-1492L154,-1493L162,-1494L180,-1481L184,-1481L187,-1479L188,-1474L187,-1468L187,-1466L191,-1465L209,-1458L213,-1457L218,-1455L222,-1451L230,-1446L237,-1442L239,-1437L236,-1438L232,-1438L218,-1425L214,-1422L210,-1419L200,-1407L195,-1396L191,-1385L191,-1378L189,-1369L185,-1364L183,-1362L180,-1355L178,-1346L179,-1343L184,-1340L201,-1328L205,-1327L208,-1332L212,-1331L222,-1323L249,-1308L254,-1302L258,-1297L270,-1289L293,-1276L296,-1276L302,-1279L310,-1276L322,-1268L332,-1262L344,-1263L347,-1262L351,-1251L363,-1248L372,-1246L382,-1243L387,-1241L392,-1244L393,-1247L397,-1248L403,-1247L416,-1243L421,-1242L426,-1246L434,-1248L438,-1250L447,-1246L464,-1241L472,-1237L475,-1231L475,-1223L477,-1219L494,-1211L499,-1208L508,-1206L510,-1201L517,-1199L535,-1206L540,-1205L544,-1202L544,-1197L547,-1192L550,-1189L554,-1189L564,-1193L572,-1190L588,-1188L599,-1183L610,-1179L614,-1179L630,-1188L631,-1187L635,-1179L640,-1177L648,-1174L656,-1179L663,-1178L670,-1178L678,-1180L684,-1181L694,-1177L698,-1181L704,-1202L703,-1207L700,-1216L691,-1227L691,-1230L692,-1250L694,-1261L699,-1274L699,-1281L696,-1282L698,-1288L706,-1290L716,-1293L725,-1299L728,-1299L737,-1296L740,-1293L742,-1286L743,-1284L743,-1277L738,-1259L740,-1253L748,-1245L748,-1243L740,-1238L739,-1235L741,-1232L746,-1227L748,-1220L760,-1213L767,-1210L779,-1213L788,-1210L796,-1208L797,-1204L807,-1203L819,-1205L830,-1208L835,-1214L844,-1218L851,-1215L858,-1212L862,-1211L870,-1210L878,-1211L895,-1214L905,-1213L914,-1219L916,-1219L920,-1215L930,-1215L941,-1219L951,-1219L954,-1221L955,-1224L955,-1228L952,-1233L950,-1240L951,-1245L954,-1251L947,-1262L945,-1262L938,-1260L931,-1260L926,-1264L921,-1268L920,-1272L923,-1283L928,-1283L940,-1281L945,-1281L952,-1287L962,-1290L972,-1289L988,-1299L989,-1302L986,-1307L986,-1309L989,-1313L1000,-1319L1009,-1327L1014,-1332L1018,-1346L1021,-1349L1028,-1351L1047,-1354L1052,-1357L1061,-1363L1065,-1367L1067,-1371L1067,-1374L1073,-1376L1078,-1382L1083,-1388L1094,-1394L1103,-1401L1106,-1401L1110,-1398L1113,-1392L1126,-1391L1128,-1391L1137,-1389L1146,-1385L1153,-1385L1155,-1386L1161,-1393L1160,-1397L1171,-1406L1182,-1412L1191,-1416L1197,-1412L1202,-1404L1205,-1403L1211,-1404L1212,-1401L1208,-1397L1199,-1391L1201,-1382L1201,-1379L1203,-1379L1214,-1388L1219,-1390L1221,-1388L1223,-1383L1231,-1370L1220,-1358L1217,-1352L1217,-1348L1215,-1344L1222,-1341L1224,-1344L1235,-1349L1238,-1348L1246,-1343L1259,-1341L1265,-1344L1270,-1342L1282,-1334L1282,-1325L1285,-1321L1285,-1314L1284,-1312L1279,-1311L1264,-1296L1260,-1292L1259,-1288L1262,-1277L1277,-1259L1277,-1255L1273,-1254L1267,-1256L1262,-1259L1256,-1267L1252,-1269L1247,-1269L1223,-1263L1218,-1262L1210,-1258L1205,-1252L1201,-1246L1197,-1243L1191,-1238L1175,-1223L1165,-1217L1159,-1214L1154,-1211L1151,-1202L1151,-1193L1153,-1182L1158,-1171L1156,-1167L1152,-1162L1151,-1152L1148,-1147L1144,-1139L1139,-1133L1132,-1128L1129,-1125L1127,-1118L1126,-1111L1127,-1109L1135,-1106L1137,-1103L1137,-1099L1135,-1091L1131,-1079L1120,-1060L1115,-1046L1109,-1021L1106,-1014L1103,-1014L1098,-1016L1088,-1018L1076,-1022L1073,-1022L1064,-1019L1061,-1020L1054,-1026L1053,-1025L1052,-1022L1057,-1005L1061,-998L1061,-987L1061,-974L1060,-959L1059,-955L1057,-951L1053,-950L1050,-951L1047,-951L1047,-949L1048,-942L1043,-928L1046,-916L1051,-903L1051,-894L1049,-892L1045,-892L1039,-877L1036,-876L1032,-877L1026,-884L1023,-886L1020,-885L1017,-877L1014,-874L1012,-879L1009,-905L1007,-913L1005,-924L997,-939L995,-941L993,-951L991,-970L987,-981L984,-995L980,-994L977,-997L976,-997L970,-994L966,-995L963,-994L964,-981L963,-979L955,-971L953,-965L955,-953L954,-949L950,-945L945,-943L941,-944L938,-947L935,-954L932,-958L930,-959L928,-958L928,-949L925,-951L919,-970L913,-985L912,-991L914,-998L916,-1009L922,-1016L925,-1022L934,-1022L937,-1023L939,-1027L943,-1029L950,-1031L955,-1029L957,-1030L961,-1042L970,-1046L971,-1052L975,-1066L976,-1080L978,-1081L987,-1078L991,-1078L993,-1082L992,-1085L985,-1090L974,-1096L963,-1100L945,-1099L926,-1097L921,-1097L914,-1099L897,-1098L877,-1096L858,-1095L846,-1097L837,-1099L829,-1101L820,-1104L818,-1103L815,-1109L816,-1122L813,-1142L814,-1149L806,-1165L803,-1168L800,-1168L798,-1166L797,-1162L799,-1158L796,-1153L791,-1152L785,-1153L779,-1155L772,-1160L767,-1166L766,-1174L764,-1179L756,-1181L754,-1178L758,-1172L758,-1170L753,-1170L749,-1169L739,-1172L739,-1176L734,-1182L727,-1188L721,-1191L718,-1191L719,-1184L722,-1182L723,-1177L716,-1169L710,-1163L705,-1156L702,-1147L701,-1142L703,-1139L706,-1137L713,-1136L720,-1129L727,-1121L730,-1118L736,-1115L748,-1115L749,-1113L751,-1107L754,-1104L760,-1101L757,-1095L747,-1092L728,-1093L723,-1077L720,-1071L718,-1071L712,-1074L709,-1073L703,-1059L702,-1053L706,-1047L710,-1043L715,-1041L719,-1043L723,-1041L727,-1036L734,-1034L743,-1032L749,-1029L749,-1014L748,-1010L744,-997L741,-986L743,-981L750,-973L753,-969L751,-959L752,-957L764,-954L766,-952L762,-941L763,-934L766,-928L768,-913L771,-904L777,-887L778,-874L777,-863L772,-863L777,-856L779,-851L780,-843L774,-842L770,-843L766,-849L765,-843L759,-838L756,-843L755,-848L758,-868L752,-872L751,-876L747,-855L749,-847L748,-843L739,-839L729,-847L728,-849L728,-845L726,-839L717,-840L713,-844L715,-851L720,-869L721,-876L713,-882L707,-885L703,-892L705,-884L708,-881L713,-879L718,-875L715,-870L712,-866L705,-853L697,-846L688,-841L656,-832L649,-829L640,-819L634,-810L633,-801L637,-791L640,-775L643,-772L640,-766L634,-760L629,-752L630,-747L629,-744L612,-734L608,-728L604,-722L598,-725L595,-725L600,-720L598,-715L593,-714L569,-706L550,-698L545,-699L546,-701L549,-703L549,-711L542,-713L528,-703L522,-693L524,-691L527,-691L536,-697L541,-696L541,-693L527,-685L497,-657L495,-652L491,-646L486,-640L476,-626L457,-605L452,-597L422,-581L416,-576L404,-561L391,-548L376,-537L350,-524L334,-511L329,-502L328,-499L330,-495L333,-491L334,-488L332,-480L327,-472L319,-467L293,-456L268,-458L260,-456L257,-451L249,-429L242,-424L239,-415L235,-415L231,-417L228,-415L225,-423L216,-425L198,-417L191,-412L178,-384L175,-366L178,-346L182,-331L183,-323L183,-314L180,-310L179,-304L181,-293L186,-279L188,-273L188,-267L192,-252L189,-255L187,-261L182,-269L175,-261L179,-255L191,-249L195,-243L187,-195L181,-178L173,-167L169,-163L160,-145L154,-124L153,-116L156,-106L153,-101L149,-97L156,-99L159,-94L160,-88L160,-58L159,-26L153,-25L147,-24L137,-26L127,-25L122,-21L117,-15L118,-5L99,20L95,28L94,36L96,41L101,45L107,47L119,48L124,51L128,55L114,50L98,50L58,61L48,69L42,76L38,93L37,103L32,113L12,126L-1,131L-6,134L-22,129L-38,117L-45,110L-70,79L-74,75L-79,61L-80,56L-84,51L-90,35L-92,19L-95,1L-92,2L-88,8L-86,17L-86,29L-83,30L-80,29L-88,1L-95,-6L-96,-6L-98,-11L-98,-19L-103,-28L-105,-33L-117,-61L-122,-80L-130,-102L-136,-110L-144,-127L-151,-135L-158,-146L-166,-153L-183,-189L-188,-209L-193,-219L-195,-226L-200,-257L-201,-269L-205,-282L-212,-296L-214,-305L-214,-308L-219,-322L-220,-328L-223,-334L-226,-339L-230,-344L-239,-358L-242,-361L-249,-370L-253,-387L-258,-394L-249,-393L-254,-400L-257,-404L-260,-406L-255,-412L-262,-412L-266,-416L-271,-428L-279,-441L-281,-448L-288,-470L-293,-523L-298,-547L-298,-554L-304,-574L-308,-588L-309,-600L-310,-607L-312,-622L-314,-627L-314,-630L-312,-637L-307,-647L-304,-654L-306,-663L-311,-654L-316,-651L-318,-658L-318,-668L-318,-671L-317,-674L-305,-672L-318,-679L-320,-685L-317,-690L-322,-694L-323,-707L-325,-712L-321,-730L-308,-764L-307,-772L-308,-783L-310,-792L-311,-804L-316,-805L-319,-808L-323,-822L-316,-829L-320,-828L-324,-829L-317,-835L-310,-840L-296,-845L-289,-848L-299,-845L-308,-844L-328,-846L-324,-858L-320,-863L-316,-865L-322,-864L-328,-866L-326,-879L-320,-881L-315,-882L-308,-883L-315,-886L-323,-887L-332,-885L-340,-887L-350,-887L-346,-885L-342,-881L-344,-874L-347,-870L-352,-867L-357,-862L-358,-858L-361,-856L-352,-852L-347,-844L-348,-834L-361,-813L-365,-808L-395,-796L-407,-789L-433,-780L-443,-779L-453,-781L-469,-789L-492,-808L-498,-814L-515,-838L-528,-851L-538,-863L-550,-874L-562,-889L-564,-896L-562,-903L-558,-906L-552,-904L-549,-899L-543,-895L-525,-903L-518,-902L-513,-906L-507,-905L-494,-912L-489,-912L-482,-913L-471,-930L-463,-941L-458,-943L-459,-949L-463,-948L-470,-939L-476,-941L-485,-940L-503,-934L-510,-928L-516,-927L-544,-935L-570,-951L-581,-961L-588,-974L-594,-989L-591,-993L-579,-1001L-569,-1008L-578,-1005L-588,-1001L-593,-998L-599,-992L-606,-991L-608,-1000L-609,-1010L-601,-1014L-587,-1017L-572,-1016L-570,-1037L-569,-1039L-565,-1040L-563,-1037L-559,-1039L-553,-1037L-549,-1038L-544,-1036L-523,-1036L-515,-1035L-506,-1028L-500,-1027L-491,-1027L-485,-1029L-480,-1035L-467,-1040L-454,-1043L-450,-1043L-449,-1041L-450,-1037L-448,-1033L-443,-1031L-434,-1032L-428,-1037L-425,-1039L-421,-1038L-417,-1041L-417,-1043L-420,-1044L-422,-1047L-421,-1057L-416,-1061L-417,-1066L-421,-1076L-425,-1088L-430,-1099L-436,-1108L-438,-1114L-437,-1129L-438,-1132L-443,-1135L-447,-1133L-459,-1134L-462,-1136L-472,-1150L-473,-1156L-473,-1162L-469,-1172L-467,-1181L-466,-1190L-468,-1196L-472,-1198L-481,-1199L-492,-1202L-506,-1211L-508,-1215L-506,-1226L-502,-1238L-500,-1241L-489,-1251L-477,-1262L-466,-1277L-460,-1288L-448,-1296L-442,-1299L-437,-1299L-432,-1296L-428,-1293L-427,-1285L-425,-1281L-422,-1278L-418,-1276L-413,-1276L-393,-1284L-386,-1285L-370,-1286L-358,-1289L-348,-1292L-347,-1297L-342,-1307L-330,-1318L-327,-1323L-323,-1333L-318,-1343L-315,-1346L-296,-1356L-278,-1365L-275,-1369L-262,-1388L-255,-1401L-244,-1428L-239,-1430L-226,-1434L-217,-1438L-211,-1443L-208,-1447L-209,-1451L-211,-1456L-210,-1462L-202,-1468L-189,-1485L-180,-1493L-178,-1493L-169,-1498L-161,-1503L-163,-1508L-167,-1510L-168,-1514L-163,-1533L-163,-1537L-167,-1551L-164,-1558L-158,-1563L-152,-1567L-131,-1576L-119,-1579L-115,-1585L-114,-1589L-116,-1592L-120,-1596L-135,-1602L-147,-1602L-153,-1605L-155,-1607L-156,-1613L-154,-1623L-156,-1624L-158,-1623L-165,-1625L-173,-1625L-176,-1628L-174,-1631L-174,-1636L-180,-1643L-186,-1647L-190,-1651L-193,-1658L-185,-1668L-183,-1677L-184,-1679L-191,-1686L-193,-1688L-192,-1692L-191,-1697L-186,-1700L-177,-1703L-175,-1707L-175,-1710L-177,-1711L-183,-1711L-193,-1713L-195,-1717L-195,-1719L-190,-1725L-191,-1728L-193,-1732L-200,-1734L-201,-1738L-190,-1757L-169,-1764L-139,-1757L-130,-1755L-115,-1754L-111,-1751L-100,-1747L-91,-1744L-84,-1744L-75,-1748L-64,-1755L-56,-1755L-38,-1761L-30,-1759L-24,-1762L-18,-1770L-11,-1773L-5,-1776L-2,-1785L44,-1811L50,-1807L57,-1810L59,-1807L57,-1798L57,-1794L60,-1786L72,-1752L75,-1749L96,-1742L101,-1738L112,-1731L114,-1727L111,-1719L100,-1712L98,-1707L102,-1693L103,-1671L111,-1660L121,-1652L123,-1648L121,-1638L127,-1632L127,-1623L128,-1615L127,-1606L127,-1601L122,-1599L118,-1593L113,-1592L109,-1591L100,-1599L98,-1605L95,-1608L91,-1607L77,-1606L76,-1605L79,-1594L80,-1587L82,-1582L97,-1563L94,-1553Z " data-iso="IND"/><path d="M161,65L160,64L152,61L154,64L163,71L161,65Z M168,24L164,20L162,16L159,18L164,25L168,24Z M169,11L167,16L169,19L173,22L188,25L197,30L200,35L193,36L188,34L184,30L176,28L178,36L178,46L177,54L175,62L165,76L165,80L166,87L166,91L159,111L158,119L156,137L155,139L152,137L152,120L150,128L149,136L153,155L155,170L160,225L166,242L170,258L177,273L189,283L205,288L221,286L239,278L263,269L268,267L286,253L292,247L296,240L299,230L302,219L303,211L303,192L300,182L298,179L293,167L289,163L288,156L272,132L271,130L271,125L267,110L265,107L257,104L256,97L255,93L242,74L236,71L233,63L220,43L197,23L188,12L183,11L169,11Z " data-iso="LKA"/></g><g fill="red" fill-opacity="0.35" id="regions"><path d="M237,177L234,179L233,178L229,179L227,181L225,181L222,179L220,180L220,183L219,185L216,184L211,182L210,180L209,180L208,182L203,183L203,187L201,187L200,187L201,189L207,195L208,199L202,204L203,209L203,210L205,210L208,215L210,216L212,212L209,208L210,207L218,205L223,200L224,198L224,193L227,196L229,198L235,198L237,199L238,198L242,196L242,193L240,188L240,177L237,177Z " data-fips="CE29" data-fips-="CE10" data-iso3="LKA" data-name="Kandy"/><path d="M236,161L233,161L227,164L225,164L224,157L224,155L226,155L228,146L230,143L227,142L225,143L224,140L224,140L222,140L218,143L217,143L215,148L212,151L207,153L205,154L205,155L208,160L209,167L211,168L210,179L210,180L211,182L216,184L219,185L220,183L220,180L222,179L225,181L227,181L229,179L233,178L234,179L237,177L240,177L239,172L240,168L241,165L241,163L240,162L240,161L236,161Z " data-fips="CE29" data-fips-="CE14" data-iso3="LKA" data-name="Matale"/><path d="M235,198L229,198L227,196L224,193L224,198L223,200L218,205L210,207L209,208L212,212L210,216L208,215L205,210L203,210L203,211L202,219L204,220L206,224L205,224L205,226L205,227L206,228L216,230L223,229L227,227L229,227L229,223L228,220L225,219L229,216L234,213L237,200L237,199L235,198Z " data-fips="CE29" data-fips-="CE17" data-iso3="LKA" data-name="Nuwara Eliya"/><path d="M258,159L258,161L257,165L250,163L248,161L241,161L240,161L240,162L241,163L241,165L240,168L240,168L241,169L242,173L244,176L252,172L255,172L256,176L255,179L255,186L260,191L260,192L261,194L264,194L264,188L268,186L268,183L273,180L276,190L277,191L280,197L277,199L276,201L278,205L285,208L286,216L284,242L286,245L288,245L289,247L292,247L296,240L296,236L300,229L301,225L304,214L304,211L303,206L304,189L302,183L300,178L298,183L297,179L296,179L296,179L291,181L288,183L288,182L287,175L285,176L281,176L276,175L273,173L273,166L267,164L264,160L260,160L258,159Z " data-fips="CE31" data-fips-="CE01" data-iso3="LKA" data-name="Ampara"/><path d="M299,177L298,169L292,159L293,165L297,171L297,176L298,178L299,177Z M263,122L263,126L263,137L265,145L260,145L258,146L257,154L258,159L260,160L264,160L267,164L273,166L273,173L276,175L281,176L285,176L287,175L288,182L288,183L291,181L296,179L296,179L295,176L296,172L294,168L292,167L291,166L288,162L283,160L284,158L287,159L290,162L292,161L283,151L282,147L283,147L281,144L281,141L278,141L275,136L274,133L272,134L271,133L269,127L271,133L273,131L272,128L270,122L264,122L263,122Z " data-fips="CE31" data-fips-="CE04" data-iso3="LKA" data-name="Batticaloa"/><path d="M262,122L259,125L257,129L256,128L255,125L250,122L244,121L241,121L240,119L237,116L235,117L235,117L233,121L227,121L224,130L224,135L225,136L224,138L224,140L224,140L225,143L227,142L230,143L228,146L226,155L224,155L224,157L225,164L227,164L233,161L236,161L240,161L241,161L248,161L250,163L257,165L258,161L258,159L257,154L258,146L260,145L265,145L263,137L263,126L263,122L262,122Z " data-fips="CE31" data-fips-="CE18" data-iso3="LKA" data-name="Polonnaruwa"/><path d="M270,121L269,116L267,116L267,112L268,113L265,104L261,105L262,106L258,107L256,107L256,100L257,102L259,102L258,100L255,97L257,94L255,91L253,91L252,87L249,83L247,80L244,77L242,74L239,70L237,74L235,71L235,70L232,71L230,72L227,72L224,74L224,75L223,76L225,75L229,76L235,81L233,84L233,87L235,92L233,94L240,107L237,111L235,117L237,116L240,119L241,121L244,121L250,122L255,125L256,128L257,129L259,125L262,122L263,122L264,122L270,122L270,121Z " data-fips="CE31" data-fips-="CE21" data-iso3="LKA" data-name="Trincomalee"/><path d="M237,111L240,107L233,94L235,92L233,87L233,84L235,81L229,76L225,75L223,76L221,76L217,78L212,78L215,82L216,84L211,90L207,93L200,92L198,96L196,99L194,102L191,100L187,96L187,94L187,92L180,94L176,94L173,92L174,97L174,103L173,103L172,103L173,106L171,109L167,114L168,116L170,123L176,126L177,127L179,127L193,133L197,137L199,137L201,144L202,144L204,152L205,154L207,153L212,151L215,148L217,143L218,143L222,140L224,140L224,138L225,136L224,135L224,130L227,121L233,121L235,117L235,117L237,111Z " data-fips="CE30" data-fips-="CE02" data-iso3="LKA" data-name="Anuradhapura"/><path d="M226,69L222,66L216,63L216,61L211,60L207,63L204,61L199,61L200,63L201,66L197,70L194,72L196,73L198,77L198,80L194,81L187,81L185,83L184,85L183,85L184,88L187,92L187,94L187,96L191,100L194,102L196,99L198,96L200,92L207,93L211,90L216,84L215,82L212,78L217,78L221,76L223,76L224,75L224,74L226,69Z " data-fips="CE30" data-fips-="CE28" data-iso3="LKA" data-name="Vavuniya"/><path d="M162,65L156,62L153,61L149,62L156,65L162,71L163,70L160,66L164,67L162,65Z M182,53L181,54L178,54L178,54L178,55L175,64L173,68L164,73L165,76L166,88L166,95L164,99L164,100L169,101L170,102L172,103L173,103L174,103L174,97L173,92L176,94L180,94L187,92L184,88L183,85L184,85L185,83L187,81L194,81L198,80L198,77L196,73L194,72L182,73L184,66L185,65L185,59L184,54L184,52L182,53Z " data-fips="CE31" data-fips-="CE26" data-iso3="LKA" data-name="Mannar"/><path d="M235,70L233,67L238,69L238,68L234,62L232,60L229,59L229,58L232,59L228,49L226,51L222,47L227,48L223,43L214,36L214,37L214,37L213,37L212,43L208,40L207,44L205,44L200,44L198,47L193,47L187,48L185,50L185,52L184,52L184,54L185,59L185,65L184,66L182,73L194,72L197,70L201,66L200,63L199,61L204,61L207,63L211,60L216,61L216,63L222,66L226,69L224,74L227,72L230,72L232,71L235,70L235,70Z " data-fips="CE31" data-fips-="CE27" data-iso3="LKA" data-name="Mullaitivu"/><path d="M150,34L151,33L147,31L146,33L150,34Z M163,20L162,14L160,15L159,19L161,22L164,25L165,22L163,20Z M188,25L190,22L191,20L186,15L179,13L178,10L175,10L169,10L165,13L166,19L170,21L178,25L184,26L182,22L185,23L188,25Z M201,28L202,30L202,31L203,31L205,32L206,33L209,34L214,37L214,37L214,37L214,36L203,27L199,25L190,14L188,10L186,10L180,11L180,12L188,15L193,21L201,28L201,28Z " data-fips="CE31" data-fips-="CE25" data-iso3="LKA" data-name="Jaffna"/><path d="M178,54L178,54L181,54L182,53L184,52L185,52L185,50L187,48L193,47L198,47L200,44L205,44L207,44L208,40L212,43L213,37L214,37L214,37L210,36L206,34L200,33L194,36L190,37L190,34L187,31L183,30L174,26L175,28L181,32L184,35L182,36L180,38L174,41L175,45L178,48L178,52L178,54Z M196,25L194,24L191,20L190,22L188,25L189,25L191,27L196,31L201,31L202,31L202,30L201,28L196,25Z " data-fips="CE31" data-fips-="" data-iso3="LKA" data-name="Kilinochchi"/><path d="M204,152L202,144L201,144L199,137L197,137L193,133L179,127L177,127L177,128L179,135L181,136L179,145L175,147L175,149L171,152L170,159L167,161L163,169L163,174L165,188L166,193L167,192L170,190L174,191L179,189L182,193L184,194L185,193L190,190L193,189L195,185L199,185L200,187L201,187L203,187L203,183L208,182L209,180L210,180L210,179L211,168L209,167L208,160L205,155L205,154L204,152Z " data-fips="CE32" data-fips-="CE02" data-iso3="LKA" data-name="Kurunegala"/><path d="M170,102L169,101L164,100L163,100L161,104L159,109L158,116L156,123L158,131L155,135L158,140L156,142L153,141L151,140L152,137L151,135L151,133L152,126L153,122L152,120L148,125L149,132L148,134L150,142L153,150L155,159L155,162L156,165L155,170L158,193L162,192L163,193L164,192L166,193L165,188L163,174L163,169L167,161L170,159L171,152L175,149L175,147L179,145L181,136L179,135L177,128L177,127L176,126L170,123L168,116L167,114L171,109L173,106L172,103L170,102Z " data-fips="CE32" data-fips-="CE19" data-iso3="LKA" data-name="Puttalam"/><path d="M204,224L199,223L195,224L186,218L185,218L184,219L182,222L184,224L183,226L183,227L185,234L187,236L188,239L191,241L194,249L197,253L198,254L201,256L203,257L204,257L205,258L206,257L213,256L214,259L216,259L217,261L217,262L222,263L227,265L231,265L233,266L237,266L237,264L235,263L235,261L230,255L230,247L231,245L235,237L236,235L235,235L231,237L230,236L228,233L230,232L228,230L227,227L223,229L216,230L206,228L205,227L205,226L205,224L204,224Z " data-fips="CE33" data-fips-="CE20" data-iso3="LKA" data-name="Ratnapura"/><path d="M194,254L191,258L191,261L187,257L183,258L179,258L176,255L168,252L169,256L171,258L172,265L176,273L183,281L184,282L197,287L197,287L197,285L200,282L201,277L197,273L198,269L201,267L200,265L197,261L198,260L202,263L204,263L205,261L204,258L205,258L204,257L203,257L201,256L198,254L197,253L194,254Z " data-fips="CE34" data-fips-="CE06" data-iso3="LKA" data-name="Galle"/><path d="M284,242L283,244L281,244L275,250L274,254L272,254L259,259L254,255L251,256L251,254L246,254L242,256L242,259L237,262L235,263L237,264L237,266L233,266L231,265L227,265L222,263L217,262L217,262L217,265L214,267L213,270L218,277L219,279L217,281L222,286L222,286L227,281L231,281L242,277L249,275L264,269L267,268L280,257L287,253L290,251L292,247L289,247L288,245L286,245L284,242Z " data-fips="CE34" data-fips-="CE07" data-iso3="LKA" data-name="Hambantota"/><path d="M217,261L216,259L214,259L213,256L206,257L205,258L204,258L205,261L204,263L202,263L198,260L197,261L200,265L201,267L198,269L197,273L201,277L200,282L197,285L197,287L199,287L201,286L203,288L208,288L212,289L218,287L221,287L222,286L217,281L219,279L218,277L213,270L214,267L217,265L217,262L217,262L217,261Z " data-fips="CE34" data-fips-="CE15" data-iso3="LKA" data-name="Matara"/><path d="M260,191L255,186L255,179L256,176L255,172L252,172L244,176L242,173L241,169L240,168L240,168L239,172L240,177L240,188L242,193L242,196L238,198L237,199L237,200L234,213L229,216L225,219L228,220L229,223L229,227L227,227L228,230L230,232L228,233L230,236L231,237L235,235L236,235L237,235L241,243L243,243L247,240L246,239L246,235L247,233L245,230L246,226L248,226L251,224L249,222L255,218L255,218L258,214L258,212L256,205L253,206L250,202L252,199L253,200L257,193L260,192L260,191Z " data-fips="CE35" data-fips-="CE03" data-iso3="LKA" data-name="Badulla"/><path d="M286,216L285,208L278,205L276,201L277,199L280,197L277,191L276,190L273,180L268,183L268,186L264,188L264,194L261,194L260,192L257,193L253,200L252,199L250,202L253,206L256,205L258,212L258,214L255,218L255,218L249,222L251,224L248,226L246,226L245,230L247,233L246,235L246,239L247,240L243,243L241,243L237,235L236,235L235,237L231,245L230,247L230,255L235,261L235,263L237,262L242,259L242,256L246,254L251,254L251,256L254,255L259,259L272,254L274,254L275,250L281,244L283,244L284,242L286,216Z " data-fips="CE35" data-fips-="CE16" data-iso3="LKA" data-name="Moneragala"/><path d="M199,185L195,185L193,189L190,190L185,193L184,194L184,195L183,198L180,201L181,203L185,203L182,207L182,209L183,213L183,214L184,214L185,215L185,218L185,218L186,218L195,224L199,223L204,224L205,224L206,224L204,220L202,219L203,211L203,210L203,209L202,204L208,199L207,195L201,189L200,187L199,185Z " data-fips="CE33" data-fips-="CE11" data-iso3="LKA" data-name="Kegalle"/><path d="M183,214L181,214L178,215L176,219L175,219L170,216L168,217L159,215L159,215L159,220L160,226L163,233L162,228L166,230L169,229L172,227L176,226L177,228L178,226L180,225L183,226L184,224L182,222L184,219L185,218L185,218L185,215L184,214L183,214Z " data-fips="CE36" data-fips-="CE23" data-iso3="LKA" data-name="Colombo"/><path d="M182,193L179,189L174,191L170,190L167,192L166,193L164,192L163,193L162,192L158,193L158,196L158,198L160,203L159,203L157,199L160,213L159,215L168,217L170,216L175,219L176,219L178,215L181,214L183,214L183,213L182,209L182,207L185,203L181,203L180,201L183,198L184,195L184,194L182,193Z " data-fips="CE36" data-fips-="CE24" data-iso3="LKA" data-name="Gampaha"/><path d="M183,226L180,225L178,226L177,228L176,226L172,227L169,229L166,230L162,228L163,233L168,246L168,250L167,250L168,251L168,252L176,255L179,258L183,258L187,257L191,261L191,258L194,254L197,253L194,249L191,241L188,239L187,236L185,234L183,227L183,226Z " data-fips="CE36" data-fips-="CE09" data-iso3="LKA" data-name="Kalutara"/></g></svg>