<?xml version="1.0" encoding="UTF-8"?><!DOCTYPE svg  PUBLIC '-//W3C//DTD SVG 1.1//EN'  'http://www.w3.org/Graphics/SVG/1.1/DTD/svg11.dtd'><svg enable_background="new 0 0 450 301" height="301px" style="stroke-linejoin: round; stroke:#000; fill:#f6f3f0;" version="1.1" viewBox="0 0 450 301" width="450px" xmlns="http://www.w3.org/2000/svg" xmlns:xlink="http://www.w3.org/1999/xlink"><defs><style type="text/css"><![CDATA[path { fill-rule: evenodd; }
#context path { fill: #eee; stroke: #bbb; } ]]></style></defs><metadata><views><view h="301.0" padding="0.06" w="450"><proj id="laea" lat0="-29.1553776995" lon0="27.9207491955"/><bbox h="28.88" w="29.29" x="988.58" y="991.24"/><llbbox lat0="-90" lat1="90" lon0="-180" lon1="180"/></view></views></metadata><g id="context"><path d="M282,212L300,204L314,195L322,189L327,161L333,155L339,151L344,144L351,128L355,113L355,106L353,100L350,93L346,83L341,82L332,76L307,56L296,43L292,40L281,31L277,26L274,20L271,18L266,19L253,22L227,33L210,43L196,55L182,59L171,63L148,101L144,106L140,110L136,117L129,129L122,137L100,148L96,151L95,156L104,178L116,201L129,219L129,230L133,239L144,245L151,251L155,258L164,268L173,275L202,281L207,279L211,273L215,266L216,256L220,251L235,227L244,218L249,217L256,215L264,215L282,212Z " data-iso="LSO"/><path d="M0,0L0,299L450,299L450,0L0,0Z M182,59L196,55L210,43L227,33L253,22L266,19L271,18L274,20L277,26L281,31L292,40L296,43L307,56L332,76L341,82L346,83L350,93L353,100L355,106L355,113L351,128L344,144L339,151L333,155L327,161L322,189L314,195L300,204L282,212L264,215L256,215L249,217L244,218L235,227L220,251L216,256L215,266L211,273L207,279L202,281L173,275L164,268L155,258L151,251L144,245L133,239L129,230L129,219L116,201L104,178L95,156L96,151L100,148L122,137L129,129L136,117L140,110L144,106L148,101L171,63L182,59Z " data-iso="ZAF"/></g><g fill="red" fill-opacity="0.35" id="regions"><path d="M160,83L157,88L151,96L147,99L148,103L147,105L146,105L149,112L154,112L157,109L163,112L170,113L173,109L177,109L188,114L192,113L203,107L203,110L203,117L205,119L215,110L220,108L223,113L224,112L226,109L231,105L232,101L229,92L228,90L230,86L226,85L221,78L220,77L213,75L210,69L207,67L201,63L198,65L198,67L194,71L191,76L189,78L187,77L181,75L177,78L174,79L168,82L164,81L160,83L160,83Z " data-fips="LT10" data-fips-="" data-iso3="LSO" data-name="Berea" data-p="D"/><path d="M141,107L139,109L139,112L134,123L128,133L124,135L123,137L123,137L129,139L130,143L133,148L136,151L138,156L142,157L147,153L149,153L149,156L151,159L159,161L164,169L162,176L163,176L173,175L177,175L179,176L194,179L200,182L205,183L208,186L209,186L210,189L213,188L215,186L215,183L214,182L219,181L217,175L218,173L212,173L211,167L209,164L207,163L210,161L216,161L221,162L219,155L219,153L216,136L212,130L212,125L214,120L217,119L223,113L220,108L215,110L205,119L203,117L203,110L203,107L192,113L188,114L177,109L173,109L170,113L163,112L157,109L154,112L149,112L146,105L141,107Z " data-fips="LT14" data-fips-="" data-iso3="LSO" data-name="Maseru" data-p="A"/><path d="M260,170L257,173L256,174L251,175L243,179L241,178L238,179L238,183L234,184L232,185L234,189L235,191L233,194L228,189L225,187L219,187L215,186L213,188L210,189L209,186L207,188L207,191L202,189L199,188L194,188L190,184L189,186L187,191L184,187L182,186L181,193L178,193L174,190L172,192L171,194L164,195L159,190L154,190L152,188L148,196L139,204L133,199L131,197L130,190L131,187L133,181L131,180L124,182L122,182L118,184L109,189L112,196L114,199L119,203L121,206L123,213L124,216L131,216L130,220L128,226L128,230L131,236L130,238L136,239L138,238L144,246L149,247L149,249L152,249L155,244L159,243L166,246L170,244L171,241L171,239L169,234L170,231L172,233L178,234L182,230L189,224L190,220L189,217L189,214L191,209L194,207L201,206L207,208L213,206L214,205L216,202L218,202L223,202L227,201L230,199L230,198L234,197L238,198L241,202L242,202L250,197L255,191L259,190L262,187L261,181L262,173L260,170Z " data-fips="LT15" data-fips-="" data-iso3="LSO" data-name="Mohale's Hoek" data-p="F"/><path d="M230,199L227,201L223,202L218,202L216,202L214,205L213,206L207,208L201,206L194,207L191,209L189,214L189,217L190,220L189,224L182,230L178,234L172,233L170,231L169,234L171,239L171,241L170,244L166,246L159,243L155,244L152,249L149,249L149,250L152,253L155,257L156,261L163,266L169,273L172,275L176,276L185,276L193,280L206,282L209,280L209,274L214,269L216,263L215,255L224,248L227,244L226,241L222,237L222,235L224,233L229,231L233,230L238,224L240,221L238,218L226,216L223,211L225,207L231,204L231,202L230,199Z " data-fips="LT18" data-fips-="LT15" data-iso3="LSO" data-name="Quthing" data-p="G"/><path d="M225,33L228,35L229,41L230,46L238,46L249,54L255,56L257,66L254,74L256,79L257,80L263,75L267,77L274,77L278,74L280,65L283,60L286,58L289,57L292,56L293,53L2w2,51L292,48L293,41L293,40L289,39L286,33L284,31L279,31L278,30L277,24L274,18L272,16L270,16L264,21L261,21L243,23L241,25L238,31L234,33L231,34L226,33L225,33Z " data-fips="LT11" data-fips-="" data-iso3="LSO" data-name="Butha-Buthe" data-p="B"/><path d="M219,33L212,42L207,47L201,56L198,56L194,52L192,52L188,59L185,60L173,61L169,64L168,69L167,70L165,73L161,77L163,79L159,80L160,83L164,81L168,82L174,79L177,78L181,75L187,77L189,78L191,76L194,71L198,67L198,65L201,63L207,67L210,69L213,75L220,77L221,78L226,85L230,86L231,85L238,86L240,93L243,102L246,108L247,109L252,110L264,115L270,114L263,105L263,104L264,102L265,96L274,91L283,82L286,76L287,63L288,60L289,57L286,58L283,60L280,65L278,74L274,77L267,77L263,75L257,80L256,79L254,74L257,66L255,56L249,54L238,46L230,46L229,41L228,35L225,33L219,33Z " data-fips="LT12" data-fips-="LT11" data-iso3="LSO" data-name="Leribe" data-p="C"/><path d="M293,41L292,48L292,51L293,53L292,56L289,57L288,60L287,63L286,76L283,82L274,91L265,96L264,102L263,104L268,103L271,101L278,95L279,95L280,101L276,111L279,114L281,116L284,115L288,115L290,119L290,127L287,132L288,134L300,136L310,135L312,134L317,135L323,138L326,143L330,145L332,143L337,141L339,139L342,139L342,136L343,134L349,130L352,129L357,126L358,120L360,118L358,109L357,106L354,102L352,95L347,91L347,83L344,82L339,82L335,80L326,71L320,68L317,62L310,60L304,53L300,45L295,41L293,41Z " data-fips="LT16" data-fips-="" data-iso3="LSO" data-name="Mokhotlong" data-p="J"/><path d="M260,170L262,173L261,181L262,187L259,190L255,191L250,197L242,202L241,202L238,198L234,197L230,198L230,199L231,202L231,204L225,207L223,211L226,216L238,218L240,221L241,219L245,217L251,218L254,217L258,214L260,213L267,216L271,216L281,212L288,210L295,207L308,199L323,191L326,190L328,188L326,184L326,180L323,177L324,171L324,168L320,168L316,166L312,167L311,175L308,180L303,182L299,181L293,176L288,175L286,180L283,180L278,183L276,182L276,177L274,174L267,170L262,169L260,170Z " data-fips="LT17" data-fips-="" data-iso3="LSO" data-name="Qacha's Nek" data-p="H"/><path d="M230,86L228,90L229,92L232,101L231,105L226,109L224,112L223,113L217,119L214,120L212,125L212,130L216,136L219,153L219,155L221,162L223,162L226,165L223,168L225,171L228,181L231,183L232,185L234,184L238,183L238,179L241,178L243,179L251,175L256,174L257,173L260,170L262,169L267,170L274,174L276,177L276,182L278,183L283,180L286,180L288,175L293,176L299,181L303,182L308,180L311,175L312,167L316,166L320,168L324,168L324,167L329,157L333,154L341,152L343,146L344,145L343,143L342,140L342,139L339,139L337,141L332,143L330,145L326,143L323,138L317,135L312,134L310,135L300,136L288,134L287,132L290,127L290,119L288,115L284,115L281,116L279,114L276,111L280,101L279,95L278,95L271,101L268,103L263,104L263,105L270,114L264,115L252,110L247,109L246,108L243,102L240,93L238,86L231,85L230,86Z " data-fips="LT19" data-fips-="" data-iso3="LSO" data-name="Thaba-Tseka" data-p="K"/><path d="M215,186L219,187L225,187L228,189L233,194L235,191L234,189L232,185L231,183L228,181L225,171L223,168L226,165L223,162L221,162L216,161L210,161L207,163L209,164L211,167L212,173L218,173L217,175L219,181L214,182L215,183L215,186Z M122,138L116,141L110,143L107,144L103,145L99,149L97,148L91,151L90,156L95,160L99,167L109,189L118,184L122,182L124,182L131,180L133,181L131,187L130,190L131,197L133,199L139,204L148,196L152,188L154,190L159,190L164,195L171,194L172,192L174,190L178,193L181,193L182,186L184,187L187,191L189,186L190,184L194,188L199,188L202,189L207,191L207,188L209,186L208,186L205,183L200,182L194,179L179,176L177,175L173,175L163,176L162,176L164,169L159,161L151,159L149,156L149,153L147,153L142,157L138,156L136,151L133,148L130,143L129,139L123,137L122,138Z " data-fips="LT13" data-fips-="" data-iso3="LSO" data-name="Mafeteng" data-p="E"/></g></svg>