<?xml version="1.0" encoding="UTF-8"?><!DOCTYPE svg  PUBLIC '-//W3C//DTD SVG 1.1//EN'  'http://www.w3.org/Graphics/SVG/1.1/DTD/svg11.dtd'><svg enable_background="new 0 0 450 301" height="301px" style="stroke-linejoin: round; stroke:#000; fill:#f6f3f0;" version="1.1" viewBox="0 0 450 301" width="450px" xmlns="http://www.w3.org/2000/svg" xmlns:xlink="http://www.w3.org/1999/xlink"><defs><style type="text/css"><![CDATA[path { fill-rule: evenodd; }
#context path { fill: #eee; stroke: #bbb; } ]]></style></defs><metadata><views><view h="301.0" padding="0.06" w="450"><proj id="laea" lat0="55.7065871242" lon0="21.4408618691"/><bbox h="36.68" w="46.22" x="993.9" y="987.86"/><llbbox lat0="-90" lat1="90" lon0="-180" lon1="180"/></view></views></metadata><g id="context"><path d="M378,92L379,97L378,104L376,114L373,125L375,128L386,128L391,129L392,131L385,138L383,146L365,146L363,148L361,156L359,160L355,165L348,167L342,170L338,179L335,191L336,206L334,209L331,217L327,230L328,232L331,232L336,234L339,237L340,247L336,249L330,249L325,246L327,242L325,237L322,234L317,239L312,239L306,243L303,249L299,252L288,251L286,254L284,266L283,269L274,268L266,274L257,278L252,275L249,272L238,275L230,275L222,277L212,277L207,275L213,299L450,299L450,43L448,45L438,59L435,63L433,74L418,75L403,74L398,76L391,87L388,89L380,91L378,92Z " data-iso="BLR"/><path d="M55,141L59,142L63,135L67,121L68,108L66,111L65,122L62,130L55,141Z M65,67L65,88L71,108L75,124L73,135L75,143L75,143L83,142L87,146L93,150L100,154L111,160L123,163L127,164L139,163L151,164L155,172L161,177L166,182L167,186L160,206L159,213L159,220L162,229L164,234L167,230L171,230L176,233L180,239L188,241L195,245L200,249L205,255L207,261L207,273L207,275L212,277L222,277L230,275L238,275L249,272L252,275L257,278L266,274L274,268L283,269L284,266L286,254L288,251L299,252L303,249L306,243L312,239L317,239L322,234L325,237L327,242L325,246L330,249L336,249L340,247L339,237L336,234L331,232L328,232L327,230L331,217L334,209L336,206L335,191L338,179L342,170L348,167L355,165L359,160L361,156L363,148L365,146L383,146L385,138L392,131L391,129L386,128L375,128L373,125L376,114L378,104L379,97L378,92L376,92L367,89L360,85L356,79L348,71L343,67L336,62L323,52L319,49L297,46L289,44L282,32L279,25L276,23L268,27L259,36L256,37L250,38L236,40L230,37L219,34L207,34L184,31L180,35L176,36L171,30L166,29L161,31L150,31L138,30L122,28L120,29L103,37L98,38L79,51L64,62L65,67Z " data-iso="LTU"/><path d="M64,62L79,51L98,38L103,37L120,29L122,28L138,30L150,31L161,31L166,29L171,30L176,36L180,35L184,31L207,34L219,34L230,37L236,40L250,38L256,37L259,36L268,27L276,23L279,25L282,32L289,44L297,46L319,49L323,52L336,62L343,67L348,71L356,79L360,85L367,89L376,92L378,92L380,91L388,89L391,87L398,76L403,74L418,75L433,74L435,63L438,59L448,45L450,43L450,0L64,0L64,5L63,43L64,62Z " data-iso="LVA"/><path d="M207,275L207,273L207,261L205,255L200,249L195,245L188,241L180,239L176,233L171,230L167,230L164,234L162,235L129,234L98,233L69,231L41,229L14,228L0,226L0,299L213,299L207,275Z " data-iso="POL"/><path d="M164,234L162,229L159,220L159,213L160,206L167,186L166,182L161,177L155,172L151,164L139,163L127,164L123,163L111,160L100,154L93,150L87,146L83,142L75,143L74,159L72,177L61,180L54,179L48,175L42,174L38,172L53,151L59,142L55,141L52,147L43,159L33,170L26,175L9,174L2,177L0,188L0,226L14,228L41,229L69,231L98,233L129,234L162,235L164,234Z " data-iso="RUS"/></g><g fill="red" fill-opacity="0.35" id="regions"><path d="M61,141L63,137L67,127L66,126L68,121L68,117L69,113L69,104L68,100L66,97L67,100L66,120L64,128L61,134L57,141L61,142L61,141Z M100,38L95,38L93,40L85,46L80,47L75,53L72,61L65,62L65,74L64,78L64,82L66,95L69,101L70,105L72,111L73,116L74,118L75,126L75,128L72,135L72,136L76,133L76,135L78,140L76,145L81,141L83,141L84,143L88,149L90,150L96,151L98,152L104,157L108,158L111,160L116,162L119,160L120,165L121,166L127,164L133,163L134,163L134,160L136,155L130,154L126,153L123,151L121,146L113,142L113,141L120,133L120,129L114,126L112,126L111,121L109,119L109,115L108,113L111,112L111,110L111,109L108,107L106,104L105,100L104,94L103,94L97,94L97,92L96,88L93,90L91,89L96,80L95,79L94,70L98,68L100,62L106,59L108,57L111,57L115,49L117,48L112,35L116,31L100,38Z " data-fips="LH58" data-fips-="" data-iso3="LTU" data-name="Klaipedos"/><path d="M150,30L146,29L129,30L125,27L123,27L116,31L112,35L117,48L115,49L111,57L108,57L106,59L100,62L98,68L94,70L95,79L96,80L91,89L93,90L96,88L97,92L97,94L103,94L104,94L105,100L106,104L108,107L111,109L118,108L120,109L122,103L125,103L128,101L136,102L140,102L144,101L146,100L147,93L146,89L150,87L150,83L156,76L157,74L154,72L153,73L151,71L152,66L152,63L155,62L156,56L154,56L143,58L141,56L141,53L139,53L139,47L143,41L145,36L148,36L149,34L148,31L150,30L150,30Z " data-fips="LH63" data-fips-="" data-iso3="LTU" data-name="Teliai"/><path d="M222,221L219,220L215,218L210,222L209,227L205,229L200,233L198,239L198,246L199,247L205,253L206,255L208,264L208,267L206,271L208,274L215,278L220,277L228,276L232,273L237,275L248,272L251,274L253,277L258,278L263,277L269,271L272,269L276,268L279,269L284,269L285,268L286,264L284,256L285,254L286,252L287,251L282,243L288,237L291,228L294,226L294,220L291,220L287,222L284,225L281,224L279,225L270,223L269,224L262,223L260,217L260,215L260,212L255,213L251,211L241,213L236,213L236,217L232,219L230,221L222,222L222,221Z " data-fips="LH56" data-fips-="" data-iso3="LTU" data-name="Alytaus"/><path d="M217,115L213,118L212,120L208,120L208,118L209,115L205,113L203,116L198,115L194,112L191,113L180,112L176,117L168,121L160,119L157,120L155,122L156,124L158,126L160,129L164,131L164,134L167,138L168,140L172,137L176,139L176,143L185,141L187,142L195,144L197,146L201,145L203,147L202,149L202,155L200,157L200,161L201,161L204,163L208,163L209,166L201,170L200,173L203,173L205,179L210,178L211,179L214,187L215,191L217,201L213,205L217,207L216,210L222,214L222,220L222,221L222,222L230,221L232,219L236,217L236,213L241,213L251,211L255,213L260,212L260,211L264,205L263,198L264,196L268,193L271,193L271,190L273,185L274,183L277,181L281,176L278,173L267,168L267,166L270,161L270,158L269,157L267,154L264,154L260,147L262,144L257,141L257,138L256,136L256,130L256,127L255,125L254,124L247,122L245,120L237,122L236,123L235,119L232,115L228,115L225,110L224,110L217,115Z " data-fips="LH57" data-fips-="" data-iso3="LTU" data-name="Kauno"/><path d="M152,164L154,170L156,174L162,178L165,180L168,190L164,194L160,201L159,213L158,220L159,224L164,234L167,230L173,231L176,231L180,235L180,238L181,240L185,239L197,245L198,246L198,239L200,233L205,229L209,227L210,222L215,218L219,220L222,221L222,220L222,214L216,210L217,207L213,205L217,201L215,191L214,187L211,179L210,178L205,179L203,173L200,173L201,170L209,166L208,163L204,163L201,161L200,161L195,161L176,158L172,161L169,160L166,160L161,163L156,164L152,163L152,164Z " data-fips="LH59" data-fips-="" data-iso3="LTU" data-name="Marijampoles"/><path d="M335,62L329,56L324,52L322,48L319,48L315,47L311,48L292,46L290,44L283,32L281,26L277,20L267,27L265,29L260,35L254,40L245,36L239,40L237,41L238,47L239,50L234,58L233,62L231,63L231,68L234,71L234,77L227,83L232,91L233,96L232,103L227,105L225,109L224,110L225,110L228,115L232,115L235,119L236,123L237,122L245,120L247,122L254,124L255,125L256,127L258,126L260,125L262,123L263,118L265,117L267,114L268,113L269,111L271,104L268,99L272,99L270,93L274,94L285,91L289,91L293,95L302,92L304,90L309,86L311,89L314,88L316,91L318,89L325,88L327,89L329,87L333,84L337,75L340,70L341,65L335,62Z " data-fips="LH60" data-fips-="" data-iso3="LTU" data-name="Panevezio"/><path d="M150,30L148,31L149,34L148,36L145,36L143,41L139,47L139,53L141,53L141,56L143,58L154,56L156,56L155,62L152,63L152,66L151,71L153,73L154,72L157,74L156,76L150,83L150,87L146,89L147,93L146,100L144,101L144,102L146,108L148,110L154,117L153,119L154,121L155,122L157,120L160,119L168,121L176,117L180,112L191,113L194,112L198,115L203,116L205,113L209,115L208,118L208,120L212,120L213,118L217,115L224,110L225,109L227,105L232,103L233,96L232,91L227,83L234,77L234,71L231,68L231,63L233,62L234,58L239,50L238,47L237,41L237,41L228,35L221,33L214,34L214,33L207,32L202,35L200,35L189,31L183,32L180,37L177,38L174,36L171,28L167,28L163,30L156,34L151,31L150,30Z " data-fips="LH61" data-fips-="" data-iso3="LTU" data-name="iauliai"/><path d="M140,102L136,102L128,101L125,103L122,103L120,109L118,108L111,109L111,110L111,112L108,113L109,115L109,119L111,121L112,126L114,126L120,129L120,133L113,141L113,142L121,146L123,151L126,153L130,154L136,155L134,160L134,163L144,164L150,162L151,163L152,163L156,164L161,163L166,160L169,160L172,161L176,158L195,161L200,161L200,157L202,155L202,149L203,147L201,145L197,146L195,144L187,142L185,141L176,143L176,139L172,137L168,140L167,138L164,134L164,131L160,129L158,126L156,124L155,122L154,121L153,119L154,117L148,110L146,108L144,102L144,101L140,102Z " data-fips="LH62" data-fips-="" data-iso3="LTU" data-name="Taurages"/><path d="M341,65L340,70L337,75L333,84L329,87L327,89L325,88L318,89L316,91L314,88L311,89L309,86L304,90L302,92L293,95L289,91L285,91L274,94L270,93L272,99L268,99L271,104L269,111L268,113L276,119L278,122L277,123L283,128L283,130L287,129L288,132L293,132L293,134L297,137L299,137L300,139L300,143L301,142L305,145L299,149L299,155L303,156L304,160L307,160L311,161L313,160L321,157L329,157L333,157L335,153L334,151L335,149L332,147L327,141L327,139L331,135L332,130L337,132L339,130L341,133L343,132L345,134L349,130L354,130L357,132L356,135L360,135L366,137L374,137L380,135L384,132L386,131L388,132L390,134L391,134L393,132L393,129L391,128L382,127L374,127L373,124L374,121L376,107L379,102L380,100L378,92L372,91L364,88L360,86L354,75L348,71L344,67L341,65Z " data-fips="LH64" data-fips-="LH60" data-iso3="LTU" data-name="Utenos"/><path d="M267,114L265,117L263,118L262,123L260,125L258,126L256,127L256,130L256,136L257,138L257,141L262,144L260,147L264,154L267,154L269,157L270,158L270,161L267,166L267,168L278,173L281,176L277,181L274,183L273,185L271,190L271,193L268,193L264,196L263,198L264,205L260,211L260,212L260,215L260,217L262,223L269,224L270,223L279,225L281,224L284,225L287,222L291,220L294,220L294,226L291,228L288,237L282,243L287,251L288,251L293,251L298,252L300,252L303,250L309,239L312,240L317,239L321,235L328,241L325,242L325,248L328,250L333,250L341,247L341,240L342,238L336,232L335,230L331,233L327,233L326,229L330,221L330,214L337,206L337,202L335,198L334,195L335,191L335,186L338,180L338,175L341,171L341,169L344,167L349,167L355,165L357,164L360,160L362,155L363,146L366,146L374,147L375,145L382,147L384,142L384,140L388,135L390,134L388,132L386,131L384,132L380,135L374,137L366,137L360,135L356,135L357,132L354,130L349,130L345,134L343,132L341,133L339,130L337,132L332,130L331,135L327,139L327,141L332,147L335,149L334,151L335,153L333,157L329,157L321,157L313,160L311,161L307,160L304,160L303,156L299,155L299,149L305,145L301,142L300,143L300,139L299,137L297,137L293,134L293,132L288,132L287,129L283,130L283,128L277,123L278,122L276,119L268,113L267,114Z " data-fips="LH65" data-fips-="LH64" data-iso3="LTU" data-name="Vilniaus"/></g></svg>