<?xml version="1.0" encoding="UTF-8"?><!DOCTYPE svg  PUBLIC '-//W3C//DTD SVG 1.1//EN'  'http://www.w3.org/Graphics/SVG/1.1/DTD/svg11.dtd'><svg enable_background="new 0 0 450 451" height="451px" style="stroke-linejoin: round; stroke:#000; fill:#f6f3f0;" version="1.1" viewBox="0 0 450 451" width="450px" xmlns="http://www.w3.org/2000/svg" xmlns:xlink="http://www.w3.org/1999/xlink"><defs><style type="text/css"><![CDATA[path { fill-rule: evenodd; }
#context path { fill: #eee; stroke: #bbb; } ]]></style></defs><metadata><views><view h="451" padding="0.06" w="450"><proj id="laea" lat0="49.9404662133" lon0="5.97310837364"/><bbox h="9.81" w="7.02" x="997.57" y="996.73"/><llbbox lat0="-90" lat1="90" lon0="-180" lon1="180"/></view></views></metadata><g id="context"><path d="M229,37L228,48L225,46L218,29L205,29L177,22L137,69L119,109L108,138L92,162L89,186L91,197L85,210L85,224L108,252L114,268L142,317L133,335L126,354L118,368L108,377L79,376L42,382L18,392L5,392L-22,367L-51,330L-70,312L-78,297L-101,290L-135,272L-157,252L-177,239L-205,233L-228,233L-234,200L-236,161L-254,136L-227,36L-242,26L-259,34L-283,58L-295,86L-303,111L-343,134L-408,141L-478,131L-487,124L-491,117L-491,108L-486,95L-473,79L-470,55L-482,35L-490,27L-486,7L-476,-17L-474,-31L-520,-74L-554,-83L-587,-86L-612,-91L-627,-90L-638,-78L-648,-69L-656,-80L-668,-155L-679,-167L-721,-181L-779,-187L-794,-202L-801,-236L-805,-276L-822,-316L-848,-344L-878,-338L-915,-317L-945,-309L-973,-333L-1004,-368L-1028,-406L-1033,-426L-1024,-451L-1033,-470L-1045,-505L-1048,-532L-889,-620L-794,-665L-749,-679L-741,-629L-733,-613L-723,-603L-709,-601L-693,-612L-670,-624L-634,-617L-608,-604L-600,-592L-583,-580L-557,-576L-508,-597L-460,-630L-446,-653L-440,-674L-413,-660L-389,-656L-378,-662L-384,-696L-364,-714L-342,-722L-332,-707L-312,-692L-296,-691L-253,-730L-243,-722L-234,-708L-231,-685L-221,-680L-187,-682L-170,-703L-156,-716L-146,-707L-142,-681L-133,-646L-93,-608L-59,-597L-16,-604L0,-610L11,-605L23,-584L47,-561L97,-545L113,-535L124,-520L121,-498L96,-443L93,-426L96,-421L91,-411L60,-374L57,-361L76,-322L76,-325L125,-341L147,-309L183,-308L187,-298L228,-268L241,-244L270,-221L246,-192L249,-179L258,-166L291,-158L308,-139L309,-110L317,-63L249,-15L229,37Z " data-iso="BEL"/><path d="M229,37L228,48L225,63L225,97L236,131L260,164L279,188L304,208L346,226L363,229L366,254L363,281L348,295L334,316L324,342L313,391L312,425L326,422L354,430L373,449L450,449L450,0L243,0L229,37Z " data-iso="DEU"/><path d="M312,425L287,411L274,402L252,399L230,407L213,424L190,430L171,424L159,411L149,405L121,396L108,377L79,376L42,382L18,392L5,392L0,388L0,449L373,449L354,430L326,422L312,425Z " data-iso="FRA"/><path d="M225,46L218,29L205,29L177,22L137,69L119,109L108,138L92,162L89,186L91,197L85,210L85,224L108,252L114,268L142,317L133,335L126,354L118,368L108,377L121,396L149,405L159,411L171,424L190,430L213,424L230,407L252,399L274,402L287,411L312,425L313,391L324,342L334,316L348,295L363,281L366,254L363,229L346,226L304,208L279,188L260,164L236,131L225,97L225,63L228,48L225,46Z " data-iso="LUX"/></g><g fill="red" fill-opacity="0.35" id="regions"><path d="M133,283L140,280L156,280L161,278L171,274L183,269L183,263L184,257L185,251L185,243L186,240L190,235L192,231L196,226L198,220L201,215L207,213L211,212L215,213L220,217L227,219L239,216L243,216L253,218L256,222L264,229L275,234L282,222L283,218L279,213L282,206L284,204L286,202L293,202L291,197L290,194L284,191L272,185L266,180L254,151L241,144L236,128L229,118L228,114L229,107L226,95L224,91L220,89L224,80L221,80L223,64L225,56L228,48L222,46L221,41L222,36L220,31L216,26L213,26L211,29L207,31L199,32L195,32L190,29L188,25L187,20L185,17L179,22L171,22L168,28L167,35L164,44L158,49L145,56L139,61L138,65L137,74L136,78L134,81L128,86L126,89L127,101L126,106L123,108L116,112L114,115L113,122L116,126L117,129L113,136L110,139L105,141L102,142L99,146L96,155L83,177L81,183L86,185L94,191L97,196L88,195L88,198L86,203L89,207L85,210L83,215L84,222L86,229L90,235L93,237L97,238L102,241L104,244L113,261L114,273L116,275L122,277L131,278L133,281L133,283Z " data-fips="LU01" data-fips-="" data-iso3="LUX" data-name="Diekirch" data-p="DI"/><path d="M293,202L286,202L284,204L282,206L279,213L283,218L282,222L275,234L281,241L286,246L281,259L276,259L273,259L269,262L266,265L249,291L277,292L282,293L287,297L290,300L293,315L300,327L292,333L290,337L295,343L296,346L295,349L288,351L286,352L274,364L271,368L272,376L276,395L278,405L295,417L305,423L312,419L311,402L314,379L314,361L316,354L337,322L338,320L338,316L333,312L333,310L364,283L362,280L365,277L368,278L365,275L363,271L363,266L366,256L365,253L365,249L368,232L365,229L354,225L336,226L330,224L324,220L313,210L307,206L304,206L298,209L296,209L295,207L293,202Z " data-fips="LU02" data-fips-="" data-iso3="LUX" data-name="Grevenmacher" data-p="GR"/><path d="M133,285L130,290L129,296L128,300L129,304L131,306L139,307L141,309L143,317L141,322L135,329L130,342L127,348L123,352L129,355L126,364L117,373L120,393L126,399L136,403L159,409L166,416L171,432L177,430L209,428L223,416L223,412L227,407L238,406L235,401L256,399L267,400L277,404L278,405L276,395L272,376L271,368L274,364L286,352L288,351L295,349L296,346L295,343L290,337L292,333L300,327L293,315L290,300L287,297L282,293L277,292L249,291L266,265L269,262L273,259L276,259L281,259L286,246L281,241L275,234L264,229L256,222L253,218L243,216L239,216L227,219L220,217L215,213L211,212L207,213L201,215L198,220L196,226L192,231L190,235L186,240L185,243L185,251L184,257L183,263L183,269L171,274L161,278L156,280L140,280L133,283L133,285Z " data-fips="LU03" data-fips-="" data-iso3="LUX" data-name="Luxembourg" data-p="LU"/></g></svg>