<?xml version="1.0" encoding="UTF-8"?><!DOCTYPE svg  PUBLIC '-//W3C//DTD SVG 1.1//EN'  'http://www.w3.org/Graphics/SVG/1.1/DTD/svg11.dtd'><svg enable_background="new 0 0 450 301" height="301px" style="stroke-linejoin: round; stroke:#000; fill:#f6f3f0;" version="1.1" viewBox="0 0 450 301" width="450px" xmlns="http://www.w3.org/2000/svg" xmlns:xlink="http://www.w3.org/1999/xlink"><defs><style type="text/css"><![CDATA[path { fill-rule: evenodd; }
#context path { fill: #eee; stroke: #bbb; } ]]></style></defs><metadata><views><view h="301.0" padding="0.06" w="450"><proj id="laea" lat0="56.8409494084" lon0="21.9545693224"/><bbox h="35.11" w="55.56" x="990.27" y="981.26"/><llbbox lat0="-90" lat1="90" lon0="-180" lon1="180"/></view></views></metadata><g id="context"><path d="M423,213L422,213L417,215L410,221L400,236L397,239L394,250L379,251L365,249L359,252L353,262L350,264L342,266L340,268L340,272L339,280L337,290L335,299L450,299L450,218L447,216L433,221L432,221L423,213Z " data-iso="BLR"/><path d="M78,0L80,5L79,8L74,13L75,17L83,22L87,26L91,28L89,32L80,44L81,50L85,50L89,47L93,38L95,27L101,21L107,20L120,20L121,17L128,12L133,6L135,6L140,0L78,0Z M205,54L207,54L212,50L228,42L235,39L246,33L252,39L254,39L255,34L258,35L271,44L279,46L283,51L293,53L296,58L306,70L311,76L320,81L324,82L339,75L343,73L347,72L351,75L359,79L367,79L368,79L368,77L370,65L374,59L376,51L387,46L387,42L382,37L380,29L375,17L371,9L369,4L370,0L171,0L174,6L187,11L192,15L199,12L204,3L207,2L214,5L215,10L212,15L211,30L205,50L205,54Z " data-iso="EST"/><path d="M29,299L31,294L31,281L30,285L28,295L27,299L29,299Z M340,268L337,267L329,265L322,260L318,255L310,246L305,242L298,237L285,227L281,225L260,221L252,219L244,207L242,200L238,199L231,202L222,211L219,212L213,213L199,215L193,212L182,209L171,209L148,206L143,210L139,210L135,205L130,203L124,205L114,205L102,204L86,202L84,203L66,211L62,212L43,224L28,236L29,241L29,261L35,281L38,297L38,299L335,299L337,290L339,280L340,272L340,268Z " data-iso="LTU"/><path d="M367,79L359,79L351,75L347,72L343,73L339,75L324,82L320,81L311,76L306,70L296,58L293,53L283,51L279,46L271,44L258,35L255,34L254,39L252,39L246,33L235,39L228,42L212,50L207,54L205,54L204,63L208,76L211,108L210,116L205,124L186,141L171,145L151,134L143,110L137,104L116,83L114,78L111,71L94,77L78,83L67,86L52,111L50,120L49,130L46,141L41,150L31,161L28,179L27,217L28,236L43,224L62,212L66,211L84,203L86,202L102,204L114,205L124,205L130,203L135,205L139,210L143,210L148,206L171,209L182,209L193,212L199,215L213,213L219,212L222,211L231,202L238,199L242,200L244,207L252,219L260,221L281,225L285,227L298,237L305,242L310,246L318,255L322,260L329,265L337,267L340,268L342,266L350,264L353,262L359,252L365,249L379,251L394,250L397,239L400,236L410,221L417,215L422,213L423,213L424,208L425,201L422,189L418,177L417,173L411,168L410,164L407,158L404,155L403,147L398,143L389,146L392,132L392,125L393,116L396,113L397,105L396,100L394,98L379,88L377,80L374,79L368,79L367,79Z " data-iso="LVA"/><path d="M368,79L374,79L377,80L379,88L394,98L396,100L397,105L396,113L393,116L392,125L392,132L389,146L398,143L403,147L404,155L407,158L410,164L411,168L417,173L418,177L422,189L425,201L424,208L423,213L432,221L433,221L447,216L450,218L450,0L370,0L369,4L371,9L375,17L380,29L382,37L387,42L387,46L376,51L374,59L370,65L368,77L368,79Z " data-iso="RUS"/></g><g fill="red" fill-opacity="0.35" id="regions"><path d="M107,141L102,140L101,133L94,126L92,125L92,127L92,130L91,132L82,132L78,133L74,133L72,135L70,135L70,133L62,132L56,136L54,136L51,148L48,149L48,150L51,152L54,153L51,156L54,157L55,159L59,159L62,164L64,164L67,167L72,178L69,182L70,184L70,188L72,191L79,192L79,193L81,193L84,192L82,188L88,186L88,174L90,173L91,167L90,164L93,164L100,158L100,157L96,154L98,151L99,151L103,155L105,153L106,151L106,149L106,149L107,145L109,142L107,141Z " data-fips="LG12" data-fips-="" data-iso3="LVA" data-name="Kurzeme"/><path d="M48,147L47,146L45,146L45,146L43,147L39,152L30,158L30,160L30,165L30,174L27,183L30,193L30,200L30,203L28,202L28,198L27,191L26,199L25,202L24,208L25,214L24,220L27,228L28,231L31,235L36,234L38,227L44,221L49,219L57,213L59,212L64,212L80,204L79,201L81,199L79,196L79,194L79,193L79,192L72,191L70,188L70,184L69,182L72,178L67,167L64,164L62,164L59,159L55,159L54,157L51,156L54,153L51,152L48,150L48,149L48,147Z " data-fips="LG13" data-fips-="LH63" data-iso3="LVA" data-name="Liepaja"/><path d="M92,124L92,122L97,116L98,114L96,104L94,102L85,101L96,92L96,88L92,81L92,77L81,83L79,84L69,85L65,88L59,99L55,104L51,112L50,118L49,136L49,139L46,144L45,146L45,146L47,146L48,147L48,149L51,148L54,136L56,136L62,132L70,133L70,135L72,135L74,133L78,133L82,132L91,132L92,130L92,127L92,125L92,124Z " data-fips="LG26" data-fips-="" data-iso3="LVA" data-name="Ventspils"/><path d="M388,95L386,99L383,101L381,105L377,104L373,105L370,103L366,107L361,110L360,110L359,113L351,124L350,127L346,132L346,133L346,135L346,136L349,136L349,139L353,145L351,149L351,150L353,152L358,153L363,151L365,153L368,153L373,153L374,149L378,146L384,144L390,146L389,146L389,142L392,133L394,126L393,123L390,122L390,118L395,115L397,111L397,103L394,98L389,95L388,95Z " data-fips="LG03" data-fips-="" data-iso3="LVA" data-name="Balvi"/><path d="M365,215L365,216L366,223L365,223L362,225L358,227L358,229L357,233L358,238L358,239L358,246L360,246L361,250L361,250L368,249L377,253L381,248L383,250L394,251L395,251L396,242L397,238L402,233L404,230L404,228L409,222L411,218L416,215L418,214L418,208L417,207L410,210L407,211L404,210L400,210L397,207L396,206L395,205L390,206L388,204L386,207L383,209L384,210L378,210L375,211L369,211L365,214L365,215Z " data-fips="LG11" data-fips-="" data-iso3="LVA" data-name="Kraslava"/><path d="M390,146L384,144L378,146L374,149L373,153L368,153L368,156L369,160L375,164L378,162L382,162L382,166L383,165L388,169L387,171L388,176L384,179L384,181L385,185L387,183L390,188L392,188L393,192L395,193L398,200L397,205L396,206L397,207L400,210L404,210L407,211L410,210L417,207L418,208L418,214L419,213L421,212L423,213L426,199L422,188L421,183L418,180L419,174L418,173L413,171L410,166L409,160L403,157L402,155L405,148L404,147L399,143L397,142L395,143L390,146L390,146Z " data-fips="LG15" data-fips-="" data-iso3="LVA" data-name="Ludza"/><path d="M365,153L363,151L358,153L353,152L351,150L350,152L343,163L345,173L341,176L342,178L344,178L346,180L347,181L344,183L346,184L352,185L354,185L352,192L358,200L355,202L358,207L359,210L364,215L365,215L365,214L369,211L375,211L378,210L384,210L383,209L386,207L388,204L390,206L395,205L396,206L397,205L398,200L395,193L393,192L392,188L390,188L387,183L385,185L384,181L384,179L388,176L387,171L388,169L383,165L382,166L382,162L378,162L375,164L369,160L368,156L368,153L365,153Z " data-fips="LG19" data-fips-="" data-iso3="LVA" data-name="Latgale"/><path d="M126,172L127,170L126,166L124,163L116,162L113,159L108,158L110,152L108,151L106,151L105,153L103,155L99,151L98,151L96,154L100,157L100,158L93,164L90,164L91,167L90,173L88,174L88,186L82,188L84,192L81,193L79,193L79,194L79,196L81,199L79,201L80,204L87,201L89,202L93,204L110,203L119,208L127,205L129,203L124,201L121,200L120,194L116,193L115,191L118,186L123,187L125,186L124,182L129,178L125,173L127,173L126,172Z " data-fips="LG21" data-fips-="" data-iso3="LVA" data-name="Saldus"/><path d="M314,78L314,82L315,83L313,86L312,92L314,93L312,99L312,103L316,103L322,98L322,95L324,94L329,96L331,100L333,101L336,104L340,102L344,104L350,103L355,106L354,108L360,110L361,110L366,107L370,103L373,105L377,104L381,105L383,101L386,99L388,95L385,92L379,89L377,88L378,78L368,79L367,80L358,78L354,78L348,72L342,71L341,72L339,76L330,79L327,83L325,82L323,83L319,79L314,78Z " data-fips="LG02" data-fips-="EN21" data-iso3="LVA" data-name="Aluksne"/><path d="M278,46L277,52L272,50L267,53L270,56L271,60L269,62L271,64L268,68L270,72L269,74L270,75L273,77L274,79L277,81L276,86L279,90L278,91L278,93L281,98L284,104L283,108L284,110L297,108L300,109L301,110L301,109L311,108L312,104L312,103L312,99L314,93L312,92L313,86L315,83L314,82L314,78L314,77L309,74L304,66L302,64L296,59L295,52L283,52L281,51L279,45L278,45L278,46Z " data-fips="LG24" data-fips-="EN19" data-iso3="LVA" data-name="Valga"/><path d="M297,172L297,169L296,167L292,166L292,160L287,155L286,155L286,159L283,161L282,159L276,158L273,157L269,161L266,162L263,163L260,165L261,169L257,169L254,168L251,166L248,168L247,171L247,175L249,180L245,181L232,186L228,186L227,186L227,190L228,193L232,195L229,199L231,201L236,199L240,195L244,202L245,208L252,219L254,221L268,222L271,221L270,215L265,210L268,206L264,206L263,197L269,197L272,197L276,194L277,187L282,178L287,176L288,176L295,175L297,173L297,172Z " data-fips="LG01" data-fips-="" data-iso3="LVA" data-name="Zemgale"/><path d="M228,185L229,182L225,180L224,174L226,173L224,170L222,170L220,169L217,170L214,173L201,173L201,173L196,173L193,173L193,175L192,176L194,179L194,183L197,183L196,189L194,191L191,191L187,194L185,195L183,199L183,203L185,203L185,208L191,210L196,214L202,215L208,211L217,215L223,211L227,204L230,202L231,201L229,199L232,195L228,193L227,190L227,186L228,186L228,185Z " data-fips="LG04" data-fips-="" data-iso3="LVA" data-name="Bauska"/><path d="M275,91L268,94L264,94L264,100L262,100L256,97L250,93L249,90L248,91L247,89L246,90L241,94L237,98L232,99L234,100L237,106L238,107L237,109L238,110L239,111L239,116L238,118L242,121L243,127L243,130L244,133L253,140L252,141L253,144L258,145L260,142L262,141L265,144L266,145L269,141L269,139L270,139L271,139L273,139L277,139L279,138L279,142L283,139L286,138L293,141L295,139L293,134L294,127L296,127L303,128L305,129L306,127L307,122L303,116L301,115L298,115L298,112L301,111L301,110L300,109L297,108L284,110L283,108L284,104L281,98L278,93L278,91L275,91Z " data-fips="LG05" data-fips-="" data-iso3="LVA" data-name="Vidzeme"/><path d="M320,217L322,219L323,226L322,223L321,220L315,219L312,223L313,225L308,230L305,228L301,231L295,225L297,229L293,233L298,238L306,243L310,246L316,251L322,261L326,264L334,267L340,268L341,265L353,263L357,255L360,251L361,250L360,246L358,246L358,239L358,238L357,233L358,229L358,227L356,227L354,223L351,221L347,222L344,223L340,221L339,222L334,221L332,222L331,218L325,216L322,216L320,217Z " data-fips="LG06" data-fips-="" data-iso3="LVA" data-name="Daugavpils"/><path d="M163,161L161,162L158,163L157,162L154,164L154,167L153,171L146,173L143,173L138,173L135,172L129,172L127,173L125,173L129,178L124,182L125,186L123,187L118,186L115,191L116,193L120,194L121,200L124,201L129,203L130,202L134,203L138,210L140,212L143,211L146,208L153,205L154,205L158,207L162,202L160,197L160,195L159,193L162,189L163,182L159,182L161,178L163,176L162,173L159,172L160,170L165,166L164,161L163,161Z " data-fips="LG07" data-fips-="LH61" data-iso3="LVA" data-name="Dobele"/><path d="M354,108L355,106L350,103L344,104L340,102L336,104L333,101L331,100L329,96L324,94L322,95L322,98L316,103L312,103L312,104L311,108L301,109L301,110L301,111L298,112L298,115L301,115L303,116L307,122L306,127L305,129L308,128L313,127L316,126L316,128L319,131L324,129L326,129L328,134L330,140L338,136L342,135L346,135L346,133L346,132L350,127L351,124L359,113L360,110L354,108Z " data-fips="LG08" data-fips-="" data-iso3="LVA" data-name="Gulbene"/><path d="M164,153L161,154L163,161L164,161L165,166L160,170L159,172L162,173L163,176L161,178L159,182L163,182L162,189L159,193L160,195L160,197L162,202L158,207L163,209L165,209L170,207L177,207L177,209L184,208L185,208L185,203L183,203L183,199L185,195L187,194L191,191L194,191L196,189L197,183L194,183L194,179L192,176L193,175L193,173L191,172L191,168L188,169L185,167L179,169L178,162L175,157L172,155L168,153L164,153Z " data-fips="LG09" data-fips-="" data-iso3="LVA" data-name="Jelgava"/><path d="M335,180L334,178L334,175L328,174L323,172L322,172L320,175L317,177L316,174L314,175L312,172L308,171L304,173L301,173L300,170L297,173L295,175L288,176L287,176L282,178L277,187L276,194L272,197L269,197L263,197L264,206L268,206L265,210L270,215L271,221L268,222L274,223L277,222L281,224L284,223L287,228L291,231L293,233L297,229L295,225L301,231L305,228L308,230L313,225L312,223L315,219L321,220L322,223L323,226L322,219L320,217L318,215L314,212L313,204L311,197L308,196L313,189L318,184L321,188L322,190L328,186L335,186L335,184L336,180L335,180Z " data-fips="LG10" data-fips-="" data-iso3="LVA" data-name="Jekabpils"/><path d="M211,106L212,108L212,112L215,111L219,109L224,117L226,118L228,117L236,111L238,110L237,109L238,107L237,106L234,100L232,99L237,98L241,94L246,90L247,89L247,89L242,83L236,83L237,79L241,76L245,77L245,74L247,74L247,66L245,63L241,59L238,60L235,57L234,51L232,50L231,42L230,42L226,41L224,46L220,46L213,49L210,51L208,55L203,55L203,57L205,69L208,80L208,86L209,90L209,94L211,106Z " data-fips="LG14" data-fips-="EN11" data-iso3="LVA" data-name="Limbai"/><path d="M303,128L296,127L294,127L293,134L295,139L293,141L286,138L283,139L279,142L279,138L277,139L273,139L271,139L271,140L274,150L275,151L272,151L273,155L273,157L276,158L282,159L283,161L286,159L286,155L287,155L292,160L292,166L296,167L297,169L297,172L297,173L300,170L301,173L304,173L308,171L312,172L314,175L316,174L317,177L320,175L322,172L323,172L328,174L334,175L334,178L335,180L336,180L340,179L341,180L342,178L341,176L345,173L343,163L350,152L351,150L351,149L353,145L349,139L349,136L346,136L346,135L342,135L338,136L330,140L328,134L326,129L324,129L319,131L316,128L316,126L313,127L308,128L305,129L303,128Z " data-fips="LG16" data-fips-="" data-iso3="LVA" data-name="Madona"/><path d="M273,155L272,151L275,151L274,150L271,140L271,139L270,139L269,139L269,141L266,145L265,144L262,141L260,142L258,145L253,144L247,146L240,146L239,147L234,147L230,150L222,152L219,151L218,154L214,152L215,157L217,157L220,163L220,165L220,169L222,170L224,170L226,173L224,174L225,180L229,182L228,185L228,186L232,186L245,181L249,180L247,175L247,171L248,168L251,166L254,168L257,169L261,169L260,165L263,163L266,162L269,161L273,157L273,155Z " data-fips="LG17" data-fips-="" data-iso3="LVA" data-name="Ogre"/><path d="M364,215L359,210L358,207L355,202L358,200L352,192L354,185L352,185L346,184L344,183L347,181L346,180L344,178L342,178L341,180L340,179L336,180L335,184L335,186L328,186L322,190L321,188L318,184L313,189L308,196L311,197L313,204L314,212L318,215L320,217L322,216L325,216L331,218L332,222L334,221L339,222L340,221L344,223L347,222L351,221L354,223L356,227L358,227L362,225L365,223L366,223L365,216L365,215L364,215Z " data-fips="LG18" data-fips-="" data-iso3="LVA" data-name="Preili"/><path d="M236,111L228,117L226,118L224,117L219,109L215,111L212,112L212,108L211,106L211,106L211,115L210,118L205,124L205,125L202,127L201,129L196,132L198,136L207,142L208,144L203,148L203,151L207,155L205,156L199,151L194,154L194,152L188,147L190,145L186,141L183,143L174,145L170,145L168,144L167,144L163,146L163,149L164,153L168,153L172,155L175,157L178,162L179,169L185,167L188,169L191,168L191,172L193,173L196,173L201,173L201,173L214,173L217,170L220,169L220,165L220,163L217,157L215,157L214,152L218,154L219,151L222,152L230,150L234,147L239,147L240,146L247,146L253,144L252,141L253,140L244,133L243,130L243,127L242,121L238,118L239,116L239,111L238,110L236,111Z " data-fips="LG20" data-fips-="" data-iso3="LVA" data-name="Riga"/><path d="M143,108L132,100L129,95L116,84L113,80L113,72L113,69L112,67L107,69L92,77L92,81L96,88L96,92L85,101L94,102L96,104L98,114L97,116L92,122L92,124L92,125L94,126L101,133L102,140L107,141L109,142L112,142L113,141L116,141L117,139L116,134L131,129L134,124L138,122L141,116L142,111L144,111L143,108Z " data-fips="LG22" data-fips-="" data-iso3="LVA" data-name="Talsi"/><path d="M167,144L159,138L154,137L149,131L147,122L144,111L144,111L142,111L141,116L138,122L134,124L131,129L116,134L117,139L116,141L113,141L112,142L109,142L107,145L106,149L106,149L106,151L108,151L110,152L108,158L113,159L116,162L124,163L126,166L127,170L126,172L127,173L129,172L135,172L138,173L143,173L146,173L153,171L154,167L154,164L157,162L158,163L161,162L163,161L161,154L164,153L163,149L163,146L167,144L167,144Z " data-fips="LG23" data-fips-="" data-iso3="LVA" data-name="Tukums"/><path d="M231,42L232,50L234,51L235,57L238,60L241,59L245,63L247,66L247,74L245,74L245,77L241,76L237,79L236,83L242,83L247,89L247,89L248,91L249,90L250,93L256,97L262,100L264,100L264,94L268,94L275,91L278,91L279,90L276,86L277,81L274,79L273,77L270,75L269,74L270,72L268,68L271,64L269,62L271,60L270,56L267,53L272,50L277,52L278,46L275,47L271,46L264,40L261,36L257,35L256,32L253,32L255,38L252,40L251,40L249,33L244,33L237,39L232,41L231,42Z " data-fips="LG25" data-fips-="EN20" data-iso3="LVA" data-name="Valmiera"/><path d="M194,134L192,135L190,138L188,140L186,141L190,145L188,147L194,152L194,154L199,151L205,156L207,155L203,151L203,148L208,144L207,142L198,136L196,132L194,134Z " data-fips="LG32" data-fips-="" data-iso3="LVA" data-name="Riga"/></g></svg>