<?xml version="1.0" encoding="UTF-8"?><!DOCTYPE svg  PUBLIC '-//W3C//DTD SVG 1.1//EN'  'http://www.w3.org/Graphics/SVG/1.1/DTD/svg11.dtd'><svg enable_background="new 0 0 450 301" height="301px" style="stroke-linejoin: round; stroke:#000; fill:#f6f3f0;" version="1.1" viewBox="0 0 450 301" width="450px" xmlns="http://www.w3.org/2000/svg" xmlns:xlink="http://www.w3.org/1999/xlink"><defs><style type="text/css"><![CDATA[path { fill-rule: evenodd; }
#context path { fill: #eee; stroke: #bbb; } ]]></style></defs><metadata><views><view h="301.0" padding="0.06" w="450"><proj id="laea" lat0="35.3195757109" lon0="-5.51289072686"/><bbox h="195.1" w="200.97" x="856.42" y="981.77"/><llbbox lat0="-90" lat1="90" lon0="-180" lon1="180"/></view></views></metadata><g id="context"><path d="M342,31L349,45L351,57L352,60L352,65L355,73L361,79L362,80L360,87L359,88L339,88L331,93L324,96L318,97L319,103L318,106L321,110L316,111L310,115L300,120L295,127L292,129L283,132L275,132L274,136L265,135L263,136L245,147L238,152L238,167L238,172L238,175L238,179L241,181L256,192L279,207L299,220L303,223L308,226L342,249L383,276L409,293L411,299L450,299L450,0L394,2L378,11L375,16L369,16L362,20L355,26L345,31L342,31Z " data-iso="DZA"/><path d="M84,158L80,158L82,160L84,158Z M126,156L122,155L119,160L123,163L126,156Z M111,150L115,146L112,146L104,149L103,149L103,153L105,156L109,154L111,150Z M146,157L151,156L153,150L150,147L146,156L146,157Z M87,145L89,139L86,138L84,139L87,145Z M155,144L160,139L157,140L153,144L155,144Z M278,0L278,3L280,4L281,9L287,13L289,15L292,14L294,11L300,6L304,5L308,1L317,1L323,1L334,0L278,0Z " data-iso="ESP"/><path d="M88,279L93,279L107,280L115,282L126,282L130,278L130,275L138,267L139,259L144,245L146,241L156,237L171,223L174,217L180,200L185,199L193,188L192,185L200,183L204,183L211,186L218,186L225,182L236,182L236,181L236,172L238,172L238,167L238,152L245,147L263,136L265,135L274,136L275,132L283,132L292,129L295,127L300,120L310,115L316,111L321,110L318,106L319,103L318,97L324,96L331,93L339,88L359,88L360,87L362,80L361,79L355,73L352,65L352,60L351,57L349,45L342,31L339,31L329,28L327,29L315,29L309,31L301,29L295,22L293,16L291,18L285,19L278,38L272,50L269,53L259,59L247,64L232,79L230,88L224,95L222,100L221,111L220,113L224,121L223,125L214,138L209,144L199,150L190,157L183,160L175,162L169,162L167,163L158,177L156,182L148,189L144,190L139,194L138,199L132,208L131,212L130,218L127,224L124,225L113,236L110,241L104,249L105,251L102,254L101,259L98,263L90,271L88,279Z " data-iso="MAR"/><path d="M303,223L297,223L272,223L280,299L411,299L409,293L383,276L342,249L308,226L303,223Z " data-iso="MLI"/><path d="M303,223L299,220L279,207L256,192L241,181L238,179L238,182L237,203L221,203L180,201L178,248L167,251L160,256L158,258L158,287L119,284L88,281L86,291L87,287L90,286L92,291L94,295L97,295L98,299L280,299L272,223L297,223L303,223Z " data-iso="MRT"/><path d="M106,64L106,66L111,68L112,66L106,64Z " data-iso="PRT"/><path d="M238,175L238,172L236,172L236,181L236,182L225,182L218,186L211,186L204,183L200,183L192,185L193,188L185,199L180,200L174,217L171,223L156,237L146,241L144,245L139,259L138,267L130,275L130,278L126,282L115,282L107,280L93,279L88,279L88,280L85,290L86,291L88,281L119,284L158,287L158,258L160,256L167,251L178,248L180,201L221,203L237,203L238,182L238,179L238,175Z " data-iso="SAH"/></g><g fill="red" fill-opacity="0.35" id="regions"><path d="M280,34L288,36L291,37L295,39L296,39L297,38L304,35L306,35L307,30L305,30L302,29L295,23L293,16L287,19L285,19L280,32L280,34Z " data-fips="MO16" data-fips-="MO57" data-iso3="MAR" data-name="Tanger - Ttouan"/><path d="M325,56L323,54L318,59L317,62L314,59L312,55L306,54L302,49L293,48L292,48L293,49L294,51L297,55L297,59L299,59L301,62L299,63L301,69L305,74L309,75L310,78L314,79L315,79L315,78L320,71L321,70L330,69L332,66L327,61L329,57L329,57L325,56Z " data-fips="MO14" data-fips-="MO46" data-iso3="MAR" data-name="Fs - Boulemane"/><path d="M317,30L309,31L307,30L307,30L306,35L304,35L297,38L296,39L296,40L295,43L294,44L292,47L292,48L293,48L302,49L306,54L312,55L314,59L317,62L318,59L323,54L325,56L329,57L327,53L329,51L327,45L330,42L327,38L326,38L322,41L320,40L321,37L318,36L317,30L317,30Z " data-fips="MO15" data-fips-="MO58" data-iso3="MAR" data-name="Taza - Al Hoceima - Taounate"/><path d="M295,39L291,37L288,36L280,34L279,36L276,43L275,45L273,47L272,49L275,51L280,50L285,51L285,51L286,50L290,50L292,50L292,49L292,48L292,47L294,44L295,43L296,40L296,39L295,39Z " data-fips="MO05" data-fips-="MO52" data-iso3="MAR" data-name="Gharb - Chrarda - Bni Hssen"/><path d="M275,68L271,66L271,61L268,60L266,56L265,56L265,56L264,56L263,57L262,58L261,63L259,64L254,62L254,62L253,62L252,62L252,62L252,65L250,68L251,74L252,74L252,75L257,81L261,82L264,84L265,84L266,83L268,78L270,78L279,77L282,76L283,76L283,75L280,70L277,68L277,67L275,68Z " data-fips="MO06" data-fips-="MO50" data-iso3="MAR" data-name="Chaouia - Ouardigha"/><path d="M262,58L261,58L259,60L254,61L254,62L259,64L261,63L262,58L262,58Z " data-fips="MO09" data-fips-="MO45" data-iso3="MAR" data-name="Grand Casablanca"/><path d="M285,51L280,50L275,51L272,49L272,50L269,54L267,55L266,56L266,56L268,60L271,61L271,66L275,68L277,67L277,67L278,63L280,63L280,65L286,66L287,65L287,54L286,51L285,51L285,51Z " data-fips="MO10" data-fips-="MO49" data-iso3="MAR" data-name="Rabat - Sal - Zemmour - Zaer"/><path d="M292,48L292,49L292,50L290,50L286,50L285,51L286,51L287,54L287,65L286,66L280,65L280,63L278,63L277,67L277,67L277,68L280,70L283,75L283,76L285,77L291,81L292,86L289,87L286,91L286,92L289,91L290,92L288,96L295,101L294,110L295,114L296,116L296,119L299,121L299,121L310,115L321,110L322,109L319,103L320,102L318,96L325,96L329,94L327,88L323,87L320,88L316,80L315,79L314,79L310,78L309,75L305,74L301,69L299,63L301,62L299,59L297,59L297,55L294,51L293,49L292,48Z " data-fips="MO13" data-fips-="MO48" data-iso3="MAR" data-name="Mekns - Tafilalet"/><path d="M286,91L289,87L292,86L291,81L285,77L283,76L282,76L279,77L270,78L268,78L266,83L265,84L266,85L266,94L266,95L265,99L264,101L265,101L269,102L272,100L282,95L285,93L286,92L286,91Z " data-fips="MO12" data-fips-="MO56" data-iso3="MAR" data-name="Tadla - Azilal"/><path d="M317,30L318,36L321,37L320,40L322,41L326,38L327,38L330,42L327,45L329,51L327,53L329,57L329,57L327,61L332,66L330,69L321,70L320,71L315,78L315,79L316,80L320,88L323,87L327,88L329,94L331,93L332,89L339,88L359,88L358,86L359,83L362,79L358,76L354,71L352,66L352,62L352,58L350,58L351,53L350,46L349,45L350,42L348,40L347,37L342,31L333,31L332,31L330,28L325,30L319,28L318,30L317,30Z " data-fips="MO08" data-fips-="MO54" data-iso3="MAR" data-name="Oriental"/><path d="M286,92L285,93L282,95L272,100L269,102L265,101L264,101L264,101L262,103L247,110L245,111L238,111L237,110L231,111L229,111L223,111L221,109L221,111L220,115L223,124L220,130L211,141L210,142L215,144L219,143L221,140L225,140L236,138L238,139L240,128L244,129L245,128L249,128L251,126L254,126L256,124L261,125L263,122L269,120L272,120L274,122L274,125L276,128L275,132L275,132L283,132L290,131L298,123L299,121L296,119L296,116L295,114L294,110L295,101L288,96L290,92L289,91L286,92Z " data-fips="MO04" data-fips-="MO55" data-iso3="MAR" data-name="Souss - Massa - Dra"/><path d="M264,84L261,82L257,81L252,75L252,74L251,75L244,84L247,87L244,94L237,94L235,94L234,91L228,91L227,91L226,93L221,101L221,107L221,109L223,111L229,111L231,111L237,110L238,111L245,111L247,110L262,103L264,101L264,101L265,99L266,95L266,94L266,85L265,84L264,84Z " data-fips="MO07" data-fips-="MO47" data-iso3="MAR" data-name="Marrakech - Tensift - Al Haouz"/><path d="M251,74L250,68L252,65L252,62L250,63L248,64L242,68L242,69L231,79L231,82L229,89L228,91L234,91L235,94L237,94L244,94L247,87L244,84L251,75L252,74L251,74Z " data-fips="MO11" data-fips-="MO51" data-iso3="MAR" data-name="Doukkala - Abda"/><path d="M183,161L177,162L169,163L163,167L160,174L159,176L155,185L154,186L146,190L144,190L139,194L138,197L136,201L131,212L131,217L130,220L128,223L127,223L139,227L142,227L151,229L156,227L163,228L163,227L173,220L177,207L179,201L180,201L173,200L172,188L179,179L181,173L183,171L185,169L185,169L186,169L186,169L190,166L188,163L186,159L183,161Z " data-fips="MO02" data-fips-="" data-iso3="MAR" data-name="Layoune - Boujdour - Sakia El Hamra"/><path d="M209,144L207,146L199,150L191,157L186,159L188,163L190,166L186,169L186,169L185,169L185,169L185,169L183,171L181,173L179,179L172,188L173,200L180,201L180,200L186,197L193,188L192,185L200,183L204,183L211,186L220,186L225,182L236,182L236,181L236,173L238,172L238,153L246,147L253,142L256,140L259,140L265,135L273,137L275,132L275,132L276,128L274,125L274,122L272,120L269,120L263,122L261,125L256,124L254,126L251,126L249,128L245,128L244,129L240,128L238,139L236,138L225,140L221,140L219,143L215,144L210,142L209,144Z " data-fips="MO03" data-fips-="MO53" data-iso3="MAR" data-name="Guelmim - Es-Semara"/><path d="M127,223L124,225L116,233L112,235L111,237L113,236L105,250L105,252L101,256L101,258L98,263L95,264L93,265L90,270L88,279L107,280L115,282L126,283L128,282L130,278L130,275L138,267L139,259L144,245L146,241L156,237L162,228L163,228L156,227L151,229L142,227L139,227L127,223L127,223Z " data-fips="WI00" data-fips-="" data-iso3="MAR" data-name="Oued el Dahab"/></g></svg>