<?xml version="1.0" encoding="UTF-8"?><!DOCTYPE svg  PUBLIC '-//W3C//DTD SVG 1.1//EN'  'http://www.w3.org/Graphics/SVG/1.1/DTD/svg11.dtd'><svg enable_background="new 0 0 450 451" height="451px" style="stroke-linejoin: round; stroke:#000; fill:#f6f3f0;" version="1.1" viewBox="0 0 450 451" width="450px" xmlns="http://www.w3.org/2000/svg" xmlns:xlink="http://www.w3.org/1999/xlink"><defs><style type="text/css"><![CDATA[path { fill-rule: evenodd; }
#context path { fill: #eee; stroke: #bbb; } ]]></style></defs><metadata><views><view h="451" padding="0.06" w="450"><proj id="laea" lat0="48.2606462674" lon0="27.0193876954"/><bbox h="40.83" w="33.34" x="994.91" y="995.41"/><llbbox lat0="-90" lat1="90" lon0="-180" lon1="180"/></view></views></metadata><g id="context"><path d="M216,426L220,424L236,423L238,421L240,414L239,408L237,401L244,392L254,384L259,376L260,364L270,358L279,348L281,338L284,331L278,316L277,306L276,297L279,293L287,287L296,283L300,283L301,286L302,303L304,303L307,301L311,291L315,294L320,295L323,292L326,292L335,298L341,299L345,296L349,292L353,293L362,305L365,303L384,300L389,294L369,279L369,267L370,254L367,246L363,240L348,233L337,226L334,222L333,211L328,205L328,200L330,193L331,184L330,181L327,178L322,178L315,174L310,167L298,158L294,157L292,152L290,147L293,140L296,129L298,119L298,114L296,99L289,88L286,87L281,90L275,93L271,90L265,84L257,68L241,65L234,64L229,72L227,70L225,65L221,63L217,65L216,63L218,56L213,52L201,53L194,50L193,45L190,42L183,40L176,36L170,29L160,25L148,23L145,21L137,26L132,29L126,27L116,35L97,36L87,35L82,33L63,46L61,50L70,50L77,51L87,57L94,65L97,71L103,79L110,91L117,107L119,115L121,124L127,135L137,146L143,157L152,175L160,182L167,190L170,198L175,206L186,215L195,224L203,249L208,261L211,269L210,287L212,295L208,309L201,338L200,360L201,372L201,380L203,385L205,395L206,404L198,411L201,415L206,422L211,431L216,426Z " data-iso="MDA"/><path d="M211,431L206,422L201,415L198,411L206,404L205,395L203,385L201,380L201,372L200,360L201,338L208,309L212,295L210,287L211,269L208,261L203,249L195,224L186,215L175,206L170,198L167,190L160,182L152,175L143,157L137,146L127,135L121,124L119,115L117,107L110,91L103,79L97,71L94,65L87,57L77,51L70,50L61,50L57,52L45,54L33,58L30,70L27,77L20,86L0,89L0,449L229,449L222,445L211,431Z M351,449L349,446L341,439L325,432L308,435L289,447L283,449L351,449Z " data-iso="ROU"/><path d="M0,89L20,86L27,77L30,70L33,58L45,54L57,52L61,50L63,46L82,33L87,35L97,36L116,35L126,27L132,29L137,26L145,21L148,23L160,25L170,29L176,36L183,40L190,42L193,45L194,50L201,53L213,52L218,56L216,63L217,65L221,63L225,65L227,70L229,72L234,64L241,65L257,68L265,84L271,90L275,93L281,90L286,87L289,88L296,99L298,114L298,119L296,129L293,140L290,147L292,152L294,157L298,158L310,167L315,174L322,178L327,178L330,181L331,184L330,193L328,200L328,205L333,211L334,222L337,226L348,233L363,240L367,246L370,254L369,267L369,279L389,294L384,300L365,303L362,305L353,293L349,292L345,296L341,299L335,298L326,292L323,292L320,295L315,294L311,291L307,301L304,303L302,303L301,286L300,283L296,283L287,287L279,293L276,297L277,306L278,316L284,331L281,338L279,348L270,358L260,364L259,376L254,384L244,392L237,401L239,408L240,414L238,421L236,423L220,424L216,426L211,431L222,445L229,449L283,449L289,447L308,435L325,432L341,439L349,446L351,449L355,449L356,442L350,415L343,407L342,396L345,391L350,386L363,389L371,386L380,379L397,371L400,369L426,336L439,313L440,308L444,299L448,285L450,274L450,0L0,0L0,89Z " data-iso="UKR"/></g><g fill="red" fill-opacity="0.35" id="regions"><path d="M100,69L103,67L104,64L106,61L107,53L109,51L112,51L113,54L115,55L121,54L123,52L122,48L124,45L120,41L119,35L119,34L119,34L118,35L115,37L112,37L102,33L99,32L98,33L99,37L96,37L91,38L85,34L82,32L79,35L77,35L77,44L77,46L74,47L72,46L69,42L67,41L66,44L63,46L61,51L66,48L68,48L78,51L82,54L83,53L88,61L90,58L93,62L96,63L93,66L95,68L98,67L100,69L100,69Z " data-fips="MD63" data-fips-="" data-iso3="MDA" data-name="Briceni"/><path d="M183,41L179,39L177,36L177,35L176,34L169,38L159,37L155,38L149,37L147,43L145,46L143,51L142,53L146,59L147,60L146,62L144,66L145,69L148,71L151,75L155,76L158,78L160,79L161,75L164,73L166,68L170,68L173,68L176,68L177,65L175,61L173,60L173,57L179,60L182,59L184,54L188,53L188,47L186,41L183,41Z " data-fips="MD70" data-fips-="" data-iso3="MDA" data-name="Donduseni"/><path d="M132,52L124,45L122,48L123,52L121,54L115,55L113,54L112,51L109,51L107,53L106,61L104,64L103,67L100,69L100,70L100,75L106,82L104,83L105,85L107,84L111,88L112,93L112,94L118,92L120,89L121,85L123,82L126,82L128,84L130,85L132,84L139,83L146,77L145,73L145,69L144,66L146,62L147,60L146,59L142,53L132,52Z " data-fips="MD73" data-fips-="" data-iso3="MDA" data-name="Edinet"/><path d="M119,34L119,34L119,35L120,41L124,45L132,52L142,53L143,51L145,46L147,43L149,37L155,38L159,37L169,38L176,34L174,31L167,26L164,24L152,24L150,23L150,20L148,20L132,30L128,27L127,27L123,28L119,34Z " data-fips="MD81" data-fips-="" data-iso3="MDA" data-name="Ocnita"/><path d="M158,78L155,76L151,75L148,71L145,69L145,73L146,77L139,83L132,84L130,85L128,84L126,82L123,82L121,85L120,89L118,92L112,94L112,94L110,96L115,101L115,106L119,109L116,111L118,114L120,118L122,119L122,120L126,117L128,111L131,108L134,107L137,107L140,104L144,104L148,105L156,109L160,109L162,108L165,108L170,113L173,115L178,113L183,110L182,106L180,105L179,99L177,98L171,90L168,91L166,94L163,95L158,92L157,90L158,83L158,78Z " data-fips="MD84" data-fips-="" data-iso3="MDA" data-name="Rscani"/><path d="M186,121L188,125L190,125L192,120L191,115L188,113L185,114L183,110L178,113L173,115L174,117L174,119L178,121L184,121L186,121Z " data-fips="MD60" data-fips-="" data-iso3="MDA" data-name="Balti"/><path d="M179,60L173,57L173,60L175,61L177,65L176,68L173,68L170,68L166,68L164,73L161,75L160,79L158,78L158,83L157,90L158,92L163,95L166,94L168,91L171,90L177,98L179,99L180,105L182,106L185,105L187,105L193,99L194,97L194,96L193,90L193,87L189,85L192,78L197,75L195,69L192,65L182,59L179,60Z " data-fips="MD71" data-fips-="" data-iso3="MDA" data-name="Drochia"/><path d="M178,121L174,119L172,118L170,116L168,117L168,120L165,123L163,124L160,124L158,128L155,130L154,134L151,135L147,135L141,138L135,143L135,144L136,149L138,149L139,153L140,155L149,159L147,165L149,166L148,170L150,171L150,171L153,169L159,166L160,164L166,163L172,163L179,162L180,162L180,159L183,158L185,158L187,156L188,153L186,150L184,150L181,149L181,146L189,140L189,137L187,130L182,129L182,125L184,121L178,121Z " data-fips="MD74" data-fips-="" data-iso3="MDA" data-name="Falesti"/><path d="M122,121L123,123L122,127L124,131L130,139L132,141L135,143L135,143L141,138L147,135L151,135L154,134L155,130L158,128L160,124L163,124L165,123L168,120L168,117L170,116L172,118L174,119L174,117L173,115L170,113L165,108L162,108L160,109L156,109L148,105L144,104L140,104L137,107L134,107L131,108L128,111L126,117L122,120L122,121Z " data-fips="MD76" data-fips-="" data-iso3="MDA" data-name="Glodeni"/><path d="M222,124L219,122L212,121L212,118L214,115L207,114L204,108L200,109L199,105L196,103L195,100L193,99L187,105L185,105L182,106L183,110L185,114L188,113L191,115L192,120L190,125L188,125L186,121L184,121L182,125L182,129L187,130L189,137L189,140L181,146L181,149L184,150L186,150L188,153L187,156L185,158L190,159L192,161L194,161L197,158L202,159L203,155L203,151L202,148L203,146L208,143L217,144L220,143L222,139L225,138L225,135L225,131L224,127L222,124Z " data-fips="MD85" data-fips-="" data-iso3="MDA" data-name="Sngerei"/><path d="M185,158L183,158L180,159L180,162L179,162L172,163L166,163L160,164L159,166L153,169L150,171L151,172L155,180L162,183L165,187L169,193L170,201L174,204L176,207L179,210L183,213L183,215L189,217L191,216L192,219L192,219L194,215L190,214L189,207L186,205L185,202L186,195L188,189L193,188L196,187L199,183L202,181L199,180L196,176L199,175L204,170L207,169L208,167L208,164L205,161L202,159L197,158L194,161L192,161L190,159L185,158Z " data-fips="MD92" data-fips-="" data-iso3="MDA" data-name="Ungheni"/><path d="M200,343L198,353L198,356L202,368L201,371L202,375L201,375L201,380L203,384L205,389L206,402L205,407L202,407L197,412L204,416L207,420L207,425L210,428L212,425L217,421L217,421L217,413L224,412L231,415L239,415L239,415L240,411L239,405L236,401L238,397L244,393L244,392L243,391L242,386L239,383L238,385L238,389L237,394L234,397L229,402L223,401L219,396L219,389L221,384L226,378L227,374L229,371L233,368L234,366L232,363L231,359L231,354L233,349L233,344L232,344L231,343L227,345L222,345L219,342L215,342L213,346L209,344L204,344L200,343L200,343Z " data-fips="MD51" data-fips-="MD64" data-iso3="MDA" data-name="Cahul"/><path d="M282,325L280,328L276,332L274,345L268,354L253,360L249,360L245,352L247,350L244,347L240,345L237,344L233,344L233,349L231,354L231,359L232,363L234,366L233,368L229,371L227,374L230,376L232,380L236,380L239,383L242,386L243,391L244,392L244,391L245,388L254,386L254,380L259,379L261,376L261,373L259,366L259,364L262,361L278,356L280,352L279,346L279,341L282,337L285,330L285,327L282,325Z " data-fips="MD51" data-fips-="MD90" data-iso3="MDA" data-name="Taraclia"/><path d="M239,415L231,415L224,412L217,413L217,421L223,422L231,423L237,423L239,421L238,416L239,415Z M239,383L236,380L232,380L230,376L227,374L226,378L221,384L219,389L219,396L223,401L229,402L234,397L237,394L238,389L238,385L239,383Z M261,299L257,296L248,291L244,288L243,290L242,291L240,291L240,293L234,298L234,301L232,303L233,306L237,309L238,312L236,320L237,324L237,328L231,333L230,335L232,340L231,343L232,344L233,344L237,344L240,345L244,347L247,350L245,352L249,360L253,360L268,354L274,345L276,332L275,329L276,325L273,323L269,324L266,321L265,315L262,314L261,312L259,312L258,315L256,315L257,311L259,309L260,304L261,299Z " data-fips="MD51" data-fips-="" data-iso3="MDA" data-name="Gagauzia"/><path d="M262,209L258,208L254,204L249,201L249,205L256,211L260,212L261,215L261,218L262,222L263,222L273,225L275,220L279,218L279,213L278,211L276,216L272,210L268,210L266,207L262,209Z " data-fips="MD57" data-fips-="" data-iso3="MDA" data-name="Chisinau"/><path d="M292,153L292,154L291,156L289,155L289,156L288,160L287,164L284,166L282,165L280,165L278,170L280,172L282,174L286,179L287,182L287,186L290,187L294,186L292,182L292,181L296,179L297,183L295,187L297,192L295,193L294,197L291,199L287,205L290,206L292,209L295,203L298,204L298,202L297,198L301,198L302,197L307,199L307,200L308,200L306,192L308,188L313,182L313,181L314,177L314,176L313,170L311,169L307,167L305,163L302,161L299,157L297,160L294,159L292,154L292,153Z " data-fips="MD58" data-fips-="MD72" data-iso3="MDA" data-name="Dubasari"/><path d="M324,224L321,224L316,227L314,227L309,222L308,219L313,219L315,218L316,213L311,204L309,203L307,200L307,200L305,201L304,204L305,219L303,222L298,219L292,221L289,214L286,213L283,215L282,218L280,218L279,218L275,220L273,225L274,229L277,230L278,227L285,229L287,231L287,233L285,235L286,238L290,239L291,240L291,244L297,246L298,249L300,250L302,248L304,251L306,250L309,251L311,247L312,247L315,243L321,242L323,242L322,237L325,235L325,228L325,226L324,225L324,224Z " data-fips="MD59" data-fips-="" data-iso3="MDA" data-name="Anenii Noi"/><path d="M288,287L289,281L287,279L280,279L278,280L272,286L270,290L268,290L265,292L265,296L264,298L261,299L260,304L259,309L257,311L256,315L258,315L259,312L261,312L262,314L265,315L266,321L269,324L273,323L276,325L275,329L276,332L280,328L282,325L279,322L277,320L278,311L276,305L275,300L276,296L278,293L285,288L288,287Z " data-fips="MD61" data-fips-="" data-iso3="MDA" data-name="Basarabeasca"/><path d="M234,298L232,297L225,303L221,302L221,299L219,299L216,300L213,304L211,303L210,303L207,309L207,315L205,319L202,321L200,326L203,332L202,338L200,343L204,344L209,344L213,346L215,342L219,342L222,345L227,345L231,343L232,340L230,335L231,333L237,328L237,324L236,320L238,312L237,309L233,306L232,303L234,301L234,298Z " data-fips="MD65" data-fips-="" data-iso3="MDA" data-name="Cantemir"/><path d="M233,160L230,161L226,163L221,163L219,165L212,162L208,164L208,167L207,169L204,170L199,175L196,176L199,180L202,181L199,183L196,187L202,193L208,196L216,199L218,199L220,197L224,197L226,196L233,189L232,186L230,182L235,177L239,176L241,175L242,172L237,169L236,164L233,160Z " data-fips="MD66" data-fips-="" data-iso3="MDA" data-name="Calarasi"/><path d="M281,271L274,273L271,272L268,271L273,268L274,263L272,259L267,257L264,253L260,252L257,249L254,250L247,255L245,261L243,265L244,268L245,270L243,279L244,284L244,288L248,291L257,296L261,299L264,298L265,296L265,292L268,290L270,290L272,286L278,280L280,279L281,271Z " data-fips="MD68" data-fips-="" data-iso3="MDA" data-name="Cimislia"/><path d="M290,187L287,186L287,182L286,179L282,174L279,177L275,179L271,182L268,184L264,184L262,187L262,191L261,192L260,197L261,201L264,203L266,207L268,210L272,210L276,216L278,211L279,213L279,218L280,218L282,218L283,215L286,213L289,214L292,221L298,219L303,222L305,219L304,204L305,201L307,200L307,199L302,197L301,198L297,198L298,202L298,204L295,203L292,209L290,206L287,205L291,199L294,197L295,193L297,192L295,187L294,186L290,187Z " data-fips="MD69" data-fips-="" data-iso3="MDA" data-name="Criuleni"/><path d="M226,86L224,85L220,86L214,83L211,85L209,86L199,86L193,87L193,90L194,96L194,97L193,99L195,100L196,103L199,105L200,109L204,108L207,114L214,115L212,118L212,121L219,122L222,124L224,127L226,125L227,124L231,126L233,122L236,118L234,112L227,111L226,106L230,100L232,96L233,90L232,86L229,85L226,86Z " data-fips="MD75" data-fips-="" data-iso3="MDA" data-name="Floresti"/><path d="M290,239L287,242L284,244L279,246L277,248L273,245L270,247L261,247L257,244L256,246L257,249L260,252L264,253L267,257L272,259L274,263L273,268L268,271L271,272L274,273L281,271L280,279L287,279L289,281L288,287L290,286L296,282L298,281L298,281L300,281L299,278L298,273L300,269L303,267L303,261L305,258L304,253L304,251L302,248L300,250L298,249L297,246L291,244L291,240L290,239Z " data-fips="MD78" data-fips-="" data-iso3="MDA" data-name="Cainari"/><path d="M314,177L313,181L313,182L308,188L306,192L308,200L307,200L307,200L309,203L311,204L316,213L315,218L313,219L308,219L309,222L314,227L316,227L321,224L324,224L324,225L325,223L333,223L333,221L334,216L336,211L336,209L333,205L330,207L330,209L328,209L325,202L327,202L331,199L331,196L330,189L333,182L332,176L328,172L326,172L323,174L322,178L319,180L315,178L314,177Z " data-fips="MD58" data-fips-="" data-iso3="MDA" data-name="Grigoriopol"/><path d="M297,183L296,179L292,181L292,182L294,186L295,187L297,183Z " data-fips="MD72" data-fips-="MD58" data-iso3="MDA" data-name="Transnistria"/><path d="M233,214L232,214L231,216L234,218L231,224L228,229L225,228L226,224L225,221L220,215L219,217L220,221L219,224L216,224L212,229L209,233L198,232L198,232L198,234L200,240L200,243L201,247L205,253L205,256L211,266L212,270L212,271L216,269L217,272L219,273L224,272L225,271L224,265L222,262L226,258L229,259L233,262L236,261L239,258L243,260L243,265L245,261L247,255L254,250L257,249L256,246L257,244L256,238L253,235L250,239L249,233L243,228L239,223L239,219L236,217L233,214Z " data-fips="MD77" data-fips-="" data-iso3="MDA" data-name="Hncesti"/><path d="M258,217L254,218L249,215L246,218L243,216L241,212L238,212L235,212L234,213L233,214L236,217L239,219L239,223L243,228L249,233L250,239L253,235L256,238L257,244L261,247L270,247L273,245L277,248L279,246L284,244L287,242L290,239L286,238L285,235L287,233L287,231L285,229L278,227L277,230L274,229L273,225L263,222L262,222L261,218L261,215L260,212L258,217Z " data-fips="MD78" data-fips-="" data-iso3="MDA" data-name="Ialoveni"/><path d="M212,272L212,274L210,279L211,281L210,289L211,291L211,303L211,303L213,304L216,300L219,299L221,299L221,302L225,303L232,297L234,298L240,293L240,291L242,291L243,290L244,288L244,284L243,279L245,270L244,268L243,265L243,260L239,258L236,261L233,262L229,259L226,258L222,262L224,265L225,271L224,272L219,273L217,272L216,269L212,271L212,272Z " data-fips="MD79" data-fips-="" data-iso3="MDA" data-name="Leova"/><path d="M218,199L216,199L208,196L202,193L196,187L193,188L188,189L186,195L185,202L186,205L189,207L190,214L194,215L192,219L195,222L196,225L198,230L198,232L209,233L212,229L216,224L219,224L220,221L219,217L220,215L225,221L226,224L225,228L228,229L231,224L234,218L231,216L232,214L233,214L234,213L235,212L233,209L230,210L225,209L223,210L221,210L219,206L221,202L219,200L218,199Z " data-fips="MD80" data-fips-="" data-iso3="MDA" data-name="Nisporeni"/><path d="M278,145L275,141L272,139L270,138L266,141L263,146L260,147L258,147L254,145L252,145L245,150L243,151L240,157L241,161L236,164L237,169L242,172L241,175L243,176L244,177L246,175L248,175L251,184L253,187L258,186L259,189L261,192L262,191L262,187L264,184L268,184L271,182L275,179L279,177L282,174L280,172L278,170L280,165L282,165L284,166L287,164L288,160L289,156L289,155L289,154L288,153L284,150L282,149L282,147L278,145Z " data-fips="MD82" data-fips-="" data-iso3="MDA" data-name="Orhei"/><path d="M281,147L280,140L278,137L278,131L277,126L276,118L276,115L280,107L280,103L276,100L273,99L274,102L275,105L270,106L270,108L264,107L262,109L264,110L259,113L257,120L250,119L245,123L243,130L248,132L250,136L253,138L252,141L252,145L254,145L258,147L260,147L263,146L266,141L270,138L272,139L275,141L278,145L282,147L281,147Z " data-fips="MD83" data-fips-="" data-iso3="MDA" data-name="Rezina"/><path d="M272,91L271,94L271,98L272,98L273,99L276,100L280,103L280,107L276,115L276,118L277,126L278,131L278,137L280,140L281,147L282,147L282,149L284,150L288,153L289,154L289,155L291,156L292,154L292,153L291,152L290,146L291,143L295,135L296,130L296,121L300,115L294,110L295,108L299,102L299,100L294,98L291,89L287,86L283,87L279,93L276,93L273,92L272,91Z " data-fips="MD83" data-fips-="" data-iso3="MDA" data-name="Rezina"/><path d="M265,97L262,95L262,92L261,89L258,86L255,90L252,91L249,93L247,98L247,101L248,103L245,106L239,100L235,99L233,100L230,100L226,106L227,111L234,112L236,118L240,121L245,123L250,119L257,120L259,113L264,110L262,109L264,107L270,108L270,106L275,105L274,102L273,99L265,97Z " data-fips="MD86" data-fips-="" data-iso3="MDA" data-name="Soldanesti"/><path d="M259,189L258,186L253,187L251,184L248,175L246,175L244,177L243,176L241,175L239,176L235,177L230,182L232,186L233,189L226,196L224,197L220,197L218,199L219,200L221,202L219,206L221,210L223,210L225,209L230,210L233,209L235,212L238,212L241,212L243,216L246,218L249,215L254,218L258,217L260,212L256,211L249,205L249,201L254,204L258,208L262,209L266,207L264,203L261,201L260,197L261,192L259,189Z " data-fips="MD87" data-fips-="MD89" data-iso3="MDA" data-name="Straseni"/><path d="M240,121L236,118L233,122L231,126L227,124L226,125L224,127L225,131L225,135L225,138L222,139L220,143L217,144L208,143L203,146L202,148L203,151L203,155L202,159L205,161L208,164L212,162L219,165L221,163L226,163L230,161L233,160L236,164L241,161L240,157L243,151L245,150L252,145L252,141L253,138L250,136L248,132L243,130L245,123L240,121Z " data-fips="MD91" data-fips-="" data-iso3="MDA" data-name="Telenesti"/><path d="M321,242L315,243L312,247L311,247L309,251L306,250L304,251L304,253L305,258L303,261L303,267L300,269L298,273L299,278L300,281L300,281L301,283L302,286L302,299L300,303L302,306L304,305L307,301L309,300L310,298L310,293L313,290L317,297L325,288L325,288L324,283L322,280L321,278L322,272L327,267L330,268L333,263L335,263L336,259L335,255L333,249L326,246L325,243L323,242L321,242Z " data-fips="MD67" data-fips-="" data-iso3="MDA" data-name="Causeni"/><path d="M333,223L325,223L324,225L325,226L325,228L325,235L322,237L323,242L325,243L326,246L333,249L335,255L337,256L339,258L343,259L344,261L346,261L352,262L354,267L351,270L350,272L356,273L359,271L362,274L363,274L366,277L366,277L368,277L371,273L369,268L370,262L370,254L370,251L367,242L364,243L362,239L360,236L351,236L350,235L344,230L341,229L333,225L333,223L333,223Z " data-fips="MD62" data-fips-="" data-iso3="MDA" data-name="Bender"/><path d="M335,255L336,259L335,263L333,263L330,268L327,267L322,272L321,278L322,280L324,283L325,288L325,288L328,289L327,294L328,296L335,298L336,301L339,304L341,304L343,302L344,300L344,297L349,295L350,293L349,289L351,291L356,295L358,298L359,304L361,306L368,302L369,301L380,302L387,298L389,294L386,293L377,289L378,288L373,285L372,283L368,282L367,280L366,277L363,274L362,274L359,271L356,273L350,272L351,270L354,267L352,262L346,261L344,261L343,259L339,258L337,256L335,255Z " data-fips="MD88" data-fips-="" data-iso3="MDA" data-name="Stefan Voda"/><path d="M232,70L236,73L234,77L230,80L229,85L232,86L233,90L232,96L230,100L233,100L235,99L239,100L245,106L248,103L247,101L247,98L249,93L252,91L255,90L258,86L261,89L262,92L262,95L265,97L273,99L272,98L271,98L271,94L272,91L270,90L267,87L264,83L263,81L262,76L260,73L256,67L253,67L247,67L238,63L235,63L232,69L232,70Z " data-fips="MD86" data-fips-="" data-iso3="MDA" data-name="Camenca"/><path d="M186,41L188,47L188,53L184,54L182,59L192,65L195,69L197,75L192,78L189,85L193,87L199,86L209,86L211,85L214,83L220,86L224,85L226,86L229,85L230,80L234,77L236,73L232,70L231,72L231,74L230,76L227,73L224,68L226,66L225,62L224,61L220,63L219,66L216,68L215,66L219,59L220,56L219,52L217,52L206,57L204,56L202,50L193,52L195,47L191,42L186,41Z " data-fips="MD87" data-fips-="" data-iso3="MDA" data-name="Soroca"/></g></svg>