<?xml version="1.0" encoding="UTF-8"?><!DOCTYPE svg  PUBLIC '-//W3C//DTD SVG 1.1//EN'  'http://www.w3.org/Graphics/SVG/1.1/DTD/svg11.dtd'><svg enable_background="new 0 0 450 451" height="451px" style="stroke-linejoin: round; stroke:#000; fill:#f6f3f0;" version="1.1" viewBox="0 0 450 451" width="450px" xmlns="http://www.w3.org/2000/svg" xmlns:xlink="http://www.w3.org/1999/xlink"><defs><style type="text/css"><![CDATA[path { fill-rule: evenodd; }
#context path { fill: #eee; stroke: #bbb; } ]]></style></defs><metadata><views><view h="451" padding="0.06" w="450"><proj id="laea" lat0="-19.0010104307" lon0="46.7508475315"/><bbox h="178.51" w="95.19" x="954.6" y="908.05"/><llbbox lat0="-90" lat1="90" lon0="-180" lon1="180"/></view></views></metadata><g id="context"><path d="M130,24L127,23L126,25L132,26L130,24Z M150,17L146,20L143,20L152,24L152,21L150,17Z M113,0L112,7L116,11L120,11L117,3L117,0L113,0Z " data-iso="COM"/><path d="M172,45L173,38L169,35L168,36L169,44L172,45Z " data-iso="FRA"/><path d="M314,167L317,161L316,161L312,168L311,173L314,167Z M268,57L267,51L263,53L264,57L268,57Z M304,28L296,17L294,17L289,24L282,28L281,29L285,40L285,43L281,54L276,59L269,62L265,68L263,67L258,64L257,64L254,70L257,75L256,78L250,88L251,93L256,97L250,96L245,103L243,107L240,105L242,102L240,98L238,100L235,105L230,112L231,116L230,121L228,120L227,115L223,114L211,123L209,126L207,132L210,135L206,135L203,130L194,132L188,132L185,138L182,138L177,139L174,137L165,144L152,145L150,151L150,160L137,182L136,188L138,199L140,210L142,216L145,224L146,234L152,245L149,267L146,275L137,290L136,296L134,300L131,302L126,305L124,314L119,334L119,337L124,353L129,359L132,369L133,373L131,379L133,398L138,404L143,418L149,422L152,425L165,428L174,434L176,435L185,435L196,428L203,425L209,423L219,422L227,417L232,411L235,400L236,396L242,383L244,375L248,363L253,339L261,320L266,304L269,290L273,277L279,261L283,248L287,235L296,211L300,198L301,191L299,181L299,177L302,171L308,165L311,154L311,147L308,141L308,137L306,125L309,122L314,126L317,133L322,138L325,135L329,128L331,120L330,113L326,106L324,100L323,93L323,78L320,64L317,54L316,48L307,34L304,28Z " data-iso="MDG"/><path d="M0,165L8,160L14,156L12,151L18,149L21,141L27,134L34,125L37,118L38,108L42,101L41,93L38,92L36,96L38,86L34,83L34,74L32,62L33,60L32,48L28,48L29,45L32,43L32,37L31,33L29,32L30,21L30,17L27,7L0,0L0,165Z " data-iso="MOZ"/></g><g fill="red" fill-opacity="0.35" id="regions"><path d="M252,198L244,197L238,195L238,194L234,192L228,196L224,194L224,192L213,192L212,193L202,196L196,194L193,202L190,208L186,207L185,209L185,209L185,209L186,217L183,223L183,229L186,233L190,239L192,238L192,249L193,255L192,258L191,259L192,259L200,261L203,265L206,264L206,267L209,270L211,269L216,270L218,271L232,267L234,264L235,264L242,265L246,264L248,265L248,265L248,263L249,260L252,253L252,248L255,242L254,238L253,234L255,221L256,214L255,199L254,198L254,197L252,198Z " data-fips="MA05" data-fips-="" data-iso3="MDG" data-name="Antananarivo"/><path d="M267,53L266,51L263,54L263,55L265,58L268,57L267,53Z M258,78L259,75L265,72L263,75L265,78L268,80L273,79L278,83L284,83L285,81L291,83L294,87L299,92L298,93L301,99L301,101L304,105L305,106L306,108L309,110L311,109L316,111L318,114L317,115L318,124L317,127L320,137L320,137L324,136L327,132L331,122L332,116L328,109L324,101L324,99L323,91L324,86L322,84L323,80L322,76L322,69L321,67L318,60L319,57L317,57L316,51L316,47L310,38L309,39L308,36L305,34L304,26L300,22L295,21L298,19L299,21L299,17L296,13L294,18L293,16L293,21L287,25L285,30L283,27L280,27L280,28L284,32L286,43L283,48L282,56L279,59L274,58L272,57L272,59L273,62L270,62L268,64L266,70L263,68L262,64L259,61L256,61L255,63L254,66L255,67L254,72L256,74L255,76L257,78L258,78Z " data-fips="MA01" data-fips-="" data-iso3="MDG" data-name="Antsiranana"/><path d="M248,265L246,264L242,265L235,264L234,264L232,267L218,271L216,270L211,269L209,270L206,267L206,264L203,265L200,261L192,259L191,259L191,259L192,263L192,270L192,280L193,285L192,286L191,294L190,296L190,301L186,303L185,306L185,311L183,314L182,315L179,321L178,321L178,332L172,343L170,351L171,356L177,359L179,359L181,352L187,348L192,346L198,346L201,347L204,350L209,360L211,361L212,366L210,369L212,375L210,381L215,384L217,385L219,389L223,390L225,395L228,393L227,390L230,386L237,389L239,390L239,390L241,386L243,382L248,363L248,359L252,339L254,335L261,318L266,305L268,298L268,293L269,291L272,280L274,276L267,274L260,269L257,275L249,276L247,275L247,270L248,266L248,265L248,265Z " data-fips="MA02" data-fips-="" data-iso3="MDG" data-name="Fianarantsoa"/><path d="M304,105L301,101L301,99L298,93L299,92L294,87L291,83L285,81L284,83L278,83L273,79L268,80L265,78L263,75L265,72L259,75L258,78L258,78L258,84L257,86L257,82L255,79L255,83L250,85L248,88L249,93L251,93L253,95L255,94L257,96L257,97L255,95L252,96L251,94L247,100L244,106L241,110L240,110L240,104L242,98L240,97L235,102L238,104L236,105L233,109L230,111L229,113L230,116L232,116L234,120L232,121L227,122L228,119L226,114L216,119L217,120L211,122L207,127L206,132L210,134L209,137L207,137L205,134L204,129L199,130L199,131L188,131L185,138L184,136L179,137L178,141L176,142L175,136L170,140L169,141L161,144L153,144L151,145L151,154L151,159L147,165L142,173L139,179L136,185L136,188L139,195L138,199L140,207L140,213L144,220L146,227L146,236L147,236L153,237L155,239L164,241L166,239L171,238L170,237L168,229L168,227L166,222L165,217L163,212L168,207L171,208L174,207L180,209L182,209L184,209L185,209L185,209L186,207L190,208L193,202L196,194L202,196L212,193L213,192L224,192L224,194L228,196L234,192L238,194L238,195L244,197L252,198L254,197L254,196L261,177L263,175L260,170L256,163L255,157L255,153L256,146L260,147L264,146L269,149L270,149L275,153L276,159L277,162L281,159L286,159L285,158L288,153L290,152L293,146L293,144L287,142L288,139L290,136L288,131L290,122L288,121L287,119L298,115L301,111L301,107L304,106L305,106L304,105Z " data-fips="MA03" data-fips-="" data-iso3="MDG" data-name="Mahajanga"/><path d="M311,172L315,166L315,163L313,166L311,172Z M304,106L301,107L301,111L298,115L287,119L288,121L290,122L288,131L290,136L288,139L287,142L293,144L293,146L290,152L288,153L285,158L286,159L281,159L277,162L276,159L275,153L270,149L269,149L264,146L260,147L256,146L255,153L255,157L256,163L260,170L263,175L261,177L254,196L254,197L254,198L255,199L256,214L255,221L253,234L254,238L255,242L252,248L252,253L249,260L248,263L248,265L248,266L247,270L247,275L249,276L257,275L260,269L267,274L274,276L275,273L280,260L281,253L285,243L288,234L291,227L293,221L296,214L297,208L299,206L298,204L301,195L301,190L299,179L302,171L304,167L310,165L308,162L308,161L312,156L312,153L311,152L312,145L308,142L307,139L308,136L306,125L308,122L312,121L314,123L316,130L318,135L320,137L320,137L317,127L318,124L317,115L318,114L316,111L311,109L309,110L306,108L305,106L304,106Z " data-fips="MA04" data-fips-="" data-iso3="MDG" data-name="Toamasina"/><path d="M184,209L182,209L180,209L174,207L171,208L168,207L163,212L165,217L166,222L168,227L168,229L170,237L171,238L166,239L164,241L155,239L153,237L147,236L149,239L151,243L153,248L152,249L151,253L150,255L153,259L151,265L150,267L147,273L143,278L142,282L141,285L139,287L137,290L136,296L135,299L132,303L131,302L126,304L125,307L125,315L123,315L121,318L119,325L119,331L119,336L120,344L123,353L128,358L130,362L130,365L133,368L134,375L132,375L131,382L132,393L132,398L134,401L139,406L140,410L143,418L149,422L153,426L164,427L169,431L176,436L184,435L189,433L192,430L205,424L209,423L217,423L221,421L229,416L231,412L232,411L235,401L236,396L237,395L239,390L237,389L230,386L227,390L228,393L225,395L223,390L219,389L217,385L215,384L210,381L212,375L210,369L212,366L211,361L209,360L204,350L201,347L198,346L192,346L187,348L181,352L179,359L177,359L171,356L170,351L172,343L178,332L178,321L179,321L182,315L183,314L185,311L185,306L186,303L190,301L190,296L191,294L192,286L193,285L192,280L192,270L192,263L191,259L191,259L192,258L193,255L192,249L192,238L190,239L186,233L183,229L183,223L186,217L185,209L185,209L184,209Z " data-fips="MA06" data-fips-="" data-iso3="MDG" data-name="Toliary"/></g></svg>