<?xml version="1.0" encoding="UTF-8"?><!DOCTYPE svg  PUBLIC '-//W3C//DTD SVG 1.1//EN'  'http://www.w3.org/Graphics/SVG/1.1/DTD/svg11.dtd'><svg enable_background="new 0 0 450 301" height="301px" style="stroke-linejoin: round; stroke:#000; fill:#f6f3f0;" version="1.1" viewBox="0 0 450 301" width="450px" xmlns="http://www.w3.org/2000/svg" xmlns:xlink="http://www.w3.org/1999/xlink"><defs><style type="text/css"><![CDATA[path { fill-rule: evenodd; }
#context path { fill: #eee; stroke: #bbb; } ]]></style></defs><metadata><views><view h="301.0" padding="0.06" w="450"><proj id="laea" lat0="30.3562481759" lon0="-115.240460717"/><bbox h="241.86" w="402.43" x="944.32" y="949.34"/><llbbox lat0="-90" lat1="90" lon0="-180" lon1="180"/></view></views></metadata><g id="context"><path d="M412,196L409,197L406,205L403,205L402,206L402,208L403,211L406,234L407,234L410,233L410,233L412,228L414,227L416,222L415,214L415,209L414,208L414,197L411,198L412,196Z " data-iso="BLZ"/><path d="M450,135L445,138L449,137L450,135Z " data-iso="CUB"/><path d="M400,208L379,212L380,220L375,221L385,227L389,234L386,236L373,238L369,250L371,253L369,261L376,264L385,266L392,265L394,265L399,266L399,264L405,258L407,255L407,255L407,254L409,251L409,245L411,244L419,234L414,232L415,233L414,234L411,234L410,233L407,234L406,234L403,211L402,208L400,208Z " data-iso="GTM"/><path d="M419,234L411,244L409,245L409,251L407,254L407,255L408,255L415,258L419,259L424,257L430,258L430,264L429,265L430,265L432,264L434,264L436,268L437,269L441,268L442,264L444,263L450,251L450,223L443,227L436,229L428,231L425,230L420,234L419,234Z " data-iso="HND"/><path d="M424,167L426,163L424,163L424,167Z M102,151L100,146L99,147L102,151Z M99,89L98,86L95,91L98,92L99,89Z M87,89L87,85L85,85L82,82L83,85L87,89Z M41,43L43,48L46,50L45,52L50,62L53,65L53,70L55,71L67,86L77,97L74,106L65,106L71,111L72,114L76,116L83,121L88,118L90,123L94,126L98,128L100,132L102,138L102,146L110,153L115,156L121,161L124,163L126,166L129,172L130,172L135,168L136,164L128,155L125,155L120,153L119,149L111,133L111,128L108,121L104,119L98,110L93,106L91,97L80,84L75,79L69,73L69,69L67,55L68,53L66,50L74,54L81,55L81,57L88,59L88,65L92,76L99,89L104,94L108,97L110,101L119,105L119,109L123,114L127,115L129,119L133,119L136,122L134,129L135,133L140,136L143,135L143,137L152,142L150,143L155,148L159,149L159,150L165,155L183,173L185,177L185,181L188,186L191,188L191,193L189,197L191,199L190,201L186,203L192,212L197,218L204,220L211,223L217,229L234,233L237,232L242,236L253,241L258,242L268,246L281,247L284,250L289,250L295,253L302,253L308,254L315,254L325,248L329,245L335,241L337,243L344,244L345,244L361,254L369,260L369,261L371,253L369,250L373,238L386,236L389,234L385,227L375,221L380,220L379,212L400,208L402,208L402,206L403,205L406,205L409,197L412,196L412,195L414,190L418,198L419,195L420,178L417,179L420,165L422,163L424,155L422,151L414,152L407,152L402,154L397,157L386,162L380,167L379,173L381,182L379,184L379,191L372,198L374,202L370,205L366,203L362,204L341,213L337,215L333,216L329,212L324,210L318,211L314,210L313,207L308,204L305,197L294,185L292,181L285,170L291,177L292,175L288,172L283,161L283,159L282,137L283,128L286,117L285,114L277,114L270,113L262,112L253,96L251,94L243,87L242,85L228,69L213,71L212,73L209,80L206,82L196,78L191,74L185,62L180,59L168,50L165,47L147,49L145,55L112,57L106,55L67,41L67,39L40,41L41,43Z " data-iso="MEX"/><path d="M437,269L432,271L440,276L444,278L450,283L450,251L444,263L442,264L441,268L437,269L437,269Z " data-iso="NIC"/><path d="M407,255L405,258L399,264L399,266L401,267L403,268L410,268L416,269L425,269L429,265L429,265L430,264L430,258L424,257L419,259L415,258L408,255L407,255L407,255Z " data-iso="SLV"/><path d="M9,18L10,20L13,20L9,18Z M40,41L67,39L67,41L106,55L112,57L145,55L147,49L165,47L168,50L180,59L185,62L191,74L196,78L206,82L209,80L212,73L213,71L228,69L242,85L243,87L251,94L253,96L262,112L270,113L277,114L285,114L285,113L280,105L278,101L280,91L278,89L281,84L284,83L285,80L289,78L290,75L292,77L301,69L305,63L302,58L306,60L309,59L313,57L316,53L318,55L326,54L335,54L336,52L341,50L347,55L354,56L357,53L361,54L363,49L373,53L373,51L371,49L367,49L364,47L367,42L366,40L363,43L354,41L356,38L364,39L372,33L373,34L380,29L381,29L384,32L389,30L390,27L396,27L398,25L407,27L414,33L419,30L427,23L431,24L437,29L445,33L447,35L448,41L449,50L450,51L450,0L0,0L1,8L1,11L3,13L8,13L15,15L18,18L26,22L37,30L38,33L40,41L40,41Z " data-iso="USA"/></g><g fill="red" fill-opacity="0.35" id="regions"><path d="M63,102L62,98L62,101L63,102Z M82,82L83,85L86,88L85,84L82,82Z M67,41L68,38L51,40L40,42L44,48L46,50L45,54L47,56L50,61L49,62L52,65L53,70L56,73L57,79L63,84L66,85L75,94L77,98L75,103L75,103L82,103L88,103L93,103L92,103L90,97L89,97L87,92L84,91L81,86L76,81L73,79L69,68L68,63L66,59L67,51L66,49L66,49L65,45L65,44L67,41L67,41Z " data-fips="MX02" data-fips-="" data-iso3="MEX" data-name="Baja California" data-p="BCN"/><path d="M75,103L75,103L75,103L76,107L73,105L69,106L64,106L71,112L72,114L78,117L79,117L82,121L88,120L90,123L100,130L102,137L102,147L108,152L122,162L124,162L127,168L128,172L133,170L136,167L136,164L133,162L131,158L125,152L125,155L121,154L119,150L119,147L118,143L116,142L115,136L112,134L111,129L109,123L104,118L99,114L98,109L94,107L93,103L93,103L88,103L82,103L75,103Z " data-fips="MX03" data-fips-="" data-iso3="MEX" data-name="Baja California Sur" data-p="BCS"/><path d="M206,82L199,98L202,104L205,114L205,115L205,115L210,120L210,127L208,133L212,136L214,139L217,140L217,138L219,136L219,135L219,135L225,134L229,134L230,136L233,137L234,138L238,137L239,139L242,140L243,140L243,139L243,134L242,133L248,130L243,126L244,126L240,123L240,121L235,115L240,110L241,111L242,107L242,105L240,106L239,103L243,100L243,96L245,94L248,96L250,94L250,94L246,90L243,88L237,77L230,71L226,69L214,70L212,71L210,78L208,82L206,82L206,82Z " data-fips="MX07" data-fips-="" data-iso3="MEX" data-name="Coahuila" data-p="COA"/><path d="M136,55L140,65L141,66L141,82L142,88L142,93L144,96L142,98L138,97L141,106L143,108L143,111L145,115L146,115L146,115L151,117L153,119L157,126L160,127L161,129L165,132L166,132L166,132L168,132L170,130L172,125L171,122L174,118L175,115L185,119L187,118L188,119L191,119L194,120L198,114L201,114L204,115L205,115L205,114L202,104L199,98L206,82L206,82L200,79L196,78L194,76L190,74L188,67L183,61L180,60L174,55L173,53L162,48L145,49L145,55L136,55L136,55Z " data-fips="MX06" data-fips-="MX05" data-iso3="MEX" data-name="Chihuahua" data-p="CHH"/><path d="M204,115L201,114L198,114L194,120L191,119L188,119L187,118L185,119L175,115L174,118L171,122L172,125L170,130L168,132L166,132L166,132L165,133L164,135L164,138L165,142L169,146L172,150L176,149L178,150L183,163L187,166L187,167L188,167L191,167L194,170L194,173L196,171L202,175L202,175L202,175L203,171L203,160L206,151L213,144L218,145L222,144L222,139L219,136L219,135L219,136L217,138L217,140L214,139L212,136L208,133L210,127L210,120L205,115L205,115L204,115Z " data-fips="MX10" data-fips-="" data-iso3="MEX" data-name="Durango" data-p="DUR"/><path d="M136,126L136,126L136,126L136,126L136,126L137,125L137,125L137,125L137,125L138,125L138,125L138,126L138,126L138,125L138,124L141,122L145,118L145,115L146,115L146,115L151,117L153,119L157,126L160,127L161,129L165,132L166,132L165,133L164,135L164,138L165,142L169,146L172,150L176,149L178,150L183,163L187,166L187,167L187,167L187,172L187,174L184,174L184,174L177,167L174,165L173,163L169,159L166,155L158,149L153,146L153,145L151,144L150,140L148,140L144,137L143,135L141,136L135,134L135,127L136,126Z " data-fips="MX25" data-fips-="" data-iso3="MEX" data-name="Sinaloa" data-p="SIN"/><path d="M136,126L136,125L136,125L136,126L136,126L136,126L136,126L136,126Z M138,125L137,124L137,125L137,125L137,125L137,125L138,125L138,125Z M98,86L95,91L98,92L99,88L98,86Z M67,41L65,44L65,45L66,49L67,50L70,52L75,55L78,54L81,55L81,57L88,60L88,65L93,77L96,82L96,84L99,85L99,89L103,92L104,95L113,103L115,104L116,103L119,105L119,110L123,114L127,114L129,118L134,120L137,124L138,124L141,122L145,118L145,115L146,115L145,115L143,111L143,108L141,106L138,97L142,98L144,96L142,93L142,88L141,82L141,66L140,65L136,55L136,55L112,57L111,57L67,41L67,41Z " data-fips="MX26" data-fips-="" data-iso3="MEX" data-name="Sonora" data-p="SON"/><path d="M242,140L239,139L238,137L234,138L233,137L230,136L229,134L225,134L219,135L219,135L219,136L222,139L222,144L218,145L213,144L206,151L203,160L203,171L202,175L202,175L202,176L202,176L202,176L202,176L202,176L206,174L208,177L209,171L210,176L212,177L213,172L217,174L217,176L216,179L212,181L213,184L210,186L210,189L212,190L219,191L219,188L224,185L222,181L222,181L222,181L223,175L229,173L233,176L233,176L234,176L236,177L236,177L238,178L238,178L238,178L239,172L238,168L234,170L229,167L227,161L231,155L239,148L241,142L243,140L243,140L242,140Z " data-fips="MX32" data-fips-="" data-iso3="MEX" data-name="Zacatecas" data-p="ZAC"/><path d="M243,140L243,140L246,143L248,149L249,157L253,157L254,157L254,157L256,155L255,153L259,149L260,147L257,137L260,135L263,134L263,130L265,130L270,124L269,123L265,116L261,116L260,113L258,113L257,109L254,109L254,106L252,102L251,95L251,95L251,95L250,94L250,94L250,94L248,96L245,94L243,96L243,100L239,103L240,106L242,105L242,107L241,111L240,110L235,115L240,121L240,123L244,126L243,126L248,130L242,133L243,134L243,139L243,140Z " data-fips="MX19" data-fips-="" data-iso3="MEX" data-name="Nuevo Len" data-p="NLE"/><path d="M253,157L249,157L248,149L246,143L243,140L243,140L243,140L241,142L239,148L231,155L227,161L229,167L234,170L238,168L239,172L238,178L238,178L238,179L245,179L252,179L260,181L260,181L261,181L266,181L268,177L270,182L270,182L270,182L273,183L276,181L276,180L277,180L277,179L277,167L274,166L274,166L274,166L271,167L266,166L264,163L262,165L256,163L256,160L254,157L254,157L253,157Z " data-fips="MX24" data-fips-="" data-iso3="MEX" data-name="San Luis Potos" data-p="SLP"/><path d="M251,95L252,102L254,106L254,109L257,109L258,113L260,113L261,116L265,116L269,123L270,124L265,130L263,130L263,134L260,135L257,137L260,147L259,149L255,153L256,155L254,157L254,157L254,157L256,160L256,163L262,165L264,163L266,166L271,167L274,166L274,166L274,166L277,165L279,164L283,167L284,166L284,166L282,160L283,157L283,153L282,135L283,126L284,122L285,116L279,114L272,115L264,112L261,111L255,103L253,96L251,95L251,95Z " data-fips="MX28" data-fips-="" data-iso3="MEX" data-name="Tamaulipas" data-p="TAM"/><path d="M233,176L229,173L223,175L222,181L222,181L223,181L229,182L231,179L233,176L233,176L233,176Z " data-fips="MX01" data-fips-="" data-iso3="MEX" data-name="Aguascalientes" data-p="AGU"/><path d="M119,230L118,228L117,230L119,230Z M203,219L204,220L205,221L210,222L213,225L216,221L216,221L216,221L216,220L212,215L207,214L207,215L201,219L203,219Z " data-fips="MX08" data-fips-="MX05" data-iso3="MEX" data-name="Colima" data-p="COL"/><path d="M222,181L224,185L219,188L219,191L212,190L210,189L210,186L213,184L212,181L216,179L217,176L217,174L213,172L212,177L210,176L209,171L208,177L206,174L202,176L202,176L201,177L205,183L207,189L206,190L204,198L201,195L197,194L191,199L191,199L191,201L187,202L186,204L188,206L189,208L194,214L198,218L201,219L201,219L207,215L207,214L212,215L216,220L216,221L216,220L221,220L228,213L226,213L224,209L225,207L220,206L221,204L228,200L232,199L232,199L232,199L234,196L232,194L238,184L237,182L238,179L238,178L238,178L236,177L236,177L234,176L233,176L233,176L231,179L229,182L223,181L222,181L222,181Z " data-fips="MX14" data-fips-="" data-iso3="MEX" data-name="Jalisco" data-p="JAL"/><path d="M256,199L249,203L247,204L242,203L241,199L238,201L234,199L232,199L232,199L228,200L221,204L220,206L225,207L224,209L226,213L228,213L221,220L216,220L216,221L216,221L216,221L213,225L213,225L217,229L218,230L227,232L234,233L234,233L235,229L238,227L239,223L243,224L246,223L250,224L252,223L251,219L253,218L253,218L253,218L255,216L258,210L258,203L258,202L258,202L258,202L257,200L257,199L256,199L256,199Z " data-fips="MX16" data-fips-="" data-iso3="MEX" data-name="Michoacn" data-p="MIC"/><path d="M173,186L173,188L174,186L173,186Z M187,167L187,167L187,172L187,174L184,174L184,174L185,181L188,186L191,189L191,193L188,198L190,198L191,199L197,194L201,195L204,198L206,190L207,189L205,183L201,177L202,176L202,176L202,176L202,176L202,175L202,175L196,171L194,173L194,170L191,167L188,167L187,167Z " data-fips="MX18" data-fips-="" data-iso3="MEX" data-name="Nayarit" data-p="NAY"/><path d="M380,170L379,174L381,183L379,187L379,191L374,196L371,198L374,201L373,202L366,205L364,205L365,202L359,204L358,205L360,207L363,207L364,211L371,212L371,210L375,210L379,213L379,213L402,208L402,206L402,206L403,200L401,195L401,188L396,184L395,183L394,182L391,179L389,177L380,169L380,170Z " data-fips="MX04" data-fips-="" data-iso3="MEX" data-name="Campeche" data-p="CAM"/><path d="M341,229L330,230L325,226L318,228L316,225L317,222L316,220L311,219L305,214L304,217L304,217L304,218L302,221L299,221L295,225L292,221L291,223L292,225L286,225L284,227L284,227L284,228L284,231L287,236L289,238L289,240L287,244L287,247L284,249L284,250L290,250L294,253L302,253L311,255L314,254L326,248L332,241L333,242L339,243L343,244L343,244L342,244L342,244L339,243L338,242L342,243L343,243L341,238L342,236L344,229L343,229L341,229Z " data-fips="MX20" data-fips-="" data-iso3="MEX" data-name="Oaxaca" data-p="OAX"/><path d="M304,217L297,215L296,213L297,208L299,206L297,206L294,202L294,198L296,195L292,194L290,195L288,194L288,192L290,191L287,187L285,187L285,191L285,191L285,191L282,194L284,197L282,200L284,202L284,203L284,203L285,202L288,205L291,207L287,209L282,209L278,206L278,206L278,207L278,209L279,210L279,212L279,212L279,213L279,217L275,222L274,222L274,223L279,227L283,227L284,227L284,227L284,227L286,225L292,225L291,223L292,221L295,225L299,221L302,221L304,218L304,217L304,217Z " data-fips="MX21" data-fips-="" data-iso3="MEX" data-name="Puebla" data-p="PUE"/><path d="M358,205L350,209L350,210L345,211L343,213L338,215L338,215L340,219L346,222L346,225L347,225L347,224L349,220L349,216L353,216L354,221L358,223L360,220L367,214L370,216L375,221L375,221L380,220L380,220L379,213L375,210L371,210L371,212L364,211L363,207L360,207L358,205L358,205Z " data-fips="MX32" data-fips-="MX27" data-iso3="MEX" data-name="Tabasco" data-p="TAB"/><path d="M278,206L282,209L287,209L291,207L288,205L285,202L284,203L284,203L284,203L283,202L278,205L278,205L277,205L277,205L278,206L278,206L278,206L278,206Z " data-fips="MX29" data-fips-="" data-iso3="MEX" data-name="Tlaxcala" data-p="TLA"/><path d="M275,212L272,206L271,207L270,212L270,212L271,212L273,212L273,213L274,212L274,212L275,212Z " data-fips="MX09" data-fips-="MX05" data-iso3="MEX" data-name="Distrito Federal" data-p="CMX"/><path d="M260,181L252,179L245,179L238,179L238,178L238,179L237,182L238,184L232,194L234,196L232,199L232,199L234,199L238,201L241,199L242,203L247,204L249,203L256,199L256,199L256,199L253,196L253,189L257,189L257,186L260,182L260,181L260,181Z " data-fips="MX11" data-fips-="" data-iso3="MEX" data-name="Guanajuato" data-p="GUA"/><path d="M268,219L263,220L258,224L256,218L254,218L253,218L253,218L251,219L252,223L250,224L246,223L243,224L239,223L238,227L235,229L234,233L235,233L237,232L240,233L242,236L243,236L250,240L266,245L269,246L281,247L283,249L284,249L287,247L287,244L289,240L289,238L287,236L284,231L284,228L284,227L284,227L283,227L279,227L274,223L274,222L274,222L272,220L272,221L268,219L268,219L268,219Z " data-fips="MX12" data-fips-="" data-iso3="MEX" data-name="Guerrero" data-p="GRO"/><path d="M285,191L280,192L279,194L278,191L279,187L281,187L282,184L278,182L277,180L277,180L276,180L276,181L273,183L270,182L270,182L270,182L266,185L265,191L262,194L261,197L261,197L262,197L265,198L274,200L273,201L278,203L278,205L278,205L278,205L283,202L284,203L284,203L284,202L282,200L284,197L282,194L285,191L285,191L285,191Z " data-fips="MX13" data-fips-="" data-iso3="MEX" data-name="Hidalgo" data-p="HID"/><path d="M278,205L278,203L273,201L274,200L265,198L262,197L261,197L261,197L260,198L258,202L258,202L258,203L258,210L255,216L253,218L253,218L254,218L256,218L258,224L263,220L268,219L268,219L268,219L270,214L270,212L270,212L270,212L271,207L272,206L275,212L274,212L275,212L277,214L278,213L279,213L279,212L279,212L279,210L278,209L278,207L278,206L278,206L278,206L277,205L277,205L278,205L278,205Z " data-fips="MX15" data-fips-="" data-iso3="MEX" data-name="Mxico" data-p="MEX"/><path d="M274,212L273,213L273,212L271,212L270,212L270,212L270,214L268,219L268,219L268,219L272,221L272,220L274,222L274,222L275,222L279,217L279,213L279,212L279,213L278,213L277,214L275,212L274,212L274,212Z " data-fips="MX17" data-fips-="" data-iso3="MEX" data-name="Morelos" data-p="MOR"/><path d="M270,182L268,177L266,181L261,181L260,181L260,182L257,186L257,189L253,189L253,196L256,199L256,199L257,199L257,200L258,202L258,202L258,202L258,202L260,198L261,197L261,197L261,197L262,194L265,191L266,185L270,182L270,182L270,182Z " data-fips="MX22" data-fips-="" data-iso3="MEX" data-name="Quertaro" data-p="QUE"/><path d="M338,215L340,219L346,222L346,225L347,225L347,225L346,226L346,226L344,229L343,229L341,229L330,230L325,226L318,228L316,225L317,222L316,220L311,219L305,214L304,217L304,217L304,217L297,215L296,213L297,208L299,206L297,206L294,202L294,198L296,195L292,194L290,195L288,194L288,192L290,191L287,187L285,187L285,191L285,191L285,191L280,192L279,194L278,191L279,187L281,187L282,184L278,182L277,180L277,180L277,179L277,167L274,166L274,166L274,166L277,165L279,164L283,167L284,166L285,166L287,172L291,175L291,179L290,177L291,175L287,172L285,169L287,175L291,180L295,187L305,196L306,198L308,203L311,205L316,210L323,210L329,212L332,216L337,215L338,215Z " data-fips="MX30" data-fips-="" data-iso3="MEX" data-name="Veracruz" data-p="VER"/><path d="M342,244L343,244L343,244L344,245L344,244L343,244L343,244L342,244Z M347,225L347,225L346,226L346,226L344,229L343,229L344,229L342,236L341,238L343,243L343,243L356,250L369,261L371,253L368,251L373,238L390,235L390,231L384,226L379,224L377,222L375,221L375,221L370,216L367,214L360,220L358,223L354,221L353,216L349,216L349,220L347,224L347,225Z " data-fips="MX05" data-fips-="" data-iso3="MEX" data-name="Chiapas" data-p="CHP"/><path d="M426,163L423,164L423,166L426,163Z M414,152L415,160L415,162L412,167L408,169L404,174L396,180L395,182L395,183L396,184L401,188L401,195L403,200L402,206L402,205L406,206L407,203L409,197L412,196L412,192L415,192L415,195L417,196L418,199L419,192L419,190L419,183L418,182L420,180L417,180L418,176L419,174L418,172L420,165L423,161L424,154L424,155L420,150L418,149L414,152L414,152Z " data-fips="MX23" data-fips-="" data-iso3="MEX" data-name="Quintana Roo" data-p="ROO"/><path d="M414,152L406,152L401,155L399,156L393,159L385,162L380,167L380,169L380,169L389,177L391,179L394,182L395,183L395,182L396,180L404,174L408,169L412,167L415,162L415,160L414,152L414,152Z " data-fips="MX31" data-fips-="" data-iso3="MEX" data-name="Yucatn" data-p="YUC"/></g></svg>