<?xml version="1.0" encoding="UTF-8"?><!DOCTYPE svg  PUBLIC '-//W3C//DTD SVG 1.1//EN'  'http://www.w3.org/Graphics/SVG/1.1/DTD/svg11.dtd'><svg enable_background="new 0 0 450 301" height="301px" style="stroke-linejoin: round; stroke:#000; fill:#f6f3f0;" version="1.1" viewBox="0 0 450 301" width="450px" xmlns="http://www.w3.org/2000/svg" xmlns:xlink="http://www.w3.org/1999/xlink"><defs><style type="text/css"><![CDATA[path { fill-rule: evenodd; }
#context path { fill: #eee; stroke: #bbb; } ]]></style></defs><metadata><views><view h="301.0" padding="0.06" w="450"><proj id="laea" lat0="41.0369140691" lon0="20.7382162685"/><bbox h="21.73" w="26.47" x="995.86" y="982.0"/><llbbox lat0="-90" lat1="90" lon0="-180" lon1="180"/></view></views></metadata><g id="context"><path d="M129,279L128,276L125,270L117,268L100,270L96,266L89,243L84,240L78,232L68,208L68,197L68,187L63,165L66,160L72,156L72,147L70,134L76,107L78,106L80,98L79,82L73,55L68,46L58,37L51,32L37,26L31,12L24,0L0,0L0,299L131,299L128,292L129,279Z " data-iso="ALB"/><path d="M301,29L321,54L332,64L345,71L359,77L365,82L374,109L379,119L385,122L387,125L387,128L381,148L379,190L377,193L391,195L408,195L419,184L435,183L443,181L450,182L450,0L324,0L324,7L314,21L311,26L301,29Z " data-iso="BGR"/><path d="M377,193L370,193L361,195L357,198L354,221L338,228L324,232L312,231L292,226L285,226L279,229L260,231L252,235L233,262L214,271L207,276L192,270L185,269L175,276L152,277L146,278L129,279L128,292L131,299L450,299L450,182L443,181L435,183L419,184L408,195L391,195L377,193Z " data-iso="GRC"/><path d="M78,106L80,107L94,109L98,106L101,100L101,81L105,72L140,55L151,54L159,62L165,67L169,67L170,62L174,52L182,47L203,42L203,42L201,36L198,28L199,24L209,18L210,12L216,0L24,0L31,12L37,26L51,32L58,37L68,46L73,55L79,82L80,98L78,106Z " data-iso="KOS"/><path d="M298,28L293,23L288,22L277,28L265,31L255,29L246,28L240,31L235,32L226,38L210,42L203,42L203,42L182,47L174,52L170,62L169,67L165,67L159,62L151,54L140,55L105,72L101,81L101,100L98,106L94,109L80,107L78,106L76,107L70,134L72,147L72,156L66,160L63,165L68,187L68,197L68,208L78,232L84,240L89,243L96,266L100,270L117,268L125,270L128,276L129,279L146,278L152,277L175,276L185,269L192,270L207,276L214,271L233,262L252,235L260,231L279,229L285,226L292,226L312,231L324,232L338,228L354,221L357,198L361,195L370,193L377,193L379,190L381,148L387,128L387,125L385,122L379,119L374,109L365,82L359,77L345,71L332,64L321,54L301,29L298,28Z " data-iso="MKD"/><path d="M203,42L210,42L226,38L235,32L240,31L246,28L255,29L265,31L277,28L288,22L293,23L298,28L301,29L311,26L314,21L324,7L324,0L216,0L210,12L209,18L199,24L198,28L201,36L203,42Z " data-iso="SRB"/></g><g fill="red" fill-opacity="0.35" id="regions"><path d="M100,226L99,226L91,225L90,226L87,234L86,240L88,240L90,244L93,255L95,265L97,269L99,270L104,267L107,258L109,253L108,247L109,236L105,234L100,227L100,226Z " data-fips="MK" data-fips-="" data-iso3="MKD" data-name="Ohrid"/><path d="M138,218L137,220L133,224L125,229L124,230L120,236L119,245L118,245L119,254L118,256L113,257L112,259L112,267L112,267L119,268L126,270L128,272L129,275L148,279L157,276L160,276L165,277L167,269L160,263L158,258L156,257L151,257L146,247L144,247L143,244L147,238L146,233L146,233L145,232L144,230L142,220L139,219L138,218L138,218Z " data-fips="MK86" data-fips-="" data-iso3="MKD" data-name="Resen"/><path d="M93,182L93,182L93,181L92,182L91,183L90,185L88,186L74,186L75,186L74,191L71,195L69,197L67,205L69,214L71,218L76,225L78,229L78,236L79,238L84,240L86,240L86,240L87,234L90,226L91,225L99,226L100,226L100,226L100,225L100,224L101,214L103,207L102,206L99,201L99,193L93,182L93,182Z " data-fips="MK99" data-fips-="" data-iso3="MKD" data-name="Vevcani"/><path d="M173,218L173,218L172,217L171,216L170,217L170,217L164,222L163,223L153,230L147,232L146,233L146,233L147,238L143,244L144,247L146,247L151,257L156,257L158,258L160,263L167,269L165,277L167,277L171,277L176,276L178,275L182,271L185,269L188,269L198,270L199,267L198,262L193,255L191,254L189,249L188,247L188,240L188,239L188,239L180,239L179,231L176,229L173,223L175,220L174,218L173,218Z " data-fips="MK06" data-fips-="" data-iso3="MKD" data-name="Bitola"/><path d="M150,188L146,192L144,194L134,194L128,197L128,199L127,199L128,202L132,206L134,210L136,211L137,215L137,216L138,217L138,218L138,218L139,219L142,220L144,230L145,232L146,233L147,232L153,230L163,223L164,222L170,217L170,217L170,215L171,210L167,203L166,201L161,201L161,194L160,193L155,193L154,190L152,189L151,188L150,188Z " data-fips="MK24" data-fips-="" data-iso3="MKD" data-name="Demir Hisar"/><path d="M100,225L100,226L100,226L100,227L105,234L109,236L108,247L109,253L107,258L104,267L99,270L100,271L103,272L106,271L110,267L112,267L112,259L113,257L118,256L119,254L118,245L119,245L120,236L124,230L125,229L133,224L137,220L138,218L138,217L137,216L135,216L129,215L126,213L123,212L118,211L116,212L110,213L110,215L107,219L107,221L104,225L100,225L100,225Z " data-fips="MK74" data-fips-="" data-iso3="MKD" data-name="Ohrid"/><path d="M127,198L122,194L121,192L121,188L120,185L114,182L111,182L94,181L93,182L93,182L99,193L99,201L102,206L103,207L101,214L100,224L100,225L100,225L104,225L107,221L107,219L110,215L110,213L116,212L118,211L123,212L126,213L129,215L135,216L137,216L137,215L136,211L134,210L132,206L128,202L127,199L128,199L127,198Z " data-fips="MK00" data-fips-="" data-iso3="MKD" data-name="Debarca"/><path d="M235,93L232,90L228,90L226,91L225,89L220,87L220,86L219,86L218,95L212,94L211,95L207,97L207,97L206,98L205,99L205,99L205,99L205,100L207,101L207,101L208,102L213,103L213,110L212,114L212,114L212,115L217,115L217,116L224,117L226,111L227,102L228,102L233,99L234,98L234,96L235,94L236,93L235,93Z " data-fips="MK79" data-fips-="" data-iso3="MKD" data-name="Skopje"/><path d="M158,180L154,178L152,173L150,172L143,175L143,175L141,174L138,176L140,182L141,181L142,181L142,181L143,181L149,185L150,185L150,185L151,184L156,182L158,181L158,181L158,180Z " data-fips="MK80" data-fips-="" data-iso3="MKD" data-name="Southwestern"/><path d="M231,178L231,178L230,175L226,173L218,178L217,180L214,181L213,179L210,178L210,178L210,178L207,182L206,184L195,188L191,189L186,194L185,194L185,195L183,196L185,199L188,200L186,208L181,212L180,212L180,212L180,214L185,215L190,221L193,222L194,223L202,223L204,225L209,227L210,227L211,226L212,226L214,229L216,230L231,234L235,238L241,238L244,240L248,242L248,239L249,238L250,236L252,235L251,230L248,230L246,226L246,220L244,217L245,208L239,208L238,203L237,189L237,180L234,183L231,180L231,178Z " data-fips="MK82" data-fips-="" data-iso3="MKD" data-name="Prilep"/><path d="M300,76L297,74L290,74L289,81L282,79L280,77L274,79L270,80L268,81L267,84L263,83L262,83L262,83L261,88L261,89L266,93L271,101L270,103L272,105L272,105L273,105L276,106L277,105L278,106L278,107L278,106L281,109L283,109L287,109L288,108L285,105L283,101L288,98L291,91L292,91L292,91L295,88L298,84L300,82L301,79L301,78L300,76Z " data-fips="MK83" data-fips-="" data-iso3="MKD" data-name="Probistip"/><path d="M338,128L335,127L328,121L325,123L321,124L316,121L316,121L315,121L313,124L313,126L311,130L311,131L310,131L306,139L300,137L297,139L299,144L299,148L301,150L301,150L302,151L313,154L314,154L319,161L318,164L323,165L324,166L325,165L324,162L326,161L329,158L335,163L337,161L336,153L333,149L339,144L340,144L339,142L339,140L342,135L339,133L338,129L338,128L338,128Z " data-fips="MK84" data-fips-="" data-iso3="MKD" data-name="Radovis"/><path d="M264,32L265,40L261,42L262,49L264,52L262,55L262,55L263,56L265,57L266,61L271,62L277,68L282,66L283,64L290,63L295,62L297,63L301,65L302,66L302,66L306,65L310,65L311,65L311,65L314,64L315,62L322,57L321,54L319,49L314,46L302,29L299,29L293,24L292,20L291,20L287,23L270,31L266,32L264,32Z " data-fips="MK85" data-fips-="" data-iso3="MKD" data-name="Kriva Palanka"/><path d="M257,158L255,159L255,161L250,161L246,164L241,163L241,167L240,169L237,170L237,170L237,172L236,173L236,175L236,176L237,177L238,179L248,179L249,176L255,178L255,176L257,174L258,168L258,167L258,167L258,164L258,161L258,159L258,159L257,158Z " data-fips="MK87" data-fips-="" data-iso3="MKD" data-name="Vardar"/><path d="M163,67L162,66L160,69L154,69L152,70L156,72L157,74L154,77L155,83L150,85L150,86L150,86L157,90L156,99L160,104L160,105L160,104L173,95L175,94L178,93L178,93L178,92L178,89L178,86L175,86L173,84L170,76L169,74L166,76L164,75L164,68L163,67Z " data-fips="MK90" data-fips-="" data-iso3="MKD" data-name="Saraj"/><path d="M187,93L184,93L182,93L179,93L178,93L178,93L175,94L173,95L160,104L160,105L160,106L163,108L163,110L162,115L163,115L164,116L170,124L172,128L174,130L176,131L177,130L177,130L176,124L177,122L175,119L177,117L177,115L180,109L181,108L176,107L175,103L176,102L181,102L183,103L189,103L189,98L189,96L189,96L189,94L189,93L188,93L187,93L187,93Z " data-fips="MK92" data-fips-="" data-iso3="MKD" data-name="Sopiste"/><path d="M262,31L258,30L251,26L248,27L244,31L238,31L235,31L223,39L227,42L230,43L231,46L228,47L228,60L232,66L233,66L240,63L246,65L250,62L251,65L252,67L252,66L254,66L258,61L258,55L261,55L262,55L262,55L264,52L262,49L261,42L265,40L264,32L262,31Z " data-fips="MK97" data-fips-="" data-iso3="MKD" data-name="Northeastern"/><path d="M278,106L277,105L276,106L273,105L272,105L272,106L270,109L270,115L266,121L265,127L264,128L266,130L264,130L262,128L261,128L261,128L261,131L257,132L255,130L252,134L252,136L255,138L255,140L255,140L255,140L258,140L259,140L261,141L261,142L262,142L264,143L268,147L269,147L271,144L274,152L275,152L279,152L281,153L282,156L288,160L292,160L293,160L293,160L293,159L301,152L301,150L301,150L299,148L299,144L297,139L300,137L306,139L310,131L311,131L310,130L308,130L300,132L298,132L292,126L287,124L283,121L277,120L276,118L275,111L276,108L278,107L278,106Z " data-fips="MK98" data-fips-="" data-iso3="MKD" data-name="tip"/><path d="M204,97L204,96L203,96L203,96L202,96L201,97L201,97L200,98L195,102L194,97L190,97L189,96L189,98L189,103L183,103L181,102L176,102L175,103L176,107L181,108L180,109L177,115L177,117L175,119L177,122L176,124L177,130L177,130L178,130L180,132L182,140L183,141L183,141L184,139L187,134L189,129L193,128L194,127L194,127L192,115L194,112L197,115L201,106L207,102L207,101L207,101L205,100L205,99L205,99L204,97Z " data-fips="MKA2" data-fips-="" data-iso3="MKD" data-name="Studenicani"/><path d="M186,77L183,75L182,76L182,79L183,79L186,83L187,82L186,80L186,78L186,78L186,77Z " data-fips="MKA3" data-fips-="" data-iso3="MKD" data-name="Cair"/><path d="M262,83L261,83L260,83L258,83L257,83L257,83L257,85L252,87L250,88L247,84L242,84L239,87L237,92L236,93L236,93L235,94L234,96L234,98L234,99L235,104L236,106L239,110L240,111L240,111L243,112L260,127L261,128L262,128L264,130L266,130L264,128L265,127L266,121L270,115L270,109L272,106L272,105L272,105L270,103L271,101L266,93L261,89L261,88L262,83L262,83L262,83Z " data-fips="MKA4" data-fips-="" data-iso3="MKD" data-name="Sveti Nikole"/><path d="M239,110L236,106L235,104L234,99L234,98L233,99L228,102L227,102L226,111L224,117L217,116L217,115L212,115L212,114L212,114L213,122L210,127L205,128L205,128L205,128L208,133L215,134L219,137L221,145L223,146L225,144L226,149L230,151L231,151L231,149L235,147L239,140L241,138L242,133L242,132L242,131L237,127L239,121L236,117L240,112L240,111L239,110Z " data-fips="MKB1" data-fips-="" data-iso3="MKD" data-name="Veles"/><path d="M143,174L144,171L148,168L152,164L152,163L146,155L146,155L145,156L142,160L141,160L136,168L134,168L132,169L131,172L130,174L130,174L129,179L133,182L134,184L139,184L142,183L142,181L141,181L140,182L138,176L141,174L143,175L143,174Z " data-fips="MKB6" data-fips-="" data-iso3="MKD" data-name="Vranetica"/><path d="M212,114L213,110L213,103L208,102L207,101L207,102L201,106L197,115L194,112L192,115L194,127L194,127L195,128L197,128L204,127L205,128L205,128L210,127L213,122L212,114L212,114L212,114Z " data-fips="MKC2" data-fips-="" data-iso3="MKD" data-name="Zelenikovo"/><path d="M150,86L147,87L142,85L142,84L137,83L137,83L136,83L137,88L139,90L135,92L135,92L136,93L140,98L140,100L143,101L142,108L147,109L148,110L153,111L155,109L156,110L156,111L157,112L159,113L160,114L162,115L163,115L162,115L163,110L163,108L160,106L160,105L160,104L156,99L157,90L150,86L150,86L150,86Z " data-fips="MKC3" data-fips-="" data-iso3="MKD" data-name="elino"/><path d="M209,74L205,77L204,76L202,73L201,72L201,72L202,81L202,82L201,86L201,86L201,86L202,86L207,84L212,77L213,77L213,77L213,75L212,74L210,73L209,74L209,74Z " data-fips="MK01" data-fips-="" data-iso3="MKD" data-name="Aracinovo"/><path d="M218,44L211,42L195,43L193,42L192,43L195,50L198,55L197,57L195,59L194,60L194,61L195,63L196,65L197,66L198,68L200,71L201,72L202,73L204,76L205,77L209,74L209,74L208,73L209,71L211,69L213,66L213,62L217,56L219,55L218,50L218,44L218,44Z " data-fips="MK01" data-fips-="" data-iso3="MKD" data-name="Lipkovo"/><path d="M193,59L191,60L188,68L188,72L188,78L187,79L186,78L186,78L186,80L187,82L187,82L187,83L187,83L187,83L188,84L189,84L189,84L191,84L192,82L192,73L196,67L197,66L196,65L195,63L194,61L194,60L193,59Z " data-fips="MK13" data-fips-="" data-iso3="MKD" data-name="Butel"/><path d="M204,127L197,128L195,128L194,127L193,128L189,129L187,134L184,139L183,141L183,142L183,144L181,152L181,153L182,153L187,155L188,157L191,160L192,161L192,167L195,170L201,170L202,173L203,174L208,175L210,177L210,178L210,178L213,179L214,181L217,180L218,178L226,173L230,175L231,178L231,178L231,178L234,175L235,175L236,175L236,176L236,175L236,173L237,172L237,170L236,170L233,167L236,160L235,159L231,151L231,151L230,151L226,149L225,144L223,146L221,145L219,137L215,134L208,133L205,128L205,128L204,127Z " data-fips="MK15" data-fips-="" data-iso3="MKD" data-name="Caka"/><path d="M188,84L187,83L187,83L187,83L187,85L187,85L188,86L188,87L189,87L189,87L189,85L189,84L188,84Z " data-fips="MK17" data-fips-="" data-iso3="MKD" data-name="Centar"/><path d="M316,117L316,109L316,107L314,104L314,104L314,104L311,107L309,106L305,108L305,108L305,111L305,112L306,113L309,117L309,117L310,118L313,118L316,118L316,118L316,117Z " data-fips="MK19" data-fips-="" data-iso3="MKD" data-name="Eastern"/><path d="M291,91L288,98L283,101L285,105L288,108L289,110L295,115L303,115L308,118L309,118L309,117L309,117L306,113L305,112L305,111L305,108L304,108L300,99L301,96L296,96L294,95L292,91L292,91L291,91Z " data-fips="MK19" data-fips-="" data-iso3="MKD" data-name="Ceinovo-Obleevo"/><path d="M171,67L176,72L178,77L178,79L180,79L182,82L183,83L186,84L187,83L187,83L187,83L187,82L187,82L186,83L183,79L182,79L182,76L183,75L186,77L186,78L187,79L188,78L188,72L188,68L191,60L193,59L194,60L195,59L197,57L198,55L195,50L192,43L192,43L188,42L186,44L187,46L185,47L181,46L179,46L170,59L171,67L171,67Z " data-fips="MK20" data-fips-="" data-iso3="MKD" data-name="Cucer Sandevo"/><path d="M302,179L303,173L303,171L299,170L298,169L298,170L295,172L293,175L285,171L282,175L280,180L277,184L279,189L274,193L272,193L271,193L271,193L279,200L281,203L287,205L289,205L296,201L297,200L297,200L299,197L305,197L305,193L303,188L303,188L303,187L302,185L302,181L302,180L302,179Z " data-fips="MK25" data-fips-="" data-iso3="MKD" data-name="Demir Kapija"/><path d="M210,177L208,175L203,174L202,173L201,170L195,170L192,167L192,161L191,160L188,157L187,155L182,153L181,153L180,153L179,158L175,165L175,170L171,169L170,169L166,173L166,174L167,175L172,181L171,182L167,182L168,185L172,189L173,190L173,190L177,188L178,193L185,194L185,194L186,194L191,189L195,188L206,184L207,182L210,178L210,178L210,177Z " data-fips="MK28" data-fips-="" data-iso3="MKD" data-name="Dolneni"/><path d="M200,71L198,68L197,66L196,67L192,73L192,82L191,84L189,84L189,84L189,85L189,87L190,87L194,89L196,91L202,94L203,96L203,96L204,96L204,97L205,99L205,99L206,98L207,97L206,97L205,92L200,88L200,87L201,86L201,86L202,82L202,81L201,72L201,72L200,71Z " data-fips="MK32" data-fips-="" data-iso3="MKD" data-name="Gazi Baba"/><path d="M254,141L252,143L248,143L246,140L246,135L242,132L242,132L242,133L241,138L239,140L235,147L231,149L231,151L231,151L235,159L236,160L233,167L236,170L237,170L237,170L240,169L241,167L241,163L246,164L250,161L255,161L255,159L257,158L258,159L258,159L262,163L263,159L262,156L264,152L262,151L260,152L257,151L258,148L261,143L261,142L261,141L259,140L258,140L255,140L255,140L254,141Z " data-fips="MK35" data-fips-="" data-iso3="MKD" data-name="Gradsko"/><path d="M260,127L243,112L240,111L240,111L240,112L236,117L239,121L237,127L242,131L242,132L242,132L246,135L246,140L248,143L252,143L254,141L255,140L255,140L255,138L252,136L252,134L255,130L257,132L261,131L261,128L261,128L260,127Z " data-fips="MK35" data-fips-="" data-iso3="MKD" data-name="Lozovo"/><path d="M323,165L318,164L319,161L314,154L313,154L302,151L301,150L301,152L293,159L293,160L293,160L294,161L296,162L298,167L298,169L298,169L299,170L303,171L303,173L302,179L302,180L303,180L304,179L307,177L315,176L317,176L317,176L317,176L318,175L320,174L325,174L325,172L325,172L325,171L324,169L324,166L324,166L323,165Z " data-fips="MK35" data-fips-="" data-iso3="MKD" data-name="Konce"/><path d="M219,86L220,82L218,81L213,78L213,77L212,77L207,84L202,86L201,86L201,86L200,87L200,88L205,92L206,97L207,97L207,97L211,95L212,94L218,95L219,86L220,86L219,86Z " data-fips="MK36" data-fips-="" data-iso3="MKD" data-name="Ilinden"/><path d="M287,109L283,109L281,109L278,106L278,107L276,108L275,111L276,118L277,120L283,121L287,124L292,126L298,132L300,132L308,130L310,130L311,131L311,130L313,126L313,124L315,121L316,121L316,120L316,118L316,118L313,118L310,118L309,117L309,118L308,118L303,115L295,115L289,110L288,108L287,109Z " data-fips="MK40" data-fips-="" data-iso3="MKD" data-name="Karbinci"/><path d="M186,84L183,83L182,82L180,79L178,79L178,80L178,84L178,86L178,89L178,92L178,93L179,93L182,93L184,93L187,93L187,93L187,92L187,92L187,91L187,89L188,89L187,88L188,87L188,87L188,86L187,85L187,85L187,83L186,84Z " data-fips="MK41" data-fips-="" data-iso3="MKD" data-name="Karpo"/><path d="M258,167L258,168L257,174L255,176L255,178L249,176L248,179L238,179L237,177L236,176L236,175L235,175L234,175L231,178L231,178L231,180L234,183L237,180L237,189L238,203L239,208L245,208L244,217L246,220L246,226L248,230L251,230L252,235L253,234L257,232L265,229L267,227L269,229L273,232L277,231L282,227L284,225L287,225L288,225L288,223L291,220L294,219L293,212L294,212L299,209L298,207L298,203L297,200L297,200L296,201L289,205L287,205L281,203L279,200L271,193L271,193L271,193L269,192L269,189L268,187L267,178L266,172L266,168L259,168L258,167Z " data-fips="MK42" data-fips-="" data-iso3="MKD" data-name="Kavadartsi"/><path d="M189,87L188,87L188,87L187,88L188,89L189,90L192,92L198,94L200,96L201,97L201,97L202,96L203,96L202,94L196,91L194,89L190,87L189,87L189,87Z " data-fips="MK44" data-fips-="" data-iso3="MKD" data-name="Aerodrom"/><path d="M200,96L198,94L192,92L189,90L188,89L187,89L187,91L187,92L187,92L187,93L188,93L189,93L189,94L189,96L189,96L190,97L194,97L195,102L200,98L201,97L200,96Z " data-fips="MK44" data-fips-="" data-iso3="MKD" data-name="Skopje"/><path d="M310,65L306,65L302,66L302,66L302,67L304,70L303,72L302,75L301,78L301,79L300,82L298,84L295,88L292,91L292,91L292,91L294,95L296,96L301,96L300,99L304,108L305,108L305,108L309,106L311,107L314,104L314,104L314,104L315,103L315,97L317,90L319,90L323,92L324,92L325,91L325,90L324,84L323,83L321,76L317,74L315,66L311,66L311,65L310,65Z " data-fips="MK46" data-fips-="" data-iso3="MKD" data-name="Kocani"/><path d="M261,55L258,55L258,61L254,66L252,66L252,67L252,67L251,70L249,74L253,75L257,82L257,83L258,83L260,83L261,83L262,83L262,83L263,83L267,84L268,81L270,80L274,79L280,77L282,79L289,81L290,74L297,74L300,76L301,78L302,75L303,72L304,70L302,67L302,66L301,65L297,63L295,62L290,63L283,64L282,66L277,68L271,62L266,61L265,57L263,56L262,55L261,55Z " data-fips="MK51" data-fips-="" data-iso3="MKD" data-name="Kratovo"/><path d="M185,194L178,193L177,188L173,190L173,190L173,190L173,196L176,201L176,202L174,208L176,208L176,209L176,209L178,210L179,211L179,212L180,212L181,212L186,208L188,200L185,199L183,196L185,195L185,194L185,194Z " data-fips="MK53" data-fips-="" data-iso3="MKD" data-name="Krivogatani"/><path d="M166,174L164,174L164,179L160,180L158,181L158,181L156,182L151,184L150,185L150,185L150,186L151,188L151,188L152,189L154,190L155,193L160,193L161,194L161,201L166,201L167,203L171,210L170,215L170,217L171,216L172,217L173,218L173,218L173,217L172,215L173,214L175,209L176,209L176,208L174,208L176,202L176,201L173,196L173,190L173,190L172,189L168,185L167,182L171,182L172,181L167,175L166,174L166,174Z " data-fips="MK54" data-fips-="" data-iso3="MKD" data-name="Kruevo"/><path d="M251,65L250,62L246,65L240,63L233,66L232,66L228,60L228,47L231,46L230,43L227,42L223,39L221,40L220,42L218,44L218,50L219,55L217,56L213,62L213,66L211,69L209,71L208,73L209,74L210,73L212,74L213,75L213,77L213,77L213,78L218,81L220,82L219,86L220,86L220,87L225,89L226,91L228,90L232,90L235,93L236,93L236,93L237,92L239,87L242,84L247,84L250,88L252,87L257,85L257,83L257,83L257,82L253,75L249,74L251,70L252,67L252,67L251,65Z " data-fips="MK57" data-fips-="" data-iso3="MKD" data-name="Kumanovo"/><path d="M156,111L154,111L145,121L143,122L142,122L140,122L139,129L138,129L137,132L139,133L140,141L140,144L140,145L144,146L145,147L146,153L146,155L146,155L152,163L152,164L148,168L144,171L143,174L143,175L143,175L150,172L152,173L154,178L158,180L158,181L160,180L164,179L164,174L166,174L166,174L166,173L170,169L171,169L175,170L175,165L179,158L180,153L181,153L181,152L183,144L183,142L183,141L183,141L182,140L180,132L178,130L177,130L176,131L174,130L172,128L170,124L164,116L163,115L162,115L160,114L159,113L157,112L156,111L156,111Z " data-fips="MK63" data-fips-="" data-iso3="MKD" data-name="Brod"/><path d="M179,212L179,211L178,210L176,209L176,209L175,209L173,214L172,215L173,217L173,218L174,218L175,220L173,223L176,229L179,231L180,239L188,239L188,239L189,239L190,237L195,236L203,238L204,237L209,230L210,227L210,227L209,227L204,225L202,223L194,223L193,222L190,221L185,215L180,214L180,212L180,212L179,212Z " data-fips="MK67" data-fips-="" data-iso3="MKD" data-name="Pelagonia"/><path d="M292,160L288,160L282,156L281,153L279,152L275,152L274,152L271,144L269,147L268,147L264,143L262,142L261,142L261,143L258,148L257,151L260,152L262,151L264,152L262,156L263,159L262,163L258,159L258,159L258,159L258,161L258,164L258,167L258,167L259,168L266,168L266,172L267,178L268,187L269,189L269,192L271,193L271,193L272,193L274,193L279,189L277,184L280,180L282,175L285,171L293,175L295,172L298,170L298,169L298,169L298,167L296,162L294,161L293,160L292,160Z " data-fips="MK69" data-fips-="" data-iso3="MKD" data-name="Negotino"/><path d="M210,227L210,227L209,230L204,237L203,238L195,236L190,237L189,239L188,239L188,240L188,247L189,249L191,254L193,255L198,262L199,267L198,270L199,270L204,275L208,276L213,271L217,271L221,266L228,267L232,266L233,264L234,259L246,246L248,243L248,242L244,240L241,238L235,238L231,234L216,230L214,229L212,226L211,226L210,227Z " data-fips="MK71" data-fips-="" data-iso3="MKD" data-name="Novatsi"/><path d="M170,68L170,68L169,69L164,68L164,75L166,76L169,74L170,76L173,84L175,86L178,86L178,84L178,80L178,79L178,77L176,72L171,67L170,68Z " data-fips="MK00" data-fips-="" data-iso3="MKD" data-name="Gjorce Petrov"/><path d="M130,147L128,144L126,143L121,141L120,141L118,141L110,146L107,146L107,150L108,149L109,150L110,150L113,156L115,156L117,160L119,163L119,165L120,165L120,165L121,163L128,160L129,161L129,160L130,157L131,156L131,149L131,148L130,147Z " data-fips="MKC1" data-fips-="" data-iso3="MKD" data-name="Zajas"/><path d="M67,175L69,181L71,181L74,184L74,186L88,186L90,185L91,183L92,182L91,180L89,180L89,175L88,172L86,171L85,167L83,165L78,165L77,167L71,170L67,174L67,175Z " data-fips="MK18" data-fips-="" data-iso3="MKD" data-name="Centar upa"/><path d="M74,155L72,157L63,163L62,168L63,170L66,172L67,174L71,170L77,167L78,165L83,165L85,167L86,171L88,172L89,175L89,180L91,180L92,182L93,181L93,182L94,180L95,175L96,173L98,172L99,173L98,172L98,170L94,168L88,161L82,160L79,158L76,155L74,154L74,155Z " data-fips="MK21" data-fips-="" data-iso3="MKD" data-name="Debar"/><path d="M119,165L119,163L117,160L115,156L113,156L110,150L109,150L109,151L110,155L110,162L108,164L108,168L107,169L105,172L100,173L99,173L98,172L96,173L95,175L94,180L93,182L93,182L94,181L111,182L114,182L120,185L121,188L121,192L122,194L127,198L128,199L128,197L134,194L144,194L146,192L150,188L151,188L151,188L150,186L150,185L149,185L143,181L142,181L142,181L142,183L139,184L134,184L133,182L129,179L130,174L130,174L129,173L120,167L120,166L120,165L119,165Z " data-fips="MK30" data-fips-="" data-iso3="MKD" data-name="Southwestern"/><path d="M128,160L121,163L120,165L120,165L120,166L120,167L129,173L130,174L131,172L132,169L134,168L134,167L134,165L133,164L129,161L129,161L128,160Z " data-fips="MK43" data-fips-="" data-iso3="MKD" data-name="Kicevo"/><path d="M76,119L71,125L70,129L71,142L71,145L74,153L74,154L76,155L79,158L82,160L88,161L94,168L98,170L98,172L99,173L100,173L105,172L107,169L108,168L108,164L110,162L110,155L109,151L109,150L108,149L107,150L107,146L110,146L118,141L120,141L120,140L115,133L117,130L112,130L111,131L110,130L109,126L107,123L98,122L94,126L88,125L82,121L76,118L76,119Z " data-fips="MK64" data-fips-="" data-iso3="MKD" data-name="Mavrovo and Rostusa"/><path d="M140,144L133,146L131,147L131,148L131,149L131,156L130,157L129,160L129,161L129,161L133,164L134,165L134,167L134,168L136,168L141,160L142,160L145,156L146,155L146,153L145,147L144,146L140,145L140,144L140,144Z " data-fips="MK77" data-fips-="" data-iso3="MKD" data-name="Oslomej"/><path d="M136,81L143,80L145,79L145,77L149,72L149,68L146,67L145,64L138,57L136,58L133,60L121,64L128,68L130,73L134,77L134,81L136,82L137,82L136,81Z " data-fips="MKA5" data-fips-="" data-iso3="MKD" data-name="Tearce"/><path d="M109,68L103,73L102,77L100,85L100,89L101,94L109,90L114,86L116,86L123,88L127,92L128,92L128,92L130,90L133,92L134,92L135,92L135,92L139,90L137,88L136,83L137,83L137,82L136,82L134,81L134,77L130,73L128,68L121,64L109,68Z " data-fips="MKA6" data-fips-="" data-iso3="MKD" data-name="Tetovo"/><path d="M101,100L100,103L98,107L97,108L101,111L107,111L109,116L114,117L115,116L118,116L122,117L126,114L126,110L127,110L127,109L127,108L127,106L126,106L126,106L125,105L116,101L112,99L104,98L101,99L101,100Z " data-fips="MKB7" data-fips-="" data-iso3="MKD" data-name="Polog"/><path d="M128,92L127,92L123,88L116,86L114,86L109,90L101,94L102,96L101,99L104,98L112,99L116,101L125,105L126,106L126,106L127,106L127,103L129,101L131,96L128,95L128,93L128,92Z " data-fips="MK10" data-fips-="" data-iso3="MKD" data-name="Bogovinje"/><path d="M134,92L133,92L130,90L128,92L128,92L128,93L128,95L131,96L129,101L127,103L127,106L126,106L127,106L127,108L127,109L127,110L128,110L131,112L136,112L138,116L140,118L142,121L143,122L145,121L154,111L156,111L156,111L156,110L155,109L153,111L148,110L147,109L142,108L143,101L140,100L140,98L136,93L135,92L134,92Z " data-fips="MK12" data-fips-="" data-iso3="MKD" data-name="Brvenica"/><path d="M76,118L82,121L88,125L94,126L98,122L107,123L109,126L110,130L111,131L112,130L117,130L115,133L120,140L120,141L121,141L126,143L128,144L130,147L131,148L131,147L133,146L140,144L140,144L140,141L139,133L137,132L138,129L139,129L140,122L142,122L143,122L142,121L140,118L138,116L136,112L131,112L128,110L127,110L126,110L126,114L122,117L118,116L115,116L114,117L109,116L107,111L101,111L97,108L95,110L93,111L89,106L87,106L86,109L83,110L78,106L75,110L76,116L76,118Z " data-fips="MK34" data-fips-="" data-iso3="MKD" data-name="Gostivar"/><path d="M161,66L158,60L153,56L149,52L145,51L142,53L138,57L145,64L146,67L149,68L149,72L145,77L145,79L143,80L136,81L137,82L137,83L137,83L142,84L142,85L147,87L150,86L150,86L150,85L155,83L154,77L157,74L156,72L152,70L154,69L160,69L162,66L161,66Z " data-fips="MK38" data-fips-="" data-iso3="MKD" data-name="Jegunovce"/><path d="M345,171L344,173L337,174L334,170L329,168L328,168L325,173L325,172L325,174L320,174L318,175L317,176L317,176L317,177L323,182L327,182L328,186L326,188L330,196L338,197L338,198L346,196L348,192L358,196L360,194L362,194L362,186L361,184L361,183L360,183L356,184L353,180L348,180L349,176L347,171L346,171L345,171Z " data-fips="MKA1" data-fips-="" data-iso3="MKD" data-name="Southeastern"/><path d="M317,176L317,176L315,176L307,177L304,179L303,180L302,180L302,181L302,185L303,187L303,188L304,188L307,188L314,193L318,198L320,199L322,206L325,216L325,216L326,216L329,209L331,209L333,210L333,211L334,211L336,209L338,205L343,205L344,202L352,201L355,202L356,197L358,196L358,196L358,196L348,192L346,196L338,198L338,197L330,196L326,188L328,186L327,182L323,182L317,177L317,176Z " data-fips="MKA8" data-fips-="" data-iso3="MKD" data-name="Valandovo"/><path d="M352,154L346,154L348,151L347,147L342,145L341,146L340,144L340,144L339,144L333,149L336,153L337,161L335,163L329,158L326,161L324,162L325,165L324,166L324,166L324,169L325,171L325,172L325,172L325,173L328,168L329,168L334,170L337,174L344,173L345,171L346,171L346,171L349,169L351,167L353,164L353,156L353,154L352,154Z " data-fips="MKA9" data-fips-="" data-iso3="MKD" data-name="Vasilevo"/><path d="M333,211L333,210L331,209L329,209L326,216L325,216L326,216L328,219L327,226L331,227L334,228L336,230L337,230L341,225L341,221L345,221L345,221L346,220L345,216L342,214L337,215L334,211L333,211Z " data-fips="MK08" data-fips-="" data-iso3="MKD" data-name="Bogdanci"/><path d="M369,163L366,161L360,160L356,159L354,155L353,154L353,156L353,164L351,167L349,169L346,171L346,171L347,171L349,176L348,180L353,180L356,184L360,183L361,183L361,183L362,182L362,175L369,167L369,164L369,163L369,163Z " data-fips="MK11" data-fips-="" data-iso3="MKD" data-name="Southeastern"/><path d="M303,188L303,188L305,193L305,197L299,197L297,200L297,200L297,200L298,203L298,207L299,209L294,212L293,212L294,219L291,220L288,223L288,225L290,225L295,227L300,227L301,231L308,230L319,232L325,231L334,231L336,230L334,228L331,227L327,226L328,219L326,216L325,216L325,216L322,206L320,199L318,198L314,193L307,188L304,188L303,188Z " data-fips="MK33" data-fips-="" data-iso3="MKD" data-name="Southeastern"/><path d="M380,162L378,162L373,163L370,163L369,163L369,164L369,167L362,175L362,182L361,183L361,183L361,184L362,186L362,194L366,193L378,193L381,191L381,188L380,184L381,173L380,162Z " data-fips="MK72" data-fips-="" data-iso3="MKD" data-name="Novo Selo"/><path d="M333,211L334,211L337,215L342,214L345,216L346,220L345,221L346,222L350,227L353,226L355,216L355,203L355,202L352,201L344,202L343,205L338,205L336,209L334,211L333,211Z " data-fips="MK00" data-fips-="" data-iso3="MKD" data-name="Dojran"/><path d="M334,84L331,85L329,91L327,92L325,91L325,91L324,92L323,92L319,90L317,90L315,97L315,103L314,104L314,104L314,104L316,107L316,109L316,117L316,118L316,120L316,121L316,121L321,124L325,123L328,121L335,127L338,128L338,128L338,128L343,127L344,125L345,121L345,114L345,114L345,114L347,103L349,99L338,95L336,88L336,86L336,85L334,84Z " data-fips="MKB4" data-fips-="" data-iso3="MKD" data-name="Vinitsa"/><path d="M345,114L345,121L344,125L343,127L338,128L338,128L338,129L339,133L342,135L339,140L339,142L340,144L340,144L341,146L342,145L347,147L348,151L346,154L352,154L353,154L354,155L356,159L360,160L366,161L369,163L369,163L370,163L373,163L378,162L380,162L380,159L378,149L379,142L382,141L384,137L385,135L379,133L375,130L371,130L371,128L363,126L359,127L356,118L355,117L355,117L353,116L351,115L345,115L345,114L345,114Z " data-fips="MK04" data-fips-="" data-iso3="MKD" data-name="Berovo"/><path d="M338,68L338,80L337,80L335,82L336,85L336,86L336,88L338,95L349,99L347,103L345,114L345,114L345,115L351,115L353,116L355,117L355,117L357,117L362,113L365,108L371,103L371,102L368,90L365,78L363,77L360,77L357,74L344,71L338,68Z " data-fips="MK22" data-fips-="" data-iso3="MKD" data-name="Delcevo"/><path d="M322,57L315,62L314,64L311,65L311,65L311,66L315,66L317,74L321,76L323,83L324,84L325,90L325,91L325,91L327,92L329,91L331,85L334,84L336,85L335,82L337,80L338,80L338,68L337,67L326,60L323,57L322,57Z " data-fips="MK52" data-fips-="" data-iso3="MKD" data-name="Makedonska Kamenica"/><path d="M371,103L365,108L362,113L357,117L355,117L356,118L359,127L363,126L371,128L371,130L375,130L379,133L385,135L386,133L388,129L387,125L385,121L381,120L376,112L374,106L371,103L371,103Z " data-fips="MK78" data-fips-="" data-iso3="MKD" data-name="Phecevo"/></g></svg>