<?xml version="1.0" encoding="UTF-8"?><!DOCTYPE svg  PUBLIC '-//W3C//DTD SVG 1.1//EN'  'http://www.w3.org/Graphics/SVG/1.1/DTD/svg11.dtd'><svg enable_background="new 0 0 450 301" height="301px" style="stroke-linejoin: round; stroke:#000; fill:#f6f3f0;" version="1.1" viewBox="0 0 450 301" width="450px" xmlns="http://www.w3.org/2000/svg" xmlns:xlink="http://www.w3.org/1999/xlink"><defs><style type="text/css"><![CDATA[path { fill-rule: evenodd; }
#context path { fill: #eee; stroke: #bbb; } ]]></style></defs><metadata><views><view h="301.0" padding="0.06" w="450"><proj id="laea" lat0="20.0259614118" lon0="-3.91809969013"/><bbox h="206.58" w="219.24" x="888.66" y="926.71"/><llbbox lat0="-90" lat1="90" lon0="-180" lon1="180"/></view></views></metadata><g id="context"><path d="M359,252L358,250L345,240L339,243L338,247L338,249L338,250L331,258L329,258L320,259L313,266L312,266L312,268L310,277L320,284L321,295L325,299L351,299L352,295L352,292L356,288L355,286L359,284L361,279L360,278L363,274L364,271L362,269L362,263L357,258L358,253L359,252Z " data-iso="BEN"/><path d="M295,195L291,194L282,194L279,197L265,205L261,205L259,211L253,209L247,212L246,215L245,219L239,220L238,226L233,228L229,225L225,225L220,229L222,235L218,237L219,243L216,247L212,249L207,250L203,252L204,258L203,263L200,266L199,276L199,277L200,278L208,284L209,286L220,291L230,286L240,287L247,295L249,295L249,294L249,293L247,277L245,272L248,267L269,266L284,267L285,268L291,264L295,264L299,265L305,266L306,267L308,266L312,266L313,266L320,259L329,258L331,258L338,250L338,249L337,248L332,241L334,240L335,238L330,235L328,237L323,237L315,230L313,227L313,224L317,224L306,218L302,211L298,204L299,197L299,197L295,195Z " data-iso="BFA"/><path d="M249,294L249,295L247,295L240,287L230,286L220,291L209,286L208,284L200,278L199,277L199,277L193,278L190,281L187,280L186,272L181,274L179,273L179,278L174,278L171,281L167,280L164,277L162,277L156,281L156,281L155,282L153,293L157,295L157,299L249,299L250,298L249,297L249,295L249,294Z " data-iso="CIV"/><path d="M213,17L218,21L249,43L287,69L312,86L312,91L321,97L321,98L325,100L330,100L335,104L346,107L347,108L348,114L347,121L349,122L360,120L365,119L368,118L390,112L391,111L417,84L450,60L450,0L187,0L206,12L209,15L213,17Z " data-iso="DZA"/><path d="M295,264L291,264L285,268L284,267L269,266L248,267L245,272L247,277L249,293L249,294L249,295L249,297L250,298L249,299L305,299L306,295L303,280L302,279L295,273L296,265L295,264Z " data-iso="GHA"/><path d="M156,281L156,280L155,278L151,276L150,271L150,267L147,265L144,265L149,260L142,254L142,250L138,241L132,240L133,241L127,245L126,247L116,244L113,245L108,249L105,243L98,246L96,240L97,239L96,239L88,239L81,240L72,238L68,234L62,233L56,233L56,234L57,238L56,240L52,241L56,245L56,249L49,251L37,254L32,262L32,264L34,262L38,267L40,266L39,270L42,275L47,278L56,285L57,289L59,291L61,297L62,298L68,294L70,294L77,283L82,284L86,283L86,282L98,282L102,286L108,295L107,299L157,299L157,295L153,293L155,282L156,281Z " data-iso="GIN"/><path d="M9,216L12,218L15,216L25,216L15,217L10,219L3,217L4,221L4,222L6,221L20,222L21,219L30,218L33,216L41,220L48,222L55,221L53,217L47,218L39,214L36,212L31,211L28,212L26,215L8,213L9,216Z " data-iso="GMB"/><path d="M14,259L14,257L12,258L14,259Z M56,233L51,232L31,231L24,234L20,235L13,234L8,236L4,235L9,238L14,244L17,243L17,246L19,247L26,244L25,248L26,250L32,251L26,252L26,255L29,258L29,261L32,259L31,261L32,262L37,254L49,251L56,249L56,245L52,241L56,240L57,238L56,234L56,233Z " data-iso="GNB"/><path d="M11,73L15,72L28,72L36,74L46,75L50,71L50,67L58,60L59,52L63,39L65,35L74,31L88,18L92,12L96,0L54,0L51,7L50,13L47,19L45,20L34,31L26,44L27,45L24,48L23,52L20,57L12,64L11,73Z " data-iso="MAR"/><path d="M360,120L349,122L347,121L348,114L347,108L346,107L335,104L330,100L325,100L321,98L321,97L312,91L312,86L287,69L249,43L218,21L213,17L207,17L184,17L188,57L192,106L198,168L203,173L200,187L144,186L135,185L132,184L130,186L124,187L116,186L111,186L106,191L105,189L94,184L92,185L89,195L86,197L83,196L85,199L87,207L86,217L90,223L93,222L97,230L96,237L97,238L97,239L96,240L98,246L105,243L108,249L113,245L116,244L126,247L127,245L133,241L132,240L138,241L142,250L142,254L149,260L144,265L147,265L150,267L150,271L151,276L155,278L156,280L156,281L156,281L162,277L164,277L167,280L171,281L174,278L179,278L179,273L181,274L186,272L187,280L190,281L193,278L199,277L199,277L199,276L200,266L203,263L204,258L203,252L207,250L212,249L216,247L219,243L218,237L222,235L220,229L225,225L229,225L233,228L238,226L239,220L245,219L246,215L247,212L253,209L259,211L261,205L265,205L279,197L282,194L291,194L295,195L299,197L299,196L308,196L314,192L317,190L355,187L356,185L363,176L366,164L367,157L365,122L365,119L360,120Z " data-iso="MLI"/><path d="M10,79L12,79L14,84L19,87L22,95L20,103L17,108L16,111L20,117L22,131L22,137L21,143L18,149L16,154L12,165L11,173L16,162L17,161L22,162L29,161L39,160L46,161L50,162L55,167L57,170L62,171L65,173L70,183L71,183L75,189L83,196L83,196L86,197L89,195L92,185L94,184L105,189L106,191L111,186L116,186L124,187L130,186L132,184L135,185L144,186L200,187L203,173L198,168L192,106L188,57L184,17L207,17L213,17L209,15L206,12L187,0L97,0L95,41L78,49L76,51L76,79L11,74L9,83L10,79Z " data-iso="MRT"/><path d="M365,119L365,122L367,157L366,164L363,176L356,185L355,187L317,190L314,192L308,196L299,196L299,197L299,197L298,204L302,211L306,218L317,224L313,224L313,227L315,230L323,237L328,237L330,235L335,238L334,240L332,241L337,248L338,249L338,247L339,243L345,240L358,250L359,252L360,251L360,237L365,233L367,227L368,220L372,217L376,215L386,214L391,212L405,215L411,220L414,224L424,224L431,219L436,219L443,223L450,226L450,60L417,84L391,111L390,112L368,118L365,119Z " data-iso="NER"/><path d="M359,252L358,253L357,258L362,263L362,269L364,271L363,274L360,278L361,279L359,284L355,286L356,288L352,292L352,295L351,299L450,299L450,226L443,223L436,219L431,219L424,224L414,224L411,220L405,215L391,212L386,214L376,215L372,217L368,220L367,227L365,233L360,237L360,251L359,252Z " data-iso="NGA"/><path d="M10,73L8,82L9,83L11,74L76,79L76,51L78,49L95,41L97,0L96,0L92,12L88,18L74,31L65,35L63,39L59,52L58,60L50,67L50,71L46,75L36,74L28,72L15,72L11,73L10,73Z " data-iso="SAH"/><path d="M8,213L26,215L28,212L31,211L36,212L39,214L47,218L53,217L55,221L48,222L41,220L33,216L30,218L21,219L20,222L6,221L4,222L4,224L4,231L3,233L4,234L4,235L8,236L13,234L20,235L24,234L31,231L51,232L56,233L62,233L68,234L72,238L81,240L88,239L96,239L97,239L97,238L96,237L97,230L93,222L90,223L86,217L87,207L85,199L83,196L83,196L75,189L71,183L70,183L65,173L62,171L57,170L55,167L50,162L46,161L39,160L29,161L22,162L17,161L16,162L11,173L10,175L5,182L0,188L2,198L8,211L8,213Z " data-iso="SEN"/><path d="M62,299L62,299L107,299L108,295L102,286L98,282L86,282L86,283L82,284L77,283L70,294L68,294L62,298L62,299Z " data-iso="SLE"/><path d="M312,266L308,266L306,267L305,266L299,265L295,264L296,265L295,273L302,279L303,280L306,295L305,299L325,299L321,295L320,284L310,277L312,268L312,266Z " data-iso="TGO"/></g><g fill="red" fill-opacity="0.35" id="regions"><path d="M279,125L277,123L270,117L259,108L271,101L289,85L293,73L218,21L184,17L192,97L198,168L203,172L200,187L200,187L203,186L204,185L214,185L222,183L223,182L226,181L229,187L232,187L238,182L240,180L244,180L247,183L248,184L251,190L255,190L258,188L269,189L274,192L282,194L282,194L283,194L286,194L285,187L283,177L282,167L283,161L267,158L265,151L278,144L279,125Z " data-fips="ML08" data-fips-="" data-iso3="MLI" data-name="Timbuktu" data-p="6"/><path d="M293,73L289,85L271,101L259,108L270,117L277,123L279,125L295,129L300,135L304,139L315,148L325,145L328,141L366,139L365,119L350,122L348,114L347,107L345,106L335,104L333,103L330,100L328,101L323,99L315,92L312,92L312,87L312,86L293,73Z " data-fips="ML10" data-fips-="" data-iso3="MLI" data-name="Kidal" data-p="8"/><path d="M279,125L278,144L265,151L267,158L283,161L282,167L283,177L285,187L286,194L287,194L292,194L299,197L304,195L308,195L318,189L347,187L347,186L355,185L362,179L366,167L366,158L367,157L366,139L328,141L325,145L315,148L304,139L300,135L295,129L279,125Z " data-fips="ML09" data-fips-="ML02" data-iso3="MLI" data-name="Gao" data-p="7"/><path d="M138,186L142,189L145,195L148,196L149,200L154,204L154,207L149,207L147,205L143,207L144,210L142,213L148,217L147,218L148,224L145,232L146,234L141,237L138,241L139,241L140,247L142,248L141,254L143,254L145,258L146,258L146,258L148,255L152,254L155,254L160,250L164,249L165,246L168,245L171,241L174,251L178,252L183,255L185,249L188,249L191,247L191,244L190,244L187,240L187,239L186,239L183,237L182,235L176,235L176,234L173,230L175,225L178,224L178,220L175,217L176,213L180,206L183,205L183,198L186,187L138,186Z " data-fips="ML07" data-fips-="ML01" data-iso3="MLI" data-name="Bamako" data-p="2"/><path d="M134,186L134,182L133,183L133,186L128,187L122,187L119,187L110,186L107,192L105,189L100,185L98,182L93,183L91,190L90,192L86,197L83,197L84,203L88,208L87,210L87,215L85,216L91,222L91,221L96,228L97,230L96,236L97,238L95,244L100,247L105,243L109,249L112,245L116,244L125,247L127,245L133,243L131,240L136,240L138,241L141,237L146,234L145,232L148,224L147,218L148,217L142,213L144,210L143,207L147,205L149,207L154,207L154,204L149,200L148,196L145,195L142,189L138,186L134,186Z " data-fips="ML03" data-fips-="" data-iso3="MLI" data-name="Kayes" data-p="1"/><path d="M187,239L187,240L190,244L191,244L191,247L188,249L185,249L183,255L178,252L174,251L171,241L168,245L165,246L164,249L160,250L155,254L152,254L148,255L146,258L146,258L149,261L145,264L150,267L152,277L156,279L157,281L162,276L165,278L172,282L173,280L177,278L178,278L183,275L183,273L186,272L186,275L189,281L191,281L193,278L199,277L201,271L200,266L202,265L204,263L203,256L206,250L213,249L215,248L219,243L218,237L218,237L214,236L213,238L207,239L206,236L203,235L202,237L200,236L199,235L187,238L187,239Z " data-fips="ML06" data-fips-="" data-iso3="MLI" data-name="Sikasso" data-p="3"/><path d="M203,186L203,187L206,187L206,189L205,195L204,196L199,197L197,204L204,208L205,211L207,214L211,215L211,221L214,220L216,221L220,219L223,215L225,217L227,223L227,223L229,225L233,228L236,228L239,226L239,222L242,220L245,220L245,218L246,213L252,209L258,211L260,210L261,205L266,205L282,194L282,194L274,192L269,189L258,188L255,190L251,190L248,184L247,183L244,180L240,180L238,182L232,187L229,187L226,181L223,182L222,183L214,185L204,185L203,186Z " data-fips="ML22" data-fips-="ML04" data-iso3="MLI" data-name="Mopti" data-p="5"/><path d="M203,186L200,187L200,187L200,187L200,187L200,187L186,187L183,198L183,205L180,206L176,213L175,217L178,220L178,224L175,225L173,230L176,234L176,235L182,235L183,237L186,239L187,239L187,238L199,235L200,236L202,237L203,235L206,236L207,239L213,238L214,236L218,237L218,237L222,235L220,230L220,228L227,223L227,223L225,217L223,215L220,219L216,221L214,220L211,221L211,215L207,214L205,211L204,208L197,204L199,197L204,196L205,195L206,189L206,187L203,187L203,186Z " data-fips="ML05" data-fips-="" data-iso3="MLI" data-name="Sgou" data-p="4"/></g></svg>