<?xml version="1.0" encoding="UTF-8"?><!DOCTYPE svg  PUBLIC '-//W3C//DTD SVG 1.1//EN'  'http://www.w3.org/Graphics/SVG/1.1/DTD/svg11.dtd'><svg enable_background="new 0 0 450 451" height="451px" style="stroke-linejoin: round; stroke:#000; fill:#f6f3f0;" version="1.1" viewBox="0 0 450 451" width="450px" xmlns="http://www.w3.org/2000/svg" xmlns:xlink="http://www.w3.org/1999/xlink"><defs><style type="text/css"><![CDATA[path { fill-rule: evenodd; }
#context path { fill: #eee; stroke: #bbb; } ]]></style></defs><metadata><views><view h="451" padding="0.06" w="450"><proj id="laea" lat0="19.238890591" lon0="97.3183282867"/><bbox h="243.51" w="115.82" x="934.62" y="879.15"/><llbbox lat0="-90" lat1="90" lon0="-180" lon1="180"/></view></views></metadata><g id="context"><path d="M109,154L108,146L107,155L109,154Z M101,155L102,154L103,146L101,143L99,139L96,138L97,143L99,145L99,150L95,156L101,155Z M65,155L65,159L69,163L73,160L74,150L75,162L80,157L82,150L83,150L84,156L86,154L86,159L89,161L92,156L97,151L98,149L94,140L97,137L97,132L98,131L97,126L94,126L98,125L99,122L100,128L99,132L103,141L105,144L109,144L115,140L116,138L125,161L127,165L127,177L132,186L133,186L130,179L131,173L137,174L139,175L139,160L139,159L138,157L137,143L135,137L135,128L133,120L126,120L126,125L123,127L122,134L118,135L116,132L114,131L113,133L112,126L110,122L112,114L116,110L126,108L127,105L131,102L133,97L134,93L138,94L139,92L130,86L115,85L97,85L93,84L84,80L85,75L85,67L83,60L78,66L73,62L68,55L69,58L65,59L58,51L58,54L53,60L50,66L60,76L63,76L65,80L66,81L65,83L56,83L53,89L50,88L47,93L49,98L61,104L60,110L57,117L60,123L59,126L63,129L62,132L63,141L63,144L65,154L65,155Z " data-iso="BGD"/><path d="M124,26L121,22L116,20L113,22L106,19L99,19L99,15L94,13L88,14L74,26L73,29L70,31L68,35L68,35L67,40L67,43L73,46L76,46L82,49L92,49L97,46L105,49L113,48L124,49L132,47L131,34L124,33L123,32L124,28L124,27L124,26Z " data-iso="BTN"/><path d="M222,0L224,6L219,12L221,14L232,16L234,15L238,18L239,19L240,18L243,12L244,12L248,16L250,16L254,20L255,24L259,34L262,31L266,33L266,42L267,45L268,56L267,65L265,69L266,71L262,74L259,79L256,78L251,86L249,86L247,92L247,95L244,97L243,103L246,106L244,117L245,117L257,112L265,113L270,112L267,117L270,125L271,133L281,135L282,141L281,148L279,151L281,157L282,157L294,159L294,165L297,170L300,172L303,171L308,171L313,167L319,166L320,169L320,169L321,170L323,178L328,176L334,177L332,174L332,163L328,153L332,148L334,150L339,149L340,150L341,149L347,141L361,146L361,144L365,141L368,144L371,140L377,145L380,140L382,139L387,141L390,138L394,137L396,131L403,127L407,126L411,131L419,134L424,133L426,135L434,135L437,137L433,146L435,148L436,155L437,154L443,157L447,160L450,162L450,0L221,0L222,0Z M215,2L215,3L216,3L219,0L220,0L215,0L215,2Z M53,21L53,20L60,18L63,17L67,19L68,24L66,30L67,33L68,35L70,31L73,29L74,26L88,14L94,13L99,15L99,19L106,19L113,22L116,20L121,22L124,26L124,27L126,27L131,28L140,26L145,23L145,20L157,8L168,6L170,5L173,1L175,1L175,0L0,0L0,8L5,9L11,17L12,17L14,13L19,18L23,14L28,17L34,21L37,21L52,21L53,21Z " data-iso="CHN"/><path d="M161,504L159,506L157,500L156,500L159,495L162,501L161,504Z M157,492L155,494L154,493L157,491L157,492Z M131,419L128,419L128,414L131,411L132,416L131,419Z M136,397L133,393L135,384L136,378L137,369L139,363L140,355L141,353L145,358L142,362L142,374L140,376L140,382L137,386L137,394L136,397Z M0,41L3,43L4,47L9,46L24,52L30,53L34,54L37,53L49,55L53,47L51,32L54,22L53,21L53,20L60,18L63,17L67,19L68,24L66,30L67,33L68,35L68,35L67,40L67,43L73,46L76,46L82,49L92,49L97,46L105,49L113,48L124,49L132,47L131,34L124,33L123,32L124,28L124,27L126,27L131,28L140,26L145,23L145,20L157,8L168,6L170,5L173,1L175,1L176,-1L185,-7L188,-3L195,-2L198,-0L203,-3L203,-4L213,-9L219,-4L215,-1L215,2L215,3L216,3L219,0L221,-0L222,0L224,6L219,12L221,14L232,16L234,15L238,18L239,19L239,20L239,26L237,26L230,32L230,36L234,43L234,44L230,42L226,39L213,41L210,45L201,52L194,55L192,61L194,68L191,74L187,80L183,82L182,86L185,90L182,97L176,107L174,111L171,117L170,116L155,113L157,119L157,129L156,133L151,136L152,138L150,144L151,151L147,159L140,158L139,159L138,157L137,143L135,137L135,128L133,120L126,120L126,125L123,127L122,134L118,135L116,132L114,131L113,133L112,126L110,122L112,114L116,110L126,108L127,105L131,102L133,97L134,93L138,94L139,92L130,86L115,85L97,85L93,84L84,80L85,75L85,67L83,60L78,66L73,62L68,55L69,58L65,59L58,51L58,54L53,60L50,66L60,76L63,76L65,80L66,81L65,83L56,83L53,89L50,88L47,93L49,98L61,104L60,110L57,117L60,123L59,126L63,129L62,132L63,141L63,144L65,154L64,157L62,157L64,164L60,163L58,165L57,161L58,155L54,159L51,164L48,161L47,163L44,163L47,152L41,158L35,162L25,164L17,171L17,173L18,182L14,191L8,194L2,200L-12,204L-12,200L-14,199L-19,202L-20,206L-17,204L-20,208L-30,216L-38,225L-46,234L-56,238L-67,248L-72,251L-80,254L-85,258L-87,261L-89,270L-91,271L-100,274L-107,273L-118,286L-121,285L-122,283L-130,284L-133,286L-138,294L-139,300L-137,314L-139,320L-136,337L-139,331L-142,333L-136,339L-139,355L-142,360L-146,364L-149,370L-152,379L-151,382L-154,385L-151,385L-151,398L-152,408L-162,407L-165,410L-165,413L-172,421L-173,423L-172,429L-167,431L-173,430L-185,433L-191,437L-193,446L-194,449L-201,452L-207,454L-212,452L-219,446L-226,435L-230,425L-231,420L-232,409L-230,414L-230,418L-228,419L-230,409L-234,400L-237,389L-239,382L-241,375L-244,366L-251,357L-255,345L-258,333L-259,315L-261,310L-263,299L-271,285L-271,279L-273,277L-270,277L-273,273L-271,271L-276,265L-278,261L-280,251L-280,234L-281,226L-280,224L-282,217L-282,206L-282,196L-280,193L-279,188L-283,192L-282,184L-279,185L-283,183L-282,179L-283,177L-283,171L-282,166L-277,155L-276,149L-278,141L-279,134L-274,131L-270,130L-280,128L-279,122L-278,118L-272,117L-284,115L-283,116L-284,120L-289,124L-286,128L-286,131L-292,139L-302,142L-306,144L-314,145L-320,144L-325,141L-333,132L-337,123L-347,110L-349,105L-348,99L-344,104L-324,100L-316,90L-320,92L-321,91L-330,93L-334,94L-342,91L-350,84L-353,81L-355,71L-354,70L-347,66L-350,66L-357,70L-359,70L-359,64L-354,62L-348,63L-346,56L-330,59L-325,62L-323,63L-319,61L-309,59L-309,63L-305,64L-299,61L-300,57L-298,55L-301,42L-303,37L-302,32L-309,29L-312,23L-308,11L-309,8L-318,4L-320,1L-316,-7L-308,-13L-302,-21L-296,-24L-292,-21L-292,-19L-290,-15L-280,-17L-275,-16L-268,-17L-265,-22L-261,-25L-256,-33L-243,-38L-235,-49L-230,-57L-224,-59L-218,-62L-218,-67L-210,-74L-201,-79L-203,-81L-201,-94L-198,-98L-195,-99L-185,-102L-183,-103L-189,-110L-192,-110L-194,-114L-193,-117L-199,-119L-199,-122L-204,-130L-202,-132L-198,-147L-201,-148L-199,-153L-202,-155L-197,-162L-191,-164L-174,-157L-166,-154L-151,-158L-149,-157L-139,-164L-123,-170L-119,-170L-121,-165L-118,-150L-117,-149L-111,-146L-107,-141L-112,-130L-113,-127L-108,-111L-107,-110L-108,-101L-112,-97L-115,-97L-118,-103L-124,-103L-123,-95L-120,-88L-121,-85L-120,-81L-121,-77L-121,-73L-116,-75L-109,-65L-103,-64L-98,-59L-97,-59L-97,-54L-95,-53L-82,-44L-95,-34L-97,-31L-100,-22L-104,-18L-105,-15L-98,-9L-96,-10L-84,-1L-79,6L-72,11L-67,12L-60,17L-57,17L-55,21L-44,25L-43,25L-34,26L-32,25L-25,26L-18,29L-17,35L-8,40L-5,43L-2,42L0,41Z " data-iso="IND"/><path d="M448,329L441,324L440,325L435,326L434,328L430,330L432,339L428,339L425,336L413,332L412,331L412,330L412,331L409,333L407,330L403,329L391,330L387,331L368,332L365,334L362,337L355,350L350,351L350,357L353,363L354,371L360,376L359,380L360,384L364,392L364,391L369,398L368,407L369,410L375,409L376,406L381,407L382,410L381,413L378,417L381,419L394,418L398,421L401,418L408,417L412,413L412,409L418,410L419,408L428,406L430,409L432,408L437,410L435,404L430,400L429,392L433,389L440,390L442,389L441,384L448,383L450,381L450,329L448,329Z " data-iso="KHM"/><path d="M341,152L348,159L358,165L356,175L362,183L364,184L375,187L376,184L383,181L388,184L393,188L392,190L389,192L395,195L396,197L399,197L401,202L394,211L387,210L382,211L383,214L380,219L385,221L398,229L407,232L406,236L408,240L418,247L418,249L427,260L433,264L439,271L440,277L444,281L447,279L448,283L450,284L459,290L454,295L465,307L462,313L463,320L461,323L456,325L450,329L448,329L441,324L440,325L435,326L434,328L430,330L432,339L428,339L425,336L413,332L412,331L412,330L413,330L418,326L419,314L418,312L419,307L421,304L421,299L416,296L416,293L408,289L402,283L401,278L401,269L402,264L395,257L393,255L384,243L382,241L369,239L368,240L364,246L364,246L364,246L364,246L362,249L353,252L350,250L342,245L333,252L328,256L321,262L317,260L322,245L319,240L322,236L324,228L322,220L322,216L321,214L317,214L312,216L305,213L305,210L307,205L305,199L302,196L298,199L299,198L299,197L301,188L307,185L307,184L312,175L318,171L320,169L321,170L323,178L328,176L334,177L332,174L332,163L328,153L332,148L334,150L339,149L340,150L341,152Z " data-iso="LAO"/><path d="M266,393L266,392L262,392L264,397L266,398L266,393Z M256,394L254,391L254,394L256,394Z M265,390L268,388L266,387L265,390Z M263,374L261,376L261,380L264,377L263,374Z M177,297L180,293L179,291L175,296L175,299L177,297Z M244,291L244,285L242,286L242,290L244,291Z M161,235L162,231L156,230L161,235Z M162,215L164,221L165,220L162,215Z M157,207L155,206L157,210L157,207Z M239,19L239,20L239,26L237,26L230,32L230,36L234,43L234,44L230,42L226,39L213,41L210,45L201,52L194,55L192,61L194,68L191,74L187,80L183,82L182,86L185,90L182,97L176,107L174,111L171,117L170,116L155,113L157,119L157,129L156,133L151,136L152,138L150,144L151,151L147,159L140,158L139,159L139,160L139,175L137,174L131,173L130,179L133,186L134,188L138,193L141,197L144,195L142,199L144,201L148,196L147,203L149,208L150,204L154,203L159,207L162,207L159,210L164,215L168,218L167,220L162,221L159,218L157,219L159,223L163,228L166,230L166,224L169,230L173,234L171,234L176,246L178,255L180,260L179,266L172,284L171,293L176,294L181,286L182,284L181,298L186,297L187,300L192,300L196,294L195,302L200,300L203,297L205,293L210,291L213,289L214,279L218,285L224,284L227,280L230,273L229,269L229,265L236,272L236,272L240,285L246,286L245,296L247,299L249,309L248,312L249,315L250,322L254,334L256,338L255,342L257,350L258,342L259,348L263,354L267,361L268,368L269,375L268,381L269,382L269,388L268,392L269,394L272,392L271,397L271,405L269,410L264,417L267,432L269,429L270,428L272,417L281,408L290,392L288,385L287,383L285,375L281,370L279,364L280,359L280,353L278,346L276,343L266,334L259,323L258,315L266,310L266,306L267,295L272,292L272,287L269,289L264,280L263,274L259,270L247,256L247,255L248,252L240,240L248,237L247,230L249,225L249,218L256,211L259,212L264,212L270,211L273,211L275,204L278,203L282,203L285,202L284,197L296,196L299,198L299,197L301,188L307,185L307,184L312,175L318,171L320,169L320,169L319,166L313,167L308,171L303,171L300,172L297,170L294,165L294,159L282,157L281,157L279,151L281,148L282,141L281,135L271,133L270,125L267,117L270,112L265,113L257,112L245,117L244,117L246,106L243,103L244,97L247,95L247,92L249,86L251,86L256,78L259,79L262,74L266,71L265,69L267,65L268,56L267,45L266,42L266,33L262,31L259,34L255,24L254,20L250,16L248,16L244,12L243,12L240,18L239,19Z " data-iso="MMR"/><path d="M0,41L3,43L4,47L9,46L24,52L30,53L34,54L37,53L49,55L53,47L51,32L54,22L53,21L52,21L37,21L34,21L28,17L23,14L19,18L14,13L12,17L11,17L5,9L0,8L0,41L0,41Z " data-iso="NPL"/><path d="M301,442L298,442L298,446L301,442Z M353,386L350,383L350,386L353,386Z M364,392L360,384L359,380L360,376L354,371L353,363L350,357L350,351L355,350L362,337L365,334L368,332L387,331L391,330L403,329L407,330L409,333L412,331L412,330L413,330L418,326L419,314L418,312L419,307L421,304L421,299L416,296L416,293L408,289L402,283L401,278L401,269L402,264L395,257L393,255L384,243L382,241L369,239L368,240L364,246L362,249L353,252L350,250L342,245L333,252L328,256L321,262L317,260L322,245L319,240L322,236L324,228L322,220L322,216L321,214L317,214L312,216L305,213L305,210L307,205L305,199L302,196L298,199L299,198L296,196L284,197L285,202L282,203L278,203L275,204L273,211L270,211L264,212L259,212L256,211L249,218L249,225L247,230L248,237L240,240L248,252L247,255L247,256L259,270L263,274L264,280L269,289L272,287L272,292L267,295L266,306L266,310L258,315L259,323L266,334L276,343L278,346L280,353L280,359L279,364L281,370L285,375L287,383L288,385L290,392L281,408L272,417L270,428L267,436L265,443L262,449L282,449L283,446L280,434L280,425L282,424L283,420L287,412L290,399L294,393L295,389L299,379L298,371L300,363L299,356L303,353L310,352L320,354L318,368L320,373L323,371L331,372L337,371L346,376L348,379L355,383L358,382L360,385L364,392L364,392Z " data-iso="THA"/><path d="M390,421L386,422L389,430L390,421Z M340,150L341,152L348,159L358,165L356,175L362,183L364,184L375,187L376,184L383,181L388,184L393,188L392,190L389,192L395,195L396,197L399,197L401,202L394,211L387,210L382,211L383,214L380,219L385,221L398,229L407,232L406,236L408,240L418,247L418,249L427,260L433,264L439,271L440,277L444,281L447,279L448,283L450,284L450,265L443,260L436,249L437,247L431,241L423,235L417,225L418,223L421,217L421,210L424,202L428,201L436,191L435,188L439,183L437,177L443,178L450,176L450,162L447,160L443,157L437,154L436,155L435,148L433,146L437,137L434,135L426,135L424,133L419,134L411,131L407,126L403,127L396,131L394,137L390,138L387,141L382,139L380,140L377,145L371,140L368,144L365,141L361,144L361,146L347,141L341,149L340,150Z M450,381L448,383L441,384L442,389L440,390L433,389L429,392L430,400L435,404L437,410L432,408L430,409L428,406L419,408L418,410L412,409L412,413L408,417L401,418L398,421L400,422L412,428L413,432L409,434L408,439L408,449L424,449L438,442L438,441L437,436L430,429L432,429L439,436L443,438L445,438L447,434L445,432L438,425L437,423L447,431L449,430L447,423L444,421L450,421L449,417L450,416L450,381Z " data-iso="VNM"/></g><g fill="red" fill-opacity="0.35" id="regions"><path d="M236,206L235,206L235,211L231,214L228,222L231,227L232,231L238,235L240,238L248,236L246,230L249,226L249,224L248,219L250,217L250,215L251,215L251,215L249,213L248,213L248,213L248,213L248,213L248,213L248,213L248,213L248,213L245,213L245,210L243,208L243,208L243,208L242,208L242,208L242,208L242,208L242,208L242,208L242,208L242,208L240,207L240,207L240,207L240,207L239,207L239,208L239,208L239,208L239,208L237,208L237,208L236,206L236,206Z " data-fips="BM06" data-fips-="" data-iso3="MMR" data-name="Kayah"/><path d="M225,217L225,217L223,218L223,218L221,217L219,218L219,218L222,224L221,225L225,230L224,232L225,236L228,237L230,236L231,242L233,244L235,244L236,248L235,251L236,261L237,261L237,261L240,260L242,263L242,273L243,277L246,283L247,283L247,283L248,284L248,284L248,284L252,287L253,287L257,293L250,293L251,296L250,299L252,305L258,314L258,314L264,310L266,311L266,305L266,296L266,295L269,294L272,293L271,286L267,286L264,279L265,278L260,272L259,270L253,262L248,258L247,255L247,255L247,255L247,252L247,248L245,246L242,243L241,242L238,235L235,235L231,227L228,222L228,222L229,220L228,220L225,218L225,217Z " data-fips="BM05" data-fips-="BM01" data-iso3="MMR" data-name="Kayin"/><path d="M217,125L214,125L213,123L210,127L209,129L211,134L210,142L209,145L211,148L210,149L212,160L209,163L206,168L204,168L201,166L198,166L197,168L197,169L197,169L197,172L192,175L187,177L185,180L186,184L191,186L191,191L202,188L207,203L206,204L206,208L206,212L206,217L206,218L207,218L209,217L213,219L215,217L218,217L219,218L221,217L223,218L223,218L225,217L225,217L225,216L223,215L224,213L220,208L219,205L222,200L221,196L222,194L220,190L223,188L223,185L215,183L216,179L219,179L218,171L224,168L226,166L230,166L226,158L221,156L218,151L218,149L216,145L217,142L224,142L226,139L223,137L215,136L214,134L215,129L216,129L218,126L218,126L217,125Z " data-fips="BM08" data-fips-="" data-iso3="MMR" data-name="Mandalay"/><path d="M206,218L206,218L206,224L195,227L193,230L193,232L191,235L191,239L192,240L192,240L197,247L199,258L204,261L205,263L205,262L212,257L217,266L219,274L224,274L228,276L228,276L230,272L229,269L230,267L228,265L229,264L229,263L229,261L235,263L237,262L237,261L236,261L235,251L236,248L235,244L233,244L231,242L230,236L228,237L225,236L224,232L225,230L221,225L222,224L219,218L219,218L218,217L215,217L213,219L209,217L207,218L206,218Z " data-fips="BM16" data-fips-="BM09" data-iso3="MMR" data-name="Bago"/><path d="M205,263L204,264L205,270L206,271L208,280L208,284L206,285L210,288L210,288L214,289L217,287L215,281L218,285L220,285L227,279L228,276L228,276L224,274L219,274L217,266L212,257L205,262L205,263Z " data-fips="BM17" data-fips-="BM14" data-iso3="MMR" data-name="Yangon"/><path d="M244,291L245,286L243,285L242,286L243,291L244,291Z M247,284L246,289L245,294L244,295L248,304L249,310L248,313L250,318L249,322L249,322L251,318L255,317L255,319L258,319L258,319L258,318L257,317L258,314L258,314L252,305L250,299L251,296L250,293L257,293L253,287L252,287L248,284L247,284Z M237,261L237,262L235,263L229,261L229,263L229,264L237,272L235,272L236,278L237,278L240,286L241,285L246,284L247,283L246,283L243,277L242,273L242,263L240,260L237,261L237,261Z " data-fips="BM13" data-fips-="" data-iso3="MMR" data-name="Mon"/><path d="M161,230L157,231L160,235L161,235L162,231L161,230Z M163,216L163,221L165,221L167,219L163,216Z M157,210L156,206L156,209L157,210Z M179,263L183,265L186,254L186,252L186,244L185,243L183,237L184,235L184,232L181,226L179,225L176,215L176,211L173,204L173,202L168,192L166,192L166,189L166,188L161,185L161,189L160,190L156,189L146,180L143,179L140,174L140,175L135,173L134,171L131,172L130,177L134,188L141,198L141,194L139,188L143,193L145,197L144,202L147,197L148,201L148,206L150,205L151,203L155,203L156,206L161,207L160,210L167,218L166,221L162,222L156,218L156,219L160,227L166,231L167,228L168,220L169,223L168,231L171,231L170,234L173,236L173,239L176,243L177,247L177,251L178,255L180,260L179,262L179,263Z " data-fips="BM01" data-fips-="BM05" data-iso3="MMR" data-name="Rakhine"/><path d="M140,174L143,179L146,180L156,189L160,190L161,189L161,185L166,188L166,189L168,190L170,190L169,183L171,181L170,177L170,172L171,169L169,165L170,161L169,158L170,151L169,145L169,144L169,142L170,135L169,133L172,126L173,121L172,117L172,117L166,115L164,114L158,114L157,112L157,119L158,121L156,133L154,136L151,135L152,139L150,141L150,147L151,153L149,154L147,159L142,155L140,158L139,159L139,165L139,172L140,174L140,174Z " data-fips="BM02" data-fips-="" data-iso3="MMR" data-name="Chin"/><path d="M175,300L177,297L179,296L181,291L175,297L175,300Z M192,240L192,240L192,240L190,243L188,241L185,243L186,244L186,252L186,254L183,265L179,263L179,265L177,272L176,275L174,284L171,290L171,296L171,296L176,294L178,289L182,288L180,297L182,300L185,295L184,297L186,301L189,301L190,295L191,301L193,299L195,298L196,294L196,297L194,300L194,302L199,301L203,298L204,291L205,293L211,289L210,288L206,285L208,284L208,280L206,271L205,270L204,264L205,263L204,261L199,258L197,247L192,240L192,240Z " data-fips="BM03" data-fips-="" data-iso3="MMR" data-name="Ayeyarwady"/><path d="M169,144L169,145L170,151L169,158L170,161L169,165L171,169L170,172L170,177L171,181L169,183L170,190L168,190L166,189L166,192L168,192L173,202L173,204L176,211L176,215L179,225L181,226L184,232L184,235L183,237L185,243L185,243L188,241L190,243L192,240L192,240L192,240L191,239L191,235L193,232L193,230L195,227L206,224L206,218L206,218L206,217L206,212L206,208L206,204L207,203L202,188L191,191L191,186L186,184L185,180L187,177L192,175L197,172L197,169L197,169L196,168L194,165L191,164L182,164L179,165L178,160L176,157L174,156L174,147L170,144L169,144Z " data-fips="BM15" data-fips-="BM07" data-iso3="MMR" data-name="Magway"/><path d="M246,117L240,120L234,123L228,120L230,118L230,115L228,115L226,112L225,111L225,111L220,113L221,114L223,117L218,125L218,126L218,126L216,129L215,129L214,134L215,136L223,137L226,139L224,142L217,142L216,145L218,149L218,151L221,156L226,158L230,166L226,166L224,168L218,171L219,179L216,179L215,183L223,185L223,188L220,190L222,194L221,196L222,200L219,205L220,208L224,213L223,215L225,216L225,217L225,218L228,220L229,220L228,222L229,221L230,219L231,214L235,211L236,206L236,206L236,206L237,207L237,208L239,208L239,208L239,208L240,207L240,207L240,207L240,207L240,207L242,208L242,208L242,208L242,208L242,208L242,208L242,208L243,208L243,208L243,208L243,208L243,208L244,210L245,213L248,213L248,213L248,213L248,213L248,213L248,213L248,213L249,213L250,214L251,215L251,215L254,213L254,210L259,213L265,213L275,209L275,204L278,202L281,204L284,203L286,200L285,197L295,195L296,196L299,195L300,190L304,186L309,186L307,184L307,181L309,180L311,175L313,175L320,170L319,165L315,166L308,172L305,172L304,170L300,172L298,171L299,167L294,166L295,160L294,159L292,159L278,157L282,148L281,143L284,137L284,136L275,135L275,133L271,133L271,126L269,125L271,123L269,120L267,117L268,115L271,112L263,112L260,112L257,112L250,114L246,117L246,117Z " data-fips="BM11" data-fips-="" data-iso3="MMR" data-name="Shan"/><path d="M259,412L257,411L259,417L260,417L259,412Z M260,399L261,395L260,393L260,399Z M266,392L264,392L264,397L266,398L266,392Z M266,387L264,385L265,390L268,389L266,387Z M263,374L261,372L261,380L262,380L264,374L263,374Z M250,323L252,328L254,334L257,352L258,350L258,344L258,341L259,348L263,354L264,357L267,360L267,366L269,371L269,375L268,376L268,379L266,381L267,383L270,383L268,384L270,388L268,389L272,394L270,397L271,399L270,400L271,404L270,407L270,410L267,413L266,416L265,428L267,432L270,428L272,421L271,417L276,414L277,411L281,407L286,396L290,393L290,391L289,390L289,388L285,374L281,371L280,365L278,364L279,360L280,355L278,347L273,339L266,333L260,326L258,319L258,319L255,319L255,317L251,318L249,322L250,323Z " data-fips="BM12" data-fips-="" data-iso3="MMR" data-name="Tanintharyi"/><path d="M234,44L232,46L221,48L217,47L218,49L213,53L215,58L212,59L215,67L213,71L215,78L213,80L212,79L211,82L213,91L208,92L211,99L213,100L217,104L220,103L224,106L225,110L225,111L226,112L228,115L230,115L230,118L228,120L234,123L240,120L246,117L245,118L243,116L247,111L247,108L245,105L243,105L243,98L248,95L247,93L249,86L251,87L255,83L256,78L260,79L262,74L265,73L267,71L264,67L267,65L266,62L267,61L268,53L267,46L266,42L266,33L261,31L259,34L256,27L250,16L247,15L246,13L243,12L239,19L239,22L239,26L237,26L230,34L230,37L234,41L234,44L234,44Z " data-fips="BM04" data-fips-="" data-iso3="MMR" data-name="Kachin"/><path d="M172,117L173,121L172,126L169,133L170,135L169,142L169,144L170,144L174,147L174,156L176,157L178,160L179,165L182,164L191,164L194,165L196,168L197,169L197,168L198,166L201,166L204,168L206,168L209,163L212,160L210,149L211,148L209,145L210,142L211,134L209,129L210,127L213,123L214,125L217,125L218,126L218,125L223,117L221,114L220,113L225,111L225,111L225,110L224,106L220,103L217,104L213,100L211,99L208,92L213,91L211,82L212,79L213,80L215,78L213,71L215,67L212,59L215,58L213,53L218,49L217,47L221,48L232,46L234,44L233,44L229,41L226,38L220,40L212,42L209,46L207,46L204,50L202,50L197,54L194,55L192,58L193,67L194,68L191,71L191,74L187,80L183,82L182,87L184,94L177,106L172,117L172,117Z " data-fips="BM10" data-fips-="" data-iso3="MMR" data-name="Sagaing"/></g></svg>