<?xml version="1.0" encoding="UTF-8"?><!DOCTYPE svg  PUBLIC '-//W3C//DTD SVG 1.1//EN'  'http://www.w3.org/Graphics/SVG/1.1/DTD/svg11.dtd'><svg enable_background="new 0 0 450 451" height="451px" style="stroke-linejoin: round; stroke:#000; fill:#f6f3f0;" version="1.1" viewBox="0 0 450 451" width="450px" xmlns="http://www.w3.org/2000/svg" xmlns:xlink="http://www.w3.org/1999/xlink"><defs><style type="text/css"><![CDATA[path { fill-rule: evenodd; }
#context path { fill: #eee; stroke: #bbb; } ]]></style></defs><metadata><views><view h="451" padding="0.06" w="450"><proj id="laea" lat0="42.1667029892" lon0="19.1316165624"/><bbox h="23.01" w="19.48" x="992.63" y="981.91"/><llbbox lat0="-90" lat1="90" lon0="-180" lon1="180"/></view></views></metadata><g id="context"><path d="M436,421L439,411L437,388L427,350L420,337L406,325L395,317L376,310L366,289L351,266L344,260L341,260L322,270L308,276L295,278L289,273L286,266L287,247L284,240L280,237L271,242L261,257L252,275L238,293L226,311L214,333L205,352L214,362L220,376L218,387L220,394L217,413L217,425L239,428L259,444L259,449L428,449L434,424L436,421Z " data-iso="ALB"/><path d="M55,258L59,257L63,253L73,243L75,238L75,230L61,206L59,189L58,159L61,152L66,149L89,145L89,122L91,115L95,105L99,97L112,84L130,69L137,68L144,71L152,84L160,82L162,66L151,46L145,33L147,26L151,22L161,24L170,28L175,25L184,23L190,24L200,12L208,10L219,9L226,16L235,17L240,9L242,0L0,0L0,225L0,226L32,248L40,251L55,258Z " data-iso="BIH"/><path d="M70,289L62,277L56,267L55,258L40,251L32,248L0,226L0,225L0,235L7,240L37,265L70,289Z " data-iso="HRV"/><path d="M393,192L370,200L366,210L355,209L342,209L338,216L344,227L348,240L345,258L344,260L351,266L366,289L376,310L395,317L406,325L420,337L427,350L437,388L439,411L436,421L438,423L450,425L450,97L441,102L438,107L447,126L446,133L441,142L416,162L413,169L418,180L415,185L393,192Z " data-iso="KOS"/><path d="M436,421L434,424L428,449L450,449L450,425L438,423L436,421Z " data-iso="MKD"/><path d="M184,23L175,25L170,28L161,24L151,22L147,26L145,33L151,46L162,66L160,82L152,84L144,71L137,68L130,69L112,84L99,97L95,105L91,115L89,122L89,145L66,149L61,152L58,159L59,189L61,206L75,230L75,238L73,243L63,253L59,257L55,258L56,267L62,277L70,289L76,290L83,286L92,286L88,297L90,302L136,333L177,379L189,406L217,425L217,413L220,394L218,387L220,376L214,362L205,352L214,333L226,311L238,293L252,275L261,257L271,242L280,237L284,240L287,247L286,266L289,273L295,278L308,276L322,270L341,260L344,260L345,258L348,240L344,227L338,216L342,209L355,209L366,210L370,200L393,192L393,186L392,177L379,167L361,159L322,132L293,126L274,113L264,110L252,101L228,70L208,53L194,44L190,36L189,27L190,24L184,23Z " data-iso="MNE"/><path d="M190,24L189,27L190,36L194,44L208,53L228,70L252,101L264,110L274,113L293,126L322,132L361,159L379,167L392,177L393,186L393,192L415,185L418,180L413,169L416,162L441,142L446,133L447,126L438,107L441,102L450,97L450,0L242,0L240,9L235,17L226,16L219,9L208,10L200,12L190,24Z " data-iso="SRB"/></g><g fill="red" fill-opacity="0.35" id="regions"><path d="M175,321L172,319L164,316L160,320L160,325L156,325L148,322L142,320L142,320L143,323L146,329L155,340L155,343L150,349L152,353L155,354L156,357L157,360L164,359L167,364L170,367L169,370L170,374L180,383L181,388L182,388L198,390L200,384L195,374L194,369L198,369L205,371L208,372L221,367L219,364L208,357L206,353L204,347L206,345L204,344L198,337L194,334L189,333L184,331L180,329L177,324L175,321Z " data-fips="AL49" data-fips-="" data-iso3="MNE" data-name="Bar"/><path d="M221,367L208,372L205,371L198,369L194,369L195,374L200,384L198,390L182,388L181,388L181,395L180,397L184,401L186,408L192,411L195,413L208,417L211,419L217,426L221,429L219,417L217,411L218,408L217,402L221,400L219,391L218,382L219,377L222,368L221,367Z " data-fips="AL49" data-fips-="" data-iso3="MNE" data-name="Ulcinj"/><path d="M140,316L135,311L129,310L119,306L119,308L117,311L117,319L118,325L118,327L119,326L123,323L125,326L127,324L129,323L133,323L135,325L137,328L138,336L140,340L147,345L150,348L150,349L155,343L155,340L146,329L143,323L142,320L140,316Z " data-fips="MJ00" data-fips-="" data-iso3="MNE" data-name="Budva"/><path d="M144,239L140,235L133,229L131,227L124,225L120,226L114,222L107,220L106,224L104,227L102,228L101,230L101,234L99,238L97,241L93,241L93,243L96,250L99,254L101,259L102,263L113,271L115,278L115,287L113,291L114,294L116,302L119,308L119,306L129,310L135,311L140,316L142,320L142,320L148,322L156,325L160,325L160,320L164,316L172,319L175,321L175,321L179,312L181,304L175,298L169,293L162,284L155,280L148,274L148,272L150,270L153,271L153,266L156,259L152,253L144,248L144,244L144,244L144,239Z " data-fips="MJ00" data-fips-="" data-iso3="MNE" data-name="Cetinje"/><path d="M355,158L351,170L348,175L345,186L342,190L341,202L342,208L344,207L346,206L352,208L359,211L365,213L369,208L369,201L379,195L395,183L394,177L391,173L380,168L371,161L366,159L357,158L355,158Z " data-fips="AL47" data-fips-="" data-iso3="MNE" data-name="Roaje"/><path d="M339,222L339,222L332,223L316,227L316,227L308,233L301,242L291,250L288,251L288,253L285,264L289,274L295,278L298,280L301,280L310,275L316,271L325,271L330,269L336,261L340,258L346,257L346,251L349,241L351,235L349,232L339,222Z " data-fips="AL49" data-fips-="" data-iso3="MNE" data-name="Plav"/><path d="M78,287L75,288L75,291L76,293L80,296L79,298L83,300L87,304L91,304L94,305L95,300L95,300L94,296L92,292L78,287Z M64,251L66,255L63,257L61,256L57,256L56,258L56,266L55,274L57,278L59,281L65,286L66,289L66,292L68,295L72,296L69,294L70,287L67,285L67,283L86,286L94,284L90,274L86,267L77,261L68,249L64,251Z " data-fips="HR03" data-fips-="" data-iso3="MNE" data-name="Herceg Novi"/><path d="M116,302L114,294L113,291L115,287L115,278L113,271L102,263L101,259L99,254L96,250L93,243L93,241L91,242L85,243L75,242L74,242L74,244L70,248L68,249L77,261L86,267L90,274L94,284L94,284L100,277L100,278L104,281L108,290L105,302L101,307L101,308L105,311L105,315L107,318L113,323L117,327L118,327L118,325L117,319L117,311L119,308L116,302Z " data-fips="HR03" data-fips-="" data-iso3="MNE" data-name="Kotor"/><path d="M316,227L316,226L307,216L307,212L311,209L293,204L285,198L277,194L275,194L269,195L267,200L272,204L273,218L273,224L269,230L267,233L271,239L272,240L272,240L275,237L279,235L283,237L286,242L288,249L288,251L291,250L301,242L308,233L316,227L316,227Z " data-fips="MJ00" data-fips-="" data-iso3="MNE" data-name="Andrijevica"/><path d="M352,157L342,146L336,155L327,160L325,161L320,163L313,166L309,166L302,164L297,166L292,170L287,171L279,174L278,175L275,181L274,183L275,194L275,194L277,194L285,198L293,204L311,209L307,212L307,216L316,226L316,227L332,223L339,222L339,222L339,222L337,218L337,213L338,211L342,208L341,202L342,190L345,186L348,175L351,170L355,158L352,157Z " data-fips="MJ00" data-fips-="" data-iso3="MNE" data-name="Berane"/><path d="M252,99L250,106L250,112L248,118L247,122L243,126L239,129L237,135L236,140L239,141L246,142L252,145L265,149L270,152L272,157L273,163L272,166L275,169L279,174L287,171L292,170L297,166L302,164L309,166L313,166L320,163L325,161L327,160L336,155L342,146L341,146L335,140L324,133L323,131L319,124L317,123L315,124L311,129L309,130L303,131L297,130L293,129L289,126L286,121L281,112L276,114L272,114L264,112L261,110L258,107L252,100L252,99Z " data-fips="MJ00" data-fips-="" data-iso3="MNE" data-name="Bijelo Polje"/><path d="M202,225L202,222L201,219L199,212L193,210L192,214L192,218L193,223L187,226L178,225L171,224L168,223L164,224L158,228L155,233L155,240L152,243L144,244L144,244L144,248L152,253L156,259L153,266L153,271L156,272L163,275L168,276L191,276L192,269L193,261L195,256L200,249L202,243L201,238L206,233L209,230L202,225Z " data-fips="MJ00" data-fips-="" data-iso3="MNE" data-name="Danilovgrad"/><path d="M269,179L258,176L235,177L229,172L222,168L221,168L219,172L216,176L207,176L196,174L193,176L191,179L191,183L192,186L194,191L194,197L192,202L193,210L193,210L199,212L201,219L202,222L202,225L209,230L210,231L220,234L228,233L235,230L239,227L243,222L244,218L250,215L257,216L259,226L263,228L267,233L269,230L273,224L273,218L272,204L267,200L269,195L275,194L275,194L274,183L275,181L269,179Z " data-fips="MJ00" data-fips-="" data-iso3="MNE" data-name="Kolain"/><path d="M231,140L228,141L227,142L223,146L217,147L215,150L214,155L214,155L216,164L221,168L222,168L229,172L235,177L258,176L269,179L275,181L278,175L279,174L275,169L272,166L273,163L272,157L270,152L265,149L252,145L246,142L239,141L236,140L231,140Z " data-fips="MJ00" data-fips-="" data-iso3="MNE" data-name="Mojkovac"/><path d="M89,123L89,129L85,146L74,146L59,153L56,163L56,167L57,172L62,180L63,185L61,187L59,189L57,192L57,196L59,202L61,207L67,218L71,221L74,225L76,232L76,239L74,242L75,242L85,243L91,242L93,241L97,241L99,238L101,234L101,230L102,228L104,227L106,224L107,220L114,222L120,226L124,225L131,227L133,229L140,235L144,239L144,244L152,243L155,240L155,233L158,228L164,224L168,223L171,224L178,225L187,226L193,223L192,218L192,214L193,210L193,210L192,202L194,197L194,191L192,186L181,185L171,181L166,177L158,171L152,168L148,167L138,166L129,163L123,157L118,147L114,136L109,129L104,126L89,122L89,123Z " data-fips="MJ00" data-fips-="" data-iso3="MNE" data-name="Nikic"/><path d="M154,87L149,79L148,74L147,72L142,69L138,68L128,68L125,71L126,73L122,76L99,92L97,96L101,98L93,109L90,115L89,122L104,126L109,129L114,136L118,147L123,157L129,163L138,166L148,167L152,168L154,167L153,157L144,152L143,145L147,135L152,130L158,129L160,130L160,126L156,119L155,113L154,87L154,87Z " data-fips="MJ00" data-fips-="" data-iso3="MNE" data-name="Pluine"/><path d="M160,81L163,94L164,100L168,105L174,105L181,104L189,107L195,112L203,117L212,123L219,129L224,135L228,141L231,140L236,140L237,135L239,129L243,126L247,122L248,118L250,112L250,106L252,99L246,94L244,91L241,85L239,82L228,71L221,60L218,58L194,47L189,43L186,37L186,30L182,23L169,30L165,30L162,29L158,23L156,20L149,23L140,30L139,34L145,37L147,41L146,45L150,44L151,45L157,53L163,68L168,78L167,79L162,79L160,80L160,81Z " data-fips="MJ00" data-fips-="" data-iso3="MNE" data-name="Pljevlja"/><path d="M263,228L259,226L257,216L250,215L244,218L243,222L239,227L235,230L228,233L220,234L210,231L209,230L206,233L201,238L202,243L200,249L195,256L193,261L192,269L191,276L168,276L163,275L156,272L153,271L150,270L148,272L148,274L155,280L162,284L169,293L175,298L181,304L179,312L175,321L175,321L177,324L180,329L184,331L189,333L194,334L198,337L204,344L206,345L210,341L227,315L227,308L239,292L241,288L244,286L247,283L252,274L253,270L258,267L260,265L261,262L262,255L263,252L266,247L270,242L272,240L272,240L271,239L267,233L263,228Z " data-fips="MJ00" data-fips-="" data-iso3="MNE" data-name="Podgorica"/><path d="M99,280L99,282L103,292L104,295L102,298L100,296L94,293L92,292L94,296L95,300L98,300L101,303L101,306L101,307L105,302L108,290L104,281L100,278L99,280Z " data-fips="MJ00" data-fips-="" data-iso3="MNE" data-name="Tivat"/><path d="M158,129L152,130L147,135L143,145L144,152L153,157L154,167L152,168L158,171L166,177L171,181L181,185L192,186L191,183L191,179L193,176L196,174L207,176L216,176L219,172L221,168L216,164L214,155L214,155L203,150L200,149L198,146L193,141L187,141L183,143L181,138L177,134L171,135L167,135L164,132L160,130L158,129Z " data-fips="MJ00" data-fips-="" data-iso3="MNE" data-name="avnik"/><path d="M159,82L158,84L154,88L154,87L155,113L156,119L160,126L160,130L164,132L167,135L171,135L177,134L181,138L183,143L187,141L193,141L198,146L200,149L203,150L214,155L215,150L217,147L223,146L227,142L228,141L224,135L219,129L212,123L203,117L195,112L189,107L181,104L174,105L168,105L164,100L163,94L160,81L159,82Z " data-fips="MJ00" data-fips-="" data-iso3="MNE" data-name="abljak"/></g></svg>