<?xml version="1.0" encoding="UTF-8"?><!DOCTYPE svg  PUBLIC '-//W3C//DTD SVG 1.1//EN'  'http://www.w3.org/Graphics/SVG/1.1/DTD/svg11.dtd'><svg enable_background="new 0 0 450 301" height="301px" style="stroke-linejoin: round; stroke:#000; fill:#f6f3f0;" version="1.1" viewBox="0 0 450 301" width="450px" xmlns="http://www.w3.org/2000/svg" xmlns:xlink="http://www.w3.org/1999/xlink"><defs><style type="text/css"><![CDATA[path { fill-rule: evenodd; }
#context path { fill: #eee; stroke: #bbb; } ]]></style></defs><metadata><views><view h="301.0" padding="0.06" w="450"><proj id="laea" lat0="48.2819369573" lon0="89.6774548906"/><bbox h="158.4" w="295.4" x="968.42" y="926.4"/><llbbox lat0="-90" lat1="90" lon0="-180" lon1="180"/></view></views></metadata><g id="context"><path d="M395,0L392,8L392,20L391,33L394,37L394,39L390,43L387,46L383,55L375,56L370,55L367,54L367,57L367,75L367,86L365,90L368,94L372,96L375,91L385,89L389,90L391,87L392,82L397,80L410,82L411,84L422,90L425,92L426,96L420,99L413,99L412,101L407,102L398,109L398,113L394,115L389,118L387,127L388,130L383,137L375,142L372,142L370,144L369,147L366,152L362,159L348,159L340,159L338,159L336,165L336,173L341,179L344,180L345,185L344,185L336,194L330,207L319,216L309,219L301,221L284,228L273,236L266,242L262,246L255,246L254,242L244,246L234,243L219,242L214,237L211,237L183,240L152,239L141,242L139,238L127,219L120,214L109,208L105,207L101,203L99,202L89,201L81,201L70,200L66,198L64,199L61,193L62,189L65,182L64,178L65,170L61,165L55,152L48,148L47,146L41,146L34,142L34,140L31,137L27,136L28,133L26,128L25,125L25,124L25,124L22,125L21,125L20,126L19,125L18,125L16,125L12,129L11,132L9,136L0,137L0,299L450,299L450,252L449,246L450,239L450,0L395,0Z " data-iso="CHN"/><path d="M19,125L19,124L12,116L12,112L5,117L0,115L0,137L9,136L11,132L12,129L16,125L18,125L19,125Z " data-iso="KAZ"/><path d="M367,54L351,58L347,56L342,55L336,58L331,64L328,69L328,73L324,76L320,77L317,80L309,83L302,90L298,89L297,91L285,91L275,92L268,89L267,84L259,84L255,83L249,80L245,81L233,81L231,83L215,91L203,88L198,85L198,83L193,71L183,70L173,67L167,68L155,63L152,69L149,71L144,84L148,92L151,94L150,102L144,105L139,109L136,107L128,107L122,105L119,108L114,108L111,106L108,106L103,97L88,95L87,93L83,95L79,92L78,95L60,104L53,107L52,109L48,112L48,113L45,116L42,116L40,119L30,119L27,124L25,124L25,124L25,125L26,128L28,133L27,136L31,137L34,140L34,142L41,146L47,146L48,148L55,152L61,165L65,170L64,178L65,182L62,189L61,193L64,199L66,198L70,200L81,201L89,201L99,202L101,203L105,207L109,208L120,214L127,219L139,238L141,242L152,239L183,240L211,237L214,237L219,242L234,243L244,246L254,242L255,246L262,246L266,242L273,236L284,228L301,221L309,219L319,216L330,207L336,194L344,185L345,185L344,180L341,179L336,173L336,165L338,159L340,159L348,159L362,159L366,152L369,147L370,144L372,142L375,142L383,137L388,130L387,127L389,118L394,115L398,113L398,109L407,102L412,101L413,99L420,99L426,96L425,92L422,90L411,84L410,82L397,80L392,82L391,87L389,90L385,89L375,91L372,96L368,94L365,90L367,86L367,75L367,57L367,54L367,54Z " data-iso="MNG"/><path d="M19,125L20,126L21,125L22,125L25,124L25,124L25,124L27,124L30,119L40,119L42,116L45,116L48,113L48,112L52,109L53,107L60,104L78,95L79,92L83,95L87,93L88,95L103,97L108,106L111,106L114,108L119,108L122,105L128,107L136,107L139,109L144,105L150,102L151,94L148,92L144,84L149,71L152,69L155,63L167,68L173,67L183,70L193,71L198,83L198,85L203,88L215,91L231,83L233,81L245,81L249,80L255,83L259,84L267,84L268,89L275,92L285,91L297,91L298,89L302,90L309,83L317,80L320,77L324,76L328,73L328,69L331,64L336,58L342,55L347,56L351,58L367,54L367,54L370,55L375,56L383,55L387,46L390,43L394,39L394,37L391,33L392,20L392,8L395,0L0,0L0,115L5,117L12,112L12,116L19,124L19,125Z " data-iso="RUS"/></g><g fill="red" fill-opacity="0.35" id="regions"><path d="M52,109L47,110L49,114L44,117L42,116L40,119L35,118L32,118L29,121L27,124L25,124L24,130L28,133L27,135L33,139L35,143L39,144L40,146L42,147L46,146L49,149L52,148L54,151L57,153L58,159L65,170L65,171L70,173L76,172L77,171L71,166L71,162L66,151L64,146L62,141L62,135L68,133L69,133L69,132L67,128L63,124L63,122L56,117L54,113L54,110L52,109L52,109Z " data-fips="MG03" data-fips-="" data-iso3="MNG" data-name="Bayan-lgiy" data-p="071"/><path d="M291,134L290,137L289,138L287,140L281,141L281,142L281,142L284,143L283,144L288,151L289,155L290,156L293,155L292,157L294,164L297,172L295,173L294,176L288,178L288,183L287,184L287,187L294,198L296,204L298,209L298,212L301,221L302,220L311,219L320,216L322,214L331,207L332,203L335,195L344,185L345,185L345,182L340,179L336,175L336,167L337,162L339,159L339,159L334,151L332,145L329,141L324,141L322,144L320,145L317,144L314,140L308,137L308,144L307,146L301,148L296,144L295,139L292,135L291,134Z " data-fips="MG07" data-fips-="" data-iso3="MNG" data-name="Dornogovi" data-p="063"/><path d="M234,182L234,183L233,186L228,190L225,200L227,203L222,204L215,205L212,207L211,208L205,213L192,215L184,209L180,211L180,213L183,228L185,239L190,237L208,237L213,237L220,242L234,243L244,246L255,242L257,246L261,245L263,246L265,242L273,236L284,228L301,221L298,212L298,209L296,204L294,198L287,187L287,184L285,185L282,186L266,195L263,193L258,187L242,188L239,186L238,181L234,182Z " data-fips="MG14" data-fips-="" data-iso3="MNG" data-name="mngovi" data-p="053"/><path d="M317,80L309,83L303,89L299,89L297,91L291,90L288,91L284,91L277,93L277,93L277,93L277,95L277,97L278,97L281,99L286,108L286,115L283,119L282,119L282,119L283,123L283,124L283,125L283,126L283,126L285,128L285,129L290,134L291,134L292,135L295,139L296,144L301,148L307,146L308,144L308,137L314,140L317,144L320,145L322,144L324,141L324,140L322,132L324,127L323,120L328,116L327,113L328,110L333,107L333,107L332,104L330,102L328,96L326,93L322,88L321,86L318,79L317,80Z " data-fips="MG11" data-fips-="" data-iso3="MNG" data-name="Hentiy" data-p="039"/><path d="M193,117L182,116L181,117L182,119L180,121L180,124L181,127L173,130L173,132L167,134L165,133L162,135L158,138L155,139L156,147L158,147L159,146L166,149L170,148L174,144L179,155L184,152L186,155L189,158L196,157L197,157L203,155L209,151L211,152L215,143L217,144L219,146L224,145L226,144L225,143L218,137L217,137L213,133L211,129L204,125L202,119L197,118L195,117L195,116L193,117Z " data-fips="MG01" data-fips-="" data-iso3="MNG" data-name="Arhangay" data-p="073"/><path d="M158,147L158,147L155,155L152,156L151,166L151,167L151,168L157,176L159,177L163,182L164,188L162,199L162,204L159,208L159,210L160,224L160,227L161,240L184,240L185,239L183,228L180,213L180,211L184,209L192,215L205,213L211,208L207,199L206,193L200,191L200,189L199,172L201,170L200,166L201,164L200,161L197,158L197,157L196,157L189,158L186,155L184,152L179,155L174,144L170,148L166,149L159,146L158,147Z " data-fips="MG02" data-fips-="" data-iso3="MNG" data-name="Bayanhongor" data-p="069"/><path d="M118,108L118,113L119,115L122,118L120,127L114,131L98,133L96,136L95,138L96,138L95,141L92,144L95,150L96,152L99,151L104,149L112,150L114,150L125,153L130,156L135,163L139,162L142,168L146,168L147,167L150,167L151,167L151,166L152,156L155,155L158,147L158,147L156,147L155,139L158,138L162,135L165,133L165,131L164,127L165,125L163,117L159,118L157,121L153,121L149,121L145,119L140,119L136,113L138,108L137,108L136,107L128,107L122,105L118,108L118,108Z " data-fips="MG09" data-fips-="" data-iso3="MNG" data-name="Dzavhan" data-p="057"/><path d="M96,152L96,153L104,159L104,161L107,166L101,171L99,177L97,184L93,189L93,202L94,201L99,202L105,207L109,207L115,212L120,214L125,213L124,216L124,219L128,221L133,233L139,238L140,241L152,239L161,240L160,227L160,224L159,210L159,208L162,204L162,199L164,188L163,182L159,177L157,176L151,168L151,167L150,167L147,167L146,168L142,168L139,162L135,163L130,156L125,153L114,150L112,150L104,149L99,151L96,152Z " data-fips="MG10" data-fips-="" data-iso3="MNG" data-name="Govi-Altay" data-p="065"/><path d="M69,133L68,133L62,135L62,141L64,146L66,151L71,162L71,166L77,171L76,172L70,173L65,171L65,171L64,177L65,182L61,189L61,193L64,199L65,198L69,200L74,201L85,202L93,202L93,202L93,189L97,184L99,177L101,171L107,166L104,161L104,159L96,153L96,152L95,150L92,144L95,141L96,138L95,138L94,137L91,133L85,135L80,134L77,132L75,127L72,129L69,133L69,133Z " data-fips="MG00" data-fips-="MG12" data-iso3="MNG" data-name="Hovd" data-p="043"/><path d="M138,108L136,113L140,119L145,119L149,121L153,121L157,121L159,118L163,117L165,125L164,127L165,131L165,133L167,134L173,132L173,130L181,127L180,124L180,121L182,119L181,117L182,116L193,117L195,116L195,116L195,111L199,108L203,106L204,102L207,101L205,100L198,98L198,97L202,88L202,88L196,81L194,73L194,72L186,70L185,71L174,67L170,68L164,66L158,64L154,62L153,68L149,71L148,75L146,76L144,85L146,88L151,94L151,98L149,103L144,105L144,107L138,108L138,108Z " data-fips="MG13" data-fips-="" data-iso3="MNG" data-name="Hvsgl" data-p="041"/><path d="M52,109L54,110L54,113L56,117L63,122L63,124L67,128L69,132L69,133L69,133L72,129L75,127L77,132L80,134L85,135L91,133L94,137L95,138L96,136L98,133L114,131L120,127L122,118L119,115L118,113L118,108L118,108L117,107L113,107L111,106L108,106L105,103L103,97L89,96L86,93L84,95L79,92L79,95L73,95L69,100L64,101L61,103L60,105L56,105L52,108L52,109Z " data-fips="MG19" data-fips-="" data-iso3="MNG" data-name="Uvs" data-p="046"/><path d="M202,88L198,97L198,98L205,100L207,101L204,102L203,106L199,108L195,111L195,116L195,116L195,117L197,118L202,119L204,125L211,129L213,133L217,137L218,137L225,143L226,144L226,144L229,143L230,143L231,142L232,142L231,138L232,137L238,134L236,129L233,129L231,124L232,118L231,117L231,116L231,114L231,114L229,112L228,112L228,112L223,110L224,109L229,108L229,108L229,107L229,97L230,97L226,93L226,90L223,87L223,87L222,89L217,89L215,91L211,90L209,89L207,89L204,88L202,88Z " data-fips="MG21" data-fips-="" data-iso3="MNG" data-name="Bulgan" data-p="067"/><path d="M229,108L224,109L223,110L228,112L228,112L229,111L230,110L230,108L229,108L229,108Z " data-fips="MG22" data-fips-="MG21|MG25" data-iso3="MNG" data-name="Orhon" data-p="035"/><path d="M288,183L288,178L294,176L295,173L297,172L294,164L292,157L293,155L290,156L289,155L288,151L283,144L284,143L281,142L281,142L280,142L280,145L277,149L272,151L266,149L259,150L255,149L252,149L250,155L244,153L241,158L240,157L240,158L239,161L236,164L236,171L232,172L231,176L234,179L233,181L234,182L238,181L239,186L242,188L258,187L263,193L266,195L282,186L285,185L287,184L288,183Z " data-fips="MG00" data-fips-="MG08" data-iso3="MNG" data-name="Dundgovi" data-p="059"/><path d="M223,87L226,90L226,93L230,97L229,97L229,107L229,108L230,108L230,110L229,111L228,112L229,112L231,114L231,114L231,116L231,117L234,117L243,114L242,112L244,110L249,110L249,112L253,112L258,113L263,110L264,110L268,104L266,102L271,100L273,100L275,98L277,97L277,97L277,95L277,93L277,93L276,93L272,90L269,90L267,85L267,84L264,83L258,84L252,80L247,80L245,82L234,80L231,83L223,86L223,87Z M247,104L245,104L245,98L244,96L246,91L246,95L249,95L251,94L255,95L257,101L254,103L252,102L247,104Z " data-fips="MG16" data-fips-="MG05" data-iso3="MNG" data-name="Selenge" data-p="049"/><path d="M224,145L219,146L217,144L215,143L211,152L209,151L203,155L197,157L197,158L200,161L201,164L200,166L201,170L199,172L200,189L200,191L206,193L207,199L211,208L212,207L215,205L222,204L227,203L225,200L228,190L233,186L234,183L234,182L233,181L234,179L231,176L232,172L236,171L236,164L239,161L240,158L240,157L240,157L238,156L236,153L234,150L235,147L232,144L231,143L231,142L230,143L229,143L226,144L226,144L224,145Z " data-fips="MG00" data-fips-="MG15" data-iso3="MNG" data-name="vrhangay" data-p="055"/><path d="M249,95L246,95L246,91L244,96L245,98L245,104L247,104L252,102L254,103L257,101L255,95L251,94L249,95Z " data-fips="MG05" data-fips-="MG16|MG23" data-iso3="MNG" data-name="Darhan-Uul" data-p="037"/><path d="M277,97L275,98L273,100L271,100L266,102L268,104L264,110L263,110L258,113L253,112L249,112L249,110L244,110L242,112L243,114L234,117L231,117L232,118L231,124L233,129L236,129L238,134L232,137L231,138L232,142L231,142L231,143L232,144L235,147L234,150L236,153L238,156L240,157L240,157L241,158L244,153L250,155L252,149L255,149L259,150L266,149L272,151L277,149L280,145L280,142L281,142L281,141L287,140L289,138L290,137L291,134L290,134L285,129L285,128L283,126L283,126L282,126L280,125L280,122L281,119L282,119L283,119L286,115L286,108L281,99L278,97L277,97L277,97Z M261,119L264,117L271,122L272,127L268,127L266,127L259,128L255,119L261,119Z " data-fips="MG18" data-fips-="" data-iso3="MNG" data-name="Tv" data-p="047"/><path d="M281,119L280,122L280,125L282,126L283,126L283,125L283,124L283,123L282,119L282,119L281,119Z " data-fips="MG20" data-fips-="MG24" data-iso3="MNG" data-name="Govismber" data-p="064"/><path d="M261,119L255,119L259,128L266,127L268,127L272,127L271,122L264,117L261,119Z " data-fips="MG20" data-fips-="" data-iso3="MNG" data-name="Ulaanbaatar" data-p="1"/><path d="M318,79L321,86L322,88L326,93L328,96L330,102L332,104L333,107L334,108L335,110L336,109L348,108L359,112L359,115L361,118L363,118L368,122L370,120L378,116L383,114L389,118L389,118L398,114L398,110L402,108L405,104L411,101L416,100L420,99L425,97L425,93L422,89L414,85L410,83L400,79L393,82L389,90L382,88L378,91L375,92L372,96L367,94L365,90L367,87L367,76L366,74L367,54L366,53L360,53L356,58L352,59L343,55L338,56L328,68L328,72L324,76L321,76L318,79Z " data-fips="MG06" data-fips-="" data-iso3="MNG" data-name="Dornod" data-p="061"/><path d="M333,107L333,107L328,110L327,113L328,116L323,120L324,127L322,132L324,140L324,141L329,141L332,145L334,151L339,159L340,159L345,158L350,160L355,160L362,158L367,153L371,142L375,142L381,139L388,130L387,127L388,122L389,118L389,118L383,114L378,116L370,120L368,122L363,118L361,118L359,115L359,112L348,108L336,109L335,110L334,108L333,107Z " data-fips="MG17" data-fips-="" data-iso3="MNG" data-name="Shbaatar" data-p="051"/></g></svg>