<?xml version="1.0" encoding="UTF-8"?><!DOCTYPE svg  PUBLIC '-//W3C//DTD SVG 1.1//EN'  'http://www.w3.org/Graphics/SVG/1.1/DTD/svg11.dtd'><svg enable_background="new 0 0 450 451" height="451px" style="stroke-linejoin: round; stroke:#000; fill:#f6f3f0;" version="1.1" viewBox="0 0 450 451" width="450px" xmlns="http://www.w3.org/2000/svg" xmlns:xlink="http://www.w3.org/1999/xlink"><defs><style type="text/css"><![CDATA[path { fill-rule: evenodd; }
#context path { fill: #eee; stroke: #bbb; } ]]></style></defs><metadata><views><view h="451" padding="0.06" w="450"><proj id="laea" lat0="-15.8686951635" lon0="32.3159068824"/><bbox h="215.52" w="142.08" x="967.33" y="927.54"/><llbbox lat0="-90" lat1="90" lon0="-180" lon1="180"/></view></views></metadata><g id="context"><path d="M75,314L74,313L72,311L69,311L66,308L67,304L55,300L46,299L41,297L34,287L33,271L24,271L22,263L21,261L9,256L0,250L0,380L6,378L16,368L22,351L29,346L31,345L37,341L48,327L52,325L62,322L66,316L69,315L75,314Z " data-iso="BWA"/><path d="M0,0L0,53L7,52L10,51L12,44L15,42L17,47L22,51L24,55L28,60L33,60L46,65L47,66L52,74L54,74L62,87L65,88L72,86L74,85L80,89L82,87L82,56L74,58L74,62L73,63L63,61L49,48L45,39L46,36L50,22L52,18L51,11L52,0L0,0Z " data-iso="COD"/><path d="M433,67L431,65L430,68L435,69L433,67Z M450,62L448,64L444,64L448,66L450,62Z M425,56L423,48L424,43L420,44L419,52L421,54L425,56Z " data-iso="COM"/><path d="M450,168L444,169L443,181L431,198L429,203L430,212L431,221L435,233L435,237L437,248L439,251L435,270L432,276L423,288L420,296L413,300L411,307L405,323L405,326L408,339L411,344L414,356L412,361L412,377L415,382L418,394L423,398L425,401L436,404L442,410L450,411L450,168Z " data-iso="MDG"/><path d="M158,432L159,418L158,414L157,418L151,411L156,402L160,398L169,392L181,387L199,381L208,377L212,374L220,362L221,356L219,357L217,353L220,340L222,334L221,326L222,319L220,312L219,314L218,321L216,319L217,310L216,300L212,294L212,288L209,278L203,268L204,260L204,256L202,250L209,253L219,245L226,236L234,230L238,228L241,225L245,227L248,220L253,215L258,207L266,201L272,196L281,192L286,190L294,187L306,184L311,182L325,172L331,169L329,165L334,164L338,157L349,145L352,139L353,131L357,126L357,119L354,118L352,121L354,113L351,110L351,103L351,93L352,91L352,81L348,81L349,79L351,77L352,69L350,68L351,58L352,55L349,46L351,34L353,31L352,28L354,25L351,24L355,21L352,18L351,16L339,25L334,27L325,30L322,32L318,33L313,33L308,34L301,39L296,36L286,35L284,40L281,42L277,45L272,46L260,42L255,44L251,45L243,44L236,38L233,38L229,41L217,41L212,41L208,41L203,44L201,48L196,57L199,69L201,87L204,90L212,94L218,101L233,121L233,130L232,136L232,140L231,154L226,158L220,159L216,168L218,176L216,184L214,184L212,181L214,178L210,174L197,161L193,152L196,147L200,137L201,129L200,119L195,114L188,116L181,116L178,118L172,110L168,104L167,103L162,105L126,118L110,122L93,129L94,134L97,142L98,145L98,149L99,154L118,155L123,158L130,160L136,165L143,166L153,170L156,172L161,173L159,177L159,181L161,187L161,191L161,200L161,208L158,225L155,227L158,234L156,241L161,257L158,263L154,270L150,273L149,282L146,286L146,291L124,316L121,319L121,320L128,348L134,361L137,372L137,402L136,405L136,408L137,410L137,410L139,412L139,418L140,424L140,433L142,432L146,433L156,433L158,433L158,432Z M206,55L205,52L205,52L206,55Z M204,52L201,52L201,51L204,52Z " data-iso="MOZ"/><path d="M206,55L205,52L205,52L206,55Z M204,52L201,51L201,52L204,52Z M167,103L168,104L172,110L178,118L181,116L188,116L195,114L200,119L201,129L200,137L196,147L193,152L197,161L210,174L214,178L212,181L214,184L216,184L218,176L216,168L220,159L226,158L231,154L232,140L232,136L233,130L233,121L218,101L212,94L204,90L201,87L199,69L196,57L201,48L203,44L208,41L212,41L212,40L209,35L207,34L203,27L204,23L204,17L202,14L202,7L200,0L171,0L170,1L176,6L176,9L174,20L169,23L172,30L169,36L168,37L170,44L169,54L171,60L175,61L172,64L163,68L161,72L161,79L160,86L156,91L154,92L157,95L156,97L160,100L161,102L166,101L167,103Z " data-iso="MWI"/><path d="M136,410L135,411L124,405L119,407L117,411L110,431L112,432L116,440L121,443L126,444L137,445L137,436L140,432L140,433L140,424L139,418L139,412L137,410L137,410L136,410Z " data-iso="SWZ"/><path d="M212,41L217,41L229,41L233,38L236,38L243,44L251,45L255,44L260,42L272,46L277,45L281,42L284,40L286,35L296,36L301,39L308,34L313,33L318,33L322,32L325,30L334,27L339,25L351,16L351,15L349,13L342,7L339,7L336,4L333,3L334,0L200,0L202,7L202,14L204,17L204,23L203,27L207,34L209,35L212,40L212,41Z " data-iso="TZA"/><path d="M158,433L156,433L146,433L142,432L140,433L140,432L137,436L137,445L126,444L121,443L116,440L112,432L110,431L117,411L119,407L124,405L135,411L136,410L137,410L136,408L136,405L137,402L137,372L134,361L128,348L121,320L121,319L118,317L107,316L101,317L94,316L88,314L82,313L75,314L75,314L69,315L66,316L62,322L52,325L48,327L37,341L31,345L29,346L22,351L16,368L6,378L0,380L0,449L154,449L154,448L157,439L158,433Z " data-iso="ZAF"/><path d="M98,145L97,142L94,134L93,129L110,122L126,118L162,105L167,103L166,101L161,102L160,100L156,97L157,95L154,92L156,91L160,86L161,79L161,72L163,68L172,64L175,61L171,60L169,54L170,44L168,37L169,36L172,30L169,23L174,20L176,9L176,6L170,1L171,0L52,0L51,11L52,18L50,22L46,36L45,39L49,48L63,61L73,63L74,62L74,58L82,56L82,87L80,89L74,85L72,86L65,88L62,87L54,74L52,74L47,66L46,65L33,60L28,60L24,55L22,51L17,47L15,42L12,44L10,51L7,52L0,53L0,207L5,208L10,209L16,206L25,195L30,188L33,183L37,179L49,172L59,166L60,156L64,152L75,147L81,146L94,145L98,145Z " data-iso="ZMB"/><path d="M75,314L75,314L82,313L88,314L94,316L101,317L107,316L118,317L121,319L124,316L146,291L146,286L149,282L150,273L154,270L158,263L161,257L156,241L158,234L155,227L158,225L161,208L161,200L161,191L161,187L159,181L159,177L161,173L156,172L153,170L143,166L136,165L130,160L123,158L118,155L99,154L98,149L98,145L94,145L81,146L75,147L64,152L60,156L59,166L49,172L37,179L33,183L30,188L25,195L16,206L10,209L5,208L0,207L0,250L9,256L21,261L22,263L24,271L33,271L34,287L41,297L46,299L55,300L67,304L66,308L69,311L72,311L74,313L75,314Z " data-iso="ZWE"/></g><g fill="red" fill-opacity="0.35" id="regions"><path d="M162,190L168,179L170,173L173,170L173,168L176,165L182,165L184,168L191,172L197,173L201,176L203,177L208,181L209,183L214,196L218,199L219,199L219,198L219,189L218,188L218,184L217,184L214,184L214,176L209,173L205,168L203,167L200,163L197,162L196,159L196,156L192,152L193,149L197,146L198,140L201,137L201,132L201,129L200,119L198,116L192,114L188,116L186,115L181,117L180,116L178,118L173,113L170,108L169,105L167,103L143,112L129,116L123,119L108,123L100,126L95,128L93,128L94,135L97,141L97,142L98,155L110,155L112,156L116,154L119,155L122,158L124,159L130,160L134,164L134,165L138,166L144,166L161,173L160,175L158,179L161,184L162,190L162,190Z " data-fips="MZ08" data-fips-="" data-iso3="MOZ" data-name="Tete"/><path d="M162,190L162,195L162,201L160,205L161,212L163,215L161,218L159,219L160,224L154,227L154,232L157,232L158,235L156,244L157,244L158,249L159,249L162,251L162,258L160,258L158,264L154,270L151,272L149,275L149,280L146,287L148,291L148,291L154,293L157,295L160,296L163,298L165,296L167,296L168,296L168,296L182,294L182,294L185,291L186,291L186,289L186,283L183,282L183,277L180,275L173,268L173,262L171,260L174,257L180,257L183,255L184,252L182,248L184,246L184,240L187,230L182,225L179,224L183,218L182,217L185,209L192,211L192,203L190,203L190,196L191,193L192,185L194,182L200,178L201,176L197,173L191,172L184,168L182,165L176,165L173,168L173,170L170,173L168,179L162,190L162,190Z " data-fips="MZ10" data-fips-="" data-iso3="MOZ" data-name="Manica"/><path d="M301,39L298,44L299,52L292,61L292,63L288,66L287,80L287,81L291,83L292,82L291,87L288,90L290,92L292,100L296,107L297,108L298,108L304,109L308,108L314,104L323,102L324,100L330,98L334,97L335,96L341,93L342,93L350,94L350,94L352,85L351,84L348,80L354,75L352,74L352,69L350,69L351,65L351,59L352,55L351,54L350,45L349,44L350,39L349,37L352,34L352,29L354,26L352,24L355,21L354,21L350,17L346,19L339,24L333,27L326,29L321,32L311,33L307,35L301,39L301,39Z " data-fips="MZ01" data-fips-="" data-iso3="MOZ" data-name="Cabo Delgado"/><path d="M232,141L242,141L248,137L251,136L254,131L254,130L256,129L261,122L270,118L274,115L279,112L283,111L285,113L287,112L291,111L296,109L297,108L296,107L292,100L290,92L288,90L291,87L292,82L291,83L287,81L287,80L288,66L292,63L292,61L299,52L298,44L301,39L300,38L290,34L285,36L284,41L280,44L276,45L274,46L272,45L261,42L250,44L243,45L242,41L235,37L230,39L229,41L222,41L204,41L203,41L202,47L196,56L200,69L201,82L201,86L203,90L210,91L214,96L223,107L225,110L233,121L233,126L234,126L231,133L232,140L232,141Z M202,54L201,52L203,51L202,54Z M204,53L205,52L205,55L204,53Z " data-fips="MZ07" data-fips-="" data-iso3="MOZ" data-name="Niassa"/><path d="M297,108L296,109L291,111L287,112L285,113L283,111L279,112L274,115L270,118L261,122L256,129L254,130L267,130L271,136L274,134L279,136L280,136L299,146L300,147L302,148L306,153L308,160L308,163L311,169L310,171L313,180L313,179L318,176L325,173L330,169L329,165L337,160L338,156L344,151L346,148L349,146L352,139L352,137L348,137L349,136L353,135L352,132L357,128L356,118L354,118L352,121L353,116L355,116L354,112L350,111L353,108L352,105L350,97L351,95L350,94L342,93L341,93L335,96L334,97L330,98L324,100L323,102L314,104L308,108L304,109L298,108L297,108Z " data-fips="MZ06" data-fips-="" data-iso3="MOZ" data-name="Nampula"/><path d="M136,367L144,367L147,367L154,374L160,380L159,386L161,387L161,391L164,392L164,395L165,395L167,393L178,388L193,383L196,382L191,378L195,376L190,373L188,374L185,362L183,361L183,354L184,352L182,351L184,348L181,344L183,343L176,331L170,326L168,322L169,319L170,318L170,311L165,304L165,301L168,296L168,296L167,296L165,296L163,298L160,296L157,295L154,293L148,291L148,291L124,316L120,319L126,345L127,347L129,349L134,363L135,364L136,367Z " data-fips="MZ02" data-fips-="" data-iso3="MOZ" data-name="Gaza"/><path d="M218,199L214,196L209,183L208,181L203,177L201,176L200,178L194,182L192,185L191,193L190,196L190,203L192,203L192,211L185,209L182,217L183,218L179,224L182,225L187,230L184,240L184,246L182,248L184,252L183,255L180,257L174,257L171,260L173,262L173,268L180,275L183,277L183,282L186,283L186,289L186,291L189,291L191,290L194,291L197,288L212,282L212,282L210,279L207,275L204,272L202,271L203,270L204,263L202,262L203,255L204,254L201,249L204,251L206,254L213,250L221,243L228,234L235,230L238,227L238,227L239,226L238,222L239,220L237,216L231,210L231,210L227,207L225,207L222,204L221,202L219,199L219,199L218,199Z " data-fips="MZ05" data-fips-="" data-iso3="MOZ" data-name="Sofala"/><path d="M254,130L254,131L251,136L248,137L242,141L232,141L232,141L231,152L230,157L229,158L222,158L218,161L217,167L214,169L218,173L218,178L219,180L218,184L218,184L218,188L219,189L219,198L219,199L219,199L221,202L222,204L225,207L227,207L231,210L231,210L237,216L239,220L238,222L239,226L238,227L238,228L238,229L241,228L241,226L244,226L247,221L254,215L255,212L257,212L259,208L258,206L260,207L265,201L274,195L302,184L306,184L311,183L313,180L313,180L310,171L311,169L308,163L308,160L306,153L302,148L300,147L299,146L280,136L279,136L274,134L271,136L267,130L254,130Z " data-fips="MZ09" data-fips-="" data-iso3="MOZ" data-name="Zambezia"/><path d="M220,304L221,298L220,301L220,304Z M212,282L197,288L194,291L191,290L189,291L186,291L185,291L182,294L182,294L168,296L168,296L168,296L165,301L165,304L170,311L170,318L169,319L168,322L170,326L176,331L183,343L181,344L184,348L182,351L184,352L183,354L183,361L185,362L188,374L190,373L195,376L191,378L196,382L196,382L200,381L210,376L215,370L221,357L221,355L218,357L216,360L219,347L220,343L220,340L223,333L221,332L221,324L222,320L221,313L216,320L217,311L216,303L216,300L213,295L213,288L211,288L212,282L212,282Z " data-fips="MZ03" data-fips-="" data-iso3="MOZ" data-name="Inhambane"/><path d="M137,369L137,396L137,403L136,406L137,411L139,412L140,415L139,418L140,424L141,433L146,433L158,433L159,418L160,413L158,414L158,418L154,416L152,412L149,410L152,410L154,408L156,403L158,399L164,395L164,392L161,391L161,387L159,386L160,380L154,374L147,367L144,367L136,367L137,369Z " data-fips="MZ04" data-fips-="" data-iso3="MOZ" data-name="Maputo"/></g></svg>