<?xml version="1.0" encoding="UTF-8"?><!DOCTYPE svg  PUBLIC '-//W3C//DTD SVG 1.1//EN'  'http://www.w3.org/Graphics/SVG/1.1/DTD/svg11.dtd'><svg enable_background="new 0 0 450 301" height="301px" style="stroke-linejoin: round; stroke:#000; fill:#f6f3f0;" version="1.1" viewBox="0 0 450 301" width="450px" xmlns="http://www.w3.org/2000/svg" xmlns:xlink="http://www.w3.org/1999/xlink"><defs><style type="text/css"><![CDATA[path { fill-rule: evenodd; }
#context path { fill: #eee; stroke: #bbb; } ]]></style></defs><metadata><views><view h="301.0" padding="0.06" w="450"><proj id="laea" lat0="24.3185934515" lon0="-9.26393441728"/><bbox h="171.23" w="156.52" x="901.53" y="954.99"/><llbbox lat0="-90" lat1="90" lon0="-180" lon1="180"/></view></views></metadata><g id="context"><path d="M450,299L450,273L442,272L438,273L429,280L417,286L413,287L411,293L410,294L403,292L400,293L394,299L450,299Z " data-iso="BFA"/><path d="M271,7L271,10L271,15L275,17L293,29L319,45L342,60L347,63L353,67L378,83L412,105L450,129L450,0L271,0L271,1L271,7Z " data-iso="DZA"/><path d="M92,0L94,2L95,0L92,0Z M137,0L140,2L143,1L137,0Z " data-iso="ESP"/><path d="M105,137L111,136L127,136L136,138L148,138L150,137L153,133L153,130L161,120L163,110L167,94L170,89L181,85L186,76L187,74L197,68L201,61L207,41L213,40L221,27L219,23L228,20L236,21L250,24L251,24L257,19L269,18L270,18L269,7L271,7L271,1L271,0L190,0L184,10L181,16L179,22L170,30L166,32L160,37L158,42L153,53L152,57L151,64L150,68L147,71L144,73L136,81L130,86L132,86L128,92L123,102L123,103L121,107L119,112L116,118L112,119L110,121L107,127L105,137Z " data-iso="MAR"/><path d="M450,129L412,105L378,83L353,67L347,63L340,63L312,64L318,111L326,170L336,245L341,251L338,268L296,268L260,268L256,267L254,270L246,271L236,270L230,270L225,276L215,265L208,270L204,281L201,284L197,283L199,286L198,290L203,296L203,299L394,299L400,293L403,292L410,294L411,293L413,287L417,286L429,280L438,273L442,272L450,273L450,129Z " data-iso="MLI"/><path d="M347,63L342,60L319,45L293,29L275,17L271,15L271,18L272,42L253,42L207,42L206,96L199,99L194,100L186,106L183,113L184,119L185,142L141,140L106,139L104,150L105,145L107,144L110,150L113,155L116,154L118,159L120,163L118,173L114,179L117,179L114,183L117,186L119,190L121,200L121,214L120,221L117,229L114,234L111,241L110,248L109,258L115,245L116,243L122,244L131,243L143,241L151,242L156,243L163,249L165,253L171,253L174,255L181,268L183,267L187,274L192,278L197,282L197,283L201,284L204,281L208,270L215,265L225,276L230,270L236,270L246,271L254,270L256,267L260,268L296,268L338,268L341,251L336,245L326,170L318,111L312,64L340,63L347,63Z " data-iso="MRT"/><path d="M271,10L271,7L269,7L270,18L269,18L257,19L251,24L250,24L236,21L228,20L219,23L221,27L213,40L207,41L201,61L197,68L187,74L186,76L181,85L170,89L167,94L163,110L161,120L153,130L153,133L150,137L148,138L136,138L127,136L111,136L105,137L105,138L103,149L104,150L106,139L141,140L185,142L184,119L183,113L186,106L194,100L199,99L206,96L207,42L253,42L272,42L271,18L271,15L271,10Z " data-iso="SAH"/><path d="M197,283L197,282L192,278L187,274L183,267L181,268L174,255L171,253L165,253L163,249L156,243L151,242L143,241L131,243L122,244L116,243L115,245L109,258L108,260L102,269L96,277L88,280L95,283L99,288L102,295L103,299L203,299L203,296L198,290L199,286L197,283Z " data-iso="SEN"/></g><g fill="red" fill-opacity="0.35" id="regions"><path d="M314,77L312,64L347,63L333,54L271,15L272,42L271,42L207,42L206,96L199,99L194,100L186,106L183,111L184,117L184,128L185,137L198,142L230,139L314,79L314,77Z " data-fips="MR11" data-fips-="" data-iso3="MRT" data-name="Tiris Zemmour"/><path d="M191,202L174,213L168,218L164,222L156,233L148,238L143,241L143,241L154,242L155,242L163,249L163,251L168,253L168,253L171,250L179,248L181,244L184,244L187,239L187,238L187,238L190,234L193,233L197,230L197,230L195,228L193,225L193,218L194,208L191,202Z " data-fips="MR05" data-fips-="" data-iso3="MRT" data-name="Brakna"/><path d="M106,139L103,149L104,150L105,145L107,144L110,150L113,156L115,154L120,163L119,165L119,172L115,179L117,180L117,180L119,177L133,153L128,144L162,145L159,141L106,139Z " data-fips="MR08" data-fips-="" data-iso3="MRT" data-name="Dakhlet Nouadhibou"/><path d="M128,144L133,153L119,177L117,180L116,181L112,181L114,184L118,188L119,190L158,191L159,191L159,186L160,182L162,146L162,145L128,144Z " data-fips="MR12" data-fips-="" data-iso3="MRT" data-name="Inchiri"/><path d="M122,208L122,212L121,214L127,214L127,203L121,203L122,208Z " data-fips="MR06" data-fips-="" data-iso3="MRT" data-name="Nouakchott"/><path d="M179,192L159,191L158,191L119,190L119,190L120,198L121,201L121,203L127,203L127,214L121,214L121,216L120,221L118,228L112,240L110,248L113,249L114,244L118,243L119,244L125,244L128,245L132,243L139,243L140,241L143,241L143,241L148,238L156,233L164,222L168,218L174,213L191,202L179,192Z " data-fips="MR06" data-fips-="" data-iso3="MRT" data-name="Trarza"/><path d="M197,230L197,230L193,233L190,234L187,238L187,238L187,239L186,241L188,245L188,247L190,246L194,247L195,250L195,252L199,252L199,254L203,258L203,258L204,259L207,259L207,256L210,257L210,267L210,267L215,265L218,269L224,274L226,277L230,270L233,270L233,270L231,259L229,257L228,248L227,248L230,246L228,244L225,240L225,234L224,233L223,221L223,220L225,208L220,212L218,213L213,213L214,218L216,222L215,224L213,233L209,233L206,234L199,232L197,230Z " data-fips="MR03" data-fips-="" data-iso3="MRT" data-name="Assaba"/><path d="M203,258L202,259L197,261L194,264L189,271L188,276L188,276L190,276L193,279L194,280L198,284L201,284L206,278L206,275L209,267L210,267L210,257L207,256L207,259L204,259L203,258Z " data-fips="MR10" data-fips-="" data-iso3="MRT" data-name="Guidimaka"/><path d="M187,238L187,239L184,244L181,244L179,248L171,250L168,253L168,253L173,253L173,255L178,265L186,272L187,275L188,276L189,271L194,264L197,261L202,259L203,258L203,258L199,254L199,252L195,252L195,250L194,247L190,246L188,247L188,245L186,241L187,239L187,238Z " data-fips="MR04" data-fips-="" data-iso3="MRT" data-name="Gorgol"/><path d="M315,87L314,79L230,139L198,142L185,137L185,138L185,142L159,141L162,145L162,146L160,182L159,186L159,191L179,192L191,202L195,197L197,195L211,186L216,188L217,184L225,178L286,177L286,177L317,104L318,104L315,87Z " data-fips="MR07" data-fips-="" data-iso3="MRT" data-name="Adrar"/><path d="M318,104L317,104L286,177L286,177L263,230L263,230L274,229L280,236L268,249L268,251L264,256L266,261L267,268L266,269L338,268L341,250L336,245L325,160L318,104Z " data-fips="MR01" data-fips-="" data-iso3="MRT" data-name="Hodh ech Chargui"/><path d="M251,224L251,224L238,225L230,222L223,220L223,221L224,233L225,234L225,240L228,244L230,246L227,248L228,248L229,257L231,259L233,270L233,270L239,270L244,271L252,270L257,270L257,266L258,264L259,269L266,269L267,268L266,261L264,256L268,251L268,249L280,236L274,229L263,230L251,224Z " data-fips="MR02" data-fips-="" data-iso3="MRT" data-name="Hodh el Gharbi"/><path d="M263,230L286,177L225,178L217,184L216,188L211,186L197,195L195,197L191,202L194,208L193,218L193,225L195,228L197,230L199,232L206,234L209,233L213,233L215,224L216,222L214,218L213,213L218,213L220,212L225,208L223,220L230,222L238,225L251,224L251,224L263,230L263,230Z " data-fips="MR09" data-fips-="" data-iso3="MRT" data-name="Tagant"/></g></svg>