<?xml version="1.0" encoding="UTF-8"?><!DOCTYPE svg  PUBLIC '-//W3C//DTD SVG 1.1//EN'  'http://www.w3.org/Graphics/SVG/1.1/DTD/svg11.dtd'><svg enable_background="new 0 0 450 451" height="451px" style="stroke-linejoin: round; stroke:#000; fill:#f6f3f0;" version="1.1" viewBox="0 0 450 451" width="450px" xmlns="http://www.w3.org/2000/svg" xmlns:xlink="http://www.w3.org/1999/xlink"><defs><style type="text/css"><![CDATA[path { fill-rule: evenodd; }
#context path { fill: #eee; stroke: #bbb; } ]]></style></defs><metadata><views><view h="451" padding="0.06" w="450"><proj id="laea" lat0="-10.0310669898" lon0="34.0565823304"/><bbox h="100.3" w="43.43" x="980.95" y="989.67"/><llbbox lat0="-90" lat1="90" lon0="-180" lon1="180"/></view></views></metadata><g id="context"><path d="M262,132L255,132L246,132L243,134L243,138L240,146L230,162L230,167L236,192L238,206L240,230L243,234L246,237L256,239L264,246L277,260L301,291L309,303L310,313L311,315L308,323L306,336L308,344L307,358L305,374L303,379L301,381L295,383L282,385L276,397L273,404L278,421L278,436L274,438L270,438L265,432L268,430L269,426L267,422L264,421L260,418L250,407L243,400L238,393L232,389L231,387L231,380L230,377L223,370L223,366L225,363L229,360L232,352L233,347L239,337L240,322L237,298L230,289L228,288L221,289L215,290L213,292L208,292L194,295L191,297L184,289L177,281L169,268L167,266L156,270L118,284L114,285L88,293L78,298L32,312L9,321L10,332L15,341L17,350L18,357L18,366L19,376L21,377L63,378L73,385L77,386L87,388L101,400L117,401L128,405L138,409L143,413L154,415L154,419L151,425L151,433L156,445L156,449L425,449L429,446L442,442L450,439L450,122L444,118L436,117L428,117L422,117L420,119L419,122L417,128L412,133L402,138L392,140L384,139L378,136L376,133L371,132L365,132L360,134L355,138L346,140L335,139L329,137L328,134L323,130L313,125L307,125L302,129L298,132L295,133L287,132L274,132L262,132Z M249,161L247,162L247,156L249,155L251,158L249,161Z M245,156L244,159L241,159L239,156L240,154L245,156Z " data-iso="MOZ"/><path d="M249,161L251,158L249,155L247,156L247,162L249,161Z M245,156L240,154L239,156L241,159L244,159L245,156Z M151,12L151,13L155,24L161,23L166,24L169,31L175,37L173,47L177,51L184,58L185,64L192,75L191,77L181,88L174,89L170,94L174,105L176,109L175,114L170,122L168,123L168,129L171,134L172,138L172,149L170,161L174,172L176,173L183,173L184,174L178,182L169,186L157,190L155,194L153,200L156,205L155,215L154,223L153,225L148,236L143,241L139,243L139,244L144,247L145,248L144,252L149,255L152,259L155,264L157,267L164,262L167,266L169,268L177,281L184,289L191,297L194,295L208,292L213,292L215,290L221,289L228,288L230,289L237,298L240,322L239,337L233,347L232,352L229,360L225,363L223,366L223,370L230,377L231,380L231,387L232,389L238,393L243,400L250,407L260,418L264,421L267,422L269,426L268,430L265,432L270,438L274,438L278,436L278,421L273,404L276,397L282,385L295,383L301,381L303,379L305,374L307,358L308,344L306,336L308,323L311,315L310,313L309,303L301,291L277,260L264,246L256,239L246,237L243,234L240,230L238,206L236,192L230,167L230,162L240,146L243,138L243,134L246,132L255,132L262,132L262,130L261,125L256,119L251,117L242,102L245,93L246,88L246,84L245,79L242,74L241,58L239,49L239,46L236,42L228,31L227,30L215,19L210,17L207,26L204,26L197,23L194,22L178,23L174,18L163,17L154,11L152,11L151,12Z " data-iso="MWI"/><path d="M151,12L152,11L154,11L163,17L174,18L178,23L194,22L197,23L204,26L207,26L210,17L215,19L227,30L228,31L236,42L239,46L239,49L241,58L242,74L245,79L246,84L246,88L245,93L242,102L251,117L256,119L261,125L262,130L262,132L274,132L287,132L295,133L298,132L302,129L307,125L313,125L323,130L328,134L329,137L335,139L346,140L355,138L360,134L365,132L371,132L376,133L378,136L384,139L392,140L402,138L412,133L417,128L419,122L420,119L422,117L428,117L436,117L444,118L450,122L450,0L126,0L134,4L142,7L148,10L151,12Z " data-iso="TZA"/><path d="M18,357L17,350L15,341L10,332L9,321L32,312L78,298L88,293L114,285L118,284L156,270L167,266L164,262L157,267L155,264L152,259L149,255L144,252L145,248L144,247L139,244L139,243L143,241L148,236L153,225L154,223L155,215L156,205L153,200L155,194L157,190L169,186L178,182L184,174L183,173L176,173L174,172L170,161L172,149L172,138L171,134L168,129L168,123L170,122L175,114L176,109L174,105L170,94L174,89L181,88L191,77L192,75L185,64L184,58L177,51L173,47L175,37L169,31L166,24L161,23L155,24L151,13L151,12L148,10L142,7L134,4L126,0L0,0L0,358L10,358L18,357Z " data-iso="ZMB"/><path d="M18,357L10,358L0,358L0,449L156,449L156,445L151,433L151,425L154,419L154,415L143,413L138,409L128,405L117,401L101,400L87,388L77,386L73,385L63,378L21,377L19,376L18,366L18,357Z " data-iso="ZWE"/></g><g fill="red" fill-opacity="0.35" id="regions"><path d="M191,23L192,25L194,32L192,33L188,38L182,42L185,46L191,48L193,48L195,50L207,69L215,76L216,77L220,77L244,77L244,77L242,73L242,72L241,67L242,61L241,56L239,50L239,45L231,35L228,32L227,29L226,28L220,23L219,22L213,16L211,16L207,20L208,23L207,27L204,27L198,24L197,22L191,23L191,23Z " data-fips="MI08" data-fips-="" data-iso3="MWI" data-name="Chitipa" data-p="KR"/><path d="M192,76L192,76L194,76L207,69L195,50L193,48L191,48L185,46L182,42L188,38L192,33L194,32L192,25L191,23L189,23L182,24L179,24L177,22L175,19L162,16L155,11L152,11L152,16L155,17L154,23L156,24L157,23L160,26L161,22L165,23L167,25L167,29L174,35L175,39L173,43L172,48L173,49L177,51L182,54L185,57L185,63L186,67L192,73L192,76L192,76Z " data-fips="MI04" data-fips-="" data-iso3="MWI" data-name="Chitipa" data-p="CT"/><path d="M182,177L180,180L179,181L175,184L169,185L168,187L159,187L153,198L153,202L156,204L157,206L155,211L154,217L156,221L152,227L151,230L164,229L166,237L167,238L172,243L174,245L175,244L177,238L179,237L179,237L180,235L182,231L181,228L187,226L189,224L190,223L190,223L194,222L202,213L206,211L206,211L210,206L205,202L202,202L200,199L201,194L201,194L198,194L192,194L189,191L187,191L186,180L188,177L184,176L182,177Z " data-fips="MI09" data-fips-="" data-iso3="MWI" data-name="Kasungu" data-p="KS"/><path d="M172,100L177,109L172,119L171,120L170,123L168,123L168,132L171,132L173,142L172,147L172,154L170,159L173,168L174,172L177,174L181,173L184,176L184,176L188,177L186,180L187,191L189,191L192,194L198,194L201,194L201,194L202,193L204,190L214,185L215,182L211,182L206,180L203,175L198,170L198,166L202,163L198,163L195,161L196,158L199,149L200,143L198,140L198,134L200,132L204,129L208,129L210,126L215,125L216,123L214,120L213,115L212,108L213,104L212,103L207,98L206,101L198,101L196,103L194,104L192,103L189,103L186,101L180,106L179,100L172,98L172,100Z " data-fips="MI15" data-fips-="" data-iso3="MWI" data-name="Mzimba" data-p="MZ"/><path d="M248,162L251,159L251,156L245,160L248,162Z M244,158L244,154L242,153L239,155L239,156L244,158Z M213,104L212,108L213,115L214,120L216,123L215,125L210,126L208,129L204,129L200,132L198,134L198,140L200,143L199,149L196,158L195,161L198,163L202,163L203,163L208,165L212,166L229,166L229,166L231,161L240,146L243,138L243,132L245,131L262,131L262,127L258,121L250,116L249,114L246,109L244,106L242,99L243,98L223,98L221,100L213,104Z " data-fips="MI17" data-fips-="" data-iso3="MWI" data-name="Nkhata Bay" data-p="NB"/><path d="M202,163L198,166L198,170L203,175L206,180L211,182L215,182L214,185L204,190L202,193L201,194L200,199L202,202L205,202L210,206L206,211L206,211L206,214L207,219L209,220L211,217L213,216L215,219L216,223L216,225L217,230L217,237L219,237L223,235L228,233L241,233L241,232L239,228L240,219L237,193L229,166L212,166L208,165L203,163L202,163Z " data-fips="MI18" data-fips-="" data-iso3="MWI" data-name="Nkhotakota" data-p="NK"/><path d="M207,69L194,76L192,76L192,76L192,76L187,81L184,84L178,89L177,89L168,94L170,94L171,97L172,98L179,100L180,106L186,101L189,103L192,103L194,104L196,103L198,101L206,101L207,98L212,103L213,104L221,100L223,98L243,98L244,97L246,87L246,85L245,84L244,77L244,77L220,77L216,77L215,76L207,69Z " data-fips="MI21" data-fips-="" data-iso3="MWI" data-name="Rumphi" data-p="RU"/><path d="M304,296L301,297L295,298L293,301L293,303L289,307L286,308L282,306L280,304L278,307L278,307L278,307L280,314L280,318L278,320L273,333L273,333L273,334L281,333L286,334L292,332L305,333L305,332L306,329L312,315L310,314L309,303L306,298L304,296Z " data-fips="MI28" data-fips-="" data-iso3="MWI" data-name="Machinga" data-p="MH"/><path d="M225,257L224,259L221,263L216,270L215,272L211,276L209,276L207,278L206,282L202,283L199,285L195,287L194,289L193,293L190,296L190,297L192,299L193,294L195,292L198,295L201,294L204,292L207,292L213,293L216,290L220,290L230,288L230,288L232,287L235,288L239,289L242,288L246,285L250,282L250,280L249,270L240,269L237,271L236,271L228,261L225,257Z " data-fips="MI06" data-fips-="" data-iso3="MWI" data-name="Dedza" data-p="DE"/><path d="M216,238L213,239L210,238L203,237L200,238L197,238L195,230L190,225L190,223L189,224L187,226L181,228L182,231L180,235L179,237L180,237L181,239L181,245L182,248L184,249L188,249L200,252L204,252L215,255L222,254L223,253L224,253L226,251L220,248L218,245L217,242L216,238L216,238Z " data-fips="MI07" data-fips-="" data-iso3="MWI" data-name="Dowa" data-p="DO"/><path d="M179,237L179,237L177,238L175,244L174,245L174,246L171,253L171,258L175,265L174,272L176,278L176,280L180,286L185,290L186,292L189,294L190,296L193,293L194,289L195,287L199,285L202,283L206,282L207,278L209,276L211,276L215,272L216,270L221,263L224,259L225,257L225,257L223,257L221,258L223,255L223,253L222,254L215,255L204,252L200,252L188,249L184,249L182,248L181,245L181,239L180,237L179,237Z " data-fips="MI11" data-fips-="" data-iso3="MWI" data-name="Lilongwe" data-p="LI"/><path d="M292,280L288,273L268,249L258,240L256,239L256,239L249,270L250,280L250,282L250,288L251,292L253,296L261,306L263,307L264,307L278,307L278,307L280,304L282,306L286,308L289,307L293,303L293,301L295,298L301,297L304,296L292,280Z " data-fips="MI12" data-fips-="" data-iso3="MWI" data-name="Mangochi" data-p="MG"/><path d="M150,233L138,242L138,243L144,246L146,250L144,251L144,253L150,256L152,259L155,266L157,268L159,265L165,262L166,265L171,269L175,278L176,278L174,272L175,265L171,258L171,253L174,246L174,245L172,243L167,238L166,237L164,229L151,230L150,233Z " data-fips="MI13" data-fips-="" data-iso3="MWI" data-name="Mchinji" data-p="MC"/><path d="M250,282L246,285L242,288L239,289L235,288L232,287L230,288L231,289L237,297L237,304L241,320L239,324L239,327L240,332L252,334L253,335L254,339L255,338L259,320L262,315L262,314L263,308L263,307L261,306L253,296L251,292L250,288L250,282Z " data-fips="MI16" data-fips-="" data-iso3="MWI" data-name="Ntcheu" data-p="NU"/><path d="M217,230L216,225L216,223L215,219L213,216L211,217L209,220L207,219L206,214L206,211L202,213L194,222L190,223L190,223L190,225L195,230L197,238L200,238L203,237L210,238L213,239L216,238L216,238L217,237L217,230Z " data-fips="MI20" data-fips-="" data-iso3="MWI" data-name="Ntchisi" data-p="NI"/><path d="M241,233L228,233L223,235L219,237L217,237L216,238L217,242L218,245L220,248L226,251L224,253L223,253L223,255L221,258L223,257L225,257L225,257L228,261L236,271L237,271L240,269L249,270L256,239L256,239L256,239L244,237L244,236L242,233L241,233Z " data-fips="MI22" data-fips-="" data-iso3="MWI" data-name="Salima" data-p="SA"/><path d="M264,307L263,307L263,308L262,314L262,315L259,320L255,338L266,339L268,338L269,337L270,336L273,333L273,333L278,320L280,318L280,314L278,307L278,307L264,307Z " data-fips="MI26" data-fips-="" data-iso3="MWI" data-name="Balaka" data-p="BA"/><path d="M250,366L239,365L237,365L229,361L228,361L228,361L223,364L222,370L223,371L226,373L231,378L231,386L233,391L238,392L239,394L242,399L245,403L249,405L251,408L257,414L257,415L259,412L261,410L262,408L266,402L268,394L268,392L268,391L260,382L257,377L257,378L257,375L255,374L255,366L250,366Z " data-fips="MI02" data-fips-="" data-iso3="MWI" data-name="Chikwawa" data-p="CK"/><path d="M279,358L274,350L272,350L271,350L269,354L270,359L269,364L270,366L271,368L273,368L277,371L277,373L279,376L280,376L280,374L281,373L280,364L280,362L281,359L279,358Z " data-fips="MI03" data-fips-="" data-iso3="MWI" data-name="Chiradzulu" data-p="CR"/><path d="M279,387L280,383L280,381L280,376L279,376L277,373L277,371L273,368L271,368L265,372L264,372L263,373L259,377L257,377L260,382L268,391L268,392L268,394L271,397L272,397L273,397L276,398L276,398L277,391L278,389L279,387Z " data-fips="MI05" data-fips-="" data-iso3="MWI" data-name="Thyolo" data-p="TH"/><path d="M268,394L266,402L262,408L261,410L259,412L257,415L257,415L258,417L263,421L268,421L269,422L270,427L269,429L265,431L265,433L267,436L270,438L278,438L279,433L278,425L279,422L278,419L278,414L271,408L270,406L276,399L276,398L273,397L272,397L271,397L268,394Z " data-fips="MI19" data-fips-="" data-iso3="MWI" data-name="Nsanje" data-p="NS"/><path d="M273,333L270,336L269,337L268,338L266,339L264,340L265,342L268,346L271,348L270,350L271,350L272,350L274,350L279,358L281,359L283,358L285,358L287,358L290,355L291,354L292,353L300,347L302,346L308,346L308,346L308,344L305,333L292,332L286,334L281,333L273,334L273,333Z " data-fips="MI23" data-fips-="" data-iso3="MWI" data-name="Zomba" data-p="ZO"/><path d="M270,350L271,348L268,346L265,342L264,340L264,340L259,343L255,351L251,354L251,358L250,361L250,366L255,366L255,374L257,375L257,378L257,377L259,377L263,373L264,372L265,372L271,368L270,366L269,364L270,359L269,354L271,350L270,350Z " data-fips="MI24" data-fips-="" data-iso3="MWI" data-name="Blantyre" data-p="BL"/><path d="M254,339L253,335L252,334L240,332L240,336L236,343L232,347L232,356L228,361L229,361L237,365L239,365L250,366L250,361L251,358L251,354L255,351L259,343L264,340L264,340L266,339L255,338L254,339Z " data-fips="MI25" data-fips-="" data-iso3="MWI" data-name="Mwanza" data-p="MW"/><path d="M291,354L290,355L287,358L285,358L283,358L281,359L280,362L280,364L281,373L280,374L280,376L280,381L280,383L279,387L279,387L284,383L288,384L289,385L298,382L300,382L304,379L305,374L306,372L303,373L299,370L295,372L292,367L291,359L292,355L291,354Z " data-fips="MI29" data-fips-="" data-iso3="MWI" data-name="Mulanje" data-p="MU"/><path d="M291,354L292,355L291,359L292,367L295,372L299,370L303,373L306,372L306,370L308,346L302,346L300,347L292,353L291,354Z " data-fips="MI30" data-fips-="" data-iso3="MWI" data-name="Phalombe" data-p="PH"/></g></svg>