<?xml version="1.0" encoding="UTF-8"?><!DOCTYPE svg  PUBLIC '-//W3C//DTD SVG 1.1//EN'  'http://www.w3.org/Graphics/SVG/1.1/DTD/svg11.dtd'><svg enable_background="new 0 0 450 301" height="301px" style="stroke-linejoin: round; stroke:#000; fill:#f6f3f0;" version="1.1" viewBox="0 0 450 301" width="450px" xmlns="http://www.w3.org/2000/svg" xmlns:xlink="http://www.w3.org/1999/xlink"><defs><style type="text/css"><![CDATA[path { fill-rule: evenodd; }
#context path { fill: #eee; stroke: #bbb; } ]]></style></defs><metadata><views><view h="301.0" padding="0.06" w="450"><proj id="laea" lat0="4.78988882056" lon0="101.018412833"/><bbox h="111.11" w="269.07" x="968.74" y="951.25"/><llbbox lat0="-90" lat1="90" lon0="-180" lon1="180"/></view></views></metadata><g id="context"><path d="M340,133L340,139L341,143L346,144L345,138L342,133L340,133Z M340,132L339,130L336,132L322,140L320,140L323,142L325,146L327,147L331,151L335,148L336,144L334,137L340,133L340,132Z " data-iso="BRN"/><path d="M41,299L36,294L35,294L36,299L41,299Z M201,299L202,295L201,292L198,290L193,289L190,289L188,299L201,299Z M35,293L35,292L31,289L31,294L35,293Z M28,285L25,279L23,279L23,283L28,285Z M216,270L213,269L214,271L216,270Z M169,299L168,296L169,292L172,290L163,287L159,282L159,275L156,270L151,268L149,268L149,272L147,268L144,269L143,273L137,279L142,281L146,280L151,282L151,284L154,288L154,293L165,299L169,299Z M232,261L226,258L226,262L232,261Z M14,274L16,273L12,262L8,256L4,257L3,263L7,269L12,274L14,274Z M124,244L119,246L121,250L126,246L124,244Z M130,240L125,236L124,239L126,242L128,241L135,243L131,240L130,240Z M99,226L96,224L96,226L99,226Z M94,222L84,214L82,219L87,221L94,222Z M97,219L89,213L89,216L97,219Z M114,212L113,216L115,216L114,212Z M126,212L121,212L119,214L120,216L123,215L123,217L126,220L127,217L126,212Z M81,217L80,209L77,209L77,211L81,217Z M83,207L82,206L73,203L73,205L83,209L83,207Z M450,252L448,251L445,246L443,237L445,229L450,223L449,212L444,218L443,221L441,224L439,228L437,235L440,251L438,249L433,252L429,263L429,268L425,280L425,283L418,290L418,299L449,299L450,292L450,252Z M67,194L65,193L60,195L60,198L64,202L67,194Z M150,178L152,175L149,173L150,178Z M394,165L393,162L392,162L394,165Z M393,148L395,150L399,149L399,148L398,146L395,147L393,147L393,148Z M202,160L204,154L200,150L196,153L198,160L202,160Z M392,147L386,144L382,144L370,143L368,145L360,145L358,144L353,147L351,153L351,163L350,168L346,172L345,172L342,175L341,178L343,180L339,186L335,190L336,195L335,196L330,205L328,204L318,205L313,209L309,208L301,206L298,203L288,203L282,206L280,212L277,213L275,215L260,214L250,218L248,218L230,203L230,199L228,197L230,194L225,196L222,201L218,206L217,211L220,210L216,213L215,225L216,229L222,236L221,236L220,244L222,248L225,249L222,253L233,257L237,262L238,265L237,275L240,282L242,292L243,297L249,296L251,298L255,298L259,299L268,297L273,295L275,299L299,299L300,296L303,299L366,299L369,291L369,288L372,286L373,282L372,280L367,279L370,277L370,271L368,270L371,268L373,264L377,261L377,257L380,260L381,259L393,245L391,241L393,227L396,219L401,215L400,211L404,214L413,217L420,215L419,210L415,206L403,198L397,192L402,187L402,184L394,175L392,169L387,166L382,159L390,157L391,156L395,158L395,155L390,149L392,147L392,147Z M155,299L147,288L140,285L135,285L132,287L129,290L128,286L130,284L131,280L125,274L121,258L115,258L108,255L102,249L102,241L109,236L107,231L102,226L99,227L91,231L84,232L93,228L95,227L90,222L81,220L73,207L68,204L62,202L60,201L57,194L53,190L48,193L48,196L34,182L29,175L26,171L14,163L6,159L0,154L0,197L4,202L6,206L12,223L13,227L17,233L23,235L32,247L38,254L41,264L49,277L49,281L54,290L58,293L62,299L155,299Z " data-iso="IDN"/><path d="M122,22L124,20L130,19L134,16L134,12L139,13L141,11L148,10L151,12L152,12L157,14L155,8L151,4L150,0L95,0L96,12L101,10L102,8L106,9L107,12L103,18L106,20L118,19L122,22Z " data-iso="KHM"/><path d="M5,27L7,16L15,8L20,0L6,0L6,5L0,17L2,30L4,27L5,27Z " data-iso="MMR"/><path d="M266,186L264,179L264,185L266,186Z M396,145L395,145L394,145L394,146L393,147L395,147L398,146L396,145Z M37,128L38,125L36,125L35,128L37,128Z M28,104L24,104L26,108L30,106L28,104Z M35,106L39,118L39,122L41,133L44,141L44,147L47,152L46,155L52,162L58,170L59,175L58,177L63,182L68,184L76,191L84,195L88,199L91,200L101,205L103,209L114,207L114,204L117,209L119,208L118,201L110,184L104,180L102,176L102,164L101,161L103,146L102,137L93,123L83,116L79,110L78,109L74,108L74,111L71,114L65,117L64,116L57,117L54,121L52,118L54,112L46,103L44,104L38,102L37,99L35,100L34,104L35,106Z M342,133L345,138L346,144L341,143L340,139L340,133L334,137L336,144L335,148L331,151L327,147L325,146L323,142L320,140L320,140L318,141L318,146L313,152L308,158L300,169L293,172L281,175L273,177L267,181L267,184L262,190L263,191L261,196L261,200L259,204L263,207L240,201L237,201L231,197L230,194L228,197L230,199L230,203L248,218L250,218L260,214L275,215L277,213L280,212L282,206L288,203L298,203L301,206L309,208L313,209L318,205L328,204L330,205L335,196L336,195L335,190L339,186L343,180L341,178L342,175L345,172L346,172L350,168L351,163L351,153L353,147L358,144L360,145L368,145L370,143L382,144L386,144L392,147L392,146L393,144L401,145L412,141L413,140L407,136L404,133L405,129L414,130L425,125L425,121L419,120L414,117L409,113L405,112L399,115L401,112L400,107L392,110L392,105L393,101L391,98L385,95L384,90L379,92L377,95L375,89L362,107L355,119L351,118L347,122L347,124L351,127L350,129L347,132L342,133Z M381,85L383,84L384,81L380,83L381,85Z " data-iso="MYS"/><path d="M446,123L444,121L437,126L440,127L441,125L445,124L446,123Z M380,70L379,66L377,70L380,70Z M434,14L435,11L433,11L431,12L432,14L434,14Z M423,0L421,7L422,12L417,17L407,29L398,40L395,41L384,52L382,60L388,56L397,49L402,42L404,42L408,37L412,30L412,28L416,25L420,23L430,14L426,4L427,2L423,0Z " data-iso="PHL"/><path d="M113,209L110,207L107,210L110,211L113,209Z " data-iso="SGP"/><path d="M33,39L30,40L31,43L33,39Z M34,104L35,100L37,99L38,102L44,104L46,103L54,112L52,118L54,121L57,117L64,116L65,117L71,114L74,111L74,108L68,103L64,98L60,95L52,95L48,93L43,89L41,89L36,82L35,77L38,79L37,80L40,87L41,83L37,66L36,63L31,58L30,49L26,45L18,47L15,32L15,24L17,19L21,12L22,8L24,0L20,0L15,8L7,16L5,27L2,34L0,41L0,67L5,66L7,71L12,74L17,81L18,85L23,85L22,88L26,90L25,95L29,98L34,104Z " data-iso="THA"/><path d="M114,22L111,23L113,30L114,22Z M123,23L134,29L135,32L131,34L130,38L130,47L130,55L131,56L129,59L136,59L140,55L144,49L157,43L156,37L150,30L152,31L158,37L161,39L164,39L165,36L164,34L156,26L166,33L170,28L167,24L169,24L166,20L168,19L170,21L176,20L179,22L191,15L194,15L196,11L202,8L205,6L208,5L210,2L214,2L214,0L150,0L151,4L155,8L157,14L152,12L151,12L148,10L141,11L139,13L134,12L134,16L130,19L124,20L122,22L123,23Z " data-iso="VNM"/></g><g fill="red" fill-opacity="0.35" id="regions"><path d="M51,118L51,123L49,126L44,131L42,132L42,131L41,131L41,131L40,131L40,131L40,131L40,135L43,136L45,143L43,148L45,151L47,153L49,158L49,158L51,157L58,161L59,159L62,161L64,159L65,159L65,159L64,156L64,153L59,145L59,143L60,142L60,141L59,140L61,137L61,134L63,128L64,127L67,126L66,123L66,118L66,118L64,115L58,117L56,120L51,118L51,118Z " data-fips="MY07" data-fips-="" data-iso3="MYS" data-name="Perak"/><path d="M42,131L42,124L39,122L39,122L39,123L39,125L40,131L40,131L40,131L41,131L41,131L42,131L42,131Z " data-fips="MY09" data-fips-="" data-iso3="MYS" data-name="Pulau Pinang"/><path d="M38,124L35,126L35,128L37,128L38,125L38,124Z " data-fips="MY09" data-fips-="" data-iso3="MYS" data-name="Pulau Pinang"/><path d="M39,102L36,107L35,108L35,108L39,113L39,117L39,122L39,122L42,124L42,131L42,131L42,132L44,131L49,126L51,123L51,118L51,118L53,115L54,111L53,108L48,107L46,103L39,102L39,102Z " data-fips="MY02" data-fips-="" data-iso3="MYS" data-name="Kedah"/><path d="M35,108L36,107L39,102L39,102L35,99L34,105L35,107L35,108Z " data-fips="MY08" data-fips-="" data-iso3="MYS" data-name="Perlis"/><path d="M29,104L25,106L26,108L29,104Z " data-fips="MY08" data-fips-="" data-iso3="MYS" data-name="Perlis"/><path d="M87,178L87,179L86,183L86,183L85,186L85,187L84,187L83,191L82,191L83,194L83,194L87,199L100,205L102,209L106,208L107,207L113,208L114,205L117,209L120,206L116,198L116,197L113,190L110,186L110,185L107,182L106,182L106,186L103,185L96,185L93,183L88,179L87,178Z " data-fips="MY01" data-fips-="" data-iso3="MYS" data-name="Johor"/><path d="M83,116L80,110L77,108L74,109L74,111L71,114L71,116L68,118L67,118L66,118L66,123L67,126L64,127L63,128L61,134L61,137L59,140L60,141L60,142L61,142L65,143L68,141L68,139L71,142L75,139L77,141L86,139L86,139L86,138L83,136L83,132L81,130L81,126L81,123L81,119L84,116L83,116Z " data-fips="MY03" data-fips-="" data-iso3="MYS" data-name="Kelantan"/><path d="M82,186L77,186L76,186L72,188L72,188L75,190L80,193L83,194L82,191L83,191L84,187L85,187L82,186Z " data-fips="MY04" data-fips-="" data-iso3="MYS" data-name="Melaka"/><path d="M66,178L67,176L66,177L66,178Z M66,171L67,174L67,172L66,171Z M71,170L71,170L71,175L70,178L68,178L67,183L68,183L70,187L72,188L72,188L76,186L77,186L82,186L85,187L85,186L86,183L86,183L87,179L87,178L87,177L82,174L71,170L71,170Z " data-fips="MY05" data-fips-="" data-iso3="MYS" data-name="Negeri Sembilan"/><path d="M86,139L77,141L75,139L71,142L68,139L68,141L65,143L61,142L60,142L59,143L59,145L64,153L64,156L65,159L65,159L65,160L68,161L69,163L68,167L70,170L71,170L71,170L82,174L87,177L87,178L88,179L93,183L96,185L103,185L106,186L106,182L106,182L104,179L102,176L103,164L101,158L102,151L102,151L100,156L93,152L92,152L92,149L93,145L90,143L86,139L86,139L86,139Z " data-fips="MY06" data-fips-="" data-iso3="MYS" data-name="Pahang"/><path d="M48,158L53,162L58,169L60,174L58,178L61,179L62,181L67,183L67,183L68,178L70,178L71,175L71,170L71,170L70,170L68,167L69,163L68,161L65,160L65,159L64,159L62,161L59,159L58,161L51,157L49,158L48,158Z " data-fips="MY12" data-fips-="" data-iso3="MYS" data-name="Selangor"/><path d="M102,151L103,143L100,134L95,126L84,116L84,116L81,119L81,123L81,126L81,130L83,132L83,136L86,138L86,139L86,139L90,143L93,145L92,149L92,152L93,152L100,156L102,151L102,151Z " data-fips="MY13" data-fips-="" data-iso3="MYS" data-name="Trengganu"/><path d="M394,147L398,147L393,146L394,147Z M388,96L389,94L388,93L388,96Z M348,131L352,132L353,134L351,139L351,143L353,144L352,148L353,148L356,145L356,144L360,145L362,143L366,143L368,145L371,143L380,144L385,143L389,147L393,143L396,143L398,145L413,141L413,139L409,138L403,132L407,128L410,131L412,130L416,129L424,127L426,125L425,120L414,117L413,116L411,118L412,115L405,112L403,113L399,115L402,111L401,108L399,108L397,110L389,112L391,105L393,103L393,99L388,97L384,93L384,89L379,90L380,92L378,94L375,97L375,89L374,88L372,91L372,94L369,99L364,104L365,104L356,119L351,119L350,119L347,124L349,126L348,131L348,131Z M379,82L376,82L376,84L379,82Z M384,84L384,81L380,82L380,86L384,84Z " data-fips="MY15" data-fips-="MY16" data-iso3="MYS" data-name="Sabah"/><path d="M266,186L266,180L264,180L266,186Z M347,132L346,133L344,132L343,132L347,145L346,145L341,143L340,138L340,133L335,136L334,137L335,143L336,143L333,151L331,151L328,147L325,144L323,141L318,140L319,142L318,146L314,152L298,170L279,176L275,176L269,179L267,187L266,187L262,186L262,191L263,192L260,199L260,201L259,201L258,204L262,207L259,206L257,205L251,206L252,204L247,202L248,200L244,199L243,201L238,201L230,197L230,193L228,196L230,199L230,202L239,211L241,212L249,218L254,217L255,215L262,214L268,215L268,216L271,214L275,215L277,213L281,212L282,207L282,206L288,203L295,203L298,203L300,204L298,206L313,210L318,205L323,205L331,205L332,202L334,196L335,196L337,192L336,193L335,189L344,182L341,181L341,176L345,172L346,172L349,171L351,158L350,153L351,152L352,149L352,148L353,144L351,143L351,139L353,134L352,132L348,131L347,132Z " data-fips="MY11" data-fips-="" data-iso3="MYS" data-name="Sarawak"/></g></svg>