<?xml version="1.0" encoding="UTF-8"?><!DOCTYPE svg  PUBLIC '-//W3C//DTD SVG 1.1//EN'  'http://www.w3.org/Graphics/SVG/1.1/DTD/svg11.dtd'><svg enable_background="new 0 0 500 431" height="431px" style="stroke-linejoin: round; stroke:#000; fill:#f6f3f0;" version="1.1" viewBox="0 0 500 431" width="500px" xmlns="http://www.w3.org/2000/svg" xmlns:xlink="http://www.w3.org/1999/xlink"><defs><style type="text/css"><![CDATA[path { fill-rule: evenodd; }
#context path { fill: #eee; stroke: #bbb; } ]]></style></defs><metadata><views><view h="431.311873653" padding="0" w="500"><proj id="laea" lat0="41.5" lon0="-95.0"/><bbox h="850.28" w="987.98" x="506.01" y="557.29"/><llbbox lat0="8.0" lat1="75.0" lon0="-135.0" lon1="-55.0"/></view></views></metadata><g id="countries"><path d="M348.0,318.8L345.0,316.3L344.7,320.4L348.0,318.8Z " data-iso="BHS" data-name="Bahamas" data-pop="309156.0"/><path d="M290.4,364.7L289.0,364.9L287.2,368.2L285.3,368.5L285.4,369.0L285.4,370.5L285.4,380.8L286.1,380.6L287.5,380.6L287.4,380.2L290.8,375.9L291.4,365.3L290.1,365.4L290.4,364.7Z " data-iso="BLZ" data-name="Belize" data-pop="307899.0"/><path d="M468.6,409.7L468.8,409.7L469.7,410.9L464.6,416.9L459.4,419.4L457.2,423.7L453.6,422.6L449.3,423.8L448.7,426.4L449.5,429.3L481.4,429.3L479.0,428.1L475.6,422.7L475.6,417.5L477.1,414.8L474.9,412.1L472.9,412.5L469.1,409.4L468.6,409.7Z M497.8,419.7L497.6,419.9L492.2,422.1L486.8,426.1L484.5,429.3L500.0,429.3L500.0,419.4L499.4,419.5L498.4,419.6L498.0,419.7L497.8,419.7Z M500.0,416.2L499.6,416.7L499.6,417.0L500.0,416.2Z " data-iso="BRA" data-name="Brazil" data-pop="198739269.0"/><path d="M391.7,166.6L392.9,167.4L393.4,164.0L396.1,165.1L395.3,167.0L391.8,169.0L390.2,167.3L390.7,160.6L393.1,163.5L391.7,166.6Z M379.9,168.0L386.3,165.2L385.3,169.2L378.8,168.7L379.9,168.0Z M338.9,190.7L342.6,187.0L342.7,185.0L347.3,178.0L352.1,174.0L355.7,164.6L357.3,162.3L364.4,155.3L370.7,153.6L372.8,154.8L370.6,163.3L373.5,161.9L376.9,169.9L380.7,170.1L380.0,171.0L387.2,170.8L389.3,169.2L393.7,170.3L388.9,175.4L382.5,180.0L383.0,181.3L380.2,186.9L376.6,187.3L375.4,182.7L380.0,175.6L378.2,175.4L379.4,172.5L375.6,177.3L372.5,180.1L369.8,180.7L369.6,180.6L365.3,176.9L363.2,171.0L360.6,169.2L356.3,170.2L354.7,178.3L355.0,180.1L350.0,187.9L338.3,191.0L338.9,190.7Z M380.9,149.4L376.1,150.6L373.7,150.4L373.7,147.5L376.5,147.6L380.9,149.4Z M126.7,142.0L131.7,146.0L132.4,151.2L134.9,155.0L135.9,158.9L131.9,158.6L129.7,155.7L130.8,155.2L125.9,150.1L127.9,149.3L123.3,143.5L126.7,142.0Z M395.9,124.6L396.5,128.8L396.7,136.6L397.8,134.1L400.1,133.8L400.3,137.4L404.6,136.5L409.1,133.4L409.6,136.4L413.8,137.0L412.9,140.6L414.6,142.0L415.6,139.3L416.9,142.9L417.9,141.0L419.4,147.3L418.0,148.3L416.5,146.4L414.6,146.9L412.5,142.8L410.9,146.8L410.3,145.0L408.1,147.7L403.6,149.2L394.9,153.7L393.1,152.0L394.1,147.2L392.6,146.8L394.0,140.5L393.2,139.6L392.8,133.0L395.9,124.6Z M118.3,120.1L117.5,126.7L116.6,126.1L115.8,121.1L118.3,120.1Z M118.3,113.4L120.1,116.3L117.7,119.3L115.8,116.5L118.3,113.4Z M126.8,113.1L127.3,112.9L128.2,112.5L128.7,112.2L128.5,112.7L127.7,113.2L126.9,113.3L126.8,113.1Z M287.3,87.5L285.2,92.5L282.7,90.6L283.4,88.4L287.3,87.5Z M276.8,74.8L277.4,73.5L284.4,77.0L286.0,78.5L286.2,81.0L289.5,80.4L291.0,81.5L285.2,83.0L282.9,80.7L277.2,87.8L275.8,84.5L272.4,85.7L273.8,82.6L273.5,73.5L273.9,71.6L276.8,74.8Z M295.0,52.1L297.5,55.1L297.5,57.6L293.9,59.1L292.3,55.8L295.0,52.1Z M244.5,49.8L248.6,55.3L246.2,57.0L241.1,54.6L240.7,52.7L242.1,50.2L244.5,49.8Z M256.7,179.1L256.7,179.1L256.7,179.1L251.3,178.2L249.4,174.5L249.3,176.9L227.4,176.1L204.9,173.9L199.7,173.1L177.5,169.0L159.0,164.4L150.8,161.9L139.0,158.0L138.9,157.7L137.0,152.8L137.7,149.8L134.7,151.1L131.2,143.4L127.1,140.3L126.2,138.2L126.5,133.9L128.7,130.0L128.8,125.5L127.8,122.3L126.3,122.9L124.5,119.4L126.3,116.4L129.7,112.3L131.9,107.7L131.9,107.6L129.3,101.3L128.6,97.4L129.3,94.8L128.2,77.7L123.9,79.4L120.6,79.1L120.7,70.2L117.1,66.0L132.5,46.8L155.9,19.6L156.1,19.9L158.4,22.6L159.6,27.6L161.6,30.0L165.4,27.6L168.9,30.0L173.5,29.3L173.8,32.4L183.0,30.8L182.5,34.6L183.5,38.0L187.4,39.5L189.4,37.9L191.7,38.2L195.1,42.6L203.7,47.9L205.1,49.5L202.1,54.6L212.2,56.9L213.4,56.4L216.2,60.2L216.9,59.3L219.2,63.8L217.8,55.3L224.7,52.5L227.4,58.1L229.8,58.0L233.4,60.7L236.8,60.4L239.9,61.3L243.4,56.5L247.4,58.4L246.7,62.5L248.9,59.7L250.6,59.4L253.6,56.1L252.8,54.0L253.3,50.9L251.9,51.1L247.9,48.9L246.7,45.8L246.9,41.3L249.6,36.3L254.2,40.1L254.4,42.2L256.4,45.4L254.7,49.7L259.5,51.8L261.4,57.9L262.8,52.0L266.3,54.8L265.9,58.2L269.0,63.9L271.5,58.3L271.8,51.0L272.8,47.1L281.0,50.3L283.4,62.5L275.8,68.7L271.0,67.8L273.3,69.9L270.4,74.9L263.1,72.0L266.0,75.4L271.4,76.3L267.6,83.4L261.8,86.5L257.9,85.5L253.6,83.3L257.7,86.8L258.9,85.9L262.2,90.2L257.6,91.6L250.7,105.7L250.1,114.5L253.1,116.4L256.0,116.5L258.6,125.8L263.2,125.4L267.8,126.8L274.0,129.5L276.0,131.9L295.1,135.7L295.9,137.1L296.0,141.1L297.2,142.8L297.6,147.9L301.0,151.7L304.9,154.6L306.4,157.5L309.3,157.3L312.7,150.3L305.1,136.2L311.1,130.9L313.3,126.2L312.7,120.6L310.5,116.2L307.5,113.5L303.8,109.0L305.6,105.2L305.1,102.3L303.1,97.9L301.7,96.9L300.2,92.0L300.3,87.6L302.3,87.1L306.0,88.4L309.4,88.0L311.6,85.2L320.0,90.7L325.8,89.9L329.6,99.9L329.4,103.8L334.4,101.7L335.8,106.4L336.7,103.2L338.7,105.6L342.6,97.3L342.2,92.3L341.1,89.5L344.0,90.2L346.3,93.2L352.8,96.7L361.5,105.2L358.2,106.0L360.2,107.4L366.8,109.4L368.6,113.3L370.8,110.7L372.3,111.5L379.2,110.9L380.0,112.0L377.8,115.9L374.2,119.7L374.8,121.4L381.3,113.3L383.3,115.5L387.3,114.3L389.4,115.8L392.9,121.1L391.8,125.7L386.4,131.3L385.0,137.7L382.2,140.9L378.6,143.4L373.0,144.5L363.6,148.5L359.8,151.7L359.7,156.1L357.3,157.5L353.6,165.5L347.5,166.0L353.0,166.7L349.6,176.3L347.3,177.7L343.6,181.8L339.5,189.4L338.3,191.0L335.7,193.2L332.2,198.6L331.2,201.6L322.9,203.3L321.8,205.7L322.4,208.6L317.5,212.3L313.0,214.1L308.2,218.2L304.7,216.8L307.0,211.6L307.8,206.3L304.3,195.6L293.0,187.3L277.5,180.1L265.1,182.4L256.7,179.1L256.7,179.1Z M212.8,27.2L216.2,25.6L218.6,30.2L221.8,27.0L223.5,34.9L225.5,34.3L225.3,26.9L229.9,28.7L230.8,36.3L230.1,39.8L236.8,46.6L236.8,49.0L234.1,47.9L232.7,53.6L230.4,53.9L226.8,52.7L224.1,49.2L222.7,50.5L216.5,52.6L209.0,52.1L207.5,49.5L207.3,46.9L203.1,45.2L201.9,41.8L203.9,40.0L213.6,40.9L205.9,38.0L203.1,28.6L205.4,25.8L212.2,23.2L214.8,24.1L212.8,27.2Z M230.5,28.8L228.8,25.6L229.0,23.9L231.7,24.0L232.5,25.3L230.5,28.8Z M277.9,22.9L282.3,22.8L283.9,26.5L276.6,25.5L275.6,23.2L277.9,22.9Z M267.6,40.7L271.1,38.1L268.9,33.2L268.1,29.0L268.5,26.5L270.6,25.6L272.3,23.5L274.2,23.3L278.0,28.3L278.0,33.6L282.3,27.9L286.6,27.5L290.6,29.8L290.7,34.9L293.9,31.1L297.2,31.4L301.6,33.9L305.5,34.6L303.7,37.5L307.2,35.6L309.8,37.7L308.2,38.6L310.0,44.0L308.0,44.6L314.1,45.6L315.1,47.2L319.5,48.1L322.3,47.2L328.9,48.3L331.3,52.1L329.5,52.3L330.3,60.9L326.9,60.5L317.1,57.1L318.6,59.9L315.8,59.4L324.3,64.3L329.3,65.9L332.6,68.9L334.6,74.1L332.3,75.3L325.1,74.0L324.8,76.2L330.2,77.9L333.2,81.7L324.2,81.5L322.1,80.0L320.2,80.5L314.1,78.2L315.3,76.7L312.0,76.2L307.9,72.6L299.5,76.9L295.4,75.5L296.4,71.8L300.4,70.4L305.7,67.3L302.2,63.7L305.1,56.9L298.9,50.4L298.4,48.8L291.8,48.9L292.2,46.1L287.0,42.1L285.1,43.3L269.2,46.0L268.5,43.9L263.2,44.1L261.6,40.9L266.4,41.0L260.9,38.8L260.9,28.6L262.5,25.6L267.8,23.7L266.7,31.6L267.6,35.3L270.3,38.0L267.6,40.7Z M241.0,23.7L245.9,27.1L244.9,29.4L247.0,31.5L246.8,34.8L245.5,37.6L241.4,39.3L239.4,35.3L235.3,30.6L236.2,28.6L237.8,30.7L239.8,29.5L238.1,26.6L241.0,23.7Z M253.2,22.7L258.1,25.4L255.5,31.1L252.8,32.3L251.9,35.5L249.0,31.0L248.8,26.4L250.5,23.2L253.2,22.7Z M207.2,15.8L210.1,15.8L213.1,21.6L203.0,26.1L201.6,26.2L199.6,29.2L193.1,30.1L193.2,26.4L190.9,23.5L199.7,14.7L199.9,11.4L207.2,15.8Z M245.9,8.9L245.5,16.9L242.2,17.6L240.6,15.3L241.9,14.1L239.6,13.7L240.2,8.8L242.3,12.0L242.4,7.7L245.9,8.9Z M229.3,9.6L231.7,10.2L231.5,15.8L229.6,16.5L219.8,17.6L217.2,15.4L223.5,13.7L220.6,13.4L219.4,11.2L217.1,13.3L213.7,10.0L218.2,9.1L214.9,8.6L220.4,4.7L227.4,12.5L226.7,7.6L229.1,4.9L229.9,5.4L229.3,9.6Z M251.0,6.4L255.4,8.7L258.8,9.6L255.6,10.3L257.5,11.2L259.9,14.6L260.2,13.4L264.3,14.5L267.9,11.5L275.4,13.5L275.2,17.3L271.7,18.7L269.6,16.9L267.8,19.4L261.1,20.0L259.9,19.0L254.9,18.0L254.7,14.0L252.1,10.1L249.6,10.2L247.5,5.9L251.0,6.4Z M221.1,-0.4L219.2,3.0L215.5,3.9L216.7,1.9L209.2,4.1L209.0,1.8L216.2,-1.6L221.1,-0.4Z M229.3,-2.9L229.1,-0.6L226.0,1.0L225.9,-2.7L229.3,-2.9Z M231.0,-5.9L230.6,-3.9L226.4,-5.5L230.2,-6.7L231.0,-5.9Z M248.4,-3.2L249.9,-0.0L247.2,1.0L246.2,-1.7L247.0,-4.8L248.4,-3.2Z M239.7,-8.5L243.6,-4.6L244.4,-0.0L240.9,-2.1L237.6,-2.5L239.1,-5.3L237.6,-5.8L239.7,-8.5Z M253.2,-18.6L259.3,-11.8L259.2,-9.9L261.1,-10.3L262.1,-8.5L259.0,-6.7L258.3,-1.6L253.5,-2.0L251.1,-5.6L252.9,-7.1L248.8,-10.2L248.0,-12.7L250.8,-19.7L253.2,-18.6Z M270.0,-33.2L272.6,-33.6L272.6,-32.0L276.2,-32.9L278.5,-32.2L277.6,-26.4L278.1,-23.6L275.7,-3.5L273.0,-2.5L270.5,2.4L274.6,3.4L274.3,6.4L270.9,6.8L265.2,8.9L258.6,8.6L260.7,-0.0L260.3,-1.4L263.6,-8.0L259.7,-12.6L259.6,-14.3L263.3,-14.6L264.4,-16.9L261.5,-15.8L256.0,-17.5L255.0,-21.7L253.2,-21.8L256.3,-24.5L258.9,-24.5L258.8,-26.9L261.2,-25.0L264.2,-24.8L261.5,-26.3L261.6,-28.9L266.3,-29.4L265.3,-31.8L270.0,-33.2Z " data-iso="CAN" data-name="Canada" data-pop="33487208.0"/><path d="M397.8,388.3L397.5,385.8L394.7,386.0L385.9,395.0L380.5,396.3L379.9,399.2L375.1,399.9L372.4,407.4L365.6,418.3L362.7,415.9L362.5,415.8L363.9,419.9L360.0,424.9L360.6,425.3L363.2,427.6L363.8,429.3L426.1,429.3L424.9,422.8L426.0,419.0L423.8,416.7L420.1,418.6L414.2,420.3L409.4,416.5L403.6,417.5L394.3,416.8L390.8,407.4L387.4,407.8L389.0,403.6L389.3,399.2L393.6,391.3L397.6,388.7L397.8,388.3Z " data-iso="COL" data-name="Colombia" data-pop="45644023.0"/><path d="M308.6,408.4L308.2,412.4L309.7,415.2L313.3,416.7L313.4,413.6L322.0,418.5L323.1,422.4L325.8,421.5L327.4,423.7L327.8,424.3L328.4,419.0L327.0,417.3L327.5,415.3L329.2,415.1L328.9,414.9L325.5,412.7L323.3,410.4L322.0,408.1L321.9,407.8L320.2,409.1L315.6,407.7L313.9,408.5L309.8,407.6L308.6,408.3L308.6,408.4Z " data-iso="CRI" data-name="Costa Rica" data-pop="4253877.0"/><path d="M326.1,332.0L318.0,334.3L313.7,336.7L311.2,340.9L317.8,338.9L321.2,335.6L327.2,335.4L326.8,337.9L334.5,337.6L346.5,340.5L349.3,343.3L354.6,343.1L353.9,348.1L372.3,343.0L370.5,341.5L363.8,340.0L362.9,338.5L353.7,338.0L354.2,336.9L337.7,332.4L333.5,331.8L326.1,332.0Z " data-iso="CUB" data-name="Cuba" data-pop="11451652.0"/><path d="M389.2,352.1L392.0,352.4L392.9,349.5L397.8,348.4L400.0,346.6L402.9,345.8L406.7,346.1L408.0,343.3L405.7,342.0L400.1,342.2L397.5,339.4L393.2,339.8L387.2,341.7L387.0,341.8L387.0,348.9L388.9,352.0L389.2,352.1Z " data-iso="DOM" data-name="Dominican Rep." data-pop="9650054.0"/><path d="M336.5,22.7L332.2,22.7L337.7,27.2L336.5,22.7Z M306.3,0.0L307.3,1.3L312.9,3.4L319.9,10.5L321.0,10.0L326.3,18.2L328.1,17.3L327.5,13.9L330.4,16.4L334.0,15.4L335.8,18.9L330.6,21.2L332.4,21.8L341.1,20.5L342.4,24.4L342.3,28.4L341.3,29.8L345.2,29.7L346.2,30.8L342.9,32.5L347.1,38.9L349.0,38.1L348.2,40.2L351.9,44.5L354.6,45.1L355.5,44.0L359.6,49.8L358.9,44.2L361.9,46.1L360.9,48.6L371.7,57.2L373.1,57.2L379.2,60.9L382.7,62.1L386.6,56.7L389.7,58.9L391.7,57.9L393.8,59.6L394.4,57.5L397.6,56.3L392.0,47.1L387.5,43.0L386.5,35.6L383.1,30.2L379.8,29.8L380.1,25.7L378.1,25.5L380.2,22.4L378.4,17.4L381.6,19.3L382.6,13.3L381.7,9.7L375.1,0.0L306.3,0.0Z M286.3,0.0L289.2,0.8L290.9,3.8L296.5,0.0L286.3,0.0Z " data-iso="GRL" data-name="Greenland" data-pop="57600.0"/><path d="M284.1,369.1L274.3,369.6L274.4,373.0L276.7,377.4L274.7,380.2L270.0,380.4L267.3,385.3L268.1,386.5L267.1,389.7L269.8,391.5L274.0,393.2L277.3,393.1L278.1,393.2L280.6,394.1L280.8,393.1L284.8,389.7L285.0,389.7L285.1,389.5L286.2,388.1L291.6,381.3L289.3,380.1L289.7,380.7L289.3,381.3L287.8,380.7L287.5,380.6L286.1,380.6L285.4,380.8L285.4,370.5L285.4,369.0L284.1,369.1Z " data-iso="GTM" data-name="Guatemala" data-pop="13276517.0"/><path d="M497.8,419.7L497.5,419.6L496.4,419.7L492.8,416.0L491.4,413.0L489.6,413.8L486.3,411.0L486.1,405.8L489.6,399.7L489.5,399.6L487.9,395.7L483.4,394.1L480.0,397.3L480.2,393.7L477.4,390.3L469.4,388.1L469.2,388.1L470.6,389.5L466.2,395.7L469.1,397.5L467.1,400.3L464.3,402.4L465.2,404.5L463.9,406.7L467.1,408.8L468.6,409.7L469.1,409.4L472.9,412.5L474.9,412.1L477.1,414.8L475.6,417.5L475.6,422.7L479.0,428.1L481.4,429.3L483.2,429.2L483.4,429.3L484.5,429.3L486.8,426.1L492.2,422.1L497.6,419.9L497.8,419.7Z " data-iso="GUY" data-name="Guyana" data-pop="772298.0"/><path d="M291.6,381.3L286.2,388.1L285.1,389.5L285.0,389.7L285.1,389.8L292.6,391.9L294.8,392.3L294.9,395.3L295.1,395.4L296.2,395.3L296.9,395.4L297.9,397.0L297.9,397.6L301.7,395.3L301.5,392.6L320.7,383.3L323.0,382.9L322.6,382.6L319.2,381.9L315.9,378.6L306.5,378.5L299.7,380.5L294.8,380.0L292.2,381.5L291.6,381.3Z " data-iso="HND" data-name="Honduras" data-pop="7792854.0"/><path d="M388.9,352.0L387.0,348.9L387.0,341.8L386.7,342.0L383.1,342.2L377.4,344.1L382.0,344.8L381.7,347.2L384.5,349.8L373.0,352.0L372.6,353.2L376.8,354.3L378.5,353.2L387.0,351.3L388.3,351.7L388.9,352.0Z " data-iso="HTI" data-name="Haiti" data-pop="9035536.0"/><path d="M356.2,356.4L351.3,357.4L352.4,359.7L355.5,360.3L356.2,356.4Z " data-iso="JAM" data-name="Jamaica" data-pop="2825928.0"/><path d="M439.0,336.7L438.9,336.6L438.7,336.7L438.4,337.0L438.4,337.1L439.0,336.9L439.0,336.7Z " data-iso="MAF" data-name="St. Martin" data-pop="29820.0"/><path d="M135.0,266.3L138.1,277.0L138.4,282.5L143.4,289.2L145.9,294.0L144.0,297.3L141.1,296.8L142.4,300.9L146.5,305.0L147.5,304.7L153.6,311.5L153.1,318.1L161.7,327.4L163.6,332.2L167.0,329.0L164.1,324.2L160.6,322.6L160.9,319.3L158.3,313.1L158.4,311.0L150.8,292.6L144.8,282.2L145.2,280.6L145.3,271.7L148.3,274.6L154.2,278.2L153.5,280.5L154.6,285.9L156.6,292.4L158.0,295.0L164.0,301.5L165.1,305.6L166.9,306.4L170.3,311.5L168.9,313.3L180.7,327.6L187.3,337.0L189.7,346.6L188.3,348.2L189.4,349.4L186.8,350.9L190.6,357.9L196.5,361.4L199.1,364.8L209.1,368.5L210.0,369.7L227.0,377.4L228.4,378.9L233.1,381.1L238.9,382.7L242.5,382.9L250.3,379.8L250.9,378.6L256.7,380.8L267.0,389.6L267.1,389.7L268.1,386.5L267.3,385.3L270.0,380.4L274.7,380.2L276.7,377.4L274.4,373.0L274.3,369.6L284.1,369.1L285.4,369.0L285.3,368.5L287.2,368.2L289.0,364.9L290.4,364.7L290.5,364.4L291.9,362.3L292.9,365.7L295.2,357.5L293.9,357.8L296.1,351.7L298.5,347.6L291.1,345.4L277.5,349.9L275.5,360.1L272.0,363.0L270.5,365.8L268.8,364.7L252.7,367.9L248.9,364.7L244.5,363.9L242.3,360.7L241.3,357.4L236.1,349.8L233.3,340.4L234.7,329.5L237.7,321.2L237.9,319.9L227.4,316.9L220.8,304.6L220.6,303.5L215.3,295.5L208.6,294.9L204.8,299.2L200.4,296.4L198.4,294.4L196.7,288.5L190.2,281.8L189.3,280.2L180.1,278.9L179.7,281.7L164.9,279.3L146.5,268.0L147.4,266.9L134.9,265.1L135.0,266.3Z " data-iso="MEX" data-name="Mexico" data-pop="111211789.0"/><path d="M297.9,397.8L301.2,401.8L303.8,404.6L308.5,408.2L308.6,408.3L309.8,407.6L313.9,408.5L315.6,407.7L320.2,409.1L321.9,407.8L321.4,407.8L321.1,402.4L320.3,402.3L321.9,398.1L321.9,389.1L323.1,386.9L322.9,383.1L323.0,382.9L320.7,383.3L301.5,392.6L301.7,395.3L297.9,397.6L297.9,397.8Z " data-iso="NIC" data-name="Nicaragua" data-pop="5891199.0"/><path d="M329.2,415.1L327.5,415.3L327.0,417.3L328.4,419.0L327.8,424.3L328.0,424.2L332.0,422.9L335.5,423.7L342.3,427.6L346.4,425.3L343.2,421.5L351.5,415.5L358.0,418.2L356.2,420.4L359.8,424.7L360.0,424.9L363.9,419.9L362.5,415.8L360.3,414.7L359.4,413.8L353.7,412.5L349.5,412.3L347.2,413.2L337.2,418.9L334.9,417.8L332.6,418.6L329.7,415.4L329.2,415.1Z " data-iso="PAN" data-name="Panama" data-pop="3360474.0"/><path d="M420.9,340.5L415.5,341.6L414.5,342.9L415.7,345.1L419.9,344.0L424.0,340.8L420.9,340.5Z " data-iso="PRI" data-name="Puerto Rico" data-pop="3971020.0"/><path d="M284.8,389.7L280.8,393.1L280.6,394.1L281.4,394.4L288.3,396.4L292.6,396.9L294.7,395.4L294.9,395.3L294.8,392.3L292.6,391.9L285.1,389.8L285.0,389.7L284.8,389.7Z " data-iso="SLV" data-name="El Salvador" data-pop="7185218.0"/><path d="M500.0,392.8L494.9,395.4L490.4,396.5L489.7,399.8L489.6,399.7L486.1,405.8L486.3,411.0L489.6,413.8L491.4,413.0L492.8,416.0L496.4,419.7L497.5,419.6L497.8,419.7L498.0,419.7L498.4,419.6L499.4,419.5L500.0,419.4L499.6,417.0L499.6,416.7L500.0,416.2L500.0,392.8Z " data-iso="SUR" data-name="Suriname" data-pop="481267.0"/><path d="M438.4,337.1L438.6,337.2L439.0,337.2L439.1,337.0L439.0,336.9L438.4,337.1L438.4,337.1Z " data-iso="SXM" data-name="Sint Maarten" data-pop="37429.0"/><path d="M461.4,380.6L460.1,376.6L457.0,378.6L458.2,379.2L456.2,382.9L461.4,380.6Z " data-iso="TTO" data-name="Trinidad and Tobago" data-pop="1310000.0"/><path d="M354.2,213.0L348.3,215.8L347.9,216.9L351.7,215.9L355.1,213.4L354.2,213.0Z M138.9,158.9L138.5,164.9L137.1,168.2L135.8,168.4L137.6,164.7L137.1,163.1L130.2,159.5L128.8,171.6L124.0,183.4L119.3,191.2L114.0,207.9L114.1,216.9L117.7,224.6L117.5,230.9L118.7,231.6L117.7,235.3L121.4,244.8L121.2,248.7L126.2,251.0L127.2,252.8L131.0,256.1L134.3,260.0L134.9,265.1L134.9,265.1L147.4,266.9L146.5,268.0L164.9,279.3L179.7,281.7L180.1,278.9L189.3,280.2L190.2,281.8L196.7,288.5L198.4,294.4L200.4,296.4L204.8,299.2L208.6,294.9L215.3,295.5L220.6,303.5L220.8,304.6L227.4,316.9L237.9,319.9L237.9,319.5L235.7,313.6L237.3,309.3L236.5,308.3L249.2,300.8L250.6,299.0L249.9,296.9L252.6,297.9L256.4,296.7L261.1,296.7L264.9,297.6L268.1,296.3L271.9,299.6L276.8,299.4L277.9,297.6L282.1,300.0L282.7,298.9L278.7,296.6L278.5,294.7L274.8,293.6L277.3,292.6L288.1,290.1L288.9,291.7L292.1,289.9L296.0,289.8L302.6,293.5L302.6,294.3L309.2,290.9L311.2,291.7L316.8,296.5L317.2,304.0L320.5,309.2L322.2,309.3L324.1,313.7L328.6,317.9L332.2,318.2L333.6,312.3L332.1,305.8L325.4,292.7L322.1,284.3L326.2,273.9L331.7,268.4L332.2,266.6L337.9,260.8L340.2,257.5L343.9,254.2L340.4,251.5L344.9,251.7L346.5,249.5L342.0,248.5L344.0,246.4L345.7,246.7L341.9,239.5L340.4,237.7L338.8,229.4L339.7,228.2L340.3,232.5L343.7,235.1L345.7,229.5L343.8,227.9L347.7,225.4L348.8,221.9L348.7,218.8L347.4,216.7L352.3,211.7L358.0,209.4L361.7,205.5L358.5,203.0L358.6,199.0L363.7,188.1L365.6,187.8L370.9,182.5L369.6,180.8L369.6,180.6L365.3,176.9L363.2,171.0L360.6,169.2L356.3,170.2L354.7,178.3L355.0,180.1L350.0,187.9L338.3,191.0L335.7,193.2L332.2,198.6L331.2,201.6L322.9,203.3L321.8,205.7L322.4,208.6L317.5,212.3L313.0,214.1L308.2,218.2L304.7,216.8L307.0,211.6L307.8,206.3L304.3,195.6L293.0,187.3L277.5,180.1L265.1,182.4L256.7,179.1L251.3,178.2L249.4,174.5L249.3,176.9L227.4,176.1L204.9,173.9L199.7,173.1L177.5,169.0L159.0,164.4L150.8,161.9L139.0,158.0L138.9,158.9Z M43.3,40.0L40.8,37.5L38.7,37.6L42.2,41.4L43.3,40.0Z M122.6,99.6L121.3,102.8L121.6,110.2L123.8,108.4L122.6,99.6Z M78.9,54.2L75.1,51.9L71.5,55.1L77.1,56.9L78.9,54.2Z M122.9,85.7L119.7,85.7L121.0,89.4L123.0,90.6L124.1,88.6L122.9,85.7Z M126.8,113.1L127.3,112.9L128.2,112.5L128.7,112.2L128.8,112.0L130.4,110.3L130.5,109.5L131.6,107.8L131.9,107.6L129.3,101.3L128.6,97.4L129.3,94.8L128.2,77.7L123.9,79.4L120.6,79.1L120.7,70.2L117.1,66.0L132.5,46.8L155.9,19.6L155.8,19.5L154.4,14.6L152.1,13.3L148.7,9.2L146.4,3.8L143.3,1.0L143.6,0.0L109.9,0.0L110.7,2.8L105.9,0.0L93.4,0.0L95.8,2.5L95.7,4.3L101.1,6.9L95.6,11.6L92.6,11.4L91.8,9.5L87.7,8.3L87.8,6.4L84.2,6.4L75.1,8.2L73.6,11.1L74.7,17.3L73.4,13.5L70.4,14.7L68.7,19.8L71.0,21.8L73.4,22.4L68.6,28.1L65.7,29.8L68.6,30.8L70.8,34.7L69.7,37.5L72.8,36.7L76.3,39.9L72.1,41.2L67.6,44.1L56.3,43.0L53.5,45.0L53.2,42.7L48.6,40.6L44.4,40.0L47.3,43.2L50.5,42.8L54.8,46.3L54.2,47.6L59.7,48.6L59.9,47.4L67.0,48.9L70.1,48.2L75.4,48.5L77.6,49.6L82.3,48.8L82.6,45.6L85.0,44.7L89.9,44.9L96.1,42.7L100.2,43.1L101.2,47.9L99.2,44.8L96.1,44.3L90.5,47.5L89.8,51.9L97.6,53.0L100.4,52.7L102.8,49.7L105.7,49.1L105.1,50.5L108.3,52.1L106.6,53.2L110.1,62.7L115.1,67.1L116.2,70.0L119.8,71.1L117.1,71.9L119.3,78.1L122.2,84.4L122.1,80.4L124.6,80.7L123.1,84.6L125.1,86.2L126.6,83.4L127.5,92.8L125.6,95.2L127.1,96.9L127.3,101.8L128.2,103.5L124.7,105.2L126.8,112.9L126.8,113.1Z " data-iso="USA" data-name="United States" data-pop="307212123.0"/><path d="M468.6,409.7L467.1,408.8L463.9,406.7L465.2,404.5L464.3,402.4L467.1,400.3L469.1,397.5L466.2,395.7L470.6,389.5L469.2,388.1L468.2,388.0L461.8,390.4L463.6,384.8L458.1,383.8L455.0,384.9L449.6,382.2L442.1,385.1L438.5,388.5L432.3,389.4L429.5,387.9L418.2,392.0L416.0,388.4L410.6,387.6L408.2,388.5L405.3,384.8L403.9,387.0L405.6,388.8L397.2,395.6L401.1,401.3L401.2,403.5L398.7,406.0L394.5,402.2L396.4,394.3L394.5,391.0L397.5,389.1L397.6,388.7L393.6,391.3L389.3,399.2L389.0,403.6L387.4,407.8L390.8,407.4L394.3,416.8L403.6,417.5L409.4,416.5L414.2,420.3L420.1,418.6L423.8,416.7L426.0,419.0L424.9,422.8L426.1,429.3L449.5,429.3L448.7,426.4L449.3,423.8L453.6,422.6L457.2,423.7L459.4,419.4L464.6,416.9L469.7,410.9L468.8,409.7L468.6,409.7Z " data-iso="VEN" data-name="Venezuela" data-pop="26814843.0"/></g></svg>