<?xml version="1.0" encoding="UTF-8"?><!DOCTYPE svg  PUBLIC '-//W3C//DTD SVG 1.1//EN'  'http://www.w3.org/Graphics/SVG/1.1/DTD/svg11.dtd'><svg enable_background="new 0 0 450 301" height="301px" style="stroke-linejoin: round; stroke:#000; fill:#f6f3f0;" version="1.1" viewBox="0 0 450 301" width="450px" xmlns="http://www.w3.org/2000/svg" xmlns:xlink="http://www.w3.org/1999/xlink"><defs><style type="text/css"><![CDATA[path { fill-rule: evenodd; }
#context path { fill: #eee; stroke: #bbb; } ]]></style></defs><metadata><views><view h="301.0" padding="0.06" w="450"><proj id="laea" lat0="-26.979696547" lon0="17.6079912002"/><bbox h="166.44" w="178.76" x="920.92" y="867.66"/><llbbox lat0="-90" lat1="90" lon0="-180" lon1="180"/></view></views></metadata><g id="context"><path d="M82,25L95,23L99,23L111,18L123,23L130,27L143,26L223,26L225,27L230,32L232,34L261,36L265,37L273,40L281,39L286,40L322,35L329,33L325,30L320,25L310,14L303,9L301,0L82,0L83,8L83,13L82,17L82,25Z " data-iso="AGO"/><path d="M367,39L358,40L353,44L349,42L344,44L335,51L332,52L330,47L325,41L299,45L283,47L278,47L276,105L276,128L255,128L254,189L254,189L255,190L261,195L267,205L270,215L270,220L266,227L266,230L268,236L271,235L275,236L283,236L294,232L298,226L307,220L312,206L315,203L320,202L325,204L332,210L338,211L341,214L349,216L366,212L372,198L373,195L378,192L383,191L393,184L399,169L405,166L408,165L413,162L423,152L427,150L436,148L443,142L447,142L446,142L441,136L441,133L431,129L424,127L420,125L415,116L416,102L407,101L407,94L406,92L396,87L392,84L384,75L381,68L381,65L379,62L378,58L374,54L371,47L368,43L368,40L368,39L367,39Z " data-iso="BWA"/><path d="M434,299L426,290L417,283L413,285L403,289L395,299L434,299Z " data-iso="LSO"/><path d="M322,35L286,40L281,39L273,40L265,37L261,36L232,34L230,32L225,27L223,26L143,26L130,27L123,23L111,18L99,23L95,23L82,25L82,30L83,42L87,47L98,61L111,85L114,89L117,96L120,105L129,117L132,123L139,132L142,138L143,144L141,150L143,157L143,165L144,177L146,185L149,190L151,195L152,206L151,211L153,216L154,224L157,226L158,234L162,247L170,260L182,272L184,274L187,271L190,270L192,263L196,261L202,266L203,276L214,278L216,280L220,280L226,279L230,280L237,281L244,273L251,271L253,271L254,199L254,189L254,189L255,128L276,128L276,105L278,47L283,47L299,45L325,41L330,47L332,52L335,51L344,44L349,42L353,44L358,40L367,39L368,39L365,35L358,32L348,31L333,33L329,33L322,35Z " data-iso="NAM"/><path d="M447,142L443,142L436,148L427,150L423,152L413,162L408,165L405,166L399,169L393,184L383,191L378,192L373,195L372,198L366,212L349,216L341,214L338,211L332,210L325,204L320,202L315,203L312,206L307,220L298,226L294,232L283,236L275,236L271,235L268,236L266,230L266,227L270,220L270,215L267,205L261,195L255,190L254,189L254,199L253,271L251,271L244,273L237,281L230,280L226,279L220,280L216,280L214,278L203,276L202,266L196,261L192,263L190,270L187,271L184,274L185,275L190,283L194,292L196,299L395,299L403,289L413,285L417,283L426,290L434,299L450,299L450,142L448,142L447,142Z " data-iso="ZAF"/><path d="M329,33L333,33L348,31L358,32L365,35L368,39L372,40L378,41L381,43L384,44L387,43L391,43L396,46L400,46L405,45L419,30L422,26L426,23L436,18L446,14L447,5L450,3L450,0L301,0L303,9L310,14L320,25L325,30L329,33Z " data-iso="ZMB"/><path d="M368,39L368,40L368,43L371,47L374,54L378,58L379,62L381,65L381,68L384,75L392,84L396,87L406,92L407,94L407,101L416,102L415,116L420,125L424,127L431,129L441,133L441,136L446,142L447,142L448,142L450,142L450,3L447,5L446,14L436,18L426,23L422,26L419,30L405,45L400,46L396,46L391,43L387,43L384,44L381,43L378,41L372,40L368,39Z " data-iso="ZWE"/></g><g fill="red" fill-opacity="0.35" id="regions"><path d="M151,195L150,200L151,211L154,216L154,219L154,222L157,227L157,230L156,232L160,238L161,246L168,257L170,261L176,266L181,272L184,274L188,271L189,271L191,269L190,266L192,264L192,262L197,262L199,266L202,269L203,276L208,277L209,277L212,278L216,280L224,280L229,279L233,280L237,282L238,281L239,277L242,276L244,273L253,270L254,208L250,209L245,208L241,208L239,205L227,206L224,204L219,204L210,206L201,207L201,211L196,210L194,210L190,208L187,207L183,209L183,207L181,213L178,213L172,207L169,194L151,194L151,195Z " data-fips="WA03" data-fips-="WA31" data-iso3="NAM" data-name="Karas"/><path d="M223,160L216,164L212,162L208,162L202,160L204,156L196,154L190,156L186,155L184,160L186,163L183,165L181,163L180,165L184,169L179,169L172,171L170,171L169,170L169,168L163,165L154,163L143,162L143,163L143,175L146,184L146,184L150,190L150,194L151,194L169,194L172,207L178,213L181,213L183,207L183,209L187,207L190,208L194,210L196,210L201,211L201,207L210,206L219,204L224,204L227,206L239,205L241,208L245,208L250,209L254,208L254,189L254,189L255,169L240,169L240,165L236,166L228,166L223,161L223,161L223,160Z " data-fips="WA02" data-fips-="WA30" data-iso3="NAM" data-name="Hardap"/><path d="M225,158L222,154L224,152L221,151L219,138L214,132L214,130L217,127L216,124L217,122L217,121L215,121L209,124L207,124L203,127L202,129L199,132L196,132L188,134L184,135L183,136L182,136L173,143L174,143L172,148L171,151L170,155L171,158L169,160L171,162L170,168L169,168L169,170L170,171L172,171L179,169L184,169L180,165L181,163L183,165L186,163L184,160L186,155L190,156L196,154L204,156L202,160L208,162L212,162L216,164L223,160L223,161L225,158Z " data-fips="WA04" data-fips-="WA21" data-iso3="NAM" data-name="Khomas"/><path d="M124,111L130,107L141,105L147,106L155,100L160,94L164,96L165,96L166,96L168,96L177,92L179,92L183,86L184,83L187,83L188,73L188,72L188,72L180,70L174,69L172,68L170,68L167,67L164,67L158,67L158,66L156,66L143,67L142,69L143,71L140,71L138,64L139,59L137,54L136,41L136,39L133,34L135,26L135,26L130,27L120,21L116,17L112,17L109,18L105,21L97,24L93,24L88,22L82,25L82,30L82,38L84,44L90,53L95,56L98,61L103,70L104,72L110,83L111,86L115,91L116,95L118,99L119,103L124,110L124,111Z " data-fips="WA05" data-fips-="WA32" data-iso3="NAM" data-name="Kunene"/><path d="M164,96L160,94L155,100L147,106L141,105L130,107L124,111L125,112L130,119L138,131L143,140L144,147L142,148L141,150L143,158L142,161L143,162L154,163L163,165L169,168L170,168L171,162L169,160L171,158L170,155L171,151L172,148L174,143L173,143L182,136L183,136L182,135L182,132L183,128L181,121L183,115L184,109L182,109L170,102L165,98L165,96L164,96Z " data-fips="WA01" data-fips-="WA29" data-iso3="NAM" data-name="Erongo"/><path d="M219,56L219,58L217,61L215,62L215,67L213,70L212,72L202,69L201,66L199,65L194,69L188,72L188,72L188,73L187,83L184,83L183,86L179,92L177,92L168,96L166,96L165,96L165,98L170,102L182,109L184,109L183,115L181,121L183,128L182,132L182,135L183,136L184,135L188,134L196,132L199,132L202,129L203,127L207,124L209,124L215,121L217,121L217,121L220,118L220,114L219,112L220,110L222,111L223,106L225,106L227,101L230,95L232,94L244,89L263,91L277,92L277,66L241,65L241,57L219,56Z " data-fips="WA01" data-fips-="WA39" data-iso3="NAM" data-name="Otjozondjupa"/><path d="M142,26L135,26L133,34L136,39L136,41L137,54L139,59L138,64L140,71L143,71L142,69L143,67L156,66L158,66L158,65L164,63L163,56L163,53L162,45L157,40L165,32L165,30L164,28L163,27L163,26L142,26Z " data-fips="WA05" data-fips-="WA36" data-iso3="NAM" data-name="Omusati"/><path d="M165,32L157,40L162,45L163,53L163,56L164,63L158,65L158,66L158,67L164,67L167,67L170,68L172,68L172,68L169,58L172,54L173,53L172,50L172,45L173,44L172,40L172,32L172,32L172,32L169,33L165,33L165,32L165,32Z " data-fips="WA11" data-fips-="WA37" data-iso3="NAM" data-name="Oshana"/><path d="M163,26L163,27L164,28L165,30L165,32L165,33L169,33L172,32L172,32L179,36L181,37L188,34L215,34L215,25L163,26Z " data-fips="WA08" data-fips-="WA33" data-iso3="NAM" data-name="Ohangwena"/><path d="M217,121L217,122L216,124L217,127L214,130L214,132L219,138L221,151L224,152L222,154L225,158L223,161L223,161L228,166L236,166L240,165L240,169L255,169L255,128L255,128L276,127L276,106L277,92L263,91L244,89L232,94L230,95L227,101L225,106L223,106L222,111L220,110L219,112L220,114L220,118L217,121L217,121Z " data-fips="WA09" data-fips-="WA35" data-iso3="NAM" data-name="Omaheke"/><path d="M215,25L215,34L215,55L219,56L241,57L241,65L277,66L277,62L278,47L278,47L278,47L278,47L278,47L278,39L276,39L267,38L266,37L256,36L245,36L241,35L234,35L230,33L224,25L215,25Z " data-fips="WA07" data-fips-="WA34" data-iso3="NAM" data-name="Kavango"/><path d="M172,32L172,32L172,40L173,44L172,45L172,50L173,53L172,54L169,58L172,68L172,68L174,69L180,70L188,72L188,72L194,69L199,65L201,66L202,69L212,72L213,70L215,67L215,62L217,61L219,58L219,56L215,55L215,34L188,34L181,37L179,36L172,32Z " data-fips="WA12" data-fips-="WA38" data-iso3="NAM" data-name="Oshikoto"/><path d="M278,39L278,47L278,47L278,47L288,47L320,42L327,41L329,45L332,49L333,52L345,43L350,41L353,44L357,40L360,39L368,39L365,35L358,32L354,32L350,31L347,31L310,37L287,40L280,38L278,39Z " data-fips="WA06" data-fips-="WA28" data-iso3="NAM" data-name="Caprivi"/></g></svg>