<?xml version="1.0" encoding="UTF-8"?><!DOCTYPE svg  PUBLIC '-//W3C//DTD SVG 1.1//EN'  'http://www.w3.org/Graphics/SVG/1.1/DTD/svg11.dtd'><svg enable_background="new 0 0 450 301" height="301px" style="stroke-linejoin: round; stroke:#000; fill:#f6f3f0;" version="1.1" viewBox="0 0 450 301" width="450px" xmlns="http://www.w3.org/2000/svg" xmlns:xlink="http://www.w3.org/1999/xlink"><defs><style type="text/css"><![CDATA[path { fill-rule: evenodd; }
#context path { fill: #eee; stroke: #bbb; } ]]></style></defs><metadata><views><view h="301.0" padding="0.06" w="450"><proj id="laea" lat0="-20.845006402" lon0="164.861394791"/><bbox h="54.78" w="106.63" x="936.78" y="973.72"/><llbbox lat0="-90" lat1="90" lon0="-180" lon1="180"/></view></views></metadata><g id="context"><path d="M396,239L395,236L391,234L390,238L394,240L396,239Z M419,177L418,172L415,174L410,175L413,182L413,185L416,186L425,187L426,178L419,177Z M390,162L392,157L388,151L385,148L385,140L381,137L374,139L373,141L378,141L380,143L376,149L372,150L374,153L377,157L384,159L387,163L390,162Z M349,138L353,132L352,126L355,125L351,123L349,133L346,138L349,138Z M235,114L228,108L227,113L228,115L232,119L233,126L240,134L243,139L247,144L257,152L266,163L270,168L274,170L285,180L289,183L294,185L303,191L309,193L313,198L319,200L326,203L330,210L336,213L342,216L349,219L359,225L365,224L368,222L370,219L367,210L355,203L346,194L337,186L325,178L320,176L313,172L311,169L306,167L302,162L295,157L292,150L288,147L283,141L272,136L253,121L246,116L240,117L235,114Z M26,69L27,65L26,58L24,61L25,70L26,69Z " data-iso="NCL"/></g><g fill="red" fill-opacity="0.35" id="regions"><path d="M279,172L282,170L286,169L291,172L292,174L297,174L301,175L301,177L306,180L311,181L317,184L323,185L326,180L326,181L325,177L321,175L320,176L322,179L320,179L318,173L316,172L315,174L310,169L309,169L304,167L303,162L300,160L298,160L294,156L294,150L287,147L286,143L284,141L283,141L277,139L265,131L262,128L253,121L249,116L240,113L237,116L230,109L228,109L225,105L224,105L224,109L226,108L226,111L224,115L227,117L232,117L232,123L234,128L239,131L242,137L244,142L248,146L255,149L256,151L258,153L260,158L261,156L264,157L265,162L270,168L271,169L272,171L275,171L275,173L279,172L279,172Z M224,104L222,101L222,104L224,104Z M210,89L206,81L206,82L208,90L210,89Z M26,69L27,64L25,58L24,62L26,69Z " data-fips="NC00" data-fips-="" data-iso3="NCL" data-name="Nord"/><path d="M418,174L418,172L414,175L410,174L414,182L413,185L417,186L417,188L420,189L425,187L425,183L426,177L421,178L419,178L418,174Z M386,139L381,137L379,139L375,138L373,142L377,141L380,144L376,149L372,150L374,152L374,153L377,156L379,158L384,159L386,161L387,162L390,163L391,162L392,158L393,157L388,151L387,150L385,145L386,139Z M353,122L351,123L350,133L348,136L351,136L353,132L351,132L351,129L355,125L353,122Z " data-fips="NC01" data-fips-="" data-iso3="NCL" data-name="les Loyaut"/><path d="M396,237L390,234L390,240L395,240L396,237Z M362,228L359,229L360,230L362,228Z M279,173L279,174L282,178L283,178L287,182L294,185L296,184L298,188L305,192L306,191L309,191L310,195L312,196L313,198L318,199L319,201L322,202L325,200L325,202L328,203L330,207L329,210L332,213L339,216L340,216L342,218L343,220L345,220L348,218L351,220L352,220L358,224L359,226L363,224L364,222L365,225L369,224L371,219L372,218L368,214L367,210L355,204L356,204L350,199L345,193L340,188L336,186L333,184L328,181L327,180L326,180L323,185L317,184L311,181L306,180L301,177L301,175L297,174L292,174L291,172L286,169L282,170L279,172L279,173Z " data-fips="NC03" data-fips-="" data-iso3="NCL" data-name="Sud"/></g></svg>