<?xml version="1.0" encoding="UTF-8"?><!DOCTYPE svg  PUBLIC '-//W3C//DTD SVG 1.1//EN'  'http://www.w3.org/Graphics/SVG/1.1/DTD/svg11.dtd'><svg enable_background="new 0 0 450 301" height="301px" style="stroke-linejoin: round; stroke:#000; fill:#f6f3f0;" version="1.1" viewBox="0 0 450 301" width="450px" xmlns="http://www.w3.org/2000/svg" xmlns:xlink="http://www.w3.org/1999/xlink"><defs><style type="text/css"><![CDATA[path { fill-rule: evenodd; }
#context path { fill: #eee; stroke: #bbb; } ]]></style></defs><metadata><views><view h="301.0" padding="0.06" w="450"><proj id="laea" lat0="14.2177112902" lon0="7.45144002844"/><bbox h="168.26" w="208.01" x="901.73" y="873.63"/><llbbox lat0="-90" lat1="90" lon0="-180" lon1="180"/></view></views></metadata><g id="context"><path d="M132,279L131,277L123,270L115,264L108,266L107,272L106,274L106,276L97,285L95,284L84,285L74,293L74,293L73,296L72,299L72,299L135,299L130,286L130,283L131,281L132,279Z " data-iso="BEN"/><path d="M53,290L58,291L65,293L66,294L68,293L74,293L74,293L84,285L95,284L97,285L106,276L106,274L105,273L99,264L102,263L103,260L97,256L95,258L89,258L79,249L77,246L77,241L82,242L69,234L64,225L62,218L60,216L61,208L62,207L57,205L52,203L41,203L31,209L19,215L15,215L13,221L12,221L5,219L0,221L0,291L21,291L28,292L39,292L40,294L48,289L53,290Z " data-iso="BFA"/><path d="M356,248L358,258L359,263L366,264L368,280L360,287L355,289L353,290L348,299L380,299L378,290L380,281L374,265L373,260L371,256L366,253L366,249L360,247L356,248Z " data-iso="CMR"/><path d="M148,116L152,115L180,110L181,109L215,79L222,74L296,27L306,20L304,16L297,3L296,3L288,0L0,0L0,5L50,45L86,72L86,78L95,86L96,88L101,90L107,91L112,96L123,99L127,102L128,110L125,117L128,119L141,117L148,116Z " data-iso="DZA"/><path d="M53,290L48,289L40,294L39,292L28,292L21,291L0,291L0,299L52,299L54,295L55,292L54,291L53,290Z " data-iso="GHA"/><path d="M306,20L316,22L337,26L352,38L367,29L367,29L374,26L387,19L424,36L450,48L450,0L288,0L296,3L297,3L304,16L306,20Z " data-iso="LBY"/><path d="M62,207L62,206L72,206L81,203L85,200L131,199L132,196L136,193L145,177L146,172L147,164L147,163L148,120L148,116L141,117L128,119L125,117L128,110L127,102L123,99L112,96L107,91L101,90L96,88L95,86L86,78L86,72L50,45L0,5L0,221L5,219L12,221L13,221L15,215L19,215L31,209L41,203L52,203L57,205L62,207Z " data-iso="MLI"/><path d="M367,29L352,38L337,26L316,22L306,20L296,27L222,74L215,79L181,109L180,110L152,115L148,116L148,120L147,163L147,164L146,172L145,177L136,193L132,196L131,199L85,200L81,203L72,206L62,206L62,207L61,208L60,216L62,218L64,225L69,234L82,242L77,241L77,246L79,249L89,258L95,258L97,256L103,260L102,263L99,264L105,273L106,274L107,272L108,266L115,264L123,270L131,277L132,279L133,278L133,261L140,256L143,250L144,241L150,237L159,234L168,234L173,232L188,237L190,237L197,243L201,249L205,251L213,249L222,244L229,245L236,250L243,253L252,255L261,255L268,248L270,246L279,244L290,243L305,244L312,246L314,248L322,248L326,243L334,238L337,237L342,234L346,234L343,225L342,219L346,214L349,206L361,189L383,163L386,97L389,86L383,80L381,75L382,74L375,64L373,63L372,53L370,42L367,29L367,29Z " data-iso="NER"/><path d="M356,248L353,244L349,239L346,234L342,234L337,237L334,238L326,243L322,248L314,248L312,246L305,244L290,243L279,244L270,246L268,248L261,255L252,255L243,253L236,250L229,245L222,244L213,249L205,251L201,249L197,243L190,237L188,237L173,232L168,234L159,234L150,237L144,241L143,250L140,256L133,261L133,278L132,279L131,281L130,283L130,286L135,299L348,299L353,290L355,289L360,287L368,280L366,264L359,263L358,258L356,248Z " data-iso="NGA"/><path d="M367,29L370,42L372,53L373,63L375,64L382,74L381,75L383,80L389,86L386,97L383,163L361,189L349,206L346,214L342,219L343,225L346,234L349,239L353,244L356,248L360,247L366,249L366,253L371,256L373,260L374,265L380,281L378,290L380,299L450,299L450,48L424,36L387,19L374,26L367,29Z " data-iso="TCD"/><path d="M74,293L68,293L66,294L65,293L58,291L53,290L54,291L55,292L54,295L52,299L72,299L72,299L73,296L74,293Z " data-iso="TGO"/></g><g fill="red" fill-opacity="0.35" id="regions"><path d="M212,200L208,198L207,198L198,198L195,209L194,220L195,225L195,228L191,231L190,237L190,237L198,244L202,250L206,251L210,249L214,249L223,244L228,244L232,247L232,247L233,243L233,238L231,236L232,235L238,232L237,227L231,221L227,218L225,218L223,220L220,219L220,216L217,214L215,207L213,201L212,200Z " data-fips="NG04" data-fips-="" data-iso3="NER" data-name="Maradi"/><path d="M303,154L294,160L288,162L254,185L247,188L238,193L228,195L227,196L223,196L215,194L214,195L212,200L213,201L215,207L217,214L220,216L220,219L223,220L225,218L227,218L231,221L237,227L238,232L232,235L231,236L233,238L233,243L232,247L232,247L235,250L241,253L247,255L254,255L262,255L267,248L273,245L283,243L282,239L286,233L295,225L298,225L301,224L307,220L311,219L310,216L311,215L310,152L303,154Z " data-fips="NG07" data-fips-="" data-iso3="NER" data-name="Zinder"/><path d="M147,214L147,217L142,220L141,220L136,228L131,233L127,234L117,239L116,244L115,244L109,246L109,247L112,256L112,261L116,263L117,264L124,272L132,275L133,267L138,257L139,256L143,251L145,240L152,236L155,235L153,231L148,215L147,214Z " data-fips="NG03" data-fips-="" data-iso3="NER" data-name="Dosso"/><path d="M139,191L132,196L131,199L121,199L85,199L78,206L68,205L65,206L62,211L60,215L65,222L64,226L69,234L72,234L78,240L83,241L82,242L77,242L76,248L79,250L88,257L95,258L98,256L100,256L103,263L99,264L105,273L107,271L106,267L116,264L116,263L112,261L112,256L109,247L109,246L115,244L116,244L117,239L127,234L131,233L136,228L141,220L142,220L147,217L147,214L144,209L144,205L139,191L139,191L139,191Z " data-fips="NG09" data-fips-="NG05|NG08" data-iso3="NER" data-name="Niamey"/><path d="M198,198L197,185L193,180L192,179L185,164L180,161L168,153L166,149L158,142L158,140L158,135L161,128L159,127L148,127L147,163L146,167L146,176L143,178L140,190L139,191L139,191L144,205L144,209L147,214L148,215L153,231L155,235L159,234L167,235L170,233L174,232L186,237L189,236L190,237L191,231L195,228L195,225L194,220L195,209L198,198Z " data-fips="NG06" data-fips-="" data-iso3="NER" data-name="Tahoua"/><path d="M384,138L331,140L315,148L310,151L310,152L311,215L310,216L311,219L307,220L301,224L298,225L295,225L286,233L282,239L283,243L284,243L289,243L300,243L309,245L319,248L322,249L325,243L326,244L331,239L335,238L341,234L346,234L342,219L342,218L346,216L346,213L349,211L348,210L350,205L361,189L383,162L384,138Z " data-fips="NG02" data-fips-="" data-iso3="NER" data-name="Diffa"/><path d="M148,127L159,127L161,128L158,135L158,140L158,142L166,149L168,153L180,161L185,164L192,179L193,180L197,185L198,198L207,198L208,198L212,200L214,195L215,194L223,196L227,196L228,195L238,193L247,188L254,185L288,162L294,160L303,154L310,152L310,151L315,148L331,140L384,138L386,97L390,87L390,86L383,80L381,76L382,74L375,64L373,62L372,51L367,30L352,38L339,28L337,26L215,79L206,87L181,109L180,110L148,116L148,127Z " data-fips="NG01" data-fips-="" data-iso3="NER" data-name="Agadez"/></g></svg>