<?xml version="1.0" encoding="UTF-8"?><!DOCTYPE svg  PUBLIC '-//W3C//DTD SVG 1.1//EN'  'http://www.w3.org/Graphics/SVG/1.1/DTD/svg11.dtd'><svg enable_background="new 0 0 450 301" height="301px" style="stroke-linejoin: round; stroke:#000; fill:#f6f3f0;" version="1.1" viewBox="0 0 450 301" width="450px" xmlns="http://www.w3.org/2000/svg" xmlns:xlink="http://www.w3.org/1999/xlink"><defs><style type="text/css"><![CDATA[path { fill-rule: evenodd; }
#context path { fill: #eee; stroke: #bbb; } ]]></style></defs><metadata><views><view h="301.0" padding="0.06" w="450"><proj id="laea" lat0="11.8752444526" lon0="13.4565944838"/><bbox h="136.49" w="164.04" x="859.38" y="965.05"/><llbbox lat0="-90" lat1="90" lon0="-180" lon1="180"/></view></views></metadata><g id="context"><path d="M91,74L84,68L81,65L73,57L64,60L62,67L61,70L60,72L50,83L47,82L34,83L32,85L27,88L22,93L21,93L20,96L18,101L17,110L31,121L31,132L32,135L37,147L37,160L37,168L36,202L34,202L35,206L35,213L39,218L40,222L35,223L36,223L41,222L53,221L65,220L67,211L65,204L66,199L67,193L68,190L66,187L66,166L67,155L69,148L76,147L79,141L78,137L84,132L84,129L90,125L93,118L91,115L97,111L98,107L96,102L95,94L90,85L92,78L93,77L91,74Z " data-iso="BEN"/><path d="M21,93L22,93L27,88L32,85L34,83L47,82L50,83L60,72L61,70L60,69L56,63L53,57L57,56L57,53L55,48L51,48L48,50L40,49L28,39L25,34L26,29L32,29L17,19L11,9L9,0L0,0L0,90L10,93L12,94L14,93L21,93Z " data-iso="BFA"/><path d="M408,194L405,198L401,201L396,214L391,220L387,228L383,230L380,234L385,239L385,249L383,255L385,257L387,271L396,280L396,289L397,291L403,299L450,299L450,189L445,191L439,190L436,185L432,189L422,193L420,194L411,194L408,194Z " data-iso="CAF"/><path d="M408,194L409,192L409,187L408,186L401,172L398,166L391,160L387,158L377,149L375,147L368,138L367,136L372,130L374,128L390,129L396,128L409,128L412,127L402,117L400,114L396,104L395,97L397,85L396,83L391,66L390,60L388,55L384,53L382,51L381,47L374,44L369,44L372,57L373,63L381,65L383,84L381,88L373,93L367,94L365,96L360,104L355,111L352,123L348,126L347,137L339,143L338,146L335,159L330,164L325,165L321,175L319,183L315,189L315,192L309,199L311,205L303,211L302,216L298,221L294,223L289,221L280,208L277,206L273,211L268,211L264,208L256,214L251,220L244,226L233,237L232,240L228,256L221,268L222,268L222,274L231,274L230,277L233,286L241,289L245,290L246,287L249,288L251,287L250,297L250,299L253,299L403,299L397,291L396,289L396,280L387,271L385,257L383,255L385,249L385,239L380,234L383,230L387,228L391,220L396,214L401,201L405,198L408,194Z " data-iso="CMR"/><path d="M24,226L24,225L19,220L12,216L7,206L10,195L9,191L8,190L7,186L10,181L9,170L12,164L11,161L7,158L4,153L7,152L7,144L9,136L5,133L3,135L2,132L5,130L4,128L6,113L5,111L0,106L0,235L12,235L17,234L22,227L24,226Z " data-iso="GHA"/><path d="M231,299L230,295L224,295L223,299L231,299Z " data-iso="GNQ"/><path d="M61,70L62,67L64,60L73,57L81,65L84,68L91,74L93,77L94,76L95,54L103,48L107,40L109,30L116,25L123,23L127,22L134,23L138,22L144,19L168,27L174,34L178,41L184,44L193,41L204,35L212,37L222,43L229,48L241,50L252,51L261,42L264,40L275,37L288,36L307,38L315,41L318,44L323,44L327,44L328,41L332,37L343,32L346,31L353,27L357,27L355,15L353,9L359,0L9,0L11,9L17,19L32,29L26,29L25,34L28,39L40,49L48,50L51,48L55,48L57,53L57,56L53,57L56,63L60,69L61,70Z " data-iso="NER"/><path d="M187,276L185,273L183,277L187,276Z M93,77L92,78L90,85L95,94L96,102L98,107L97,111L91,115L93,118L90,125L84,129L84,132L78,137L79,141L76,147L69,148L67,155L66,166L66,187L68,190L67,193L66,199L65,204L67,211L65,220L66,220L82,220L84,217L93,216L87,218L86,220L103,220L111,222L116,226L122,231L127,238L129,242L130,243L138,243L131,245L136,249L140,247L135,250L137,261L141,269L147,275L154,279L160,277L160,279L167,278L168,275L169,278L175,277L174,275L173,268L177,277L179,277L183,274L184,271L187,273L192,273L196,274L207,273L214,273L215,271L212,264L213,263L218,268L221,268L221,268L228,256L232,240L233,237L244,226L251,220L256,214L264,208L268,211L273,211L277,206L280,208L289,221L294,223L298,221L302,216L303,211L311,205L309,199L315,192L315,189L319,183L321,175L325,165L330,164L335,159L338,146L339,143L347,137L348,126L352,123L355,111L360,104L365,96L367,94L373,93L381,88L383,84L381,65L373,63L372,57L369,44L366,39L361,33L357,27L353,27L346,31L343,32L332,37L328,41L327,44L323,44L318,44L315,41L307,38L288,36L275,37L264,40L261,42L252,51L241,50L229,48L222,43L212,37L204,35L193,41L184,44L178,41L174,34L168,27L144,19L138,22L134,23L127,22L123,23L116,25L109,30L107,40L103,48L95,54L94,76L93,77Z " data-iso="NGA"/><path d="M357,27L361,33L366,39L369,44L374,44L381,47L382,51L384,53L388,55L390,60L391,66L396,83L397,85L395,97L396,104L400,114L402,117L412,127L409,128L396,128L390,129L374,128L372,130L367,136L368,138L375,147L377,149L387,158L391,160L398,166L401,172L408,186L409,187L409,192L408,194L411,194L420,194L422,193L432,189L436,185L439,190L445,191L450,189L450,0L359,0L353,9L355,15L357,27Z " data-iso="TCD"/><path d="M27,225L36,223L35,223L40,222L39,218L35,213L35,206L34,202L36,202L37,168L37,160L37,147L32,135L31,132L31,121L17,110L18,101L20,96L21,93L14,93L12,94L10,93L0,90L0,106L5,111L6,113L4,128L5,130L2,132L3,135L5,133L9,136L7,144L7,152L4,153L7,158L11,161L12,164L9,170L10,181L7,186L8,190L9,191L10,195L7,206L12,216L19,220L24,225L24,226L27,225Z " data-iso="TGO"/></g><g fill="red" fill-opacity="0.35" id="regions"><path d="M350,27L345,32L343,31L333,38L330,40L328,44L326,44L325,44L325,49L325,51L328,53L328,55L323,61L324,65L322,74L323,78L321,81L324,83L325,86L320,92L320,95L317,100L311,102L309,106L309,108L308,111L307,111L307,113L306,119L309,122L311,125L313,126L317,126L321,124L324,120L333,115L334,115L337,112L341,112L346,115L349,115L352,107L352,102L356,103L361,102L361,101L361,100L366,94L368,93L375,92L384,86L384,83L382,81L383,79L385,70L385,69L379,64L373,63L373,61L372,61L365,57L364,57L362,51L362,47L364,43L361,44L357,41L353,37L352,35L352,33L351,30L351,27L350,27Z " data-fips="NI27" data-fips-="" data-iso3="NGA" data-name="Borno"/><path d="M372,60L372,58L369,44L357,27L351,27L351,27L351,30L352,33L352,35L353,37L357,41L361,44L364,43L362,47L362,51L364,57L365,57L372,61L372,60Z " data-fips="CD07" data-fips-="" data-iso3="NGA" data-name="Water body"/><path d="M192,233L191,233L190,233L190,233L189,233L188,234L186,236L187,236L190,238L189,249L188,250L186,255L187,256L186,258L184,262L184,264L191,265L193,266L192,265L192,261L193,259L194,253L196,253L197,247L200,248L202,250L204,251L205,251L205,250L204,244L203,242L202,242L195,239L194,238L194,236L194,235L192,233Z " data-fips="NI45" data-fips-="NI34" data-iso3="NGA" data-name="Abia"/><path d="M202,250L200,248L197,247L196,253L194,253L193,259L192,261L192,265L193,266L193,266L193,267L194,268L194,269L194,269L194,274L206,273L207,273L214,273L216,271L214,267L214,267L210,263L208,259L208,255L206,254L204,254L203,252L204,251L202,250Z " data-fips="NI21" data-fips-="" data-iso3="NGA" data-name="Akwa Ibom"/><path d="M188,250L189,249L190,238L187,236L186,236L185,236L179,236L177,240L172,240L171,242L170,243L169,247L173,248L173,253L176,255L185,256L186,255L188,250Z " data-fips="NI28" data-fips-="" data-iso3="NGA" data-name="Imo"/><path d="M186,274L185,273L183,277L187,276L188,274L186,274Z M171,242L170,242L169,241L168,244L167,247L167,247L165,248L166,250L168,250L169,251L166,255L164,259L164,261L163,265L164,267L167,267L172,271L172,271L171,278L176,278L174,275L174,270L172,266L173,266L176,277L179,277L179,268L180,275L183,275L183,270L187,274L187,271L191,273L193,269L194,269L194,268L193,267L193,266L193,266L191,265L184,264L184,262L186,258L187,256L186,255L185,256L176,255L173,253L173,248L169,247L170,243L171,242Z " data-fips="NI50" data-fips-="NI10" data-iso3="NGA" data-name="Rivers"/><path d="M166,250L166,250L161,251L160,253L158,254L158,255L154,257L152,256L144,259L143,259L138,256L138,257L140,266L141,270L149,277L154,279L158,275L161,275L159,277L167,278L168,277L171,278L170,274L171,272L172,271L167,267L164,267L163,265L164,261L164,259L166,255L169,251L168,250L166,250Z " data-fips="NI52" data-fips-="NI10" data-iso3="NGA" data-name="Bayelsa"/><path d="M198,179L198,181L199,183L201,186L201,191L202,195L204,196L201,202L194,205L193,205L194,206L195,208L202,211L203,214L202,217L203,219L205,220L207,215L214,215L215,216L215,216L222,214L226,210L232,213L233,216L236,217L240,216L242,217L247,223L248,223L249,221L251,221L251,221L253,207L254,206L257,202L259,196L257,193L252,187L249,185L241,184L237,185L239,183L233,179L222,177L219,177L217,180L219,186L200,179L198,179Z " data-fips="NI26" data-fips-="" data-iso3="NGA" data-name="Benue"/><path d="M215,216L215,217L218,223L217,228L211,234L207,234L203,242L203,242L204,244L205,250L205,251L204,251L203,252L204,254L206,254L208,255L208,259L210,263L214,267L214,267L213,265L216,267L217,266L220,269L223,266L222,265L228,257L228,252L230,245L229,243L229,239L233,236L242,228L242,227L247,223L247,223L242,217L240,216L236,217L233,216L232,213L226,210L222,214L215,216L215,216Z " data-fips="NI22" data-fips-="" data-iso3="NGA" data-name="Cross River"/><path d="M276,140L277,142L278,151L278,157L273,159L267,161L263,165L256,171L252,171L251,171L250,172L242,174L244,176L243,179L239,182L239,183L237,185L241,184L249,185L252,187L257,193L259,196L257,202L254,206L253,207L251,221L252,221L254,214L256,214L264,208L267,211L274,211L275,206L283,209L284,213L288,215L290,223L297,223L298,221L302,218L302,216L302,212L308,207L311,205L308,202L310,197L312,196L310,190L309,186L305,183L301,185L298,180L309,167L311,166L311,162L314,156L312,153L311,152L308,145L304,143L302,138L293,138L290,138L288,138L281,139L278,140L276,140Z " data-fips="NI43" data-fips-="" data-iso3="NGA" data-name="Taraba"/><path d="M93,119L89,126L84,128L84,131L79,136L79,142L76,147L68,148L68,152L67,155L67,162L69,161L72,160L79,156L81,156L93,150L98,145L105,151L109,151L110,152L106,155L106,157L109,166L110,169L115,177L115,177L117,177L124,176L128,177L129,177L129,178L133,179L137,178L139,177L141,177L141,175L137,171L140,165L146,167L155,169L156,169L159,161L160,159L158,159L157,158L149,159L147,157L145,156L143,155L138,152L133,151L133,149L127,146L121,146L121,144L118,139L113,139L113,132L111,131L102,120L100,119L93,119L93,119Z " data-fips="NI30" data-fips-="" data-iso3="NGA" data-name="Kwara"/><path d="M65,219L71,220L78,220L83,220L83,217L86,215L87,217L93,215L84,220L96,220L103,221L108,222L102,217L100,213L85,212L79,214L78,216L70,216L65,218L65,219Z " data-fips="NI05" data-fips-="" data-iso3="NGA" data-name="Lagos"/><path d="M95,93L96,99L95,101L98,107L97,111L94,111L91,114L93,119L93,119L100,119L102,120L111,131L113,132L113,139L118,139L121,144L121,146L127,146L133,149L133,151L138,152L143,155L145,156L147,157L149,159L157,158L158,159L160,159L161,159L166,166L172,173L174,172L176,169L176,168L175,168L174,167L174,147L180,146L182,147L186,150L189,145L189,144L187,140L190,137L187,132L189,131L189,126L188,125L180,124L179,122L184,117L180,115L181,112L178,111L178,109L176,108L174,110L170,111L167,109L163,112L158,113L159,109L159,102L159,102L160,101L159,100L158,96L156,95L156,94L153,96L146,98L141,98L141,94L139,89L135,88L127,89L124,91L123,92L127,94L129,95L131,97L130,101L131,104L124,107L124,111L126,115L125,117L119,118L119,121L116,120L117,118L116,111L117,109L120,107L122,100L117,96L114,96L112,96L100,94L98,93L95,92L95,93Z " data-fips="NI31" data-fips-="" data-iso3="NGA" data-name="Niger"/><path d="M65,179L66,182L66,187L67,199L65,204L66,207L65,217L65,218L70,216L78,216L79,214L85,212L100,213L102,217L108,222L110,222L112,223L112,221L115,219L115,216L109,216L110,212L114,209L115,205L114,205L106,203L104,203L104,201L102,201L101,202L94,203L93,197L91,193L86,193L83,191L82,194L78,194L73,188L74,183L73,181L71,183L70,178L67,177L65,179L65,179Z " data-fips="NI16" data-fips-="" data-iso3="NGA" data-name="Ogun"/><path d="M149,185L148,186L147,186L144,189L141,196L138,198L136,194L128,193L126,194L126,195L125,195L123,198L116,205L115,205L114,209L110,212L109,216L115,216L115,219L112,221L112,223L113,223L116,226L119,228L123,232L126,236L126,236L129,229L129,228L126,225L129,218L129,213L131,209L140,209L143,212L145,213L146,210L152,194L152,193L154,191L154,190L153,189L151,186L152,185L151,185L149,185Z " data-fips="NI48" data-fips-="NI17" data-iso3="NGA" data-name="Ondo"/><path d="M147,185L143,181L145,179L141,177L141,177L139,177L137,178L133,179L129,178L129,177L128,180L126,181L125,182L124,188L126,194L128,193L136,194L138,198L141,196L144,189L147,186L148,186L149,185L147,185Z " data-fips="NI51" data-fips-="NI17|NI54" data-iso3="NGA" data-name="Ekiti"/><path d="M128,177L124,176L117,177L115,177L115,178L111,182L107,179L106,181L103,182L101,187L104,192L102,201L104,201L104,203L106,203L114,205L115,205L116,205L123,198L125,195L126,195L126,194L124,188L125,182L126,181L128,180L129,177L128,177Z " data-fips="NI42" data-fips-="" data-iso3="NGA" data-name="Osun"/><path d="M67,163L66,165L66,172L65,179L65,179L67,177L70,178L71,183L73,181L74,183L73,188L78,194L82,194L83,191L86,193L91,193L93,197L94,203L101,202L102,201L104,192L101,187L103,182L106,181L107,179L111,182L115,178L115,177L115,177L110,169L109,166L106,157L106,155L110,152L109,151L105,151L98,145L93,150L81,156L79,156L72,160L69,161L67,162L67,163Z " data-fips="NI32" data-fips-="" data-iso3="NGA" data-name="Oyo"/><path d="M189,233L187,233L185,227L183,227L182,222L180,222L182,217L181,215L178,213L177,213L176,214L174,218L173,219L171,219L171,219L171,220L173,229L172,231L171,236L169,240L169,241L170,242L171,242L172,240L177,240L179,236L185,236L186,236L188,234L189,233L189,233Z " data-fips="NI25" data-fips-="" data-iso3="NGA" data-name="Anambra"/><path d="M287,92L287,91L287,84L284,76L283,68L280,60L278,59L275,61L270,61L266,70L266,72L258,75L254,77L253,81L257,80L256,87L258,87L262,93L272,95L270,97L267,98L264,101L260,101L258,94L257,93L250,93L243,90L241,90L239,91L238,91L231,97L229,97L228,103L229,110L228,111L228,113L227,115L229,116L229,117L231,117L233,119L234,126L238,126L240,131L240,131L243,138L248,139L254,138L257,134L256,132L258,131L271,137L275,140L276,140L278,140L281,139L288,138L290,138L290,138L287,130L282,126L281,123L284,122L284,117L283,115L280,113L279,109L276,107L280,98L288,92L289,92L287,92Z " data-fips="NI46" data-fips-="NI06" data-iso3="NGA" data-name="Bauchi"/><path d="M306,111L303,108L304,102L299,96L292,91L289,92L288,92L280,98L276,107L279,109L280,113L283,115L284,117L284,122L281,123L282,126L287,130L290,138L290,138L293,138L302,138L304,138L307,137L313,132L313,128L313,126L311,125L309,122L306,119L307,113L307,111L306,111Z " data-fips="NI55" data-fips-="NI06" data-iso3="NGA" data-name="Gombe"/><path d="M169,240L171,236L172,231L173,229L171,220L171,219L170,220L168,220L158,225L155,224L154,226L156,231L158,232L155,238L151,240L149,238L150,236L147,233L144,232L141,233L135,232L135,234L132,235L131,230L129,229L126,236L126,236L126,236L131,244L132,244L133,248L136,249L139,247L141,249L135,250L135,253L138,256L138,256L143,259L144,259L152,256L154,257L158,255L158,254L160,253L161,251L166,250L166,250L165,248L167,247L167,247L168,244L169,241L169,240Z " data-fips="NI36" data-fips-="" data-iso3="NGA" data-name="Delta"/><path d="M171,219L171,209L173,202L171,200L167,199L165,196L157,194L155,191L154,190L154,191L152,193L152,194L146,210L145,213L143,212L140,209L131,209L129,213L129,218L126,225L129,228L129,229L131,230L132,235L135,234L135,232L141,233L144,232L147,233L150,236L149,238L151,240L155,238L158,232L156,231L154,226L155,224L158,225L168,220L170,220L171,219L171,219Z " data-fips="NI37" data-fips-="" data-iso3="NGA" data-name="Edo"/><path d="M192,204L182,212L179,211L178,211L177,213L178,213L181,215L182,217L180,222L182,222L183,227L185,227L187,233L189,233L189,233L190,233L190,233L191,233L192,233L194,235L195,234L199,232L198,226L200,223L199,218L200,217L202,217L203,214L202,211L195,208L194,206L193,205L192,204Z " data-fips="NI47" data-fips-="NI38" data-iso3="NGA" data-name="Enugu"/><path d="M214,215L207,215L205,220L203,219L202,217L200,217L199,218L200,223L198,226L199,232L195,234L194,235L194,236L194,238L195,239L202,242L203,242L203,242L207,234L211,234L217,228L218,223L215,217L215,216L214,215Z " data-fips="NI53" data-fips-="NI38" data-iso3="NGA" data-name="Ebonyi"/><path d="M228,111L221,108L223,106L223,101L223,97L220,94L217,93L212,89L213,86L208,87L205,89L203,89L202,90L195,89L192,92L189,91L189,94L186,95L182,93L183,90L180,89L179,88L179,89L176,91L173,96L168,98L165,97L161,101L160,101L159,102L159,102L159,109L158,113L163,112L167,109L170,111L174,110L176,108L178,109L178,111L181,112L180,115L184,117L179,122L180,124L188,125L189,126L189,131L187,132L190,137L187,140L189,144L189,145L192,144L194,145L195,144L197,144L198,144L199,144L203,146L207,144L209,147L210,153L214,150L218,150L222,153L224,149L225,148L226,146L226,145L223,140L223,136L225,133L225,129L226,126L226,122L229,118L229,117L229,116L227,115L228,113L228,111L228,111Z " data-fips="NI23" data-fips-="" data-iso3="NGA" data-name="Kaduna"/><path d="M176,169L174,172L172,173L166,166L161,159L160,159L159,161L156,169L155,169L146,167L140,165L137,171L141,175L141,177L141,177L145,179L143,181L147,185L149,185L151,185L152,185L151,186L153,189L154,190L155,191L157,194L165,196L167,199L171,200L173,202L171,209L171,219L171,219L171,219L173,219L174,218L176,214L177,213L178,211L179,211L182,212L192,204L193,205L194,205L201,202L204,196L202,195L201,191L201,186L199,183L198,181L198,179L198,179L194,179L189,179L183,181L180,183L179,182L180,173L179,171L180,169L180,168L180,168L179,168L178,168L176,168L176,169Z " data-fips="NI41" data-fips-="" data-iso3="NGA" data-name="Kogi"/><path d="M275,140L271,137L258,131L256,132L257,134L254,138L248,139L243,138L240,131L240,131L238,126L234,126L233,119L231,117L229,117L229,118L226,122L226,126L225,129L225,133L223,136L223,140L226,145L226,146L225,148L227,148L232,153L236,153L236,155L231,161L232,165L237,168L245,167L250,170L251,171L252,171L256,171L263,165L267,161L273,159L278,157L278,151L277,142L276,140L275,140Z " data-fips="NI49" data-fips-="NI19" data-iso3="NGA" data-name="Plateau"/><path d="M224,149L222,153L218,150L214,150L210,153L209,147L207,144L203,146L199,144L198,144L198,145L197,147L196,154L195,159L191,165L188,167L184,168L180,168L180,169L179,171L180,173L179,182L180,183L183,181L189,179L194,179L198,179L198,179L200,179L219,186L217,180L219,177L222,177L233,179L239,183L239,182L243,179L244,176L242,174L250,172L251,171L250,170L245,167L237,168L232,165L231,161L236,155L236,153L232,153L227,148L225,148L224,149Z " data-fips="NI56" data-fips-="NI19" data-iso3="NGA" data-name="Nassarawa"/><path d="M253,50L251,51L246,50L243,50L235,49L231,53L225,53L224,50L213,50L213,54L217,56L217,56L218,59L222,57L227,57L228,60L230,62L231,65L233,65L234,69L234,70L236,70L237,72L239,71L241,74L239,80L241,81L243,84L241,90L241,90L243,90L250,93L257,93L258,94L260,101L264,101L267,98L270,97L272,95L262,93L258,87L256,87L257,80L253,81L254,77L258,75L266,72L266,70L270,61L275,61L278,59L278,57L276,52L272,51L270,51L268,46L267,46L256,51L253,50L253,50Z " data-fips="NI39" data-fips-="" data-iso3="NGA" data-name="Jigawa"/><path d="M241,90L243,84L241,81L239,80L241,74L239,71L237,72L236,70L234,70L234,69L233,65L231,65L230,62L228,60L227,57L222,57L218,59L217,56L216,56L205,64L205,74L206,81L201,83L201,87L203,89L205,89L208,87L213,86L212,89L217,93L220,94L223,97L223,101L223,106L221,108L228,111L228,111L229,110L228,103L229,97L231,97L238,91L239,91L241,90L241,90Z " data-fips="NI29" data-fips-="" data-iso3="NGA" data-name="Kano"/><path d="M185,44L185,47L185,58L187,67L186,71L189,73L184,77L180,77L179,82L180,84L180,87L179,88L180,89L183,90L182,93L186,95L189,94L189,91L192,92L195,89L202,90L203,89L201,87L201,83L206,81L205,74L205,64L216,56L217,56L217,56L213,54L213,50L224,50L225,53L231,53L235,49L234,49L228,47L223,43L221,43L218,40L212,36L204,35L194,41L187,43L185,44L185,44Z " data-fips="NI24" data-fips-="" data-iso3="NGA" data-name="Katsina"/><path d="M108,36L113,36L121,40L126,39L125,44L126,48L125,52L126,59L121,59L120,61L120,71L118,78L117,81L120,81L121,80L130,79L130,78L131,66L132,63L136,63L144,63L145,62L145,56L150,51L156,50L159,48L158,44L162,42L164,42L165,40L174,41L177,39L175,35L166,26L161,26L146,19L140,21L137,23L130,23L128,22L119,23L117,24L111,29L110,29L108,36L108,36Z " data-fips="NI51" data-fips-="NI33" data-iso3="NGA" data-name="Sokoto"/><path d="M185,44L182,44L181,44L178,40L177,39L174,41L165,40L164,42L162,42L158,44L159,48L156,50L150,51L145,56L145,62L144,63L136,63L132,63L131,66L130,78L131,78L133,79L140,78L143,80L153,81L154,82L154,87L156,90L156,95L158,96L159,100L160,101L161,101L165,97L168,98L173,96L176,91L179,89L179,88L180,87L180,84L179,82L180,77L184,77L189,73L186,71L187,67L185,58L185,47L185,44L185,44Z " data-fips="NI57" data-fips-="NI33" data-iso3="NGA" data-name="Zamfara"/><path d="M253,50L256,51L267,46L268,46L270,51L272,51L276,52L278,57L278,59L280,60L283,68L284,76L287,84L287,91L287,92L289,92L292,91L299,96L304,102L303,108L306,111L307,111L308,111L309,108L309,106L311,102L317,100L320,95L320,92L325,86L324,83L321,81L323,78L322,74L324,65L323,61L328,55L328,53L325,51L325,49L325,44L324,44L320,43L317,43L311,39L308,38L300,36L288,36L280,36L267,38L260,42L258,45L253,50Z " data-fips="NI44" data-fips-="" data-iso3="NGA" data-name="Yobe"/><path d="M107,42L102,49L101,50L95,61L93,71L94,76L92,77L90,80L89,85L94,92L95,92L95,92L98,93L100,94L112,96L114,96L117,96L122,100L120,107L117,109L116,111L117,118L116,120L119,121L119,118L125,117L126,115L124,111L124,107L131,104L130,101L131,97L129,95L127,94L123,92L124,91L127,89L135,88L139,89L141,94L141,98L146,98L153,96L156,94L156,95L156,90L154,87L154,82L153,81L143,80L140,78L133,79L131,78L130,78L130,79L121,80L120,81L117,81L118,78L120,71L120,61L121,59L126,59L125,52L126,48L125,44L126,39L121,40L113,36L108,36L107,42Z " data-fips="NI40" data-fips-="" data-iso3="NGA" data-name="Kebbi"/><path d="M361,102L356,103L352,102L352,107L349,115L346,115L341,112L337,112L334,115L333,115L324,120L321,124L317,126L313,126L313,128L313,132L307,137L304,138L302,138L304,143L308,145L311,152L312,153L314,156L311,162L311,166L309,167L298,180L301,185L305,183L309,186L310,190L312,196L313,194L316,187L319,182L319,178L320,176L320,171L325,168L324,165L329,165L333,163L336,160L337,150L338,148L338,145L337,145L345,140L347,138L348,133L347,130L349,125L351,125L353,122L354,119L356,109L361,102L361,102Z " data-fips="NI35" data-fips-="" data-iso3="NGA" data-name="Adamawa"/><path d="M197,144L195,144L194,145L192,144L189,145L186,150L182,147L180,146L174,147L174,167L175,168L176,168L178,168L179,168L180,168L180,168L184,168L188,167L191,165L195,159L196,154L197,147L198,145L198,144L197,144Z " data-fips="NI11" data-fips-="" data-iso3="NGA" data-name="Federal Capital Territory"/></g></svg>