<?xml version="1.0" encoding="UTF-8"?><!DOCTYPE svg  PUBLIC '-//W3C//DTD SVG 1.1//EN'  'http://www.w3.org/Graphics/SVG/1.1/DTD/svg11.dtd'><svg enable_background="new 0 0 450 301" height="301px" style="stroke-linejoin: round; stroke:#000; fill:#f6f3f0;" version="1.1" viewBox="0 0 450 301" width="450px" xmlns="http://www.w3.org/2000/svg" xmlns:xlink="http://www.w3.org/1999/xlink"><defs><style type="text/css"><![CDATA[path { fill-rule: evenodd; }
#context path { fill: #eee; stroke: #bbb; } ]]></style></defs><metadata><views><view h="301.0" padding="0.06" w="450"><proj id="laea" lat0="11.292114671" lon0="-85.1281057953"/><bbox h="60.45" w="66.63" x="965.67" y="950.23"/><llbbox lat0="-90" lat1="90" lon0="-180" lon1="180"/></view></views></metadata><g id="context"><path d="M319,269L318,274L315,277L309,280L303,280L292,278L288,277L282,270L277,265L274,266L268,264L260,261L256,261L243,267L205,254L203,252L194,260L193,260L193,261L193,265L185,269L183,270L195,277L198,280L198,286L196,291L189,299L333,299L331,296L323,280L322,275L321,271L319,269Z " data-iso="CRI"/><path d="M0,0L0,11L3,10L16,0L0,0Z " data-iso="GTM"/><path d="M16,0L3,10L0,11L0,62L1,64L9,69L10,72L16,75L25,80L30,81L31,89L33,89L44,83L51,81L55,82L58,86L60,87L66,86L72,87L77,92L73,106L73,109L75,114L71,117L73,118L77,119L83,118L90,120L89,125L94,134L99,136L99,143L115,142L118,141L121,138L123,134L124,128L126,125L135,124L136,123L135,117L133,96L135,95L142,94L156,96L159,95L164,87L169,81L173,79L176,78L179,83L191,90L194,88L194,85L197,82L203,79L209,74L215,67L221,63L225,62L227,60L226,57L226,54L228,49L231,46L234,45L235,39L238,35L246,31L250,33L254,37L259,41L265,42L270,42L273,39L277,38L281,38L281,36L288,37L290,36L293,33L298,34L304,32L311,28L316,27L318,27L321,25L324,21L331,19L346,20L342,17L338,15L334,5L323,0L320,0L323,2L326,6L324,6L321,3L316,4L313,6L311,6L306,0L16,0Z " data-iso="HND"/><path d="M99,144L93,146L86,139L84,139L79,143L79,147L91,156L107,172L111,176L127,188L133,193L139,204L150,219L180,244L188,252L193,259L193,260L194,260L203,252L205,254L243,267L256,261L260,261L268,264L274,266L277,265L282,270L288,277L292,278L303,280L309,280L315,277L318,274L319,269L315,268L312,263L308,256L305,246L308,238L313,229L318,225L318,220L315,213L308,211L311,207L311,199L314,199L316,201L317,189L318,185L317,182L314,178L312,172L314,169L320,165L321,159L322,162L322,167L320,171L319,175L321,179L326,178L326,171L325,166L326,145L323,122L327,97L332,81L336,77L343,64L345,60L338,35L334,34L331,30L335,26L338,26L338,32L339,31L343,24L345,22L346,20L331,19L324,21L321,25L318,27L316,27L311,28L304,32L298,34L293,33L290,36L288,37L281,36L281,38L277,38L273,39L270,42L265,42L259,41L254,37L250,33L246,31L238,35L235,39L234,45L231,46L228,49L226,54L226,57L227,60L225,62L221,63L215,67L209,74L203,79L197,82L194,85L194,88L191,90L179,83L176,78L173,79L169,81L164,87L159,95L156,96L142,94L135,95L133,96L135,117L136,123L135,124L126,125L124,128L123,134L121,138L118,141L115,142L99,143L99,144Z M249,248L250,251L252,257L250,260L247,261L244,262L241,261L237,261L231,259L222,256L213,253L207,251L203,249L199,247L197,245L195,242L193,239L190,235L188,230L186,223L185,222L184,221L184,220L184,215L183,206L183,203L184,201L186,197L188,196L190,196L193,197L197,199L203,202L211,209L216,212L222,216L230,224L237,232L243,239L246,244L249,248Z " data-iso="NIC"/><path d="M71,117L75,114L73,109L73,106L77,92L72,87L66,86L60,87L58,86L55,82L51,81L44,83L33,89L31,89L30,81L25,80L16,75L10,72L9,69L1,64L0,62L0,119L8,123L29,129L31,129L25,126L19,123L24,124L35,128L49,131L58,131L63,130L70,124L69,118L71,117Z " data-iso="SLV"/></g><g fill="red" fill-opacity="0.35" id="regions"><path d="M185,222L184,222L180,224L178,222L173,227L172,227L170,228L170,228L169,229L167,232L168,234L174,239L182,245L189,252L190,256L196,259L200,252L202,251L207,255L242,268L245,267L255,260L258,260L260,262L264,262L273,267L276,264L279,269L285,272L287,277L289,277L293,278L298,277L298,278L302,281L318,276L317,269L315,269L315,267L309,261L305,261L304,257L288,255L285,252L277,246L275,242L264,236L264,230L266,224L264,219L262,216L261,211L259,211L249,211L245,215L241,217L238,221L233,223L232,225L231,225L237,232L243,239L246,244L249,248L250,251L252,257L250,260L247,261L244,262L241,261L237,261L231,259L222,256L213,253L207,251L203,249L199,247L197,245L195,242L193,239L190,235L188,230L186,223L185,222Z " data-fips="NU00" data-fips-="NU15|" data-iso3="NIC" data-name="Nicaragua"/><path d="M252,129L250,132L254,138L255,138L253,145L246,146L240,151L235,150L229,151L228,153L225,153L225,159L227,163L228,163L228,161L230,158L232,155L238,158L239,163L240,163L241,165L246,176L247,180L251,186L250,190L251,194L255,204L263,208L261,210L261,211L262,216L264,219L266,224L264,230L264,236L275,242L277,246L285,252L288,255L304,257L305,261L309,261L315,267L314,266L307,255L305,247L306,239L308,237L310,237L312,229L318,227L318,223L315,212L310,214L307,211L312,206L311,205L314,195L314,192L316,196L315,200L317,202L316,194L317,187L320,181L319,181L317,185L314,182L314,177L314,174L311,173L311,170L317,168L320,165L320,158L319,157L319,154L320,153L324,154L324,164L323,167L322,169L319,168L319,179L320,180L326,179L328,175L325,167L325,164L326,148L325,140L318,139L312,136L307,132L308,129L305,127L297,126L295,129L289,129L288,125L283,126L268,127L252,129Z " data-fips="NU18" data-fips-="NU16|" data-iso3="NIC" data-name="Atlntico Sur"/><path d="M173,212L169,209L167,208L162,206L161,205L160,207L157,210L149,216L148,217L148,217L155,223L158,227L163,229L167,232L167,232L169,229L170,228L170,228L172,227L171,225L171,222L172,216L173,212L174,212L173,212Z " data-fips="NU02" data-fips-="" data-iso3="NIC" data-name="Carazo"/><path d="M186,190L185,190L185,191L183,192L178,194L180,196L180,197L178,203L175,209L174,212L173,212L172,216L171,222L171,225L172,227L173,227L178,222L180,224L184,222L185,222L185,222L184,221L184,220L184,215L183,206L183,203L184,201L186,197L188,196L190,196L190,197L188,194L188,194L187,192L187,191L186,190Z " data-fips="NU06" data-fips-="" data-iso3="NIC" data-name="Granada"/><path d="M236,45L234,47L229,46L229,51L226,57L228,60L225,62L219,64L209,75L207,75L206,78L202,79L199,82L194,83L194,88L194,91L194,92L191,94L191,97L187,109L184,112L175,111L175,112L174,112L169,115L168,116L166,118L165,119L165,122L165,125L163,130L169,136L171,138L172,139L173,139L178,142L184,140L193,132L198,127L204,121L208,119L208,117L214,110L215,108L213,104L216,100L221,99L228,94L234,97L242,85L246,78L247,62L242,62L238,58L239,52L237,50L237,45L236,44L236,45Z " data-fips="NU07" data-fips-="" data-iso3="NIC" data-name="Jinotega"/><path d="M368,58L372,58L372,56L368,58Z M236,44L237,45L237,50L239,52L238,58L242,62L247,62L246,78L242,85L234,97L228,94L221,99L216,100L213,104L215,108L214,110L208,117L208,119L209,122L216,130L219,131L223,133L228,131L230,125L232,124L239,124L245,119L251,127L252,129L268,127L283,126L288,125L289,129L295,129L297,126L305,127L308,129L307,132L312,136L318,139L325,140L323,128L323,124L323,116L325,109L326,104L327,97L329,89L333,80L335,78L343,65L345,57L340,44L338,33L337,35L333,34L332,31L334,27L337,25L338,30L340,30L340,28L342,24L343,21L339,19L335,20L332,18L330,20L325,21L324,23L318,27L315,27L313,29L303,32L301,32L301,34L295,34L290,32L288,37L285,37L281,35L281,38L280,40L277,40L275,37L274,40L270,42L267,43L256,39L255,40L250,31L247,30L242,32L237,36L236,40L236,44L236,44Z " data-fips="NU17" data-fips-="NU07" data-iso3="NIC" data-name="Atlntico Norte"/><path d="M155,149L153,148L153,146L154,141L151,136L149,134L140,137L136,136L135,136L136,138L139,144L138,155L136,156L132,157L121,169L118,172L116,173L111,175L113,176L108,175L112,177L118,182L130,189L137,201L138,203L142,198L146,196L148,192L147,190L147,185L157,173L157,171L159,165L161,164L162,159L162,153L162,151L155,149Z " data-fips="NU08" data-fips-="" data-iso3="NIC" data-name="Len"/><path d="M179,171L175,169L171,166L161,164L159,165L157,171L157,173L147,185L147,190L148,192L146,196L142,198L138,203L138,203L140,204L143,210L146,212L147,216L148,217L149,216L157,210L160,207L161,205L163,204L168,203L167,199L170,196L177,194L178,194L183,192L185,191L185,190L186,190L187,191L187,189L188,187L183,182L183,178L181,177L179,172L180,171L179,171Z " data-fips="NU10" data-fips-="" data-iso3="NIC" data-name="Managua"/><path d="M177,194L170,196L167,199L168,203L163,204L161,205L162,206L167,208L169,209L173,212L174,212L175,209L178,203L180,197L180,196L178,194L177,194Z " data-fips="NU11" data-fips-="" data-iso3="NIC" data-name="Masaya"/><path d="M111,175L116,173L118,172L121,169L132,157L136,156L138,155L139,144L136,138L135,136L135,133L135,131L135,130L135,130L136,129L136,128L136,127L136,126L135,125L134,126L127,125L123,128L123,136L117,143L114,142L100,143L96,145L101,146L95,147L93,146L91,142L84,136L84,138L79,142L78,144L80,149L90,155L87,152L91,154L92,157L98,165L104,169L108,171L109,173L111,174L111,175Z " data-fips="NU03" data-fips-="" data-iso3="NIC" data-name="Chinandega"/><path d="M165,117L163,115L160,115L153,117L149,115L145,117L141,124L136,129L135,130L135,130L135,131L135,133L135,136L136,136L140,137L149,134L151,136L154,141L153,146L153,148L155,149L162,151L163,149L170,144L170,142L172,139L171,138L169,136L163,130L165,125L165,122L165,119L166,118L165,117Z " data-fips="NU05" data-fips-="" data-iso3="NIC" data-name="Estel"/><path d="M133,103L133,107L135,115L134,119L136,122L135,125L135,125L136,126L136,127L136,128L136,129L141,124L145,117L149,115L153,117L160,115L163,115L165,117L166,118L168,116L169,115L174,112L175,112L173,110L172,107L169,104L166,105L165,108L160,106L158,107L153,106L146,106L146,107L141,104L140,102L136,101L133,103L133,103Z " data-fips="NU09" data-fips-="" data-iso3="NIC" data-name="Madriz"/><path d="M251,127L245,119L239,124L232,124L230,125L228,131L223,133L219,131L216,130L209,122L208,119L204,121L198,127L193,132L184,140L178,142L173,139L172,139L170,142L170,144L163,149L162,151L162,153L162,159L161,164L171,166L175,169L179,171L180,171L181,169L185,168L187,165L197,163L206,160L211,160L213,158L220,161L220,163L222,163L224,165L227,163L227,163L225,159L225,153L228,153L229,151L235,150L240,151L246,146L253,145L255,138L254,138L250,132L252,129L251,127Z " data-fips="NU12" data-fips-="" data-iso3="NIC" data-name="Matagalpa"/><path d="M133,103L136,101L140,102L141,104L146,107L146,106L153,106L158,107L160,106L165,108L166,105L169,104L172,107L173,110L175,112L175,111L184,112L187,109L191,97L191,94L194,92L193,92L189,90L187,87L181,84L177,81L177,78L173,78L167,83L165,86L157,96L154,96L152,95L149,95L144,94L134,95L132,102L133,103L133,103Z " data-fips="NU13" data-fips-="" data-iso3="NIC" data-name="Nueva Segovia"/><path d="M239,163L238,158L232,155L230,158L228,161L228,163L227,163L227,163L224,165L222,163L220,163L220,161L213,158L211,160L206,160L197,163L187,165L185,168L181,169L180,171L179,172L181,177L183,178L183,182L188,187L187,189L187,191L187,192L188,194L188,194L190,197L193,197L197,199L199,200L199,194L202,189L202,185L208,182L209,182L221,181L228,178L233,176L236,172L236,170L239,165L240,163L239,163Z " data-fips="NU01" data-fips-="" data-iso3="NIC" data-name="Boaco"/><path d="M261,210L263,208L255,204L251,194L250,190L251,186L247,180L246,176L241,165L240,163L239,165L236,170L236,172L233,176L228,178L221,181L209,182L208,182L202,185L202,189L199,194L199,200L203,202L211,209L216,212L222,216L230,224L231,225L232,225L233,223L238,221L241,217L245,215L249,211L259,211L261,211L261,210Z " data-fips="NU04" data-fips-="" data-iso3="NIC" data-name="Chontales"/></g></svg>