<?xml version="1.0" encoding="UTF-8"?><!DOCTYPE svg  PUBLIC '-//W3C//DTD SVG 1.1//EN'  'http://www.w3.org/Graphics/SVG/1.1/DTD/svg11.dtd'><svg enable_background="new 0 0 450 451" height="451px" style="stroke-linejoin: round; stroke:#000; fill:#f6f3f0;" version="1.1" viewBox="0 0 450 451" width="450px" xmlns="http://www.w3.org/2000/svg" xmlns:xlink="http://www.w3.org/1999/xlink"><defs><style type="text/css"><![CDATA[path { fill-rule: evenodd; }
#context path { fill: #eee; stroke: #bbb; } ]]></style></defs><metadata><views><view h="451" padding="0.06" w="450"><proj id="laea" lat0="52.9079853382" lon0="6.63761506127"/><bbox h="38.2" w="33.03" x="972.89" y="990.2"/><llbbox lat0="-90" lat1="90" lon0="-180" lon1="180"/></view></views></metadata><g id="context"><path d="M263,423L276,419L281,427L272,427L291,428L292,431L302,438L305,444L313,450L306,458L309,464L318,466L322,471L322,479L324,491L307,503L302,517L299,514L295,514L288,512L278,525L273,535L270,542L266,548L265,554L266,557L264,561L264,564L270,571L271,575L278,588L272,601L270,603L262,603L253,605L246,607L243,607L236,601L229,591L224,586L222,582L216,581L208,576L202,571L197,567L190,566L184,566L182,557L182,547L177,541L184,515L181,513L176,515L170,520L167,528L165,534L154,540L138,542L120,539L116,533L118,530L121,525L122,519L117,512L118,507L121,501L121,497L109,486L101,484L92,483L86,481L82,482L76,487L75,484L72,465L69,462L58,458L43,456L39,453L38,444L37,433L32,423L26,416L18,417L9,423L1,425L-6,419L-14,409L-20,400L-21,394L-19,388L-24,374L-25,367L16,345L41,334L52,330L54,343L56,347L59,350L62,350L72,345L81,346L88,350L90,353L95,356L101,357L114,352L126,344L130,338L131,332L138,336L145,337L147,336L146,327L151,322L157,320L159,324L164,328L168,328L180,318L184,324L185,330L188,331L196,331L204,322L207,325L208,331L210,340L220,350L229,353L240,351L244,350L247,351L250,356L256,362L269,367L273,369L276,373L275,379L269,393L267,401L259,411L258,414L263,424L263,423Z " data-iso="BEL"/><path d="M398,61L398,74L398,102L397,107L392,118L386,139L384,152L383,155L359,155L356,157L356,160L357,164L356,167L354,170L355,174L359,180L367,183L375,183L379,182L382,186L385,192L385,199L384,208L380,217L369,227L364,231L360,233L357,235L357,242L364,250L359,260L339,268L331,267L324,272L319,268L307,264L303,265L301,268L293,271L288,275L288,281L297,296L300,299L300,305L305,312L309,321L310,327L309,332L307,340L299,359L299,366L304,368L303,370L288,383L286,386L279,385L278,387L279,391L282,394L287,396L292,399L296,405L291,428L292,431L302,438L305,444L311,449L450,449L450,0L435,0L405,3L399,7L390,21L387,32L386,47L394,54L398,61Z " data-iso="DEU"/><path d="M38,444L37,433L32,423L26,416L18,417L9,423L1,425L0,424L0,449L39,449L38,444Z " data-iso="FRA"/><path d="M121,336L112,330L100,336L85,333L74,328L59,328L52,330L54,343L56,347L59,350L62,350L72,345L81,346L88,350L90,353L95,356L101,357L114,352L126,344L130,338L131,332L121,336Z M108,280L94,279L86,281L86,284L88,288L96,286L108,296L119,294L117,288L108,280Z M197,90L197,73L184,86L181,94L183,97L188,100L197,90Z M217,56L210,55L199,64L201,66L217,56Z M263,424L268,426L272,427L291,428L296,405L292,399L287,396L282,394L279,391L278,387L279,385L286,386L288,383L303,370L304,368L299,366L299,359L307,340L309,332L310,327L309,321L305,312L300,305L300,299L297,296L288,281L288,275L293,271L301,268L303,265L307,264L319,268L324,272L331,267L339,268L359,260L364,250L357,242L357,235L360,233L364,231L369,227L380,217L384,208L385,199L385,192L382,186L379,182L375,183L367,183L359,180L355,174L354,170L356,167L357,164L356,160L356,157L359,155L383,155L384,152L386,139L392,118L397,107L398,102L398,74L398,61L386,58L378,54L373,47L365,38L343,39L325,42L300,43L283,47L254,62L246,70L238,87L212,106L197,113L192,110L186,108L181,118L178,127L166,180L159,199L149,215L133,235L126,241L122,244L116,253L111,265L108,270L124,290L126,296L128,300L112,301L119,308L127,313L133,315L136,320L130,322L124,322L102,304L89,300L71,301L67,302L62,307L68,315L74,320L84,321L95,328L112,323L124,330L131,332L138,336L145,337L147,336L146,327L151,322L157,320L159,324L164,328L168,328L180,318L184,324L185,330L188,331L196,331L204,322L207,325L208,331L210,340L220,350L229,353L240,351L244,350L247,351L250,356L256,362L269,367L273,369L276,373L275,379L269,393L267,401L259,411L258,414L263,424L263,424Z M236,45L258,38L256,37L244,38L224,44L228,46L236,45Z M288,35L284,33L269,33L265,34L266,35L271,37L288,35Z M323,28L320,27L309,30L308,31L311,33L323,28Z M358,17L364,11L360,11L352,14L350,18L358,17Z " data-iso="NLD"/></g><g fill="red" fill-opacity="0.35" id="regions"><path d="M321,88L321,90L325,93L326,98L331,104L331,108L329,112L324,115L317,112L313,117L305,123L309,128L312,131L305,138L310,148L313,147L318,150L323,151L326,155L336,156L339,158L340,152L345,150L348,149L355,152L357,156L358,155L361,154L370,154L374,155L379,154L383,156L385,153L385,148L386,132L387,127L388,125L383,121L385,116L376,103L362,89L357,85L348,84L340,74L335,72L329,77L328,79L324,89L323,89L321,88Z " data-fips="NL01" data-fips-="" data-iso3="NLD" data-name="Drenthe" data-p="DR"/><path d="M202,67L204,64L211,58L217,56L217,55L212,55L206,58L201,63L197,68L200,69L202,67Z M301,42L293,43L287,46L285,46L282,48L268,53L265,56L259,57L254,62L251,64L246,69L244,73L242,83L240,87L238,88L234,89L231,92L222,99L223,102L229,120L239,131L255,131L261,126L266,125L269,125L269,125L275,130L278,128L282,130L286,128L287,126L290,125L292,126L297,128L298,125L301,124L305,123L313,117L317,112L324,115L329,112L331,108L331,104L326,98L325,93L321,90L321,88L320,88L316,85L312,85L309,83L309,79L309,76L314,70L313,67L316,60L318,59L318,52L315,52L310,49L311,42L301,42Z M245,42L249,39L254,39L257,38L259,35L246,38L243,40L232,42L230,42L228,43L223,45L222,47L223,49L226,49L238,44L245,42Z M287,33L266,33L263,36L265,38L267,39L273,36L282,37L291,35L287,33Z M308,34L323,29L321,27L313,28L307,30L305,32L306,36L308,34Z " data-fips="NL02" data-fips-="" data-iso3="NLD" data-name="Friesland" data-p="FR"/><path d="M282,171L280,177L275,185L273,186L266,190L263,191L260,192L256,196L252,206L248,207L242,208L241,207L239,214L243,218L242,221L242,222L246,223L249,227L245,234L251,234L253,231L254,236L254,239L254,243L259,251L259,253L255,253L248,249L240,250L237,249L231,252L226,249L221,251L220,250L217,255L214,261L214,263L206,267L203,267L204,269L204,271L204,271L205,274L208,277L212,277L215,279L215,284L231,282L234,280L236,278L237,273L239,272L242,273L248,270L251,272L256,271L271,281L280,281L280,279L285,282L287,284L287,283L289,282L288,276L286,275L288,272L291,272L296,269L300,268L305,269L305,268L302,264L304,262L310,265L318,269L323,270L323,273L327,272L340,265L349,262L357,261L359,260L365,253L365,250L362,247L353,242L353,238L357,236L360,232L361,231L361,231L360,230L352,228L353,224L350,222L347,223L345,221L342,221L337,221L334,219L330,211L327,211L324,212L316,214L310,212L306,213L306,211L302,203L301,202L301,192L304,192L305,188L305,186L298,174L296,173L291,176L287,176L285,173L282,171L282,171Z " data-fips="NL03" data-fips-="" data-iso3="NLD" data-name="Gelderland" data-p="GE"/><path d="M311,42L310,49L315,52L318,52L318,59L316,60L313,67L314,70L309,76L309,79L309,83L312,85L316,85L320,88L321,88L323,89L324,89L328,79L329,77L335,72L340,74L348,84L357,85L362,89L376,103L385,116L383,121L388,125L388,123L395,111L397,106L398,102L397,86L396,83L396,80L398,70L398,66L391,64L388,63L388,57L383,57L372,51L369,39L366,36L358,35L337,38L324,42L322,44L318,42L311,42Z M334,21L334,23L339,23L334,21Z " data-fips="NL04" data-fips-="" data-iso3="NLD" data-name="Groningen" data-p="GR"/><path d="M280,281L282,282L284,287L287,287L289,288L290,294L291,295L291,297L295,302L297,310L295,311L292,309L288,310L277,309L279,318L281,327L284,331L286,336L281,340L262,345L258,352L257,358L251,360L252,361L258,363L261,365L269,366L272,369L277,371L275,374L277,377L274,377L274,381L270,386L271,388L270,392L266,397L270,397L265,404L262,406L257,413L257,416L258,418L264,421L262,426L267,426L269,425L272,427L280,427L282,428L291,428L291,426L290,422L291,421L291,416L293,414L296,413L297,410L297,406L291,402L292,395L288,396L283,395L280,397L280,393L278,389L281,384L284,387L286,387L290,381L298,374L304,371L305,366L304,365L299,368L297,367L297,361L298,358L300,354L305,346L309,342L311,336L309,334L310,328L310,323L309,318L306,314L300,305L300,301L301,298L295,295L293,293L293,288L288,286L287,284L287,283L287,284L285,282L280,279L280,281Z " data-fips="NL05" data-fips-="" data-iso3="NLD" data-name="Limburg" data-p="LI"/><path d="M301,124L298,125L297,128L292,126L290,125L287,126L286,128L282,130L278,128L275,130L281,133L285,137L288,143L289,147L295,154L288,157L284,157L280,159L279,160L279,162L280,163L282,171L282,171L285,173L287,176L291,176L296,173L298,174L305,186L305,188L304,192L301,192L301,202L302,203L306,211L306,213L310,212L316,214L324,212L327,211L330,211L334,219L337,221L342,221L345,221L347,223L350,222L353,224L352,228L360,230L361,231L367,230L370,225L372,224L375,222L384,213L383,205L385,199L385,190L379,181L377,183L375,184L366,182L359,181L356,180L354,173L354,168L359,166L355,162L355,157L357,156L355,152L348,149L345,150L340,152L339,158L336,156L326,155L323,151L318,150L313,147L310,148L305,138L312,131L309,128L305,123L301,124Z " data-fips="NL15" data-fips-="NL08" data-iso3="NLD" data-name="Overijssel" data-p="OV"/><path d="M275,130L274,128L272,125L271,125L268,125L266,125L261,126L259,128L255,131L239,131L238,131L237,146L233,144L230,146L229,152L214,161L216,171L220,177L222,183L219,183L214,188L214,193L219,198L221,199L229,200L237,205L237,205L240,207L242,208L248,207L252,206L256,196L260,192L266,190L273,186L275,185L280,177L282,171L280,163L279,162L279,160L279,159L284,157L288,157L295,154L289,147L288,143L285,137L281,133L275,130Z " data-fips="NL16" data-fips-="" data-iso3="NLD" data-name="Flevoland" data-p="FL"/><path d="M87,335L84,332L75,329L70,325L67,327L52,331L52,336L52,343L53,347L55,349L60,351L65,349L65,346L68,345L77,344L88,349L90,350L90,355L92,357L103,357L105,357L110,354L121,348L129,340L131,335L129,334L125,336L122,336L116,333L114,329L112,328L107,333L98,337L96,337L92,336L89,336L87,335Z M129,301L126,300L118,299L111,302L118,309L120,310L125,310L129,312L132,313L134,308L133,306L131,303L129,301Z M136,335L135,332L135,329L135,324L134,324L128,323L123,324L121,323L119,321L117,314L113,311L109,309L100,307L103,305L103,303L99,298L97,298L72,300L63,305L63,310L66,313L69,319L76,322L83,321L87,324L92,327L94,330L101,329L106,322L107,321L113,322L117,327L121,329L129,329L132,328L134,335L136,335Z M130,296L128,295L126,293L124,293L122,294L122,295L123,296L125,298L129,299L129,298L130,296Z M114,286L107,280L99,279L98,279L88,279L85,281L84,286L87,288L94,285L101,289L103,294L105,296L110,297L117,296L121,293L121,291L116,288L114,286Z " data-fips="NL10" data-fips-="" data-iso3="NLD" data-name="Zeeland" data-p="ZE"/><path d="M204,271L201,271L195,270L191,273L189,273L184,273L173,285L161,288L158,288L149,286L146,291L142,293L137,294L134,295L130,296L129,298L129,299L129,299L129,299L130,300L131,303L131,303L133,306L134,308L132,313L133,313L136,315L137,317L138,320L137,323L135,324L135,329L135,332L136,335L137,335L142,337L146,338L148,335L146,331L146,326L150,322L155,320L159,321L158,327L160,328L170,327L180,318L182,318L186,321L185,327L180,330L182,331L190,331L193,333L198,330L200,328L202,322L207,323L209,327L207,335L210,340L212,345L214,346L219,346L221,348L220,353L225,353L236,353L246,349L249,353L250,359L251,360L257,358L258,352L262,345L281,340L286,336L284,331L281,327L279,318L277,309L288,310L292,309L295,311L297,310L295,302L291,297L291,295L290,294L289,288L287,287L284,287L282,282L280,281L271,281L256,271L251,272L248,270L242,273L239,272L237,273L236,278L234,280L231,282L215,284L215,279L212,277L208,277L205,274L204,271L204,271Z " data-fips="NL06" data-fips-="" data-iso3="NLD" data-name="Noord-Brabant" data-p="NB"/><path d="M234,205L229,205L226,208L222,218L220,220L215,219L208,221L207,216L208,213L209,211L207,208L210,205L203,204L198,206L196,208L193,208L188,212L183,213L185,215L192,221L192,225L188,229L189,234L193,235L188,237L186,241L186,242L190,242L190,244L188,245L193,253L197,252L199,250L202,248L206,249L209,246L214,245L219,250L220,250L221,251L226,249L231,252L237,249L240,250L248,249L255,253L259,253L259,251L254,243L254,239L254,236L253,231L251,234L245,234L249,227L246,223L242,222L242,221L243,218L239,214L241,207L237,205L234,205Z " data-fips="NL09" data-fips-="" data-iso3="NLD" data-name="Utrecht" data-p="UT"/><path d="M181,214L178,211L169,213L164,212L166,205L170,199L166,199L160,197L151,211L140,227L127,242L124,244L120,245L116,243L116,248L118,256L116,258L120,264L119,266L112,264L103,267L101,269L101,273L110,271L111,270L116,274L117,277L118,282L119,284L125,286L128,289L124,289L122,294L122,294L124,293L126,293L128,295L130,296L134,295L137,294L142,293L146,291L149,286L158,288L161,288L173,285L184,273L189,273L191,273L195,270L201,271L204,271L204,269L203,267L206,267L214,263L214,261L217,255L220,250L219,250L214,245L209,246L206,249L202,248L199,250L197,252L193,253L188,245L190,244L190,242L186,242L186,241L188,237L193,235L189,234L188,229L192,225L192,221L185,215L183,213L181,214Z " data-fips="NL11" data-fips-="" data-iso3="NLD" data-name="Zuid-Holland" data-p="ZH"/><path d="M213,107L210,108L205,109L199,114L195,114L192,113L190,110L191,106L184,104L183,106L181,119L177,129L174,143L169,171L167,180L161,195L160,197L166,199L170,199L166,205L164,212L169,213L178,211L181,214L183,213L188,212L193,208L196,208L198,206L203,204L210,205L207,208L209,211L208,213L207,216L208,221L215,219L220,220L222,218L226,208L229,205L234,205L237,205L229,200L221,199L219,198L214,193L214,188L219,183L222,183L220,177L216,171L214,161L229,152L230,146L233,144L237,146L238,131L229,120L223,102L222,99L213,107Z M198,84L199,83L197,76L197,73L195,73L190,80L186,84L184,87L182,92L181,95L183,99L186,100L189,100L191,96L195,93L199,85L198,84Z " data-fips="NL07" data-fips-="" data-iso3="NLD" data-name="Noord-Holland" data-p="NH"/></g></svg>