<?xml version="1.0" encoding="UTF-8"?><!DOCTYPE svg  PUBLIC '-//W3C//DTD SVG 1.1//EN'  'http://www.w3.org/Graphics/SVG/1.1/DTD/svg11.dtd'><svg enable_background="new 0 0 567 450" height="450px" style="stroke-linejoin: round; stroke:#000; fill: none;" version="1.1" viewBox="0 0 567 450" width="567px" xmlns="http://www.w3.org/2000/svg" xmlns:xlink="http://www.w3.org/1999/xlink"><defs><style type="text/css"><![CDATA[path { fill-rule: evenodd; }]]></style></defs><metadata><views><view h="450" padding="0" w="567"><proj id="laea" lon0="15.410670096440924" lat0="68.80527209320867"/><bbox x="861.74" y="956.68" w="230.38" h="182.84"/></view><view class="inset" x0="980.972" y0="976.423" x1="1031.422" y1="1055.741" scale="1.197719" ox="28.288" oy="13.000"><proj id="laea" lon0="18.479713372676585" lat0="78.86594223100558"/></view><view class="inset" x0="997.175" y0="998.029" x1="1001.914" y1="1002.634" scale="20.044836" ox="11.000" oy="129.347"><proj id="laea" lon0="-8.418667977679107" lat0="71.02113087867116"/></view></views></metadata><g class="" id="context"><path d="M283,450L361,450L360,448L358,447L358,445L359,446L360,445L359,443L362,443L357,437L361,442L357,437L359,437L358,434L360,437L361,437L362,437L360,434L362,433L360,428L362,430L363,428L361,426L363,424L361,425L360,423L362,424L361,422L356,420L362,421L365,419L362,416L357,415L356,416L355,415L354,416L352,415L354,415L353,414L364,415L366,415L365,413L367,414L368,413L366,411L371,411L371,409L373,410L372,407L375,408L374,406L375,406L374,405L375,398L376,402L377,400L378,407L377,405L379,408L381,402L387,399L386,396L387,396L385,395L385,393L389,394L391,393L388,390L387,390L388,393L385,392L384,393L382,393L383,393L381,391L383,389L383,391L385,391L384,389L386,389L390,385L391,382L394,380L395,381L396,380L396,379L391,379L394,377L393,374L396,377L396,375L394,374L392,369L391,370L392,372L389,368L388,368L388,370L388,367L386,367L384,363L385,365L389,365L386,364L386,362L383,363L383,361L379,358L379,355L376,355L375,358L374,358L373,356L374,355L373,354L369,354L367,352L369,350L366,345L367,343L366,343L367,336L365,333L367,334L366,333L368,334L365,331L367,330L364,327L366,326L364,326L365,325L364,325L367,325L365,324L367,322L365,321L368,323L368,321L370,324L371,321L369,321L369,318L368,318L368,315L370,313L370,306L372,306L368,303L367,298L369,296L371,299L373,299L372,298L374,298L376,294L376,295L377,294L375,292L376,292L376,290L374,285L372,282L374,282L375,288L377,286L378,287L376,288L378,289L379,288L379,289L380,287L379,287L379,286L381,287L383,286L382,285L383,285L382,283L384,283L379,282L381,281L382,281L382,280L383,281L384,278L385,278L384,276L386,277L386,275L387,275L386,276L388,276L386,274L388,273L390,276L390,274L391,274L391,272L393,271L393,267L394,268L394,266L396,268L395,264L398,268L401,262L403,262L403,260L405,261L406,258L406,260L406,257L407,260L409,255L409,256L410,255L411,256L413,250L414,245L418,239L418,238L419,239L421,235L421,234L420,235L419,233L418,233L420,233L419,231L418,230L418,232L414,228L415,227L417,229L416,226L417,226L414,225L413,224L413,223L415,224L415,220L417,220L418,216L419,216L419,213L415,208L415,207L419,211L420,209L417,208L417,206L423,206L424,204L421,202L424,202L426,201L421,198L419,196L428,201L426,197L427,199L425,199L426,198L426,196L427,197L425,194L426,195L427,191L429,194L430,193L431,194L430,189L436,195L438,193L437,191L438,192L439,191L440,192L440,190L442,191L444,190L446,192L449,189L446,183L442,179L441,175L440,171L442,168L442,162L443,160L436,150L436,147L438,145L437,142L434,142L433,141L434,137L432,129L434,126L431,124L429,121L428,122L426,117L423,114L414,113L400,101L400,99L399,98L391,98L394,101L395,104L394,109L391,113L394,114L391,119L381,115L376,115L374,113L371,114L372,124L369,131L362,128L356,134L354,142L352,145L349,146L349,149L352,155L352,160L340,177L341,183L336,187L330,188L331,198L329,212L326,219L324,222L317,234L323,238L324,247L321,252L311,249L308,250L304,253L296,264L297,267L294,273L296,282L294,284L295,290L294,294L296,303L293,320L297,325L300,326L303,332L300,341L294,342L298,360L296,363L296,370L290,376L286,376L286,381L283,384L284,395L281,405L278,405L276,399L274,399L273,403L274,404L273,410L275,415L273,422L277,419L275,422L277,421L276,424L278,422L279,418L279,420L281,420L278,425L281,423L284,423L283,424L284,426L281,436L279,437L282,439L280,442L283,442L282,443L282,445L283,444L283,450ZM329,422L326,432L321,440L320,440L319,436L321,430L326,417L333,409L332,416L333,419L329,422ZM319,401L318,408L315,412L308,415L306,418L304,418L304,416L303,415L296,422L295,422L295,420L291,422L291,420L296,415L293,409L294,405L295,409L298,402L300,401L306,406L304,396L305,393L307,394L307,393L313,392L314,394L319,394L317,401L318,402L319,401ZM345,400L342,397L339,396L356,395L348,399L345,400ZM364,390L350,390L357,388L358,385L361,387L362,386L371,389L371,386L375,387L375,385L376,385L377,391L380,393L379,395L370,395L364,390ZM330,279L328,278L327,279L327,286L327,288L326,280L321,275L322,275L321,273L328,275L330,279ZM309,262L309,265L312,269L307,264L306,262L308,261L312,261L309,262ZM340,254L339,249L335,244L326,241L318,233L319,232L326,240L338,243L340,252L346,260L343,258L342,260L342,257L338,254L340,254ZM360,137L372,144L375,148L368,143L361,141L360,137ZM281,432L281,431L277,431L278,434L281,432ZM282,429L282,426L281,424L276,428L277,430L277,429L282,429ZM364,424L363,423L363,422L362,422L363,424L364,424ZM398,450L395,449L396,441L398,441L398,439L400,438L399,435L397,436L397,435L396,435L395,438L394,435L385,446L385,450L398,450ZM363,425L364,425L363,425ZM386,405L386,404L384,406L386,405ZM376,406L376,403L375,401L375,405L376,406ZM382,404L384,402L383,402L382,404ZM387,403L388,399L387,401L387,403ZM391,397L392,397L392,396L391,396L391,397ZM386,394L389,396L390,395L389,396L389,395L390,395L386,394ZM393,395L392,394L392,395L393,395ZM390,392L391,394L392,393L392,392L390,392ZM384,392L382,391L382,392L383,393L384,392ZM389,390L391,387L392,386L390,386L388,388L389,390ZM392,385L394,383L392,385ZM391,366L390,368L392,368L391,366ZM388,363L387,362L385,357L385,362L388,363ZM377,290L378,292L379,290L377,290ZM404,434L400,433L399,435L401,437L401,435L404,434ZM401,421L402,422L403,421L401,421ZM394,391L395,391L394,390L394,391ZM394,391L394,390L394,391ZM394,389L394,390L395,389L394,389ZM395,384L395,383L394,385L394,384L395,384ZM395,378L395,377L395,376L394,379L395,378ZM413,260L414,260L414,259L413,260ZM415,256L414,257L414,259L414,258L415,256ZM413,256L414,256L413,255L413,256ZM427,204L428,203L427,204ZM426,203L425,204L426,205L426,203ZM426,201L427,203L427,202L428,202L426,201ZM430,201L431,201L430,201ZM430,200L431,199L430,200ZM435,196L434,194L435,196ZM444,194L445,192L443,193L444,194ZM432,193L432,195L432,193Z" data-iso="SWE"/><path d="M566,151L565,150L563,151L559,149L556,151L559,149L557,147L560,146L558,146L557,144L557,146L553,145L549,146L552,143L556,144L552,142L549,145L548,144L550,143L550,142L553,141L546,140L548,140L540,137L541,135L540,135L541,135L541,133L538,132L537,131L532,131L538,129L544,129L544,132L548,136L554,138L554,136L555,137L554,136L554,135L555,136L554,135L560,138L561,134L561,138L567,136L565,138L567,140L567,61L558,59L550,58L549,59L550,60L550,61L549,60L547,61L547,60L541,60L535,61L535,62L532,62L533,66L533,69L529,72L530,75L529,71L533,66L530,66L531,64L529,65L531,59L528,59L526,62L525,65L526,59L523,62L524,60L520,60L518,63L517,63L520,60L518,58L515,59L514,60L514,58L513,57L514,56L514,54L515,57L523,57L525,54L524,52L517,51L517,50L510,48L513,53L509,52L510,56L511,57L508,57L506,60L507,57L500,56L503,62L503,64L499,65L494,63L496,65L495,71L489,75L488,83L481,89L486,90L484,100L489,109L497,111L502,118L507,121L507,126L504,134L501,146L517,168L522,179L522,180L521,180L518,182L520,184L519,186L520,191L519,194L522,195L523,197L521,200L522,204L525,207L529,207L531,210L528,213L530,216L531,218L538,221L540,227L537,235L534,237L543,244L554,249L556,252L562,257L560,270L554,281L546,302L541,314L536,319L525,339L525,338L526,339L531,338L533,334L536,330L538,339L534,337L538,341L540,342L540,341L545,346L555,343L558,344L559,347L564,348L564,351L548,351L546,353L547,355L546,356L544,358L539,357L538,363L536,363L534,360L532,362L534,367L534,370L537,373L533,376L532,386L537,400L534,408L535,410L539,409L541,410L546,416L545,418L543,418L539,415L536,415L538,417L540,419L536,421L536,424L535,425L534,428L535,430L538,429L538,432L544,435L544,439L542,442L544,443L543,449L546,448L548,450L567,450L567,329L564,327L562,322L560,319L550,313L550,310L553,311L554,308L553,302L557,302L558,300L558,298L560,293L563,294L565,296L567,295L566,151ZM559,288L558,283L559,283L562,286L561,287L559,288ZM550,232L548,233L550,237L547,235L546,233L544,233L544,229L550,232ZM552,207L555,209L555,211L547,212L547,211L552,210L552,207ZM556,180L540,174L538,172L540,170L544,168L549,172L551,176L555,177L556,180ZM544,150L539,151L540,148L536,143L532,143L533,141L532,139L533,138L535,140L539,140L539,142L541,144L540,146L544,150ZM536,120L534,122L529,120L530,119L533,119L536,120ZM553,169L553,167L554,165L552,163L553,160L553,162L556,163L557,166L553,169ZM556,111L552,102L553,102L559,109L558,110L556,111ZM561,97L561,92L563,98L563,104L561,102L562,98L561,97ZM556,349L558,349L555,348L556,349ZM536,60L540,59L538,58L536,60ZM539,344L537,343L537,344L539,344ZM538,130L538,131L538,130ZM535,343L536,343L535,342L535,343ZM535,333L535,335L536,336L536,335L535,333ZM528,354L528,356L529,355L528,354ZM515,357L516,356L514,355L515,357Z" data-iso="RUS"/><path d="M469,450L467,446L457,439L457,435L448,441L444,442L440,450L469,450ZM548,450L545,448L543,449L544,443L542,442L544,439L544,436L538,432L538,429L530,430L527,429L526,430L521,433L512,427L512,425L508,425L507,423L505,424L499,420L498,422L496,420L484,428L488,445L486,450L548,450Z" data-iso="LVA"/><path d="M415,370L414,372L415,372L417,371L415,370ZM411,368L410,370L413,372L413,370L411,368ZM417,369L416,370L417,370L417,369ZM417,369L418,369L418,368L417,369ZM409,368L411,369L410,366L407,366L406,369L409,368ZM414,369L414,367L414,368L413,366L414,369ZM405,367L403,364L403,368L404,366L405,367ZM416,363L415,363L415,365L416,363ZM424,372L424,373L424,372ZM425,372L424,372L425,372ZM419,369L418,369L418,370L419,370L419,369ZM420,367L420,366L420,367ZM420,364L420,363L420,364ZM422,362L422,363L422,362ZM420,361L421,360L421,359L420,361ZM425,356L425,355L425,356Z" data-iso="ALA"/><path d="M440,365L439,364L439,365L440,365ZM435,364L433,364L432,366L434,366L435,364ZM438,363L436,363L435,365L437,365L438,363ZM432,364L430,363L429,364L431,365L432,364ZM433,362L434,361L433,361L433,362ZM438,359L439,360L439,359L438,359ZM430,359L429,358L430,359ZM438,359L439,358L436,355L436,357L438,359ZM435,354L435,355L435,353L435,354ZM431,353L430,353L429,353L431,355L431,353ZM427,353L428,355L429,355L427,353ZM427,350L428,353L428,352L427,350ZM426,344L427,344L426,344ZM426,343L428,343L428,341L427,340L426,341L427,343L426,343ZM427,334L429,334L428,333L427,334ZM419,279L421,281L419,279ZM423,273L422,271L421,273L419,272L420,271L418,271L420,275L423,273ZM420,269L421,269L421,268L420,269ZM447,372L449,372L449,371L447,372ZM454,366L453,365L454,367L454,366ZM447,366L446,366L446,368L447,368L447,366ZM454,364L454,363L453,364L454,364ZM454,358L452,360L447,362L447,361L446,363L449,363L446,364L447,365L448,368L449,366L450,368L450,366L451,367L453,364L452,361L454,358ZM440,364L440,363L441,362L439,363L440,364ZM444,364L446,362L445,362L444,364ZM444,361L443,361L443,363L444,361ZM445,359L441,359L441,360L443,361L445,359ZM444,358L445,358L445,359L447,358L445,357L444,358ZM442,357L444,357L442,357ZM441,357L441,358L442,357L441,357ZM455,363L456,365L459,365L457,367L458,369L459,368L460,366L460,369L455,373L460,371L460,369L464,364L462,367L468,367L471,364L473,364L475,362L475,364L477,362L477,364L479,362L478,359L480,360L482,357L483,359L484,358L485,356L486,358L489,354L492,354L492,352L494,350L494,352L496,353L497,353L496,352L496,351L499,353L496,349L499,349L500,351L501,350L497,346L501,348L503,347L502,346L504,348L506,346L505,344L507,339L509,341L506,341L505,344L507,346L507,345L508,345L509,346L510,344L513,344L512,343L513,341L516,342L516,339L517,341L516,342L520,342L520,341L522,342L522,340L524,341L523,338L525,339L536,319L541,314L546,302L554,281L560,270L562,257L556,252L554,249L543,244L534,237L537,235L540,227L538,221L531,218L530,216L528,213L531,210L529,207L525,207L522,204L521,200L523,197L522,195L519,194L520,191L519,186L520,184L518,182L521,180L522,180L522,179L517,168L501,146L504,134L507,126L507,121L502,118L497,111L489,109L484,100L486,90L481,89L486,84L485,82L484,79L487,70L484,64L475,62L468,55L466,56L464,60L462,62L459,61L455,62L453,69L451,70L451,85L453,91L452,95L449,95L447,98L447,103L445,106L442,103L433,100L432,101L432,103L426,107L425,105L417,105L416,102L407,89L404,89L401,91L401,92L402,95L402,97L398,95L397,97L400,99L400,101L414,113L423,114L426,117L428,122L429,121L431,124L434,126L432,129L434,137L433,141L434,142L437,142L438,145L436,147L436,150L443,160L442,162L442,168L440,171L441,177L446,183L450,191L450,189L452,191L453,190L454,187L455,186L454,191L456,194L458,193L465,197L466,205L465,209L467,209L469,213L466,213L468,215L468,217L467,218L465,215L460,218L460,220L458,219L459,220L457,228L453,233L453,237L451,237L448,242L449,244L446,244L447,248L443,251L442,253L441,253L440,258L437,256L435,263L435,264L434,262L433,262L435,265L432,264L435,268L433,271L431,271L430,274L429,273L429,270L426,272L427,272L424,272L424,275L427,278L424,277L423,283L421,283L419,286L420,288L419,292L420,291L421,292L420,293L421,297L422,297L421,297L422,299L423,297L424,302L425,301L425,303L423,310L426,312L427,316L429,318L428,318L429,319L432,323L428,322L430,324L427,325L430,326L428,327L429,328L430,331L429,332L430,333L429,334L430,337L427,338L429,342L428,342L429,343L428,343L428,345L430,347L430,349L429,349L431,351L430,352L432,352L433,354L434,352L436,350L436,354L437,354L437,353L440,355L441,354L444,357L449,355L447,360L449,359L448,361L456,356L453,361L455,364L455,363ZM521,323L523,326L521,327L518,328L515,327L515,326L519,326L521,323ZM445,331L451,324L455,323L445,331ZM468,319L467,324L469,325L466,328L467,329L471,329L473,333L463,329L462,327L465,328L466,322L469,316L469,315L471,315L471,313L474,312L473,314L471,316L471,318L468,319ZM493,309L495,311L495,314L491,311L491,307L494,307L495,305L496,308L499,307L501,310L499,311L495,308L493,309ZM506,311L504,312L500,306L495,304L497,300L497,303L499,302L499,301L501,303L503,302L499,298L503,300L505,305L507,307L503,308L506,311ZM544,293L539,303L537,304L531,303L530,304L532,305L531,306L532,308L528,313L532,312L536,315L529,321L524,323L522,320L523,319L527,319L524,318L521,318L518,320L515,319L514,317L512,317L511,306L513,311L514,311L514,308L516,309L517,306L515,302L519,304L523,309L524,308L524,302L526,301L527,298L531,298L531,297L524,292L517,291L514,283L510,284L508,282L506,283L504,281L507,281L507,280L510,281L511,281L510,278L509,269L507,271L501,265L501,257L498,253L497,253L495,251L499,252L502,258L502,263L505,266L507,266L510,268L509,263L511,265L517,263L515,267L519,275L529,281L525,281L523,279L523,278L520,277L519,282L518,282L516,274L514,273L512,274L512,278L515,282L517,283L517,287L521,287L522,286L525,287L527,283L526,282L530,285L529,287L530,289L536,286L533,273L539,278L538,275L538,272L543,276L541,280L539,282L546,285L540,286L539,288L540,290L542,290L544,293ZM532,272L532,267L533,269L535,270L535,272L532,272ZM539,266L539,268L537,270L533,265L535,266L533,259L539,266ZM551,258L550,264L548,264L550,255L551,258ZM543,267L544,262L536,256L530,256L524,248L524,245L535,251L538,251L539,255L545,263L543,267ZM492,269L488,262L491,264L492,263L490,260L490,258L494,259L493,260L495,262L493,266L495,270L492,269ZM497,227L501,224L504,224L504,227L502,228L502,229L509,231L505,231L500,229L497,231L496,234L492,231L489,228L489,223L494,223L494,225L497,227ZM506,164L501,173L495,175L492,171L495,171L496,173L503,167L502,164L506,164ZM480,77L480,83L477,86L481,90L477,90L476,91L478,93L477,95L475,93L474,95L472,95L470,97L471,93L468,91L473,83L475,82L476,82L475,78L477,79L478,76L482,73L480,77ZM431,270L433,269L433,267L431,268L431,270ZM430,270L431,269L430,268L430,270ZM429,268L431,267L431,266L430,266L429,268ZM440,254L438,254L438,255L439,255L440,254ZM469,367L469,366L469,367ZM497,355L498,354L497,354L497,355ZM493,352L493,354L494,355L495,354L493,352ZM508,346L507,345L506,347L507,347L508,346ZM460,212L464,211L460,210L457,212L460,215L461,214L459,213L460,212ZM514,266L511,268L515,273L514,266ZM513,315L517,318L518,316L517,314L514,313L513,315ZM518,311L515,312L519,314L521,310L518,309L518,311ZM525,302L526,307L526,312L529,310L528,308L529,305L527,302L525,302ZM528,291L529,293L531,294L534,298L536,298L538,297L538,292L540,292L536,287L528,291Z" data-iso="FIN"/><path d="M467,433L468,432L467,432L467,433ZM477,420L477,422L478,422L479,421L477,420ZM466,413L459,408L455,410L454,409L450,411L449,413L448,412L447,416L445,413L442,414L446,418L445,419L444,419L444,421L449,424L446,429L447,431L450,429L451,422L454,420L457,421L457,419L460,418L461,416L462,416L463,412L466,413ZM484,428L497,420L498,422L499,420L505,424L507,423L508,425L512,425L512,427L521,433L526,430L527,429L530,430L535,430L534,428L535,425L536,424L536,421L540,419L538,417L532,407L528,403L526,397L522,393L521,391L526,387L532,386L533,376L537,373L536,371L534,370L532,373L518,374L513,372L504,372L502,371L502,372L501,371L500,373L498,371L498,374L495,371L496,375L494,376L494,377L490,376L490,377L487,377L485,376L485,380L483,378L483,380L478,380L478,382L476,382L477,384L474,383L475,387L470,387L470,388L468,388L466,390L467,394L465,395L468,397L469,395L468,394L469,395L469,396L466,398L468,401L467,403L472,401L474,402L472,402L473,403L468,403L468,405L469,409L469,408L472,410L473,415L477,415L480,417L481,416L483,412L486,414L484,428ZM510,408L511,410L511,415L508,411L508,409L510,408ZM467,410L465,406L463,406L461,408L464,410L467,410ZM447,402L450,402L452,406L453,407L455,406L456,403L458,404L458,402L460,402L458,397L455,397L454,395L453,395L451,399L445,400L447,402ZM465,397L464,395L461,396L462,397L465,397ZM481,377L480,376L480,377L481,377Z" data-iso="EST"/><path d="M260,448L259,444L263,439L262,439L257,442L251,443L246,450L260,450L260,448Z" data-iso="DNK"/><path d="M240,267L242,265L241,263L237,264L240,267ZM235,274L235,276L237,274L235,274ZM234,273L232,275L230,274L230,276L231,278L234,276L234,273ZM223,279L221,280L222,281L223,279ZM219,283L219,285L222,284L222,283L219,283ZM247,272L247,274L242,273L243,274L242,275L242,273L241,274L242,276L245,277L243,277L243,278L246,277L246,278L247,278L244,279L247,283L244,281L245,282L242,281L243,278L240,276L240,274L237,276L238,276L240,278L240,282L245,286L245,288L244,286L240,283L239,278L237,277L234,279L235,277L234,277L231,279L228,275L223,277L227,281L224,281L223,283L233,282L228,284L229,285L230,285L238,284L239,286L235,285L230,286L230,288L229,287L229,289L234,289L231,290L230,291L225,286L224,289L224,286L222,286L222,288L220,285L218,286L217,287L217,286L213,286L212,288L216,288L215,289L218,290L215,289L212,290L214,291L220,290L222,294L221,294L221,295L226,297L227,298L227,299L226,297L222,297L222,300L221,302L223,301L224,302L220,302L221,297L220,294L220,292L218,291L216,292L216,294L215,292L214,292L215,299L214,301L215,299L212,293L207,295L207,296L208,297L206,296L208,300L212,302L207,301L206,299L204,302L206,297L202,297L203,300L200,296L198,298L201,299L201,300L199,302L196,295L194,295L194,298L198,301L197,301L195,303L194,302L194,304L199,304L205,305L202,306L203,307L204,306L212,309L214,308L216,308L217,308L217,309L215,308L212,310L206,308L208,310L206,308L204,311L205,308L200,308L202,307L201,306L197,304L196,306L192,308L194,308L193,309L191,308L190,310L190,312L195,312L194,313L196,314L192,313L195,315L192,314L194,317L197,318L200,317L201,319L199,318L197,319L192,317L189,318L191,318L189,319L190,321L191,320L197,321L198,321L193,321L194,322L193,324L192,321L188,323L189,323L188,324L192,326L189,326L193,329L199,328L200,327L200,328L203,327L202,328L205,328L209,331L210,330L210,328L211,328L210,326L212,326L214,322L213,324L211,327L216,330L217,330L216,332L220,330L222,331L223,330L221,327L222,324L223,324L227,322L222,327L223,330L228,329L222,331L223,333L220,331L217,332L219,337L218,340L218,338L217,336L214,337L217,335L216,332L211,329L207,333L207,332L206,332L206,331L204,330L200,329L199,331L199,329L197,329L197,330L195,330L194,332L189,329L187,331L189,331L188,335L188,332L187,332L188,336L191,337L192,335L194,335L195,336L192,336L190,338L192,341L192,343L190,340L186,336L185,336L188,339L189,343L187,341L189,345L193,343L194,341L196,340L196,341L197,341L195,348L194,349L192,349L190,346L188,347L189,349L186,350L187,352L186,353L188,353L187,355L189,355L188,356L189,358L194,351L195,351L192,355L193,354L193,355L194,355L191,357L192,358L195,356L193,359L195,360L193,361L194,363L195,362L196,358L199,355L201,355L202,353L201,352L203,352L202,349L204,352L210,349L208,351L209,351L215,347L213,350L216,350L211,351L209,353L206,362L207,356L209,352L207,351L204,353L199,357L200,360L202,359L202,360L198,361L197,364L194,365L191,367L193,367L194,369L196,367L196,369L196,370L200,368L202,368L201,368L197,371L195,370L193,371L192,372L194,373L193,373L192,374L192,372L189,372L188,376L186,376L189,370L187,374L186,372L183,376L184,381L185,379L185,383L186,379L187,383L189,380L188,383L192,382L192,380L189,380L191,378L192,379L193,376L194,378L198,379L193,379L193,382L195,380L195,381L197,380L200,374L199,378L201,377L204,377L199,378L198,381L195,382L194,383L198,384L196,384L197,385L199,384L202,384L197,386L194,389L196,389L192,390L191,391L194,393L193,394L193,396L196,393L203,393L195,394L194,397L196,398L194,398L191,394L189,394L188,396L189,393L186,391L186,392L187,394L186,393L186,395L184,399L186,406L190,409L191,411L199,417L201,415L200,416L201,418L203,417L198,421L201,423L200,421L201,419L201,421L202,421L202,419L203,421L205,421L202,422L204,422L203,423L205,422L204,424L207,423L205,425L207,424L214,426L216,425L220,425L222,422L222,421L223,423L222,424L223,424L228,420L230,420L231,418L237,413L237,411L239,411L242,409L240,409L242,408L240,407L244,407L246,406L246,405L244,404L244,403L247,403L247,402L249,402L251,401L249,396L250,396L250,398L251,397L252,399L253,402L256,401L256,399L258,399L257,400L259,400L259,397L260,400L260,397L260,399L262,393L263,394L264,392L263,390L264,388L260,384L263,385L263,381L261,379L263,380L263,385L265,385L266,383L265,380L265,375L268,374L269,375L268,379L268,375L266,379L267,387L266,388L267,392L268,392L267,395L268,394L269,396L270,396L270,397L271,396L272,398L274,396L274,398L277,400L278,405L281,405L284,395L283,384L286,381L286,376L290,376L296,370L296,363L298,360L294,342L300,341L303,332L300,326L297,325L293,320L296,303L294,294L295,290L294,284L296,282L294,273L297,267L296,264L305,252L311,249L321,252L324,247L323,238L317,234L326,219L329,212L331,198L330,188L336,187L341,183L340,177L352,160L352,155L349,149L349,146L352,145L354,142L356,134L362,128L369,131L372,124L371,114L374,113L376,115L381,115L391,119L394,114L391,113L394,109L395,104L394,101L391,98L397,97L398,95L402,97L402,95L401,91L404,89L407,89L416,102L417,105L425,105L426,107L432,103L432,101L433,100L442,103L445,106L447,103L447,98L449,95L452,95L453,91L451,85L451,70L453,69L455,62L459,61L462,62L464,60L466,56L469,55L476,62L484,64L487,70L484,78L484,82L486,84L487,83L489,80L489,75L494,71L496,69L496,65L494,63L502,65L503,64L502,60L500,56L499,57L499,56L497,57L497,61L496,61L496,56L494,56L494,55L493,56L495,61L493,60L492,62L492,59L489,61L488,64L489,58L488,56L486,56L486,58L485,58L487,54L477,53L478,52L476,52L477,50L475,50L476,50L482,51L491,50L494,44L499,41L496,37L495,38L491,35L488,36L486,36L488,36L489,34L487,33L487,32L486,31L483,35L483,31L479,35L479,31L475,28L472,29L471,39L472,41L472,43L471,41L470,44L471,52L471,54L470,55L471,53L469,45L470,41L469,44L468,43L469,42L467,43L466,44L466,43L469,38L468,35L463,40L467,35L464,34L463,35L463,34L468,33L467,32L469,32L469,27L466,27L465,24L464,26L464,25L462,26L461,26L460,24L459,26L460,29L459,28L456,28L458,30L456,30L457,32L459,31L460,33L461,34L458,34L459,36L457,37L457,40L459,41L457,41L457,42L458,45L455,45L453,49L453,41L450,41L453,38L452,32L451,31L442,52L444,53L442,59L440,60L440,58L439,61L438,56L440,53L439,52L440,51L440,48L438,48L440,48L439,46L438,47L444,35L442,35L440,37L440,34L438,33L439,37L438,38L437,35L436,37L434,36L436,35L435,33L435,35L433,36L433,34L431,34L431,36L433,37L432,37L432,40L429,37L428,40L433,42L434,44L430,43L428,48L429,48L431,50L426,49L423,54L422,55L424,55L421,57L423,57L421,59L422,59L421,60L422,61L420,62L424,64L423,67L422,65L420,67L419,61L417,62L411,65L417,62L418,59L412,58L411,61L414,62L411,62L411,58L409,58L409,59L409,57L407,58L407,57L406,59L407,62L403,57L403,61L402,59L400,61L401,62L403,62L403,64L406,65L409,63L406,66L410,66L409,68L409,67L408,68L409,71L408,72L410,73L410,75L405,70L404,67L402,66L401,69L402,70L401,70L401,73L400,71L399,74L398,72L399,69L396,72L397,74L393,75L394,79L398,83L394,81L392,87L389,91L393,80L392,78L393,72L391,69L390,73L390,70L389,76L388,73L387,77L387,80L390,81L386,80L386,86L384,87L385,85L386,75L381,76L378,81L379,83L381,82L381,84L379,83L379,85L380,88L383,89L384,93L382,93L382,91L381,92L383,90L379,88L377,83L373,84L373,86L379,91L376,90L376,92L374,89L374,93L373,88L372,88L371,85L370,86L369,89L368,93L369,93L370,95L365,97L362,103L365,102L367,103L363,105L366,107L366,108L363,106L360,108L365,111L361,109L359,110L360,112L357,109L353,112L354,115L352,115L353,118L356,117L358,115L359,116L359,118L364,115L363,117L368,119L362,118L365,120L361,118L361,120L363,124L362,126L362,123L359,119L356,121L357,120L355,119L349,120L353,123L356,127L353,123L349,122L348,123L351,124L349,125L352,124L354,126L352,125L352,126L350,127L350,128L353,127L355,129L352,128L351,129L353,132L351,131L352,134L350,131L349,131L350,134L352,135L353,137L350,135L349,132L347,130L348,126L347,123L345,128L343,129L343,128L344,128L343,126L339,130L340,131L342,129L342,130L346,129L345,130L348,131L347,131L345,134L344,133L342,133L342,136L342,134L338,136L338,135L336,134L334,136L337,136L333,137L334,138L336,138L336,139L337,139L333,139L334,140L332,141L334,142L338,140L340,137L340,135L340,137L344,137L343,138L345,141L342,139L340,139L343,141L339,140L338,143L341,143L341,144L338,144L339,146L346,145L342,147L344,152L343,153L340,147L338,147L337,149L338,146L336,147L334,147L336,147L336,144L337,145L336,144L332,147L333,148L336,148L333,150L333,149L331,149L328,154L332,153L332,155L334,154L333,153L337,152L336,154L339,154L339,155L340,154L344,155L344,156L340,155L341,159L340,157L337,155L335,157L335,158L334,157L335,155L331,155L330,156L332,157L332,158L332,157L329,157L329,158L329,156L328,156L327,159L330,160L330,161L327,159L326,162L325,162L324,159L323,163L322,163L323,161L318,163L320,166L323,168L318,167L318,168L320,168L318,168L318,170L322,169L320,171L314,170L318,172L314,171L316,172L314,173L314,175L317,173L319,173L320,173L317,174L319,176L317,175L314,176L314,177L315,178L314,178L312,175L311,175L313,177L311,182L314,182L315,181L315,180L317,182L313,183L311,186L318,183L318,184L320,183L322,183L325,182L323,184L320,185L320,184L319,185L318,186L321,186L321,187L319,187L317,188L317,184L309,187L307,189L311,189L310,191L312,193L313,196L309,192L306,193L305,196L307,197L306,197L305,198L307,202L305,202L306,201L304,199L302,203L303,205L304,204L304,206L305,203L305,207L307,208L305,208L306,210L303,208L304,210L305,211L306,211L303,210L300,214L302,213L306,214L301,214L303,215L301,217L303,217L309,212L305,217L299,220L299,221L296,219L294,221L290,222L290,224L291,223L291,224L289,223L287,224L292,223L287,225L289,226L286,228L295,222L297,222L299,223L297,222L293,224L292,225L293,226L292,226L294,227L290,228L291,229L288,229L289,234L291,232L291,233L293,233L289,234L288,237L291,236L288,237L285,241L287,238L285,237L282,232L282,236L280,235L280,236L278,236L280,237L280,239L277,236L278,238L276,237L278,239L276,239L276,240L275,239L275,241L272,242L274,244L271,244L270,246L271,247L269,246L267,251L270,250L267,252L270,251L271,251L265,253L266,253L262,256L265,256L262,257L261,259L268,256L268,257L269,257L268,257L265,258L266,264L267,265L273,263L280,258L282,255L280,253L275,256L284,250L285,248L287,247L285,250L288,251L284,252L283,255L287,255L287,257L285,258L283,259L281,259L277,262L276,264L280,262L279,263L280,264L277,265L279,267L278,268L271,266L268,266L267,268L270,269L270,270L270,272L270,270L267,269L264,269L266,267L263,260L260,261L261,262L261,263L260,262L259,263L259,262L256,263L256,265L257,265L257,264L258,265L260,264L256,265L256,267L260,267L254,270L255,267L254,264L252,266L249,265L248,266L250,267L246,269L247,272L252,272L247,272ZM314,228L316,230L317,231L312,231L314,228ZM209,290L213,292L213,291L209,290ZM202,292L201,291L201,292L202,292ZM202,292L204,293L204,292L202,292ZM208,290L205,292L205,295L209,293L208,290ZM205,294L202,293L201,295L202,295L200,295L201,296L204,296L205,294ZM194,301L192,300L192,303L193,303L194,301ZM189,305L190,306L190,307L195,306L190,304L189,305ZM188,310L189,311L189,309L188,310ZM187,325L187,326L186,324L186,327L185,326L185,329L186,327L186,329L188,328L187,325ZM183,327L182,328L183,330L184,329L183,327ZM186,334L184,332L186,335L186,334ZM183,342L183,340L183,343L183,342ZM194,342L194,343L190,345L192,349L195,348L196,342L194,342ZM185,344L187,348L186,349L188,347L185,344ZM185,355L185,351L184,347L184,351L185,351L183,352L185,355ZM187,359L186,358L186,360L186,358L185,360L186,361L187,359ZM193,360L188,362L190,365L192,365L193,360ZM187,363L186,362L186,365L188,369L189,366L187,363ZM185,367L183,365L184,366L182,368L184,368L183,370L183,373L184,369L186,369L185,371L186,370L185,367ZM184,384L182,379L182,383L181,383L181,385L182,387L184,384ZM193,386L195,386L196,385L194,384L193,386ZM185,384L184,385L185,387L186,386L185,384ZM190,389L187,388L190,390L190,389ZM314,127L313,129L310,136L313,134L313,131L314,132L313,130L315,128L314,127ZM311,177L309,178L309,179L310,180L311,177ZM309,182L307,184L308,185L309,184L309,182ZM306,188L305,187L306,186L305,184L304,186L305,186L302,188L304,188L302,190L306,188ZM306,192L306,190L303,194L304,195L309,191L306,192ZM297,199L294,202L296,203L298,200L297,199ZM304,209L301,204L300,207L301,206L301,207L299,209L298,214L300,213L300,211L304,209ZM299,215L298,215L298,217L297,219L299,219L300,218L299,215ZM294,217L291,217L290,219L292,219L294,217ZM285,221L281,222L280,224L281,224L285,221ZM284,225L285,225L287,224L285,222L281,224L285,223L284,225ZM285,230L285,231L287,233L287,230L285,230ZM288,232L287,233L288,234L289,234L288,232ZM284,231L283,232L286,233L284,234L285,235L288,236L288,234L287,234L284,231ZM268,249L266,248L267,249L268,249ZM247,257L251,257L252,253L244,257L248,257L247,257ZM256,259L255,258L254,259L256,259ZM256,261L254,260L253,258L252,259L248,259L250,261L246,261L244,264L246,265L255,262L256,261ZM245,269L244,271L243,269L244,272L247,272L245,269ZM238,271L239,273L241,272L241,270L238,271ZM242,270L241,272L243,272L242,270ZM270,398L269,398L269,399L270,398ZM271,399L271,401L273,399L271,399ZM374,69L377,68L376,66L375,68L374,66L374,69ZM379,76L374,73L376,79L374,75L373,77L371,76L371,78L374,78L370,79L371,81L372,80L371,82L368,81L368,83L370,84L376,82L376,79L379,76ZM368,88L367,84L366,86L366,82L365,84L364,82L364,85L362,82L364,86L361,84L361,86L359,85L360,87L363,87L360,88L362,89L356,89L356,90L358,89L359,91L356,91L359,93L356,94L356,95L359,94L358,96L355,97L355,98L359,98L358,100L359,100L363,94L363,96L368,94L367,93L368,92L367,90L369,89L369,87L368,88ZM342,101L345,100L347,96L348,91L342,97L341,104L342,101ZM362,98L362,101L364,98L362,98ZM351,101L350,102L353,104L353,102L351,101ZM334,103L334,104L335,104L336,103L334,103ZM360,105L359,103L360,107L362,104L360,103L360,105ZM357,105L356,107L356,109L359,107L357,105ZM329,110L329,112L331,112L332,110L333,111L334,109L335,110L336,109L336,108L337,108L338,110L334,111L334,113L336,113L340,111L339,107L340,105L338,106L339,104L338,104L337,100L336,102L338,106L336,105L336,107L335,105L335,108L334,107L332,108L332,106L332,109L331,106L330,108L331,109L329,110ZM343,102L342,105L343,106L341,106L341,108L343,108L344,110L342,109L341,110L343,112L341,112L341,114L340,113L338,114L338,115L339,116L338,117L340,117L338,118L336,123L342,117L342,116L343,117L339,120L343,122L345,116L345,120L348,115L352,114L353,106L352,106L349,104L350,105L348,106L349,109L347,109L348,112L347,110L345,112L345,114L344,115L347,108L346,107L344,109L346,102L343,102ZM335,116L336,114L331,114L333,116L335,116ZM351,115L349,115L348,120L351,118L351,115ZM333,123L338,117L335,118L333,120L333,118L332,120L332,118L331,119L331,120L329,120L330,122L328,121L327,123L328,124L327,125L327,126L331,124L333,121L333,123ZM325,121L325,122L327,123L327,121L325,121ZM334,122L333,124L334,124L335,123L334,122ZM324,121L322,123L320,122L319,123L320,124L318,125L318,127L320,126L318,129L319,130L319,127L321,129L321,127L322,127L322,126L326,125L326,123L324,123L324,121ZM317,129L316,128L315,129L316,131L317,130L318,127L317,126L317,129ZM345,130L341,131L346,131L345,130ZM338,132L338,130L338,132ZM338,133L337,132L337,131L335,133L337,134L338,133ZM329,148L327,148L326,150L328,149L329,148ZM326,158L324,157L324,159L325,159L326,161L327,156L326,158ZM444,31L443,30L444,27L442,28L442,27L439,27L441,29L441,30L439,29L437,30L438,32L440,31L439,32L440,34L442,33L442,32L445,32L446,29L444,31ZM433,30L431,31L432,32L433,30ZM426,35L427,34L424,33L424,34L425,35L424,35L426,37L428,35L426,35ZM428,45L423,42L423,44L425,49L428,45ZM413,51L413,49L415,50L416,49L416,48L418,48L418,44L419,45L421,42L419,39L419,42L417,41L418,43L416,44L416,46L415,44L413,43L415,46L414,48L412,44L411,46L410,45L411,47L409,46L409,47L406,47L407,47L407,49L410,48L409,52L410,50L410,51L412,51L412,50L413,51ZM424,51L422,46L420,46L422,48L420,48L420,51L419,49L419,50L416,52L417,53L416,53L418,55L419,53L419,57L422,55L421,55L424,51ZM417,56L415,54L415,56L414,54L412,55L413,56L412,55L411,56L412,57L418,58L417,56ZM404,56L404,58L405,59L405,56L404,56ZM493,58L489,55L489,60L493,58ZM389,65L386,62L386,64L384,60L383,61L386,67L389,65ZM379,61L377,65L379,66L380,64L379,61ZM396,66L396,61L393,61L392,63L392,66L393,66L394,65L394,67L396,66ZM396,63L396,65L397,66L396,63ZM382,64L381,65L383,66L383,65L382,64ZM398,67L399,66L398,66L398,67ZM396,67L397,70L399,67L398,68L396,67ZM405,69L406,68L405,69ZM385,69L383,67L382,69L380,66L378,67L378,69L376,69L377,70L375,71L379,76L382,74L383,70L385,69ZM386,69L383,71L382,74L385,73L386,69ZM394,71L394,73L395,74L396,71L394,71Z" data-iso="NOR"/></g><g class="" id="regions"><path d="M272,400L271,399L271,401L272,400ZM270,398L269,398L269,399L270,398ZM286,378L284,379L280,383L277,378L276,380L272,380L267,388L267,386L266,388L267,392L268,392L267,395L268,394L269,396L270,396L270,397L271,396L273,398L273,396L273,397L274,396L274,398L277,399L278,406L281,405L283,400L284,394L283,384L286,381L286,378Z" data-region="01" data-iso3="NOR" data-name="Østfold" data-p="OF"/><path d="M286,378L286,370L282,367L283,364L277,353L276,355L272,356L270,355L269,358L272,358L273,361L269,366L272,372L272,375L271,376L269,376L268,379L268,375L267,377L266,379L267,387L272,380L276,380L277,378L280,383L284,379L286,378Z" data-region="02" data-iso3="NOR" data-name="Akershus" data-p="AK"/><path d="M271,376L272,372L270,367L268,366L264,371L263,376L265,377L265,375L268,374L269,376L271,376Z" data-region="03" data-iso3="NOR" data-name="Oslo" data-p="OS"/><path d="M264,377L264,371L268,366L264,362L260,351L259,350L257,352L257,355L254,354L254,353L251,352L250,346L241,340L236,334L231,339L229,339L222,345L224,346L225,351L224,357L220,363L225,363L231,361L241,364L243,369L245,371L245,374L248,375L249,384L252,387L253,387L253,385L258,385L256,381L258,380L261,380L261,378L263,380L263,385L265,385L266,382L265,377L264,377Z" data-region="06" data-iso3="NOR" data-name="Buskerud" data-p="BU"/><path d="M260,380L256,381L258,385L253,386L254,394L253,402L256,401L256,399L258,399L257,400L259,400L259,397L260,400L260,397L260,399L262,393L263,394L264,392L263,390L264,388L260,384L263,385L263,381L260,380Z" data-region="07" data-iso3="NOR" data-name="Vestfold" data-p="VF"/><path d="M253,399L254,394L253,387L249,384L248,375L245,374L245,371L243,369L241,364L231,361L225,363L223,362L220,363L216,367L213,373L216,376L218,376L219,378L219,380L220,382L218,383L221,387L221,392L224,397L227,398L231,401L233,400L236,403L237,399L240,399L242,405L245,406L246,405L244,404L244,403L247,403L247,402L249,402L251,401L249,396L250,396L251,399L251,397L252,399L253,399Z" data-region="08" data-iso3="NOR" data-name="Telemark" data-p="TE"/><path d="M196,416L200,413L201,406L199,404L201,403L200,401L202,396L209,389L207,388L207,385L209,381L211,380L211,377L215,375L213,374L213,372L206,373L206,369L201,370L198,375L190,375L183,377L184,381L185,379L185,383L186,379L187,383L189,380L188,383L192,382L192,380L189,380L191,378L192,379L193,376L194,378L198,379L193,379L193,382L195,380L195,381L197,380L200,374L199,378L201,377L204,377L199,378L198,381L195,382L194,383L198,384L196,384L197,385L199,384L202,384L197,386L194,389L196,389L192,390L191,391L194,393L193,394L193,396L196,393L203,393L195,394L194,397L196,398L194,398L191,394L189,394L188,396L189,393L186,391L186,392L187,394L186,393L186,395L184,399L186,406L190,409L191,411L196,416ZM190,389L188,388L187,388L190,390L190,389ZM186,386L185,384L185,387L186,386ZM195,385L194,384L193,386L195,386L195,385ZM183,386L182,379L181,387L183,386Z" data-region="11" data-iso3="NOR" data-name="Rogaland" data-p="RO"/><path d="M205,294L202,293L201,295L202,295L200,295L201,296L204,296L205,294ZM209,293L208,290L206,291L205,295L209,293ZM202,292L204,293L204,292L204,291L202,292ZM201,292L202,292L201,291L201,292ZM213,291L211,290L209,290L210,291L213,291ZM199,301L200,303L205,303L208,304L209,303L211,304L216,302L218,306L230,303L232,300L236,301L238,297L251,297L254,292L250,286L257,284L258,280L260,278L259,277L259,273L256,272L255,274L251,274L250,272L247,272L247,274L242,273L243,274L242,275L241,273L242,276L245,277L243,277L243,278L246,277L246,278L247,278L244,279L247,283L244,281L245,282L242,281L243,278L240,276L240,274L238,274L237,276L238,276L240,278L240,282L245,286L245,288L244,286L240,283L239,279L238,277L234,279L235,277L234,277L231,279L228,275L225,276L223,277L227,281L224,281L223,283L233,282L230,283L228,285L238,284L239,286L235,285L230,286L230,288L229,287L229,289L234,289L231,290L230,291L225,286L224,289L224,286L222,286L222,288L220,285L218,286L217,287L217,286L214,285L212,288L216,288L215,289L218,290L212,290L214,291L220,290L222,294L221,294L221,295L226,297L227,299L226,297L224,298L222,297L221,302L223,301L224,302L221,302L220,301L222,297L220,294L220,292L218,291L216,292L216,294L215,292L214,292L215,299L214,301L215,299L212,293L207,295L207,296L208,297L206,297L208,300L212,302L207,301L206,299L204,302L206,297L202,297L203,300L200,296L198,298L201,299L201,300L199,301ZM222,283L219,283L219,285L222,284L222,283ZM222,279L221,279L221,280L222,282L222,279ZM234,276L233,273L232,275L230,274L230,276L232,278L234,276ZM237,274L235,273L234,275L236,276L237,274ZM241,272L240,270L238,271L239,273L241,272ZM243,272L242,270L241,270L242,272L243,272ZM247,272L245,269L244,271L243,269L244,272L247,272ZM247,272L251,272L252,267L250,265L248,265L249,268L246,269L247,272ZM239,266L238,266L241,267L242,265L241,263L237,264L239,266Z" data-region="15" data-iso3="NOR" data-name="Møre og Romsdal" data-p="MR"/><path d="M299,221L297,220L298,220L299,221ZM301,218L299,215L296,218L299,219L301,218ZM303,209L301,204L300,207L301,206L301,207L299,209L298,214L300,213L300,211L303,209ZM296,203L298,200L295,200L294,202L296,203ZM309,190L306,192L306,190L303,194L304,195L309,191L309,190ZM305,186L302,190L306,188L305,187L306,186L305,184L304,186L305,186ZM309,183L308,182L307,184L309,185L309,183ZM310,180L311,177L309,178L309,179L310,180ZM326,161L327,156L326,158L324,157L324,159L325,159L326,161ZM315,128L314,127L310,136L313,134L313,131L314,132L313,130L315,128ZM318,126L316,126L317,129L316,128L315,129L316,131L317,130L318,126ZM326,123L324,123L324,121L322,123L320,122L319,123L320,124L318,125L318,127L320,126L318,129L319,130L319,127L321,129L321,127L322,127L322,126L325,125L326,123ZM327,123L327,121L325,121L325,122L327,123ZM371,115L369,112L357,114L354,116L352,115L353,118L356,117L358,115L359,116L359,118L364,115L363,117L368,119L362,118L365,120L361,118L361,120L363,124L362,126L362,123L359,119L356,121L357,120L355,119L349,120L353,123L356,127L353,123L349,122L348,123L351,124L349,125L352,124L354,126L352,125L352,126L350,127L350,128L353,127L355,129L352,128L351,129L353,132L351,131L352,134L350,131L349,131L350,134L353,137L350,135L349,132L347,130L348,126L347,123L345,128L343,129L343,128L344,128L343,126L339,130L340,131L342,129L342,130L346,129L345,130L348,131L347,131L345,134L344,133L342,133L342,136L342,134L338,136L338,135L336,134L334,136L337,136L333,137L334,138L336,138L336,139L337,139L333,139L334,140L332,141L334,142L338,140L340,137L340,135L340,137L344,137L343,138L345,141L342,139L340,139L343,141L339,140L338,143L341,143L341,144L338,144L339,146L346,145L342,147L344,152L343,153L340,147L338,147L337,149L338,146L336,147L334,147L336,147L336,144L337,145L336,144L332,147L333,148L336,148L333,150L333,149L331,149L328,154L332,153L332,155L334,154L333,153L337,152L336,154L339,154L339,155L340,154L344,155L344,156L340,155L341,159L340,157L337,155L335,157L335,158L334,157L335,155L331,155L330,156L332,157L332,158L332,157L329,157L329,158L329,156L328,156L327,159L330,160L330,161L327,159L325,162L324,159L323,163L322,163L323,161L318,163L320,166L323,168L318,167L318,168L320,168L318,168L318,170L322,169L320,171L314,170L318,172L314,171L316,172L314,173L314,175L317,173L319,173L320,173L317,174L319,176L317,175L314,176L314,177L315,178L314,178L312,175L311,175L313,177L311,182L314,182L315,181L315,180L317,182L313,183L311,186L318,183L318,184L320,183L322,183L325,181L325,182L320,185L320,184L319,185L318,186L321,186L321,187L319,187L317,188L317,184L309,187L307,189L311,189L310,191L312,193L313,196L308,192L306,196L307,197L306,197L305,198L307,202L305,202L304,199L302,202L302,205L304,204L304,206L305,203L305,207L307,208L305,208L306,210L303,208L304,210L305,211L306,211L303,210L300,214L302,213L306,214L302,214L301,215L303,215L301,217L303,217L309,212L305,217L299,220L300,222L306,223L311,218L326,219L329,212L331,198L330,188L336,187L341,183L340,177L352,160L352,155L349,149L349,146L353,144L356,134L362,128L369,131L372,124L371,115ZM328,149L328,148L326,150L328,149ZM339,133L337,132L337,131L335,132L335,134L339,133ZM338,130L338,132L339,132L338,130ZM346,131L345,130L341,131L344,131L346,131ZM333,124L334,124L335,122L334,122L333,124ZM333,123L338,117L335,118L333,120L333,118L332,120L332,118L331,119L331,120L329,120L330,122L328,121L327,123L328,124L327,125L327,126L331,124L333,121L333,123ZM352,117L351,115L349,115L348,120L351,118L352,117ZM332,113L333,116L334,116L336,114L332,113ZM352,114L350,112L346,113L343,117L344,110L344,108L346,102L343,102L342,105L343,106L341,106L341,108L343,108L344,110L342,109L341,110L343,112L341,112L341,114L340,113L338,114L338,115L339,116L338,117L340,117L338,118L336,123L342,117L342,116L343,117L339,120L343,122L345,116L345,120L348,115L352,114ZM329,110L330,113L332,110L333,111L334,109L334,111L336,109L336,108L337,108L338,110L334,111L334,113L336,113L339,111L340,109L339,107L340,105L338,106L339,104L338,104L337,100L336,102L338,106L336,105L336,107L335,105L335,108L334,107L332,108L332,106L332,109L331,106L330,108L331,109L329,110ZM334,104L336,104L335,103L334,104ZM341,104L342,102L342,100L344,101L347,96L348,91L342,97L341,104Z" data-region="18" data-iso3="NOR" data-name="Nordland" data-p="NO"/><path d="M346,102L344,108L344,110L343,117L346,113L350,112L352,113L353,111L353,106L352,106L349,104L350,105L348,106L349,109L347,109L348,112L347,110L345,112L345,114L344,115L344,112L347,108L346,107L344,109L346,102ZM359,108L358,105L356,109L359,108ZM360,103L361,105L359,103L359,104L361,107L362,104L360,103ZM352,104L353,102L350,101L350,102L352,104ZM364,98L362,98L361,100L362,100L364,98ZM367,90L369,87L367,87L368,85L367,84L366,87L366,82L365,84L364,82L364,85L362,82L364,86L361,84L361,86L359,85L360,87L363,87L360,88L362,89L356,89L356,90L358,89L359,91L356,91L359,93L356,94L356,95L359,94L358,96L355,97L355,98L359,98L358,100L359,100L363,94L363,96L368,94L367,90ZM378,75L376,73L374,73L376,79L374,75L373,77L371,76L371,78L374,78L370,79L371,81L372,80L371,82L368,81L368,83L370,84L376,82L376,79L378,77L378,75ZM384,68L384,69L383,67L382,69L380,66L378,67L378,69L376,69L377,70L375,71L379,76L382,74L384,68ZM374,66L374,70L377,67L376,66L375,68L374,66ZM381,66L382,66L383,65L381,64L381,66ZM380,63L379,61L378,64L377,65L379,66L380,63ZM391,98L397,97L398,95L402,97L402,95L401,91L404,89L407,89L411,95L417,93L417,89L414,82L418,80L420,76L416,75L415,68L412,68L409,62L407,64L404,61L400,61L401,62L403,62L403,64L406,65L409,63L406,66L410,66L409,68L409,67L408,68L409,71L408,72L410,74L405,70L404,67L402,66L401,69L402,70L401,70L401,73L400,71L399,74L398,72L399,69L396,72L397,74L393,75L394,79L398,83L394,81L392,87L389,91L393,81L392,72L391,69L390,73L390,70L389,76L388,73L387,77L387,80L390,81L386,80L386,86L384,87L385,85L386,75L381,76L378,81L378,83L381,82L381,84L379,83L379,85L380,88L382,88L384,92L381,92L383,90L379,88L377,83L373,84L373,86L379,91L376,90L376,92L374,89L374,93L373,89L372,88L371,85L368,91L370,95L365,97L362,103L365,102L367,103L363,105L366,107L366,108L363,106L360,108L365,111L361,109L359,110L360,112L357,109L353,112L353,115L357,114L369,112L371,114L374,113L376,115L381,115L391,119L394,114L391,113L394,109L395,104L394,101L391,98ZM396,73L396,71L394,71L394,74L396,73ZM386,70L386,69L382,74L385,73L386,70ZM406,69L405,69L406,69ZM396,69L399,67L396,67L396,69ZM398,67L399,66L398,66L398,67ZM396,66L397,65L396,63L396,64L396,66ZM396,66L396,64L396,61L393,61L392,63L392,66L393,66L394,65L394,67L396,66ZM389,65L386,62L386,64L384,60L383,61L385,67L388,67L389,65Z" data-region="19" data-iso3="NOR" data-name="Troms" data-p="TR"/><path d="M493,57L489,55L489,60L490,60L493,57ZM485,82L486,84L488,83L489,75L495,71L496,65L494,63L502,65L503,64L502,60L500,56L499,57L499,56L497,57L497,61L496,61L496,56L494,56L494,55L493,56L495,61L493,60L492,62L492,59L489,61L488,64L489,58L488,56L486,56L486,58L485,58L487,54L477,53L478,52L476,52L477,50L475,50L476,50L482,51L491,50L494,44L499,41L498,39L496,37L495,38L491,35L488,36L486,36L488,36L489,34L487,33L487,32L486,31L483,35L483,33L482,31L479,35L479,31L475,28L472,29L471,39L472,41L472,43L471,41L470,44L471,52L471,54L470,55L471,53L469,45L470,41L469,44L468,43L469,42L467,43L466,44L466,43L469,38L468,35L463,40L467,35L464,34L463,35L463,34L465,33L467,33L467,32L469,32L468,30L469,29L469,27L466,27L465,24L462,26L461,26L460,24L459,26L460,29L459,28L456,28L458,30L456,30L456,31L458,32L459,31L460,33L461,34L458,34L459,36L457,38L459,41L457,41L456,42L458,45L455,45L453,49L453,41L450,41L453,38L452,32L451,31L442,52L444,53L442,59L440,60L439,58L440,61L438,60L438,56L440,53L439,52L440,51L440,48L438,48L440,48L439,46L438,47L444,35L444,34L443,36L442,35L440,37L440,34L438,33L438,38L437,35L436,37L434,36L436,35L435,33L435,35L433,36L433,34L431,34L433,37L432,37L432,40L429,37L428,38L429,41L431,41L434,44L430,43L428,48L429,48L431,50L426,49L423,54L422,55L424,55L421,57L423,57L421,59L422,59L421,60L422,61L420,62L424,64L423,67L422,65L420,67L419,61L417,62L411,65L417,62L418,59L412,58L411,61L414,62L411,62L411,58L409,58L409,59L408,57L406,59L407,62L403,57L403,61L402,59L400,61L404,61L407,64L409,62L412,68L415,68L416,75L420,76L418,80L414,82L417,89L417,93L411,95L416,102L417,105L425,105L426,107L432,103L432,101L433,100L442,103L445,106L447,103L447,98L449,95L452,95L453,91L451,85L451,70L453,69L455,62L459,61L462,62L464,60L466,56L469,55L476,62L484,64L487,70L484,78L485,82ZM418,58L415,54L415,56L414,54L412,55L413,56L411,56L412,57L415,58L418,58ZM405,58L404,55L405,59L405,58ZM423,52L422,46L420,46L422,48L420,48L420,51L420,49L419,49L419,50L417,50L416,53L418,55L419,53L419,56L420,57L423,52ZM428,46L426,43L423,42L423,47L424,49L426,48L428,46ZM410,51L413,51L413,49L415,50L416,49L416,48L418,48L418,44L419,45L421,42L419,39L419,42L417,41L418,43L416,44L416,46L415,44L413,43L415,46L414,48L412,44L411,46L410,45L411,47L409,46L409,47L406,47L407,49L410,48L409,52L410,50L410,51ZM427,35L426,35L427,34L426,33L424,34L425,35L424,35L426,37L427,35ZM446,29L444,31L443,30L444,27L442,28L442,27L440,27L439,27L441,29L441,30L439,29L437,31L440,31L439,32L440,34L442,33L442,32L445,32L446,29ZM432,32L431,30L431,31L432,32Z" data-region="20" data-iso3="NOR" data-name="Finnmark" data-p="FI"/><path d="M277,353L283,364L282,367L286,370L286,376L290,376L296,370L296,363L298,359L294,342L300,341L303,332L300,326L297,325L293,320L296,305L296,302L286,300L280,291L269,289L266,292L266,297L261,301L258,301L251,297L242,296L238,297L235,301L232,300L230,303L225,304L227,313L232,314L233,320L237,324L235,324L235,327L233,330L234,335L236,334L241,340L249,345L251,352L257,355L257,352L259,350L260,351L264,362L269,366L273,361L272,358L269,358L270,355L272,356L276,355L277,353Z" data-region="34" data-iso3="NOR" data-name="Innlandet" data-p="HE"/><path d="M224,424L228,420L230,420L231,418L237,414L237,411L239,411L242,409L240,409L242,408L240,407L244,407L245,406L242,405L240,399L237,399L236,403L233,400L231,401L227,398L224,397L221,392L221,387L218,383L220,382L219,380L219,378L218,376L214,375L211,377L211,380L209,381L207,385L207,388L209,389L202,396L200,401L201,403L199,404L201,406L200,413L196,416L200,417L200,415L201,415L200,416L201,418L203,417L198,421L201,423L200,421L201,419L201,421L202,421L202,419L203,421L205,421L202,422L204,422L203,423L205,422L204,424L207,423L205,425L207,424L214,426L216,425L220,425L222,422L222,421L222,424L224,424Z" data-region="42" data-iso3="NOR" data-name="Agder" data-p="AA"/><path d="M185,355L185,351L184,347L184,351L185,351L183,352L185,355ZM185,344L186,349L187,349L187,346L185,344ZM183,342L183,341L183,340L182,342L183,342ZM185,334L185,332L184,332L185,334ZM183,330L183,327L183,330ZM188,328L188,325L187,326L186,324L185,329L186,327L186,329L188,328ZM189,309L188,310L189,311L189,309ZM191,304L189,305L190,306L190,307L195,306L191,304ZM193,303L194,300L192,300L192,303L193,303ZM183,376L186,376L188,375L189,370L187,374L186,372L183,376ZM186,370L185,367L184,365L182,367L184,368L183,370L183,373L184,369L186,369L185,371L186,370ZM189,367L188,363L187,362L186,364L186,368L188,369L189,367ZM193,360L188,362L190,365L192,365L193,360ZM186,361L187,359L186,358L186,360L186,358L185,360L186,361ZM189,372L188,375L198,375L201,370L205,368L207,369L207,373L214,371L215,368L219,364L224,357L225,350L222,345L226,343L227,340L231,339L234,337L233,330L235,327L235,324L237,324L233,320L232,314L227,313L226,304L218,306L216,302L211,304L209,303L208,304L205,303L200,303L196,295L194,295L194,297L198,301L197,301L195,303L194,302L194,304L198,304L205,305L202,306L203,307L204,306L212,309L214,308L216,308L217,309L214,308L212,310L206,308L208,310L206,308L204,311L205,308L200,308L202,307L201,306L197,304L196,306L192,308L194,308L193,309L191,308L190,312L195,312L194,313L196,314L192,313L195,315L192,314L192,316L196,318L200,317L201,319L199,318L197,319L192,317L189,318L191,318L189,319L190,321L191,320L197,321L198,321L193,321L194,322L193,324L192,321L188,322L189,323L188,324L192,326L189,325L191,327L191,328L192,328L194,329L200,327L200,328L203,327L202,328L205,328L209,331L210,330L210,328L211,328L210,326L212,326L214,322L213,324L211,327L216,330L217,330L216,332L220,330L222,331L223,330L221,327L222,324L223,324L227,322L222,327L223,330L228,329L222,331L223,333L220,331L217,332L219,337L218,340L218,338L217,336L214,337L217,335L216,332L211,329L207,333L207,332L206,332L206,331L204,330L200,329L199,331L199,329L197,329L197,330L195,330L194,332L190,329L188,329L187,331L189,331L188,335L188,332L187,332L188,337L189,335L191,337L191,335L194,335L195,336L192,336L190,338L192,341L192,343L190,340L186,336L185,336L188,339L189,343L187,341L189,344L193,343L194,341L196,340L196,341L197,341L195,348L194,349L192,349L190,346L188,347L189,349L186,350L187,352L186,353L188,353L187,355L189,355L188,356L189,358L194,351L195,351L192,355L193,354L193,355L194,355L191,357L192,358L195,356L194,357L194,360L195,360L193,360L194,363L195,362L196,358L199,355L201,356L202,353L201,352L203,352L202,349L204,352L210,349L208,351L209,351L215,347L213,350L216,350L211,351L209,353L206,362L207,356L209,352L207,351L202,354L199,357L200,360L202,359L202,360L198,361L197,364L194,365L191,367L193,367L194,369L196,367L196,369L196,370L200,368L202,368L197,371L195,370L193,371L192,372L194,373L193,373L192,374L192,372L189,372ZM195,348L195,341L194,343L190,345L192,349L195,348Z" data-region="46" data-iso3="NOR" data-name="Vestland" data-p="HO"/><path d="M296,282L294,273L297,267L296,264L304,253L311,249L321,252L324,247L323,238L317,234L326,219L311,218L306,223L300,222L296,219L294,221L290,222L290,224L291,223L291,224L289,223L287,224L292,223L287,225L289,226L286,228L295,222L297,222L299,223L297,222L293,224L292,225L293,226L292,226L294,227L290,228L291,229L288,229L289,234L291,232L291,233L293,233L289,234L288,237L291,236L288,237L285,241L287,238L285,237L282,232L282,236L280,235L280,236L278,236L280,239L277,236L278,238L276,237L275,238L278,239L276,239L276,240L275,239L275,241L272,242L274,244L271,244L270,246L271,247L269,246L267,251L270,250L267,252L270,251L271,251L265,253L266,253L262,256L265,256L262,257L261,259L268,256L268,257L269,257L265,259L266,264L268,264L280,258L282,255L280,253L275,256L284,250L285,248L287,247L285,250L288,251L284,252L283,255L287,255L287,257L285,258L283,259L281,259L277,262L276,264L280,262L279,263L280,264L277,265L279,267L278,268L271,266L268,266L267,268L270,269L270,270L270,272L270,270L267,269L264,269L266,267L263,260L260,261L261,262L261,263L260,262L259,263L259,262L256,263L256,265L257,265L257,264L258,265L260,264L256,265L256,267L260,267L254,270L255,267L254,265L252,266L250,265L252,267L251,272L252,272L250,272L250,274L255,274L256,272L259,273L259,277L260,278L258,280L257,284L250,286L254,292L251,297L258,301L261,301L262,299L265,297L266,292L269,289L280,291L286,300L296,302L294,294L295,290L294,284L296,282ZM314,228L316,230L317,231L312,231L314,228ZM256,262L255,260L254,260L253,258L252,259L251,259L248,259L250,261L246,261L244,264L247,264L256,262ZM256,259L255,258L254,259L255,260L256,259ZM244,257L251,257L252,253L244,257ZM267,249L267,248L266,248L267,249ZM280,224L285,221L280,222L280,224ZM288,234L287,234L286,232L284,231L283,232L286,233L284,234L285,235L288,236L288,234ZM287,234L289,233L288,232L287,234ZM287,233L287,230L285,230L287,233ZM281,225L285,223L284,225L287,224L285,222L281,225ZM294,217L291,217L290,219L292,219L294,217Z" data-region="50" data-iso3="NOR" data-name="Trøndelag" data-p="NT"/><path d="M56,108L56,107L57,107L56,108ZM56,106L57,106L56,106ZM55,104L55,105L54,104L55,104ZM51,101L51,100L52,101L51,102L50,102L50,101L51,101ZM31,94L31,95L31,94ZM31,93L31,94L31,93ZM55,87L55,88L54,88L54,87L55,87L56,87L55,87ZM56,84L56,83L55,82L56,82L57,82L58,83L57,83L57,84L56,84ZM32,72L32,73L32,74L32,75L31,75L31,76L30,76L30,77L30,78L30,79L30,80L30,81L29,81L29,82L28,82L28,81L29,81L28,81L28,80L29,79L29,78L29,77L29,76L29,75L30,75L30,74L31,74L31,73L31,72L31,71L32,71L32,72ZM56,77L57,77L57,76L57,77L58,77L59,77L60,77L59,77L59,78L60,78L60,79L60,80L59,80L58,81L57,81L56,82L55,82L55,83L55,84L54,84L53,85L53,84L52,84L52,85L52,86L52,85L51,86L52,86L52,87L52,88L52,89L52,90L51,90L51,91L50,91L50,90L50,89L50,88L49,88L49,87L49,88L49,89L49,90L49,91L50,92L50,93L50,94L49,94L49,95L48,95L48,96L47,96L47,95L46,95L46,96L47,96L46,96L46,97L46,98L45,98L45,97L45,96L45,95L44,95L44,94L44,93L44,92L44,91L44,90L44,89L44,88L44,87L44,86L45,86L45,85L45,84L45,83L45,82L45,81L45,82L44,82L44,83L44,84L43,84L44,85L44,86L43,86L43,87L43,88L43,89L43,90L43,91L42,91L42,92L42,93L41,94L40,93L40,92L40,91L39,91L39,90L39,89L39,88L39,87L39,86L39,87L39,88L38,88L38,89L38,90L37,89L38,89L37,89L37,90L38,90L38,91L37,91L36,91L35,91L36,91L37,92L37,93L39,93L39,94L39,95L38,95L37,95L37,94L36,94L35,94L36,94L35,94L35,95L35,94L35,93L35,92L35,93L34,93L34,94L34,95L33,95L33,94L32,95L32,94L32,93L32,92L31,93L31,92L32,91L30,91L31,90L31,89L30,89L31,89L30,89L30,88L31,88L31,87L31,86L31,85L31,84L32,85L32,86L32,87L33,88L33,87L33,86L33,87L34,87L33,86L34,86L33,86L33,85L32,85L32,84L33,83L33,82L34,83L34,82L34,81L33,81L32,82L32,83L31,83L31,82L31,81L32,81L32,80L31,79L32,79L32,78L32,77L33,77L33,76L34,76L35,76L36,76L35,75L34,75L33,75L33,74L34,74L34,73L35,72L34,72L35,72L34,72L34,71L35,71L36,71L37,71L37,72L37,71L37,72L38,72L38,71L39,72L38,73L39,73L40,73L40,74L39,74L39,75L40,75L40,76L40,77L39,77L40,78L41,78L40,78L41,78L41,77L40,77L41,76L41,77L42,77L42,78L42,79L42,80L42,79L42,78L42,77L42,76L41,76L42,76L42,75L42,74L43,74L44,74L44,75L45,75L45,76L45,77L45,78L46,78L46,77L46,76L45,75L45,74L45,73L45,74L45,73L46,73L47,74L48,73L47,73L46,72L45,72L44,72L43,72L42,72L42,71L43,71L43,70L42,70L42,71L41,71L41,70L41,69L40,69L41,69L39,69L38,69L38,68L38,67L38,69L37,69L36,68L36,69L36,68L36,67L36,66L36,65L37,65L36,64L37,64L37,63L37,64L38,64L39,64L40,64L41,65L42,65L43,65L44,65L45,65L46,65L46,66L47,66L46,66L46,65L46,64L47,64L46,64L45,64L44,64L43,63L42,63L40,63L39,62L40,62L41,61L43,61L43,60L44,60L44,59L43,59L43,60L42,60L40,61L39,61L39,60L38,60L39,60L38,61L37,61L37,60L36,60L37,60L37,59L37,58L37,57L38,57L37,57L37,56L38,56L38,55L40,55L40,54L40,53L41,53L42,52L42,53L43,53L42,53L43,53L43,54L43,53L44,53L44,52L45,52L44,52L44,51L44,52L43,52L42,52L42,51L41,51L42,50L42,49L43,49L43,48L44,48L44,47L44,46L44,47L45,46L44,46L45,46L46,46L46,47L47,48L47,49L46,49L46,50L47,52L47,53L46,53L47,53L47,54L48,54L48,55L48,56L48,57L48,58L48,59L49,59L49,60L49,59L49,60L50,60L50,59L50,60L50,59L50,60L51,60L50,61L51,61L51,62L51,63L51,64L51,65L51,66L51,67L51,68L52,67L53,68L53,69L52,69L52,70L53,70L53,71L53,72L53,73L53,74L54,74L55,75L54,75L54,76L55,76L56,76L56,77ZM54,16L53,15L53,16L53,15L52,15L53,14L53,13L54,13L54,14L54,15L54,16ZM57,106L58,106L58,107L57,107L57,106ZM65,104L65,105L64,104L65,104ZM65,104L65,103L66,103L65,104ZM87,104L86,103L85,103L84,102L84,101L85,102L86,102L87,103L87,104L88,104L89,104L89,105L88,105L87,104ZM73,99L73,100L72,100L72,101L71,101L70,100L69,100L69,101L68,101L68,102L68,101L67,101L67,102L67,103L67,102L66,101L66,102L66,103L65,103L65,102L66,102L66,101L65,102L65,101L65,102L65,101L64,102L64,101L64,100L65,100L64,100L64,99L64,100L63,100L64,99L63,99L63,100L63,99L63,100L63,99L62,99L63,100L63,101L63,102L63,103L63,104L62,104L62,105L61,105L61,104L62,104L62,103L62,102L61,102L61,103L61,102L61,101L61,100L61,99L61,98L61,97L61,98L61,97L61,98L60,98L60,99L59,99L59,98L59,99L60,100L60,101L59,101L59,100L59,101L58,100L58,101L58,100L57,100L57,101L56,101L56,102L56,103L55,103L55,102L55,103L55,104L54,104L54,103L54,104L53,103L54,103L54,102L55,102L54,102L54,101L54,100L55,100L54,100L53,101L53,102L52,102L52,101L53,101L53,100L53,99L54,99L53,99L53,98L52,99L52,100L52,99L51,99L50,99L49,99L49,98L50,98L50,99L50,98L51,98L50,98L50,97L51,97L52,97L52,96L52,97L51,96L52,96L51,96L50,95L51,95L51,94L51,93L52,93L52,92L52,93L53,93L54,93L54,92L54,93L55,93L56,93L57,94L58,94L59,94L60,94L60,93L61,94L60,93L60,92L59,92L58,92L56,92L57,91L58,91L58,90L57,90L56,91L55,91L54,91L54,90L55,89L56,89L57,89L57,88L58,88L57,88L57,87L58,88L59,88L60,87L61,88L62,88L63,88L62,88L62,87L63,87L63,86L64,85L65,85L67,85L67,86L67,87L68,87L68,88L69,88L70,88L71,89L71,90L71,91L71,92L72,93L72,94L72,95L73,95L73,96L74,96L74,97L73,98L73,99ZM82,83L81,83L80,84L79,84L79,83L78,83L78,82L78,81L79,81L79,82L80,83L81,83L82,82L82,83L83,83L83,84L82,84L82,83ZM76,79L75,79L75,80L74,80L74,81L74,80L74,79L75,79L75,78L76,78L76,79ZM59,70L60,70L61,71L62,71L62,72L62,73L62,74L62,75L62,76L61,76L60,76L59,76L59,75L58,75L57,75L56,74L57,74L57,73L58,73L58,72L57,72L58,72L58,71L58,70L59,70ZM69,66L69,67L69,66L68,66L67,66L66,67L65,67L65,68L65,69L66,69L66,70L66,71L65,71L63,71L63,70L62,70L61,70L60,70L59,69L58,69L58,68L60,67L61,66L61,65L60,65L60,64L60,63L60,62L60,61L59,61L59,60L59,59L60,59L62,60L63,60L63,61L64,61L64,60L64,61L65,61L65,60L64,60L64,59L64,58L64,57L64,56L64,57L65,56L66,57L67,57L67,58L67,59L68,60L68,61L69,61L69,62L69,63L69,64L69,65L70,65L69,66ZM75,49L75,48L74,47L74,46L73,46L73,45L74,45L74,46L74,47L74,48L75,48L75,49Z" data-region="21" data-iso3="NOR" data-name="Svalbard" data-p="SV"/><path d="M102,205L100,203L101,198L102,193L103,188L101,185L69,168L67,168L63,171L61,171L51,167L48,163L45,162L32,143L30,142L28,141L26,139L26,137L24,134L23,132L21,130L19,129L16,129L14,131L14,132L15,135L15,136L12,143L11,146L14,148L16,148L17,148L18,149L21,154L23,155L24,156L25,158L26,159L27,160L34,162L38,164L41,168L42,169L42,170L42,171L46,174L55,176L56,177L56,178L56,179L57,180L59,180L60,181L60,182L63,190L64,191L65,193L66,195L69,205L71,208L75,213L86,215L87,216L89,219L89,220L91,221L97,220L101,222L102,222L104,220L106,216L106,211L105,207L102,205Z" data-region="18" data-iso3="NOR" data-name="Nordland" data-p="NO"/></g><g class="" id="insets" style="fill:none;stroke:#888;stroke-width:0.5"><path d="M4,6L113,6L113,115L4,115Z"/><path d="M4,121L113,121L113,230L4,230Z"/></g></svg>