<?xml version="1.0" encoding="UTF-8"?><!DOCTYPE svg  PUBLIC '-//W3C//DTD SVG 1.1//EN'  'http://www.w3.org/Graphics/SVG/1.1/DTD/svg11.dtd'><svg enable_background="new 0 0 450 451" height="451px" style="stroke-linejoin: round; stroke:#000; fill:#f6f3f0;" version="1.1" viewBox="0 0 450 451" width="450px" xmlns="http://www.w3.org/2000/svg" xmlns:xlink="http://www.w3.org/1999/xlink"><defs><style type="text/css"><![CDATA[path { fill-rule: evenodd; }
#context path { fill: #eee; stroke: #bbb; } ]]></style></defs><metadata><views><view h="451" padding="0.06" w="450"><proj id="laea" lat0="69.2875023465" lon0="20.6489817377"/><bbox h="171.18" w="158.39" x="894.14" y="967.21"/><llbbox lat0="-90" lat1="90" lon0="-180" lon1="180"/></view></views></metadata><g id="context"><path d="M294,385L292,384L293,386L294,385Z M279,380L279,378L277,381L279,380Z M284,375L279,379L281,384L285,383L289,378L284,375Z " data-iso="ALD"/><path d="M118,449L121,445L120,445L115,448L109,449L118,449Z " data-iso="DNK"/><path d="M322,449L323,445L327,443L333,440L337,436L340,435L334,431L328,430L323,432L322,434L319,435L316,435L318,438L316,442L321,446L319,449L322,449Z M341,432L340,429L337,428L336,430L341,432Z M333,423L333,418L330,418L325,419L319,420L325,423L327,428L329,427L331,424L333,423Z M416,396L414,398L405,398L393,396L390,396L379,395L375,395L374,399L365,399L360,402L356,402L353,405L351,405L352,408L342,411L343,418L342,420L343,423L344,431L347,433L348,438L356,440L359,436L361,437L360,445L359,449L366,449L368,448L372,446L379,449L418,449L409,421L410,416L414,410L416,402L419,399L416,396L416,396Z " data-iso="EST"/><path d="M314,382L313,380L312,381L314,382Z M319,374L318,377L320,380L323,381L322,377L323,376L319,374Z M317,375L316,373L313,373L317,375Z M308,369L304,369L305,371L308,369Z M303,282L302,283L306,283L306,281L303,282Z M352,223L350,221L350,224L352,223Z M391,88L390,87L389,83L393,73L390,67L386,66L377,59L375,56L368,62L362,62L358,67L355,74L354,81L354,93L353,96L349,99L347,105L344,106L343,105L334,101L331,104L324,106L323,105L316,104L314,100L306,86L302,86L300,89L300,93L295,93L295,94L298,96L298,98L301,101L311,111L320,115L324,119L325,123L327,123L331,139L330,144L333,145L333,157L338,165L336,173L334,179L338,186L341,197L343,197L347,199L349,201L356,205L358,207L358,218L360,222L359,227L354,226L349,230L346,239L342,243L332,260L325,267L322,268L320,273L318,275L319,279L316,281L308,283L310,288L307,288L307,291L303,296L302,302L303,308L305,311L304,322L306,324L309,338L308,338L308,345L306,352L307,366L310,369L313,367L321,373L326,374L324,385L327,385L331,379L333,382L336,386L334,392L336,390L341,386L350,385L355,383L368,377L369,376L375,372L376,374L381,372L380,367L384,369L388,364L389,362L389,369L396,366L397,364L404,365L408,363L409,362L417,350L421,346L429,335L434,326L445,306L450,297L450,272L448,270L436,262L430,257L434,245L433,238L427,235L424,229L426,226L425,222L418,219L417,215L419,212L417,205L417,200L418,194L420,194L420,190L417,182L411,172L405,162L402,158L401,154L409,134L407,127L400,118L391,115L389,110L389,93L385,93L390,89L391,88Z " data-iso="FIN"/><path d="M379,449L372,446L368,448L366,449L379,449Z " data-iso="LVA"/><path d="M47,345L47,343L45,348L46,349L47,345Z M51,320L52,318L50,317L49,320L51,320Z M114,260L114,256L110,257L114,260Z M121,251L126,250L121,249L121,251Z M166,219L165,216L164,215L160,219L166,219Z M188,188L191,185L188,186L188,188Z M187,184L189,183L189,179L186,184L187,184Z M202,126L204,120L200,127L202,126Z M214,115L210,115L205,122L214,118L215,117L214,115Z M232,94L230,92L230,96L227,99L224,98L223,104L231,105L233,103L232,94Z M237,107L240,102L239,92L243,86L243,85L241,84L235,93L236,97L233,105L229,110L223,111L218,115L218,118L223,118L227,115L230,115L231,113L233,115L239,113L240,111L246,106L247,103L245,98L241,104L237,107Z M259,75L256,79L257,82L254,81L253,85L253,90L251,92L255,93L257,90L264,88L266,82L259,75Z M296,60L295,55L292,59L293,60L296,60Z M280,61L279,55L278,55L275,64L271,70L270,70L268,74L266,74L268,77L274,74L275,72L280,69L283,62L280,61Z M285,56L285,60L289,59L285,56Z M327,44L321,47L320,50L326,49L327,44Z M331,44L332,41L327,39L329,45L331,44Z M325,36L322,36L320,39L309,42L318,45L321,43L325,36Z M141,406L144,410L146,407L149,399L148,389L160,378L163,374L166,363L166,360L164,349L164,345L170,345L174,335L173,332L165,322L169,306L169,304L168,294L171,281L169,271L173,265L173,262L182,251L190,248L200,252L203,247L203,237L198,233L205,222L212,211L214,200L215,195L215,184L220,184L226,181L228,180L228,174L239,159L242,153L239,144L243,140L248,130L255,123L262,128L264,124L265,117L265,112L268,109L273,111L287,116L290,112L287,110L291,103L291,100L289,95L293,94L295,94L295,93L300,93L300,89L302,86L306,86L314,100L316,104L323,105L324,106L331,104L334,101L343,105L344,106L347,105L349,99L353,96L354,93L354,81L355,74L358,67L362,62L368,62L375,56L377,59L386,66L390,67L393,73L389,83L390,87L391,88L393,87L395,79L402,73L402,67L407,69L409,69L410,65L409,60L407,60L404,61L404,63L401,63L397,64L394,56L385,54L384,52L397,52L400,51L402,48L407,45L406,41L395,32L393,35L388,33L384,29L382,29L379,38L379,41L377,50L376,39L376,36L372,36L377,30L376,26L374,24L368,23L365,27L365,30L368,32L365,35L363,43L359,47L359,32L358,29L352,40L347,50L347,53L345,57L343,54L344,51L345,43L349,34L344,34L341,31L337,29L334,37L335,38L332,46L328,49L324,56L324,59L325,62L321,59L319,51L317,50L307,55L303,55L306,60L310,68L305,65L304,62L302,63L301,66L295,66L294,68L296,78L293,78L290,83L288,84L291,78L292,67L291,65L287,69L283,81L285,70L284,69L279,71L272,79L274,85L269,81L267,81L266,84L266,90L261,91L254,104L251,104L246,109L247,111L254,112L257,111L256,113L253,115L247,113L244,113L242,121L242,130L240,125L240,119L233,122L231,125L234,126L231,128L230,126L224,130L224,132L226,135L230,132L228,136L232,146L227,139L225,138L219,148L222,148L229,151L221,150L217,152L216,151L212,153L209,156L206,158L208,162L205,162L200,166L197,172L197,179L208,177L209,178L204,181L200,181L192,183L194,186L184,197L180,205L180,208L185,211L188,209L188,211L184,214L181,214L180,211L170,216L167,221L166,223L171,222L169,224L159,230L155,232L149,239L145,241L137,252L140,253L140,256L143,260L147,259L156,254L158,251L157,249L159,247L165,247L160,250L163,253L156,256L152,260L150,263L146,262L141,264L138,255L133,256L129,259L126,252L119,255L121,259L120,262L116,262L113,266L118,276L118,277L112,268L105,266L101,268L96,269L90,276L98,276L100,278L109,278L110,279L105,279L101,281L103,283L100,283L97,281L90,278L84,277L79,282L79,283L88,283L85,285L80,285L73,283L69,284L66,288L63,287L61,291L63,295L66,295L75,301L79,302L80,303L73,302L65,297L58,295L56,301L60,309L55,310L54,311L54,318L57,321L62,321L69,322L73,324L77,321L82,325L86,326L89,322L91,327L83,328L80,325L67,323L59,323L53,321L52,322L50,333L52,338L57,337L50,340L49,346L51,351L55,353L47,354L47,356L44,360L43,366L50,362L52,360L58,356L59,353L64,348L68,347L76,346L72,349L69,356L71,349L70,348L67,349L63,352L59,357L55,360L55,364L53,368L50,367L46,367L40,379L40,381L45,381L47,379L52,378L60,374L53,380L51,388L53,392L49,391L46,388L45,389L42,400L44,404L48,410L53,414L58,417L55,421L58,422L59,420L62,424L65,424L70,426L77,426L80,424L82,425L89,421L97,414L107,408L105,406L114,402L115,404L122,402L126,396L127,388L131,386L130,391L132,400L141,405L141,406Z M347,24L344,28L347,30L351,29L350,25L347,24Z " data-iso="NOR"/><path d="M415,361L420,357L421,357L422,362L420,361L423,366L426,367L430,371L435,371L441,369L449,376L449,379L441,377L433,377L429,384L423,383L421,388L416,386L415,388L417,393L416,396L419,399L416,402L414,410L410,416L409,421L418,449L450,449L450,297L445,306L434,326L429,335L421,346L417,350L409,362L415,361Z M409,60L410,65L409,69L407,69L402,67L402,73L395,79L393,87L391,88L390,89L385,93L389,93L389,110L391,115L400,118L407,127L409,134L401,154L402,158L405,162L411,172L417,182L420,190L420,194L418,194L417,200L417,205L419,212L417,215L418,219L425,222L426,226L424,229L427,235L433,238L434,245L430,257L436,262L448,270L450,272L450,153L444,148L444,146L435,142L442,141L449,142L450,146L450,68L442,70L441,76L440,75L440,66L430,66L427,67L424,61L432,62L427,56L420,53L418,61L411,61L409,60Z " data-iso="RUS"/><path d="M261,403L263,401L262,400L261,403Z M341,197L338,186L334,179L336,173L338,165L333,157L333,145L330,144L331,139L327,123L325,123L324,119L320,115L311,111L301,101L298,98L298,96L295,94L293,94L289,95L291,100L291,103L287,110L290,112L287,116L273,111L268,109L265,112L265,117L264,124L262,128L255,123L248,130L243,140L239,144L242,153L239,159L228,174L228,180L226,181L220,184L215,184L215,195L214,200L212,211L205,222L198,233L203,237L203,247L200,252L190,248L182,251L173,262L173,265L169,271L171,281L168,294L169,304L169,306L165,322L173,332L174,335L170,345L164,345L164,349L166,360L166,363L163,374L160,378L148,389L149,399L146,407L144,410L141,406L139,404L138,404L137,409L136,424L138,428L137,435L139,439L141,441L141,449L227,449L227,443L229,442L227,435L232,433L222,427L233,428L239,424L241,422L252,416L257,412L258,409L261,407L260,405L253,408L251,407L249,409L239,408L237,406L233,402L221,401L226,400L228,397L231,399L232,398L236,399L241,401L241,398L246,400L248,400L247,404L251,406L258,402L266,395L268,392L267,388L265,383L262,382L261,378L253,369L252,366L247,368L241,362L241,344L241,342L242,329L246,331L245,325L247,315L248,314L246,310L246,304L253,305L256,302L254,293L258,296L263,292L266,283L268,281L271,281L274,278L276,274L278,276L278,273L289,268L297,261L300,251L307,242L302,231L302,229L308,221L308,216L307,211L312,209L312,208L314,205L316,205L318,197L320,199L323,196L325,199L332,198L338,198L341,197Z M185,410L185,411L185,412L184,413L183,417L180,421L178,422L173,423L172,424L169,427L168,426L168,424L168,424L166,423L165,424L163,426L162,427L157,430L157,429L154,429L153,429L154,427L157,425L159,422L159,421L158,421L158,419L158,417L158,417L158,412L159,415L159,416L160,415L160,414L163,409L163,408L165,408L165,408L168,410L168,413L170,414L171,414L171,413L171,408L170,405L170,402L171,400L172,401L173,401L173,400L178,400L181,400L181,402L182,401L184,402L185,405L185,406L183,410L183,410L185,410Z " data-iso="SWE"/></g><g fill="red" fill-opacity="0.35" id="regions"><path d="M178,215L178,216L178,216L179,216L179,216L179,215L179,215L178,214L178,215Z M181,212L179,211L178,214L181,214L181,212Z M184,201L183,198L179,208L181,209L181,206L183,206L185,205L184,201Z M179,194L178,194L177,197L179,194Z M191,187L189,185L188,186L187,189L191,187Z M190,180L185,184L190,183L190,180Z M193,176L194,178L194,177L193,176Z M214,152L215,150L211,153L213,156L214,152Z M217,142L217,142L217,143L217,142Z M228,125L226,125L226,126L228,125Z M204,120L202,121L200,126L200,128L204,124L204,120Z M207,121L208,118L206,118L207,121Z M212,114L211,114L209,116L210,118L209,119L209,121L214,117L216,118L217,115L212,114Z M230,111L225,110L224,112L221,113L221,115L217,119L221,118L225,114L227,114L230,111Z M244,112L245,109L243,109L241,113L244,112Z M266,110L264,107L256,108L250,108L247,109L246,108L246,112L248,112L251,110L252,112L259,112L260,114L255,114L254,116L255,118L246,118L241,116L241,119L245,119L243,122L245,125L243,126L244,128L242,128L239,125L239,118L239,118L237,122L232,121L231,124L234,123L239,125L238,127L226,128L224,129L227,129L223,131L227,133L231,131L235,134L229,134L228,137L231,139L228,139L228,140L236,139L236,140L231,144L230,142L225,141L223,140L224,142L220,143L216,148L219,149L226,147L227,149L229,152L225,150L224,153L223,150L219,150L220,151L216,151L216,154L209,157L206,157L206,160L210,162L205,161L209,164L206,165L201,163L202,166L200,167L200,169L206,167L200,172L198,169L198,174L196,175L199,177L201,176L202,177L196,180L196,181L207,179L211,177L206,182L203,182L202,183L202,179L199,180L193,182L191,183L195,184L194,187L190,188L184,197L185,200L187,199L188,206L185,204L184,207L182,208L185,211L184,213L187,213L184,214L181,215L180,217L180,217L188,219L189,219L195,215L208,216L209,217L209,216L210,213L212,211L214,198L215,194L222,184L228,181L228,175L231,170L236,161L241,157L242,152L240,142L243,141L245,137L248,129L253,125L255,123L262,128L265,121L265,114L266,110L266,110Z M229,96L227,96L228,96L229,96Z M240,94L237,94L236,97L234,99L234,104L236,105L234,105L234,107L232,107L232,109L230,111L228,114L227,116L230,113L235,115L236,113L238,114L246,107L246,107L243,105L240,106L236,109L237,101L240,95L240,94Z M232,95L231,92L230,93L231,98L228,99L225,98L222,104L224,104L225,101L227,103L231,100L229,106L232,104L234,97L232,98L232,95Z M239,92L243,83L241,84L235,92L235,96L239,92Z " data-fips="JN00" data-fips-="NO09" data-iso3="NOR" data-name="Nordland" data-p="NO"/><path d="M253,102L253,99L250,103L253,102Z M255,99L253,97L255,101L258,99L256,97L255,99Z M240,95L237,101L236,109L240,106L243,105L246,107L246,107L247,103L245,98L242,99L241,105L238,106L238,102L240,97L240,95L240,95Z M246,95L244,95L246,97L247,97L246,95Z M257,95L259,91L258,92L257,95Z M262,77L256,78L258,82L255,81L252,87L255,88L251,92L255,93L259,88L259,89L264,89L266,83L264,76L262,77Z M275,67L271,72L269,72L270,74L268,76L266,74L265,76L268,78L273,77L274,74L276,71L276,68L275,67Z M295,69L294,68L294,69L295,69Z M307,65L307,64L306,65L307,65Z M284,68L286,63L282,67L284,68Z M298,63L297,65L297,65L298,63Z M279,60L274,64L278,70L282,66L284,63L279,60Z M275,61L274,59L274,63L276,60L275,61Z M301,56L304,57L304,60L308,62L311,62L309,67L311,69L305,65L305,63L301,64L302,65L299,69L298,68L300,65L297,67L297,68L295,70L294,76L297,79L293,78L291,83L288,84L291,79L292,67L291,64L287,71L286,75L285,75L284,81L284,73L285,70L280,70L276,75L276,79L281,84L280,84L275,80L275,78L272,77L270,80L276,86L271,83L270,85L270,82L265,85L265,89L260,91L257,98L261,97L260,101L256,101L258,104L247,106L247,109L247,109L250,108L256,108L264,107L266,110L269,109L272,111L276,111L286,116L289,108L290,106L295,94L300,94L301,92L299,89L300,88L303,86L307,87L310,93L316,92L317,88L314,80L319,78L321,74L317,72L315,65L314,64L311,58L309,59L301,56L301,56Z M296,59L296,55L292,58L292,60L297,61L296,59Z M279,55L278,59L279,58L279,55Z M285,55L283,55L285,57L286,61L288,61L288,58L285,55Z " data-fips="NO18" data-fips-="" data-iso3="NOR" data-name="Troms" data-p="TR"/><path d="M72,285L70,285L71,288L72,288L72,285Z M73,283L72,283L73,283L73,283Z M70,283L70,282L69,283L70,283Z M78,285L76,282L74,283L74,287L78,285Z M80,282L78,282L79,284L80,282Z M92,271L91,272L93,274L94,272L92,271Z M109,268L107,267L107,269L109,268Z M106,269L106,266L102,267L103,271L106,269Z M120,267L120,268L114,266L114,267L115,272L120,273L114,275L112,268L110,269L113,274L111,272L106,270L102,271L99,268L93,270L93,276L99,277L99,278L110,278L110,281L106,278L103,279L99,280L100,284L98,281L92,278L91,280L90,278L87,279L86,278L82,278L82,280L86,280L87,282L84,281L82,282L84,284L88,283L90,284L91,287L90,289L92,290L89,295L90,285L83,285L82,287L81,285L76,287L76,292L73,289L70,290L67,288L66,290L68,291L66,293L66,293L67,295L73,295L75,297L78,297L84,295L86,299L91,298L94,298L95,298L98,298L101,295L104,296L108,292L112,291L116,292L121,293L122,293L124,292L125,288L122,282L122,281L130,280L133,274L132,268L129,268L124,269L124,266L120,267Z M116,266L116,265L114,265L116,266Z M114,266L113,263L111,264L111,266L114,266Z M119,264L116,263L115,264L117,267L119,266L119,264Z M124,259L122,260L122,262L119,263L121,266L124,266L125,263L125,262L124,259L124,259Z M114,260L115,256L110,258L114,260Z " data-fips="NO08" data-fips-="" data-iso3="NOR" data-name="Møre og Romsdal" data-p="MR"/><path d="M124,259L125,262L125,263L124,266L125,266L124,266L124,269L129,268L132,268L133,274L130,280L122,281L122,282L125,288L124,292L122,293L124,295L127,297L128,297L129,298L132,298L133,297L138,294L139,287L142,286L148,288L151,287L161,300L162,300L168,302L169,302L169,301L168,294L169,283L171,281L170,274L164,274L162,269L154,266L154,264L153,264L149,263L146,262L144,267L141,264L138,265L141,262L139,259L138,255L132,257L132,259L129,261L133,262L128,264L129,260L128,259L124,259L124,259Z M128,252L122,253L123,254L118,255L118,258L125,257L129,257L129,254L128,252Z M130,253L128,253L129,254L130,253Z M126,247L126,248L118,250L126,250L126,247Z M145,259L150,254L151,252L155,247L158,243L157,240L159,237L155,233L155,233L153,236L150,237L144,245L144,246L141,247L137,250L137,254L144,251L145,252L141,253L140,257L141,259L142,260L145,259L145,259Z " data-fips="NO16" data-fips-="" data-iso3="NOR" data-name="Sør-Trøndelag" data-p="ST"/><path d="M77,373L76,373L72,375L68,381L67,387L69,387L70,387L72,389L70,393L71,395L68,399L74,399L77,401L78,404L74,412L76,413L82,418L83,425L83,424L88,422L90,420L98,414L98,413L103,411L102,410L106,409L106,408L103,407L101,400L98,401L96,404L94,401L92,401L87,398L85,398L82,391L82,386L80,383L81,379L80,374L77,373L77,373Z " data-fips="NO02" data-fips-="" data-iso3="NOR" data-name="Aust-Agder" data-p="AA"/><path d="M43,372L45,371L45,371L46,371L46,371L48,370L49,365L43,371L43,372Z M46,361L45,359L44,362L45,363L43,365L46,364L46,361Z M50,363L50,358L47,358L47,363L50,363Z M54,355L49,357L51,360L54,355Z M48,352L48,352L48,352L48,352Z M48,352L48,354L47,355L48,352Z M48,345L45,345L47,349L47,346L48,345Z M48,338L48,339L50,341L48,338Z M58,342L59,335L57,337L53,339L55,343L58,342Z M52,329L55,331L53,332L55,334L55,335L51,332L50,334L53,338L60,333L59,340L56,344L54,342L52,339L51,340L51,343L48,346L50,348L49,349L52,351L57,346L54,349L56,351L56,353L58,355L58,353L62,350L64,351L64,348L71,346L73,347L79,343L78,346L70,352L72,348L66,350L62,352L63,355L53,362L55,365L57,366L60,365L58,367L56,366L49,370L49,370L59,371L62,366L69,366L68,370L74,369L75,369L76,368L77,365L78,364L82,362L83,360L84,360L88,353L89,347L89,343L87,342L80,338L77,330L74,331L74,330L70,331L68,326L64,327L61,326L56,327L56,326L52,329L52,329Z " data-fips="NO07" data-fips-="" data-iso3="NOR" data-name="Hordaland" data-p="HO"/><path d="M47,384L49,386L49,385L47,384Z M44,383L44,380L44,381L44,383Z M54,383L56,382L53,381L54,383Z M43,378L40,378L40,381L43,378Z M48,371L48,371L46,372L46,371L45,371L45,371L43,372L42,372L46,375L45,378L52,377L51,375L53,373L54,376L53,378L58,376L60,374L63,374L59,375L55,378L57,382L53,386L52,386L52,393L54,391L58,390L63,390L54,392L52,394L50,391L48,391L45,387L45,391L44,389L43,394L41,396L43,403L53,414L53,414L56,413L58,411L58,408L57,402L59,402L59,399L61,394L65,391L68,387L69,387L67,387L68,381L72,375L76,373L77,373L75,372L75,371L75,371L75,370L75,369L74,369L68,370L69,366L62,366L59,371L49,370L48,371Z " data-fips="NO14" data-fips-="NO07" data-iso3="NOR" data-name="Rogaland" data-p="RO"/><path d="M48,325L49,327L49,325L48,325Z M48,321L47,320L46,320L48,321Z M51,318L51,316L49,318L49,321L52,320L51,318Z M58,295L55,296L58,298L60,297L58,295Z M60,292L59,294L60,294L60,292Z M52,329L56,326L56,327L61,326L64,327L68,326L70,331L74,330L74,331L77,330L80,338L87,342L89,340L92,337L95,336L100,334L101,332L101,331L100,326L101,325L104,318L101,316L100,310L94,307L95,301L94,299L94,298L91,298L86,299L84,295L78,297L75,297L73,295L67,295L66,293L66,293L63,286L62,288L65,292L60,295L68,297L73,298L69,298L70,299L74,301L83,301L85,303L78,303L77,302L74,303L72,300L69,299L66,297L63,298L59,300L57,300L56,303L60,304L61,306L58,305L61,307L58,306L59,309L62,311L57,310L57,313L61,313L59,316L58,314L53,315L55,321L59,322L63,321L69,321L73,325L75,324L77,320L79,320L77,322L80,324L82,327L88,322L89,319L94,317L90,320L89,322L89,325L94,326L84,327L83,332L80,332L82,331L82,328L80,325L78,324L73,326L71,326L69,323L65,323L60,323L58,324L53,321L51,329L52,329Z " data-fips="NO15" data-fips-="" data-iso3="NOR" data-name="Sogn og Fjordane" data-p="SF"/><path d="M69,387L68,387L65,391L61,394L59,399L59,402L57,402L58,408L58,411L56,413L53,414L55,415L61,416L56,422L58,422L59,419L62,421L61,423L64,423L62,424L62,425L66,424L68,426L71,427L78,426L81,426L83,425L83,425L82,418L76,413L74,412L78,404L77,401L74,399L68,399L71,395L70,393L72,389L70,387L69,387Z " data-fips="NO19" data-fips-="" data-iso3="NOR" data-name="Vest-Agder" data-p="VA"/><path d="M145,355L143,357L136,359L138,360L139,363L135,368L135,368L135,369L138,375L137,378L134,379L134,379L132,379L131,386L131,390L131,390L137,383L141,384L143,382L146,387L152,383L152,382L152,382L152,380L152,380L153,375L150,371L150,367L148,364L145,355L145,355Z " data-fips="NO01" data-fips-="" data-iso3="NOR" data-name="Akershus" data-p="AK"/><path d="M133,367L130,365L127,351L126,350L123,355L117,351L116,344L107,338L102,331L101,332L100,334L95,336L92,337L89,340L87,342L89,343L89,347L88,353L84,360L83,360L86,360L90,361L95,360L105,363L107,365L107,367L112,376L112,386L115,388L116,389L116,388L120,388L126,382L126,382L125,381L126,381L127,382L127,382L128,382L128,385L128,386L127,387L130,387L131,385L129,382L130,380L130,379L129,375L130,372L132,370L134,368L133,367Z " data-fips="NO04" data-fips-="" data-iso3="NOR" data-name="Buskerud" data-p="BU"/><path d="M132,298L130,300L130,302L132,306L130,310L134,313L133,316L138,319L141,318L141,326L143,333L136,340L137,342L139,345L139,348L143,352L144,355L145,355L148,364L150,367L150,371L153,375L152,380L153,380L157,380L159,379L164,371L164,369L166,364L165,357L164,353L163,346L164,345L167,344L173,340L174,335L168,327L165,322L170,304L169,302L169,302L168,302L162,300L161,300L151,287L148,288L142,286L139,287L138,294L133,297L132,298Z " data-fips="NO06" data-fips-="" data-iso3="NOR" data-name="Hedmark" data-p="HE"/><path d="M121,293L116,292L112,291L108,292L104,296L101,295L98,298L95,298L94,298L94,299L95,301L94,307L100,310L101,316L104,318L101,325L100,326L101,331L101,332L102,331L107,338L116,344L117,351L123,355L126,350L127,351L130,365L133,367L134,368L135,368L135,368L139,363L138,360L136,359L143,357L145,355L144,355L143,352L139,348L139,345L137,342L136,340L143,333L141,326L141,318L138,319L133,316L134,313L130,310L132,306L130,302L130,300L132,298L129,298L128,297L127,297L124,295L122,293L121,293Z " data-fips="NO11" data-fips-="" data-iso3="NOR" data-name="Oppland" data-p="OP"/><path d="M135,368L134,368L132,370L130,372L129,375L130,379L130,379L131,377L133,376L134,378L134,379L137,378L138,375L135,369L135,368Z " data-fips="NO12" data-fips-="" data-iso3="NOR" data-name="Oslo" data-p="OS"/><path d="M115,388L112,386L112,376L107,367L107,365L105,363L95,360L90,361L86,360L83,360L82,362L78,364L77,365L76,368L75,369L75,370L75,371L75,371L75,372L77,373L77,373L80,374L81,379L80,383L82,386L82,391L85,398L87,398L92,401L94,401L96,404L98,401L101,400L103,407L106,408L106,408L108,407L105,407L112,404L112,401L115,402L115,402L116,397L117,394L116,391L116,389L115,388Z " data-fips="NO17" data-fips-="" data-iso3="NOR" data-name="Telemark" data-p="TE"/><path d="M116,389L116,391L117,394L116,397L115,402L115,403L117,405L125,396L126,397L128,395L127,394L127,391L126,390L125,386L127,387L127,383L126,382L120,388L116,388L116,389Z M128,383L128,383L128,386L128,386L128,385L128,382L127,382L128,383Z " data-fips="NO20" data-fips-="" data-iso3="NOR" data-name="Vestfold" data-p="VF"/><path d="M135,404L134,406L135,406L135,404Z M132,402L132,403L133,404L132,402Z M152,383L146,387L143,382L141,384L137,383L131,390L131,390L130,391L130,395L132,396L131,399L133,401L134,400L141,407L142,411L145,410L147,405L149,399L148,390L151,387L152,383L152,383Z " data-fips="NO13" data-fips-="" data-iso3="NOR" data-name="Østfold" data-p="OF"/><path d="M165,227L163,226L162,227L164,228L165,232L167,231L165,230L165,227Z M166,226L164,225L164,226L166,226Z M160,218L165,215L160,217L160,218Z M180,217L179,217L179,217L179,216L179,216L178,216L178,216L178,215L178,215L174,216L170,220L166,220L168,221L171,221L178,217L180,219L171,221L174,223L167,225L167,227L169,229L165,233L162,228L159,231L159,230L156,232L158,234L155,232L155,233L159,237L157,240L158,243L155,247L151,252L150,254L145,259L145,259L148,259L157,254L159,251L153,251L158,248L161,247L163,244L164,246L159,251L164,252L164,254L156,256L152,260L154,264L154,264L154,266L162,269L164,274L170,274L169,271L173,265L175,260L178,256L187,248L190,248L200,252L204,238L204,237L198,233L209,218L209,217L208,216L195,215L189,219L188,219L180,217L180,217Z " data-fips="NO10" data-fips-="" data-iso3="NOR" data-name="Nord-Trøndelag" data-p="NT"/><path d="M399,60L397,58L397,62L399,60Z M307,54L307,52L307,50L307,54Z M317,50L314,51L315,53L321,54L320,52L317,50Z M326,42L323,47L322,46L321,51L322,49L323,53L324,51L327,49L327,46L326,42Z M329,39L327,38L327,43L329,45L332,43L329,39Z M324,35L324,36L321,36L321,39L320,41L318,38L317,39L317,43L315,40L314,40L310,43L313,43L312,44L315,46L317,44L318,45L321,43L322,40L325,36L324,35Z M338,26L337,28L338,28L338,26Z M301,56L309,59L311,58L314,64L315,65L317,72L321,74L319,78L314,80L317,88L316,92L310,93L311,95L315,101L315,104L321,105L328,105L331,104L332,100L333,100L343,105L345,108L348,105L348,102L350,97L353,97L355,93L354,91L354,83L355,74L355,70L357,69L360,63L369,61L372,57L374,56L381,64L391,70L392,76L389,82L389,86L391,88L394,84L394,78L401,74L406,69L410,69L410,64L404,60L404,61L400,59L401,62L399,65L400,62L396,64L394,67L396,62L395,58L392,60L395,57L388,55L387,55L383,51L389,52L399,52L403,46L408,44L406,39L405,40L402,37L400,36L397,38L399,35L396,32L394,33L392,36L392,32L387,35L388,31L386,29L381,29L379,41L380,43L378,42L377,49L378,53L377,56L377,49L376,46L378,41L373,42L376,39L377,37L370,39L374,34L371,34L371,33L376,32L375,31L378,29L377,25L374,26L375,24L372,24L368,22L368,28L364,26L366,29L364,28L364,30L366,32L364,37L366,40L364,44L359,48L359,48L359,36L359,29L358,29L354,36L352,40L347,50L348,51L345,58L343,59L342,58L343,50L345,46L343,45L347,39L348,36L351,33L345,30L344,34L343,32L334,34L333,35L338,39L338,41L336,40L332,44L333,46L330,46L326,52L327,52L324,55L325,56L323,59L327,61L322,64L321,58L319,59L313,61L319,58L320,56L314,54L313,58L313,53L310,52L308,54L308,58L305,53L301,56L301,56Z M347,23L348,26L345,28L347,31L349,29L351,27L347,23Z " data-fips="NO05" data-fips-="" data-iso3="NOR" data-name="Finnmark" data-p="FI"/></g></svg>