<?xml version="1.0" encoding="UTF-8"?><!DOCTYPE svg  PUBLIC '-//W3C//DTD SVG 1.1//EN'  'http://www.w3.org/Graphics/SVG/1.1/DTD/svg11.dtd'><svg enable_background="new 0 0 450 301" height="301px" style="stroke-linejoin: round; stroke:#000; fill:#f6f3f0;" version="1.1" viewBox="0 0 450 301" width="450px" xmlns="http://www.w3.org/2000/svg" xmlns:xlink="http://www.w3.org/1999/xlink"><defs><style type="text/css"><![CDATA[path { fill-rule: evenodd; }
#context path { fill: #eee; stroke: #bbb; } ]]></style></defs><metadata><views><view h="301.0" padding="0.06" w="450"><proj id="laea" lat0="28.3259457465" lon0="82.5275984957"/><bbox h="59.97" w="99.82" x="967.67" y="968.81"/><llbbox lat0="-90" lat1="90" lon0="-180" lon1="180"/></view></views></metadata><g id="context"><path d="M449,253L444,248L439,246L436,246L437,251L440,253L437,260L435,263L431,268L427,273L424,280L424,284L427,288L432,289L438,294L442,299L450,299L450,254L449,253Z " data-iso="BGD"/><path d="M1,5L4,7L9,6L15,6L19,9L29,17L32,17L34,18L35,23L34,29L37,30L54,36L57,38L60,41L72,48L73,52L75,56L77,59L81,59L85,56L92,43L103,40L113,42L123,44L131,58L144,65L162,79L169,83L176,83L180,86L186,93L191,100L197,107L201,107L214,102L222,105L229,122L233,124L240,130L249,135L251,138L257,141L259,141L270,138L274,140L271,151L273,154L277,155L287,156L300,156L304,159L308,163L314,175L316,176L320,174L320,166L323,164L327,169L336,174L342,172L343,165L346,164L353,168L358,169L367,173L373,178L380,178L396,178L399,178L408,174L416,173L420,174L420,172L428,168L435,165L442,160L445,160L450,162L450,0L0,0L0,4L1,5Z " data-iso="CHN"/><path d="M783,1319L780,1324L773,1311L770,1310L770,1303L771,1301L779,1297L781,1299L785,1311L783,1319Z M773,1291L768,1297L766,1294L771,1288L773,1291Z M756,1264L751,1264L748,1259L749,1257L752,1256L755,1260L756,1264Z M761,1253L756,1251L756,1247L758,1244L760,1245L759,1248L761,1253Z M738,1244L740,1246L737,1246L734,1243L735,1239L738,1244Z M716,1197L714,1198L712,1194L716,1191L717,1195L716,1197Z M697,1120L695,1122L690,1121L690,1115L688,1110L689,1108L693,1103L697,1101L699,1107L701,1112L697,1120Z M705,1074L703,1075L700,1074L702,1072L702,1067L705,1069L705,1074Z M721,1036L724,1044L720,1041L718,1039L721,1036Z M703,992L701,996L700,988L703,987L703,992Z M707,1065L704,1065L698,1056L697,1050L695,1047L697,1044L699,1043L700,1039L700,1034L703,1028L708,1027L707,1023L704,1020L704,1010L705,1003L704,997L707,991L708,984L707,982L709,971L709,964L712,957L717,953L719,953L720,961L717,965L721,969L717,978L715,980L711,987L716,992L718,1009L715,1014L712,1015L713,1026L713,1029L707,1040L708,1043L709,1059L707,1065Z M1,5L4,7L9,6L15,6L19,9L21,11L21,11L29,17L32,17L34,18L35,23L34,29L37,30L54,36L57,38L60,41L72,48L73,52L71,51L68,52L57,61L50,67L43,76L39,85L36,93L36,99L34,106L29,111L27,117L25,123L26,126L30,129L43,138L46,139L48,135L51,136L59,142L79,154L86,163L95,169L113,180L122,179L125,181L134,187L142,191L151,190L153,191L156,200L166,203L172,204L183,208L187,206L188,204L191,203L196,203L210,207L213,204L220,203L223,201L230,204L242,209L249,211L251,223L253,225L265,232L269,234L276,236L277,239L283,242L297,236L301,236L303,239L305,247L308,249L311,249L319,246L325,248L330,248L346,253L354,257L357,256L369,249L373,256L377,258L383,260L389,256L400,257L406,255L411,254L418,257L421,254L426,238L425,233L423,226L416,218L416,215L417,200L419,191L421,187L422,175L420,174L420,172L428,168L435,165L442,160L445,160L451,163L454,165L456,172L456,178L452,192L454,197L460,204L454,209L453,211L458,217L459,223L474,230L483,228L496,231L497,234L505,235L523,231L526,225L533,222L547,228L553,228L573,225L580,225L587,220L588,220L591,223L599,223L607,219L615,219L618,215L618,212L616,208L614,202L617,194L612,185L605,187L600,187L596,184L592,181L591,178L593,170L597,169L610,170L616,165L623,163L631,163L643,155L644,153L641,149L644,144L652,139L659,132L663,128L666,117L668,115L673,113L688,110L699,102L704,96L704,93L708,92L716,81L724,77L731,70L733,71L739,77L748,78L750,78L757,79L764,82L769,82L775,75L774,72L783,65L791,60L798,56L803,59L806,64L814,67L811,70L804,75L807,85L815,77L819,75L821,77L822,80L828,91L820,100L818,105L822,114L823,111L831,107L834,108L840,111L850,112L855,110L858,111L868,117L868,124L870,127L869,134L865,135L854,148L851,151L850,154L852,162L864,176L864,179L861,180L853,177L848,171L845,169L842,169L813,179L806,190L799,196L786,208L779,214L774,216L771,219L768,226L768,233L770,242L774,250L769,257L768,266L760,281L754,284L752,287L749,299L750,300L756,302L758,307L756,314L753,323L749,331L741,350L738,361L735,375L732,376L729,374L712,370L700,372L695,368L693,371L697,384L700,389L700,408L700,420L697,426L689,428L690,433L687,444L689,454L692,464L691,473L688,473L684,484L681,485L678,485L673,480L669,478L667,485L664,487L663,484L660,464L657,448L651,437L649,435L648,428L646,414L640,394L624,395L625,405L625,407L618,414L617,418L619,428L618,431L615,434L611,435L608,435L605,433L601,424L598,424L598,431L595,430L591,415L586,404L585,399L588,385L593,379L596,374L602,374L606,370L614,366L618,368L620,367L623,358L630,354L631,349L634,338L635,327L636,327L643,329L646,328L646,323L641,319L633,315L625,312L610,314L596,316L587,314L574,316L558,317L544,318L534,318L515,313L513,313L511,308L512,298L510,283L510,277L504,264L502,262L497,267L498,270L497,274L493,275L484,273L478,269L474,264L473,258L471,255L466,253L464,255L467,260L467,262L460,262L453,260L452,257L449,253L444,248L439,246L436,246L437,251L440,253L437,260L435,263L431,268L427,273L424,280L424,284L427,288L432,289L438,294L443,301L450,305L459,305L462,312L468,315L466,321L459,323L444,322L441,335L438,340L431,338L429,338L425,350L424,355L427,359L430,362L434,363L437,362L440,363L443,367L448,369L456,370L460,372L460,384L459,388L456,398L454,406L455,410L463,419L461,427L463,429L473,432L470,441L471,446L473,452L474,463L477,470L482,483L481,502L477,502L481,507L483,512L483,517L479,518L476,518L473,513L472,517L468,522L465,514L466,499L462,495L461,492L458,509L460,515L459,518L452,521L445,515L442,521L435,521L432,518L434,512L438,498L438,492L432,488L427,486L425,480L426,487L428,489L432,490L436,494L431,500L426,510L420,516L412,521L388,528L383,530L375,538L371,545L370,553L373,560L376,572L378,575L375,579L371,584L367,591L367,597L354,605L347,614L343,612L341,612L344,616L339,621L320,627L306,633L302,633L305,630L305,623L300,622L289,630L284,637L288,638L295,634L299,635L299,637L288,644L264,665L263,669L260,674L256,679L248,690L233,706L229,712L206,725L201,728L192,740L181,750L170,758L149,769L137,779L133,785L137,796L135,803L131,808L125,813L105,821L85,819L79,820L77,824L71,841L65,846L62,852L56,851L54,852L52,846L45,845L30,850L25,854L15,876L12,889L14,905L18,917L18,922L18,930L14,937L16,946L20,957L21,961L21,966L25,977L22,975L21,971L17,965L11,970L14,975L24,980L26,984L20,1021L15,1034L9,1043L6,1046L-1,1059L-6,1076L-7,1082L-5,1089L-7,1093L-11,1096L-5,1095L-3,1099L-2,1103L-2,1127L-3,1151L-13,1152L-20,1150L-28,1151L-32,1154L-36,1159L-36,1166L-50,1185L-54,1192L-55,1198L-53,1201L-49,1204L-45,1206L-35,1207L-31,1209L-28,1213L-39,1209L-52,1208L-83,1216L-91,1222L-96,1227L-99,1240L-100,1248L-104,1255L-120,1265L-131,1268L-134,1271L-146,1267L-159,1257L-165,1252L-184,1227L-187,1223L-191,1213L-191,1209L-195,1205L-199,1193L-201,1180L-203,1166L-201,1168L-198,1172L-196,1179L-196,1188L-192,1188L-197,1167L-202,1162L-205,1158L-205,1151L-209,1144L-210,1140L-219,1119L-223,1103L-229,1086L-233,1080L-239,1067L-245,1061L-251,1052L-257,1046L-269,1018L-273,1002L-276,995L-278,989L-282,965L-282,956L-285,946L-290,935L-292,928L-292,925L-295,914L-296,909L-304,897L-311,886L-313,883L-318,876L-320,863L-325,858L-318,858L-326,848L-322,843L-328,843L-330,840L-334,831L-340,820L-341,814L-346,797L-349,756L-353,737L-353,732L-357,716L-360,705L-360,696L-361,690L-362,678L-364,672L-362,667L-358,659L-356,654L-357,646L-361,654L-365,656L-366,650L-365,638L-356,639L-366,634L-367,629L-365,625L-369,622L-369,612L-371,607L-368,594L-357,568L-356,562L-356,553L-358,546L-358,537L-362,536L-365,533L-367,522L-361,517L-368,517L-357,509L-346,505L-341,503L-348,505L-355,505L-370,503L-367,493L-364,490L-361,489L-365,489L-370,488L-368,478L-364,476L-355,475L-360,472L-366,471L-373,472L-379,471L-386,470L-384,472L-380,475L-384,484L-389,486L-392,489L-396,494L-389,497L-385,504L-386,511L-396,528L-400,531L-423,540L-433,544L-453,550L-460,551L-468,548L-480,542L-497,526L-502,521L-515,501L-525,490L-532,481L-541,471L-549,459L-551,453L-549,448L-546,446L-542,447L-535,455L-520,450L-515,451L-511,448L-506,449L-496,444L-488,444L-479,431L-472,423L-468,422L-469,417L-472,417L-478,424L-482,422L-489,423L-503,426L-509,430L-513,431L-534,424L-554,410L-562,401L-567,391L-572,379L-569,376L-560,370L-552,365L-559,367L-567,370L-570,371L-575,376L-581,376L-582,369L-583,362L-576,358L-566,357L-554,359L-552,342L-548,340L-547,343L-543,342L-539,343L-536,343L-532,344L-510,346L-503,353L-492,354L-487,353L-483,348L-473,345L-463,343L-460,343L-459,351L-455,353L-448,353L-443,349L-438,348L-435,347L-438,341L-437,334L-433,331L-437,319L-440,309L-443,301L-447,293L-449,288L-448,277L-452,272L-455,272L-464,272L-467,270L-474,258L-475,253L-475,249L-471,241L-468,227L-473,221L-480,219L-488,216L-495,211L-500,205L-498,197L-495,188L-493,185L-485,178L-476,170L-467,158L-461,150L-452,144L-448,142L-444,142L-437,148L-437,154L-430,161L-427,161L-411,156L-406,156L-393,156L-377,152L-375,147L-372,141L-362,132L-359,128L-353,113L-350,110L-336,103L-322,97L-319,94L-309,79L-303,69L-294,49L-290,47L-281,44L-273,41L-267,35L-267,31L-269,27L-268,23L-262,18L-251,5L-245,-1L-243,-1L-230,-8L-231,-13L-234,-14L-235,-17L-230,-32L-231,-36L-233,-46L-231,-52L-227,-56L-222,-59L-205,-66L-197,-68L-193,-72L-192,-75L-197,-81L-208,-87L-217,-87L-223,-91L-223,-96L-222,-104L-225,-104L-230,-105L-236,-106L-238,-108L-237,-111L-237,-115L-241,-120L-246,-123L-249,-127L-251,-133L-245,-141L-243,-147L-243,-149L-250,-157L-248,-163L-245,-166L-238,-168L-236,-171L-242,-175L-250,-176L-251,-181L-247,-186L-248,-188L-250,-191L-255,-194L-255,-197L-246,-212L-230,-217L-201,-208L-190,-207L-187,-205L-179,-200L-172,-198L-167,-198L-160,-201L-151,-206L-145,-206L-132,-210L-126,-209L-121,-211L-117,-217L-106,-222L-104,-228L-79,-242L-68,-247L-65,-245L-58,-247L-58,-245L-60,-237L-60,-234L-57,-228L-49,-201L-47,-198L-31,-192L-27,-189L-19,-183L-18,-180L-20,-174L-28,-168L-30,-164L-27,-153L-27,-136L-21,-127L-13,-120L-12,-117L-14,-109L-10,-104L-9,-91L-10,-79L-14,-78L-17,-73L-24,-72L-28,-75L-34,-86L-47,-84L-48,-83L-46,-75L-46,-69L-44,-65L-33,-50L-36,-42L-36,-38L-31,-31L-33,-27L-35,-23L-33,-21L-34,-15L-32,-13L-27,-15L-23,-15L-21,-19L-17,-19L-6,-2L-4,1L1,5Z " data-iso="IND"/><path d="M416,173L408,174L399,178L396,178L380,178L373,178L367,173L358,169L353,168L346,164L343,165L342,172L336,174L327,169L323,164L320,166L320,174L316,176L314,175L308,163L304,159L300,156L287,156L277,155L273,154L271,151L274,140L270,138L259,141L257,141L251,138L249,135L240,130L233,124L229,122L222,105L214,102L201,107L197,107L191,100L186,93L180,86L176,83L169,83L162,79L144,65L131,58L123,44L113,42L103,40L92,43L85,56L81,59L77,59L75,56L73,52L71,51L68,52L57,61L50,67L43,76L39,85L36,93L36,99L34,106L29,111L27,117L25,123L26,126L30,129L43,138L46,139L48,135L51,136L59,142L79,154L86,163L95,169L113,180L122,179L125,181L134,187L142,191L151,190L153,191L156,200L166,203L172,204L183,208L187,206L188,204L191,203L196,203L210,207L213,204L220,203L223,201L230,204L242,209L249,211L251,223L253,225L265,232L269,234L276,236L277,239L283,242L297,236L301,236L303,239L305,247L308,249L311,249L319,246L325,248L330,248L346,253L354,257L357,256L369,249L373,256L377,258L383,260L389,256L400,257L406,255L411,254L418,257L421,254L426,238L425,233L423,226L416,218L416,215L417,200L419,191L421,187L422,175L420,174L416,173Z " data-iso="NPL"/></g><g fill="red" fill-opacity="0.35" id="regions"><path d="M174,132L167,128L160,127L158,128L154,122L151,119L148,118L145,120L144,124L135,131L131,136L129,138L122,138L120,148L119,148L119,153L122,155L125,159L122,161L121,165L124,168L128,171L129,173L128,175L124,176L122,178L122,178L127,181L133,186L137,188L140,191L141,192L146,191L152,190L153,190L159,186L161,186L157,183L159,180L166,178L171,166L170,162L173,160L173,159L173,158L167,152L163,147L164,144L171,138L174,137L176,134L176,132L174,132Z " data-fips="NP12" data-fips-="" data-iso3="NPL" data-name="Rapti" data-p="RA"/><path d="M228,122L218,127L214,127L209,133L210,138L208,140L207,144L203,151L207,159L207,160L201,172L198,173L197,174L191,175L191,176L202,177L206,177L210,180L219,178L223,180L232,182L233,184L238,185L239,186L239,186L241,186L240,184L247,179L250,180L250,181L251,181L255,182L254,177L258,168L263,165L265,160L271,153L271,152L271,147L273,143L274,139L269,136L264,140L263,142L258,142L255,139L251,139L245,133L240,131L236,125L231,124L229,122L228,122Z " data-fips="NP04" data-fips-="" data-iso3="NPL" data-name="Gorkha" data-p="GA"/><path d="M98,110L95,113L91,116L95,124L97,125L99,130L96,131L96,128L92,123L88,123L80,122L78,120L73,119L71,121L76,125L78,124L82,128L81,125L82,127L85,136L84,137L77,146L74,147L73,151L78,152L79,153L82,159L85,162L86,166L89,163L90,164L99,172L101,174L106,176L108,178L113,181L114,181L119,178L121,178L122,178L124,176L128,175L129,173L128,171L124,168L121,165L122,161L125,159L122,155L119,153L119,148L120,148L122,138L129,138L131,136L135,131L144,124L145,120L148,118L145,117L142,118L140,116L140,114L138,112L133,112L128,114L124,118L121,117L116,119L113,118L99,112L98,110Z " data-fips="NP02" data-fips-="" data-iso3="NPL" data-name="Banke" data-p="BH"/><path d="M201,108L199,117L195,123L192,130L183,133L177,132L176,132L176,134L174,137L171,138L164,144L163,147L167,152L173,158L173,159L177,159L187,164L188,165L193,167L197,171L198,173L201,172L207,160L207,159L203,151L207,144L208,140L210,138L209,133L214,127L218,127L228,122L228,120L229,115L226,114L224,109L225,105L222,103L219,103L218,102L212,101L207,104L204,104L201,108L201,108Z " data-fips="NP03" data-fips-="" data-iso3="NPL" data-name="Dhawalagiri" data-p="DH"/><path d="M85,57L93,60L96,67L103,65L109,67L106,80L108,83L110,88L106,90L106,94L107,98L102,97L98,98L95,100L95,106L98,110L98,110L99,112L113,118L116,119L121,117L124,118L128,114L133,112L138,112L140,114L140,116L142,118L145,117L148,118L151,119L154,122L158,128L160,127L167,128L174,132L176,132L177,132L183,133L192,130L195,123L199,117L201,108L200,109L194,107L194,105L190,100L186,94L186,92L185,90L181,91L181,87L176,83L170,83L166,81L161,81L158,78L153,71L151,71L142,64L140,62L137,62L136,60L133,60L127,55L128,53L124,49L125,44L123,43L119,43L118,42L102,38L98,41L97,43L95,43L91,41L90,47L90,49L86,54L85,57L85,57Z " data-fips="NP06" data-fips-="" data-iso3="NPL" data-name="Karnali" data-p="KA"/><path d="M173,159L173,160L170,162L171,166L166,178L159,180L157,183L161,186L159,186L153,190L153,190L156,200L157,201L170,204L176,204L182,210L186,209L187,206L187,203L188,202L193,202L198,203L202,204L211,209L212,207L211,205L214,204L215,203L216,199L215,199L222,197L223,198L226,194L230,191L232,191L239,189L239,187L239,186L238,185L233,184L232,182L223,180L219,178L210,180L206,177L202,177L191,176L191,175L197,174L198,173L197,171L193,167L188,165L187,164L177,159L173,159Z " data-fips="NP08" data-fips-="" data-iso3="NPL" data-name="Lumbini" data-p="LU"/><path d="M48,134L48,128L47,127L47,117L55,107L57,104L60,99L66,93L59,87L61,85L60,81L62,79L74,76L75,72L72,65L73,63L76,60L76,57L72,50L65,51L64,55L61,57L58,60L52,64L49,69L46,73L43,73L41,77L42,84L36,91L34,92L36,99L37,99L35,105L33,105L34,109L31,109L28,112L24,123L24,125L31,130L33,131L37,134L39,138L42,137L45,140L46,140L48,134L48,134Z " data-fips="NP09" data-fips-="" data-iso3="NPL" data-name="Mahakali" data-p="MA"/><path d="M85,58L83,59L82,61L76,60L76,60L73,63L72,65L75,72L74,76L62,79L60,81L61,85L59,87L66,93L60,99L57,104L55,107L47,117L47,127L48,128L48,134L50,135L55,140L60,144L64,145L66,148L69,149L71,151L73,151L74,147L77,146L84,137L85,136L82,127L81,125L82,128L78,124L76,125L71,121L73,119L78,120L80,122L88,123L92,123L96,128L96,131L99,130L97,125L95,124L91,116L95,113L98,110L98,110L95,106L95,100L98,98L102,97L107,98L106,94L106,90L110,88L108,83L106,80L109,67L103,65L96,67L93,60L85,57L85,58Z " data-fips="NP14" data-fips-="" data-iso3="NPL" data-name="Achham" data-p="SE"/><path d="M271,153L265,160L263,165L258,168L254,177L255,182L251,181L250,181L250,181L250,183L251,186L256,187L258,189L261,190L267,188L271,187L275,189L279,192L279,196L281,200L285,203L292,204L293,206L294,206L302,207L304,204L307,203L308,202L312,192L315,187L318,184L318,181L319,177L319,177L315,177L314,171L311,169L309,162L304,160L301,156L300,153L297,157L287,155L284,157L282,156L280,157L275,155L271,154L271,153Z " data-fips="NP01" data-fips-="" data-iso3="NPL" data-name="Bhaktapur" data-p="BA"/><path d="M319,177L318,181L318,184L315,187L312,192L308,202L307,203L304,204L302,207L294,206L293,206L291,207L290,210L293,212L294,215L289,226L289,231L286,237L286,240L287,240L289,239L298,235L303,238L304,244L305,247L308,249L309,249L310,251L312,250L315,247L320,246L326,248L326,248L325,231L331,230L335,226L335,220L337,216L331,212L329,213L329,204L331,201L340,191L343,190L346,184L344,175L342,171L341,173L338,175L332,173L330,171L326,170L325,162L324,162L320,167L322,175L320,177L319,177Z " data-fips="NP05" data-fips-="" data-iso3="NPL" data-name="Janakpur" data-p="JA"/><path d="M250,181L250,180L247,179L240,184L241,186L239,186L239,186L239,187L239,189L232,191L230,191L226,194L223,198L222,197L215,199L216,199L215,203L215,203L220,203L223,199L230,204L233,207L247,210L250,212L251,219L250,225L250,226L256,228L259,227L263,229L266,233L269,236L275,235L277,236L278,241L286,241L286,240L286,237L289,231L289,226L294,215L293,212L290,210L291,207L293,206L292,204L285,203L281,200L279,196L279,192L275,189L271,187L267,188L261,190L258,189L256,187L251,186L250,183L250,181L250,181Z " data-fips="NP11" data-fips-="" data-iso3="NPL" data-name="Narayani" data-p="NA"/><path d="M342,171L344,175L346,184L343,190L340,191L331,201L329,204L329,213L331,212L337,216L335,220L335,226L331,230L325,231L326,248L326,248L328,249L333,247L341,251L353,258L358,257L361,255L364,252L365,251L367,245L368,240L375,233L375,228L368,230L366,230L365,221L363,218L363,211L365,207L362,201L364,195L366,184L365,172L364,172L360,172L358,168L354,169L352,165L349,164L346,165L344,164L343,165L342,171L342,171Z " data-fips="NP13" data-fips-="" data-iso3="NPL" data-name="Sagarmatha" data-p="SA"/><path d="M365,172L366,184L364,195L362,201L365,207L363,211L363,218L365,221L366,230L368,230L375,228L375,233L368,240L367,245L365,251L367,251L370,248L372,254L375,258L379,257L381,259L385,260L389,256L391,256L400,257L401,256L400,255L400,242L401,238L400,235L391,225L399,216L403,212L392,207L389,204L389,196L392,190L397,184L399,178L398,178L395,179L384,176L380,179L371,177L369,174L365,172L365,172Z " data-fips="NP07" data-fips-="" data-iso3="NPL" data-name="Bhojpur" data-p="KO"/><path d="M399,178L397,184L392,190L389,196L389,204L392,207L403,212L399,216L391,225L400,235L401,238L400,242L400,255L401,256L401,256L405,256L412,253L417,258L421,256L422,253L426,239L425,230L417,220L415,216L416,211L418,205L417,201L417,196L418,192L421,187L423,179L422,177L417,173L408,173L400,178L399,178Z " data-fips="NP10" data-fips-="" data-iso3="NPL" data-name="Mechi" data-p="ME"/></g></svg>