<?xml version="1.0" encoding="UTF-8"?><!DOCTYPE svg  PUBLIC '-//W3C//DTD SVG 1.1//EN'  'http://www.w3.org/Graphics/SVG/1.1/DTD/svg11.dtd'><svg enable_background="new 0 0 450 361" height="361px" style="stroke-linejoin: round; stroke:#000; fill: none;" version="1.1" viewBox="0 0 450 361" width="450px" xmlns="http://www.w3.org/2000/svg" xmlns:xlink="http://www.w3.org/1999/xlink"><defs><style type="text/css"><![CDATA[path { fill-rule: evenodd; }]]></style></defs><metadata><views><view h="361.0" padding="0.06" w="450"><proj id="laea" lat0="-39.7186923153" lon0="175.557666764"/><bbox h="174.54" w="120.34" x="915.48" y="928.25"/></view></views></metadata><g class="" id="context"><path d="M146,334L143,330L140,331L138,342L137,345L145,341L148,340L146,334Z M119,306L116,306L119,307L119,306Z M122,294L121,296L123,297L122,294Z M425,271L426,269L424,269L425,271Z M426,257L419,256L417,257L419,259L418,263L421,265L421,262L421,257L422,260L426,257Z M228,188L227,180L226,177L221,175L220,171L216,172L212,175L210,180L209,187L207,195L204,198L199,201L196,209L194,218L187,229L186,234L184,232L178,236L171,246L167,249L158,255L155,258L149,260L144,264L130,285L129,284L125,288L123,295L125,297L125,299L121,297L121,300L119,300L118,303L123,303L120,307L124,307L121,309L115,311L115,314L119,312L118,316L123,313L120,318L122,320L127,321L138,319L140,322L144,322L149,325L149,326L154,327L157,326L162,327L167,327L173,324L176,319L181,314L184,308L189,307L189,301L195,285L196,278L197,271L200,261L208,258L224,252L229,254L230,252L230,249L225,247L223,238L226,235L229,233L234,227L237,219L244,211L244,209L251,199L247,197L249,195L247,191L252,185L252,183L249,184L251,181L245,180L243,186L242,187L245,178L240,180L231,188L228,188Z M275,60L271,57L271,59L275,60Z M227,27L221,17L222,14L215,15L226,29L227,37L229,40L234,36L231,42L242,58L245,63L246,63L244,57L249,58L251,59L250,63L252,65L252,69L247,66L251,72L253,77L259,77L262,81L259,82L258,84L255,81L258,87L259,87L259,91L262,99L260,101L261,105L258,110L255,125L246,130L241,133L240,139L243,143L252,146L258,151L261,151L264,154L269,162L268,168L258,188L263,191L268,191L269,195L270,196L280,188L293,169L300,159L305,147L302,142L302,139L306,134L312,132L319,133L321,136L322,134L321,130L323,123L329,119L331,110L335,97L330,94L324,93L313,103L307,104L299,101L286,95L284,90L282,78L279,72L278,72L273,65L272,67L274,71L275,83L272,84L270,80L265,76L262,76L258,75L260,69L259,66L260,61L254,53L253,50L253,45L252,39L249,34L246,36L241,30L231,27L231,24L228,28L227,27Z " data-iso="NZL"/></g><g class="" id="regions"><path d="M261,124L261,124L262,129L263,130L261,138L264,146L260,151L261,151L264,153L267,157L268,161L271,160L269,163L268,169L265,176L264,177L270,176L274,173L272,176L280,176L284,175L288,177L289,175L294,167L296,167L296,166L291,164L291,159L289,156L286,155L288,143L290,142L289,136L288,134L287,133L287,133L282,134L281,136L276,136L277,129L276,127L274,123L277,119L270,119L268,120L263,121L262,123L261,124Z " data-fips="NZF3" data-iso3="NZL" data-name="Manawatu-Wanganui"/><path d="M322,128L322,123L330,118L331,115L331,105L335,99L335,96L330,94L326,93L324,98L324,98L322,106L321,107L317,105L318,107L314,110L313,113L310,114L309,117L308,118L313,120L315,120L315,122L318,126L322,129L322,128Z " data-fips="NZF1" data-iso3="NZL" data-name="Gisborne"/><path d="M308,118L308,118L304,121L301,121L298,123L298,124L293,129L292,132L290,133L288,132L287,133L288,134L289,136L290,142L288,143L286,155L289,156L291,159L291,164L296,166L296,165L297,162L300,159L304,149L304,146L302,147L302,142L304,135L312,131L321,132L320,134L320,137L322,134L321,132L321,130L322,129L318,126L315,122L315,120L313,120L308,118Z " data-fips="NZF2" data-iso3="NZL" data-name="Hawke's Bay"/><path d="M267,73L264,73L266,74L267,73Z M262,65L261,63L261,64L262,65Z M257,57L256,57L254,59L254,59L254,59L250,63L251,63L252,69L248,65L247,66L252,74L253,76L259,78L263,80L258,82L255,81L257,85L257,86L268,83L269,79L270,79L270,79L267,77L266,78L262,74L261,78L261,75L257,74L258,73L260,74L258,69L258,64L259,62L261,62L257,57L257,57Z M273,56L271,55L271,59L275,62L273,56Z " data-fips="NZE7" data-iso3="NZL" data-name="Auckland"/><path d="M325,93L319,96L315,102L310,105L298,101L290,96L289,95L289,97L283,93L284,92L287,94L284,90L283,88L283,88L281,95L283,101L284,104L288,106L290,112L293,113L293,118L290,116L287,116L285,118L288,119L286,125L287,127L289,128L289,130L288,132L290,133L292,132L293,129L298,124L298,123L301,121L304,121L308,118L308,118L309,117L310,114L313,113L314,110L318,107L317,105L321,107L322,106L324,98L324,98L326,93L325,93Z " data-fips="NZE8" data-iso3="NZL" data-name="Bay of Plenty"/><path d="M221,209L221,209L219,212L218,214L217,214L217,214L217,216L213,219L210,223L207,224L204,227L196,232L185,242L184,244L177,247L175,249L168,258L168,259L168,261L166,270L167,271L177,283L181,283L182,286L184,285L187,282L191,281L196,282L197,281L196,273L200,265L202,263L198,259L204,261L207,259L208,259L214,254L210,251L213,252L215,254L219,250L227,254L230,252L229,248L227,247L222,248L225,247L223,239L226,235L229,233L234,227L237,219L241,216L244,212L246,207L247,205L240,204L236,208L235,211L233,212L230,217L228,218L224,214L222,209L221,209Z " data-fips="NZE9" data-iso3="NZL" data-name="Canterbury"/><path d="M253,184L252,183L250,186L253,184Z M237,182L235,186L234,189L232,190L232,191L232,191L231,194L230,194L225,200L224,205L222,207L221,209L222,209L224,214L228,218L230,217L233,212L235,211L236,208L240,204L247,205L247,205L250,199L247,193L250,183L248,180L246,183L246,186L244,186L241,188L243,185L243,182L241,182L245,178L242,180L240,180L240,182L238,182L237,182Z M244,175L242,177L241,176L244,175Z " data-fips="NZF4" data-iso3="NZL" data-name="Marlborough"/><path d="M232,190L234,189L235,186L237,182L237,182L234,185L230,189L230,189L230,189L230,190L231,190L232,191L232,190Z " data-fips="NZF5" data-iso3="NZL" data-name="Nelson"/><path d="M230,189L228,188L227,181L227,178L223,177L221,175L221,169L218,169L217,172L215,172L211,176L211,176L213,179L216,183L220,187L218,188L218,191L216,192L213,197L210,203L209,206L210,209L215,213L217,214L217,214L218,214L219,212L221,209L221,209L222,207L224,205L225,200L230,194L231,194L232,191L232,191L231,190L230,190L230,189L230,189L230,189Z " data-fips="NZG4" data-iso3="NZL" data-name="Tasman"/><path d="M256,57L254,53L253,51L254,49L251,50L250,47L253,47L256,49L255,43L251,39L249,35L246,35L246,37L243,34L243,31L234,26L234,28L231,28L229,25L229,29L227,28L228,26L225,25L222,17L223,13L215,14L215,15L222,23L226,29L225,33L224,33L230,41L233,36L236,36L233,40L231,42L235,49L244,60L247,63L241,52L245,58L249,60L247,58L248,56L251,59L249,61L253,59L254,59L254,59L256,57L257,57L256,57Z " data-fips="NZF6" data-iso3="NZL" data-name="Northland"/><path d="M256,122L252,129L241,134L240,135L240,140L244,143L251,145L255,150L260,151L260,151L264,146L261,138L263,130L262,129L261,124L261,124L261,123L260,123L260,123L256,122L256,122Z " data-fips="NZF9" data-iso3="NZL" data-name="Taranaki"/><path d="M211,176L209,179L209,188L205,198L202,201L198,205L196,210L194,219L190,226L192,230L191,231L189,226L185,232L178,237L177,240L169,246L170,248L166,250L164,252L157,256L152,261L148,261L144,262L140,269L140,269L143,269L144,269L145,272L144,274L147,274L153,270L156,264L161,262L162,263L167,259L168,259L168,258L175,249L177,247L184,244L185,242L196,232L204,227L207,224L210,223L213,219L217,216L217,214L217,214L217,214L215,213L210,209L209,206L210,203L213,197L216,192L218,191L218,188L220,187L216,183L213,179L211,176L211,176Z " data-fips="NZG3" data-iso3="NZL" data-name="West Coast"/><path d="M167,259L162,263L161,262L156,264L153,270L147,274L144,274L144,275L142,278L142,283L142,286L144,288L144,290L145,293L148,295L151,293L156,297L158,294L161,297L159,304L159,307L162,313L163,318L163,320L164,324L164,327L164,327L165,328L172,325L174,323L176,319L178,317L183,309L188,305L188,302L190,298L192,296L192,293L193,288L195,286L196,283L191,281L187,282L184,285L182,286L181,283L177,283L167,271L166,270L168,261L168,259L167,259Z " data-fips="NZF7" data-iso3="NZL" data-name="Otago"/><path d="M135,345L136,344L135,345L135,345Z M138,333L139,333L138,332L138,333Z M154,332L154,331L153,331L154,332Z M143,330L140,331L141,336L140,339L138,340L138,343L137,345L139,345L141,343L143,343L144,341L148,340L149,338L145,336L147,335L143,330Z M119,305L117,306L118,308L119,305Z M123,297L121,293L121,296L123,297Z M144,274L145,272L144,269L143,269L140,269L140,269L136,275L135,278L133,282L131,281L129,283L131,288L130,288L128,284L123,292L122,294L126,300L121,297L122,300L119,300L120,308L124,307L120,310L114,311L115,316L118,314L120,312L120,314L118,317L120,317L123,313L120,317L121,320L132,320L133,317L137,318L139,322L146,321L149,323L151,327L154,327L155,326L159,328L164,327L164,327L164,324L163,320L163,318L162,313L159,307L159,304L161,297L158,294L156,297L151,293L148,295L145,293L144,290L144,288L142,286L142,283L142,278L144,275L144,274Z " data-fips="NZF8" data-iso3="NZL" data-name="Southland"/><path d="M281,69L280,68L280,69L281,69Z M270,79L269,79L268,83L257,86L258,87L259,88L261,98L263,99L260,100L260,104L263,106L261,108L258,107L258,108L257,122L256,122L260,123L260,123L261,123L261,124L262,123L263,121L268,120L270,119L277,119L274,123L276,127L277,129L276,136L281,136L282,134L287,133L287,133L288,132L289,130L289,128L287,127L286,125L288,119L285,118L287,116L290,116L293,118L293,113L290,112L288,106L284,104L283,101L281,95L283,88L283,88L282,85L282,77L278,75L280,71L278,72L275,70L276,69L275,66L271,67L274,70L273,75L277,85L271,84L270,79L270,79Z " data-fips="NZG1" data-iso3="NZL" data-name="Waikato"/><path d="M264,177L262,183L257,186L257,188L263,186L262,190L268,191L272,195L273,194L283,186L285,183L286,180L288,178L288,177L284,175L280,176L272,176L274,173L270,176L264,177L264,177Z " data-fips="NZG2" data-iso3="NZL" data-name="Wellington"/></g></svg>