<?xml version="1.0" encoding="UTF-8"?><!DOCTYPE svg  PUBLIC '-//W3C//DTD SVG 1.1//EN'  'http://www.w3.org/Graphics/SVG/1.1/DTD/svg11.dtd'><svg enable_background="new 0 0 500 394" height="394px" style="stroke-linejoin: round; stroke:#000; fill:#f6f3f0;" version="1.1" viewBox="0 0 500 394" width="500px" xmlns="http://www.w3.org/2000/svg" xmlns:xlink="http://www.w3.org/1999/xlink"><defs><style type="text/css"><![CDATA[path { fill-rule: evenodd; }
#context path { fill: #eee; stroke: #bbb; } ]]></style></defs><metadata><views><view h="394.863724138" padding="0" w="500"><proj id="laea" lat0="-20.0" lon0="140.0"/><bbox h="869.34" w="1103.6" x="448.2" y="598.34"/><llbbox lat0="-53.0" lat1="13.0" lon0="95.0" lon1="185.0"/></view></views></metadata><g id="countries"><path d="M271.6,297.2L271.4,302.9L272.8,309.0L277.0,312.4L280.8,309.2L283.1,310.8L283.0,308.1L285.1,305.2L285.5,298.8L284.2,297.8L279.2,299.7L277.0,299.5L271.6,297.2Z M239.0,269.1L236.7,268.7L235.2,270.8L238.4,271.0L241.1,269.2L239.0,269.1Z M267.4,136.8L265.3,132.1L261.7,133.0L260.8,136.9L259.2,138.9L260.2,141.3L258.0,147.0L258.7,152.9L257.6,159.6L254.4,167.1L246.0,166.6L245.3,164.9L240.6,163.3L225.9,153.9L225.2,152.6L228.1,147.9L227.9,144.4L233.3,139.0L228.6,139.5L221.2,137.3L220.2,137.7L212.7,136.0L210.9,134.3L205.9,133.3L208.8,134.9L210.2,138.4L208.4,139.1L200.2,140.2L200.2,141.3L196.4,144.8L197.1,145.6L192.7,152.0L194.3,155.7L191.1,154.8L186.4,156.0L186.4,154.4L183.4,151.4L178.5,149.5L172.5,152.6L170.4,157.2L168.6,158.0L167.6,163.5L162.8,167.1L164.2,168.0L162.9,171.3L159.0,166.1L155.5,171.4L156.2,175.1L152.4,183.2L148.0,186.6L141.3,188.3L139.7,190.1L131.8,193.3L126.4,196.4L120.5,201.8L119.0,205.6L116.9,203.1L116.2,207.3L117.1,209.3L116.5,216.6L122.5,227.3L121.4,227.7L118.1,224.1L120.6,230.9L125.3,238.4L128.6,242.7L131.3,250.5L135.5,256.3L136.9,263.5L136.2,267.3L134.4,266.9L138.9,271.9L143.0,273.9L148.3,273.5L150.2,272.6L155.5,268.3L156.9,265.9L163.8,264.1L172.2,263.9L174.1,262.8L178.5,257.0L184.5,252.9L187.5,252.9L195.6,249.8L197.4,248.7L210.6,247.7L213.0,249.3L215.6,248.9L217.8,250.1L223.2,255.3L224.7,255.4L227.6,259.3L228.9,263.0L231.0,263.3L233.4,259.8L236.6,257.9L238.3,260.4L238.2,263.7L235.7,266.4L239.4,265.8L240.4,262.0L243.0,263.7L243.2,268.5L246.3,266.9L248.8,272.5L251.7,280.9L257.1,283.7L261.6,284.1L265.6,286.2L270.7,283.0L271.8,281.3L274.3,283.3L276.1,287.0L280.2,285.9L286.8,281.7L292.2,281.7L294.7,278.0L296.4,271.2L306.2,255.2L308.9,253.3L311.7,247.9L314.8,237.3L316.4,233.8L316.6,230.4L315.0,224.4L315.3,219.4L312.9,210.8L309.4,206.2L305.4,202.7L304.2,197.5L302.3,195.8L300.0,196.6L297.8,189.1L295.3,185.9L295.0,183.5L284.1,177.0L281.9,172.4L281.1,164.8L278.3,156.7L278.5,153.7L274.2,149.7L266.9,138.3L267.4,136.8Z " data-iso="AUS" data-name="Australia" data-pop="21262641.0"/><path d="M109.1,51.1L109.6,53.9L110.8,53.8L109.1,51.1Z M109.2,50.8L108.9,50.5L108.0,51.0L104.4,53.4L103.8,53.4L106.6,56.2L108.0,54.3L107.5,52.3L109.1,51.1L109.2,50.8Z " data-iso="BRN" data-name="Brunei" data-pop="388190.0"/><path d="M448.8,189.7L443.8,193.2L446.1,194.4L449.5,194.3L448.8,189.7Z M458.7,184.9L452.7,185.6L451.4,187.9L453.3,187.4L457.7,188.1L458.7,184.9Z " data-iso="FJI" data-name="Fiji" data-pop="944720.0"/><path d="M140.2,128.1L134.9,129.1L135.3,130.5L138.1,130.6L141.3,132.7L144.8,131.8L140.2,128.1Z M166.7,123.4L165.7,124.0L165.4,124.3L165.0,124.5L164.3,124.8L164.2,125.5L163.5,126.2L162.1,125.8L161.8,126.0L160.6,130.1L164.5,130.2L167.4,126.6L167.8,126.3L167.9,124.5L168.1,124.1L166.8,123.2L166.7,123.4Z M121.6,125.9L120.1,123.8L118.4,127.2L121.5,127.5L121.6,125.9Z M155.0,122.3L156.1,120.7L152.2,122.7L150.5,121.9L143.0,121.4L138.8,124.4L148.1,124.1L148.9,124.5L155.0,122.3Z M130.2,123.2L127.9,123.6L128.9,125.7L122.4,126.1L122.6,128.0L125.8,127.8L131.1,125.2L131.4,126.1L135.1,124.7L132.9,123.0L130.2,123.2Z M115.0,124.2L109.7,124.7L113.7,128.3L115.7,126.1L115.0,124.2Z M241.9,116.3L243.8,114.1L243.2,111.4L238.9,112.8L238.0,114.4L240.6,117.0L241.9,116.3Z M201.9,115.8L203.8,112.6L203.5,110.8L200.5,115.1L201.9,115.8Z M105.8,119.4L106.4,118.0L100.4,119.0L100.0,120.4L105.8,119.4Z M70.5,118.5L63.6,119.2L61.0,124.8L64.8,124.9L77.3,127.8L84.8,126.7L89.0,127.9L100.2,127.7L103.2,126.5L110.6,128.3L107.3,122.2L101.6,123.2L98.7,119.4L91.1,119.0L90.0,117.9L77.5,121.6L77.0,120.4L70.5,118.5Z M220.6,102.4L219.3,100.9L217.3,104.2L219.0,105.9L220.6,102.4Z M156.0,99.5L154.3,101.2L154.3,105.9L156.3,103.5L156.0,99.5Z M176.2,89.8L171.6,90.6L172.3,92.5L176.8,93.6L178.4,92.7L176.2,89.8Z M192.4,87.7L188.5,87.8L181.9,90.2L182.2,91.8L187.8,90.0L192.9,90.2L198.4,92.9L198.6,91.1L195.9,88.2L192.4,87.7Z M73.5,100.6L71.4,98.3L70.0,100.7L70.7,102.3L73.5,100.6Z M61.4,95.0L58.8,94.6L56.6,97.9L60.2,98.1L61.6,101.6L65.9,99.4L63.4,99.2L61.4,95.0Z M255.4,120.9L255.4,108.7L255.1,108.3L255.5,84.9L254.2,84.9L237.6,78.8L232.2,82.8L229.6,83.2L226.7,87.3L224.0,89.4L218.8,86.5L217.0,83.1L217.5,78.2L216.5,76.5L209.6,73.5L207.0,73.2L200.8,76.1L200.6,79.4L204.5,80.0L206.6,83.7L215.6,84.2L214.5,85.5L210.8,84.9L209.0,86.6L206.8,86.1L206.4,87.5L212.1,93.5L215.9,91.8L220.3,92.7L223.0,95.4L234.8,97.9L239.1,100.7L242.2,108.8L245.4,110.2L243.7,115.8L250.2,114.8L255.1,120.7L255.4,120.9Z M14.7,85.4L12.6,86.0L16.8,90.3L17.1,88.3L14.7,85.4Z M164.6,68.0L166.5,65.0L164.3,64.8L161.1,68.0L158.7,69.2L149.0,68.9L143.2,67.8L140.6,70.6L139.0,70.0L137.6,71.8L136.3,80.0L134.8,81.0L133.1,89.4L132.2,95.7L136.2,98.4L135.2,105.7L140.8,105.6L140.2,104.3L140.3,94.1L139.4,92.0L143.4,90.0L143.2,95.0L149.1,101.7L150.1,99.9L154.3,98.7L150.6,94.5L150.7,90.7L148.0,84.2L156.5,79.4L153.6,78.5L147.2,80.0L144.0,82.6L138.9,80.4L137.5,76.8L138.0,74.7L140.5,72.4L142.9,72.7L153.5,71.6L155.5,72.3L162.0,71.0L164.6,68.0Z M180.6,67.8L182.1,63.0L181.8,60.4L179.4,63.9L179.6,69.8L180.5,73.8L182.7,75.0L181.5,70.8L182.0,69.8L187.2,70.9L183.5,67.9L186.0,66.1L186.1,64.6L183.3,64.6L180.6,67.8Z M123.6,54.0L124.2,54.6L125.2,54.2L125.2,54.0L125.0,53.5L124.2,53.7L123.7,53.7L123.6,54.0Z M78.4,71.7L76.2,80.0L77.8,82.8L78.4,87.3L82.5,89.4L84.3,97.2L88.3,98.8L92.4,97.2L98.3,98.8L99.4,97.9L107.6,98.5L108.8,101.9L115.9,98.1L118.9,90.5L117.4,87.3L123.9,80.1L123.7,75.1L125.9,71.8L129.1,71.9L130.8,70.2L123.4,59.7L123.2,53.8L123.3,53.7L112.7,54.7L111.8,60.3L107.9,66.6L108.2,68.1L106.0,70.5L102.1,72.4L98.0,71.1L95.4,71.5L85.4,76.7L79.9,73.2L79.7,70.9L78.4,71.7Z M8.6,64.4L2.2,63.5L1.9,65.4L3.9,68.7L9.0,72.9L11.0,73.2L14.9,77.2L16.1,80.3L20.3,81.7L21.6,83.8L23.6,89.5L30.5,95.7L33.8,101.6L39.6,108.9L46.1,114.1L51.2,116.6L52.6,118.2L62.1,118.1L61.8,111.6L59.2,100.1L53.2,97.2L52.1,92.9L47.0,91.1L47.9,85.9L46.5,84.9L40.9,84.0L32.2,78.9L27.1,74.0L18.4,69.2L16.1,65.0L13.7,63.4L8.6,64.4Z " data-iso="IDN" data-name="Indonesia" data-pop="240271522.0"/><path d="M68.9,1.0L68.6,1.3L64.8,3.6L60.8,6.4L56.1,4.7L56.1,4.6L56.1,4.6L47.4,5.3L43.8,7.3L40.5,11.2L41.2,16.0L42.5,17.2L43.3,21.1L43.3,20.9L44.3,25.5L47.0,24.3L47.0,27.4L50.2,26.8L51.1,27.4L56.4,23.7L58.4,23.1L59.6,19.0L61.7,18.8L67.2,14.5L68.9,7.6L69.0,1.3L68.9,1.0Z " data-iso="KHM" data-name="Cambodia" data-pop="14494293.0"/><path d="M69.0,0.1L68.9,0.4L68.9,1.0L68.6,1.3L64.8,3.6L60.8,6.4L56.1,4.7L56.1,4.6L56.5,4.4L57.5,3.7L57.8,3.3L58.3,0.4L58.1,-0.0L58.0,-4.8L55.0,-7.1L55.4,-11.8L51.7,-16.4L48.2,-17.2L43.8,-13.6L41.0,-14.9L35.7,-10.3L37.5,-18.9L36.2,-22.3L33.4,-22.2L34.3,-24.7L33.4,-26.3L34.8,-29.4L38.5,-33.4L41.7,-31.8L42.5,-39.0L48.1,-35.1L47.4,-32.4L48.9,-30.6L53.7,-31.7L54.7,-29.0L57.4,-27.0L55.2,-24.5L51.6,-22.2L57.7,-19.7L57.7,-17.8L66.0,-8.6L68.8,-6.1L67.5,-5.1L69.8,-2.1L68.9,-0.1L69.0,0.1Z " data-iso="LAO" data-name="Laos" data-pop="6834942.0"/><path d="M20.4,33.3L21.5,29.7L23.1,27.6L25.1,21.7L23.0,11.4L20.8,9.4L19.2,4.8L21.2,3.4L21.6,0.0L16.5,0.0L17.0,7.1L19.7,14.5L21.2,24.1L19.2,30.7L20.1,33.5L20.4,33.3Z M0.0,2.7L1.6,0.1L1.0,3.6L5.6,3.3L8.2,0.5L0.0,0.0L0.0,2.7Z " data-iso="MMR" data-name="Myanmar" data-pop="48137741.0"/><path d="M124.3,53.2L124.0,53.2L123.8,53.3L123.8,53.5L123.7,53.7L124.2,53.7L125.0,53.5L124.3,53.2Z M27.9,54.4L29.1,57.4L31.2,67.5L39.2,76.1L45.9,79.0L46.6,80.1L50.7,79.1L48.1,72.6L46.5,71.7L45.9,62.5L44.3,57.8L39.3,53.2L38.4,53.1L32.4,56.8L32.9,54.5L27.7,53.8L27.9,54.4Z M110.8,53.8L109.6,53.9L109.1,51.1L107.5,52.3L108.0,54.3L106.6,56.2L103.8,53.4L103.7,53.4L103.2,55.2L98.3,61.9L91.1,64.7L87.5,72.5L88.6,73.3L80.1,71.7L79.7,70.9L79.9,73.2L85.4,76.7L95.4,71.5L98.0,71.1L102.1,72.4L106.0,70.5L108.2,68.1L107.9,66.6L111.8,60.3L112.7,54.7L123.3,53.7L123.5,53.6L129.0,51.6L127.1,48.8L132.6,46.3L125.6,43.1L123.4,43.9L123.9,41.6L121.4,38.7L119.0,38.7L112.4,47.2L111.0,50.7L110.8,53.8Z " data-iso="MYS" data-name="Malaysia" data-pop="25715819.0"/><path d="M375.4,192.1L376.2,195.6L379.5,200.1L386.4,206.2L387.4,206.1L380.9,197.8L380.7,196.9L375.4,192.1Z " data-iso="NCL" data-name="New Caledonia" data-pop="227436.0"/><path d="M387.6,317.2L386.3,312.9L376.5,322.7L369.8,326.2L364.0,327.6L356.9,332.6L353.6,336.1L364.4,342.0L369.3,339.5L375.6,330.8L382.1,331.1L384.0,326.7L391.3,320.9L392.8,317.1L391.6,316.2L387.6,317.2Z M399.8,282.7L401.4,295.1L403.0,296.4L401.6,300.3L398.1,305.5L394.7,306.4L394.0,307.6L397.7,312.1L397.4,315.3L394.9,317.9L394.3,320.0L397.4,320.8L403.1,316.6L409.1,310.2L410.5,310.8L413.6,308.4L415.7,303.0L410.3,303.9L408.9,302.9L405.5,297.5L402.6,294.8L403.4,293.6L402.4,284.1L399.8,282.7Z " data-iso="NZL" data-name="New Zealand" data-pop="4213418.0"/><path d="M170.6,21.9L167.3,20.2L167.7,23.7L164.2,24.2L160.1,28.6L158.0,26.8L154.4,27.3L153.6,28.9L147.5,34.9L148.5,36.4L151.4,31.6L154.1,31.7L155.8,33.2L156.4,31.0L157.9,31.3L159.1,35.3L161.5,39.9L166.8,42.4L168.6,40.2L167.0,36.5L169.2,32.9L171.9,35.9L173.6,33.4L172.6,26.3L171.3,25.8L170.6,21.9Z M162.7,19.8L161.2,17.9L158.4,20.2L160.0,21.0L162.7,19.8Z M154.4,24.3L154.5,21.3L156.5,15.9L153.7,14.4L152.9,18.8L150.4,21.1L154.4,24.3Z M155.7,22.1L159.4,16.7L159.2,12.4L155.9,19.2L155.7,22.1Z M121.7,30.2L125.6,27.5L131.0,20.9L132.3,20.4L132.9,17.6L122.0,28.7L121.7,30.2Z M162.7,11.4L163.1,13.4L165.8,17.0L166.1,15.3L162.7,11.4Z M151.0,10.6L148.6,10.2L147.7,16.9L152.5,14.8L154.2,12.7L152.9,10.6L151.0,10.6Z M166.5,4.7L162.7,5.0L162.0,7.0L169.0,12.0L166.5,4.7Z M141.2,1.1L139.2,1.6L143.4,7.6L145.8,5.4L145.8,2.9L144.0,1.2L141.2,1.1Z M154.1,0.0L157.5,3.2L160.4,2.3L157.7,0.0L154.1,0.0Z " data-iso="PHL" data-name="Philippines" data-pop="97976603.0"/><path d="M338.7,111.0L338.0,109.2L332.9,104.0L332.0,105.2L336.7,111.8L338.7,111.0Z M316.8,96.1L314.7,96.3L315.3,97.9L311.2,102.1L297.1,101.7L296.9,103.3L304.9,106.6L309.7,106.0L316.3,103.2L317.2,100.1L318.5,99.9L316.8,96.1Z M255.5,84.9L255.5,84.9L255.5,85.3L255.1,108.3L255.4,108.7L255.4,120.9L256.3,121.5L262.7,121.3L264.0,122.0L268.3,118.5L265.5,116.7L270.1,116.0L270.7,112.1L273.5,113.7L275.1,112.6L277.6,114.0L283.5,115.6L288.5,121.3L291.6,126.2L301.4,128.7L307.6,131.0L308.0,128.6L304.4,127.3L305.2,125.5L301.1,124.3L300.3,121.5L298.6,121.9L295.1,116.2L292.9,114.9L288.7,108.9L293.8,107.5L293.6,106.5L282.1,100.8L282.3,97.6L278.5,94.8L269.7,89.6L255.7,84.9L255.5,84.9Z M322.5,99.0L322.9,95.5L317.6,90.4L310.9,86.3L310.5,87.1L321.0,95.5L322.5,99.0Z " data-iso="PNG" data-name="Papua New Guinea" data-pop="6057263.0"/><path d="M358.5,127.4L358.9,130.4L363.1,131.6L361.8,128.6L358.5,127.4Z M359.5,123.3L357.3,120.2L352.1,117.0L352.8,118.3L359.5,123.3Z M346.9,115.3L344.5,112.6L341.6,110.8L344.8,115.1L346.9,115.3Z " data-iso="SLB" data-name="Solomon Is." data-pop="595613.0"/><path d="M19.6,35.5L17.7,44.0L26.4,52.2L27.7,53.8L32.9,54.5L32.4,56.8L38.4,53.1L36.7,52.0L34.6,49.9L32.5,50.5L29.7,49.3L26.9,41.0L26.6,38.5L22.9,36.2L27.8,19.7L28.0,14.7L29.3,13.1L33.2,12.8L32.7,16.4L37.0,16.5L41.3,19.1L43.2,21.2L43.3,21.1L42.5,17.2L41.2,16.0L40.5,11.2L43.8,7.3L47.4,5.3L56.1,4.6L56.1,4.6L56.5,4.4L57.5,3.7L57.8,3.3L58.3,0.4L58.1,0.0L21.6,0.0L21.2,3.4L19.2,4.8L20.8,9.4L23.0,11.4L25.1,21.7L23.1,27.6L21.5,29.7L20.4,33.3L19.6,35.5Z " data-iso="THA" data-name="Thailand" data-pop="65905410.0"/><path d="M163.0,125.3L162.1,125.8L163.5,126.2L164.2,125.5L164.3,124.8L163.0,125.3Z M166.8,123.2L168.1,124.1L167.9,124.5L167.8,126.3L168.5,125.7L178.8,120.3L177.9,118.9L169.2,121.0L167.4,122.7L166.8,123.2Z " data-iso="TLS" data-name="East Timor" data-pop="1131612.0"/><path d="M69.0,0.1L68.9,0.4L68.9,1.0L69.0,1.3L68.9,7.6L67.2,14.5L61.7,18.8L59.6,19.0L58.4,23.1L56.4,23.7L51.1,27.4L51.6,27.7L53.6,30.4L53.0,36.2L60.4,31.8L58.6,28.6L62.6,29.7L66.5,25.4L70.6,23.1L76.0,18.9L78.8,9.6L78.0,7.9L77.4,0.0L68.9,0.0L69.0,0.1Z " data-iso="VNM" data-name="Vietnam" data-pop="86967524.0"/></g></svg>