<?xml version="1.0" encoding="UTF-8"?><!DOCTYPE svg  PUBLIC '-//W3C//DTD SVG 1.1//EN'  'http://www.w3.org/Graphics/SVG/1.1/DTD/svg11.dtd'><svg enable_background="new 0 0 450 451" height="451px" style="stroke-linejoin: round; stroke:#000; fill:#f6f3f0;" version="1.1" viewBox="0 0 450 451" width="450px" xmlns="http://www.w3.org/2000/svg" xmlns:xlink="http://www.w3.org/1999/xlink"><defs><style type="text/css"><![CDATA[path { fill-rule: evenodd; }
#context path { fill: #eee; stroke: #bbb; } ]]></style></defs><metadata><views><view h="451" padding="0.06" w="450"><proj id="laea" lat0="22.2997761093" lon0="57.2213481485"/><bbox h="130.54" w="102.03" x="933.35" y="944.09"/><llbbox lat0="-90" lat1="90" lon0="-180" lon1="180"/></view></views></metadata><g id="context"><path d="M151,111L148,108L142,110L140,111L151,113L151,111Z M101,105L102,103L101,101L101,105Z M128,107L133,103L132,101L123,106L125,107L128,107Z M235,33L233,39L230,44L214,56L210,61L206,65L205,67L197,75L183,85L180,89L172,104L169,107L166,108L160,112L150,115L146,116L128,114L116,112L102,111L96,112L86,117L81,118L73,117L68,113L68,105L64,105L62,102L60,104L60,111L66,120L96,163L137,169L196,178L196,178L199,175L199,168L200,161L212,131L213,127L211,122L214,120L220,119L223,119L231,117L231,116L229,111L222,110L224,105L223,99L224,83L227,80L232,79L232,81L231,83L234,89L242,83L247,78L246,77L246,53L243,50L239,50L238,48L239,37L239,33L235,32L235,33Z M240,69L241,65L243,65L241,69L240,69Z " data-iso="ARE"/><path d="M26,34L27,24L25,21L22,20L21,21L22,27L21,31L25,38L26,34Z " data-iso="BHR"/><path d="M224,0L215,5L208,7L210,10L215,9L220,6L231,5L237,0L224,0Z M446,67L447,63L448,50L450,41L450,0L271,0L273,6L274,20L278,29L278,34L283,44L298,47L301,50L306,48L309,50L316,52L321,53L329,52L339,54L349,60L356,59L364,57L371,60L378,60L381,61L386,60L401,63L405,58L408,59L409,62L411,64L428,68L440,71L444,67L446,67Z M142,0L145,3L150,4L159,3L166,5L176,9L181,13L185,13L190,11L200,4L206,1L211,2L214,0L142,0Z " data-iso="IRN"/><path d="M339,280L341,278L343,272L348,268L345,261L341,269L335,275L339,280Z M199,175L202,179L217,205L189,289L144,305L74,327L68,329L70,333L97,402L99,403L110,430L119,427L132,426L139,422L146,419L151,416L163,415L171,415L179,418L191,415L196,410L200,403L198,395L199,392L208,381L214,379L229,377L240,377L245,375L252,368L256,350L263,343L268,340L277,336L287,335L297,334L302,332L301,322L300,314L299,307L300,298L302,292L304,280L308,275L314,266L319,264L318,272L324,273L329,272L331,268L337,255L345,242L352,235L361,228L364,226L369,214L374,206L376,202L380,195L381,186L381,183L369,180L365,176L361,171L356,163L349,157L347,152L345,148L341,145L339,140L332,135L322,136L314,132L302,130L294,128L279,123L275,121L267,114L261,106L256,100L251,90L247,78L242,83L234,89L231,83L232,81L232,79L227,80L224,83L223,99L224,105L222,110L229,111L231,116L231,117L223,119L220,119L214,120L211,122L213,127L212,131L200,161L199,168L199,175Z M243,65L241,65L240,69L241,69L243,65Z M235,32L239,33L239,37L238,48L239,50L243,50L244,47L246,43L248,31L249,21L245,22L244,25L238,26L235,32Z " data-iso="OMN"/><path d="M446,67L450,68L450,41L448,50L447,63L446,67L446,67Z " data-iso="PAK"/><path d="M54,88L55,87L60,78L62,75L63,67L59,51L61,45L63,40L62,35L56,30L52,24L46,27L42,31L36,46L31,55L31,65L33,77L33,79L32,81L33,86L40,91L42,91L49,90L54,88Z " data-iso="QAT"/><path d="M68,329L74,327L144,305L189,289L217,205L202,179L199,175L196,178L196,178L137,169L96,163L66,120L60,111L60,104L59,104L50,101L55,91L52,92L49,90L42,91L40,91L33,86L32,81L29,78L27,74L23,68L21,59L19,54L13,47L12,45L10,39L5,24L10,24L12,16L11,12L6,6L5,0L0,0L0,336L17,334L27,333L59,330L68,329Z " data-iso="SAU"/><path d="M110,430L99,403L97,402L70,333L68,329L59,330L27,333L17,334L0,336L0,449L76,449L79,444L84,440L90,437L110,430Z " data-iso="YEM"/></g><g fill="red" fill-opacity="0.35" id="regions"><path d="M305,150L304,153L294,154L288,153L277,141L265,142L258,175L251,194L244,204L308,237L321,243L317,230L303,183L307,175L316,167L318,167L324,163L330,161L332,152L322,142L314,143L314,143L305,150Z " data-fips="MU02" data-fips-="MU01" data-iso3="OMN" data-name="Ad Dakhliyah"/><path d="M321,243L308,237L244,204L216,210L215,210L215,210L204,243L205,244L253,325L288,335L290,334L299,335L304,332L300,321L301,316L300,313L298,308L299,306L297,301L302,291L304,285L303,281L305,278L308,276L309,272L313,269L313,266L319,264L320,264L325,245L325,245L321,243Z " data-fips="MU02" data-fips-="MU03" data-iso3="OMN" data-name="Al Wusta"/><path d="M336,282L341,277L342,273L344,270L348,267L346,263L346,261L344,264L340,271L338,271L335,275L335,282L336,282Z M330,161L324,163L318,167L316,167L307,175L303,183L317,230L321,243L325,245L325,245L320,264L320,265L318,272L319,273L324,274L326,274L330,272L332,266L336,258L336,256L339,252L341,250L343,245L346,241L351,235L357,231L362,228L363,226L367,220L369,215L373,208L374,207L378,199L380,196L381,192L382,185L381,183L373,180L369,180L367,178L360,169L358,167L355,171L342,169L330,161Z " data-fips="MU01" data-fips-="MU04" data-iso3="OMN" data-name="Ash Sharqiyah"/><path d="M288,335L253,325L205,244L204,243L189,289L68,329L97,402L99,403L111,430L114,428L121,427L132,426L133,425L138,421L147,420L148,417L151,415L155,416L165,415L167,415L175,416L176,418L180,419L189,415L189,416L197,410L201,399L198,393L199,391L204,387L207,381L215,379L226,379L231,377L234,377L237,376L243,377L247,373L252,367L255,355L256,349L261,344L266,340L273,338L278,336L288,335Z " data-fips="MU02" data-fips-="MU08" data-iso3="OMN" data-name="Dhofar"/><path d="M225,81L224,82L224,88L225,93L224,94L223,99L224,103L222,110L228,110L229,111L231,116L223,119L222,119L218,119L212,121L213,125L213,130L210,139L206,144L205,150L201,157L200,161L200,168L199,175L216,204L216,206L215,210L215,210L216,210L244,204L251,194L258,175L265,142L265,141L261,127L250,117L244,114L243,110L240,97L226,80L225,81Z " data-fips="AE02" data-fips-="MU05" data-iso3="OMN" data-name="Al Dhahira"/><path d="M226,80L240,97L243,110L244,114L250,117L261,127L265,141L265,142L277,141L288,153L294,154L304,153L305,150L314,143L313,139L314,133L314,132L312,132L305,132L290,127L283,125L277,123L268,115L264,111L263,107L258,102L255,99L251,90L250,87L247,82L247,79L238,85L235,89L235,89L232,83L232,81L229,78L226,80L226,80Z " data-fips="AE04" data-fips-="MU02" data-iso3="OMN" data-name="Al Batnah"/><path d="M246,19L246,23L248,26L241,26L239,25L236,31L235,32L238,32L239,34L239,40L237,43L239,45L237,46L240,52L241,51L244,45L246,43L249,37L248,34L250,31L246,31L246,27L250,29L247,24L251,20L249,21L246,19Z " data-fips="MU07" data-fips-="" data-iso3="OMN" data-name="Musandam"/><path d="M358,166L349,156L348,153L345,148L341,144L339,139L335,138L332,135L328,135L328,135L319,135L318,134L314,132L314,132L314,133L313,139L314,143L314,143L322,142L332,152L330,161L342,169L355,171L358,167L358,166Z " data-fips="MU02" data-fips-="MU06" data-iso3="OMN" data-name="Muscat"/><path d="M242,68L242,65L241,65L240,68L242,68Z " data-fips="MU00" data-fips-="" data-iso3="OMN" data-name="Fujayrah"/></g></svg>