<?xml version="1.0" encoding="UTF-8"?><!DOCTYPE svg  PUBLIC '-//W3C//DTD SVG 1.1//EN'  'http://www.w3.org/Graphics/SVG/1.1/DTD/svg11.dtd'><svg enable_background="new 0 0 450 451" height="451px" style="stroke-linejoin: round; stroke:#000; fill:#f6f3f0;" version="1.1" viewBox="0 0 450 451" width="450px" xmlns="http://www.w3.org/2000/svg" xmlns:xlink="http://www.w3.org/1999/xlink"><defs><style type="text/css"><![CDATA[path { fill-rule: evenodd; }
#context path { fill: #eee; stroke: #bbb; } ]]></style></defs><metadata><views><view h="451" padding="0.06" w="450"><proj id="laea" lat0="28.4763500028" lon0="65.604929743"/><bbox h="188.87" w="194.08" x="938.67" y="880.23"/><llbbox lat0="-90" lat1="90" lon0="-180" lon1="180"/></view></views></metadata><g id="context"><path d="M191,34L191,33L190,33L181,33L179,33L176,30L170,29L163,30L162,30L154,28L146,23L143,26L141,32L130,33L124,36L117,58L113,61L102,67L89,72L83,80L83,83L74,89L69,88L64,90L60,85L58,83L47,82L43,77L41,77L41,79L39,86L36,99L33,104L27,107L31,114L25,114L21,120L21,127L20,131L24,135L30,137L25,142L21,147L21,151L27,173L25,180L25,190L46,198L48,201L49,207L48,214L31,234L24,241L33,245L62,255L64,256L91,254L101,256L105,257L109,254L115,252L130,252L156,244L160,240L158,238L160,230L159,222L162,213L167,210L170,205L177,202L179,204L183,205L187,204L194,201L190,196L194,195L201,191L206,187L208,188L215,187L220,191L222,192L229,186L231,183L230,169L235,157L236,152L241,149L246,149L254,143L254,141L248,131L244,126L244,123L246,122L256,124L262,124L267,123L271,121L272,119L272,112L269,107L280,94L283,88L281,85L282,80L275,66L272,64L272,61L281,52L284,52L285,50L293,44L303,39L329,36L333,37L339,35L344,32L347,31L346,31L342,27L346,25L353,24L354,24L354,24L348,20L345,21L339,20L337,23L328,26L326,26L327,21L321,20L315,22L309,27L306,29L304,34L297,35L292,38L285,44L280,44L275,32L277,9L271,10L271,3L270,0L255,0L251,7L246,12L248,16L246,21L245,22L234,21L231,22L229,32L226,35L219,29L206,35L199,40L196,40L192,35L191,34Z " data-iso="AFG"/><path d="M450,150L450,151L450,151L450,150L450,150Z M354,24L353,24L346,25L342,27L346,31L347,31L348,30L350,30L355,32L356,32L365,32L371,36L373,37L378,40L381,46L382,52L381,56L384,57L389,62L396,59L396,62L401,65L401,65L404,66L414,68L418,69L424,68L426,67L426,67L426,68L428,68L432,67L432,74L440,90L441,91L449,93L450,93L450,0L350,0L354,9L353,14L358,18L359,19L355,24L354,24Z " data-iso="CHN"/><path d="M950,819L948,822L944,815L943,815L947,808L948,809L950,815L950,819Z M944,805L941,808L940,807L942,804L944,805Z M934,792L932,792L930,789L932,788L934,792Z M912,759L909,758L911,757L912,759Z M899,720L895,721L894,716L898,711L900,716L899,720Z M907,675L909,679L907,678L907,675Z M901,691L896,687L895,682L897,678L898,668L897,662L898,658L897,655L898,648L898,648L898,642L898,638L899,634L902,632L902,638L904,640L903,645L901,646L904,661L901,665L903,672L900,678L902,688L901,691Z M209,415L215,412L224,411L224,403L245,402L252,405L255,404L259,401L271,397L272,401L274,402L278,401L280,399L284,397L282,392L284,389L277,374L273,368L273,362L270,360L269,361L262,360L258,355L259,338L256,335L248,334L241,330L242,320L243,319L251,310L257,299L263,294L269,296L270,299L274,302L276,302L286,298L292,297L300,294L302,288L306,283L310,272L311,271L325,262L330,252L332,246L335,235L341,232L348,226L347,220L349,217L354,210L363,202L361,199L361,189L359,182L361,177L364,175L376,169L377,166L375,162L368,160L364,161L360,157L360,152L353,153L351,148L343,140L346,132L341,127L341,126L347,121L347,119L344,118L340,118L340,111L336,108L339,99L347,96L370,98L374,100L380,100L388,95L391,95L397,92L400,92L403,90L404,87L407,85L409,81L410,80L412,78L421,71L424,69L426,67L426,68L428,68L432,67L432,74L440,90L441,91L449,93L452,94L457,98L457,102L453,106L455,113L456,122L464,128L466,135L468,136L469,147L466,153L463,154L457,148L450,149L450,150L450,151L451,152L453,159L460,166L459,170L463,175L462,181L464,185L468,183L468,180L471,181L479,189L482,191L489,191L497,195L499,196L500,201L502,201L521,208L521,210L519,210L513,217L508,224L506,234L506,240L503,246L503,250L513,256L515,255L532,262L536,266L541,269L551,273L555,271L567,277L571,275L574,280L589,282L592,279L602,280L604,278L608,276L622,279L625,286L637,290L638,292L641,292L650,288L654,294L660,292L666,292L679,294L688,293L693,294L696,292L706,290L711,290L713,280L710,274L706,261L707,248L706,245L712,242L716,239L722,240L724,247L723,254L724,257L727,260L725,264L727,267L729,270L737,272L741,271L748,273L751,273L761,269L762,266L766,264L773,266L776,266L785,263L799,260L806,256L806,243L801,239L799,241L792,239L792,233L800,232L803,229L806,227L810,226L816,221L814,217L822,208L824,206L825,199L835,194L840,190L841,185L843,184L846,178L853,171L857,174L867,174L870,174L875,170L875,169L882,161L885,158L894,163L890,168L892,173L896,168L899,168L903,174L899,183L902,187L902,185L916,184L918,182L924,185L927,190L927,194L925,195L919,204L921,210L927,216L928,218L922,217L916,214L902,222L900,228L891,239L884,245L884,253L885,257L888,261L886,265L886,270L883,278L879,282L879,288L883,291L884,292L883,301L878,315L878,322L876,330L874,329L859,330L856,328L856,330L860,339L862,355L861,358L858,360L858,363L858,371L862,378L861,383L860,383L859,390L850,391L849,393L843,373L838,367L835,355L831,346L823,347L824,354L821,357L822,366L817,369L814,365L812,364L811,367L808,360L804,355L804,344L807,338L816,333L819,333L820,328L823,326L824,317L824,311L829,311L829,308L826,307L818,304L810,306L799,308L778,313L773,314L760,310L760,305L758,297L758,294L753,287L749,295L741,293L739,290L737,285L735,288L732,290L728,290L727,288L720,283L720,286L721,287L717,295L715,302L715,304L730,313L734,312L737,316L740,317L739,320L728,322L727,329L726,332L721,332L720,338L722,342L723,344L733,346L739,347L740,355L738,365L744,371L744,376L750,377L748,382L751,387L752,393L757,403L758,413L756,413L760,421L758,421L755,419L753,424L751,420L751,412L747,409L747,418L748,423L745,425L741,422L740,425L736,426L734,424L736,414L735,412L731,421L725,427L713,433L710,434L707,439L705,443L705,447L709,457L706,467L706,470L700,475L698,480L694,484L685,489L678,493L677,488L674,487L669,492L669,497L672,494L674,495L669,499L658,512L652,526L645,535L644,539L632,547L626,556L621,562L616,567L606,573L600,579L599,583L601,588L599,595L596,597L586,603L576,603L573,604L572,607L570,616L566,622L562,622L561,619L557,619L550,623L548,625L543,637L543,644L545,652L547,661L548,665L546,669L553,689L549,683L546,686L548,688L553,690L555,692L553,712L551,719L547,725L544,733L542,745L543,748L541,752L544,751L545,755L546,767L547,780L544,781L538,781L534,782L530,786L531,790L524,801L523,804L525,810L531,812L524,812L509,818L502,825L501,832L501,836L499,840L491,846L484,850L478,848L468,842L458,830L456,829L451,819L448,814L445,800L449,806L450,811L452,811L448,800L442,789L435,777L433,769L429,761L423,751L413,742L405,728L403,720L400,714L394,692L391,687L387,674L374,659L372,652L370,650L373,650L368,645L370,642L364,637L360,632L355,620L352,599L349,590L349,587L346,580L342,567L340,555L343,548L342,544L340,548L338,549L337,546L337,540L342,541L337,538L337,534L335,532L333,525L333,518L337,504L337,496L333,488L332,487L329,479L334,474L340,471L327,472L328,464L326,464L326,459L333,456L318,457L320,458L318,463L316,464L313,469L319,474L319,477L315,486L313,488L302,494L297,497L287,501L284,502L279,502L273,499L263,492L261,490L253,481L247,476L243,472L238,467L233,462L233,455L236,455L240,459L247,455L249,455L251,453L254,454L259,451L263,450L271,435L269,435L267,439L265,438L254,442L249,445L238,443L227,437L222,434L216,423L217,421L225,414L222,416L214,421L211,422L210,418L209,415Z " data-iso="IND"/><path d="M38,375L39,373L40,364L43,357L45,348L46,346L52,344L53,342L61,337L70,335L78,335L80,334L82,323L80,318L74,318L70,314L71,312L71,302L70,296L71,290L69,289L66,289L62,285L49,280L41,270L40,266L36,259L36,257L29,247L24,241L25,241L31,234L48,214L49,207L48,201L46,198L25,190L25,180L27,173L21,151L21,147L25,142L30,137L24,135L20,131L21,127L21,120L25,114L31,114L27,107L33,104L36,99L39,86L41,79L41,77L41,76L41,70L39,67L40,63L40,50L39,48L21,47L15,37L13,35L2,29L0,26L0,369L8,371L11,367L14,372L34,378L37,375L38,375Z " data-iso="IRN"/><path d="M424,68L418,69L414,68L404,66L401,65L403,67L405,71L408,78L410,80L412,78L421,71L424,69L426,67L424,68Z " data-iso="KAS"/><path d="M401,65L396,62L396,59L389,62L384,57L381,56L382,52L381,46L378,40L373,37L371,36L365,32L356,32L355,32L350,30L348,30L347,31L344,32L339,35L333,37L329,36L303,39L293,44L285,50L284,52L281,52L272,61L272,64L275,66L282,80L281,85L283,88L280,94L269,107L272,112L272,119L271,121L267,123L262,124L256,124L246,122L244,123L244,126L248,131L254,141L254,143L246,149L241,149L236,152L235,157L230,169L231,183L229,186L222,192L220,191L215,187L208,188L206,187L201,191L194,195L190,196L194,201L187,204L183,205L179,204L177,202L170,205L167,210L162,213L159,222L160,230L158,238L160,240L156,244L130,252L115,252L109,254L105,257L101,256L91,254L64,256L62,255L33,245L24,241L29,247L36,257L36,259L40,266L41,270L49,280L62,285L66,289L69,289L71,290L70,296L71,302L71,312L70,314L74,318L80,318L82,323L80,334L78,335L70,335L61,337L53,342L52,344L46,346L45,348L43,357L40,364L39,373L38,375L38,376L42,377L55,376L57,378L64,374L66,374L75,376L79,375L87,376L89,372L93,371L100,372L102,371L105,373L115,376L118,377L121,374L128,374L137,372L144,373L149,371L162,368L156,369L161,365L163,366L166,369L167,372L171,376L171,387L181,388L183,389L186,400L187,406L196,416L200,416L201,414L208,418L209,416L209,415L215,412L224,411L224,403L245,402L252,405L255,404L259,401L271,397L272,401L274,402L278,401L280,399L284,397L282,392L284,389L277,374L273,368L273,362L270,360L269,361L262,360L258,355L259,338L256,335L248,334L241,330L242,320L243,319L251,310L257,299L263,294L269,296L270,299L274,302L276,302L286,298L292,297L300,294L302,288L306,283L310,272L311,271L325,262L330,252L332,246L335,235L341,232L348,226L347,220L349,217L354,210L363,202L361,199L361,189L359,182L361,177L364,175L376,169L377,166L375,162L368,160L364,161L360,157L360,152L353,153L351,148L343,140L346,132L341,127L341,126L347,121L347,119L344,118L340,118L340,111L336,108L339,99L347,96L370,98L374,100L380,100L388,95L391,95L397,92L400,92L403,90L404,87L407,85L409,81L410,80L408,78L405,71L403,67L401,65L401,65Z " data-iso="PAK"/><path d="M354,24L355,24L359,19L358,18L353,14L354,9L350,0L270,0L271,3L271,10L277,9L275,32L280,44L285,44L292,38L297,35L304,34L306,29L309,27L315,22L321,20L327,21L326,26L328,26L337,23L339,20L345,21L348,20L354,24L354,24Z M191,34L192,35L196,40L199,40L206,35L219,29L226,35L229,32L231,22L234,21L245,22L246,21L248,16L246,12L251,7L255,0L200,0L204,4L204,7L193,25L192,32L191,34Z " data-iso="TJK"/><path d="M41,77L43,77L47,82L58,83L60,85L64,90L69,88L74,89L83,83L83,80L89,72L102,67L113,61L117,58L124,36L130,33L141,32L143,26L146,23L154,28L162,30L163,30L163,26L163,17L165,13L164,11L157,8L150,4L136,0L0,0L0,26L2,29L13,35L15,37L21,47L39,48L40,50L40,63L39,67L41,70L41,76L41,77Z " data-iso="TKM"/><path d="M163,30L170,29L176,30L179,33L181,33L190,33L191,33L191,34L192,32L193,25L204,7L204,4L200,0L136,0L150,4L157,8L164,11L165,13L163,17L163,26L163,30Z " data-iso="UZB"/></g><g fill="red" fill-opacity="0.35" id="regions"><path d="M232,183L230,184L228,189L218,190L217,188L212,187L213,189L204,187L200,191L197,193L193,196L190,195L192,199L194,199L194,201L188,204L181,205L178,204L177,202L174,202L169,205L165,212L161,213L159,222L159,233L158,236L160,241L157,244L128,253L123,252L114,252L102,256L91,254L62,255L25,242L27,245L34,255L36,256L39,264L39,265L41,270L48,279L57,283L61,284L66,289L70,289L70,296L71,301L71,312L69,317L73,319L80,317L84,321L82,323L82,327L80,330L80,334L75,335L69,335L65,337L61,337L58,338L56,342L45,347L43,357L41,359L41,361L39,373L38,375L42,380L45,380L45,378L52,378L51,376L55,375L57,376L56,378L62,374L69,374L76,376L79,375L88,376L87,375L90,372L96,372L98,373L103,372L109,374L112,376L114,375L116,375L116,378L118,377L120,373L130,374L139,372L143,373L149,371L162,369L164,370L161,367L155,369L158,366L164,366L166,368L167,373L171,376L172,377L171,386L171,386L182,375L183,371L188,363L189,358L189,351L183,338L182,335L181,316L182,311L189,300L195,299L201,296L203,293L208,289L218,282L222,283L234,282L237,281L236,279L237,278L241,272L240,268L245,263L244,258L241,254L242,248L248,243L252,232L249,229L252,221L252,218L253,217L256,212L256,207L256,206L256,198L251,197L251,199L248,195L247,186L248,183L245,183L246,182L244,179L241,180L240,181L233,183L232,183L232,183Z " data-fips="PK02" data-fips-="" data-iso3="PAK" data-name="Baluchistan" data-p="BA"/><path d="M342,86L341,87L340,92L337,95L335,95L331,103L328,102L327,106L329,117L330,119L330,119L331,121L332,129L333,130L333,135L332,136L333,140L335,143L338,146L342,146L343,147L351,151L352,151L351,147L348,146L343,141L343,139L345,137L346,132L346,131L342,128L341,125L348,119L338,116L341,112L340,110L336,109L335,108L339,99L346,96L355,97L364,98L368,97L368,97L368,92L366,91L358,92L355,91L349,85L343,86L342,86Z " data-fips="PK06" data-fips-="" data-iso3="PAK" data-name="Azad Kashmir" data-p="JK"/><path d="M314,129L314,130L315,132L319,130L323,134L324,132L325,127L321,125L321,125L321,125L320,126L319,126L318,127L316,127L314,129Z " data-fips="PK08" data-fips-="PK06" data-iso3="PAK" data-name="F.C.T." data-p="IS"/><path d="M328,36L332,40L321,40L319,41L314,42L312,49L310,49L310,52L306,55L303,57L302,60L304,63L302,66L306,67L309,67L313,66L316,66L319,72L324,75L332,75L333,77L331,80L332,82L338,84L342,86L342,86L343,86L349,85L355,91L358,92L366,91L368,92L368,97L369,98L372,100L378,101L382,100L387,95L393,94L397,91L399,92L404,88L403,87L407,86L410,83L410,80L426,67L416,69L413,68L410,68L408,67L406,67L403,65L397,63L395,60L391,62L380,55L381,45L378,40L371,36L368,38L366,33L359,31L357,31L354,33L352,31L347,31L346,33L345,31L343,32L336,38L329,36L328,36Z " data-fips="PK07" data-fips-="" data-iso3="PAK" data-name="Northern Areas" data-p="GB"/><path d="M277,96L274,101L271,103L271,106L269,107L271,111L273,112L273,117L271,121L265,124L258,124L252,124L247,122L243,125L246,131L249,131L251,134L251,136L254,142L250,146L249,146L248,148L244,149L236,151L235,152L236,156L233,160L234,160L233,165L230,168L231,180L232,183L232,183L233,183L240,181L241,180L244,179L246,182L245,183L248,183L247,186L248,195L251,199L251,197L256,198L256,206L256,207L256,207L256,204L257,204L260,203L260,202L255,188L253,180L252,180L250,175L254,171L256,171L260,166L262,165L257,160L257,156L261,150L263,150L267,148L268,145L264,144L259,140L259,139L265,134L273,134L274,132L274,129L277,131L285,132L288,134L291,132L290,130L291,128L288,126L284,129L279,118L278,118L283,111L284,111L285,104L288,100L283,99L282,97L279,95L277,96Z " data-fips="PK01" data-fips-="" data-iso3="PAK" data-name="F.A.T.A." data-p="TA"/><path d="M260,202L260,203L257,204L256,204L256,207L256,207L256,212L253,217L252,218L252,221L249,229L252,232L248,243L242,248L241,254L244,258L245,263L240,268L241,272L237,278L236,279L237,281L240,280L247,283L251,293L258,298L258,297L261,295L265,293L269,297L271,302L273,302L277,302L282,299L289,297L293,297L300,294L303,286L306,283L312,270L325,262L328,256L332,247L335,235L339,233L343,231L345,230L348,225L345,222L350,217L351,214L356,206L360,204L364,200L360,198L361,192L360,185L358,182L359,180L370,171L370,171L374,170L377,167L378,164L374,162L369,160L367,161L360,158L360,150L356,153L352,153L351,151L351,151L343,147L342,146L338,146L335,143L333,140L332,136L333,135L333,130L332,129L331,121L330,119L330,119L330,118L326,122L321,125L321,125L321,125L325,127L324,132L323,134L319,130L315,132L314,130L314,129L316,127L316,127L314,126L315,125L313,122L310,124L307,121L300,122L300,127L296,127L295,129L294,133L291,138L289,139L288,141L289,144L288,148L287,148L284,144L282,143L283,149L282,150L276,153L276,159L276,162L278,162L279,165L281,167L276,176L276,178L273,182L270,192L271,196L266,200L264,199L260,202L260,202Z " data-fips="PK04" data-fips-="PK08" data-iso3="PAK" data-name="Punjab" data-p="PB"/><path d="M237,281L234,282L222,283L218,282L208,289L203,293L201,296L195,299L189,300L182,311L181,316L182,335L183,338L189,351L189,358L188,363L183,371L182,375L171,386L170,386L170,387L175,387L182,388L185,390L183,391L185,394L184,396L185,398L187,407L190,409L192,414L195,415L196,413L201,416L201,414L205,416L207,419L211,414L215,412L224,411L224,402L227,403L228,401L230,403L232,402L236,403L238,402L251,405L256,405L258,403L260,400L270,397L273,402L278,401L279,400L285,397L282,395L282,390L284,389L282,385L279,380L278,376L275,372L272,368L273,362L271,360L268,361L262,360L257,354L257,349L258,347L256,335L250,336L246,333L242,331L241,329L242,322L243,318L248,314L253,307L256,300L258,298L251,293L247,283L240,280L237,281Z " data-fips="PK05" data-fips-="" data-iso3="PAK" data-name="Sind" data-p="SD"/><path d="M326,36L318,37L316,37L309,39L302,40L293,45L291,46L285,50L284,51L279,54L280,55L274,59L271,63L273,66L277,69L279,71L279,76L282,77L283,81L281,84L283,88L280,95L279,95L282,97L283,99L288,100L285,104L284,111L283,111L278,118L279,118L284,129L288,126L291,128L290,130L291,132L288,134L285,132L277,131L274,129L274,132L273,134L265,134L259,139L259,140L264,144L268,145L267,148L263,150L261,150L257,156L257,160L262,165L260,166L256,171L254,171L250,175L252,180L253,180L255,188L260,202L260,202L264,199L266,200L271,196L270,192L273,182L276,178L276,176L281,167L279,165L278,162L276,162L276,159L276,153L282,150L283,149L282,143L284,144L287,148L288,148L289,144L288,141L289,139L291,138L294,133L295,129L296,127L300,127L300,122L307,121L310,124L313,122L315,125L314,126L316,127L316,127L318,127L319,126L320,126L321,125L321,125L321,125L326,122L330,118L330,119L329,117L327,106L328,102L331,103L335,95L337,95L340,92L341,87L342,86L342,86L338,84L332,82L331,80L333,77L332,75L324,75L319,72L316,66L313,66L309,67L306,67L302,66L304,63L302,60L303,57L306,55L310,52L310,49L312,49L314,42L319,41L321,40L332,40L328,36L326,36Z " data-fips="PK03" data-fips-="" data-iso3="PAK" data-name="N.W.F.P." data-p="KP"/></g></svg>