<?xml version="1.0" encoding="UTF-8"?><!DOCTYPE svg  PUBLIC '-//W3C//DTD SVG 1.1//EN'  'http://www.w3.org/Graphics/SVG/1.1/DTD/svg11.dtd'><svg enable_background="new 0 0 450 301" height="301px" style="stroke-linejoin: round; stroke:#000; fill:#f6f3f0;" version="1.1" viewBox="0 0 450 301" width="450px" xmlns="http://www.w3.org/2000/svg" xmlns:xlink="http://www.w3.org/1999/xlink"><defs><style type="text/css"><![CDATA[path { fill-rule: evenodd; }
#context path { fill: #eee; stroke: #bbb; } ]]></style></defs><metadata><views><view h="301.0" padding="0.06" w="450"><proj id="laea" lat0="8.45896719033" lon0="-82.5171092665"/><bbox h="38.59" w="80.6" x="989.13" y="981.16"/><llbbox lat0="-90" lat1="90" lon0="-180" lon1="180"/></view></views></metadata><g id="context"><path d="M411,131L406,137L404,142L409,147L410,152L413,158L418,163L423,174L424,178L422,181L418,183L414,188L413,194L413,197L401,206L397,208L395,207L392,202L389,198L385,197L385,200L387,209L385,212L381,215L376,230L383,236L391,248L394,255L397,257L402,267L408,267L413,275L414,279L411,295L406,295L406,299L450,299L450,181L446,182L442,178L443,174L447,170L441,166L437,159L428,148L419,142L413,132L411,131Z M450,132L444,133L442,136L449,144L450,147L450,132Z " data-iso="COL"/><path d="M36,174L36,170L31,161L26,157L28,153L37,147L38,145L39,140L38,135L33,128L36,123L41,120L45,113L43,110L36,106L32,106L32,93L32,79L37,74L39,70L41,69L52,75L54,74L58,70L54,67L43,64L41,59L37,57L26,41L19,38L4,19L0,12L0,129L1,129L8,133L17,138L19,144L19,154L25,159L31,166L36,174Z M0,149L8,151L8,144L0,137L0,149Z " data-iso="CRI"/><path d="M123,225L122,221L117,218L116,214L118,211L115,205L109,207L106,212L106,216L112,222L119,225L123,225Z M296,160L292,160L293,163L296,160Z M307,159L310,157L311,153L310,147L303,147L303,155L306,161L307,159Z M80,83L74,81L79,87L80,83Z M58,70L54,74L52,75L41,69L39,70L37,74L32,79L32,93L32,106L36,106L43,110L45,113L41,120L36,123L33,128L38,135L39,140L38,145L37,147L28,153L26,157L31,161L36,170L36,174L38,172L37,162L43,158L50,156L60,159L71,160L80,157L81,163L85,165L89,163L98,164L106,167L115,169L118,177L130,198L139,201L146,204L149,205L151,201L152,192L153,188L160,185L162,198L170,217L171,228L175,232L187,232L203,228L207,225L209,221L213,218L225,217L232,213L230,206L227,201L215,188L208,178L201,173L201,169L201,164L207,158L219,157L224,154L249,137L245,134L249,129L253,119L261,116L266,111L270,108L283,107L294,109L303,113L310,119L316,121L320,125L326,128L333,134L337,146L341,153L343,152L343,149L341,142L345,145L351,146L353,150L362,143L365,150L368,154L379,162L385,167L380,166L372,161L365,157L361,151L359,150L356,154L349,160L351,167L347,172L340,173L343,184L358,208L374,228L376,230L381,215L385,212L387,209L385,200L385,197L389,198L392,202L395,207L397,208L401,206L413,197L413,194L414,188L418,183L422,181L424,178L423,174L418,163L413,158L410,152L409,147L404,142L406,137L411,131L389,115L379,103L362,92L333,80L320,78L304,79L301,77L299,73L292,72L285,72L276,70L260,68L255,71L251,76L242,83L233,85L223,95L195,104L186,108L175,117L160,122L150,124L140,125L127,122L115,108L109,105L107,101L103,100L103,102L107,107L111,113L108,114L103,113L91,114L87,111L79,108L80,100L82,95L77,97L73,95L70,86L71,80L62,74L58,70Z " data-iso="PAN"/></g><g fill="red" fill-opacity="0.35" id="regions"><path d="M72,173L74,172L73,170L72,173Z M81,164L77,163L75,165L79,167L81,164Z M74,160L72,158L67,162L70,164L75,162L73,161L74,160Z M119,179L121,176L123,169L129,161L129,155L129,152L129,152L127,152L124,153L119,159L117,158L114,160L111,160L108,157L106,156L99,156L96,155L95,151L87,148L85,148L84,145L86,140L86,136L86,130L85,126L85,126L83,125L74,124L71,123L66,120L60,119L57,117L53,116L49,117L47,115L46,117L44,118L37,121L36,125L34,126L38,135L39,145L38,147L35,149L25,156L24,157L28,160L31,161L32,164L35,172L35,175L38,174L36,169L36,164L37,161L41,158L46,157L54,157L63,159L65,159L64,157L67,158L72,155L77,155L80,157L81,155L82,155L81,163L84,165L85,164L86,168L88,164L95,163L104,167L111,170L113,168L113,165L118,174L115,173L117,177L117,175L118,178L119,179Z " data-fips="PM02" data-fips-="" data-iso3="PAN" data-name="Chiriqu"/><path d="M222,112L220,108L218,107L217,110L208,118L197,114L196,120L193,125L189,125L186,127L185,131L185,133L183,136L182,136L181,138L179,140L176,141L181,147L183,154L185,157L184,163L182,166L182,167L186,169L187,170L191,169L195,171L197,170L200,172L200,172L200,164L200,163L207,156L208,158L217,157L227,152L230,151L226,146L223,126L221,121L221,117L223,115L223,113L222,112Z " data-fips="PM03" data-fips-="" data-iso3="PAN" data-name="Cocl"/><path d="M294,71L286,72L279,70L268,70L264,68L263,66L254,71L256,71L250,78L246,80L246,85L241,82L240,85L239,85L238,88L236,87L236,84L234,85L229,91L225,94L198,102L184,110L181,111L178,116L174,118L173,118L174,121L177,123L180,125L183,128L182,131L183,134L182,136L183,136L185,133L185,131L186,127L189,125L193,125L196,120L197,114L208,118L217,110L218,107L220,108L222,112L223,113L226,110L231,111L233,111L236,107L235,103L237,97L239,96L245,98L246,100L249,102L252,101L256,98L257,96L261,93L261,92L263,85L263,84L264,78L267,77L273,82L279,80L282,81L284,85L283,86L283,87L289,83L292,78L295,77L295,71L294,71Z " data-fips="PM04" data-fips-="" data-iso3="PAN" data-name="Coln"/><path d="M186,169L184,169L182,169L180,171L174,174L175,178L168,185L170,194L173,199L178,207L182,209L183,211L187,207L191,201L195,197L193,191L195,189L199,184L203,183L206,181L207,178L206,178L202,176L201,176L199,173L200,172L197,170L195,171L191,169L187,170L186,169Z " data-fips="PM06" data-fips-="" data-iso3="PAN" data-name="Herrera"/><path d="M192,231L200,230L203,230L208,223L208,221L210,219L215,218L214,217L223,218L232,215L232,209L229,203L223,195L219,191L212,186L209,179L207,178L206,181L203,183L199,184L195,189L193,191L195,197L191,201L187,207L183,211L183,213L185,219L187,225L188,225L191,231L192,231Z " data-fips="PM07" data-fips-="" data-iso3="PAN" data-name="Los Santos"/><path d="M294,163L295,160L294,156L292,160L293,163L294,163Z M307,146L303,147L304,151L303,152L303,157L305,158L307,162L308,162L306,158L310,157L312,155L310,146L307,146Z M223,113L223,115L221,117L221,121L223,126L226,146L230,151L234,147L239,143L250,137L249,136L243,135L249,130L249,123L253,119L252,118L259,116L262,116L262,113L267,110L274,108L278,108L281,107L293,108L294,105L292,103L294,102L296,100L300,99L297,101L293,103L295,106L294,109L296,111L300,111L309,116L310,120L311,121L314,121L314,118L317,120L324,129L326,129L327,131L334,134L335,137L335,138L336,142L335,145L337,146L340,153L341,153L340,150L338,140L337,139L339,128L338,120L344,119L347,121L352,117L358,115L362,112L363,107L365,104L365,103L364,101L358,99L358,96L357,94L356,95L350,95L348,90L345,92L335,87L332,84L331,85L326,86L319,83L311,84L307,85L304,85L304,86L295,90L293,88L288,87L284,89L282,87L283,86L284,85L282,81L279,80L273,82L267,77L264,78L263,84L263,85L261,92L261,93L257,96L256,98L252,101L249,102L246,100L245,98L239,96L237,97L235,103L236,107L233,111L231,111L226,110L223,113Z " data-fips="PM08" data-fips-="" data-iso3="PAN" data-name="Panama"/><path d="M109,227L109,229L110,232L109,227Z M161,209L162,208L158,207L154,209L152,211L147,214L156,210L159,211L161,209Z M114,203L112,205L108,208L106,212L104,212L107,218L115,224L118,224L120,225L124,224L122,220L118,220L116,213L118,213L118,211L114,203Z M171,118L162,122L160,122L153,124L149,124L149,126L150,131L149,136L151,140L153,144L152,145L139,140L136,140L131,137L131,140L128,149L129,152L129,155L129,161L123,169L121,176L119,179L120,180L122,183L122,186L126,189L124,192L125,195L127,196L131,196L128,198L134,199L137,201L144,203L149,205L151,204L148,199L149,197L152,195L153,193L152,189L158,189L161,185L161,191L163,191L158,193L163,196L161,198L162,201L166,206L166,207L168,209L167,212L170,216L170,220L172,221L170,228L169,229L172,231L173,233L184,232L191,231L188,225L187,225L185,219L183,213L183,211L182,209L178,207L173,199L170,194L168,185L175,178L174,174L180,171L182,169L184,169L186,169L182,167L182,166L184,163L185,157L183,154L181,147L176,141L179,140L181,138L182,136L183,134L182,131L183,128L180,125L177,123L174,121L173,118L171,118Z " data-fips="PM10" data-fips-="" data-iso3="PAN" data-name="Veraguas"/><path d="M365,103L365,104L363,107L362,112L358,115L352,117L347,121L344,119L338,120L339,128L337,139L338,140L340,150L341,153L341,153L342,154L344,150L342,148L340,141L341,139L344,148L347,144L348,146L350,146L351,143L352,144L352,147L353,147L354,143L355,145L352,148L355,150L358,145L360,146L362,149L363,142L362,144L365,148L364,149L366,156L370,158L376,159L381,165L375,160L371,159L371,160L367,159L366,156L360,152L360,149L358,150L358,152L356,155L356,156L350,158L351,158L348,160L352,165L352,169L349,172L347,173L345,172L342,172L339,174L341,181L350,194L349,198L353,201L356,207L357,206L359,211L367,219L369,219L368,222L376,229L383,213L387,209L385,202L385,199L387,196L396,209L400,208L403,204L412,198L414,195L412,194L411,191L417,183L423,181L426,181L423,176L421,169L419,166L418,165L408,168L400,171L399,171L395,166L394,163L387,159L387,157L383,153L381,149L381,145L379,142L378,142L375,134L380,126L384,124L389,123L389,123L389,123L389,122L385,118L379,115L378,112L374,108L367,103L365,103Z M353,172L356,171L361,176L363,179L363,183L367,180L368,182L373,201L373,203L370,205L367,204L364,204L360,199L357,200L352,196L351,193L346,181L351,177L353,178L355,177L353,172Z " data-fips="PM05" data-fips-="" data-iso3="PAN" data-name="Darin"/><path d="M295,71L295,77L292,78L289,83L283,87L283,86L282,87L284,89L288,87L293,88L295,90L304,86L304,85L307,85L311,84L319,83L326,86L331,85L332,84L335,87L345,92L348,90L350,95L356,95L357,94L358,96L358,99L364,101L365,103L367,103L374,108L378,112L379,115L385,118L389,122L389,123L389,124L402,137L405,139L406,137L411,130L404,130L402,129L400,124L393,118L394,121L388,116L385,111L386,110L382,106L382,105L378,102L378,104L372,99L370,95L366,92L362,91L343,85L335,80L329,79L327,80L324,79L315,78L312,80L312,79L309,81L306,80L305,78L296,79L296,78L297,73L303,71L301,71L295,71L295,71Z " data-fips="PM09" data-fips-="" data-iso3="PAN" data-name="Kuna Yala"/><path d="M83,86L81,86L85,87L86,93L88,90L91,90L88,87L83,86Z M79,86L80,82L78,79L74,81L79,86Z M47,115L49,117L53,116L57,117L60,119L66,120L71,123L73,116L72,113L66,110L72,105L73,102L75,102L77,104L74,107L75,110L82,113L82,115L84,120L87,117L94,116L95,113L95,113L89,114L87,112L84,110L83,110L79,109L80,104L78,98L79,98L84,100L83,96L81,95L80,95L79,97L77,96L72,95L71,93L72,89L70,87L73,80L71,81L68,80L64,76L57,70L54,73L54,75L49,75L43,70L36,70L38,75L37,76L34,77L32,80L32,105L41,110L44,111L47,115L47,115Z " data-fips="PM01" data-fips-="" data-iso3="PAN" data-name="Bocas del Toro"/><path d="M95,113L94,116L87,117L84,120L82,115L82,113L75,110L74,107L77,104L75,102L73,102L72,105L66,110L72,113L73,116L71,123L71,123L74,124L83,125L85,126L85,126L86,130L86,136L86,140L84,145L85,148L87,148L95,151L96,155L99,156L106,156L108,157L111,160L114,160L117,158L119,159L124,153L127,152L129,152L129,152L128,149L131,140L131,137L136,140L139,140L152,145L153,144L151,140L149,136L150,131L149,126L149,124L148,124L137,124L135,124L132,123L124,120L121,117L115,108L111,106L108,105L107,102L109,102L102,97L105,100L105,101L107,107L111,110L110,114L105,113L103,112L99,114L96,113L95,113Z " data-fips="PM01" data-fips-="PM07" data-iso3="PAN" data-name="Ngbe Bugl"/><path d="M361,176L356,171L353,172L355,177L353,178L351,177L346,181L351,193L352,196L357,200L360,199L364,204L367,204L370,205L373,203L373,201L368,182L367,180L363,183L363,179L361,176Z M417,162L411,156L410,149L409,147L406,144L403,144L404,140L405,139L402,137L389,124L389,123L389,123L389,123L384,124L380,126L375,134L378,142L379,142L381,145L381,149L383,153L387,157L387,159L394,163L395,166L399,171L400,171L408,168L418,165L417,162Z " data-fips="PM05" data-fips-="" data-iso3="PAN" data-name="Ember"/></g></svg>