<?xml version="1.0" encoding="UTF-8"?><!DOCTYPE svg  PUBLIC '-//W3C//DTD SVG 1.1//EN'  'http://www.w3.org/Graphics/SVG/1.1/DTD/svg11.dtd'><svg enable_background="new 0 0 450 451" height="451px" style="stroke-linejoin: round; stroke:#000; fill:#f6f3f0;" version="1.1" viewBox="0 0 450 451" width="450px" xmlns="http://www.w3.org/2000/svg" xmlns:xlink="http://www.w3.org/1999/xlink"><defs><style type="text/css"><![CDATA[path { fill-rule: evenodd; }
#context path { fill: #eee; stroke: #bbb; } ]]></style></defs><metadata><views><view h="451" padding="0.06" w="450"><proj id="laea" lat0="-6.36289295809" lon0="-80.0364747127"/><bbox h="245.43" w="171.3" x="974.6" y="912.9"/><llbbox lat0="-90" lat1="90" lon0="-180" lon1="180"/></view></views></metadata><g id="context"><path d="M346,266L349,271L365,301L363,305L358,310L357,324L355,328L359,340L352,348L350,352L348,353L348,358L351,362L347,369L347,369L349,371L351,373L353,375L354,376L355,377L355,378L355,379L358,379L359,380L357,382L357,383L358,385L362,385L363,386L363,387L359,390L356,390L356,390L357,392L357,394L355,393L353,392L351,396L343,405L340,407L342,414L342,414L342,416L345,420L347,424L350,426L350,432L353,449L450,449L450,293L446,291L445,287L442,286L438,274L440,270L438,258L441,253L442,250L440,240L433,241L421,242L414,244L410,245L395,254L389,259L382,260L378,263L375,266L367,270L364,268L354,266L349,266L346,266Z M352,385L354,386L357,385L356,384L354,383L353,382L352,382L352,385Z " data-iso="BOL"/><path d="M341,113L341,115L333,113L331,111L323,112L319,116L299,119L288,125L280,131L275,133L275,134L271,147L267,154L270,161L269,163L257,171L254,176L255,182L252,183L250,187L254,191L256,192L255,196L258,199L260,205L265,212L267,214L272,220L272,223L267,229L276,229L285,232L287,233L289,243L302,243L310,243L318,236L326,231L325,238L324,240L323,266L324,266L332,268L336,266L344,266L346,266L349,266L354,266L364,268L367,270L375,266L378,263L382,260L389,259L395,254L410,245L414,244L421,242L433,241L440,240L442,250L441,253L438,258L440,270L438,274L442,286L445,287L446,291L450,293L450,0L446,0L443,4L441,4L442,0L432,0L425,2L422,0L360,0L360,3L355,3L353,1L340,4L340,17L340,22L343,25L350,29L352,39L354,40L355,45L342,113L341,113Z " data-iso="BRA"/><path d="M342,414L340,415L335,418L335,425L334,427L330,431L322,432L323,433L323,438L323,443L324,449L353,449L350,432L350,426L347,424L345,420L342,416L342,414Z " data-iso="CHL"/><path d="M222,19L224,17L228,20L233,21L237,25L244,35L247,39L250,40L259,45L262,53L266,57L269,58L271,64L270,66L275,71L282,70L287,72L306,67L312,70L316,68L320,67L326,72L332,74L339,80L324,103L329,105L333,104L336,108L340,112L341,113L342,113L355,45L354,40L352,39L350,29L343,25L340,22L340,17L340,4L353,1L355,3L360,3L360,0L169,0L181,8L187,10L196,10L197,7L205,8L209,13L215,15L218,17L222,19Z " data-iso="COL"/><path d="M113,83L118,77L116,76L111,78L110,84L113,83Z M108,92L112,103L109,106L105,106L105,111L108,111L107,116L112,113L125,117L127,121L131,127L136,128L140,122L145,119L145,115L148,106L151,101L153,93L157,94L162,85L164,83L191,74L204,64L216,51L219,38L223,38L222,32L223,29L218,23L218,22L221,19L222,19L218,17L215,15L209,13L205,8L197,7L196,10L187,10L181,8L169,0L114,0L115,7L115,12L105,24L105,29L103,35L97,38L95,40L97,47L97,53L98,63L94,65L97,69L100,70L107,76L109,77L115,69L115,73L118,70L118,64L119,62L120,69L122,74L120,78L112,91L109,92L108,92Z " data-iso="ECU"/><path d="M340,112L336,108L333,104L329,105L324,103L339,80L332,74L326,72L320,67L316,68L312,70L306,67L287,72L282,70L275,71L270,66L271,64L269,58L266,57L262,53L259,45L250,40L247,39L244,35L237,25L233,21L228,20L224,17L222,19L221,19L218,22L218,23L223,29L222,32L223,38L219,38L216,51L204,64L191,74L164,83L162,85L157,94L153,93L151,101L148,106L145,115L145,119L140,122L136,128L131,127L127,121L125,117L112,113L107,116L108,111L105,111L105,106L109,106L112,103L108,92L104,95L98,100L95,103L88,111L87,113L86,121L91,129L89,132L94,139L96,143L93,148L91,147L90,152L97,158L113,166L121,175L124,180L125,183L130,193L138,201L140,205L143,210L143,213L150,227L152,234L156,244L158,247L166,260L168,271L175,276L177,279L179,288L180,289L186,295L187,299L192,305L193,309L199,318L199,321L197,335L199,337L205,346L213,352L216,357L219,359L222,364L234,371L238,374L243,376L272,392L279,394L286,401L301,410L303,417L320,431L322,432L330,431L334,427L335,425L335,418L340,415L342,414L342,414L340,407L343,405L351,396L353,392L353,392L352,391L353,390L353,387L354,386L352,385L352,385L351,386L347,385L347,385L344,384L345,382L345,381L341,379L339,377L336,376L337,378L336,378L333,376L333,374L334,372L335,371L338,373L336,369L335,367L337,364L341,363L342,365L344,366L346,368L347,369L351,362L348,358L348,353L350,352L352,348L359,340L355,328L357,324L358,310L363,305L365,301L349,271L346,266L344,266L336,266L332,268L324,266L323,266L324,240L325,238L326,231L318,236L310,243L302,243L289,243L287,233L285,232L276,229L267,229L272,223L272,220L267,214L265,212L260,205L258,199L255,196L256,192L254,191L250,187L252,183L255,182L254,176L257,171L269,163L270,161L267,154L271,147L275,134L275,133L280,131L288,125L299,119L319,116L323,112L331,111L333,113L341,115L341,113L340,112Z " data-iso="PER"/><path d="M442,0L441,4L443,4L446,0L442,0Z M422,0L425,2L432,0L422,0Z " data-iso="VEN"/></g><g fill="red" fill-opacity="0.35" id="regions"><path d="M127,150L124,150L121,147L121,146L120,144L117,141L116,148L109,150L105,153L101,160L101,160L116,168L118,172L120,173L122,177L122,178L123,177L130,173L130,174L130,174L131,171L134,169L134,167L131,166L128,162L128,159L130,158L133,152L131,151L128,151L128,151L127,150Z " data-fips="PE14" data-fips-="" data-iso3="PER" data-name="Lambayeque" data-p="LAM"/><path d="M104,107L100,111L98,110L92,108L92,108L87,111L85,122L91,129L89,130L95,141L95,147L93,148L89,151L92,154L99,159L101,160L105,153L109,150L116,148L117,141L120,144L121,146L121,147L124,150L127,150L128,151L128,151L131,136L129,133L133,128L132,128L128,124L125,117L124,116L120,117L110,115L106,117L105,115L108,111L104,108L104,107Z " data-fips="PE20" data-fips-="" data-iso3="PER" data-name="Piura" data-p="PIU"/><path d="M92,108L98,110L100,111L104,107L104,107L109,106L111,104L110,93L102,97L97,101L92,107L92,108Z " data-fips="PE24" data-fips-="" data-iso3="PER" data-name="Tumbes" data-p="TUM"/><path d="M265,320L252,315L251,319L252,324L254,327L253,328L255,333L257,340L257,344L258,346L256,349L257,351L260,351L261,349L263,349L271,349L272,350L273,349L274,348L275,348L278,349L280,348L280,348L285,343L289,336L288,330L285,326L282,324L277,323L272,320L272,319L265,320L265,320L265,320Z " data-fips="PE03" data-fips-="" data-iso3="PER" data-name="Apurmac" data-p="APU"/><path d="M278,349L275,348L274,348L273,349L272,350L272,350L268,352L268,358L262,363L262,364L258,364L256,365L249,365L247,368L245,367L244,365L241,366L239,364L236,359L231,357L231,357L226,360L224,363L223,365L223,365L236,371L238,374L242,375L249,381L261,386L273,393L276,393L282,397L293,405L299,408L300,408L301,407L303,402L301,399L304,393L307,390L312,390L314,384L315,379L315,378L313,374L311,369L311,365L311,364L311,364L308,361L308,359L305,359L304,358L297,358L294,358L295,353L289,353L288,352L282,352L280,349L280,348L278,349Z " data-fips="PE04" data-fips-="" data-iso3="PER" data-name="Arequipa" data-p="ARE"/><path d="M288,272L278,275L274,274L271,270L262,273L261,272L261,273L258,277L255,280L259,285L257,291L255,293L251,294L249,294L249,295L252,300L261,315L264,320L265,320L265,320L272,319L272,320L277,323L282,324L285,326L288,330L289,336L285,343L280,348L280,348L280,349L282,352L288,352L289,353L295,353L294,358L297,358L304,358L305,359L308,359L308,361L311,364L311,364L312,364L310,350L313,347L313,344L315,344L317,335L316,334L317,330L320,329L327,319L327,315L328,312L327,312L323,312L321,314L313,313L296,307L293,296L290,295L288,291L284,288L284,286L289,274L289,273L288,272Z " data-fips="PE08" data-fips-="" data-iso3="PER" data-name="Cusco" data-p="CUS"/><path d="M289,273L289,274L284,286L284,288L288,291L290,295L293,296L296,307L313,313L321,314L323,312L327,312L328,312L328,312L329,312L343,320L358,313L358,311L358,309L363,306L365,301L347,267L346,266L343,266L338,265L333,267L327,267L325,265L323,266L324,243L319,247L319,250L315,256L311,259L307,260L297,265L290,264L291,267L289,273L289,273Z " data-fips="PE17" data-fips-="" data-iso3="PER" data-name="Madre de Dios" data-p="MDD"/><path d="M328,312L327,315L327,319L320,329L317,330L316,334L317,335L315,344L313,344L313,347L310,350L312,364L311,364L311,365L311,369L313,374L315,378L315,379L315,379L319,380L321,380L325,384L326,390L331,394L328,399L328,399L329,400L332,405L334,407L339,409L339,409L340,407L346,402L352,396L354,390L358,388L356,386L351,385L350,384L346,372L348,367L350,365L352,363L347,357L348,353L350,352L351,348L357,344L356,341L359,339L358,336L357,335L356,327L358,324L358,313L358,313L343,320L329,312L328,312L328,312Z " data-fips="PE21" data-fips-="PE07" data-iso3="PER" data-name="Callao" data-p="PUN"/><path d="M328,399L331,394L326,390L325,384L321,380L319,380L315,379L315,379L314,384L312,390L307,390L304,393L301,399L303,402L301,407L300,408L300,409L302,410L302,416L302,417L305,419L306,419L308,417L312,415L316,408L321,404L322,399L325,399L328,400L328,399L328,399Z " data-fips="PE18" data-fips-="" data-iso3="PER" data-name="Moquegua" data-p="MOQ"/><path d="M328,400L325,399L322,399L321,404L316,408L312,415L308,417L306,419L306,419L310,422L317,429L324,432L326,432L331,430L336,423L335,418L339,416L342,414L342,411L340,409L339,409L334,407L332,405L329,400L328,399L328,400Z " data-fips="PE23" data-fips-="PE18" data-iso3="PER" data-name="Tacna" data-p="TAC"/><path d="M175,208L172,202L169,200L168,197L162,199L153,211L148,213L147,215L146,218L145,218L145,218L150,227L152,234L154,236L157,246L161,253L162,255L165,250L167,251L169,258L173,258L177,254L180,250L184,248L184,247L181,236L183,233L186,226L188,223L182,218L178,215L178,214L175,209L175,209L175,208Z " data-fips="PE02" data-fips-="" data-iso3="PER" data-name="Ancash" data-p="ANC"/><path d="M144,119L140,122L137,129L133,128L133,128L129,133L131,136L128,151L128,151L128,151L131,151L133,152L130,158L128,159L128,162L131,166L134,167L134,169L131,171L130,174L130,174L130,177L129,181L134,183L138,189L139,188L145,187L151,188L155,191L157,189L159,190L163,185L165,184L161,174L161,174L160,174L160,169L157,162L153,159L151,156L143,148L144,145L147,141L146,133L147,126L145,119L144,119Z " data-fips="PE06" data-fips-="EC20" data-iso3="PER" data-name="Cajamarca" data-p="CAJ"/><path d="M205,210L201,212L199,207L197,206L197,209L188,209L186,209L186,210L183,210L182,208L177,208L175,209L175,209L178,214L178,215L182,218L188,223L186,226L183,233L181,236L184,247L184,248L184,249L185,250L186,250L187,252L188,252L189,251L191,248L193,248L199,250L204,250L206,251L210,249L209,242L209,241L213,239L216,240L232,237L237,234L234,230L234,229L234,221L236,216L238,213L237,212L234,211L232,212L227,215L225,217L220,225L217,226L215,228L212,228L207,219L207,215L206,212L205,211L206,210L205,210Z " data-fips="PE10" data-fips-="" data-iso3="PER" data-name="Hunuco" data-p="HUC"/><path d="M130,173L123,177L122,178L122,178L125,185L127,188L128,190L130,194L138,201L143,209L143,214L145,218L145,218L146,218L147,215L148,213L153,211L162,199L168,197L169,200L172,202L175,208L175,209L177,208L182,208L183,210L186,210L186,209L185,209L185,202L183,200L175,198L172,189L173,188L169,183L169,179L166,174L166,174L165,174L162,174L161,174L161,174L161,174L165,184L163,185L159,190L157,189L155,191L151,188L145,187L139,188L138,189L134,183L129,181L130,177L130,174L130,173Z " data-fips="PE13" data-fips-="" data-iso3="PER" data-name="La Libertad" data-p="LAL"/><path d="M238,261L243,257L245,256L242,253L241,249L241,245L239,241L239,239L238,235L237,234L232,237L216,240L213,239L209,241L209,242L210,249L206,251L204,250L199,250L193,248L191,248L189,251L188,252L188,253L192,260L192,264L193,266L193,267L195,267L198,266L198,262L210,262L226,257L231,261L233,261L237,261L238,261Z " data-fips="PE19" data-fips-="" data-iso3="PER" data-name="Pasco" data-p="PAS"/><path d="M207,207L207,204L209,202L209,197L204,185L203,181L203,177L205,169L207,169L212,172L214,172L217,166L217,160L209,154L197,150L191,152L191,152L187,146L176,142L175,141L169,138L169,137L168,138L167,140L167,145L171,151L178,155L179,160L176,162L175,164L170,165L167,164L166,167L166,173L166,174L166,174L169,179L169,183L173,188L172,189L175,198L183,200L185,202L185,209L186,209L188,209L197,209L197,206L199,207L201,212L205,210L206,210L207,207Z " data-fips="PE22" data-fips-="" data-iso3="PER" data-name="San Martn" data-p="SAM"/><path d="M250,187L248,185L237,182L236,182L237,192L237,194L234,196L229,197L223,199L219,200L216,202L216,207L215,206L208,210L205,211L206,212L207,215L207,219L212,228L215,228L217,226L220,225L225,217L227,215L232,212L234,211L237,212L238,213L236,216L234,221L234,229L234,230L237,234L238,235L239,239L239,241L241,245L241,249L242,253L245,256L243,257L238,261L237,261L238,264L244,265L250,264L253,261L256,260L260,266L259,269L261,272L261,272L262,273L271,270L274,274L278,275L288,272L289,273L289,273L291,267L290,264L297,265L307,260L311,259L315,256L319,250L319,247L324,243L324,240L326,236L324,232L316,239L312,241L309,243L307,243L289,243L290,241L288,238L288,235L284,231L283,231L276,229L267,228L272,223L272,220L264,209L260,206L254,196L256,192L253,191L249,187L250,187Z " data-fips="PE25" data-fips-="" data-iso3="PER" data-name="Ucayali" data-p="UCA"/><path d="M164,83L158,89L156,92L157,94L155,95L155,92L152,95L151,101L149,105L148,106L148,108L145,114L146,116L145,119L145,119L147,126L146,133L147,141L144,145L143,148L151,156L153,159L157,162L160,169L160,174L161,174L161,174L162,174L165,174L166,174L166,173L166,167L167,164L170,165L175,164L176,162L179,160L178,155L171,151L167,145L167,140L168,138L169,137L167,134L166,124L169,119L170,114L169,100L169,98L167,92L166,90L165,83L164,83Z " data-fips="PE01" data-fips-="" data-iso3="PER" data-name="Amazonas" data-p="AMA"/><path d="M165,83L166,90L167,92L169,98L169,100L170,114L169,119L166,124L167,134L169,137L169,138L175,141L176,142L187,146L191,152L191,152L197,150L209,154L217,160L217,166L214,172L212,172L207,169L205,169L203,177L203,181L204,185L209,197L209,202L207,204L207,207L206,210L205,211L208,210L215,206L216,207L216,202L219,200L223,199L229,197L234,196L237,194L237,192L236,182L237,182L248,185L250,187L250,186L251,184L253,182L256,182L254,177L255,172L265,165L269,164L270,160L268,155L270,149L273,144L274,139L275,136L275,133L281,130L284,128L287,125L290,124L297,119L303,119L309,117L310,118L314,116L315,117L319,116L323,111L332,112L335,115L336,115L338,114L341,115L341,112L336,109L336,106L328,105L325,103L339,80L339,77L336,77L328,72L326,72L321,67L315,68L302,66L301,65L297,69L294,69L292,71L287,72L282,69L281,71L275,71L274,69L270,69L269,67L271,63L269,57L262,55L263,52L259,45L245,38L243,36L244,34L241,28L236,24L233,23L233,21L231,21L225,17L218,20L215,18L219,25L222,28L222,38L219,37L216,50L204,64L190,74L165,83Z " data-fips="PE16" data-fips-="" data-iso3="PER" data-name="Loreto" data-p="LOR"/><path d="M248,294L244,295L242,293L240,291L240,291L238,292L237,298L239,299L241,311L238,312L239,314L233,316L233,319L228,318L227,320L231,330L231,333L224,335L224,336L224,336L224,339L222,341L224,343L224,344L227,345L230,350L232,355L231,357L231,357L236,359L239,364L241,366L244,365L245,367L247,368L249,365L256,365L258,364L262,364L262,363L268,358L268,352L272,350L272,350L271,349L263,349L261,349L260,351L257,351L256,349L258,346L257,344L257,340L255,333L253,328L254,327L252,324L251,319L252,315L265,320L265,320L264,320L261,315L252,300L249,295L249,294L248,294Z " data-fips="PE09" data-fips-="PE05" data-iso3="PER" data-name="Ayacucho" data-p="AYA"/><path d="M180,289L186,295L186,298L186,298L189,296L190,293L187,287L187,284L185,285L184,282L184,282L181,277L178,280L178,280L178,281L179,285L179,287L179,287L179,289L180,289Z " data-fips="" data-fips-="" data-iso3="PER" data-name="Lima Province" data-p=""/><path d="M238,290L232,288L225,287L224,288L224,293L222,296L217,300L216,302L216,303L216,303L213,306L213,306L212,308L212,309L212,309L210,315L208,318L214,320L213,323L213,329L218,331L223,335L224,336L224,335L231,333L231,330L227,320L228,318L233,319L233,316L239,314L238,312L241,311L239,299L237,298L238,292L240,291L238,290Z " data-fips="PE09" data-fips-="" data-iso3="PER" data-name="Huancavelica" data-p="HUV"/><path d="M223,335L218,331L213,329L213,323L214,320L208,318L210,315L212,309L212,309L211,309L206,310L201,314L198,317L198,317L200,322L197,329L195,329L197,330L197,335L200,338L200,340L215,355L217,358L220,359L219,360L223,364L223,365L224,363L226,360L231,357L232,355L230,350L227,345L224,344L224,343L222,341L224,339L224,336L224,336L223,335Z " data-fips="PE11" data-fips-="" data-iso3="PER" data-name="Ica" data-p="ICA"/><path d="M233,261L231,261L226,257L210,262L198,262L198,266L195,267L193,267L193,268L196,276L203,287L206,287L211,289L214,296L214,302L216,303L216,302L217,300L222,296L224,293L224,288L225,287L232,288L238,290L240,291L240,291L242,293L244,295L248,294L249,294L251,294L255,293L257,291L259,285L255,280L258,277L261,273L261,272L261,272L259,269L260,266L256,260L253,261L250,264L244,265L238,264L237,261L233,261Z " data-fips="PE12" data-fips-="" data-iso3="PER" data-name="Junn" data-p="JUN"/><path d="M187,252L186,250L185,250L184,249L184,248L180,250L177,254L173,258L169,258L167,251L165,250L162,255L163,256L166,261L167,264L167,270L172,273L178,279L178,280L181,277L184,282L184,282L185,285L187,284L187,287L190,293L189,296L186,298L187,298L190,304L192,306L193,311L198,316L198,317L201,314L206,310L211,309L212,309L212,308L213,306L213,306L216,303L216,303L214,302L214,296L211,289L206,287L203,287L196,276L193,268L193,267L193,266L192,264L192,260L188,253L188,252L187,252Z " data-fips="PE15" data-fips-="" data-iso3="PER" data-name="Lima" data-p="LIM"/><path d="M179,287L178,288L179,288L179,289L179,287L179,287L179,287Z " data-fips="" data-fips-="" data-iso3="PER" data-name="Callao" data-p="CAL"/></g></svg>