<?xml version="1.0" encoding="UTF-8"?><!DOCTYPE svg  PUBLIC '-//W3C//DTD SVG 1.1//EN'  'http://www.w3.org/Graphics/SVG/1.1/DTD/svg11.dtd'><svg enable_background="new 0 0 450 451" height="451px" style="stroke-linejoin: round; stroke:#000; fill:#f6f3f0;" version="1.1" viewBox="0 0 450 451" width="450px" xmlns="http://www.w3.org/2000/svg" xmlns:xlink="http://www.w3.org/1999/xlink"><defs><style type="text/css"><![CDATA[path { fill-rule: evenodd; }
#context path { fill: #eee; stroke: #bbb; } ]]></style></defs><metadata><views><view h="451" padding="0.06" w="450"><proj id="laea" lat0="5.19916616439" lon0="120.029048443"/><bbox h="216.83" w="132.39" x="955.33" y="796.97"/><llbbox lat0="-90" lat1="90" lon0="-180" lon1="180"/></view></views></metadata><g id="context"><path d="M53,428L54,436L55,441L61,441L59,439L59,434L56,428L53,428Z M54,426L52,424L48,426L41,432L38,434L31,435L29,435L33,438L34,443L37,444L41,449L44,449L47,444L48,441L46,432L53,428L54,426Z " data-iso="BRN"/><path d="M126,446L122,447L120,447L119,448L120,449L127,449L127,449L126,446Z M118,447L110,443L106,442L91,441L88,443L78,443L75,442L70,446L68,449L115,449L116,448L118,447L118,447Z M353,449L356,443L353,436L352,436L351,440L353,444L352,446L353,449Z " data-iso="IDN"/><path d="M123,445L121,444L120,445L120,446L120,447L122,447L126,446L123,445Z M119,446L120,443L129,445L144,441L144,439L137,434L133,430L135,426L146,426L160,421L161,416L153,415L147,411L144,410L140,406L135,404L128,407L131,404L129,399L116,403L119,401L119,395L121,391L119,387L111,383L109,376L104,379L101,383L98,384L100,379L99,375L97,375L82,396L80,403L76,407L73,411L68,411L68,410L63,415L63,417L67,420L67,423L62,427L56,428L59,434L59,439L61,441L55,441L54,436L53,428L46,432L48,441L47,444L44,449L68,449L70,446L75,442L78,443L88,443L91,441L106,442L110,443L118,447L119,446Z M28,435L27,436L26,443L21,449L41,449L37,444L34,443L33,438L29,435L28,435Z M107,370L110,370L110,365L107,366L105,368L107,370Z " data-iso="MYS"/><path d="M186,419L184,417L175,422L179,423L180,422L185,421L186,419Z M209,398L206,397L203,403L207,403L211,401L213,403L215,400L209,398Z M233,389L236,388L238,384L232,381L226,383L229,389L233,389Z M326,375L326,370L325,369L326,376L326,375Z M254,364L251,363L251,366L254,364Z M106,352L106,347L103,351L104,354L106,352Z M301,319L297,317L297,318L300,321L301,319Z M273,317L271,320L273,320L273,317Z M331,314L328,309L318,303L316,306L319,319L319,322L310,325L310,326L303,323L299,334L297,335L292,333L289,335L288,339L285,343L275,347L278,344L275,335L273,333L266,331L263,335L259,335L256,343L253,345L247,345L236,350L234,354L232,365L228,369L228,372L231,376L233,377L237,370L242,360L246,355L250,356L251,360L255,360L258,356L266,364L268,357L268,353L275,355L280,357L283,359L286,366L282,371L281,374L283,389L287,394L298,400L308,403L313,398L314,399L314,409L316,410L318,408L324,400L324,394L322,387L316,382L320,373L323,371L324,367L327,365L334,380L335,387L337,391L338,380L339,377L343,373L346,369L347,359L346,356L343,352L341,336L335,333L339,326L339,324L336,315L333,316L331,314Z M332,303L334,298L333,295L331,299L332,303Z M313,298L311,294L310,296L313,298Z M295,303L295,297L289,293L285,294L282,297L278,299L279,307L284,308L295,304L295,303Z M323,299L323,295L322,291L319,289L319,292L320,297L323,299Z M178,285L178,282L176,281L174,284L174,286L178,285Z M246,286L248,280L244,282L244,287L246,286Z M259,321L263,318L263,314L259,308L259,301L265,286L268,283L269,277L268,274L256,274L255,275L254,280L251,285L251,287L252,295L248,298L242,299L240,305L244,311L252,315L254,320L259,321Z M265,312L268,308L273,294L280,287L282,282L281,278L282,274L281,265L279,267L278,273L273,285L268,294L265,298L265,300L264,308L265,312Z M274,265L274,268L275,268L274,265Z M112,337L117,335L121,331L129,326L135,319L138,318L144,312L149,304L148,301L153,298L159,296L162,291L164,289L170,287L172,285L168,273L169,271L167,263L162,273L161,276L162,283L160,286L155,289L148,297L143,303L132,314L130,316L126,317L113,330L109,339L112,337Z M294,263L288,258L291,274L297,273L299,275L300,280L299,286L300,293L306,296L305,288L308,292L312,290L310,282L306,277L306,268L303,262L301,261L294,263Z M295,259L296,258L291,254L289,255L295,259Z M242,256L231,249L227,252L232,254L230,273L229,275L229,281L228,285L235,282L243,280L247,277L249,277L257,267L258,265L259,258L252,261L251,257L245,258L242,256Z M181,254L181,250L178,247L176,248L179,255L181,254Z M182,242L178,239L177,242L179,245L188,246L188,245L185,241L182,242Z M246,239L245,234L240,235L245,239L246,239Z M311,233L308,231L301,232L294,233L287,232L289,240L291,242L297,246L303,252L305,252L303,257L304,259L309,265L311,268L316,269L323,267L320,265L320,262L318,258L316,247L318,241L313,238L311,233Z M273,239L269,235L261,232L260,244L262,246L268,241L273,246L273,248L279,251L281,247L278,242L273,239Z M232,238L233,233L232,230L230,231L229,236L228,237L230,244L232,238Z M274,235L272,231L269,230L274,237L274,235Z M262,225L253,218L253,219L259,224L262,225Z M197,209L190,208L188,211L191,211L197,218L199,222L200,228L201,229L208,240L211,241L215,239L218,230L217,225L217,221L218,219L210,210L208,211L197,209Z M227,207L226,207L226,214L230,216L233,212L232,209L227,207Z M186,202L183,199L182,201L187,204L186,202Z M288,205L290,198L287,197L285,193L282,196L282,201L280,204L284,207L287,206L288,205Z M234,194L228,190L228,192L234,195L234,194Z M230,170L225,169L230,176L229,173L230,170Z M207,78L200,79L194,81L189,103L190,117L190,121L188,125L188,135L189,139L188,143L183,143L181,140L176,137L174,143L177,149L178,159L181,167L182,174L189,180L190,183L194,184L194,183L193,176L194,173L202,177L203,181L203,183L195,191L196,201L198,198L201,199L203,202L210,205L213,205L216,203L217,200L224,197L231,201L235,205L240,209L245,216L246,215L246,211L244,207L242,204L241,198L244,198L249,202L252,206L259,210L262,215L262,218L270,223L278,223L277,229L281,232L283,226L283,220L275,216L275,214L270,207L268,204L270,203L274,202L276,200L265,196L262,194L262,200L260,202L256,201L256,196L253,191L245,187L242,187L234,193L236,194L231,197L227,195L224,191L220,178L222,177L214,163L217,157L219,153L218,149L219,146L228,141L232,140L235,134L239,124L242,116L239,115L235,108L232,100L233,92L236,86L234,81L232,81L230,86L227,87L219,84L210,80L207,78Z M227,71L226,69L224,72L227,71Z M217,59L214,58L216,62L217,59Z " data-iso="PHL"/></g><g fill="red" fill-opacity="0.35" id="regions"><path d="M185,419L182,419L175,424L177,424L183,420L185,423L186,419L185,419Z " data-fips="RP72" data-fips-="" data-iso3="PHL" data-name="Tawi-Tawi"/><path d="M142,373L140,374L142,375L142,373Z " data-fips="RP" data-fips-="MY16" data-iso3="PHL" data-name="Sabah"/><path d="M289,293L284,294L282,297L279,299L276,304L282,308L290,307L296,302L295,297L289,293Z " data-fips="RP11" data-fips-="" data-iso3="PHL" data-name="Bohol"/><path d="M280,270L281,265L279,269L276,278L267,295L265,303L265,312L268,306L270,301L271,296L275,292L280,289L281,285L282,272L280,270Z M274,268L275,267L274,265L274,268Z " data-fips="RP21" data-fips-="" data-iso3="PHL" data-name="Cebu"/><path d="M245,312L251,314L255,322L260,321L262,320L263,314L260,311L259,301L263,295L264,289L264,287L259,287L260,290L256,298L245,312L245,312Z " data-fips="RP46" data-fips-="" data-iso3="PHL" data-name="Negros Oriental"/><path d="M273,317L271,316L268,319L270,320L273,317Z " data-fips="RP69" data-fips-="" data-iso3="PHL" data-name="Siquijor"/><path d="M265,287L267,283L269,276L268,274L265,273L255,274L254,279L253,282L251,284L252,295L251,296L242,299L240,305L245,312L245,312L256,298L260,290L259,287L264,287L265,287Z " data-fips="RPH3" data-fips-="" data-iso3="PHL" data-name="Negros Occidental"/><path d="M232,389L235,388L237,385L230,382L226,383L227,387L232,389Z " data-fips="RP22" data-fips-="" data-iso3="PHL" data-name="Basilan"/><path d="M228,370L234,370L234,370L238,359L248,350L253,351L254,351L254,351L258,349L260,349L260,343L270,343L269,333L269,333L266,330L266,332L257,336L255,339L256,342L254,345L242,347L236,350L233,355L234,359L232,361L231,367L229,369L228,370Z " data-fips="RP65" data-fips-="" data-iso3="PHL" data-name="Zamboanga del Norte"/><path d="M255,364L251,363L251,365L255,364Z M254,351L254,351L253,351L248,350L238,359L234,370L234,370L228,370L228,371L229,375L233,377L234,376L238,366L242,360L243,356L249,355L251,355L251,360L251,362L253,360L256,362L258,356L258,356L254,353L253,352L254,351Z " data-fips="RP65" data-fips-="" data-iso3="PHL" data-name="Zamboanga del Sur"/><path d="M270,343L260,343L260,349L258,349L254,351L254,351L254,351L253,352L254,353L258,356L258,355L259,361L266,365L267,363L265,360L268,357L267,354L271,353L271,353L272,352L273,349L273,349L273,349L273,348L273,348L271,348L271,348L270,345L270,343Z " data-fips="RP66" data-fips-="" data-iso3="PHL" data-name="Zamboanga Del Sur"/><path d="M273,348L278,344L276,336L275,335L270,333L269,333L270,343L270,345L271,348L271,348L273,348L273,348Z " data-fips="RP42" data-fips-="" data-iso3="PHL" data-name="Misamis Occidental"/><path d="M206,397L203,400L202,401L203,403L205,402L212,403L216,401L206,397Z " data-fips="RP60" data-fips-="" data-iso3="PHL" data-name="Sulu"/><path d="M245,258L236,252L226,252L226,252L229,251L231,251L234,254L233,260L234,264L234,264L235,264L240,260L242,260L245,258L245,258Z " data-fips="RP04" data-fips-="" data-iso3="PHL" data-name="Aklan"/><path d="M226,253L231,253L232,254L229,278L229,283L228,285L230,286L231,286L238,271L237,269L236,268L235,268L235,267L235,266L235,264L234,264L234,264L233,260L234,254L231,251L229,251L226,252L226,253Z " data-fips="RP06" data-fips-="" data-iso3="PHL" data-name="Antique"/><path d="M256,259L252,261L254,259L251,257L248,256L248,258L245,258L245,258L242,260L240,260L235,264L234,264L235,264L235,266L235,267L235,268L236,268L237,267L241,267L245,266L247,267L252,267L252,265L255,263L257,259L256,259Z " data-fips="RP18" data-fips-="" data-iso3="PHL" data-name="Capiz"/><path d="M231,286L236,281L245,279L248,277L250,275L250,273L256,269L259,263L257,258L257,259L255,263L252,265L252,267L247,267L245,266L241,267L237,267L236,268L237,269L238,271L231,286L231,286Z " data-fips="RP30" data-fips-="" data-iso3="PHL" data-name="Iloilo"/><path d="M248,283L249,281L246,279L243,283L244,287L246,286L248,283Z " data-fips="RP30" data-fips-="" data-iso3="PHL" data-name="Guimaras"/><path d="M178,239L179,246L186,247L188,244L185,241L185,244L182,242L181,241L178,239Z " data-fips="RP49" data-fips-="RP40" data-iso3="PHL" data-name="Occidental Mindoro"/><path d="M179,248L176,248L178,254L179,255L179,248Z " data-fips="RP49" data-fips-="RP40" data-iso3="PHL" data-name="Occidental Mindoro"/><path d="M106,348L103,347L105,353L106,352L106,348Z M112,340L111,342L111,344L112,340Z M179,284L174,284L176,286L179,284Z M168,264L165,271L163,270L163,274L164,275L166,276L166,279L162,276L163,279L162,285L158,288L153,292L150,293L150,295L146,299L144,301L140,305L134,312L129,317L129,316L123,321L122,321L118,325L114,329L113,330L113,337L116,336L130,326L133,320L138,319L143,314L148,307L148,301L149,299L156,298L160,296L161,293L163,289L168,288L172,285L169,281L169,278L168,269L169,266L168,264Z " data-fips="RP49" data-fips-="RP40" data-iso3="PHL" data-name="Palawan"/><path d="M245,239L242,234L241,234L245,239Z M237,234L236,231L236,233L237,234Z M234,230L230,232L229,236L228,236L229,243L231,242L234,230Z " data-fips="RP54" data-fips-="" data-iso3="PHL" data-name="Romblon"/><path d="M285,216L283,215L281,216L285,216Z M277,215L277,213L276,212L277,215Z M269,207L268,208L268,211L266,211L262,215L262,215L262,219L262,220L267,221L267,222L272,220L277,219L278,218L278,218L273,219L274,215L276,215L273,212L271,208L269,208L269,207Z " data-fips="RP05" data-fips-="" data-iso3="PHL" data-name="Albay"/><path d="M256,199L255,193L251,189L248,188L241,187L238,190L237,193L237,193L239,193L240,192L241,192L250,196L252,196L253,197L254,198L256,200L256,199Z " data-fips="RP15" data-fips-="" data-iso3="PHL" data-name="Camarines Norte"/><path d="M268,206L273,203L278,202L274,199L272,197L271,198L260,196L261,198L261,202L260,202L256,200L256,200L254,198L253,197L252,196L250,196L248,196L245,196L243,197L243,197L243,197L246,200L248,200L251,203L252,206L257,209L262,214L262,215L266,211L268,211L268,208L269,207L268,206Z " data-fips="RP16" data-fips-="" data-iso3="PHL" data-name="Camarines Sur"/><path d="M285,194L282,196L283,198L281,203L280,204L284,207L288,207L289,203L290,198L285,194Z " data-fips="RP19" data-fips-="" data-iso3="PHL" data-name="Catanduanes"/><path d="M264,232L260,232L261,239L260,240L262,242L260,244L259,249L266,241L273,246L275,248L279,251L281,253L281,247L279,244L275,240L270,237L268,235L264,232Z M271,230L269,230L275,238L274,234L271,230Z M260,223L256,219L254,217L253,218L254,221L256,222L263,228L260,223Z " data-fips="RP39" data-fips-="" data-iso3="PHL" data-name="Masbate"/><path d="M267,222L273,224L276,224L277,221L280,223L274,225L279,232L283,229L283,226L278,218L278,218L277,219L272,220L267,222L267,222Z " data-fips="RP58" data-fips-="" data-iso3="PHL" data-name="Sorsogon"/><path d="M202,112L204,107L207,105L206,98L205,98L203,95L203,95L202,95L200,95L193,101L193,101L192,102L191,107L194,108L193,110L196,113L198,115L200,114L201,115L202,115L202,114L202,113L202,112Z " data-fips="RP01" data-fips-="" data-iso3="PHL" data-name="Abra"/><path d="M227,34L229,31L228,31L227,34Z " data-fips="RP07" data-fips-="RP08" data-iso3="PHL" data-name="Batanes"/><path d="M204,79L204,79L203,80L203,83L204,82L206,80L215,86L215,91L213,99L214,99L220,106L220,106L221,106L224,106L226,105L233,105L233,104L232,99L234,90L235,89L236,84L236,84L236,83L234,81L232,81L230,86L225,87L217,84L210,79L205,78L204,79Z M215,71L211,72L212,73L215,71Z M215,59L213,60L216,62L217,61L215,59Z " data-fips="RP14" data-fips-="" data-iso3="PHL" data-name="Cagayan"/><path d="M220,106L214,99L213,99L215,91L215,86L206,80L204,82L203,83L203,83L203,87L204,90L203,95L203,95L203,95L205,98L206,98L207,105L204,107L202,112L202,113L207,115L213,113L218,113L218,113L218,112L219,111L220,107L221,107L220,106L220,106Z " data-fips="RP32" data-fips-="" data-iso3="PHL" data-name="Apayao"/><path d="M204,79L202,80L200,78L193,82L194,85L190,96L190,97L193,97L192,101L193,101L193,101L200,95L202,95L203,95L203,95L204,90L203,87L203,83L203,83L203,80L204,79L204,79L204,79Z " data-fips="RP28" data-fips-="" data-iso3="PHL" data-name="Ilocos Norte"/><path d="M192,101L193,97L190,97L190,98L190,101L188,102L188,105L190,120L190,121L193,122L194,127L194,128L195,127L195,123L198,122L199,121L199,120L199,118L199,117L200,115L201,115L200,114L198,115L196,113L193,110L194,108L191,107L192,102L193,101L192,101Z " data-fips="RP29" data-fips-="" data-iso3="PHL" data-name="Ilocos Sur"/><path d="M215,165L214,162L216,159L220,151L218,148L218,147L231,142L235,132L235,132L230,132L226,138L224,139L215,147L211,150L213,157L214,158L213,159L213,162L212,166L212,166L212,167L212,169L213,169L213,169L213,169L216,165L215,165Z " data-fips="RPG8" data-fips-="" data-iso3="PHL" data-name="Aurora"/><path d="M220,106L221,107L220,107L219,111L218,112L218,113L218,116L218,117L218,118L218,122L217,124L213,125L213,125L214,127L214,127L214,128L215,129L218,129L223,134L223,135L230,132L235,132L235,131L236,130L240,121L240,119L239,115L239,112L236,110L233,106L233,105L226,105L224,106L221,106L220,106Z " data-fips="RP31" data-fips-="" data-iso3="PHL" data-name="Isabela"/><path d="M216,117L210,119L206,119L201,123L201,123L201,124L202,126L202,128L202,130L210,128L212,127L212,127L213,125L213,125L213,125L217,124L218,122L218,118L218,117L216,117Z " data-fips="RP32" data-fips-="RP27" data-iso3="PHL" data-name="Ifugao"/><path d="M218,113L213,113L207,115L202,113L202,114L202,115L201,115L200,115L199,117L199,118L199,120L199,121L199,122L200,122L201,123L201,123L206,119L210,119L216,117L218,117L218,116L218,113L218,113Z " data-fips="RP44" data-fips-="" data-iso3="PHL" data-name="Mountain Province"/><path d="M214,127L214,127L213,125L213,125L212,127L212,127L210,128L202,130L202,132L201,136L199,137L198,139L198,140L201,140L201,141L201,141L202,142L202,142L205,141L209,144L210,147L211,149L211,150L215,147L213,143L214,136L215,135L213,133L214,128L214,127Z " data-fips="RP48" data-fips-="" data-iso3="PHL" data-name="Nueva Vizcaya"/><path d="M223,135L223,134L218,129L215,129L214,128L213,133L215,135L214,136L213,143L215,147L224,139L226,138L230,132L223,135Z " data-fips="RP68" data-fips-="" data-iso3="PHL" data-name="Quirino"/><path d="M191,172L191,172L190,174L187,175L187,175L186,177L187,179L189,180L190,184L194,184L194,182L193,178L193,176L193,175L192,174L192,174L191,172L191,172Z " data-fips="RP07" data-fips-="" data-iso3="PHL" data-name="Bataan"/><path d="M195,149L194,149L193,151L187,154L186,155L184,158L185,162L186,163L188,165L189,166L190,166L195,164L197,164L199,164L199,164L199,163L198,162L198,157L199,155L197,154L196,152L195,149L195,149Z " data-fips="RP63" data-fips-="" data-iso3="PHL" data-name="Tarlac"/><path d="M211,149L210,147L209,144L205,141L202,142L202,142L202,144L202,146L200,150L198,149L195,149L196,152L197,154L199,155L198,157L198,162L199,163L199,164L199,164L201,166L201,166L203,165L203,165L206,164L207,164L209,164L211,166L212,166L213,162L213,159L214,158L213,157L211,150L211,149Z " data-fips="RP47" data-fips-="" data-iso3="PHL" data-name="Nueva Ecija"/><path d="M199,164L197,164L195,164L190,166L189,166L189,166L189,168L190,169L190,171L191,172L191,172L192,174L192,174L193,175L193,174L195,173L194,175L196,176L196,176L198,172L203,165L203,165L203,165L201,166L201,166L199,164L199,164L199,164Z " data-fips="RP50" data-fips-="" data-iso3="PHL" data-name="Pampanga"/><path d="M200,122L199,122L199,121L198,122L195,123L195,127L194,128L192,130L192,132L192,138L193,139L193,139L196,140L196,140L197,140L198,140L198,139L199,137L201,136L202,132L202,130L202,128L202,126L201,124L201,123L200,122Z " data-fips="RP10" data-fips-="" data-iso3="PHL" data-name="Benguet"/><path d="M185,154L181,149L177,150L177,151L177,155L179,158L177,160L179,161L181,170L182,175L183,176L185,174L187,175L187,175L190,174L191,172L191,172L190,171L190,169L189,168L189,166L189,166L188,165L186,163L185,162L184,158L186,155L185,154Z " data-fips="RP64" data-fips-="" data-iso3="PHL" data-name="Zambales"/><path d="M194,127L193,122L190,121L188,123L187,129L188,137L190,139L190,139L190,140L192,140L192,139L193,139L192,138L192,132L192,130L194,128L194,127Z " data-fips="RP36" data-fips-="" data-iso3="PHL" data-name="La Union"/><path d="M177,150L181,149L185,154L186,155L187,154L193,151L194,149L195,149L195,149L198,149L200,150L202,146L202,144L202,142L201,141L201,141L201,140L198,140L197,140L196,140L196,140L193,139L193,139L192,139L192,140L190,140L190,139L190,140L184,144L182,143L179,139L178,139L177,135L175,136L174,140L174,146L176,146L177,150L177,150Z " data-fips="RP51" data-fips-="" data-iso3="PHL" data-name="Pangasinan"/><path d="M205,185L204,184L204,184L203,183L203,183L202,184L197,188L195,190L195,190L196,190L202,194L205,192L205,192L205,191L206,188L206,187L205,187L205,186L205,185Z " data-fips="RP07" data-fips-="RP20" data-iso3="PHL" data-name="Cavite"/><path d="M195,190L195,200L196,201L198,199L197,198L202,198L202,199L202,204L206,202L207,205L209,205L212,206L213,204L215,204L215,201L216,200L212,197L211,197L211,197L211,196L210,196L210,193L206,192L205,192L205,192L202,194L196,190L195,190L195,190Z " data-fips="RP09" data-fips-="" data-iso3="PHL" data-name="Batangas"/><path d="M211,166L209,164L207,164L206,164L203,165L203,165L198,172L196,176L196,176L201,177L202,177L202,178L203,178L205,178L205,177L206,176L207,176L208,175L211,174L211,174L212,173L213,173L213,170L213,169L212,169L212,167L212,166L212,166L211,166Z " data-fips="RP13" data-fips-="" data-iso3="PHL" data-name="Bulacan"/><path d="M216,181L214,183L214,187L212,188L208,182L208,182L208,182L208,186L206,186L205,186L205,187L206,187L206,188L205,191L205,192L206,192L210,193L210,196L211,196L211,197L213,196L218,193L219,188L216,181L216,181Z " data-fips="RP33" data-fips-="" data-iso3="PHL" data-name="Laguna"/><path d="M214,178L213,177L213,175L213,173L212,173L211,174L211,174L208,175L207,176L207,181L208,182L208,182L208,182L212,188L214,187L214,183L216,181L214,178Z " data-fips="RP53" data-fips-="" data-iso3="PHL" data-name="Rizal"/><path d="M206,176L205,177L205,178L203,178L203,179L204,182L204,183L203,183L204,184L204,184L205,185L205,186L206,186L208,186L208,182L207,181L207,176L206,176Z " data-fips="RPD9" data-fips-="" data-iso3="PHL" data-name="Metropolitan Manila"/><path d="M227,207L225,210L225,212L229,216L233,211L231,209L227,207Z " data-fips="RP38" data-fips-="" data-iso3="PHL" data-name="Marinduque"/><path d="M211,241L211,220L199,215L202,208L202,208L198,209L194,208L189,208L187,209L188,211L191,210L192,214L196,217L199,221L200,228L201,228L204,236L211,241L211,241Z M184,200L182,200L186,204L186,202L184,200Z " data-fips="RP40" data-fips-="" data-iso3="PHL" data-name="Occidental Mindoro"/><path d="M212,240L215,237L218,231L217,221L218,218L214,215L210,210L208,211L203,208L202,208L199,215L211,220L211,241L212,240Z " data-fips="RP41" data-fips-="" data-iso3="PHL" data-name="Oriental Mindoro"/><path d="M234,195L228,190L228,190L234,195Z M228,169L225,170L225,172L227,175L227,179L229,178L229,173L231,171L228,169Z M213,169L213,170L213,173L213,175L213,177L214,178L216,181L219,188L218,193L213,196L211,197L211,197L212,197L216,200L217,199L224,197L225,198L231,201L236,206L237,206L243,213L242,215L244,217L246,210L242,205L242,200L241,198L243,197L243,197L243,197L245,196L248,196L250,196L241,192L240,192L239,193L237,193L237,193L235,190L234,192L237,195L234,196L235,198L232,197L223,191L223,187L221,186L220,180L222,177L219,172L216,165L216,165L213,169L213,169L213,169Z " data-fips="RPH2" data-fips-="" data-iso3="PHL" data-name="Quezon"/><path d="M295,342L291,339L290,339L287,340L287,340L282,344L280,345L273,349L273,349L272,352L271,353L272,353L274,354L275,356L276,356L277,356L280,356L282,351L283,351L288,343L291,344L296,348L297,348L297,347L295,346L295,343L295,342L295,342Z " data-fips="RP34" data-fips-="" data-iso3="PHL" data-name="Lanao del Norte"/><path d="M296,348L291,344L288,343L283,351L282,351L280,356L277,356L278,356L283,359L283,360L285,363L285,363L291,358L293,357L294,356L294,356L301,358L301,358L301,358L299,354L296,351L298,349L297,348L296,348Z " data-fips="RP35" data-fips-="" data-iso3="PHL" data-name="Lanao del Sur"/><path d="M290,369L294,363L293,361L292,360L293,357L291,358L285,363L286,363L287,364L287,365L286,367L286,367L288,368L289,369L289,369L289,370L290,369Z " data-fips="RP56" data-fips-="RP35" data-iso3="PHL" data-name="Lanao Del Sur"/><path d="M300,369L298,372L298,375L292,371L294,369L290,370L290,370L289,370L288,370L287,370L285,369L284,370L281,374L280,379L282,380L282,380L287,380L288,381L294,381L296,378L299,378L301,382L304,383L304,381L304,381L303,380L302,375L301,371L300,369L300,369L300,369Z " data-fips="RP56" data-fips-="" data-iso3="PHL" data-name="Maguindanao"/><path d="M289,369L289,369L288,368L286,367L286,368L286,368L285,369L285,369L287,370L288,370L289,370L290,370L289,370L289,369Z " data-fips="RP56" data-fips-="" data-iso3="PHL" data-name="Shariff Kabunsuan"/><path d="M300,369L300,369L300,369L300,369L300,369Z " data-fips="RP57" data-fips-="" data-iso3="PHL" data-name="North Cotabato"/><path d="M301,358L294,356L294,356L293,357L292,360L293,361L294,363L290,369L289,370L290,370L290,370L294,369L292,371L298,375L298,372L300,369L300,369L300,369L300,369L300,369L301,371L302,375L303,380L304,381L310,379L311,378L313,375L314,371L312,368L313,359L313,359L313,359L308,362L308,363L304,363L302,359L301,358L301,358Z " data-fips="RP57" data-fips-="" data-iso3="PHL" data-name="North Cotabato"/><path d="M304,381L304,383L301,382L299,378L296,378L294,381L288,381L287,380L282,380L282,381L283,389L288,395L291,396L291,396L291,396L291,395L289,394L288,392L298,391L297,386L297,383L300,383L302,386L307,385L311,385L311,382L311,382L310,381L310,379L304,381L304,381Z " data-fips="RP71" data-fips-="" data-iso3="PHL" data-name="Sultan Kudarat"/><path d="M291,254L289,254L292,259L296,258L294,256L291,254Z " data-fips="RP37" data-fips-="" data-iso3="PHL" data-name="Biliran"/><path d="M324,278L323,276L323,278L324,278Z M309,238L309,240L308,246L310,246L312,258L314,260L314,263L311,269L311,269L316,269L317,268L323,269L323,267L319,265L321,263L317,256L317,254L317,243L317,240L313,238L313,238L311,238L311,237L309,237L309,238Z " data-fips="RP23" data-fips-="" data-iso3="PHL" data-name="Eastern Samar"/><path d="M290,281L290,279L288,282L290,281Z M300,292L303,290L303,286L304,284L310,281L309,280L306,278L306,276L307,272L306,265L304,264L305,262L303,261L299,263L296,264L291,260L289,258L288,262L290,266L291,271L290,273L293,275L294,272L298,273L300,276L300,280L299,286L300,289L300,292L300,292Z " data-fips="RP37" data-fips-="" data-iso3="PHL" data-name="Leyte"/><path d="M301,256L298,254L301,258L301,256Z M290,241L294,245L298,247L300,250L302,252L305,252L306,253L304,257L303,260L305,261L305,264L309,265L311,269L311,269L314,263L314,260L312,258L310,246L308,246L309,240L309,238L308,238L297,240L292,238L289,239L290,241Z " data-fips="RP55" data-fips-="" data-iso3="PHL" data-name="Samar"/><path d="M313,299L312,294L309,293L313,299Z M310,281L304,284L303,286L303,290L300,292L300,293L306,297L305,288L307,288L307,290L312,290L310,281L310,281Z " data-fips="RP59" data-fips-="" data-iso3="PHL" data-name="Southern Leyte"/><path d="M289,239L292,238L297,240L308,238L309,238L309,237L311,237L311,238L313,238L313,238L313,236L311,233L307,231L307,232L297,233L287,231L287,232L288,236L289,239Z " data-fips="RP67" data-fips-="" data-iso3="PHL" data-name="Northern Samar"/><path d="M324,314L323,311L318,311L318,311L319,322L318,323L311,320L311,321L312,322L312,323L312,325L312,333L316,333L320,330L324,330L324,327L325,317L325,317L324,316L324,316L324,315L324,315L324,314Z " data-fips="RP02" data-fips-="" data-iso3="PHL" data-name="Agusan del Norte"/><path d="M325,317L324,327L324,330L320,330L316,333L312,333L312,337L314,341L315,341L315,348L316,348L323,348L336,348L339,348L339,347L337,343L337,340L331,334L332,330L328,325L326,318L325,317Z " data-fips="RP03" data-fips-="" data-iso3="PHL" data-name="Agusan del Sur"/><path d="M304,333L301,338L296,338L296,341L295,342L295,343L295,346L297,347L297,348L298,349L296,351L299,354L301,358L301,358L302,359L304,363L308,363L308,362L313,359L313,359L313,359L313,359L314,359L314,359L314,358L317,356L317,353L317,350L316,348L315,348L315,341L314,341L312,337L312,333L304,333Z " data-fips="RP12" data-fips-="" data-iso3="PHL" data-name="Bukidnon"/><path d="M300,321L299,317L298,320L300,321Z " data-fips="RP17" data-fips-="" data-iso3="PHL" data-name="Camiguin"/><path d="M326,376L326,371L325,372L326,376Z M323,348L323,348L316,348L317,350L317,353L317,356L314,358L314,359L319,359L320,368L324,367L324,367L325,366L327,365L327,365L327,365L328,360L330,358L330,353L326,357L324,353L323,348Z " data-fips="RP24" data-fips-="" data-iso3="PHL" data-name="Davao del Norte"/><path d="M336,348L323,348L323,348L324,353L326,357L330,353L330,358L328,360L327,365L328,365L328,365L330,371L331,372L339,366L337,363L336,350L336,348Z " data-fips="RP24" data-fips-="" data-iso3="PHL" data-name="Compostela Valley"/><path d="M330,303L329,307L331,306L330,303Z M318,311L323,311L324,314L324,315L329,310L329,310L323,307L317,302L316,305L317,311L318,311Z M334,301L334,298L332,296L331,302L332,303L335,302L334,301Z M323,287L320,288L319,290L319,295L322,300L323,298L323,293L322,291L323,287Z " data-fips="RP61" data-fips-="" data-iso3="PHL" data-name="Dinagat Islands"/><path d="M341,350L343,348L343,344L340,340L341,336L334,332L339,328L340,325L339,324L336,320L337,315L336,315L331,315L329,310L329,310L324,315L324,315L324,316L324,316L325,317L325,317L326,318L328,325L332,330L331,334L337,340L337,343L339,347L339,348L339,349L339,349L341,351L341,350Z " data-fips="RP62" data-fips-="" data-iso3="PHL" data-name="Surigao del Sur"/><path d="M312,325L312,323L312,322L311,321L311,321L311,324L309,327L303,323L300,324L300,329L300,334L297,337L296,335L293,333L287,340L287,340L290,339L291,339L295,342L295,342L296,341L296,338L301,338L304,333L312,333L312,325Z " data-fips="RP43" data-fips-="" data-iso3="PHL" data-name="Misamis Oriental"/><path d="M314,359L314,359L313,359L313,359L313,359L313,359L312,368L314,371L313,375L311,378L310,379L310,381L311,382L311,382L311,385L311,386L311,387L311,388L310,388L310,388L310,388L313,391L317,391L320,394L320,397L316,409L315,410L315,410L318,410L324,398L325,395L322,387L318,384L316,381L319,373L322,372L323,367L324,367L320,368L319,359L314,359Z " data-fips="RP25" data-fips-="" data-iso3="PHL" data-name="Davao Del Sur"/><path d="M339,348L336,348L336,350L337,363L339,366L331,372L331,373L332,377L334,378L334,383L336,388L337,392L338,380L337,379L337,375L340,379L340,374L344,373L344,372L347,366L346,366L346,363L347,362L346,357L346,355L341,351L341,351L339,349L339,349L339,348Z " data-fips="RP26" data-fips-="" data-iso3="PHL" data-name="Davao Oriental"/><path d="M310,388L310,388L310,389L309,391L313,394L313,397L313,397L314,400L311,405L315,410L315,410L316,409L320,397L320,394L317,391L313,391L310,388L310,388Z " data-fips="RP25" data-fips-="" data-iso3="PHL" data-name="Sarangani"/><path d="M291,395L294,395L297,397L302,399L310,401L310,398L312,397L313,397L313,397L313,394L309,391L310,389L310,388L310,388L310,388L311,388L311,387L311,386L311,385L307,385L302,386L300,383L297,383L297,386L298,391L288,392L289,394L291,395Z " data-fips="RP70" data-fips-="" data-iso3="PHL" data-name="South Cotabato"/><path d="M291,395L291,396L291,396L291,396L292,397L301,401L302,402L309,402L310,401L302,399L297,397L294,395L291,395L291,395Z " data-fips="RP70" data-fips-="RP71" data-iso3="PHL" data-name="Sultan Kudarat"/></g></svg>