<?xml version="1.0" encoding="UTF-8"?><!DOCTYPE svg  PUBLIC '-//W3C//DTD SVG 1.1//EN'  'http://www.w3.org/Graphics/SVG/1.1/DTD/svg11.dtd'><svg enable_background="new 0 0 450 300" height="300px" style="stroke-linejoin: round; stroke:#000; fill: none;" version="1.1" viewBox="0 0 450 300" width="450px" xmlns="http://www.w3.org/2000/svg" xmlns:xlink="http://www.w3.org/1999/xlink"><defs><style type="text/css"><![CDATA[path { fill-rule: evenodd; }]]></style></defs><metadata><views><view h="300" padding="0" w="450"><proj id="laea" lon0="134.348033338233" lat0="7.197635973740608"/><bbox x="929.19" y="985.10" w="106.58" h="71.06"/></view></views></metadata><g class="" id="context"><path d="M309,48L307,48L306,50L308,54L312,54L315,42L315,37L314,35L314,40L310,42L307,46L309,48ZM304,56L306,55L308,57L307,55L305,54L304,56ZM304,57L304,58L301,61L299,59L299,61L305,60L305,57L304,57ZM293,74L296,70L295,69L293,74ZM288,77L289,79L290,79L289,77L288,77ZM189,161L188,161L189,162L189,161ZM134,278L132,279L132,280L134,279L134,278ZM167,283L166,283L165,284L167,283ZM318,16L317,17L317,18L318,18L318,16Z" data-iso="PLW"/></g><g class="" id="regions"><path d="M307,52L310,51L309,49L306,49L307,52Z" data-region="002" data-iso3="PLW" data-name="Aimeliik" data-p="002"/><path d="M310,51L307,52L308,54L312,54L312,51L310,51Z" data-region="004" data-iso3="PLW" data-name="Airai" data-p="004"/><path d="M290,78L289,77L288,77L289,79L290,78Z" data-region="010" data-iso3="PLW" data-name="Angaur" data-p="010"/><path d="M167,283L165,284L167,283ZM131,280L133,280L135,279L133,278L131,280Z" data-region="050" data-iso3="PLW" data-name="Hatobohei" data-p="050"/><path d="M317,18L318,18L318,16L317,18Z" data-region="100" data-iso3="PLW" data-name="Kayangel" data-p="100"/><path d="M305,57L304,57L304,58L301,61L299,59L299,61L305,60L305,57ZM305,54L304,56L306,55L308,57L307,55L305,54Z" data-region="150" data-iso3="PLW" data-name="Koror" data-p="150"/><path d="M312,45L312,48L314,47L312,45Z" data-region="212" data-iso3="PLW" data-name="Melekeok" data-p="212"/><path d="M314,38L313,42L315,42L315,37L314,38Z" data-region="214" data-iso3="PLW" data-name="Ngaraard" data-p="214"/><path d="M315,37L313,35L314,38L315,37Z" data-region="218" data-iso3="PLW" data-name="Ngarchelong" data-p="218"/><path d="M309,43L313,43L313,41L310,41L309,43Z" data-region="222" data-iso3="PLW" data-name="Ngardmau" data-p="222"/><path d="M309,49L310,51L311,49L309,46L309,48L306,49L309,49Z" data-region="224" data-iso3="PLW" data-name="Ngatpang" data-p="224"/><path d="M313,48L312,47L310,51L312,51L313,48Z" data-region="226" data-iso3="PLW" data-name="Ngchesar" data-p="226"/><path d="M311,49L313,43L312,42L309,43L307,46L309,46L311,49Z" data-region="227" data-iso3="PLW" data-name="Ngeremlengui" data-p="227"/><path d="M313,42L312,45L313,46L315,42L313,42Z" data-region="228" data-iso3="PLW" data-name="Ngiwal" data-p="228"/><path d="M293,74L295,72L295,69L293,74Z" data-region="350" data-iso3="PLW" data-name="Peleliu" data-p="350"/><path d="M189,161L188,161L189,162L189,161Z" data-region="370" data-iso3="PLW" data-name="Sonsorol" data-p="370"/></g></svg>