<?xml version="1.0" encoding="UTF-8"?><!DOCTYPE svg  PUBLIC '-//W3C//DTD SVG 1.1//EN'  'http://www.w3.org/Graphics/SVG/1.1/DTD/svg11.dtd'><svg enable_background="new 0 0 450 301" height="301px" style="stroke-linejoin: round; stroke:#000; fill:#f6f3f0;" version="1.1" viewBox="0 0 450 301" width="450px" xmlns="http://www.w3.org/2000/svg" xmlns:xlink="http://www.w3.org/1999/xlink"><defs><style type="text/css"><![CDATA[path { fill-rule: evenodd; }
#context path { fill: #eee; stroke: #bbb; } ]]></style></defs><metadata><views><view h="301.0" padding="0.06" w="450"><proj id="laea" lat0="-5.47162953048" lon0="143.424301513"/><bbox h="150.16" w="207.19" x="957.34" y="938.32"/><llbbox lat0="-90" lat1="90" lon0="-180" lon1="180"/></view></views></metadata><g id="context"><path d="M103,299L100,293L96,291L96,289L98,282L90,279L90,269L88,261L87,259L83,256L82,251L80,251L77,256L73,257L73,265L68,281L69,283L66,283L62,292L62,295L67,299L103,299Z M76,251L74,249L73,252L76,251Z M77,239L74,238L76,240L77,239Z " data-iso="AUS"/><path d="M44,213L44,158L41,154L41,151L44,144L43,53L38,53L35,49L27,48L23,46L14,46L0,40L0,188L2,185L4,189L19,188L21,186L20,190L23,193L32,200L40,209L43,212L44,213Z " data-iso="IDN"/><path d="M347,273L342,270L340,271L343,275L347,277L351,274L347,273Z M365,271L361,269L361,272L365,271Z M289,236L288,234L284,231L286,238L292,240L294,235L289,236Z M276,219L274,221L275,224L274,226L283,228L285,227L284,223L282,221L279,221L276,219Z M271,223L271,217L268,216L266,219L271,223Z M327,211L324,212L333,217L336,214L331,211L327,211Z M108,201L104,198L105,200L108,201Z M290,204L291,197L288,199L290,200L289,204L290,204Z M108,197L106,194L101,194L108,197Z M216,132L217,127L212,124L210,127L212,130L216,132Z M409,156L406,148L397,142L395,138L389,129L386,127L380,125L379,132L381,138L391,146L391,152L394,157L401,160L403,160L409,156Z M195,122L196,118L194,116L192,118L194,122L195,122Z M378,124L380,119L379,115L375,116L378,124Z M167,105L168,101L164,102L164,103L167,105Z M312,95L306,93L304,93L303,96L305,104L305,110L303,111L297,112L292,115L288,123L280,125L277,124L272,125L269,125L266,120L269,114L268,113L265,116L264,123L260,125L249,126L240,124L235,124L226,123L224,125L224,128L225,131L235,134L242,139L249,138L252,140L256,144L275,144L294,135L301,129L301,127L306,126L310,127L315,124L317,122L313,115L314,113L320,112L323,106L322,100L324,97L317,93L313,96L312,95Z M330,67L330,65L328,68L330,67Z M316,62L313,60L315,63L316,62Z M43,53L43,53L43,54L44,144L41,151L41,154L44,158L44,213L48,215L55,213L62,215L76,214L85,218L90,215L102,209L103,207L101,201L99,199L88,193L84,192L96,193L108,190L106,185L115,185L114,184L116,184L115,177L123,179L130,174L137,176L139,176L141,180L162,185L167,187L172,194L173,196L182,209L183,210L190,211L189,216L202,229L204,232L209,236L229,239L230,239L237,241L247,242L257,244L263,249L266,250L274,251L278,249L273,244L279,242L276,240L260,235L257,230L263,229L263,227L257,225L250,225L245,223L244,220L245,215L245,212L241,211L234,212L229,211L225,202L221,199L218,188L208,182L197,172L195,170L190,157L194,154L200,154L208,154L212,150L211,145L205,138L200,135L192,134L177,127L163,123L160,121L162,116L161,107L150,96L144,95L138,89L127,82L124,82L118,81L106,73L91,70L74,64L68,61L65,60L61,58L49,53L44,53L43,53Z M337,107L339,103L339,100L341,95L339,91L323,78L315,70L309,68L301,62L297,60L285,53L283,57L299,64L304,67L319,76L321,78L328,88L331,95L330,101L332,104L335,109L337,107Z M276,55L276,50L271,48L268,48L266,51L268,53L276,55Z M193,37L188,36L182,38L180,41L181,43L185,41L190,42L197,42L201,38L193,37Z M259,27L258,24L256,23L254,25L257,28L259,27Z " data-iso="PNG"/><path d="M442,207L443,201L438,203L442,207Z M450,195L448,190L445,189L441,193L439,195L440,198L442,196L445,196L447,201L450,202L450,195Z M424,193L423,188L422,191L424,193Z M437,192L438,188L434,186L434,192L437,192Z M426,187L429,182L422,180L426,187Z M406,166L406,165L403,163L403,167L406,166Z M446,173L442,172L439,168L437,163L435,162L428,158L425,155L422,154L422,158L427,162L432,169L436,172L444,175L446,173Z " data-iso="SLB"/></g><g fill="red" fill-opacity="0.35" id="regions"><path d="M123,117L122,116L122,114L117,111L117,111L98,112L95,113L93,113L91,113L87,112L88,124L91,127L98,130L105,135L111,134L113,134L113,134L112,132L119,129L120,125L123,119L124,118L123,117Z " data-fips="PP19" data-fips-="" data-iso3="PNG" data-name="Enga"/><path d="M95,71L93,75L89,73L85,73L84,76L84,80L84,82L81,88L80,89L64,89L62,87L53,93L52,95L53,99L55,102L56,102L74,102L76,103L77,110L80,111L82,111L84,111L86,111L87,112L91,113L93,113L95,113L98,112L117,111L118,111L119,110L129,103L132,98L132,87L132,86L130,82L125,82L122,83L118,82L116,80L105,72L96,71L95,71Z " data-fips="PP11" data-fips-="" data-iso3="PNG" data-name="East Sepik"/><path d="M197,122L196,118L192,117L195,122L197,122Z M166,105L168,104L167,100L166,100L166,105Z M132,87L132,98L129,103L119,110L118,111L117,111L117,111L122,114L122,116L123,117L124,118L125,118L127,117L130,119L139,125L143,130L143,131L144,131L145,132L146,133L148,133L151,133L155,135L156,134L163,135L163,136L178,136L186,132L186,132L186,131L183,130L178,126L166,123L161,123L160,121L162,117L162,109L162,108L159,106L156,101L150,96L147,96L132,87L132,87Z " data-fips="PP12" data-fips-="" data-iso3="PNG" data-name="Madang"/><path d="M44,111L44,111L44,111L74,121L75,121L78,115L77,113L77,110L76,103L74,102L56,102L55,102L53,99L52,95L53,93L62,87L64,89L80,89L81,88L84,82L84,80L84,76L85,73L89,73L93,75L95,71L95,71L71,64L66,61L58,57L51,54L45,52L44,53L44,101L44,111Z " data-fips="PP18" data-fips-="" data-iso3="PNG" data-name="Sandaun"/><path d="M142,131L137,131L137,134L135,137L136,139L132,146L131,145L131,146L132,151L132,152L135,153L135,154L135,154L140,154L142,155L148,157L149,157L150,154L150,153L147,153L142,149L142,147L148,144L149,142L146,138L146,134L146,133L145,132L144,131L143,131L142,131Z " data-fips="PP08" data-fips-="" data-iso3="PNG" data-name="Chimbu"/><path d="M163,135L156,134L155,135L151,133L148,133L146,133L146,134L146,138L149,142L148,144L142,147L142,149L147,153L150,153L150,154L149,157L163,166L164,163L166,158L166,154L167,153L170,142L164,136L163,136L163,135Z " data-fips="PP09" data-fips-="" data-iso3="PNG" data-name="Eastern Highlands"/><path d="M148,157L142,155L140,154L135,154L135,154L110,156L93,156L93,161L116,185L117,184L111,173L112,173L114,176L121,179L124,179L124,176L125,175L130,180L131,176L130,173L132,176L134,174L136,177L139,175L139,178L142,181L150,182L152,183L157,183L161,185L169,187L169,189L171,191L173,195L176,199L176,200L176,185L179,181L182,180L176,176L169,174L168,172L167,171L163,166L149,157L148,157Z " data-fips="PP02" data-fips-="" data-iso3="PNG" data-name="Gulf"/><path d="M382,126L379,125L380,129L379,133L380,137L391,147L392,148L390,152L397,159L403,161L405,159L408,159L409,158L408,152L401,144L391,133L388,129L385,127L384,128L382,126Z M379,116L377,114L376,117L377,125L379,124L380,119L379,116Z " data-fips="PP07" data-fips-="" data-iso3="PNG" data-name="North Solomons"/><path d="M86,111L84,111L82,111L80,111L77,110L77,113L78,115L75,121L74,121L73,123L74,124L82,132L85,136L85,153L87,156L89,156L93,156L110,156L135,154L135,153L132,152L132,151L131,146L131,145L118,136L117,136L116,136L115,135L113,134L111,134L105,135L98,130L91,127L88,124L87,112L86,111Z " data-fips="PP05" data-fips-="" data-iso3="PNG" data-name="Southern Highlands"/><path d="M143,130L139,125L130,119L127,117L125,118L124,118L123,119L120,125L119,129L112,132L113,134L113,134L115,135L116,136L117,136L118,136L131,145L132,146L136,139L135,137L137,134L137,131L142,131L143,131L143,130Z " data-fips="PP16" data-fips-="" data-iso3="PNG" data-name="Western Highlands"/><path d="M88,219L84,219L85,220L88,219Z M109,203L105,199L100,196L109,203Z M102,194L108,197L107,194L102,194Z M110,195L109,194L107,193L110,195Z M74,121L44,111L44,111L44,111L44,111L44,136L44,144L42,150L41,153L44,158L44,212L49,215L54,213L67,215L75,214L80,215L84,218L90,215L94,212L102,210L103,204L100,200L95,196L84,193L82,194L78,190L74,190L74,189L78,190L82,193L83,192L89,192L92,193L102,191L108,191L107,186L103,183L112,186L116,185L116,185L93,161L93,156L89,156L87,156L85,153L85,136L82,132L74,124L73,123L74,121Z " data-fips="PP06" data-fips-="" data-iso3="PNG" data-name="Western"/><path d="M190,185L188,185L186,185L184,181L182,180L179,181L176,185L176,200L177,200L180,205L181,210L188,213L188,216L193,222L193,222L193,220L195,219L197,223L198,223L202,229L204,233L207,235L208,237L209,236L217,238L219,237L224,240L229,239L231,237L233,239L232,240L237,241L240,241L249,242L249,243L254,243L255,243L255,238L242,230L238,229L238,230L237,230L238,233L234,234L230,232L224,229L222,229L216,225L210,214L208,214L207,212L204,208L203,205L205,201L204,196L198,192L190,185L190,185Z " data-fips="PP01" data-fips-="" data-iso3="PNG" data-name="Central"/><path d="M305,111L305,113L298,114L295,118L293,123L295,124L291,127L288,128L282,131L279,133L279,134L283,140L283,140L284,137L285,138L290,138L293,136L296,134L298,132L300,127L301,126L307,126L309,127L316,124L317,122L313,116L313,112L319,112L323,108L324,104L323,100L323,96L318,96L317,93L314,93L315,94L313,96L311,96L310,94L305,93L302,93L304,100L305,111L305,111Z " data-fips="PP10" data-fips-="" data-iso3="PNG" data-name="East New Britain"/><path d="M189,37L183,37L182,40L180,41L181,43L185,42L184,41L190,43L195,42L197,42L199,39L201,39L189,37Z " data-fips="PP13" data-fips-="" data-iso3="PNG" data-name="Manus"/><path d="M341,270L339,270L341,273L345,275L352,276L352,275L341,270Z M364,269L361,270L361,272L365,272L364,269Z M324,251L329,252L327,252L324,251Z M288,234L283,230L282,231L287,236L286,238L291,239L293,241L292,234L290,235L288,234Z M250,225L248,226L241,228L238,229L238,230L238,229L242,230L255,238L255,243L256,243L261,247L263,246L264,247L260,248L265,251L267,251L268,252L279,250L278,247L275,246L272,243L276,244L282,242L279,242L273,240L268,238L263,237L259,235L259,234L256,231L264,228L264,227L252,225L250,225Z M279,221L275,219L273,220L275,226L283,228L285,227L279,221Z M272,220L271,218L266,217L270,223L272,220Z M328,211L325,211L324,212L328,214L332,217L336,214L332,212L331,211L328,211Z M291,197L288,199L291,201L289,204L290,204L291,197Z " data-fips="PP03" data-fips-="" data-iso3="PNG" data-name="Milne Bay"/><path d="M186,132L186,132L178,136L163,136L164,136L170,142L167,153L166,154L166,158L164,163L163,166L167,171L168,172L169,174L176,176L182,180L184,181L186,185L188,185L190,185L190,185L214,186L214,185L207,181L205,181L205,178L202,175L196,173L194,166L192,161L190,158L190,154L194,154L199,155L210,154L212,153L209,143L206,139L204,136L199,135L194,135L186,132L186,132Z M211,124L210,127L212,129L215,131L217,130L214,125L211,124Z " data-fips="PP14" data-fips-="" data-iso3="PNG" data-name="Morobe"/><path d="M193,222L193,220L194,222L197,223L197,223L195,219L193,220L193,222L193,222Z " data-fips="" data-fips-="" data-iso3="PNG" data-name="National Capital District"/><path d="M330,69L330,65L328,65L330,69Z M316,63L314,60L313,61L316,63Z M314,59L312,56L312,59L314,59Z M291,56L287,54L285,56L292,59L300,65L301,66L304,67L309,72L313,75L317,75L323,80L326,84L331,93L330,102L333,106L337,108L338,107L341,98L341,95L338,91L335,88L328,84L327,80L325,80L318,73L315,69L310,68L306,65L302,63L300,61L296,60L294,58L291,56Z M271,48L265,50L270,55L276,54L276,50L271,48Z M255,22L254,25L258,27L260,28L259,25L255,22Z " data-fips="PP15" data-fips-="" data-iso3="PNG" data-name="New Ireland"/><path d="M190,185L198,192L204,196L205,201L203,205L204,208L207,212L208,214L210,214L216,225L222,229L224,229L230,232L234,234L238,233L237,230L238,230L238,229L241,228L248,226L250,225L250,225L248,224L244,219L247,213L247,212L242,210L241,211L232,213L230,212L227,204L223,200L222,201L221,197L218,187L215,186L214,186L190,185Z " data-fips="PP04" data-fips-="" data-iso3="PNG" data-name="Northern"/><path d="M283,140L279,134L279,133L282,131L288,128L291,127L295,124L293,123L295,118L298,114L305,113L305,111L305,111L298,110L292,116L289,122L286,124L284,123L282,125L280,126L276,123L271,126L267,124L266,117L269,113L265,113L265,118L263,120L264,123L262,125L258,126L255,125L253,126L245,127L239,123L232,124L229,125L226,123L225,123L224,129L226,131L229,132L234,133L241,137L241,140L243,140L247,138L251,139L254,143L264,143L267,144L268,143L273,144L276,144L283,140L283,140Z " data-fips="PP17" data-fips-="" data-iso3="PNG" data-name="West New Britain"/></g></svg>