<?xml version="1.0" encoding="UTF-8"?><!DOCTYPE svg  PUBLIC '-//W3C//DTD SVG 1.1//EN'  'http://www.w3.org/Graphics/SVG/1.1/DTD/svg11.dtd'><svg enable_background="new 0 0 450 301" height="301px" style="stroke-linejoin: round; stroke:#000; fill: none;" version="1.1" viewBox="0 0 450 301" width="450px" xmlns="http://www.w3.org/2000/svg" xmlns:xlink="http://www.w3.org/1999/xlink"><defs><style type="text/css"><![CDATA[path { fill-rule: evenodd; }]]></style></defs><metadata><views><view h="301.0" padding="0.06" w="450"><proj id="laea" lat0="53.7637858139" lon0="20.998020603"/><bbox h="81.4" w="84.72" x="944.32" y="981.79"/></view></views></metadata><g class="" id="context"><path d="M153,298L152,297L151,293L146,291L143,289L137,289L135,290L126,289L120,283L113,282L105,277L100,278L100,277L95,276L92,285L86,289L85,293L77,291L75,293L70,292L66,291L64,287L60,283L59,283L59,283L54,293L49,290L45,299L152,299L152,298L153,298Z " data-iso="AUT"/><path d="M340,58L344,73L350,88L353,99L354,104L354,113L352,115L342,121L338,126L335,131L335,134L346,141L348,147L347,151L348,154L345,163L347,167L348,167L347,163L353,162L355,162L362,160L366,155L368,151L382,148L388,147L393,146L412,146L421,148L425,148L436,151L446,151L450,156L450,0L410,0L406,8L400,10L399,14L398,19L398,26L396,31L394,38L400,40L400,45L395,46L392,39L387,41L381,47L377,47L376,48L374,55L370,55L363,59L360,58L347,59L342,59L340,58Z " data-iso="BLR"/><path d="M97,192L96,193L91,191L92,188L83,182L80,189L71,193L60,195L58,198L51,199L49,202L44,202L42,206L37,204L30,205L27,207L21,214L18,208L16,209L19,217L27,228L22,234L26,242L28,248L33,254L36,254L41,263L49,273L52,273L58,280L59,283L60,283L64,287L66,291L70,292L75,293L77,291L85,293L86,289L92,285L95,276L100,277L100,278L105,277L113,282L120,283L126,289L135,290L137,289L143,289L146,291L151,293L152,297L153,298L154,294L160,286L169,288L173,288L180,284L187,278L190,269L196,266L203,259L209,259L210,259L210,257L210,254L204,247L203,242L201,241L189,236L188,234L183,237L175,228L178,227L179,225L177,222L170,223L163,217L158,215L156,218L158,223L151,227L150,229L146,228L143,222L140,217L138,211L140,210L138,203L132,204L114,195L110,191L110,187L103,184L102,190L100,191L97,191L97,192Z " data-iso="CZE"/><path d="M89,46L84,41L86,47L85,52L92,53L93,53L93,51L93,50L89,46Z M19,20L18,16L14,14L13,17L15,19L19,20Z M82,29L80,24L82,22L81,20L77,18L76,14L74,14L71,16L68,30L72,34L74,34L76,30L79,31L81,34L82,29Z M59,283L58,280L52,273L49,273L41,263L36,254L33,254L28,248L26,242L22,234L27,228L19,217L16,209L18,208L21,214L27,207L30,205L37,204L42,206L44,202L49,202L51,199L58,198L60,195L71,193L80,189L83,182L92,188L91,191L96,193L97,192L97,191L97,190L102,181L104,174L102,164L98,156L95,149L95,146L100,136L99,134L99,128L96,122L98,115L96,109L89,103L86,98L94,88L96,80L94,68L94,60L93,60L87,58L84,53L83,46L81,39L74,39L67,32L64,26L53,22L41,31L39,34L30,34L28,35L20,41L19,41L4,33L10,29L12,25L11,20L4,22L0,19L0,299L45,299L49,290L54,293L59,283L59,283Z " data-iso="DEU"/><path d="M15,0L14,3L24,11L28,10L33,10L31,2L28,2L25,0L15,0Z M43,0L45,1L47,0L43,0Z M5,0L5,3L6,3L5,0Z M112,0L115,2L120,4L122,0L112,0Z M34,0L36,6L41,4L34,0Z " data-iso="DNK"/><path d="M321,39L322,38L326,39L328,42L337,46L339,49L340,57L340,58L342,59L347,59L360,58L363,59L370,55L374,55L376,48L377,47L381,47L387,41L392,39L395,46L400,45L400,40L394,38L396,31L398,26L398,19L399,14L400,10L406,8L410,0L285,0L297,6L309,8L315,8L316,12L322,18L319,27L319,37L321,39Z " data-iso="LTU"/><path d="M236,36L232,38L221,40L217,39L213,36L211,32L207,21L209,21L216,27L215,24L204,17L198,17L192,17L176,21L169,24L166,26L157,27L152,32L147,39L139,40L122,44L107,48L98,51L94,51L93,50L93,51L93,53L97,54L102,56L102,65L99,63L94,60L94,68L96,80L94,88L86,98L89,103L96,109L98,115L96,122L99,128L99,134L100,136L95,146L95,149L98,156L102,164L104,174L102,181L97,190L97,191L100,191L102,190L103,184L110,187L110,191L114,195L132,204L138,203L140,210L138,211L140,217L143,222L146,228L150,229L151,227L158,223L156,218L158,215L163,217L170,223L177,222L179,225L178,227L175,228L183,237L188,234L189,236L201,241L203,242L204,247L210,254L210,257L210,259L213,259L214,264L219,264L222,259L228,255L233,262L238,266L237,273L242,273L246,274L249,268L255,265L263,265L268,268L274,267L276,264L284,263L293,264L300,267L303,269L304,273L318,279L320,279L321,279L325,280L329,279L323,260L323,258L324,255L333,241L352,219L360,217L363,212L363,208L359,200L363,196L358,191L355,185L349,175L349,170L347,167L345,163L348,154L347,151L348,147L346,141L335,134L335,131L338,126L342,121L352,115L354,113L354,104L353,99L350,88L344,73L340,58L340,57L339,49L337,46L328,42L326,39L322,38L321,39L320,40L305,40L265,38L253,37L237,35L236,36Z " data-iso="POL"/><path d="M237,35L253,37L265,38L305,40L320,40L321,39L319,37L319,27L322,18L316,12L315,8L309,8L297,6L285,0L280,0L279,14L274,15L271,15L263,12L272,0L262,11L258,13L251,13L247,14L246,22L244,27L241,31L237,35Z " data-iso="RUS"/><path d="M320,279L318,279L304,273L303,269L300,267L293,264L284,263L276,264L274,267L268,268L263,265L255,265L249,268L246,274L242,273L237,273L238,266L233,262L228,255L222,259L219,264L214,264L213,259L210,259L209,259L203,259L196,266L190,269L187,278L180,284L173,288L169,288L160,286L154,294L153,298L152,298L152,299L311,299L314,294L315,288L319,281L320,279Z " data-iso="SVK"/><path d="M347,167L349,170L349,175L355,185L358,191L363,196L359,200L363,208L363,212L360,217L352,219L333,241L324,255L323,258L323,260L329,279L325,280L321,279L320,279L319,281L315,288L314,294L311,299L450,299L450,156L446,151L436,151L425,148L421,148L412,146L393,146L388,147L382,148L368,151L366,155L362,160L355,162L353,162L347,163L348,167L347,167Z " data-iso="UKR"/></g><g class="" id="regions"><path d="M224,76L226,80L227,84L238,89L240,93L240,97L241,97L245,96L253,97L257,95L257,94L260,93L264,91L266,89L268,89L272,88L277,87L279,84L282,84L285,82L288,81L290,80L299,79L304,75L306,72L314,68L315,66L317,59L314,55L313,51L310,48L312,44L318,43L321,40L322,38L321,39L321,39L321,39L319,40L241,36L233,42L231,45L228,43L228,44L229,49L227,55L228,57L231,59L230,60L235,61L234,66L228,68L224,76Z " data-fips="PL85" data-fips-="PL30|PL85" data-iso3="POL" data-name="Warmian-Masurian" data-p="WN"/><path d="M163,27L167,34L167,39L167,43L163,44L164,50L164,52L169,61L166,62L167,64L165,67L165,72L166,73L169,76L174,77L176,78L177,79L178,79L180,74L185,75L186,74L187,72L195,69L199,68L202,71L207,72L209,73L212,72L217,75L222,76L224,76L228,68L234,66L235,61L230,60L231,59L228,57L227,55L229,49L228,44L228,43L231,45L233,42L241,36L239,36L237,35L235,37L231,39L221,40L214,38L210,35L210,30L208,26L207,19L204,17L193,17L188,18L178,20L170,23L165,26L163,27Z " data-fips="PL82" data-fips-="PL82" data-iso3="POL" data-name="Pomeranian" data-p="PM"/><path d="M103,169L104,171L102,181L97,190L102,191L104,185L107,185L110,187L113,196L115,195L122,199L124,198L126,202L129,201L131,205L133,203L135,205L140,204L142,207L140,211L136,213L140,217L140,218L144,224L145,226L147,229L149,229L153,225L158,225L158,222L155,216L156,215L157,215L159,210L161,208L165,204L172,193L174,189L180,184L181,183L180,181L180,176L181,174L176,173L175,169L177,166L174,164L171,163L165,165L160,166L156,164L152,161L151,156L147,154L144,154L143,156L139,158L136,153L132,152L122,165L120,165L116,163L112,166L108,165L103,167L103,169Z " data-fips="PL72" data-fips-="PL72" data-iso3="POL" data-name="Lower Silesian" data-p="DS"/><path d="M163,27L158,27L154,30L146,40L138,40L133,42L122,44L115,46L109,47L97,52L94,51L92,52L95,56L98,54L99,53L102,55L103,57L104,55L103,59L101,62L102,66L100,63L95,59L94,64L96,81L94,85L94,87L92,92L87,95L86,100L93,105L95,109L97,110L98,112L100,109L104,108L106,105L108,102L111,100L115,102L119,100L120,97L125,96L130,97L135,93L139,92L139,94L139,96L140,97L145,98L148,95L150,92L157,89L159,87L159,85L154,81L154,77L159,77L164,71L165,72L165,67L167,64L166,62L169,61L164,52L164,50L163,44L167,43L167,39L167,34L163,27L163,27Z " data-fips="PL87" data-fips-="PL38|PL87" data-iso3="POL" data-name="West Pomeranian" data-p="ZP"/><path d="M139,94L139,92L135,93L130,97L125,96L120,97L119,100L115,102L111,100L108,102L106,105L104,108L100,109L98,112L98,112L96,121L97,126L99,128L99,134L100,136L98,142L94,147L96,153L98,154L97,160L103,166L103,167L108,165L112,166L116,163L120,165L122,165L132,152L136,153L139,158L143,156L144,154L144,151L142,148L137,148L138,144L136,143L134,140L132,139L131,136L133,129L131,122L133,122L132,112L136,108L135,105L138,102L138,99L139,96L139,94Z " data-fips="PL76" data-fips-="PL32|PL76" data-iso3="POL" data-name="Lubusz" data-p="LB"/><path d="M164,71L159,77L154,77L154,81L159,85L159,87L157,89L150,92L148,95L145,98L140,97L139,96L138,99L138,102L135,105L136,108L132,112L133,122L131,122L133,129L131,136L132,139L134,140L136,143L138,144L137,148L142,148L144,151L144,154L147,154L151,156L152,161L156,164L160,166L165,165L171,163L174,164L177,166L175,169L176,173L181,174L180,176L180,181L181,183L182,183L183,186L184,187L190,186L193,184L193,182L191,179L191,176L193,175L196,172L200,170L200,162L201,160L204,155L208,155L210,145L214,145L215,143L216,139L221,137L220,135L220,133L217,131L212,133L211,131L202,125L202,124L198,126L186,118L184,118L178,115L176,112L179,107L178,103L174,101L176,95L175,92L177,90L176,87L174,83L176,81L177,79L176,78L174,77L169,76L166,73L165,72L164,71Z " data-fips="PL86" data-fips-="PL42|PL86" data-iso3="POL" data-name="Greater Poland" data-p="WP"/><path d="M222,76L217,75L212,72L209,73L207,72L202,71L199,68L195,69L187,72L186,74L185,75L180,74L178,79L177,79L176,81L174,83L176,87L177,90L175,92L176,95L174,101L178,103L179,107L176,112L178,115L184,118L186,118L198,126L202,124L202,125L211,131L212,133L217,131L220,133L220,133L224,132L225,132L226,131L227,131L227,130L229,126L229,123L232,116L232,106L237,104L239,98L240,97L240,93L238,89L227,84L226,80L224,76L222,76Z " data-fips="PL73" data-fips-="PL26|PL73" data-iso3="POL" data-name="Kuyavian-Pomeranian" data-p="KP"/><path d="M207,191L206,195L206,199L203,201L201,207L202,209L204,212L204,213L199,214L198,217L197,227L193,229L189,230L187,234L188,234L194,238L194,240L204,243L205,250L209,251L210,255L210,259L214,260L214,264L219,264L222,259L228,255L228,255L227,253L228,250L223,246L222,245L219,240L221,237L228,229L226,225L228,225L231,221L236,220L240,219L244,217L244,216L244,215L243,215L241,213L244,211L239,203L241,203L241,201L238,201L235,199L231,199L229,195L225,193L220,193L215,190L213,191L209,191L207,191Z " data-fips="PL83" data-fips-="PL83" data-iso3="POL" data-name="Silesian" data-p="SL"/><path d="M226,131L225,132L224,132L220,133L220,133L220,135L221,137L216,139L215,143L214,145L210,145L208,155L204,155L201,160L200,162L200,170L196,172L193,175L191,176L191,179L193,182L193,184L194,186L194,186L201,188L205,189L207,191L209,191L213,191L215,190L220,193L225,193L229,195L231,199L235,199L238,201L239,200L242,193L243,192L246,195L247,191L245,189L247,185L256,182L257,180L258,179L258,178L260,175L260,172L259,171L258,165L258,163L264,164L264,161L263,160L263,156L258,151L255,152L252,147L253,146L252,143L250,142L248,138L245,135L242,135L236,137L229,133L227,131L226,131Z " data-fips="PL74" data-fips-="PL58|PL74" data-iso3="POL" data-name="Lódz" data-p="LD"/><path d="M331,133L329,130L318,128L316,124L316,122L313,119L312,110L307,110L307,108L306,107L301,108L297,102L297,99L292,95L290,91L288,83L288,81L285,82L282,84L279,84L277,87L272,88L268,89L266,89L264,91L260,93L257,94L257,95L253,97L245,96L241,97L240,97L239,98L237,104L232,106L232,116L229,123L229,126L227,130L227,131L229,133L236,137L242,135L245,135L248,138L250,142L252,143L253,146L252,147L255,152L258,151L263,156L263,160L264,161L264,164L258,163L258,165L259,171L260,172L260,175L258,178L258,179L259,180L260,182L265,185L267,187L270,188L274,187L277,184L279,189L281,190L288,192L297,190L297,188L298,176L297,175L298,170L297,168L292,164L292,163L297,164L299,163L298,159L301,157L299,153L298,149L299,147L312,145L314,143L319,144L322,140L326,142L331,134L332,133L331,133Z " data-fips="PL78" data-fips-="PL28|PL78" data-iso3="POL" data-name="Masovian" data-p="MZ"/><path d="M288,192L281,190L279,189L277,184L274,187L270,188L267,187L265,185L260,182L259,180L258,179L257,180L256,182L247,185L245,189L247,191L246,195L243,192L242,193L239,200L238,201L241,201L241,203L239,203L244,211L241,213L243,215L244,215L247,215L253,219L255,224L257,228L260,229L263,230L267,225L278,222L279,222L282,219L283,219L283,219L287,215L289,214L297,206L298,204L298,200L298,200L298,199L297,196L297,190L297,190L288,192Z " data-fips="PL84" data-fips-="PL84" data-iso3="POL" data-name="Swietokrzyskie" data-p="SK"/><path d="M322,38L321,40L318,43L312,44L310,48L313,51L314,55L317,59L315,66L314,68L306,72L304,75L299,79L290,80L288,81L288,83L290,91L292,95L297,99L297,102L301,108L306,107L307,108L307,110L312,110L313,119L316,122L316,124L318,128L329,130L331,133L332,133L332,133L333,133L334,133L334,133L336,129L342,121L345,119L349,118L353,115L354,112L353,103L352,98L353,93L351,92L346,79L344,73L340,55L340,54L335,44L328,42L326,38L322,38L322,38Z " data-fips="PL81" data-fips-="PL81" data-iso3="POL" data-name="Podlachian" data-p="PD"/><path d="M332,133L331,134L326,142L322,140L319,144L314,143L312,145L299,147L298,149L299,153L301,157L298,159L299,163L297,164L292,163L292,164L297,168L298,170L297,175L298,176L297,188L297,190L297,190L297,196L298,199L298,200L302,202L304,202L307,201L310,203L309,207L316,209L320,211L320,216L318,219L320,221L324,220L328,222L334,222L338,220L341,218L345,217L351,221L351,220L353,218L359,218L361,216L361,214L363,207L362,203L359,199L360,198L363,198L364,197L359,193L357,190L355,184L352,181L350,177L348,176L350,172L345,163L348,154L349,146L347,142L343,138L335,135L335,133L334,133L333,133L332,133L332,133Z " data-fips="PL75" data-fips-="PL45|PL75" data-iso3="POL" data-name="Lublin" data-p="LU"/><path d="M298,200L298,200L298,204L297,206L289,214L287,215L283,219L283,219L282,223L280,229L281,236L281,240L284,244L281,246L287,251L289,264L290,264L296,266L298,266L303,269L307,274L310,276L315,278L319,279L322,280L326,280L330,282L329,280L325,275L325,270L325,266L323,261L323,256L328,250L336,237L345,227L348,224L351,221L351,221L345,217L341,218L338,220L334,222L328,222L324,220L320,221L318,219L320,216L320,211L316,209L309,207L310,203L307,201L304,202L302,202L298,200Z " data-fips="PL80" data-fips-="PL80" data-iso3="POL" data-name="Subcarpathian" data-p="PK"/><path d="M181,183L180,184L174,189L172,193L165,204L161,208L159,210L157,215L157,215L164,219L167,220L170,224L172,223L180,225L179,227L175,228L179,232L180,235L183,237L188,235L187,234L187,234L189,230L193,229L197,227L198,217L199,214L204,213L204,212L202,209L201,207L203,201L206,199L206,195L207,191L205,189L201,188L194,186L194,186L193,184L190,186L184,187L183,186L182,183L181,183Z " data-fips="PL79" data-fips-="PL79" data-iso3="POL" data-name="Opole" data-p="OP"/><path d="M244,215L244,216L244,217L240,219L236,220L231,221L228,225L226,225L228,229L221,237L219,240L222,245L223,246L228,250L227,253L228,255L229,255L235,265L238,266L237,274L246,275L248,269L257,265L264,265L268,268L272,270L278,264L279,265L282,262L289,264L289,264L287,251L281,246L284,244L281,240L281,236L280,229L282,223L283,219L282,219L279,222L278,222L267,225L263,230L260,229L257,228L255,224L253,219L247,215L244,215Z " data-fips="PL77" data-fips-="PL77" data-iso3="POL" data-name="Lesser Poland" data-p="MA"/></g></svg>