<?xml version="1.0" encoding="UTF-8"?><!DOCTYPE svg  PUBLIC '-//W3C//DTD SVG 1.1//EN'  'http://www.w3.org/Graphics/SVG/1.1/DTD/svg11.dtd'><svg enable_background="new 0 0 450 301" height="301px" style="stroke-linejoin: round; stroke:#000; fill:#f6f3f0;" version="1.1" viewBox="0 0 450 301" width="450px" xmlns="http://www.w3.org/2000/svg" xmlns:xlink="http://www.w3.org/1999/xlink"><defs><style type="text/css"><![CDATA[path { fill-rule: evenodd; }
#context path { fill: #eee; stroke: #bbb; } ]]></style></defs><metadata><views><view h="301.0" padding="0.06" w="450"><proj id="laea" lat0="38.5945308497" lon0="126.175619823"/><bbox h="73.56" w="65.91" x="978.92" y="941.28"/><llbbox lat0="-90" lat1="90" lon0="-180" lon1="180"/></view></views></metadata><g id="context"><path d="M107,167L108,162L112,158L121,152L123,149L128,145L130,145L144,136L148,135L155,129L157,129L160,125L170,123L173,119L176,114L180,111L187,100L189,98L193,86L200,82L206,79L208,81L212,87L213,90L224,93L227,93L234,95L242,94L246,95L251,98L253,95L256,87L252,82L246,72L246,68L256,66L261,66L279,64L287,58L289,55L291,48L295,44L301,46L308,41L309,26L313,15L318,17L320,16L323,19L326,20L327,27L329,30L336,35L338,37L340,35L339,33L337,30L333,29L336,25L339,23L349,20L352,21L357,18L357,11L360,6L361,0L0,0L0,120L3,122L8,122L12,115L13,122L23,130L25,135L28,138L24,147L16,158L11,162L9,167L0,170L0,195L7,194L8,195L0,203L2,209L0,209L0,216L1,214L9,215L19,207L23,202L28,197L48,186L53,185L55,182L63,182L68,178L77,177L80,173L84,176L97,175L103,171L107,167L107,167Z M34,299L37,296L34,295L30,295L24,295L17,292L15,289L11,290L9,293L0,291L0,299L34,299Z " data-iso="CHN"/><path d="M365,290L365,286L361,290L364,291L365,290Z M190,282L189,279L186,277L184,280L186,286L190,288L190,282Z M263,236L257,247L255,250L245,253L221,253L213,254L210,256L200,270L196,273L195,279L194,281L192,283L193,286L196,291L196,296L198,299L301,299L291,283L283,273L273,258L263,236Z " data-iso="KOR"/><path d="M128,191L129,188L125,190L125,193L128,191Z M108,168L106,172L114,178L116,182L117,187L121,185L121,181L123,180L126,183L135,188L138,189L145,192L147,204L137,225L137,228L142,231L147,231L152,234L143,235L133,240L130,244L126,251L125,256L118,262L122,263L127,263L130,264L137,264L138,266L130,272L134,274L142,276L145,281L148,282L153,278L157,273L158,270L161,269L167,275L172,275L174,281L178,277L184,275L192,279L194,279L195,279L196,273L200,270L210,256L213,254L221,253L245,253L255,250L257,247L263,236L261,233L258,230L247,223L239,214L236,212L231,211L224,208L224,203L226,198L229,199L230,195L229,183L230,179L242,173L246,168L251,166L258,165L262,163L266,161L270,157L273,151L279,149L282,145L289,142L294,133L297,130L311,123L312,119L310,109L312,100L312,96L308,91L308,86L311,80L315,75L322,62L326,60L328,55L331,54L336,49L342,50L344,49L343,47L339,40L338,37L336,35L329,30L327,27L326,20L323,19L320,16L318,17L313,15L309,26L308,41L301,46L295,44L291,48L289,55L287,58L279,64L261,66L256,66L246,68L246,72L252,82L256,87L253,95L251,98L246,95L242,94L234,95L227,93L224,93L213,90L212,87L208,81L206,79L200,82L193,86L189,98L187,100L180,111L176,114L173,119L170,123L160,125L157,129L155,129L148,135L144,136L130,145L128,145L123,149L121,152L112,158L108,162L107,167L108,168Z " data-iso="PRK"/><path d="M402,0L402,16L408,14L412,16L417,15L423,19L428,18L430,22L434,23L440,19L450,15L450,0L402,0Z M388,0L385,6L391,5L396,0L388,0Z M338,37L339,40L343,47L344,49L346,47L349,37L344,31L346,30L353,31L356,31L361,31L364,28L365,24L369,21L373,12L381,0L361,0L360,6L357,11L357,18L352,21L349,20L339,23L336,25L333,29L337,30L339,33L340,35L338,37Z " data-iso="RUS"/></g><g fill="red" fill-opacity="0.35" id="regions"><path d="M206,215L194,211L192,210L192,213L196,219L189,220L189,221L188,223L185,222L185,222L179,219L177,219L174,222L178,228L178,230L173,233L168,231L167,229L163,227L154,229L153,229L153,230L155,234L155,235L155,235L156,236L156,236L156,237L156,237L158,248L158,250L160,252L163,253L166,257L167,259L174,259L180,256L182,257L186,259L185,262L186,267L185,267L188,267L191,263L195,262L194,258L203,258L204,257L204,256L205,255L201,250L197,243L197,238L197,236L200,235L204,229L205,223L207,223L210,219L208,217L208,215L206,215Z " data-fips="KN07" data-fips-="" data-iso3="PRK" data-name="Hwanghae-bukto"/><path d="M142,281L143,280L140,282L140,283L142,281Z M186,274L185,270L185,268L185,267L186,267L185,262L186,259L182,257L180,256L174,259L167,259L166,257L163,253L160,252L158,250L158,248L156,237L156,237L152,234L152,236L149,233L138,237L136,237L134,240L130,239L131,243L129,246L128,246L126,250L125,254L126,256L130,257L126,257L122,259L118,262L122,263L125,262L131,265L135,264L141,265L140,267L138,266L134,267L136,270L133,269L131,271L131,273L138,275L140,273L142,274L140,277L148,276L146,274L148,272L149,274L148,277L145,279L148,280L144,282L143,284L149,282L151,279L155,278L155,272L157,274L158,271L153,268L156,267L162,269L166,275L168,273L172,275L172,277L174,282L176,282L176,277L181,276L186,274L186,274Z " data-fips="KN06" data-fips-="" data-iso3="PRK" data-name="Hwanghae-namdo"/><path d="M185,220L183,216L181,215L179,210L177,211L170,208L169,208L167,207L164,208L159,204L156,211L157,212L153,216L154,218L154,219L154,219L154,224L151,226L153,228L153,229L154,229L163,227L167,229L168,231L173,233L178,230L178,228L174,222L177,219L179,219L185,222L185,222L185,220Z " data-fips="KN12" data-fips-="" data-iso3="PRK" data-name="P'yongyang"/><path d="M153,219L144,218L143,225L143,229L141,230L141,230L140,231L148,232L147,230L152,233L155,235L155,235L155,234L153,230L153,229L153,228L151,226L154,224L154,219L154,219L153,219Z " data-fips="KN14" data-fips-="KN12" data-iso3="PRK" data-name="Namp'o-si"/><path d="M278,65L273,71L272,70L273,76L274,76L280,89L280,91L277,94L277,99L281,104L280,107L281,111L281,112L282,114L282,118L281,120L281,126L283,129L284,132L287,134L287,137L291,138L291,138L292,133L294,131L296,132L298,129L302,126L309,124L312,120L311,114L310,109L312,100L313,96L308,92L308,88L309,83L312,77L315,76L315,71L318,70L323,61L330,53L331,54L334,51L334,48L337,48L341,49L341,51L345,49L342,43L341,43L337,36L337,34L335,34L335,37L330,32L327,27L327,21L326,19L316,16L314,14L311,20L309,28L310,31L308,41L301,47L297,44L294,43L290,47L290,50L289,50L289,54L286,59L281,62L278,65L278,65Z " data-fips="KN04" data-fips-="KN16|KN17" data-iso3="PRK" data-name="Hamgyong-bukto"/><path d="M210,208L211,209L211,210L211,211L209,213L208,215L208,217L210,219L207,223L205,223L204,229L200,235L197,236L197,238L197,243L201,250L205,255L204,256L204,257L205,258L205,258L207,260L207,258L208,257L215,253L224,252L228,253L231,252L239,252L243,253L253,251L257,248L259,243L259,238L263,236L262,233L259,230L256,231L252,225L241,217L239,212L227,208L227,210L224,207L224,203L227,201L223,199L225,198L226,198L213,199L211,204L210,205L210,208L210,208Z " data-fips="KN09" data-fips-="" data-iso3="PRK" data-name="Kangwon-do"/><path d="M204,257L203,258L194,258L195,262L191,263L188,267L185,267L185,268L185,270L186,274L186,274L193,280L196,277L198,271L200,269L203,264L206,262L207,260L205,258L205,258L204,257Z " data-fips="KN08" data-fips-="" data-iso3="PRK" data-name="Kaesong"/><path d="M148,135L152,139L155,140L155,142L154,148L156,149L157,153L163,157L169,157L177,166L182,167L184,167L185,168L191,167L196,161L201,156L205,151L205,151L208,145L209,140L215,136L216,133L222,128L220,124L220,119L223,116L223,114L223,113L222,110L218,110L217,112L213,112L210,111L208,104L207,103L205,97L205,95L201,96L201,93L203,92L206,88L206,85L208,80L207,80L203,79L200,83L194,84L191,88L192,90L189,97L187,101L180,110L177,112L174,118L173,119L170,123L165,123L164,124L161,124L159,125L157,127L157,130L153,129L148,135L148,135Z " data-fips="KN01" data-fips-="" data-iso3="PRK" data-name="Chagang-do"/><path d="M280,111L270,108L269,112L264,117L259,117L258,134L253,140L245,140L243,143L240,146L237,138L236,138L230,130L229,127L228,126L231,123L231,120L230,119L233,116L233,114L232,110L229,110L224,114L223,114L223,116L220,119L220,124L222,128L216,133L215,136L209,140L208,145L205,151L208,151L213,158L215,161L215,162L212,164L213,173L212,176L207,175L201,175L198,182L199,182L198,188L196,190L197,193L199,195L197,202L199,203L201,202L206,205L207,208L209,208L210,208L210,208L210,205L211,204L213,199L226,198L226,198L227,196L230,199L229,202L231,201L229,196L230,191L231,188L230,179L234,177L245,169L247,165L252,166L255,166L257,164L259,166L262,162L269,159L271,158L273,156L271,152L280,148L283,144L288,143L291,138L291,138L287,137L287,134L284,132L283,129L281,126L281,120L282,118L282,114L281,112L280,111Z " data-fips="KN13" data-fips-="KN03" data-iso3="PRK" data-name="Hamgyong-namdo"/><path d="M119,189L117,190L116,191L119,189Z M128,190L128,187L125,193L128,190Z M148,135L143,135L132,142L133,145L128,144L122,149L120,153L115,155L108,162L108,165L112,166L109,166L105,172L110,176L114,177L116,179L115,181L118,184L117,188L121,186L123,180L128,185L130,185L136,190L137,188L140,189L140,190L142,192L148,189L149,190L158,187L163,184L165,181L166,181L171,175L173,177L180,176L183,168L184,167L182,167L177,166L169,157L163,157L157,153L156,149L154,148L155,142L155,140L152,139L148,135L148,135Z " data-fips="KN11" data-fips-="" data-iso3="PRK" data-name="P'yongan-bukto"/><path d="M209,208L207,208L206,205L201,202L199,203L197,202L199,195L197,193L196,190L198,188L199,182L198,182L201,175L207,175L212,176L213,173L212,164L215,162L215,161L213,158L208,151L205,151L201,156L196,161L191,167L185,168L184,167L183,168L180,176L173,177L171,175L166,181L165,181L163,184L158,187L149,190L149,190L145,195L148,203L146,206L143,214L141,214L139,218L140,218L137,224L136,228L139,231L141,230L141,230L143,229L143,225L144,218L153,219L154,219L154,218L153,216L157,212L156,211L159,204L164,208L167,207L169,208L170,208L177,211L179,210L181,215L183,216L185,220L185,222L188,223L189,221L189,220L196,219L192,213L192,210L194,211L206,215L208,215L209,213L211,211L211,210L211,209L210,208L209,208Z " data-fips="KN10" data-fips-="KN15" data-iso3="PRK" data-name="P'yongan-namdo"/><path d="M275,64L270,65L267,65L260,66L254,65L247,67L247,75L248,75L253,84L255,84L256,90L252,97L247,97L245,94L243,94L240,96L230,95L226,93L224,93L219,93L218,91L212,91L214,88L210,86L209,81L208,80L206,85L206,88L203,92L201,93L201,96L205,95L205,97L207,103L208,104L210,111L213,112L217,112L218,110L222,110L223,113L223,114L224,114L229,110L232,110L233,114L233,116L230,119L231,120L231,123L228,126L229,127L230,130L236,138L237,138L240,146L243,143L245,140L253,140L258,134L259,117L264,117L269,112L270,108L280,111L281,112L281,111L280,107L281,104L277,99L277,94L280,91L280,89L274,76L273,76L272,70L273,71L278,65L275,64Z " data-fips="KN03" data-fips-="KN13" data-iso3="PRK" data-name="Ryanggang"/></g></svg>