<?xml version="1.0" encoding="UTF-8"?><!DOCTYPE svg  PUBLIC '-//W3C//DTD SVG 1.1//EN'  'http://www.w3.org/Graphics/SVG/1.1/DTD/svg11.dtd'><svg enable_background="new 0 0 450 451" height="451px" style="stroke-linejoin: round; stroke:#000; fill:#f6f3f0;" version="1.1" viewBox="0 0 450 451" width="450px" xmlns="http://www.w3.org/2000/svg" xmlns:xlink="http://www.w3.org/1999/xlink"><defs><style type="text/css"><![CDATA[path { fill-rule: evenodd; }
#context path { fill: #eee; stroke: #bbb; } ]]></style></defs><metadata><views><view h="451" padding="0.06" w="450"><proj id="laea" lat0="39.4" lon0="-8.0"/><bbox h="71.78" w="55.2" x="977.33" y="960.79"/><llbbox lat0="37.0" lat1="42.3" lon0="-10.0" lon1="-5.0"/></view></views></metadata><g id="context"><path d="M150,49L155,44L163,39L176,36L179,34L182,34L187,43L182,50L181,53L185,59L189,59L199,54L200,55L212,53L222,57L228,57L236,55L240,52L241,47L243,46L250,48L259,48L261,47L269,49L274,48L276,51L277,54L277,67L278,69L287,70L292,71L296,74L297,80L296,81L293,86L287,92L277,98L270,105L265,113L259,117L257,121L261,131L263,148L263,151L263,161L262,164L264,172L261,175L252,183L252,188L258,194L259,197L259,203L255,214L247,223L227,223L222,225L227,235L234,240L236,250L244,265L252,268L254,271L254,277L251,283L247,289L241,294L237,298L234,318L248,339L256,338L257,338L254,350L244,353L237,360L232,370L228,374L225,385L225,390L227,397L231,417L245,414L257,415L260,414L264,409L264,411L263,415L287,433L293,443L298,437L304,436L302,437L297,441L293,449L416,449L419,448L450,444L450,0L148,0L148,8L153,13L150,17L148,19L148,22L153,22L155,23L150,28L143,36L144,48L145,50L150,49Z " data-iso="ESP"/><path d="M144,57L143,62L145,67L151,68L147,71L148,78L151,100L155,110L156,119L155,128L154,141L151,148L149,152L143,179L142,185L145,190L135,212L126,234L120,243L115,245L112,249L113,256L109,267L108,278L106,287L105,296L112,299L119,298L126,296L129,288L137,275L142,271L147,270L138,276L134,283L135,291L133,295L128,299L123,300L119,302L122,311L121,318L122,319L128,318L139,314L146,313L150,316L154,320L141,319L145,330L145,339L141,356L144,363L146,374L144,385L144,397L137,417L133,428L137,429L142,424L149,425L157,421L164,423L186,425L198,430L204,430L225,417L231,417L227,397L225,390L225,385L228,374L232,370L237,360L244,353L254,350L257,338L256,338L248,339L234,318L237,298L241,294L247,289L251,283L254,277L254,271L252,268L244,265L236,250L234,240L227,235L222,225L227,223L247,223L255,214L259,203L259,197L258,194L252,188L252,183L261,175L264,172L262,164L263,161L263,151L263,148L261,131L257,121L259,117L265,113L270,105L277,98L287,92L293,86L296,81L297,80L296,74L292,71L287,70L278,69L277,67L277,54L276,51L274,48L269,49L261,47L259,48L250,48L243,46L241,47L240,52L236,55L228,57L222,57L212,53L200,55L199,54L189,59L185,59L181,53L182,50L187,43L182,34L179,34L176,36L163,39L155,44L150,49L144,57Z " data-iso="PRT"/></g><g fill="red" fill-opacity="0.35" id="regions"><path d="M173,168L175,161L179,159L177,154L177,152L177,146L175,143L180,135L180,133L187,133L188,132L189,122L188,121L186,123L181,121L181,118L177,115L177,116L174,118L171,119L171,121L168,117L165,120L164,119L160,120L156,120L156,122L150,148L152,146L155,135L156,135L154,138L155,141L156,142L161,140L158,142L155,147L154,146L151,150L151,149L149,153L148,156L148,158L154,165L156,165L158,161L161,163L161,167L164,166L165,169L164,176L167,177L171,172L173,171L174,170L173,168Z " data-fips="PO02" data-fips-="" data-iso3="PRT" data-name="Aveiro"/><path d="M187,204L188,202L184,192L182,195L180,194L177,198L178,200L171,204L171,202L171,200L168,198L162,202L161,197L154,197L149,196L147,196L141,195L135,211L129,225L128,231L120,241L122,243L122,244L120,243L115,246L111,247L113,251L113,253L117,253L121,251L123,258L124,259L129,252L133,252L135,253L135,250L135,248L136,246L138,244L140,240L143,239L150,238L150,235L152,235L154,232L153,226L156,224L154,221L154,217L157,215L160,215L166,211L168,219L174,217L175,214L178,215L177,214L181,210L185,208L186,207L187,205L187,204Z " data-fips="PO13" data-fips-="" data-iso3="PRT" data-name="Leiria"/><path d="M147,74L149,74L153,72L157,72L157,71L162,73L163,71L165,65L170,63L177,62L184,59L184,57L181,53L184,47L189,43L189,41L186,39L183,40L181,33L174,37L158,40L151,47L150,50L144,57L143,64L144,67L148,68L154,66L151,68L148,68L146,71L146,73L147,74Z " data-fips="PO20" data-fips-="" data-iso3="PRT" data-name="Viana do Castelo"/><path d="M184,329L186,332L186,336L181,338L180,339L177,339L176,342L174,342L170,347L170,349L175,352L176,357L176,360L174,365L172,364L168,364L160,367L158,372L152,372L152,370L145,366L144,373L146,375L144,384L144,387L145,394L144,395L150,399L159,399L163,401L166,401L169,398L177,397L179,401L184,404L191,405L207,394L212,392L215,392L224,390L224,390L227,380L227,376L229,372L235,368L239,357L238,355L241,354L244,354L247,351L254,351L258,338L253,338L252,339L249,340L248,339L245,339L239,332L237,328L231,330L230,332L226,335L223,338L221,338L205,334L200,332L198,330L195,329L194,330L190,328L185,328L184,329Z " data-fips="PO03" data-fips-="" data-iso3="PRT" data-name="Beja"/><path d="M182,276L182,277L185,290L186,291L184,293L182,290L177,287L174,288L172,287L167,291L164,292L161,294L164,294L162,300L157,304L156,311L163,313L171,312L177,320L176,324L179,326L182,327L184,329L185,328L190,328L194,330L195,329L198,330L200,332L205,334L221,338L223,338L226,335L230,332L231,330L237,328L239,332L245,339L248,339L247,338L242,329L235,320L234,315L235,310L238,305L237,301L238,296L241,294L239,288L234,291L232,291L229,288L230,287L228,283L227,282L226,279L221,277L222,278L218,280L215,282L211,281L209,283L204,284L198,279L195,281L193,280L193,277L189,276L188,278L188,274L184,275L182,276Z " data-fips="PO08" data-fips-="" data-iso3="PRT" data-name="vora"/><path d="M224,390L215,392L212,392L207,394L191,405L184,404L179,401L177,397L169,398L166,401L163,401L159,399L150,399L144,395L144,398L140,406L140,410L137,415L138,417L134,425L133,428L137,429L141,425L144,426L152,424L154,422L158,421L161,421L165,423L176,424L185,424L188,425L197,430L202,430L205,431L207,429L217,422L217,422L230,417L228,401L224,390L224,390Z " data-fips="PO09" data-fips-="" data-iso3="PRT" data-name="Faro"/><path d="M145,272L140,273L133,282L136,293L131,297L130,299L126,301L123,299L117,300L120,306L122,310L122,315L120,319L120,321L123,319L130,317L137,314L147,316L146,312L148,310L149,317L150,318L157,321L154,322L148,320L146,320L142,317L137,316L143,321L144,323L146,333L146,340L144,348L141,355L142,358L143,359L145,365L145,366L152,370L152,372L158,372L160,367L168,364L172,364L174,365L176,360L176,357L175,352L170,349L170,347L174,342L176,342L177,339L180,339L181,338L186,336L186,332L184,329L182,327L179,326L176,324L177,320L171,312L163,313L156,311L157,304L162,300L164,294L161,294L160,294L155,290L152,289L148,296L140,296L139,294L139,285L143,276L147,270L145,272Z M114,254L112,260L110,266L108,272L109,276L108,279L104,292L105,295L104,298L114,300L120,299L125,297L127,294L127,291L129,288L131,286L134,279L139,272L144,271L147,270L140,263L145,260L142,256L139,257L135,256L135,255L135,253L133,252L129,252L124,259L123,258L121,251L117,253L113,253L114,254Z " data-fips="PO14" data-fips-="" data-iso3="PRT" data-name="Lisboa"/><path d="M221,224L219,224L216,226L211,226L210,229L207,232L206,233L205,234L202,236L199,234L196,235L194,240L197,244L196,246L193,248L191,251L188,254L186,255L185,257L180,261L177,263L174,267L174,268L180,275L182,276L184,275L188,274L188,278L189,276L193,277L193,280L195,281L198,279L204,284L209,283L211,281L215,282L218,280L222,278L221,277L226,279L227,282L228,283L230,287L229,288L232,291L234,291L239,288L241,294L242,293L245,290L249,289L251,287L253,280L256,274L255,271L252,267L250,267L246,268L244,263L239,261L239,260L239,255L236,251L234,248L235,240L230,238L223,230L221,225L221,224Z " data-fips="PO16" data-fips-="" data-iso3="PRT" data-name="Portalegre"/><path d="M175,214L174,217L168,219L166,211L160,215L157,215L154,217L154,221L156,224L153,226L154,232L152,235L150,235L150,238L143,239L140,240L138,244L136,246L135,248L135,250L135,253L135,255L135,256L139,257L142,256L145,260L140,263L147,270L148,268L148,269L147,270L147,270L143,276L139,285L139,294L140,296L148,296L152,289L155,290L160,294L161,294L164,292L167,291L172,287L174,288L177,287L182,290L184,293L186,291L185,290L182,277L182,276L180,275L174,268L174,267L177,263L180,261L185,257L186,255L188,254L191,251L193,248L196,246L197,244L194,240L196,235L199,234L202,236L205,234L206,233L205,232L202,227L197,225L197,219L191,219L191,228L189,228L184,228L178,216L178,215L175,214Z " data-fips="PO18" data-fips-="" data-iso3="PRT" data-name="Santarm"/><path d="M189,59L184,59L184,59L177,62L170,63L165,65L163,71L162,73L157,71L157,72L153,72L149,74L147,74L147,74L148,77L149,80L149,84L149,85L151,85L156,87L157,89L160,95L163,95L179,92L181,90L184,91L186,93L188,95L193,97L195,94L196,93L196,92L198,87L203,81L205,78L203,74L199,76L194,75L194,69L192,68L189,68L191,59L189,59Z " data-fips="PO04" data-fips-="" data-iso3="PRT" data-name="Braga"/><path d="M240,53L241,61L242,62L239,68L237,78L234,85L231,87L231,91L232,94L234,95L230,100L227,104L227,105L228,105L229,106L233,109L235,109L239,109L243,109L246,107L246,110L247,110L253,117L257,118L258,117L261,117L266,113L267,108L269,106L272,101L274,100L278,100L283,97L291,89L295,81L298,77L294,72L288,70L284,69L278,70L276,64L277,62L279,54L276,53L276,50L274,47L273,48L265,49L263,46L262,45L256,49L252,47L249,49L243,45L242,45L240,52L240,53Z " data-fips="PO05" data-fips-="" data-iso3="PRT" data-name="Bragana"/><path d="M207,181L206,184L208,188L209,189L210,192L208,193L206,192L204,195L200,195L196,200L190,202L188,204L187,205L186,207L185,208L181,210L177,214L178,215L178,216L184,228L189,228L191,228L191,219L197,219L197,225L202,227L205,232L206,233L207,232L210,229L211,226L216,226L219,224L221,224L220,224L233,224L243,224L251,223L253,221L258,206L259,200L260,198L256,191L251,185L252,181L256,179L256,179L252,176L251,177L246,175L245,176L239,178L237,172L237,167L234,167L233,169L229,169L226,167L221,174L218,174L214,178L208,180L207,181Z " data-fips="PO06" data-fips-="" data-iso3="PRT" data-name="Castelo Branco"/><path d="M173,171L171,172L167,177L164,176L165,169L164,166L161,167L161,163L158,161L156,165L154,165L148,158L147,162L143,177L141,183L142,187L145,187L143,189L141,195L147,196L149,196L154,197L161,197L162,202L168,198L171,200L171,202L171,204L178,200L177,198L180,194L182,195L184,192L188,202L187,204L187,205L188,204L190,202L196,200L200,195L204,195L206,192L208,193L210,192L209,189L208,188L206,184L207,181L206,180L205,179L206,175L208,174L206,171L206,164L205,162L204,160L203,161L200,164L199,166L192,169L187,173L174,170L174,170L173,171Z " data-fips="PO07" data-fips-="" data-iso3="PRT" data-name="Coimbra"/><path d="M235,109L233,114L233,126L231,128L228,128L228,132L227,135L226,136L223,133L220,132L219,133L217,138L219,140L218,143L221,146L219,153L219,155L205,160L204,160L205,162L206,164L206,171L208,174L206,175L205,179L206,180L207,181L208,180L214,178L218,174L221,174L226,167L229,169L233,169L234,167L237,167L237,172L239,178L245,176L246,175L251,177L252,176L256,179L257,179L264,173L265,171L262,167L261,164L264,159L262,154L263,144L262,134L263,133L256,120L256,119L257,118L253,117L247,110L246,110L246,107L243,109L239,109L235,109Z " data-fips="PO11" data-fips-="" data-iso3="PRT" data-name="Guarda"/><path d="M195,94L193,97L188,95L186,93L184,91L181,90L179,92L163,95L160,95L157,89L156,87L151,85L149,85L149,90L151,96L151,102L153,107L155,111L156,119L156,120L160,120L164,119L165,120L168,117L171,121L171,119L174,118L177,116L177,115L181,114L183,113L191,114L198,111L200,109L201,108L200,102L197,96L197,94L196,93L195,94Z " data-fips="PO17" data-fips-="" data-iso3="PRT" data-name="Porto"/><path d="M233,109L229,106L228,105L227,105L220,108L208,110L204,107L203,107L200,109L198,111L191,114L183,113L181,114L177,115L181,118L181,121L186,123L188,121L189,122L188,132L187,133L180,133L180,135L175,143L177,146L177,152L177,154L179,159L175,161L173,168L174,170L174,170L187,173L192,169L199,166L200,164L203,161L204,160L205,160L219,155L219,153L221,146L218,143L219,140L217,138L219,133L220,132L223,133L226,136L227,135L228,132L228,128L231,128L233,126L233,114L235,109L233,109Z " data-fips="PO22" data-fips-="" data-iso3="PRT" data-name="Viseu"/><path d="M191,59L189,68L192,68L194,69L194,75L199,76L203,74L205,78L203,81L198,87L196,92L196,93L197,94L197,96L200,102L201,108L200,109L203,107L204,107L208,110L220,108L227,105L227,104L230,100L234,95L232,94L231,91L231,87L234,85L237,78L239,68L242,62L241,61L240,53L239,54L233,56L226,58L222,55L221,57L216,57L217,54L214,54L210,52L202,55L200,55L200,51L197,55L195,55L191,59L191,59Z " data-fips="PO21" data-fips-="" data-iso3="PRT" data-name="Vila Real"/></g></svg>