<?xml version="1.0" encoding="UTF-8"?><!DOCTYPE svg  PUBLIC '-//W3C//DTD SVG 1.1//EN'  'http://www.w3.org/Graphics/SVG/1.1/DTD/svg11.dtd'><svg enable_background="new 0 0 450 301" height="301px" style="stroke-linejoin: round; stroke:#000; fill:#f6f3f0;" version="1.1" viewBox="0 0 450 301" width="450px" xmlns="http://www.w3.org/2000/svg" xmlns:xlink="http://www.w3.org/1999/xlink"><defs><style type="text/css"><![CDATA[path { fill-rule: evenodd; }
#context path { fill: #eee; stroke: #bbb; } ]]></style></defs><metadata><views><view h="301.0" padding="0.06" w="450"><proj id="laea" lat0="-20.854773248" lon0="-58.8471366382"/><bbox h="114.04" w="106.74" x="950.84" y="974.93"/><llbbox lat0="-90" lat1="90" lon0="-180" lon1="180"/></view></views></metadata><g id="context"><path d="M338,220L337,234L335,244L333,251L330,255L321,264L313,266L304,279L302,279L294,275L291,276L285,282L283,283L281,281L268,279L264,280L256,279L244,275L234,273L221,275L220,271L221,269L229,260L233,253L233,245L236,237L240,234L247,222L251,217L249,211L244,204L240,201L224,195L218,193L204,186L198,182L183,171L177,168L172,168L165,167L155,163L149,160L148,157L144,154L138,151L126,142L122,138L118,132L113,124L109,118L101,113L100,112L100,111L95,106L81,105L69,105L62,106L60,108L52,125L49,130L44,118L42,113L28,110L9,111L7,111L0,105L0,299L312,299L317,295L321,294L323,291L327,289L329,284L337,281L344,280L358,271L361,266L362,261L361,259L363,246L364,244L360,233L359,226L355,221L350,219L348,220L343,222L340,220L338,220Z " data-iso="ARG"/><path d="M100,112L101,110L110,74L110,57L121,41L125,27L133,26L179,15L207,15L234,32L235,38L235,43L237,43L238,42L243,39L244,38L236,30L247,8L249,7L247,3L247,0L0,0L0,105L7,111L9,111L28,110L42,113L44,118L49,130L52,125L60,108L62,106L69,105L81,105L95,106L100,111L100,112Z " data-iso="BOL"/><path d="M235,43L236,46L239,55L241,60L242,60L243,66L245,70L245,75L243,80L243,82L241,86L242,93L241,100L240,104L241,106L250,107L252,109L259,110L262,109L271,112L280,111L284,107L287,106L292,112L304,114L308,123L310,124L311,139L312,141L313,150L312,155L314,158L315,167L317,168L322,169L339,163L342,164L350,171L348,176L349,179L347,187L344,197L342,209L338,216L338,220L340,220L343,222L348,220L350,219L355,221L359,226L360,233L364,244L363,246L361,259L362,261L361,266L358,271L344,280L337,281L329,284L327,289L323,291L321,294L317,295L312,299L450,299L450,0L247,0L247,3L249,7L247,8L236,30L244,38L243,39L238,42L237,43L235,43Z " data-iso="BRA"/><path d="M235,38L234,32L207,15L179,15L133,26L125,27L121,41L110,57L110,74L101,110L100,112L101,113L109,118L113,124L118,132L122,138L126,142L138,151L144,154L148,157L149,160L155,163L165,167L172,168L177,168L183,171L198,182L204,186L218,193L224,195L240,201L244,204L249,211L251,217L247,222L240,234L236,237L233,245L233,253L229,260L221,269L220,271L221,275L234,273L244,275L256,279L264,280L268,279L281,281L283,283L285,282L291,276L294,275L302,279L304,279L313,266L321,264L330,255L333,251L335,244L337,234L338,220L338,216L342,209L344,197L347,187L349,179L348,176L350,171L342,164L339,163L322,169L317,168L315,167L314,158L312,155L313,150L312,141L311,139L310,124L308,123L304,114L292,112L287,106L284,107L280,111L271,112L262,109L259,110L252,109L250,107L241,106L240,104L241,100L242,93L241,86L243,82L243,80L245,75L245,70L243,66L242,60L241,60L239,55L236,46L235,43L235,38Z " data-iso="PRY"/></g><g fill="red" fill-opacity="0.35" id="regions"><path d="M120,41L124,43L181,59L183,61L187,72L188,81L188,82L184,86L181,98L182,104L186,104L198,105L199,105L202,107L205,108L209,108L231,109L234,112L244,117L244,116L244,115L243,113L240,105L240,105L242,100L241,98L241,95L243,93L242,85L244,81L242,80L244,78L244,72L245,69L243,68L243,62L241,60L239,56L240,52L238,51L237,48L235,47L236,45L235,43L235,41L234,32L207,15L179,15L133,26L121,39L120,41Z " data-fips="PA03" data-fips-="PA18|PA23" data-iso3="PRY" data-name="Alto Paraguay"/><path d="M120,42L111,55L110,58L110,74L101,110L101,114L113,121L115,127L121,137L125,139L128,144L132,145L135,148L144,154L145,154L147,158L150,162L156,164L157,164L156,160L157,157L163,154L173,154L178,152L179,146L180,142L181,130L187,120L187,117L191,116L191,113L196,111L200,110L200,109L199,105L198,105L186,104L182,104L181,98L184,86L188,82L188,81L187,72L183,61L181,59L124,43L120,41L120,42Z " data-fips="PA24" data-fips-="PA21" data-iso3="PRY" data-name="Boquern"/><path d="M240,105L243,113L244,115L244,116L244,117L244,117L244,121L246,124L242,124L242,127L246,131L245,132L246,135L245,136L247,137L250,141L255,144L254,146L256,150L256,151L256,151L278,150L281,150L287,149L289,147L290,147L290,147L293,143L295,138L291,126L285,129L282,132L279,132L279,129L277,124L278,120L282,115L274,113L274,113L272,111L267,111L262,109L259,110L246,106L241,106L240,105Z " data-fips="PA07" data-fips-="" data-iso3="PRY" data-name="Concepcin"/><path d="M282,201L280,199L275,198L267,201L262,200L262,200L261,200L260,200L258,202L256,204L255,204L255,205L260,210L261,213L263,213L263,214L265,217L271,218L271,221L274,221L275,221L275,221L274,217L281,212L281,210L283,201L282,201Z " data-fips="PA08" data-fips-="" data-iso3="PRY" data-name="Cordillera"/><path d="M199,105L200,109L200,110L196,111L191,113L191,116L187,117L187,120L181,130L180,142L179,146L178,152L173,154L163,154L157,157L156,160L157,164L157,164L167,167L176,168L179,168L190,175L192,177L196,180L199,183L208,188L215,193L218,194L225,195L229,199L230,199L232,198L239,202L243,203L247,209L248,209L251,207L254,204L255,204L256,204L258,202L260,200L261,200L262,200L262,200L262,197L263,192L265,191L263,177L264,172L262,171L259,164L260,164L260,158L259,157L255,151L256,151L256,150L254,146L255,144L250,141L247,137L245,136L246,135L245,132L246,131L242,127L242,124L246,124L244,121L244,117L244,117L234,112L231,109L209,108L205,108L202,107L199,105Z " data-fips="PA16" data-fips-="" data-iso3="PRY" data-name="Presidente Hayes"/><path d="M297,163L299,160L299,158L300,155L300,153L295,155L297,149L297,147L290,147L290,147L289,147L287,149L281,150L278,150L256,151L256,151L255,151L259,157L260,158L260,164L259,164L262,171L264,172L263,177L265,191L263,192L262,197L262,200L262,200L262,200L267,201L275,198L280,199L282,201L283,201L285,199L289,195L292,196L296,200L298,197L301,195L305,194L303,193L299,185L296,181L294,173L298,168L297,163L297,163Z " data-fips="PA17" data-fips-="PA02" data-iso3="PRY" data-name="San Pedro"/><path d="M249,212L251,214L251,218L248,221L246,222L244,225L244,227L244,227L245,227L248,227L253,232L253,233L254,231L256,229L255,224L256,222L262,215L263,214L263,213L261,213L260,210L255,205L255,204L254,204L251,207L248,209L249,212Z " data-fips="PA06" data-fips-="PA22" data-iso3="PRY" data-name="Asuncin"/><path d="M308,221L304,223L302,222L294,220L287,219L283,220L279,223L278,223L278,224L279,231L278,232L278,235L280,238L281,238L282,238L283,235L289,233L294,233L296,230L304,226L308,222L308,222L308,221Z " data-fips="PA10" data-fips-="" data-iso3="PRY" data-name="Guair"/><path d="M247,246L249,258L255,266L261,267L261,269L258,279L258,279L262,280L265,280L270,278L275,281L276,280L278,280L277,275L277,272L280,269L281,268L280,256L280,256L277,254L276,253L275,251L274,250L273,248L266,246L260,252L258,253L252,250L248,246L247,246Z " data-fips="PA12" data-fips-="" data-iso3="PRY" data-name="Misiones"/><path d="M244,227L243,229L236,236L234,241L233,245L232,250L233,253L232,253L230,258L229,258L226,262L225,262L224,266L222,267L220,271L224,273L231,273L238,273L247,275L252,278L258,278L258,279L261,269L261,267L255,266L249,258L247,246L248,245L250,242L254,238L254,237L253,233L253,232L248,227L245,227L244,227L244,227Z " data-fips="PA13" data-fips-="" data-iso3="PRY" data-name="eembuc"/><path d="M274,221L271,221L271,218L265,217L263,214L262,215L256,222L255,224L256,229L254,231L253,233L254,237L254,238L250,242L248,245L247,246L248,246L252,250L258,253L260,252L266,246L273,248L274,250L274,249L278,241L279,239L280,238L278,235L278,232L279,231L278,224L278,223L277,223L277,223L277,223L276,222L275,221L274,221Z " data-fips="PA15" data-fips-="" data-iso3="PRY" data-name="Paraguar"/><path d="M274,113L282,115L278,120L277,124L279,129L279,132L282,132L285,129L291,126L295,138L293,143L290,147L290,147L290,147L297,147L297,149L295,155L300,153L300,155L299,158L299,160L297,163L297,163L297,164L301,163L308,158L310,157L312,153L312,152L313,148L312,147L312,141L310,136L309,130L310,125L307,120L307,117L302,114L293,112L287,106L280,112L275,112L274,113Z " data-fips="PA02" data-fips-="" data-iso3="PRY" data-name="Amambay"/><path d="M321,185L320,186L319,187L317,193L318,201L320,202L326,207L328,212L326,212L325,210L319,210L312,219L313,219L315,221L312,226L313,234L317,233L319,235L317,236L318,239L327,240L329,238L329,240L331,239L335,242L335,241L336,233L337,233L338,227L337,227L338,223L338,214L343,207L342,203L344,196L345,194L346,193L340,192L331,189L330,187L324,184L321,185Z " data-fips="PA01" data-fips-="" data-iso3="PRY" data-name="Alto Paran"/><path d="M319,210L325,210L326,212L328,212L326,207L320,202L318,201L317,193L319,187L320,186L321,185L313,186L312,187L309,190L306,193L305,194L301,195L298,197L296,200L292,196L289,195L285,199L283,201L281,210L281,212L274,217L275,221L275,221L276,222L277,223L277,223L277,223L278,223L279,223L283,220L287,219L294,220L302,222L304,223L308,221L308,222L309,222L310,222L311,221L312,220L312,219L319,210Z " data-fips="PA04" data-fips-="" data-iso3="PRY" data-name="Caaguaz"/><path d="M319,235L317,233L313,234L312,226L315,221L313,219L312,219L312,220L311,221L310,222L309,222L308,222L308,222L304,226L296,230L294,233L289,233L283,235L282,238L281,238L280,238L279,239L278,241L274,249L274,250L275,251L276,253L277,254L280,256L280,256L282,257L283,258L288,257L294,254L297,249L301,248L304,245L312,243L316,240L317,236L317,236L319,235Z " data-fips="PA05" data-fips-="" data-iso3="PRY" data-name="Caazap"/><path d="M312,153L310,157L308,158L301,163L297,164L297,163L298,168L294,173L296,181L299,185L303,193L305,194L306,193L309,190L312,187L313,186L321,185L324,184L330,187L331,189L340,192L346,193L347,190L348,173L349,171L346,169L339,163L333,165L330,168L325,168L323,169L316,168L313,157L312,153L312,153Z " data-fips="PA19" data-fips-="" data-iso3="PRY" data-name="Canindey"/><path d="M317,236L317,236L316,240L312,243L304,245L301,248L297,249L294,254L288,257L283,258L282,257L280,256L281,268L280,269L277,272L277,275L278,280L278,279L280,280L286,283L288,280L288,278L292,275L296,276L303,280L308,276L308,273L308,271L310,269L312,269L313,265L318,264L319,264L327,258L334,248L335,242L335,242L331,239L329,240L329,238L327,240L318,239L317,236Z " data-fips="PA11" data-fips-="PA01" data-iso3="PRY" data-name="Itapa"/></g></svg>