<?xml version="1.0" encoding="UTF-8"?><!DOCTYPE svg  PUBLIC '-//W3C//DTD SVG 1.1//EN'  'http://www.w3.org/Graphics/SVG/1.1/DTD/svg11.dtd'><svg enable_background="new 0 0 450 301" height="301px" style="stroke-linejoin: round; stroke:#000; fill:#f6f3f0;" version="1.1" viewBox="0 0 450 301" width="450px" xmlns="http://www.w3.org/2000/svg" xmlns:xlink="http://www.w3.org/1999/xlink"><defs><style type="text/css"><![CDATA[path { fill-rule: evenodd; }
#context path { fill: #eee; stroke: #bbb; } ]]></style></defs><metadata><views><view h="301.0" padding="0.06" w="450"><proj id="laea" lat0="25.3005231796" lon0="51.5008724112"/><bbox h="20.9" w="10.81" x="991.06" y="988.81"/><llbbox lat0="-90" lat1="90" lon0="-180" lon1="180"/></view></views></metadata><g id="context"><path d="M110,0L109,2L115,26L111,42L123,65L128,70L134,57L135,36L134,14L126,1L127,0L110,0Z " data-iso="BHR"/><path d="M259,276L264,272L281,232L289,219L293,204L292,187L285,163L278,144L277,133L273,121L280,93L287,75L282,54L258,35L238,10L213,22L197,40L181,85L175,105L164,125L158,134L156,142L160,182L171,233L169,239L164,250L172,270L184,284L190,288L199,290L210,290L224,286L238,283L259,276Z " data-iso="QAT"/><path d="M238,283L224,286L210,290L199,290L190,288L184,284L172,270L164,250L151,236L142,219L125,197L117,158L109,138L81,112L75,102L67,79L58,63L50,42L43,16L46,14L53,14L59,18L62,18L67,0L0,0L0,299L260,299L262,296L261,289L249,290L238,283Z " data-iso="SAU"/></g><g fill="red" fill-opacity="0.35" id="regions"><path d="M293,168L291,165L290,163L280,162L278,161L278,159L277,155L278,146L267,150L277,167L279,169L282,175L287,170L292,171L293,171L293,168Z " data-fips="QA01" data-fips-="" data-iso3="QAT" data-name="Ad Dawhah"/><path d="M257,146L248,141L241,127L225,130L221,134L219,140L218,145L219,157L240,164L247,180L244,185L239,189L239,191L241,193L248,197L260,202L263,196L266,189L272,183L278,179L282,175L279,169L277,167L267,150L257,146Z " data-fips="QA06" data-fips-="" data-iso3="QAT" data-name="Ar Rayyan"/><path d="M282,175L278,179L272,183L266,189L263,196L260,202L248,197L249,255L271,255L275,239L276,237L280,235L282,231L287,225L289,221L292,211L293,209L292,207L294,189L294,174L293,171L292,171L287,170L282,175Z " data-fips="QA05" data-fips-="QA10" data-iso3="QAT" data-name="Al Wakrah"/><path d="M271,255L249,255L248,197L241,193L239,191L239,189L244,185L247,180L240,164L219,157L214,165L207,168L202,180L202,186L198,189L190,190L158,191L160,197L164,199L165,207L163,212L163,215L170,228L171,232L173,249L172,254L167,257L176,277L184,286L192,289L201,291L210,291L219,288L229,278L231,276L236,275L241,273L241,276L247,275L250,276L251,278L250,281L248,286L250,289L256,282L256,278L258,276L264,272L266,270L267,262L268,259L271,256L271,255Z " data-fips="QA08" data-fips-="QA11" data-iso3="QAT" data-name="Jariyan al Batnah"/><path d="M250,63L244,61L236,57L218,58L192,67L192,69L192,72L190,75L188,76L186,70L185,70L182,74L180,74L180,79L179,84L179,85L213,86L219,88L237,90L250,74L251,67L250,63Z " data-fips="QA02" data-fips-="" data-iso3="QAT" data-name="Al Ghuwayriyah"/><path d="M219,88L213,86L179,85L178,93L178,95L180,100L184,101L188,101L192,99L188,107L186,107L183,106L181,109L181,114L180,119L178,119L176,117L175,114L175,109L176,101L172,98L170,102L168,103L163,104L162,106L168,109L169,111L168,117L169,123L171,130L167,130L164,124L160,120L156,125L158,128L158,131L156,139L158,152L158,156L157,165L158,177L157,180L158,184L158,191L158,191L190,190L198,189L202,186L202,180L207,168L214,165L219,157L218,145L219,140L221,134L225,130L241,127L242,113L235,104L237,90L219,88Z " data-fips="QA03" data-fips-="" data-iso3="QAT" data-name="Al Jumayliyah"/><path d="M274,113L274,104L283,102L284,98L283,96L276,92L284,88L284,93L288,92L290,87L287,83L284,86L283,83L285,78L287,79L289,82L290,81L290,77L288,58L285,52L277,46L270,45L263,45L262,45L262,46L262,67L251,67L250,74L237,90L235,104L242,113L244,116L274,116L274,116L274,113Z " data-fips="QA04" data-fips-="" data-iso3="QAT" data-name="Al Khawr"/><path d="M260,45L258,42L256,33L253,31L251,30L251,18L249,15L236,8L230,12L227,13L224,12L223,15L219,18L219,21L217,22L204,27L200,32L197,42L194,40L193,48L192,51L188,61L188,65L190,68L191,66L192,67L218,58L236,57L244,61L250,63L251,67L262,67L262,46L262,45L260,45Z " data-fips="QA07" data-fips-="QA08" data-iso3="QAT" data-name="Madinat ach Shamal"/><path d="M242,113L241,127L248,141L257,146L267,150L278,146L278,138L277,133L271,123L271,121L274,116L274,116L274,116L244,116L242,113Z " data-fips="QA09" data-fips-="" data-iso3="QAT" data-name="Umm Salal"/></g></svg>