<?xml version="1.0" encoding="UTF-8"?><!DOCTYPE svg  PUBLIC '-//W3C//DTD SVG 1.1//EN'  'http://www.w3.org/Graphics/SVG/1.1/DTD/svg11.dtd'><svg enable_background="new 0 0 450 301" height="301px" style="stroke-linejoin: round; stroke:#000; fill:#f6f3f0;" version="1.1" viewBox="0 0 450 301" width="450px" xmlns="http://www.w3.org/2000/svg" xmlns:xlink="http://www.w3.org/1999/xlink"><defs><style type="text/css"><![CDATA[path { fill-rule: evenodd; }
#context path { fill: #eee; stroke: #bbb; } ]]></style></defs><metadata><views><view h="301.0" padding="0.06" w="450"><proj id="laea" lat0="44.2448190374" lon0="23.6683130412"/><bbox h="67.17" w="91.54" x="965.79" y="944.9"/><llbbox lat0="-90" lat1="90" lon0="-180" lon1="180"/></view></views></metadata><g id="context"><path d="M369,267L354,266L347,264L340,255L334,257L332,255L327,254L322,254L310,248L308,247L299,248L285,252L274,257L263,265L259,270L254,274L246,276L233,275L204,270L196,272L185,270L168,267L156,266L144,268L142,261L148,254L145,252L138,248L136,245L134,246L131,254L126,257L122,266L122,270L127,285L129,288L135,292L141,299L344,299L348,294L352,287L359,285L365,287L368,280L369,267Z " data-iso="BGR"/><path d="M0,220L5,211L6,207L1,204L0,204L0,220Z M0,255L7,256L11,255L12,252L3,242L0,239L0,255Z M0,277L6,278L8,271L3,263L0,258L0,277Z " data-iso="BIH"/><path d="M0,189L8,190L8,188L6,185L0,182L0,189Z " data-iso="HRV"/><path d="M43,140L45,139L53,137L57,139L59,139L66,133L74,134L77,132L80,126L83,125L82,121L85,114L92,109L91,106L98,95L101,88L103,86L107,76L111,72L112,66L119,59L121,55L127,52L137,50L143,43L144,42L144,41L141,33L134,31L131,27L125,25L122,16L121,16L117,16L117,17L104,20L102,19L97,11L90,7L84,10L72,7L63,7L58,8L52,20L35,29L26,23L23,23L19,29L12,31L0,31L0,144L6,144L13,140L16,136L19,136L28,137L32,137L40,138L42,139L43,140Z " data-iso="HUN"/><path d="M60,299L57,297L55,299L60,299Z " data-iso="KOS"/><path d="M350,172L358,170L360,167L359,162L361,158L365,154L367,151L367,146L371,144L375,140L376,132L374,127L374,117L377,115L383,114L383,121L385,120L387,116L390,117L391,116L399,119L404,116L407,121L416,119L418,116L410,110L410,100L407,94L401,92L396,89L394,83L391,70L384,66L376,60L376,58L378,47L377,38L374,34L369,36L365,33L361,27L352,25L349,29L345,22L343,21L338,21L335,20L325,12L321,11L315,9L310,13L307,12L303,16L290,15L282,21L281,23L285,22L288,23L292,25L295,28L302,38L305,45L307,52L309,56L316,64L320,72L326,78L330,84L339,91L342,101L346,109L346,116L347,119L343,137L343,146L346,163L343,166L346,171L349,174L350,172Z " data-iso="MDA"/><path d="M0,299L10,299L9,298L4,290L0,287L0,299Z " data-iso="MNE"/><path d="M346,171L343,166L346,163L343,146L343,137L347,119L346,116L346,109L342,101L339,91L330,84L326,78L320,72L316,64L309,56L307,52L305,45L302,38L295,28L292,25L288,23L285,22L281,23L280,23L270,26L269,31L265,38L256,40L248,42L240,43L229,48L225,53L219,54L207,43L204,42L196,44L192,44L172,39L164,40L156,34L154,34L151,39L146,41L144,42L143,43L137,50L127,52L121,55L119,59L112,66L111,72L107,76L103,86L101,88L98,95L91,106L92,109L85,114L82,121L83,125L80,126L77,132L74,134L66,133L59,139L57,139L53,137L45,139L43,140L45,143L47,148L55,154L60,161L63,161L62,169L63,172L66,178L68,182L76,186L79,189L88,193L89,195L84,203L88,206L90,209L84,210L84,212L90,214L94,219L98,220L105,221L109,224L112,228L116,227L122,221L128,220L133,223L136,225L130,229L128,231L128,234L135,245L136,245L138,248L145,252L148,254L142,261L144,268L156,266L168,267L185,270L196,272L204,270L233,275L246,276L254,274L259,270L263,265L274,257L285,252L299,248L308,247L310,248L322,254L327,254L332,255L334,257L340,255L347,264L354,266L369,267L369,264L371,254L369,237L371,232L376,224L378,221L374,221L376,217L376,213L378,208L377,202L380,197L384,198L383,201L384,208L383,210L403,204L405,196L406,185L407,181L401,175L394,173L388,174L380,179L375,181L370,182L370,185L358,182L353,180L349,174L346,171Z " data-iso="ROU"/><path d="M136,245L135,245L128,234L128,231L130,229L136,225L133,223L128,220L122,221L116,227L112,228L109,224L105,221L98,220L94,219L90,214L84,212L84,210L90,209L88,206L84,203L89,195L88,193L79,189L76,186L68,182L66,178L63,172L62,169L63,161L60,161L55,154L47,148L45,143L43,140L42,139L40,138L32,137L28,137L19,136L16,136L13,140L6,144L0,144L0,182L6,185L8,188L8,190L0,189L0,204L1,204L6,207L5,211L0,220L0,239L3,242L12,252L11,255L7,256L0,255L0,258L3,263L8,271L6,278L0,277L0,287L4,290L9,298L10,299L55,299L57,297L60,299L141,299L135,292L129,288L127,285L122,270L122,266L126,257L131,254L134,246L136,245Z " data-iso="SRB"/><path d="M117,16L118,7L124,1L124,0L0,0L0,31L12,31L19,29L23,23L26,23L35,29L52,20L58,8L63,7L72,7L84,10L90,7L97,11L102,19L104,20L117,17L117,16Z " data-iso="SVK"/><path d="M117,16L121,16L122,16L125,25L131,27L134,31L141,33L144,41L144,42L146,41L151,39L154,34L156,34L164,40L172,39L192,44L196,44L204,42L207,43L219,54L225,53L229,48L240,43L248,42L256,40L265,38L269,31L270,26L280,23L281,23L282,21L290,15L303,16L307,12L310,13L315,9L321,11L325,12L335,20L338,21L343,21L345,22L349,29L352,25L361,27L365,33L369,36L374,34L377,38L378,47L376,58L376,60L384,66L391,70L394,83L396,89L401,92L407,94L410,100L410,110L418,116L416,119L407,121L404,116L399,119L391,116L390,117L387,116L385,120L383,121L383,114L377,115L374,117L374,127L376,132L375,140L371,144L367,146L367,151L365,154L361,158L359,162L360,167L358,170L350,172L349,174L353,180L358,182L370,185L370,182L375,181L380,179L388,174L394,173L401,175L407,181L407,176L404,166L401,163L401,158L404,154L409,155L424,146L439,123L442,107L450,104L450,0L124,0L124,1L118,7L117,16Z " data-iso="UKR"/></g><g fill="red" fill-opacity="0.35" id="regions"><path d="M148,253L151,250L153,249L152,246L154,239L158,238L155,236L156,235L160,231L159,230L166,229L167,228L170,226L174,225L176,225L177,219L178,219L178,220L178,221L184,228L185,230L183,231L183,234L187,237L188,238L193,244L196,247L196,249L198,253L195,253L195,256L197,257L198,260L197,262L193,272L179,269L171,268L166,265L156,265L152,267L144,268L143,267L141,264L142,260L143,258L147,258L149,255L148,253L148,253Z " data-fips="RO17" data-fips-="" data-iso3="ROU" data-name="Dolj"/><path d="M178,216L178,207L180,199L179,190L180,186L178,185L172,185L170,184L168,185L164,187L163,186L157,188L155,189L153,188L149,189L143,187L135,190L132,193L132,196L133,196L134,197L134,198L135,199L138,202L140,202L144,207L144,207L149,216L153,220L166,227L167,228L170,226L174,225L176,225L177,219L178,219L178,216Z " data-fips="RO19" data-fips-="" data-iso3="ROU" data-name="Gorj"/><path d="M134,198L132,200L130,203L129,207L127,212L125,217L117,214L115,222L115,224L110,225L110,226L112,229L114,231L115,230L122,220L126,218L130,222L138,226L137,228L132,227L129,230L127,231L128,236L131,240L135,242L135,246L143,252L147,253L148,253L151,250L153,249L152,246L154,239L158,238L155,236L156,235L160,231L159,230L166,229L167,228L166,227L153,220L149,216L144,207L144,207L140,202L138,202L135,199L134,198Z " data-fips="RO26" data-fips-="" data-iso3="ROU" data-name="Mehedinti"/><path d="M204,209L201,209L198,217L198,218L196,227L193,227L190,230L186,229L185,230L183,231L183,234L187,237L188,238L193,244L196,247L196,249L198,253L195,253L195,256L197,257L198,260L197,262L193,272L193,272L201,272L205,269L207,270L213,272L216,269L212,259L213,256L220,252L220,238L220,237L219,236L216,235L216,226L215,222L209,213L206,212L204,213L204,212L204,209Z " data-fips="RO29" data-fips-="" data-iso3="ROU" data-name="Olt"/><path d="M245,230L242,229L238,234L237,234L235,233L233,233L228,235L222,236L220,237L220,238L220,252L213,256L212,259L216,269L213,272L215,272L217,273L225,272L241,277L242,277L249,276L253,273L255,273L255,268L253,264L252,258L251,254L254,249L253,242L251,240L247,240L245,236L247,231L246,230L245,230Z " data-fips="RO35" data-fips-="" data-iso3="ROU" data-name="Teleorman"/><path d="M273,215L271,215L269,216L266,217L266,217L265,218L263,221L263,222L262,226L261,226L262,229L261,237L266,240L270,243L273,243L274,242L276,239L277,238L280,234L283,232L281,229L282,228L281,227L280,224L282,223L278,218L278,216L276,216L275,215L273,215Z " data-fips="RO10" data-fips-="" data-iso3="ROU" data-name="Bucharest"/><path d="M338,233L333,231L331,229L321,227L318,228L307,229L304,228L299,228L291,227L288,228L285,226L282,228L281,229L283,232L280,234L277,238L276,239L278,242L283,245L283,250L282,253L290,252L300,248L306,246L309,248L315,249L315,249L316,247L322,248L332,244L336,241L341,240L343,237L344,235L338,233Z " data-fips="RO41" data-fips-="" data-iso3="ROU" data-name="Calarasi"/><path d="M265,217L257,211L257,207L253,205L252,200L246,192L242,182L241,178L241,179L240,180L239,181L237,182L237,183L236,193L234,194L232,193L232,198L234,203L233,205L234,211L234,215L233,219L234,220L233,222L234,224L238,227L237,229L237,233L237,234L238,234L242,229L245,230L246,230L247,229L247,228L248,228L249,227L261,226L262,226L263,222L263,221L265,218L266,217L265,217Z " data-fips="RO16" data-fips-="" data-iso3="ROU" data-name="Dmbovita"/><path d="M261,226L249,227L248,228L247,228L247,229L246,230L247,231L245,236L247,240L251,240L253,242L254,249L251,254L252,258L253,264L255,268L255,273L256,273L261,268L270,257L278,254L282,253L283,250L283,245L278,242L276,239L274,242L273,243L270,243L266,240L261,237L262,229L261,226Z " data-fips="RO42" data-fips-="" data-iso3="ROU" data-name="Giurgiu"/><path d="M310,211L311,213L308,214L306,211L303,212L300,211L290,211L289,210L288,209L287,210L286,211L280,214L276,214L275,215L276,216L278,216L278,218L282,223L280,224L281,227L282,228L285,226L288,228L291,227L299,228L304,228L307,229L318,228L321,227L331,229L333,231L338,233L344,235L345,232L348,230L347,227L344,225L344,219L342,217L338,215L338,212L339,212L338,211L336,210L330,212L314,212L311,211L310,211Z " data-fips="RO22" data-fips-="" data-iso3="ROU" data-name="Ialomita"/><path d="M349,174L348,175L348,176L342,177L342,178L342,178L343,185L345,185L345,189L348,191L347,194L347,200L345,210L344,211L339,212L339,212L338,212L338,215L342,217L344,219L344,225L347,227L348,230L345,232L344,235L343,237L341,240L336,241L332,244L322,248L316,247L315,249L315,249L316,252L318,253L320,255L328,254L330,253L334,258L339,255L342,256L344,262L346,263L354,267L363,268L368,267L369,260L371,252L370,250L370,242L369,238L371,232L374,227L376,225L376,222L372,226L373,219L374,218L380,217L378,214L376,217L374,217L374,212L379,210L379,207L376,204L376,200L379,198L379,196L382,201L383,205L385,206L387,207L380,211L382,214L383,213L389,208L393,207L401,205L406,195L406,187L404,183L405,183L404,176L401,174L395,172L388,173L386,175L377,182L372,180L370,182L371,185L363,184L360,183L356,182L351,177L349,174L349,174Z " data-fips="RO14" data-fips-="" data-iso3="ROU" data-name="Constanta"/><path d="M89,112L84,115L84,117L82,121L83,123L82,125L80,126L77,132L76,132L73,134L69,133L64,133L62,134L62,137L61,137L61,138L72,146L74,146L76,149L78,146L82,149L86,149L89,146L91,146L92,148L94,148L96,152L97,153L100,151L102,152L103,151L105,152L107,149L112,151L115,153L118,154L122,153L123,152L123,151L125,149L125,145L127,139L129,136L131,137L136,132L139,130L137,128L136,128L126,127L125,125L118,121L116,116L114,115L104,112L91,112L89,112L89,112Z " data-fips="RO02" data-fips-="" data-iso3="ROU" data-name="Arad"/><path d="M118,61L111,66L112,72L106,77L104,84L103,87L99,90L99,93L95,102L92,104L91,107L92,109L89,111L89,112L91,112L104,112L114,115L116,116L118,121L125,125L126,127L136,128L137,128L136,125L137,121L137,119L140,118L141,118L141,116L138,108L136,105L139,101L139,99L137,98L138,96L138,95L137,94L134,91L133,78L133,76L133,75L129,71L125,71L124,69L120,64L118,61L118,61Z " data-fips="RO05" data-fips-="" data-iso3="ROU" data-name="Bihor"/><path d="M127,167L122,168L110,175L108,175L105,172L102,174L100,174L97,172L94,172L93,175L90,177L89,182L92,185L89,194L89,195L84,203L86,205L88,205L90,209L85,210L83,212L92,215L95,220L103,220L107,222L110,225L110,225L115,224L115,222L117,214L125,217L127,212L129,207L130,203L132,200L134,198L134,197L133,196L132,196L132,193L135,190L135,189L136,185L135,183L136,180L133,174L127,168L127,167Z " data-fips="RO12" data-fips-="" data-iso3="ROU" data-name="Caras-Severin"/><path d="M89,194L92,185L89,182L90,177L93,175L94,172L97,172L100,174L102,174L105,172L108,175L110,175L122,168L127,167L127,167L129,161L126,157L125,153L123,151L123,152L122,153L118,154L115,153L112,151L107,149L105,152L103,151L102,152L100,151L97,153L96,152L94,148L92,148L91,146L89,146L86,149L82,149L78,146L76,149L74,146L72,146L61,138L61,138L57,140L52,137L51,138L43,140L46,144L47,148L55,153L59,161L62,160L63,165L62,168L62,174L62,175L70,184L82,190L88,193L89,194Z " data-fips="RO36" data-fips-="" data-iso3="ROU" data-name="Timis"/><path d="M263,39L264,43L267,45L274,52L279,58L281,63L281,66L283,68L285,68L286,67L287,66L296,65L299,67L301,66L301,63L306,64L313,59L313,59L311,57L307,52L308,51L305,46L302,37L297,31L295,29L296,27L292,26L288,23L284,22L280,23L270,26L270,29L269,33L264,39L263,39Z " data-fips="RO07" data-fips-="MD63" data-iso3="ROU" data-name="Botosani"/><path d="M140,118L137,119L137,121L136,125L137,128L139,130L141,132L145,131L148,137L149,137L155,148L157,149L158,153L160,156L162,165L164,171L170,176L170,177L170,179L172,179L173,177L171,173L172,170L171,165L173,161L175,160L177,157L175,153L179,153L181,152L181,149L184,147L187,147L188,146L193,140L194,139L193,135L193,135L191,131L187,129L187,124L186,124L186,125L172,127L172,124L169,123L164,120L160,121L158,122L154,122L147,119L142,119L141,118L140,118Z " data-fips="RO01" data-fips-="" data-iso3="ROU" data-name="Alba"/><path d="M218,62L214,64L207,65L199,63L197,64L195,67L191,69L188,75L186,76L186,78L184,80L184,82L185,87L191,89L191,94L192,97L195,99L194,104L193,106L197,107L200,108L205,106L209,99L214,99L218,91L223,89L226,88L226,84L226,81L224,80L225,76L223,72L225,72L226,69L226,66L222,62L221,62L218,62Z " data-fips="RO06" data-fips-="" data-iso3="ROU" data-name="Bistrita-Nasaud"/><path d="M180,76L179,77L180,77L179,81L173,83L168,87L161,97L161,100L158,99L152,101L146,99L143,95L138,95L138,95L138,96L137,98L139,99L139,101L136,105L138,108L141,116L141,118L142,119L147,119L154,122L158,122L160,121L164,120L169,123L172,124L172,127L186,125L186,124L185,123L187,119L187,117L190,109L192,106L193,106L194,104L195,99L192,97L191,94L191,89L185,87L184,82L184,80L186,78L186,76L180,76Z " data-fips="RO13" data-fips-="" data-iso3="ROU" data-name="Cluj"/><path d="M170,177L170,176L164,171L162,165L160,156L158,153L157,149L155,148L149,137L148,137L145,131L141,132L139,130L136,132L131,137L129,136L127,139L125,145L125,149L123,151L125,153L126,157L129,161L127,167L127,167L127,168L133,174L136,180L135,183L136,185L135,189L135,190L143,187L149,189L153,188L155,189L157,188L163,186L164,187L168,185L170,184L171,183L171,182L170,181L170,180L170,179L170,177Z " data-fips="RO21" data-fips-="" data-iso3="ROU" data-name="Hunedoara"/><path d="M167,40L172,49L167,53L162,53L158,53L158,55L161,56L162,59L161,62L158,65L153,62L147,70L149,71L152,72L154,71L158,71L166,74L173,74L177,77L178,77L179,77L180,76L186,76L188,75L191,69L195,67L197,64L199,63L207,65L214,64L218,62L221,62L223,61L222,57L221,54L220,54L215,49L210,47L210,45L206,42L202,41L199,43L191,44L189,42L180,42L178,40L170,39L168,39L167,40L167,40Z " data-fips="RO25" data-fips-="" data-iso3="ROU" data-name="Maramures"/><path d="M229,88L226,88L223,89L218,91L214,99L209,99L205,106L200,108L197,107L193,106L192,106L190,109L187,117L187,119L185,123L186,124L187,124L187,129L191,131L193,135L193,135L196,135L200,136L207,135L211,135L212,143L213,144L220,143L222,144L224,145L223,144L226,141L229,141L231,140L228,137L222,135L219,131L219,130L223,127L222,126L225,122L231,116L234,111L233,102L234,95L231,91L231,89L229,88Z " data-fips="RO27" data-fips-="" data-iso3="ROU" data-name="Mures"/><path d="M178,77L177,77L173,74L166,74L158,71L154,71L152,72L152,72L151,76L141,72L135,75L133,76L133,78L134,91L137,94L138,95L138,95L143,95L146,99L152,101L158,99L161,100L161,97L168,87L173,83L179,81L180,77L179,77L178,77Z " data-fips="RO31" data-fips-="" data-iso3="ROU" data-name="Salaj"/><path d="M118,61L120,64L124,69L125,71L129,71L133,75L133,76L135,75L141,72L151,76L152,72L152,72L149,71L147,70L153,62L158,65L161,62L162,59L161,56L158,55L158,53L162,53L167,53L172,49L167,40L167,41L163,39L157,35L153,34L150,40L147,39L146,40L141,45L135,51L131,52L128,51L127,53L122,54L119,57L118,60L118,61Z " data-fips="RO32" data-fips-="" data-iso3="ROU" data-name="Satu Mare"/><path d="M236,180L233,176L229,173L216,170L214,171L207,173L207,174L205,180L206,185L206,192L207,195L206,209L204,211L204,212L204,213L206,212L209,213L215,222L216,226L216,235L219,236L220,237L222,236L228,235L233,233L235,233L237,234L237,233L237,229L238,227L234,224L233,222L234,220L233,219L234,215L234,211L233,205L234,203L232,198L232,193L234,194L236,193L237,183L237,182L236,180Z " data-fips="RO03" data-fips-="" data-iso3="ROU" data-name="Arges"/><path d="M222,144L220,143L213,144L212,143L211,135L207,135L200,136L196,135L193,135L194,139L193,140L188,146L187,147L184,147L181,149L181,152L179,153L175,153L177,157L175,160L173,161L171,165L172,170L171,173L173,177L172,179L173,179L178,176L189,176L193,174L199,173L207,173L214,171L213,169L212,164L211,161L215,158L214,154L218,150L223,146L224,145L222,144Z " data-fips="RO33" data-fips-="" data-iso3="ROU" data-name="Sibiu"/><path d="M199,173L193,174L189,176L178,176L173,179L172,179L170,179L170,180L170,181L171,182L171,183L170,184L172,185L178,185L180,186L179,190L180,199L178,207L178,216L178,219L178,220L178,221L184,228L185,230L186,229L190,230L193,227L196,227L198,218L198,217L201,209L204,209L204,212L204,211L206,209L207,195L206,192L206,185L205,180L207,174L207,173L199,173Z " data-fips="RO39" data-fips-="" data-iso3="ROU" data-name="Vlcea"/><path d="M241,141L238,140L237,139L233,140L231,140L229,141L226,141L223,144L224,145L223,146L218,150L214,154L215,158L211,161L212,164L213,169L214,171L216,170L229,173L233,176L236,180L237,182L239,181L240,180L241,179L241,178L242,178L250,176L257,178L259,178L260,175L263,176L265,176L267,171L266,171L259,163L255,162L250,162L246,157L246,152L244,145L241,143L242,142L241,141Z " data-fips="RO09" data-fips-="" data-iso3="ROU" data-name="Brasov"/><path d="M262,141L257,141L253,135L253,134L250,132L247,134L242,140L242,142L241,143L244,145L246,152L246,157L250,162L255,162L259,163L266,171L267,171L269,171L275,169L276,168L278,159L277,158L278,155L278,152L278,152L279,150L281,146L280,145L278,142L276,138L273,138L272,139L262,141Z " data-fips="RO15" data-fips-="" data-iso3="ROU" data-name="Covasna"/><path d="M247,90L243,89L239,86L234,89L232,90L231,89L231,91L234,95L233,102L234,111L231,116L225,122L222,126L223,127L219,130L219,131L222,135L228,137L231,140L233,140L237,139L238,140L241,141L242,142L242,140L247,134L250,132L253,134L253,135L257,141L262,141L272,139L272,137L273,135L273,130L268,130L267,126L263,125L263,123L264,120L262,115L262,111L259,110L257,113L255,110L254,100L256,99L252,91L249,90L249,90L247,90Z " data-fips="RO20" data-fips-="" data-iso3="ROU" data-name="Harghita"/><path d="M313,59L306,64L301,63L301,66L299,67L296,65L287,66L286,67L285,68L285,69L280,73L279,74L282,76L281,77L278,78L281,81L286,88L288,88L299,90L304,87L305,89L306,98L306,99L311,99L314,98L317,99L320,97L323,97L323,92L329,94L330,95L330,99L333,99L341,98L341,97L340,93L337,88L333,86L330,84L325,75L321,73L318,65L315,64L313,60L313,59Z " data-fips="RO23" data-fips-="" data-iso3="ROU" data-name="Iasi"/><path d="M277,77L274,76L263,79L256,80L252,78L249,89L249,90L249,90L252,91L256,99L254,100L255,110L257,113L259,110L262,111L263,110L268,111L270,109L273,112L276,112L278,111L283,110L287,108L292,107L293,106L296,102L297,104L306,106L307,105L308,104L308,104L308,103L307,100L306,99L306,98L305,89L304,87L299,90L288,88L286,88L281,81L278,78L277,77Z " data-fips="RO28" data-fips-="" data-iso3="ROU" data-name="Neamt"/><path d="M263,176L260,175L259,178L257,178L250,176L242,178L241,178L242,182L246,192L252,200L253,205L257,207L257,211L265,217L266,217L266,217L269,216L271,215L273,215L275,215L276,214L280,214L286,211L287,210L288,209L287,208L285,205L287,203L283,199L282,197L280,191L278,192L277,190L274,190L272,186L272,185L270,181L268,179L265,176L263,176Z " data-fips="RO30" data-fips-="" data-iso3="ROU" data-name="Prahova"/><path d="M260,39L250,42L232,44L231,45L227,51L223,54L221,54L222,57L223,61L221,62L222,62L226,66L226,69L225,72L223,72L225,76L224,80L226,81L226,84L226,88L229,88L231,89L232,90L234,89L239,86L243,89L247,90L249,90L249,89L252,78L256,80L263,79L274,76L277,77L278,78L281,77L282,76L279,74L280,73L285,69L285,68L283,68L281,66L281,63L279,58L274,52L267,45L264,43L263,39L260,39Z " data-fips="RO34" data-fips-="" data-iso3="ROU" data-name="Suceava"/><path d="M306,106L297,104L296,102L293,106L292,107L287,108L283,110L278,111L276,112L273,112L270,109L268,111L263,110L262,111L262,115L264,120L263,123L263,125L267,126L268,130L273,130L273,135L272,137L272,139L273,138L276,138L278,142L280,145L281,146L285,146L288,143L292,142L298,142L301,141L304,142L309,137L314,136L316,137L319,136L320,136L319,130L316,120L312,114L312,110L308,106L307,105L306,106Z " data-fips="RO04" data-fips-="" data-iso3="ROU" data-name="Bacau"/><path d="M339,177L334,177L328,174L326,174L324,173L322,174L320,177L319,178L318,179L318,180L314,184L314,188L309,188L306,189L305,191L308,191L309,194L313,198L312,204L310,205L311,208L311,210L311,211L314,212L330,212L336,210L338,211L339,212L339,212L344,211L345,210L347,200L347,194L348,191L345,189L345,185L343,185L342,178L342,178L339,177Z " data-fips="RO08" data-fips-="" data-iso3="ROU" data-name="Braila"/><path d="M317,179L308,177L307,175L304,176L300,171L297,173L294,171L289,168L285,167L279,160L277,158L278,159L276,168L275,169L269,171L267,171L265,176L268,179L270,181L272,185L272,186L274,190L277,190L278,192L280,191L282,197L283,199L287,203L285,205L287,208L288,209L289,210L290,211L300,211L303,212L306,211L308,214L311,213L310,211L311,211L311,210L311,208L310,205L312,204L313,198L309,194L308,191L305,191L306,189L309,188L314,188L314,184L318,180L318,179L317,179Z " data-fips="RO11" data-fips-="" data-iso3="ROU" data-name="Buzau"/><path d="M321,139L318,139L312,143L310,146L311,149L316,161L320,165L323,172L324,173L326,174L328,174L334,177L339,177L342,178L342,177L348,176L348,175L349,174L349,174L347,172L346,170L345,168L342,167L346,165L346,163L344,152L344,149L342,144L342,140L343,139L335,138L332,139L324,138L324,139L324,145L322,141L321,139Z " data-fips="RO18" data-fips-="" data-iso3="ROU" data-name="Galati"/><path d="M306,99L307,100L308,103L308,104L308,104L307,105L308,106L312,110L312,114L316,120L319,130L320,136L321,139L322,141L324,145L324,139L324,138L332,139L335,138L343,139L343,139L345,127L345,125L346,118L346,116L346,111L341,98L341,98L333,99L330,99L330,95L329,94L323,92L323,97L320,97L317,99L314,98L311,99L306,99Z " data-fips="RO38" data-fips-="" data-iso3="ROU" data-name="Vaslui"/><path d="M319,136L316,137L314,136L309,137L304,142L301,141L298,142L292,142L288,143L285,146L281,146L279,150L278,152L278,152L278,155L277,158L279,160L285,167L289,168L294,171L297,173L300,171L304,176L307,175L308,177L317,179L318,179L319,178L320,177L322,174L324,173L323,172L320,165L316,161L311,149L310,146L312,143L318,139L321,139L320,136L319,136Z " data-fips="RO40" data-fips-="" data-iso3="ROU" data-name="Vrancea"/></g></svg>