<?xml version="1.0" encoding="UTF-8"?><!DOCTYPE svg  PUBLIC '-//W3C//DTD SVG 1.1//EN'  'http://www.w3.org/Graphics/SVG/1.1/DTD/svg11.dtd'><svg enable_background="new 0 0 450 301" height="301px" style="stroke-linejoin: round; stroke:#000; fill:#f6f3f0;" version="1.1" viewBox="0 0 450 301" width="450px" xmlns="http://www.w3.org/2000/svg" xmlns:xlink="http://www.w3.org/1999/xlink"><defs><style type="text/css"><![CDATA[path { fill-rule: evenodd; }
#context path { fill: #eee; stroke: #bbb; } ]]></style></defs><metadata><views><view h="301.0" padding="0.06" w="450"><proj id="laea" lat0="62.0" lon0="98.0"/><bbox h="608.53" w="976.5" x="484.17" y="613.91"/><llbbox lat0="-90" lat1="90" lon0="-180" lon1="180"/></view></views></metadata><g id="context"><path d="M102,297L102,297L101,296L101,296L99,294L97,293L97,293L95,291L93,292L89,291L87,294L80,294L79,295L75,295L72,290L72,290L72,291L69,294L65,296L64,299L108,299L105,298L103,299L102,297L102,297Z M119,299L114,298L114,299L119,299Z " data-iso="AFG"/><path d="M31,218L31,218L29,216L26,214L26,214L26,214L23,220L25,221L25,224L25,224L25,224L26,227L27,228L26,232L26,232L26,232L27,232L27,233L28,233L29,229L29,226L31,218L31,218Z " data-iso="ARM"/><path d="M5,97L5,97L6,95L7,95L7,95L8,95L8,95L8,87L6,87L6,83L6,83L6,83L4,83L4,82L0,82L0,96L1,96L2,97L4,97L5,97Z " data-iso="AUT"/><path d="M25,224L25,224L25,224L25,225L25,229L26,231L26,232L26,232L27,228L26,227L25,224L25,224Z M38,220L38,220L36,223L35,224L32,218L31,218L31,218L29,226L29,229L28,233L27,233L28,233L35,234L35,237L32,238L34,243L35,241L37,241L42,237L45,239L44,227L44,226L40,227L38,225L38,220L38,220Z " data-iso="AZE"/><path d="M13,50L13,50L12,50L12,50L12,51L12,51L12,52L9,52L9,52L9,52L9,51L7,51L6,52L6,52L6,51L9,47L8,46L14,38L15,39L15,40L16,40L15,43L16,45L13,50L13,50Z " data-iso="BEL"/><path d="M1,152L0,150L1,149L0,147L0,153L1,152Z " data-iso="BGR"/><path d="M59,112L56,111L56,110L55,109L55,109L55,109L53,110L50,109L47,110L42,105L42,104L41,105L36,109L33,108L31,111L30,111L30,111L36,122L40,132L45,135L45,135L45,135L50,131L50,133L53,130L59,123L60,122L60,118L59,117L59,113L59,112L59,112Z " data-iso="BLR"/><path d="M352,289L353,286L357,282L360,276L364,275L363,273L366,269L367,265L370,265L371,265L371,264L372,261L370,255L367,252L369,248L373,239L371,229L369,228L366,231L365,235L360,238L356,233L352,232L344,233L338,227L336,224L330,219L318,221L314,224L316,231L314,233L313,241L314,243L310,247L307,247L306,247L306,248L306,259L307,258L312,256L322,260L318,261L313,264L308,272L304,273L301,278L297,278L294,283L295,284L290,291L286,294L274,297L271,299L331,299L337,289L342,291L340,297L343,299L347,293L352,289L352,289Z M200,257L200,257L199,257L198,257L198,257L198,257L198,257L194,260L191,261L190,266L186,268L179,266L175,272L175,276L172,274L166,274L166,284L163,289L163,289L163,290L149,292L147,292L144,295L138,292L131,295L131,295L131,296L131,298L131,298L130,299L256,299L254,297L246,296L244,297L234,296L226,287L217,283L214,282L208,279L210,276L209,271L208,267L200,261L200,257L200,257Z " data-iso="CHN"/><path d="M17,82L17,80L12,75L8,78L6,83L6,83L6,83L6,87L8,87L8,95L8,95L8,95L10,98L11,98L14,100L14,100L14,100L16,98L17,91L15,91L18,84L18,83L17,82L17,82Z " data-iso="CZE"/><path d="M34,74L34,73L33,74L33,74L33,75L33,74L34,74L34,74Z M6,83L6,83L8,78L12,75L17,80L17,82L17,82L18,82L24,80L27,77L32,75L32,75L35,70L35,68L36,58L36,58L36,56L36,55L36,55L35,55L33,56L28,55L29,52L27,52L27,52L18,49L17,51L13,51L12,51L12,51L12,52L9,52L9,52L9,52L9,52L6,54L5,54L5,54L4,56L4,60L0,61L0,82L4,82L4,83L6,83L6,83Z " data-iso="DEU"/><path d="M41,60L39,58L38,61L41,60Z M43,66L43,63L39,62L43,66Z M36,55L36,55L36,56L36,58L37,58L40,57L46,59L48,57L51,57L51,55L49,54L39,53L36,54L36,55Z " data-iso="DNK"/><path d="M63,96L65,98L65,101L65,106L65,106L65,106L67,106L71,103L76,102L76,102L74,95L69,91L63,96L63,96Z " data-iso="EST"/><path d="M120,62L120,63L111,73L110,74L105,76L105,77L104,79L102,80L90,78L89,76L84,78L77,81L72,88L73,89L81,98L81,98L86,100L93,101L98,99L99,95L103,93L106,90L111,88L114,84L122,79L125,78L125,78L126,78L129,77L130,73L120,72L119,68L122,64L120,62L120,62Z " data-iso="FIN"/><path d="M5,54L6,53L6,53L5,53L6,52L6,52L6,51L9,47L8,46L14,38L14,37L13,35L10,35L7,30L4,29L7,22L1,25L1,20L2,12L0,13L0,61L4,60L4,56L5,54L5,54Z " data-iso="FRA"/><path d="M33,5L40,5L40,2L40,2L38,0L35,0L34,5L33,5Z M57,15L55,8L54,8L40,7L44,9L38,9L37,14L33,15L32,16L29,16L28,12L22,12L21,9L17,16L12,8L11,15L14,23L13,26L13,31L14,33L18,32L23,33L26,28L31,26L34,22L45,16L47,18L52,13L52,12L57,15Z " data-iso="GBR"/><path d="M38,220L37,216L38,215L29,199L28,195L25,193L25,194L26,199L27,200L23,206L22,206L23,207L26,214L26,214L26,214L29,216L31,218L31,218L32,218L35,224L36,223L38,220L38,220L38,220Z " data-iso="GEO"/><path d="M177,0L181,4L186,5L190,14L193,14L192,5L195,8L201,4L199,8L208,8L211,4L210,3L213,0L177,0Z " data-iso="GRL"/><path d="M11,118L11,118L12,116L12,116L13,115L13,114L12,114L11,109L7,104L5,104L5,97L5,97L4,97L2,97L1,96L0,96L0,115L3,117L8,116L11,118L11,118Z " data-iso="HUN"/><path d="M40,2L41,1L40,1L41,0L38,0L40,2L40,2Z M34,5L35,0L23,0L28,6L33,5L34,5Z " data-iso="IRL"/><path d="M72,290L72,290L74,285L70,283L69,277L65,273L63,268L59,265L48,263L48,263L45,263L38,260L35,253L34,243L34,243L32,238L35,237L35,234L28,233L27,233L27,232L26,232L26,232L26,231L25,229L25,225L25,224L25,224L22,223L16,235L16,235L16,235L14,242L16,246L13,249L8,250L7,252L8,269L5,276L5,280L6,280L9,279L9,282L12,284L11,299L64,299L65,296L69,294L72,291L72,290Z " data-iso="IRN"/><path d="M3,278L5,279L5,280L5,280L5,276L8,269L7,252L8,250L13,249L16,246L14,242L16,235L16,235L16,235L13,232L10,227L8,227L8,227L8,227L4,227L0,229L0,275L3,277L3,278L3,278Z " data-iso="IRQ"/><path d="M402,299L409,294L412,299L413,298L414,288L420,286L421,283L425,280L425,276L426,280L427,273L426,273L421,262L421,255L420,251L414,247L413,248L410,249L410,252L413,256L415,265L415,267L411,278L409,278L408,285L409,287L406,289L397,295L395,299L402,299Z M412,226L401,226L407,236L404,239L405,240L404,244L408,248L409,245L411,244L406,243L411,238L417,237L416,233L421,226L417,224L416,221L416,224L412,226Z " data-iso="JPN"/><path d="M62,208L71,210L75,215L73,219L70,221L70,223L65,218L63,219L63,223L61,220L58,220L57,228L60,233L57,237L57,238L64,240L65,248L67,249L67,249L68,248L78,232L88,235L93,247L95,253L99,255L103,257L105,258L108,264L106,268L107,269L107,274L113,279L116,278L125,276L125,276L125,276L127,274L131,275L133,278L137,276L143,279L159,285L162,289L163,289L163,289L166,284L166,274L172,274L175,276L175,272L179,266L186,268L190,266L191,261L194,260L198,257L198,257L198,257L196,253L194,254L191,253L184,244L182,245L179,243L176,240L175,242L170,226L167,221L159,221L156,220L157,218L151,213L152,209L149,206L144,204L142,205L129,202L121,199L119,202L121,205L118,204L113,211L113,215L105,212L104,208L101,207L100,205L95,205L89,193L85,188L76,188L73,191L72,186L68,187L62,192L61,196L64,199L62,208L62,208Z " data-iso="KAZ"/><path d="M162,289L159,285L143,279L137,276L133,278L131,275L127,274L125,276L125,276L125,276L126,277L122,280L127,282L131,287L125,288L122,287L121,287L121,287L114,285L113,288L122,291L125,294L131,295L131,295L131,295L138,292L144,295L147,292L149,292L163,290L163,289L162,289Z M122,289L121,288L121,288L122,289Z M120,289L119,288L119,288L120,289Z " data-iso="KGZ"/><path d="M371,289L366,294L365,297L365,297L367,299L380,299L378,294L373,291L371,289Z " data-iso="KOR"/><path d="M1,285L2,280L3,280L3,278L3,278L3,277L0,275L0,285L1,286L1,285Z " data-iso="KWT"/><path d="M46,93L46,93L47,93L48,93L47,93L46,93Z M50,92L49,92L47,94L47,94L46,94L46,100L45,100L44,101L43,101L44,101L43,104L42,104L42,104L42,105L47,110L50,109L53,110L55,109L55,109L55,109L56,105L54,95L51,91L50,92Z " data-iso="LTU"/><path d="M9,52L9,51L7,51L6,52L6,52L6,52L5,53L6,53L6,53L5,54L6,54L9,52L9,52L9,52L9,52Z " data-iso="LUX"/><path d="M65,106L65,101L65,98L63,96L63,97L58,97L59,90L51,91L51,91L54,95L56,105L55,109L55,109L55,109L56,110L56,111L59,112L59,112L59,112L63,108L64,108L65,106L65,106L65,106Z " data-iso="LVA"/><path d="M8,145L17,147L21,140L21,134L19,131L18,131L19,131L15,140L14,141L8,145L8,145L8,145Z " data-iso="MDA"/><path d="M306,247L305,246L302,247L296,247L290,253L283,256L277,256L274,253L264,251L258,254L253,251L246,245L241,243L237,249L238,255L236,256L225,255L220,251L217,250L209,253L207,255L201,256L200,257L200,257L200,257L200,261L208,267L209,271L210,276L208,279L214,282L217,283L226,287L234,296L244,297L246,296L254,297L256,299L271,299L274,297L286,294L290,291L295,284L294,283L297,278L301,278L304,273L308,272L313,264L318,261L322,260L312,256L307,258L306,259L306,248L306,247Z " data-iso="MNG"/><path d="M16,43L16,43L15,42L16,41L16,40L15,43L16,43Z M13,50L12,50L12,50L12,51L13,51L17,51L18,49L27,52L27,51L24,45L16,42L16,43L16,45L13,50L13,50Z " data-iso="NLD"/><path d="M60,57L63,57L66,59L73,58L75,55L84,53L91,56L99,56L107,57L112,57L112,59L116,59L117,62L120,62L120,62L120,62L122,64L119,68L120,72L130,73L129,77L126,78L125,78L126,78L127,78L130,80L131,79L131,79L131,75L134,78L135,77L134,71L132,71L129,68L133,68L132,66L127,65L127,63L121,60L123,58L116,56L114,57L112,54L107,54L102,51L92,50L85,46L84,48L84,43L83,44L81,41L78,39L76,36L62,39L56,41L53,45L55,50L61,54L60,57L60,57Z M173,47L172,45L168,48L167,50L170,49L173,47Z M180,40L176,38L179,37L178,35L175,35L171,36L172,41L171,42L165,40L161,44L167,45L173,45L174,46L177,42L180,40Z M182,43L181,41L177,48L184,47L184,45L182,43Z " data-iso="NOR"/><path d="M40,91L41,85L38,81L33,75L34,74L33,74L33,75L33,75L33,76L32,76L32,75L27,77L24,80L18,82L17,82L18,83L18,84L15,91L17,91L16,98L14,100L14,100L14,100L14,105L15,106L17,111L16,114L16,114L17,114L17,115L25,115L25,115L30,111L30,111L31,111L33,108L36,109L41,105L42,104L42,104L43,104L44,101L43,101L43,101L43,99L41,91L40,91Z " data-iso="POL"/><path d="M365,297L366,294L371,289L371,289L366,288L365,285L371,274L370,271L372,266L372,266L372,266L371,265L371,265L370,265L367,265L366,269L363,273L364,275L360,276L357,282L353,286L352,289L352,289L357,290L358,299L365,297L365,297Z " data-iso="PRK"/><path d="M1,152L6,150L7,149L10,151L10,151L9,148L8,146L8,146L8,145L8,145L14,141L15,140L19,131L18,131L18,131L13,126L13,123L11,118L11,118L11,118L8,116L3,117L0,115L0,147L1,149L0,150L1,152L1,152Z " data-iso="ROU"/><path d="M418,218L418,223L419,224L418,218Z M374,182L379,194L384,197L389,205L391,210L397,217L400,222L400,217L405,218L404,216L396,212L393,205L396,202L390,197L374,182Z M46,93L46,93L46,93L44,92L42,91L41,91L41,91L43,99L43,101L43,101L44,101L45,100L46,100L46,94L46,94L44,93L46,93L46,93Z M358,53L358,54L374,57L378,55L379,51L386,46L383,42L379,41L380,39L375,37L372,39L371,42L374,44L373,46L369,45L358,53Z M349,73L347,72L346,74L349,73Z M169,121L167,117L166,120L169,121Z M344,48L344,50L347,51L346,46L344,48Z M173,100L172,99L162,104L164,108L162,109L163,112L167,114L168,107L174,102L173,100Z M301,85L301,87L305,86L305,82L301,85Z M292,90L289,89L291,95L293,96L295,94L298,92L298,86L292,87L292,90Z M198,97L201,94L196,94L191,92L173,97L172,99L175,102L182,98L185,98L198,97Z M131,79L130,80L127,78L126,78L125,78L125,78L122,79L114,84L111,88L106,90L103,93L99,95L98,99L93,101L86,100L81,98L81,99L81,103L78,103L76,102L76,102L71,103L67,106L65,106L65,106L65,106L64,108L63,108L59,112L59,112L59,113L59,117L60,118L60,122L59,123L53,130L50,133L50,131L45,135L45,135L45,135L50,140L46,146L48,162L49,162L51,169L47,170L45,174L38,171L36,173L37,174L38,176L33,174L33,178L28,178L24,175L25,181L25,192L25,193L28,195L29,199L38,215L37,216L38,220L38,220L38,220L38,225L40,227L44,226L44,226L45,218L48,215L48,210L62,208L62,208L64,199L61,196L62,192L68,187L72,186L73,191L76,188L85,188L89,193L95,205L100,205L101,207L104,208L105,212L113,215L113,211L118,204L121,205L119,202L121,199L129,202L142,205L144,204L149,206L152,209L151,213L157,218L156,220L159,221L167,221L170,226L175,242L176,240L179,243L182,245L184,244L191,253L194,254L196,253L198,257L198,257L198,257L198,257L199,257L200,257L200,257L200,257L201,256L207,255L209,253L217,250L220,251L225,255L236,256L238,255L237,249L241,243L246,245L253,251L258,254L264,251L274,253L277,256L283,256L290,253L296,247L302,247L305,246L306,247L307,247L310,247L314,243L313,241L314,233L316,231L314,224L318,221L330,219L336,224L338,227L344,233L352,232L356,233L360,238L365,235L366,231L369,228L371,229L373,239L369,248L367,252L370,255L372,261L371,264L371,265L371,265L372,266L372,266L372,265L380,258L385,250L387,230L387,217L386,212L381,204L379,198L379,196L374,192L375,190L367,188L366,194L362,197L358,193L353,195L354,192L355,185L355,178L357,171L356,167L358,158L363,154L364,154L368,148L370,147L369,144L372,143L376,144L379,137L378,134L376,127L374,121L376,115L378,113L380,116L384,118L384,116L382,109L382,107L379,104L381,102L384,105L390,123L392,131L392,134L394,142L398,146L402,149L421,161L418,151L417,150L417,144L414,141L413,136L414,133L410,131L408,126L409,124L405,124L393,113L392,111L394,104L396,106L395,98L397,95L400,95L398,92L394,82L393,74L391,71L394,67L387,66L383,67L380,60L358,54L351,60L350,63L347,69L349,71L353,71L354,72L350,75L347,75L343,83L343,87L339,88L335,86L332,87L329,90L328,94L323,96L322,97L318,97L318,95L314,97L311,101L306,101L304,105L307,108L306,112L300,116L296,114L297,122L294,121L289,117L286,111L279,112L278,117L271,118L270,116L267,117L263,120L256,119L257,120L254,123L252,122L254,119L260,109L255,102L249,104L250,102L245,98L242,101L242,105L240,108L239,106L227,109L219,114L221,116L210,118L210,125L212,128L211,136L209,137L210,133L209,132L211,129L205,123L199,126L202,130L198,127L200,119L194,125L194,130L192,132L191,138L194,138L197,141L196,145L195,140L190,140L189,145L185,149L178,150L184,145L192,128L192,124L196,118L192,114L186,120L182,123L180,134L178,137L177,133L173,125L169,122L168,122L167,126L162,127L163,124L160,124L155,122L156,118L152,117L141,115L137,117L136,116L136,111L141,111L142,108L139,104L138,107L128,115L129,113L124,109L118,113L113,105L110,111L110,110L110,102L113,99L116,98L116,94L119,90L119,98L121,105L128,107L132,103L132,100L133,88L133,81L131,80L131,79Z M96,116L93,117L93,116L93,114L93,116L94,115L95,114L95,112L97,109L99,108L98,111L99,112L100,111L100,108L101,107L101,111L100,112L98,112L96,116Z M243,89L241,95L246,93L243,89Z M237,84L233,87L239,92L240,90L239,85L237,84Z M236,79L232,83L234,85L237,84L236,79Z " data-iso="RUS"/><path d="M1,286L0,285L0,291L0,289L0,287L1,287L1,286Z M2,299L0,292L0,299L2,299Z " data-iso="SAU"/><path d="M16,114L17,111L15,106L14,105L14,100L14,100L14,100L11,98L10,98L8,95L8,95L7,95L7,95L6,95L5,97L5,97L5,97L5,104L7,104L11,109L12,114L13,114L13,114L15,114L15,114L16,114L16,114L16,114Z " data-iso="SVK"/><path d="M58,82L56,79L54,81L58,82Z M120,62L120,62L117,62L116,59L112,59L112,57L107,57L99,56L91,56L84,53L75,55L73,58L66,59L63,57L60,57L60,57L49,63L47,66L41,67L42,72L44,71L47,76L56,74L65,70L68,77L72,71L82,68L94,73L97,72L104,73L104,76L105,76L110,74L111,73L120,63L120,62Z " data-iso="SWE"/><path d="M8,227L8,226L2,221L0,220L0,229L4,227L8,227L8,227Z " data-iso="SYR"/><path d="M120,289L119,288L119,288L120,289Z M131,295L131,295L125,294L122,291L113,288L114,285L121,287L121,287L121,287L121,282L115,282L114,284L105,285L106,290L102,297L102,297L102,297L103,299L105,298L108,299L109,299L112,299L114,299L114,298L119,299L130,299L131,298L131,298L131,296L131,295Z " data-iso="TJK"/><path d="M67,249L67,249L65,248L64,240L57,238L56,239L59,238L62,240L61,244L62,247L58,247L56,243L52,248L52,255L48,262L48,263L59,265L63,268L65,273L69,277L70,283L74,285L72,290L72,290L72,290L75,295L79,295L80,294L87,294L89,291L93,292L95,291L97,293L97,293L97,293L87,272L88,267L86,263L82,259L83,256L79,249L79,251L74,249L72,249L71,252L68,250L67,249Z " data-iso="TKM"/><path d="M8,227L8,227L10,227L13,232L16,235L16,235L16,235L22,223L25,224L25,224L25,224L25,224L25,224L25,221L23,220L26,214L26,214L26,214L23,207L22,206L21,206L15,202L15,200L9,190L8,186L7,185L6,181L3,175L0,173L0,220L2,221L8,226L8,227Z " data-iso="TUR"/><path d="M45,135L45,135L40,132L36,122L30,111L30,111L30,111L25,115L25,115L17,115L17,114L16,114L16,114L15,114L15,114L13,114L13,114L13,115L12,116L12,116L11,118L11,118L11,118L13,123L13,126L18,131L18,131L19,131L21,134L21,140L17,147L8,145L8,145L8,146L8,146L9,148L10,151L10,151L18,151L19,153L21,160L16,160L14,168L19,171L22,172L23,175L25,173L22,170L23,168L27,166L36,173L36,173L38,171L45,174L47,170L51,169L49,162L48,162L46,146L50,140L45,135L45,135Z " data-iso="UKR"/><path d="M625,21L620,19L620,17L623,16L625,21Z M186,-214L189,-216L194,-217L186,-214Z M295,-175L291,-178L288,-179L281,-183L278,-182L267,-183L257,-189L246,-197L240,-199L240,-211L244,-214L228,-212L222,-210L221,-206L211,-205L202,-198L194,-197L181,-190L178,-182L173,-182L169,-188L170,-195L172,-195L179,-204L180,-207L173,-208L177,-209L181,-211L188,-213L194,-217L193,-218L195,-223L201,-230L205,-228L206,-234L200,-238L205,-239L204,-241L207,-241L203,-243L208,-245L219,-251L225,-254L228,-255L234,-262L232,-268L226,-273L244,-274L243,-269L249,-266L261,-266L268,-262L273,-262L277,-262L278,-261L295,-260L291,-262L286,-265L287,-266L292,-264L300,-263L304,-260L308,-260L323,-257L326,-256L328,-258L345,-258L345,-259L352,-259L361,-256L360,-254L367,-242L375,-239L381,-240L385,-236L387,-230L392,-221L401,-217L419,-208L435,-191L440,-187L446,-183L445,-179L450,-170L454,-165L452,-159L452,-155L449,-149L448,-142L445,-136L434,-129L420,-123L417,-122L412,-114L406,-121L408,-124L403,-118L394,-126L381,-136L370,-143L356,-152L344,-158L329,-165L316,-169L300,-174L296,-173L295,-175Z M449,40L451,45L448,42L449,40Z M446,35L448,36L449,39L446,35Z M439,24L441,24L440,28L439,24Z M396,-77L398,-77L396,-75L396,-77Z M397,-68L399,-75L401,-76L400,-70L397,-68Z M395,-62L398,-64L397,-61L395,-62Z M417,-10L420,-11L424,-6L420,-6L417,-10Z M392,-58L392,-61L394,-62L395,-60L395,-56L392,-58Z M409,29L412,31L411,33L409,29Z M391,41L393,34L394,37L392,41L391,41Z M346,7L344,2L346,-1L345,-4L344,-10L342,-22L370,-33L390,-40L389,-45L392,-52L389,-54L385,-55L390,-68L392,-73L391,-78L397,-80L398,-74L394,-74L392,-69L393,-66L391,-66L388,-62L388,-58L390,-60L392,-57L389,-55L391,-54L392,-57L393,-50L392,-40L395,-34L393,-25L396,-20L399,-21L408,-14L406,-11L400,-12L397,-14L397,-18L396,-13L399,-11L405,-9L409,-6L413,-7L417,-5L422,0L425,2L430,7L430,7L434,11L433,12L435,17L438,19L436,20L433,14L431,13L427,9L414,3L416,7L418,9L416,10L417,15L418,17L415,17L410,18L411,20L409,26L406,25L405,27L400,27L395,25L391,16L388,14L382,15L386,20L386,25L379,31L374,23L376,22L376,17L375,16L370,17L370,21L365,25L361,26L358,21L350,14L348,14L345,9L346,7Z " data-iso="USA"/><path d="M122,289L121,288L121,288L122,289Z M67,249L68,250L71,252L72,249L74,249L79,251L79,249L83,256L82,259L86,263L88,267L87,272L97,293L97,293L99,294L101,296L101,296L102,297L102,297L102,297L106,290L105,285L114,284L115,282L121,282L121,287L121,287L122,287L125,288L131,287L127,282L122,280L126,277L125,276L125,276L125,276L116,278L113,279L107,274L107,269L106,268L108,264L105,258L103,257L99,255L95,253L93,247L88,235L78,232L68,248L67,249Z " data-iso="UZB"/></g><g fill="red" fill-opacity="0.35" id="regions"><path d="M188,57L188,57L188,57L188,57L188,57L188,57L188,57L188,57L188,57Z " data-fips="SV00" data-fips-="RS49" data-iso3="RUS" data-name="Murmansk" data-p="MUR"/><path d="M199,190L194,190L186,187L186,186L181,185L178,190L172,194L172,195L172,195L171,195L171,195L172,196L170,197L171,200L172,203L172,203L174,204L181,208L183,211L185,212L189,213L191,213L191,217L192,218L195,217L195,217L195,217L199,216L201,215L208,215L209,215L209,214L209,213L210,208L208,207L208,205L210,201L209,201L207,197L200,195L201,193L200,190L200,190L199,190Z " data-fips="RS75" data-fips-="" data-iso3="RUS" data-name="Tomsk" data-p="TOM"/><path d="M32,186L28,190L27,193L31,189L32,191L33,187L32,186Z " data-fips="RS01" data-fips-="" data-iso3="RUS" data-name="Adygey" data-p="AD"/><path d="M34,194L34,194L32,196L31,195L28,195L28,195L29,198L29,199L31,201L31,201L33,200L33,201L34,200L34,200L34,200L34,198L35,197L34,195L34,194Z " data-fips="RS32" data-fips-="RS27" data-iso3="RUS" data-name="Karachay-Cherkess" data-p="KC"/><path d="M36,211L36,211L37,212L37,212L38,211L39,209L39,208L39,208L39,208L38,207L38,210L36,211L36,211Z " data-fips="RS19" data-fips-="" data-iso3="RUS" data-name="Ingush" data-p="IN"/><path d="M34,200L34,200L33,201L33,200L31,201L31,202L31,203L32,203L32,205L33,206L36,207L36,206L38,205L39,205L39,205L40,205L34,200L34,200Z " data-fips="RS22" data-fips-="" data-iso3="RUS" data-name="Kabardin-Balkar" data-p="KB"/><path d="M39,205L38,205L36,206L36,207L33,206L33,207L34,210L35,211L36,211L38,210L38,207L39,208L39,208L40,207L40,207L40,207L39,205L39,205Z " data-fips="RS68" data-fips-="" data-iso3="RUS" data-name="North Ossetia" data-p="SE"/><path d="M47,204L45,198L45,195L44,191L41,189L40,188L40,188L39,187L39,187L39,187L38,187L36,187L36,192L34,194L34,194L34,195L35,197L34,198L34,200L34,200L34,200L40,205L39,205L39,205L39,205L40,207L40,207L40,207L40,208L40,207L42,207L43,208L43,208L43,207L44,205L47,204L47,204L47,204Z " data-fips="RS70" data-fips-="" data-iso3="RUS" data-name="Stavropol'" data-p="STA"/><path d="M359,53L364,49L366,47L373,46L373,44L370,45L372,39L376,36L380,38L380,41L383,42L385,43L383,50L378,56L375,56L374,58L378,57L380,60L358,54L359,53Z M348,72L349,73L346,75L348,72Z M394,80L391,79L388,89L386,88L382,91L378,87L373,90L370,93L370,94L368,98L368,98L368,98L360,102L358,103L354,102L354,102L354,102L352,99L349,100L346,95L349,88L342,84L343,84L344,81L349,75L353,74L353,70L351,70L348,67L350,65L353,59L355,56L358,54L380,60L381,64L379,69L381,70L381,67L387,66L387,66L392,65L395,67L391,72L394,79L394,80Z M345,52L347,51L347,53L345,52Z M344,47L347,47L347,50L344,50L344,47Z " data-fips="RS15" data-fips-="" data-iso3="RUS" data-name="Chukchi Autonomous Okrug" data-p="CHU"/><path d="M46,95L46,93L44,91L41,91L43,101L47,98L46,95Z " data-fips="RS23" data-fips-="" data-iso3="RUS" data-name="Kaliningrad" data-p="KGD"/><path d="M188,57L188,57L188,57L188,57L188,57L188,57L188,57L188,57Z " data-fips="SV00" data-fips-="RS49" data-iso3="RUS" data-name="Murmansk" data-p="MUR"/><path d="M117,93L117,93L117,93L117,93L117,94L117,93L117,93L117,93Z M113,85L115,91L115,92L117,92L117,92L119,89L119,97L120,103L123,106L125,107L128,107L132,103L132,99L133,90L131,86L130,85L132,84L132,81L126,78L122,78L119,84L115,84L114,85L113,85Z " data-fips="RS28" data-fips-="RS49" data-iso3="RUS" data-name="Murmansk" data-p="MUR"/><path d="M83,120L80,115L80,111L73,110L73,110L73,110L70,113L69,114L67,117L67,117L67,118L72,121L73,122L78,122L82,126L83,126L83,126L83,124L82,122L83,120L83,120L83,120Z " data-fips="RS52" data-fips-="" data-iso3="RUS" data-name="Novgorod" data-p="NGR"/><path d="M73,103L67,106L65,106L59,112L60,121L60,121L61,121L62,121L62,123L62,123L62,122L65,119L66,119L67,117L67,117L67,117L69,114L70,113L73,110L73,110L73,110L73,104L73,104L73,103L73,103Z " data-fips="RS60" data-fips-="" data-iso3="RUS" data-name="Pskov" data-p="PSK"/><path d="M86,100L81,99L83,100L81,101L81,103L81,104L81,108L81,108L80,105L80,104L80,103L77,101L73,103L73,103L73,104L73,104L73,110L73,110L73,110L80,111L80,115L83,120L83,120L83,120L88,119L88,118L93,116L93,116L93,114L92,111L89,111L86,101L86,100L86,100Z M93,116L94,115L94,115L93,114L93,116Z " data-fips="RS42" data-fips-="" data-iso3="RUS" data-name="Leningrad" data-p="LEN"/><path d="M81,104L81,105L80,105L80,105L81,108L81,108L81,104L81,104Z " data-fips="RS52" data-fips-="RS66" data-iso3="RUS" data-name="City of St. Petersburg" data-p="SPE"/><path d="M57,134L57,134L56,134L55,134L53,134L53,134L49,131L46,135L46,137L49,139L50,141L49,144L49,144L50,143L51,144L52,144L52,144L52,144L54,142L57,141L57,141L57,141L58,136L57,136L57,134L57,134Z " data-fips="RS10" data-fips-="" data-iso3="RUS" data-name="Bryansk" data-p="BRY"/><path d="M62,123L62,123L62,121L61,121L60,121L60,122L56,124L55,126L53,134L53,134L55,134L56,134L57,134L57,134L57,134L61,134L61,135L66,135L66,135L66,135L68,134L68,133L69,132L69,132L69,132L67,128L64,127L62,123L62,123Z " data-fips="RS69" data-fips-="" data-iso3="RUS" data-name="Smolensk" data-p="SMO"/><path d="M113,85L110,89L106,90L103,94L99,95L98,99L96,101L86,100L86,100L86,101L89,111L92,111L93,114L93,114L93,114L94,115L95,114L95,112L97,109L99,108L98,111L99,112L100,111L100,108L101,107L101,111L100,112L98,112L96,116L96,116L97,116L98,117L98,118L99,119L99,119L101,118L103,115L104,111L109,108L109,108L113,99L115,99L117,93L117,93L117,93L117,93L117,92L117,92L115,92L115,91L113,85L113,85Z " data-fips="RS28" data-fips-="" data-iso3="RUS" data-name="Karelia" data-p="KR"/><path d="M97,121L97,121L97,121L97,121Z M130,114L130,114L128,110L125,110L120,109L117,114L115,106L114,105L111,111L109,110L109,108L109,108L104,111L103,115L101,118L99,119L99,119L99,119L97,124L100,129L101,129L106,134L110,138L112,141L112,141L112,141L113,140L114,141L114,143L114,144L115,143L119,142L119,141L124,138L123,136L120,137L118,135L122,130L123,125L125,126L129,130L132,131L133,130L134,126L136,123L135,121L133,122L132,121L130,114Z M173,100L168,100L166,102L163,102L164,106L163,111L166,114L167,114L167,112L170,104L172,103L173,100Z M201,93L195,94L191,92L188,92L177,96L174,96L172,99L177,101L179,98L182,99L183,97L188,97L199,97L201,93Z M198,64L195,64L199,66L198,64Z M210,71L208,71L210,73L210,71Z " data-fips="RS06" data-fips-="" data-iso3="RUS" data-name="Arkhangel'sk" data-p="ARK"/><path d="M91,147L91,144L89,142L84,141L84,141L84,140L83,139L82,139L80,140L80,140L80,140L81,141L80,142L85,149L85,149L85,149L87,148L90,149L91,148L91,147L91,147Z " data-fips="RS21" data-fips-="" data-iso3="RUS" data-name="Ivanovo" data-p="IVA"/><path d="M100,142L100,142L100,142L100,142Z M91,137L91,137L90,138L89,138L84,140L84,141L84,141L89,142L91,144L91,147L91,147L92,148L95,148L99,151L99,151L99,151L101,150L105,150L106,147L107,146L107,146L101,144L99,140L96,137L97,136L93,136L91,137L91,137Z " data-fips="RS37" data-fips-="" data-iso3="RUS" data-name="Kostroma" data-p="KOS"/><path d="M99,151L95,148L92,148L91,147L91,148L90,149L87,148L85,149L85,149L85,149L83,151L83,151L78,152L78,152L78,152L78,153L78,153L78,155L78,155L78,155L81,161L86,161L86,163L86,163L87,163L89,161L89,160L91,159L91,159L91,159L91,157L94,155L95,156L96,156L96,156L99,156L101,155L99,151L99,151L99,151Z " data-fips="RS51" data-fips-="" data-iso3="RUS" data-name="Nizhegorod" data-p="NIZ"/><path d="M85,129L85,126L85,126L83,126L83,126L82,126L78,122L73,122L72,121L67,118L67,117L67,117L66,119L65,119L62,122L62,123L62,123L64,127L67,128L69,132L69,132L69,132L72,132L76,134L78,136L78,137L78,137L81,135L85,129L85,129L85,129Z " data-fips="RS77" data-fips-="" data-iso3="RUS" data-name="Tver'" data-p="TVE"/><path d="M98,118L98,117L97,116L96,116L94,115L94,115L88,118L88,119L83,120L83,120L83,120L82,122L83,124L83,126L83,126L83,126L85,126L85,126L85,129L85,129L85,129L88,131L89,131L89,135L91,137L91,137L91,137L93,136L97,136L96,137L99,140L101,144L107,146L107,146L107,146L108,144L108,142L112,141L112,141L112,141L110,138L106,134L101,129L100,129L97,124L99,119L99,119L98,118Z M97,121L97,121L97,121L97,121Z M100,142L100,142L100,142L100,142Z " data-fips="RS85" data-fips-="" data-iso3="RUS" data-name="Vologda" data-p="VLG"/><path d="M91,137L89,135L89,131L88,131L85,129L85,129L85,129L81,135L78,137L78,137L78,137L78,137L78,137L78,137L78,138L78,138L78,139L78,140L80,140L80,140L80,140L82,139L83,139L84,140L84,141L84,140L89,138L90,138L91,137L91,137L91,137Z " data-fips="RS88" data-fips-="" data-iso3="RUS" data-name="Yaroslavl'" data-p="YAR"/><path d="M68,141L67,137L66,135L66,135L66,135L61,135L61,134L57,134L57,134L57,134L57,136L58,136L57,141L57,141L57,141L57,142L59,142L60,142L60,142L60,142L62,140L65,142L68,141L68,141L68,141Z " data-fips="RS25" data-fips-="" data-iso3="RUS" data-name="Kaluga" data-p="KLU"/><path d="M52,144L52,144L51,144L50,143L49,144L49,144L47,144L46,146L47,150L47,150L49,151L50,153L54,157L54,157L54,157L55,156L56,156L57,155L57,155L57,155L56,154L56,154L56,153L56,153L56,153L55,148L52,144L52,144Z " data-fips="RS41" data-fips-="" data-iso3="RUS" data-name="Kursk" data-p="KRS"/><path d="M67,155L67,153L65,151L65,150L65,150L62,152L61,150L61,150L61,150L60,150L58,153L56,153L56,153L56,153L56,154L56,154L57,155L57,155L57,155L58,155L61,161L62,161L62,161L63,159L63,157L67,155L67,155L67,155Z " data-fips="RS43" data-fips-="" data-iso3="RUS" data-name="Lipetsk" data-p="LIP"/><path d="M78,136L76,134L72,132L69,132L69,132L69,132L68,133L68,134L66,135L66,135L66,135L67,137L68,141L68,141L68,142L68,143L69,145L68,147L68,147L68,147L69,147L70,147L75,147L75,147L75,147L76,146L75,141L78,138L78,138L78,137L78,137L78,137L78,137L78,137L78,136Z M72,140L73,138L73,139L72,140Z " data-fips="" data-fips-="" data-iso3="RUS" data-name="Moskovsskaya" data-p="MOS"/><path d="M72,140L73,139L73,138L72,140Z " data-fips="RS47" data-fips-="RS48" data-iso3="RUS" data-name="Moskva" data-p="MOW"/><path d="M60,142L59,142L57,142L57,141L57,141L57,141L54,142L52,144L52,144L52,144L55,148L56,153L56,153L56,153L58,153L60,150L61,150L61,150L60,146L60,145L60,142L60,142L60,142Z " data-fips="RS56" data-fips-="" data-iso3="RUS" data-name="Orel" dataa-p="ORL"/><path d="M56,170L56,170L54,171L53,171L51,169L51,169L44,174L40,172L36,173L38,177L36,175L36,175L35,177L38,178L39,180L39,187L39,187L39,187L39,187L40,188L40,188L40,188L44,187L45,192L53,190L51,188L51,188L51,188L49,185L54,177L54,176L56,171L56,170Z " data-fips="RS61" data-fips-="" data-iso3="RUS" data-name="Rostov" data-p="ROS"/><path d="M68,147L69,145L68,143L68,142L68,141L68,141L65,142L62,140L60,142L60,142L60,142L60,145L60,146L61,150L61,150L61,150L61,150L62,152L65,150L65,150L65,150L66,149L67,148L68,148L68,147L68,147Z " data-fips="RS76" data-fips-="" data-iso3="RUS" data-name="Tula" data-p="TUL"/><path d="M64,170L64,170L60,168L58,168L57,170L56,170L56,171L54,176L54,177L49,185L51,188L51,188L51,188L54,188L56,187L57,189L58,190L58,190L60,189L63,191L64,190L66,190L66,189L72,186L72,186L69,182L69,178L67,174L64,171L64,170Z " data-fips="RS84" data-fips-="" data-iso3="RUS" data-name="Volgograd" data-p="VGG"/><path d="M47,150L46,155L49,158L48,162L50,165L50,165L52,163L54,160L54,157L54,157L54,157L50,153L49,151L47,150L47,150Z " data-fips="RS09" data-fips-="" data-iso3="RUS" data-name="Belgorod" data-p="BEL"/><path d="M36,175L33,174L32,177L26,176L25,178L26,186L25,193L28,195L28,195L31,195L32,196L34,194L34,194L34,194L36,192L36,187L38,187L39,187L39,187L39,180L38,178L35,177L36,175L36,175Z M32,186L33,187L32,191L31,189L27,193L28,190L32,186Z " data-fips="RS38" data-fips-="RS01" data-iso3="RUS" data-name="Krasnodar" data-p="KDA"/><path d="M86,163L86,161L81,161L78,155L78,155L78,155L75,157L74,158L73,158L73,159L74,160L77,162L82,166L82,166L82,166L85,167L86,166L86,165L86,165L86,165L87,163L86,163L86,163L86,163L86,163Z M78,155L78,155L78,155L78,155Z " data-fips="RS46" data-fips-="" data-iso3="RUS" data-name="Mordovia" data-p="MO"/><path d="M82,166L77,162L74,160L73,159L73,158L73,158L73,158L73,158L71,162L71,163L69,166L69,166L69,166L72,170L76,174L78,173L79,175L79,175L79,175L82,172L82,170L82,167L82,166L82,166Z " data-fips="RS57" data-fips-="" data-iso3="RUS" data-name="Penza" data-p="PNZ"/><path d="M78,155L78,155L78,155L78,155Z M75,147L75,147L70,147L69,147L68,147L68,147L68,148L67,148L66,149L65,150L65,150L65,151L67,153L67,155L67,155L67,155L70,157L71,156L73,158L73,158L73,158L73,158L74,158L75,157L78,155L78,155L78,155L78,153L78,153L78,152L78,152L78,152L77,150L75,147L75,147Z " data-fips="RS62" data-fips-="" data-iso3="RUS" data-name="Ryazan'" data-p="RYA"/><path d="M73,158L71,156L70,157L67,155L67,155L67,155L63,157L63,159L62,161L62,161L62,162L62,164L65,168L65,168L65,168L69,166L69,166L69,166L69,166L71,163L71,162L73,158L73,158L73,158Z " data-fips="RS72" data-fips-="" data-iso3="RUS" data-name="Tambov" data-p="TAM"/><path d="M85,149L80,142L81,141L80,140L80,140L80,140L78,140L78,139L78,138L78,138L78,138L75,141L76,146L75,147L75,147L75,147L77,150L78,152L78,152L78,152L83,151L83,151L85,149L85,149L85,149Z " data-fips="RS83" data-fips-="" data-iso3="RUS" data-name="Vladimir" data-p="VLA"/><path d="M57,155L57,155L56,156L55,156L54,157L54,157L54,157L54,160L52,163L50,165L50,165L50,167L50,168L51,169L51,169L53,171L54,171L56,170L56,170L57,170L58,168L60,168L64,170L64,170L64,170L65,170L65,169L65,168L65,168L65,168L62,164L62,162L62,161L61,161L58,155L57,155L57,155Z " data-fips="RS86" data-fips-="" data-iso3="RUS" data-name="Voronezh" data-p="VOR"/><path d="M118,181L115,178L115,178L111,175L111,175L111,175L110,175L109,176L107,175L107,176L107,176L108,178L103,178L104,180L100,184L100,184L100,184L100,186L101,190L100,196L103,197L102,199L102,203L107,205L110,202L110,202L110,202L113,197L116,195L118,195L119,192L117,192L113,189L113,188L114,186L117,188L116,189L121,188L122,185L122,185L122,185L121,184L118,182L118,181L118,181L118,181Z " data-fips="RS08" data-fips-="" data-iso3="RUS" data-name="Bashkortostan" data-p="BA"/><path d="M122,185L122,185L121,188L116,189L117,188L114,186L113,188L113,189L117,192L119,192L118,195L116,195L113,197L110,202L110,202L110,202L113,205L113,206L112,207L112,207L116,207L116,204L118,204L121,206L119,200L121,199L127,202L128,202L128,199L125,197L127,194L129,194L130,190L130,190L129,190L128,188L127,188L122,185L122,185Z " data-fips="RS13" data-fips-="" data-iso3="RUS" data-name="Chelyabinsk" data-p="CHE"/><path d="M130,190L130,190L129,194L127,194L125,197L128,199L128,202L128,202L133,204L136,204L143,205L146,204L146,204L142,198L141,198L139,192L139,192L139,191L135,191L131,189L130,190L130,190Z " data-fips="RS40" data-fips-="" data-iso3="RUS" data-name="Kurgan" data-p="KGN"/><path d="M151,112L148,109L147,111L151,112Z M130,114L132,121L133,122L135,121L136,123L143,124L145,123L148,126L162,136L173,134L173,134L173,134L173,132L174,132L174,129L174,129L169,122L167,122L166,126L162,126L163,124L159,124L156,121L154,122L152,120L155,118L152,117L151,118L143,116L142,115L137,117L135,115L135,111L140,112L141,109L141,107L138,107L130,114L130,114Z M168,118L167,118L168,122L168,118Z " data-fips="RS50" data-fips-="" data-iso3="RUS" data-name="Nenets" data-p="NEN"/><path d="M205,123L207,126L204,129L206,131L204,135L201,137L202,140L206,143L207,146L206,147L206,147L206,147L204,149L204,155L205,156L204,162L206,163L205,167L208,170L208,172L206,174L206,176L202,182L202,182L202,182L198,178L195,177L193,175L191,177L186,176L185,173L176,169L176,167L172,167L173,165L171,159L165,158L163,153L157,152L156,149L158,144L158,143L158,143L168,141L171,139L173,134L173,134L173,134L173,132L174,132L174,129L174,129L177,133L177,138L178,137L181,131L178,130L182,125L182,123L183,121L186,120L192,114L196,118L194,121L192,123L192,127L188,136L188,140L186,144L178,149L177,146L175,146L180,151L183,150L189,146L189,142L194,140L195,143L194,147L195,148L196,144L195,140L191,138L191,134L194,128L194,125L199,122L198,127L203,131L199,126L200,125L205,123L205,123Z M195,113L196,115L193,114L194,113L195,113Z " data-fips="RS87" data-fips-="" data-iso3="RUS" data-name="Yamal-Nenets" data-p="YAN"/><path d="M173,134L162,136L148,126L145,123L143,124L136,123L134,126L133,130L132,131L129,130L125,126L123,125L122,130L118,135L120,137L123,136L124,138L119,141L119,142L115,143L114,144L114,144L110,149L111,150L111,153L113,151L117,153L120,153L120,154L120,153L120,151L121,150L126,153L128,156L128,155L129,155L132,156L134,155L140,159L140,159L140,159L140,158L140,158L141,158L141,157L141,157L143,155L145,151L151,144L154,145L158,143L158,143L158,143L168,141L171,139L173,134L173,134L173,134Z " data-fips="RS34" data-fips-="" data-iso3="RUS" data-name="Komi" data-p="KO"/><path d="M114,143L114,141L113,140L112,141L112,141L112,141L108,142L108,144L107,146L107,146L106,147L105,150L101,150L99,151L99,151L99,151L101,155L99,156L96,156L96,156L96,156L96,158L99,159L102,163L102,165L102,165L102,165L102,167L103,170L103,170L103,170L112,161L115,162L116,164L117,164L117,164L117,163L117,163L118,163L118,163L119,159L122,157L120,154L120,154L120,153L117,153L113,151L111,153L111,150L110,149L114,144L114,144L114,143Z " data-fips="RS33" data-fips-="" data-iso3="RUS" data-name="Kirov" data-p="KIR"/><path d="M102,165L102,163L99,159L96,158L96,156L96,156L95,156L94,155L91,157L91,159L91,159L91,159L94,160L94,160L95,165L95,165L95,165L98,164L99,164L102,165L102,165L102,165Z " data-fips="RS45" data-fips-="" data-iso3="RUS" data-name="Mariy-El" data-p="ME"/><path d="M147,183L146,179L144,176L146,167L144,161L141,158L141,157L141,158L140,158L140,158L140,159L140,159L140,159L136,164L132,167L130,174L123,177L122,179L118,181L118,181L118,181L118,182L121,184L122,185L122,185L122,185L127,188L128,188L129,190L130,190L130,190L131,189L135,191L139,191L139,192L140,192L141,188L145,187L147,184L147,184L147,183Z " data-fips="RS71" data-fips-="" data-iso3="RUS" data-name="Sverdlovsk" data-p="SVE"/><path d="M116,164L115,162L112,161L103,170L103,170L103,170L103,172L107,172L107,176L107,176L107,175L109,176L110,175L111,175L111,175L111,175L111,172L114,171L116,165L117,164L116,164Z " data-fips="RS80" data-fips-="" data-iso3="RUS" data-name="Udmurt" data-p="UD"/><path d="M58,190L58,190L58,200L54,201L53,205L54,207L54,207L57,208L60,208L62,209L61,205L63,206L64,199L62,197L62,192L63,191L60,189L58,190L58,190Z " data-fips="RS07" data-fips-="" data-iso3="RUS" data-name="Astrakhan'" data-p="AST"/><path d="M95,165L94,160L94,160L91,159L91,159L91,159L89,160L89,161L87,163L86,163L86,163L86,163L87,163L86,165L86,165L86,165L87,166L88,167L88,167L88,167L91,166L95,165L95,165L95,165Z " data-fips="RS16" data-fips-="" data-iso3="RUS" data-name="Chuvash" data-p="CU"/><path d="M57,189L56,187L54,188L51,188L51,188L51,188L53,190L45,192L44,187L40,188L40,188L41,189L44,191L45,195L45,198L47,204L47,204L47,205L49,207L49,208L49,209L50,209L51,209L54,207L54,207L53,205L54,201L58,200L58,190L58,190L57,189Z " data-fips="RS24" data-fips-="" data-iso3="RUS" data-name="Kalmyk" data-p="KL"/><path d="M99,180L99,180L98,182L95,184L86,188L85,188L86,188L89,193L92,195L91,202L94,202L95,205L99,204L101,207L104,207L104,210L106,213L109,212L109,214L113,215L114,212L112,209L112,207L112,207L113,206L113,205L110,202L110,202L110,202L107,205L102,203L102,199L103,197L100,196L101,190L100,186L100,184L100,184L100,184L100,182L100,182L99,180L99,180Z " data-fips="RS55" data-fips-="" data-iso3="RUS" data-name="Orenburg" data-p="ORE"/><path d="M94,174L94,174L92,177L90,176L87,174L84,174L84,178L83,178L83,178L84,182L85,185L85,188L85,188L86,188L95,184L98,182L99,180L99,180L99,180L96,176L95,177L94,174L94,174Z " data-fips="RS65" data-fips-="" data-iso3="RUS" data-name="Samara" data-p="SAM"/><path d="M79,175L79,175L78,173L76,174L72,170L69,166L69,166L69,166L69,166L65,168L65,168L65,168L65,169L65,170L64,170L64,170L64,171L67,174L69,178L69,182L72,186L72,186L72,191L76,188L81,188L85,188L85,188L85,188L85,185L84,182L83,178L83,178L83,178L81,177L80,176L79,175L79,175Z " data-fips="RS67" data-fips-="" data-iso3="RUS" data-name="Saratov" data-p="SAR"/><path d="M103,170L102,167L102,165L102,165L102,165L99,164L98,164L95,165L95,165L95,165L91,166L88,167L88,167L88,167L90,169L93,171L94,174L94,174L94,174L95,177L96,176L99,180L99,180L99,180L100,182L100,182L100,184L100,184L100,184L104,180L103,178L108,178L107,176L107,176L107,176L107,172L103,172L103,170L103,170L103,170Z M91,168L91,168L91,168L91,168Z " data-fips="RS73" data-fips-="" data-iso3="RUS" data-name="Tatarstan" data-p="TA"/><path d="M88,167L88,167L87,166L86,165L86,165L86,165L86,166L85,167L82,166L82,166L82,167L82,170L82,172L79,175L79,175L79,175L80,176L81,177L83,178L83,178L84,178L84,174L87,174L90,176L92,177L94,174L94,174L94,174L93,171L90,169L88,167L88,167Z M91,168L91,168L91,168L91,168Z " data-fips="RS81" data-fips-="" data-iso3="RUS" data-name="Ul'yanovsk" data-p="ULY"/><path d="M202,182L198,178L195,177L193,175L191,177L186,176L185,173L176,169L176,167L172,167L173,165L171,159L165,158L163,153L157,152L156,149L158,144L158,143L158,143L154,145L151,144L145,151L143,155L141,157L141,157L141,158L144,161L146,167L144,176L146,179L147,183L147,184L147,184L149,184L153,183L158,182L159,181L164,184L166,190L171,194L172,195L172,194L178,190L181,185L186,186L186,187L194,190L199,190L200,190L201,189L204,186L204,186L202,183L202,182L202,182Z " data-fips="RS32" data-fips-="" data-iso3="RUS" data-name="Khanty-Mansiy" data-p="KHM"/><path d="M153,204L153,204L153,204L153,204Z M154,204L154,203L154,203L154,204Z M171,195L171,195L168,196L162,194L160,191L157,193L157,198L158,200L154,204L153,204L151,207L151,207L152,211L151,214L158,218L158,220L159,221L164,220L165,220L166,217L165,213L166,210L170,207L171,206L172,203L172,203L172,203L171,200L170,197L172,196L171,195Z " data-fips="RS54" data-fips-="" data-iso3="RUS" data-name="Omsk" data-p="OMS"/><path d="M147,184L147,184L145,187L141,188L140,192L139,192L139,192L141,198L142,198L146,204L146,204L149,206L150,207L151,207L151,207L153,204L154,204L158,200L157,198L157,193L160,191L162,194L168,196L171,195L171,195L171,195L172,195L172,195L171,194L166,190L164,184L159,181L158,182L153,183L149,184L147,184L147,184Z M153,204L153,204L153,204L153,204Z " data-fips="RS78" data-fips-="" data-iso3="RUS" data-name="Tyumen'" data-p="TYU"/><path d="M195,226L194,226L189,227L186,229L182,225L179,224L176,226L171,225L170,226L170,226L173,242L175,240L178,241L178,244L186,244L187,246L188,246L189,243L194,242L197,240L200,237L200,237L200,237L200,235L199,234L195,226L195,226Z " data-fips="RS04" data-fips-="RS29" data-iso3="RUS" data-name="Altay" data-p="ALT"/><path d="M188,247L188,249L190,251L196,253L197,256L198,257L202,256L204,256L207,254L207,254L208,250L205,245L205,244L205,244L202,244L203,243L204,241L204,241L204,240L204,239L203,239L200,238L200,237L200,237L197,240L194,242L189,243L188,246L188,247Z " data-fips="RS03" data-fips-="" data-iso3="RUS" data-name="Gorno-Altay" data-p="AL"/><path d="M209,215L208,215L201,215L199,216L195,217L195,217L195,217L195,220L195,220L195,225L195,226L195,226L199,234L200,235L200,237L200,237L200,238L203,239L204,239L204,240L204,241L204,241L208,237L207,234L208,232L209,229L207,227L207,222L207,222L210,220L208,216L209,215L209,215Z " data-fips="RS29" data-fips-="" data-iso3="RUS" data-name="Kemerovo" data-p="KEM"/><path d="M207,222L207,227L209,229L208,232L207,234L208,237L204,241L204,241L204,241L203,243L202,244L205,244L205,244L206,244L210,244L210,242L211,241L211,241L211,241L211,241L215,238L216,232L214,227L212,225L209,225L207,222L207,222Z " data-fips="RS31" data-fips-="" data-iso3="RUS" data-name="Khakass" data-p="KK"/><path d="M172,203L172,203L171,206L170,207L166,210L165,213L166,217L165,220L166,219L168,220L167,220L170,225L170,226L171,225L176,226L179,224L182,225L186,229L189,227L194,226L195,226L195,225L195,220L195,220L195,217L195,217L195,217L192,218L191,217L191,213L189,213L185,212L183,211L181,208L174,204L172,203Z " data-fips="RS53" data-fips-="" data-iso3="RUS" data-name="Novosibirsk" data-p="NVS"/><path d="M43,208L43,208L42,207L40,207L40,208L40,207L39,208L39,208L39,209L38,211L37,212L37,212L37,214L37,214L38,215L38,215L39,215L45,211L43,208L43,208Z " data-fips="RS12" data-fips-="" data-iso3="RUS" data-name="Chechnya" data-p="CE"/><path d="M47,204L47,204L44,205L43,207L43,208L43,208L45,211L39,215L38,215L38,215L38,225L41,227L44,226L46,217L48,214L49,209L49,209L49,208L49,207L47,205L47,204Z " data-fips="RS17" data-fips-="" data-iso3="RUS" data-name="Dagestan" data-p="DA"/><path d="M254,143L253,145L247,145L243,144L236,144L230,149L227,150L223,155L223,155L223,155L222,158L217,161L216,166L217,168L217,170L222,173L223,176L220,183L217,185L218,188L222,193L222,191L227,192L228,192L231,194L230,198L230,200L233,202L236,200L238,200L242,198L247,200L251,201L251,203L251,203L251,203L257,206L259,203L258,198L259,196L256,194L256,192L260,185L261,182L259,180L263,173L262,173L262,173L257,170L256,160L256,159L257,155L256,147L254,143L254,143L254,143Z " data-fips="RS18" data-fips-="" data-iso3="RUS" data-name="Evenk" data-p=""/><path d="M300,198L296,192L293,193L289,189L286,189L282,196L282,198L280,200L278,197L276,199L271,197L272,189L270,188L267,182L267,179L266,177L264,176L264,173L262,173L262,173L263,173L259,180L261,182L260,185L256,192L256,194L259,196L258,198L259,203L257,206L251,203L251,203L251,203L251,206L248,208L246,212L245,211L240,212L238,211L237,216L236,220L233,228L230,231L233,235L233,235L233,235L238,236L240,238L241,238L242,239L242,238L245,236L250,241L253,242L256,244L257,246L259,248L272,235L274,227L273,223L273,218L271,217L275,212L280,211L287,212L290,211L290,208L292,208L292,208L292,209L297,207L297,205L295,203L295,200L300,199L300,199L300,198Z M254,232L256,233L259,232L260,234L265,235L261,241L260,237L256,238L255,236L253,235L252,233L254,232Z " data-fips="RS20" data-fips-="" data-iso3="RUS" data-name="Irkutsk" data-p="IRK"/><path d="M206,147L206,147L204,149L204,155L205,156L204,162L206,163L205,167L208,170L208,172L206,174L206,176L202,182L202,182L202,183L204,186L204,186L201,189L200,190L200,190L201,193L200,195L207,197L209,201L210,201L208,205L208,207L210,208L209,213L209,214L209,215L209,215L208,216L210,220L207,222L207,222L209,225L212,225L214,227L216,232L215,238L211,241L211,241L211,241L211,241L213,243L217,244L220,244L223,242L227,236L232,235L233,235L233,235L233,235L230,231L233,228L236,220L237,216L238,211L240,212L245,211L246,212L248,208L251,206L251,203L251,203L251,203L251,201L247,200L242,198L238,200L236,200L233,202L230,200L230,198L231,194L228,192L227,192L222,191L222,193L218,188L217,185L220,183L223,176L222,173L217,170L217,168L216,166L217,161L222,158L223,155L223,155L223,155L217,155L214,153L213,150L210,153L209,154L206,148L206,147Z " data-fips="RS39" data-fips-="" data-iso3="RUS" data-name="Krasnoyarsk" data-p=""/><path d="M259,118L259,118L258,118L258,118L257,117L258,118L259,118L259,118Z M258,119L258,122L264,133L261,135L260,139L254,143L254,143L254,143L253,145L247,145L243,144L236,144L230,149L227,150L223,155L223,155L223,155L217,155L214,153L213,150L210,153L209,154L206,148L206,147L206,147L207,146L206,143L202,140L201,137L204,135L206,131L204,129L207,126L205,123L205,123L206,123L209,128L211,128L209,131L209,136L211,136L211,131L212,130L211,126L208,123L210,118L221,119L219,116L220,113L221,114L225,110L231,108L235,107L234,108L237,108L240,105L242,105L245,98L250,101L249,103L255,102L256,104L260,106L258,106L260,110L258,113L251,123L256,121L258,119L258,119Z M243,89L246,93L245,95L239,97L242,89L243,89Z M231,84L233,86L233,87L231,84Z M237,85L237,87L240,86L239,92L238,92L234,89L235,85L237,85Z M233,79L236,80L237,84L235,84L233,79Z " data-fips="RS74" data-fips-="" data-iso3="RUS" data-name="Taymyr" data-p=""/><path d="M233,235L233,235L232,235L227,236L223,242L220,244L217,244L213,243L211,241L211,241L211,241L210,242L210,244L206,244L205,244L205,245L208,250L207,254L207,254L217,250L219,250L224,253L225,255L234,256L238,255L237,250L241,243L241,243L240,242L241,240L242,239L242,239L241,238L240,238L238,236L233,235L233,235Z " data-fips="RS79" data-fips-="" data-iso3="RUS" data-name="Tuva" data-p="TY"/><path d="M242,239L242,239L241,240L240,242L241,243L241,243L252,248L253,250L256,253L260,253L263,252L266,251L273,253L273,253L276,250L274,248L277,244L280,242L282,243L292,234L293,232L291,228L296,222L298,221L299,219L294,215L292,210L292,209L292,208L292,208L290,208L290,211L287,212L280,211L275,212L271,217L273,218L273,223L274,227L272,235L259,248L257,246L256,244L253,242L250,241L245,236L242,238L242,239Z " data-fips="RS11" data-fips-="" data-iso3="RUS" data-name="Buryat" data-p="BU"/><path d="M254,232L252,233L253,235L255,236L256,238L260,237L261,241L265,235L260,234L259,232L256,233L254,232Z " data-fips="RS82" data-fips-="" data-iso3="RUS" data-name="Ust-Orda Buryat" data-p=""/><path d="M298,238L291,244L293,247L301,244L300,241L301,239L298,238Z " data-fips="RS02" data-fips-="" data-iso3="RUS" data-name="Aga Buryat" data-p=""/><path d="M304,205L304,205L306,207L306,209L310,208L313,210L315,215L315,216L317,221L318,221L324,219L330,219L341,230L343,233L344,233L350,232L355,232L355,232L356,231L356,229L357,229L357,229L357,228L354,224L352,223L353,215L355,210L354,208L358,207L356,202L355,201L351,206L347,209L345,206L344,207L342,206L345,196L343,195L339,197L339,197L339,197L327,204L322,204L317,203L310,204L305,205L304,205Z " data-fips="RS05" data-fips-="" data-iso3="RUS" data-name="Amur" data-p="AMU"/><path d="M292,208L292,209L292,210L294,215L299,219L298,221L296,222L291,228L293,232L292,234L282,243L280,242L277,244L274,248L276,250L273,253L273,253L277,256L285,255L293,251L298,246L301,248L310,247L314,242L314,240L315,233L315,231L314,224L317,221L317,221L315,216L315,215L313,210L310,208L306,209L306,207L304,205L304,205L304,205L302,202L301,202L300,199L300,199L300,199L295,200L295,203L297,205L297,207L292,209L292,208Z M298,238L301,239L300,241L301,244L293,247L291,244L298,238Z " data-fips="RS14" data-fips-="" data-iso3="RUS" data-name="Chita" data-p=""/><path d="M373,237L374,236L373,234L381,231L383,225L382,223L380,223L384,221L384,222L387,223L387,223L387,233L384,251L382,256L380,259L373,259L373,262L371,265L367,253L367,252L369,248L373,247L373,244L373,237L373,237Z " data-fips="RS59" data-fips-="" data-iso3="RUS" data-name="Primor'ye" data-p="PRI"/><path d="M302,96L300,101L306,98L302,96Z M259,118L259,118L258,118L258,118L258,118L258,118L258,119L258,119L258,122L264,133L261,135L260,139L254,143L254,143L254,143L256,147L257,155L256,159L256,160L257,170L262,173L262,173L262,173L264,173L264,176L266,177L267,179L267,182L270,188L272,189L271,197L276,199L278,197L280,200L282,198L282,196L286,189L289,189L293,193L296,192L300,198L300,199L300,199L301,202L302,202L304,205L304,205L305,205L310,204L317,203L322,204L327,204L339,197L339,197L339,197L337,193L338,190L336,189L336,185L334,184L334,177L335,176L338,174L340,170L344,169L345,165L341,160L342,155L342,151L341,150L348,147L350,145L351,146L351,144L351,144L351,144L347,136L346,133L349,130L348,127L350,124L352,125L354,120L355,120L352,116L352,115L350,113L351,112L351,109L354,106L354,102L354,102L354,102L352,99L349,100L346,95L349,88L342,84L342,84L343,88L339,88L337,86L334,86L331,88L325,96L320,96L318,95L314,97L315,100L313,101L314,98L309,99L306,101L304,102L305,103L304,106L308,109L305,110L306,113L303,112L301,115L297,115L294,121L287,116L290,116L287,114L286,111L278,112L277,113L278,118L271,118L271,116L265,117L263,119L262,118L259,118L259,118Z M261,114L258,115L260,116L261,114Z M300,85L301,87L306,85L305,82L300,85Z M289,93L290,95L295,96L295,94L298,92L296,89L296,88L298,90L299,90L298,86L295,86L292,88L292,90L289,89L289,93Z " data-fips="RS63" data-fips-="" data-iso3="RUS" data-name="Chukot" data-p="SA"/><path d="M357,229L357,229L356,229L356,231L355,232L356,232L358,236L361,237L365,234L369,228L369,228L370,226L364,227L361,226L357,229L357,229Z " data-fips="RS89" data-fips-="" data-iso3="RUS" data-name="Yevrey" data-p="YEV"/><path d="M339,197L339,197L343,195L345,196L342,206L344,207L345,206L347,209L351,206L355,201L356,202L358,207L354,208L355,210L353,215L352,223L354,224L357,228L357,229L357,229L361,226L364,227L370,226L369,228L369,228L372,230L371,233L373,237L373,237L374,236L373,234L381,231L383,225L382,223L380,223L384,221L384,222L387,223L387,222L387,215L383,206L382,205L379,200L378,195L375,190L367,189L364,190L365,194L363,197L363,194L360,196L358,192L355,194L353,194L354,188L355,186L355,181L357,171L356,168L358,158L364,152L365,151L365,151L366,151L361,149L360,150L357,143L353,142L351,144L351,144L351,144L351,146L350,145L348,147L341,150L342,151L342,155L341,160L345,165L344,169L340,170L338,174L335,176L334,177L334,184L336,185L336,189L338,190L337,193L339,197L339,197Z " data-fips="RS30" data-fips-="" data-iso3="RUS" data-name="Khabarovsk" data-p="KHA"/><path d="M354,102L354,106L351,109L351,112L350,113L352,115L352,116L355,120L354,120L352,125L350,124L348,127L349,130L346,133L347,136L351,144L351,144L351,144L353,142L357,143L360,150L361,149L366,151L365,151L366,151L370,147L369,147L369,144L372,143L373,141L375,144L379,141L379,139L382,134L380,134L379,135L377,134L375,124L374,122L374,119L376,115L378,114L380,116L383,117L384,116L382,109L382,109L379,106L376,105L373,102L370,100L370,98L368,98L368,98L368,98L360,102L358,103L354,102L354,102L354,102Z " data-fips="RS44" data-fips-="" data-iso3="RUS" data-name="Maga Buryatdan" data-p="MAG"/><path d="M419,218L418,218L418,223L419,218Z M423,207L421,210L420,214L423,207Z M424,199L424,202L424,204L424,199Z M421,165L420,165L421,169L422,169L421,165Z M375,182L374,183L377,185L375,188L378,193L383,197L387,202L391,209L395,212L395,215L397,217L398,220L401,222L400,218L403,216L397,213L395,210L393,204L396,202L384,192L382,190L375,182Z " data-fips="RS64" data-fips-="" data-iso3="RUS" data-name="Sakhalin" data-p="SAK"/><path d="M126,153L121,150L120,151L120,153L120,154L120,154L122,157L119,159L118,163L118,163L121,165L125,165L125,160L128,156L128,156L126,153Z " data-fips="RS90" data-fips-="RS59" data-iso3="RUS" data-name="Komi-Permyak" data-p=""/><path d="M118,181L122,179L123,177L130,174L132,167L136,164L140,159L140,159L140,159L134,155L132,156L129,155L128,155L128,156L128,156L125,160L125,165L121,165L118,163L118,163L117,163L117,163L117,164L117,164L116,165L114,171L111,172L111,175L111,175L111,175L115,178L115,178L118,181L118,181L118,181Z " data-fips="RS90" data-fips-="" data-iso3="RUS" data-name="Perm'" data-p=""/><path d="M368,98L368,98L370,98L370,100L373,102L376,105L379,106L382,109L382,109L383,107L379,103L380,101L384,106L387,109L387,113L390,124L392,128L392,136L395,142L400,148L413,157L421,162L420,156L416,146L418,144L416,143L413,140L413,137L415,135L411,132L408,128L407,124L409,126L403,122L402,120L398,122L397,120L395,115L392,113L392,109L394,108L393,103L396,106L394,99L396,96L400,95L398,92L395,84L394,80L394,80L391,79L388,89L386,88L382,91L378,87L373,90L370,93L370,94L368,98L368,98Z " data-fips="RS26" data-fips-="" data-iso3="RUS" data-name="Kamchatka" data-p=""/><path d="M105,245L108,243L105,241L105,245Z " data-fips="KZ14" data-fips-="" data-iso3="RUS" data-name="" data-p=""/></g></svg>