<?xml version="1.0" encoding="UTF-8"?><!DOCTYPE svg  PUBLIC '-//W3C//DTD SVG 1.1//EN'  'http://www.w3.org/Graphics/SVG/1.1/DTD/svg11.dtd'><svg enable_background="new 0 0 450 301" height="301px" style="stroke-linejoin: round; stroke:#000; fill:#f6f3f0;" version="1.1" viewBox="0 0 450 301" width="450px" xmlns="http://www.w3.org/2000/svg" xmlns:xlink="http://www.w3.org/1999/xlink"><defs><style type="text/css"><![CDATA[path { fill-rule: evenodd; }
#context path { fill: #eee; stroke: #bbb; } ]]></style></defs><metadata><views><view h="301.0" padding="0.06" w="450"><proj id="laea" lat0="-2.27827309278" lon0="29.6860163349"/><bbox h="24.82" w="28.04" x="988.28" y="983.45"/><llbbox lat0="-90" lat1="90" lon0="-180" lon1="180"/></view></views></metadata><g id="context"><path d="M326,218L322,217L316,214L305,205L284,210L279,210L271,214L265,220L258,219L240,208L234,208L231,240L228,257L224,264L212,272L199,276L192,276L164,278L153,278L147,276L140,258L125,250L111,247L105,248L100,257L98,265L98,271L98,277L105,284L117,299L338,299L334,297L320,294L312,291L308,288L307,281L309,272L314,261L308,256L307,253L310,249L323,221L326,218Z " data-iso="BDI"/><path d="M98,265L84,259L80,252L79,241L74,224L77,218L82,213L94,205L111,193L115,187L117,178L116,156L115,137L117,131L125,116L135,102L148,86L155,85L165,79L175,70L181,67L182,62L179,27L179,6L181,0L0,0L0,299L117,299L105,284L98,277L98,271L98,265Z " data-iso="COD"/><path d="M314,19L305,19L297,20L292,26L286,36L275,47L266,57L259,64L243,76L234,79L229,79L226,77L221,62L218,59L186,67L181,67L175,70L165,79L155,85L148,86L135,102L125,116L117,131L115,137L116,156L117,178L115,187L111,193L94,205L82,213L77,218L74,224L79,241L80,252L84,259L98,265L100,257L105,248L111,247L125,250L140,258L147,276L153,278L164,278L192,276L199,276L212,272L224,264L228,257L231,240L234,208L240,208L258,219L265,220L271,214L279,210L284,210L305,205L316,214L322,217L326,218L332,217L341,214L350,212L357,213L362,212L367,208L371,198L374,179L372,165L366,153L364,136L367,113L365,93L357,78L350,68L338,64L319,40L314,29L315,22L320,19L314,19Z " data-iso="RWA"/><path d="M320,19L315,22L314,29L319,40L338,64L350,68L357,78L365,93L367,113L364,136L366,153L372,165L374,179L371,198L367,208L362,212L357,213L350,212L341,214L332,217L326,218L323,221L310,249L307,253L308,256L314,261L309,272L307,281L308,288L312,291L320,294L334,297L338,299L450,299L450,10L370,10L364,9L354,11L344,17L333,20L321,19L320,19Z " data-iso="TZA"/><path d="M181,67L186,67L218,59L221,62L226,77L229,79L234,79L243,76L259,64L266,57L275,47L286,36L292,26L297,20L305,19L314,19L320,19L321,19L333,20L344,17L354,11L364,9L370,10L450,10L450,0L181,0L179,6L179,27L182,62L181,67Z " data-iso="UGA"/></g><g fill="red" fill-opacity="0.35" id="regions"><path d="M193,118L193,119L194,123L195,128L194,136L195,143L194,146L195,152L193,154L188,154L189,156L190,165L189,169L184,179L185,185L177,187L165,198L156,199L152,201L150,201L144,204L144,206L146,211L143,218L143,221L137,224L135,229L143,234L143,236L147,242L146,244L149,249L148,254L146,258L141,261L141,261L145,264L145,267L143,270L145,278L150,281L156,278L173,280L176,278L183,277L187,275L199,278L202,278L206,271L218,271L220,270L227,261L229,258L230,238L233,226L232,215L233,206L236,206L237,207L241,194L242,187L242,182L243,179L245,176L246,170L247,169L246,168L243,167L242,164L245,160L244,155L244,152L241,145L241,145L241,144L238,143L235,139L229,137L221,137L217,136L214,134L213,132L211,130L206,122L206,121L203,121L194,118L193,118Z " data-fips="" data-fips-="" data-iso3="RWA" data-name="Southern" data-p="05"/><path d="M161,84L160,85L149,85L146,86L145,88L140,97L139,99L132,105L127,113L118,128L115,135L114,140L114,145L118,169L119,174L118,180L115,187L112,193L107,197L100,199L94,199L93,201L91,206L87,211L78,214L76,216L74,220L75,226L77,231L75,233L75,237L79,240L80,244L79,255L86,260L92,261L100,250L104,247L112,246L115,247L124,251L139,255L141,259L141,261L146,258L148,254L149,249L146,244L147,242L143,236L143,234L135,229L137,224L143,221L143,218L146,211L144,206L144,204L150,201L152,201L156,199L165,198L177,187L185,185L184,179L189,169L190,165L189,156L188,154L193,154L195,152L194,146L195,143L194,136L195,128L194,123L193,119L193,118L191,117L190,115L190,101L189,97L183,97L177,94L176,94L168,92L161,83L161,84Z " data-fips="" data-fips-="" data-iso3="RWA" data-name="Western" data-p="04"/><path d="M254,67L256,69L261,77L265,84L265,86L270,86L268,91L272,100L281,111L282,113L281,117L282,120L284,130L284,132L281,134L281,135L281,135L282,139L282,141L284,146L284,148L279,153L278,160L277,165L275,169L270,163L265,164L260,166L254,168L247,168L247,169L246,170L245,176L243,179L242,182L242,187L241,194L237,207L240,209L246,210L248,211L252,217L258,221L265,222L267,220L276,209L281,211L285,211L293,209L298,204L301,203L305,205L308,208L316,215L329,216L335,217L339,217L340,216L342,212L346,210L358,214L368,209L369,207L370,204L369,193L371,187L376,170L375,166L371,162L367,152L367,148L363,146L366,143L365,141L368,134L367,126L368,122L366,116L368,105L368,101L362,97L359,89L354,82L353,80L354,74L354,70L351,68L348,68L338,64L333,60L326,57L324,45L320,35L317,33L316,33L314,27L312,25L313,21L312,19L308,18L304,20L294,19L293,21L292,27L287,32L286,36L282,42L275,48L267,53L264,62L258,65L254,67Z " data-fips="" data-fips-="" data-iso3="RWA" data-name="Eastern" data-p="02"/><path d="M161,83L168,92L176,94L177,94L183,97L189,97L190,101L190,115L191,117L193,118L194,118L203,121L206,121L206,122L211,130L213,132L214,134L217,136L221,137L229,137L235,139L238,143L241,144L241,145L242,144L241,140L244,135L245,134L249,137L256,131L261,131L264,125L265,126L277,134L280,135L281,135L281,134L284,132L284,130L282,120L281,117L282,113L281,111L272,100L268,91L270,86L265,86L265,84L261,77L256,69L254,67L253,67L251,69L250,73L248,73L238,78L235,80L226,77L225,74L224,68L224,64L220,58L215,58L214,59L212,63L209,63L206,62L201,62L193,66L190,67L181,67L175,69L169,73L164,79L161,83Z " data-fips="" data-fips-="" data-iso3="RWA" data-name="Northern" data-p="03"/><path d="M280,135L277,134L265,126L264,125L261,131L256,131L249,137L245,134L244,135L241,140L242,144L241,145L241,145L244,152L244,155L245,160L242,164L243,167L246,168L247,169L247,168L254,168L260,166L265,164L270,163L275,169L277,165L278,160L279,153L284,148L284,146L282,141L282,139L281,135L281,135L280,135Z " data-fips="" data-fips-="" data-iso3="RWA" data-name="Kigali City" data-p="01"/></g></svg>