<?xml version="1.0" encoding="UTF-8"?><!DOCTYPE svg  PUBLIC '-//W3C//DTD SVG 1.1//EN'  'http://www.w3.org/Graphics/SVG/1.1/DTD/svg11.dtd'><svg enable_background="new 0 0 500 611" height="611px" style="stroke-linejoin: round; stroke:#000; fill:#f6f3f0;" version="1.1" viewBox="0 0 500 611" width="500px" xmlns="http://www.w3.org/2000/svg" xmlns:xlink="http://www.w3.org/1999/xlink"><defs><style type="text/css"><![CDATA[path { fill-rule: evenodd; }
#context path { fill: #eee; stroke: #bbb; } ]]></style></defs><metadata><views><view h="611.119142798" padding="0" w="500"><proj id="laea" lat0="-20.0" lon0="-61.5"/><bbox h="926.19" w="759.02" x="620.49" y="551.26"/><llbbox lat0="-57.0" lat1="17.0" lon0="-92.0" lon1="-31.0"/></view></views></metadata><g id="countries"><path d="M213.5,557.7L214.5,568.5L214.7,570.6L215.0,574.7L215.2,574.6L227.2,575.1L231.2,574.2L231.5,572.3L229.1,572.5L221.2,568.1L217.3,564.6L213.8,558.0L213.5,557.7Z M207.4,318.8L208.9,320.2L206.6,328.6L200.1,331.8L198.3,333.8L198.0,340.8L199.5,345.4L200.6,352.8L199.1,353.8L192.5,363.8L189.7,371.8L190.7,378.7L189.1,381.1L188.2,385.3L189.7,396.7L191.5,401.8L191.4,403.8L193.2,404.3L193.6,411.9L190.7,422.6L191.1,424.6L189.1,429.7L187.1,430.9L187.3,440.9L189.5,448.6L186.6,450.8L186.9,452.6L185.3,461.1L186.0,462.1L184.9,465.5L187.2,475.4L185.2,477.6L186.0,483.7L188.5,489.0L188.9,494.0L192.5,494.2L190.8,498.6L192.4,500.5L190.4,504.6L190.7,515.4L188.9,518.8L188.5,522.6L190.0,524.5L186.8,531.1L186.6,533.4L184.8,533.6L185.2,538.3L188.1,544.6L192.4,543.8L193.9,551.6L196.0,553.7L206.1,553.1L214.2,555.3L214.4,554.9L210.4,549.2L208.4,545.2L212.8,538.1L216.0,535.6L217.2,528.4L225.9,520.1L225.9,517.1L224.4,513.4L220.7,513.2L216.3,509.5L214.8,505.6L216.5,501.8L222.4,496.6L225.3,495.2L227.1,492.6L227.8,485.0L230.6,481.9L232.3,481.2L228.6,478.9L228.9,478.2L236.7,479.1L235.9,473.6L234.1,475.9L231.2,476.1L228.6,473.7L227.3,465.8L227.7,463.4L235.9,465.9L245.0,463.1L244.3,458.2L246.0,455.2L246.5,451.6L244.9,450.6L246.4,448.0L260.7,447.4L271.4,444.4L274.9,442.3L278.8,436.6L281.4,427.9L278.0,426.1L277.6,422.7L278.9,419.9L275.1,416.0L271.6,414.2L270.5,412.4L270.1,406.0L272.6,397.1L272.7,396.4L274.1,387.9L275.4,381.3L277.1,378.4L277.4,378.1L277.7,377.7L281.2,374.3L291.4,362.4L300.1,356.7L305.4,354.3L306.7,348.1L305.8,343.1L303.4,341.2L301.0,341.5L300.4,341.5L300.1,344.9L298.5,350.1L294.0,352.8L291.7,356.0L289.2,355.1L286.0,356.4L270.7,353.7L278.4,340.9L277.0,337.1L267.1,332.3L260.3,327.7L254.9,326.4L247.8,320.9L244.6,316.3L241.5,313.5L241.4,313.3L241.2,313.2L236.7,311.4L231.4,312.1L228.5,317.7L223.2,312.5L218.5,312.6L214.4,310.3L213.4,312.8L210.9,313.7L207.6,318.4L207.4,318.8Z " data-iso="ARG" data-name="Argentina" data-pop="40913584.0"/><path d="M26.3,3.6L26.0,5.5L24.7,19.0L25.6,18.8L27.4,18.7L27.3,18.2L32.4,12.4L33.7,5.3L33.2,4.6L35.0,0.0L30.6,0.0L28.7,2.5L27.2,2.0L26.3,2.9L26.3,3.6Z " data-iso="BLZ" data-name="Belize" data-pop="307899.0"/><path d="M275.9,296.6L277.8,295.3L275.7,293.3L278.5,286.6L278.7,275.7L274.1,272.9L273.4,265.5L260.3,264.9L259.8,258.5L257.6,255.7L259.6,255.3L259.4,251.5L257.8,244.8L253.3,242.3L247.7,242.6L245.3,240.3L240.0,238.4L237.6,235.7L235.3,235.8L231.8,234.2L226.8,234.0L220.6,228.2L218.9,224.0L219.5,222.7L218.7,212.1L217.4,212.8L209.3,213.8L201.3,218.9L198.1,220.4L195.9,222.6L192.0,224.1L186.4,223.1L185.5,223.1L186.5,224.9L193.0,235.4L190.2,245.1L192.0,249.0L189.2,252.6L188.6,256.2L189.8,257.5L188.4,261.9L191.6,267.4L190.7,269.7L187.1,273.9L188.0,276.3L188.0,276.3L188.2,277.2L191.4,280.6L194.9,296.9L195.3,300.3L196.9,301.2L199.4,307.9L202.3,319.0L206.2,319.1L207.4,318.8L207.6,318.4L210.9,313.7L213.4,312.8L214.4,310.3L218.5,312.6L223.2,312.5L228.5,317.7L231.4,312.1L236.7,311.4L241.2,313.2L241.4,313.3L241.5,312.9L245.3,298.0L248.0,292.2L261.4,289.5L268.5,289.5L275.3,293.9L275.6,295.4L275.4,296.7L275.9,296.6Z " data-iso="BOL" data-name="Bolivia" data-pop="9775246.0"/><path d="M329.4,146.9L332.4,145.2L335.0,141.0L334.2,139.9L330.7,142.3L329.4,146.9Z M347.6,138.1L339.3,138.0L338.2,140.9L338.2,145.7L339.4,149.5L341.5,150.0L350.6,149.3L351.1,147.8L353.9,147.8L353.9,146.5L357.7,139.2L347.6,138.1Z M256.3,92.2L256.5,92.3L257.4,94.2L249.6,99.5L244.6,101.0L242.5,100.5L238.8,105.0L234.4,102.3L228.7,102.1L222.5,100.1L227.5,105.2L227.5,108.2L229.1,113.2L234.4,114.4L234.3,115.9L230.6,117.9L228.4,120.8L220.3,125.0L217.2,128.4L215.2,126.1L210.0,127.9L207.8,126.2L205.6,124.4L204.1,124.8L203.6,120.6L201.7,117.6L197.9,120.0L194.9,120.7L181.1,121.2L182.2,126.4L185.6,126.3L186.8,127.8L179.5,130.3L179.4,134.8L183.1,138.9L184.7,142.8L184.8,146.2L181.0,168.7L180.9,169.0L180.9,169.5L172.7,170.3L165.7,171.9L158.9,176.8L151.3,191.5L151.0,195.6L149.0,197.5L155.8,206.6L157.6,212.0L163.2,212.9L164.4,216.5L169.0,216.3L177.2,211.7L177.0,224.0L184.7,223.2L185.5,223.1L186.4,223.1L192.0,224.1L195.9,222.6L198.1,220.4L201.3,218.9L209.3,213.8L217.4,212.8L218.7,212.1L219.5,222.7L218.9,224.0L220.6,228.2L226.8,234.0L231.8,234.2L235.3,235.8L237.6,235.7L240.0,238.4L245.3,240.3L247.7,242.6L253.3,242.3L257.8,244.8L259.4,251.5L259.6,255.3L257.6,255.7L259.8,258.5L260.3,264.9L273.4,265.5L274.1,272.9L278.7,275.7L278.5,286.6L275.7,293.3L277.8,295.3L275.9,296.6L275.4,296.7L275.6,297.3L277.2,301.0L277.4,306.4L276.6,312.5L284.3,314.0L288.4,312.7L294.0,321.0L294.3,325.0L301.0,327.2L303.8,329.2L300.5,340.3L300.4,341.5L301.0,341.5L303.4,341.2L305.8,343.1L306.7,348.1L305.4,354.3L300.1,356.7L291.4,362.4L281.2,374.3L277.7,377.7L277.4,378.1L277.8,378.7L281.5,377.5L283.6,378.2L287.3,381.9L289.3,385.6L291.2,383.9L294.1,387.5L298.0,389.3L307.4,399.9L304.2,405.9L305.2,408.0L308.4,405.4L311.6,401.3L314.4,395.1L316.6,389.2L323.5,381.8L325.6,382.4L323.3,387.6L315.3,395.4L321.8,390.7L325.9,386.2L328.5,382.6L330.8,377.7L335.2,372.1L340.5,368.5L342.2,364.5L343.3,357.4L343.3,351.0L342.7,349.8L345.7,344.5L343.7,343.5L347.3,343.2L349.7,340.6L359.8,333.6L367.2,331.5L368.1,331.9L375.3,327.9L375.3,326.5L381.1,325.9L385.8,327.1L386.0,325.1L387.8,327.2L393.9,327.7L397.6,322.9L403.2,321.0L403.3,317.0L404.3,314.9L409.1,309.9L415.7,300.1L416.0,294.8L417.1,291.7L421.4,287.7L425.2,272.9L425.0,262.9L426.3,257.6L425.7,254.1L429.5,246.6L430.8,249.5L432.9,248.8L439.8,239.9L441.0,236.7L447.1,232.0L456.1,224.5L461.9,215.9L463.8,207.7L461.7,192.2L459.5,188.3L446.7,184.8L445.8,183.1L436.9,173.8L425.4,165.6L415.5,164.8L410.0,163.1L407.0,163.2L399.2,159.2L394.0,160.4L391.3,161.9L391.5,159.2L387.7,164.3L388.8,158.4L387.3,157.6L388.7,155.6L384.5,150.5L382.2,151.1L381.4,149.4L365.4,142.5L365.6,143.5L360.6,142.7L356.8,147.4L357.8,148.8L354.9,148.6L349.0,155.2L348.2,154.6L349.9,150.3L347.7,151.3L342.2,151.4L341.0,152.1L337.5,145.6L337.1,143.2L326.4,148.4L326.1,146.1L329.5,144.3L330.5,141.5L334.1,136.2L335.6,135.9L339.9,132.5L342.3,129.2L345.2,122.8L342.3,121.5L339.0,118.7L338.8,116.7L336.3,109.4L335.0,102.8L332.2,101.6L331.4,103.0L321.0,117.3L314.1,116.3L311.2,117.4L307.1,116.0L306.9,115.9L306.5,115.9L302.2,114.0L300.5,114.8L296.3,114.3L295.7,119.3L291.7,118.7L291.4,118.6L291.1,118.7L288.5,119.0L286.2,117.9L280.6,120.3L276.1,121.1L274.7,123.5L268.7,122.7L265.7,120.0L264.4,115.5L262.4,111.6L263.6,105.1L266.1,102.3L263.8,98.0L261.2,97.5L262.5,93.2L257.0,92.1L256.3,92.2Z " data-iso="BRA" data-name="Brazil" data-pop="198739269.0"/><path d="M222.9,576.6L222.0,575.3L217.7,575.2L218.1,577.4L222.1,577.7L222.9,576.6Z M210.0,575.6L209.3,577.6L211.3,579.0L214.2,578.0L214.8,579.3L217.0,578.2L216.1,575.5L210.0,575.6Z M200.8,569.4L199.2,568.7L196.8,569.8L198.4,571.7L200.8,569.4Z M192.6,565.8L188.7,565.8L193.2,570.5L195.9,569.4L195.6,567.1L192.6,565.8Z M215.0,574.7L214.7,570.6L214.5,568.5L213.5,557.7L213.3,557.5L209.3,556.6L206.1,560.4L205.0,563.3L210.4,563.8L206.8,567.8L212.0,571.0L211.8,572.6L207.2,571.6L204.3,567.4L203.3,568.0L203.3,572.2L200.7,572.6L199.3,574.1L209.7,574.0L214.3,574.8L215.0,574.7Z M179.1,532.9L178.4,530.3L176.3,529.9L174.1,535.1L175.6,538.9L177.0,538.6L177.0,536.2L178.7,539.8L179.1,532.9Z M177.9,528.6L174.8,523.6L173.8,525.5L177.9,528.6Z M182.5,497.7L180.7,494.3L179.6,496.9L180.4,498.3L182.5,497.7Z M177.7,495.1L175.9,493.2L172.8,497.6L176.5,501.6L177.7,495.1Z M176.3,486.8L177.9,483.3L176.2,475.1L173.1,476.3L172.5,485.9L176.3,486.8Z M188.0,276.3L187.5,276.9L186.0,280.4L185.7,281.2L181.4,283.5L181.8,283.9L184.2,298.7L185.2,308.9L184.4,317.6L182.4,321.8L183.8,326.6L183.1,332.2L184.3,339.0L182.7,344.0L183.4,345.7L182.2,358.1L181.3,359.9L180.1,367.7L178.7,369.9L180.6,375.6L180.4,379.7L178.6,381.3L179.2,388.1L181.7,400.0L180.0,403.7L181.0,408.1L180.0,409.5L176.1,424.2L176.5,425.5L174.5,432.9L172.6,437.7L171.1,437.6L171.2,441.7L172.3,443.3L175.4,453.7L175.5,455.2L173.4,459.8L172.7,469.2L174.8,474.0L177.9,474.0L180.3,471.9L182.6,475.2L183.4,478.8L181.3,482.0L180.2,493.0L184.0,494.8L180.3,501.6L180.8,502.7L180.1,507.6L178.3,503.4L177.1,505.7L171.7,507.5L172.9,509.7L169.3,513.7L173.0,512.5L175.1,515.1L178.2,515.7L176.9,519.4L179.0,523.5L181.5,520.8L183.2,524.2L178.1,524.0L179.5,532.1L181.0,535.5L180.8,537.8L182.7,539.5L179.7,541.2L183.2,543.0L182.7,545.5L180.3,542.6L177.9,545.2L179.8,548.0L184.7,549.1L184.4,551.6L187.8,554.9L193.1,555.4L192.0,554.1L187.6,559.8L191.4,561.3L192.9,558.3L198.7,558.4L193.3,560.5L192.0,564.4L199.5,559.5L200.3,561.6L195.4,563.7L196.5,566.6L199.1,567.7L202.5,567.2L202.5,559.3L207.6,556.9L209.0,554.9L211.2,554.7L214.2,555.3L206.1,553.1L196.0,553.7L193.9,551.6L192.4,543.8L188.1,544.6L185.2,538.3L184.8,533.6L186.6,533.4L186.8,531.1L190.0,524.5L188.5,522.6L188.9,518.8L190.7,515.4L190.4,504.6L192.4,500.5L190.8,498.6L192.5,494.2L188.9,494.0L188.5,489.0L186.0,483.7L185.2,477.6L187.2,475.4L184.9,465.5L186.0,462.1L185.3,461.1L186.9,452.6L186.6,450.8L189.5,448.6L187.3,440.9L187.1,430.9L189.1,429.7L191.1,424.6L190.7,422.6L193.6,411.9L193.2,404.3L191.4,403.8L191.5,401.8L189.7,396.7L188.2,385.3L189.1,381.1L190.7,378.7L189.7,371.8L192.5,363.8L199.1,353.8L200.6,352.8L199.5,345.4L198.0,340.8L198.3,333.8L200.1,331.8L206.6,328.6L208.9,320.2L207.4,318.8L206.2,319.1L202.3,319.0L199.4,307.9L196.9,301.2L195.3,300.3L194.9,296.9L191.4,280.6L188.2,277.2L188.0,276.3Z " data-iso="CHL" data-name="Chile" data-pop="16601707.0"/><path d="M119.0,69.0L118.1,70.3L120.2,74.7L117.6,77.7L115.2,78.9L114.6,80.6L115.4,81.3L119.2,90.2L117.6,93.9L118.7,94.8L119.5,101.4L118.6,105.7L121.5,106.7L119.5,110.3L113.1,118.7L109.3,120.1L109.7,123.5L107.7,124.3L107.0,127.0L107.2,127.5L121.7,135.3L124.0,136.0L127.6,134.5L130.2,134.8L135.2,137.6L136.7,138.0L137.2,137.5L146.9,144.8L150.2,146.4L151.4,149.5L154.1,150.9L154.7,152.9L160.7,155.4L167.5,153.4L172.8,153.1L179.8,156.7L175.4,164.1L176.2,166.2L180.5,168.4L180.9,169.0L181.0,168.7L184.8,146.2L184.7,142.8L183.1,138.9L179.4,134.8L179.5,130.3L186.8,127.8L185.6,126.3L182.2,126.4L181.1,121.2L194.9,120.7L197.9,120.0L201.7,117.6L203.6,120.6L204.1,124.8L205.6,124.4L205.5,123.8L202.9,115.6L199.8,112.8L200.3,108.8L201.6,107.7L199.0,103.5L197.4,97.2L197.6,92.4L200.8,86.3L197.3,84.3L192.3,85.5L184.4,86.0L178.9,79.7L173.0,78.8L171.3,79.5L163.1,79.6L161.4,77.0L159.5,76.4L159.9,69.8L156.6,63.4L154.9,58.1L156.1,52.5L159.6,47.5L161.3,46.8L163.3,43.5L169.0,41.3L169.3,40.8L169.5,37.6L165.8,37.0L162.1,40.0L152.5,46.4L145.2,46.9L144.0,50.6L137.6,50.4L136.6,51.2L132.9,59.7L122.5,72.8L119.2,69.1L119.0,69.0Z " data-iso="COL" data-name="Colombia" data-pop="45644023.0"/><path d="M51.1,55.2L49.9,56.3L51.3,59.0L50.3,60.4L51.9,64.3L56.3,66.3L57.8,64.4L55.6,63.0L56.7,62.1L63.2,66.8L67.1,68.9L68.1,74.2L69.9,74.6L69.2,72.3L71.7,73.0L73.4,76.1L74.0,77.0L73.7,71.6L75.1,69.8L73.5,67.6L74.4,64.9L76.7,64.7L76.3,64.4L72.1,61.4L69.6,58.2L68.3,55.0L68.1,54.7L65.8,56.4L60.1,54.4L57.8,55.4L52.8,54.1L51.1,55.1L51.1,55.2Z " data-iso="CRI" data-name="Costa Rica" data-pop="4253877.0"/><path d="M7.6,150.0L8.9,155.2L6.2,157.6L9.2,158.5L11.7,155.9L7.6,150.0Z M107.5,128.8L97.4,133.7L97.8,138.8L94.6,143.9L95.5,145.3L91.7,148.5L92.1,159.6L96.7,162.1L101.0,159.9L97.9,167.1L96.8,167.6L96.6,167.7L95.9,174.4L96.6,176.5L98.5,174.9L103.1,176.2L105.2,179.5L107.3,179.8L110.3,176.1L112.6,166.7L114.2,166.8L115.8,163.3L125.9,158.6L130.6,154.8L134.7,149.6L135.8,145.0L136.3,138.3L136.7,138.0L135.2,137.6L130.2,134.8L127.6,134.5L124.0,136.0L121.7,135.3L107.2,127.5L107.5,128.8Z " data-iso="ECU" data-name="Ecuador" data-pop="14573101.0"/><path d="M256.4,547.3L256.1,550.3L252.8,551.9L254.2,553.0L258.2,551.3L261.7,547.1L256.4,547.3Z M264.0,545.9L260.0,551.0L260.9,554.0L264.8,552.4L268.5,546.9L266.9,547.5L264.0,545.9Z " data-iso="FLK" data-name="Falkland Is." data-pop="3140.0"/><path d="M331.4,103.0L321.0,117.3L314.1,116.3L311.2,117.4L307.1,116.0L306.9,115.9L307.0,115.8L309.9,112.9L312.0,105.7L309.2,101.5L308.3,98.8L308.3,94.6L310.8,91.9L311.4,91.5L313.3,88.6L322.3,93.0L328.5,98.2L331.4,102.7L331.4,103.0Z M706.2,-178.6L713.3,-170.8L714.0,-168.3L709.1,-172.1L706.2,-175.2L706.2,-178.6Z M624.8,-245.3L662.0,-217.5L667.0,-213.5L670.3,-209.6L671.0,-210.2L681.0,-201.6L680.0,-200.3L686.2,-193.5L690.2,-192.5L690.8,-188.0L688.2,-182.9L680.8,-185.5L678.8,-185.6L674.0,-187.5L671.6,-184.1L673.7,-178.9L671.9,-176.9L664.2,-179.2L663.3,-180.0L653.1,-181.3L651.6,-181.1L645.9,-183.7L642.5,-186.6L639.6,-197.0L638.8,-196.8L635.4,-203.9L631.0,-210.3L629.4,-210.6L622.6,-215.2L621.2,-218.4L618.3,-218.4L602.6,-224.4L603.8,-225.1L599.8,-228.0L606.3,-230.5L610.8,-228.2L617.0,-229.2L608.9,-237.4L612.5,-236.8L620.0,-234.6L621.3,-236.1L620.7,-239.4L623.1,-240.6L622.9,-243.1L620.3,-246.6L624.8,-245.3Z " data-iso="GUF" data-name="French Guiana" data-pop="294071.0"/><path d="M24.6,3.7L11.8,4.9L11.4,9.4L8.1,9.7L13.3,13.6L15.1,18.5L4.9,19.5L0.8,26.3L1.7,27.8L0.2,32.2L3.3,34.4L8.6,36.3L12.9,35.8L13.9,36.0L16.9,37.0L17.3,35.6L22.8,30.8L23.0,30.9L23.2,30.5L24.7,28.7L25.0,25.5L32.6,19.5L29.8,18.0L30.2,18.8L29.6,19.5L27.8,18.9L27.4,18.7L25.6,18.8L24.7,19.0L26.0,5.5L26.3,3.6L24.6,3.7Z " data-iso="GTM" data-name="Guatemala" data-pop="13276517.0"/><path d="M285.6,89.7L285.9,87.1L284.4,84.0L279.1,79.9L273.9,82.1L275.0,77.8L272.3,72.3L269.0,69.6L263.8,67.2L262.6,66.0L262.3,65.8L263.7,68.2L256.5,73.8L259.8,77.3L255.6,79.7L250.9,86.4L254.5,90.4L256.3,92.2L257.0,92.1L262.5,93.2L261.2,97.5L263.8,98.0L266.1,102.3L263.6,105.1L262.4,111.6L264.4,115.5L265.7,120.0L268.7,122.7L274.7,123.5L276.1,121.1L280.6,120.3L286.2,117.9L288.5,119.0L291.1,118.7L291.4,118.6L291.1,118.3L289.6,117.8L285.9,111.4L284.7,107.0L282.2,107.0L278.7,101.9L279.7,95.5L281.4,94.1L284.5,94.0L285.7,89.8L285.6,89.7Z " data-iso="GUY" data-name="Guyana" data-pop="772298.0"/><path d="M32.6,19.5L25.0,25.5L24.7,28.7L23.2,30.5L23.0,30.9L23.2,30.9L29.6,33.8L35.3,33.9L35.0,37.9L35.4,38.0L36.7,37.8L37.6,38.0L38.8,40.0L38.7,40.9L41.4,40.4L43.8,37.7L43.8,34.2L49.5,31.4L51.9,32.1L59.8,24.6L61.8,25.7L70.0,22.4L73.0,22.0L72.5,21.7L68.2,20.6L64.4,16.1L54.6,16.3L52.3,15.7L43.2,18.3L38.6,18.5L36.9,17.7L33.4,19.7L32.6,19.5Z " data-iso="HND" data-name="Honduras" data-pop="7792854.0"/><path d="M0.2,32.2L1.7,27.8L0.8,26.3L4.9,19.5L15.1,18.5L13.3,13.6L8.1,9.7L11.4,9.4L11.8,4.9L24.6,3.7L26.3,3.6L26.3,2.9L27.2,2.0L28.7,2.5L30.6,0.0L8.1,0.0L0.0,0.0L0.0,32.1L0.2,32.2Z " data-iso="MEX" data-name="Mexico" data-pop="111211789.0"/><path d="M38.7,41.1L42.4,46.4L45.4,50.2L51.1,54.8L51.1,55.1L52.8,54.1L57.8,55.4L60.1,54.4L65.8,56.4L68.1,54.7L67.5,54.6L66.7,47.3L67.5,42.2L69.4,41.9L70.7,30.1L72.6,27.2L71.8,24.0L72.8,22.3L73.0,22.0L70.0,22.4L61.8,25.7L59.8,24.6L51.9,32.1L49.5,31.4L43.8,34.2L43.8,37.7L41.4,40.4L38.7,40.9L38.7,41.1Z " data-iso="NIC" data-name="Nicaragua" data-pop="5891199.0"/><path d="M76.7,64.7L74.4,64.9L73.5,67.6L75.1,69.8L73.7,71.6L74.0,77.0L74.2,76.7L79.3,75.3L83.8,76.6L85.2,78.9L89.0,78.6L92.0,82.3L97.3,79.7L93.7,74.3L99.5,70.8L102.1,67.3L105.0,67.2L112.9,71.6L110.4,74.3L114.4,80.4L114.6,80.6L115.2,78.9L117.6,77.7L120.2,74.7L118.1,70.3L119.0,69.0L116.3,67.3L115.3,66.0L108.2,63.5L102.8,62.8L99.8,63.7L96.5,66.1L90.6,69.1L84.9,70.0L83.5,68.6L79.2,68.9L77.2,65.1L76.7,64.7Z " data-iso="PAN" data-name="Panama" data-pop="3360474.0"/><path d="M180.5,168.4L176.2,166.2L175.4,164.1L179.8,156.7L172.8,153.1L167.5,153.4L160.7,155.4L154.7,152.9L154.1,150.9L151.4,149.5L150.2,146.4L146.9,144.8L137.2,137.5L136.7,138.0L136.3,138.3L135.8,145.0L134.7,149.6L130.6,154.8L125.9,158.6L115.8,163.3L114.2,166.8L112.6,166.7L110.3,176.1L107.3,179.8L105.2,179.5L103.1,176.2L98.5,174.9L96.6,176.5L95.9,174.4L96.6,167.7L95.2,168.7L89.3,176.0L89.0,178.9L93.1,186.4L91.2,190.0L99.7,194.1L102.7,197.2L106.1,203.2L109.2,206.0L114.3,215.0L117.5,222.0L120.7,226.4L121.7,230.0L124.4,231.8L134.3,247.2L133.9,252.3L136.9,256.2L143.8,262.0L162.3,270.5L164.9,271.1L167.8,273.3L173.1,276.0L174.0,278.5L180.8,283.0L181.4,283.5L185.7,281.2L186.0,280.4L187.5,276.9L188.0,276.3L188.0,276.3L187.1,273.9L190.7,269.7L191.6,267.4L188.4,261.9L189.8,257.5L188.6,256.2L189.2,252.6L192.0,249.0L190.2,245.1L193.0,235.4L186.5,224.9L185.5,223.1L184.7,223.2L177.0,224.0L177.2,211.7L169.0,216.3L164.4,216.5L163.2,212.9L157.6,212.0L155.8,206.6L149.0,197.5L151.0,195.6L151.3,191.5L158.9,176.8L165.7,171.9L172.7,170.3L180.9,169.5L180.9,169.0L180.5,168.4Z " data-iso="PER" data-name="Peru" data-pop="29546963.0"/><path d="M275.6,295.4L275.3,293.9L268.5,289.5L261.4,289.5L248.0,292.2L245.3,298.0L241.5,312.9L241.4,313.3L241.5,313.5L244.6,316.3L247.8,320.9L254.9,326.4L260.3,327.7L267.1,332.3L277.0,337.1L278.4,340.9L270.7,353.7L286.0,356.4L289.2,355.1L291.7,356.0L294.0,352.8L298.5,350.1L300.1,344.9L300.4,341.5L300.5,340.3L303.8,329.2L301.0,327.2L294.3,325.0L294.0,321.0L288.4,312.7L284.3,314.0L276.6,312.5L277.4,306.4L277.2,301.0L275.6,297.3L275.4,296.7L275.6,295.4Z " data-iso="PRY" data-name="Paraguay" data-pop="6995655.0"/><path d="M369.5,580.1L366.8,580.4L372.9,587.2L373.9,585.1L369.5,580.1Z " data-iso="SGS" data-name="S. Geo. and S. Sandw. Is." data-pop="10.0"/><path d="M22.8,30.8L17.3,35.6L16.9,37.0L17.8,37.3L26.5,39.6L32.0,40.0L34.8,38.0L35.0,37.9L35.3,33.9L29.6,33.8L23.2,30.9L23.0,30.9L22.8,30.8Z " data-iso="SLV" data-name="El Salvador" data-pop="7185218.0"/><path d="M311.4,90.8L305.2,86.7L293.6,87.3L287.5,86.3L285.8,89.9L285.7,89.8L284.5,94.0L281.4,94.1L279.7,95.5L278.7,101.9L282.2,107.0L284.7,107.0L285.9,111.4L289.6,117.8L291.1,118.3L291.4,118.6L291.7,118.7L295.7,119.3L296.3,114.3L300.5,114.8L302.2,114.0L306.5,115.9L306.9,115.9L307.0,115.8L309.9,112.9L312.0,105.7L309.2,101.5L308.3,98.8L308.3,94.6L310.8,91.9L311.4,90.8Z " data-iso="SUR" data-name="Suriname" data-pop="481267.0"/><path d="M254.0,53.3L253.5,47.9L248.9,48.9L250.3,50.2L246.6,53.9L254.0,53.3Z " data-iso="TTO" data-name="Trinidad and Tobago" data-pop="1310000.0"/><path d="M277.4,378.1L277.1,378.4L275.4,381.3L274.1,387.9L272.7,396.4L273.0,397.2L271.5,402.7L271.0,408.0L274.8,412.6L279.2,412.6L286.1,416.5L291.2,415.9L294.2,417.0L297.9,415.6L302.4,411.9L304.8,408.2L305.2,408.0L304.2,405.9L307.4,399.9L298.0,389.3L294.1,387.5L291.2,383.9L289.3,385.6L287.3,381.9L283.6,378.2L281.5,377.5L277.8,378.7L277.4,378.1Z " data-iso="URY" data-name="Uruguay" data-pop="3494382.0"/><path d="M169.0,41.3L163.3,43.5L161.3,46.8L159.6,47.5L156.1,52.5L154.9,58.1L156.6,63.4L159.9,69.8L159.5,76.4L161.4,77.0L163.1,79.6L171.3,79.5L173.0,78.8L178.9,79.7L184.4,86.0L192.3,85.5L197.3,84.3L200.8,86.3L197.6,92.4L197.4,97.2L199.0,103.5L201.6,107.7L200.3,108.8L199.8,112.8L202.9,115.6L205.5,123.8L205.6,124.4L207.8,126.2L210.0,127.9L215.2,126.1L217.2,128.4L220.3,125.0L228.4,120.8L230.6,117.9L234.3,115.9L234.4,114.4L229.1,113.2L227.5,108.2L227.5,105.2L222.5,100.1L228.7,102.1L234.4,102.3L238.8,105.0L242.5,100.5L244.6,101.0L249.6,99.5L257.4,94.2L256.5,92.3L256.3,92.2L254.5,90.4L250.9,86.4L255.6,79.7L259.8,77.3L256.5,73.8L263.7,68.2L262.3,65.8L261.0,65.3L258.4,65.8L252.1,65.4L255.9,59.4L249.0,55.8L248.0,57.3L244.6,54.6L242.5,55.0L238.3,50.3L242.7,50.1L243.9,48.9L240.1,48.5L233.5,49.4L230.4,49.3L222.3,53.8L214.0,52.7L210.7,49.8L204.6,50.1L197.3,51.3L195.1,51.2L193.0,46.0L186.2,43.4L182.9,43.8L181.3,39.8L179.8,38.4L177.5,40.8L179.4,43.5L173.0,46.3L167.0,49.8L167.7,52.3L171.0,58.1L170.7,61.0L167.0,63.5L162.3,57.6L166.0,52.5L166.3,48.0L165.0,47.1L164.4,43.3L168.7,41.7L169.0,41.3Z " data-iso="VEN" data-name="Venezuela" data-pop="26814843.0"/></g></svg>