<?xml version="1.0" encoding="UTF-8"?><!DOCTYPE svg  PUBLIC '-//W3C//DTD SVG 1.1//EN'  'http://www.w3.org/Graphics/SVG/1.1/DTD/svg11.dtd'><svg enable_background="new 0 0 450 301" height="301px" style="stroke-linejoin: round; stroke:#000; fill:#f6f3f0;" version="1.1" viewBox="0 0 450 301" width="450px" xmlns="http://www.w3.org/2000/svg" xmlns:xlink="http://www.w3.org/1999/xlink"><defs><style type="text/css"><![CDATA[path { fill-rule: evenodd; }
#context path { fill: #eee; stroke: #bbb; } ]]></style></defs><metadata><views><view h="301.0" padding="0.06" w="450"><proj id="laea" lat0="24.9427672386" lon0="39.9504406811"/><bbox h="222.51" w="266.84" x="926.21" y="897.14"/><llbbox lat0="-90" lat1="90" lon0="-180" lon1="180"/></view></views></metadata><g id="context"><path d="M443,32L449,33L450,34L450,20L448,23L446,27L443,32Z M450,0L436,0L450,5L450,6L450,0Z " data-iso="AFG"/><path d="M346,140L347,137L344,139L346,140Z M384,105L382,110L377,116L371,124L365,132L362,138L355,142L342,142L336,142L329,146L324,145L321,141L320,142L320,144L337,163L376,164L377,163L377,160L377,154L380,143L379,142L383,134L382,126L385,125L386,127L391,123L390,122L389,113L388,112L386,112L386,111L384,105L384,105Z " data-iso="ARE"/><path d="M304,116L303,112L301,115L304,116Z " data-iso="BHR"/><path d="M98,186L97,185L91,180L88,176L83,174L80,170L78,165L78,155L78,154L82,154L73,145L64,124L61,119L57,110L56,108L54,98L53,96L51,90L51,87L46,82L42,75L39,65L35,57L37,53L39,52L41,59L45,67L47,76L54,85L58,88L61,90L64,84L65,80L67,73L69,65L71,62L72,62L69,50L67,45L65,36L64,33L63,31L63,31L63,31L56,33L48,32L40,33L37,30L33,33L29,29L34,29L32,26L18,26L12,26L10,25L0,30L0,182L11,183L13,180L14,183L27,184L92,186L98,187L98,186Z " data-iso="EGY"/><path d="M148,291L146,289L145,293L152,293L148,291Z M124,253L118,260L106,265L105,268L98,269L96,276L96,281L89,299L141,299L138,294L136,290L134,288L133,283L132,274L128,263L124,253Z M147,299L143,295L142,298L147,299Z " data-iso="ERI"/><path d="M65,31L65,30L67,26L66,28L63,31L63,31L64,33L65,31Z " data-iso="GAZ"/><path d="M384,91L382,90L372,98L377,96L381,95L384,91Z M231,0L231,3L237,5L245,11L248,10L251,16L256,21L254,28L255,34L259,34L260,43L265,46L267,50L268,51L269,51L273,48L274,41L278,43L274,44L283,49L289,45L290,45L293,51L299,58L300,62L303,63L303,66L310,77L310,78L314,82L328,85L332,90L348,98L356,98L360,99L366,99L373,95L376,91L380,89L382,87L391,86L392,87L403,107L412,108L413,109L425,108L429,110L435,108L437,109L443,109L449,109L450,107L450,39L448,37L446,35L443,32L443,32L446,27L448,23L450,20L450,6L450,5L436,0L231,0Z " data-iso="IRN"/><path d="M134,19L137,20L151,22L168,32L178,39L182,42L214,66L238,68L240,67L242,64L248,51L253,50L260,51L260,51L266,51L267,51L268,51L267,50L265,46L260,43L259,34L255,34L254,28L256,21L251,16L248,10L245,11L237,5L231,3L231,0L129,0L131,13L132,16L136,17L134,19Z " data-iso="IRQ"/><path d="M77,4L73,17L71,21L68,26L67,26L65,30L65,31L64,33L65,36L67,45L69,50L72,62L73,60L76,50L77,44L81,31L81,29L81,29L73,31L75,25L78,24L76,23L75,17L76,12L78,11L82,14L83,14L84,10L84,9L86,8L87,8L87,7L89,5L89,2L88,0L83,0L83,2L82,2L77,2L77,4Z " data-iso="ISR"/><path d="M87,8L86,8L84,9L84,10L83,14L83,16L83,20L83,24L81,27L81,29L81,31L77,44L76,50L73,60L73,62L73,64L89,67L117,46L102,29L131,21L134,19L136,17L132,16L131,13L129,0L126,0L101,15L96,15L90,12L88,9L87,8Z " data-iso="JOR"/><path d="M265,57L266,54L262,54L265,57Z M260,51L253,50L248,51L242,64L240,67L243,67L253,68L257,75L268,75L268,73L264,68L262,61L257,61L260,57L263,58L260,52L260,51Z " data-iso="KWT"/><path d="M77,2L82,2L83,2L83,0L79,0L78,1L77,2Z " data-iso="LBN"/><path d="M435,197L438,192L437,189L434,195L435,197Z M377,163L378,164L385,173L378,208L335,228L333,229L334,230L347,256L348,256L353,266L357,265L362,264L369,259L373,258L380,259L384,257L387,252L386,249L389,243L391,242L403,239L406,236L407,228L414,222L424,219L421,206L423,197L425,193L427,195L431,195L436,182L444,170L448,158L447,157L441,155L429,142L426,141L422,141L419,140L411,140L405,139L400,135L393,127L391,123L386,127L385,125L382,126L383,134L379,142L380,143L377,154L377,160L377,163Z M384,105L386,111L386,112L388,112L388,111L389,104L385,103L384,105Z " data-iso="OMN"/><path d="M443,32L446,35L448,37L450,39L450,34L449,33L443,32Z " data-iso="PAK"/><path d="M317,136L319,132L319,127L317,121L317,119L315,113L313,111L308,119L306,124L308,133L308,134L309,136L315,137L317,136Z " data-iso="QAT"/><path d="M177,274L177,271L174,273L177,274Z M134,19L131,21L102,29L117,46L89,67L73,64L70,74L70,78L67,85L68,84L75,86L78,91L81,96L83,99L84,102L90,110L94,118L96,119L96,122L103,132L105,143L108,149L114,151L120,155L122,159L129,172L132,180L130,189L132,195L132,198L134,204L144,215L147,216L153,220L158,224L168,246L173,255L178,259L182,262L186,272L188,273L190,278L190,280L195,275L196,263L200,261L206,263L221,261L231,263L246,264L252,263L256,268L259,268L264,265L268,257L274,247L288,239L290,238L330,230L333,229L335,228L378,208L385,173L378,164L377,163L376,164L337,163L320,144L320,142L320,142L316,141L317,139L316,137L315,137L309,136L308,134L307,133L304,130L303,126L298,121L297,113L297,110L294,106L296,104L293,101L289,100L286,96L280,92L281,91L276,89L275,85L269,76L268,75L257,75L253,68L243,67L240,67L238,68L214,66L182,42L178,39L168,32L151,22L137,20L134,19Z " data-iso="SAU"/><path d="M123,252L119,250L106,239L104,235L103,227L103,223L103,211L102,201L103,200L101,198L98,190L98,187L92,186L27,184L14,183L13,180L11,183L0,182L0,299L89,299L96,281L96,276L98,269L105,268L106,265L118,260L124,253L123,252Z " data-iso="SDN"/><path d="M87,8L88,9L90,12L96,15L101,15L126,0L88,0L89,2L89,5L87,7L87,8Z " data-iso="SYR"/><path d="M82,14L78,11L76,12L75,17L76,23L78,24L75,25L73,31L81,29L81,29L81,27L83,24L83,20L83,16L83,14L82,14Z " data-iso="WEB"/><path d="M353,266L348,256L347,256L334,230L333,229L330,230L290,238L288,239L274,247L268,257L264,265L259,268L256,268L252,263L246,264L231,263L221,261L206,263L200,261L196,263L195,275L190,280L191,285L189,292L191,296L189,299L310,299L315,296L327,292L341,284L340,279L341,275L346,270L353,266Z " data-iso="YEM"/></g><g fill="red" fill-opacity="0.35" id="regions"><path d="M142,109L141,109L135,110L133,109L128,107L123,106L122,107L115,102L112,97L109,99L104,97L99,100L102,109L104,110L104,113L105,119L106,118L109,120L112,124L114,129L115,129L116,139L109,142L106,144L108,147L115,151L116,152L122,158L124,162L125,163L125,163L129,163L137,169L142,168L145,170L148,179L151,177L156,177L167,166L165,164L172,159L174,154L176,154L176,153L176,148L177,144L177,143L176,142L174,138L171,136L170,130L167,128L167,128L165,128L161,127L157,128L154,131L145,131L145,126L144,121L145,116L142,114L143,111L143,110L142,109Z " data-fips="SA05" data-fips-="" data-iso3="SAU" data-name="Al Madinah"/><path d="M213,100L211,102L208,101L204,98L202,98L194,103L192,106L183,112L177,119L178,120L174,121L175,125L167,128L167,128L167,128L170,130L171,136L174,138L176,142L177,143L177,143L180,141L182,141L191,142L192,138L196,133L201,132L207,127L216,126L215,120L211,113L211,111L214,106L217,102L215,100L214,99L213,100Z " data-fips="SA08" data-fips-="" data-iso3="SAU" data-name="Al Quassim"/><path d="M216,94L211,90L205,89L201,81L200,80L197,82L191,81L189,78L185,78L181,75L175,74L170,74L164,73L156,75L155,75L153,74L153,74L147,76L141,79L139,80L133,83L131,85L131,85L138,87L143,92L144,98L148,101L143,110L143,110L143,111L142,114L145,116L144,121L145,126L145,131L154,131L157,128L161,127L165,128L167,128L167,128L175,125L174,121L178,120L177,119L183,112L192,106L194,103L202,98L204,98L208,101L211,102L213,100L214,99L214,99L214,97L214,96L215,95L216,94L216,94Z " data-fips="SA13" data-fips-="" data-iso3="SAU" data-name="Ha'il"/><path d="M71,72L70,78L67,84L76,86L75,86L80,95L82,98L84,102L87,106L94,118L96,120L96,122L97,124L102,129L104,135L104,139L105,143L106,144L109,142L116,139L115,129L114,129L112,124L109,120L106,118L105,119L104,113L104,110L102,109L99,100L104,97L109,99L112,97L115,102L122,107L123,106L128,107L133,109L135,110L141,109L142,109L143,110L143,110L148,101L144,98L143,92L138,87L131,85L131,85L130,84L126,85L125,84L118,83L115,82L113,80L113,73L108,78L100,76L94,78L90,72L88,71L81,70L78,71L71,71L71,72Z " data-fips="SA19" data-fips-="" data-iso3="SAU" data-name="Tabuk"/><path d="M117,25L115,32L120,39L134,38L144,40L148,42L159,43L162,45L167,46L169,48L173,52L171,55L159,62L156,65L156,72L153,74L155,75L156,75L164,73L170,74L175,74L181,75L185,78L189,78L191,81L197,82L200,80L201,81L205,89L211,90L216,94L216,94L216,94L217,95L218,95L219,94L219,94L222,86L227,76L230,72L239,67L238,68L214,66L201,57L185,45L175,36L151,22L134,19L131,21L117,25Z " data-fips="SA15" data-fips-="" data-iso3="SAU" data-name="Al Hudud ash Shamaliyah"/><path d="M117,25L103,29L117,46L109,54L99,56L95,62L89,67L72,64L71,71L71,71L78,71L81,70L88,71L90,72L94,78L100,76L108,78L113,73L113,80L115,82L118,83L125,84L126,85L130,84L131,85L133,83L139,80L141,79L147,76L153,74L153,74L156,72L156,65L159,62L171,55L173,52L169,48L167,46L162,45L159,43L148,42L144,40L134,38L120,39L115,32L117,25L117,25Z " data-fips="SA03" data-fips-="SA20" data-iso3="SAU" data-name="Al Jawf"/><path d="M176,209L169,210L168,208L165,208L164,214L162,216L160,217L158,219L161,222L161,227L165,231L167,230L169,224L172,224L172,223L174,220L175,217L177,215L176,212L177,210L176,209Z " data-fips="SA02" data-fips-="" data-iso3="SAU" data-name="Al Bahah"/><path d="M216,227L210,221L207,217L208,210L205,205L202,203L201,204L191,206L187,209L181,214L179,213L177,210L177,210L176,212L177,215L175,217L174,220L172,223L173,223L175,225L174,227L175,230L173,233L168,234L167,238L173,241L174,246L174,248L175,248L176,252L178,252L181,255L188,258L189,255L192,253L192,255L197,259L199,261L199,261L202,261L203,262L203,262L204,253L204,248L211,240L214,239L215,236L214,233L216,229L216,227L216,227Z " data-fips="SA11" data-fips-="" data-iso3="SAU" data-name="`Asir"/><path d="M176,274L175,272L174,273L177,275L180,277L180,274L176,274Z M177,271L175,271L176,273L177,271Z M174,248L173,249L173,249L172,250L171,251L171,251L174,255L182,262L183,269L184,267L189,274L190,278L195,276L197,273L195,271L196,266L197,265L198,262L199,261L197,259L192,255L192,253L189,255L188,258L181,255L178,252L176,252L175,248L174,248Z " data-fips="SA17" data-fips-="" data-iso3="SAU" data-name="Jizan"/><path d="M174,154L172,159L165,164L167,166L156,177L151,177L148,179L145,170L142,168L137,169L129,163L125,163L126,164L130,172L129,173L131,177L131,182L130,189L133,196L131,198L135,205L142,214L149,217L152,220L156,224L157,224L158,227L164,235L164,237L165,239L165,242L171,251L171,251L172,250L173,249L173,249L174,248L174,246L173,241L167,238L168,234L173,233L175,230L174,227L175,225L173,223L172,223L172,224L169,224L167,230L165,231L161,227L161,222L158,219L160,217L162,216L164,214L165,208L168,208L169,210L176,209L177,210L177,210L179,213L181,214L187,209L191,206L201,204L202,203L198,197L200,187L199,181L199,178L192,177L192,173L189,171L186,171L182,170L180,165L178,159L176,156L176,154L174,154Z " data-fips="SA14" data-fips-="" data-iso3="SAU" data-name="Makkah"/><path d="M265,225L228,231L224,231L221,230L216,227L216,229L214,233L215,236L214,239L211,240L204,248L204,253L203,262L204,263L208,264L209,263L219,261L228,261L232,263L246,264L260,268L264,265L264,265L267,225L265,225Z " data-fips="SA16" data-fips-="" data-iso3="SAU" data-name="Najran"/><path d="M269,192L272,156L269,146L258,137L257,115L256,113L251,111L246,108L244,108L236,105L234,105L229,101L223,99L219,94L219,94L218,95L217,95L216,94L216,94L215,95L214,96L214,97L214,99L214,99L215,100L217,102L214,106L211,111L211,113L215,120L216,126L207,127L201,132L196,133L192,138L191,142L182,141L180,141L177,143L177,143L177,144L176,148L176,153L176,154L176,156L178,159L180,165L182,170L186,171L189,171L192,173L192,177L199,178L199,181L200,187L198,197L202,203L205,205L208,210L207,217L210,221L216,227L216,227L221,230L224,231L228,231L265,225L267,225L269,192Z " data-fips="SA10" data-fips-="" data-iso3="SAU" data-name="Ar Riyad"/><path d="M239,67L230,72L227,76L222,86L219,94L219,94L219,94L223,99L229,101L234,105L236,105L244,108L246,108L251,111L256,113L257,115L258,137L269,146L272,156L269,192L267,225L264,265L264,265L266,259L274,247L289,239L333,229L382,189L385,173L377,163L337,163L320,145L320,142L316,141L318,138L316,138L310,137L304,130L302,124L295,115L294,115L294,112L297,113L296,108L295,107L293,104L295,104L286,97L283,96L282,92L280,90L274,87L276,86L271,81L269,75L257,75L254,68L240,67L239,67Z " data-fips="SA06" data-fips-="" data-iso3="SAU" data-name="Ash Sharqiyah"/></g></svg>