<?xml version="1.0" encoding="UTF-8"?><!DOCTYPE svg  PUBLIC '-//W3C//DTD SVG 1.1//EN'  'http://www.w3.org/Graphics/SVG/1.1/DTD/svg11.dtd'><svg enable_background="new 0 0 450 301" height="301px" style="stroke-linejoin: round; stroke:#000; fill:#f6f3f0;" version="1.1" viewBox="0 0 450 301" width="450px" xmlns="http://www.w3.org/2000/svg" xmlns:xlink="http://www.w3.org/1999/xlink"><defs><style type="text/css"><![CDATA[path { fill-rule: evenodd; }
#context path { fill: #eee; stroke: #bbb; } ]]></style></defs><metadata><views><view h="301.0" padding="0.06" w="450"><proj id="laea" lat0="11.0942972887" lon0="34.053577784"/><bbox h="189.28" w="224.76" x="840.9" y="850.61"/><llbbox lat0="-90" lat1="90" lon0="-180" lon1="180"/></view></views></metadata><g id="context"><path d="M108,280L106,280L97,278L97,275L95,272L98,267L99,257L97,253L92,245L86,238L85,235L84,235L78,234L69,237L64,240L63,243L56,252L54,253L49,258L44,263L36,269L30,268L28,269L9,271L12,277L8,281L0,288L0,299L129,299L121,291L119,290L111,288L109,286L109,281L108,280Z " data-iso="CAF"/><path d="M450,218L446,222L446,224L447,236L448,237L450,218Z " data-iso="DJI"/><path d="M134,21L141,21L176,22L197,23L248,23L250,20L251,24L284,24L314,24L350,23L350,23L349,22L342,16L338,11L332,9L328,5L326,0L135,0L135,12L134,16L134,21Z " data-iso="EGY"/><path d="M413,145L413,143L410,142L410,147L418,147L413,145Z M383,101L380,104L377,109L373,110L367,112L363,115L362,118L354,120L352,128L352,134L345,155L343,157L345,169L346,174L346,174L353,174L358,170L365,176L371,162L373,164L377,166L380,170L383,170L389,169L394,166L396,169L402,168L406,169L426,175L433,183L437,187L445,193L450,200L450,183L443,178L433,166L426,163L423,161L415,158L412,154L411,152L407,151L407,156L401,148L400,144L397,141L396,136L394,125L389,112L383,101Z " data-iso="ERI"/><path d="M346,174L344,179L339,197L338,204L330,206L328,208L322,219L316,232L315,239L309,240L303,247L301,259L299,267L299,268L299,269L300,285L297,288L284,288L279,299L450,299L448,237L447,236L446,224L446,222L450,218L450,200L445,193L437,187L433,183L426,175L406,169L402,168L396,169L394,166L389,169L383,170L380,170L377,166L373,164L371,162L365,176L358,170L353,174L346,174L346,174Z M360,222L357,221L356,221L355,220L355,215L356,214L357,213L360,214L361,213L364,212L364,212L366,216L366,218L364,221L363,223L362,225L361,224L361,224L360,222Z " data-iso="ETH"/><path d="M113,69L114,66L114,59L132,59L134,30L134,21L134,16L135,12L135,0L1,0L38,23L46,28L105,64L113,69Z " data-iso="LBY"/><path d="M450,124L448,122L446,124L446,120L443,123L450,127L450,124Z M384,0L387,6L389,11L390,15L388,25L392,32L391,36L394,43L406,56L409,56L417,61L419,64L422,66L429,79L432,86L435,91L442,102L450,108L450,0L384,0Z " data-iso="SAU"/><path d="M134,21L134,30L132,59L114,59L114,66L113,69L113,77L110,141L110,142L94,142L90,145L90,152L85,157L79,164L81,172L73,177L75,188L67,197L67,198L77,201L78,203L79,211L80,214L80,220L81,224L86,227L86,233L85,235L86,238L92,245L97,253L99,257L98,267L95,272L97,275L97,278L106,280L108,280L108,280L108,280L111,278L116,276L118,270L118,267L121,264L122,258L131,249L141,247L143,252L148,256L155,265L157,266L165,263L179,264L183,269L199,270L199,267L204,263L211,261L213,258L213,255L221,251L230,257L236,262L244,261L253,253L258,244L267,237L266,233L266,224L261,218L274,218L283,214L280,226L282,241L287,247L296,253L297,260L296,263L299,268L299,268L299,268L299,267L301,259L303,247L309,240L315,239L316,232L322,219L328,208L330,206L338,204L339,197L344,179L346,174L345,169L343,157L345,155L352,134L352,128L354,120L362,118L363,115L367,112L373,110L377,109L380,104L383,101L383,99L378,97L362,85L360,80L358,70L358,66L356,60L357,51L356,48L355,41L356,39L351,31L350,28L350,23L314,24L284,24L251,24L250,20L248,23L197,23L176,22L141,21L134,21Z " data-iso="SDN"/><path d="M299,268L299,268L299,268L296,263L297,260L296,253L287,247L282,241L280,226L283,214L274,218L261,218L266,224L266,233L267,237L258,244L253,253L244,261L236,262L230,257L221,251L213,255L213,258L211,261L204,263L199,267L199,270L183,269L179,264L165,263L157,266L155,265L148,256L143,252L141,247L131,249L122,258L121,264L118,267L118,270L116,276L111,278L108,280L108,280L108,280L109,281L109,286L111,288L119,290L121,291L129,299L279,299L284,288L297,288L300,285L299,269L299,268Z " data-iso="SSD"/><path d="M85,235L86,233L86,227L81,224L80,220L80,214L79,211L78,203L77,201L67,198L67,197L75,188L73,177L81,172L79,164L85,157L90,152L90,145L94,142L110,142L110,141L113,77L113,69L105,64L46,28L38,23L1,0L0,0L0,288L8,281L12,277L9,271L28,269L30,268L36,269L44,263L49,258L54,253L56,252L63,243L64,240L69,237L78,234L84,235L85,235Z " data-iso="TCD"/></g><g fill="red" fill-opacity="0.35" id="regions"><path d="M283,214L283,216L280,226L282,241L288,247L296,254L297,260L296,263L296,268L299,266L302,257L304,252L303,246L306,242L308,240L313,244L316,241L315,238L317,235L316,232L318,227L319,221L320,221L319,220L313,213L307,205L302,205L288,214L283,214L283,214Z " data-fips="SU42" data-fips-="SU04" data-iso3="SDN" data-name="Blue Nile"/><path d="M283,24L290,29L285,33L286,39L285,39L285,45L289,48L292,53L291,63L292,69L291,73L300,94L311,99L314,103L317,107L319,111L329,117L335,121L336,121L353,119L353,119L361,120L363,117L363,114L367,113L368,111L376,110L383,99L377,96L378,95L374,94L367,87L363,87L358,71L358,66L356,61L356,53L357,53L354,39L355,37L352,34L350,23L283,24Z " data-fips="EG02" data-fips-="SU08" data-iso3="SDN" data-name="Red Sea"/><path d="M87,229L97,225L111,217L113,214L112,211L109,204L120,194L116,194L115,193L118,185L116,185L110,188L108,188L99,184L101,178L107,172L112,165L111,159L109,149L110,142L110,142L105,142L95,142L93,142L90,145L91,148L84,158L85,161L79,163L80,168L82,172L75,175L72,179L75,183L75,189L69,193L69,201L76,201L78,202L77,205L79,211L78,213L80,213L79,221L82,224L86,226L87,229L87,229Z " data-fips="SU47" data-fips-="SU07" data-iso3="SDN" data-name="West Darfur"/><path d="M120,194L109,204L112,211L113,214L111,217L97,225L87,229L87,230L85,236L88,240L93,245L99,257L100,261L97,269L95,270L95,273L97,275L102,279L109,280L110,278L116,276L116,274L118,271L119,267L121,264L123,257L125,255L127,249L128,249L140,247L142,248L143,251L146,256L148,256L155,265L157,266L165,263L180,264L180,264L176,255L176,253L170,236L169,230L168,228L169,223L168,220L165,220L156,219L153,216L149,216L146,212L141,201L138,199L134,196L126,195L120,194Z " data-fips="SU49" data-fips-="SU07" data-iso3="SDN" data-name="South Darfur"/><path d="M299,140L291,141L288,140L279,138L272,134L262,132L258,128L258,127L257,127L253,130L258,140L260,144L264,151L265,152L266,156L266,156L268,156L270,156L272,156L272,156L276,154L285,152L289,151L290,150L292,147L294,146L298,148L305,149L302,143L302,141L301,140L299,140Z " data-fips="SU29" data-fips-="SU03" data-iso3="SDN" data-name="Khartoum"/><path d="M297,178L296,176L303,165L298,157L291,153L289,151L285,152L276,154L272,156L272,156L272,157L270,159L273,162L273,166L268,173L269,178L273,188L275,186L275,185L279,184L281,179L283,178L286,181L287,181L291,177L297,179L297,179L297,178Z " data-fips="SU38" data-fips-="SU04" data-iso3="SDN" data-name="Gezira"/><path d="M305,149L298,148L294,146L292,147L290,150L289,151L291,153L298,157L303,165L296,176L297,178L297,179L298,179L299,182L304,190L313,196L316,199L320,201L330,205L330,205L337,204L338,205L340,192L344,183L346,174L344,164L326,167L323,167L319,162L316,155L315,154L307,149L305,149Z " data-fips="SU39" data-fips-="SU08" data-iso3="SDN" data-name="Gedarif"/><path d="M329,117L319,111L317,107L314,103L311,99L300,94L291,73L292,69L291,63L292,53L289,48L285,45L285,39L286,39L285,33L290,29L283,24L282,24L271,24L264,84L271,96L273,104L271,108L258,127L258,128L262,132L272,134L279,138L288,140L291,141L299,140L301,140L302,139L307,132L327,129L328,128L329,124L329,117Z " data-fips="SU53" data-fips-="SU05" data-iso3="SDN" data-name="River Nile"/><path d="M132,59L133,60L178,61L176,126L243,129L249,129L250,129L253,130L257,127L258,127L271,108L273,104L271,96L264,84L271,24L252,24L251,24L250,20L248,23L134,21L132,59Z " data-fips="SU43" data-fips-="SU05" data-iso3="SDN" data-name="Northern"/><path d="M270,156L268,156L266,156L266,156L260,158L257,161L255,166L252,167L251,175L251,177L255,182L258,188L259,188L261,194L254,199L253,200L254,207L255,213L257,214L261,218L274,218L274,214L274,214L283,214L280,205L280,200L277,195L276,187L275,186L273,188L269,178L268,173L273,166L273,162L270,159L272,157L272,156L270,156Z " data-fips="SU41" data-fips-="SU04" data-iso3="SDN" data-name="White Nile"/><path d="M275,186L276,187L277,195L280,200L280,205L283,214L283,214L288,214L302,205L307,205L313,213L319,220L320,221L321,220L324,215L325,213L330,205L330,205L320,201L316,199L313,196L304,190L299,182L298,179L297,179L297,179L291,177L287,181L286,181L283,178L281,179L279,184L275,185L275,186Z " data-fips="SU58" data-fips-="" data-iso3="SDN" data-name="Sennar"/><path d="M132,59L132,60L114,59L113,69L110,142L109,149L111,159L112,165L107,172L101,178L99,184L108,188L110,188L116,185L118,185L115,193L116,194L120,194L126,195L134,196L138,199L141,201L146,212L149,216L153,216L156,219L165,220L168,220L167,218L166,216L165,215L166,212L166,212L165,209L165,209L165,209L165,209L166,207L168,198L171,195L174,188L175,185L174,183L175,178L170,163L168,161L165,126L176,126L176,126L178,61L133,60L132,59L132,59Z " data-fips="SU55" data-fips-="SU07" data-iso3="SDN" data-name="North Darfur"/><path d="M212,212L212,212L207,212L202,208L196,216L195,218L189,219L184,218L180,225L174,230L169,229L168,228L169,230L170,236L176,253L176,253L176,255L179,261L180,264L182,268L183,269L199,270L200,266L204,263L211,261L214,258L214,256L221,252L230,257L236,262L245,261L253,253L258,244L267,237L267,233L266,224L261,218L257,214L255,213L254,207L250,205L244,206L236,213L234,213L231,209L228,208L222,207L222,205L220,203L212,212L212,212Z " data-fips="SU50" data-fips-="SU09" data-iso3="SDN" data-name="South Kordufan"/><path d="M176,126L165,126L168,161L170,163L175,178L174,183L175,185L174,188L171,195L168,198L166,207L165,209L165,209L165,209L165,209L166,212L166,212L165,215L166,216L167,218L168,220L169,223L168,228L169,229L174,230L180,225L184,218L189,219L195,218L196,216L202,208L207,212L212,212L212,212L212,212L220,203L222,205L222,207L228,208L231,209L234,213L236,213L244,206L250,205L254,207L253,200L254,199L261,194L259,188L258,188L255,182L251,177L251,175L252,167L255,166L257,161L260,158L266,156L265,152L264,151L260,144L258,140L253,130L250,129L249,129L243,129L176,126L176,126Z " data-fips="SU56" data-fips-="SU09" data-iso3="SDN" data-name="North Kordufan"/><path d="M329,117L329,124L328,128L327,129L307,132L302,139L301,140L302,141L302,143L305,149L307,149L315,154L316,155L319,162L323,167L326,167L344,164L343,157L347,149L348,146L350,143L353,132L352,130L354,125L353,119L353,119L336,121L335,121L329,117Z " data-fips="SU52" data-fips-="SU08" data-iso3="SDN" data-name="Kassala"/></g></svg>