<?xml version="1.0" encoding="UTF-8"?><!DOCTYPE svg  PUBLIC '-//W3C//DTD SVG 1.1//EN'  'http://www.w3.org/Graphics/SVG/1.1/DTD/svg11.dtd'><svg enable_background="new 0 0 450 301" height="301px" style="stroke-linejoin: round; stroke:#000; fill: none;" version="1.1" viewBox="0 0 450 301" width="450px" xmlns="http://www.w3.org/2000/svg" xmlns:xlink="http://www.w3.org/1999/xlink"><defs><style type="text/css"><![CDATA[path { fill-rule: evenodd; }]]></style></defs><metadata><views><view h="301" padding="0" w="450"><proj id="laea" lon0="-14.471306027622536" lat0="14.36778857887587"/><bbox x="954.98" y="968.08" w="90.75" h="60.50"/></view></views></metadata><g class="" id="context"><path d="M114,0L107,18L106,28L102,37L101,70L103,67L103,57L106,46L111,44L114,30L117,26L122,26L126,24L130,28L140,26L153,29L156,26L161,26L165,23L168,25L173,23L185,23L187,22L185,19L186,18L190,20L194,16L197,19L222,20L227,18L231,20L231,23L235,23L235,25L238,26L252,38L253,44L258,47L261,51L263,50L267,47L268,47L267,50L270,52L281,49L280,52L284,52L291,62L291,65L293,69L293,72L296,76L295,79L296,81L299,81L304,83L305,89L312,88L315,97L320,102L317,103L317,104L319,106L323,106L323,110L327,113L332,113L341,118L343,125L355,133L361,132L365,135L367,133L370,133L373,130L377,128L380,125L380,117L378,116L378,108L385,86L390,86L392,85L397,81L397,79L401,80L404,82L410,91L425,102L433,112L438,100L443,97L444,92L450,92L450,0L114,0Z" data-iso="MRT"/><path d="M421,297L427,293L428,289L434,288L443,296L442,300L450,300L450,92L444,92L443,97L438,100L433,112L425,102L410,91L404,82L397,79L397,82L390,86L385,86L378,108L378,116L380,117L380,125L377,128L373,130L370,133L367,133L365,135L361,132L356,133L354,133L356,137L359,138L358,140L360,141L356,148L357,156L363,158L363,161L367,164L370,170L368,181L372,186L372,190L369,195L364,198L369,207L377,213L376,218L379,220L381,222L384,220L386,216L388,218L391,217L392,219L393,219L394,221L397,225L396,228L398,234L403,236L403,238L405,240L404,243L406,243L406,241L407,243L407,245L405,246L406,247L405,251L406,253L406,257L403,261L404,263L404,267L403,269L405,271L406,270L407,273L407,272L408,273L408,278L404,279L404,284L401,290L402,293L408,296L411,300L420,300L421,297Z" data-iso="MLI"/><path d="M263,300L256,295L253,294L253,292L255,290L261,286L264,286L263,287L267,287L270,285L272,275L267,267L268,262L180,262L151,276L119,275L107,281L92,281L88,282L92,282L96,286L98,286L104,292L108,290L111,291L113,285L112,289L114,290L118,286L123,284L125,282L128,281L116,289L116,292L115,291L113,292L110,297L111,300L263,300Z" data-iso="GNB"/><path d="M408,296L403,294L401,290L404,284L404,279L408,278L408,277L402,276L395,276L385,279L381,279L376,277L371,279L365,278L360,281L349,284L347,281L343,279L336,281L332,277L325,276L316,270L314,270L312,274L308,274L306,271L308,266L307,264L268,262L267,267L272,275L270,285L267,287L263,287L264,286L261,286L255,290L253,294L261,298L263,300L411,300L408,296ZM442,300L443,296L434,288L428,289L427,293L421,297L420,300L442,300Z" data-iso="GIN"/><path d="M142,232L144,221L156,220L161,218L169,220L175,219L178,216L180,209L184,206L195,214L204,216L208,220L212,221L216,220L229,228L239,228L244,225L257,223L260,221L262,216L257,209L252,207L230,214L223,210L219,203L214,201L207,204L204,202L202,197L199,194L186,192L176,197L174,194L168,195L164,199L161,206L99,206L99,212L102,216L101,219L108,221L114,220L113,219L115,217L115,219L116,219L123,214L146,213L152,211L155,212L159,210L171,214L173,214L174,212L174,214L172,215L159,211L155,214L152,213L146,215L140,215L133,216L123,215L119,221L120,226L123,225L120,226L119,226L119,222L117,222L110,225L109,224L106,225L110,228L107,229L107,226L100,224L97,221L95,215L97,214L96,212L93,213L92,211L84,218L83,221L85,227L85,236L87,237L90,232L92,231L142,232Z" data-iso="GMB"/><path d="M81,105L63,125L52,131L42,133L48,140L49,136L48,135L49,135L54,135L60,138L65,143L69,151L76,156L77,162L79,164L80,169L84,171L86,176L86,190L87,182L90,178L89,176L94,174L90,179L94,180L99,176L102,171L105,171L105,168L111,170L109,171L106,171L97,178L100,178L98,181L97,180L95,183L94,181L91,181L88,183L88,190L91,194L95,190L100,188L104,180L102,188L103,192L102,192L101,189L99,190L100,191L98,190L95,195L95,200L97,201L100,199L101,196L102,196L101,199L102,199L98,202L99,206L161,206L164,199L168,195L174,194L176,197L187,192L199,194L202,197L204,202L207,204L214,201L219,203L223,210L230,214L252,207L257,209L262,216L260,221L257,223L244,225L239,228L229,228L216,220L212,221L208,220L204,216L195,214L184,206L180,209L178,216L175,219L169,220L161,218L156,220L151,220L143,221L142,232L90,232L87,236L87,247L84,253L86,254L84,259L88,257L90,258L88,258L86,261L85,265L87,268L93,264L93,259L96,254L97,256L94,262L96,262L98,260L102,264L102,259L104,261L103,264L110,268L113,265L123,265L127,264L129,263L131,258L133,263L137,266L140,266L142,267L146,265L152,266L152,268L153,269L159,263L159,254L165,252L167,253L168,252L167,254L165,253L164,254L160,255L160,262L161,264L157,269L153,270L148,267L141,269L140,268L136,267L130,264L120,267L119,266L117,267L113,266L110,269L102,266L100,268L97,264L93,268L88,269L84,272L84,276L87,279L88,282L92,281L107,281L119,275L151,276L180,262L268,262L306,264L307,265L306,271L308,274L312,274L314,270L316,270L325,276L332,277L336,281L343,279L347,281L349,284L360,281L365,278L371,279L376,277L381,279L385,279L400,276L408,277L408,273L407,272L407,273L406,270L405,271L403,269L404,267L404,263L403,261L406,257L406,253L405,251L406,247L405,246L407,245L407,242L404,243L405,240L403,238L403,236L398,234L396,228L397,225L394,221L393,219L392,219L391,217L388,218L386,216L384,220L381,222L379,220L376,218L377,213L369,207L364,198L371,193L373,187L368,181L370,171L368,165L363,162L362,160L363,158L357,156L356,148L360,142L358,139L359,138L356,137L354,133L343,125L341,118L332,113L327,113L323,110L323,106L319,106L317,104L317,103L320,102L315,97L312,88L305,89L304,83L299,81L296,81L295,79L296,76L293,72L293,69L291,65L291,62L284,52L280,52L281,49L270,52L267,50L268,47L267,47L263,50L261,51L258,47L253,44L252,38L238,26L235,25L235,23L231,23L231,19L227,18L222,20L197,19L194,16L190,20L186,18L185,19L187,22L185,23L173,23L168,25L165,23L161,26L156,26L153,29L140,26L130,28L126,24L122,26L117,26L114,30L111,44L106,47L101,72L81,105Z" data-iso="SEN"/></g><g class="" id="regions"><path d="M151,129L143,119L128,119L120,124L114,119L109,118L95,122L93,126L95,128L95,132L98,138L96,142L101,145L103,143L110,143L113,145L119,144L124,147L131,148L137,148L140,147L144,143L144,137L146,135L149,137L153,137L164,142L166,146L168,144L169,138L166,135L165,129L151,129Z" data-region="DB" data-iso3="SEN" data-name="Diourbel" data-p="DB"/><path d="M65,142L66,134L63,125L52,131L42,133L48,140L49,136L48,135L54,135L61,138L65,142Z" data-region="DK" data-iso3="SEN" data-name="Dakar" data-p="DK"/><path d="M127,206L123,200L122,196L118,192L121,186L120,182L118,179L119,174L115,171L106,171L97,178L100,178L98,181L97,180L95,183L94,181L91,181L88,183L88,190L91,194L95,190L100,188L104,180L102,188L103,192L102,192L101,189L99,190L100,191L98,190L95,195L95,200L97,201L100,199L101,196L102,196L101,199L102,199L98,202L99,206L127,206ZM110,170L117,160L126,158L132,160L135,158L143,158L150,151L157,147L166,146L166,143L153,137L149,137L146,135L144,137L144,143L140,147L137,148L131,148L117,144L113,145L110,143L102,144L97,151L91,154L88,166L88,167L86,169L87,171L84,172L86,178L86,190L87,182L90,178L89,176L94,174L90,179L94,180L99,176L102,171L105,171L105,168L110,170Z" data-region="FK" data-iso3="SEN" data-name="Fatick" data-p="FK"/><path d="M200,195L203,191L210,188L214,185L215,181L216,179L216,167L214,161L213,147L201,143L198,139L188,144L177,142L169,138L168,144L166,146L157,147L150,151L145,157L144,163L141,171L141,178L144,179L145,183L150,187L150,191L152,195L155,195L157,191L168,195L174,194L176,197L186,192L197,193L200,195Z" data-region="KA" data-iso3="SEN" data-name="Kaffrine" data-p="KA"/><path d="M290,263L289,261L285,261L282,260L282,251L283,250L280,245L280,242L275,234L274,228L270,224L270,219L265,219L267,214L263,213L263,209L258,211L262,216L260,221L244,225L239,228L229,228L216,220L210,221L204,216L191,212L184,206L179,210L177,218L171,220L170,229L175,231L178,239L182,242L182,246L184,249L183,262L268,262L290,263Z" data-region="KD" data-iso3="SEN" data-name="Kolda" data-p="KD"/><path d="M371,219L366,222L366,219L355,214L354,215L353,217L355,220L355,223L350,223L348,226L347,224L344,224L339,230L336,231L334,230L330,231L329,235L326,239L323,238L320,243L312,238L309,238L304,241L299,239L293,240L291,234L290,234L292,232L291,228L288,225L289,221L283,221L281,223L280,222L277,224L276,222L274,227L275,234L279,240L281,247L283,248L282,260L285,261L289,261L291,264L294,263L307,264L308,266L306,271L308,274L312,274L314,270L316,270L325,276L332,277L336,281L343,279L347,281L349,284L360,281L365,278L371,279L376,277L381,279L385,279L400,276L408,277L408,273L407,272L407,273L406,270L405,271L403,269L404,267L404,263L403,261L406,257L406,253L405,251L406,247L405,246L407,245L407,243L406,241L406,243L404,243L405,240L403,238L403,236L398,234L396,228L397,225L394,221L393,219L392,219L391,217L388,218L386,216L384,220L381,222L376,218L371,219Z" data-region="KE" data-iso3="SEN" data-name="Kédougou" data-p="TC"/><path d="M163,201L168,195L157,191L155,195L152,195L150,191L150,187L145,183L144,179L141,178L141,171L144,163L145,157L143,158L135,158L132,160L126,158L117,160L114,162L110,170L115,171L119,174L118,179L120,182L121,187L118,192L122,196L123,200L127,206L161,206L163,201Z" data-region="KL" data-iso3="SEN" data-name="Kaolack" data-p="KL"/><path d="M90,90L92,93L90,102L96,107L97,111L102,107L106,99L113,100L114,105L116,104L117,106L118,113L122,120L125,121L128,119L144,119L144,122L149,125L151,129L165,129L166,135L167,137L177,142L186,144L191,143L197,140L200,142L202,140L203,135L206,133L208,129L204,117L219,113L217,112L220,97L215,98L205,93L207,89L207,78L214,75L219,70L216,66L210,61L206,61L201,59L167,58L167,62L157,63L143,47L138,52L124,60L120,64L118,68L111,70L101,70L101,72L90,90Z" data-region="LG" data-iso3="SEN" data-name="Louga" data-p="LG"/><path d="M259,58L258,60L252,66L233,81L222,74L219,70L214,75L207,78L207,89L205,93L215,98L220,97L217,112L219,113L204,117L208,129L206,133L203,135L202,140L200,142L213,147L214,150L221,148L227,143L230,141L235,146L264,157L280,156L297,144L313,147L326,145L331,137L336,126L335,123L329,114L323,110L323,106L319,106L317,104L317,103L320,102L315,97L312,89L311,88L308,90L305,89L304,83L299,81L296,81L295,79L296,76L293,72L293,69L291,65L291,62L284,52L280,52L281,49L270,52L267,50L265,55L259,58Z" data-region="MT" data-iso3="SEN" data-name="Matam" data-p="SL"/><path d="M183,262L184,249L182,246L182,242L178,239L175,231L170,229L171,220L161,218L156,220L151,220L143,221L142,232L138,232L137,234L138,237L133,246L133,250L131,258L133,263L138,266L140,266L142,267L146,265L150,265L152,266L152,268L153,269L159,263L159,254L165,252L167,253L168,252L167,254L165,253L164,254L160,255L160,262L161,264L157,269L152,270L150,267L146,267L141,269L134,266L139,276L151,276L166,269L177,263L183,262Z" data-region="SE" data-iso3="SEN" data-name="Sédhiou" data-p="KD"/><path d="M194,16L192,17L190,20L186,18L185,19L187,22L185,23L173,23L168,25L165,23L161,26L156,26L153,29L140,26L130,28L126,24L122,26L117,26L114,30L111,44L106,46L101,70L111,70L118,68L120,64L124,60L138,52L143,47L157,63L167,62L167,58L201,59L206,61L210,61L216,66L222,74L233,81L252,66L258,60L259,58L265,55L268,47L266,47L262,51L260,51L258,47L253,44L252,38L238,26L235,25L235,23L231,23L231,19L227,18L222,20L197,19L194,16Z" data-region="SL" data-iso3="SEN" data-name="Saint-Louis" data-p="SL"/><path d="M354,133L343,125L341,118L332,113L329,114L335,122L336,125L331,137L326,145L313,147L297,144L280,156L261,156L235,146L230,141L228,142L221,148L214,150L214,161L216,167L216,179L215,181L214,185L209,189L203,191L200,195L204,203L207,204L212,202L216,202L220,204L223,210L230,214L252,207L256,208L258,211L263,209L263,213L267,214L265,219L269,219L270,224L273,227L275,226L275,223L276,222L277,224L280,222L281,223L283,221L289,221L288,225L291,228L292,232L290,234L291,234L291,239L294,241L299,239L304,241L309,238L312,238L320,243L323,238L326,239L329,235L330,231L334,230L336,231L339,230L344,224L347,224L348,226L350,223L355,223L355,220L353,217L355,214L366,219L366,222L368,222L371,219L376,218L377,213L369,207L364,198L369,195L372,190L372,186L368,181L370,170L367,164L363,161L363,158L357,156L356,148L360,142L358,139L359,138L356,137L354,133Z" data-region="TC" data-iso3="SEN" data-name="Tambacounda" data-p="TC"/><path d="M63,125L66,134L65,142L67,147L70,152L76,156L77,162L79,164L80,169L84,172L87,171L86,169L88,167L88,166L91,154L97,151L101,145L96,142L98,138L96,136L96,134L95,132L95,128L93,126L94,123L109,118L114,119L119,124L125,121L121,119L117,111L117,106L116,104L114,105L113,100L106,99L102,107L97,111L96,107L90,102L92,93L90,90L81,105L63,125Z" data-region="TH" data-iso3="SEN" data-name="Thiès" data-p="TH"/><path d="M138,276L134,266L131,264L120,267L119,266L117,267L113,266L110,269L102,266L100,268L97,264L91,269L88,269L85,271L84,273L84,276L87,279L88,282L92,281L107,281L119,275L121,276L126,274L133,276L138,276ZM90,232L87,236L87,247L84,253L86,254L84,259L88,257L90,258L88,258L87,259L85,263L86,267L89,267L93,264L93,259L96,254L97,256L94,262L96,262L98,260L102,264L102,259L104,261L103,264L110,268L113,265L123,265L129,263L133,250L133,246L138,237L136,235L138,232L90,232Z" data-region="ZG" data-iso3="SEN" data-name="Ziguinchor" data-p="ZG"/></g></svg>