<?xml version="1.0" encoding="UTF-8"?><!DOCTYPE svg  PUBLIC '-//W3C//DTD SVG 1.1//EN'  'http://www.w3.org/Graphics/SVG/1.1/DTD/svg11.dtd'><svg enable_background="new 0 0 450 301" height="301px" style="stroke-linejoin: round; stroke:#000; fill:#f6f3f0;" version="1.1" viewBox="0 0 450 301" width="450px" xmlns="http://www.w3.org/2000/svg" xmlns:xlink="http://www.w3.org/1999/xlink"><defs><style type="text/css"><![CDATA[path { fill-rule: evenodd; }
#context path { fill: #eee; stroke: #bbb; } ]]></style></defs><metadata><views><view h="301.0" padding="0.06" w="450"><proj id="laea" lat0="14.7552237007" lon0="-17.331757359"/><bbox h="62.83" w="83.05" x="993.12" y="971.5"/><llbbox lat0="-90" lat1="90" lon0="-180" lon1="180"/></view></views></metadata><g id="context"><path d="M401,269L397,269L390,268L377,271L372,270L363,271L357,272L349,275L343,274L340,272L335,273L325,269L320,268L315,264L312,264L308,267L305,266L304,264L305,259L304,258L287,257L285,257L267,256L266,261L270,268L269,273L265,280L260,280L254,283L254,286L262,293L267,295L267,299L450,299L450,289L442,298L439,297L431,283L427,280L423,280L420,283L416,287L412,291L409,293L406,292L395,283L395,282L399,271L401,269Z " data-iso="GIN"/><path d="M106,212L111,218L116,218L128,212L145,211L161,209L168,210L166,211L158,211L147,213L137,214L127,216L126,219L126,222L121,221L113,223L104,221L102,218L101,213L98,211L93,214L89,219L92,230L93,235L99,230L134,229L146,229L147,219L166,216L177,215L182,207L185,205L192,208L196,210L212,217L226,222L237,224L259,217L260,213L259,209L252,205L242,206L232,209L227,208L221,205L218,202L207,199L197,192L187,190L178,192L169,196L164,204L119,204L104,204L106,212Z " data-iso="GMB"/><path d="M267,256L247,256L183,257L161,268L146,271L128,270L123,271L113,276L107,277L99,276L96,277L112,285L119,283L123,283L122,285L118,289L118,294L122,299L190,299L267,299L267,295L262,293L254,286L254,283L260,280L265,280L269,273L270,268L266,261L267,256Z " data-iso="GNB"/><path d="M347,129L352,139L350,150L353,154L362,164L363,172L363,178L366,184L365,189L362,192L361,198L371,209L372,214L374,216L378,212L386,213L391,225L400,238L399,244L399,248L397,262L401,265L401,269L399,271L395,282L395,283L406,292L409,293L412,291L416,287L420,283L423,280L427,280L431,283L439,297L442,298L450,289L450,89L436,91L434,92L429,99L425,107L422,107L418,103L409,95L398,85L392,80L390,79L380,87L375,92L372,103L371,110L370,118L366,124L362,129L357,133L347,129Z " data-iso="MLI"/><path d="M105,72L107,67L108,57L110,50L112,49L115,44L118,36L122,31L137,33L148,34L157,32L162,29L170,28L180,28L185,26L185,24L194,22L195,23L203,24L218,23L231,27L243,37L249,43L250,46L252,49L256,52L259,53L262,51L264,51L266,53L269,54L273,52L276,53L281,57L285,62L288,69L290,78L293,83L297,84L302,90L306,89L309,92L313,99L316,106L321,111L325,114L332,116L336,120L339,125L346,129L347,129L357,133L362,129L366,124L370,118L371,110L372,103L375,92L380,87L390,79L392,80L398,85L409,95L418,103L422,107L425,107L429,99L434,92L436,91L450,89L450,0L119,0L116,8L109,27L108,36L105,46L105,72Z " data-iso="MRT"/><path d="M346,129L339,125L336,120L332,116L325,114L321,111L316,106L313,99L309,92L306,89L302,90L297,84L293,83L290,78L288,69L285,62L281,57L276,53L273,52L269,54L266,53L264,51L262,51L259,53L256,52L252,49L250,46L249,43L243,37L231,27L218,23L203,24L195,23L194,22L185,24L185,26L180,28L170,28L162,29L157,32L148,34L137,33L122,31L118,36L115,44L112,49L110,50L108,57L107,67L105,72L103,78L88,104L71,126L56,133L49,136L54,142L55,137L59,137L64,139L69,142L75,152L81,156L86,168L91,174L91,180L94,180L101,178L100,179L94,182L92,186L94,189L99,193L103,198L104,204L119,204L164,204L169,196L178,192L187,190L197,192L207,199L218,202L221,205L227,208L232,209L242,206L252,205L259,209L260,213L259,217L237,224L226,222L212,217L196,210L192,208L185,205L182,207L177,215L166,216L147,219L146,229L134,229L99,230L93,235L93,240L92,245L93,256L92,260L94,263L102,255L111,263L105,262L93,266L92,270L94,274L96,277L99,276L107,277L113,276L123,271L128,270L146,271L161,268L183,257L247,256L267,256L285,257L287,257L304,258L305,259L304,264L305,266L308,267L312,264L315,264L320,268L325,269L335,273L340,272L343,274L349,275L357,272L363,271L372,270L377,271L390,268L397,269L401,269L401,265L397,262L399,248L399,244L400,238L391,225L386,213L378,212L374,216L372,214L371,209L361,198L362,192L365,189L366,184L363,178L363,172L362,164L353,154L350,150L352,139L347,129L346,129Z " data-iso="SEN"/></g><g fill="red" fill-opacity="0.35" id="regions"><path d="M61,131L58,133L49,135L53,141L54,138L55,137L69,142L71,144L72,136L69,127L61,131Z " data-fips="SG01" data-fips-="" data-iso3="SEN" data-name="Dakar" data-p="DK"/><path d="M128,124L121,123L113,120L99,124L97,128L99,130L100,134L101,136L101,144L104,145L106,146L106,145L114,144L116,146L126,147L134,149L140,148L146,144L147,138L152,131L153,130L152,129L146,121L131,121L130,121L128,123L128,124Z " data-fips="SG03" data-fips-="" data-iso3="SEN" data-name="Diourbel" data-p="DB"/><path d="M115,170L111,171L108,172L105,176L103,181L96,180L93,184L95,192L97,192L101,189L106,187L108,181L107,187L108,187L108,191L106,189L103,190L101,193L100,199L101,200L104,199L106,197L107,198L103,201L104,204L131,204L128,200L127,195L122,191L123,189L125,186L124,181L122,179L123,174L121,172L115,170L115,170Z M153,130L152,131L147,138L146,144L140,148L134,149L126,147L116,146L114,144L106,145L106,146L105,148L103,151L96,155L94,163L94,167L90,173L90,174L92,189L92,182L95,177L95,176L99,174L95,179L100,179L105,175L106,172L112,170L114,170L119,163L121,160L129,159L128,162L129,167L135,173L138,174L144,173L147,162L147,157L149,154L153,150L158,145L167,143L169,137L168,136L165,130L161,130L157,129L154,129L153,130Z " data-fips="SG09" data-fips-="" data-iso3="SEN" data-name="Fatick" data-p="FK"/><path d="M169,137L167,143L158,145L153,150L149,154L147,157L147,162L144,173L138,174L135,173L129,167L128,162L129,159L121,160L119,163L114,170L115,170L115,170L121,172L123,174L122,179L124,181L125,186L123,189L122,191L127,195L128,200L131,204L164,204L166,197L168,195L173,192L177,194L179,194L183,191L192,191L200,192L201,193L204,188L209,187L214,183L217,178L217,175L216,166L214,160L214,149L214,148L212,146L203,143L197,140L192,143L187,144L178,142L176,141L169,137Z " data-fips="" data-fips-="" data-iso3="SEN" data-name="Kaolack" data-p="KL"/><path d="M232,136L232,133L229,129L225,119L221,118L218,112L221,100L222,99L225,93L226,84L216,67L215,66L200,62L160,62L158,67L158,66L146,53L141,54L140,56L127,64L122,69L121,71L115,73L105,74L105,74L105,75L105,76L98,88L94,93L96,97L95,105L97,107L100,113L102,114L109,104L114,103L116,103L118,107L119,107L121,110L121,114L122,115L127,122L128,123L130,121L131,121L146,121L152,129L153,130L154,129L157,129L161,130L165,130L168,136L169,137L176,141L178,142L187,144L192,143L197,140L203,143L212,146L214,148L214,149L221,147L223,145L227,142L229,141L232,136Z " data-fips="SG13" data-fips-="SG08" data-iso3="SEN" data-name="Louga" data-p="LG"/><path d="M323,113L330,125L326,136L320,144L309,145L294,143L277,155L262,155L259,155L234,146L232,143L229,141L232,136L232,133L229,129L225,119L221,118L218,112L221,100L222,99L225,93L226,84L216,67L215,66L200,62L160,62L158,67L158,66L146,53L141,54L140,56L127,64L122,69L121,71L115,73L105,74L105,74L107,68L107,62L109,56L116,38L117,33L119,32L128,30L132,33L137,33L140,32L146,32L148,33L154,34L158,31L160,32L166,28L170,30L172,29L177,29L184,28L186,26L185,24L193,21L195,24L198,24L211,24L213,25L225,23L228,24L229,27L231,27L233,29L236,30L244,38L249,42L250,48L255,50L256,52L261,52L262,50L266,54L277,51L277,55L280,55L284,61L287,64L287,68L288,69L292,77L291,81L292,82L295,82L300,85L302,90L307,89L311,98L315,102L312,103L315,106L318,106L320,110L323,113L323,113Z " data-fips="SG14" data-fips-="SG15" data-iso3="SEN" data-name="Matam" data-p="MT"/><path d="M127,122L122,115L121,114L121,110L119,107L118,107L116,103L114,103L109,104L102,114L100,113L97,107L95,105L96,97L94,93L94,93L86,108L71,125L69,127L69,127L72,136L71,144L71,145L73,149L76,153L80,155L83,163L84,164L87,170L89,171L90,173L94,167L94,163L96,155L103,151L105,148L106,146L104,145L101,144L101,136L100,134L99,130L97,128L99,124L113,120L121,123L128,124L128,123L127,122Z " data-fips="SG07" data-fips-="" data-iso3="SEN" data-name="This" data-p="TH"/><path d="M142,229L140,232L142,233L140,239L137,243L135,254L135,254L138,259L139,260L145,261L146,262L150,260L156,262L155,264L161,260L163,259L162,250L168,248L166,251L164,251L163,252L165,260L160,264L156,265L152,262L146,264L144,263L139,263L139,262L140,265L141,267L143,271L153,272L155,271L169,264L173,262L176,260L181,257L267,256L285,257L288,257L287,255L281,254L281,243L276,234L275,233L272,223L271,223L268,219L268,215L264,215L264,215L266,210L261,209L262,206L257,208L257,208L261,212L261,215L259,217L256,219L243,221L238,224L230,224L217,217L211,218L207,215L206,214L196,211L192,209L185,203L182,207L180,213L179,215L172,217L165,216L147,219L146,229L146,229L142,229Z " data-fips="SG11" data-fips-="" data-iso3="SEN" data-name="Kolda" data-p="KD"/><path d="M137,261L136,260L130,262L125,263L119,262L116,264L112,264L103,260L100,264L95,265L92,267L91,273L94,276L107,277L115,275L123,271L127,271L131,270L137,271L143,271L143,271L141,267L140,265L139,262L137,261Z M102,229L97,229L93,235L93,238L90,250L92,252L91,253L94,254L92,258L92,263L95,263L100,259L100,255L102,251L103,253L100,257L102,258L104,258L107,261L108,256L110,258L108,259L110,262L115,264L119,261L120,262L126,261L127,261L134,259L135,254L135,254L137,243L140,239L142,233L140,232L142,229L102,229Z " data-fips="SG12" data-fips-="" data-iso3="SEN" data-name="Ziguinchor" data-p="ZG"/><path d="M323,113L330,125L326,136L320,144L309,145L294,143L277,155L262,155L259,155L234,146L232,143L229,141L227,142L223,145L221,147L214,149L214,160L216,166L217,175L217,178L214,183L209,187L204,188L201,193L202,193L207,201L209,201L217,199L221,202L224,207L230,211L235,209L252,203L255,205L257,208L257,208L262,206L261,209L266,210L264,215L264,215L268,215L268,219L271,223L272,223L275,233L276,234L281,243L281,254L287,255L288,257L288,257L296,257L297,258L302,258L305,259L304,264L309,268L311,265L313,263L320,268L322,269L326,269L330,270L339,272L342,273L345,276L355,274L359,271L361,270L367,271L370,269L374,271L382,271L389,268L396,268L401,269L399,262L396,261L398,260L398,255L396,254L398,251L399,247L398,242L400,239L400,236L397,237L398,234L396,230L391,227L391,225L389,223L390,219L385,214L385,212L382,212L379,211L378,215L371,213L371,208L365,203L359,195L360,193L363,191L365,189L366,186L366,182L362,177L362,175L364,167L362,162L357,158L357,156L351,154L351,144L354,139L352,137L353,136L345,129L341,127L337,123L336,118L334,117L328,114L327,112L324,113L323,113Z " data-fips="SG05" data-fips-="" data-iso3="SEN" data-name="Tambacounda" data-p="TC"/></g></svg>