<?xml version="1.0" encoding="UTF-8"?><!DOCTYPE svg  PUBLIC '-//W3C//DTD SVG 1.1//EN'  'http://www.w3.org/Graphics/SVG/1.1/DTD/svg11.dtd'><svg enable_background="new 0 0 450 301" height="301px" style="stroke-linejoin: round; stroke:#000; fill:#f6f3f0;" version="1.1" viewBox="0 0 450 301" width="450px" xmlns="http://www.w3.org/2000/svg" xmlns:xlink="http://www.w3.org/1999/xlink"><defs><style type="text/css"><![CDATA[path { fill-rule: evenodd; }
#context path { fill: #eee; stroke: #bbb; } ]]></style></defs><metadata><views><view h="301.0" padding="0.06" w="450"><proj id="laea" lat0="-8.96350941343" lon0="160.967451"/><bbox h="90.39" w="180.9" x="923.51" y="961.45"/><llbbox lat0="-90" lat1="90" lon0="-180" lon1="180"/></view></views></metadata><g id="context"><path d="M0,39L4,45L14,53L15,56L15,59L19,65L27,69L30,70L38,64L37,60L31,52L28,50L22,48L19,42L14,38L11,32L8,29L1,27L0,39Z " data-iso="PNG"/><path d="M369,217L364,215L366,218L369,217Z M179,220L175,217L163,211L161,212L176,221L179,220Z M346,189L346,187L343,186L338,187L337,192L339,192L341,190L346,189Z M213,177L206,172L200,171L203,175L206,176L207,182L215,187L225,190L233,190L230,189L230,187L225,179L222,179L217,179L213,177Z M208,153L204,145L204,155L208,153Z M153,143L150,144L150,150L151,154L157,158L161,159L171,159L176,162L181,163L186,161L185,158L182,155L180,152L172,147L160,147L153,143Z M166,134L166,137L172,140L173,138L168,134L166,134Z M136,138L138,135L135,134L133,138L136,138Z M106,129L107,125L105,128L106,129Z M104,125L102,122L103,120L100,119L97,124L101,127L104,125Z M82,126L80,124L82,118L77,120L76,121L82,126Z M151,119L149,115L147,116L150,119L151,119Z M184,113L179,115L183,120L181,122L184,133L187,139L197,146L201,152L202,149L199,144L199,140L196,133L190,128L191,122L184,113Z M93,111L90,110L88,109L88,104L85,103L79,109L77,110L79,114L80,112L85,112L88,118L93,120L95,123L97,119L95,114L93,111Z M58,109L57,103L56,106L58,109Z M75,107L75,102L70,100L68,102L68,104L71,108L75,107Z M60,102L64,96L61,95L56,91L55,95L60,102Z M157,120L155,116L156,113L144,104L136,101L134,101L126,95L122,91L114,90L117,93L118,96L129,105L133,107L141,111L150,115L153,118L157,120Z M34,77L35,75L31,73L29,77L34,77Z M84,83L80,82L74,77L73,72L70,70L62,66L57,62L53,61L54,66L60,71L67,79L73,83L83,86L84,83Z " data-iso="SLB"/><path d="M386,299L388,295L385,294L382,296L382,298L386,299Z M385,287L387,283L385,281L382,283L385,287Z " data-iso="VUT"/></g><g fill="red" fill-opacity="0.35" id="regions"><path d="M221,155L219,156L220,160L221,155Z M203,152L203,155L205,157L206,155L209,156L208,153L204,147L203,147L203,152Z M203,152L201,148L198,143L200,140L197,138L196,133L190,128L190,125L192,123L184,113L179,113L180,117L182,119L181,122L185,135L190,140L197,146L201,152L203,152Z " data-fips="BP03" data-fips-="" data-iso3="SLB" data-name="Malaita" data-p="ML"/><path d="M163,211L160,211L162,214L172,217L173,220L179,220L173,216L163,211Z " data-fips="BP10" data-fips-="BP13" data-iso3="SLB" data-name="Rennell and Bellona" data-p="RB"/><path d="M173,139L170,137L170,138L173,139Z M166,134L165,137L170,135L166,134Z M135,134L132,136L134,138L135,137L135,134Z " data-fips="BP10" data-fips-="BP06" data-iso3="SLB" data-name="Central" data-p="CE"/><path d="M159,147L154,143L152,142L150,149L149,150L153,156L155,158L159,159L171,159L173,160L181,163L186,161L184,156L182,155L180,152L176,151L172,147L166,147L165,147L159,147Z " data-fips="BP06" data-fips-="" data-iso3="SLB" data-name="Guadalcanal" data-p="GU"/><path d="M151,118L149,115L147,118L151,120L151,118Z M118,91L114,91L118,93L118,96L125,101L126,103L129,105L134,107L137,109L152,117L157,121L158,120L155,116L156,113L146,106L139,102L130,98L125,94L123,91L118,91Z M108,85L106,86L108,88L108,85Z " data-fips="BP07" data-fips-="" data-iso3="SLB" data-name="Isabel" data-p="IS"/><path d="M370,217L366,215L365,216L367,218L370,217Z M346,189L347,187L344,186L338,187L335,190L337,192L339,192L341,190L346,189Z " data-fips="BP09" data-fips-="" data-iso3="SLB" data-name="Temotu" data-p="TE"/><path d="M88,126L84,126L90,128L88,126Z M106,129L108,128L107,125L105,127L106,129Z M101,120L97,123L97,125L100,127L102,126L104,120L101,120Z M81,121L82,118L80,117L77,122L78,123L81,126L82,126L80,124L80,122L81,121Z M74,114L73,110L71,111L74,114Z M89,110L87,104L85,103L83,104L80,108L76,111L77,114L79,114L84,112L86,112L88,116L87,117L90,119L92,120L94,121L97,119L92,111L89,110Z M58,110L58,109L56,102L56,105L57,110L58,110Z M75,107L74,100L71,100L68,102L71,108L74,109L75,107Z M58,91L55,92L58,100L61,102L64,95L60,94L58,91Z M26,84L24,85L27,86L26,84Z M33,74L29,77L35,75L33,74Z " data-fips="BP11" data-fips-="" data-iso3="SLB" data-name="Western" data-p="WE"/><path d="M57,63L53,62L53,65L57,69L59,70L67,80L72,82L73,83L77,84L79,84L83,86L85,85L85,82L82,83L78,80L75,79L74,77L73,72L71,70L63,66L57,62L57,63Z " data-fips="BP11" data-fips-="BP12" data-iso3="SLB" data-name="Choiseul" data-p="CH"/><path d="M201,171L200,171L200,175L207,176L206,178L210,184L211,184L217,187L226,190L230,190L230,186L228,183L224,179L213,177L203,171L201,171Z " data-fips="BP08" data-fips-="" data-iso3="SLB" data-name="Makira" data-p="MK"/></g></svg>