<?xml version="1.0" encoding="UTF-8"?><!DOCTYPE svg  PUBLIC '-//W3C//DTD SVG 1.1//EN'  'http://www.w3.org/Graphics/SVG/1.1/DTD/svg11.dtd'><svg enable_background="new 0 0 450 301" height="301px" style="stroke-linejoin: round; stroke:#000; fill:#f6f3f0;" version="1.1" viewBox="0 0 450 301" width="450px" xmlns="http://www.w3.org/2000/svg" xmlns:xlink="http://www.w3.org/1999/xlink"><defs><style type="text/css"><![CDATA[path { fill-rule: evenodd; }
#context path { fill: #eee; stroke: #bbb; } ]]></style></defs><metadata><views><view h="301.0" padding="0.06" w="450"><proj id="laea" lat0="7.71376719825" lon0="-11.9902630337"/><bbox h="42.39" w="41.24" x="981.82" y="969.62"/><llbbox lat0="-90" lat1="90" lon0="-180" lon1="180"/></view></views></metadata><g id="context"><path d="M96,98L101,96L110,98L114,96L119,93L121,89L125,79L136,76L142,70L148,60L151,53L156,44L159,41L162,34L164,27L170,24L183,21L195,26L214,22L215,16L269,16L275,17L277,22L283,29L289,34L304,57L314,69L319,75L320,79L314,92L316,95L326,97L327,104L327,114L332,123L336,129L336,132L325,143L321,154L318,160L320,161L323,160L331,162L336,158L345,147L348,146L355,147L359,147L366,144L371,145L374,152L396,144L399,142L402,149L408,148L413,154L418,156L421,159L420,166L422,173L424,175L428,192L427,197L428,200L432,207L434,214L434,220L433,226L430,231L426,237L426,240L428,241L432,241L435,240L443,243L450,250L450,0L14,0L21,4L28,4L32,3L33,5L34,11L39,18L51,25L57,26L60,22L62,21L61,28L65,34L65,46L62,55L72,55L84,66L86,71L87,75L96,83L98,87L95,95L96,98Z " data-iso="GIN"/><path d="M355,147L355,150L352,162L348,173L346,175L335,178L330,183L326,198L324,210L320,212L304,229L293,236L286,242L279,249L270,256L261,268L254,281L250,285L264,299L450,299L450,250L443,243L435,240L432,241L428,241L426,240L426,237L430,231L433,226L434,220L434,214L432,207L428,200L427,197L428,192L424,175L422,173L420,166L421,159L418,156L413,154L408,148L402,149L399,142L396,144L374,152L371,145L366,144L359,147L355,147Z " data-iso="LBR"/><path d="M162,238L164,230L163,226L160,224L154,221L133,222L125,227L155,235L160,241L162,238Z M98,103L108,111L116,113L115,115L103,116L102,123L101,129L105,139L110,138L113,135L125,136L129,132L130,134L128,139L121,143L114,152L107,151L103,147L98,147L97,152L103,160L108,171L119,172L125,177L127,184L131,202L134,205L140,208L147,214L158,215L163,211L166,211L163,218L170,229L166,238L165,243L177,247L213,260L230,269L246,281L250,285L254,281L261,268L270,256L279,249L286,242L293,236L304,229L320,212L324,210L326,198L330,183L335,178L346,175L348,173L352,162L355,150L355,147L348,146L345,147L336,158L331,162L323,160L320,161L318,160L321,154L325,143L336,132L336,129L332,123L327,114L327,104L326,97L316,95L314,92L320,79L319,75L314,69L304,57L289,34L283,29L277,22L275,17L269,16L215,16L214,22L195,26L183,21L170,24L164,27L162,34L159,41L156,44L151,53L148,60L142,70L136,76L125,79L121,89L119,93L114,96L110,98L101,96L96,98L98,103Z " data-iso="SLE"/></g><g fill="red" fill-opacity="0.35" id="regions"><path d="M156,223L157,222L153,221L134,222L131,223L128,225L125,227L134,229L141,230L144,232L155,235L156,236L159,241L157,241L160,242L161,242L162,236L164,233L163,228L164,227L161,224L156,223Z M241,146L235,146L230,149L230,153L222,159L216,159L213,158L203,158L202,160L204,164L202,168L199,164L195,162L189,159L185,159L182,160L177,160L171,163L168,166L166,165L159,164L158,161L157,160L153,160L145,158L142,159L140,157L136,157L131,164L129,165L128,166L127,167L123,168L123,168L123,168L122,173L126,175L129,180L132,180L129,185L130,191L136,197L131,195L124,197L131,204L136,207L141,205L139,207L139,209L146,214L153,216L155,217L158,216L162,213L166,208L168,209L166,211L164,212L161,217L160,220L163,221L165,220L164,223L167,227L173,228L177,227L185,224L188,223L188,225L191,224L187,228L185,228L180,230L172,230L170,230L166,234L165,237L167,239L168,238L172,239L175,242L169,240L166,240L163,242L180,248L201,256L221,263L233,271L239,276L240,278L242,277L243,278L247,281L251,282L256,282L255,280L258,277L260,274L260,270L263,269L262,266L263,263L266,258L275,254L281,246L269,241L263,240L262,229L264,225L263,223L260,223L255,229L252,229L250,218L248,217L257,215L258,210L257,206L255,208L254,205L255,200L263,194L265,190L264,181L261,171L255,166L248,157L247,152L244,149L243,145L241,146Z " data-fips="SL03" data-fips-="" data-iso3="SLE" data-name="Southern" data-p="S"/><path d="M116,157L108,152L106,148L101,146L98,149L96,152L101,158L102,159L107,165L107,173L109,173L115,169L123,167L123,168L123,168L127,167L128,166L129,165L128,164L126,159L120,158L117,157L116,157Z " data-fips="SL04" data-fips-="" data-iso3="SLE" data-name="Western" data-p="W"/><path d="M117,157L120,158L126,159L128,164L129,165L131,164L136,157L140,157L142,159L145,158L153,160L157,160L158,161L159,164L166,165L168,166L171,163L177,160L182,160L185,159L189,159L195,162L199,164L202,168L204,164L202,160L203,158L213,158L216,159L222,159L230,153L230,149L235,146L241,146L243,145L245,143L247,142L252,142L258,142L262,144L264,142L265,138L265,129L264,122L269,116L270,111L272,110L278,107L282,105L284,98L288,96L296,97L299,99L308,106L318,107L320,106L320,104L318,103L323,99L328,99L328,98L325,96L318,96L315,95L314,92L315,88L320,82L320,80L321,77L313,69L307,68L309,66L306,64L305,59L303,56L302,52L300,50L292,38L289,34L285,30L279,26L278,25L277,18L269,16L215,16L214,22L195,26L193,26L185,22L183,21L170,24L163,27L162,37L158,42L155,49L152,51L150,56L147,66L145,68L141,69L141,72L140,72L135,78L130,78L128,79L126,77L123,81L122,88L119,94L111,98L101,96L97,97L96,105L98,106L101,105L105,109L113,107L115,108L107,112L110,114L113,114L119,114L122,115L117,115L112,116L105,116L100,117L101,127L104,138L108,144L109,142L110,141L112,137L109,135L110,134L107,132L110,132L113,135L114,136L116,131L115,136L113,137L117,138L119,137L123,137L126,136L132,130L127,139L131,139L130,141L120,140L116,146L110,150L118,156L117,157Z " data-fips="SL02" data-fips-="" data-iso3="SLE" data-name="Northern" data-p="N"/><path d="M243,145L244,149L247,152L248,157L255,166L261,171L264,181L265,190L263,194L255,200L254,205L255,208L257,206L258,210L257,215L248,217L250,218L252,229L255,229L260,223L263,223L264,225L262,229L263,240L269,241L281,246L282,244L295,234L303,231L304,230L316,215L320,212L324,210L326,187L330,185L334,178L337,177L344,177L352,173L352,172L351,165L352,162L355,151L354,147L349,146L344,147L341,154L334,160L330,163L325,160L320,161L318,163L318,166L316,164L317,161L322,154L323,147L324,144L329,137L334,135L338,131L333,125L328,119L327,114L326,107L328,99L328,99L323,99L318,103L320,104L320,106L318,107L308,106L299,99L296,97L288,96L284,98L282,105L278,107L272,110L270,111L269,116L264,122L265,129L265,138L264,142L262,144L258,142L252,142L247,142L245,143L243,145Z " data-fips="SL01" data-fips-="" data-iso3="SLE" data-name="Eastern" data-p="E"/></g></svg>