<?xml version="1.0" encoding="UTF-8"?><!DOCTYPE svg  PUBLIC '-//W3C//DTD SVG 1.1//EN'  'http://www.w3.org/Graphics/SVG/1.1/DTD/svg11.dtd'><svg enable_background="new 0 0 450 301" height="301px" style="stroke-linejoin: round; stroke:#000; fill:#f6f3f0;" version="1.1" viewBox="0 0 450 301" width="450px" xmlns="http://www.w3.org/2000/svg" xmlns:xlink="http://www.w3.org/1999/xlink"><defs><style type="text/css"><![CDATA[path { fill-rule: evenodd; }
#context path { fill: #eee; stroke: #bbb; } ]]></style></defs><metadata><views><view h="301.0" padding="0.06" w="450"><proj id="laea" lat0="13.8645545519" lon0="-89.9345129653"/><bbox h="19.26" w="32.36" x="996.1" y="991.09"/><llbbox lat0="-90" lat1="90" lon0="-180" lon1="180"/></view></views></metadata><g id="context"><path d="M27,161L26,153L26,145L35,133L53,117L65,108L70,107L78,108L85,103L91,92L98,85L115,78L119,75L117,69L114,57L114,49L120,46L126,45L140,42L146,43L149,45L153,37L162,25L181,12L182,1L182,0L0,0L0,149L27,161Z " data-iso="GTM"/><path d="M149,45L154,46L181,54L190,52L200,60L205,65L210,73L232,88L235,94L252,103L259,110L266,113L279,116L291,119L292,122L294,132L296,141L302,141L308,137L330,125L351,117L363,122L370,131L378,136L395,133L409,134L421,142L424,147L417,175L415,187L413,197L418,199L422,203L421,209L408,218L416,222L426,224L444,220L450,222L450,0L182,0L182,1L181,12L162,25L153,37L149,45Z " data-iso="HND"/><path d="M450,279L447,279L433,292L433,299L450,299L450,279Z " data-iso="NIC"/><path d="M146,43L140,42L126,45L120,46L114,49L114,57L117,69L119,75L115,78L98,85L91,92L85,103L78,108L70,107L65,108L53,117L35,133L26,145L26,153L27,161L48,171L76,192L123,200L164,206L233,239L292,256L297,253L280,245L268,243L263,239L279,239L308,250L347,259L374,258L389,255L398,248L407,237L404,220L408,218L421,209L422,203L418,199L413,197L415,187L417,175L424,147L421,142L409,134L395,133L378,136L370,131L363,122L351,117L330,125L308,137L302,141L296,141L294,132L292,122L291,119L279,116L266,113L259,110L252,103L235,94L232,88L210,73L205,65L200,60L190,52L181,54L154,46L149,45L146,43Z " data-iso="SLV"/></g><g fill="red" fill-opacity="0.35" id="regions"><path d="M51,173L55,167L64,170L66,171L71,172L73,171L74,167L80,155L78,151L81,135L87,133L90,132L94,120L94,117L91,112L85,108L85,109L83,111L80,110L76,107L71,106L63,109L58,114L42,125L39,127L35,134L29,138L25,143L24,148L24,151L42,167L51,173L51,173Z " data-fips="ES01" data-fips-="" data-iso3="SLV" data-name="Ahuachapn" data-p="AH"/><path d="M261,114L254,115L250,117L246,120L231,125L227,125L222,125L219,129L215,132L214,136L224,152L229,157L235,159L235,154L237,153L241,153L250,150L254,148L256,150L267,150L278,156L279,157L285,159L288,157L288,157L291,151L291,149L294,144L293,142L294,141L294,141L295,139L295,136L293,131L294,123L291,118L283,117L271,113L266,113L261,114L261,114Z " data-fips="ES02" data-fips-="" data-iso3="SLV" data-name="Cabaas" data-p="CA"/><path d="M219,125L216,124L213,124L208,121L202,109L197,106L189,103L186,105L186,106L185,111L185,120L184,120L185,127L189,133L189,136L188,138L192,145L197,149L201,153L202,159L206,167L206,172L214,175L220,177L223,175L226,174L227,174L231,171L231,170L231,169L232,167L235,159L229,157L224,152L214,136L215,132L219,129L222,125L219,125Z " data-fips="ES04" data-fips-="ES03" data-iso3="SLV" data-name="Cuscatln" data-p="CU"/><path d="M164,106L160,106L156,104L149,108L148,109L146,119L145,126L138,131L138,142L135,150L134,155L136,155L128,166L127,166L124,173L124,176L123,179L118,184L116,189L112,193L109,199L119,201L146,203L150,204L156,204L168,207L180,212L188,217L189,214L192,209L191,208L187,206L186,204L185,203L179,204L175,197L176,191L176,181L175,179L176,176L174,173L171,171L169,167L168,163L166,161L168,155L169,152L171,143L173,140L174,131L177,127L170,125L168,123L164,118L165,113L165,107L164,106Z " data-fips="ES05" data-fips-="" data-iso3="SLV" data-name="La Libertad" data-p="LI"/><path d="M226,174L223,175L220,177L214,175L206,172L200,178L195,184L193,185L189,184L189,187L191,191L190,195L189,199L186,202L186,204L187,206L191,208L192,209L189,214L188,217L199,224L238,242L239,236L244,232L245,230L245,222L247,218L245,215L240,211L240,205L242,193L235,183L231,185L229,177L227,174L226,174Z " data-fips="ES06" data-fips-="" data-iso3="SLV" data-name="La Paz" data-p="PA"/><path d="M126,153L124,153L122,149L120,147L113,143L112,145L112,148L111,149L107,148L104,146L106,141L102,137L98,133L94,133L90,132L87,133L81,135L78,151L80,155L74,167L73,171L71,172L66,171L64,170L55,167L51,173L62,178L67,182L72,188L73,196L75,197L81,196L107,198L109,199L112,193L116,189L118,184L123,179L124,176L124,173L127,166L128,166L136,155L134,155L126,153Z " data-fips="ES13" data-fips-="" data-iso3="SLV" data-name="Sonsonate" data-p="SO"/><path d="M182,107L177,104L176,106L174,106L171,105L167,107L165,107L165,113L164,118L168,123L170,125L177,127L174,131L173,140L171,143L169,152L168,155L166,161L168,163L169,167L171,171L174,173L176,176L175,179L176,181L176,191L175,197L179,204L185,203L186,204L186,202L189,199L190,195L191,191L189,187L189,184L193,185L195,184L200,178L206,172L206,167L202,159L201,153L197,149L192,145L188,138L189,136L189,133L185,127L184,120L185,120L185,111L186,106L186,105L182,107Z " data-fips="ES10" data-fips-="" data-iso3="SLV" data-name="San Salvador" data-p="SS"/><path d="M384,133L386,144L385,155L387,159L386,171L382,181L382,185L381,186L376,192L374,193L375,204L372,208L372,213L373,217L375,220L373,233L373,235L371,243L367,243L364,241L363,242L362,257L366,258L390,259L395,258L392,255L392,252L395,250L408,243L411,241L412,237L409,232L403,227L398,224L400,219L404,211L408,217L421,210L424,207L424,203L419,198L414,199L413,197L413,190L417,180L417,171L418,168L421,164L424,149L426,146L423,145L410,135L408,130L407,129L404,129L400,134L393,133L388,135L385,134L384,133Z " data-fips="ES07" data-fips-="" data-iso3="SLV" data-name="La Unin" data-p="UN"/><path d="M331,129L334,135L336,141L333,149L341,155L342,158L334,164L334,169L340,177L344,182L343,184L353,182L362,194L372,191L376,192L381,186L382,185L382,181L386,171L387,159L385,155L386,144L384,133L384,133L381,134L374,138L372,134L364,125L362,118L360,117L355,117L347,118L344,118L337,116L335,117L338,123L337,126L332,127L331,128L331,129Z " data-fips="ES08" data-fips-="" data-iso3="SLV" data-name="Morazn" data-p="MO"/><path d="M330,130L329,131L323,133L322,135L317,134L316,137L311,136L304,138L298,141L294,141L293,142L294,144L291,149L291,151L288,157L288,157L288,161L294,166L296,169L302,168L305,170L307,172L311,174L316,176L315,179L317,184L314,187L315,202L312,208L313,214L314,215L318,224L320,227L324,230L327,230L331,234L340,234L341,239L343,241L342,244L342,246L348,246L359,257L360,257L361,257L362,257L363,242L364,241L367,243L371,243L373,235L373,233L375,220L373,217L372,213L372,208L375,204L374,193L376,192L372,191L362,194L353,182L343,184L344,182L340,177L334,169L334,164L342,158L341,155L333,149L336,141L334,135L331,129L330,130Z " data-fips="ES09" data-fips-="" data-iso3="SLV" data-name="San Miguel" data-p="SM"/><path d="M285,159L279,157L278,156L267,150L256,150L254,148L250,150L241,153L237,153L235,154L235,159L232,167L231,169L231,170L231,171L227,174L229,177L231,185L235,183L242,193L240,205L240,211L245,215L247,218L245,222L245,230L244,232L239,236L238,242L241,243L243,238L248,237L250,236L255,229L257,218L264,204L266,199L266,193L270,191L275,185L278,185L282,183L284,180L285,177L296,169L294,166L288,161L288,157L285,159Z " data-fips="ES12" data-fips-="" data-iso3="SLV" data-name="San Vicente" data-p="SV"/><path d="M296,169L285,177L284,180L282,183L278,185L275,185L270,191L266,193L266,199L264,204L257,218L255,229L250,236L248,237L243,238L241,243L241,243L246,245L289,253L297,258L300,258L302,256L298,253L291,251L277,248L277,247L288,249L281,242L279,242L266,243L261,242L260,243L257,241L259,240L268,240L275,239L277,239L286,241L289,245L292,247L299,249L302,250L302,248L300,242L302,243L305,248L308,249L308,250L304,251L305,256L308,258L313,258L316,256L316,255L311,256L310,255L315,253L321,254L318,248L321,250L323,253L322,256L319,256L323,258L327,257L343,259L357,258L359,257L348,246L342,246L342,244L343,241L341,239L340,234L331,234L327,230L324,230L320,227L318,224L314,215L313,214L312,208L315,202L314,187L317,184L315,179L316,176L311,174L307,172L305,170L302,168L296,169Z " data-fips="ES14" data-fips-="" data-iso3="SLV" data-name="Usulutn" data-p="US"/><path d="M152,45L158,51L162,56L169,61L167,67L166,70L164,72L158,75L158,81L154,87L149,88L145,93L142,93L139,104L139,108L141,109L146,110L148,109L149,108L156,104L160,106L164,106L165,107L167,107L171,105L174,106L176,106L177,104L182,107L186,105L189,103L197,106L202,109L208,121L213,124L216,124L219,125L222,125L227,125L231,125L246,120L250,117L254,115L261,114L261,113L258,109L255,108L252,107L253,101L252,97L247,99L239,98L237,99L235,94L233,89L229,84L225,82L223,82L217,84L215,83L214,77L211,72L207,69L206,68L205,63L204,60L201,59L196,58L194,57L194,52L192,48L188,50L185,54L184,56L176,53L172,50L164,49L158,46L152,45Z " data-fips="ES03" data-fips-="" data-iso3="SLV" data-name="Chalatenango" data-p="CH"/><path d="M85,108L91,112L94,117L94,120L90,132L94,133L98,133L102,137L106,141L104,146L107,148L111,149L112,148L112,145L113,143L120,147L122,149L124,153L126,153L134,155L135,150L138,142L138,131L145,126L146,119L148,109L146,110L141,109L139,108L139,104L142,93L145,93L149,88L154,87L158,81L158,75L164,72L166,70L167,67L169,61L162,56L158,51L152,45L149,45L144,43L143,40L142,40L138,44L135,45L129,43L126,44L122,49L120,51L119,48L117,46L115,45L112,47L112,52L113,54L113,57L111,58L111,62L116,63L120,72L122,73L121,77L103,82L99,84L95,87L92,91L84,103L84,106L85,108Z " data-fips="ES11" data-fips-="" data-iso3="SLV" data-name="Santa Ana" data-p="SA"/></g></svg>