<?xml version="1.0" encoding="UTF-8"?><!DOCTYPE svg  PUBLIC '-//W3C//DTD SVG 1.1//EN'  'http://www.w3.org/Graphics/SVG/1.1/DTD/svg11.dtd'><svg enable_background="new 0 0 450 301" height="301px" style="stroke-linejoin: round; stroke:#000; fill:#f6f3f0;" version="1.1" viewBox="0 0 450 301" width="450px" xmlns="http://www.w3.org/2000/svg" xmlns:xlink="http://www.w3.org/1999/xlink"><defs><style type="text/css"><![CDATA[path { fill-rule: evenodd; }
#context path { fill: #eee; stroke: #bbb; } ]]></style></defs><metadata><views><view h="301.0" padding="0.06" w="450"><proj id="laea" lat0="10.1594318711" lon0="49.9168483929"/><bbox h="183.18" w="144.43" x="881.5" y="969.67"/><llbbox lat0="-90" lat1="90" lon0="-180" lon1="180"/></view></views></metadata><g id="context"><path d="M152,1L150,4L144,13L141,16L140,31L142,31L155,29L161,31L162,31L165,27L167,24L169,21L167,20L155,21L160,16L165,14L170,12L172,7L171,4L169,0L161,0L158,3L154,0L153,1L152,1Z " data-iso="DJI"/><path d="M152,1L153,1L154,0L158,3L161,0L151,0L152,1Z " data-iso="ERI"/><path d="M7,138L7,138L17,141L18,142L17,152L21,158L23,159L44,164L63,177L73,178L91,182L97,176L98,174L101,172L117,166L124,172L126,173L136,172L139,172L140,171L142,169L157,166L164,159L173,155L182,153L200,155L204,150L221,133L257,98L262,93L255,93L242,93L241,92L183,72L175,65L173,64L168,56L167,54L160,47L157,39L162,32L162,31L161,31L155,29L142,31L140,31L141,16L144,13L150,4L152,1L151,0L16,0L6,20L5,28L2,31L0,29L0,123L2,126L2,130L5,136L7,137L7,138Z M52,12L49,10L48,11L47,9L47,4L48,3L49,2L52,3L53,2L56,1L57,2L58,5L58,7L57,9L56,11L55,12L54,15L52,14L53,13L52,12Z " data-iso="ETH"/><path d="M131,286L131,285L120,270L120,241L120,195L128,188L136,176L139,172L136,172L126,173L124,172L117,166L101,172L98,174L97,176L91,182L73,178L63,177L44,164L23,159L21,158L17,152L18,142L17,141L7,138L7,138L4,141L0,145L0,281L12,288L31,299L117,299L118,293L126,291L128,290L131,286Z " data-iso="KEN"/><path d="M0,0L0,29L2,31L5,28L6,20L16,0L0,0Z " data-iso="SDN"/><path d="M7,138L7,137L5,136L2,130L2,126L0,123L0,145L4,141L7,138Z " data-iso="SDS"/><path d="M281,27L276,26L263,30L247,30L242,34L234,37L232,38L219,35L210,39L202,43L191,43L181,36L176,31L173,24L169,21L167,24L165,27L162,31L162,32L157,39L160,47L167,54L168,56L173,64L175,65L183,72L241,92L242,93L255,93L262,93L265,88L278,68L281,64L281,27L281,27Z " data-iso="SOL"/><path d="M133,284L140,272L170,240L175,236L182,231L188,225L200,217L218,207L223,204L239,188L252,174L262,163L267,154L275,143L283,130L284,125L287,118L289,113L297,100L299,94L304,89L311,76L315,71L319,64L320,48L326,44L323,44L325,39L324,26L327,16L318,13L315,14L311,18L304,22L295,23L290,26L284,27L281,27L281,64L278,68L265,88L262,93L257,98L221,133L204,150L200,155L182,153L173,155L164,159L157,166L142,169L140,171L139,172L136,176L128,188L120,195L120,241L120,270L131,285L131,286L133,284Z " data-iso="SOM"/><path d="M0,299L31,299L12,288L0,281L0,299Z " data-iso="TZA"/><path d="M369,0L367,1L375,6L383,5L391,1L389,0L369,0Z " data-iso="YEM"/></g><g fill="red" fill-opacity="0.35" id="regions"><path d="M307,85L312,74L314,72L319,64L319,57L320,55L320,51L327,45L330,45L329,43L323,44L325,41L325,39L325,30L324,29L327,19L327,18L321,14L318,13L313,15L307,21L293,24L290,26L281,28L281,58L281,61L284,61L284,70L284,75L286,77L291,81L296,81L298,82L299,86L301,84L303,84L306,86L307,85Z " data-fips="SO03" data-fips-="" data-iso3="SOM" data-name="Bari"/><path d="M181,153L172,155L164,159L161,162L159,165L159,166L163,174L164,175L164,179L170,181L173,180L176,176L181,174L185,176L188,185L187,186L190,188L194,187L195,188L197,188L197,179L198,176L195,165L194,154L181,153Z " data-fips="SO01" data-fips-="" data-iso3="SOM" data-name="Bakool"/><path d="M194,187L190,188L187,186L188,185L185,176L181,174L176,176L173,180L170,181L164,179L163,188L163,191L160,192L153,191L151,201L149,213L151,215L159,222L161,223L167,220L173,218L179,215L194,209L194,203L195,198L194,197L195,192L195,188L194,187Z " data-fips="SO04" data-fips-="" data-iso3="SOM" data-name="Bay"/><path d="M164,179L164,175L163,174L159,166L159,166L147,168L144,168L140,170L140,172L128,188L120,195L120,222L120,227L120,227L129,227L134,213L149,213L151,201L153,191L160,192L163,191L163,188L164,179Z " data-fips="SO06" data-fips-="" data-iso3="SOM" data-name="Gedo"/><path d="M159,222L151,215L149,213L134,213L129,227L145,226L149,226L153,238L155,246L165,246L167,245L170,240L171,239L171,239L168,234L166,232L161,223L159,222Z " data-fips="SO08" data-fips-="" data-iso3="SOM" data-name="Jubbada Dhexe"/><path d="M197,188L195,188L195,192L194,197L195,198L194,203L194,209L179,215L173,218L167,220L161,223L166,232L168,234L171,239L171,239L174,237L188,225L192,222L201,216L206,214L207,213L207,213L209,210L208,210L208,199L204,192L203,188L197,188Z " data-fips="SO02" data-fips-="SO14|" data-iso3="SOM" data-name="Shabeellaha Hoose"/><path d="M214,210L214,210L211,210L209,210L207,213L207,213L214,210Z " data-fips="SO02" data-fips-="" data-iso3="SOM" data-name="Banaadir"/><path d="M231,123L221,133L212,142L216,151L223,152L227,151L226,154L224,158L225,165L230,169L230,175L243,184L243,184L246,180L249,178L252,175L253,172L259,167L252,164L254,149L251,142L249,138L254,127L231,122L231,123Z " data-fips="SO05" data-fips-="" data-iso3="SOM" data-name="Galguduud"/><path d="M202,153L202,153L201,155L200,155L194,154L195,165L198,176L197,179L197,188L203,188L205,189L207,189L220,188L222,183L223,182L230,175L230,169L225,165L224,158L226,154L227,151L223,152L216,151L212,142L202,153Z " data-fips="SO07" data-fips-="" data-iso3="SOM" data-name="Hiiraan"/><path d="M230,175L223,182L222,183L220,188L207,189L205,189L203,188L204,192L208,199L208,210L209,210L211,210L214,210L214,210L216,208L218,207L226,200L227,199L234,193L242,185L243,184L243,184L230,175Z " data-fips="SO13" data-fips-="" data-iso3="SOM" data-name="Shabeellaha Dhexe"/><path d="M231,122L254,127L249,138L251,142L254,149L252,164L259,167L261,164L263,161L266,155L271,149L279,137L284,127L284,125L290,113L294,107L295,105L292,102L286,99L283,99L272,105L253,102L231,122Z " data-fips="SO10" data-fips-="" data-iso3="SOM" data-name="Mudug"/><path d="M281,64L270,80L267,86L262,93L253,102L272,105L283,99L286,99L292,102L295,105L297,101L298,95L301,92L305,87L306,86L303,84L301,84L299,86L298,82L296,81L291,81L286,77L284,75L284,70L284,61L281,61L281,64Z " data-fips="SO18" data-fips-="SO11|" data-iso3="SOM" data-name="Nugaal"/><path d="M129,227L120,227L120,227L120,232L120,270L131,285L133,284L137,277L140,274L140,272L144,268L149,262L156,255L163,248L165,246L155,246L153,238L149,226L145,226L129,227Z " data-fips="SO09" data-fips-="" data-iso3="SOM" data-name="Jubbada Hoose"/></g></svg>