<?xml version="1.0" encoding="UTF-8"?><!DOCTYPE svg  PUBLIC '-//W3C//DTD SVG 1.1//EN'  'http://www.w3.org/Graphics/SVG/1.1/DTD/svg11.dtd'><svg enable_background="new 0 0 450 451" height="451px" style="stroke-linejoin: round; stroke:#000; fill:#f6f3f0;" version="1.1" viewBox="0 0 450 451" width="450px" xmlns="http://www.w3.org/2000/svg" xmlns:xlink="http://www.w3.org/1999/xlink"><defs><style type="text/css"><![CDATA[path { fill-rule: evenodd; }
#context path { fill: #eee; stroke: #bbb; } ]]></style></defs><metadata><views><view h="451" padding="0.06" w="450"><proj id="laea" lat0="43.1365145942" lon0="22.6230813353"/><bbox h="53.31" w="40.03" x="965.36" y="959.91"/><llbbox lat0="-90" lat1="90" lon0="-180" lon1="180"/></view></views></metadata><g id="context"><path d="M152,396L151,396L143,400L136,402L131,403L128,400L127,397L128,389L125,385L121,386L117,393L112,400L106,408L101,416L95,425L91,433L94,437L97,444L96,449L189,449L186,436L184,430L173,421L165,418L161,409L155,398L152,396Z " data-iso="ALB"/><path d="M354,223L351,225L348,228L347,232L346,240L337,246L333,247L331,251L329,262L329,271L331,278L334,283L337,289L339,298L343,305L354,311L359,315L366,326L375,332L374,337L372,342L366,350L362,353L355,364L343,364L336,368L334,373L336,378L336,382L334,390L337,399L341,403L341,410L333,422L327,423L339,439L345,445L352,449L450,449L450,269L448,269L416,263L393,261L370,265L367,262L366,258L367,253L370,249L375,246L378,243L378,240L372,235L360,228L354,223Z " data-iso="BGR"/><path d="M28,390L29,389L36,384L37,378L31,367L31,360L30,347L32,344L34,343L44,342L45,332L49,321L55,316L63,309L69,310L73,316L76,316L77,309L71,294L73,289L81,292L88,291L90,291L95,286L103,285L105,288L109,289L112,286L113,281L113,274L104,259L96,249L96,246L100,244L103,245L111,246L118,245L121,243L121,239L110,227L104,220L96,214L90,211L88,205L89,192L91,188L97,179L102,171L106,162L108,154L107,152L104,150L99,148L91,149L84,152L82,152L77,152L69,150L66,146L66,140L63,135L58,129L45,127L30,122L25,122L19,123L9,120L0,126L0,370L5,375L18,385L21,386L28,390Z " data-iso="BIH"/><path d="M33,403L30,398L28,393L28,390L21,386L18,385L5,375L0,370L0,376L7,381L20,393L33,403Z M82,152L81,148L86,148L88,146L89,141L87,124L92,123L93,118L98,121L105,122L111,121L112,117L107,111L103,110L90,103L84,97L85,90L88,84L81,80L79,75L81,70L78,58L74,51L78,48L79,44L79,41L79,41L74,43L66,44L62,43L54,52L52,54L45,57L39,58L10,54L0,52L0,126L9,120L19,123L25,122L30,122L45,127L58,129L63,135L66,140L66,146L69,150L77,152L82,152Z " data-iso="HRV"/><path d="M79,41L81,41L88,39L93,33L97,36L102,37L107,35L120,27L125,20L131,18L139,21L148,21L155,20L171,23L174,24L177,26L179,24L196,21L203,24L207,23L214,13L220,12L234,14L242,7L245,0L0,0L0,52L10,54L39,58L45,57L52,54L54,52L62,43L66,44L74,43L79,41L79,41Z " data-iso="HUN"/><path d="M267,430L265,426L263,421L264,419L270,415L271,411L280,394L279,385L275,385L254,377L255,369L249,364L243,360L242,356L235,346L229,341L223,339L213,332L210,323L207,323L203,327L197,329L196,331L199,340L196,346L185,355L183,358L185,362L184,365L174,367L165,370L163,375L152,374L150,377L153,382L154,387L153,395L152,396L155,398L161,409L165,418L173,421L184,430L186,436L189,449L205,449L206,447L228,437L234,437L243,445L245,445L249,436L253,432L266,430L267,430Z " data-iso="KOS"/><path d="M327,423L325,422L322,419L319,418L312,422L304,424L299,422L293,422L286,424L280,428L271,430L267,430L266,430L253,432L249,436L245,445L243,445L234,437L228,437L206,447L205,449L352,449L345,445L339,439L327,423Z " data-iso="MKD"/><path d="M152,396L153,395L154,387L153,382L150,377L152,374L163,375L165,370L174,367L175,365L174,361L169,356L161,352L145,340L133,337L124,331L120,330L116,326L106,312L97,304L91,300L90,296L90,292L90,291L88,291L81,292L73,289L71,294L77,309L76,316L73,316L69,310L63,309L55,316L49,321L45,332L44,342L34,343L32,344L30,347L31,360L31,367L37,378L36,384L29,389L28,390L28,393L30,398L33,403L36,404L39,402L43,403L41,407L42,409L61,424L78,444L80,449L96,449L97,444L94,437L91,433L95,425L101,416L106,408L112,400L117,393L121,386L125,385L128,389L127,397L128,400L131,403L136,402L143,400L151,396L152,396Z " data-iso="MNE"/><path d="M177,26L181,32L185,40L197,49L200,52L205,61L209,66L213,64L214,65L214,74L213,80L214,87L213,92L220,98L225,105L231,109L237,112L240,113L246,118L261,123L265,128L265,131L261,136L260,140L255,142L255,144L268,152L267,156L255,158L255,161L267,165L272,169L275,174L283,177L295,178L304,183L309,191L317,190L328,178L339,174L350,180L355,185L356,189L354,190L348,189L343,192L339,197L339,203L341,209L345,213L350,215L353,218L353,222L354,223L360,228L372,235L378,240L378,243L375,246L370,249L367,253L366,258L367,262L370,265L393,261L416,263L448,269L450,269L450,0L245,0L242,7L234,14L220,12L214,13L207,23L203,24L196,21L179,24L177,26Z " data-iso="ROU"/><path d="M79,41L79,44L78,48L74,51L78,58L81,70L79,75L81,80L88,84L85,90L84,97L90,103L103,110L107,111L112,117L111,121L105,122L98,121L93,118L92,123L87,124L89,141L88,146L86,148L81,148L82,152L84,152L91,149L99,148L104,150L107,152L108,154L106,162L102,171L97,179L91,188L89,192L88,205L90,211L96,214L104,220L110,227L121,239L121,243L118,245L111,246L103,245L100,244L96,246L96,249L104,259L113,274L113,281L112,286L109,289L105,288L103,285L95,286L90,291L90,292L90,296L91,300L97,304L106,312L116,326L120,330L124,331L133,337L145,340L161,352L169,356L174,361L175,365L174,367L184,365L185,362L183,358L185,355L196,346L199,340L196,331L197,329L203,327L207,323L210,323L213,332L223,339L229,341L235,346L242,356L243,360L249,364L255,369L254,377L275,385L279,385L280,394L271,411L270,415L264,419L263,421L265,426L267,430L271,430L280,428L286,424L293,422L299,422L304,424L312,422L319,418L322,419L325,422L327,423L333,422L341,410L341,403L337,399L334,390L336,382L336,378L334,373L336,368L343,364L355,364L362,353L366,350L372,342L374,337L375,332L366,326L359,315L354,311L343,305L339,298L337,289L334,283L331,278L329,271L329,262L331,251L333,247L337,246L346,240L347,232L348,228L351,225L354,223L353,222L353,218L350,215L345,213L341,209L339,203L339,197L343,192L348,189L354,190L356,189L355,185L350,180L339,174L328,178L317,190L309,191L304,183L295,178L283,177L275,174L272,169L267,165L255,161L255,158L267,156L268,152L255,144L255,142L260,140L261,136L265,131L265,128L261,123L246,118L240,113L237,112L231,109L225,105L220,98L213,92L214,87L213,80L214,74L214,65L213,64L209,66L205,61L200,52L197,49L185,40L181,32L177,26L174,24L171,23L155,20L148,21L139,21L131,18L125,20L120,27L107,35L102,37L97,36L93,33L88,39L81,41L79,41Z " data-iso="SRB"/></g><g fill="red" fill-opacity="0.35" id="regions"><path d="M351,310L345,317L343,318L338,314L335,316L328,313L327,312L327,313L326,318L321,319L317,317L313,316L312,318L312,321L314,324L311,326L310,330L311,331L318,336L321,336L323,341L319,344L319,344L319,345L319,347L316,350L328,355L331,358L328,359L331,362L336,364L342,365L342,365L346,364L351,365L356,364L360,354L368,348L373,341L375,337L375,332L370,330L364,323L362,318L356,312L351,311L351,310Z " data-fips="BU47" data-fips-="" data-iso3="SRB" data-name="Pirotski"/><path d="M305,186L303,187L299,193L296,199L296,203L293,204L291,207L287,211L288,214L293,217L294,219L294,225L296,226L298,224L298,232L298,233L299,236L298,237L288,241L288,241L288,242L286,244L286,246L285,247L285,248L285,249L291,249L294,249L298,253L302,254L304,253L307,258L311,260L314,257L314,253L319,245L320,243L318,238L316,236L319,231L322,233L326,234L331,233L335,236L338,239L336,241L335,245L336,246L338,246L343,241L346,241L347,239L347,233L347,231L353,223L353,218L345,214L339,206L339,202L338,200L339,195L342,195L345,189L350,189L352,191L357,190L359,187L354,182L348,182L343,178L338,173L334,172L329,176L326,177L316,194L313,196L308,194L308,190L305,188L305,186Z " data-fips="RO26" data-fips-="" data-iso3="SRB" data-name="Borski"/><path d="M107,33L105,37L103,37L97,36L95,33L93,33L90,35L90,38L87,38L85,39L85,42L79,43L77,45L79,48L78,48L75,54L78,60L79,64L82,67L83,69L78,74L78,79L79,81L83,80L91,84L92,85L90,87L86,86L86,88L89,88L91,89L92,91L97,92L98,94L102,93L111,94L110,88L113,84L115,83L121,83L124,80L127,73L128,71L129,71L129,69L126,65L127,63L124,60L120,62L118,60L117,56L111,48L111,41L108,33L107,33Z " data-fips="HR10" data-fips-="" data-iso3="SRB" data-name="Zapadno-Backi"/><path d="M108,33L111,41L111,48L117,56L118,60L120,62L124,60L127,63L126,65L129,69L129,71L128,71L129,72L135,76L138,74L140,64L143,62L148,60L148,60L148,60L146,54L144,51L141,47L145,45L144,38L149,27L148,25L150,21L144,23L143,23L135,18L125,20L123,21L123,24L120,28L117,29L115,31L109,32L108,33Z " data-fips="HU19" data-fips-="" data-iso3="SRB" data-name="Severno-Backi"/><path d="M150,21L148,25L149,27L144,38L145,45L141,47L144,51L146,54L148,60L148,60L149,60L158,63L162,63L166,66L166,66L168,66L170,64L169,60L183,60L184,63L188,68L188,70L184,73L183,75L181,78L183,79L190,78L196,78L194,74L198,69L203,69L203,65L205,60L205,59L200,50L184,40L181,32L173,23L171,22L162,22L159,20L154,20L151,20L150,21Z " data-fips="HU19" data-fips-="" data-iso3="SRB" data-name="Severno-Banatski"/><path d="M304,185L299,179L293,175L280,177L277,176L274,173L272,168L271,167L265,166L259,166L256,162L255,161L252,161L245,164L234,171L231,172L231,173L233,174L232,177L235,182L234,184L237,185L238,190L237,192L239,194L239,200L241,202L237,204L236,209L237,211L238,215L236,217L237,217L238,217L242,218L244,221L248,222L249,218L252,221L254,228L258,227L262,229L264,228L268,233L268,235L275,236L277,237L282,238L284,240L287,240L288,241L288,241L298,237L299,236L298,233L298,232L298,224L296,226L294,225L294,219L293,217L288,214L287,211L291,207L293,204L296,203L296,199L299,193L303,187L305,186L304,185Z " data-fips="RO12" data-fips-="" data-iso3="SRB" data-name="Branicevski"/><path d="M108,150L105,147L109,148L111,146L114,147L115,149L119,148L123,150L125,149L129,149L131,147L137,150L133,158L133,160L135,165L140,166L143,168L148,172L153,172L155,173L149,176L148,177L150,179L152,178L155,176L161,171L163,166L161,165L163,162L166,156L173,150L179,149L177,144L182,138L181,134L181,133L177,128L176,127L175,125L170,122L161,123L155,121L153,125L148,126L139,123L134,125L127,126L116,121L114,124L112,121L111,122L99,122L92,120L93,122L91,124L87,123L88,129L88,141L91,142L91,144L86,148L84,146L81,147L81,149L85,151L88,151L94,146L102,149L104,148L107,150L108,150Z " data-fips="HR18" data-fips-="" data-iso3="SRB" data-name="Sremski"/><path d="M198,260L195,256L193,254L191,251L199,245L199,243L193,237L191,233L187,228L186,227L185,221L184,221L184,221L181,225L181,227L178,228L178,230L173,233L165,235L162,236L158,236L157,236L157,236L157,238L156,242L158,244L156,247L160,252L161,258L160,258L158,262L161,267L161,273L164,274L163,283L161,283L157,286L154,286L147,291L143,295L147,297L151,301L151,303L157,314L157,316L163,317L169,317L170,318L170,318L171,319L173,322L174,322L175,320L179,316L181,313L180,309L181,303L179,300L174,294L176,292L183,282L185,283L186,274L190,273L191,270L193,267L193,265L196,262L198,261L198,260Z " data-fips="RB00" data-fips-="" data-iso3="SRB" data-name="Moravicki"/><path d="M327,312L327,307L325,305L321,305L317,303L313,304L304,299L303,296L300,292L297,293L298,295L300,297L295,298L291,292L284,291L281,287L278,282L278,278L278,278L277,274L279,273L276,270L275,268L274,268L270,269L268,269L262,273L261,273L261,274L264,286L262,290L265,292L269,298L267,304L268,308L264,311L261,313L261,313L262,314L269,316L270,315L270,321L272,327L278,330L283,326L283,330L286,335L286,337L286,337L287,337L294,335L296,338L300,336L307,341L315,346L318,345L319,344L319,344L323,341L321,336L318,336L311,331L310,330L311,326L314,324L312,321L312,318L313,316L317,317L321,319L326,318L327,313L327,312L327,312Z " data-fips="RB00" data-fips-="" data-iso3="SRB" data-name="Niavski"/><path d="M236,217L238,215L237,211L236,209L237,204L241,202L239,200L239,194L237,192L238,190L237,185L234,184L235,182L232,177L233,174L231,173L231,172L228,172L220,177L215,178L213,177L212,181L211,189L209,192L210,195L213,197L216,201L214,203L210,203L208,207L210,210L212,211L210,215L210,215L212,216L214,216L215,220L222,221L225,220L227,224L231,226L236,227L237,228L238,228L238,228L237,225L239,220L237,217L236,217Z " data-fips="RB00" data-fips-="" data-iso3="SRB" data-name="Podunavski"/><path d="M287,240L284,240L282,238L277,237L275,236L268,235L268,233L264,228L262,229L258,227L254,228L252,221L249,218L248,222L244,221L242,218L238,217L237,217L239,220L237,225L238,228L238,228L237,229L238,231L236,235L237,237L232,241L233,242L234,247L232,248L229,256L227,258L228,261L220,267L220,267L220,268L221,272L221,272L222,274L223,275L223,275L237,279L236,275L237,273L241,273L244,271L245,266L247,264L247,265L247,272L254,272L255,275L257,276L261,274L261,273L262,273L268,269L270,269L274,268L275,268L275,268L276,267L278,259L281,257L281,255L285,250L284,248L285,248L285,247L286,246L286,244L288,242L288,241L287,240Z " data-fips="RB00" data-fips-="" data-iso3="SRB" data-name="Pomoravski"/><path d="M223,275L222,275L220,275L220,280L217,283L222,287L220,289L221,297L222,298L215,299L212,298L208,298L209,304L208,310L213,311L213,316L211,323L212,324L213,328L213,332L213,333L218,336L222,332L222,327L228,324L232,326L238,320L240,315L242,314L251,311L254,312L257,311L261,313L261,313L261,313L264,311L268,308L267,304L269,298L265,292L262,290L264,286L261,274L261,273L261,274L257,276L255,275L254,272L247,272L247,265L247,264L245,266L244,271L241,273L237,273L236,275L237,279L223,275L223,275Z " data-fips="RB00" data-fips-="" data-iso3="SRB" data-name="Pomoravski"/><path d="M198,261L196,262L193,265L193,267L191,270L190,273L186,274L185,283L183,282L176,292L174,294L179,300L181,303L180,309L181,313L179,316L175,320L174,322L173,322L171,319L170,318L169,319L167,325L165,326L170,332L169,333L166,335L162,335L156,340L153,347L153,347L158,351L163,353L169,357L174,359L175,361L175,367L181,366L186,362L186,360L183,358L184,355L188,353L191,350L196,348L199,341L200,339L197,338L196,334L195,329L200,328L206,324L210,323L211,323L213,316L213,311L208,310L209,304L208,298L212,298L215,299L222,298L221,297L220,289L222,287L217,283L220,280L220,275L222,275L223,275L222,274L221,272L221,272L220,268L220,267L219,266L216,263L214,264L211,264L208,265L209,268L206,270L203,268L201,264L199,261L198,261Z " data-fips="RB00" data-fips-="" data-iso3="SRB" data-name="Raki"/><path d="M224,340L227,341L232,341L234,345L235,350L241,351L242,354L242,360L245,363L247,363L256,367L256,368L257,366L259,360L261,358L261,353L266,349L270,349L274,346L275,346L287,338L287,338L286,337L286,337L286,335L283,330L283,326L278,330L272,327L270,321L270,315L269,316L262,314L261,313L261,313L257,311L254,312L251,311L242,314L240,315L238,320L232,326L228,324L222,327L222,332L218,336L224,340Z " data-fips="RB00" data-fips-="" data-iso3="SRB" data-name="Toplicki"/><path d="M185,135L183,134L182,133L181,133L181,133L181,134L182,138L177,144L179,149L173,150L166,156L163,162L161,165L163,166L161,171L155,176L152,178L152,181L152,182L152,185L152,186L152,186L152,189L153,191L158,192L159,190L161,191L163,194L165,193L167,189L168,190L169,194L170,198L170,203L168,206L167,213L172,219L174,220L174,219L182,215L182,215L182,215L185,209L183,205L186,202L191,205L194,209L198,207L199,210L201,213L204,212L209,215L210,215L210,215L212,211L210,210L208,207L210,203L214,203L216,201L213,197L210,195L209,192L211,189L212,181L213,177L211,177L209,176L204,169L202,168L201,164L202,159L201,157L199,157L197,151L194,150L192,145L190,145L188,142L185,139L185,135L185,135L185,135Z " data-fips="RB02" data-fips-="" data-iso3="SRB" data-name="Grad Beograd"/><path d="M151,186L148,187L147,186L143,190L143,195L141,200L142,203L141,204L137,204L137,203L130,199L123,200L121,197L116,198L116,204L113,205L113,207L115,210L113,211L111,215L112,218L118,221L120,222L121,225L124,229L124,229L125,229L132,233L137,239L138,239L136,232L140,233L142,231L144,231L149,237L152,235L156,235L157,236L158,236L162,236L165,235L173,233L178,230L178,228L181,227L181,225L184,221L184,221L184,220L184,218L184,216L183,215L182,215L182,215L174,219L174,220L172,219L167,213L168,206L170,203L170,198L169,194L168,190L167,189L165,193L163,194L161,191L159,190L158,192L153,191L152,189L152,186L152,186L151,186Z " data-fips="BK00" data-fips-="" data-iso3="SRB" data-name="Kolubarski"/><path d="M150,179L148,177L149,176L155,173L153,172L148,172L143,168L140,166L135,165L133,160L133,158L137,150L131,147L129,149L125,149L123,150L119,148L115,149L114,147L111,146L109,148L105,147L108,150L108,151L108,154L105,167L100,173L99,176L95,182L94,183L94,186L92,188L89,189L90,195L87,203L89,210L90,212L98,215L101,214L104,218L107,225L115,232L116,234L119,232L123,231L124,229L124,229L124,229L121,225L120,222L118,221L112,218L111,215L113,211L115,210L113,207L113,205L116,204L116,198L121,197L123,200L130,199L137,203L137,204L141,204L142,203L141,200L143,195L143,190L147,186L148,187L151,186L152,186L152,185L152,182L152,181L152,178L150,179Z " data-fips="BK00" data-fips-="" data-iso3="SRB" data-name="Macvanski"/><path d="M209,215L204,212L201,213L199,210L198,207L194,209L191,205L186,202L183,205L185,209L182,215L182,215L183,215L184,216L184,218L184,220L184,221L185,221L186,227L187,228L191,233L193,237L199,243L199,245L191,251L193,254L195,256L198,260L198,261L199,261L201,264L203,268L206,270L209,268L208,265L211,264L214,264L216,263L219,266L220,267L220,267L228,261L227,258L229,256L232,248L234,247L233,242L232,241L237,237L236,235L238,231L237,229L238,228L237,228L236,227L231,226L227,224L225,220L222,221L215,220L214,216L212,216L210,215L209,215Z " data-fips="RB00" data-fips-="" data-iso3="SRB" data-name="umadijski"/><path d="M282,386L283,389L280,391L279,398L275,404L272,407L269,417L265,418L263,420L263,422L267,430L271,430L274,431L286,424L291,423L294,421L302,424L308,424L318,419L324,423L331,422L334,420L335,417L341,410L341,406L340,402L333,396L335,386L334,385L337,380L333,371L333,371L330,372L328,375L323,378L321,378L316,375L314,373L309,373L309,371L307,370L304,372L302,372L299,373L288,375L286,376L281,385L282,386Z " data-fips="MK59" data-fips-="" data-iso3="SRB" data-name="Pcinjski"/><path d="M286,337L287,338L287,338L275,346L274,346L270,349L266,349L261,353L261,358L259,360L257,366L256,368L256,370L253,378L254,378L266,380L269,381L271,385L273,385L277,384L281,385L281,385L286,376L288,375L299,373L302,372L304,372L307,370L309,371L309,373L314,373L316,375L321,378L323,378L328,375L330,372L333,371L334,370L339,366L339,365L342,365L342,365L336,364L331,362L328,359L331,358L328,355L316,350L319,347L319,345L319,344L318,345L315,346L307,341L300,336L296,338L294,335L287,337L286,337Z " data-fips="MK97" data-fips-="" data-iso3="SRB" data-name="Jablanicki"/><path d="M285,248L284,248L285,250L281,255L281,257L278,259L276,267L275,268L275,268L276,270L279,273L277,274L278,278L278,278L278,282L281,287L284,291L291,292L295,298L300,297L298,295L297,293L300,292L303,296L304,299L313,304L317,303L321,305L325,305L327,307L327,312L327,312L328,313L335,316L338,314L343,318L345,317L351,310L351,310L350,308L341,303L338,296L337,286L332,281L331,278L329,271L328,266L331,253L331,250L334,246L336,246L335,245L336,241L338,239L335,236L331,233L326,234L322,233L319,231L316,236L318,238L320,243L319,245L314,253L314,257L311,260L307,258L304,253L302,254L298,253L294,249L291,249L285,249L285,248Z " data-fips="RB00" data-fips-="" data-iso3="SRB" data-name="Zajecarski"/><path d="M166,66L166,66L162,63L158,63L149,60L148,60L148,60L143,62L140,64L138,74L135,76L129,72L128,71L127,73L124,80L121,83L115,83L113,84L110,88L111,94L102,93L98,94L97,92L92,91L91,89L89,88L86,88L86,86L85,86L84,89L84,91L87,94L85,101L87,101L92,108L95,109L110,113L113,118L112,121L112,121L114,124L116,121L127,126L134,125L139,123L148,126L153,125L155,121L161,123L170,122L175,125L176,127L177,126L177,122L179,121L178,115L175,112L174,110L176,106L171,100L174,95L172,93L164,84L166,79L162,78L165,73L164,67L165,66L166,66Z " data-fips="RB02" data-fips-="" data-iso3="SRB" data-name="Juno-Backi"/><path d="M231,109L228,111L224,111L216,116L218,118L209,126L208,126L201,120L197,120L194,122L190,123L187,130L188,131L185,134L185,135L185,135L185,139L188,142L190,145L192,145L194,150L197,151L199,157L201,157L202,159L201,164L202,168L204,169L209,176L211,177L213,177L215,178L220,177L228,172L231,172L234,171L245,164L252,161L255,161L254,161L258,157L264,157L267,156L268,153L268,151L262,148L259,148L257,146L257,145L255,142L260,140L260,139L265,128L259,123L251,120L247,119L240,111L234,111L231,109Z " data-fips="RB02" data-fips-="" data-iso3="SRB" data-name="Juno-Banatski"/><path d="M205,60L203,65L203,69L198,69L194,74L196,78L190,78L183,79L181,78L183,75L184,73L188,70L188,68L184,63L183,60L169,60L170,64L168,66L166,66L165,66L164,67L165,73L162,78L166,79L164,84L172,93L174,95L171,100L176,106L174,110L175,112L178,115L179,121L177,122L177,126L176,127L177,128L181,133L181,133L182,133L183,134L185,135L185,135L185,134L188,131L187,130L190,123L194,122L197,120L201,120L208,126L209,126L218,118L216,116L224,111L228,111L231,109L228,108L224,103L220,99L217,95L213,93L215,89L214,85L212,81L214,73L214,63L213,63L210,66L205,60L205,60Z " data-fips="RB02" data-fips-="" data-iso3="SRB" data-name="Srednje-Banatski"/><path d="M124,229L124,229L123,231L119,232L116,234L117,235L123,238L122,243L119,245L107,246L103,245L100,242L96,242L95,246L100,253L104,259L111,268L114,277L114,280L112,282L112,289L107,290L106,291L101,284L99,285L94,286L92,291L88,293L88,296L89,299L91,301L101,306L103,307L106,312L112,321L119,329L120,330L128,331L130,335L134,339L140,338L144,337L145,340L150,344L153,347L156,340L162,335L166,335L169,333L170,332L165,326L167,325L169,319L170,318L170,318L169,317L163,317L157,316L157,314L151,303L151,301L147,297L143,295L147,291L154,286L157,286L161,283L163,283L164,274L161,273L161,267L158,262L160,258L161,258L160,252L156,247L158,244L156,242L157,238L157,236L157,236L156,235L152,235L149,237L144,231L142,231L140,233L136,232L138,239L137,239L132,233L125,229L124,229Z " data-fips="BK00" data-fips-="" data-iso3="SRB" data-name="Zlatiborski"/></g></svg>