<?xml version="1.0" encoding="UTF-8"?><!DOCTYPE svg  PUBLIC '-//W3C//DTD SVG 1.1//EN'  'http://www.w3.org/Graphics/SVG/1.1/DTD/svg11.dtd'><svg enable_background="new 0 0 450 301" height="301px" style="stroke-linejoin: round; stroke:#000; fill:#f6f3f0;" version="1.1" viewBox="0 0 450 301" width="450px" xmlns="http://www.w3.org/2000/svg" xmlns:xlink="http://www.w3.org/1999/xlink"><defs><style type="text/css"><![CDATA[path { fill-rule: evenodd; }
#context path { fill: #eee; stroke: #bbb; } ]]></style></defs><metadata><views><view h="301.0" padding="0.06" w="450"><proj id="laea" lat0="8.89771301939" lon0="26.9756629921"/><bbox h="124.47" w="153.08" x="956.95" y="950.23"/><llbbox lat0="-90" lat1="90" lon0="-180" lon1="180"/></view></views></metadata><g id="context"><path d="M157,232L155,230L153,227L152,217L148,212L137,206L133,205L131,203L128,197L125,192L126,187L118,180L117,177L113,174L98,166L92,159L94,156L92,152L87,147L82,142L79,140L66,137L63,135L63,132L64,128L63,127L62,126L59,125L48,124L44,122L44,118L42,115L42,113L46,108L46,106L47,92L44,86L36,73L27,63L25,59L24,59L14,57L3,61L0,63L0,258L10,260L12,258L16,251L23,243L27,242L36,245L39,245L47,241L52,240L66,235L70,235L79,237L86,235L88,236L98,227L102,226L121,230L134,233L141,233L146,230L149,229L157,232Z " data-iso="CAF"/><path d="M259,279L258,278L257,275L251,275L249,269L240,265L230,255L227,250L224,247L221,246L218,246L216,250L211,253L203,250L196,250L187,255L181,254L170,247L165,240L160,236L158,234L157,232L149,229L146,230L141,233L134,233L121,230L102,226L98,227L88,236L86,235L79,237L70,235L66,235L52,240L47,241L39,245L36,245L27,242L23,243L16,251L12,258L10,260L0,258L0,299L259,299L257,293L257,289L261,282L261,280L259,279Z " data-iso="COD"/><path d="M352,101L352,102L353,127L349,131L344,132L333,131L329,132L322,146L324,150L341,154L348,159L353,167L359,174L365,177L372,184L380,202L381,207L386,215L389,217L389,218L389,219L403,222L405,224L404,238L411,247L414,248L436,249L450,256L450,25L449,28L448,30L446,34L444,33L445,32L443,29L442,28L440,29L438,28L437,28L435,26L435,24L436,18L436,17L438,15L439,15L440,16L442,16L444,15L448,14L450,15L450,0L409,0L408,2L396,6L394,8L384,26L381,30L380,32L377,46L377,50L376,56L373,62L371,62L366,58L364,60L357,69L359,77L358,81L355,87L352,99L352,101Z " data-iso="ETH"/><path d="M389,218L384,223L363,244L357,250L352,256L356,266L366,274L364,280L366,288L368,289L370,295L375,299L450,299L450,256L436,249L414,248L411,247L404,238L405,224L403,222L389,219L389,218Z " data-iso="KEN"/><path d="M25,59L27,63L36,73L44,86L47,92L46,106L46,108L42,113L42,115L44,118L44,122L48,124L59,125L62,126L62,126L62,125L66,122L73,120L74,115L77,110L77,106L80,101L81,93L87,85L88,80L89,78L95,77L110,74L114,82L121,88L132,101L135,102L138,102L147,98L169,99L176,107L199,107L199,103L207,96L218,93L221,89L221,85L233,78L247,87L255,94L267,93L269,92L281,79L289,66L302,54L303,53L301,49L300,35L292,26L312,26L325,20L323,28L322,38L325,61L324,63L330,66L333,69L346,79L348,85L348,89L347,93L347,101L352,101L352,101L352,101L352,99L355,87L358,81L359,77L357,69L364,60L366,58L371,62L373,62L376,56L377,50L377,46L380,32L381,30L384,26L394,8L396,6L408,2L409,0L0,0L0,7L7,6L11,7L13,11L12,13L14,23L17,27L16,37L19,41L23,44L27,46L26,56L25,59Z " data-iso="SDN"/><path d="M62,126L62,126L63,127L64,128L63,132L63,135L66,137L79,140L82,142L87,147L92,152L94,156L92,159L98,166L113,174L117,177L118,180L126,187L125,192L128,197L131,203L133,205L137,206L148,212L152,217L153,227L155,230L157,232L158,234L160,236L165,240L170,247L181,254L187,255L196,250L203,250L211,253L216,250L218,246L221,246L224,247L227,250L230,255L240,265L249,269L251,275L257,275L258,278L259,279L260,278L268,270L270,270L280,274L287,270L292,275L298,278L299,275L303,272L318,270L323,267L327,270L337,271L345,264L352,256L357,250L363,244L384,223L389,218L389,217L386,215L381,207L380,202L372,184L365,177L359,174L353,167L348,159L341,154L324,150L322,146L329,132L333,131L344,132L349,131L353,127L352,102L352,101L352,101L352,101L347,101L347,93L348,89L348,85L346,79L333,69L330,66L324,63L325,61L322,38L323,28L325,20L312,26L292,26L300,35L301,49L303,53L302,54L289,66L281,79L269,92L267,93L255,94L247,87L233,78L221,85L221,89L218,93L207,96L199,103L199,107L176,107L169,99L147,98L138,102L135,102L132,101L121,88L114,82L110,74L95,77L89,78L88,80L87,85L81,93L80,101L77,106L77,110L74,115L73,120L66,122L62,125L62,126Z " data-iso="SSD"/><path d="M25,59L26,56L27,46L23,44L19,41L16,37L17,27L14,23L12,13L13,11L11,7L7,6L0,7L0,63L3,61L14,57L24,59L25,59Z " data-iso="TCD"/><path d="M352,256L345,264L337,271L327,270L323,267L318,270L303,272L299,275L298,278L292,275L287,270L280,274L270,270L268,270L260,278L259,279L261,280L261,282L257,289L257,293L259,299L375,299L370,295L368,289L366,288L364,280L366,274L356,266L352,256Z " data-iso="UGA"/></g><g fill="red" fill-opacity="0.35" id="regions"><path d="M119,87L119,90L118,100L118,119L120,129L120,138L121,141L125,145L134,151L139,151L144,148L162,140L166,139L168,130L171,119L175,117L178,116L186,116L199,115L199,115L200,111L203,109L203,108L199,107L176,107L175,105L171,99L168,99L161,99L148,99L136,102L132,101L121,88L119,87Z " data-fips="SU54" data-fips-="SU06" data-iso3="SSD" data-name="North Bahr-al-Ghazal" data-p="BN"/><path d="M243,173L240,172L230,152L229,152L225,151L221,157L211,168L209,172L205,184L202,186L196,185L194,184L193,188L192,192L193,197L196,203L199,205L203,210L207,212L222,214L225,213L227,208L231,202L232,199L231,192L239,191L241,193L245,200L247,201L253,201L259,199L265,204L268,205L278,207L282,208L283,207L283,206L279,201L275,192L275,191L270,183L258,173L258,173L243,173Z " data-fips="SU37" data-fips-="SU06" data-iso3="SSD" data-name="Lakes" data-p="LK"/><path d="M127,187L124,191L124,194L129,197L128,203L134,205L137,205L140,207L141,209L145,210L146,212L149,212L153,218L152,222L152,225L154,228L158,233L162,238L164,238L166,241L168,242L168,245L175,250L176,252L178,252L188,255L194,251L195,249L198,249L199,250L204,250L211,253L213,253L217,247L218,245L224,246L228,248L228,248L236,241L239,241L242,243L244,244L251,238L259,233L260,224L262,219L261,214L257,211L255,208L250,205L247,201L245,200L241,193L239,191L231,192L232,199L231,202L227,208L225,213L222,214L207,212L203,210L199,205L196,203L193,197L192,192L193,188L194,184L179,185L178,185L173,181L127,187L127,187Z " data-fips="SU45" data-fips-="SU02" data-iso3="SSD" data-name="West Equatoria" data-p="EW"/><path d="M247,201L250,205L255,208L257,211L261,214L262,219L260,224L259,233L251,238L244,244L242,243L239,241L236,241L228,248L228,249L227,251L232,255L232,257L238,261L242,266L250,269L251,276L256,274L260,278L262,275L268,270L272,271L279,274L283,273L287,269L287,270L291,261L294,259L297,255L298,251L300,245L303,240L300,233L299,229L298,211L299,208L283,207L282,208L278,207L268,205L265,204L259,199L253,201L247,201Z " data-fips="SU44" data-fips-="UG72" data-iso3="SSD" data-name="Central Equatoria" data-p="EC"/><path d="M261,94L260,101L261,101L266,103L271,104L278,105L288,118L292,119L300,115L304,119L310,128L318,135L317,142L322,146L322,146L326,141L327,137L326,136L326,133L329,131L332,132L338,131L343,133L354,126L352,108L346,100L347,94L349,90L349,85L347,79L334,69L331,66L324,64L325,60L322,38L323,36L324,31L323,28L325,22L325,20L312,26L293,26L300,35L301,49L303,53L303,54L289,66L287,72L281,80L269,92L267,93L261,94Z " data-fips="SU35" data-fips-="SU01" data-iso3="SSD" data-name="Upper Nile" data-p="NU"/><path d="M258,173L258,173L270,183L275,191L275,192L279,201L283,206L283,207L299,208L357,210L380,203L380,203L380,201L374,190L372,183L367,181L366,177L364,176L360,175L357,172L357,170L352,166L352,164L347,158L344,156L340,154L329,152L324,151L322,146L322,146L317,142L318,135L310,128L304,119L300,115L292,119L288,118L278,105L271,104L266,103L261,101L260,101L260,101L245,102L243,107L244,109L241,114L239,118L240,123L242,126L241,129L243,131L243,136L242,139L243,142L246,146L249,151L248,155L254,168L257,173L258,173Z " data-fips="SU51" data-fips-="SU01" data-iso3="SSD" data-name="Jungoli" data-p="JG"/><path d="M199,107L203,108L203,109L200,111L199,115L199,115L205,115L207,115L214,127L223,134L225,151L229,152L230,152L240,172L243,173L258,173L257,173L254,168L248,155L249,151L246,146L243,142L242,139L243,136L243,131L241,129L242,126L240,123L239,118L241,114L244,109L243,107L245,102L260,101L260,101L261,94L257,94L256,95L247,87L233,78L222,85L222,89L218,94L211,95L208,97L201,101L199,103L199,106L199,107Z " data-fips="SU40" data-fips-="SU06" data-iso3="SSD" data-name="Unity" data-p="UY"/><path d="M223,134L214,127L207,115L205,115L199,115L186,116L178,116L175,117L171,119L168,130L166,139L167,140L174,150L179,151L191,158L192,162L193,168L192,173L192,177L194,184L196,185L202,186L205,184L209,172L211,168L221,157L225,151L223,134Z " data-fips="SU59" data-fips-="SU06" data-iso3="SSD" data-name="Warap" data-p="WR"/><path d="M127,187L173,181L178,185L179,185L194,184L192,177L192,173L193,168L192,162L191,158L179,151L174,150L167,140L166,139L162,140L144,148L139,151L134,151L125,145L121,141L120,138L120,129L118,119L118,100L119,90L119,87L119,87L113,81L113,77L112,74L90,78L89,79L86,87L84,90L80,102L77,105L77,111L74,116L74,120L69,121L63,125L61,134L61,136L67,139L70,138L73,140L75,140L82,141L87,148L93,150L94,155L91,159L92,161L96,163L97,166L102,168L103,169L115,176L118,181L127,186L127,187Z " data-fips="SU46" data-fips-="SU46" data-iso3="SSD" data-name="West Bahr-al-Ghazal" data-p="BW"/><path d="M380,203L380,203L357,210L299,208L298,211L299,229L300,233L303,240L300,245L298,251L297,255L294,259L291,261L287,270L288,270L296,278L299,277L304,272L306,271L316,270L323,267L329,271L336,271L339,270L363,244L389,218L385,215L380,207L380,203L380,203Z " data-fips="SU57" data-fips-="SU02" data-iso3="SSD" data-name="East Equatoria" data-p="EE"/></g></svg>
