<?xml version="1.0" encoding="UTF-8"?><!DOCTYPE svg  PUBLIC '-//W3C//DTD SVG 1.1//EN'  'http://www.w3.org/Graphics/SVG/1.1/DTD/svg11.dtd'><svg enable_background="new 0 0 450 451" height="451px" style="stroke-linejoin: round; stroke:#000; fill:#f6f3f0;" version="1.1" viewBox="0 0 450 451" width="450px" xmlns="http://www.w3.org/2000/svg" xmlns:xlink="http://www.w3.org/1999/xlink"><defs><style type="text/css"><![CDATA[path { fill-rule: evenodd; }
#context path { fill: #eee; stroke: #bbb; } ]]></style></defs><metadata><views><view h="451" padding="0.06" w="450"><proj id="laea" lat0="5.61104024936" lon0="-56.8468972483"/><bbox h="57.54" w="56.26" x="981.95" y="992.07"/><llbbox lat0="-90" lat1="90" lon0="-180" lon1="180"/></view></views></metadata><g id="context"><path d="M6,449L5,449L3,449L6,449Z M361,378L357,378L353,375L353,371L351,367L347,365L338,367L336,366L331,361L327,356L326,352L324,352L317,357L313,357L310,356L306,357L297,361L291,362L287,367L261,369L254,370L238,362L234,360L228,362L226,372L224,374L219,377L215,381L215,385L221,387L226,394L236,406L235,420L231,423L226,425L206,421L191,417L184,416L181,415L177,417L174,418L169,417L161,418L154,420L147,421L128,416L123,409L120,408L113,411L105,413L101,413L92,418L83,431L79,436L74,438L65,438L55,438L47,441L37,443L36,449L450,449L450,380L446,379L443,375L440,376L426,387L412,395L408,397L398,394L392,394L379,389L371,386L367,381L363,379L361,378Z " data-iso="BRA"/><path d="M404,86L396,92L388,102L376,119L377,124L374,128L373,136L374,144L377,150L379,160L376,170L377,175L380,184L382,193L381,197L387,203L386,211L395,226L401,232L409,239L412,245L417,252L419,253L421,256L419,262L419,269L414,279L402,296L401,299L404,313L401,330L382,365L374,369L369,376L362,377L361,378L363,379L367,381L371,386L379,389L392,394L398,394L408,397L412,395L426,387L440,376L443,375L446,379L450,380L450,54L434,45L427,46L420,55L411,80L404,86Z " data-iso="FRA"/><path d="M181,415L178,412L174,409L160,406L155,398L149,388L147,383L143,378L138,371L137,366L132,358L128,348L126,345L120,335L116,329L113,327L111,325L112,317L110,313L109,303L108,300L105,297L104,279L102,277L91,277L90,278L79,279L69,275L69,272L69,263L62,257L52,248L48,237L44,231L32,217L30,207L30,200L35,194L40,183L43,173L48,161L50,153L48,147L45,142L44,138L47,132L51,128L55,127L60,125L63,121L69,121L77,120L92,120L100,119L102,116L102,110L106,106L112,102L109,97L105,97L101,88L104,85L107,78L108,74L113,68L112,66L116,35L113,15L110,7L101,0L0,0L0,449L3,449L5,449L6,449L36,449L37,443L47,441L55,438L65,438L74,438L79,436L83,431L92,418L101,413L105,413L113,411L120,408L123,409L128,416L147,421L154,420L161,418L169,417L174,418L177,417L181,415Z " data-iso="GUY"/><path d="M411,72L415,61L416,51L414,42L405,38L385,33L339,25L309,25L287,29L261,26L244,28L236,35L237,44L237,53L233,44L205,35L183,30L135,25L126,30L122,41L119,50L118,59L114,70L113,68L108,74L107,78L104,85L101,88L105,97L109,97L112,102L106,106L102,110L102,116L100,119L92,120L77,120L69,121L63,121L60,125L55,127L51,128L47,132L44,138L45,142L48,147L50,153L48,161L43,173L40,183L35,194L30,200L30,207L32,217L44,231L48,237L52,248L62,257L69,263L69,272L69,275L79,279L90,278L91,277L102,277L104,279L105,297L108,300L109,303L110,313L112,317L111,325L113,327L116,329L120,335L126,345L128,348L132,358L137,366L138,371L143,378L147,383L149,388L155,398L160,406L174,409L178,412L181,415L184,416L191,417L206,421L226,425L231,423L235,420L236,406L226,394L221,387L215,385L215,381L219,377L224,374L226,372L228,362L234,360L238,362L254,370L261,369L287,367L291,362L297,361L306,357L310,356L313,357L317,357L324,352L326,352L327,356L331,361L336,366L338,367L347,365L351,367L353,371L353,375L357,378L361,378L362,377L369,376L374,369L382,365L401,330L404,313L401,299L402,296L414,279L419,269L419,262L421,256L419,253L417,252L412,245L409,239L401,232L395,226L386,211L387,203L381,197L382,193L380,184L377,175L376,170L379,160L377,150L374,144L373,136L374,128L377,124L376,119L388,102L396,92L404,86L411,72Z " data-iso="SUR"/></g><g fill="red" fill-opacity="0.35" id="regions"><path d="M168,30L163,27L136,24L132,26L130,27L126,29L124,31L123,37L119,44L119,47L118,57L116,67L113,71L110,72L107,76L106,82L100,89L100,91L104,91L104,98L107,98L106,97L109,95L109,96L114,95L120,95L158,89L181,90L182,89L183,87L180,82L178,85L175,84L175,81L177,80L176,76L173,71L179,67L176,63L170,46L170,30L168,30Z " data-fips="NS14" data-fips-="" data-iso3="SUR" data-name="Nickerie" data-p="NI"/><path d="M337,123L336,122L335,114L333,111L334,107L332,104L326,100L324,97L324,91L321,89L292,90L290,90L289,92L290,95L286,102L283,106L279,109L275,113L285,128L287,135L289,150L288,169L292,176L294,210L296,215L300,215L306,212L311,207L314,206L318,206L323,200L327,204L331,199L334,195L336,189L336,185L334,174L334,173L340,167L341,163L341,154L346,137L348,131L347,127L344,125L338,122L337,123Z " data-fips="NS10" data-fips-="" data-iso3="SUR" data-name="Brokopondo" data-p="BR"/><path d="M389,98L393,94L401,89L403,87L407,80L409,76L410,75L414,67L414,59L415,56L420,47L417,41L411,40L403,37L393,35L385,33L373,31L351,27L350,30L351,37L348,42L349,49L357,63L359,66L360,70L361,75L361,77L360,80L356,84L374,91L381,95L386,97L389,100L389,98Z " data-fips="NS13" data-fips-="" data-iso3="SUR" data-name="Marowijne" data-p="13"/><path d="M315,55L312,55L302,57L299,57L290,56L290,57L287,63L286,65L285,70L286,71L285,76L282,78L281,79L279,78L276,79L247,82L242,80L238,82L236,77L238,72L237,70L235,69L230,84L228,106L228,111L234,112L239,111L245,110L251,112L255,115L257,121L263,122L271,116L275,113L275,113L279,109L283,106L286,102L290,95L289,92L290,90L292,90L321,89L324,91L324,97L326,100L332,104L334,107L333,111L335,114L336,122L337,123L338,122L339,118L340,112L343,103L347,100L349,96L355,84L356,84L360,80L361,77L361,75L360,70L359,66L322,69L319,69L318,62L315,61L316,58L320,56L315,55Z " data-fips="NS15" data-fips-="" data-iso3="SUR" data-name="Para" data-p="PR"/><path d="M232,70L230,72L231,73L229,75L223,79L222,83L215,83L206,83L197,85L195,87L190,90L181,90L158,89L120,95L114,95L109,96L110,97L113,101L113,104L109,107L109,105L105,104L104,104L101,115L105,118L95,120L82,119L79,120L73,121L69,120L66,120L62,122L60,124L57,128L55,128L52,127L45,135L43,137L44,142L47,143L48,147L51,151L51,154L49,158L47,163L46,166L40,177L41,182L39,190L31,198L29,200L31,215L32,218L35,221L41,226L47,235L50,241L50,246L53,250L58,252L63,257L64,260L68,262L70,265L68,268L68,272L70,276L73,277L79,280L85,280L90,278L99,278L102,275L104,280L104,287L104,288L104,295L105,297L105,300L109,300L108,302L110,306L111,311L110,311L109,316L113,317L113,320L111,321L114,330L119,330L118,333L119,335L122,335L122,339L125,342L127,348L129,347L131,360L133,360L135,359L136,362L138,367L138,372L142,375L143,381L148,384L151,394L160,407L163,408L172,408L180,412L181,415L186,417L192,416L200,420L208,420L214,422L220,424L226,425L232,424L235,420L236,417L235,413L235,408L235,404L232,401L225,394L223,392L223,388L219,386L215,386L214,383L218,376L223,376L227,369L227,365L228,361L231,358L233,359L242,365L249,367L254,371L262,369L265,368L269,368L275,367L286,368L288,367L290,362L292,360L296,360L298,361L300,361L307,355L311,355L317,357L320,354L326,351L328,351L328,353L326,355L326,357L336,366L339,367L344,366L347,364L352,366L353,371L352,371L353,378L356,379L361,378L370,376L373,369L380,367L384,363L386,360L389,351L393,344L400,334L402,328L402,324L404,320L404,316L402,313L403,306L403,301L402,300L402,296L409,285L412,283L415,276L418,273L420,257L421,255L420,253L418,251L415,252L413,248L411,241L407,236L403,235L401,233L397,228L394,224L392,221L391,218L386,212L386,209L387,205L387,202L382,199L380,196L381,195L382,191L381,186L378,180L377,167L379,157L378,154L378,148L377,146L374,145L374,144L374,132L373,129L376,127L376,119L387,101L389,100L386,97L381,95L374,91L356,84L355,84L349,96L347,100L343,103L340,112L339,118L338,122L344,125L347,127L348,131L346,137L341,154L341,163L340,167L334,173L334,174L336,185L336,189L334,195L331,199L327,204L323,200L318,206L314,206L311,207L306,212L300,215L296,215L294,210L292,176L288,169L289,150L287,135L285,128L275,113L275,113L271,116L263,122L257,121L255,115L251,112L245,110L239,111L234,112L228,111L228,106L230,84L235,69L232,70Z " data-fips="NS18" data-fips-="" data-iso3="SUR" data-name="Sipaliwini" data-p="SI"/><path d="M350,27L345,25L322,25L316,24L312,26L308,26L308,27L313,33L319,34L322,36L330,37L327,38L325,37L322,38L315,35L313,41L311,41L309,43L308,43L309,45L310,47L310,47L321,55L320,56L320,56L316,58L315,61L318,62L319,69L322,69L359,66L357,63L349,49L348,42L351,37L350,30L351,27L350,27Z " data-fips="NS13" data-fips-="NS11" data-iso3="SUR" data-name="Commewijne" data-p="CM"/><path d="M237,55L237,47L232,44L225,41L220,41L216,39L209,38L204,35L190,32L176,29L170,30L170,30L170,46L176,63L179,67L173,71L176,76L177,80L175,81L175,84L178,85L180,82L183,87L182,89L181,90L190,90L195,87L197,85L206,83L215,83L222,83L223,79L229,75L231,73L230,72L232,70L235,69L235,67L231,63L234,58L237,55L237,55Z " data-fips="NS12" data-fips-="" data-iso3="SUR" data-name="Coronie" data-p="CR"/><path d="M311,41L313,37L313,36L310,35L302,34L301,34L301,39L305,45L310,47L309,45L308,43L309,43L311,41L311,41Z " data-fips="NS16" data-fips-="" data-iso3="SUR" data-name="Paramaribo" data-p="PM"/><path d="M298,31L287,28L262,26L258,26L240,30L235,34L237,44L239,49L238,55L237,55L234,58L231,63L235,67L235,69L237,70L238,72L236,77L238,82L242,80L247,82L276,79L279,78L281,79L282,78L285,76L286,71L285,70L286,65L287,63L290,57L290,56L289,52L290,48L293,45L299,32L298,31Z " data-fips="NS17" data-fips-="" data-iso3="SUR" data-name="Saramacca" data-p="SA"/><path d="M301,33L300,33L299,32L293,45L290,48L289,52L290,56L299,57L302,57L312,55L315,55L320,56L320,56L321,55L310,47L310,47L305,45L301,39L301,34L301,33Z " data-fips="NS19" data-fips-="" data-iso3="SUR" data-name="Wanica" data-p="WA"/></g></svg>