<?xml version="1.0" encoding="UTF-8"?><!DOCTYPE svg  PUBLIC '-//W3C//DTD SVG 1.1//EN'  'http://www.w3.org/Graphics/SVG/1.1/DTD/svg11.dtd'><svg enable_background="new 0 0 450 301" height="301px" style="stroke-linejoin: round; stroke:#000; fill:#f6f3f0;" version="1.1" viewBox="0 0 450 301" width="450px" xmlns="http://www.w3.org/2000/svg" xmlns:xlink="http://www.w3.org/1999/xlink"><defs><style type="text/css"><![CDATA[path { fill-rule: evenodd; }
#context path { fill: #eee; stroke: #bbb; } ]]></style></defs><metadata><views><view h="301.0" padding="0.06" w="450"><proj id="laea" lat0="48.3310295683" lon0="17.1834979049"/><bbox h="28.62" w="51.57" x="994.46" y="981.28"/><llbbox lat0="-90" lat1="90" lon0="-180" lon1="180"/></view></views></metadata><g id="context"><path d="M46,223L41,219L40,215L33,202L26,182L25,176L31,164L32,160L32,159L30,157L27,148L15,144L7,139L0,137L0,253L3,251L5,250L10,252L17,257L20,258L33,256L40,255L38,249L38,245L37,241L38,237L41,234L42,228L46,223Z M0,287L8,283L12,273L9,266L0,262L0,287Z " data-iso="AUT"/><path d="M32,159L34,151L40,140L45,133L49,131L56,133L70,134L80,133L89,128L102,114L110,112L112,109L114,96L117,88L131,79L135,73L139,70L143,65L147,62L153,62L158,62L162,60L164,60L163,56L162,49L147,33L145,27L145,24L144,20L141,18L129,15L126,17L119,12L112,9L108,4L107,4L104,8L96,11L90,7L85,0L0,0L0,137L7,139L15,144L27,148L30,157L32,159Z " data-iso="CZE"/><path d="M402,169L401,170L376,177L373,177L369,173L364,165L361,161L352,156L348,156L335,161L325,162L319,161L311,159L295,159L284,162L283,165L274,187L260,196L247,204L244,206L237,204L230,199L224,197L219,198L215,204L213,209L198,214L173,217L164,222L161,229L161,234L164,238L160,245L118,249L90,248L81,244L70,236L58,225L55,223L48,222L46,223L42,228L41,234L38,237L37,241L38,245L38,249L40,255L33,256L20,258L17,257L10,252L5,250L3,251L0,253L0,262L9,266L12,273L8,283L0,287L0,299L387,299L390,288L392,285L399,278L399,266L401,262L406,258L411,252L415,244L418,241L422,239L427,236L432,235L437,236L441,235L445,231L450,225L450,198L445,198L436,196L431,188L424,185L419,184L416,180L412,173L411,168L409,167L402,169Z " data-iso="HUN"/><path d="M164,60L171,61L173,72L186,71L193,59L197,57L202,53L206,49L209,51L213,59L217,65L220,67L230,73L231,84L229,91L233,92L237,91L241,89L251,93L254,83L258,78L263,75L271,70L283,70L289,68L297,70L302,74L307,76L313,75L316,73L321,64L325,64L331,62L340,62L360,62L366,65L378,69L384,73L388,83L402,88L421,94L426,95L429,94L438,98L445,99L448,94L447,92L437,83L436,81L438,70L436,64L431,50L430,44L433,37L445,19L450,10L450,0L85,0L90,7L96,11L104,8L107,4L108,4L112,9L119,12L126,17L129,15L141,18L144,20L145,24L145,27L147,33L162,49L163,56L164,60Z " data-iso="POL"/><path d="M450,299L450,225L445,231L441,235L437,236L432,235L427,236L422,239L418,241L415,244L411,252L406,258L401,262L399,266L399,278L392,285L390,288L387,299L450,299Z " data-iso="ROU"/><path d="M421,94L402,88L388,83L384,73L378,69L366,65L360,62L340,62L331,62L325,64L321,64L316,73L313,75L307,76L302,74L297,70L289,68L283,70L271,70L263,75L258,78L254,83L251,93L241,89L237,91L233,92L229,91L231,84L230,73L220,67L217,65L213,59L209,51L206,49L202,53L197,57L193,59L186,71L173,72L171,61L164,60L162,60L158,62L153,62L147,62L143,65L139,70L135,73L131,79L117,88L114,96L112,109L110,112L102,114L89,128L80,133L70,134L56,133L49,131L45,133L40,140L34,151L32,159L32,160L31,164L25,176L26,182L33,202L40,215L41,219L46,223L48,222L55,223L58,225L70,236L81,244L90,248L118,249L160,245L164,238L161,234L161,229L164,222L173,217L198,214L213,209L215,204L219,198L224,197L230,199L237,204L244,206L247,204L260,196L274,187L283,165L284,162L295,159L311,159L319,161L325,162L335,161L348,156L352,156L361,161L364,165L369,173L373,177L376,177L401,170L402,169L402,151L412,138L414,131L417,117L419,110L425,99L426,95L421,94Z " data-iso="SVK"/><path d="M426,95L425,99L419,110L417,117L414,131L412,138L402,151L402,169L409,167L411,168L412,173L416,180L419,184L424,185L431,188L436,196L445,198L450,198L450,10L445,19L433,37L430,44L431,50L436,64L438,70L436,81L437,83L447,92L448,94L445,99L438,98L429,94L426,95Z " data-iso="UKR"/></g><g fill="red" fill-opacity="0.35" id="regions"><path d="M31,165L29,169L25,176L25,181L25,185L28,187L28,189L32,194L34,206L36,208L39,209L40,212L41,218L40,220L46,223L48,221L51,222L54,223L54,220L58,215L58,210L59,210L63,208L63,205L67,207L73,204L73,203L72,199L71,198L72,193L69,190L68,183L63,176L62,176L58,173L61,169L57,165L59,161L60,161L62,157L61,154L59,153L54,160L48,163L44,164L39,162L40,163L36,164L32,165L31,165Z " data-fips="LO02" data-fips-="" data-iso3="SVK" data-name="Bratislavsk"/><path d="M166,142L165,143L163,147L161,148L157,155L153,154L150,158L149,161L142,162L142,164L143,165L142,169L145,169L146,178L147,179L148,182L145,187L146,188L148,186L156,183L157,181L161,178L165,183L168,189L165,196L167,200L165,202L170,205L174,205L175,203L182,201L184,201L183,209L180,213L180,215L182,215L200,212L210,212L214,208L215,201L217,198L223,196L226,197L227,199L233,199L234,200L235,204L238,203L240,204L244,207L246,206L257,198L259,195L264,193L266,190L270,192L271,191L275,186L276,183L279,174L281,171L283,169L279,168L278,169L273,168L272,167L271,164L273,154L271,153L269,150L262,142L261,139L262,137L262,131L266,126L267,125L264,124L262,123L261,122L258,123L247,122L246,122L244,122L237,123L234,122L230,124L227,122L222,120L217,119L205,122L199,129L196,129L195,126L183,128L180,128L177,131L177,135L177,142L171,141L169,140L166,142Z " data-fips="LO01" data-fips-="" data-iso3="SVK" data-name="Banskobystrick"/><path d="M237,91L245,101L249,100L249,101L247,110L246,111L249,116L250,119L250,121L247,122L246,122L244,122L237,123L234,122L230,124L227,122L222,120L217,119L205,122L199,129L196,129L195,126L183,128L180,128L177,131L177,135L177,142L171,141L169,140L166,142L165,141L162,137L160,133L157,131L156,124L157,122L151,119L148,119L147,118L144,122L139,120L143,117L147,114L149,111L147,106L146,105L148,103L145,98L140,94L138,92L137,89L131,80L133,78L133,73L142,68L144,62L147,63L150,61L153,63L157,63L164,60L171,60L173,61L172,63L173,68L173,71L176,73L179,71L184,72L188,70L191,61L193,58L200,56L205,49L207,49L211,55L213,60L216,65L220,67L224,71L229,70L231,74L231,79L233,83L229,89L230,92L232,92L236,92L237,91Z " data-fips="LO08" data-fips-="" data-iso3="SVK" data-name="ilinsk"/><path d="M106,157L106,158L105,159L102,160L99,160L96,167L104,173L103,175L98,184L97,185L96,191L97,194L98,201L96,203L94,206L90,207L96,215L99,218L99,227L100,232L94,238L92,242L87,248L89,249L95,250L116,249L125,250L127,249L133,247L147,245L158,246L163,242L165,241L164,238L161,236L162,228L168,218L179,215L180,215L180,213L183,209L184,201L182,201L175,203L174,205L170,205L165,202L167,200L165,196L168,189L165,183L161,178L157,181L156,183L148,186L146,188L145,187L148,182L147,179L146,178L145,169L142,169L143,165L142,164L137,167L133,170L132,169L129,169L127,165L124,163L122,155L119,153L115,149L110,148L107,146L107,149L107,155L106,157Z " data-fips="SI04" data-fips-="LO04" data-iso3="SVK" data-name="Nitriansky"/><path d="M128,82L119,86L115,90L113,108L111,110L107,113L101,114L100,114L96,124L92,124L87,130L73,136L71,136L66,133L65,134L63,137L61,140L64,140L65,139L70,144L69,148L73,156L79,154L80,151L82,152L87,150L90,153L98,155L99,156L106,157L107,155L107,149L107,146L110,148L115,149L119,153L122,155L124,163L127,165L129,169L132,169L133,170L137,167L142,164L142,162L149,161L150,158L153,154L157,155L161,148L163,147L165,143L166,142L165,141L162,137L160,133L157,131L156,124L157,122L151,119L148,119L147,118L144,122L139,120L143,117L147,114L149,111L147,106L146,105L148,103L145,98L140,94L138,92L137,89L131,80L128,82Z " data-fips="SI06" data-fips-="LO06" data-iso3="SVK" data-name="Trenciansky"/><path d="M32,165L36,164L40,163L39,162L44,164L48,163L54,160L59,153L61,154L62,157L60,161L59,161L57,165L61,169L58,173L62,176L63,176L68,183L69,190L72,193L71,198L72,199L73,203L73,204L67,207L63,205L63,208L59,210L58,210L58,215L54,220L54,223L55,223L59,224L62,226L69,235L76,242L81,243L84,246L87,248L92,242L94,238L100,232L99,227L99,218L96,215L90,207L94,206L96,203L98,201L97,194L96,191L97,185L98,184L103,175L104,173L96,167L99,160L102,160L105,159L106,158L106,157L99,156L98,155L90,153L87,150L82,152L80,151L79,154L73,156L69,148L70,144L65,139L64,140L61,140L63,137L65,134L63,135L62,135L54,131L50,130L47,131L43,134L41,138L39,140L37,143L34,154L32,156L32,164L32,165Z " data-fips="SI07" data-fips-="LO07" data-iso3="SVK" data-name="Trnavsk"/><path d="M267,125L266,126L262,131L262,137L261,139L262,142L269,150L271,153L273,154L271,164L272,167L273,168L278,169L279,168L283,169L283,168L284,167L283,163L286,161L290,160L305,156L307,157L309,159L313,159L317,161L323,161L328,164L334,161L336,160L339,162L343,157L352,155L356,158L359,161L362,161L363,163L365,167L370,174L371,176L378,178L381,175L388,173L398,172L402,169L401,161L402,157L401,153L402,149L407,145L413,138L416,126L415,119L416,119L410,119L407,118L406,115L402,113L400,117L398,122L389,122L384,119L377,117L374,117L374,122L371,131L369,132L362,131L357,129L354,124L353,120L347,121L346,122L341,126L341,128L338,128L337,122L336,122L325,120L321,119L317,114L314,115L309,112L302,113L297,113L292,115L290,114L287,112L284,110L281,112L281,113L277,111L272,114L269,117L272,119L269,122L268,124L267,125Z " data-fips="LO03" data-fips-="" data-iso3="SVK" data-name="Koick"/><path d="M237,91L245,101L249,100L249,101L247,110L246,111L249,116L250,119L250,121L247,122L258,123L261,122L262,123L264,124L267,125L268,124L269,122L272,119L269,117L272,114L277,111L281,113L281,112L284,110L287,112L290,114L292,115L297,113L302,113L309,112L314,115L317,114L321,119L325,120L336,122L337,122L338,128L341,128L341,126L346,122L347,121L353,120L354,124L357,129L362,131L369,132L371,131L374,122L374,117L377,117L384,119L389,122L398,122L400,117L402,113L406,115L407,118L410,119L416,119L416,118L418,115L420,106L424,104L425,97L423,94L418,94L415,93L411,90L406,90L402,89L402,87L397,86L395,84L390,84L388,82L386,75L384,72L381,70L377,68L373,65L372,66L369,69L364,63L358,61L346,63L332,61L328,66L324,63L319,64L319,67L321,68L321,70L316,73L311,78L306,75L301,74L294,67L287,68L286,69L282,70L276,68L275,70L272,70L268,69L266,74L261,76L254,82L252,90L250,93L248,92L244,89L239,89L237,91Z " data-fips="LO05" data-fips-="" data-iso3="SVK" data-name="Preov"/></g></svg>