<?xml version="1.0" encoding="UTF-8"?><!DOCTYPE svg  PUBLIC '-//W3C//DTD SVG 1.1//EN'  'http://www.w3.org/Graphics/SVG/1.1/DTD/svg11.dtd'><svg enable_background="new 0 0 450 301" height="301px" style="stroke-linejoin: round; stroke:#000; fill: none;" version="1.1" viewBox="0 0 450 301" width="450px" xmlns="http://www.w3.org/2000/svg" xmlns:xlink="http://www.w3.org/1999/xlink"><defs><style type="text/css"><![CDATA[path { fill-rule: evenodd; }]]></style></defs><metadata><views><view h="301.0" padding="0.06" w="450"><proj id="laea" lat0="45.8494756132" lon0="14.5687989588"/><bbox h="21.12" w="30.01" x="988.13" y="985.72"/></view></views></metadata><g class="" id="context"><path d="M76,84L81,86L92,86L104,89L115,91L124,95L144,99L163,101L168,103L173,103L178,106L182,104L184,100L194,95L203,89L210,81L213,74L220,70L226,69L232,66L258,63L285,65L298,61L308,53L324,51L347,56L350,51L349,34L356,27L363,23L381,4L388,0L0,0L0,71L12,74L34,77L51,78L76,84Z " data-iso="AUT"/><path d="M415,86L404,82L391,80L389,83L384,85L381,89L384,106L381,109L366,107L361,109L353,121L345,126L335,130L328,134L318,138L310,140L306,145L305,151L305,156L314,166L315,178L314,192L312,199L309,204L288,211L267,222L267,225L276,235L277,237L269,243L268,249L269,256L273,262L275,269L263,273L247,272L228,263L221,264L215,269L208,267L201,262L190,251L185,244L183,237L181,236L176,238L173,247L163,262L156,266L146,266L131,266L121,267L110,261L107,262L107,266L103,272L96,275L64,267L59,260L52,266L59,299L145,299L149,292L158,291L178,299L179,299L450,299L450,105L443,100L421,88L415,86Z " data-iso="HRV"/><path d="M363,23L385,24L389,29L392,47L396,50L398,54L398,62L403,67L413,82L415,86L421,88L443,100L450,105L450,0L388,0L381,4L363,23Z " data-iso="HUN"/><path d="M77,247L84,248L92,247L96,243L91,231L77,217L70,212L61,208L59,204L65,182L63,179L52,180L49,177L49,173L49,168L57,160L65,152L68,148L67,144L57,141L50,137L45,136L42,138L39,136L37,129L40,119L49,110L59,103L68,97L74,94L76,84L51,78L34,77L12,74L0,71L0,231L4,227L8,219L15,214L46,226L57,215L66,215L85,241L77,247Z " data-iso="ITA"/><path d="M413,82L403,67L398,62L398,54L396,50L392,47L389,29L385,24L363,23L356,27L349,34L350,51L347,56L324,51L308,53L298,61L285,65L258,63L232,66L226,69L220,70L213,74L210,81L203,89L194,95L184,100L182,104L178,106L173,103L168,103L163,101L144,99L124,95L115,91L104,89L92,86L81,86L76,84L74,94L68,97L59,103L49,110L40,119L37,129L39,136L42,138L45,136L50,137L57,141L67,144L68,148L65,152L57,160L49,168L49,173L49,177L52,180L63,179L65,182L59,204L61,208L70,212L77,217L91,231L96,243L92,247L84,248L77,247L67,256L59,260L64,267L96,275L103,272L107,266L107,262L110,261L121,267L131,266L146,266L156,266L163,262L173,247L176,238L181,236L183,237L185,244L190,251L201,262L208,267L215,269L221,264L228,263L247,272L263,273L275,269L273,262L269,256L268,249L269,243L277,237L276,235L267,225L267,222L288,211L309,204L312,199L314,192L315,178L314,166L305,156L305,151L306,145L310,140L318,138L328,134L335,130L345,126L353,121L361,109L366,107L381,109L384,106L381,89L384,85L389,83L391,80L404,82L415,86L413,82Z " data-iso="SVN"/></g><g class="" id="regions"><path d="M317,168L309,174L302,176L299,167L298,166L293,163L284,164L278,163L271,163L268,165L265,162L264,161L258,161L256,162L261,170L260,170L250,168L244,169L244,170L247,175L249,176L253,182L258,187L262,189L264,186L268,186L268,185L272,183L275,184L277,187L276,190L277,196L280,197L281,200L282,209L286,215L287,213L287,208L288,208L296,206L305,207L309,206L315,203L315,200L313,194L315,188L315,176L316,173L318,169L317,168Z " data-fips="---" data-iso3="SVN" data-name="Spodnjeposavska" data-region="PS"/><path d="M125,268L129,267L135,265L138,264L145,266L151,268L157,267L161,264L168,259L171,253L172,246L180,235L181,235L177,222L182,222L179,214L180,213L176,209L173,204L172,199L171,197L164,200L162,198L157,198L156,199L151,196L148,196L145,203L133,198L127,199L123,202L117,204L118,209L117,215L116,217L120,221L123,226L119,229L120,235L122,241L122,243L124,245L122,250L124,252L122,260L125,263L125,268L125,268Z " data-fips="---" data-iso3="SVN" data-name="Notranjsko-kra혳ka" data-region="NO"/><path d="M128,175L128,177L125,180L125,186L124,188L126,197L127,199L133,198L145,203L148,196L151,196L156,199L157,198L162,198L164,200L171,197L172,199L173,204L176,209L180,213L183,212L188,211L195,208L208,221L210,218L209,211L212,211L216,209L216,206L218,201L217,196L219,186L222,185L227,180L233,182L237,180L238,176L244,175L245,175L247,175L244,170L244,169L242,167L242,166L242,164L236,166L232,164L233,158L233,155L229,157L226,159L221,159L220,157L220,153L213,153L214,150L211,146L219,145L221,142L221,139L222,139L224,138L215,132L203,131L198,130L197,129L197,126L195,126L193,122L190,118L189,112L184,113L181,111L177,113L178,115L179,120L178,124L181,130L179,133L172,140L168,140L167,142L161,142L162,146L153,152L151,159L144,157L140,158L137,160L137,165L132,172L128,175Z " data-fips="---" data-iso3="SVN" data-name="Osrednjeslovenska" data-region="LJ"/><path d="M73,96L71,97L64,98L61,101L55,107L44,113L42,115L38,122L35,124L37,128L38,132L39,135L41,139L44,138L42,135L48,136L53,138L58,143L68,144L69,147L65,153L52,163L49,167L50,171L46,174L52,181L56,180L60,179L64,178L66,181L63,190L59,199L59,205L60,207L62,206L69,207L71,206L76,202L76,199L82,203L88,203L91,204L97,205L99,209L103,212L109,215L113,216L116,217L117,215L118,209L117,204L123,202L127,199L126,197L124,188L125,186L125,180L128,177L128,175L125,174L122,170L118,165L115,163L115,158L121,148L120,146L117,145L111,145L111,142L112,136L97,135L90,133L84,130L80,125L79,123L84,115L91,111L93,109L89,103L82,99L81,98L75,100L74,100L74,94L73,96Z " data-fips="---" data-iso3="SVN" data-name="Gori혳ka" data-region="SP"/><path d="M193,96L193,96L199,98L203,102L209,102L220,102L227,98L227,95L233,98L243,101L246,100L247,102L254,105L256,108L261,107L263,103L265,99L268,97L272,97L271,93L270,91L270,89L274,79L276,76L278,73L284,75L286,73L285,72L285,66L282,64L279,63L257,64L240,62L233,64L228,71L226,68L223,68L218,70L214,71L212,74L207,87L201,90L198,90L194,96L193,96Z " data-fips="---" data-iso3="SVN" data-name="Koro혳ka" data-region="KO"/><path d="M113,216L109,215L103,212L99,209L97,205L91,204L88,203L82,203L76,199L76,202L71,206L69,207L62,206L60,207L60,208L64,210L70,212L76,216L84,220L94,237L98,240L97,242L92,248L87,249L82,246L76,246L81,252L81,254L58,256L60,259L61,264L65,270L81,269L91,275L97,276L101,272L107,269L109,267L106,264L108,260L113,262L119,267L122,268L125,268L125,263L122,260L124,252L122,250L124,245L122,243L122,241L120,235L119,229L123,226L120,221L116,217L113,216Z " data-fips="---" data-iso3="SVN" data-name="Obalno-kra혳ka" data-region="JP"/><path d="M180,213L179,214L182,222L177,222L181,235L182,234L183,235L184,243L185,245L191,250L193,253L195,259L209,269L214,270L219,268L221,264L222,261L224,261L229,264L233,265L234,266L240,267L251,275L256,276L268,271L272,271L278,266L271,262L270,259L267,248L268,244L270,241L279,238L278,237L269,232L264,227L265,223L270,220L285,215L286,215L282,209L281,200L280,197L277,196L276,190L277,187L275,184L272,183L268,185L268,186L264,186L262,189L258,187L253,182L249,176L247,175L245,175L244,175L238,176L237,180L233,182L227,180L222,185L219,186L217,196L218,201L216,206L216,209L212,211L209,211L210,218L208,221L195,208L188,211L183,212L180,213Z " data-fips="---" data-iso3="SVN" data-name="Jugovzhodna Slovenija" data-region="JS"/><path d="M323,52L320,52L310,51L308,50L308,55L307,56L305,57L303,57L298,58L296,59L291,67L288,68L285,66L285,66L285,72L286,73L284,75L278,73L276,76L274,79L270,89L270,91L273,92L275,96L280,99L283,101L282,105L283,107L282,109L288,113L293,112L298,115L299,117L299,127L301,127L304,125L306,125L312,127L315,127L318,129L322,128L329,131L330,131L333,130L339,129L347,125L351,124L356,122L358,120L360,116L360,108L366,109L370,105L376,109L386,108L386,105L383,103L381,90L381,89L379,91L373,87L369,89L366,87L355,85L349,75L350,72L344,70L342,65L344,64L339,62L339,59L335,57L331,55L330,53L326,50L323,52Z " data-fips="---" data-iso3="SVN" data-name="Podravska" data-region="PD"/><path d="M74,94L74,100L75,100L81,98L82,99L89,103L93,109L91,111L84,115L79,123L80,125L84,130L90,133L97,135L112,136L111,142L111,145L117,145L120,146L121,148L115,158L115,163L118,165L122,170L125,174L128,175L132,172L137,165L137,160L140,158L144,157L151,159L153,152L162,146L161,142L167,142L168,140L172,140L179,133L181,130L178,124L179,120L178,115L177,113L181,111L180,108L180,107L179,109L177,110L173,103L168,104L163,102L160,99L156,100L141,99L129,98L122,93L118,91L110,91L99,86L95,85L86,87L78,85L75,89L75,94L74,94Z " data-fips="---" data-iso3="SVN" data-name="Gorenjska" data-region="GO"/><path d="M192,95L189,98L181,103L180,106L180,107L180,108L181,111L184,113L189,112L190,118L193,122L195,126L197,126L197,129L198,130L203,131L215,132L224,138L222,139L223,141L229,141L233,141L235,142L238,142L242,143L246,143L249,147L252,150L256,155L254,158L250,156L251,159L253,159L248,161L246,159L244,162L244,164L242,164L242,166L242,167L244,169L250,168L260,170L261,170L256,162L258,161L264,161L265,162L268,165L271,163L278,163L284,164L293,163L298,166L299,167L302,176L309,174L317,168L316,166L311,164L306,159L304,155L304,151L306,146L310,139L313,137L323,138L326,136L328,132L329,131L322,128L318,129L315,127L312,127L306,125L304,125L301,127L299,127L299,117L298,115L293,112L288,113L282,109L283,107L282,105L283,101L280,99L275,96L273,92L270,91L271,93L272,97L268,97L265,99L263,103L261,107L256,108L254,105L247,102L246,100L243,101L233,98L227,95L227,98L220,102L209,102L203,102L199,98L193,96L193,96L192,95Z " data-fips="---" data-iso3="SVN" data-name="Savinjska" data-region="SA"/><path d="M381,88L384,84L396,78L397,79L407,83L409,82L415,85L413,78L409,75L404,68L400,65L396,61L398,59L401,57L401,53L395,51L395,48L393,49L390,44L388,39L391,29L384,23L373,24L363,23L358,26L350,29L349,33L348,42L348,45L350,49L352,50L354,53L354,57L351,53L346,53L337,49L334,48L331,48L326,50L330,53L331,55L335,57L339,59L339,62L344,64L342,65L344,70L350,72L349,75L355,85L366,87L369,89L373,87L379,91L381,89L381,88Z " data-fips="---" data-iso3="SVN" data-name="Pomurska" data-region="PM"/><path d="M222,139L221,139L221,142L219,145L211,146L214,150L213,153L220,153L220,157L221,159L226,159L229,157L233,155L233,158L232,164L236,166L242,164L244,164L244,162L246,159L248,161L253,159L251,159L250,156L254,158L256,155L252,150L249,147L246,143L242,143L238,142L235,142L233,141L229,141L223,141L222,139Z " data-fips="---" data-iso3="SVN" data-name="Zasavska" data-region="ZS"/></g></svg>