<?xml version="1.0" encoding="UTF-8"?><!DOCTYPE svg  PUBLIC '-//W3C//DTD SVG 1.1//EN'  'http://www.w3.org/Graphics/SVG/1.1/DTD/svg11.dtd'><svg enable_background="new 0 0 450 563" height="563px" style="stroke-linejoin: round; stroke:#000; fill:#f6f3f0;" version="1.1" viewBox="0 0 450 563" width="450px" xmlns="http://www.w3.org/2000/svg" xmlns:xlink="http://www.w3.org/1999/xlink"><defs><style type="text/css"><![CDATA[path { fill-rule: evenodd; }
#context path { fill: #eee; stroke: #bbb; } ]]></style></defs><metadata><views><view h="563.5" padding="0.06" w="450"><proj id="laea" lat0="61.282047838" lon0="16.3704193653"/><bbox h="177.76" w="81.51" x="962.17" y="899.38"/><llbbox lat0="-90" lat1="90" lon0="-180" lon1="180"/></view></views></metadata><g id="context"><path d="M298,364L296,362L297,365L298,364Z M280,359L279,357L277,361L280,359Z M286,352L282,351L282,355L280,357L281,362L287,362L291,355L286,352Z " data-iso="ALD"/><path d="M440,519L440,521L439,532L444,537L443,540L434,546L433,548L428,551L427,554L426,562L450,562L450,511L447,512L445,517L440,519L440,519Z " data-iso="BLR"/><path d="M65,562L62,561L59,562L65,562Z M43,561L43,562L56,562L55,560L48,557L43,556L43,561Z M35,560L36,558L42,558L42,557L37,556L39,550L38,550L35,555L35,560Z " data-iso="DEU"/><path d="M102,562L101,560L97,560L96,562L102,562Z M130,562L124,559L121,562L130,562Z M74,560L73,556L70,553L69,559L74,560Z M91,562L94,555L90,559L91,562Z M187,562L188,557L180,551L179,553L178,558L187,562Z M90,533L82,533L72,535L72,542L74,549L83,555L87,555L91,552L93,545L90,533Z M134,537L131,536L131,539L134,537Z M89,527L91,522L89,518L89,527Z M119,562L120,552L126,551L128,549L127,545L124,542L125,539L132,534L134,520L133,519L128,516L126,516L117,522L119,524L118,527L113,531L114,524L112,522L109,522L108,524L105,529L97,530L101,540L100,545L103,550L107,550L111,552L112,562L119,562Z M104,470L105,467L101,468L100,470L104,470Z M43,556L48,557L55,560L56,562L59,562L62,561L65,562L67,562L67,556L64,553L61,553L63,550L66,547L67,545L66,536L74,528L76,527L74,523L77,522L80,523L85,509L87,507L89,510L97,507L98,505L97,498L89,498L85,493L87,479L93,470L93,462L92,457L96,451L94,451L88,455L82,456L79,459L72,468L66,471L56,471L52,471L47,475L43,484L47,488L50,486L53,486L59,475L62,475L65,476L62,488L61,486L56,486L52,490L52,493L40,489L37,507L38,513L35,528L44,536L44,547L42,547L43,553L43,556Z " data-iso="DNK"/><path d="M342,416L337,418L336,421L332,422L328,422L330,426L328,429L329,431L335,434L332,441L334,443L335,442L337,434L341,431L346,430L353,422L357,421L357,420L349,415L342,416Z M357,417L357,413L353,412L351,415L356,417L357,417Z M348,407L349,407L347,401L343,400L340,398L338,402L330,404L332,406L337,407L341,413L343,412L345,407L348,407Z M445,368L443,371L432,371L425,372L417,369L414,370L401,369L395,369L395,374L383,376L378,379L374,379L370,383L368,383L369,386L363,388L358,391L359,399L358,402L359,406L363,407L360,410L362,415L365,418L367,423L374,426L377,425L379,421L382,422L382,431L380,439L380,441L392,434L396,431L400,432L411,437L415,438L426,447L428,448L436,443L444,445L445,445L444,444L445,440L447,434L450,432L447,425L443,418L442,410L438,398L439,392L443,385L445,375L448,371L445,368L445,368Z " data-iso="EST"/><path d="M327,348L326,352L329,355L332,356L330,352L332,351L327,348Z M324,350L323,348L320,348L324,350Z M313,343L309,344L310,346L313,343Z M301,238L298,237L300,240L304,240L304,238L301,238Z M355,164L354,161L351,161L351,165L353,166L355,164Z M345,0L347,8L346,11L341,15L339,23L338,25L323,19L320,22L312,26L311,25L301,24L299,19L288,4L283,4L281,8L282,12L276,12L275,14L279,16L280,19L284,21L288,26L296,32L299,34L308,36L313,41L315,46L317,46L320,55L322,65L321,71L326,72L327,86L333,95L332,105L330,110L330,113L334,121L340,134L341,134L347,135L349,138L351,138L359,142L361,144L361,157L364,162L362,163L363,168L357,168L351,172L348,184L344,189L339,200L339,203L337,204L334,210L326,219L322,221L322,223L320,227L318,229L320,234L317,237L313,239L311,238L307,239L309,246L306,246L306,249L302,256L301,262L302,271L305,273L306,282L305,287L308,290L313,302L312,306L311,306L312,314L310,323L312,339L316,343L320,340L321,344L322,344L329,347L335,348L334,351L336,353L334,354L334,361L338,361L342,353L344,357L349,362L346,368L349,367L354,361L359,361L371,357L375,353L385,349L387,346L391,345L394,342L396,345L400,341L401,341L399,336L404,338L408,337L410,328L411,337L418,333L420,331L428,332L433,328L434,328L443,312L447,307L450,301L450,175L446,173L442,166L444,162L442,158L437,158L434,154L432,149L435,146L434,142L431,142L431,137L430,132L431,124L434,124L433,119L429,111L421,99L420,96L414,87L410,82L409,77L410,72L416,52L413,45L407,39L404,35L393,32L390,26L388,19L388,6L384,5L390,0L345,0Z " data-iso="FIN"/><path d="M316,548L318,548L319,545L320,540L319,543L316,548Z M440,519L439,519L433,517L431,515L415,505L404,503L399,496L395,498L392,501L383,504L381,503L363,502L360,504L358,502L350,503L339,503L330,507L323,512L318,517L318,519L319,527L323,541L323,545L324,548L324,548L327,548L329,549L339,554L343,555L354,554L356,557L361,562L426,562L427,554L428,551L433,548L434,546L443,540L444,537L439,532L440,521L440,519Z " data-iso="LTU"/><path d="M445,445L444,445L436,443L428,448L426,447L415,438L411,437L400,432L396,431L392,434L380,441L380,444L382,449L384,462L384,465L383,468L376,475L370,477L362,474L358,465L356,462L347,455L344,450L332,457L328,458L323,468L321,480L320,484L316,488L316,495L316,510L318,517L323,512L330,507L339,503L350,503L358,502L360,504L363,502L381,503L383,504L392,501L395,498L399,496L404,503L415,505L431,515L433,517L439,519L440,519L440,519L445,517L447,512L450,511L450,449L449,448L448,445L447,445L445,445Z " data-iso="LVA"/><path d="M0,307L3,304L0,303L0,307Z M72,229L73,225L72,223L67,225L67,226L72,229Z M79,217L86,215L86,213L76,215L79,217Z M131,175L129,170L128,170L124,175L131,175Z M145,146L144,143L142,144L144,147L145,146Z M154,136L159,133L154,133L154,136Z M153,130L156,129L155,124L152,131L153,130Z M166,60L168,52L164,62L166,60Z M180,45L175,46L170,55L180,49L182,48L180,45Z M199,19L197,17L197,21L194,23L194,25L190,24L189,26L189,31L195,32L199,32L201,30L202,26L199,19Z M207,34L209,28L208,16L212,9L212,7L209,6L207,11L203,15L203,18L204,22L203,25L202,32L197,39L190,40L185,46L185,48L190,48L195,44L199,44L200,41L202,44L210,40L211,38L218,31L218,28L215,22L211,30L209,31L207,34Z M229,0L229,2L226,2L222,14L227,16L231,9L232,11L238,9L239,0L229,0Z M116,402L117,407L121,406L122,403L125,392L123,380L127,377L129,370L134,369L136,367L140,361L143,348L143,344L139,331L139,326L142,325L146,325L151,313L148,310L138,298L142,279L142,276L139,264L140,252L142,249L139,237L143,229L143,225L145,223L153,212L162,208L175,211L178,204L178,201L177,193L170,188L179,174L185,161L186,147L188,142L187,129L193,128L200,124L202,122L201,115L203,112L214,96L217,89L216,85L212,78L213,75L217,74L222,60L227,55L230,52L238,57L241,52L242,43L241,38L244,34L250,36L268,41L271,36L267,34L272,25L272,21L268,15L273,14L275,14L276,12L282,12L281,8L283,4L288,4L299,19L301,24L311,25L312,26L320,22L323,19L338,25L339,23L341,15L346,11L347,8L345,0L269,0L247,0L250,4L247,4L243,0L241,0L239,4L240,11L234,13L232,17L230,25L227,29L223,29L218,35L219,38L228,38L231,37L230,40L226,42L219,40L216,41L214,50L215,61L212,55L211,48L205,50L203,52L201,56L205,57L202,59L200,57L196,58L193,63L193,66L196,68L200,65L199,69L204,81L197,73L195,72L192,75L187,83L201,87L192,87L187,89L185,88L180,92L178,96L174,98L176,103L173,102L169,106L167,108L166,112L165,112L164,116L165,124L178,121L179,122L173,126L169,126L159,128L162,132L157,136L156,140L151,146L147,157L147,160L150,161L150,163L153,163L160,158L156,163L152,167L149,167L147,164L135,171L133,173L131,179L137,177L135,180L125,186L123,189L118,191L112,200L108,203L98,217L102,218L104,225L106,226L111,224L122,217L124,214L122,211L125,209L131,208L132,209L127,212L130,216L122,220L117,225L115,229L111,228L105,230L100,221L94,222L90,226L91,221L86,218L78,222L77,223L78,226L80,226L80,230L74,231L72,235L78,247L78,249L70,238L66,237L61,237L57,239L50,241L45,246L45,250L53,249L56,251L68,250L68,252L63,252L58,255L60,257L57,258L53,255L44,252L37,252L35,253L32,258L32,259L42,259L40,261L33,262L24,259L20,261L16,267L12,266L11,271L13,275L17,275L28,281L33,282L38,281L39,282L34,284L26,283L16,277L10,277L8,276L6,283L11,293L5,294L4,301L5,303L9,307L11,308L15,307L23,307L29,309L31,309L32,305L39,310L43,310L47,305L48,309L52,310L50,311L41,313L40,318L36,310L21,309L12,310L4,308L2,309L1,316L1,322L4,328L10,326L2,331L1,332L1,337L2,342L4,344L9,346L5,348L0,346L0,359L4,357L9,351L13,349L14,346L20,339L24,337L33,335L29,340L26,348L28,340L27,338L23,339L19,343L15,351L10,355L9,359L13,362L10,362L8,364L4,363L0,363L0,380L2,378L8,376L17,371L9,379L7,388L10,393L15,391L12,393L5,391L1,389L0,389L0,408L5,412L6,415L12,420L16,421L18,422L16,424L15,427L18,429L20,425L23,431L27,431L32,433L41,431L45,429L47,430L55,424L65,415L75,407L74,405L79,402L82,400L81,395L84,399L85,402L87,402L93,399L98,391L98,381L101,379L101,375L103,378L102,385L105,395L116,399L116,400L116,402Z " data-iso="NOR"/><path d="M318,548L316,548L315,550L309,560L306,562L312,561L310,560L316,552L318,548Z M324,554L324,561L323,562L361,562L356,557L354,554L343,555L339,554L329,549L327,548L324,548L324,554Z M445,445L447,445L448,445L449,448L450,449L450,432L447,434L445,440L444,444L445,445Z M445,368L448,371L445,375L443,385L439,392L438,398L442,410L443,418L447,425L450,358L445,355L444,356L445,365L445,368Z M441,325L446,320L448,321L450,327L447,325L450,330L450,301L447,307L443,312L434,328L441,325Z M450,61L448,61L450,60L450,0L390,0L384,5L388,6L388,19L390,26L393,32L404,35L407,39L413,45L416,52L410,72L409,77L410,82L414,87L420,96L421,99L429,111L433,119L434,124L431,124L430,132L431,137L431,142L434,142L435,146L432,149L434,154L437,158L442,158L444,162L442,166L446,173L450,175L450,61Z " data-iso="RUS"/><path d="M219,512L224,492L226,491L227,485L230,474L226,481L223,489L221,490L217,502L216,512L219,512Z M272,451L267,449L266,451L265,450L261,452L258,455L253,463L253,471L252,474L256,481L254,487L258,485L258,481L265,474L266,471L269,468L266,465L267,456L272,451Z M273,448L273,445L271,448L273,448Z M260,388L262,385L260,385L260,388Z M275,14L273,14L268,15L272,21L272,25L267,34L271,36L268,41L250,36L244,34L241,38L242,43L241,52L238,57L230,52L227,55L222,60L217,74L213,75L212,78L216,85L217,89L214,96L203,112L201,115L202,122L200,124L193,128L187,129L188,142L186,147L185,161L179,174L170,188L177,193L178,201L178,204L175,211L162,208L153,212L145,223L143,225L143,229L139,237L142,249L140,252L139,264L142,276L142,279L138,298L148,310L151,313L146,325L142,325L139,326L139,331L143,344L143,348L140,361L136,367L134,369L129,370L127,377L123,380L125,392L122,403L121,406L117,407L116,402L114,399L112,400L111,406L112,408L112,415L112,423L113,427L115,429L114,437L116,442L119,443L119,453L122,455L123,465L125,464L127,473L132,486L135,489L137,496L141,498L142,502L140,504L136,504L138,511L136,512L132,510L134,516L141,532L139,545L148,548L159,545L167,546L171,541L168,533L170,527L176,521L181,522L180,518L181,517L187,517L193,518L197,516L204,519L208,515L212,501L215,496L219,482L218,474L221,468L222,465L220,449L222,449L223,439L224,437L221,429L227,427L224,423L218,422L216,422L215,420L228,420L235,415L238,412L248,406L256,399L256,395L260,393L259,391L251,394L248,394L246,396L234,396L232,393L227,389L223,390L221,389L211,389L209,388L218,387L220,383L223,386L225,384L229,385L236,387L236,384L239,386L242,385L241,383L244,385L244,390L247,392L256,387L265,377L267,374L266,369L263,364L258,361L258,357L247,347L246,344L241,347L235,343L233,340L233,336L232,329L231,311L230,306L231,303L231,300L236,302L234,295L236,283L237,281L235,277L234,270L236,271L242,270L246,266L243,256L246,259L253,254L253,251L250,250L254,248L258,241L263,241L266,236L268,231L270,233L270,230L272,230L275,228L277,225L282,223L286,219L291,214L295,202L298,197L302,190L295,177L296,175L301,165L301,159L300,154L302,154L306,151L305,149L308,145L310,145L311,136L314,137L317,134L320,137L332,134L336,135L340,134L334,121L330,113L330,110L332,105L333,95L327,86L326,72L321,71L322,65L320,55L317,46L315,46L313,41L308,36L299,34L296,32L288,26L284,21L280,19L279,16L275,14Z M169,403L170,403L170,405L168,406L168,410L167,411L164,417L162,417L158,419L155,420L153,422L152,424L150,424L150,423L150,421L150,420L148,421L146,422L144,424L143,425L139,429L138,429L138,427L137,428L134,428L133,429L133,428L133,426L137,423L139,420L140,419L138,418L137,416L138,414L137,413L137,411L137,407L138,411L139,412L140,411L140,409L142,403L143,402L145,402L146,402L149,405L150,407L152,409L153,409L153,408L152,401L151,397L151,395L152,391L153,393L154,393L154,392L154,391L158,391L160,391L163,391L164,393L165,393L167,393L168,393L170,394L169,397L168,400L167,402L167,403L169,403Z " data-iso="SWE"/></g><g fill="red" fill-opacity="0.35" id="regions"><path d="M197,279L198,280L199,283L193,291L193,295L187,297L186,295L183,297L182,304L181,305L184,306L185,309L195,309L203,322L204,326L207,328L212,329L216,335L214,343L213,343L216,351L222,359L222,359L223,360L226,358L227,357L231,356L232,356L232,353L234,349L235,343L235,343L234,338L233,338L231,331L231,323L231,319L233,316L230,313L231,312L230,309L231,307L229,305L232,305L231,303L232,302L232,300L234,301L235,297L234,292L236,290L236,285L236,284L227,283L218,280L213,280L201,276L197,279Z " data-fips="SW03" data-fips-="" data-iso3="SWE" data-name="Gvleborg" data-p="X"/><path d="M191,456L190,455L188,449L189,444L187,439L184,442L179,441L177,439L176,436L172,445L169,450L161,450L162,452L160,461L156,466L151,472L147,477L147,477L147,477L146,480L148,481L153,479L155,480L158,483L159,484L160,482L163,484L167,482L169,483L171,488L173,487L173,483L175,478L183,475L186,478L187,478L190,475L196,475L198,476L198,475L198,470L199,466L200,467L201,464L200,463L201,461L197,458L196,457L191,456Z " data-fips="SW08" data-fips-="" data-iso3="SWE" data-name="Jnkping" data-p="F"/><path d="M231,471L228,473L228,476L223,489L221,490L216,502L216,506L217,515L218,514L224,493L228,482L232,472L231,471Z M196,457L197,458L201,461L200,463L201,464L200,467L199,466L198,470L198,475L198,476L199,477L204,486L204,488L198,488L198,492L197,492L195,497L195,501L194,504L194,505L195,504L199,504L205,510L209,511L210,507L213,499L216,498L216,494L217,493L217,483L220,481L218,475L220,472L219,471L222,469L220,463L223,457L222,456L217,450L219,448L219,446L224,451L224,449L223,447L222,446L220,443L214,441L212,443L209,443L209,450L207,453L200,452L197,456L196,457Z " data-fips="SW09" data-fips-="" data-iso3="SWE" data-name="Kalmar" data-p="H"/><path d="M142,278L138,298L142,304L145,305L150,317L148,321L147,325L147,325L147,327L154,334L159,345L161,349L164,351L167,357L172,358L175,363L178,366L184,367L185,367L186,363L194,368L198,372L198,372L202,369L203,368L204,362L207,361L212,362L212,364L215,365L219,362L223,360L222,359L222,359L216,351L213,343L214,343L216,335L212,329L207,328L204,326L203,322L195,309L185,309L184,306L181,305L179,306L177,305L165,302L164,301L160,292L159,287L158,287L155,285L151,280L142,277L142,278Z " data-fips="SW10" data-fips-="" data-iso3="SWE" data-name="Dalarna" data-p="W"/><path d="M196,475L190,475L187,478L186,478L183,475L175,478L173,483L173,487L171,488L169,483L167,482L163,484L160,482L159,484L159,485L157,487L151,488L151,489L151,496L152,499L153,505L154,506L155,506L166,504L172,503L176,505L178,505L183,509L191,506L194,505L194,505L194,504L195,501L195,497L197,492L198,492L198,488L204,488L204,486L199,477L198,476L196,475Z " data-fips="SW12" data-fips-="" data-iso3="SWE" data-name="Kronoberg" data-p="G"/><path d="M194,368L186,363L185,367L184,367L178,366L178,367L178,371L178,379L178,382L178,386L178,387L175,397L175,404L174,406L175,407L178,416L181,416L183,419L184,420L185,419L188,418L192,414L195,413L199,412L202,408L203,407L201,406L204,402L204,401L204,399L204,399L204,398L201,395L201,391L203,390L203,386L199,375L198,373L198,372L194,368Z " data-fips="SW15" data-fips-="" data-iso3="SWE" data-name="Orebro" data-p="T"/><path d="M203,407L202,408L199,412L195,413L192,414L188,418L185,419L184,420L176,436L177,439L179,441L184,442L187,439L189,444L188,449L190,455L191,456L196,457L197,456L200,452L207,453L209,450L209,443L212,443L214,441L220,443L222,446L222,446L224,445L222,440L224,441L225,438L221,432L224,433L220,428L227,427L225,424L224,422L217,423L213,420L224,421L221,419L217,419L210,410L206,406L204,408L203,407Z " data-fips="SW16" data-fips-="" data-iso3="SWE" data-name="stergtland" data-p="E"/><path d="M233,397L234,394L228,391L227,389L225,388L218,389L214,389L214,392L208,393L206,398L204,399L204,399L204,401L204,402L201,406L203,407L204,408L206,406L210,410L217,419L221,419L224,421L227,421L228,420L230,420L229,416L232,417L238,414L238,411L241,411L240,408L240,408L236,407L234,398L235,397L233,397Z " data-fips="SW18" data-fips-="" data-iso3="SWE" data-name="Sdermanland" data-p="D"/><path d="M232,356L231,356L227,357L226,358L223,360L222,359L223,360L219,362L215,365L212,364L212,362L207,361L204,362L203,368L202,369L198,372L198,372L198,373L199,375L203,386L203,390L201,391L201,395L204,398L204,399L206,398L208,393L214,392L214,389L212,389L209,387L215,389L216,387L218,387L219,385L218,383L224,385L224,384L227,385L227,385L224,375L227,373L229,374L232,372L232,367L234,365L235,360L235,358L232,356Z " data-fips="SW25" data-fips-="" data-iso3="SWE" data-name="Vstmanland" data-p="U"/><path d="M146,476L143,474L144,472L139,471L136,469L133,471L132,468L131,458L127,459L123,459L123,461L122,463L124,467L125,464L127,471L126,473L130,482L131,486L133,486L138,496L141,497L141,503L141,503L147,509L147,509L153,506L154,506L153,505L152,499L151,496L151,489L151,488L157,487L159,485L159,484L158,483L155,480L153,479L148,481L146,480L147,477L147,477L146,476Z " data-fips="SW06" data-fips-="" data-iso3="SWE" data-name="Halland" data-p="N"/><path d="M147,325L143,325L139,326L138,327L140,336L142,340L143,349L141,355L141,358L136,367L133,369L128,369L128,376L123,382L125,390L125,394L125,394L128,394L130,396L132,394L134,396L141,399L144,400L144,402L145,402L146,402L149,405L150,407L152,409L153,409L153,408L152,401L151,397L151,395L152,391L153,393L154,393L154,392L154,391L158,391L160,391L163,391L164,393L165,393L167,393L168,393L170,394L169,397L168,400L167,402L167,403L169,403L170,403L170,404L173,405L174,406L175,404L175,397L178,387L178,386L178,382L178,379L178,371L178,367L178,366L175,363L172,358L167,357L164,351L161,349L159,345L154,334L147,327L147,325L147,325Z " data-fips="SW22" data-fips-="" data-iso3="SWE" data-name="Vrmland" data-p="S"/><path d="M182,169L180,173L175,192L178,194L178,204L174,211L162,207L158,208L149,217L145,223L143,225L143,231L139,237L142,248L140,260L139,264L142,276L142,277L151,280L155,285L158,287L159,287L160,292L164,301L165,302L177,305L179,306L181,305L182,304L183,297L186,295L187,297L193,295L193,291L199,283L198,280L197,279L196,278L192,278L188,271L189,266L194,266L202,264L207,262L215,262L217,259L221,254L226,251L212,236L210,233L208,225L212,223L214,224L220,222L220,218L222,211L214,202L211,202L209,198L205,194L204,191L203,193L199,186L188,173L182,168L182,169Z " data-fips="SW07" data-fips-="" data-iso3="SWE" data-name="Jmtland" data-p="Z"/><path d="M202,120L208,123L218,131L224,134L233,143L238,147L245,150L256,158L258,159L266,166L270,162L277,159L296,163L301,167L301,167L301,163L297,157L302,160L302,158L298,156L299,154L304,154L306,152L305,148L305,143L308,145L312,144L310,142L312,142L311,136L312,135L314,138L316,137L316,134L319,136L324,139L325,135L329,137L330,135L332,134L337,136L340,133L338,129L334,121L331,119L330,117L329,110L332,106L331,98L333,96L332,94L325,83L325,78L327,75L326,72L321,71L322,67L321,61L320,56L322,52L319,49L314,44L312,39L308,36L306,35L297,34L295,31L292,30L282,20L280,17L276,14L272,19L271,29L267,34L271,36L267,41L254,36L249,36L245,33L241,35L241,40L242,48L238,57L230,52L228,54L222,60L222,61L219,70L213,75L212,79L217,87L212,98L211,99L205,111L201,116L201,117L202,120Z " data-fips="SW14" data-fips-="" data-iso3="SWE" data-name="Norrbotten" data-p="BD"/><path d="M246,260L245,263L247,263L246,260Z M222,211L220,218L220,222L214,224L212,223L208,225L210,233L212,236L226,251L221,254L217,259L215,262L207,262L202,264L194,266L189,266L188,271L192,278L196,278L197,279L201,276L213,280L218,280L227,283L236,284L236,284L239,281L233,274L233,271L236,270L238,272L240,273L239,271L240,270L242,270L244,266L244,268L246,265L243,264L245,262L241,253L243,254L243,257L246,256L249,258L249,256L251,257L254,251L249,251L252,250L255,245L256,245L260,243L260,239L263,243L265,237L266,236L267,232L267,232L265,227L262,222L257,218L254,218L252,216L252,212L250,212L239,216L225,213L223,212L222,211Z " data-fips="SW24" data-fips-="" data-iso3="SWE" data-name="Vsternorrland" data-p="Y"/><path d="M202,120L202,123L195,128L187,129L188,140L187,145L186,160L183,164L182,168L182,168L188,173L199,186L203,193L204,191L205,194L209,198L211,202L214,202L222,211L223,212L225,213L239,216L250,212L252,212L252,216L254,218L257,218L262,222L265,227L267,232L267,232L268,231L270,233L270,229L275,231L276,228L280,223L281,224L283,220L284,223L287,217L287,217L290,216L291,214L294,203L298,197L300,196L304,191L302,190L299,185L299,186L295,181L298,182L298,179L294,178L294,177L301,167L301,167L296,163L277,159L270,162L266,166L258,159L256,158L245,150L238,147L233,143L224,134L218,131L208,123L202,120L202,120Z " data-fips="SW23" data-fips-="" data-iso3="SWE" data-name="Vsterbotten" data-p="AC"/><path d="M266,451L265,448L262,452L260,452L257,458L252,466L254,469L253,473L255,479L256,483L253,487L257,486L259,484L258,483L258,479L265,474L264,473L266,470L269,469L267,466L266,458L269,455L270,452L272,451L270,448L266,452L266,451Z M275,445L272,446L271,448L273,451L273,448L275,445Z " data-fips="SW18" data-fips-="SW05" data-iso3="SWE" data-name="Gotland" data-p="I"/><path d="M242,409L243,406L241,407L242,409Z M259,395L256,395L259,397L259,395Z M262,391L261,392L263,394L262,391Z M253,392L250,391L251,393L253,392Z M235,397L234,398L236,407L240,408L240,408L242,403L243,402L244,405L243,409L247,410L249,405L251,403L253,403L256,400L257,398L254,396L255,393L261,394L260,391L258,391L253,392L252,394L248,393L246,396L235,394L236,397L235,397Z M261,385L260,385L258,387L259,390L261,385Z M240,381L240,385L239,387L239,387L241,387L243,389L244,385L243,384L240,382L240,381Z M258,362L257,367L256,368L255,372L250,377L248,377L244,380L241,380L241,380L245,385L243,390L247,393L251,390L255,390L253,388L256,388L262,381L263,379L268,377L268,375L262,376L264,375L267,370L263,362L259,362L259,364L258,362Z " data-fips="SW26" data-fips-="" data-iso3="SWE" data-name="Stockholm" data-p="AB"/><path d="M256,349L254,348L255,351L257,355L256,349Z M235,343L234,349L232,353L232,356L235,358L235,360L234,365L232,367L232,372L229,374L227,373L224,375L227,385L230,385L233,386L235,388L236,386L239,387L239,387L240,385L240,381L239,381L239,378L239,384L237,380L238,379L235,377L238,377L241,379L241,380L244,380L248,377L250,377L255,372L256,368L257,367L258,362L258,362L255,359L253,355L255,357L258,358L255,354L252,355L246,345L243,345L241,348L239,345L240,344L238,342L235,343L235,343Z " data-fips="SW21" data-fips-="" data-iso3="SWE" data-name="Uppsala" data-p="C"/><path d="M194,505L194,505L191,506L183,509L178,505L176,505L175,507L177,515L176,521L176,521L178,523L180,523L179,517L188,516L188,517L192,516L194,518L195,516L203,517L203,519L204,520L209,514L209,511L205,510L199,504L195,504L194,505Z " data-fips="SW02" data-fips-="" data-iso3="SWE" data-name="Blekinge" data-p="K"/><path d="M120,440L115,440L116,443L117,445L120,442L120,440Z M122,433L121,431L114,437L115,439L117,438L120,439L122,438L122,433Z M125,394L121,407L120,407L117,405L115,399L112,400L111,401L111,405L112,406L112,409L111,412L113,419L112,420L111,428L115,427L115,429L118,425L118,427L116,432L124,430L123,434L124,434L118,449L121,451L119,454L123,454L123,458L123,459L127,459L131,458L132,468L133,471L136,469L139,471L144,472L143,474L146,476L147,477L147,477L151,472L156,466L160,461L162,452L161,450L169,450L172,445L176,436L184,420L183,419L181,416L178,416L175,407L174,406L173,405L170,404L170,405L168,406L168,410L167,411L164,417L162,417L158,419L155,420L153,422L152,424L150,424L150,423L150,421L150,420L148,421L146,422L144,424L143,425L139,429L138,429L138,427L137,428L134,428L133,429L133,428L133,426L137,423L139,420L140,419L138,418L137,416L138,414L137,413L137,411L137,407L138,411L139,412L140,411L140,409L142,403L143,402L144,402L144,400L141,399L134,396L132,394L130,396L128,394L125,394L125,394Z " data-fips="&lt;Null&gt;" data-fips-="&lt;Null&gt;" data-iso3="SWE" data-name="Vstra Gtaland" data-p="O"/><path d="M172,503L166,504L155,506L154,506L153,506L147,509L147,509L141,503L141,504L140,504L137,503L135,506L137,508L139,511L138,513L132,511L133,515L137,522L140,531L142,532L143,535L141,537L140,540L140,544L137,546L140,546L147,548L150,547L152,546L158,545L162,545L164,546L168,546L172,541L168,531L168,530L176,521L176,521L177,515L175,507L176,505L172,503Z " data-fips="SW11" data-fips-="SW27" data-iso3="SWE" data-name="Skne" data-p="M"/></g></svg>