<?xml version="1.0" encoding="UTF-8"?><!DOCTYPE svg  PUBLIC '-//W3C//DTD SVG 1.1//EN'  'http://www.w3.org/Graphics/SVG/1.1/DTD/svg11.dtd'><svg enable_background="new 0 0 450 301" height="301px" style="stroke-linejoin: round; stroke:#000; fill:#f6f3f0;" version="1.1" viewBox="0 0 450 301" width="450px" xmlns="http://www.w3.org/2000/svg" xmlns:xlink="http://www.w3.org/1999/xlink"><defs><style type="text/css"><![CDATA[path { fill-rule: evenodd; }
#context path { fill: #eee; stroke: #bbb; } ]]></style></defs><metadata><views><view h="301.0" padding="0.06" w="450"><proj id="laea" lat0="-26.0962104227" lon0="31.3587844264"/><bbox h="21.29" w="16.5" x="992.75" y="994.67"/><llbbox lat0="-90" lat1="90" lon0="-180" lon1="180"/></view></views></metadata><g id="context"><path d="M303,51L306,54L320,62L321,78L320,96L317,107L318,119L323,136L327,149L328,204L341,203L365,208L430,207L447,207L448,204L450,175L450,82L443,106L436,101L430,95L420,87L412,75L403,60L413,42L424,28L434,0L307,0L299,19L300,39L303,51Z " data-iso="MOZ"/><path d="M299,53L291,55L255,35L220,14L215,14L207,16L187,31L169,55L160,75L125,130L123,137L122,165L124,191L125,195L137,196L146,217L165,251L198,273L228,283L270,285L303,285L301,262L305,225L309,200L314,199L323,201L328,204L327,149L323,136L318,119L317,107L320,96L321,78L320,62L306,54L303,51L299,53Z " data-iso="SWZ"/><path d="M447,207L430,207L365,208L341,203L328,204L323,201L314,199L309,200L305,225L301,262L303,285L270,285L228,283L198,273L165,251L146,217L137,196L125,195L124,191L122,165L123,137L125,130L160,75L169,55L187,31L207,16L215,14L220,14L255,35L291,55L299,53L303,51L300,39L299,19L307,0L0,0L0,299L422,299L441,247L447,207Z " data-iso="ZAF"/></g><g fill="red" fill-opacity="0.35" id="regions"><path d="M253,34L222,14L218,12L213,12L208,14L203,16L174,43L172,46L169,55L161,76L150,95L139,109L141,110L164,124L167,130L170,131L177,133L186,132L191,137L193,137L197,136L197,127L197,123L200,120L199,114L201,112L208,110L212,106L217,107L231,102L233,99L234,97L239,93L241,90L243,88L251,87L254,87L259,85L260,83L261,79L259,50L260,48L265,49L271,46L253,34Z " data-fips="WZ01" data-fips-="" data-iso3="SWZ" data-name="Hhohho"/><path d="M271,46L265,49L260,48L259,50L261,79L260,83L259,85L262,95L264,101L262,106L261,113L260,116L253,127L250,129L250,137L249,142L250,143L245,148L248,159L248,165L247,168L238,172L236,174L232,183L231,187L231,190L240,190L241,191L240,201L236,206L232,214L236,221L240,225L243,224L247,226L251,230L255,233L261,237L272,237L275,239L278,246L288,249L290,255L295,256L296,259L301,260L301,249L309,204L309,199L319,199L321,199L325,203L328,159L327,145L320,130L319,126L317,108L318,103L323,89L323,84L322,78L320,72L320,66L322,60L311,57L307,55L303,51L294,56L289,57L285,55L276,50L271,46Z " data-fips="WZ02" data-fips-="" data-iso3="SWZ" data-name="Lubombo"/><path d="M259,85L254,87L251,87L243,88L241,90L239,93L234,97L233,99L231,102L217,107L212,106L208,110L201,112L199,114L200,120L197,123L197,127L197,136L193,137L191,137L186,132L177,133L170,131L167,130L164,124L141,110L139,109L125,127L122,183L124,195L125,199L130,198L133,196L137,192L138,195L140,192L145,191L150,193L154,193L161,191L162,192L164,195L164,202L167,207L166,208L174,205L182,200L186,200L190,198L200,205L202,205L206,196L214,195L222,190L225,189L231,190L231,187L232,183L236,174L238,172L247,168L248,165L248,159L245,148L250,143L249,142L250,137L250,129L253,127L260,116L261,113L262,106L264,101L262,95L259,85Z " data-fips="WZ03" data-fips-="" data-iso3="SWZ" data-name="Manzini"/><path d="M140,202L142,206L147,210L148,213L149,216L148,232L152,238L168,252L175,263L180,267L226,283L237,285L305,284L302,276L301,260L296,259L295,256L290,255L288,249L278,246L275,239L272,237L261,237L255,233L251,230L247,226L243,224L240,225L236,221L232,214L236,206L240,201L241,191L240,190L231,190L225,189L222,190L214,195L206,196L202,205L200,205L190,198L186,200L182,200L174,205L166,208L167,207L164,202L164,195L162,192L161,191L154,193L150,193L145,191L140,192L138,195L140,202Z " data-fips="WZ04" data-fips-="" data-iso3="SWZ" data-name="Shiselweni"/></g></svg>