<?xml version="1.0" encoding="UTF-8"?><!DOCTYPE svg  PUBLIC '-//W3C//DTD SVG 1.1//EN'  'http://www.w3.org/Graphics/SVG/1.1/DTD/svg11.dtd'><svg enable_background="new 0 0 450 301" height="301px" style="stroke-linejoin: round; stroke:#000; fill:#f6f3f0;" version="1.1" viewBox="0 0 450 301" width="450px" xmlns="http://www.w3.org/2000/svg" xmlns:xlink="http://www.w3.org/1999/xlink"><defs><style type="text/css"><![CDATA[path { fill-rule: evenodd; }
#context path { fill: #eee; stroke: #bbb; } ]]></style></defs><metadata><views><view h="301.0" padding="0.06" w="450"><proj id="laea" lat0="35.5733328314" lon0="35.9815614239"/><bbox h="71.63" w="73.37" x="993.48" y="972.5"/><llbbox lat0="-90" lat1="90" lon0="-180" lon1="180"/></view></views></metadata><g id="context"><path d="M13,136L12,133L13,128L35,113L39,110L33,111L24,116L19,119L0,125L0,142L8,140L10,139L16,140L13,136Z " data-iso="CYN"/><path d="M16,140L10,139L8,140L0,142L0,148L3,145L13,145L18,144L17,141L16,140Z " data-iso="CYP"/><path d="M450,0L450,0L450,3L450,3L450,0Z " data-iso="IRN"/><path d="M361,27L361,28L361,30L346,47L339,55L324,60L322,63L319,67L318,76L318,83L323,96L324,105L320,116L319,124L319,137L320,150L312,168L310,171L299,174L231,219L219,227L223,238L233,271L229,273L232,281L241,278L243,284L237,290L247,292L291,298L294,299L450,299L450,19L440,28L439,28L436,24L436,17L434,13L428,12L421,17L408,17L399,14L390,12L384,14L377,12L376,13L372,19L365,26L361,27Z " data-iso="IRQ"/><path d="M80,278L81,267L83,264L88,261L91,261L91,259L96,250L95,247L94,243L96,240L93,233L93,228L94,225L93,226L84,233L83,235L80,234L78,241L74,243L66,243L61,243L60,249L57,256L53,267L48,288L44,299L55,299L54,290L59,275L65,271L73,273L74,276L77,278L80,278Z " data-iso="ISR"/><path d="M237,290L243,284L241,278L232,281L229,273L233,271L223,238L219,227L208,234L189,247L136,282L121,280L116,279L109,273L102,271L98,265L95,262L91,261L88,261L83,264L81,267L80,278L81,287L80,294L79,299L224,299L229,297L231,297L237,290Z " data-iso="JOR"/><path d="M96,223L98,220L101,218L97,213L101,207L104,205L115,203L112,201L115,195L119,193L123,189L125,184L121,174L114,170L118,164L116,162L112,161L111,163L99,163L99,168L97,170L92,173L85,183L83,194L79,202L71,221L68,227L63,239L61,243L66,243L74,243L78,241L80,234L83,235L84,233L93,226L94,225L96,223Z " data-iso="LBN"/><path d="M237,290L231,297L229,297L224,299L294,299L291,298L247,292L237,290Z " data-iso="SAU"/><path d="M359,21L354,18L348,23L336,28L326,30L309,31L303,30L293,32L283,37L265,47L252,52L238,55L228,56L220,55L214,55L211,54L201,47L190,45L178,51L163,57L159,59L144,59L141,56L139,54L132,52L127,51L124,57L122,69L126,79L126,81L117,82L115,84L114,93L108,96L106,101L105,102L98,97L95,97L93,101L90,115L96,123L97,133L95,141L96,152L99,163L111,163L112,161L116,162L118,164L114,170L121,174L125,184L123,189L119,193L115,195L112,201L115,203L104,205L101,207L97,213L101,218L98,220L96,223L94,225L93,228L93,233L96,240L94,243L95,247L96,250L91,259L91,261L95,262L98,265L102,271L109,273L116,279L121,280L136,282L189,247L208,234L219,227L231,219L299,174L310,171L312,168L320,150L319,137L319,124L320,116L324,105L323,96L318,83L318,76L319,67L322,63L324,60L339,55L346,47L361,30L361,28L361,27L359,21Z " data-iso="SYR"/><path d="M0,0L0,83L4,82L15,77L18,74L30,61L42,52L46,50L51,51L56,55L66,60L75,63L81,62L84,59L86,55L92,53L96,49L102,46L107,51L108,59L101,66L95,72L92,77L98,93L95,97L98,97L105,102L106,101L108,96L114,93L115,84L117,82L126,81L126,79L122,69L124,57L127,51L132,52L139,54L141,56L144,59L159,59L163,57L178,51L190,45L201,47L211,54L214,55L220,55L228,56L238,55L252,52L265,47L283,37L293,32L303,30L309,31L326,30L336,28L348,23L354,18L359,21L361,27L365,26L372,19L376,13L377,12L384,14L390,12L399,14L408,17L421,17L428,12L434,13L436,17L436,24L439,28L440,28L450,19L450,3L450,3L450,0L0,0Z " data-iso="TUR"/><path d="M80,278L77,278L74,276L73,273L65,271L59,275L54,290L55,299L79,299L80,294L81,287L80,278Z " data-iso="PSE"/></g><g fill="red" fill-opacity="0.35" id="regions"><path d="M97,131L101,133L107,133L109,132L110,133L110,131L108,122L109,117L108,110L110,106L111,105L112,105L112,103L106,102L106,102L99,97L91,101L93,105L89,115L94,120L96,122L96,130L97,131Z " data-fips="SY02" data-fips-="" data-iso3="SYR" data-name="Lattakia (Al Ladhiqiyah)" data-p="LA"/><path d="M109,132L107,133L101,133L97,131L98,133L98,134L95,139L94,148L98,160L100,163L104,163L105,163L105,162L108,156L112,150L113,149L113,149L111,147L106,146L110,143L111,140L111,134L110,133L109,132Z " data-fips="SY14" data-fips-="" data-iso3="SYR" data-name="Tartus" data-p="TA"/><path d="M209,53L209,56L206,58L210,59L209,68L207,73L201,77L191,78L189,79L186,84L186,87L188,91L191,93L186,104L185,109L185,112L194,121L195,122L196,123L197,124L200,123L213,124L236,129L253,102L253,102L252,97L255,78L257,66L257,65L250,61L246,61L243,58L242,55L234,57L231,57L225,55L215,56L212,55L210,54L209,53Z " data-fips="SY04" data-fips-="" data-iso3="SYR" data-name="Ar Raqqah" data-p="RA"/><path d="M204,48L202,47L194,45L190,45L187,46L181,50L175,53L168,55L166,56L160,60L143,60L137,53L135,53L127,50L125,54L123,65L122,67L123,72L127,77L127,77L131,76L132,76L131,85L131,88L136,91L139,98L142,102L146,105L145,109L149,115L151,116L154,117L157,118L166,117L176,121L194,121L185,112L185,109L186,104L191,93L188,91L186,87L186,84L189,79L191,78L201,77L207,73L209,68L210,59L206,58L209,56L209,53L204,48Z " data-fips="SY09" data-fips-="" data-iso3="SYR" data-name="Aleppo (Halab)" data-p="HL"/><path d="M150,116L148,119L146,121L146,124L148,123L148,126L145,128L143,128L141,122L139,125L138,126L135,123L129,124L117,121L117,111L117,108L111,106L111,105L110,106L108,110L109,117L108,122L110,131L110,133L111,134L111,140L110,143L106,146L111,147L113,149L113,149L113,150L118,152L120,147L122,149L127,149L131,147L138,146L141,151L148,148L153,149L154,146L161,145L163,146L163,141L173,138L176,139L179,144L184,149L186,144L188,141L194,139L197,130L197,124L197,124L196,123L195,122L194,121L176,121L166,117L157,118L154,117L151,116L150,116Z " data-fips="SY10" data-fips-="" data-iso3="SYR" data-name="Hamah" data-p="HM"/><path d="M236,129L213,124L200,123L197,124L197,124L197,130L194,139L188,141L186,144L184,149L179,144L176,139L173,138L163,141L163,146L161,145L154,146L153,149L148,148L141,151L138,146L131,147L127,149L122,149L120,147L118,152L113,150L113,149L112,150L108,156L105,162L105,163L106,164L114,161L119,163L118,165L114,169L114,170L118,170L122,175L122,177L125,180L124,182L125,185L126,185L130,185L138,185L146,195L150,198L154,199L156,203L166,213L171,220L174,222L182,226L200,239L209,233L219,227L278,188L245,145L245,141L242,134L241,133L236,129Z " data-fips="SY11" data-fips-="" data-iso3="SYR" data-name="Homs (Hims)" data-p="HI"/><path d="M127,78L128,80L115,82L115,92L114,93L107,97L106,102L106,102L112,103L112,105L111,105L111,106L117,108L117,111L117,121L129,124L135,123L138,126L139,125L141,122L143,128L145,128L148,126L148,123L146,124L146,121L148,119L150,116L151,116L149,115L145,109L146,105L142,102L139,98L136,91L131,88L131,85L132,76L131,76L127,77L127,78Z " data-fips="SY12" data-fips-="" data-iso3="SYR" data-name="Idlib" data-p="ID"/><path d="M242,55L243,58L246,61L250,61L257,65L257,66L258,68L262,73L267,78L300,107L309,110L317,109L322,110L323,108L324,104L324,97L323,94L318,85L318,70L322,61L324,59L339,55L341,54L362,29L360,24L360,20L353,17L350,21L346,25L325,31L314,32L311,31L301,30L293,31L286,36L281,38L272,44L264,48L255,52L242,55Z " data-fips="SY01" data-fips-="" data-iso3="SYR" data-name="Hasaka (Al Haksa)" data-p="HA"/><path d="M322,110L317,109L309,110L300,107L267,78L262,73L258,68L257,66L255,78L252,97L253,102L253,102L236,129L241,133L242,134L245,141L245,145L278,188L299,174L310,171L312,168L313,165L320,150L319,126L320,120L320,113L322,110Z " data-fips="SY07" data-fips-="" data-iso3="SYR" data-name="Dayr Az Zawr" data-p="DY"/><path d="M124,237L124,238L120,239L121,244L123,245L123,247L117,249L114,253L116,261L118,268L117,269L122,270L122,280L128,281L136,282L143,278L149,273L165,263L155,254L154,250L149,248L141,241L135,236L124,237Z " data-fips="SY05" data-fips-="" data-iso3="SYR" data-name="As Suwayda'" data-p="SU"/><path d="M126,186L120,193L117,193L111,200L116,203L116,204L107,204L106,204L98,210L96,214L101,219L97,220L93,230L93,231L96,234L97,234L98,236L98,237L99,237L107,237L112,235L116,237L117,236L123,234L124,237L124,237L135,236L141,241L149,248L154,250L155,254L165,263L189,247L189,247L200,239L182,226L174,222L171,220L166,213L156,203L154,199L150,198L146,195L138,185L130,185L126,185L126,186Z " data-fips="SY08" data-fips-="SY13" data-iso3="SYR" data-name="Damascus" data-p="RD"/><path d="M98,236L97,234L96,234L93,231L93,231L93,233L96,239L96,240L94,243L95,248L97,249L94,254L93,256L93,256L97,249L98,247L98,239L98,237L98,236Z " data-fips="SY03" data-fips-="" data-iso3="SYR" data-name="Quneitra" data-p="QU"/><path d="M98,237L98,239L98,247L97,249L93,256L93,256L91,259L91,261L96,262L104,272L108,272L116,279L121,280L122,280L122,270L117,269L118,268L116,261L114,253L117,249L123,247L123,245L121,244L120,239L124,238L124,237L124,237L123,234L117,236L116,237L112,235L107,237L99,237L98,237Z " data-fips="SY06" data-fips-="" data-iso3="SYR" data-name="Dar`a" data-p="DR"/></g></svg>