<?xml version="1.0" encoding="UTF-8"?><!DOCTYPE svg  PUBLIC '-//W3C//DTD SVG 1.1//EN'  'http://www.w3.org/Graphics/SVG/1.1/DTD/svg11.dtd'><svg enable_background="new 0 0 450 451" height="451px" style="stroke-linejoin: round; stroke:#000; fill:#f6f3f0;" version="1.1" viewBox="0 0 450 451" width="450px" xmlns="http://www.w3.org/2000/svg" xmlns:xlink="http://www.w3.org/1999/xlink"><defs><style type="text/css"><![CDATA[path { fill-rule: evenodd; }
#context path { fill: #eee; stroke: #bbb; } ]]></style></defs><metadata><views><view h="451" padding="0.06" w="450"><proj id="laea" lat0="19.4144225126" lon0="19.836724536"/><bbox h="212.14" w="140.75" x="916.07" y="942.22"/><llbbox lat0="-90" lat1="90" lon0="-180" lon1="180"/></view></views></metadata><g id="context"><path d="M365,401L363,401L351,399L350,395L348,390L352,384L352,372L349,366L342,355L333,347L331,343L330,343L322,342L303,351L302,354L302,356L297,363L294,368L291,368L284,375L278,383L267,391L260,390L257,392L248,393L242,394L231,396L229,398L235,403L230,409L222,416L221,418L200,420L197,420L177,429L175,431L169,426L168,424L164,427L155,430L153,432L143,431L140,431L138,435L134,438L129,449L419,449L415,445L411,442L398,435L393,430L394,427L393,423L388,419L384,415L381,413L369,411L366,407L367,402L365,401Z " data-iso="CAF"/><path d="M140,431L142,429L142,424L141,424L135,410L131,404L125,398L121,396L111,387L103,376L102,374L107,368L109,366L125,368L131,367L143,368L146,367L136,357L134,354L131,344L130,337L133,326L132,324L127,307L126,301L124,297L119,293L118,288L111,286L107,285L109,298L110,304L118,306L119,325L117,328L109,333L103,334L101,336L96,343L92,350L88,361L84,364L83,374L75,380L74,383L71,395L66,400L61,401L56,410L54,418L51,423L50,427L45,433L46,439L39,444L38,449L129,449L134,438L138,435L140,431Z M0,449L24,449L17,441L13,439L10,443L3,443L1,440L0,441L0,449Z " data-iso="CMR"/><path d="M65,11L63,6L61,1L61,0L0,0L0,48L27,33L40,25L52,18L65,11Z " data-iso="DZA"/><path d="M378,53L387,53L415,52L424,51L450,50L450,0L376,0L377,24L377,29L378,47L378,53Z " data-iso="EGY"/><path d="M65,11L78,14L101,21L104,23L119,36L137,27L137,27L146,23L161,16L215,46L261,71L344,113L356,119L356,116L355,106L380,105L379,66L378,53L378,47L377,29L377,24L376,0L61,0L61,1L63,6L65,11Z " data-iso="LBY"/><path d="M95,269L93,257L92,251L97,245L102,236L116,216L145,186L149,149L153,108L158,95L150,87L149,83L151,81L143,69L141,67L141,55L139,42L137,27L137,27L119,36L104,23L101,21L78,14L65,11L52,18L40,25L27,33L0,48L0,281L5,278L16,275L28,275L47,277L54,281L57,283L66,284L67,281L71,278L81,273L85,272L91,269L95,269Z " data-iso="NER"/><path d="M107,285L103,281L99,274L95,269L91,269L85,272L81,273L71,278L67,281L66,284L57,283L54,281L47,277L28,275L16,275L5,278L0,281L0,441L1,440L3,443L10,443L13,439L17,441L24,449L38,449L39,444L46,439L45,433L50,427L51,423L54,418L56,410L61,401L66,400L71,395L74,383L75,380L83,374L84,364L88,361L92,350L96,343L101,336L103,334L109,333L117,328L119,325L118,306L110,304L109,298L107,285Z " data-iso="NGA"/><path d="M378,53L379,66L380,105L355,106L356,116L356,119L356,131L358,216L358,218L339,219L336,219L332,223L332,233L328,237L326,240L318,249L322,259L313,266L312,267L313,273L314,275L315,281L309,287L305,293L304,295L307,298L315,297L318,298L320,301L319,303L321,312L323,324L326,328L333,332L332,341L331,343L333,347L342,355L349,366L352,372L352,384L348,390L350,395L351,399L363,401L365,401L365,401L366,401L369,397L375,395L376,391L378,386L379,384L382,379L382,370L388,358L394,358L407,355L410,361L417,366L427,377L430,378L441,375L450,375L450,50L424,51L415,52L387,53L378,53Z " data-iso="SDN"/><path d="M365,401L365,401L367,402L366,407L369,411L381,413L384,415L388,419L393,423L394,427L393,430L398,435L411,442L415,445L419,449L450,449L450,375L441,375L430,378L427,377L417,366L410,361L407,355L394,358L388,358L382,370L382,379L379,384L378,386L376,391L375,395L369,397L366,401L365,401Z " data-iso="SSD"/><path d="M344,113L261,71L215,46L161,16L146,23L137,27L139,42L141,55L141,67L143,69L151,81L149,83L150,87L158,95L153,108L149,149L145,186L116,216L102,236L97,245L92,251L93,257L95,269L99,274L103,281L107,285L111,286L118,288L119,293L124,297L126,301L127,307L132,324L133,326L130,337L131,344L134,354L136,357L146,367L143,368L131,367L125,368L109,366L107,368L102,374L103,376L111,387L121,396L125,398L131,404L135,410L141,424L142,424L142,429L140,431L143,431L153,432L155,430L164,427L168,424L169,426L175,431L177,429L197,420L200,420L221,418L222,416L230,409L235,403L229,398L231,396L242,394L248,393L257,392L260,390L267,391L278,383L284,375L291,368L294,368L297,363L302,356L302,354L303,351L322,342L330,343L331,343L332,341L333,332L326,328L323,324L321,312L319,303L320,301L318,298L315,297L307,298L304,295L305,293L309,287L315,281L314,275L313,273L312,267L313,266L322,259L318,249L326,240L328,237L332,233L332,223L336,219L339,219L358,218L358,216L356,131L356,119L344,113Z " data-iso="TCD"/></g><g fill="red" fill-opacity="0.35" id="regions"><path d="M145,187L145,187L204,217L205,219L207,221L210,223L214,226L219,227L227,226L230,225L235,220L236,218L239,207L241,207L243,212L249,215L254,217L258,217L260,217L265,220L270,219L279,217L285,212L290,214L292,213L302,211L306,213L310,211L315,213L318,212L321,215L332,215L336,218L337,218L351,217L358,218L238,58L161,16L161,16L137,27L141,53L141,66L143,69L151,81L149,84L152,88L159,96L159,98L154,106L153,108L145,186L145,187Z " data-fips="CD03" data-fips-="" data-iso3="TCD" data-name="Bet"/><path d="M117,288L118,291L122,295L125,298L128,306L127,310L131,312L131,317L132,320L130,336L130,338L137,336L139,337L143,343L148,346L155,346L159,348L158,355L158,359L160,362L160,362L166,362L169,361L171,365L177,367L179,369L184,370L186,372L190,372L191,373L194,356L197,323L194,318L194,316L196,312L195,311L195,311L191,310L189,306L181,290L184,287L185,286L183,285L168,287L163,287L155,286L153,284L153,284L149,284L141,280L140,278L136,278L139,282L134,283L131,282L132,285L130,288L117,288L117,288Z " data-fips="CD04" data-fips-="" data-iso3="TCD" data-name="Hadjer-Lamis"/><path d="M205,219L204,217L145,187L145,187L144,187L144,187L116,216L102,235L100,240L100,241L97,244L97,247L96,247L100,248L105,249L109,253L115,258L117,259L122,264L126,271L127,270L136,269L149,269L153,275L153,283L153,284L155,286L163,287L168,287L183,285L185,286L186,283L187,271L188,270L196,268L207,221L205,219Z " data-fips="CD06" data-fips-="" data-iso3="TCD" data-name="Kanem"/><path d="M96,248L92,249L95,269L107,285L116,286L117,288L130,288L132,285L131,282L134,283L139,282L136,278L140,278L141,280L149,284L153,284L153,284L153,283L153,275L149,269L136,269L127,270L126,271L122,264L117,259L115,258L109,253L105,249L100,248L96,247L96,248Z " data-fips="CD07" data-fips-="" data-iso3="TCD" data-name="Lac"/><path d="M254,217L249,215L243,212L241,207L239,207L236,218L235,220L230,225L227,226L219,227L214,226L210,223L207,221L196,268L188,270L187,271L186,283L185,286L184,287L181,290L189,306L191,310L195,311L195,311L195,310L203,303L206,303L219,296L234,296L237,296L241,296L243,299L239,303L241,309L242,312L243,312L249,313L253,314L253,312L256,305L259,299L262,295L258,290L265,287L266,284L264,272L264,267L258,263L258,260L258,217L254,217Z " data-fips="CD01" data-fips-="" data-iso3="TCD" data-name="Batha"/><path d="M258,217L258,260L262,255L264,253L272,251L279,254L282,258L289,261L294,260L301,261L310,263L313,265L313,265L319,262L322,257L320,254L318,248L325,245L327,238L333,231L333,227L331,223L336,218L336,218L332,215L321,215L318,212L315,213L310,211L306,213L302,211L292,213L290,214L285,212L279,217L270,219L265,220L260,217L258,217Z " data-fips="CD02" data-fips-="" data-iso3="TCD" data-name="Wadi Fira"/><path d="M241,309L239,303L243,299L241,296L237,296L234,296L219,296L206,303L203,303L195,310L195,311L196,312L194,316L194,318L197,323L194,356L202,355L204,358L214,361L216,363L222,368L222,370L226,371L227,368L236,364L241,356L246,355L249,352L249,352L250,350L250,344L249,342L243,340L234,336L230,334L228,332L229,324L229,323L234,326L240,320L238,316L242,312L241,309Z " data-fips="CD05" data-fips-="" data-iso3="TCD" data-name="Gura"/><path d="M258,260L258,263L264,267L264,272L266,284L265,287L258,290L262,295L259,299L256,305L253,312L253,314L254,314L257,316L256,315L264,314L271,318L284,325L284,327L305,323L311,326L319,343L319,343L321,341L331,343L333,339L334,335L333,331L326,329L323,325L325,314L321,315L321,312L319,305L319,304L320,299L314,296L308,299L307,299L307,288L308,287L315,282L315,278L311,269L311,268L313,265L310,263L301,261L294,260L289,261L282,258L279,254L272,251L264,253L262,255L258,260Z " data-fips="CD12" data-fips-="" data-iso3="TCD" data-name="Ouadda"/><path d="M166,390L158,391L155,390L150,392L141,392L140,392L140,392L138,399L137,401L135,407L135,407L136,408L143,412L147,410L149,411L162,402L170,396L166,390L166,390L166,390Z " data-fips="CD08" data-fips-="" data-iso3="TCD" data-name="Logone Occidental"/><path d="M166,390L166,390L170,396L162,402L149,411L147,410L143,412L136,408L135,407L134,407L134,408L137,415L139,423L143,424L141,431L145,431L148,433L156,430L163,428L164,425L168,423L170,427L174,431L175,431L186,425L186,424L182,416L187,412L181,404L183,400L183,393L183,392L180,392L174,391L169,390L166,390L166,390Z " data-fips="CD09" data-fips-="" data-iso3="TCD" data-name="Logone Oriental"/><path d="M130,340L131,345L133,350L133,352L135,354L137,358L141,363L145,366L140,368L133,367L126,367L122,368L114,366L107,367L106,370L103,372L104,377L111,386L112,388L123,397L124,397L130,402L133,406L134,408L134,407L135,407L135,407L137,401L138,399L140,392L140,392L140,391L142,384L146,380L147,377L150,374L154,375L159,371L161,362L160,362L160,362L158,359L158,355L159,348L155,346L148,346L143,343L139,337L137,336L130,338L130,340Z " data-fips="CD10" data-fips-="" data-iso3="TCD" data-name="Mayo-Kebbi Est"/><path d="M190,372L186,372L184,370L179,369L177,367L171,365L169,361L166,362L160,362L161,362L159,371L154,375L150,374L147,377L146,380L142,384L140,391L140,392L141,392L150,392L155,390L158,391L166,390L166,390L166,390L169,390L174,391L180,392L183,392L185,390L182,386L186,383L186,379L191,377L194,378L194,375L191,373L190,372Z " data-fips="CD14" data-fips-="" data-iso3="TCD" data-name="Tandjil"/><path d="M249,352L246,355L241,356L236,364L227,368L226,371L222,370L222,368L216,363L214,361L204,358L202,355L194,356L191,373L194,375L194,378L191,377L186,379L186,383L182,386L185,390L183,392L183,393L183,400L181,404L187,412L182,416L186,424L186,424L191,422L192,423L196,421L201,421L208,419L219,419L225,414L226,413L232,406L235,402L229,398L230,396L233,394L239,393L243,393L255,393L256,392L256,392L249,370L248,365L248,359L249,352L249,352Z " data-fips="CD11" data-fips-="" data-iso3="TCD" data-name="Mandoul"/><path d="M253,314L249,313L243,312L242,312L238,316L240,320L234,326L229,323L229,324L228,332L230,334L234,336L243,340L249,342L250,344L250,350L249,352L248,359L248,365L249,370L256,392L256,392L263,390L265,391L269,390L270,389L279,383L280,381L285,374L285,374L291,368L293,368L297,363L301,362L303,356L302,354L302,351L309,348L310,347L314,346L316,344L319,343L319,343L311,326L305,323L284,327L284,325L271,318L264,314L256,315L257,316L254,314L253,314Z " data-fips="CD13" data-fips-="" data-iso3="TCD" data-name="Salamat"/></g></svg>