<?xml version="1.0" encoding="UTF-8"?><!DOCTYPE svg  PUBLIC '-//W3C//DTD SVG 1.1//EN'  'http://www.w3.org/Graphics/SVG/1.1/DTD/svg11.dtd'><svg enable_background="new 0 0 450 563" height="563px" style="stroke-linejoin: round; stroke:#000; fill:#f6f3f0;" version="1.1" viewBox="0 0 450 563" width="450px" xmlns="http://www.w3.org/2000/svg" xmlns:xlink="http://www.w3.org/1999/xlink"><defs><style type="text/css"><![CDATA[path { fill-rule: evenodd; }
#context path { fill: #eee; stroke: #bbb; } ]]></style></defs><metadata><views><view h="563.5" padding="0.06" w="450"><proj id="laea" lat0="7.45293040586" lon0="1.06216736988"/><bbox h="65.0" w="26.56" x="983.69" y="953.12"/><llbbox lat0="-90" lat1="90" lon0="-180" lon1="180"/></view></views></metadata><g id="context"><path d="M234,28L232,39L226,53L222,58L220,92L222,95L279,134L281,137L281,180L284,191L285,202L289,210L304,225L308,235L309,287L310,318L311,454L301,454L306,466L307,478L308,481L306,487L308,495L312,498L323,514L327,528L309,533L311,537L331,532L381,525L425,520L426,514L428,496L430,489L432,484L430,477L428,469L427,455L429,451L430,446L430,438L430,411L433,406L433,402L430,395L426,387L426,376L425,365L423,360L424,341L425,317L424,307L426,299L427,281L427,263L431,235L450,232L450,0L260,0L259,8L255,10L253,15L253,19L251,21L243,18L240,24L237,28L234,28Z " data-iso="BEN"/><path d="M133,14L157,19L191,28L192,32L197,32L207,29L234,28L237,28L240,24L243,18L251,21L253,19L253,15L255,10L259,8L260,0L0,0L0,26L11,26L31,25L39,26L45,28L59,27L66,28L72,34L74,34L77,31L88,26L95,17L99,17L104,17L107,14L109,9L133,14Z " data-iso="BFA"/><path d="M264,550L264,544L254,541L250,538L245,531L243,526L235,525L226,519L217,512L214,505L214,501L213,498L210,497L202,481L197,474L194,469L195,465L194,460L196,455L200,453L201,450L202,443L204,429L206,416L201,412L196,411L193,407L192,400L192,395L203,376L201,331L202,324L207,320L212,314L211,309L204,296L190,285L183,277L179,270L178,266L187,260L191,256L191,251L188,243L188,228L192,216L195,202L195,198L187,189L182,188L178,188L170,194L167,195L164,191L167,187L166,183L168,179L174,177L175,176L168,174L168,169L174,167L175,154L177,141L178,108L180,102L175,101L162,92L155,85L149,78L144,73L134,66L131,62L130,57L134,48L138,38L141,25L139,21L133,14L109,9L107,14L104,17L99,17L95,17L88,26L77,31L74,34L72,34L66,28L59,27L45,28L39,26L31,25L11,26L0,26L0,562L249,562L250,561L256,554L264,550Z " data-iso="GHA"/><path d="M432,520L450,519L450,232L431,235L427,263L427,281L426,299L424,307L425,317L424,341L423,360L425,365L426,376L426,387L430,395L433,402L433,406L430,411L430,438L430,446L429,451L427,455L428,469L430,477L432,484L430,489L428,496L426,514L425,520L432,520Z " data-iso="NGA"/><path d="M207,29L197,32L192,32L191,28L157,19L133,14L139,21L141,25L138,38L134,48L130,57L131,62L134,66L144,73L149,78L155,85L162,92L175,101L180,102L178,108L177,141L175,154L174,167L168,169L168,174L175,176L174,177L168,179L166,183L167,187L164,191L167,195L170,194L178,188L182,188L187,189L195,198L195,202L192,216L188,228L188,243L191,251L191,256L187,260L178,266L179,270L183,277L190,285L204,296L211,309L212,314L207,320L202,324L201,331L203,376L192,395L192,400L193,407L196,411L201,412L206,416L204,429L202,443L201,450L200,453L196,455L194,460L195,465L194,469L197,474L202,481L210,497L213,498L214,501L214,505L217,512L226,519L235,525L243,526L245,531L250,538L254,541L264,544L264,550L277,544L311,537L309,533L327,528L323,514L312,498L308,495L306,487L308,481L307,478L306,466L301,454L311,454L310,318L309,287L308,235L304,225L289,210L285,202L284,191L281,180L281,137L279,134L222,95L220,92L222,58L226,53L232,39L234,28L207,29Z " data-iso="TGO"/></g><g fill="red" fill-opacity="0.35" id="regions"><path d="M308,307L270,307L269,314L271,321L273,327L273,329L271,337L271,341L269,344L270,347L267,349L253,352L243,350L227,350L224,353L216,354L210,357L203,358L203,359L203,365L204,371L204,379L201,378L199,380L199,387L198,388L193,391L191,399L192,405L193,409L197,412L205,411L205,412L207,419L205,430L202,436L202,440L202,450L200,454L199,454L191,456L195,460L196,464L193,470L205,482L206,484L205,491L206,493L209,497L214,498L216,499L214,502L214,503L221,502L225,499L231,492L233,489L234,483L235,475L240,473L258,474L257,475L264,479L265,481L270,483L276,477L283,472L290,470L294,471L297,471L304,464L304,463L303,462L309,454L311,454L309,309L309,308L308,307Z " data-fips="TO25" data-fips-="" data-iso3="TGO" data-name="Plateaux"/><path d="M304,464L297,471L294,471L290,470L283,472L276,477L270,483L265,481L264,479L257,475L258,474L240,473L235,475L234,483L233,489L231,492L225,499L221,502L214,503L214,505L218,513L220,515L228,519L231,524L235,525L243,525L246,534L247,536L254,543L263,544L264,545L264,549L273,546L290,540L310,537L312,534L325,530L323,514L321,510L317,508L316,502L308,497L308,493L305,489L305,485L308,480L306,472L307,467L306,465L304,464Z " data-fips="TO24" data-fips-="" data-iso3="TGO" data-name="Maritime"/><path d="M181,130L176,130L176,134L178,139L175,144L176,151L173,159L174,161L176,165L175,171L173,171L168,167L167,170L167,173L169,175L172,176L176,175L178,175L179,177L178,179L173,178L169,179L164,179L165,185L170,185L171,186L168,189L163,189L164,195L168,195L172,193L174,189L183,188L190,190L191,193L195,197L196,200L194,210L191,212L191,222L189,224L188,230L185,237L186,240L191,249L192,254L190,258L190,258L201,252L200,250L205,246L206,243L211,240L217,235L221,235L222,237L232,240L238,239L241,237L245,232L244,230L243,220L248,217L266,217L281,213L289,209L287,206L285,202L285,191L283,188L282,189L279,184L279,181L281,178L281,166L281,137L279,134L244,110L241,114L235,114L234,115L229,114L225,117L217,115L217,118L214,125L212,129L212,132L210,138L211,146L209,147L207,146L199,147L197,146L195,144L194,140L188,139L184,136L184,135L181,130L181,130Z " data-fips="TO23" data-fips-="" data-iso3="TGO" data-name="Kara"/><path d="M289,209L281,213L266,217L248,217L243,220L244,230L245,232L241,237L238,239L232,240L222,237L221,235L217,235L211,240L206,243L205,246L200,250L201,252L190,258L190,259L189,262L183,262L182,266L181,263L178,264L179,269L182,276L186,282L190,285L197,291L204,295L207,302L211,306L212,312L213,312L214,315L213,317L205,321L202,324L200,325L199,326L202,331L200,333L202,351L203,358L210,357L216,354L224,353L227,350L243,350L253,352L267,349L270,347L269,344L271,341L271,337L273,329L273,327L271,321L269,314L270,307L308,307L308,307L309,302L312,296L312,293L309,288L309,287L308,235L304,225L289,210L289,209Z " data-fips="TO22" data-fips-="" data-iso3="TGO" data-name="Centre"/><path d="M181,130L184,135L184,136L188,139L194,140L195,144L197,146L199,147L207,146L209,147L211,146L210,138L212,132L212,129L214,125L217,118L217,115L225,117L229,114L234,115L235,114L241,114L244,110L220,94L219,93L221,79L222,73L222,69L222,60L223,56L229,51L232,40L232,37L232,34L234,28L211,28L204,29L191,34L192,29L191,29L191,27L179,24L128,13L123,14L127,17L133,17L140,18L142,20L142,27L138,32L136,42L136,47L132,51L131,53L131,66L134,67L136,68L139,70L142,71L153,81L159,91L160,90L164,91L167,90L169,91L169,94L173,100L172,102L178,101L181,103L179,105L177,110L177,114L177,121L178,124L181,126L181,128L181,130Z " data-fips="TO26" data-fips-="" data-iso3="TGO" data-name="Savanes"/></g></svg>