<?xml version="1.0" encoding="UTF-8"?><!DOCTYPE svg  PUBLIC '-//W3C//DTD SVG 1.1//EN'  'http://www.w3.org/Graphics/SVG/1.1/DTD/svg11.dtd'><svg enable_background="new 0 0 450 501" height="501px" style="stroke-linejoin: round; stroke:#000; fill:#f6f3f0;" version="1.1" viewBox="0 0 450 501" width="450px" xmlns="http://www.w3.org/2000/svg" xmlns:xlink="http://www.w3.org/1999/xlink"><defs><style type="text/css"><![CDATA[path { fill-rule: evenodd; }
#context path { fill: #eee; stroke: #bbb; } ]]></style></defs><metadata><views><view h="501.0" padding="0.06" w="450"><proj id="laea" lat0="18.6813923205" lon0="97.9281916938"/><bbox h="194.15" w="110.29" x="987.34" y="972.19"/><llbbox lat0="-90" lat1="90" lon0="-180" lon1="180"/></view></views></metadata><g id="context"><path d="M450,30L440,38L436,43L436,55L439,66L450,71L450,30Z " data-iso="CHN"/><path d="M105,499L101,497L92,498L81,496L74,497L59,495L55,493L49,488L46,486L35,484L32,485L29,495L32,499L105,499Z M34,478L34,476L30,476L32,479L34,478Z " data-iso="IDN"/><path d="M410,190L408,191L401,197L398,200L394,201L393,203L388,203L379,196L375,200L371,199L370,202L363,204L368,213L366,217L361,217L356,212L350,210L344,212L340,207L339,206L339,205L338,205L334,209L332,204L326,203L315,205L309,204L304,205L290,204L278,207L273,210L269,214L264,223L258,231L251,233L252,241L256,249L257,260L266,268L264,273L265,279L272,291L271,289L274,290L274,294L278,298L277,306L279,316L287,313L291,308L294,311L297,316L295,320L291,323L291,325L295,328L301,325L304,325L314,326L319,330L323,327L332,326L338,320L338,314L346,316L348,312L360,310L364,314L366,314L373,316L370,307L364,302L362,291L365,288L367,286L377,288L379,286L379,279L388,278L390,275L395,274L402,268L407,266L409,268L413,262L413,254L411,243L414,230L414,228L407,213L406,212L406,201L410,192L410,190Z " data-iso="KHM"/><path d="M272,1L280,2L285,5L287,4L290,1L292,-1L297,-3L299,-4L301,-3L306,0L313,5L312,8L307,12L315,14L317,19L321,19L324,23L324,25L319,34L313,38L305,36L298,37L299,43L294,49L295,50L301,52L319,64L332,67L331,73L333,78L337,81L343,83L347,89L350,96L360,106L368,112L376,120L377,130L382,136L387,134L388,137L394,141L399,145L404,148L405,149L397,156L413,172L409,187L410,190L408,191L401,197L398,200L394,201L393,203L388,203L379,196L375,200L371,199L370,202L363,204L368,213L366,217L361,217L356,212L350,210L344,212L340,207L339,206L339,205L341,204L346,200L347,198L349,182L347,180L348,172L351,168L351,161L344,157L344,152L341,151L336,149L333,147L325,138L323,132L323,125L323,118L324,111L322,106L312,99L300,83L297,80L279,77L277,78L271,86L271,86L271,87L271,86L270,90L268,91L260,95L257,95L252,92L242,85L229,95L221,101L214,108L212,109L206,106L212,91L213,85L210,78L213,73L217,61L216,58L214,50L214,45L212,42L207,41L196,45L193,43L190,40L190,37L194,26L190,21L185,17L181,21L181,19L181,17L183,11L185,6L193,1L193,-0L198,-11L199,-13L209,-18L211,-21L212,-20L213,-12L215,-9L223,-11L230,-10L228,-13L228,-30L223,-39L223,-44L228,-51L231,-47L236,-49L253,-33L255,-25L261,-27L264,-26L261,-13L269,-1L272,1Z " data-iso="LAO"/><path d="M124,349L127,345L122,347L124,349Z M125,316L123,318L126,323L127,322L125,316Z M135,316L134,312L133,316L135,316Z M125,300L128,292L127,290L124,297L125,300Z M135,291L134,289L130,290L132,297L134,298L135,291Z M120,293L118,288L119,293L120,293Z M134,286L137,285L134,283L134,286Z M120,271L116,272L118,274L120,271Z M131,264L128,262L128,267L128,273L130,272L132,268L131,264Z M128,248L126,248L128,254L128,248Z M20,161L21,158L18,161L20,161Z M11,157L13,155L15,151L14,149L8,156L8,160L11,157Z M105,148L104,140L102,142L102,147L105,148Z M140,341L142,333L143,324L146,322L155,311L164,295L168,290L165,280L163,277L161,268L162,266L156,260L153,251L154,244L154,236L153,229L147,218L136,208L126,194L124,182L135,175L135,170L136,155L143,151L145,147L143,143L139,147L133,133L132,128L131,126L126,120L112,103L109,98L110,95L107,85L101,82L99,77L111,73L109,64L112,57L112,53L112,47L121,37L125,39L133,39L141,37L145,37L148,28L152,26L158,27L162,25L161,18L169,19L174,16L178,17L181,19L181,17L183,11L185,6L193,1L193,0L0,0L1,65L5,68L3,69L5,73L6,76L10,86L12,98L14,102L15,106L14,114L10,125L9,128L5,139L3,151L3,155L5,155L10,153L17,142L18,139L16,159L20,157L23,150L23,156L25,162L32,161L37,155L38,156L36,160L36,164L38,165L43,161L47,157L50,151L57,148L60,145L61,145L67,142L64,138L63,132L68,140L76,138L80,134L85,124L83,118L85,115L83,112L87,115L94,122L93,123L96,133L98,135L99,140L103,140L110,138L107,142L107,148L105,156L109,160L111,175L110,179L112,182L112,193L114,197L116,196L119,199L116,198L115,199L118,209L121,215L120,220L121,229L123,231L124,221L126,228L131,236L133,242L136,246L136,252L138,256L139,266L137,269L139,272L137,274L140,276L139,279L139,285L137,290L140,292L143,290L143,294L141,296L141,304L141,307L139,311L139,315L133,325L134,335L134,341L136,345L139,341L140,341Z " data-iso="MMR"/><path d="M191,495L192,491L188,490L188,495L191,495Z M177,458L170,459L173,464L179,461L177,458Z M248,464L247,469L243,472L241,477L238,479L234,478L232,476L226,477L222,479L217,484L213,479L213,477L216,474L216,467L213,464L209,465L204,457L201,458L192,455L190,451L187,452L185,459L187,462L190,467L192,473L193,479L193,485L196,499L286,499L280,490L276,486L262,476L256,466L254,465L248,464Z " data-iso="MYS"/><path d="M171,456L172,455L170,450L169,454L171,456Z M137,412L137,408L135,406L137,412Z M131,413L132,407L129,406L126,412L127,417L131,415L131,413Z M183,359L179,360L180,365L183,363L183,359Z M183,356L182,353L180,353L183,356Z M261,292L259,294L261,295L261,292Z M256,282L252,277L252,282L256,282Z M136,352L134,360L132,363L130,369L128,379L126,386L126,396L128,403L131,404L134,400L136,399L140,402L143,408L151,413L151,417L152,419L155,419L159,424L161,429L169,430L167,434L172,438L172,445L177,449L185,459L187,452L190,451L192,455L201,458L204,457L209,465L213,464L216,467L216,474L213,477L213,479L217,484L222,479L226,477L232,476L234,478L238,479L241,477L243,472L247,469L248,464L238,457L233,448L229,445L223,443L214,445L206,441L200,435L195,435L188,425L186,422L186,418L189,416L191,421L190,423L193,424L195,432L199,434L196,427L190,401L188,396L185,396L180,388L178,374L176,369L172,368L162,371L157,370L158,365L154,355L154,336L157,334L158,328L164,318L165,312L169,300L172,294L174,291L175,285L178,281L180,278L180,272L179,261L183,250L181,246L180,244L180,240L184,237L187,236L196,235L198,233L200,234L210,237L209,245L208,250L208,257L207,260L210,263L214,261L225,263L233,260L243,265L249,271L259,278L263,277L266,281L267,285L271,291L272,291L265,279L264,273L266,268L257,260L256,249L252,241L251,233L258,231L264,223L269,214L273,210L278,207L290,204L304,205L309,204L315,205L326,203L332,204L334,209L338,205L339,205L341,204L346,200L347,198L349,182L347,180L348,172L351,168L351,161L344,157L344,152L341,151L336,149L333,147L325,138L323,132L323,125L323,118L324,111L322,106L312,99L300,83L297,80L279,77L277,78L271,86L270,90L268,91L260,95L257,95L252,92L242,85L229,95L221,101L214,108L212,109L206,106L212,91L213,85L210,78L213,73L217,61L216,58L214,50L214,45L212,42L207,41L196,45L193,43L190,40L190,37L194,26L190,21L185,17L181,21L181,19L178,17L174,16L169,19L161,18L162,25L158,27L152,26L148,28L145,37L141,37L133,39L125,39L121,37L112,47L112,53L112,57L109,64L111,73L99,77L101,82L107,85L110,95L109,98L112,103L126,120L131,126L132,128L133,133L139,147L143,143L145,147L143,151L136,155L135,170L135,175L124,182L126,194L136,208L147,218L153,229L154,236L154,244L153,251L156,260L162,266L161,268L163,277L165,280L168,290L164,295L155,311L146,322L143,324L142,333L140,341L136,352Z " data-iso="THA"/><path d="M389,382L390,380L387,382L389,382Z M308,331L305,330L302,332L306,343L308,337L308,331Z M306,0L313,5L312,8L307,12L315,14L317,19L321,19L324,23L324,25L319,34L313,38L305,36L298,37L299,43L294,49L295,50L301,52L319,64L332,67L331,73L333,78L337,81L343,83L347,89L350,96L360,106L368,112L376,120L377,130L382,136L387,134L388,137L394,141L399,145L404,148L405,149L397,156L413,172L409,187L410,190L410,192L406,201L406,212L407,213L414,228L414,230L411,243L413,254L413,262L409,268L407,266L402,268L395,274L390,275L388,278L379,279L379,286L377,288L367,286L365,288L362,291L364,302L370,307L373,316L366,314L364,314L360,310L348,312L346,316L338,314L338,320L332,326L323,327L319,330L322,332L327,338L331,336L333,339L338,341L340,346L334,349L333,355L332,369L332,381L335,382L331,387L335,388L342,386L348,380L351,375L354,371L374,360L375,359L372,352L363,342L366,343L375,352L381,355L384,355L386,350L384,347L374,337L372,334L383,343L387,345L389,344L391,339L393,337L391,334L387,333L388,332L392,331L391,326L387,326L391,324L393,327L398,326L398,321L402,324L407,327L425,317L430,316L433,310L438,309L447,301L450,300L450,170L448,167L441,160L436,155L435,152L423,138L416,136L402,124L396,121L394,116L382,107L374,96L373,91L374,89L366,80L355,72L346,57L347,55L349,52L351,47L351,37L356,26L361,24L368,17L371,14L373,11L372,7L377,0L306,0L306,0Z M272,1L280,2L285,5L287,4L290,1L291,0L271,0L272,1Z " data-iso="VNM"/></g><g fill="red" fill-opacity="0.35" id="regions"><path d="M115,107L121,105L123,104L125,103L127,103L125,102L121,94L121,91L121,86L122,75L121,69L121,67L122,58L124,56L134,61L137,56L136,55L136,46L132,39L132,39L125,40L124,39L119,36L114,43L113,46L111,49L112,55L112,59L110,60L108,64L110,68L110,75L103,77L101,80L101,82L107,83L107,86L111,94L109,96L111,103L115,107Z " data-fips="TH01" data-fips-="" data-iso3="THA" data-name="Mae Hong Son"/><path d="M153,314L151,317L149,316L149,320L146,321L145,322L147,323L148,335L146,341L147,343L147,345L138,354L141,358L142,359L142,358L143,357L147,355L151,355L154,353L154,352L155,346L154,344L156,340L157,340L155,337L154,335L158,335L157,332L159,326L161,324L163,319L165,319L165,315L165,315L159,316L158,316L154,314L153,314Z " data-fips="TH58" data-fips-="" data-iso3="THA" data-name="Chumphon"/><path d="M191,406L190,399L188,395L184,396L183,393L181,391L179,383L178,375L174,368L174,368L173,373L174,374L172,379L169,381L166,386L160,393L159,393L157,398L158,399L158,399L160,401L159,405L160,410L160,411L160,411L161,412L166,414L169,410L173,410L173,414L173,414L173,414L180,413L183,415L185,415L185,416L186,414L187,413L188,412L192,411L191,406Z " data-fips="TH64" data-fips-="" data-iso3="THA" data-name="Nakhon Si Thammarat"/><path d="M127,404L126,411L128,417L131,412L131,411L132,408L127,404Z " data-fips="TH62" data-fips-="" data-iso3="THA" data-name="Phuket"/><path d="M127,377L126,376L126,374L127,377Z M141,390L140,391L140,392L139,392L139,398L139,398L137,397L132,400L133,403L130,405L127,403L126,397L126,389L126,384L130,376L128,373L130,368L130,367L132,367L132,367L133,368L134,368L135,369L133,374L134,379L133,379L132,382L134,382L135,389L140,390L141,390Z " data-fips="TH59" data-fips-="TH61" data-iso3="THA" data-name="Phangnga"/><path d="M145,322L142,325L143,330L141,336L137,350L135,351L133,359L135,360L131,366L130,367L132,367L132,367L133,368L134,368L134,368L142,362L142,360L142,359L141,358L138,354L147,345L147,343L146,341L148,335L147,323L145,322L145,322Z " data-fips="TH59" data-fips-="" data-iso3="THA" data-name="Ranong"/><path d="M184,360L178,360L179,365L183,363L184,360Z M154,353L151,355L147,355L143,357L142,358L142,359L142,360L142,362L134,368L134,368L135,369L133,374L134,379L133,379L132,382L134,382L135,389L140,390L141,390L141,390L142,388L147,391L147,400L152,399L157,399L158,399L157,398L159,393L160,393L166,386L169,381L172,379L174,374L173,373L174,368L173,368L168,369L166,369L164,372L161,372L157,369L157,368L160,366L158,363L154,353L154,353Z M181,353L181,355L182,356L183,354L181,353Z " data-fips="TH60" data-fips-="TH58" data-iso3="THA" data-name="Surat Thani"/><path d="M153,426L152,422L151,422L153,426Z M141,390L140,391L140,392L139,392L139,398L138,398L141,402L142,408L144,410L147,408L151,415L150,416L153,419L154,418L158,420L158,421L159,414L160,413L160,412L160,411L160,411L160,410L159,405L160,401L158,399L158,399L157,399L152,399L147,400L147,391L142,388L141,390L141,390Z " data-fips="TH63" data-fips-="" data-iso3="THA" data-name="Krabi"/><path d="M185,415L183,415L180,413L173,414L173,414L174,417L175,420L178,429L180,433L181,436L182,438L183,437L191,434L192,433L193,431L193,431L190,429L186,422L186,418L188,417L187,416L187,416L186,416L185,416L185,415Z " data-fips="TH66" data-fips-="" data-iso3="THA" data-name="Phatthalung"/><path d="M188,416L192,420L192,423L194,424L195,431L199,435L199,433L197,430L195,426L193,415L192,411L188,412L187,413L186,414L185,416L186,416L187,416L187,416L188,417L188,416Z " data-fips="TH68" data-fips-="TH66|" data-iso3="THA" data-name="Songkhla (Songkhla Lake)"/><path d="M171,457L171,451L171,450L169,454L171,457Z M173,437L171,441L172,446L180,452L183,457L188,450L188,450L188,445L183,439L183,439L182,439L178,439L176,438L173,437L173,437Z " data-fips="TH67" data-fips-="" data-iso3="THA" data-name="Satun"/><path d="M193,431L192,433L191,434L183,437L182,438L183,439L183,439L188,445L188,450L188,451L190,451L193,455L202,458L207,459L208,463L208,463L211,458L214,457L216,453L216,452L215,452L215,450L214,449L215,445L214,445L206,442L200,436L198,437L193,432L193,431Z " data-fips="TH68" data-fips-="" data-iso3="THA" data-name="Songkhla"/><path d="M164,433L162,433L162,435L164,433Z M160,411L160,412L160,413L159,414L158,421L158,421L159,425L162,431L164,432L169,429L167,435L169,437L171,436L172,437L173,437L173,437L176,438L178,439L182,439L183,439L182,438L181,436L180,433L178,429L175,420L174,417L173,414L173,414L173,410L169,410L166,414L161,412L160,411Z " data-fips="TH65" data-fips-="" data-iso3="THA" data-name="Trang"/><path d="M231,455L230,453L223,454L222,452L217,452L216,452L216,453L214,457L211,458L208,463L208,463L214,465L215,464L216,469L216,475L214,475L214,481L218,484L220,483L226,477L229,475L229,471L225,466L227,459L230,458L233,455L232,454L231,455Z " data-fips="TH70" data-fips-="" data-iso3="THA" data-name="Yala"/><path d="M163,25L165,26L165,29L160,31L158,39L156,42L157,43L158,52L158,58L160,60L160,61L161,61L164,59L166,45L168,47L168,47L169,47L175,46L176,49L183,41L185,41L189,38L189,38L194,27L193,24L188,17L184,18L182,21L180,20L178,17L175,15L174,16L171,19L163,18L161,17L163,25L163,25Z " data-fips="TH03" data-fips-="" data-iso3="THA" data-name="Chiang Rai"/><path d="M163,25L157,27L152,26L148,28L148,34L147,36L144,38L144,37L137,38L134,40L133,39L132,39L136,46L136,55L137,56L134,61L124,56L122,58L121,67L121,69L122,75L121,86L121,91L121,94L125,102L127,103L127,103L126,104L128,108L128,111L128,116L131,117L135,116L135,114L134,108L136,107L138,102L139,101L139,101L141,101L145,99L144,95L142,93L143,91L142,85L138,83L139,80L146,76L149,72L153,71L157,76L157,76L158,76L158,72L159,62L160,61L160,60L158,58L158,52L157,43L156,42L158,39L160,31L165,29L165,26L163,25L163,25Z " data-fips="TH02" data-fips-="" data-iso3="THA" data-name="Chiang Mai"/><path d="M168,47L166,45L164,59L161,61L160,61L159,62L158,72L158,76L157,76L157,77L155,78L152,83L149,85L151,96L153,97L152,100L149,105L149,105L149,106L149,112L153,114L156,112L157,115L158,116L159,116L160,118L162,117L162,115L161,110L163,102L162,101L162,102L159,103L158,102L166,92L170,91L174,85L175,84L178,80L180,76L182,74L182,68L182,67L181,67L180,65L172,59L169,53L168,48L168,47L168,47Z " data-fips="TH06" data-fips-="" data-iso3="THA" data-name="Lampang"/><path d="M157,76L153,71L149,72L146,76L139,80L138,83L142,85L143,91L142,93L144,95L145,99L141,101L139,101L140,102L139,104L140,109L148,105L149,105L149,105L152,100L153,97L151,96L149,85L152,83L155,78L157,77L157,76L157,76Z " data-fips="TH05" data-fips-="" data-iso3="THA" data-name="Lamphun"/><path d="M195,45L195,46L193,48L196,52L196,56L192,59L193,61L189,66L189,67L188,67L190,69L190,74L191,77L194,78L193,84L191,92L191,92L191,92L200,92L203,90L205,87L210,80L210,80L211,76L215,71L215,65L218,60L215,56L214,51L213,49L213,46L215,44L214,42L207,41L202,44L201,45L195,44L195,45Z " data-fips="TH04" data-fips-="" data-iso3="THA" data-name="Nan"/><path d="M189,38L185,41L183,41L176,49L175,46L169,47L168,47L168,48L169,53L172,59L180,65L181,67L182,67L182,67L183,66L184,67L185,67L189,67L189,66L193,61L192,59L196,56L196,52L193,48L195,46L195,45L195,45L191,42L190,40L190,38L189,38Z " data-fips="TH41" data-fips-="" data-iso3="THA" data-name="Phayao"/><path d="M185,67L184,67L183,66L182,67L182,67L182,68L182,74L180,76L178,80L175,84L174,85L170,91L166,92L158,102L159,103L162,102L162,101L164,100L171,102L173,99L175,99L176,99L177,100L186,94L189,96L190,92L191,92L191,92L193,84L194,78L191,77L190,74L190,69L188,67L189,67L185,67Z " data-fips="TH07" data-fips-="" data-iso3="THA" data-name="Phrae"/><path d="M178,119L178,119L176,120L182,125L183,127L179,129L177,129L176,131L177,134L176,134L176,136L176,138L180,140L180,140L180,140L184,138L187,138L188,139L195,139L197,143L199,145L200,144L204,139L204,137L206,131L210,127L211,127L211,126L210,124L212,117L211,116L206,113L205,109L207,106L206,106L205,106L207,103L207,102L207,102L194,111L193,111L186,114L186,117L185,118L180,119L179,119L178,119Z " data-fips="TH12" data-fips-="" data-iso3="THA" data-name="Phitsanulok"/><path d="M173,99L171,102L164,100L162,101L163,102L161,110L162,115L162,117L160,118L159,116L158,116L158,120L157,125L157,126L159,128L159,128L160,129L165,130L169,133L175,134L176,134L177,134L176,131L177,129L179,129L183,127L182,125L176,120L178,119L178,119L178,118L179,114L179,109L176,106L178,105L175,99L175,99L173,99Z " data-fips="TH09" data-fips-="" data-iso3="THA" data-name="Sukhothai"/><path d="M210,80L205,87L203,90L200,92L191,92L191,92L190,92L189,96L186,94L177,100L176,99L175,99L175,99L178,105L176,106L179,109L179,114L178,118L178,119L179,119L180,119L185,118L186,117L186,114L193,111L194,111L207,102L207,101L208,99L213,91L211,81L210,80Z " data-fips="TH10" data-fips-="" data-iso3="THA" data-name="Uttaradit"/><path d="M135,167L135,175L135,177L132,176L130,180L128,179L123,181L123,186L124,187L125,193L127,197L131,201L135,208L136,210L139,211L141,214L145,216L153,228L153,229L157,227L165,227L170,225L174,225L176,222L176,221L176,221L175,220L174,219L174,218L174,218L174,217L172,214L174,213L174,203L176,202L169,194L165,195L163,198L158,193L157,188L157,188L156,188L150,187L149,186L148,182L148,181L147,180L146,180L140,173L138,169L135,167L135,167Z " data-fips="TH50" data-fips-="" data-iso3="THA" data-name="Kanchanaburi"/><path d="M175,134L169,133L165,130L160,129L159,128L158,129L156,138L153,140L148,142L149,144L148,147L149,153L151,159L151,161L151,160L167,160L170,162L176,154L177,147L179,145L179,145L178,145L179,144L180,140L180,140L176,138L176,136L176,134L175,134Z " data-fips="TH11" data-fips-="" data-iso3="THA" data-name="Kamphaeng Phet"/><path d="M197,143L195,139L188,139L187,138L184,138L180,140L180,140L179,144L178,145L179,145L179,145L179,146L180,151L184,156L187,159L189,158L192,158L202,158L202,158L202,157L198,154L199,151L200,149L200,146L199,145L197,143Z " data-fips="TH13" data-fips-="" data-iso3="THA" data-name="Phichit"/><path d="M232,131L229,123L227,124L225,122L219,122L216,121L213,124L212,127L211,127L210,127L206,131L204,137L204,139L200,144L199,145L200,146L200,149L199,151L198,154L202,157L202,158L202,159L203,160L202,171L202,172L204,172L211,173L214,175L217,175L218,177L219,178L220,177L222,165L220,164L220,161L221,157L219,155L221,144L223,139L225,138L224,136L227,133L232,134L232,134L232,134L233,133L233,132L233,132L233,131L232,131Z " data-fips="TH14" data-fips-="" data-iso3="THA" data-name="Phetchabun"/><path d="M170,189L168,188L168,190L161,188L161,187L158,187L157,188L157,188L158,193L163,198L165,195L169,194L176,202L174,203L174,213L172,214L174,217L174,218L175,218L180,215L184,215L185,215L186,214L187,213L188,207L188,207L187,205L187,204L187,204L186,201L186,200L186,195L186,194L186,194L186,193L186,191L186,190L186,189L184,190L180,190L178,191L173,189L171,189L170,189Z " data-fips="TH51" data-fips-="" data-iso3="THA" data-name="Suphan Buri"/><path d="M139,101L139,101L138,102L136,107L134,108L135,114L135,116L131,117L128,116L128,111L128,108L126,104L127,103L127,103L125,103L123,104L121,105L115,107L116,108L124,118L127,123L130,124L133,128L134,131L132,134L135,137L137,142L138,147L144,150L143,152L138,153L138,154L135,155L134,166L135,167L138,169L140,173L146,180L147,180L148,181L148,181L150,171L151,169L152,164L152,164L152,163L151,162L151,161L151,161L151,159L149,153L148,147L149,144L148,142L153,140L156,138L158,129L159,128L159,128L157,126L157,125L158,120L158,116L157,115L156,112L153,114L149,112L149,106L149,105L148,105L140,109L139,104L140,102L139,101Z " data-fips="TH08" data-fips-="" data-iso3="THA" data-name="Tak"/><path d="M181,174L176,171L175,168L170,166L164,170L163,170L160,167L153,164L152,164L152,164L151,169L150,171L148,181L148,181L148,182L149,186L150,187L156,188L157,188L158,187L161,187L161,188L168,190L168,188L170,189L171,189L171,189L173,185L172,183L172,178L181,179L181,175L181,175L181,174Z " data-fips="TH15" data-fips-="" data-iso3="THA" data-name="Uthai Thani"/><path d="M193,196L191,196L190,195L188,194L186,194L186,195L186,200L186,201L187,204L187,204L188,204L194,205L195,204L195,198L195,198L195,197L194,197L194,196L193,196Z " data-fips="TH35" data-fips-="" data-iso3="THA" data-name="Ang Thong"/><path d="M187,179L184,176L183,175L182,175L181,175L181,175L181,179L172,178L172,183L173,185L171,189L171,189L173,189L178,191L180,190L184,190L186,189L187,189L189,188L187,187L188,183L189,182L187,179Z " data-fips="TH32" data-fips-="" data-iso3="THA" data-name="Chai Nat"/><path d="M218,177L217,175L214,175L211,173L204,172L202,172L202,173L201,174L196,180L193,185L193,186L193,186L193,190L194,193L194,196L194,196L194,197L195,197L195,198L196,198L196,198L197,198L197,198L198,199L198,197L202,195L204,192L206,194L209,195L210,193L213,192L216,195L216,195L216,195L224,190L222,187L218,184L219,178L219,178L218,177Z " data-fips="TH34" data-fips-="" data-iso3="THA" data-name="Lop Buri"/><path d="M220,204L220,203L219,203L218,204L218,204L218,204L216,207L212,206L211,209L209,211L208,212L208,219L208,221L208,220L209,220L212,220L215,220L215,219L217,217L220,217L220,214L222,212L223,210L226,210L226,209L223,206L223,205L220,204Z " data-fips="TH43" data-fips-="" data-iso3="THA" data-name="Nakhon Nayok"/><path d="M242,212L240,211L240,207L234,208L233,209L228,205L224,205L223,205L223,206L226,209L226,210L223,210L222,212L220,214L220,217L217,217L215,219L215,220L215,221L221,223L227,226L232,226L232,225L237,227L238,227L238,227L237,224L237,221L239,217L241,217L242,214L243,213L242,212Z " data-fips="TH74" data-fips-="TH43" data-iso3="THA" data-name="Prachin Buri"/><path d="M202,158L192,158L189,158L187,159L184,156L180,151L179,146L179,145L177,147L176,154L170,162L167,160L151,160L151,161L151,161L151,162L152,163L152,164L153,164L160,167L163,170L164,170L170,166L175,168L176,171L181,174L181,175L182,175L183,175L184,176L187,179L189,182L189,183L190,184L190,185L191,185L193,186L193,185L196,180L201,174L202,173L202,172L202,171L203,160L202,159L202,158L202,158Z " data-fips="TH16" data-fips-="" data-iso3="THA" data-name="Nakhon Sawan"/><path d="M197,198L197,198L196,198L196,198L195,198L195,198L195,204L194,205L188,204L187,204L187,205L188,207L188,207L187,213L186,214L187,214L188,214L188,215L188,216L188,216L189,215L190,215L190,215L190,216L194,216L197,216L198,215L200,214L205,212L205,211L203,206L203,201L197,200L198,199L197,198Z " data-fips="TH36" data-fips-="" data-iso3="THA" data-name="Phra Nakhon Si Ayutthaya"/><path d="M207,211L206,211L206,211L206,211L205,212L200,214L198,215L197,216L194,216L190,216L190,216L191,219L194,221L195,221L197,221L198,221L201,222L205,221L207,221L207,221L208,221L208,219L208,212L207,211Z " data-fips="TH39" data-fips-="" data-iso3="THA" data-name="Pathum Thani"/><path d="M191,185L190,185L190,184L189,183L189,182L188,183L187,187L189,188L187,189L186,189L186,190L186,191L186,193L186,194L186,194L188,194L190,195L191,196L193,196L194,196L194,196L194,193L193,190L193,186L193,186L191,185Z " data-fips="TH33" data-fips-="" data-iso3="THA" data-name="Sing Buri"/><path d="M216,195L213,192L210,193L209,195L206,194L204,192L202,195L198,197L198,199L197,200L203,201L203,206L205,211L205,212L206,211L206,211L206,211L207,211L208,212L209,211L211,209L212,206L216,207L218,204L218,204L217,203L217,202L216,202L217,201L216,195L216,195Z " data-fips="TH37" data-fips-="" data-iso3="THA" data-name="Saraburi"/><path d="M206,229L207,226L207,224L207,221L207,221L205,221L201,222L198,221L197,221L196,224L195,225L195,226L193,226L190,226L190,227L190,227L190,227L190,228L190,230L191,231L192,235L192,236L193,236L194,235L195,230L198,230L201,229L206,229L206,229L206,229Z " data-fips="TH40" data-fips-="" data-iso3="THA" data-name="Bangkok Metropolis"/><path d="M190,215L190,215L189,215L188,216L188,216L188,217L188,222L189,225L190,226L193,226L195,226L195,225L196,224L197,221L195,221L194,221L191,219L190,216L190,216L190,215Z " data-fips="TH38" data-fips-="" data-iso3="THA" data-name="Nonthaburi"/><path d="M188,215L188,214L187,214L186,214L185,215L184,215L180,215L175,218L174,218L174,218L174,219L175,220L176,221L176,221L176,221L179,229L180,228L182,229L182,230L183,230L188,230L188,229L190,228L190,228L190,227L190,227L190,227L190,226L189,225L188,222L188,217L188,216L188,215Z " data-fips="TH53" data-fips-="" data-iso3="THA" data-name="Nakhon Pathom"/><path d="M175,241L173,241L170,243L167,245L162,245L160,244L157,247L155,245L154,245L152,246L152,250L154,252L154,256L156,260L162,265L162,265L167,265L175,263L179,263L179,262L180,258L182,252L183,250L182,246L179,243L179,242L176,244L176,243L176,242L175,241Z " data-fips="TH56" data-fips-="" data-iso3="THA" data-name="Phetchaburi"/><path d="M162,266L161,268L162,271L164,279L165,279L165,281L167,284L166,286L169,289L168,292L166,294L163,296L163,298L154,313L154,314L158,316L159,316L165,315L165,314L165,311L168,308L167,304L170,296L173,292L175,290L176,284L180,279L181,277L180,274L180,271L179,263L179,263L175,263L167,265L162,265L162,266Z " data-fips="TH57" data-fips-="" data-iso3="THA" data-name="Prachuap Khiri Khan"/><path d="M182,229L180,228L179,229L176,221L176,221L176,222L174,225L170,225L165,227L157,227L153,229L154,229L154,233L155,238L155,245L155,245L157,247L160,244L162,245L167,245L170,243L173,241L175,241L176,239L177,238L176,237L181,235L181,235L181,234L181,232L182,232L182,231L182,230L182,229Z " data-fips="TH52" data-fips-="" data-iso3="THA" data-name="Ratchaburi"/><path d="M206,229L201,229L198,230L195,230L194,235L197,235L198,234L198,232L205,236L206,236L208,232L208,230L206,229L206,229Z " data-fips="TH42" data-fips-="" data-iso3="THA" data-name="Samut Prakan"/><path d="M190,228L190,228L188,229L188,230L183,230L182,230L182,231L182,232L181,232L181,234L181,235L182,237L182,237L183,238L183,237L187,236L188,235L192,236L192,236L192,235L191,231L190,230L190,228Z " data-fips="TH55" data-fips-="" data-iso3="THA" data-name="Samut Sakhon"/><path d="M181,235L176,237L177,238L176,239L175,241L176,242L176,243L176,244L179,242L179,242L181,239L182,238L183,238L182,237L182,237L181,235L181,235Z " data-fips="TH54" data-fips-="" data-iso3="THA" data-name="Samut Songkhram"/><path d="M305,167L305,167L303,170L301,172L301,172L301,172L301,181L302,184L299,190L304,196L304,206L305,205L312,205L316,205L321,203L326,202L330,203L330,203L328,196L330,195L327,190L327,189L323,186L323,181L324,178L321,177L318,177L315,176L314,176L314,176L311,174L309,173L306,168L305,167Z " data-fips="TH30" data-fips-="" data-iso3="THA" data-name="Si Sa Ket"/><path d="M334,149L332,152L330,167L329,169L326,168L325,166L321,164L320,167L317,166L317,166L314,168L313,170L315,175L314,176L315,176L318,177L321,177L324,178L323,181L323,186L327,189L327,190L330,195L328,196L330,203L332,204L335,209L338,205L345,202L347,200L348,196L348,190L349,186L351,184L346,180L348,176L349,175L347,172L350,169L350,160L344,158L342,153L344,152L338,151L334,149Z " data-fips="TH75" data-fips-="TH71" data-iso3="THA" data-name="Ubon Ratchathani"/><path d="M334,149L332,145L331,143L331,143L330,144L328,145L326,146L325,147L325,147L320,149L317,152L315,156L314,162L316,166L317,166L320,167L321,164L325,166L326,168L329,169L330,167L332,152L334,149L334,149Z " data-fips="TH77" data-fips-="TH71" data-iso3="THA" data-name="Amnat Charoen"/><path d="M325,146L320,146L316,142L312,142L311,143L311,145L304,151L301,157L304,159L308,166L306,167L305,167L306,168L309,173L311,174L314,176L314,176L315,175L313,170L314,168L317,166L317,166L316,166L314,162L315,156L317,152L320,149L325,147L325,147L325,146Z " data-fips="TH72" data-fips-="" data-iso3="THA" data-name="Yasothon"/><path d="M233,244L231,241L228,239L222,236L220,234L215,232L210,236L210,236L210,239L208,242L209,243L207,253L208,256L206,260L209,263L210,262L210,262L214,253L213,251L216,250L217,248L222,249L223,250L228,248L231,246L232,246L232,246L233,245L233,244Z " data-fips="TH46" data-fips-="" data-iso3="THA" data-name="Chon Buri"/><path d="M212,220L209,220L208,220L208,221L207,221L207,224L207,226L206,229L206,229L208,230L208,232L206,236L206,236L209,236L211,235L210,236L215,232L220,234L222,236L228,239L231,241L233,244L233,245L234,245L235,245L240,241L241,240L241,238L240,235L241,235L238,229L238,227L237,227L232,225L232,226L227,226L221,223L215,221L215,220L212,220Z " data-fips="TH44" data-fips-="" data-iso3="THA" data-name="Chachoengsao"/><path d="M241,240L240,241L235,245L234,245L233,245L232,246L232,246L232,247L236,254L237,256L235,260L236,260L241,263L241,265L246,265L244,266L249,272L250,270L251,271L253,270L253,270L252,264L254,261L257,258L257,258L257,250L253,246L252,241L249,244L244,244L243,243L242,241L241,240Z " data-fips="TH48" data-fips-="" data-iso3="THA" data-name="Chanthaburi"/><path d="M243,213L242,214L241,217L239,217L237,221L237,224L238,227L238,227L238,229L241,235L240,235L241,238L241,240L242,241L243,243L244,244L249,244L252,241L252,241L252,237L251,233L253,232L255,232L263,226L264,221L269,213L269,213L263,214L262,214L260,214L259,213L259,214L258,215L257,214L253,213L243,213L243,213Z " data-fips="TH80" data-fips-="TH45" data-iso3="THA" data-name="Sa Kaeo"/><path d="M231,246L228,248L223,250L222,249L217,248L216,250L213,251L214,253L210,262L211,262L214,261L225,262L235,260L235,260L237,256L236,254L232,247L232,246L231,246Z " data-fips="TH47" data-fips-="" data-iso3="THA" data-name="Rayong"/><path d="M260,290L259,294L261,295L260,290Z M251,277L254,283L256,282L251,277Z M257,258L254,261L252,264L253,270L253,271L253,275L260,279L260,276L262,277L266,280L268,286L267,281L264,276L265,269L260,262L257,258L257,258Z " data-fips="TH49" data-fips-="" data-iso3="THA" data-name="Trat"/><path d="M269,161L268,161L267,164L266,166L264,166L264,166L264,167L271,171L270,173L271,180L267,181L262,188L258,188L257,193L254,192L256,198L256,200L258,204L259,212L259,213L260,214L262,214L263,214L269,213L269,213L269,212L274,208L278,207L279,207L279,199L280,193L285,188L285,185L285,180L286,176L284,175L279,176L274,172L274,171L273,170L270,165L270,162L270,162L269,161Z " data-fips="TH28" data-fips-="" data-iso3="THA" data-name="Buri Ram"/><path d="M232,134L227,133L224,136L225,138L223,139L221,144L219,155L221,157L220,161L220,164L222,165L220,177L219,178L221,178L228,178L229,177L237,174L239,172L239,170L241,166L244,166L247,163L250,161L250,161L250,161L252,155L248,152L252,148L253,142L240,138L232,134L232,134L232,134Z " data-fips="TH26" data-fips-="" data-iso3="THA" data-name="Chaiyaphum"/><path d="M268,128L266,127L265,124L261,121L260,124L260,125L258,128L257,130L250,129L248,127L243,127L242,127L241,127L240,128L237,129L236,130L233,131L233,132L233,132L233,133L232,134L232,134L232,134L240,138L253,142L252,148L248,152L252,155L250,161L250,161L251,162L253,164L259,164L263,165L264,166L264,166L266,166L267,164L268,161L269,161L269,160L266,150L266,145L268,143L268,140L272,138L275,134L275,134L275,133L276,128L274,127L274,126L273,125L268,128Z " data-fips="TH22" data-fips-="" data-iso3="THA" data-name="Khon Kaen"/><path d="M289,121L287,119L285,121L285,122L283,128L282,126L274,124L273,125L274,126L274,127L276,128L275,133L275,134L275,134L276,142L277,143L280,142L286,147L286,147L286,147L292,146L293,144L292,142L295,139L302,140L302,141L307,139L308,139L308,139L307,135L306,134L303,128L302,127L302,127L298,129L292,122L289,121L289,121L289,121Z " data-fips="TH23" data-fips-="" data-iso3="THA" data-name="Kalasin"/><path d="M286,147L280,142L277,143L276,142L275,134L275,134L275,134L272,138L268,140L268,143L266,145L266,150L269,160L269,161L270,162L270,162L270,165L273,170L274,171L278,172L280,173L282,173L284,172L284,170L281,168L280,167L284,163L285,157L285,150L286,147L286,147Z " data-fips="TH24" data-fips-="" data-iso3="THA" data-name="Maha Sarakham"/><path d="M250,161L247,163L244,166L241,166L239,170L239,172L237,174L229,177L228,178L221,178L219,178L219,178L218,184L222,187L224,190L216,195L216,195L217,201L216,202L217,202L217,203L218,204L218,204L219,203L220,203L220,204L223,205L224,205L228,205L233,209L234,208L240,207L240,211L242,212L243,213L243,213L253,213L257,214L258,215L259,214L259,213L259,212L258,204L256,200L256,198L254,192L257,193L258,188L262,188L267,181L271,180L270,173L271,171L264,167L264,166L263,165L259,164L253,164L251,162L250,161L250,161Z " data-fips="TH32" data-fips-="TH27" data-iso3="THA" data-name="Nakhon Ratchasima"/><path d="M311,143L310,140L309,138L308,139L308,139L307,139L302,141L302,140L295,139L292,142L293,144L292,146L286,147L286,147L285,150L285,157L284,163L280,167L281,168L284,170L284,172L284,172L289,171L295,172L301,172L301,172L301,172L303,170L305,167L305,167L306,167L308,166L304,159L301,157L304,151L311,145L311,143L311,143Z " data-fips="TH25" data-fips-="" data-iso3="THA" data-name="Roi Et"/><path d="M274,171L274,172L279,176L284,175L286,176L285,180L285,185L285,188L280,193L279,199L279,207L280,206L285,206L288,204L291,203L294,205L299,206L304,206L304,206L304,196L299,190L302,184L301,181L301,172L301,172L301,172L295,172L289,171L284,172L284,172L282,173L280,173L278,172L274,171Z " data-fips="TH29" data-fips-="" data-iso3="THA" data-name="Surin"/><path d="M240,89L241,87L242,86L242,86L242,85L241,85L236,91L233,90L230,95L228,95L223,101L222,100L216,106L215,107L208,107L207,106L205,109L206,113L211,116L212,117L210,124L211,126L211,127L212,127L213,124L216,121L219,122L225,122L227,124L229,123L232,131L233,131L236,130L237,129L240,128L241,127L242,127L241,127L241,125L244,123L238,117L239,111L239,111L243,107L243,105L242,105L241,102L240,100L240,90L240,89Z " data-fips="TH18" data-fips-="" data-iso3="THA" data-name="Loei"/><path d="M242,85L242,86L242,86L241,87L240,89L241,89L243,92L245,91L251,95L252,98L257,103L261,104L265,100L264,97L267,95L269,97L270,95L274,97L280,95L281,95L281,94L281,91L284,88L288,91L291,93L292,93L296,94L299,97L299,96L299,96L303,93L303,90L305,89L305,89L302,86L301,83L297,79L293,80L292,79L280,77L276,78L277,82L274,83L271,87L270,90L266,91L257,96L257,93L249,90L243,85L242,85Z " data-fips="TH17" data-fips-="" data-iso3="THA" data-name="Nong Khai"/><path d="M299,97L296,94L292,93L291,93L288,91L284,88L281,91L281,94L281,95L281,95L280,98L281,100L278,107L277,109L281,115L283,115L289,121L289,121L289,121L292,122L298,129L302,127L302,127L303,127L304,126L304,125L306,125L307,125L308,124L313,113L310,108L301,109L301,109L301,98L300,97L299,96L299,97Z " data-fips="TH20" data-fips-="" data-iso3="THA" data-name="Sakon Nakhon"/><path d="M280,95L274,97L270,95L269,97L267,95L264,97L265,100L261,104L257,103L252,98L251,95L245,91L243,92L241,89L240,89L240,90L240,100L241,102L242,105L243,105L243,104L246,103L250,103L252,113L254,114L255,117L257,116L255,118L256,121L260,125L260,124L261,121L265,124L266,127L268,128L273,125L274,124L282,126L283,128L285,122L285,121L287,119L289,121L289,121L289,121L283,115L281,115L277,109L278,107L281,100L280,98L281,95L281,95L280,95Z " data-fips="TH76" data-fips-="TH19" data-iso3="THA" data-name="Udon Thani"/><path d="M256,121L255,118L257,116L255,117L254,114L252,113L250,103L246,103L243,104L243,105L243,107L239,111L239,111L238,117L244,123L241,125L241,127L242,127L243,127L248,127L250,129L257,130L258,128L260,125L256,121Z " data-fips="TH79" data-fips-="TH19" data-iso3="THA" data-name="Nong Bua Lam Phu"/><path d="M305,89L303,90L303,93L299,96L299,96L300,97L301,98L301,109L301,109L310,108L313,113L308,124L307,125L308,126L315,126L316,127L318,126L323,128L323,127L323,127L322,120L324,113L321,105L314,101L310,95L308,94L305,90L305,89Z " data-fips="TH73" data-fips-="TH21" data-iso3="THA" data-name="Nakhon Phanom"/><path d="M306,125L304,125L304,126L303,127L302,127L303,128L306,134L307,135L308,139L308,139L308,139L309,138L310,140L311,143L311,143L312,142L316,142L320,146L325,146L325,147L326,146L328,145L330,144L331,143L330,143L326,138L324,136L323,135L324,130L323,127L323,127L323,128L318,126L316,127L315,126L308,126L307,125L306,125Z " data-fips="TH78" data-fips-="TH21" data-iso3="THA" data-name="Mukdahan"/><path d="M232,454L233,455L230,458L227,459L225,466L229,471L229,475L230,475L233,477L234,479L239,480L242,476L243,472L247,468L247,464L242,459L238,456L236,454L235,454L232,454L232,454Z " data-fips="TH31" data-fips-="" data-iso3="THA" data-name="Narathiwat"/><path d="M234,451L231,445L224,444L219,445L215,445L214,449L215,450L215,452L216,452L217,452L222,452L223,454L230,453L231,455L232,454L232,454L235,454L236,454L234,451Z " data-fips="TH69" data-fips-="" data-iso3="THA" data-name="Pattani"/></g></svg>