<?xml version="1.0" encoding="UTF-8"?><!DOCTYPE svg  PUBLIC '-//W3C//DTD SVG 1.1//EN'  'http://www.w3.org/Graphics/SVG/1.1/DTD/svg11.dtd'><svg enable_background="new 0 0 450 301" height="301px" style="stroke-linejoin: round; stroke:#000; fill:#f6f3f0;" version="1.1" viewBox="0 0 450 301" width="450px" xmlns="http://www.w3.org/2000/svg" xmlns:xlink="http://www.w3.org/1999/xlink"><defs><style type="text/css"><![CDATA[path { fill-rule: evenodd; }
#context path { fill: #eee; stroke: #bbb; } ]]></style></defs><metadata><views><view h="301.0" padding="0.06" w="450"><proj id="laea" lat0="38.0733998687" lon0="73.0543776577"/><bbox h="63.11" w="84.24" x="940.95" y="958.52"/><llbbox lat0="-90" lat1="90" lon0="-180" lon1="180"/></view></views></metadata><g id="context"><path d="M375,257L374,257L367,251L367,250L375,245L380,243L388,245L391,245L390,244L380,236L373,236L365,234L361,235L357,240L353,241L338,246L333,245L337,237L336,235L325,232L320,232L312,235L298,244L291,249L287,258L273,260L263,265L253,273L246,277L237,274L234,268L230,251L233,223L236,212L236,204L223,205L224,200L226,190L223,182L213,175L206,173L199,175L193,180L189,188L184,195L173,205L176,213L175,218L172,223L169,225L161,222L155,221L146,222L140,224L137,228L135,233L137,239L136,244L129,249L125,246L119,240L115,236L113,235L109,237L108,239L101,239L100,241L95,243L88,246L79,252L72,256L67,254L62,249L59,244L59,242L58,241L56,239L48,236L44,236L38,239L33,237L27,231L16,228L2,228L0,228L0,299L231,299L238,292L245,292L247,289L260,280L263,277L267,275L271,274L285,269L302,268L308,267L322,266L339,266L351,269L359,265L369,260L375,257Z " data-iso="AFG"/><path d="M331,116L331,119L330,129L336,140L339,146L336,147L335,153L337,160L339,165L342,168L347,169L350,169L351,165L354,162L361,162L372,165L383,170L386,173L387,176L384,184L385,194L388,198L390,204L390,210L392,213L390,223L400,232L401,236L392,244L391,245L388,245L380,243L375,245L367,250L367,251L374,257L375,257L377,257L382,257L391,261L399,259L403,260L412,263L414,265L416,273L418,274L423,272L428,273L438,281L440,285L443,293L443,299L450,299L450,60L448,56L443,60L439,59L437,60L431,64L422,64L421,63L419,52L417,47L415,46L402,55L397,56L392,57L386,54L383,58L385,63L378,65L366,75L358,78L347,81L345,85L340,95L342,100L344,107L340,114L335,115L331,116Z " data-iso="CHN"/><path d="M25,0L26,5L31,8L71,8L74,9L80,8L85,16L87,18L84,31L94,40L103,43L106,43L106,31L115,18L120,14L126,9L129,6L130,0L25,0Z " data-iso="KAZ"/><path d="M212,69L212,70L211,72L202,75L197,78L196,83L191,85L189,79L167,70L158,72L148,75L146,77L143,86L137,82L136,85L133,94L135,100L136,108L143,108L150,106L157,107L174,108L175,106L179,109L185,107L195,108L200,117L203,118L213,117L215,113L225,110L227,108L234,106L235,108L235,114L237,115L243,116L245,117L245,124L249,126L257,122L259,122L268,130L274,123L286,120L297,121L308,121L313,120L324,115L329,116L331,116L335,115L340,114L344,107L342,100L340,95L345,85L347,81L358,78L366,75L378,65L385,63L383,58L386,54L392,57L397,56L402,55L415,46L417,47L419,52L421,63L422,64L431,64L437,60L439,59L443,60L448,56L450,60L450,0L248,0L253,7L253,14L261,16L264,14L266,15L267,24L275,23L281,26L286,32L288,33L302,34L309,35L308,38L293,46L289,51L284,53L276,50L275,53L276,57L274,60L270,59L267,57L264,58L254,69L251,70L244,75L237,71L234,69L227,66L218,67L213,68L212,69Z M222,89L214,89L215,84L212,78L214,74L217,78L223,80L221,84L222,89Z M248,86L247,89L243,87L244,85L249,84L248,86Z M200,93L195,95L193,95L190,90L198,91L200,93Z M203,0L205,9L209,11L220,16L225,16L228,16L233,17L233,5L239,7L242,0L203,0Z " data-iso="KGZ"/><path d="M375,257L369,260L359,265L351,269L339,266L322,266L308,267L302,268L285,269L271,274L267,275L263,277L260,280L247,289L245,292L238,292L231,299L443,299L443,293L440,285L438,281L428,273L423,272L418,274L416,273L414,265L412,263L403,260L399,259L391,261L382,257L377,257L375,257Z " data-iso="PAK"/><path d="M200,93L198,91L190,90L193,95L195,95L200,93Z M199,28L198,24L196,22L198,28L199,28Z M59,242L59,244L62,249L67,254L72,256L79,252L88,246L95,243L100,241L101,239L108,239L109,237L113,235L115,236L119,240L125,246L129,249L136,244L137,239L135,233L137,228L140,224L146,222L155,221L161,222L169,225L172,223L175,218L176,213L173,205L184,195L189,188L193,180L199,175L206,173L213,175L223,182L226,190L224,200L223,205L236,204L236,212L233,223L230,251L234,268L237,274L246,277L253,273L263,265L273,260L287,258L291,249L298,244L312,235L320,232L325,232L336,235L337,237L333,245L338,246L353,241L357,240L361,235L365,234L373,236L380,236L390,244L391,245L392,244L401,236L400,232L390,223L392,213L390,210L390,204L388,198L385,194L384,184L387,176L386,173L383,170L372,165L361,162L354,162L351,165L350,169L347,169L342,168L339,165L337,160L335,153L336,147L339,146L336,140L330,129L331,119L331,116L329,116L324,115L313,120L308,121L297,121L286,120L274,123L268,130L259,122L257,122L249,126L245,124L245,117L243,116L237,115L235,114L235,108L234,106L227,108L225,110L215,113L213,117L203,118L200,117L195,108L185,107L179,109L175,106L174,108L157,107L150,106L143,108L136,108L135,100L133,94L136,85L137,82L143,86L146,77L148,75L158,72L167,70L189,79L191,85L196,83L197,78L202,75L211,72L212,70L212,69L209,69L198,71L196,70L193,63L186,60L186,56L201,44L203,39L198,37L199,33L190,22L187,22L183,30L157,43L148,36L144,34L139,38L139,43L134,47L138,61L138,63L134,63L136,69L134,69L122,67L109,68L108,72L121,72L122,73L120,76L115,77L116,82L117,84L116,86L114,85L109,88L107,89L104,100L95,106L81,103L65,99L57,102L51,107L47,120L49,123L59,126L61,129L61,135L70,137L78,137L82,143L77,156L78,167L80,172L89,181L89,188L83,197L80,199L76,204L72,211L65,219L62,224L61,238L59,242Z " data-iso="TJK"/><path d="M2,228L2,222L2,214L4,203L9,195L7,190L0,187L0,228L2,228Z " data-iso="TKM"/><path d="M248,86L249,84L244,85L243,87L247,89L248,86Z M222,89L221,84L223,80L217,78L214,74L212,78L215,84L214,89L222,89Z M0,0L0,187L7,190L9,195L4,203L2,214L2,222L2,228L16,228L27,231L33,237L38,239L44,236L48,236L56,239L58,241L59,242L61,238L62,224L65,219L72,211L76,204L80,199L83,197L89,188L89,181L80,172L78,167L77,156L82,143L78,137L70,137L61,135L61,129L59,126L49,123L47,120L51,107L57,102L65,99L81,103L95,106L104,100L107,89L109,88L114,85L116,86L117,84L116,82L115,77L120,76L122,73L121,72L108,72L109,68L122,67L134,69L136,69L134,63L138,63L138,61L134,47L139,43L139,38L144,34L148,36L157,43L183,30L187,22L190,22L199,33L198,37L203,39L201,44L186,56L186,60L193,63L196,70L198,71L209,69L212,69L213,68L218,67L227,66L234,69L237,71L244,75L251,70L254,69L264,58L267,57L270,59L274,60L276,57L275,53L276,50L284,53L289,51L293,46L308,38L309,35L302,34L288,33L286,32L281,26L275,23L267,24L266,15L264,14L261,16L253,14L253,7L248,0L242,0L239,7L233,5L233,17L228,16L225,16L220,16L209,11L205,9L203,0L130,0L129,6L126,9L120,14L115,18L106,31L106,43L103,43L94,40L84,31L87,18L85,16L80,8L74,9L71,8L31,8L26,5L25,0L0,0Z M196,22L198,24L199,28L198,28L196,22Z " data-iso="UZB"/></g><g fill="red" fill-opacity="0.35" id="regions"><path d="M268,131L266,136L263,138L263,141L258,145L258,150L260,153L254,158L252,158L242,163L236,167L235,170L231,171L230,172L228,170L224,171L221,168L221,165L215,165L213,163L214,159L212,155L212,153L201,155L201,153L196,154L193,156L192,159L188,167L186,169L185,170L182,173L181,177L182,179L181,182L178,199L179,199L184,193L186,193L190,184L192,183L196,176L199,175L200,174L205,173L208,174L210,172L218,178L221,181L226,184L227,185L227,189L222,204L226,206L228,205L234,203L237,204L238,206L235,215L235,216L233,226L234,230L233,234L232,243L230,248L230,251L231,262L234,268L235,271L236,274L242,278L248,276L262,266L268,261L278,259L280,259L287,258L292,248L293,246L302,241L306,241L315,233L318,232L325,231L334,234L336,234L335,241L331,243L331,245L334,245L339,246L347,242L352,241L357,240L360,235L363,235L366,235L366,236L374,237L378,236L380,236L386,239L389,244L392,244L395,242L399,240L400,236L402,234L390,223L390,220L393,214L393,212L390,206L389,199L386,197L385,195L384,189L387,177L387,173L384,170L381,170L378,167L370,165L358,162L355,161L350,165L351,170L345,169L339,165L334,149L335,148L340,145L340,144L338,140L335,138L330,130L330,127L332,123L331,116L330,115L319,116L317,119L309,122L305,121L303,122L283,121L280,121L279,122L276,122L271,124L270,127L268,131L268,131Z " data-fips="TI01" data-fips-="" data-iso3="TJK" data-name="Gorno-Badakhshan"/><path d="M83,199L78,200L76,206L63,222L62,225L62,237L60,241L60,247L64,249L69,255L72,257L75,254L79,252L83,252L83,248L84,247L98,242L101,238L106,239L108,240L108,236L110,236L113,239L112,235L116,236L118,241L121,243L123,246L128,250L131,249L133,247L137,242L134,234L135,230L139,226L142,222L153,222L155,223L160,221L164,225L170,226L171,226L174,221L175,221L177,215L176,209L172,207L172,202L174,203L176,202L178,199L178,199L181,182L182,179L181,177L182,173L185,170L186,169L185,168L183,164L177,164L173,167L173,162L170,160L162,157L159,160L157,163L155,164L154,162L148,168L137,178L134,178L135,175L130,175L128,172L126,173L119,173L113,177L111,177L110,176L106,178L102,177L100,179L100,185L97,190L98,191L93,201L85,200L83,198L83,199Z " data-fips="TI03" data-fips-="TI02" data-iso3="TJK" data-name="Khatlon"/><path d="M197,112L193,115L190,116L189,117L184,119L180,118L179,119L172,122L171,120L168,122L158,124L156,122L152,124L153,126L151,133L146,134L146,132L144,128L138,129L136,133L132,133L124,137L118,135L112,134L110,133L106,135L103,135L95,141L93,141L82,142L83,143L83,146L80,148L78,149L76,155L77,164L79,170L89,183L89,189L87,192L84,198L83,198L85,200L93,201L98,191L97,190L100,185L100,179L102,177L106,178L110,176L111,177L113,177L119,173L126,173L128,172L130,175L135,175L134,178L137,178L148,168L154,162L155,164L157,163L159,160L162,157L170,160L173,162L173,167L177,164L183,164L185,168L186,169L188,167L192,159L193,156L196,154L201,153L201,155L212,153L212,155L214,159L213,163L215,165L221,165L221,168L224,171L228,170L230,172L231,171L235,170L236,167L242,163L252,158L254,158L260,153L258,150L258,145L263,141L263,138L266,136L268,131L267,130L261,125L260,121L249,126L245,124L245,122L246,120L246,116L236,115L235,112L236,108L233,106L226,109L224,111L217,111L215,112L213,117L211,118L207,117L207,118L201,118L199,118L197,112L197,112Z " data-fips="TI02" data-fips-="" data-iso3="TJK" data-name="Tadzhikistan Territories"/><path d="M196,91L191,89L194,96L200,93L199,91L196,91Z M199,27L197,23L195,23L199,27Z M82,142L93,141L95,141L103,135L106,135L110,133L112,134L118,135L124,137L132,133L136,133L138,129L144,128L146,132L146,134L151,133L153,126L152,124L156,122L158,124L168,122L171,120L172,122L179,119L180,118L184,119L189,117L190,116L193,115L197,112L196,109L194,107L192,107L190,106L182,107L178,110L177,109L177,107L176,105L173,108L168,107L167,109L165,108L160,108L153,106L149,106L146,107L141,108L139,107L136,109L135,107L136,99L133,96L136,84L138,81L142,87L146,85L145,81L147,74L150,75L167,69L169,69L175,74L185,78L191,80L192,83L188,86L189,88L191,85L193,85L196,84L197,77L202,75L209,73L213,70L212,69L207,69L200,71L197,71L195,69L192,62L188,62L185,57L187,54L190,53L201,43L204,39L198,37L201,35L190,22L186,22L185,28L183,31L179,33L175,34L170,37L162,40L156,44L155,44L144,34L141,35L139,42L139,45L138,46L134,47L138,63L135,63L134,65L137,68L135,70L125,66L118,67L114,68L112,68L105,69L110,73L121,71L123,73L123,76L119,75L115,77L114,77L118,85L116,87L114,81L113,81L114,86L111,90L109,87L106,89L105,99L101,105L95,106L89,105L82,104L67,99L63,99L59,102L54,103L55,106L51,107L49,115L47,118L47,121L48,123L54,125L57,125L61,128L61,134L62,136L67,137L74,136L76,137L80,138L82,141L82,142Z " data-fips="TI04" data-fips-="TI03" data-iso3="TJK" data-name="Leninabad"/></g></svg>