<?xml version="1.0" encoding="UTF-8"?><!DOCTYPE svg  PUBLIC '-//W3C//DTD SVG 1.1//EN'  'http://www.w3.org/Graphics/SVG/1.1/DTD/svg11.dtd'><svg enable_background="new 0 0 450 301" height="301px" style="stroke-linejoin: round; stroke:#000; fill:#f6f3f0;" version="1.1" viewBox="0 0 450 301" width="450px" xmlns="http://www.w3.org/2000/svg" xmlns:xlink="http://www.w3.org/1999/xlink"><defs><style type="text/css"><![CDATA[path { fill-rule: evenodd; }
#context path { fill: #eee; stroke: #bbb; } ]]></style></defs><metadata><views><view h="301.0" padding="0.06" w="450"><proj id="laea" lat0="39.8348944159" lon0="55.2499703036"/><bbox h="108.61" w="152.78" x="965.93" y="954.76"/><llbbox lat0="-90" lat1="90" lon0="-180" lon1="180"/></view></views></metadata><g id="context"><path d="M446,192L445,191L444,190L434,192L430,192L427,189L420,188L412,190L411,190L401,189L391,185L388,189L386,196L374,198L367,203L361,230L358,235L351,239L347,243L345,243L330,250L325,260L324,264L315,272L309,272L303,275L298,269L295,267L288,268L283,267L277,262L275,262L275,264L273,273L271,274L272,280L271,286L271,288L268,294L268,296L264,299L450,299L450,196L448,195L446,193L446,192Z " data-iso="AFG"/><path d="M275,262L274,261L274,254L271,250L272,246L270,230L268,228L247,229L239,219L236,216L225,212L220,207L219,203L216,201L208,197L204,196L197,196L194,198L190,197L185,193L174,189L165,187L164,183L162,180L153,179L149,178L140,178L137,180L137,183L117,183L112,185L99,194L98,196L95,204L80,209L72,209L73,214L75,226L74,227L66,225L72,223L68,223L58,225L25,232L13,232L0,228L0,299L264,299L268,296L268,294L271,288L271,286L272,280L271,274L273,273L275,264L275,262Z " data-iso="IRN"/><path d="M450,0L367,0L370,5L377,1L378,14L378,24L379,34L392,33L394,42L400,60L403,61L431,55L437,60L436,68L443,72L446,73L450,72L449,67L450,62L450,0Z M39,57L44,52L53,45L58,43L69,41L80,39L82,41L94,48L99,52L101,57L109,69L115,76L116,76L126,74L127,74L127,66L127,51L127,27L126,0L11,0L11,9L18,10L25,20L27,21L32,20L41,23L42,24L43,31L38,46L38,54L39,57Z " data-iso="KAZ"/><path d="M446,192L446,193L448,195L450,196L450,172L446,181L446,189L446,192Z M450,110L433,109L429,112L427,115L426,123L427,125L433,125L435,130L445,129L448,132L446,140L450,149L450,110Z " data-iso="TJK"/><path d="M52,159L51,151L50,150L50,156L52,159Z M127,74L126,74L116,76L115,76L109,69L101,57L99,52L94,48L82,41L80,39L69,41L58,43L53,45L44,52L39,57L41,66L47,77L47,73L47,60L51,51L59,48L68,46L73,48L76,55L79,67L81,70L92,78L94,81L95,87L95,89L90,91L86,89L85,93L86,95L81,94L73,97L70,96L66,91L62,92L54,90L52,88L49,83L47,95L43,104L44,111L45,116L49,122L50,119L60,120L62,124L62,127L65,134L58,133L56,132L53,138L53,143L58,141L62,142L66,145L68,145L72,157L71,169L71,198L72,207L72,209L80,209L95,204L98,196L99,194L112,185L117,183L137,183L137,180L140,178L149,178L153,179L162,180L164,183L165,187L174,189L185,193L190,197L194,198L197,196L204,196L208,197L216,201L219,203L220,207L225,212L236,216L239,219L247,229L268,228L270,230L272,246L271,250L274,254L274,261L275,262L277,262L283,267L288,268L295,267L298,269L303,275L309,272L315,272L324,264L325,260L330,250L345,243L347,243L351,239L358,235L361,230L367,203L374,198L386,196L388,189L391,185L401,189L411,190L412,190L411,186L410,175L412,170L411,168L402,165L394,162L378,160L369,154L354,146L347,142L343,143L331,136L325,130L301,116L295,110L293,100L290,96L287,94L285,89L279,75L272,71L268,70L264,73L254,73L241,74L232,68L231,67L233,61L231,58L231,51L228,49L228,42L222,38L214,38L210,37L207,32L201,31L192,23L190,26L184,26L181,28L185,32L190,39L185,35L176,36L176,39L170,45L162,45L158,48L156,52L152,55L154,69L156,73L154,76L134,74L127,74Z " data-iso="TKM"/><path d="M127,74L134,74L154,76L156,73L154,69L152,55L156,52L158,48L162,45L170,45L176,39L176,36L185,35L190,39L185,32L181,28L184,26L190,26L192,23L201,31L207,32L210,37L214,38L222,38L228,42L228,49L231,51L231,58L233,61L231,67L232,68L241,74L254,73L264,73L268,70L272,71L279,75L285,89L287,94L290,96L293,100L295,110L301,116L325,130L331,136L343,143L347,142L354,146L369,154L378,160L394,162L402,165L411,168L412,170L410,175L411,186L412,190L420,188L427,189L430,192L434,192L444,190L445,191L446,192L446,189L446,181L450,172L450,149L446,140L448,132L445,129L435,130L433,125L427,125L426,123L427,115L429,112L433,109L450,110L450,72L446,73L443,72L436,68L437,60L431,55L403,61L400,60L394,42L392,33L379,34L378,24L378,14L377,1L370,5L367,0L126,0L127,27L127,51L127,66L127,74Z " data-iso="UZB"/></g><g fill="red" fill-opacity="0.35" id="regions"><path d="M52,161L51,150L50,150L50,156L52,161Z M159,177L154,174L144,170L144,165L146,160L154,133L157,131L154,118L155,117L158,115L158,114L156,112L157,108L153,98L151,95L148,87L141,75L127,74L124,74L118,76L115,76L108,69L105,63L101,57L100,54L96,49L82,40L78,39L57,44L46,50L37,58L41,61L40,66L43,69L47,78L46,72L49,65L48,60L46,61L51,51L56,47L57,48L69,46L72,46L75,49L74,54L75,55L77,61L78,68L82,71L87,74L92,78L96,86L93,90L89,91L86,88L84,93L87,95L87,96L82,95L82,94L79,95L78,96L75,96L69,97L67,92L67,88L65,90L65,92L57,92L58,91L54,92L51,86L49,81L48,89L46,93L47,96L44,102L43,107L44,113L43,116L48,123L51,127L48,122L50,119L54,118L56,120L60,118L65,120L60,126L61,130L67,132L67,135L66,136L65,135L62,136L61,134L55,134L58,130L57,130L52,139L53,141L54,146L55,141L56,140L65,142L64,146L65,144L66,148L67,146L69,147L68,149L72,151L75,156L73,162L71,166L72,174L71,179L70,185L70,195L72,205L72,209L80,210L85,208L89,206L92,206L96,203L97,196L103,191L114,184L122,183L128,185L132,184L137,184L136,181L148,177L149,178L158,178L159,178L159,177Z " data-fips="TX02" data-fips-="" data-iso3="TKM" data-name="Balkan" data-p="B"/><path d="M158,115L155,117L154,118L157,131L154,133L146,160L144,165L144,170L154,174L159,177L159,177L161,177L164,182L165,187L169,189L174,189L176,190L179,190L183,192L187,193L189,197L196,197L198,196L200,197L209,197L212,199L218,200L219,202L220,208L223,211L225,211L232,214L235,216L237,216L244,225L247,229L267,228L270,232L270,236L272,246L270,251L272,251L274,254L274,261L275,262L277,262L279,264L279,264L282,261L282,256L280,252L283,250L283,249L281,248L280,246L279,226L277,223L264,204L267,203L272,210L274,210L275,205L270,206L269,203L263,203L260,195L260,192L262,192L259,180L258,179L251,172L246,157L249,156L249,152L253,149L254,140L260,136L260,131L248,132L247,132L243,133L241,131L241,129L235,130L232,116L232,116L209,116L206,113L192,110L190,112L186,112L180,114L177,115L166,115L161,117L158,116L158,115Z " data-fips="TX01" data-fips-="" data-iso3="TKM" data-name="Ahal" data-p="A"/><path d="M141,75L148,87L151,95L153,98L157,108L156,112L158,114L158,115L158,116L161,117L166,115L177,115L180,114L186,112L190,112L192,110L206,113L209,116L232,116L232,116L235,130L241,129L241,131L243,133L247,132L246,132L244,105L244,104L239,104L238,103L237,81L255,80L255,72L255,73L247,72L242,74L231,67L233,62L230,56L232,54L235,55L231,50L226,49L228,47L228,43L229,42L224,38L220,38L215,39L213,39L206,31L203,31L198,29L192,23L191,27L182,27L180,29L184,31L186,35L183,34L181,34L179,33L176,35L176,39L173,44L168,45L160,46L158,48L152,56L152,63L153,66L154,69L156,71L157,72L148,75L141,75Z " data-fips="TX03" data-fips-="TX" data-iso3="TKM" data-name="Tashauz" data-p="D"/><path d="M255,72L255,80L237,81L238,103L239,104L244,104L244,105L246,132L247,132L248,132L260,131L265,131L308,170L311,172L322,175L336,189L336,191L331,199L332,215L333,216L366,212L366,211L366,204L371,199L373,199L386,196L388,192L388,189L390,186L391,185L393,187L400,188L402,190L404,190L411,190L410,175L413,169L403,166L402,165L396,162L390,161L388,163L384,163L373,157L366,152L357,149L347,142L345,143L342,143L331,136L324,129L300,115L296,111L294,103L292,97L284,88L281,82L281,79L272,71L266,69L263,74L256,72L255,72Z " data-fips="TX04" data-fips-="TX" data-iso3="TKM" data-name="Chardzhou" data-p="L"/><path d="M260,131L260,136L254,140L253,149L249,152L249,156L246,157L251,172L258,179L259,180L262,192L260,192L260,195L263,203L269,203L270,206L275,205L274,210L272,210L267,203L264,204L277,223L279,226L280,246L281,248L283,249L283,250L280,252L282,256L282,261L279,264L279,265L282,267L284,268L295,267L302,271L304,276L308,271L313,273L315,272L321,267L325,258L327,257L327,255L325,253L324,251L333,249L342,245L345,243L347,242L350,243L350,240L352,238L356,237L356,236L361,232L363,224L363,218L366,212L333,216L332,215L331,199L336,191L336,189L322,175L311,172L308,170L265,131L260,131Z " data-fips="TX05" data-fips-="TX|TX04" data-iso3="TKM" data-name="Mary" data-p="M"/></g></svg>