<?xml version="1.0" encoding="UTF-8"?><!DOCTYPE svg  PUBLIC '-//W3C//DTD SVG 1.1//EN'  'http://www.w3.org/Graphics/SVG/1.1/DTD/svg11.dtd'><svg enable_background="new 0 0 450 301" height="301px" style="stroke-linejoin: round; stroke:#000; fill:#f6f3f0;" version="1.1" viewBox="0 0 450 301" width="450px" xmlns="http://www.w3.org/2000/svg" xmlns:xlink="http://www.w3.org/1999/xlink"><defs><style type="text/css"><![CDATA[path { fill-rule: evenodd; }
#context path { fill: #eee; stroke: #bbb; } ]]></style></defs><metadata><views><view h="301.0" padding="0.06" w="450"><proj id="laea" lat0="-8.55898630143" lon0="125.65656264"/><bbox h="21.69" w="44.84" x="977.79" y="992.37"/><llbbox lat0="-90" lat1="90" lon0="-180" lon1="180"/></view></views></metadata><g id="context"><path d="M151,235L147,219L142,212L139,208L138,203L138,198L140,196L155,195L161,187L161,177L158,174L155,172L139,180L135,179L132,176L133,165L129,168L107,180L99,186L91,191L75,196L74,202L71,211L66,215L59,223L55,225L37,224L35,225L31,224L27,219L25,215L18,219L5,229L0,234L0,299L90,299L94,295L107,285L123,266L138,254L142,242L151,235Z M55,89L57,77L55,74L49,74L33,94L32,93L28,88L22,88L16,92L11,104L22,103L28,117L38,114L43,110L48,97L55,89Z M0,84L11,82L7,78L0,75L0,84Z M90,66L82,65L73,71L68,80L72,85L63,96L67,100L74,103L154,92L159,88L158,73L149,70L133,69L112,68L103,69L93,73L90,66Z M321,0L309,8L291,12L276,11L262,6L246,25L242,33L240,46L244,45L259,37L270,34L278,34L286,37L303,38L323,42L329,32L336,24L350,18L365,16L365,13L363,7L354,6L346,0L321,0Z M433,0L431,5L439,2L442,0L433,0Z " data-iso="IDN"/><path d="M45,204L25,215L27,219L31,224L35,225L37,224L55,225L59,223L66,215L71,211L74,202L75,196L45,204Z M133,165L132,176L135,179L139,180L155,172L158,174L161,177L161,187L155,195L140,196L138,198L138,203L139,208L142,212L147,219L151,235L168,222L192,206L232,192L245,188L252,188L258,187L274,177L285,172L297,169L312,167L324,161L334,151L346,145L362,142L377,137L401,121L424,101L419,97L414,95L395,91L383,87L376,91L369,95L355,101L341,105L330,106L286,109L253,108L241,109L189,119L182,121L164,128L157,136L146,154L133,165Z M222,65L219,67L214,70L205,82L213,87L222,65Z " data-iso="TLS"/></g><g fill="red" fill-opacity="0.35" id="regions"><path d="M232,113L226,114L222,114L220,113L216,116L212,115L209,116L202,118L203,120L203,124L205,125L206,126L211,125L218,123L228,118L232,118L236,120L236,120L239,119L242,116L246,112L244,109L232,113Z M214,87L221,70L222,66L220,65L217,67L211,74L205,79L205,83L206,84L214,87Z " data-fips="TT00" data-fips-="CG02" data-iso3="TLS" data-name="Dili"/><path d="M203,124L203,120L202,118L202,119L200,119L192,119L189,119L181,121L176,124L172,123L168,125L160,126L156,133L155,140L157,141L160,142L164,142L164,141L170,140L179,136L190,134L195,130L200,128L203,128L204,127L205,125L203,124Z " data-fips="TT00" data-fips-="CG02" data-iso3="TLS" data-name="Liquica"/><path d="M64,217L70,213L73,208L74,204L76,197L75,194L68,197L56,200L47,202L40,209L36,210L26,214L28,222L31,224L35,225L41,219L46,219L51,224L51,227L52,234L58,233L61,230L61,226L64,217Z " data-fips="TT00" data-fips-="CG02" data-iso3="TLS" data-name="Ambeno"/><path d="M236,120L232,118L228,118L218,123L211,125L206,126L205,125L204,127L203,128L204,129L205,131L203,135L197,138L197,139L199,141L198,144L196,146L197,148L201,150L201,152L202,154L203,154L209,153L213,152L215,149L216,146L221,144L227,143L227,146L229,146L234,144L236,142L238,141L241,141L241,135L239,131L237,128L235,124L236,120L236,120Z " data-fips="TT00" data-fips-="CG02" data-iso3="TLS" data-name="Aileu"/><path d="M227,143L221,144L216,146L215,149L213,152L209,153L203,154L202,154L203,155L202,158L200,160L197,166L197,169L193,170L193,173L193,176L193,176L197,181L198,184L199,188L200,190L205,192L202,202L210,199L215,195L217,195L223,196L225,196L223,190L225,186L224,184L215,179L214,176L214,169L216,163L219,161L223,162L225,160L227,147L227,146L227,143Z " data-fips="TT00" data-fips-="CG02" data-iso3="TLS" data-name="Ainaro"/><path d="M347,102L337,107L332,108L328,104L318,102L315,100L310,101L306,103L302,104L294,109L289,110L284,110L282,110L285,112L286,115L287,125L285,130L282,132L287,134L294,134L299,132L305,132L318,136L320,134L319,130L321,123L323,126L325,131L328,133L333,132L337,132L339,134L340,133L342,130L345,129L351,131L354,132L355,134L357,132L359,129L364,125L363,123L354,114L355,110L352,107L351,104L349,102L347,102Z " data-fips="TT00" data-fips-="CG02" data-iso3="TLS" data-name="Baucau"/><path d="M155,144L154,147L153,148L147,150L139,162L137,165L133,167L132,178L134,181L136,182L149,176L151,175L152,171L153,170L161,177L162,179L162,184L160,190L161,192L161,193L168,196L169,198L174,199L181,198L182,194L178,190L184,190L186,187L187,179L190,177L193,176L193,173L193,170L190,171L182,171L181,168L180,162L172,146L165,144L164,141L164,142L160,142L157,141L155,140L155,144Z " data-fips="TT00" data-fips-="CG02" data-iso3="TLS" data-name="Bobonaro"/><path d="M193,176L190,177L187,179L186,187L184,190L178,190L182,194L181,198L174,199L169,198L168,196L161,193L161,194L156,195L150,198L146,195L143,195L137,198L137,202L139,210L145,214L149,225L154,229L157,227L161,225L167,225L171,221L175,216L178,215L185,209L189,207L202,202L205,192L200,190L199,188L198,184L197,181L193,176L193,176Z " data-fips="TT00" data-fips-="CG02" data-iso3="TLS" data-name="Cova Lima"/><path d="M200,128L195,130L190,134L179,136L170,140L164,141L165,144L172,146L180,162L181,168L182,171L190,171L193,170L197,169L197,166L200,160L202,158L203,155L202,154L201,152L201,150L197,148L196,146L198,144L199,141L197,139L197,138L203,135L205,131L204,129L203,128L200,128Z " data-fips="TT00" data-fips-="CG02" data-iso3="TLS" data-name="Ermera"/><path d="M281,110L270,112L265,110L252,108L247,108L244,109L246,112L242,116L239,119L236,120L235,124L237,128L239,131L241,135L241,141L241,142L240,149L242,154L245,157L253,161L258,168L264,171L269,175L271,179L280,173L282,172L276,165L275,161L274,156L269,146L269,144L273,140L276,133L279,132L281,132L282,132L285,130L287,125L286,115L285,112L282,110L281,110Z " data-fips="TT00" data-fips-="CG02" data-iso3="TLS" data-name="Manatuto"/><path d="M238,141L236,142L234,144L229,146L227,146L227,147L225,160L223,162L219,161L216,163L214,169L214,176L215,179L224,184L225,186L223,190L225,196L226,196L233,191L249,187L256,188L258,187L271,179L269,175L264,171L258,168L253,161L245,157L242,154L240,149L241,142L241,141L238,141Z " data-fips="TT00" data-fips-="CG02" data-iso3="TLS" data-name="Manufahi"/><path d="M354,132L351,131L345,129L342,130L340,133L339,134L337,132L333,132L328,133L325,131L323,126L321,123L319,130L320,134L318,136L305,132L299,132L294,134L287,134L282,132L281,132L279,132L276,133L273,140L269,144L269,146L274,156L275,161L276,165L282,172L285,170L318,166L323,165L327,161L332,153L336,148L342,147L346,144L350,143L354,142L354,138L355,135L355,134L354,132Z " data-fips="TT00" data-fips-="CG02" data-iso3="TLS" data-name="Viqueque"/><path d="M369,141L372,140L380,134L391,131L399,123L410,114L416,109L425,102L426,100L425,97L423,96L417,94L415,93L413,90L411,89L404,93L396,93L384,87L381,88L368,97L363,99L350,101L349,102L351,104L352,107L355,110L354,114L363,123L364,125L359,129L357,132L355,134L355,135L354,138L354,142L369,141Z " data-fips="ID28" data-fips-="CG02" data-iso3="TLS" data-name="Lautem"/></g></svg>