<?xml version="1.0" encoding="UTF-8"?><!DOCTYPE svg  PUBLIC '-//W3C//DTD SVG 1.1//EN'  'http://www.w3.org/Graphics/SVG/1.1/DTD/svg11.dtd'><svg enable_background="new 0 0 450 301" height="301px" style="stroke-linejoin: round; stroke:#000; fill:#f6f3f0;" version="1.1" viewBox="0 0 450 301" width="450px" xmlns="http://www.w3.org/2000/svg" xmlns:xlink="http://www.w3.org/1999/xlink"><defs><style type="text/css"><![CDATA[path { fill-rule: evenodd; }
#context path { fill: #eee; stroke: #bbb; } ]]></style></defs><metadata><views><view h="301.0" padding="0.06" w="450"><proj id="laea" lat0="11.2471690944" lon0="-60.6685466445"/><bbox h="18.18" w="19.14" x="983.66" y="997.69"/><llbbox lat0="-90" lat1="90" lon0="-180" lon1="180"/></view></views></metadata><g id="context"><path d="M268,264L269,257L270,238L276,225L267,213L263,193L266,178L264,155L271,146L287,121L255,122L236,128L196,129L178,136L152,139L140,145L144,149L162,156L171,161L175,168L177,182L170,236L164,240L144,241L138,252L89,277L116,274L151,278L235,275L268,264Z M319,52L361,35L365,22L357,22L328,32L309,46L308,54L319,52Z " data-iso="TTO"/><path d="M0,176L24,162L63,160L86,152L95,140L22,148L0,146L0,176Z M65,299L55,296L46,294L39,295L40,299L65,299Z " data-iso="VEN"/></g><g fill="red" fill-opacity="0.35" id="regions"><path d="M365,18L364,17L362,18L358,23L356,23L353,21L349,23L343,24L336,27L328,33L311,44L308,49L301,52L301,55L302,57L305,57L308,56L310,59L313,58L318,53L322,52L334,46L341,47L355,36L359,37L360,34L363,34L365,30L366,23L365,18Z " data-fips="TD11" data-fips-="" data-iso3="TTO" data-name="Tobago"/><path d="M168,138L158,140L150,139L147,140L137,147L141,151L151,152L155,153L161,155L162,155L164,153L165,153L168,154L172,148L173,143L173,139L173,138L168,138Z " data-fips="TD00" data-fips-="" data-iso3="TTO" data-name="Diego Martin"/><path d="M158,242L148,241L145,241L142,242L143,248L142,248L140,257L136,261L132,262L129,257L128,258L112,262L106,266L103,270L96,272L86,276L84,279L89,282L92,282L96,281L103,276L107,274L112,274L129,274L137,275L143,279L146,280L154,278L161,275L169,277L170,269L176,257L175,250L172,248L167,244L166,242L158,242Z " data-fips="TD00" data-fips-="TD09" data-iso3="TTO" data-name="Siparia"/><path d="M216,168L216,161L213,158L213,165L211,167L216,168Z " data-fips="TD00" data-fips-="TD08" data-iso3="TTO" data-name="Arima"/><path d="M262,193L262,188L268,183L267,177L263,164L263,158L264,152L266,148L270,149L280,136L289,121L280,120L255,122L251,124L239,125L236,128L239,131L239,135L235,138L231,141L223,143L226,145L228,152L227,155L230,164L228,169L223,171L225,173L226,175L226,184L228,187L228,190L227,195L227,197L231,198L251,196L263,197L262,193Z " data-fips="TD00" data-fips-="TD06" data-iso3="TTO" data-name="Sangre Grande"/><path d="M231,198L228,203L227,207L226,219L224,225L222,229L223,233L227,236L229,239L232,244L235,276L237,276L246,273L250,272L257,266L262,264L267,262L271,263L269,253L270,241L272,230L278,224L270,219L265,208L263,197L251,196L231,198Z " data-fips="TD00" data-fips-="TD03" data-iso3="TTO" data-name="Mayaro/Rio Claro"/><path d="M186,161L186,155L185,147L185,143L186,141L188,140L193,141L198,141L201,142L204,138L202,134L200,128L197,128L190,135L186,135L184,137L181,133L179,136L178,134L176,137L173,138L173,138L173,139L173,143L172,148L168,154L171,155L172,157L172,158L171,162L173,163L171,164L176,170L178,178L178,182L178,182L182,176L188,176L186,161Z " data-fips="TD00" data-fips-="" data-iso3="TTO" data-name="San Juan/Laventille"/><path d="M220,227L208,223L202,224L196,225L189,228L185,228L182,238L192,243L194,245L196,247L194,276L202,277L215,274L220,274L232,276L235,276L232,244L229,239L227,236L223,233L222,229L220,227Z " data-fips="TD00" data-fips-="TD12" data-iso3="TTO" data-name="Princes Town"/><path d="M227,197L227,195L228,190L228,187L226,184L226,175L225,173L223,171L217,173L208,173L203,175L197,175L197,176L197,181L194,188L189,189L182,186L178,185L178,186L177,193L174,200L173,204L175,212L174,216L177,219L178,226L178,228L179,228L185,228L189,228L196,225L202,224L208,223L220,227L222,229L224,225L226,219L227,207L228,203L231,198L227,197Z " data-fips="TD00" data-fips-="" data-iso3="TTO" data-name="Couva/Tabaquite/Talparo"/><path d="M182,238L172,241L172,240L171,241L169,242L166,242L167,244L172,248L175,250L176,257L170,269L169,277L170,277L187,276L194,276L196,247L194,245L192,243L182,238Z " data-fips="TD00" data-fips-="" data-iso3="TTO" data-name="Penal/Debe"/><path d="M136,253L129,257L132,262L136,261L140,257L142,248L136,253Z " data-fips="TD00" data-fips-="" data-iso3="TTO" data-name="Point Fortin"/><path d="M234,129L211,129L201,128L200,128L202,134L204,138L201,142L198,141L193,141L188,140L186,141L185,143L185,147L186,155L186,161L188,176L197,176L197,175L203,175L208,173L217,173L223,171L228,169L230,164L227,155L228,152L226,145L223,143L231,141L235,138L239,135L239,131L236,128L234,129Z M216,168L211,167L213,165L213,158L216,161L216,168Z " data-fips="TD00" data-fips-="TD08" data-iso3="TTO" data-name="Tunapuna/Piarco"/><path d="M185,228L179,228L178,228L179,230L178,234L176,236L174,239L172,240L172,241L182,238L185,228Z " data-fips="TD00" data-fips-="TD10" data-iso3="TTO" data-name="San Fernando"/><path d="M188,176L182,176L178,182L178,182L178,185L182,186L189,189L194,188L197,181L197,176L188,176Z " data-fips="TD00" data-fips-="TD02" data-iso3="TTO" data-name="Chaguanas"/><path d="M165,153L164,153L162,155L161,155L165,157L171,162L172,158L172,157L171,155L168,154L165,153Z " data-fips="TD00" data-fips-="TD05" data-iso3="TTO" data-name="Port of Spain"/></g></svg>