<?xml version="1.0" encoding="UTF-8"?><!DOCTYPE svg  PUBLIC '-//W3C//DTD SVG 1.1//EN'  'http://www.w3.org/Graphics/SVG/1.1/DTD/svg11.dtd'><svg enable_background="new 0 0 450 563" height="563px" style="stroke-linejoin: round; stroke:#000; fill:#f6f3f0;" version="1.1" viewBox="0 0 450 563" width="450px" xmlns="http://www.w3.org/2000/svg" xmlns:xlink="http://www.w3.org/1999/xlink"><defs><style type="text/css"><![CDATA[path { fill-rule: evenodd; }
#context path { fill: #eee; stroke: #bbb; } ]]></style></defs><metadata><views><view h="563.5" padding="0.06" w="450"><proj id="laea" lat0="32.9905964218" lon0="11.2554168485"/><bbox h="92.79" w="46.91" x="958.82" y="943.65"/><llbbox lat0="-90" lat1="90" lon0="-180" lon1="180"/></view></views></metadata><g id="context"><path d="M220,546L217,529L192,408L191,406L170,390L148,372L147,360L141,343L136,333L133,331L121,324L114,319L112,317L111,310L107,295L101,283L99,274L100,263L101,255L104,252L116,243L122,232L135,224L140,221L144,215L148,208L150,190L152,182L158,173L153,158L155,145L154,140L150,128L150,123L155,100L157,86L157,83L155,80L149,77L151,73L159,67L164,57L174,52L172,44L145,45L132,49L125,47L115,38L104,33L91,30L93,39L87,41L74,42L53,35L48,29L39,31L33,39L22,44L2,48L0,48L0,562L210,562L207,555L214,550L220,546Z " data-iso="DZA"/><path d="M380,60L378,55L374,53L373,58L377,60L380,60Z M434,0L438,3L446,5L450,8L450,0L434,0Z " data-iso="ITA"/><path d="M348,327L345,348L345,367L350,376L350,380L348,384L327,396L305,409L302,413L291,420L290,423L287,430L283,435L272,437L270,438L263,449L260,455L263,471L268,487L268,494L268,499L266,506L247,532L245,535L239,538L228,542L220,546L214,550L207,555L210,562L450,562L450,347L426,354L406,353L397,351L367,333L357,331L348,327Z " data-iso="LBY"/><path d="M314,286L319,282L312,274L301,274L299,285L308,289L314,286Z M334,209L334,206L332,204L326,210L324,215L334,209Z M172,44L174,52L164,57L159,67L151,73L149,77L155,80L157,83L157,86L155,100L150,123L150,128L154,140L155,145L153,158L158,173L152,182L150,190L148,208L144,215L140,221L135,224L122,232L116,243L104,252L101,255L100,263L99,274L101,283L107,295L111,310L112,317L114,319L121,324L133,331L136,333L141,343L147,360L148,372L170,390L191,406L192,408L217,529L220,546L228,542L239,538L245,535L247,532L266,506L268,499L268,494L268,487L263,471L260,455L263,449L270,438L272,437L283,435L287,430L290,423L291,420L302,413L305,409L327,396L348,384L350,380L350,376L345,367L345,348L348,327L341,323L337,325L329,322L333,319L332,317L326,313L322,298L314,294L310,300L306,301L299,302L298,295L299,289L282,291L273,286L264,276L258,261L257,255L259,249L262,244L267,239L288,225L298,215L308,200L314,188L324,173L319,166L319,157L317,150L317,144L304,133L298,131L292,125L287,114L285,103L286,97L288,92L295,85L305,79L315,61L320,53L325,51L322,44L320,36L314,37L303,47L291,51L288,57L282,61L275,58L277,51L269,39L269,26L263,22L257,22L250,22L251,28L247,31L245,25L248,18L239,16L206,26L201,29L187,40L172,44Z " data-iso="TUN"/></g><g fill="red" fill-opacity="0.35" id="regions"><path d="M283,291L281,292L277,297L271,307L265,309L257,316L249,317L245,317L239,318L238,318L241,322L248,324L249,331L249,332L248,334L253,334L259,332L262,329L268,330L275,326L286,321L294,321L294,324L292,325L299,327L317,336L319,342L325,347L323,353L323,364L340,378L343,378L339,383L336,384L332,388L328,395L344,387L349,384L352,380L351,377L350,374L346,370L344,367L344,363L345,355L345,348L346,343L346,337L348,330L347,327L344,325L338,321L342,327L340,327L327,324L327,322L324,319L325,317L328,317L334,319L335,319L327,316L323,313L323,299L319,294L312,293L311,294L312,297L312,299L303,304L299,304L296,299L299,296L299,289L298,287L287,292L285,292L283,291Z M312,273L310,275L302,273L300,274L299,276L299,286L300,287L307,287L308,292L312,287L314,288L314,286L320,280L319,279L312,273Z " data-fips="TS28" data-fips-="" data-iso3="TUN" data-name="Mdenine"/><path d="M210,249L201,250L199,250L195,252L193,256L185,255L183,256L172,257L167,266L164,270L125,300L111,306L111,315L112,319L113,321L121,323L128,328L134,330L146,350L147,352L148,371L148,373L148,373L149,373L224,359L228,356L233,354L237,354L241,358L249,365L249,359L251,352L251,350L250,345L252,342L251,339L248,336L248,335L248,334L249,332L249,331L248,324L241,322L238,318L235,315L226,303L228,296L225,292L222,291L221,289L212,280L209,271L209,267L209,261L215,256L210,250L210,249Z " data-fips="TS31" data-fips-="" data-iso3="TUN" data-name="Kebili"/><path d="M248,334L248,335L248,336L251,339L252,342L250,345L251,350L251,352L249,359L249,365L241,358L237,354L233,354L228,356L224,359L149,373L148,373L150,375L158,380L191,406L192,408L193,414L235,539L241,538L251,527L258,516L264,509L268,501L269,496L268,490L268,483L266,479L264,471L259,458L260,452L265,446L269,439L273,436L280,436L283,435L287,429L290,427L291,424L291,418L294,417L296,418L304,412L306,407L308,405L328,395L332,388L336,384L339,383L343,378L340,378L323,364L323,353L325,347L319,342L317,336L299,327L292,325L294,324L294,321L286,321L275,326L268,330L262,329L259,332L253,334L248,334Z " data-fips="TS34" data-fips-="" data-iso3="TUN" data-name="Tataouine"/><path d="M138,223L132,226L129,227L124,230L121,231L120,234L117,243L115,245L111,246L108,247L101,254L100,256L100,262L99,272L99,276L101,281L102,287L110,303L111,306L111,306L125,300L164,270L167,266L172,257L169,256L167,256L153,256L151,251L145,248L142,248L138,242L133,239L140,234L140,232L138,230L139,225L138,223L138,223Z " data-fips="TS35" data-fips-="" data-iso3="TUN" data-name="Tozeur"/><path d="M276,47L273,46L270,43L268,39L268,36L271,33L270,32L264,33L256,46L254,46L248,44L246,44L241,49L238,49L233,52L230,54L237,60L242,62L244,64L248,72L248,73L250,73L253,68L253,67L255,68L255,68L256,68L257,67L260,64L261,64L257,59L261,56L269,52L277,49L276,47Z " data-fips="TS38" data-fips-="TS26" data-iso3="TUN" data-name="Manubah"/><path d="M230,54L222,61L219,59L218,58L220,52L213,47L210,39L207,37L202,34L203,28L201,28L197,31L195,35L192,38L192,39L194,42L195,47L196,51L193,52L192,56L193,57L197,58L199,59L198,64L201,72L201,75L199,78L199,81L197,81L202,86L210,86L216,89L218,84L225,82L230,85L232,85L237,83L241,83L241,81L243,78L245,76L248,73L248,72L244,64L242,62L237,60L230,54L230,54Z " data-fips="TS17" data-fips-="" data-iso3="TUN" data-name="Bja"/><path d="M281,62L278,61L273,55L273,57L272,57L272,60L265,63L264,64L261,65L260,64L257,67L256,68L255,68L256,71L259,72L271,80L273,83L276,81L277,81L279,74L278,71L281,67L282,62L281,62Z " data-fips="TS32" data-fips-="TS27" data-iso3="TUN" data-name="Ben Arous (Tunis Sud)"/><path d="M270,31L266,31L265,29L270,28L270,29L274,28L268,25L266,24L251,21L249,24L253,25L253,26L250,30L246,29L244,25L245,23L249,21L249,17L238,16L228,20L222,21L218,23L211,23L208,26L203,28L202,34L207,37L210,39L213,47L220,52L218,58L219,59L222,61L230,54L230,54L233,52L238,49L241,49L246,44L248,44L254,46L256,46L264,33L270,32L270,31Z " data-fips="TS18" data-fips-="" data-iso3="TUN" data-name="Bizerte"/><path d="M190,39L179,42L174,44L174,48L176,52L171,54L164,55L162,57L164,58L164,62L162,66L154,70L149,73L147,74L149,78L154,79L158,80L158,86L158,87L164,88L169,85L186,84L192,82L194,81L195,81L196,81L197,81L199,81L199,78L201,75L201,72L198,64L199,59L197,58L193,57L192,56L193,52L196,51L195,47L194,42L192,39L190,39Z " data-fips="TS06" data-fips-="" data-iso3="TUN" data-name="Jendouba"/><path d="M288,89L290,87L299,83L304,81L306,79L309,71L319,55L323,53L322,45L318,35L316,37L311,38L306,45L299,50L292,51L291,52L288,59L283,61L282,62L281,67L278,71L279,74L277,81L277,86L278,88L278,89L278,89L279,89L282,88L285,89L288,89L288,89Z " data-fips="TS19" data-fips-="" data-iso3="TUN" data-name="Nabeul"/><path d="M272,57L268,56L270,53L274,53L274,55L278,50L277,49L269,52L261,56L257,59L261,64L260,64L261,65L264,64L265,63L272,60L272,57L272,57Z " data-fips="TS36" data-fips-="" data-iso3="TUN" data-name="Tunis"/><path d="M192,82L186,84L169,85L164,88L158,87L158,88L155,96L154,105L152,111L152,115L150,121L150,130L151,132L154,140L154,142L158,141L162,139L166,140L171,140L176,131L177,130L182,132L193,137L196,137L197,134L197,127L200,124L202,120L204,118L205,113L205,110L198,104L198,98L194,92L194,86L192,82Z " data-fips="TS14" data-fips-="" data-iso3="TUN" data-name="Le Kef"/><path d="M193,137L182,132L177,130L176,131L171,140L166,140L162,139L158,141L154,142L155,148L155,150L152,158L152,164L153,167L158,169L159,172L156,178L153,181L150,189L149,193L149,207L148,208L161,212L167,216L169,213L180,209L182,208L197,199L196,196L201,189L206,188L211,185L210,174L205,172L204,169L205,167L208,164L209,162L215,155L215,154L215,153L213,151L208,148L203,143L199,142L196,137L193,137Z " data-fips="TS02" data-fips-="" data-iso3="TUN" data-name="Kassrine"/><path d="M237,246L234,243L233,243L229,244L228,246L226,246L222,248L215,247L213,248L210,249L210,250L215,256L209,261L209,267L209,271L212,280L221,289L222,291L225,292L228,296L226,303L235,315L238,318L239,318L245,317L249,317L257,316L265,309L271,307L277,297L281,292L283,291L282,291L275,288L266,279L259,269L258,266L255,252L255,252L254,251L253,253L249,253L245,249L238,248L237,246L237,246Z " data-fips="TS29" data-fips-="" data-iso3="TUN" data-name="Gabs"/><path d="M182,208L180,209L169,213L167,216L161,212L148,208L148,208L145,212L147,215L142,220L141,220L138,223L139,225L138,230L140,232L140,234L133,239L138,242L142,248L145,248L151,251L153,256L167,256L169,256L172,257L183,256L185,255L193,256L195,252L199,250L201,250L210,249L213,248L215,247L222,248L226,246L228,246L228,237L219,229L215,228L211,224L210,220L212,216L209,216L204,213L198,212L192,212L182,208Z " data-fips="TS10" data-fips-="" data-iso3="TUN" data-name="Gafsa"/><path d="M219,153L218,153L215,154L215,155L209,162L208,164L205,167L204,169L205,172L210,174L211,185L206,188L201,189L196,196L197,199L182,208L192,212L198,212L204,213L209,216L212,216L210,220L211,224L215,228L219,229L228,237L228,246L229,244L233,243L234,243L237,246L237,246L238,247L240,246L240,245L237,241L241,238L245,237L257,230L258,224L245,221L247,212L254,200L259,189L258,188L254,179L251,180L238,176L233,169L230,169L224,164L224,156L223,154L219,153Z " data-fips="TS33" data-fips-="" data-iso3="TUN" data-name="Sidi Bou Zid"/><path d="M319,219L323,216L316,215L319,219Z M334,209L333,207L335,206L331,204L328,209L327,209L324,215L334,210L334,209Z M270,180L268,180L264,183L260,187L259,189L259,189L254,200L247,212L245,221L258,224L257,230L245,237L241,238L237,241L240,245L240,246L238,247L237,246L238,248L245,249L249,253L253,253L254,251L255,252L255,252L260,244L266,239L270,238L273,234L275,235L282,228L289,225L291,223L294,218L298,217L301,213L301,210L306,206L308,205L311,199L311,196L318,185L318,184L315,183L311,178L307,180L306,179L304,172L300,174L294,173L291,177L281,183L277,181L270,180Z " data-fips="TS32" data-fips-="" data-iso3="TUN" data-name="Sfax"/><path d="M196,81L195,81L194,81L192,82L194,86L194,92L198,98L198,104L205,110L205,113L204,118L202,120L200,124L197,127L197,134L196,137L199,142L203,143L208,148L213,151L215,153L215,154L218,153L219,153L223,154L223,153L220,148L212,138L214,136L221,137L226,135L225,130L226,127L227,121L240,111L241,109L241,104L233,100L231,98L233,95L237,93L242,87L241,84L241,83L237,83L232,85L230,85L225,82L218,84L216,89L210,86L202,86L197,81L196,81Z " data-fips="TS22" data-fips-="" data-iso3="TUN" data-name="Siliana"/><path d="M292,156L289,159L288,160L283,157L283,156L280,154L278,154L274,149L275,148L272,149L270,151L269,157L267,165L270,177L270,180L277,181L281,183L291,177L294,173L300,174L304,172L306,179L307,180L311,178L315,183L318,184L318,181L322,177L323,174L323,171L320,168L318,166L320,153L319,152L318,149L318,149L310,153L308,155L304,157L300,156L292,153L292,156Z " data-fips="TS15" data-fips-="" data-iso3="TUN" data-name="Mahdia"/><path d="M318,148L318,143L315,141L310,140L306,136L305,132L301,133L298,132L298,132L295,136L295,143L294,145L289,147L288,151L285,153L288,155L290,152L292,153L292,153L300,156L304,157L308,155L310,153L318,149L318,148Z " data-fips="TS16" data-fips-="" data-iso3="TUN" data-name="Monastir"/><path d="M274,145L266,128L269,124L271,114L267,111L267,110L269,106L265,107L261,111L260,113L258,115L257,113L251,111L241,111L240,111L227,121L226,127L225,130L226,135L221,137L214,136L212,138L220,148L223,153L223,154L224,156L224,164L230,169L233,169L238,176L251,180L254,179L258,188L259,189L259,189L260,187L264,183L268,180L270,180L270,177L267,165L269,157L270,151L272,149L275,148L274,145Z " data-fips="TS03" data-fips-="" data-iso3="TUN" data-name="Kairouan"/><path d="M279,89L279,93L278,98L273,99L272,103L271,105L269,106L267,110L267,111L271,114L269,124L266,128L274,145L275,148L274,149L278,154L280,154L283,156L283,157L288,160L289,159L292,156L292,153L292,153L290,152L288,155L285,153L288,151L289,147L294,145L295,143L295,136L298,132L294,128L288,117L285,111L284,103L284,100L287,91L288,89L285,89L282,88L279,89Z " data-fips="TS23" data-fips-="" data-iso3="TUN" data-name="Sousse"/><path d="M255,68L253,67L253,68L250,73L248,73L245,76L243,78L241,81L241,83L241,84L242,87L237,93L233,95L231,98L233,100L241,104L241,109L240,111L241,111L251,111L257,113L258,115L260,113L261,111L265,107L269,106L271,105L272,103L273,99L278,98L279,93L279,89L278,89L278,89L278,88L277,86L277,81L276,81L273,83L271,80L259,72L256,71L255,68L255,68Z " data-fips="TS37" data-fips-="" data-iso3="TUN" data-name="Zaghouan"/></g></svg>