<?xml version="1.0" encoding="UTF-8"?><!DOCTYPE svg  PUBLIC '-//W3C//DTD SVG 1.1//EN'  'http://www.w3.org/Graphics/SVG/1.1/DTD/svg11.dtd'><svg enable_background="new 0 0 450 301" height="301px" style="stroke-linejoin: round; stroke:#000; fill:#f6f3f0;" version="1.1" viewBox="0 0 450 301" width="450px" xmlns="http://www.w3.org/2000/svg" xmlns:xlink="http://www.w3.org/1999/xlink"><defs><style type="text/css"><![CDATA[path { fill-rule: evenodd; }
#context path { fill: #eee; stroke: #bbb; } ]]></style></defs><metadata><views><view h="301.0" padding="0.06" w="450"><proj id="laea" lat0="37.7211733058" lon0="28.0638765465"/><bbox h="100.86" w="208.08" x="966.2" y="930.31"/><llbbox lat0="-90" lat1="90" lon0="-180" lon1="180"/></view></views></metadata><g id="context"><path d="M410,65L410,65L407,66L407,67L400,69L395,69L381,75L380,75L381,76L385,79L388,86L386,91L389,97L389,100L395,102L402,100L405,101L413,106L414,107L415,107L418,105L428,110L431,108L435,108L440,115L440,117L444,122L445,124L446,124L449,122L450,122L450,116L450,111L447,108L449,107L445,104L443,105L430,97L435,90L435,89L426,85L423,83L421,78L424,75L413,69L415,68L411,66L410,65Z " data-iso="ARM"/><path d="M414,107L414,108L415,109L415,109L420,114L431,123L441,124L445,124L444,122L440,117L440,115L435,108L431,108L428,110L418,105L415,107L414,107Z M435,43L434,44L432,52L434,54L441,57L443,58L441,64L440,65L434,63L429,64L426,63L424,61L418,59L414,60L410,65L411,66L415,68L413,69L424,75L421,78L423,83L426,85L435,89L435,90L430,97L443,105L445,104L449,107L447,108L450,111L450,50L447,48L441,44L437,43L435,43Z " data-iso="AZE"/><path d="M38,84L38,83L51,76L57,74L63,79L72,78L71,76L68,71L62,64L67,58L70,57L70,45L74,40L78,39L81,40L83,37L83,31L76,30L73,28L70,24L67,25L50,20L43,21L38,23L23,32L17,31L3,28L0,28L0,88L2,88L7,93L12,93L17,96L27,94L30,95L34,93L34,87L36,83L38,84Z " data-iso="BGR"/><path d="M201,256L201,252L212,243L211,242L203,247L194,251L190,251L179,251L178,256L176,257L174,257L179,259L185,256L190,257L192,259L196,260L200,257L203,258L201,256Z " data-iso="CYN"/><path d="M173,256L168,260L166,260L166,263L171,269L175,271L180,271L188,268L192,266L196,261L203,258L203,258L200,257L196,260L192,259L190,257L185,256L179,259L174,257L173,256Z " data-iso="CYP"/><path d="M434,43L425,41L418,38L418,31L415,30L410,31L406,28L400,26L399,30L397,28L393,28L384,35L379,34L379,30L365,26L360,23L348,23L344,24L335,25L330,23L325,22L316,19L313,20L306,20L303,24L308,26L321,31L326,34L328,37L334,38L335,40L341,53L344,57L344,65L341,70L347,71L349,69L355,69L360,69L361,66L363,65L368,67L374,71L374,72L380,74L380,75L381,75L395,69L400,69L407,67L407,66L410,65L410,65L414,60L418,59L424,61L426,63L429,64L434,63L440,65L441,64L443,58L441,57L434,54L432,52L434,44L435,43L434,43Z " data-iso="GEO"/><path d="M0,260L2,264L11,264L19,263L32,263L33,262L35,256L32,258L22,259L23,254L17,255L9,254L7,252L0,260Z M54,251L53,247L52,248L53,253L54,251Z M68,239L71,236L74,235L77,227L70,228L66,238L68,239Z M39,221L35,222L36,223L39,221Z M49,218L58,214L52,215L49,218Z M14,208L13,206L11,207L12,210L14,208Z M19,211L20,209L19,204L16,208L19,211Z M17,198L18,197L16,196L17,198Z M30,196L34,195L31,193L30,196Z M14,194L8,191L12,195L14,194Z M47,189L43,189L42,191L46,193L52,191L51,190L47,189Z M8,189L8,185L2,183L3,185L8,189Z M32,177L33,175L33,169L30,167L27,168L30,174L30,179L32,177Z M0,161L3,161L1,159L0,161Z M39,148L38,146L34,147L31,149L29,149L28,153L34,156L42,157L42,154L39,150L39,148Z M19,130L16,131L15,129L12,129L12,133L18,135L19,130Z M25,118L22,116L20,117L22,119L25,118Z M6,113L6,108L4,108L1,112L4,114L6,113Z M32,111L39,103L38,97L44,94L43,87L40,85L38,84L36,83L34,87L34,93L30,95L27,94L17,96L12,93L7,93L2,88L0,88L0,104L7,106L13,103L16,105L29,107L32,109L32,111Z " data-iso="GRC"/><path d="M445,124L441,124L431,123L420,114L415,109L415,109L414,109L410,106L407,109L407,116L400,118L402,123L404,124L405,130L408,132L410,143L414,145L413,147L411,158L413,157L421,168L424,170L426,175L426,175L426,175L430,184L433,186L445,203L450,204L450,122L449,122L446,124L445,124Z " data-iso="IRN"/><path d="M426,175L425,175L416,181L416,181L412,174L409,173L406,176L399,177L390,175L387,177L383,176L378,184L376,184L376,185L376,186L366,200L358,203L357,205L356,212L356,215L360,224L360,226L358,236L360,249L356,260L350,263L317,289L311,294L313,299L450,299L450,204L445,203L433,186L430,184L426,175L426,175Z " data-iso="IRQ"/><path d="M311,294L306,298L305,299L313,299L311,294Z " data-iso="JOR"/><path d="M247,299L248,298L249,296L248,292L251,287L257,286L255,285L261,276L255,265L254,265L247,266L247,269L243,272L240,277L240,283L238,287L234,299L246,299L247,299Z " data-iso="LBN"/><path d="M92,0L92,3L101,1L102,0L92,0Z M83,29L85,24L84,16L89,8L89,0L0,0L0,28L3,28L17,31L23,32L38,23L43,21L50,20L67,25L70,24L73,28L76,30L83,31L83,29Z " data-iso="ROU"/><path d="M303,24L306,20L313,20L316,19L325,22L330,23L335,25L344,24L348,23L360,23L365,26L379,30L379,34L384,35L393,28L397,28L399,30L400,26L406,28L410,31L415,30L418,31L418,38L425,41L434,43L435,43L437,43L441,44L447,48L450,50L450,11L448,9L448,4L446,0L264,0L266,2L276,4L289,13L293,17L301,23L303,24Z " data-iso="RUS"/><path d="M311,294L317,289L350,263L356,260L360,249L358,236L360,226L360,224L356,215L356,212L357,205L358,203L366,200L376,186L376,185L376,184L374,181L369,183L358,188L349,189L346,189L336,193L327,199L314,204L309,205L300,205L294,202L289,201L273,210L265,210L264,209L256,207L255,217L252,229L249,231L248,234L242,232L241,234L240,242L243,246L245,251L244,255L244,261L247,266L254,265L255,265L261,276L255,285L257,286L251,287L248,292L249,296L248,298L247,299L247,299L305,299L306,298L311,294Z " data-iso="SYR"/><path d="M30,126L31,125L26,125L26,127L30,126Z M242,232L248,234L249,231L252,229L255,217L256,207L264,209L265,210L273,210L289,201L294,202L300,205L309,205L314,204L327,199L336,193L346,189L349,189L358,188L369,183L374,181L376,184L378,184L383,176L387,177L390,175L399,177L406,176L409,173L412,174L416,181L416,181L425,175L426,175L426,175L424,170L421,168L413,157L411,158L413,147L414,145L410,143L408,132L405,130L404,124L402,123L400,118L407,116L407,109L410,106L414,109L415,109L414,108L414,107L413,106L405,101L402,100L395,102L389,100L389,97L386,91L388,86L385,79L381,76L380,75L380,74L374,72L374,71L368,67L363,65L361,66L360,69L355,69L349,69L347,71L341,70L339,73L328,81L326,83L318,88L315,89L309,89L301,87L290,90L284,93L281,94L271,93L268,91L261,91L254,90L252,88L247,86L242,89L240,89L235,85L232,79L222,81L217,79L213,74L214,71L211,70L206,73L195,74L179,73L170,77L162,80L158,82L153,86L141,94L139,98L137,100L128,101L119,98L110,99L98,97L93,101L93,103L97,108L99,109L109,110L102,111L91,113L88,116L92,120L78,120L66,117L69,120L66,122L61,122L57,118L54,118L52,120L46,119L41,125L37,129L35,130L34,139L33,144L48,142L47,146L45,148L48,154L48,159L51,160L49,163L48,169L49,171L53,173L48,174L45,173L44,175L41,167L38,168L39,172L36,176L41,179L44,178L48,182L56,184L55,191L54,194L55,197L62,204L62,206L56,208L56,211L58,210L77,211L70,215L64,216L64,219L68,217L74,217L72,219L76,219L78,215L82,216L87,218L94,218L96,226L101,230L108,233L117,230L120,228L123,230L124,229L127,222L127,215L128,213L143,214L153,219L158,221L169,232L175,234L178,232L191,230L194,229L207,217L213,211L215,210L225,214L230,216L235,213L235,211L243,206L245,207L247,212L239,222L243,230L242,232Z M38,84L40,85L43,87L44,94L38,97L39,103L32,111L33,112L33,114L47,113L46,116L38,120L36,122L35,128L47,117L57,112L60,108L62,104L67,103L70,104L78,102L88,104L91,103L93,97L91,97L79,91L76,89L72,81L72,78L63,79L57,74L51,76L38,83L38,84Z " data-iso="TUR"/><path d="M177,0L176,6L180,9L188,9L191,5L177,0Z " data-iso="UKR"/></g><g fill="red" fill-opacity="0.35" id="regions"><path d="M84,181L80,182L73,183L68,185L62,184L59,186L56,187L56,187L56,190L51,193L55,195L55,201L58,201L59,199L59,199L61,196L65,197L67,198L75,198L77,195L82,197L85,198L85,197L86,194L87,194L91,190L89,190L87,182L86,181L84,181Z " data-fips="TU09" data-fips-="" data-iso3="TUR" data-name="Aydin"/><path d="M59,146L57,145L51,149L47,152L47,153L48,154L47,158L52,159L50,161L49,163L47,163L46,166L47,167L49,171L54,172L53,173L49,173L45,172L44,175L43,171L40,165L37,167L39,171L41,172L35,176L38,177L43,180L43,178L47,180L53,184L56,184L56,186L56,187L59,186L62,184L68,185L73,183L80,182L84,181L83,179L82,177L79,175L75,175L75,174L70,173L69,175L64,171L64,169L58,167L56,164L58,159L62,156L62,154L61,149L60,147L59,146Z " data-fips="TU35" data-fips-="" data-iso3="TUR" data-name="Izmir"/><path d="M63,122L60,126L60,134L57,136L52,136L48,138L46,138L44,142L47,142L50,142L50,144L45,148L44,149L46,152L47,152L51,149L57,145L59,146L60,147L61,146L65,148L67,148L70,149L70,151L71,151L75,156L84,153L85,153L86,153L89,149L90,146L91,142L92,141L91,141L87,139L86,137L83,137L78,133L75,129L76,120L74,120L71,117L66,116L65,117L68,122L64,122L63,122Z M64,113L64,115L66,114L64,113Z " data-fips="TU10" data-fips-="" data-iso3="TUR" data-name="Balikesir"/><path d="M30,126L26,124L24,126L26,127L30,126Z M44,142L46,138L48,138L52,136L57,136L60,134L60,126L63,122L63,122L59,121L54,118L51,120L47,119L39,125L39,127L34,132L34,138L32,144L40,143L44,142Z M47,111L47,111L47,112L47,113L47,113L45,117L40,118L36,122L36,125L34,128L36,128L38,125L45,119L45,118L51,115L51,115L50,113L50,111L47,111Z " data-fips="TU17" data-fips-="" data-iso3="TUR" data-name="anakkale"/><path d="M47,113L47,112L47,111L47,111L47,109L46,105L48,100L48,95L48,95L47,93L50,88L50,86L49,77L49,78L38,83L43,88L44,87L44,94L38,97L39,103L39,105L32,110L34,114L39,114L46,113L47,113Z " data-fips="TU22" data-fips-="" data-iso3="TUR" data-name="Edirne"/><path d="M49,77L50,86L50,88L47,93L48,95L51,94L57,94L60,97L61,96L64,92L71,91L75,91L75,91L76,89L75,89L71,81L72,78L62,78L57,74L52,75L49,77L49,77Z " data-fips="TU39" data-fips-="" data-iso3="TUR" data-name="Kirklareli"/><path d="M75,91L71,91L64,92L61,96L60,97L57,94L51,94L48,95L48,95L48,100L46,105L47,109L47,111L50,111L50,113L51,115L51,115L55,113L57,112L62,104L67,103L71,104L75,101L75,102L75,96L76,94L75,92L75,91Z " data-fips="TU59" data-fips-="" data-iso3="TUR" data-name="Tekirdag"/><path d="M124,121L119,119L116,120L114,119L112,117L111,116L110,116L109,123L107,125L108,132L107,133L106,133L106,135L106,136L111,140L115,140L116,140L117,138L120,132L123,131L124,127L126,125L128,125L127,124L126,122L125,121L124,121Z " data-fips="TU11" data-fips-="" data-iso3="TUR" data-name="Bilecik"/><path d="M108,114L107,114L103,115L102,115L101,115L99,115L97,115L90,114L90,114L90,118L93,120L85,121L79,120L76,120L75,129L78,133L83,137L86,137L87,139L91,141L92,141L92,142L96,142L97,141L100,133L101,132L106,133L106,133L107,133L108,132L107,125L109,123L110,116L111,116L111,115L111,115L108,114Z " data-fips="TU16" data-fips-="" data-iso3="TUR" data-name="Bursa"/><path d="M90,114L97,115L99,115L101,115L101,114L101,112L100,112L98,112L92,113L91,114L90,114Z M97,107L101,103L104,106L110,101L109,99L104,99L97,97L95,98L94,105L97,107L97,107Z M76,89L75,91L75,91L75,92L76,94L75,96L75,102L75,102L81,103L84,104L89,104L93,101L94,97L90,96L76,90L76,89Z " data-fips="TU34" data-fips-="" data-iso3="TUR" data-name="Istanbul"/><path d="M119,98L115,99L110,99L109,99L110,101L104,106L101,103L97,107L97,107L100,110L106,109L108,110L103,112L101,112L101,112L101,114L101,115L102,115L103,115L107,114L108,114L111,115L112,114L116,113L118,105L120,105L122,103L121,99L119,98Z " data-fips="TU41" data-fips-="" data-iso3="TUR" data-name="Kocaeli"/><path d="M129,101L127,100L127,100L126,100L121,99L122,103L120,105L118,105L116,113L112,114L111,115L111,115L111,116L112,117L114,119L116,120L119,119L124,121L125,121L126,120L125,118L126,114L129,114L129,111L130,110L130,105L131,101L129,101Z " data-fips="TU54" data-fips-="" data-iso3="TUR" data-name="Sakarya"/><path d="M156,101L150,101L143,101L139,98L139,99L138,99L136,100L134,100L131,101L130,105L130,110L129,111L129,114L126,114L125,118L126,120L125,121L126,122L127,124L128,125L129,125L130,126L131,124L134,122L134,118L138,120L141,120L144,121L150,120L157,117L159,117L163,114L162,112L162,110L163,109L163,108L162,105L158,102L158,102L156,101Z " data-fips="TU14" data-fips-="" data-iso3="TUR" data-name="Bolu"/><path d="M129,125L128,125L126,125L124,127L123,131L120,132L117,138L116,140L117,141L120,147L122,149L122,151L123,151L126,154L131,151L135,151L139,148L142,152L143,153L148,153L148,153L150,153L151,153L151,152L152,152L152,151L152,150L154,149L155,147L154,146L153,140L151,136L151,132L149,131L148,128L132,129L131,127L130,126L129,125Z " data-fips="TU26" data-fips-="" data-iso3="TUR" data-name="Eskisehir"/><path d="M191,74L187,74L178,73L166,79L165,79L169,87L171,87L172,91L170,94L171,97L172,97L180,101L189,97L188,101L193,103L193,103L195,103L198,102L197,97L200,91L201,91L201,87L203,81L202,80L194,79L195,74L191,74Z " data-fips="TU37" data-fips-="" data-iso3="TUR" data-name="Kastamonu"/><path d="M141,198L138,199L136,200L134,199L133,201L131,203L124,204L120,202L112,205L108,212L108,212L106,218L106,219L103,223L101,225L99,229L100,230L107,232L107,233L110,233L117,230L120,228L123,230L125,227L127,222L127,216L129,213L131,214L135,213L143,214L159,222L162,226L167,231L170,232L170,232L171,229L172,228L171,225L172,223L171,222L169,221L168,219L167,217L167,215L166,213L164,212L164,209L162,209L157,204L153,201L145,200L143,199L142,198L141,198Z " data-fips="TU07" data-fips-="" data-iso3="TUR" data-name="Antalya"/><path d="M148,153L143,153L142,152L139,148L135,151L131,151L126,154L123,151L122,151L121,153L118,154L115,162L111,164L111,166L111,167L109,168L108,171L108,171L111,172L115,178L107,185L110,188L111,190L112,189L114,189L116,189L117,188L119,183L128,176L130,175L136,169L139,171L140,171L143,169L147,165L147,161L149,156L148,155L148,153L148,153Z " data-fips="TU03" data-fips-="" data-iso3="TUR" data-name="Afyon"/><path d="M134,199L129,192L125,191L121,187L117,191L115,190L114,189L112,189L111,190L109,191L104,195L105,199L102,207L101,208L102,210L103,210L106,210L108,212L108,212L112,205L120,202L124,204L131,203L133,201L134,199L134,199Z " data-fips="TU15" data-fips-="" data-iso3="TUR" data-name="Burdur"/><path d="M110,188L107,185L115,178L111,172L108,171L106,172L106,175L98,178L93,177L91,177L89,177L88,179L87,181L86,181L87,182L89,190L91,190L87,194L86,194L85,197L85,198L85,198L89,204L93,206L99,213L100,209L101,208L102,207L105,199L104,195L109,191L111,190L110,188Z " data-fips="TU20" data-fips-="" data-iso3="TUR" data-name="Denizli"/><path d="M139,171L136,169L130,175L128,176L119,183L117,188L116,189L114,189L115,190L117,191L121,187L125,191L129,192L134,199L134,199L136,200L138,199L141,198L142,198L143,196L142,192L145,188L144,182L148,180L140,173L140,171L139,171Z " data-fips="TU33" data-fips-="" data-iso3="TUR" data-name="Isparta"/><path d="M106,133L101,132L100,133L97,141L96,142L92,142L92,141L91,142L90,146L89,149L86,153L85,153L86,154L92,158L92,160L93,162L93,164L94,163L100,164L102,163L104,160L107,160L111,162L111,164L115,162L118,154L121,153L122,151L122,149L120,147L117,141L116,140L115,140L111,140L106,136L106,135L106,133L106,133Z " data-fips="TU43" data-fips-="" data-iso3="TUR" data-name="Ktahya"/><path d="M84,153L75,156L71,151L70,151L70,149L67,148L65,148L61,146L60,147L61,149L62,154L62,156L58,159L56,164L58,167L64,169L64,171L69,175L70,173L75,174L75,175L79,175L82,177L83,179L84,181L86,181L87,181L88,179L89,177L91,177L90,176L89,168L93,165L93,164L93,162L92,160L92,158L86,154L85,153L84,153Z " data-fips="TU45" data-fips-="" data-iso3="TUR" data-name="Manisa"/><path d="M82,197L77,195L75,198L67,198L65,197L61,196L59,199L59,199L60,202L62,203L63,205L60,208L58,206L56,208L56,211L59,210L63,210L71,209L78,209L74,212L72,215L72,216L67,216L60,217L61,219L65,219L66,217L73,216L72,221L74,221L77,218L77,215L80,216L81,214L88,218L89,221L91,217L94,218L95,220L94,221L99,229L99,229L101,225L103,223L106,219L106,218L108,212L106,210L103,210L102,210L101,208L100,209L99,213L93,206L89,204L85,198L85,198L82,197Z " data-fips="TU48" data-fips-="" data-iso3="TUR" data-name="Mugla"/><path d="M303,166L302,167L295,168L294,165L290,166L286,174L284,175L276,177L273,178L272,180L270,182L270,184L273,185L275,186L277,186L280,185L282,186L284,187L284,187L290,185L294,184L296,181L301,180L302,176L302,173L305,169L306,169L307,168L307,165L306,164L305,165L304,165L303,166Z " data-fips="TU02" data-fips-="" data-iso3="TUR" data-name="Adiyaman"/><path d="M327,153L326,150L328,144L325,141L327,135L326,134L324,135L320,139L319,139L317,144L316,146L311,148L310,148L300,146L296,147L295,144L294,143L293,143L293,144L291,144L292,151L290,151L287,156L288,158L297,160L300,162L303,161L304,161L306,160L317,158L319,155L321,155L328,154L327,153Z " data-fips="TU23" data-fips-="" data-iso3="TUR" data-name="Elazig"/><path d="M260,159L260,159L259,158L257,158L254,159L253,160L253,162L252,163L250,166L250,167L248,168L247,177L247,180L246,191L247,192L254,192L256,193L257,195L259,193L263,195L266,192L275,189L275,187L275,186L273,185L270,184L270,182L272,180L273,178L274,177L274,173L276,166L275,164L264,160L265,158L260,159Z " data-fips="TU46" data-fips-="" data-iso3="TUR" data-name="K. Maras"/><path d="M291,142L290,142L289,142L287,142L286,141L284,142L277,145L273,147L270,148L271,152L266,157L265,158L264,160L275,164L276,166L274,173L274,177L273,178L276,177L284,175L286,174L290,166L294,165L295,168L302,167L303,166L304,165L305,162L304,162L304,161L304,161L303,161L300,162L297,160L288,158L287,156L290,151L292,151L291,144L293,144L291,142Z " data-fips="TU44" data-fips-="" data-iso3="TUR" data-name="Malatya"/><path d="M214,195L213,195L212,196L211,196L210,196L210,197L207,198L207,199L203,201L202,202L201,203L197,205L187,207L178,213L178,214L183,220L181,221L173,223L172,223L171,225L172,228L171,229L170,232L172,233L175,234L182,231L191,230L193,229L198,225L200,226L202,224L202,222L206,217L211,212L216,210L220,212L220,212L223,210L222,204L219,203L216,196L216,195L214,195Z " data-fips="TU32" data-fips-="" data-iso3="TUR" data-name="Mersin"/><path d="M210,140L207,139L203,134L201,134L197,131L196,131L193,134L192,137L191,139L188,142L186,147L186,148L189,149L195,152L195,153L195,154L198,156L201,155L201,155L204,157L204,153L209,150L210,149L208,143L209,142L211,141L210,140Z " data-fips="TU40" data-fips-="" data-iso3="TUR" data-name="Kirsehir"/><path d="M254,158L257,147L256,145L250,144L248,145L243,144L241,144L234,141L233,141L231,144L225,149L224,149L222,151L217,151L217,151L217,158L219,159L219,163L217,167L216,168L218,172L219,173L223,173L224,178L224,179L226,179L232,179L239,173L242,166L246,163L249,166L250,167L250,166L252,163L253,162L253,160L254,159L254,158Z " data-fips="TU38" data-fips-="" data-iso3="TUR" data-name="Kayseri"/><path d="M209,142L208,143L210,149L209,150L204,153L204,157L201,155L201,156L202,158L201,162L205,163L205,167L207,168L207,169L209,169L210,168L213,169L214,169L216,168L217,167L219,163L219,159L217,158L217,151L217,151L217,150L216,147L214,146L211,141L211,141L209,142Z " data-fips="TU50" data-fips-="" data-iso3="TUR" data-name="Nevsehir"/><path d="M241,206L245,207L246,208L246,214L244,215L239,222L243,228L244,232L248,234L248,232L251,230L252,225L258,222L255,216L256,207L256,207L256,206L256,206L253,205L252,203L251,204L242,203L240,205L241,207L241,206Z " data-fips="TU31" data-fips-="" data-iso3="TUR" data-name="Hatay"/><path d="M240,98L238,96L234,101L226,100L226,99L221,97L214,96L215,97L214,103L216,107L221,108L223,112L221,116L221,118L221,118L223,119L224,119L225,119L225,117L228,116L231,110L238,111L240,108L242,107L243,102L241,100L242,99L240,98Z " data-fips="TU05" data-fips-="" data-iso3="TUR" data-name="Amasya"/><path d="M210,92L209,93L207,93L202,92L201,91L200,91L197,97L198,102L195,103L193,103L195,105L194,108L197,115L195,118L193,119L193,121L196,125L196,126L195,127L196,129L197,128L204,126L207,126L211,125L213,124L218,123L218,120L220,119L221,118L221,116L223,112L221,108L216,107L214,103L215,97L214,96L214,96L212,96L211,93L210,91L210,92Z " data-fips="TU19" data-fips-="" data-iso3="TUR" data-name="orum"/><path d="M296,95L295,93L295,92L295,88L295,89L288,92L276,94L275,94L275,98L275,98L275,103L277,105L280,111L285,116L287,115L289,115L291,116L292,116L294,116L294,115L294,114L294,110L296,107L291,104L291,102L294,97L296,96L296,95Z " data-fips="TU28" data-fips-="" data-iso3="TUR" data-name="Giresun"/><path d="M275,94L271,94L267,90L263,93L258,90L255,91L253,95L251,97L248,99L247,99L247,100L250,101L254,103L258,103L263,105L266,105L266,106L267,108L268,110L270,111L274,109L277,106L277,105L275,103L275,98L275,98L275,94L275,94Z " data-fips="TU52" data-fips-="" data-iso3="TUR" data-name="Ordu"/><path d="M221,80L216,78L213,74L213,71L211,69L206,73L197,74L195,74L194,79L202,80L203,81L201,87L201,91L202,92L207,93L209,93L210,92L210,91L210,91L214,88L217,91L222,90L221,84L221,81L221,80Z " data-fips="TU57" data-fips-="" data-iso3="TUR" data-name="Sinop"/><path d="M289,115L287,115L285,116L280,111L277,105L277,106L274,109L270,111L268,110L267,108L266,110L263,113L253,116L251,116L248,122L245,123L242,124L237,125L238,127L240,130L237,136L234,140L233,141L234,141L241,144L243,144L248,145L250,144L256,145L257,147L254,158L254,159L257,158L259,158L260,159L260,159L265,158L266,157L271,152L270,148L273,147L277,145L284,142L286,141L286,140L285,135L286,133L284,129L286,124L287,122L284,122L284,120L291,119L291,118L291,116L289,115Z " data-fips="TU58" data-fips-="" data-iso3="TUR" data-name="Sivas"/><path d="M255,91L253,90L252,87L234,83L234,81L222,81L221,81L221,84L222,90L217,91L214,88L210,91L210,91L211,93L212,96L214,96L214,96L221,97L226,99L226,100L234,101L238,96L240,98L242,99L244,99L245,98L246,98L247,99L247,99L248,99L251,97L253,95L255,91L255,91Z " data-fips="TU55" data-fips-="" data-iso3="TUR" data-name="Samsun"/><path d="M247,99L246,98L245,98L244,99L242,99L241,100L243,102L242,107L240,108L238,111L231,110L228,116L225,117L225,119L226,121L235,120L236,121L237,125L237,125L242,124L245,123L248,122L251,116L253,116L263,113L266,110L267,108L266,106L266,105L263,105L258,103L254,103L250,101L247,100L247,99L247,99Z " data-fips="TU60" data-fips-="" data-iso3="TUR" data-name="Tokat"/><path d="M335,77L336,79L340,84L336,89L336,90L338,91L341,92L341,95L342,96L347,93L351,94L352,86L357,84L358,84L359,81L362,76L361,74L359,70L359,70L353,69L348,70L348,71L341,70L337,75L335,77Z " data-fips="TU08" data-fips-="" data-iso3="TUR" data-name="Artvin"/><path d="M367,108L367,107L361,104L359,102L359,101L362,99L366,96L365,91L359,85L358,84L357,84L352,86L351,94L347,93L342,96L341,95L341,92L338,91L336,90L334,91L333,93L330,94L330,96L327,97L324,99L325,100L327,106L332,107L325,113L322,113L321,114L322,116L326,116L329,120L330,120L330,124L330,125L332,125L338,125L342,127L343,128L346,127L349,128L355,132L360,129L363,123L367,121L367,121L368,120L368,114L365,113L363,111L365,111L368,109L368,108L367,108Z " data-fips="TU25" data-fips-="" data-iso3="TUR" data-name="Erzurum"/><path d="M318,112L317,113L315,114L314,115L313,116L309,118L305,119L302,118L300,117L295,116L294,115L294,116L292,116L291,116L291,118L291,119L284,120L284,122L287,122L286,124L284,129L286,133L285,135L286,140L286,141L287,142L289,142L290,142L291,142L293,144L293,143L294,143L293,142L295,137L295,135L298,132L304,130L306,130L316,127L318,127L327,125L329,125L330,125L330,124L330,120L329,120L326,116L322,116L321,114L322,113L318,112Z " data-fips="TU24" data-fips-="" data-iso3="TUR" data-name="Erzincan"/><path d="M336,89L340,84L336,79L335,77L335,77L332,80L328,81L323,86L322,85L320,87L322,92L324,95L324,97L324,99L327,97L330,96L330,94L333,93L334,91L336,90L336,89Z " data-fips="TU53" data-fips-="" data-iso3="TUR" data-name="Rize"/><path d="M319,88L310,89L309,89L304,88L302,87L296,88L295,88L295,92L295,93L296,95L296,96L297,97L301,99L306,100L310,99L311,100L311,100L312,99L314,100L318,101L324,99L324,99L324,97L324,95L322,92L320,87L319,88Z " data-fips="TU61" data-fips-="" data-iso3="TUR" data-name="Trabzon"/><path d="M368,108L368,109L365,111L363,111L365,113L368,114L368,120L367,121L368,123L371,126L373,127L373,132L373,133L374,133L375,132L376,132L376,131L380,129L382,128L383,121L386,120L392,122L394,121L398,121L401,120L401,120L403,117L405,118L407,116L408,110L408,110L403,111L398,112L392,110L390,108L385,110L383,105L378,106L372,109L368,108Z " data-fips="TU04" data-fips-="" data-iso3="TUR" data-name="Agri"/><path d="M342,127L338,125L332,125L330,125L329,125L328,126L322,131L319,132L320,138L320,139L324,135L326,134L327,135L325,141L328,144L326,150L327,153L328,154L330,154L332,150L340,149L346,145L347,145L346,144L344,141L346,136L343,129L343,128L342,127Z " data-fips="TU12" data-fips-="" data-iso3="TUR" data-name="Bingl"/><path d="M350,149L349,147L348,146L347,145L346,145L340,149L332,150L330,154L328,154L321,155L319,155L317,158L306,160L304,161L304,161L304,162L305,162L304,165L305,165L306,164L307,165L307,168L306,169L308,169L312,170L317,173L321,173L321,177L324,183L325,184L327,181L335,175L338,173L345,172L346,171L346,170L348,160L347,157L347,153L351,150L351,149L350,149Z " data-fips="TU21" data-fips-="" data-iso3="TUR" data-name="Diyarbakir"/><path d="M373,132L373,127L371,126L368,123L367,121L367,121L363,123L360,129L355,132L349,128L346,127L343,128L343,129L346,136L344,141L346,144L347,145L348,146L349,147L350,149L351,149L352,149L353,149L353,148L356,147L360,146L363,143L362,140L363,140L367,136L371,136L372,135L373,133L373,132Z " data-fips="TU49" data-fips-="" data-iso3="TUR" data-name="Mus"/><path d="M379,154L377,149L379,146L382,140L385,137L385,135L380,132L380,129L376,131L376,132L375,132L374,133L373,133L372,135L371,136L367,136L363,140L362,140L363,143L360,146L356,147L353,148L353,149L355,149L356,153L357,154L357,156L357,157L359,158L365,156L369,158L373,159L379,161L380,156L380,155L379,154Z " data-fips="TU13" data-fips-="" data-iso3="TUR" data-name="Bitlis"/><path d="M183,117L179,119L172,112L165,109L163,109L162,110L162,112L163,114L159,117L157,117L150,120L144,121L141,120L138,120L134,118L134,122L131,124L130,126L131,127L132,129L148,128L149,131L151,132L151,136L153,140L154,146L155,147L154,149L152,150L152,151L153,151L157,154L160,153L164,155L167,153L169,154L172,150L175,151L182,151L183,153L185,162L186,163L187,163L195,159L195,157L194,155L195,153L195,152L189,149L186,148L186,147L186,143L186,139L184,133L184,131L188,129L186,125L185,120L186,118L183,117Z " data-fips="TU68" data-fips-="" data-iso3="TUR" data-name="Ankara"/><path d="M193,103L188,101L189,97L180,101L172,97L171,97L170,98L168,98L167,100L164,100L159,101L158,102L158,102L162,105L163,108L163,109L165,109L172,112L179,119L183,117L186,118L191,119L193,119L195,118L197,115L194,108L195,105L193,103L193,103Z " data-fips="TU82" data-fips-="TU18" data-iso3="TUR" data-name="ankiri"/><path d="M165,79L155,85L155,86L149,89L145,92L142,93L140,95L140,98L139,98L143,101L150,101L156,101L158,102L159,101L164,100L167,100L168,98L170,98L171,97L170,94L172,91L171,87L169,87L165,79L165,79Z " data-fips="TU85" data-fips-="TU67" data-iso3="TUR" data-name="Zinguldak"/><path d="M185,162L183,153L182,151L175,151L172,150L169,154L167,153L164,155L160,153L157,154L153,151L152,151L152,152L151,152L151,153L150,153L148,153L148,155L149,156L147,161L147,165L143,169L140,171L140,173L148,180L144,182L145,188L142,192L143,196L142,198L143,199L145,200L153,201L157,204L162,209L164,209L164,212L166,213L167,215L167,217L169,215L172,212L173,209L171,209L170,206L178,195L180,194L186,194L188,193L191,190L193,190L195,193L200,199L202,201L202,202L203,201L207,199L207,198L210,197L210,196L209,195L207,193L208,187L202,181L201,179L200,179L195,181L187,182L184,180L182,175L182,173L185,164L186,163L185,162Z " data-fips="TU71" data-fips-="" data-iso3="TUR" data-name="Konya"/><path d="M202,201L200,199L195,193L193,190L191,190L188,193L186,194L180,194L178,195L170,206L171,209L173,209L172,212L169,215L167,217L168,219L169,221L171,222L172,223L173,223L181,221L183,220L178,214L178,213L187,207L197,205L201,203L202,202L202,201Z " data-fips="TU78" data-fips-="TU71" data-iso3="TUR" data-name="Karaman"/><path d="M111,162L107,160L104,160L102,163L100,164L94,163L93,164L93,165L89,168L90,176L91,177L93,177L98,178L106,175L106,172L108,171L108,171L109,168L111,167L111,166L111,164L111,162Z " data-fips="TU64" data-fips-="" data-iso3="TUR" data-name="Usak"/><path d="M282,186L280,185L277,186L275,186L275,187L275,189L266,192L263,195L259,193L257,195L256,196L255,197L252,202L252,203L253,205L256,206L256,206L256,207L260,208L264,209L265,211L276,208L281,206L285,204L285,204L284,199L282,198L281,193L280,192L284,187L284,187L282,186Z " data-fips="TU83" data-fips-="TU27" data-iso3="TUR" data-name="Gaziantep"/><path d="M306,169L305,169L302,173L302,176L301,180L296,181L294,184L290,185L284,187L284,187L284,187L280,192L281,193L282,198L284,199L285,204L287,202L291,201L301,206L307,205L310,205L322,202L331,197L332,196L329,192L326,187L325,184L324,183L321,177L321,173L317,173L312,170L308,169L306,169Z " data-fips="TU63" data-fips-="" data-iso3="TUR" data-name="Sanliurfa"/><path d="M249,166L246,163L242,166L239,173L232,179L226,179L224,179L223,180L223,183L221,186L216,186L216,187L217,190L215,194L216,195L216,196L219,203L222,204L223,210L220,212L220,212L228,216L235,215L236,211L234,211L240,208L241,207L240,205L242,203L251,204L252,203L252,202L255,197L256,196L257,195L256,193L254,192L247,192L246,191L247,180L247,177L248,168L250,167L249,166Z " data-fips="TU81" data-fips-="TU01" data-iso3="TUR" data-name="Adana"/><path d="M191,119L186,118L185,120L186,125L188,129L184,131L184,133L186,139L186,143L186,147L188,142L191,139L192,137L193,134L196,131L196,130L196,130L196,129L196,129L195,127L196,126L196,125L193,121L193,119L191,119Z " data-fips="TU79" data-fips-="TU40" data-iso3="TUR" data-name="Kinkkale"/><path d="M214,169L213,169L210,168L209,169L207,169L201,179L202,181L208,187L207,193L209,195L210,196L211,196L212,196L213,195L214,195L216,195L215,194L217,190L216,187L216,186L221,186L223,183L223,180L224,179L224,178L223,173L219,173L218,172L216,168L214,169Z " data-fips="TU73" data-fips-="" data-iso3="TUR" data-name="Nigde"/><path d="M201,155L198,156L195,154L195,153L194,155L195,157L195,159L187,163L186,163L185,164L182,173L182,175L184,180L187,182L195,181L200,179L201,179L207,169L207,168L205,167L205,163L201,162L202,158L201,156L201,155L201,155Z " data-fips="TU75" data-fips-="TU73" data-iso3="TUR" data-name="Aksaray"/><path d="M224,119L223,119L221,118L221,118L220,119L218,120L218,123L213,124L211,125L207,126L204,126L197,128L196,129L196,129L196,130L196,130L196,131L197,131L201,134L203,134L207,139L210,140L211,141L211,141L214,146L216,147L217,150L217,151L222,151L224,149L225,149L231,144L233,141L234,140L237,136L240,130L238,127L237,125L237,125L236,121L235,120L226,121L225,119L224,119Z " data-fips="TU66" data-fips-="" data-iso3="TUR" data-name="Yozgat"/><path d="M310,99L306,100L301,99L297,97L296,96L294,97L291,102L291,104L296,107L294,110L294,114L294,115L295,116L300,117L302,118L305,119L309,118L313,116L314,115L313,113L312,111L312,108L312,104L311,100L310,99Z " data-fips="TU69" data-fips-="" data-iso3="TUR" data-name="Gmshane"/><path d="M324,99L318,101L314,100L312,99L311,100L311,100L312,104L312,108L312,111L313,113L314,115L315,114L317,113L318,112L322,113L325,113L332,107L327,106L325,100L324,99L324,99Z " data-fips="TU77" data-fips-="TU69" data-iso3="TUR" data-name="Bayburt"/><path d="M359,70L361,74L362,76L359,81L358,84L359,85L365,91L366,96L362,99L359,101L359,102L361,104L367,107L367,108L368,108L372,109L378,106L383,105L385,110L390,108L392,110L398,112L403,111L408,110L408,110L411,107L411,105L406,101L403,100L390,101L390,98L387,95L386,91L387,88L388,84L385,79L375,73L374,71L367,67L366,65L361,66L360,70L359,70Z " data-fips="TU84" data-fips-="TU36" data-iso3="TUR" data-name="Kars"/><path d="M346,171L345,172L338,173L335,175L327,181L325,184L326,187L329,192L332,196L335,193L345,188L350,189L357,188L366,185L364,182L361,181L365,177L364,173L362,170L359,173L356,175L353,177L351,175L347,171L346,171Z " data-fips="TU72" data-fips-="" data-iso3="TUR" data-name="Mardin"/><path d="M357,156L357,154L356,153L355,149L353,149L352,149L351,149L351,150L347,153L347,157L348,160L346,170L346,171L347,171L351,175L353,177L356,175L359,173L362,170L359,168L355,167L353,165L353,162L355,161L356,158L357,157L357,156Z " data-fips="TU76" data-fips-="TU72" data-iso3="TUR" data-name="Batman"/><path d="M380,156L379,161L373,159L369,158L365,156L359,158L357,157L356,158L355,161L353,162L353,165L355,167L359,168L362,170L365,171L369,171L371,169L373,169L386,169L387,167L387,166L386,164L386,162L386,156L382,154L380,155L380,156Z " data-fips="TU74" data-fips-="" data-iso3="TUR" data-name="Siirt"/><path d="M387,166L387,167L386,169L373,169L371,169L369,171L365,171L362,170L364,173L365,177L361,181L364,182L366,185L368,184L372,179L375,181L377,184L380,181L382,177L391,175L395,175L396,176L396,174L396,171L395,167L394,164L394,165L390,164L388,164L387,166Z " data-fips="TU80" data-fips-="TU74" data-iso3="TUR" data-name="Sirnak"/><path d="M327,125L318,127L316,127L306,130L304,130L298,132L295,135L295,137L293,142L294,143L295,144L296,147L300,146L310,148L311,148L316,146L317,144L319,139L320,139L320,138L319,132L322,131L328,126L329,125L327,125Z " data-fips="TU62" data-fips-="" data-iso3="TUR" data-name="Tunceli"/><path d="M411,157L407,158L406,161L397,164L394,164L395,167L396,171L396,174L396,176L396,176L405,176L406,177L411,173L413,174L415,176L414,178L416,181L419,178L426,175L426,171L423,169L419,163L420,160L414,158L411,157L411,157Z " data-fips="TU70" data-fips-="" data-iso3="TUR" data-name="Hakkari"/><path d="M380,129L380,132L385,135L385,137L382,140L379,146L377,149L379,154L380,155L382,154L386,156L386,162L386,164L387,166L388,164L390,164L394,165L394,164L397,164L406,161L407,158L411,157L411,157L412,151L412,147L414,144L410,141L408,136L408,133L401,120L401,120L398,121L394,121L392,122L386,120L383,121L382,128L380,129Z " data-fips="TU65" data-fips-="" data-iso3="TUR" data-name="Van"/></g></svg>