<?xml version="1.0" encoding="UTF-8"?><!DOCTYPE svg  PUBLIC '-//W3C//DTD SVG 1.1//EN'  'http://www.w3.org/Graphics/SVG/1.1/DTD/svg11.dtd'><svg enable_background="new 0 0 450 451" height="451px" style="stroke-linejoin: round; stroke:#000; fill:#f6f3f0;" version="1.1" viewBox="0 0 450 451" width="450px" xmlns="http://www.w3.org/2000/svg" xmlns:xlink="http://www.w3.org/1999/xlink"><defs><style type="text/css"><![CDATA[path { fill-rule: evenodd; }
#context path { fill: #eee; stroke: #bbb; } ]]></style></defs><metadata><views><view h="451" padding="0.06" w="450"><proj id="laea" lat0="22.9791274076" lon0="120.64230829"/><bbox h="46.79" w="46.82" x="970.94" y="968.98"/><llbbox lat0="-90" lat1="90" lon0="-180" lon1="180"/></view></views></metadata><g id="context"><path d="M14,116L13,113L6,109L3,115L4,116L4,122L10,123L14,116Z M178,0L178,7L183,9L191,4L192,0L178,0Z M0,104L4,100L16,100L26,107L39,104L55,106L66,102L72,87L70,83L64,80L64,76L71,75L84,68L93,66L98,57L94,42L101,33L106,31L128,33L134,30L129,21L122,15L119,9L123,4L132,2L140,5L149,3L157,10L167,14L170,12L170,6L167,0L0,0L0,104Z " data-iso="CHN"/><path d="M38,113L31,119L25,118L26,123L41,126L43,121L38,113Z M319,340L336,322L351,299L357,287L361,275L370,245L375,216L381,193L384,170L387,161L397,143L407,113L407,100L405,88L406,79L410,70L417,61L415,51L409,45L396,40L391,36L386,31L381,25L373,25L366,29L357,39L328,51L322,54L314,67L307,80L300,91L292,101L278,120L227,211L224,218L223,233L225,248L223,259L219,270L217,277L218,284L222,291L226,298L235,329L239,339L245,349L251,356L261,361L273,371L275,377L283,395L284,410L290,419L301,423L304,410L305,397L305,383L307,369L313,354L319,340Z " data-iso="TWN"/></g><g fill="red" fill-opacity="0.35" id="regions"><path d="M320,243L318,240L316,239L314,239L306,243L303,246L300,251L296,252L291,257L286,260L281,260L280,261L280,268L280,268L280,271L275,277L271,284L260,296L256,303L253,305L247,308L240,307L234,306L232,305L230,302L230,302L227,303L228,309L231,314L231,320L235,327L236,329L240,326L246,325L246,328L245,331L248,337L247,340L245,342L244,347L245,348L245,351L240,345L245,352L251,356L253,356L254,356L257,348L257,345L256,341L256,338L259,330L258,323L261,314L268,315L271,314L274,311L278,309L283,312L286,309L289,309L295,315L298,312L302,312L302,312L304,312L303,310L300,305L299,302L300,298L303,295L305,292L305,288L307,282L306,278L306,275L309,274L310,272L309,269L310,267L317,261L324,260L323,259L322,256L317,252L317,250L320,248L321,246L320,243L320,243Z " data-fips="" data-fips-="" data-iso3="TWN" data-name="Kaohsiung"/><path d="M236,330L235,336L236,338L243,345L244,347L245,342L247,340L248,337L245,331L246,328L246,325L240,326L236,329L236,330Z " data-fips="TW02" data-fips-="" data-iso3="TWN" data-name="Kaohsiung City"/><path d="M302,312L298,312L295,315L289,309L286,309L283,312L278,309L274,311L271,314L268,315L261,314L258,323L259,330L256,338L256,341L257,345L257,348L254,356L254,357L259,360L263,362L266,365L268,367L277,379L285,400L284,404L284,412L286,416L287,421L290,418L296,420L299,422L301,425L300,415L305,410L305,407L305,385L303,386L299,384L297,382L295,374L291,370L296,364L293,359L291,349L291,343L295,334L297,332L306,329L307,327L309,319L304,317L304,315L302,312L302,312Z " data-fips="" data-fips-="" data-iso3="TWN" data-name="Pingtung"/><path d="M277,268L270,269L267,265L268,259L267,256L263,252L260,247L257,246L247,248L235,256L233,258L231,260L224,258L223,259L221,261L218,269L219,274L216,276L216,277L219,281L216,282L220,283L219,285L218,285L223,287L228,285L234,286L235,289L234,292L236,297L235,299L230,302L230,302L232,305L234,306L240,307L247,308L253,305L256,303L260,296L271,284L275,277L280,271L280,268L277,268Z " data-fips="" data-fips-="" data-iso3="TWN" data-name="Tainan"/><path d="M235,299L236,297L234,292L235,289L234,286L228,285L223,287L218,285L217,285L216,286L215,290L216,291L219,289L221,289L222,294L223,294L225,291L227,291L228,294L227,296L225,297L227,301L227,303L230,302L235,299Z " data-fips="" data-fips-="" data-iso3="TWN" data-name="Tainan City"/><path d="M314,91L317,87L322,85L323,83L318,79L309,76L308,76L307,78L304,87L304,88L310,92L311,93L313,92L313,92L314,91Z " data-fips="" data-fips-="" data-iso3="TWN" data-name="Hsinchu city"/><path d="M360,105L356,102L353,102L349,99L348,97L350,94L351,91L350,86L343,81L334,76L335,74L333,72L325,69L323,65L321,64L316,65L315,64L314,65L313,70L311,71L309,76L309,76L318,79L323,83L322,85L317,87L314,91L313,92L315,97L319,100L324,103L326,104L326,106L325,117L327,118L335,117L340,115L342,117L346,123L346,125L346,125L351,125L352,125L354,121L359,115L361,112L361,109L362,106L360,105Z " data-fips="" data-fips-="" data-iso3="TWN" data-name="Hsinchu"/><path d="M370,96L368,96L366,98L368,103L367,105L362,105L362,106L361,109L361,112L359,115L354,121L352,125L353,125L354,129L359,132L365,131L367,132L368,133L371,135L380,137L383,137L385,135L386,133L388,133L395,137L400,138L400,138L401,133L402,129L402,125L405,122L408,119L407,116L410,113L409,108L408,106L411,105L407,103L405,100L406,93L405,87L405,78L407,73L415,64L417,62L422,59L420,58L418,59L413,61L408,62L408,67L403,69L402,71L396,75L391,79L382,83L381,85L382,89L374,94L372,95L370,96Z " data-fips="" data-fips-="" data-iso3="TWN" data-name="Ilan"/><path d="M395,40L393,39L392,39L392,38L391,38L385,41L388,45L392,49L398,51L401,49L399,47L399,41L395,40Z " data-fips="" data-fips-="" data-iso3="TWN" data-name="Keelung City"/><path d="M313,92L311,93L310,92L304,88L304,89L299,96L299,98L296,97L292,99L288,104L286,105L284,109L282,113L280,120L277,123L281,129L291,138L297,139L302,142L307,142L309,141L309,138L312,136L316,137L318,138L320,140L322,141L329,138L340,130L344,129L345,126L346,125L346,123L342,117L340,115L335,117L327,118L325,117L326,106L326,104L324,103L319,100L315,97L313,92L313,92Z " data-fips="" data-fips-="" data-iso3="TWN" data-name="Miaoli"/><path d="M384,61L388,55L385,53L385,48L383,45L380,37L378,34L371,38L367,44L371,48L372,50L371,53L373,56L378,61L380,62L384,61Z " data-fips="TW03" data-fips-="TW04" data-iso3="TWN" data-name="Taipei"/><path d="M391,37L387,35L386,32L382,26L380,25L375,24L371,25L367,27L364,30L360,37L365,42L364,43L362,40L357,40L353,43L348,44L350,45L356,49L359,50L361,53L360,58L355,60L353,61L353,68L355,71L355,75L357,77L363,77L366,82L364,86L365,90L369,94L370,96L372,95L374,94L382,89L381,85L382,83L391,79L396,75L402,71L403,69L408,67L408,62L413,61L418,59L420,58L422,59L426,57L425,56L420,55L417,56L415,54L414,50L415,45L413,44L399,41L399,47L401,49L398,51L392,49L388,45L385,41L391,38L391,37Z M384,61L380,62L378,61L373,56L371,53L372,50L371,48L367,44L371,38L378,34L380,37L383,45L385,48L385,53L388,55L384,61Z " data-fips="TW03" data-fips-="" data-iso3="TWN" data-name="Taipei City"/><path d="M369,94L365,90L364,86L366,82L363,77L357,77L355,75L355,71L353,68L353,61L355,60L360,58L361,53L359,50L356,49L350,45L348,44L340,45L337,46L332,50L324,52L321,55L318,58L315,64L316,65L321,64L323,65L325,69L333,72L335,74L334,76L343,81L350,86L351,91L350,94L348,97L349,99L353,102L356,102L360,105L362,106L362,105L367,105L368,103L366,98L368,96L370,96L369,94Z " data-fips="" data-fips-="" data-iso3="TWN" data-name="Taoyuan"/><path d="M282,174L278,172L275,165L273,164L269,162L267,160L266,157L261,152L257,158L252,168L251,169L247,174L244,181L240,188L238,191L236,195L236,196L239,198L248,197L259,199L267,200L272,203L279,204L280,203L281,203L283,201L284,200L278,197L278,194L280,179L280,178L282,176L282,174L282,174Z " data-fips="" data-fips-="" data-iso3="TWN" data-name="Changhwa"/><path d="M290,222L290,226L280,227L278,224L273,226L267,224L263,219L260,220L252,221L245,225L239,230L237,230L234,235L231,235L228,233L223,234L224,236L224,242L225,242L224,245L226,248L224,254L223,256L225,256L224,258L224,258L231,260L233,258L235,256L247,248L257,246L260,247L263,252L267,256L268,259L267,265L270,269L277,268L280,268L280,268L280,261L281,260L286,260L291,257L296,252L300,251L303,246L306,243L314,239L314,239L303,239L300,238L298,230L299,225L292,223L290,222L290,222Z M262,241L259,242L256,242L250,239L250,237L252,235L259,234L264,237L265,240L262,241Z " data-fips="" data-fips-="" data-iso3="TWN" data-name="Chiayi"/><path d="M262,241L265,240L264,237L259,234L252,235L250,237L250,239L256,242L259,242L262,241Z " data-fips="" data-fips-="" data-iso3="TWN" data-name="Chiayi city"/><path d="M367,132L365,134L364,139L361,141L355,149L355,149L356,151L356,153L349,156L349,160L353,163L353,166L350,170L347,178L348,184L348,188L344,198L344,200L341,204L345,212L344,216L342,223L337,226L335,228L335,231L333,233L327,234L324,236L324,241L323,242L320,243L321,246L320,248L317,250L317,252L322,256L323,259L324,260L324,263L326,266L332,268L334,270L339,271L343,278L348,282L351,282L354,281L354,276L359,264L360,261L364,253L363,247L364,245L369,243L370,243L375,217L377,213L380,196L382,189L384,183L386,173L384,169L384,166L387,161L391,153L393,150L394,148L396,147L400,138L400,138L395,137L388,133L386,133L385,135L383,137L380,137L371,135L368,133L367,132Z " data-fips="" data-fips-="" data-iso3="TWN" data-name="Hualien"/><path d="M349,148L346,148L341,150L336,150L328,154L325,157L320,158L316,162L312,159L309,163L302,163L299,164L295,173L291,176L284,174L282,174L282,176L280,178L280,179L278,194L278,197L284,200L283,201L281,203L280,203L281,206L279,211L280,215L279,219L280,221L283,222L289,221L290,222L292,223L299,225L298,230L300,238L303,239L314,239L314,239L316,239L318,240L320,243L320,243L323,242L324,241L324,236L327,234L333,233L335,231L335,228L337,226L342,223L344,216L345,212L341,204L344,200L344,198L348,188L348,184L347,178L350,170L353,166L353,163L349,160L349,156L356,153L356,151L355,149L349,148Z " data-fips="" data-fips-="" data-iso3="TWN" data-name=""/><path d="M345,126L344,129L340,130L329,138L322,141L320,140L318,138L316,137L312,136L309,138L309,141L307,142L302,142L297,139L291,138L281,129L277,123L272,129L270,131L269,135L265,142L264,147L261,152L261,152L266,157L267,160L269,162L273,164L275,165L278,172L282,174L282,174L284,174L291,176L295,173L299,164L302,163L309,163L312,159L316,162L320,158L325,157L328,154L336,150L341,150L346,148L349,148L355,149L355,149L361,141L364,139L365,134L367,132L365,131L359,132L354,129L353,125L352,125L351,125L346,125L346,125L345,126Z M296,152L296,156L295,157L287,158L282,163L281,163L272,159L273,156L274,152L276,152L283,152L287,154L290,151L293,151L296,152Z " data-fips="" data-fips-="" data-iso3="TWN" data-name="Taichung"/><path d="M296,152L293,151L290,151L287,154L283,152L276,152L274,152L273,156L272,159L281,163L282,163L287,158L295,157L296,156L296,152Z " data-fips="" data-fips-="" data-iso3="TWN" data-name="Taichung City"/><path d="M279,204L272,203L267,200L259,199L248,197L239,198L236,196L236,197L230,203L229,208L223,219L222,224L223,232L223,234L228,233L231,235L234,235L237,230L239,230L245,225L252,221L260,220L263,219L267,224L273,226L278,224L280,227L290,226L290,222L290,222L289,221L283,222L280,221L279,219L280,215L279,211L281,206L280,203L279,204Z " data-fips="" data-fips-="" data-iso3="TWN" data-name="Yunlin"/><path d="M383,412L380,408L381,404L372,404L373,408L381,412L383,412Z M373,338L372,333L368,333L370,337L373,338Z M370,243L369,243L364,245L363,247L364,253L360,261L359,264L354,276L354,281L351,282L348,282L343,278L339,271L334,270L332,268L326,266L324,263L324,260L317,261L310,267L309,269L310,272L309,274L306,275L306,278L307,282L305,288L305,292L303,295L300,298L299,302L300,305L303,310L304,312L302,312L304,315L304,317L309,319L307,327L306,329L297,332L295,334L291,343L291,349L293,359L296,364L291,370L295,374L297,382L299,384L303,386L305,385L305,379L306,370L310,363L312,356L313,351L323,335L327,330L334,326L338,321L339,317L339,315L340,312L346,307L351,300L353,292L357,284L359,283L362,278L362,270L363,265L368,254L370,243Z " data-fips="" data-fips-="" data-iso3="TWN" data-name="Taitung"/><path d="M167,224L168,223L161,227L165,230L163,231L159,230L158,231L164,233L166,232L167,229L171,228L174,230L174,229L171,223L171,225L167,224Z M151,228L154,227L154,225L155,221L155,218L154,219L152,226L149,228L151,228Z M165,221L166,217L163,214L160,216L165,221Z " data-fips="" data-fips-="" data-iso3="TWN" data-name="Penghu"/><path d="M44,120L41,115L39,113L33,120L32,120L28,118L25,119L26,121L25,127L26,128L34,125L36,125L40,127L41,126L44,120Z " data-fips="" data-fips-="" data-iso3="TWN" data-name="Chinmen"/></g></svg>