<?xml version="1.0" encoding="UTF-8"?><!DOCTYPE svg  PUBLIC '-//W3C//DTD SVG 1.1//EN'  'http://www.w3.org/Graphics/SVG/1.1/DTD/svg11.dtd'><svg enable_background="new 0 0 450 301" height="301px" style="stroke-linejoin: round; stroke:#000; fill:#f6f3f0;" version="1.1" viewBox="0 0 450 301" width="450px" xmlns="http://www.w3.org/2000/svg" xmlns:xlink="http://www.w3.org/1999/xlink"><defs><style type="text/css"><![CDATA[path { fill-rule: evenodd; }
#context path { fill: #eee; stroke: #bbb; } ]]></style></defs><metadata><views><view h="301.0" padding="0.06" w="450"><proj id="laea" lat0="-8.29238758732" lon0="33.7439010556"/><bbox h="148.87" w="152.07" x="937.45" y="901.85"/><llbbox lat0="-90" lat1="90" lon0="-180" lon1="180"/></view></views></metadata><g id="context"><path d="M118,51L115,49L107,52L103,50L102,59L98,61L90,62L88,58L85,57L81,58L81,60L81,61L81,62L86,68L86,84L90,99L91,102L98,103L104,99L109,93L112,87L114,86L116,81L121,77L121,75L125,71L124,66L116,63L116,58L118,52L119,51L118,51Z " data-iso="BDI"/><path d="M125,195L124,193L116,177L114,171L108,163L99,156L94,149L93,140L96,134L89,116L89,114L91,104L91,102L90,99L86,84L86,68L81,62L81,61L81,60L78,59L77,53L77,52L84,47L89,30L94,27L94,27L95,26L95,9L96,5L96,0L0,0L0,285L12,289L28,290L33,288L35,282L38,280L40,285L45,289L46,292L50,297L60,299L85,298L70,285L67,277L68,274L71,260L74,257L73,236L71,228L67,222L79,210L80,208L79,203L81,202L120,196L125,195Z M102,299L102,293L95,295L95,299L102,299Z " data-iso="COD"/><path d="M434,290L432,283L432,277L429,278L428,286L430,288L434,290Z " data-iso="COM"/><path d="M202,17L204,17L295,68L295,74L295,79L297,82L332,108L333,109L333,108L337,107L340,104L348,86L349,81L353,76L356,73L358,68L357,63L363,56L369,56L373,52L375,46L375,43L378,41L384,41L387,39L391,35L391,32L377,15L378,0L202,0L202,2L202,12L202,17Z " data-iso="KEN"/><path d="M362,252L350,261L346,263L336,266L334,268L330,269L325,269L321,271L313,275L309,273L299,272L297,277L295,279L290,281L286,282L274,279L269,281L265,282L257,281L251,276L248,276L244,279L233,279L227,279L224,279L219,281L218,285L214,299L362,299L362,294L362,291L360,282L362,270L363,267L363,264L365,262L362,260L365,257L363,255L362,252Z M222,292L221,289L221,289L222,292Z M220,289L217,290L218,289L220,289Z " data-iso="MOZ"/><path d="M222,292L221,289L221,289L222,292Z M220,289L218,289L217,290L220,289Z M227,279L227,278L225,273L222,272L219,265L220,261L220,255L218,253L218,245L216,238L212,233L206,228L204,227L203,231L190,230L188,228L183,227L178,225L178,225L178,225L183,230L187,235L187,240L193,245L193,248L191,259L186,262L189,268L185,275L187,281L186,292L192,299L214,299L218,285L219,281L224,279L227,279Z " data-iso="MWI"/><path d="M117,18L113,20L105,28L102,28L101,26L95,27L94,27L94,27L89,30L84,47L77,52L77,53L78,59L81,60L81,58L85,57L88,58L90,62L98,61L102,59L103,50L107,52L115,49L118,51L119,51L120,51L126,48L127,45L125,38L125,31L118,22L117,19L118,18L117,18Z " data-iso="RWA"/><path d="M394,32L396,29L402,17L408,12L418,0L378,0L377,15L391,32L391,35L394,32Z " data-iso="SOM"/><path d="M344,190L347,189L349,184L348,184L342,189L344,190Z M340,146L337,140L335,134L332,139L332,145L333,148L338,150L338,152L340,146Z M349,114L344,115L345,119L344,126L346,128L347,126L349,114Z M118,18L117,19L118,22L125,31L125,38L127,45L126,48L120,51L119,51L118,52L116,58L116,63L124,66L125,71L121,75L121,77L116,81L114,86L112,87L109,93L104,99L98,103L91,102L91,104L89,114L89,116L96,134L93,140L94,149L99,156L108,163L114,171L116,177L124,193L125,195L125,197L128,202L133,205L139,205L149,212L151,212L161,218L166,219L167,220L176,224L178,225L178,225L183,227L188,228L190,230L203,231L204,227L206,228L212,233L216,238L218,245L218,253L220,255L220,261L219,265L222,272L225,273L227,278L227,279L233,279L244,279L248,276L251,276L257,281L265,282L269,281L274,279L286,282L290,281L295,279L297,277L299,272L309,273L313,275L321,271L325,269L330,269L334,268L336,266L346,263L350,261L362,252L361,252L360,250L353,245L350,245L347,241L344,241L345,239L343,230L342,226L342,221L338,214L334,202L338,191L337,186L334,186L334,179L340,169L341,167L339,163L334,161L333,158L324,149L323,143L323,138L327,129L333,111L333,109L332,108L297,82L295,79L295,74L295,68L204,17L202,17L199,17L125,17L118,18L118,18Z " data-iso="TZA"/><path d="M94,27L95,27L101,26L102,28L105,28L113,20L117,18L118,18L118,18L125,17L199,17L202,17L202,12L202,2L202,0L96,0L96,5L95,9L95,26L94,27Z " data-iso="UGA"/><path d="M178,225L176,224L167,220L166,219L161,218L151,212L149,212L139,205L133,205L128,202L125,197L125,195L120,196L81,202L79,203L80,208L79,210L67,222L71,228L73,236L74,257L71,260L68,274L67,277L70,285L85,298L95,299L95,295L102,293L102,299L192,299L186,292L187,281L185,275L189,268L186,262L191,259L193,248L193,245L187,240L187,235L183,230L178,225L178,225Z M0,299L60,299L50,297L46,292L45,289L40,285L38,280L35,282L33,288L28,290L12,289L0,285L0,299Z " data-iso="ZMB"/></g><g fill="red" fill-opacity="0.35" id="regions"><path d="M169,168L167,168L162,170L160,177L157,178L155,184L155,185L162,188L173,200L174,202L171,201L169,199L167,195L164,197L163,197L162,204L156,208L157,212L159,214L159,217L159,217L161,218L165,218L178,225L179,224L183,227L187,227L190,230L198,229L201,232L204,227L205,227L206,227L200,220L199,215L202,212L207,211L217,210L222,207L222,205L221,201L224,197L227,193L230,191L227,188L213,185L200,185L203,178L203,177L202,177L199,173L197,172L192,164L192,164L186,164L181,162L175,164L170,168L169,168Z " data-fips="TZ09" data-fips-="" data-iso3="TZA" data-name="Mbeya"/><path d="M106,161L113,169L115,173L117,180L122,188L125,197L128,202L133,205L137,206L139,205L144,207L144,210L154,213L154,216L159,216L159,217L159,214L157,212L156,208L162,204L163,197L164,197L167,195L169,199L171,201L174,202L173,200L162,188L155,185L155,184L157,178L160,177L162,170L167,168L169,168L169,165L169,158L173,152L172,150L167,149L161,143L159,141L156,135L150,133L147,136L141,136L136,134L134,135L132,129L132,128L131,126L122,120L116,121L112,124L106,124L108,129L110,138L113,145L115,147L115,150L113,152L112,155L105,161L106,161Z " data-fips="TZ24" data-fips-="" data-iso3="TZA" data-name="Rukwa"/><path d="M335,147L337,150L337,150L339,152L341,152L340,144L338,146L338,143L337,141L337,141L337,141L336,142L334,142L334,143L334,143L335,147L335,147Z " data-fips="TZ21" data-fips-="" data-iso3="TZA" data-name="Zanzibar South and Central"/><path d="M203,46L202,46L199,44L197,44L194,46L188,45L185,43L189,41L192,42L194,41L191,39L187,37L190,34L191,29L188,28L173,28L172,28L152,45L148,46L148,49L151,56L150,59L153,63L153,71L152,71L154,71L157,71L161,72L163,74L165,72L168,72L168,75L169,76L172,74L177,73L182,77L185,74L190,73L192,66L192,62L195,60L197,61L199,59L195,56L196,53L202,54L203,48L204,46L203,46Z " data-fips="TZ12" data-fips-="" data-iso3="TZA" data-name="Mwanza"/><path d="M221,53L210,47L208,46L205,45L204,46L203,48L202,54L196,53L195,56L199,59L197,61L195,60L192,62L192,66L190,73L185,74L182,77L177,73L172,74L169,76L168,75L168,72L165,72L163,74L161,72L157,71L154,71L152,71L151,71L149,73L147,71L137,73L135,76L135,77L135,78L135,82L139,88L139,91L138,94L140,98L140,100L141,99L143,97L147,96L147,92L154,94L154,100L156,101L160,99L165,100L166,97L168,95L169,98L172,97L173,92L176,89L181,90L194,88L204,91L209,92L211,92L211,92L212,91L214,90L221,87L222,86L223,86L223,85L224,83L226,81L227,63L232,64L234,56L234,53L221,53Z " data-fips="TZ15" data-fips-="" data-iso3="TZA" data-name="Shinyanga"/><path d="M211,92L209,92L204,91L194,88L181,90L176,89L173,92L172,97L169,98L168,95L166,97L165,100L160,99L156,101L154,100L154,94L147,92L147,96L143,97L141,99L140,100L140,101L142,106L140,109L140,112L137,114L135,120L134,128L132,128L132,129L134,135L136,134L141,136L147,136L150,133L156,135L159,141L161,143L167,149L172,150L173,152L169,158L169,165L169,168L170,168L175,164L181,162L186,164L192,164L193,162L192,156L201,150L205,146L204,142L207,133L206,130L210,125L204,120L203,120L202,117L203,115L202,112L203,109L203,103L207,97L211,93L211,92L211,92Z " data-fips="TZ17" data-fips-="" data-iso3="TZA" data-name="Tabora"/><path d="M125,66L129,62L131,64L132,67L130,71L133,72L134,76L135,77L135,76L137,73L147,71L149,73L151,71L152,71L153,71L153,63L150,59L151,56L148,49L148,46L152,45L172,28L173,17L154,17L123,17L121,19L117,18L119,24L123,27L124,31L126,33L125,42L127,43L126,50L124,51L122,50L118,53L118,58L115,63L126,66L125,66Z " data-fips="TZ19" data-fips-="" data-iso3="TZA" data-name="Kagera"/><path d="M125,66L125,72L120,75L120,77L116,82L113,86L109,93L105,98L99,102L91,103L91,104L89,112L90,118L92,122L93,126L96,131L95,137L93,139L94,148L97,152L98,155L103,159L105,161L112,155L113,152L115,150L115,147L113,145L110,138L108,129L106,124L112,124L116,121L122,120L131,126L132,128L134,128L135,120L137,114L140,112L140,109L142,106L140,101L140,100L140,98L138,94L139,91L139,88L135,82L135,78L135,77L134,76L133,72L130,71L132,67L131,64L129,62L125,66L125,66Z " data-fips="TZ05" data-fips-="" data-iso3="TZA" data-name="Kigoma"/><path d="M338,171L341,168L339,163L336,162L330,155L330,155L328,161L329,163L328,167L333,165L336,165L337,167L338,171L338,171Z " data-fips="TZ23" data-fips-="" data-iso3="TZA" data-name="Dar-Es-Salaam"/><path d="M280,137L276,140L275,141L274,142L275,149L272,152L269,160L269,164L266,169L266,174L265,175L266,177L273,180L276,183L272,189L270,190L264,189L258,195L256,196L252,200L251,203L246,206L244,209L239,207L237,207L237,211L238,215L239,215L241,217L245,221L246,222L246,223L247,223L251,220L251,226L250,229L246,233L247,235L251,235L255,232L256,233L263,232L264,229L267,234L265,239L267,239L279,229L281,229L283,223L286,215L285,210L287,206L287,203L292,196L297,189L298,189L298,189L299,185L301,180L311,179L310,174L315,167L315,165L312,165L310,163L310,158L308,158L303,157L303,155L304,153L304,149L303,146L301,144L299,139L298,138L298,139L294,140L288,135L287,139L282,143L280,140L280,137Z " data-fips="TZ10" data-fips-="" data-iso3="TZA" data-name="Morogoro"/><path d="M349,121L348,117L349,116L349,114L344,115L344,118L346,120L346,121L347,121L348,122L349,121L349,121Z " data-fips="TZ13" data-fips-="" data-iso3="TZA" data-name="Kaskazini-Pemba"/><path d="M346,121L344,124L343,127L347,126L349,122L349,121L348,122L347,121L346,121L346,121Z " data-fips="TZ20" data-fips-="" data-iso3="TZA" data-name="Kusini-Pemba"/><path d="M349,185L347,185L344,186L343,189L343,191L347,189L349,185Z M298,138L299,139L301,144L303,146L304,149L304,153L303,155L303,157L308,158L310,158L310,163L312,165L315,165L315,167L310,174L311,179L301,180L299,185L298,189L298,189L301,192L308,194L315,200L315,203L317,203L319,200L331,198L334,199L334,199L338,192L338,186L334,185L334,181L335,174L338,171L338,171L337,167L336,165L333,165L328,167L329,163L328,161L330,155L330,154L325,152L325,151L322,141L323,140L317,141L305,137L302,137L298,138Z " data-fips="TZ02" data-fips-="" data-iso3="TZA" data-name="Pwani"/><path d="M337,141L335,135L333,139L332,141L332,142L332,142L333,142L334,142L336,142L337,141L337,141L337,141Z " data-fips="TZ22" data-fips-="" data-iso3="TZA" data-name="Kaskazini-Unguja"/><path d="M333,142L332,142L332,142L332,143L333,147L334,149L335,147L335,147L334,143L334,143L334,142L333,142Z " data-fips="TZ25" data-fips-="" data-iso3="TZA" data-name="Zanzibar West"/><path d="M273,140L268,134L266,134L259,126L259,123L261,119L262,113L261,103L261,96L255,97L246,103L242,112L238,112L237,112L237,113L237,114L231,118L232,123L233,126L237,132L234,139L233,144L234,156L233,158L230,158L231,161L231,163L233,165L241,164L243,165L253,168L258,169L261,173L265,174L265,175L266,174L266,169L269,164L269,160L272,152L275,149L274,142L275,141L273,140Z " data-fips="TZ03" data-fips-="" data-iso3="TZA" data-name="Dodoma"/><path d="M230,163L227,162L222,169L215,171L211,173L210,173L205,176L203,177L203,178L200,185L213,185L227,188L230,191L227,193L224,197L221,201L222,205L222,207L217,210L207,211L202,212L199,215L200,220L206,227L206,227L209,230L217,240L218,247L218,253L218,253L221,252L228,247L229,245L231,244L234,241L234,232L237,230L245,224L246,223L246,222L245,221L241,217L239,215L238,215L237,211L237,207L239,207L244,209L246,206L251,203L252,200L256,196L258,195L264,189L270,190L272,189L276,183L273,180L266,177L265,175L265,174L261,173L258,169L253,168L243,165L241,164L233,165L231,163L230,163Z " data-fips="TZ04" data-fips-="" data-iso3="TZA" data-name="Iringa"/><path d="M298,189L297,189L292,196L287,203L287,206L285,210L286,215L283,223L281,229L281,230L274,239L274,244L275,245L281,247L295,251L297,252L300,258L301,260L306,260L309,256L316,254L323,254L330,250L332,252L336,249L338,250L341,255L342,252L344,248L350,245L350,244L348,242L346,240L343,242L344,239L346,237L342,227L342,220L339,215L337,212L339,213L336,206L334,199L334,199L331,198L319,200L317,203L315,203L315,200L308,194L301,192L298,189Z " data-fips="TZ07" data-fips-="" data-iso3="TZA" data-name="Lindi"/><path d="M350,245L344,248L342,252L341,255L338,250L336,249L332,252L330,250L323,254L316,254L309,256L306,260L301,260L302,265L304,271L304,271L304,271L308,272L311,274L314,275L318,271L324,269L333,269L338,265L340,265L350,261L361,253L358,248L356,246L350,244L350,245L350,245Z " data-fips="TZ11" data-fips-="" data-iso3="TZA" data-name="Mtwara"/><path d="M246,223L245,224L237,230L234,232L234,241L231,244L229,245L228,247L221,252L218,253L218,253L220,259L219,265L221,269L223,273L226,275L228,278L242,279L244,279L248,275L250,275L256,279L258,282L262,281L269,282L272,280L277,279L280,281L287,283L292,281L297,278L298,273L303,271L304,271L304,271L302,265L301,260L300,258L297,252L295,251L281,247L275,245L274,244L274,239L281,230L281,229L279,229L267,239L265,239L267,234L264,229L263,232L256,233L255,232L251,235L247,235L246,233L250,229L251,226L251,220L247,223L246,223Z " data-fips="TZ14" data-fips-="" data-iso3="TZA" data-name="Ruvuma"/><path d="M225,87L223,86L222,86L221,87L214,90L212,91L211,92L211,93L207,97L203,103L203,109L202,112L203,115L202,117L203,120L204,120L210,125L206,130L207,133L204,142L205,146L201,150L192,156L193,162L192,164L192,164L197,172L199,173L202,177L203,177L205,176L210,173L211,173L215,171L222,169L227,162L230,163L231,163L231,161L230,158L233,158L234,156L233,144L234,139L237,132L233,126L232,123L231,118L237,114L237,113L237,112L236,111L234,109L232,107L226,100L229,93L227,90L226,89L225,87Z " data-fips="TZ16" data-fips-="" data-iso3="TZA" data-name="Singida"/><path d="M280,78L280,74L276,68L276,66L282,63L289,64L235,34L235,44L237,46L235,50L234,53L234,56L232,64L227,63L226,81L224,83L223,85L223,86L225,87L226,89L227,88L238,82L242,83L242,85L243,83L248,81L248,87L251,83L254,85L260,94L267,93L267,85L270,81L277,80L279,79L280,78Z " data-fips="TZ26" data-fips-="TZ01" data-iso3="TZA" data-name="Arusha"/><path d="M280,78L279,79L277,80L270,81L267,85L267,93L260,94L254,85L251,83L248,87L248,81L243,83L242,85L242,83L238,82L227,88L226,89L227,90L229,93L226,100L232,107L234,109L236,111L237,112L238,112L242,112L246,103L255,97L261,96L261,103L262,113L261,119L259,123L259,126L266,134L268,134L273,140L275,141L276,140L280,137L283,135L284,130L287,127L288,121L293,115L297,116L301,115L304,116L303,112L303,108L304,107L303,106L297,106L292,102L291,95L291,94L290,89L290,87L288,83L283,78L281,78L280,78Z " data-fips="TZ06" data-fips-="TZ01|TZ27" data-iso3="TZA" data-name="Manyara"/><path d="M280,78L281,78L283,78L288,83L290,87L290,89L291,94L291,95L292,102L297,106L303,106L304,107L305,106L313,94L298,83L296,79L293,77L295,68L289,64L282,63L276,66L276,68L280,74L280,78Z " data-fips="TZ06" data-fips-="" data-iso3="TZA" data-name="Kilimanjaro"/><path d="M206,17L204,17L190,17L176,17L173,17L172,28L173,28L188,28L191,29L190,34L187,37L191,39L194,41L192,42L189,41L185,43L188,45L194,46L197,44L199,44L202,46L203,46L204,46L205,45L208,46L210,47L221,53L234,53L235,50L237,46L235,44L235,34L206,17Z " data-fips="TZ08" data-fips-="" data-iso3="TZA" data-name="Mara"/><path d="M323,140L323,136L325,134L329,125L329,122L331,119L330,118L333,113L332,111L332,108L313,94L305,106L304,107L303,108L303,112L304,116L301,115L297,116L293,115L288,121L287,127L284,130L283,135L280,137L280,140L282,143L287,139L288,135L294,140L298,139L298,138L302,137L305,137L317,141L323,140L323,140Z " data-fips="TZ18" data-fips-="" data-iso3="TZA" data-name="Tanga"/></g></svg>