<?xml version="1.0" encoding="UTF-8"?><!DOCTYPE svg  PUBLIC '-//W3C//DTD SVG 1.1//EN'  'http://www.w3.org/Graphics/SVG/1.1/DTD/svg11.dtd'><svg enable_background="new 0 0 450 301" height="301px" style="stroke-linejoin: round; stroke:#000; fill:#f6f3f0;" version="1.1" viewBox="0 0 450 301" width="450px" xmlns="http://www.w3.org/2000/svg" xmlns:xlink="http://www.w3.org/1999/xlink"><defs><style type="text/css"><![CDATA[path { fill-rule: evenodd; }
#context path { fill: #eee; stroke: #bbb; } ]]></style></defs><metadata><views><view h="301.0" padding="0.06" w="450"><proj id="laea" lat0="-0.564616387286" lon0="32.4167090184"/><bbox h="78.36" w="75.42" x="960.56" y="936.93"/><llbbox lat0="-90" lat1="90" lon0="-180" lon1="180"/></view></views></metadata><g id="context"><path d="M0,0L0,299L78,299L87,286L90,285L96,281L98,279L98,278L97,260L99,247L101,239L101,235L104,217L104,209L107,206L109,202L115,191L114,182L115,176L120,173L126,168L129,162L133,158L140,156L140,155L137,155L136,153L139,149L140,145L143,142L146,140L150,135L151,134L159,127L162,124L164,123L173,116L177,113L177,112L173,107L169,106L163,101L157,101L152,98L152,95L154,88L158,80L157,76L153,71L155,65L161,54L160,51L157,50L156,48L154,43L151,43L146,43L144,42L142,33L138,31L127,27L112,10L108,3L105,0L91,0L89,2L82,7L78,7L74,5L68,3L58,2L49,8L44,10L41,11L33,9L28,6L22,0L0,0Z " data-iso="COD"/><path d="M450,0L398,0L401,4L404,5L442,6L450,11L450,0Z " data-iso="ETH"/><path d="M320,0L314,6L305,15L312,31L314,35L319,38L325,40L327,44L325,53L327,65L331,67L334,76L342,86L344,91L349,97L348,100L349,109L351,117L352,126L352,137L343,149L344,154L340,157L337,158L329,165L325,173L320,180L319,182L314,186L311,190L310,196L308,200L305,204L305,204L305,210L305,213L306,215L307,217L309,218L312,218L312,218L311,220L312,222L317,226L320,231L321,231L323,229L324,226L326,223L331,221L340,218L344,227L344,228L339,229L333,230L329,231L328,231L329,236L328,237L326,238L324,236L322,236L319,235L316,235L314,236L310,241L309,244L309,248L311,252L314,255L313,258L312,260L309,261L309,263L309,263L332,276L373,299L450,299L450,11L442,6L404,5L401,4L398,0L320,0Z " data-iso="KEN"/><path d="M142,264L140,264L133,267L131,270L123,279L117,282L112,282L110,277L99,279L98,279L96,281L90,285L87,286L78,299L156,299L157,294L156,288L154,283L151,280L148,278L142,271L140,267L140,265L142,264Z " data-iso="RWA"/><path d="M157,50L159,47L162,43L167,39L172,36L175,36L188,41L195,40L202,35L209,44L219,48L221,44L228,40L237,38L251,35L259,31L266,36L274,37L282,37L294,26L305,15L314,6L320,0L105,0L108,3L112,10L127,27L138,31L142,33L144,42L146,43L151,43L154,43L156,48L157,50Z M22,0L28,6L33,9L41,11L44,10L49,8L58,2L68,3L74,5L78,7L82,7L89,2L91,0L22,0Z " data-iso="SDS"/><path d="M202,261L157,261L153,262L149,264L142,264L142,264L140,265L140,267L142,271L148,278L151,280L154,283L156,288L157,294L156,299L198,299L201,284L203,281L204,278L206,265L205,263L205,262L204,262L203,262L202,262L202,261Z M284,299L373,299L332,276L309,263L303,270L302,273L302,274L304,276L303,277L299,277L298,278L298,280L297,280L298,281L302,284L302,285L301,285L296,284L293,284L291,284L290,285L289,288L290,290L291,291L287,294L287,297L284,299Z " data-iso="TZA"/><path d="M305,204L308,200L310,196L311,190L314,186L319,182L320,180L325,173L329,165L337,158L340,157L344,154L343,149L352,137L352,126L351,117L349,109L348,100L349,97L344,91L342,86L334,76L331,67L327,65L325,53L327,44L325,40L319,38L314,35L312,31L305,15L294,26L282,37L274,37L266,36L259,31L251,35L237,38L228,40L221,44L219,48L209,44L202,35L195,40L188,41L175,36L172,36L167,39L162,43L159,47L157,50L160,51L161,54L155,65L153,71L157,76L158,80L154,88L152,95L152,98L157,101L163,101L169,106L173,107L177,112L181,106L185,102L187,101L187,102L184,107L183,108L183,110L184,125L183,127L182,128L181,128L180,129L179,132L177,135L173,138L171,139L167,140L166,141L163,142L160,146L155,152L152,156L152,158L146,165L143,166L141,165L142,161L141,159L141,157L141,157L141,156L140,156L133,158L129,162L126,168L120,173L115,176L114,182L115,191L109,202L107,206L104,209L104,217L101,235L101,239L99,247L97,260L98,278L98,279L99,279L110,277L112,282L117,282L123,279L131,270L133,267L140,264L142,264L142,264L149,264L153,262L157,261L202,261L200,256L199,254L199,251L203,241L206,237L212,229L212,226L211,224L209,223L209,222L210,220L213,218L215,217L219,216L222,214L224,214L225,213L228,213L230,211L231,210L233,210L233,211L235,212L237,211L239,209L240,205L241,203L242,202L244,205L245,206L244,208L244,209L245,209L247,209L249,208L252,206L253,206L254,209L255,210L257,209L260,207L262,205L263,203L266,202L269,196L268,194L272,192L274,193L276,192L276,193L275,197L276,198L281,198L282,199L282,200L280,201L280,203L282,204L284,204L286,204L289,200L291,199L293,200L293,203L294,204L300,205L304,204L305,204Z " data-iso="UGA"/></g><g fill="red" fill-opacity="0.35" id="regions"><path d="M209,221L209,220L208,220L209,223L210,223L209,223L209,222L209,221Z M211,224L211,225L212,226L212,226L211,224Z " data-fips="UG36" data-fips-="" data-iso3="UGA" data-name="Kalangala" data-p="KN"/><path d="M268,182L265,182L265,183L263,183L261,183L261,184L263,188L264,188L266,191L269,193L272,192L274,193L276,192L276,193L275,197L276,198L280,198L284,194L285,194L286,193L285,192L285,189L280,188L278,186L274,184L273,184L269,182L268,182Z " data-fips="UG33" data-fips-="" data-iso3="UGA" data-name="Jinja" data-p="JI"/><path d="M308,137L304,138L301,137L299,136L297,136L296,136L293,138L290,148L286,150L285,151L286,151L290,152L292,151L298,152L303,155L303,156L308,157L308,158L309,158L312,159L313,159L314,159L315,158L318,151L319,148L317,144L317,141L317,137L317,137L316,137L308,137Z " data-fips="UG46" data-fips-="" data-iso3="UGA" data-name="Kumi" data-p="KU"/><path d="M275,118L273,118L272,122L265,128L265,129L260,134L259,133L258,136L256,137L257,141L257,145L258,145L259,145L260,145L262,147L264,148L269,145L272,144L269,141L273,137L279,134L280,126L280,125L279,124L279,122L277,120L277,119L275,118Z " data-fips="UG80" data-fips-="" data-iso3="UGA" data-name="Kaberamaido" data-p="KD"/><path d="M261,181L260,175L257,171L256,162L257,158L255,155L253,152L251,148L250,145L244,145L244,149L249,154L249,158L249,163L249,169L249,174L251,177L252,180L253,183L256,184L259,189L262,190L264,188L263,188L261,184L261,183L261,181Z " data-fips="UG83" data-fips-="" data-iso3="UGA" data-name="Kayunga" data-p="KY"/><path d="M282,174L278,172L278,168L276,164L275,163L274,164L273,174L270,179L269,181L269,182L273,184L274,184L278,186L280,188L285,189L285,192L286,193L288,193L288,193L288,192L288,190L288,189L291,184L289,181L289,180L288,178L286,177L285,177L285,176L284,173L282,174Z " data-fips="UGA2" data-fips-="UG78" data-iso3="UGA" data-name="Iganga" data-p="IN"/><path d="M250,145L251,148L253,152L255,155L257,158L256,162L257,171L260,175L261,181L261,183L263,183L265,183L265,182L268,182L269,182L269,181L270,179L273,174L274,164L275,163L276,162L279,156L280,155L280,153L279,153L278,151L278,150L273,150L271,152L265,149L264,148L262,147L260,145L259,145L258,145L257,145L250,145Z " data-fips="UGA3" data-fips-="UG38" data-iso3="UGA" data-name="Kamuli" data-p="KX"/><path d="M254,129L250,127L242,135L240,136L237,136L232,134L228,136L226,136L227,138L230,139L238,142L241,145L244,145L250,145L257,145L257,141L256,137L258,136L259,133L258,129L256,129L254,129Z " data-fips="UGB4" data-fips-="" data-iso3="UGA" data-name="Kyoga" data-p="KO"/><path d="M288,161L286,159L284,157L281,155L280,153L280,155L279,156L276,162L275,163L276,164L278,168L278,172L282,174L284,173L286,167L287,166L288,165L288,164L289,163L288,161Z " data-fips="UGC2" data-fips-="" data-iso3="UGA" data-name="Bulamogi" data-p="BL"/><path d="M309,158L308,158L308,157L303,156L304,158L304,164L303,165L299,168L299,170L301,170L304,169L307,167L309,165L310,165L311,164L312,162L312,160L312,159L309,158Z " data-fips="UGC9" data-fips-="" data-iso3="UGA" data-name="Budaka" data-p="BD"/><path d="M292,168L292,168L292,165L291,164L289,163L288,164L288,165L287,166L286,167L284,173L285,176L285,177L286,177L288,178L289,180L290,180L294,180L296,182L297,182L298,182L298,180L296,178L296,176L295,171L294,170L292,168Z " data-fips="UGD2" data-fips-="" data-iso3="UGA" data-name="Busiki" data-p="BS"/><path d="M297,133L290,125L290,124L282,119L280,123L280,125L280,126L279,134L273,137L269,141L272,144L269,145L264,148L265,149L271,152L273,150L278,150L278,151L279,151L280,152L281,152L285,152L285,151L286,150L290,148L293,138L296,136L297,136L297,135L297,134L297,133Z " data-fips="UG95" data-fips-="" data-iso3="UGA" data-name="Soroti" data-p="SR"/><path d="M262,190L259,189L256,184L253,183L252,180L251,177L249,174L247,177L247,181L247,183L246,185L244,188L244,189L243,190L244,191L243,196L244,198L242,202L242,202L242,202L244,205L245,206L244,208L244,209L245,209L247,209L249,208L252,206L253,206L254,209L255,210L257,209L260,207L262,205L263,203L266,202L269,196L268,194L269,193L266,191L264,188L262,190Z " data-fips="UG90" data-fips-="" data-iso3="UGA" data-name="Mukono" data-p="MN"/><path d="M303,155L298,152L292,151L290,152L286,151L285,151L285,152L281,152L280,152L279,151L278,151L279,153L280,153L281,155L284,157L286,159L288,161L289,163L291,164L292,165L292,168L292,168L294,170L296,169L299,170L299,168L303,165L304,164L304,158L303,156L303,155Z " data-fips="UGB3" data-fips-="UG60" data-iso3="UGA" data-name="Pallisa" data-p="PL"/><path d="M177,206L172,203L170,203L167,204L165,204L165,205L166,206L167,210L167,213L166,216L167,216L169,216L170,216L174,216L179,219L178,225L178,226L179,229L181,230L187,229L192,230L190,223L189,215L191,213L193,212L189,209L185,207L184,205L181,205L179,205L177,206Z " data-fips="UG74" data-fips-="" data-iso3="UGA" data-name="Sembabule" data-p="SE"/><path d="M223,214L222,213L225,209L231,204L232,200L229,197L225,195L225,196L225,199L222,200L216,200L215,201L206,203L205,201L204,201L200,203L198,203L191,197L188,199L180,201L179,203L179,205L181,205L184,205L185,207L189,209L193,212L194,212L198,211L203,212L206,216L209,220L209,221L210,220L213,218L215,217L219,216L222,214L223,214Z " data-fips="UG89" data-fips-="" data-iso3="UGA" data-name="Mpigi" data-p="MI"/><path d="M214,46L213,45L213,45L209,49L202,48L193,57L191,63L190,66L189,67L187,70L185,72L184,73L184,75L185,76L186,77L192,79L193,77L204,74L207,74L209,69L213,61L213,54L214,54L215,47L214,46Z " data-fips="UG65" data-fips-="" data-iso3="UGA" data-name="Adjumani" data-p="AD"/><path d="M190,66L185,61L184,63L185,65L185,67L181,68L174,69L173,72L166,70L163,68L161,67L154,67L153,69L158,76L158,78L154,89L154,90L164,87L166,92L169,94L176,92L181,84L183,83L182,81L182,79L183,77L184,75L184,73L185,72L187,70L189,67L190,66Z " data-fips="UG99" data-fips-="UG77" data-iso3="UGA" data-name="Arua Municipality" data-p="AU"/><path d="M169,38L163,40L159,47L158,49L160,48L161,54L160,55L163,57L164,58L166,57L167,58L169,54L170,50L170,39L170,37L169,38Z " data-fips="UGC4" data-fips-="" data-iso3="UGA" data-name="Koboko" data-p="KB"/><path d="M200,106L196,107L188,108L186,109L183,110L183,110L184,125L183,127L182,128L181,128L180,129L180,130L181,130L182,132L182,134L183,134L183,134L189,134L193,131L194,135L195,135L197,129L196,128L197,119L201,117L201,105L200,106Z " data-fips="UGD1" data-fips-="" data-iso3="UGA" data-name="Bujenje" data-p="BL"/><path d="M215,47L214,54L213,54L213,61L209,69L207,74L204,74L193,77L192,79L186,77L185,76L184,75L183,77L182,79L182,81L183,83L184,84L185,89L188,99L187,100L186,101L187,101L187,102L184,107L183,108L183,110L186,109L188,108L196,107L200,106L201,105L202,104L209,103L213,106L220,109L224,108L224,108L223,104L223,100L223,98L227,98L229,98L228,97L225,92L226,91L225,89L225,85L223,84L221,75L223,72L224,65L227,62L230,60L227,58L225,55L224,54L220,48L220,48L219,49L216,48L215,47L215,47Z " data-fips="UGD4" data-fips-="" data-iso3="UGA" data-name="Gulu" data-p="GL"/><path d="M183,83L181,84L176,92L169,94L166,92L164,87L154,90L154,90L151,99L156,99L156,101L159,104L162,101L167,105L167,106L171,106L173,106L174,109L177,112L181,106L185,102L186,101L187,100L188,99L185,89L184,84L183,83Z " data-fips="UG58" data-fips-="" data-iso3="UGA" data-name="Nebbi" data-p="NE"/><path d="M209,45L207,40L203,35L192,40L190,41L190,41L190,46L187,51L185,56L185,61L190,66L191,63L193,57L202,48L209,49L213,45L209,45Z " data-fips="UG72" data-fips-="" data-iso3="UGA" data-name="Moyo" data-p="MY"/><path d="M170,37L170,39L170,50L169,54L167,58L168,59L172,56L180,60L182,62L184,63L185,61L185,56L187,51L190,46L190,41L190,42L189,42L179,36L173,36L172,36L170,37Z " data-fips="UG97" data-fips-="" data-iso3="UGA" data-name="Yumbe" data-p="YU"/><path d="M160,55L158,58L157,59L156,61L154,67L161,67L163,68L166,70L173,72L174,69L181,68L185,67L185,65L184,63L182,62L180,60L172,56L168,59L167,58L166,57L164,58L163,57L160,55L160,55Z " data-fips="UGD5" data-fips-="" data-iso3="UGA" data-name="Maracha" data-p="MH"/><path d="M242,202L244,198L243,196L244,191L243,190L242,190L237,192L238,193L237,200L240,202L241,203L241,203L242,202L242,202Z " data-fips="UG37" data-fips-="" data-iso3="UGA" data-name="Kampala" data-p="KM"/><path d="M203,150L199,152L196,151L189,150L185,154L184,154L181,155L180,156L179,157L180,158L184,160L186,163L189,166L189,167L186,172L186,174L192,174L198,177L207,176L209,177L208,181L208,182L210,181L213,186L214,186L218,184L220,183L220,182L221,176L218,172L213,171L212,168L207,157L204,153L204,150L203,150Z " data-fips="UG42" data-fips-="" data-iso3="UGA" data-name="Kiboga" data-p="KG"/><path d="M223,136L222,135L220,135L219,136L217,136L216,137L215,139L212,142L210,145L216,148L224,154L227,155L228,158L229,161L231,163L237,169L238,168L239,162L241,160L244,163L246,163L249,163L249,158L249,154L244,149L244,145L241,145L238,142L230,139L227,138L226,136L223,136Z " data-fips="UG73" data-fips-="" data-iso3="UGA" data-name="Nakasongola" data-p="NA"/><path d="M226,189L225,188L224,187L222,187L221,190L221,192L222,193L223,195L225,195L229,197L232,200L231,204L225,209L222,213L223,214L224,214L225,213L228,213L230,211L231,210L233,210L233,211L235,212L237,211L239,209L240,205L241,203L240,202L237,200L238,193L237,192L242,190L243,190L244,189L244,188L241,188L239,187L237,189L229,188L228,188L228,188L226,189Z " data-fips="UG37" data-fips-="UG96" data-iso3="UGA" data-name="Wakiso" data-p="WA"/><path d="M246,163L244,163L241,160L239,162L238,168L237,169L231,163L229,161L228,165L229,170L233,183L230,183L228,187L228,188L228,188L229,188L237,189L239,187L241,188L244,188L246,185L247,183L247,181L247,177L249,174L249,169L249,163L246,163Z " data-fips="UGA8" data-fips-="UG70" data-iso3="UGA" data-name="Bamunanika" data-p="BM"/><path d="M208,181L209,177L207,176L198,177L192,174L186,174L185,175L182,181L178,181L175,185L176,186L177,187L172,190L170,194L171,198L166,203L165,204L167,204L170,203L172,203L177,206L179,205L179,203L180,201L188,199L191,197L198,203L200,203L204,201L204,199L210,198L211,194L208,189L207,186L208,182L208,182L208,181Z " data-fips="UGB2" data-fips-="UG56" data-iso3="UGA" data-name="Mubende" data-p="MD"/><path d="M218,184L214,186L213,186L210,181L208,182L208,182L207,186L208,189L211,194L210,198L204,199L204,201L205,201L206,203L215,201L216,200L222,200L225,199L225,196L225,195L223,195L222,193L221,192L221,190L222,187L222,186L220,184L220,183L218,184Z " data-fips="UGC6" data-fips-="" data-iso3="UGA" data-name="Busujju" data-p="BS"/><path d="M228,158L227,155L224,154L216,148L210,145L208,146L207,147L204,150L204,153L207,157L212,168L213,171L218,172L221,176L220,182L220,183L220,184L222,186L222,187L224,187L225,188L226,189L228,188L228,187L230,183L233,183L229,170L228,165L229,161L228,158Z " data-fips="UGC7" data-fips-="" data-iso3="UGA" data-name="Nakaseke" data-p="NK"/><path d="M220,48L224,54L225,55L227,58L230,60L236,65L246,64L251,65L255,61L257,63L262,69L265,70L265,67L266,64L272,64L274,64L273,61L276,60L279,61L277,59L281,59L284,60L285,60L287,60L291,61L292,60L294,57L294,56L293,54L291,51L289,46L286,42L284,37L282,38L280,38L266,36L260,32L251,35L248,37L232,38L220,44L220,47L220,48Z " data-fips="UG84" data-fips-="" data-iso3="UGA" data-name="Kitgum" data-p="TG"/><path d="M253,116L249,114L249,112L251,109L250,106L252,106L254,103L254,99L252,96L251,96L250,98L248,99L244,98L245,100L239,103L243,107L238,110L237,113L235,115L232,116L228,116L229,118L228,121L229,123L228,126L225,129L220,130L217,136L217,136L219,136L220,135L222,135L223,136L226,136L228,136L232,134L237,136L240,136L242,135L250,127L254,129L256,129L256,128L257,123L253,122L253,119L254,116L253,116Z " data-fips="UG98" data-fips-="UG26" data-iso3="UGA" data-name="Apac" data-p="AC"/><path d="M230,60L227,62L224,65L223,72L221,75L223,84L225,85L225,89L226,91L225,92L228,97L229,98L231,98L232,99L235,91L239,91L243,91L243,91L245,89L244,87L246,85L242,80L237,71L234,67L236,66L236,65L230,60Z " data-fips="UGA1" data-fips-="UG30" data-iso3="UGA" data-name="Aswa" data-p="AW"/><path d="M281,92L279,90L274,92L272,92L268,92L265,91L260,95L257,94L256,92L251,90L250,92L248,93L251,96L252,96L254,99L254,103L252,106L250,106L251,109L249,112L249,114L253,116L254,116L256,117L261,119L267,115L272,117L273,118L275,118L277,119L276,117L276,116L281,115L282,109L286,104L288,104L289,103L290,101L290,98L289,97L287,96L284,92L281,92Z " data-fips="UGA7" data-fips-="UG47" data-iso3="UGA" data-name="Lira" data-p="LA"/><path d="M272,117L267,115L261,119L256,117L254,116L253,119L253,122L257,123L256,128L256,129L258,129L259,133L260,134L265,129L265,128L272,122L273,118L272,117Z " data-fips="UGD3" data-fips-="" data-iso3="UGA" data-name="Dokolo" data-p="DK"/><path d="M284,60L281,59L277,59L279,61L276,60L273,61L274,64L272,64L266,64L265,67L265,70L262,69L257,63L255,61L251,65L246,64L236,65L236,66L234,67L237,71L242,80L246,85L244,87L245,89L243,91L243,91L248,93L250,92L251,90L256,92L257,94L260,95L265,91L268,92L272,92L274,92L279,90L281,92L284,92L284,88L285,85L287,83L286,75L285,66L285,60L284,60Z " data-fips="UG92" data-fips-="" data-iso3="UGA" data-name="Pader" data-p="PD"/><path d="M224,108L220,109L213,106L209,103L202,104L201,105L201,117L197,119L196,128L197,129L195,135L194,135L193,131L189,134L183,134L183,134L182,137L183,138L185,139L184,140L185,147L188,149L189,150L196,151L199,152L203,150L204,150L207,147L208,146L210,145L212,142L215,139L216,137L217,136L217,136L220,130L225,129L228,126L229,123L228,121L229,118L228,116L228,115L227,114L227,111L225,108L224,108L224,108Z " data-fips="UG50" data-fips-="" data-iso3="UGA" data-name="Masindi" data-p="MC"/><path d="M239,91L235,91L232,99L231,98L229,98L227,98L223,98L223,100L223,104L224,108L225,108L227,111L227,114L228,115L228,116L232,116L235,115L237,113L238,110L243,107L239,103L245,100L244,98L248,99L250,98L251,96L248,93L243,91L239,91Z " data-fips="UGD6" data-fips-="" data-iso3="UGA" data-name="Oyam" data-p="OA"/><path d="M140,156L131,159L129,161L128,163L128,166L125,172L118,174L116,175L115,180L115,191L114,192L114,192L115,192L116,195L118,194L118,193L121,190L124,184L128,176L132,173L138,169L139,166L142,166L142,165L141,165L142,161L141,159L141,157L141,157L141,156L140,156L140,156Z " data-fips="UG28" data-fips-="" data-iso3="UGA" data-name="Bundibugyo" data-p="BN"/><path d="M183,134L182,134L182,132L181,130L180,130L179,132L177,135L173,138L171,139L167,140L166,141L163,142L160,146L155,152L152,156L152,158L149,161L151,162L153,163L159,160L163,160L169,159L171,158L177,157L179,157L180,156L181,155L184,154L185,154L189,150L188,149L185,147L184,140L185,139L183,138L182,137L183,134Z " data-fips="UG31" data-fips-="" data-iso3="UGA" data-name="Hoima" data-p="HO"/><path d="M143,168L143,166L142,165L142,166L139,166L138,169L132,173L128,176L124,184L121,190L118,193L118,194L120,195L126,195L129,198L132,198L132,203L131,205L133,205L136,202L136,195L135,194L139,188L139,187L137,186L139,178L141,176L142,171L143,170L143,168Z " data-fips="UG79" data-fips-="" data-iso3="UGA" data-name="Kabarole" data-p="BR"/><path d="M174,184L165,183L162,181L158,176L156,175L148,172L143,170L142,171L141,176L139,178L137,186L139,187L141,188L143,199L147,196L150,192L158,192L158,197L154,203L154,204L157,204L160,204L162,205L165,205L165,204L166,203L171,198L170,194L172,190L177,187L176,186L175,185L174,184Z " data-fips="UG85" data-fips-="" data-iso3="UGA" data-name="Kyenjojo" data-p="KJ"/><path d="M177,157L171,158L169,159L163,160L159,160L153,163L151,162L149,161L146,165L143,166L143,166L143,168L143,170L148,172L156,175L158,176L162,181L165,183L174,184L175,185L178,181L182,181L185,175L186,174L186,172L189,167L189,166L186,163L184,160L180,158L179,157L177,157Z " data-fips="UG41" data-fips-="" data-iso3="UGA" data-name="Kibale" data-p="KI"/><path d="M324,141L326,142L327,144L327,146L324,147L321,150L322,153L326,155L331,159L330,162L330,162L331,162L332,163L333,163L332,158L335,153L339,152L340,150L341,147L338,143L330,139L327,141L324,141Z " data-fips="UGA4" data-fips-="UG39" data-iso3="UGA" data-name="Kapchorwa" data-p="KP"/><path d="M343,149L341,147L340,150L339,152L335,153L332,158L333,163L333,163L337,158L343,156L344,152L343,150L343,149Z " data-fips="UGB6" data-fips-="" data-iso3="UGA" data-name="Kongasis" data-p="KO"/><path d="M320,141L319,141L318,140L318,141L317,141L317,144L319,148L318,151L315,158L314,159L315,160L317,161L321,162L323,163L324,162L328,162L330,162L331,159L326,155L322,153L321,150L324,147L327,146L327,144L326,142L324,141L320,141Z " data-fips="UG94" data-fips-="" data-iso3="UGA" data-name="Budadiri" data-p="BD"/><path d="M313,159L312,159L312,160L312,162L311,164L310,165L309,165L311,166L312,166L311,170L310,172L311,172L312,173L313,174L314,175L315,174L317,170L318,169L321,163L323,163L321,162L317,161L315,160L314,159L313,159Z " data-fips="UGA9" data-fips-="UG87" data-iso3="UGA" data-name="Bungokho" data-p="BN"/><path d="M328,162L324,162L323,163L321,163L318,169L317,170L315,174L314,175L317,178L320,179L320,178L324,176L328,168L329,163L330,162L328,162Z " data-fips="UGC5" data-fips-="" data-iso3="UGA" data-name="Manafwa" data-p="MF"/><path d="M297,182L296,182L294,180L290,180L289,180L289,181L291,184L288,189L288,190L288,192L289,193L292,195L292,199L293,200L293,203L294,204L300,205L304,204L304,204L300,198L302,195L303,188L304,188L304,188L301,185L301,184L300,182L299,182L298,182L297,182Z " data-fips="UG66" data-fips-="" data-iso3="UGA" data-name="Bugiri" data-p="BG"/><path d="M304,188L304,188L303,188L302,195L300,198L304,204L305,204L308,200L310,197L310,195L311,192L312,187L308,187L307,187L305,188L304,188Z " data-fips="UG67" data-fips-="" data-iso3="UGA" data-name="Busia" data-p="BU"/><path d="M311,170L312,166L311,166L309,165L307,167L304,169L301,170L299,170L296,169L294,170L295,171L296,176L296,178L298,180L298,182L299,182L300,182L300,181L303,176L304,174L309,172L310,172L311,170Z " data-fips="UGB7" data-fips-="" data-iso3="UGA" data-name="Bunyole" data-p="BN"/><path d="M288,192L288,193L288,193L286,193L285,194L284,194L280,198L281,198L282,199L282,200L280,201L280,203L282,204L284,204L286,204L289,200L291,199L292,199L292,195L289,193L288,192Z " data-fips="UG86" data-fips-="" data-iso3="UGA" data-name="Mayuge" data-p="MG"/><path d="M320,179L317,178L314,175L313,174L312,173L311,172L310,172L309,172L304,174L303,176L300,181L300,182L301,184L301,185L304,188L305,188L307,187L308,187L312,187L312,187L313,186L318,183L320,180L320,179Z " data-fips="UG76" data-fips-="" data-iso3="UGA" data-name="Tororo" data-p="TR"/><path d="M316,117L316,115L314,113L302,106L301,108L300,110L302,115L301,125L300,126L300,131L299,132L297,134L297,135L297,136L299,136L301,137L304,138L308,137L316,137L316,117Z " data-fips="UGA5" data-fips-="UG69" data-iso3="UGA" data-name="Usuk" data-p="UU"/><path d="M322,69L313,64L308,62L302,61L300,59L299,59L296,58L294,56L294,57L292,60L291,61L287,60L285,60L285,66L287,67L291,67L291,70L297,80L301,83L297,83L297,88L300,89L304,91L306,88L313,85L317,86L319,77L322,73L324,69L322,69Z " data-fips="UGA6" data-fips-="UG45" data-iso3="UGA" data-name="Jie" data-p="JE"/><path d="M294,101L293,100L291,103L289,103L288,104L286,104L282,109L281,115L276,116L276,117L277,119L277,120L279,122L279,124L280,125L280,123L282,119L290,124L290,125L297,133L297,134L299,132L300,131L300,126L301,125L302,115L300,110L301,108L302,106L294,101Z " data-fips="UGB5" data-fips-="" data-iso3="UGA" data-name="Amuria" data-p="AM"/><path d="M284,37L286,42L289,46L291,51L293,54L294,56L296,58L299,59L300,59L302,61L308,62L313,64L322,69L324,69L326,69L329,69L330,69L332,68L332,68L328,66L325,57L324,55L326,48L327,41L324,40L319,39L318,38L313,34L316,32L310,32L311,28L309,26L306,16L294,26L284,36L284,37Z " data-fips="UGC1" data-fips-="" data-iso3="UGA" data-name="Kaabong" data-p="AB"/><path d="M300,89L297,88L297,83L301,83L297,80L291,70L291,67L287,67L285,66L286,75L287,83L285,85L284,88L284,92L287,96L289,97L290,98L291,98L295,96L306,96L304,92L304,91L300,89Z " data-fips="UGC8" data-fips-="" data-iso3="UGA" data-name="Labwor" data-p="LB"/><path d="M324,69L322,73L319,77L317,86L313,85L306,88L304,91L304,92L306,96L295,96L291,98L290,98L290,101L289,103L291,103L293,100L294,101L302,106L314,113L316,115L316,117L316,137L317,137L317,137L319,137L321,134L323,131L328,128L332,125L332,122L337,121L338,119L344,116L346,110L349,108L347,104L347,101L349,98L348,95L345,92L343,88L340,80L336,79L333,75L332,68L330,69L329,69L326,69L324,69Z " data-fips="UG88" data-fips-="" data-iso3="UGA" data-name="Moroto" data-p="MT"/><path d="M349,108L346,110L344,116L338,119L337,121L332,122L332,125L328,128L323,131L321,134L319,137L317,137L317,141L318,141L318,140L319,141L320,141L324,141L327,141L330,139L338,143L341,147L343,149L343,149L346,146L347,143L350,139L352,126L353,124L351,121L352,115L349,108Z " data-fips="UG91" data-fips-="" data-iso3="UGA" data-name="Nakapiripirit" data-p="NP"/><path d="M178,225L179,219L174,216L170,216L169,216L169,220L168,224L169,230L172,237L170,241L168,245L171,246L174,250L174,254L173,255L178,261L202,261L200,256L199,254L199,251L200,248L199,247L197,243L197,239L194,235L191,237L185,240L182,239L179,237L176,236L172,234L173,231L177,227L178,226L178,225Z " data-fips="UG61" data-fips-="" data-iso3="UGA" data-name="Rakai" data-p="RA"/><path d="M206,216L203,212L198,211L194,212L193,212L191,213L189,215L190,223L192,230L187,229L181,230L179,229L178,226L177,227L173,231L172,234L176,236L179,237L182,239L185,240L191,237L194,235L197,239L197,243L199,247L200,248L203,241L206,237L212,229L212,226L211,225L211,224L211,224L210,223L209,223L208,220L209,220L206,216Z " data-fips="UG71" data-fips-="" data-iso3="UGA" data-name="Masaka" data-p="MA"/><path d="M130,220L127,219L127,218L128,218L126,218L124,218L120,219L115,222L102,224L101,229L111,232L113,235L115,236L113,242L114,243L118,248L121,250L122,250L125,248L127,248L129,250L131,250L134,248L138,244L141,232L141,229L142,226L141,226L138,228L134,223L131,221L130,220Z " data-fips="UG29" data-fips-="" data-iso3="UGA" data-name="Bushenyi" data-p="BS"/><path d="M114,192L110,198L108,206L104,209L104,214L103,217L102,224L115,222L120,219L124,218L126,218L128,218L130,211L131,205L132,203L132,198L129,198L126,195L120,195L118,194L116,195L115,192L114,192L114,192L114,192Z " data-fips="UG40" data-fips-="" data-iso3="UGA" data-name="Kasese" data-p="KS"/><path d="M154,203L158,197L158,192L150,192L147,196L143,199L141,188L139,187L139,188L135,194L136,195L136,202L133,205L131,205L130,211L128,218L127,218L127,219L130,220L131,220L136,222L140,221L139,220L136,213L138,212L139,209L140,209L144,207L146,207L147,206L149,204L152,204L154,204L154,203Z " data-fips="UG81" data-fips-="" data-iso3="UGA" data-name="Kamwenge" data-p="KE"/><path d="M147,223L150,221L150,212L146,207L146,207L144,207L140,209L139,209L138,212L136,213L139,220L140,221L136,222L131,220L130,220L131,221L134,223L138,228L141,226L142,226L144,225L147,225L147,223Z " data-fips="UGB8" data-fips-="" data-iso3="UGA" data-name="Ibanda" data-p="IA"/><path d="M152,243L148,243L148,246L147,250L146,252L144,253L146,255L140,264L140,264L148,265L151,262L157,261L178,261L173,255L174,254L174,250L171,246L168,245L167,246L159,247L158,246L156,244L154,243L152,243Z " data-fips="UGB9" data-fips-="" data-iso3="UGA" data-name="Bukanga" data-p="BK"/><path d="M152,204L149,204L147,206L146,207L146,207L150,212L150,221L147,223L147,225L146,228L151,234L156,238L154,241L154,243L156,244L158,246L159,247L167,246L168,245L170,241L172,237L169,230L168,224L169,220L169,216L167,216L166,216L167,213L167,210L166,206L165,205L162,205L160,204L157,204L154,204L152,204Z " data-fips="UGC3" data-fips-="" data-iso3="UGA" data-name="Mbarara" data-p="RR"/><path d="M121,250L121,252L120,257L121,258L120,262L120,263L120,264L122,268L126,270L131,268L132,268L136,264L139,264L140,264L146,255L144,253L146,252L144,252L135,253L130,251L131,250L129,250L127,248L125,248L122,250L121,250Z " data-fips="UG59" data-fips-="" data-iso3="UGA" data-name="Ntungamo" data-p="NT"/><path d="M100,235L100,236L101,236L104,234L104,242L107,243L108,248L109,254L110,255L110,258L113,263L115,264L115,262L119,263L120,263L120,262L121,258L120,257L121,252L121,250L118,248L114,243L113,242L115,236L113,235L111,232L101,229L100,235Z " data-fips="UG93" data-fips-="" data-iso3="UGA" data-name="Rukungiri" data-p="RK"/><path d="M154,241L156,238L151,234L146,228L147,225L144,225L142,226L141,229L141,232L138,244L134,248L131,250L130,251L135,253L144,252L146,252L147,250L148,246L148,243L152,243L154,243L154,241Z " data-fips="UGB1" data-fips-="UG52" data-iso3="UGA" data-name="Kashari" data-p="KS"/><path d="M113,263L112,263L110,263L107,262L106,264L106,265L106,266L107,269L107,271L110,276L110,277L112,282L114,284L124,278L125,275L131,269L131,268L126,270L122,268L120,264L120,263L119,263L115,262L115,264L113,263Z " data-fips="UG34" data-fips-="" data-iso3="UGA" data-name="Kabale" data-p="KA"/><path d="M97,261L97,264L98,277L100,280L104,278L110,276L110,276L107,271L107,269L106,266L106,265L104,264L102,263L99,262L97,261L97,261Z " data-fips="UG43" data-fips-="" data-iso3="UGA" data-name="Kisoro" data-p="KR"/><path d="M101,237L100,242L99,255L97,260L97,261L99,262L102,263L104,264L106,265L106,264L107,262L110,263L112,263L113,263L110,258L110,255L109,254L108,248L107,243L104,242L104,234L101,236L101,237Z " data-fips="UG82" data-fips-="" data-iso3="UGA" data-name="Kanungu" data-p="UU"/></g></svg>