<?xml version="1.0" encoding="UTF-8"?><!DOCTYPE svg  PUBLIC '-//W3C//DTD SVG 1.1//EN'  'http://www.w3.org/Graphics/SVG/1.1/DTD/svg11.dtd'><svg enable_background="new 0 0 450 300" height="300px" style="stroke-linejoin: round; stroke:#000; fill: none;" version="1.1" viewBox="0 0 450 300" width="450px" xmlns="http://www.w3.org/2000/svg" xmlns:xlink="http://www.w3.org/1999/xlink"><defs><style type="text/css"><![CDATA[path { fill-rule: evenodd; }]]></style></defs><metadata><views><view h="300" padding="0" w="450"><proj id="laea" lon0="32.36703985272043" lat0="1.275691192506707"/><bbox x="939.85" y="959.44" w="118.07" h="78.71"/></view></views></metadata><g class="" id="context"><path d="M374,300L309,264L301,273L303,278L299,278L297,281L302,286L291,285L289,288L291,292L287,294L287,297L283,300L374,300ZM205,262L154,261L148,265L141,264L139,266L140,269L142,270L144,277L153,281L153,285L155,289L157,291L157,300L197,300L201,285L204,278L206,266L205,262ZM280,300L278,300L277,300L280,300Z" data-iso="TZA"/><path d="M109,1L108,9L115,12L115,15L118,16L120,20L124,22L127,28L134,30L140,33L143,33L145,41L144,45L151,44L153,42L155,45L157,47L158,50L162,41L173,36L179,37L190,43L192,41L197,40L202,35L207,40L209,45L213,46L216,48L219,49L221,44L229,39L248,37L259,32L267,38L282,38L321,0L109,1ZM25,1L25,4L27,6L29,5L33,10L39,10L42,13L48,9L51,9L51,7L54,6L57,1L60,0L63,4L71,3L80,10L83,8L86,8L91,0L23,0L25,1ZM19,0L21,0L19,0ZM18,0L19,0L17,0L18,0Z" data-iso="SSD"/><path d="M157,300L157,291L155,289L153,285L153,281L144,277L142,270L140,269L139,266L140,265L139,264L134,265L130,272L126,275L125,278L120,282L113,284L112,279L109,277L107,279L105,278L98,280L94,282L91,285L87,286L81,294L84,300L157,300Z" data-iso="RWA"/><path d="M321,0L305,16L307,18L309,22L309,26L311,29L310,32L316,32L313,35L314,36L313,37L317,37L319,40L322,39L327,42L326,49L324,51L326,65L331,68L333,77L336,80L338,79L340,80L344,92L347,93L349,98L347,101L347,104L351,116L351,121L353,124L352,127L352,137L350,140L346,143L345,147L343,149L344,155L344,157L338,158L333,160L332,163L329,164L324,176L320,179L318,184L313,186L310,195L310,198L305,205L306,216L309,218L312,219L312,222L319,231L322,230L323,226L326,224L340,219L344,228L339,230L329,231L328,238L319,235L316,235L314,237L310,242L309,245L309,249L314,256L312,260L309,261L309,264L374,300L450,300L450,11L439,6L409,5L410,51L414,64L420,73L431,80L433,86L432,95L430,100L427,101L420,86L415,79L407,72L405,65L398,56L394,45L393,37L397,0L321,0Z" data-iso="KEN"/><path d="M397,0L397,2L398,0L397,0ZM409,5L439,6L450,11L450,0L408,0L409,5ZM400,0L402,1L403,0L400,0Z" data-iso="ETH"/><path d="M25,0L0,0L0,300L71,300L72,292L74,290L80,292L81,294L87,286L91,285L94,282L98,280L97,262L97,258L99,256L99,249L101,238L95,243L88,245L86,239L94,223L103,220L104,210L107,206L108,207L110,198L115,191L114,185L115,176L125,172L128,168L128,164L131,160L133,160L135,158L140,156L137,155L136,154L143,142L159,127L173,117L178,112L174,110L173,106L168,107L163,101L162,101L159,105L157,103L156,100L151,100L153,93L158,80L158,77L153,71L156,62L161,55L160,49L158,50L157,47L155,45L153,42L151,44L144,45L145,41L143,33L140,33L134,30L127,28L124,22L120,20L118,16L115,15L115,12L108,9L108,2L109,0L91,0L86,8L83,8L80,10L71,3L63,4L60,0L57,1L54,6L51,7L51,9L48,9L42,13L39,10L33,10L29,5L27,6L25,4L25,0Z" data-iso="COD"/><path d="M348,142L350,140L352,137L352,127L353,124L351,121L351,116L346,102L349,98L347,92L344,92L341,81L338,79L337,80L336,80L333,76L331,68L326,65L324,51L326,49L327,42L322,39L319,40L317,37L313,37L314,36L313,35L316,32L310,32L311,28L309,26L309,22L306,17L305,16L282,38L267,38L259,32L248,37L229,39L221,44L220,49L216,48L213,46L209,45L207,40L202,35L197,40L192,41L190,43L175,36L172,37L163,41L158,50L160,49L161,55L157,60L153,70L153,72L158,77L158,80L153,93L151,100L156,100L157,103L159,105L162,101L163,101L168,107L173,106L174,110L178,112L181,107L185,102L187,102L183,108L184,125L178,135L173,139L164,143L160,146L146,166L143,166L141,165L141,157L135,158L133,160L131,159L129,161L128,167L125,172L115,176L114,185L115,191L110,198L108,207L107,206L104,211L104,215L103,220L108,220L113,223L112,229L101,238L101,242L100,243L100,255L97,258L97,262L98,280L105,278L107,279L110,277L112,279L112,283L115,284L125,278L126,275L128,274L133,268L134,265L148,265L154,261L202,262L199,252L206,237L212,230L212,227L209,222L210,221L215,217L219,216L222,214L228,214L231,210L233,210L233,212L237,211L240,205L242,203L245,206L244,209L249,209L253,207L255,210L257,210L262,205L263,203L265,203L268,196L268,194L272,193L276,192L275,197L282,200L280,202L282,204L286,204L291,200L293,200L294,205L300,206L305,205L310,198L310,195L313,186L318,184L320,179L324,176L329,164L332,163L333,160L338,158L344,157L344,155L343,149L345,147L348,142ZM271,145L268,149L270,149L274,148L274,151L271,157L260,150L254,147L253,148L254,150L254,153L249,149L247,152L239,148L237,144L238,143L241,143L250,140L250,142L259,142L264,138L265,139L270,136L274,137L278,133L280,133L282,137L270,140L265,144L271,145ZM217,230L222,232L218,239L225,237L227,230L225,228L221,230L221,226L216,225L215,227L217,230ZM275,211L274,206L277,204L277,202L274,201L270,202L269,206L268,206L268,208L271,208L275,211Z" data-iso="UGA"/></g><g class="" id="regions"><path d="M178,262L202,262L199,252L206,237L212,230L212,227L209,222L210,221L215,217L219,216L222,214L228,214L231,210L233,210L233,212L237,211L240,205L242,203L245,206L244,209L249,209L253,207L255,210L257,210L262,205L263,203L265,203L268,197L268,193L263,188L261,184L261,177L257,170L256,164L257,159L254,153L249,149L247,152L239,148L238,143L222,136L217,137L214,142L201,152L189,151L186,154L179,157L184,160L189,166L189,167L185,171L186,174L182,182L178,181L175,185L177,188L176,190L171,192L170,195L171,198L165,205L167,211L166,216L169,217L168,228L172,238L168,245L173,249L174,254L174,255L178,262ZM217,230L222,232L218,239L225,237L227,230L225,228L221,230L221,226L216,225L215,227L217,230ZM275,211L274,206L277,204L277,202L274,201L270,202L269,206L268,206L268,208L271,208L275,211Z" data-region="C" data-iso3="UGA" data-name="Central" data-p="C"/><path d="M305,205L310,198L310,195L313,186L318,184L320,179L324,176L329,164L332,163L333,160L338,158L344,157L344,155L343,150L338,143L334,141L330,140L326,141L317,141L316,115L293,101L288,105L285,104L285,107L282,109L280,109L281,112L280,115L278,115L276,116L276,120L273,119L272,123L265,128L263,134L259,134L258,136L256,137L257,141L259,142L264,138L265,139L270,136L274,137L278,133L280,133L282,137L270,140L265,144L271,145L268,149L270,149L274,148L274,151L271,157L260,150L254,147L253,148L257,160L256,164L257,170L261,177L261,184L263,188L268,193L268,196L268,197L268,194L276,192L275,197L281,199L282,201L280,202L280,203L284,205L291,200L293,200L294,205L300,206L305,205Z" data-region="E" data-iso3="UGA" data-name="Eastern" data-p="E"/><path d="M256,137L258,136L259,134L263,134L265,128L272,123L273,119L276,120L276,116L278,115L280,115L281,112L280,109L282,109L285,107L285,104L288,105L293,101L316,115L317,141L326,141L330,140L334,141L338,143L343,150L345,147L348,142L350,140L352,137L352,127L353,124L351,121L351,116L346,102L349,98L347,92L344,92L341,81L338,79L337,80L336,80L333,76L331,68L326,65L324,51L326,49L327,42L322,39L319,40L317,37L313,37L314,36L313,35L316,32L310,32L311,28L309,26L309,23L307,18L305,16L282,38L267,38L259,32L248,37L229,39L221,44L220,49L216,48L213,46L209,45L207,40L202,35L197,40L192,41L190,43L175,36L172,37L162,41L158,50L160,49L161,55L156,62L153,71L158,77L158,80L153,93L151,100L156,100L157,103L159,105L162,101L163,101L168,107L173,106L174,110L178,112L181,107L185,102L187,102L183,108L183,111L191,107L195,108L201,106L203,104L206,103L219,110L224,108L227,111L229,118L228,121L229,123L228,127L225,128L225,129L220,131L217,133L217,137L222,136L226,137L236,143L241,143L250,140L250,142L257,141L256,137Z" data-region="N" data-iso3="UGA" data-name="Northern" data-p="N"/><path d="M114,284L125,278L126,275L130,272L135,264L148,265L154,261L178,262L174,255L174,254L173,249L168,245L172,238L168,228L169,217L166,216L167,211L165,205L171,198L170,195L171,192L176,190L177,188L175,185L178,181L182,182L186,174L185,171L189,167L189,166L184,160L179,157L186,154L189,151L201,152L214,142L217,137L217,133L220,131L225,129L225,128L228,127L229,123L228,121L229,118L225,109L223,108L219,110L206,103L196,108L191,107L186,109L183,111L183,127L181,128L178,135L173,139L164,143L146,166L143,166L141,165L141,157L135,158L133,160L131,159L129,161L128,167L125,172L115,176L114,185L115,191L110,198L108,207L107,206L104,210L103,220L108,220L113,223L112,229L101,238L101,242L100,243L99,249L99,256L97,258L97,262L98,280L105,278L107,279L110,277L112,279L112,283L114,284Z" data-region="W" data-iso3="UGA" data-name="Western" data-p="W"/></g></svg>