<?xml version="1.0" encoding="UTF-8"?><!DOCTYPE svg  PUBLIC '-//W3C//DTD SVG 1.1//EN'  'http://www.w3.org/Graphics/SVG/1.1/DTD/svg11.dtd'><svg enable_background="new 0 0 450 301" height="301px" style="stroke-linejoin: round; stroke:#000; fill:#f6f3f0;" version="1.1" viewBox="0 0 450 301" width="450px" xmlns="http://www.w3.org/2000/svg" xmlns:xlink="http://www.w3.org/1999/xlink"><defs><style type="text/css"><![CDATA[path { fill-rule: evenodd; }
#context path { fill: #eee; stroke: #bbb; } ]]></style></defs><metadata><views><view h="301.0" padding="0.06" w="450"><proj id="laea" lat0="45.9819869044" lon0="34.2518974175"/><bbox h="116.15" w="163.86" x="892.39" y="912.38"/><llbbox lat0="-90" lat1="90" lon0="-180" lon1="180"/></view></views></metadata><g id="context"><path d="M161,292L153,291L149,289L146,283L142,284L138,282L135,281L123,276L114,277L108,279L101,283L98,286L90,288L83,287L67,281L62,282L56,280L46,277L39,275L32,275L32,272L36,268L31,264L29,262L28,263L26,267L23,268L20,273L20,275L22,286L25,289L31,296L29,299L160,299L161,292Z " data-iso="BGR"/><path d="M81,35L81,35L82,32L92,32L97,26L115,26L128,28L137,32L144,35L151,36L153,41L162,43L165,42L173,43L179,45L180,48L189,43L193,50L210,49L213,52L213,54L218,54L219,53L218,46L221,39L227,32L229,31L239,30L242,30L242,30L239,24L239,8L234,1L235,0L91,0L80,6L77,8L77,11L84,17L84,21L83,26L80,32L81,35Z " data-iso="BLR"/><path d="M442,299L438,297L435,298L425,298L425,299L442,299Z " data-iso="GEO"/><path d="M50,146L50,145L49,140L45,139L44,136L40,134L39,129L37,129L36,129L28,129L25,124L22,122L18,123L7,119L0,124L0,192L8,189L15,180L15,179L26,163L29,160L29,157L36,152L45,150L49,146L50,146Z " data-iso="HUN"/><path d="M158,236L163,236L163,231L169,225L169,223L172,222L176,216L175,212L175,207L181,205L181,209L183,207L193,208L194,211L201,209L197,205L197,198L190,192L189,181L181,174L181,173L183,162L182,159L179,160L175,154L170,152L168,154L166,150L161,148L156,143L150,140L143,143L135,142L130,144L130,145L132,145L137,149L140,156L143,166L147,172L148,176L157,189L160,200L159,204L156,215L155,221L156,231L154,232L156,235L157,237L158,236Z " data-iso="MDA"/><path d="M48,109L49,109L52,111L55,111L53,97L54,93L62,85L78,72L84,71L86,68L87,65L85,59L88,57L85,53L85,48L81,41L82,38L81,35L80,32L83,26L84,21L84,17L77,11L77,8L80,6L91,0L0,0L0,95L6,92L11,93L14,95L18,96L20,94L26,94L32,96L42,106L47,109L48,109Z " data-iso="POL"/><path d="M29,262L31,264L36,268L32,272L32,275L39,275L46,277L56,280L62,282L67,281L83,287L90,288L98,286L101,283L108,279L114,277L123,276L135,281L138,282L142,284L146,283L149,289L153,291L161,292L161,290L163,285L164,275L169,268L169,262L171,259L171,255L175,254L174,255L174,261L185,259L187,256L189,248L190,246L183,240L179,240L168,245L162,243L159,241L157,237L156,235L154,232L156,231L155,221L156,215L159,204L160,200L157,189L148,176L147,172L143,166L140,156L137,149L132,145L130,145L129,146L123,147L122,149L119,153L104,154L92,159L86,151L77,151L66,146L61,146L58,142L51,145L50,146L49,146L45,150L36,152L29,157L29,160L26,163L15,179L15,180L8,189L0,192L0,224L7,229L3,234L6,238L2,239L17,250L20,250L23,247L27,247L31,251L27,252L26,257L29,262L29,262Z " data-iso="ROU"/><path d="M450,299L450,0L235,0L234,1L239,8L239,24L242,30L242,30L243,31L249,32L253,30L254,25L257,24L260,25L281,23L283,24L288,35L294,41L291,44L289,45L291,58L307,60L313,65L312,66L315,75L315,81L320,87L322,85L329,85L337,88L338,90L342,88L354,83L355,84L361,93L369,99L371,97L373,94L377,97L384,99L387,101L392,99L396,103L398,103L405,108L411,107L411,112L413,113L412,119L404,126L408,129L411,130L409,132L407,132L404,139L408,140L410,146L409,148L412,149L410,152L409,161L408,162L389,164L387,168L379,172L378,173L376,181L377,188L382,185L384,183L388,182L384,186L392,185L394,181L398,181L400,188L397,189L390,193L382,197L384,201L376,201L372,203L368,203L369,206L375,210L380,215L384,220L378,220L377,223L372,223L371,230L367,234L366,237L367,243L358,246L348,243L346,244L351,247L344,250L357,256L361,262L366,266L369,266L372,264L380,273L383,274L393,277L407,288L412,293L419,299L425,299L425,298L435,298L438,297L442,299L450,299Z " data-iso="RUS"/><path d="M29,262L29,262L26,257L27,252L31,251L27,247L23,247L20,250L17,250L2,239L6,238L3,234L7,229L0,224L0,299L29,299L31,296L25,289L22,286L20,275L20,273L23,268L26,267L28,263L29,262Z " data-iso="SRB"/><path d="M37,129L38,124L43,119L44,115L48,110L48,109L47,109L42,106L32,96L26,94L20,94L18,96L14,95L11,93L6,92L0,95L0,124L7,119L18,123L22,122L25,124L28,129L36,129L37,129Z " data-iso="SVK"/><path d="M242,218L234,215L235,217L242,218Z M242,30L239,30L229,31L227,32L221,39L218,46L219,53L218,54L213,54L213,52L210,49L193,50L189,43L180,48L179,45L173,43L165,42L162,43L153,41L151,36L144,35L137,32L128,28L115,26L97,26L92,32L82,32L81,35L81,35L82,38L81,41L85,48L85,53L88,57L85,59L87,65L86,68L84,71L78,72L62,85L54,93L53,97L55,111L52,111L49,109L48,109L48,110L44,115L43,119L38,124L37,129L39,129L40,134L44,136L45,139L49,140L50,145L50,146L51,145L58,142L61,146L66,146L77,151L86,151L92,159L104,154L119,153L122,149L123,147L129,146L130,145L130,144L135,142L143,143L150,140L156,143L161,148L166,150L168,154L170,152L175,154L179,160L182,159L183,162L181,173L181,174L189,181L190,192L197,198L197,205L201,209L194,211L193,208L183,207L181,209L181,205L175,207L175,212L176,216L172,222L169,223L169,225L163,231L163,236L158,236L157,237L159,241L162,243L168,245L179,240L183,240L190,246L190,243L189,237L188,235L190,230L193,231L202,227L212,215L216,206L223,204L229,204L233,199L232,203L239,204L240,195L237,186L239,187L241,193L241,199L245,205L250,207L255,205L250,209L232,206L242,211L242,212L237,214L242,216L252,222L259,221L262,221L268,219L273,223L277,222L278,227L270,232L267,233L259,238L252,244L261,245L272,251L275,254L277,260L275,267L273,271L278,275L283,276L287,275L292,271L296,266L302,263L305,262L310,263L311,260L316,257L318,253L323,253L327,256L336,255L339,254L343,243L337,242L334,242L330,245L320,247L314,242L308,234L304,223L304,219L309,216L313,211L314,213L312,217L313,218L316,213L325,205L330,203L335,203L339,201L344,200L346,201L349,198L358,195L362,189L368,188L376,189L377,188L376,181L378,173L379,172L387,168L389,164L408,162L409,161L410,152L412,149L409,148L410,146L408,140L404,139L407,132L409,132L411,130L408,129L404,126L412,119L413,113L411,112L411,107L405,108L398,103L396,103L392,99L387,101L384,99L377,97L373,94L371,97L369,99L361,93L355,84L354,83L342,88L338,90L337,88L329,85L322,85L320,87L315,81L315,75L312,66L313,65L307,60L291,58L289,45L291,44L294,41L288,35L283,24L281,23L260,25L257,24L254,25L253,30L249,32L243,31L242,30Z " data-iso="UKR"/></g><g fill="red" fill-opacity="0.35" id="regions"><path d="M256,223L264,224L262,223L256,223Z M314,217L313,217L313,217L313,217L307,222L311,221L313,217L314,217Z M245,219L233,216L236,217L245,219Z M266,175L266,175L266,180L265,180L267,187L263,187L262,190L265,193L264,195L260,197L262,198L256,198L254,197L254,198L251,198L250,199L247,199L246,201L241,201L241,202L243,205L245,207L247,205L249,207L256,205L248,209L247,209L239,208L239,208L238,209L238,209L240,210L242,210L242,212L238,213L246,218L248,218L253,222L267,220L271,222L273,223L277,220L278,222L277,226L279,226L278,229L274,230L269,233L267,232L260,236L259,239L253,242L252,246L256,246L258,245L272,251L275,253L277,258L276,261L275,262L275,267L271,270L274,273L276,273L277,275L284,276L287,275L293,271L295,267L304,263L308,262L309,263L311,260L315,258L318,253L322,253L324,253L327,257L331,255L335,256L337,255L340,254L340,252L344,245L344,243L338,242L327,243L324,246L319,247L315,245L309,235L304,222L304,218L309,216L310,216L308,210L302,207L302,204L299,203L301,196L298,193L297,185L295,183L292,185L291,180L290,178L289,178L283,177L278,178L276,175L268,175L266,175Z " data-fips="UP08" data-fips-="UP16" data-iso3="UKR" data-name="Crimea"/><path d="M238,209L238,209L239,208L239,208L237,207L233,207L235,210L237,208L238,209Z M207,155L207,156L206,157L207,165L209,171L217,171L219,175L218,179L219,183L224,183L227,189L225,193L221,193L224,204L226,204L228,205L230,202L234,198L231,204L239,204L240,198L241,197L242,195L239,192L242,192L242,196L241,200L241,201L241,201L246,201L247,199L250,199L251,198L254,198L254,197L256,198L262,198L260,197L264,195L265,193L262,190L263,187L267,187L265,180L266,180L266,175L266,175L264,174L264,171L265,170L265,163L265,162L265,162L263,160L258,162L258,164L257,167L253,168L248,167L237,160L238,158L235,157L227,156L226,154L222,154L220,155L216,154L208,154L208,155L207,155Z " data-fips="UP14" data-fips-="UP16|UP10" data-iso3="UKR" data-name="Mykolayiv"/><path d="M218,57L216,61L216,64L219,66L219,67L221,70L221,72L227,72L229,75L229,78L232,81L238,81L243,77L246,80L245,82L247,85L248,86L249,86L254,85L260,86L266,82L267,81L268,79L268,73L270,67L265,63L267,60L267,54L269,54L269,50L270,50L268,41L269,39L274,36L274,33L276,32L273,28L275,23L274,23L271,23L265,26L262,26L258,24L255,24L254,25L253,29L252,31L249,33L245,31L237,30L234,30L232,32L229,31L227,31L226,33L222,37L217,45L219,50L219,54L218,57L218,57Z " data-fips="UP02" data-fips-="" data-iso3="UKR" data-name="Chernihiv"/><path d="M121,27L123,29L122,31L120,34L119,37L120,38L119,46L123,45L128,52L126,55L127,55L127,59L125,62L123,64L122,69L117,66L114,67L113,66L112,68L111,68L108,71L106,77L105,78L105,78L108,78L107,81L109,86L110,87L110,87L112,83L115,84L120,83L122,81L127,82L128,81L128,84L128,85L129,84L132,82L133,82L141,75L148,74L149,74L149,74L151,68L150,67L151,59L152,59L156,52L157,49L159,48L161,45L161,45L161,42L155,41L151,36L146,35L137,31L133,31L125,28L123,28L121,27Z " data-fips="UP18" data-fips-="UP19" data-iso3="UKR" data-name="Rivne"/><path d="M111,130L110,131L109,133L109,139L107,138L102,140L99,143L99,145L94,149L94,155L92,159L93,159L97,157L100,154L111,154L120,153L122,150L123,146L130,145L132,143L133,145L134,142L139,142L143,143L146,141L147,142L149,140L149,140L149,140L148,136L148,135L147,135L147,135L138,136L136,137L135,136L126,136L126,137L125,137L120,135L118,133L115,133L114,131L111,130L111,130Z " data-fips="UP03" data-fips-="" data-iso3="UKR" data-name="Chernivtsi"/><path d="M67,123L68,124L76,132L77,131L79,136L81,137L85,140L88,148L86,151L86,151L87,152L90,156L92,159L92,159L94,155L94,149L99,145L99,143L102,140L107,138L109,139L109,133L110,131L111,130L111,130L108,124L104,126L103,121L98,119L97,116L99,117L97,112L96,105L95,102L94,102L92,101L89,101L88,104L88,105L85,107L88,110L84,112L76,112L74,111L69,116L69,120L67,123Z " data-fips="UP06" data-fips-="" data-iso3="UKR" data-name="Ivano-Frankivs'k"/><path d="M148,74L141,75L133,82L132,82L129,84L128,85L128,85L129,86L128,90L126,99L127,101L125,104L126,110L124,115L124,124L124,127L123,131L126,136L126,137L126,136L135,136L136,137L138,136L147,135L147,135L147,133L148,123L154,119L156,120L159,119L159,116L158,112L159,112L157,108L158,107L159,104L158,103L160,101L160,100L156,99L154,95L157,91L156,90L156,84L154,85L149,79L150,76L149,74L149,74L148,74Z " data-fips="UP09" data-fips-="" data-iso3="UKR" data-name="Khmel'nyts'kyy"/><path d="M87,65L86,68L83,72L79,71L64,83L57,90L53,94L53,103L52,107L55,110L55,112L55,112L55,115L57,117L64,122L67,123L67,123L69,120L69,116L74,111L76,112L84,112L88,110L85,107L88,105L88,104L89,101L92,101L94,102L95,102L95,102L96,100L100,98L103,94L109,92L111,90L110,87L110,87L109,86L107,81L108,78L105,78L105,78L105,77L98,74L94,70L95,69L87,65L87,65Z " data-fips="UP13" data-fips-="UP15" data-iso3="UKR" data-name="L'viv"/><path d="M128,84L128,81L127,82L122,81L120,83L115,84L112,83L110,87L110,87L110,87L111,90L109,92L103,94L100,98L96,100L95,102L95,102L96,105L97,112L99,117L97,116L98,119L103,121L104,126L108,124L111,130L111,130L111,130L114,131L115,133L118,133L120,135L125,137L126,137L126,136L123,131L124,127L124,124L124,115L126,110L125,104L127,101L126,99L128,90L129,86L128,85L128,85L128,84Z " data-fips="UP19" data-fips-="UP22" data-iso3="UKR" data-name="Ternopil'"/><path d="M86,151L88,148L85,140L81,137L79,136L77,131L76,132L68,124L67,123L67,123L64,122L57,117L55,115L55,112L55,112L50,110L49,109L44,116L42,120L38,123L37,129L40,129L41,135L42,135L45,139L49,141L49,145L52,144L53,145L56,142L58,143L61,146L65,146L70,148L76,150L76,150L85,151L86,151Z " data-fips="UP22" data-fips-="UP25|UP06" data-iso3="UKR" data-name="Transcarpathia"/><path d="M117,27L114,26L110,26L105,27L96,28L95,30L89,34L84,32L82,32L82,37L82,39L81,41L83,46L86,54L89,58L85,59L87,63L87,65L95,69L94,70L98,74L105,77L105,78L106,77L108,71L111,68L112,68L113,66L114,67L117,66L122,69L123,64L125,62L127,59L127,55L126,55L128,52L123,45L119,46L120,38L119,37L120,34L122,31L123,29L121,27L117,27Z " data-fips="UP21" data-fips-="UP24" data-iso3="UKR" data-name="Volyn"/><path d="M246,90L245,89L243,93L243,96L239,102L234,102L234,100L232,100L228,104L226,113L223,115L222,117L216,117L213,118L212,117L211,120L205,118L205,119L200,121L197,121L197,120L197,120L196,120L197,123L196,131L197,134L200,135L203,144L203,145L204,145L211,141L213,142L213,140L217,135L232,137L237,131L243,132L247,132L249,127L255,130L255,131L261,130L261,128L261,122L261,121L261,120L260,116L259,108L253,103L252,101L253,98L251,93L247,90L247,90L246,90Z " data-fips="UP01" data-fips-="" data-iso3="UKR" data-name="Cherkasy"/><path d="M284,133L281,132L279,133L272,131L272,128L266,124L261,121L261,122L261,128L261,130L255,131L255,130L249,127L247,132L243,132L237,131L232,137L217,135L213,140L213,142L211,141L204,145L203,145L203,145L199,145L197,148L196,152L196,152L197,152L201,153L203,155L207,155L208,155L208,154L216,154L220,155L222,154L226,154L227,156L235,157L238,158L237,160L248,167L253,168L257,167L258,164L258,162L263,160L265,162L265,162L265,161L270,156L270,158L276,154L276,152L274,145L280,142L282,140L277,138L277,136L282,137L284,135L284,134L284,133Z " data-fips="UP10" data-fips-="" data-iso3="UKR" data-name="Kirovohrad"/><path d="M194,51L194,59L195,61L195,64L196,68L195,70L197,71L197,73L195,76L195,77L194,81L196,83L199,90L196,100L192,101L192,106L192,106L193,106L193,109L194,110L194,114L193,115L196,119L197,120L197,120L197,121L200,121L205,119L205,118L211,120L212,117L213,118L216,117L222,117L223,115L226,113L228,104L232,100L234,100L234,102L239,102L243,96L243,93L245,89L246,90L247,90L247,89L247,88L247,88L248,88L248,86L247,85L245,82L246,80L243,77L238,81L232,81L229,78L229,75L227,72L221,72L221,70L219,67L219,66L216,64L216,61L218,57L217,57L213,54L213,52L199,48L194,51L194,51Z " data-fips="UP11" data-fips-="UP13" data-iso3="UKR" data-name="Kiev"/><path d="M224,204L221,193L225,193L227,189L224,183L219,183L218,179L219,175L217,171L209,171L207,165L206,157L207,156L207,155L203,155L201,153L197,152L196,152L195,153L194,156L189,155L187,155L177,158L177,158L179,160L182,159L183,161L183,164L184,165L183,170L181,173L182,176L184,177L188,181L189,179L190,181L190,185L188,187L189,192L197,197L198,199L197,204L196,205L201,209L200,210L195,211L192,208L189,210L187,207L183,207L181,210L180,204L175,207L174,209L176,215L174,219L169,223L169,226L165,228L163,231L163,236L163,236L158,235L157,236L161,243L164,244L169,245L168,244L180,240L188,243L188,247L190,246L191,242L190,239L188,238L190,236L187,236L189,228L191,234L194,232L193,231L196,230L200,226L202,227L209,220L212,212L214,212L216,209L216,206L224,204L224,204Z " data-fips="UP15" data-fips-="UP17|UP16" data-iso3="UKR" data-name="Odessa"/><path d="M160,100L160,101L158,103L159,104L158,107L157,108L159,112L158,112L159,116L159,119L156,120L154,119L148,123L147,133L147,135L148,135L148,136L149,140L149,140L150,140L156,143L158,146L160,146L168,153L169,155L170,152L176,154L176,157L177,158L187,155L189,155L194,156L195,153L196,152L196,152L197,148L199,145L203,145L203,145L203,144L200,135L197,134L196,131L197,123L196,120L197,120L196,119L193,115L194,114L194,110L193,109L193,106L192,106L192,106L188,108L183,107L183,102L182,98L178,100L162,100L160,100Z " data-fips="UP20" data-fips-="UP23" data-iso3="UKR" data-name="Vinnytsya"/><path d="M161,45L159,48L157,49L156,52L152,59L151,59L150,67L151,68L149,74L149,74L149,74L150,76L149,79L154,85L156,84L156,90L157,91L154,95L156,99L160,100L162,100L178,100L182,98L183,102L183,107L188,108L192,106L192,106L192,106L192,101L196,100L199,90L196,83L194,81L195,77L195,76L197,73L197,71L195,70L196,68L195,64L195,61L194,59L194,51L194,51L193,51L192,46L189,43L183,46L180,48L177,44L169,44L164,42L161,45L161,45Z " data-fips="UP24" data-fips-="UP27" data-iso3="UKR" data-name="Zhytomyr"/><path d="M275,23L273,28L276,32L274,33L274,36L269,39L268,41L270,50L269,50L269,54L267,54L267,60L265,63L270,67L268,73L268,79L267,81L268,81L272,81L280,83L284,81L291,81L297,94L300,94L303,93L304,93L305,93L309,90L311,90L315,87L317,88L320,87L320,87L318,86L317,84L315,83L312,66L313,66L309,63L308,59L305,59L299,61L298,59L290,58L291,57L290,49L288,46L289,45L292,44L294,41L288,35L287,31L284,25L278,24L277,25L275,23L275,23Z " data-fips="UP18" data-fips-="UP21" data-iso3="UKR" data-name="Sumy"/><path d="M306,124L303,124L294,128L292,131L291,137L284,134L284,134L284,135L282,137L277,136L277,138L282,140L280,142L274,145L276,152L276,154L270,158L270,156L265,161L265,162L265,163L265,170L264,171L264,174L266,175L268,175L276,175L278,178L283,177L289,178L290,178L293,177L300,175L305,176L305,167L303,165L305,163L303,161L304,158L314,158L318,159L321,157L324,159L326,158L331,163L330,165L333,165L334,167L337,166L341,166L340,165L341,162L341,158L342,158L346,159L348,154L347,151L345,151L345,147L347,142L344,144L343,141L343,141L342,141L338,140L335,144L334,144L334,141L331,137L327,131L323,131L314,129L311,126L307,125L306,124L306,124Z " data-fips="UP04" data-fips-="" data-iso3="UKR" data-name="Dnipropetrovs'k"/><path d="M366,121L366,121L359,121L359,122L361,124L356,127L355,131L352,134L342,137L343,140L343,141L343,141L344,144L347,142L345,147L345,151L347,151L348,154L346,159L342,158L341,158L341,162L340,165L341,166L341,167L345,173L353,177L355,177L354,180L349,186L348,186L353,193L352,196L352,196L357,194L358,195L362,189L369,188L375,190L376,188L377,174L379,172L383,171L387,168L388,164L390,163L393,163L393,158L389,158L383,153L382,150L380,150L379,149L380,147L378,145L376,145L375,138L376,134L373,130L371,130L370,123L368,124L366,121L366,121Z " data-fips="UP05" data-fips-="" data-iso3="UKR" data-name="Donets'k"/><path d="M320,87L317,88L315,87L311,90L309,90L305,93L304,93L305,94L304,97L307,101L310,102L312,107L314,108L316,112L313,115L314,117L311,120L308,120L306,124L306,124L307,125L311,126L314,129L323,131L327,131L331,137L334,141L334,144L335,144L338,140L342,141L343,141L343,140L342,137L352,134L355,131L356,127L361,124L359,122L359,121L366,121L366,121L366,120L366,114L368,111L368,105L367,105L369,101L368,99L368,99L367,97L362,94L359,89L359,87L357,86L356,83L353,83L351,85L344,87L339,91L337,89L335,88L332,88L329,84L323,84L320,87L320,87Z " data-fips="UP07" data-fips-="" data-iso3="UKR" data-name="Kharkiv"/><path d="M368,99L369,101L367,105L368,105L368,111L366,114L366,120L366,121L366,121L368,124L370,123L371,130L373,130L376,134L375,138L376,145L378,145L380,147L379,149L380,150L382,150L383,153L389,158L393,158L393,163L393,163L394,164L400,163L408,163L409,158L408,157L411,148L409,140L404,138L405,133L411,132L412,131L405,128L404,125L409,122L413,117L411,111L412,107L410,106L407,108L400,103L394,103L391,99L387,101L382,98L381,97L378,97L374,94L371,95L371,96L369,98L368,99Z " data-fips="UP12" data-fips-="UP14" data-iso3="UKR" data-name="Luhans'k"/><path d="M303,93L300,94L297,94L291,81L284,81L280,83L272,81L268,81L267,81L266,82L260,86L254,85L249,86L248,86L248,88L247,88L247,88L247,89L247,90L247,90L251,93L253,98L252,101L253,103L259,108L260,116L261,120L261,121L266,124L272,128L272,131L279,133L281,132L284,133L284,134L284,134L291,137L292,131L294,128L303,124L306,124L306,124L306,124L308,120L311,120L314,117L313,115L316,112L314,108L312,107L310,102L307,101L304,97L305,94L304,93L303,93Z " data-fips="UP16" data-fips-="UP18" data-iso3="UKR" data-name="Poltava"/><path d="M337,166L334,167L333,165L330,165L331,163L326,158L324,159L321,157L318,159L314,158L304,158L303,161L305,163L303,165L305,167L305,176L300,175L293,177L290,178L291,180L292,185L295,183L297,185L298,193L301,196L299,203L302,204L302,207L308,210L310,216L310,215L314,211L313,213L314,216L313,217L313,217L314,217L314,217L319,210L321,209L324,206L328,204L336,203L341,200L344,199L346,203L351,196L352,196L353,193L348,186L349,186L354,180L355,177L353,177L345,173L341,167L341,166L337,166Z " data-fips="UP23" data-fips-="UP26|UP04" data-iso3="UKR" data-name="Zaporizhzhya"/></g></svg>