<?xml version="1.0" encoding="UTF-8"?><!DOCTYPE svg  PUBLIC '-//W3C//DTD SVG 1.1//EN'  'http://www.w3.org/Graphics/SVG/1.1/DTD/svg11.dtd'><svg enable_background="new 0 0 450 301" height="301px" style="stroke-linejoin: round; stroke:#000; fill:#f6f3f0;" version="1.1" viewBox="0 0 450 301" width="450px" xmlns="http://www.w3.org/2000/svg" xmlns:xlink="http://www.w3.org/1999/xlink"><defs><style type="text/css"><![CDATA[path { fill-rule: evenodd; }
#context path { fill: #eee; stroke: #bbb; } ]]></style></defs><metadata><views><view h="301.0" padding="0.06" w="450"><proj id="laea" lat0="-34.1342727599" lon0="-57.5785697642"/><bbox h="67.12" w="61.83" x="987.85" y="946.89"/><llbbox lat0="-90" lat1="90" lon0="-180" lon1="180"/></view></views></metadata><g id="context"><path d="M113,145L116,137L116,133L114,130L113,115L114,112L117,110L120,107L122,96L119,92L120,87L124,81L127,75L128,70L127,61L129,60L130,57L130,48L128,42L129,37L135,30L138,26L138,22L140,20L142,17L150,11L154,6L155,1L156,0L0,0L0,299L157,299L154,295L143,285L133,278L110,267L103,259L101,255L98,246L102,243L104,240L101,224L98,216L97,211L101,190L102,181L105,178L110,179L114,172L112,150L113,145Z " data-iso="ARG"/><path d="M450,79L446,78L443,80L443,88L442,92L437,99L429,103L417,115L411,116L407,119L402,116L399,117L399,125L398,130L399,132L405,126L411,121L427,111L443,100L450,93L450,79Z M140,20L143,24L151,25L159,25L160,24L163,17L167,15L177,15L182,20L197,34L208,44L216,56L215,64L218,69L222,69L235,57L237,58L246,68L251,78L258,83L261,81L267,87L282,93L291,108L298,114L304,117L309,118L317,125L319,126L326,145L331,151L337,155L343,158L345,161L347,159L349,158L352,157L354,153L356,150L359,148L363,146L363,143L364,139L366,136L367,135L368,136L369,138L368,144L370,146L371,150L372,152L372,155L372,157L371,160L369,163L367,166L363,173L362,174L360,175L357,174L354,169L352,168L350,168L347,170L345,176L342,182L339,183L337,183L336,183L335,185L333,187L332,191L331,197L331,204L330,207L328,209L327,208L327,215L334,219L355,201L363,194L368,187L375,173L384,150L388,143L392,138L395,135L393,131L393,124L393,120L397,109L401,104L404,92L407,90L417,85L427,78L429,76L428,71L430,68L434,65L435,55L439,60L439,51L441,44L446,39L440,32L440,20L442,22L443,25L445,30L450,33L450,0L156,0L155,1L154,6L150,11L142,17L140,20Z " data-iso="BRA"/><path d="M140,20L138,22L138,26L135,30L129,37L128,42L130,48L130,57L129,60L127,61L128,70L127,75L124,81L120,87L119,92L122,96L120,107L117,110L114,112L113,115L114,130L116,133L116,137L113,145L114,150L116,161L118,168L118,172L115,178L112,181L109,182L105,184L106,189L103,202L102,214L104,225L113,235L124,246L130,255L143,254L160,254L174,267L192,272L195,277L207,280L219,274L227,273L241,275L247,280L253,280L262,282L287,272L291,268L296,269L303,260L313,253L316,246L326,234L329,225L331,221L334,219L327,215L327,208L326,208L325,204L325,202L325,198L325,194L323,188L323,185L325,182L327,179L331,176L334,176L336,174L338,172L338,169L338,167L339,165L341,164L343,162L345,161L343,158L337,155L331,151L326,145L319,126L317,125L309,118L304,117L298,114L291,108L282,93L267,87L261,81L258,83L251,78L246,68L237,58L235,57L222,69L218,69L215,64L216,56L208,44L197,34L182,20L177,15L167,15L163,17L160,24L159,25L151,25L143,24L140,20Z " data-iso="URY"/></g><g fill="red" fill-opacity="0.35" id="regions"><path d="M160,226L150,224L142,226L138,226L132,224L129,222L123,222L121,220L114,217L109,220L103,223L103,224L105,227L108,229L113,237L118,239L125,247L129,255L138,254L142,253L144,254L146,254L159,254L160,254L163,251L164,242L167,240L170,237L165,229L164,227L160,226Z " data-fips="UY04" data-fips-="" data-iso3="URY" data-name="Colonia"/><path d="M187,222L186,221L174,228L166,227L164,227L165,229L170,237L167,240L164,242L163,251L160,254L161,254L168,261L169,261L173,266L181,269L195,273L196,273L197,272L197,272L196,270L196,269L194,267L192,262L195,258L195,254L195,253L194,253L194,243L193,238L194,236L193,226L192,224L187,222Z " data-fips="UY16" data-fips-="" data-iso3="URY" data-name="San Jos"/><path d="M131,53L133,51L134,51L139,54L165,69L172,67L180,68L187,64L195,58L197,59L208,62L215,69L215,69L215,61L216,57L206,42L199,36L184,21L183,20L177,15L170,15L164,16L163,18L159,25L155,25L153,24L149,26L148,24L142,23L140,19L139,26L138,27L129,36L127,38L127,42L130,47L131,52L131,53Z " data-fips="UY01" data-fips-="" data-iso3="URY" data-name="Artigas"/><path d="M189,201L187,196L183,191L176,189L173,185L164,183L162,181L162,183L153,194L155,201L158,206L160,210L159,215L162,221L164,227L164,227L166,227L174,228L186,221L187,222L192,224L193,224L194,222L194,216L193,213L190,203L189,202L189,201Z " data-fips="UY06" data-fips-="" data-iso3="URY" data-name="Flores"/><path d="M121,93L122,95L122,100L119,108L114,111L113,112L115,118L115,123L114,129L117,133L117,136L114,141L113,145L113,146L118,147L122,151L130,153L133,151L141,149L143,146L146,144L149,144L157,143L160,141L166,140L175,142L176,142L184,143L187,146L189,147L191,139L199,131L202,116L202,108L200,106L198,107L194,112L185,111L182,109L176,108L172,109L168,108L161,108L158,106L154,105L151,102L147,101L141,98L134,96L132,93L126,90L120,92L121,93Z " data-fips="UY11" data-fips-="" data-iso3="URY" data-name="Paysand"/><path d="M187,146L184,143L176,142L175,142L166,140L160,141L157,143L149,144L146,144L143,146L141,149L133,151L130,153L122,151L118,147L113,146L114,149L116,159L116,164L118,166L120,169L118,177L114,180L108,180L105,183L106,191L103,196L103,197L104,198L108,195L112,191L116,191L117,187L118,186L120,183L119,182L129,176L134,177L138,179L144,175L149,179L150,179L155,180L155,182L157,181L157,182L162,181L162,181L162,181L161,178L163,175L165,175L167,176L174,174L175,171L177,168L183,166L184,166L184,164L185,158L186,157L188,149L189,147L187,146Z " data-fips="UY12" data-fips-="" data-iso3="URY" data-name="Ro Negro"/><path d="M131,54L131,58L126,62L128,65L128,69L126,71L123,83L123,85L119,89L119,92L120,92L126,90L132,93L134,96L141,98L147,101L151,102L154,105L158,106L161,108L168,108L172,109L176,108L182,109L185,111L194,112L198,107L200,106L200,104L204,89L207,86L208,83L208,81L208,81L209,77L212,76L215,69L215,69L215,69L208,62L197,59L195,58L187,64L180,68L172,67L165,69L139,54L134,51L133,51L131,53L131,54Z " data-fips="UY15" data-fips-="" data-iso3="URY" data-name="Salto"/><path d="M162,181L157,182L157,181L155,182L155,180L150,179L149,179L144,175L138,179L134,177L129,176L119,182L120,183L118,186L117,187L116,191L112,191L108,195L104,198L104,198L105,199L103,208L102,213L102,218L103,223L109,220L114,217L121,220L123,222L129,222L132,224L138,226L142,226L150,224L160,226L164,227L164,227L162,221L159,215L160,210L158,206L155,201L153,194L162,183L162,181L162,181Z " data-fips="UY17" data-fips-="" data-iso3="URY" data-name="Soriano"/><path d="M287,103L284,108L285,113L283,118L281,120L283,122L279,128L278,128L277,128L272,129L271,130L269,138L265,142L263,142L259,146L258,147L250,146L246,148L247,149L247,152L245,158L245,163L246,170L248,172L253,176L257,177L260,177L260,176L259,174L269,167L273,167L282,165L289,162L291,161L301,164L304,166L309,161L313,164L330,164L337,166L339,166L339,165L341,164L343,162L346,160L345,159L341,157L340,157L334,154L324,143L324,137L321,132L319,125L316,124L311,119L308,118L305,115L302,117L296,112L287,103L287,103Z " data-fips="UY03" data-fips-="" data-iso3="URY" data-name="Cerro Largo"/><path d="M244,148L239,144L237,147L235,148L232,147L229,150L225,149L223,154L219,153L214,158L207,160L204,165L198,164L196,167L185,167L184,166L183,166L177,168L175,171L174,174L167,176L165,175L163,175L161,178L162,181L162,181L164,183L173,185L176,189L183,191L187,196L189,201L189,202L193,202L198,198L200,198L203,201L211,201L213,199L217,198L220,199L226,196L231,195L247,186L248,187L253,183L255,182L255,181L256,180L258,179L259,178L260,177L257,177L253,176L248,172L246,170L245,163L245,158L247,152L247,149L246,148L244,148Z " data-fips="UY05" data-fips-="" data-iso3="URY" data-name="Durazno"/><path d="M215,69L212,76L209,77L208,81L208,81L209,80L212,79L217,82L223,86L224,90L227,95L230,96L232,101L231,104L232,108L233,109L246,109L253,111L255,111L266,113L267,114L277,127L278,128L279,128L283,122L281,120L283,118L285,113L284,108L287,103L287,102L287,100L285,97L281,92L279,91L271,90L267,87L261,81L259,83L257,83L255,81L247,71L246,69L242,63L235,57L232,57L232,62L229,62L226,66L220,69L216,69L215,69Z " data-fips="UY13" data-fips-="" data-iso3="URY" data-name="Rivera"/><path d="M277,127L267,114L266,113L255,111L253,111L246,109L233,109L232,108L231,104L232,101L230,96L227,95L224,90L223,86L217,82L212,79L209,80L208,81L208,83L207,86L204,89L200,104L200,106L202,108L202,116L199,131L191,139L189,147L188,149L186,157L185,158L184,164L184,166L185,167L196,167L198,164L204,165L207,160L214,158L219,153L223,154L225,149L229,150L232,147L235,148L237,147L239,144L244,148L246,148L250,146L258,147L259,146L263,142L265,142L269,138L271,130L272,129L277,128L278,128L277,127Z " data-fips="UY18" data-fips-="" data-iso3="URY" data-name="Tacuaremb"/><path d="M260,177L259,178L258,179L256,180L255,181L255,182L255,185L255,192L253,195L254,197L256,195L260,195L264,196L266,195L270,195L274,198L278,199L282,201L289,196L292,196L296,200L299,202L300,202L300,202L303,201L306,199L307,196L311,195L315,191L316,189L323,186L323,185L325,182L327,179L331,176L334,176L336,174L338,172L338,169L338,167L339,166L337,166L330,164L313,164L309,161L304,166L301,164L291,161L289,162L282,165L273,167L269,167L259,174L260,176L260,177Z " data-fips="UY19" data-fips-="" data-iso3="URY" data-name="Treinta y Tres"/><path d="M237,263L236,261L234,258L232,246L231,241L225,242L220,245L213,243L206,250L203,250L201,249L196,250L196,251L195,253L195,254L195,258L192,262L194,267L196,269L196,270L198,269L203,271L204,270L209,272L211,272L211,278L213,277L225,273L228,273L241,274L241,274L239,271L239,268L237,266L237,264L237,263Z " data-fips="UY02" data-fips-="" data-iso3="URY" data-name="Canelones"/><path d="M253,195L255,192L255,185L255,182L253,183L248,187L247,186L231,195L226,196L220,199L217,198L213,199L211,201L203,201L200,198L198,198L193,202L189,202L190,203L193,213L194,216L194,222L193,224L192,224L193,226L194,236L193,238L194,243L194,253L195,253L196,251L196,250L201,249L203,250L206,250L213,243L220,245L225,242L231,241L232,240L238,232L239,230L241,226L244,223L246,216L245,209L254,201L254,197L254,197L253,195Z " data-fips="UY07" data-fips-="" data-iso3="URY" data-name="Florida"/><path d="M299,202L296,200L292,196L289,196L282,201L278,199L274,198L270,195L266,195L264,196L260,195L256,195L254,197L254,197L254,201L245,209L246,216L244,223L241,226L239,230L238,232L232,240L231,241L232,246L234,258L236,261L237,263L237,264L243,264L245,263L251,259L255,258L258,256L266,252L267,247L269,243L269,242L273,235L279,233L281,229L283,227L284,226L285,224L288,218L288,213L289,210L295,207L297,203L300,203L300,202L299,202Z " data-fips="UY08" data-fips-="" data-iso3="URY" data-name="Lavalleja"/><path d="M283,227L281,229L279,233L273,235L269,242L269,243L267,247L266,252L258,256L255,258L251,259L245,263L243,264L237,264L237,266L239,268L239,271L241,274L243,275L248,280L254,279L263,282L278,276L279,276L280,272L279,270L280,264L280,263L279,254L282,251L282,242L283,237L283,227Z " data-fips="UY09" data-fips-="" data-iso3="URY" data-name="Maldonado"/><path d="M196,270L197,272L197,272L196,273L196,273L194,274L194,277L199,279L201,279L205,281L207,280L211,278L211,272L209,272L204,270L203,271L198,269L196,270Z " data-fips="UY10" data-fips-="" data-iso3="URY" data-name="Montevideo"/><path d="M323,186L316,189L315,191L311,195L307,196L306,199L303,201L300,202L300,202L300,203L297,203L295,207L289,210L288,213L288,218L285,224L284,226L283,227L283,237L282,242L282,251L279,254L280,263L280,264L279,270L280,272L279,276L289,270L289,263L293,264L292,269L297,269L305,259L314,253L314,251L315,247L321,241L325,236L329,224L333,219L332,219L327,216L326,214L326,209L327,208L326,208L325,204L325,202L325,198L325,194L323,188L323,186Z " data-fips="UY14" data-fips-="" data-iso3="URY" data-name="Rocha"/></g></svg>