<?xml version="1.0" encoding="UTF-8"?><!DOCTYPE svg  PUBLIC '-//W3C//DTD SVG 1.1//EN'  'http://www.w3.org/Graphics/SVG/1.1/DTD/svg11.dtd'><svg enable_background="new 0 0 450 376" height="376px" pretty_print="False" style="stroke-linejoin: round; stroke:#000; fill: none;" version="1.1" viewBox="0 0 450 376" width="450px" xmlns="http://www.w3.org/2000/svg" xmlns:xlink="http://www.w3.org/1999/xlink"><defs><style type="text/css"><![CDATA[path { fill-rule: evenodd; }]]></style></defs><metadata><views><view h="376.0" padding="0.06" w="450"><proj id="laea" lat0="39.622" lon0="-98.606"/><bbox h="374.4" w="567.54" x="731.67" y="825.72"/></view></views></metadata><g class="" id="context"><path d="M446,326L440,329L443,329L446,326Z M443,314L445,314L446,315L443,314Z M433,319L435,313L435,313L433,319Z M434,314L431,313L432,314L434,314Z M426,314L423,310L423,312L426,314Z M418,310L415,310L415,309L418,310Z M428,302L427,301L427,303L428,302Z M399,307L397,307L401,311L399,307Z M420,302L416,299L418,301L420,302Z M401,299L401,298L400,299L401,299Z M398,302L395,299L393,299L393,305L395,305L398,302Z M406,293L405,293L409,294L406,293Z M388,284L386,286L384,285L388,284Z M400,290L400,286L398,283L400,290Z " data-iso="BHS"/><path d="M474,74L473,75L473,75L474,74Z M432,89L432,89L432,88L432,89Z M428,87L427,86L427,86L428,87Z M380,94L380,93L381,93L380,94Z M382,95L380,95L380,94L382,95Z M393,76L393,76L394,75L393,76Z M457,60L459,61L460,55L464,58L463,61L458,64L455,61L455,51L456,49L458,50L459,55L457,60Z M439,63L443,62L449,58L450,58L447,65L437,64L435,63L435,58L436,61L439,63Z M447,50L446,49L448,46L447,50Z M429,52L429,53L428,52L429,52Z M55,64L55,64L55,62L55,64Z M376,101L382,95L382,92L389,81L396,74L401,59L403,55L414,44L422,41L427,43L428,45L424,52L419,55L424,56L426,53L428,54L429,58L434,66L440,66L439,68L450,67L456,64L461,66L454,74L448,79L445,84L441,94L435,94L433,86L440,75L437,75L439,70L433,78L428,82L424,84L424,83L417,78L413,69L409,66L407,68L402,68L400,81L401,83L399,90L396,95L375,102L376,101Z M476,8L475,9L475,8L476,8Z M477,5L477,7L477,6L477,5Z M53,56L52,55L52,53L53,56Z M39,50L38,47L39,47L39,50Z M439,34L437,35L428,36L428,31L432,31L439,33L439,34Z M50,49L50,48L51,48L50,49Z M465,1L464,0L465,0L465,1Z M39,39L47,45L49,53L53,59L54,66L55,65L49,65L45,60L47,60L43,57L39,52L42,51L36,43L34,42L33,38L39,39Z M461,-6L459,-2L462,1L463,13L464,15L464,9L468,8L469,14L472,12L475,12L482,7L483,12L485,13L485,17L490,12L489,18L489,21L491,20L491,17L493,16L495,22L496,19L499,28L497,30L495,27L492,28L488,22L488,26L486,28L486,34L484,36L482,34L484,32L485,25L482,30L479,31L477,30L475,32L461,40L458,37L460,31L457,31L458,22L459,19L458,18L457,7L461,-6Z M38,30L37,28L39,28L38,30Z M459,-10L459,-10L459,-10L459,-10Z M328,43L326,43L328,42L328,43Z M36,18L36,16L36,15L36,18Z M36,13L36,11L36,11L36,13Z M318,37L311,34L314,33L318,37Z M24,6L23,9L23,16L22,15L20,5L24,6Z M40,15L39,19L37,14L39,11L40,15Z M38,12L37,12L37,11L38,12Z M321,31L321,31L321,31L321,31Z M34,10L32,5L35,8L34,10Z M24,-5L27,-0L23,5L21,5L21,-5L24,-5Z M34,-4L35,-5L35,-5L34,-4Z M38,-6L37,-6L40,-7L38,-6Z M410,-30L409,-30L410,-31L410,-30Z M320,3L320,-0L321,1L320,3Z M314,4L315,1L315,1L314,4Z M319,2L316,7L317,4L319,2Z M399,-42L400,-40L399,-40L399,-42Z M312,-9L311,-9L311,-9L312,-9Z M304,-28L304,-29L304,-29L304,-28Z M374,-60L372,-60L372,-61L374,-60Z M358,-52L357,-55L359,-54L358,-52Z M367,-68L364,-70L366,-71L367,-68Z M239,-40L238,-41L239,-41L239,-40Z M364,-72L365,-71L363,-72L364,-72Z M300,-55L301,-48L301,-47L297,-53L300,-55Z M362,-79L364,-79L363,-77L362,-79Z M339,-69L337,-69L335,-70L339,-69Z M287,-58L286,-52L285,-50L282,-49L281,-53L281,-56L287,-58Z M304,-67L306,-65L302,-65L304,-67Z M303,-72L302,-71L302,-72L303,-72Z M270,-77L271,-79L282,-74L285,-72L285,-68L290,-69L293,-67L284,-65L280,-68L278,-67L278,-64L272,-57L269,-62L264,-60L264,-63L266,-65L265,-79L265,-82L267,-82L270,-77Z M177,-95L176,-95L176,-97L177,-95Z M173,-101L174,-100L173,-100L173,-101Z M306,-111L302,-110L301,-112L306,-112L306,-111Z M172,-101L172,-101L172,-102L172,-101Z M258,-99L257,-102L257,-104L258,-99Z M297,-114L299,-113L301,-109L301,-105L295,-103L293,-108L297,-114Z M191,-103L189,-104L190,-105L191,-103Z M299,-115L297,-117L297,-118L299,-115Z M242,-111L241,-112L241,-113L242,-111Z M282,-115L282,-115L283,-121L284,-120L282,-115Z M243,-113L243,-112L242,-113L243,-113Z M204,-111L203,-113L203,-113L204,-111Z M224,-113L223,-111L223,-113L224,-113Z M317,-134L316,-134L317,-135L317,-134Z M284,-124L282,-121L282,-123L284,-124Z M217,-114L221,-111L224,-105L220,-103L212,-106L211,-109L215,-116L217,-114Z M253,-121L252,-120L252,-121L253,-121Z M207,-122L206,-123L206,-123L207,-122Z M351,127L351,127L352,130L344,136L337,139L328,146L324,144L326,138L327,138L328,137L328,136L328,133L328,132L329,127L322,111L315,107L315,105L312,105L310,102L304,98L279,88L260,92L254,91L252,89L247,88L247,88L247,88L247,88L245,89L239,87L238,86L238,86L237,85L235,81L233,85L220,85L184,84L143,81L140,80L100,73L60,63L60,63L58,63L58,59L56,55L57,50L54,53L53,53L51,46L51,45L48,44L44,41L46,41L44,38L40,37L38,33L39,29L42,24L46,23L38,27L38,23L41,19L41,13L37,10L34,4L37,1L36,-1L41,-7L41,-8L45,-16L40,-24L39,-25L38,-30L39,-34L40,-44L38,-50L37,-57L36,-61L29,-58L24,-58L25,-61L23,-72L17,-78L40,-109L45,-116L69,-147L74,-154L78,-149L81,-141L84,-138L90,-142L94,-141L96,-139L97,-140L103,-140L109,-138L103,-137L100,-138L96,-136L94,-134L100,-137L104,-135L118,-139L117,-133L119,-127L121,-128L125,-133L126,-133L123,-127L126,-125L129,-128L133,-128L138,-121L152,-114L155,-111L156,-107L151,-106L150,-103L167,-100L168,-101L173,-95L174,-97L176,-92L174,-92L178,-90L177,-98L178,-100L184,-102L186,-105L179,-102L175,-103L186,-108L191,-100L194,-100L200,-96L206,-97L211,-95L212,-98L217,-95L213,-99L216,-103L222,-101L221,-94L225,-90L222,-89L224,-86L226,-91L225,-99L227,-99L232,-105L230,-108L228,-106L229,-112L222,-115L220,-120L221,-131L224,-135L231,-130L232,-126L235,-121L233,-115L241,-113L241,-112L244,-102L246,-112L247,-112L252,-108L253,-103L251,-102L257,-93L260,-102L260,-114L261,-120L264,-120L271,-116L274,-116L274,-113L276,-111L272,-108L278,-102L279,-97L273,-89L269,-92L272,-87L268,-86L260,-88L264,-84L260,-76L257,-76L248,-80L244,-80L249,-79L253,-75L262,-74L256,-63L253,-63L247,-58L241,-59L234,-62L241,-57L243,-58L248,-56L248,-52L245,-50L241,-49L238,-45L239,-44L236,-41L232,-27L232,-26L232,-15L231,-13L234,-10L235,-7L236,-10L241,-10L245,2L246,4L253,3L260,5L270,9L273,12L277,13L287,17L288,18L304,17L305,19L306,26L307,28L309,36L314,42L321,46L323,51L328,51L329,46L333,46L331,45L332,39L325,27L325,23L319,17L323,15L328,9L332,1L332,-3L330,-8L326,-14L321,-18L315,-25L317,-32L318,-31L317,-36L316,-36L313,-40L313,-43L311,-44L311,-50L308,-52L308,-59L311,-59L317,-58L321,-59L322,-59L325,-63L339,-55L348,-55L352,-48L352,-46L355,-41L356,-42L355,-35L357,-35L361,-39L363,-39L365,-31L366,-36L370,-33L375,-46L374,-54L372,-58L377,-57L381,-54L381,-53L389,-49L388,-46L391,-48L393,-45L398,-42L397,-39L399,-40L405,-35L400,-33L404,-31L417,-27L417,-22L420,-27L422,-23L423,-27L427,-25L434,-27L435,-25L432,-19L427,-13L427,-10L437,-23L440,-20L446,-22L450,-20L456,-12L454,-1L451,0L447,5L445,15L441,20L435,24L426,26L412,33L408,36L406,38L406,45L399,54L398,60L388,62L397,62L392,78L389,80L383,87L379,97L377,99L375,102L372,105L366,114L365,118L352,122L349,124L351,126L351,127Z M218,-145L217,-147L217,-147L218,-145Z M165,-147L170,-149L174,-146L174,-142L179,-148L182,-143L182,-135L185,-136L184,-148L187,-149L190,-148L192,-146L194,-134L193,-128L198,-122L199,-122L204,-118L205,-114L200,-116L199,-112L199,-107L195,-106L189,-108L189,-110L185,-113L181,-109L173,-107L161,-107L158,-111L158,-115L151,-118L149,-123L152,-126L159,-126L165,-124L167,-125L157,-129L152,-130L152,-136L150,-141L149,-144L153,-148L163,-153L166,-154L167,-152L165,-147Z M193,-145L190,-150L190,-153L194,-153L196,-151L193,-145Z M267,-158L274,-159L277,-153L274,-153L270,-150L267,-158Z M252,-130L258,-134L257,-136L252,-139L254,-141L256,-141L253,-143L252,-152L256,-153L258,-157L261,-157L267,-150L268,-141L270,-145L274,-148L274,-151L276,-152L281,-152L287,-148L288,-140L289,-146L298,-146L303,-141L303,-138L305,-143L311,-142L312,-136L314,-140L318,-137L316,-136L318,-133L319,-134L323,-133L319,-131L319,-127L316,-126L326,-125L328,-123L328,-125L335,-122L335,-123L339,-123L342,-121L345,-122L345,-117L349,-122L351,-118L354,-116L351,-116L354,-111L353,-108L350,-109L351,-108L354,-104L353,-102L347,-103L344,-106L345,-108L341,-107L334,-110L334,-107L332,-107L334,-103L330,-104L339,-99L344,-95L344,-97L352,-94L350,-92L357,-90L359,-85L358,-84L361,-82L357,-80L346,-82L345,-78L354,-76L359,-71L359,-70L345,-70L342,-72L339,-71L329,-74L331,-77L321,-80L319,-83L315,-82L313,-83L314,-81L306,-75L299,-77L300,-83L307,-85L308,-85L312,-89L315,-91L309,-96L310,-98L312,-105L313,-107L310,-111L306,-115L302,-117L301,-119L300,-117L295,-119L291,-119L292,-123L288,-126L285,-126L283,-129L280,-129L278,-131L277,-129L280,-127L278,-124L261,-122L255,-121L254,-125L246,-124L243,-129L250,-129L247,-131L242,-132L240,-137L240,-141L241,-148L243,-153L249,-156L251,-156L249,-146L252,-138L256,-134L252,-130Z M209,-154L211,-152L217,-153L217,-149L213,-145L215,-146L217,-142L219,-143L219,-137L217,-133L214,-131L211,-130L207,-136L200,-143L202,-146L204,-143L207,-145L204,-149L209,-154Z M214,-153L211,-154L215,-156L214,-153Z M228,-157L236,-153L232,-144L226,-143L228,-142L227,-137L223,-141L222,-143L221,-151L224,-156L228,-157Z M155,-164L159,-164L162,-163L165,-155L164,-155L152,-151L149,-148L147,-147L144,-142L134,-140L134,-146L130,-151L143,-165L143,-170L155,-164Z M216,-160L215,-159L216,-160L216,-160Z M222,-160L220,-160L221,-161L222,-160Z M226,-165L225,-161L223,-161L218,-164L219,-166L222,-170L223,-170L226,-165Z M219,-169L217,-167L218,-170L219,-169Z M157,-179L157,-180L158,-180L157,-179Z M163,-176L161,-177L167,-180L163,-176Z M261,-179L260,-178L260,-181L261,-179Z M204,-174L201,-173L199,-176L202,-176L204,-174Z M200,-179L201,-177L201,-177L200,-179Z M215,-178L215,-171L215,-165L208,-164L207,-167L209,-169L203,-169L204,-172L206,-172L206,-177L210,-173L209,-179L215,-178Z M206,-179L207,-180L207,-180L206,-179Z M189,-175L192,-173L193,-166L190,-165L186,-166L179,-163L175,-162L170,-165L180,-168L175,-169L173,-172L170,-169L168,-169L164,-172L164,-173L171,-175L166,-176L173,-179L172,-181L174,-182L176,-179L178,-179L180,-173L186,-171L187,-172L185,-178L188,-183L189,-182L189,-175Z M178,-184L175,-184L177,-185L178,-184Z M223,-182L225,-181L231,-180L230,-179L235,-177L238,-172L245,-170L250,-175L260,-175L262,-173L262,-167L257,-164L253,-167L253,-164L251,-163L240,-162L240,-164L233,-162L230,-164L229,-173L226,-177L221,-176L217,-182L223,-182Z M175,-190L172,-185L167,-183L168,-186L162,-180L160,-180L157,-182L154,-182L156,-186L167,-192L172,-192L175,-190Z M199,-184L197,-190L199,-186L199,-184Z M220,-190L224,-190L224,-187L218,-188L220,-190Z M206,-189L206,-191L207,-190L206,-189Z M180,-193L179,-196L179,-195L180,-193Z M188,-195L189,-194L186,-192L188,-191L183,-188L181,-190L182,-194L188,-195Z M203,-193L203,-194L203,-194L203,-193Z M190,-200L190,-196L183,-199L189,-201L190,-200Z M218,-197L220,-196L220,-192L216,-190L216,-193L214,-194L215,-199L218,-197Z M203,-204L205,-202L210,-199L212,-191L206,-194L201,-195L203,-199L200,-200L201,-202L203,-204Z M224,-221L230,-213L230,-215L234,-211L234,-208L237,-209L239,-206L234,-203L233,-195L230,-198L232,-195L226,-195L222,-201L224,-203L222,-204L220,-207L218,-208L216,-212L218,-211L217,-217L221,-216L218,-218L220,-223L224,-221Z M249,-245L252,-246L253,-243L256,-247L262,-244L262,-239L259,-236L258,-232L261,-235L262,-231L260,-220L261,-220L258,-211L258,-209L261,-205L261,-199L256,-197L258,-193L253,-190L260,-188L259,-182L249,-181L247,-183L247,-180L245,-179L235,-179L234,-182L236,-185L237,-193L243,-189L245,-189L246,-192L243,-190L240,-195L237,-195L241,-205L235,-212L234,-215L240,-216L246,-222L248,-223L245,-225L241,-219L238,-219L237,-217L228,-220L227,-222L228,-225L226,-224L226,-226L223,-226L228,-231L232,-231L230,-232L232,-234L236,-232L240,-232L236,-234L236,-238L240,-241L249,-245Z " data-iso="CAN"/><path d="M360,341L358,338L355,339L356,341L360,341Z M403,329L401,328L401,328L403,329Z M401,327L401,327L399,327L401,327Z M399,326L398,325L397,325L399,326Z M364,324L362,324L352,328L345,332L341,339L338,341L342,341L347,337L352,336L357,330L366,330L363,332L366,334L371,334L371,332L374,334L378,333L396,337L397,339L411,342L410,343L406,349L420,344L426,344L430,343L437,339L430,335L423,335L422,333L412,333L411,333L404,329L404,330L393,327L382,324L376,324L364,324Z " data-iso="CUB"/><path d="M386,354L385,355L385,355L386,354Z M387,354L388,354L386,354L387,354Z " data-iso="CYM"/><path d="M450,348L448,348L448,349L450,348Z M450,352L438,354L438,356L441,357L450,355L450,352Z M450,338L445,341L450,341L450,338Z M450,336L449,336L448,337L450,336Z " data-iso="HTI"/><path d="M412,361L405,363L406,367L411,368L421,362L412,361Z " data-iso="JAM"/><path d="M97,373L96,372L96,372L97,373Z M321,359L323,356L321,356L321,359Z M322,349L322,349L322,349L322,349Z M112,322L112,320L111,320L112,322Z M96,317L93,316L95,318L96,317Z M92,316L92,312L91,313L92,316Z M103,302L102,302L102,303L103,302Z M45,264L44,262L45,264L45,264Z M96,272L96,270L94,273L96,274L96,272Z M88,270L88,268L85,265L86,268L88,270Z M226,310L209,306L198,287L198,285L189,273L179,272L173,280L166,275L162,272L159,263L149,253L147,251L133,249L132,254L109,251L79,235L81,233L61,231L61,233L64,238L63,240L67,249L67,258L76,268L80,275L73,280L71,280L74,284L75,286L82,292L83,292L93,302L94,306L93,313L104,325L107,327L109,334L110,334L115,329L110,321L105,319L105,314L101,304L101,301L99,295L97,294L94,286L90,283L88,273L78,257L78,254L78,240L83,245L92,250L91,254L93,262L97,272L103,282L109,286L109,288L111,292L114,293L119,299L119,301L117,304L117,307L122,309L123,311L130,320L136,326L147,340L148,346L150,350L152,351L151,355L149,358L151,359L147,362L150,369L153,373L156,374L235,374L234,372L226,360L221,348L222,350L220,342L223,319L226,312L226,310Z M316,374L317,366L315,367L318,357L322,350L315,348L310,347L302,350L294,352L289,355L288,359L288,366L287,367L286,371L283,374L316,374Z " data-iso="MEX"/><path d="M392,191L392,190L392,191L392,191Z M402,135L393,140L392,142L398,140L403,136L402,135Z M57,67L56,67L57,68L57,67Z M58,68L58,67L57,68L58,68Z M59,72L58,71L59,74L59,72Z M58,77L58,76L57,77L58,77Z M58,79L57,79L57,79L58,79Z M420,94L419,95L419,95L420,94Z M418,127L417,127L417,127L418,127Z M414,127L413,127L413,128L414,127Z M395,197L394,193L394,192L395,197Z M389,204L390,201L389,203L389,204Z M388,204L387,204L387,204L388,204Z M39,211L38,210L38,211L39,211Z M41,212L41,211L39,211L41,212Z M42,211L43,212L45,212L42,211Z M363,311L363,311L363,311L363,311Z M392,142L392,142L392,142L391,141L399,133L407,129L412,124L417,123L413,123L410,120L408,119L408,113L415,96L418,95L426,86L424,84L424,83L417,78L413,69L409,66L407,68L402,68L400,81L401,83L399,90L396,95L375,102L372,105L369,109L370,108L370,109L367,113L369,114L369,115L369,118L367,120L366,121L364,122L361,123L359,123L356,123L353,124L350,126L351,126L351,127L351,127L352,127L353,130L351,133L348,136L344,139L341,142L338,143L337,145L336,146L333,147L330,149L329,148L326,149L328,148L327,148L323,147L323,145L324,143L324,141L324,141L324,140L325,140L326,137L327,136L327,137L327,138L328,137L328,136L328,133L328,133L325,127L323,124L322,124L320,125L318,128L317,128L316,126L316,126L316,126L318,124L318,122L318,122L319,121L319,120L319,118L318,116L317,115L317,114L318,114L317,112L312,111L311,110L307,109L307,109L305,112L306,113L303,115L304,117L304,117L303,119L303,118L303,119L302,119L302,116L300,118L300,119L299,120L298,121L299,124L298,126L297,127L298,129L298,131L301,137L301,141L301,142L301,145L299,149L299,150L296,152L294,152L293,151L291,147L291,145L290,141L289,137L289,135L290,124L291,121L290,120L290,121L289,121L288,123L287,124L286,124L287,122L287,121L288,119L291,112L291,111L292,112L293,111L295,110L295,111L295,111L294,111L294,112L294,112L295,111L296,109L301,107L304,107L306,108L307,108L307,108L307,107L307,106L312,106L312,106L311,105L311,105L310,104L310,104L310,104L309,102L308,102L308,102L307,102L304,102L304,102L304,100L303,100L297,101L296,102L294,104L293,104L291,104L291,104L288,104L286,102L284,101L282,101L281,103L280,100L279,99L275,102L272,103L271,104L268,106L267,106L266,106L265,106L265,106L264,106L264,106L265,104L265,103L265,103L265,103L264,103L263,104L262,104L261,104L260,105L257,106L257,105L257,105L259,102L261,101L264,97L266,95L270,93L272,92L273,89L260,92L254,91L252,89L247,88L245,89L239,87L238,86L238,86L237,86L236,85L235,86L234,85L234,84L236,83L235,81L233,85L220,85L184,84L143,81L140,80L100,73L60,63L60,65L61,67L59,69L60,74L58,79L56,80L58,74L57,71L50,69L46,66L46,75L46,79L38,104L34,112L31,117L29,125L30,127L29,133L25,140L24,143L26,148L25,157L28,163L28,165L31,169L32,167L36,169L32,169L31,171L31,179L33,180L32,186L39,200L38,206L46,210L48,212L54,217L60,223L61,231L61,231L81,233L79,235L109,251L132,254L133,249L147,251L149,253L159,263L162,272L166,275L173,280L179,272L189,273L198,285L198,287L209,306L226,310L226,309L222,300L224,293L223,292L226,289L234,285L242,279L245,276L243,273L248,274L261,272L267,273L272,271L275,275L281,276L283,275L286,276L287,273L294,276L295,274L290,273L288,271L291,268L288,268L282,266L286,265L295,263L297,263L303,260L304,263L309,260L313,260L315,259L326,265L326,266L336,260L339,262L343,266L348,269L349,277L349,281L354,289L357,289L360,295L367,302L368,304L373,302L375,296L375,288L372,283L361,262L356,249L357,242L357,242L362,233L365,230L370,224L370,221L375,215L379,211L382,206L388,201L382,197L386,196L389,197L392,193L391,190L390,193L385,192L388,188L390,187L385,181L384,182L382,180L385,181L380,177L384,178L382,175L383,172L377,171L382,170L380,167L377,160L382,156L380,160L382,164L381,167L387,171L386,177L389,162L386,159L386,157L390,158L392,155L394,150L393,145L392,142Z M115,156L115,156L113,157L113,158L111,157L111,156L110,157L109,153L108,151L108,149L110,148L110,149L111,151L111,153L112,153L113,151L114,152L114,152L113,152L113,153L114,155L115,156Z M324,141L324,142L324,143L325,143L326,140L326,140L325,141L324,141Z M351,128L352,129L352,129L351,128Z M310,102L310,102L310,102L310,102Z M309,101L307,100L307,101L307,101L308,101L308,101L309,101Z M44,220L43,219L43,219L44,220Z M53,221L53,221L53,221L53,221Z M356,248L356,250L356,251L356,248Z M295,269L296,269L295,270L295,269Z M271,274L270,272L270,272L271,274Z M373,282L370,277L370,279L373,282Z M292,266L293,265L292,266L292,266Z M296,268L296,267L295,266L296,268Z M357,292L357,291L356,291L357,292Z M224,297L226,292L224,295L224,297Z M374,303L374,303L374,303L374,303Z M371,307L371,306L371,307L371,307Z M225,308L223,302L225,306L225,308Z M358,293L356,292L357,293L358,293Z M365,310L365,309L364,310L365,310Z M369,308L370,307L369,308L369,308Z " data-iso="USA"/></g><g class="" id="regions"><path d="M418,126L417,127L418,127L418,126Z M414,126L413,128L414,127L414,126Z M417,124L417,124L417,123L417,124Z M407,114L407,114L407,114L406,114L406,114L406,114L406,115L406,115L406,115L406,115L406,115L406,115L406,115L406,115L406,115L406,115L406,115L406,115L406,115L405,115L405,115L405,116L405,116L405,116L405,116L405,116L405,116L405,116L405,116L405,116L405,116L405,116L405,116L404,117L404,117L403,117L403,117L402,117L402,117L401,117L401,118L400,118L400,118L399,118L399,118L398,118L397,118L397,119L397,119L396,119L396,119L396,119L395,119L395,119L395,119L394,119L394,119L394,120L393,120L393,120L393,120L392,120L392,120L392,120L391,120L392,120L392,121L392,122L392,123L392,123L392,124L392,125L392,126L392,126L392,127L392,127L392,127L393,127L394,127L395,126L395,126L396,126L396,126L397,126L397,126L397,126L397,126L398,126L398,126L398,125L399,125L400,125L401,125L402,124L403,124L404,124L404,124L404,124L405,124L405,123L406,123L406,123L406,123L407,123L407,124L407,124L407,124L407,124L407,124L407,124L407,124L407,124L407,124L407,124L407,124L407,124L407,125L407,125L407,125L407,125L407,125L408,125L408,125L408,125L408,125L408,125L408,126L409,125L409,125L409,126L409,126L409,126L409,126L409,126L409,126L409,126L409,126L409,126L409,126L410,127L410,127L410,127L410,127L412,125L414,125L415,123L410,119L408,117L410,115L408,114L407,114L407,114L407,114Z " data-fips="US25" data-fips-="" data-iso3="USA" data-name="Massachusetts" data-p="MA"/><path d="M222,85L223,88L225,109L227,114L227,115L227,115L225,118L226,120L228,136L228,139L230,139L240,138L251,138L263,137L265,137L265,136L264,133L262,131L259,129L255,127L254,119L253,117L256,112L255,106L257,106L257,105L259,102L261,101L264,97L266,95L270,93L272,92L272,92L269,91L264,92L263,91L259,92L255,90L253,90L247,88L244,89L244,88L239,85L239,85L238,86L237,86L236,85L235,86L234,85L234,85L222,85L222,85Z M236,82L235,81L235,84L236,82L236,82Z " data-fips="US32" data-fips-="US27" data-iso3="USA" data-name="Minnesota" data-p="MN"/><path d="M176,112L178,88L178,86L178,84L177,84L166,83L144,81L132,79L117,77L103,74L101,74L99,83L101,90L102,91L106,98L108,98L106,106L109,109L109,111L118,121L123,122L124,120L126,123L126,123L126,123L127,118L143,120L156,121L174,123L175,123L175,123L175,122L175,119L176,115L176,114L176,112Z " data-fips="US30" data-fips-="" data-iso3="USA" data-name="Montana" data-p="MT"/><path d="M227,114L225,109L223,88L222,85L221,85L202,85L197,85L178,84L178,84L178,86L178,88L176,112L176,114L178,114L198,115L217,115L225,115L227,115L227,114Z " data-fips="US38" data-fips-="" data-iso3="USA" data-name="North Dakota" data-p="ND"/><path d="M126,123L124,120L123,122L118,121L109,111L109,109L106,106L108,98L106,98L102,91L101,90L99,83L101,74L101,74L97,73L96,73L95,72L90,97L90,100L90,101L90,101L90,101L91,104L89,110L84,116L85,120L80,139L80,140L81,140L95,143L100,143L101,144L103,144L109,145L121,147L123,147L123,146L123,143L125,130L126,124L126,123L126,123Z " data-fips="US16" data-fips-="" data-iso3="USA" data-name="Idaho" data-p="ID"/><path d="M45,85L45,85L45,85L45,85Z M55,81L55,81L55,81L55,81Z M54,80L54,79L54,79L54,80Z M58,77L58,76L58,76L58,77Z M58,72L58,72L58,72L58,72Z M58,68L58,67L57,68L58,68Z M59,68L59,67L59,67L59,68Z M59,66L57,66L58,66L59,66Z M58,63L58,63L58,63L58,63Z M95,72L60,63L61,67L59,68L60,73L59,75L58,79L55,81L54,80L57,79L56,77L58,74L57,72L49,68L46,65L45,70L46,79L45,80L44,87L49,89L49,89L51,95L67,99L76,98L89,101L90,101L90,101L90,100L90,97L95,72L95,72Z " data-fips="US53" data-fips-="" data-iso3="USA" data-name="Washington" data-p="WA"/><path d="M131,198L130,198L114,196L106,194L94,192L93,192L93,192L91,201L88,200L86,202L86,209L85,211L85,211L85,211L88,218L84,221L82,230L83,231L82,233L81,233L81,233L80,235L89,240L109,251L125,253L125,253L127,236L128,229L131,199L131,198Z " data-fips="US04" data-fips-="" data-iso3="USA" data-name="Arizona" data-p="AZ"/><path d="M52,226L51,224L51,226L52,226Z M53,221L52,221L53,221L53,221Z M43,211L42,212L45,212L43,211Z M59,135L57,134L45,131L32,127L30,127L30,127L29,133L28,136L24,143L26,146L27,150L25,156L29,167L30,169L32,168L35,169L32,169L30,173L30,176L33,179L33,182L32,184L32,187L35,193L38,197L37,198L39,207L45,209L47,211L53,214L58,221L61,226L61,230L68,232L81,233L81,233L82,233L83,231L82,230L84,221L88,218L85,211L85,211L85,211L84,209L52,164L59,137L59,135Z " data-fips="US06" data-fips-="" data-iso3="USA" data-name="California" data-p="CA"/><path d="M187,172L187,163L185,163L174,162L173,162L172,162L157,161L147,160L137,159L136,159L136,160L135,166L134,175L132,197L131,198L133,198L153,200L155,200L177,202L178,202L179,202L181,202L182,202L185,202L186,202L186,201L186,186L187,182L187,173L187,173L187,172Z " data-fips="US08" data-fips-="" data-iso3="USA" data-name="Colorado" data-p="CO"/><path d="M93,192L93,191L98,160L101,145L101,144L100,143L95,143L81,140L80,140L79,139L70,137L68,137L61,135L59,135L59,137L52,164L84,209L85,211L85,211L85,211L86,209L86,202L88,200L91,201L93,192L93,192Z " data-fips="US32" data-fips-="" data-iso3="USA" data-name="Nevada" data-p="NV"/><path d="M178,206L178,205L178,204L178,203L178,202L177,202L155,200L153,200L133,198L131,198L131,199L128,229L127,236L125,253L126,253L133,253L133,249L147,251L147,251L146,248L176,250L178,206L178,206Z " data-fips="US35" data-fips-="" data-iso3="USA" data-name="New Mexico" data-p="NM"/><path d="M49,89L44,87L42,95L39,100L36,108L34,113L30,118L30,124L30,126L30,127L32,127L45,131L57,134L59,135L61,135L68,137L70,137L79,139L80,140L80,139L85,120L84,116L89,110L91,104L90,101L90,101L89,101L76,98L67,99L51,95L49,89L49,89Z " data-fips="US41" data-fips-="" data-iso3="USA" data-name="Oregon" data-p="OR"/><path d="M121,147L109,145L103,144L101,144L101,145L98,160L93,191L93,192L94,192L106,194L114,196L130,198L131,198L132,197L134,175L135,166L136,160L136,159L135,159L122,157L121,157L123,148L123,147L121,147Z M115,156L115,156L113,157L113,158L111,157L111,156L110,157L109,153L108,151L108,149L110,148L110,149L111,151L111,153L112,153L113,151L114,152L114,152L113,152L113,153L114,155L115,156Z " data-fips="US49" data-fips-="" data-iso3="USA" data-name="Utah" data-p="UT"/><path d="M174,141L174,134L175,124L175,123L174,123L156,121L143,120L127,118L126,123L126,123L126,124L125,130L123,143L123,146L123,147L123,148L121,157L122,157L135,159L136,159L137,159L147,160L157,161L172,162L173,162L173,161L173,156L173,147L174,144L174,142L174,141Z " data-fips="US56" data-fips-="" data-iso3="USA" data-name="Wyoming" data-p="WY"/><path d="M283,209L278,209L280,206L279,204L261,206L246,207L244,207L244,208L246,220L246,232L246,234L247,234L250,235L250,239L250,240L252,240L256,240L274,239L274,239L274,238L274,234L273,234L275,229L275,228L277,223L279,219L279,219L279,219L281,217L280,215L282,213L282,212L283,209L283,209L283,209Z " data-fips="US05" data-fips-="" data-iso3="USA" data-name="Arkansas" data-p="AR"/><path d="M270,146L268,144L266,142L265,137L265,137L263,137L251,138L240,138L230,139L228,139L227,139L228,147L228,148L228,148L228,148L231,158L233,160L234,167L234,167L234,167L254,166L264,165L266,167L266,167L267,167L266,165L268,164L269,157L273,155L274,150L270,146L270,146L270,146Z " data-fips="US19" data-fips-="" data-iso3="USA" data-name="Iowa" data-p="IA"/><path d="M244,200L239,177L241,175L238,173L237,173L236,173L219,173L204,173L189,173L187,173L187,173L187,182L186,186L186,201L186,202L188,202L215,202L224,202L242,202L244,202L244,200Z " data-fips="US20" data-fips-="" data-iso3="USA" data-name="Kansas" data-p="KS"/><path d="M266,167L264,165L254,166L234,167L234,167L234,167L235,169L236,170L237,172L237,173L238,173L241,175L239,177L244,200L244,202L244,203L244,204L244,205L244,207L246,207L261,206L279,204L280,206L278,209L283,209L283,209L283,208L283,206L284,205L284,204L284,204L284,204L284,203L284,203L284,204L284,204L284,204L284,204L284,204L285,204L285,204L285,204L286,203L286,203L287,199L287,199L287,199L283,196L283,192L278,189L276,184L277,181L274,181L272,178L267,173L266,171L266,167L266,167L266,167Z " data-fips="US29" data-fips-="US17" data-iso3="USA" data-name="Missouri" data-p="MO"/><path d="M227,148L226,147L217,146L214,144L204,144L175,143L174,142L174,144L173,147L173,156L173,161L173,162L174,162L185,163L187,163L187,172L187,173L189,173L204,173L219,173L236,173L237,173L237,172L236,170L235,169L234,167L234,167L234,167L233,160L231,158L228,148L228,148L227,148Z " data-fips="US31" data-fips-="" data-iso3="USA" data-name="Nebraska" data-p="NE"/><path d="M244,205L244,204L244,203L244,202L242,202L224,202L215,202L188,202L186,202L185,202L182,202L181,202L179,202L178,202L178,203L178,204L178,205L178,206L178,206L202,207L202,224L206,228L207,227L214,231L215,230L218,232L218,233L222,233L225,234L227,232L231,234L240,232L246,234L246,234L246,232L246,220L244,208L244,207L244,205Z " data-fips="US40" data-fips-="" data-iso3="USA" data-name="Oklahoma" data-p="OK"/><path d="M225,115L217,115L198,115L178,114L176,114L176,115L175,119L175,122L175,123L175,123L175,124L174,134L174,141L174,142L175,143L204,144L214,144L217,146L226,147L227,148L228,148L228,148L228,147L227,139L228,139L228,136L226,120L225,118L227,115L227,115L225,115Z " data-fips="US46" data-fips-="" data-iso3="USA" data-name="South Dakota" data-p="SD"/><path d="M278,277L278,277L278,277L278,277Z M281,277L280,277L280,277L281,277Z M283,277L283,277L283,277L283,277Z M284,277L284,277L284,277L284,277Z M294,271L294,271L294,271L294,271Z M295,270L295,270L295,270L295,270Z M291,269L290,270L290,269L291,269Z M292,268L292,267L292,268L292,268Z M291,266L291,266L290,266L291,266Z M254,270L254,268L255,261L253,253L250,242L250,240L252,240L256,240L274,239L274,239L274,239L275,243L276,245L273,252L271,259L282,258L287,258L287,260L290,265L290,265L283,264L282,266L283,267L287,266L291,268L290,273L294,274L293,276L289,274L285,272L286,275L281,276L275,275L275,273L270,270L267,271L268,272L263,273L261,272L255,272L253,273L254,270L254,270Z " data-fips="US22" data-fips-="" data-iso3="USA" data-name="Louisiana" data-p="LA"/><path d="M225,309L223,300L223,302L225,309Z M225,293L225,294L224,295L225,293Z M226,291L228,289L227,290L226,291Z M232,287L228,288L228,289L232,287Z M232,286L233,285L233,286L232,286Z M245,276L245,277L244,277L245,276Z M178,206L178,206L176,250L146,248L147,251L147,251L156,261L160,264L164,274L166,276L171,279L174,279L178,273L183,272L188,272L195,279L198,287L200,289L202,292L205,295L205,300L208,306L217,309L224,311L222,297L224,295L223,292L226,290L227,288L231,285L230,284L235,284L241,281L245,276L244,273L246,273L247,275L245,276L253,273L253,270L254,270L254,268L255,261L253,253L250,242L250,240L250,239L250,235L247,234L246,234L246,234L240,232L231,234L227,232L225,234L222,233L218,233L218,232L215,230L214,231L207,227L206,228L202,224L202,207L178,206L178,206Z " data-fips="US48" data-fips-="" data-iso3="USA" data-name="Texas" data-p="TX"/><path d="M404,124L403,124L402,124L401,125L400,125L399,125L398,125L398,126L398,126L397,126L397,126L397,126L397,126L396,126L396,126L395,126L395,126L394,127L393,127L392,127L392,128L394,135L394,135L394,137L394,137L398,133L400,133L405,131L405,131L405,130L405,129L404,124L404,124Z " data-fips="US09" data-fips-="" data-iso3="USA" data-name="Connecticut" data-p="CT"/><path d="M398,91L397,92L397,92L396,95L396,95L395,103L396,105L395,111L397,119L397,119L397,119L397,118L398,118L399,118L399,118L400,118L400,118L401,118L401,117L402,117L402,117L403,117L403,117L404,117L404,117L405,116L405,116L405,116L405,116L405,116L405,116L405,116L405,116L405,116L405,116L405,116L405,116L405,115L405,115L406,115L406,115L406,115L406,115L406,115L406,115L406,115L406,115L406,115L406,115L406,115L406,115L406,115L406,114L406,114L406,114L407,114L407,114L407,114L407,114L407,114L408,114L408,113L408,112L407,112L407,112L405,108L404,107L398,91L398,91Z " data-fips="US33" data-fips-="" data-iso3="USA" data-name="New Hampshire" data-p="NH"/><path d="M408,132L408,131L407,131L408,132Z M408,128L408,127L408,128L408,128Z M409,126L409,126L409,126L409,126L409,126L409,126L409,126L409,126L409,127L409,128L410,127L410,127L410,127L410,127L409,126L409,126L409,126Z M409,128L408,126L408,128L409,128Z M407,124L407,123L406,123L406,123L406,123L405,123L405,124L404,124L404,124L405,129L405,130L405,131L406,130L408,128L408,126L408,125L408,125L408,125L408,125L408,125L407,125L407,125L407,125L407,125L407,125L407,124L407,124L407,124L407,124L407,124L407,124L407,124L407,124L407,124L407,124L407,124L407,124Z " data-fips="US44" data-fips-="" data-iso3="USA" data-name="Rhode Island" data-p="RI"/><path d="M396,95L391,97L390,97L385,99L384,99L387,105L389,112L391,120L392,120L392,120L392,120L393,120L393,120L393,120L394,120L394,119L394,119L395,119L395,119L395,119L396,119L396,119L396,119L397,119L397,119L395,111L396,105L395,103L396,95L396,95Z " data-fips="US50" data-fips-="" data-iso3="USA" data-name="Vermont" data-p="VT"/><path d="M317,215L315,215L308,216L304,216L296,217L296,217L296,218L297,218L297,248L299,262L299,262L301,263L301,260L304,262L307,260L307,261L305,256L325,253L327,253L327,253L325,250L325,247L324,245L326,240L323,234L317,215L317,215Z " data-fips="US01" data-fips-="" data-iso3="USA" data-name="Alabama" data-p="AL"/><path d="M360,311L360,311L360,311L360,311Z M366,309L366,309L366,309L366,309Z M367,309L367,309L367,309L367,309Z M367,309L366,309L366,309L367,309Z M367,309L366,309L366,308L367,309Z M371,307L371,307L371,307L371,307Z M372,306L372,306L372,306L372,306Z M368,303L368,302L368,302L368,303Z M368,302L368,302L368,302L368,302Z M374,303L374,303L373,303L374,303Z M375,300L375,299L375,300L375,300Z M375,297L375,297L375,297L375,297Z M364,298L364,298L363,298L364,298Z M362,298L362,298L362,298L362,298Z M363,298L363,297L363,298L363,298Z M357,293L357,293L357,293L357,293Z M356,291L356,291L356,291L356,291Z M357,292L356,291L357,291L357,292Z M356,290L355,290L355,290L356,290Z M352,285L351,285L351,284L352,285Z M351,283L351,283L351,283L351,283Z M373,283L369,277L370,277L373,283Z M349,272L349,272L349,272L349,272Z M349,271L349,271L349,271L349,271Z M346,268L345,268L345,268L346,268Z M329,266L329,266L330,265L329,266Z M331,264L331,264L332,264L331,264Z M307,261L305,256L325,253L327,253L327,253L327,254L331,255L350,253L351,255L352,251L353,250L356,251L356,251L360,261L368,271L366,270L372,282L373,283L375,293L375,296L374,302L368,304L369,303L365,299L360,296L359,292L357,290L357,288L355,288L351,283L353,280L351,282L349,278L348,268L346,268L337,261L334,260L328,265L326,266L324,262L318,261L318,260L311,261L307,261L307,261Z " data-fips="US12" data-fips-="" data-iso3="USA" data-name="Florida" data-p="FL"/><path d="M325,239L325,239L323,234L317,215L317,215L317,215L321,214L322,214L326,213L327,213L327,213L334,212L336,212L336,212L336,212L335,214L339,217L341,220L350,228L352,229L359,237L359,237L357,239L357,245L356,248L356,251L356,251L353,250L352,251L351,255L350,253L331,255L327,254L327,253L327,253L327,253L325,250L325,247L324,245L326,240L325,239Z " data-fips="US13" data-fips-="" data-iso3="USA" data-name="Georgia" data-p="GA"/><path d="M295,265L294,265L294,265L295,265Z M299,264L298,264L299,264L299,264Z M294,264L293,265L293,265L294,264Z M298,264L296,264L298,264L298,264Z M279,219L279,219L277,223L275,228L275,229L273,234L274,234L274,238L274,239L274,239L275,243L276,245L273,252L271,259L282,258L287,258L287,260L290,265L290,265L291,263L295,263L299,262L299,262L297,248L297,218L296,218L296,217L296,217L294,218L290,218L280,219L279,219Z " data-fips="US28" data-fips-="" data-iso3="USA" data-name="Mississippi" data-p="MS"/><path d="M336,212L336,212L335,214L339,217L341,220L350,228L352,229L359,237L359,237L359,233L362,232L366,229L366,228L374,215L374,215L364,208L360,209L355,209L352,207L336,211L336,212Z " data-fips="US45" data-fips-="" data-iso3="USA" data-name="South Carolina" data-p="SC"/><path d="M290,144L280,145L279,145L270,146L270,146L270,146L274,150L273,155L269,157L268,164L266,165L267,167L266,167L266,167L266,171L267,173L272,178L274,181L277,181L276,184L278,189L283,192L283,196L287,199L287,199L286,198L287,196L291,197L291,194L294,190L294,190L294,190L294,186L295,185L297,181L296,177L296,174L293,151L293,151L291,147L291,145L290,144Z " data-fips="US17" data-fips-="" data-iso3="USA" data-name="Illinois" data-p="IL"/><path d="M293,151L296,174L296,177L297,181L295,185L294,186L294,190L294,190L294,190L299,188L302,189L302,188L306,187L307,185L310,185L310,184L313,180L313,178L317,177L317,174L317,174L317,173L316,169L313,149L313,149L313,148L302,150L298,150L296,152L294,152L293,151Z " data-fips="US18" data-fips-="" data-iso3="USA" data-name="Indiana" data-p="IN"/><path d="M284,204L284,203L284,203L284,204L284,204L284,204L284,204Z M317,174L317,174L317,177L313,178L313,180L310,184L310,185L307,185L306,187L302,188L302,189L299,188L294,190L294,190L294,190L291,194L291,197L287,196L286,198L287,199L287,199L286,203L286,203L285,204L285,204L286,204L296,203L295,201L316,199L329,197L329,197L330,196L335,192L341,186L341,185L341,185L338,184L336,181L335,178L335,178L332,175L326,177L320,173L317,174L317,174Z " data-fips="US21" data-fips-="US18" data-iso3="USA" data-name="Kentucky" data-p="KY"/><path d="M379,214L378,214L378,214L379,214Z M379,211L379,211L379,212L379,211Z M382,207L382,207L381,208L382,207Z M388,204L388,204L387,204L388,204Z M387,204L387,204L386,204L387,204Z M388,204L390,201L389,202L388,204Z M391,200L391,199L391,199L391,200Z M395,197L394,194L395,196L395,197Z M389,185L389,185L389,185L389,185L391,189L393,191L389,185L389,185Z M388,185L389,185L389,185L389,185L389,185L388,185L388,185L388,185L388,185L388,185L388,185Z M388,185L373,189L369,190L356,192L355,192L355,193L348,194L346,194L345,194L345,194L345,195L345,197L342,199L339,201L338,201L336,203L329,209L327,213L327,213L327,213L334,212L336,212L336,212L336,211L352,207L355,209L360,209L364,208L374,215L374,215L379,214L379,211L389,201L385,201L387,198L385,196L389,197L392,194L392,191L390,194L389,190L384,192L388,189L391,189L388,185L388,185Z " data-fips="US37" data-fips-="" data-iso3="USA" data-name="North Carolina" data-p="NC"/><path d="M323,146L323,147L321,147L314,148L313,149L313,149L316,169L317,173L317,174L317,174L320,173L326,177L332,175L335,178L335,178L335,178L337,175L337,174L340,171L340,169L345,163L346,153L346,153L346,152L345,150L345,147L343,140L341,142L338,143L337,145L336,146L333,147L330,149L329,148L326,149L328,148L327,148L323,147L323,146Z " data-fips="US39" data-fips-="" data-iso3="USA" data-name="Ohio" data-p="OH"/><path d="M329,197L316,199L295,201L296,203L286,204L285,204L285,204L284,204L284,204L284,204L284,204L284,204L284,204L284,205L283,206L283,208L283,209L283,209L282,212L282,213L280,215L281,217L279,219L279,219L280,219L290,218L294,218L296,217L296,217L296,217L304,216L308,216L315,215L317,215L317,215L321,214L322,214L326,213L327,213L327,213L329,209L336,203L338,201L339,201L342,199L345,197L345,195L345,194L344,194L341,195L338,195L330,197L329,197L329,197Z " data-fips="US47" data-fips-="" data-iso3="USA" data-name="Tennessee" data-p="TN"/><path d="M388,185L389,185L389,185L389,184L389,185L388,185L388,185L388,185Z M388,176L388,176L388,176L388,176Z M389,169L387,170L387,170L387,171L387,171L386,176L388,175L389,170L389,169Z M390,169L390,169L390,169L390,169L390,171L390,170L390,169Z M341,185L341,186L335,192L330,196L329,197L330,197L338,195L341,195L344,194L345,194L345,194L346,194L348,194L355,193L355,192L356,192L369,190L373,189L388,185L388,185L388,185L388,185L388,185L388,185L388,185L388,185L388,183L389,184L389,184L389,185L389,185L389,185L389,184L387,182L385,181L384,179L384,177L382,175L376,171L377,171L383,175L383,173L380,171L376,169L374,170L375,164L375,164L375,164L375,164L374,164L374,164L373,163L371,162L369,161L369,161L369,161L368,163L364,161L364,164L360,170L359,173L356,172L354,180L353,183L347,187L341,187L341,185L341,185Z " data-fips="US51" data-fips-="" data-iso3="USA" data-name="Virginia" data-p="VA"/><path d="M257,106L255,106L256,112L253,117L254,119L255,127L259,129L262,131L264,133L265,136L265,137L265,137L266,142L268,144L270,146L270,146L270,146L279,145L280,145L290,144L290,141L289,137L289,135L290,124L291,121L290,120L289,121L288,123L287,124L286,124L287,122L287,121L288,119L290,115L286,116L286,113L284,111L277,109L269,107L270,105L268,106L267,106L265,106L264,106L265,103L265,103L263,104L262,104L260,105L257,106L257,106Z " data-fips="US55" data-fips-="" data-iso3="USA" data-name="Wisconsin" data-p="WI"/><path d="M354,161L348,162L346,153L346,153L346,153L345,163L340,169L340,171L337,174L337,175L335,178L335,178L336,181L338,184L341,185L341,185L341,185L341,187L347,187L353,183L354,180L356,172L359,173L360,170L364,164L364,161L368,163L369,161L369,161L369,161L367,159L365,158L358,162L356,165L355,160L354,161Z " data-fips="US54" data-fips-="" data-iso3="USA" data-name="West Virginia" data-p="WV"/><path d="M382,154L382,155L386,166L386,166L390,165L390,165L390,165L390,165L390,165L390,165L391,165L391,164L390,163L388,161L384,154L384,153L384,152L382,153L382,154L382,154Z " data-fips="US10" data-fips-="" data-iso3="USA" data-name="Delaware" data-p="DE"/><path d="M374,164L375,164L375,164L375,164L375,164L375,165L375,165L376,164L375,163L374,164Z " data-fips="US11" data-fips-="" data-iso3="USA" data-name="District of Columbia" data-p="DC"/><path d="M385,171L384,171L384,171L385,171Z M390,169L390,166L390,167L390,169L390,169L390,169L390,169L390,169Z M391,165L390,165L390,165L391,166L391,166L391,165L391,165Z M355,160L356,165L358,162L365,158L367,159L369,161L369,161L369,161L371,162L373,163L374,164L374,164L375,163L376,164L375,165L375,165L378,170L382,170L380,167L377,160L380,160L381,164L381,167L385,167L385,169L386,171L387,171L387,171L387,170L387,170L389,169L389,169L390,167L390,166L390,165L390,165L386,166L386,166L382,155L382,154L381,154L378,155L359,160L356,160L355,160Z " data-fips="US24" data-fips-="" data-iso3="USA" data-name="Maryland" data-p="MD"/><path d="M393,154L393,154L393,154L393,154Z M394,153L394,152L393,152L394,153Z M392,138L387,137L386,136L385,136L385,136L383,141L385,145L387,150L387,150L384,153L386,157L390,158L391,160L391,156L393,155L393,144L391,143L392,138L392,138Z " data-fips="US34" data-fips-="" data-iso3="USA" data-name="New Jersey" data-p="NJ"/><path d="M392,142L391,143L392,143L392,142Z M398,140L396,141L396,141L398,140Z M398,140L399,139L400,138L398,140Z M403,133L400,136L394,139L393,142L401,137L403,133Z M404,132L405,131L404,131L404,132Z M348,136L348,139L365,135L379,131L382,135L385,136L385,136L386,136L387,137L392,138L392,138L392,138L392,140L394,137L394,137L394,135L394,135L392,128L392,127L392,127L392,127L392,126L392,126L392,125L392,124L392,123L392,123L392,122L392,121L392,120L391,120L392,120L391,120L389,112L387,105L384,99L384,99L374,102L370,109L370,109L367,113L369,114L369,115L369,118L367,120L366,121L364,122L361,123L359,123L356,123L353,124L350,126L351,126L351,127L352,127L353,130L351,133L348,136L348,136Z M351,128L352,129L352,129L351,128Z " data-fips="US36" data-fips-="" data-iso3="USA" data-name="New York" data-p="NY"/><path d="M343,140L345,147L345,150L346,152L346,153L346,153L348,162L354,161L355,160L356,160L359,160L378,155L381,154L382,154L382,154L382,153L384,152L385,152L386,150L387,150L387,150L385,145L383,141L385,136L385,136L385,136L382,135L379,131L365,135L348,139L348,136L344,139L343,140Z " data-fips="US42" data-fips-="" data-iso3="USA" data-name="Pennsylvania" data-p="PA"/><path d="M417,98L417,97L416,97L417,98Z M418,96L417,96L418,96L418,96Z M420,94L419,95L419,94L420,94Z M398,91L404,107L405,108L407,112L407,111L409,105L409,105L415,99L416,93L419,92L421,93L423,89L425,89L426,86L419,80L417,79L413,69L409,66L405,69L402,67L400,76L401,79L400,89L401,89L398,91L398,91Z " data-fips="US23" data-fips-="" data-iso3="USA" data-name="Maine" data-p="ME"/><path d="M270,105L269,107L277,109L284,111L286,113L286,116L290,115L291,112L291,111L292,112L293,111L295,110L295,111L294,112L294,112L295,111L296,109L301,107L304,107L306,108L307,108L307,108L307,106L312,106L312,106L311,105L311,105L310,104L310,104L309,102L308,102L307,102L304,102L304,100L303,100L297,101L296,102L294,104L293,104L291,104L291,104L288,104L286,102L284,101L282,101L281,103L280,100L279,99L275,102L272,103L271,104L270,105Z M298,150L302,150L313,148L313,149L314,148L321,147L323,147L323,146L323,145L324,143L324,141L324,141L324,140L325,140L326,137L327,136L328,133L328,133L325,127L323,124L322,124L320,125L318,128L317,128L316,126L316,126L318,124L318,122L319,121L319,118L318,116L317,115L317,114L318,114L317,112L312,111L311,110L307,109L307,109L305,112L306,113L303,115L304,117L303,119L303,118L303,119L302,119L302,116L300,118L299,120L298,121L299,124L298,126L297,127L298,129L298,131L301,137L301,141L301,142L301,145L299,149L299,150L298,150Z M324,141L324,142L324,143L325,143L325,140L325,141L324,141Z M311,103L310,101L309,101L310,103L311,103Z " data-fips="US26" data-fips-="" data-iso3="USA" data-name="Michigan" data-p="MI"/></g></svg>