<?xml version="1.0" encoding="UTF-8"?><!DOCTYPE svg  PUBLIC '-//W3C//DTD SVG 1.1//EN'  'http://www.w3.org/Graphics/SVG/1.1/DTD/svg11.dtd'><svg enable_background="new 0 0 450 301" height="301px" style="stroke-linejoin: round; stroke:#000; fill:#f6f3f0;" version="1.1" viewBox="0 0 450 301" width="450px" xmlns="http://www.w3.org/2000/svg" xmlns:xlink="http://www.w3.org/1999/xlink"><defs><style type="text/css"><![CDATA[path { fill-rule: evenodd; }
#context path { fill: #eee; stroke: #bbb; } ]]></style></defs><metadata><views><view h="301.0" padding="0.06" w="450"><proj id="laea" lat0="40.2168736839" lon0="63.6409165588"/><bbox h="123.04" w="178.62" x="919.53" y="923.22"/><llbbox lat0="-90" lat1="90" lon0="-180" lon1="180"/></view></views></metadata><g id="context"><path d="M450,260L444,263L442,263L443,257L437,256L431,259L424,264L421,267L419,271L412,273L407,276L400,283L395,283L393,279L390,271L391,251L390,247L384,248L385,240L382,236L377,233L373,233L370,234L367,237L363,245L359,251L360,254L359,260L357,261L346,261L343,262L341,272L338,276L330,270L317,276L310,282L307,281L302,277L302,276L302,275L300,274L291,275L288,274L285,271L279,271L272,271L271,272L262,270L254,265L251,268L249,275L238,276L232,279L226,299L390,299L396,291L399,291L401,290L408,282L419,277L437,274L450,274L450,260Z " data-iso="AFG"/><path d="M434,197L435,198L434,203L440,211L438,212L441,221L446,223L447,221L450,219L450,174L439,180L438,186L440,191L439,195L436,196L434,197Z " data-iso="CHN"/><path d="M0,299L144,299L144,295L143,293L124,292L118,282L115,280L104,273L102,271L101,267L92,261L89,259L83,259L80,260L76,259L72,256L63,251L55,249L53,242L45,241L42,239L34,239L31,240L30,243L14,242L9,243L0,247L0,299Z " data-iso="IRN"/><path d="M31,146L32,139L35,105L41,36L94,24L97,23L147,60L149,65L155,73L168,88L169,88L194,84L221,87L231,82L239,90L244,93L251,106L257,103L257,118L256,123L256,132L267,132L268,140L273,157L275,158L300,155L305,160L304,166L309,171L316,171L315,165L319,159L325,151L326,148L332,144L333,143L348,133L354,125L358,126L361,122L364,120L365,119L364,118L366,110L371,104L375,102L383,100L393,101L402,103L407,106L414,106L421,109L419,103L420,91L427,86L428,84L433,83L450,89L450,0L0,0L0,117L8,124L13,135L20,146L21,147L30,146L31,146Z " data-iso="KAZ"/><path d="M365,119L366,118L372,121L364,126L363,129L358,132L356,135L350,141L357,145L361,143L364,149L366,150L376,151L378,145L381,146L384,141L388,145L389,149L396,149L396,153L399,152L404,154L407,156L415,156L418,157L411,163L407,167L403,166L402,171L397,171L389,179L384,179L382,178L374,178L371,178L371,179L371,180L364,184L364,187L361,188L360,186L348,182L339,186L338,191L334,190L333,191L334,203L341,201L359,200L364,200L366,203L374,204L375,201L385,198L385,201L391,203L391,205L398,203L403,207L405,203L412,201L417,201L425,200L431,197L433,197L434,197L436,196L439,195L440,191L438,186L439,180L450,174L450,89L433,83L428,84L427,86L420,91L419,103L421,109L414,106L407,106L402,103L393,101L383,100L375,102L371,104L366,110L364,118L365,119Z M377,189L373,189L373,187L371,184L373,182L374,184L377,184L377,189Z M366,192L362,192L361,191L366,192Z " data-iso="KGZ"/><path d="M450,299L450,274L437,274L419,277L408,282L401,290L399,291L396,291L390,299L450,299Z " data-iso="PAK"/><path d="M366,192L361,191L362,192L366,192Z M434,197L433,197L431,197L425,200L417,201L412,201L405,203L403,207L398,203L391,205L391,203L385,201L385,198L375,201L374,204L366,203L364,200L359,200L341,201L334,203L333,191L334,190L338,191L339,186L348,182L360,186L361,188L364,187L364,184L371,180L371,179L369,179L364,181L361,177L357,176L357,174L364,167L365,165L362,163L357,156L354,161L342,169L334,165L332,167L333,170L330,172L333,179L331,180L332,183L325,183L318,184L318,186L326,186L322,188L323,193L320,194L318,201L314,204L298,202L294,204L291,207L290,214L291,215L296,217L298,221L306,221L309,224L307,230L309,239L314,243L314,247L303,266L303,273L302,276L302,277L307,281L310,282L317,276L330,270L338,276L341,272L343,262L346,261L357,261L359,260L360,254L359,251L363,245L367,237L370,234L373,233L377,233L382,236L385,240L384,248L390,247L391,251L390,271L393,279L395,283L400,283L407,276L412,273L419,271L421,267L424,264L431,259L437,256L443,257L442,263L444,263L450,260L450,219L447,221L446,223L441,221L438,212L440,211L434,203L435,198L434,197Z " data-iso="TJK"/><path d="M272,271L272,268L272,258L274,254L273,252L265,249L258,245L256,244L250,245L224,228L219,224L216,224L205,217L200,212L181,197L176,192L175,183L173,179L170,177L168,172L164,160L155,154L151,157L142,155L132,155L124,150L125,142L124,140L125,134L122,133L123,126L118,122L111,122L107,120L105,116L100,114L92,107L91,109L82,110L85,114L89,120L85,117L78,116L77,119L71,124L65,123L61,125L58,129L55,132L55,144L57,147L54,150L37,147L31,146L30,146L21,147L20,146L13,135L8,124L0,117L0,147L1,149L0,157L0,247L9,243L14,242L30,243L31,240L34,239L42,239L45,241L53,242L55,249L63,251L72,256L76,259L80,260L83,259L89,259L92,261L101,267L102,271L104,273L115,280L118,282L124,292L143,293L144,295L144,299L226,299L232,279L238,276L249,275L251,268L254,265L262,270L271,272L272,271Z " data-iso="TKM"/><path d="M377,189L377,184L374,184L373,182L371,184L373,187L373,189L377,189Z M31,146L37,147L54,150L57,147L55,144L55,132L58,129L61,125L65,123L71,124L77,119L78,116L85,117L89,120L85,114L82,110L91,109L92,107L100,114L105,116L107,120L111,122L118,122L123,126L122,133L125,134L124,140L125,142L124,150L132,155L142,155L151,157L155,154L164,160L168,172L170,177L173,179L175,183L176,192L181,197L200,212L205,217L216,224L219,224L224,228L250,245L256,244L258,245L265,249L273,252L274,254L272,258L272,268L272,271L279,271L285,271L288,274L291,275L300,274L302,275L302,276L303,273L303,266L314,247L314,243L309,239L307,230L309,224L306,221L298,221L296,217L291,215L290,214L291,207L294,204L298,202L314,204L318,201L320,194L323,193L322,188L326,186L318,186L318,184L325,183L332,183L331,180L333,179L330,172L333,170L332,167L334,165L342,169L354,161L357,156L362,163L365,165L364,167L357,174L357,176L361,177L364,181L369,179L371,179L371,178L374,178L382,178L384,179L389,179L397,171L402,171L403,166L407,167L411,163L418,157L415,156L407,156L404,154L399,152L396,153L396,149L389,149L388,145L384,141L381,146L378,145L376,151L366,150L364,149L361,143L357,145L350,141L356,135L358,132L363,129L364,126L372,121L366,118L365,119L364,120L361,122L358,126L354,125L348,133L333,143L332,144L326,148L325,151L319,159L315,165L316,171L309,171L304,166L305,160L300,155L275,158L273,157L268,140L267,132L256,132L256,123L257,118L257,103L251,106L244,93L239,90L231,82L221,87L194,84L169,88L168,88L155,73L149,65L147,60L97,23L94,24L41,36L35,105L32,139L31,146Z " data-iso="UZB"/></g><g fill="red" fill-opacity="0.35" id="regions"><path d="M238,208L235,205L235,202L232,201L226,196L226,194L231,188L232,188L231,182L233,182L238,183L241,177L242,177L242,172L235,171L232,170L229,165L224,166L222,170L214,168L214,166L211,165L208,170L206,171L204,169L194,163L189,161L186,155L181,148L179,148L171,151L177,160L177,160L172,163L175,167L175,172L170,178L170,178L174,180L176,193L179,196L200,211L205,217L215,224L220,224L220,225L224,221L232,217L231,216L233,213L237,210L238,209L238,208Z " data-fips="UZ02" data-fips-="" data-iso3="UZB" data-name="Bukhoro"/><path d="M171,163L167,158L163,154L160,152L155,151L152,154L144,148L138,143L136,139L133,135L132,133L129,132L127,133L125,135L126,136L125,138L123,139L125,144L123,148L132,155L136,155L146,156L150,158L154,153L159,155L166,163L166,165L167,172L170,178L170,178L175,172L175,167L172,163L171,163Z " data-fips="UZ05" data-fips-="" data-iso3="UZB" data-name="Khorezm"/><path d="M125,135L127,133L129,132L132,133L133,135L136,139L138,143L144,148L152,154L155,151L160,152L163,154L167,158L171,163L172,163L177,160L177,160L171,151L161,138L162,136L166,134L166,132L164,128L165,121L178,96L178,95L172,93L168,88L168,88L168,88L155,73L150,67L148,61L107,31L96,23L41,36L31,146L49,148L58,147L55,144L54,138L54,133L62,124L70,124L74,123L77,119L77,116L81,114L86,117L85,113L82,111L83,110L91,110L93,107L97,112L101,115L104,115L110,122L111,122L120,122L123,126L122,127L122,131L121,133L125,135L125,135Z " data-fips="UZ09" data-fips-="" data-iso3="UZB" data-name="Karakalpakstan"/><path d="M168,88L172,93L178,95L178,96L165,121L164,128L166,132L166,134L162,136L161,138L171,151L179,148L181,148L186,155L189,161L194,163L204,169L206,171L208,170L211,165L214,166L214,168L222,170L224,166L229,165L232,170L235,171L242,172L242,177L241,177L238,183L233,182L231,182L232,188L231,188L226,194L226,196L232,201L235,202L235,205L238,208L238,209L240,208L241,208L240,206L240,202L238,198L245,195L246,191L249,189L255,192L262,189L261,188L262,176L263,174L265,175L268,173L271,175L271,177L271,177L275,170L274,165L271,164L271,159L274,157L273,157L272,156L268,140L267,132L256,132L258,103L251,106L244,94L239,90L232,82L230,82L221,87L194,84L178,87L168,88Z " data-fips="UZ07" data-fips-="" data-iso3="UZB" data-name="Navoi"/><path d="M241,208L251,208L253,206L254,206L257,210L258,212L259,213L267,210L270,212L274,209L278,210L283,212L283,211L290,213L290,213L290,212L291,207L291,207L291,207L288,203L288,201L289,198L292,197L286,192L279,189L278,177L272,177L271,177L271,177L271,175L268,173L265,175L263,174L262,176L261,188L262,189L255,192L249,189L246,191L245,195L238,198L240,202L240,206L241,208Z " data-fips="UZ10" data-fips-="" data-iso3="UZB" data-name="Samarkand"/><path d="M241,208L240,208L238,209L237,210L233,213L231,216L232,217L224,221L220,225L222,226L227,231L235,234L240,239L250,245L253,246L255,244L265,248L266,250L274,252L274,253L276,250L285,240L286,236L290,233L291,230L295,229L295,228L294,225L297,221L297,221L297,217L295,216L290,215L290,213L290,213L283,211L283,212L278,210L274,209L270,212L267,210L259,213L258,212L257,210L254,206L253,206L251,208L241,208Z " data-fips="UZ08" data-fips-="" data-iso3="UZB" data-name="Kashkadarya"/><path d="M297,221L294,225L295,228L295,229L291,230L290,233L286,236L285,240L276,250L274,253L275,253L272,258L272,271L275,271L283,270L286,271L289,276L295,273L297,274L301,274L303,273L303,267L303,265L309,256L311,252L313,251L314,247L315,244L308,238L306,230L309,226L307,221L298,221L297,221Z " data-fips="UZ12" data-fips-="" data-iso3="UZB" data-name="Surkhandarya"/><path d="M397,154L394,157L391,157L384,159L384,161L384,162L384,163L395,166L398,167L399,170L399,170L403,169L401,165L408,167L409,165L410,165L411,163L418,158L415,156L413,158L412,156L409,157L406,156L403,153L398,153L397,154Z " data-fips="UZ01" data-fips-="" data-iso3="UZB" data-name="Andijon"/><path d="M376,184L374,184L373,182L371,184L373,186L373,189L378,189L376,187L378,184L376,184Z M365,166L359,172L357,173L358,177L363,181L370,179L372,178L376,178L377,176L380,177L385,179L386,177L389,180L390,178L398,170L399,170L398,167L395,166L384,163L384,162L382,163L377,167L373,165L373,163L369,163L365,166L365,166Z " data-fips="UZ03" data-fips-="" data-iso3="UZB" data-name="Ferghana"/><path d="M357,145L356,148L357,154L358,157L358,157L359,158L363,162L365,165L365,166L369,163L373,163L373,165L377,167L382,163L384,162L384,161L384,159L391,157L394,157L397,154L396,154L395,148L393,149L389,149L388,145L386,141L384,142L384,140L382,139L383,141L382,145L381,146L378,145L379,150L375,152L375,150L372,151L364,149L364,145L360,143L357,145L357,145Z M362,159L360,157L362,158L362,159Z " data-fips="TI04" data-fips-="UZ|UZ06" data-iso3="UZB" data-name="Namangan"/><path d="M274,157L271,159L271,164L274,165L275,170L271,177L272,177L278,177L279,189L286,192L292,197L289,198L288,201L288,203L291,207L292,207L292,205L297,203L313,204L318,200L318,194L319,194L318,189L319,186L319,186L318,186L317,186L317,185L318,184L318,182L312,183L305,181L308,175L307,173L309,170L308,170L302,166L304,164L305,162L304,159L303,159L300,155L296,155L275,158L274,157Z " data-fips="UZ04" data-fips-="UZ|UZ15" data-iso3="UZB" data-name="Jizzakh"/><path d="M319,186L318,189L319,194L319,194L321,195L324,193L322,190L321,187L326,187L325,185L319,186Z M316,162L315,164L316,172L313,173L309,170L307,173L308,175L305,181L312,183L318,182L318,184L319,184L327,182L327,182L328,183L328,177L329,175L326,170L317,161L316,162Z " data-fips="UZ11" data-fips-="UZ|UZ16" data-iso3="UZB" data-name="Sirdaryo"/><path d="M317,161L326,170L329,175L328,177L328,183L329,183L333,182L331,181L333,180L330,172L333,171L333,165L335,165L344,167L348,165L355,160L355,156L358,157L358,157L357,154L356,148L357,145L357,145L355,143L351,142L350,140L353,138L360,130L363,129L364,126L367,125L372,120L368,118L361,121L359,124L357,126L356,125L353,126L350,130L348,132L344,137L337,138L334,142L333,145L329,145L325,153L319,158L318,161L317,161Z " data-fips="UZ13" data-fips-="UZ|UZ14" data-iso3="UZB" data-name="Tashkent"/></g></svg>