<?xml version="1.0" encoding="UTF-8"?><!DOCTYPE svg  PUBLIC '-//W3C//DTD SVG 1.1//EN'  'http://www.w3.org/Graphics/SVG/1.1/DTD/svg11.dtd'><svg enable_background="new 0 0 450 301" height="301px" style="stroke-linejoin: round; stroke:#000; fill:#f6f3f0;" version="1.1" viewBox="0 0 450 301" width="450px" xmlns="http://www.w3.org/2000/svg" xmlns:xlink="http://www.w3.org/1999/xlink"><defs><style type="text/css"><![CDATA[path { fill-rule: evenodd; }
#context path { fill: #eee; stroke: #bbb; } ]]></style></defs><metadata><views><view h="301.0" padding="0.06" w="450"><proj id="laea" lat0="11.251884569" lon0="-69.523329711"/><bbox h="161.97" w="185.43" x="942.94" y="978.37"/><llbbox lat0="-90" lat1="90" lon0="-180" lon1="180"/></view></views></metadata><g id="context"><path d="M151,13L148,9L147,10L151,13Z " data-iso="ABW"/><path d="M358,175L359,175L362,181L355,187L354,190L342,194L340,196L327,201L321,200L315,203L313,211L311,213L308,213L301,206L296,206L284,206L283,205L271,201L270,199L266,199L272,207L279,212L280,214L280,222L285,234L285,239L287,239L299,240L299,244L289,250L285,252L283,258L276,262L274,262L260,270L252,280L250,280L251,276L250,274L246,273L238,278L232,278L226,273L220,268L215,269L214,257L209,248L206,248L203,250L198,255L194,256L190,251L188,254L189,256L184,257L162,257L160,256L152,257L152,272L167,276L168,281L160,279L154,282L147,283L147,299L450,299L450,248L444,247L443,246L435,248L432,252L427,253L422,257L419,257L414,256L413,258L411,260L411,263L407,263L404,265L397,262L394,261L382,250L382,241L379,239L376,230L377,225L379,218L379,211L386,203L383,198L382,194L379,191L372,190L374,187L376,177L374,176L368,175L361,175L358,175Z " data-iso="BRA"/><path d="M220,268L219,266L220,265L212,244L212,243L204,235L203,233L199,231L197,232L205,223L209,220L205,212L202,208L199,200L197,190L198,176L203,163L206,159L204,154L197,153L183,156L177,156L172,155L169,155L167,157L161,157L146,138L130,135L125,137L103,136L101,134L99,128L93,126L93,125L93,114L95,110L95,107L88,99L86,88L82,88L80,85L73,87L73,86L81,73L84,57L88,49L94,43L98,41L105,30L119,26L120,25L123,22L123,19L120,15L115,13L110,13L101,18L100,21L98,25L88,29L75,38L66,39L58,37L54,42L50,50L48,48L49,45L40,42L31,49L26,55L22,63L23,67L21,73L22,75L22,80L16,80L11,84L7,90L0,95L0,289L2,285L9,287L14,291L20,293L23,296L27,297L29,296L30,296L31,296L35,299L147,299L147,283L154,282L160,279L168,281L167,276L152,272L152,257L160,256L162,257L184,257L189,256L188,254L190,251L194,256L198,255L203,250L206,248L209,248L214,257L215,269L220,268Z " data-iso="COL"/><path d="M176,21L175,19L171,18L167,14L167,16L171,20L176,21Z " data-iso="CUW"/><path d="M27,297L23,296L20,293L14,291L9,287L2,285L0,289L0,299L20,299L20,298L23,298L26,298L27,297Z " data-iso="ECU"/><path d="M333,20L335,19L335,15L332,20L333,20Z " data-iso="GRD"/><path d="M438,164L439,157L435,148L430,147L429,144L420,137L413,135L410,136L407,141L406,136L409,132L409,125L408,123L401,116L392,108L381,102L377,102L374,99L373,98L377,105L375,106L373,110L370,111L358,122L360,126L360,129L365,130L367,132L366,135L358,139L356,139L348,142L347,144L349,152L344,159L354,170L358,175L361,175L368,175L374,176L376,177L374,187L372,190L379,191L382,194L383,198L386,203L379,211L379,218L377,225L376,230L379,239L382,241L382,250L394,261L397,262L404,265L407,263L411,263L411,260L413,258L414,256L419,257L422,257L427,253L432,252L435,248L443,246L444,247L450,248L450,243L441,227L437,214L430,215L429,211L425,208L423,204L420,201L421,195L424,185L423,182L427,178L436,177L438,173L436,170L439,165L438,164Z " data-iso="GUY"/><path d="M27,297L26,298L23,298L20,298L20,299L35,299L31,296L30,296L29,296L27,297Z " data-iso="PER"/><path d="M439,165L436,170L438,173L436,177L427,178L423,182L424,185L421,195L420,201L423,204L425,208L429,211L430,215L437,214L441,227L450,243L450,155L443,154L441,156L439,165L439,165Z " data-iso="SUR"/><path d="M350,63L351,58L349,50L352,47L348,47L336,50L338,51L340,54L339,60L330,65L346,64L350,63Z M355,39L360,37L356,36L355,39Z " data-iso="TTO"/><path d="M351,92L354,89L350,89L351,92Z M286,41L285,41L280,44L275,43L274,45L279,46L280,47L285,47L287,45L286,41Z M119,26L105,30L98,41L94,43L88,49L84,57L81,73L73,86L73,87L80,85L82,88L86,88L88,99L95,107L95,110L93,114L93,125L93,126L99,128L101,134L103,136L125,137L130,135L146,138L161,157L167,157L169,155L172,155L177,156L183,156L197,153L204,154L206,159L203,163L198,176L197,190L199,200L202,208L205,212L209,220L205,223L197,232L199,231L203,233L204,235L212,243L212,244L220,265L219,266L220,268L226,273L232,278L238,278L246,273L250,274L251,276L250,280L252,280L260,270L274,262L276,262L283,258L285,252L289,250L299,244L299,240L287,239L285,239L285,234L280,222L280,214L279,212L272,207L266,199L270,199L271,201L283,205L284,206L296,206L301,206L308,213L311,213L313,211L315,203L321,200L327,201L340,196L342,194L354,190L355,187L362,181L359,175L358,175L354,170L344,159L349,152L347,144L348,142L356,139L358,139L366,135L367,132L365,130L360,129L360,126L358,122L370,111L373,110L375,106L377,105L373,98L370,97L363,99L356,98L350,100L347,100L344,102L337,98L345,98L350,88L350,86L354,82L355,80L350,76L336,70L333,70L334,75L330,69L328,67L324,67L325,70L323,69L321,71L314,62L312,64L312,59L307,55L312,54L319,54L322,52L330,49L322,51L312,50L294,52L286,52L279,54L286,55L287,57L279,57L264,65L258,66L241,62L233,54L216,54L213,55L203,56L196,58L190,57L186,50L187,48L184,42L175,36L166,34L157,35L155,33L153,27L152,23L148,19L146,20L142,25L144,31L153,30L151,36L147,34L143,37L136,40L130,41L120,46L116,46L116,49L114,51L117,62L120,65L124,72L125,75L124,83L119,88L114,90L109,88L109,83L104,78L101,72L105,66L111,58L111,49L110,46L112,45L108,42L107,31L115,29L118,27L119,26Z " data-iso="VEN"/></g><g fill="red" fill-opacity="0.35" id="regions"><path d="M187,53L186,49L187,48L184,42L174,35L170,35L164,34L157,35L154,31L152,23L150,19L148,18L144,22L142,24L143,31L153,31L154,33L152,36L148,34L144,37L129,41L122,45L120,46L127,58L131,58L133,61L134,61L134,61L146,54L159,52L165,52L173,53L173,53L175,53L176,52L182,54L187,54L187,53Z " data-fips="VE11" data-fips-="" data-iso3="VEN" data-name="Falcn" data-p="I"/><path d="M107,125L107,125L106,127L103,128L99,126L94,127L95,127L99,129L101,135L104,136L107,137L110,136L116,136L120,137L127,136L129,135L135,135L137,137L141,138L145,137L146,138L161,157L164,156L165,158L179,156L184,155L187,155L197,152L203,153L205,155L206,155L210,152L215,142L216,139L214,136L220,132L225,129L228,125L231,122L231,122L231,122L231,120L227,118L221,119L211,118L204,115L204,115L204,115L195,113L192,113L188,115L185,114L183,115L172,115L172,114L168,114L167,112L161,113L154,118L150,120L145,122L142,123L140,126L127,130L120,127L107,125L107,125Z " data-fips="VE03" data-fips-="" data-iso3="VEN" data-name="Apure" data-p="C"/><path d="M144,91L142,91L141,91L137,92L136,92L136,93L135,95L130,97L127,100L124,106L125,108L124,112L116,118L115,121L115,121L115,121L116,123L107,125L107,125L107,125L120,127L127,130L140,126L142,123L145,122L150,120L154,118L161,113L167,112L168,114L172,114L172,115L183,115L185,114L188,115L192,113L195,113L204,115L204,115L204,115L201,109L197,106L193,102L193,102L193,102L188,100L186,100L182,100L181,99L181,100L178,105L176,106L175,111L172,110L168,106L165,100L157,96L155,97L151,96L145,91L144,91L144,91Z " data-fips="VE05" data-fips-="" data-iso3="VEN" data-name="Barinas" data-pE/><path d="M136,92L129,88L127,83L125,83L125,84L123,84L123,84L121,86L121,87L123,89L122,91L121,90L112,96L108,100L107,99L105,100L105,100L107,100L109,103L107,107L106,110L108,110L110,113L114,114L115,120L115,121L115,121L116,118L124,112L125,108L124,106L127,100L130,97L135,95L136,93L136,92L136,92Z " data-fips="VE14" data-fips-="" data-iso3="VEN" data-name="Mrida" data-p="L"/><path d="M115,120L114,114L110,113L108,110L106,110L107,107L109,103L107,100L105,100L104,102L99,104L97,101L94,105L94,105L96,112L93,114L92,122L94,127L94,127L99,126L103,128L106,127L107,125L107,125L107,125L116,123L115,121L115,121L115,120Z " data-fips="VE20" data-fips-="" data-iso3="VEN" data-name="Tchira" data-p="S"/><path d="M147,80L146,77L148,75L141,71L141,70L137,70L136,69L134,69L134,71L134,72L132,74L130,77L125,77L125,77L124,78L124,78L125,83L125,83L127,83L129,88L136,92L136,92L137,92L141,91L142,91L144,91L144,91L145,91L147,89L147,86L147,83L148,81L147,80Z " data-fips="VE21" data-fips-="" data-iso3="VEN" data-name="Trujillo" data-p="T"/><path d="M133,61L131,58L127,58L120,46L120,46L115,46L116,47L116,50L113,50L118,63L120,65L125,76L125,77L130,77L132,74L134,72L134,71L133,70L130,69L132,64L134,62L134,61L133,61Z " data-fips="VE23" data-fips-="VE21" data-iso3="VEN" data-name="Trujillo" data-p="T"/><path d="M94,105L97,101L99,104L104,102L105,100L105,100L107,99L108,100L112,96L121,90L122,91L123,89L121,87L121,87L118,89L113,90L111,90L108,86L109,83L105,80L102,74L106,65L112,58L113,52L112,51L110,46L109,45L112,45L109,43L105,37L105,32L111,30L118,28L118,26L116,27L105,30L98,42L93,43L89,48L83,59L83,64L81,70L82,72L78,78L75,82L72,87L75,87L80,84L82,89L85,88L93,104L94,105L94,105Z " data-fips="VE23" data-fips-="" data-iso3="VEN" data-name="Zulia" data-p="V"/><path d="M197,72L193,71L192,72L188,66L186,68L185,69L184,69L180,70L175,69L174,72L171,72L171,73L171,73L171,73L171,73L171,74L174,81L179,85L180,87L179,90L180,94L179,96L179,99L181,99L182,100L186,100L188,100L193,102L193,102L193,102L193,97L197,89L195,82L194,79L195,77L198,76L198,73L198,72L197,72Z " data-fips="VE08" data-fips-="" data-iso3="VEN" data-name="Cojedes" data-p="H"/><path d="M196,58L195,58L194,58L188,55L188,55L185,56L184,60L185,62L184,64L185,68L185,69L186,68L188,66L192,72L193,71L197,72L198,72L198,72L198,70L201,72L204,70L204,69L203,68L201,68L201,61L198,61L196,58L196,58Z " data-fips="VE07" data-fips-="" data-iso3="VEN" data-name="Carabobo" data-p="G"/><path d="M173,53L165,52L159,52L146,54L134,61L134,61L134,62L132,64L130,69L133,70L134,71L134,69L136,69L137,70L141,70L141,71L148,75L146,77L147,80L148,81L148,81L151,79L152,80L152,82L156,82L158,77L162,76L165,72L166,76L171,73L171,73L171,73L171,73L171,73L171,72L172,71L171,68L169,70L167,67L167,66L171,63L169,59L173,54L173,53L173,53Z " data-fips="VE13" data-fips-="" data-iso3="VEN" data-name="Lara" data-p="K"/><path d="M171,73L166,76L165,72L162,76L158,77L156,82L152,82L152,80L151,79L148,81L148,81L147,83L147,86L147,89L145,91L144,91L145,91L151,96L155,97L157,96L165,100L168,106L172,110L175,111L176,106L178,105L181,100L181,99L179,99L179,96L180,94L179,90L180,87L179,85L174,81L171,74L171,73L171,73Z " data-fips="VE18" data-fips-="VE13" data-iso3="VEN" data-name="Portuguesa" data-p="P"/><path d="M173,53L173,54L169,59L171,63L167,66L167,67L169,70L171,68L172,71L171,72L174,72L175,69L180,70L184,69L185,69L185,68L184,64L185,62L184,60L185,56L188,55L187,54L182,54L176,52L175,53L173,53Z " data-fips="VE22" data-fips-="" data-iso3="VEN" data-name="Yaracuy" data-p="U"/><path d="M206,155L207,159L203,163L202,166L202,171L199,173L198,179L198,181L197,189L198,194L199,197L199,201L201,206L206,212L209,220L208,222L197,231L197,232L202,232L209,240L212,241L213,247L214,248L215,253L219,264L219,267L230,277L232,278L237,279L246,273L249,273L251,275L251,281L255,275L258,275L263,269L266,266L268,267L272,265L277,261L277,264L287,250L290,250L294,247L299,245L300,240L285,239L284,238L285,233L280,223L280,213L278,210L273,208L270,205L266,200L269,198L270,199L270,200L270,193L263,190L260,186L258,182L256,175L258,175L259,170L256,166L256,164L249,166L247,164L248,156L244,156L242,158L238,164L234,165L231,161L227,165L221,166L217,168L212,164L213,161L206,155L206,155Z " data-fips="VE01" data-fips-="" data-iso3="VEN" data-name="Amazonas" data-p="Z"/><path d="M315,102L313,103L313,104L313,104L310,106L302,105L292,109L287,110L284,114L281,113L277,112L274,113L273,117L261,118L258,117L254,116L253,116L252,117L247,116L244,117L240,121L232,122L231,122L231,122L228,125L225,129L220,132L214,136L216,139L215,142L210,152L206,155L206,155L206,155L213,161L212,164L217,168L221,166L227,165L231,161L234,165L238,164L242,158L244,156L248,156L247,164L249,166L256,164L256,166L259,170L258,175L256,175L258,182L260,186L263,190L270,193L270,200L270,200L271,202L277,201L283,204L283,205L296,207L298,205L301,206L308,213L311,213L314,210L313,203L318,203L319,200L322,199L327,201L331,199L332,200L338,197L340,197L341,194L353,190L355,186L358,185L362,181L359,175L344,159L346,156L349,153L349,141L350,141L359,139L360,138L368,131L362,131L360,129L358,123L365,115L368,113L368,113L362,113L356,117L353,113L346,115L344,115L339,110L337,108L337,105L323,105L317,103L315,102Z " data-fips="VE06" data-fips-="" data-iso3="VEN" data-name="Bolvar" data-p="F"/><path d="M271,62L266,66L262,65L258,67L254,65L251,65L249,67L248,67L246,68L245,69L245,71L245,75L250,78L251,76L253,78L256,79L256,80L254,82L255,84L258,87L260,87L265,93L264,96L258,97L258,100L256,105L251,112L250,115L253,116L253,116L254,116L258,117L261,118L273,117L274,113L277,112L281,113L284,114L287,110L292,109L302,105L310,106L313,104L313,104L313,103L312,102L306,100L305,96L307,94L299,95L297,90L292,86L285,84L284,81L286,78L282,68L282,66L284,66L284,65L284,65L275,65L274,65L271,62L271,62Z " data-fips="VE02" data-fips-="" data-iso3="VEN" data-name="Anzotegui" data-p="B"/><path d="M210,59L208,59L208,58L207,56L205,56L203,56L197,57L196,58L196,58L198,61L201,61L201,68L203,68L204,69L205,69L218,76L219,78L216,81L224,82L226,80L225,72L224,69L223,69L214,66L213,65L213,62L211,60L211,59L210,59Z " data-fips="VE04" data-fips-="" data-iso3="VEN" data-name="Aragua" data-p="D"/><path d="M231,54L226,54L213,55L208,56L207,56L208,58L208,59L210,59L211,59L212,58L213,58L214,57L215,55L218,56L219,56L219,56L228,56L231,56L231,54L231,54Z " data-fips="VE26" data-fips-="VE10|VE25" data-iso3="VEN" data-name="Vargas" data-p="X"/><path d="M218,56L215,55L214,57L213,58L212,58L212,58L216,59L217,59L219,56L219,56L218,56Z " data-fips="VE26" data-fips-="VE10|VE25" data-iso3="VEN" data-name="Distrito Capital" data-p="A"/><path d="M244,69L231,68L229,68L226,69L224,69L225,72L226,80L224,82L216,81L219,78L218,76L205,69L204,69L204,70L201,72L198,70L198,72L198,72L198,73L198,76L195,77L194,79L195,82L197,89L193,97L193,102L193,102L193,102L197,106L201,109L204,115L204,115L204,115L211,118L221,119L227,118L231,120L231,122L231,122L232,122L240,121L244,117L247,116L252,117L253,116L253,116L250,115L251,112L256,105L258,100L258,97L264,96L265,93L260,87L258,87L255,84L254,82L256,80L256,79L253,78L251,76L250,78L245,75L245,71L245,69L244,69Z " data-fips="VE12" data-fips-="" data-iso3="VEN" data-name="Gurico" data-p="J"/><path d="M284,65L284,66L282,66L282,68L286,78L284,81L285,84L292,86L297,90L299,95L307,94L305,96L306,100L312,102L313,103L313,104L313,103L315,102L315,102L318,101L327,95L328,92L327,91L326,88L321,86L319,78L318,78L321,73L321,73L317,65L314,61L314,64L310,66L305,65L305,65L293,61L293,62L284,65L284,65Z " data-fips="VE16" data-fips-="" data-iso3="VEN" data-name="Monagas" data-p="N"/><path d="M250,64L242,63L232,53L231,54L231,54L231,56L228,56L219,56L219,56L219,56L217,59L216,59L212,58L212,58L211,59L211,60L213,62L213,65L214,66L223,69L224,69L226,69L229,68L231,68L244,69L245,69L246,68L248,67L249,67L251,65L250,64Z " data-fips="VE15" data-fips-="" data-iso3="VEN" data-name="Miranda" data-p="M"/><path d="M287,44L284,42L282,45L278,43L274,43L274,45L280,46L281,48L285,47L287,44Z " data-fips="VE00" data-fips-="VE17" data-iso3="VEN" data-name="Nueva Esparta" data-p="O"/><path d="M313,60L310,56L310,57L313,60Z M271,62L274,65L275,65L284,65L284,65L284,65L293,62L293,61L305,65L305,65L308,65L309,66L313,65L313,63L311,58L310,58L307,60L305,61L309,57L308,55L313,54L320,54L321,54L312,49L308,50L293,53L288,52L284,53L277,53L277,56L284,54L290,56L287,57L279,56L271,62L271,62Z " data-fips="VE19" data-fips-="" data-iso3="VEN" data-name="Sucre" data-p="R"/><path d="M351,98L346,98L345,100L351,98Z M349,93L354,90L354,88L349,93Z M354,87L353,87L349,89L354,87Z M321,73L318,78L319,78L321,86L326,88L327,91L328,92L327,95L318,101L315,102L315,102L317,103L323,105L337,105L337,108L339,110L344,115L346,115L353,113L356,117L362,113L368,113L368,112L371,110L373,110L375,106L378,105L373,98L369,97L364,98L363,99L358,98L351,100L348,100L345,103L336,98L346,98L347,95L351,87L351,85L355,81L355,80L349,75L345,75L343,74L340,71L336,68L338,71L327,67L323,68L322,67L323,70L321,73L321,73Z " data-fips="VE09" data-fips-="" data-iso3="VEN" data-name="Delta Amacuro" data-p="Y"/></g></svg>