<?xml version="1.0" encoding="UTF-8"?><!DOCTYPE svg  PUBLIC '-//W3C//DTD SVG 1.1//EN'  'http://www.w3.org/Graphics/SVG/1.1/DTD/svg11.dtd'><svg enable_background="new 0 0 450 501" height="501px" style="stroke-linejoin: round; stroke:#000; fill:#f6f3f0;" version="1.1" viewBox="0 0 450 501" width="450px" xmlns="http://www.w3.org/2000/svg" xmlns:xlink="http://www.w3.org/1999/xlink"><defs><style type="text/css"><![CDATA[path { fill-rule: evenodd; }
#context path { fill: #eee; stroke: #bbb; } ]]></style></defs><metadata><views><view h="501.0" padding="0.06" w="450"><proj id="laea" lat0="21.1295503808" lon0="106.936928395"/><bbox h="192.58" w="95.84" x="939.91" y="967.16"/><llbbox lat0="-90" lat1="90" lon0="-180" lon1="180"/></view></views></metadata><g id="context"><path d="M375,120L366,121L361,118L360,121L359,119L346,122L338,121L334,124L325,126L324,131L321,133L316,137L312,139L308,144L308,156L309,161L310,168L320,173L331,176L335,178L341,176L344,172L350,171L351,168L357,163L361,162L363,160L365,153L368,143L374,134L379,131L377,121L375,120Z M359,85L356,87L363,89L363,85L359,85Z M426,66L426,63L424,65L426,66Z M430,67L432,62L428,64L430,67Z M19,0L18,2L20,7L19,13L25,15L33,17L38,20L38,21L34,25L33,30L32,36L29,40L27,47L31,49L33,48L49,52L49,53L49,60L54,65L53,67L57,70L61,69L68,70L70,69L75,65L84,64L84,67L84,68L86,69L86,77L88,80L96,79L103,80L101,77L102,60L97,51L98,46L104,39L106,42L113,42L114,43L116,42L125,31L135,37L140,41L144,39L144,37L151,32L154,37L156,37L157,33L159,32L167,39L170,38L172,32L174,31L179,34L181,34L185,31L190,30L192,29L194,22L205,16L210,15L213,18L216,23L220,24L226,28L229,26L234,27L236,29L247,29L252,32L248,39L245,45L248,48L248,58L250,57L259,61L264,66L266,66L269,70L271,69L272,70L277,70L281,68L287,73L290,72L295,71L298,67L301,70L304,68L302,60L306,60L306,64L311,69L319,69L321,70L320,75L322,75L331,73L334,71L333,66L336,67L338,72L346,73L345,76L341,78L341,81L338,84L339,87L338,91L342,98L342,101L344,104L348,107L346,108L347,111L352,112L359,111L362,109L364,103L358,99L360,95L359,93L353,93L353,90L354,87L359,83L361,78L363,81L371,75L377,74L378,71L387,72L389,70L395,69L400,64L405,62L405,60L416,63L418,57L424,61L431,56L433,58L436,50L439,47L441,51L444,51L450,47L450,32L445,24L448,23L448,20L450,18L450,0L19,0Z " data-iso="CHN"/><path d="M275,290L273,292L265,297L262,300L258,300L257,302L252,302L243,294L238,298L234,298L233,301L227,302L231,311L229,315L224,315L219,310L213,308L207,309L203,304L202,302L202,302L202,302L197,305L195,301L190,299L178,301L172,300L167,301L153,298L141,301L135,304L131,307L126,316L120,324L113,326L113,334L117,343L118,354L126,362L124,367L125,372L131,385L131,384L133,385L133,388L137,393L135,401L137,410L145,408L149,403L153,406L155,411L154,415L149,418L149,420L153,423L159,421L162,421L172,423L177,427L182,424L191,423L197,418L197,411L205,413L208,410L219,409L223,413L225,412L232,415L230,406L224,401L222,389L226,387L227,384L238,387L240,385L240,378L249,377L251,375L256,374L263,368L269,367L271,368L275,363L276,354L273,344L277,331L277,328L271,313L270,312L270,301L275,292L275,290Z " data-iso="KHM"/><path d="M116,46L125,57L130,66L135,64L138,66L135,79L142,91L145,93L153,95L158,98L160,97L163,94L172,90L179,94L186,100L185,103L180,106L187,109L189,114L193,114L196,118L196,120L191,129L185,133L176,131L169,131L170,137L165,143L165,144L171,146L189,159L201,163L200,169L203,174L206,177L212,180L216,186L219,193L228,204L236,210L243,219L245,228L249,234L254,233L255,236L261,240L265,245L271,248L271,249L264,255L279,273L274,287L275,290L273,292L265,297L262,300L258,300L257,302L252,302L243,294L238,298L234,298L233,301L227,302L231,311L229,315L224,315L219,310L213,308L207,309L203,304L202,302L202,302L204,301L210,298L211,296L213,280L212,277L213,269L216,265L216,259L209,254L209,249L207,248L202,246L198,244L192,234L190,228L189,220L190,214L192,207L189,202L187,199L180,194L169,177L166,174L148,170L146,171L140,179L140,179L140,179L140,179L138,183L137,184L128,187L124,188L120,184L110,176L97,186L88,191L81,198L79,199L73,195L79,181L81,175L78,168L82,162L86,151L86,147L83,140L84,135L82,132L77,130L66,133L63,132L60,129L60,125L65,115L61,110L57,105L52,109L52,107L53,105L55,98L57,94L66,89L65,88L71,78L73,76L82,71L84,68L86,69L86,77L88,80L96,79L103,80L101,77L102,60L97,51L98,46L104,39L106,42L113,42L114,43L116,46Z " data-iso="LAO"/><path d="M52,107L53,105L55,98L57,94L66,89L65,88L71,78L73,76L82,71L84,68L84,67L84,64L75,65L70,69L68,70L61,69L57,70L53,67L54,65L49,60L49,53L49,52L33,48L31,49L27,47L29,40L32,36L33,30L34,25L38,21L38,20L33,17L25,15L19,13L20,7L18,2L19,0L0,0L0,124L17,122L19,114L22,112L29,113L33,111L32,105L40,106L46,103L49,105L52,107Z M0,242L7,237L10,234L8,230L3,233L1,226L0,242Z M0,379L4,380L1,382L0,383L0,412L13,400L22,384L27,379L24,369L22,366L21,357L21,354L15,348L13,338L15,332L15,324L14,317L8,306L0,298L0,379Z " data-iso="MMR"/><path d="M39,450L35,450L36,455L38,453L39,450Z M39,446L38,443L37,443L39,446Z M121,385L118,387L120,389L121,385Z M115,375L112,370L111,375L115,375Z M131,385L125,372L124,367L126,362L118,354L117,343L113,334L113,326L120,324L126,316L131,307L135,304L141,301L153,298L167,301L172,300L178,301L190,299L195,301L197,305L202,302L202,302L204,301L210,298L211,296L213,280L212,277L213,269L216,265L216,259L209,254L209,249L207,248L202,246L198,244L192,234L190,228L189,220L190,214L192,207L189,202L187,199L180,194L169,177L166,174L148,170L146,171L140,179L138,183L137,184L128,187L124,188L120,184L110,176L97,186L88,191L81,198L79,199L73,195L79,181L81,175L78,168L82,162L86,151L86,147L83,140L84,135L82,132L77,130L66,133L63,132L60,129L60,125L65,115L61,110L57,105L52,109L52,107L49,105L46,103L40,106L32,105L33,111L29,113L22,112L19,114L17,122L0,124L1,226L3,233L8,230L10,234L7,237L0,242L0,298L8,306L14,317L15,324L15,332L13,338L15,348L21,354L21,357L22,366L24,369L27,379L22,384L13,400L0,412L0,498L2,499L46,499L43,487L40,486L35,479L33,464L31,459L28,458L17,461L13,459L14,454L10,444L11,425L14,423L15,417L22,407L23,401L27,389L30,383L32,380L34,374L37,371L39,367L40,361L39,350L43,339L42,335L40,333L41,329L44,327L48,325L57,325L59,323L61,325L70,328L70,336L68,340L68,347L67,351L69,354L74,352L85,354L94,352L103,358L109,364L119,372L122,370L126,375L126,379L130,385L131,385Z " data-iso="THA"/><path d="M246,482L248,480L245,482L246,482Z M166,427L163,426L161,428L164,439L166,433L166,427Z M259,97L257,93L256,95L259,97Z M254,95L252,92L252,94L254,95Z M276,82L272,82L270,86L272,86L276,82Z M114,43L116,46L125,57L130,66L135,64L138,66L135,79L142,91L145,93L153,95L158,98L160,97L163,94L172,90L179,94L186,100L185,103L180,106L187,109L189,114L193,114L196,118L196,120L191,129L185,133L176,131L169,131L170,137L165,143L165,144L171,146L189,159L201,163L200,169L203,174L206,177L212,180L216,186L219,193L228,204L236,210L243,219L245,228L249,234L254,233L255,236L261,240L265,245L271,248L271,249L264,255L279,273L274,287L275,290L275,292L270,301L270,312L271,313L277,328L277,331L273,344L276,354L275,363L271,368L269,367L263,368L256,374L251,375L249,377L240,378L240,385L238,387L227,384L226,387L222,389L224,401L230,406L232,415L225,412L223,413L219,409L208,410L205,413L197,411L197,418L191,423L182,424L177,427L180,429L185,435L189,434L191,436L196,438L198,443L192,446L190,453L189,466L189,478L192,480L188,485L191,485L199,484L205,478L208,473L211,469L232,460L233,458L230,451L222,440L225,442L233,451L239,455L242,454L245,449L243,446L233,436L231,433L241,442L246,445L248,444L249,439L252,437L250,434L246,433L247,431L251,431L250,426L246,426L250,423L253,427L257,426L258,421L261,425L267,428L285,418L290,417L293,412L299,411L307,403L312,402L316,398L321,398L323,389L326,389L327,384L327,379L329,379L328,374L328,363L331,364L328,356L332,352L335,357L334,353L334,346L329,335L330,330L329,326L328,317L330,320L330,317L327,304L323,295L323,290L321,287L318,281L317,275L315,269L307,262L303,256L301,253L290,238L283,236L269,224L264,220L262,215L250,205L243,194L242,189L243,187L235,178L225,169L217,154L217,151L220,149L222,144L223,134L228,123L233,121L240,115L244,112L246,109L245,104L251,98L249,90L249,89L257,90L261,89L263,91L269,87L271,80L279,76L282,73L286,73L287,73L281,68L277,70L272,70L271,69L269,70L266,66L264,66L259,61L250,57L248,58L248,48L245,45L248,39L252,32L247,29L236,29L234,27L229,26L226,28L220,24L216,23L213,18L210,15L205,16L194,22L192,29L190,30L185,31L181,34L179,34L174,31L172,32L170,38L167,39L159,32L157,33L156,37L154,37L151,32L144,37L144,39L140,41L135,37L125,31L116,42L114,43Z " data-iso="VNM"/></g><g fill="red" fill-opacity="0.35" id="regions"><path d="M258,94L260,99L261,95L258,94Z M254,93L252,91L251,93L255,96L254,93Z M273,95L275,91L272,93L273,95Z M282,89L280,89L280,91L282,89Z M274,83L271,84L270,86L274,83Z M268,70L265,72L266,75L261,78L260,78L259,79L258,81L253,84L251,84L245,83L245,84L242,86L242,87L247,88L245,91L245,96L242,98L241,98L241,100L242,102L246,101L246,100L252,97L250,95L251,91L249,91L250,89L253,89L252,91L254,93L257,91L259,91L260,88L261,91L264,91L269,89L270,81L281,76L282,73L288,74L283,69L275,70L273,71L272,69L269,70L268,70Z " data-fips="VM13" data-fips-="" data-iso3="VNM" data-name="Qu?ng Ninh"/><path d="M232,409L233,410L237,408L238,409L239,408L240,408L240,407L240,407L241,405L240,404L238,400L238,399L241,393L242,391L242,391L242,387L241,387L241,387L236,387L234,385L228,384L224,388L221,389L223,394L222,399L225,402L226,402L228,405L232,407L233,409L232,409Z " data-fips="VM33" data-fips-="" data-iso3="VNM" data-name="Ty Ninh"/><path d="M146,93L147,88L150,86L152,86L152,78L151,77L151,74L152,74L156,68L156,56L157,55L157,52L159,50L163,47L163,44L159,43L158,38L157,35L157,36L155,38L152,34L152,32L150,31L147,35L145,36L144,39L142,40L142,42L137,40L135,36L127,33L126,32L124,31L123,34L118,39L117,42L114,42L117,48L121,51L124,57L128,59L129,66L132,66L133,61L135,61L135,65L138,65L138,68L135,74L137,73L135,78L134,78L143,93L145,94L146,93Z " data-fips="VM22" data-fips-="" data-iso3="VNM" data-name="i?n Bin"/><path d="M234,44L233,42L230,40L223,41L222,38L222,34L219,35L217,37L216,38L217,39L217,41L214,48L214,52L215,57L216,59L216,58L222,59L231,59L232,59L232,56L234,54L236,51L235,45L235,44L234,44Z " data-fips="VM72" data-fips-="" data-iso3="VNM" data-name="ng B?c"/><path d="M231,59L222,59L216,58L216,59L215,60L214,69L214,70L215,71L216,72L218,73L221,76L221,76L222,77L222,78L222,77L224,77L226,78L226,79L228,76L230,75L231,73L230,70L233,70L234,71L235,69L236,67L234,64L232,60L232,59L231,59Z " data-fips="VM85" data-fips-="" data-iso3="VNM" data-name="Thi Nguyn"/><path d="M157,35L158,38L159,43L163,44L163,47L159,50L157,52L157,55L158,55L159,56L164,65L166,66L167,65L167,65L167,61L169,57L175,60L176,58L181,60L183,58L181,54L181,52L186,54L187,53L188,49L188,49L188,49L183,38L184,38L181,34L180,35L177,32L177,30L173,31L170,34L169,40L160,31L158,32L156,34L157,35Z " data-fips="VM56" data-fips-="" data-iso3="VNM" data-name="Lo Cai"/><path d="M235,44L235,45L236,51L234,54L232,56L232,59L232,60L234,64L236,67L235,69L234,71L233,72L239,76L243,74L244,72L251,72L259,76L259,77L260,78L261,78L266,75L265,72L268,70L268,70L267,66L264,66L258,63L259,60L250,57L248,58L248,50L248,48L245,45L245,44L241,45L240,45L236,43L235,44Z " data-fips="VM39" data-fips-="" data-iso3="VNM" data-name="L?ng Son"/><path d="M157,55L156,56L156,68L152,74L151,74L151,77L152,78L152,86L150,86L147,88L146,93L146,93L150,95L152,94L159,99L169,91L171,90L175,91L178,92L187,100L187,100L189,101L191,102L193,102L194,101L194,100L195,97L198,98L201,95L196,90L195,87L196,86L196,85L195,84L195,82L195,81L194,78L193,78L190,77L186,76L184,77L179,74L180,68L179,66L175,67L170,67L167,65L166,66L164,65L159,56L158,55L157,55Z " data-fips="VM32" data-fips-="" data-iso3="VNM" data-name="Son La"/><path d="M187,101L183,104L179,107L186,107L189,110L188,114L193,114L196,115L197,121L197,121L203,125L202,128L204,131L210,137L215,139L216,140L222,144L222,144L221,140L222,139L224,131L225,130L224,128L229,121L229,121L230,119L228,119L221,115L215,109L214,109L208,106L203,102L201,102L195,101L194,101L193,102L191,102L189,101L187,100L187,101Z " data-fips="VM34" data-fips-="" data-iso3="VNM" data-name="Thanh Ha"/><path d="M214,38L205,36L201,43L199,46L196,50L195,51L196,54L199,58L202,63L202,66L202,66L204,68L206,69L207,71L208,73L211,73L213,73L215,72L216,72L215,71L214,70L214,69L215,60L216,59L215,57L214,52L214,48L217,41L217,39L216,38L214,38Z " data-fips="VM68" data-fips-="" data-iso3="VNM" data-name="Tuyn Quang"/><path d="M194,51L192,50L189,48L188,49L188,49L187,53L186,54L181,52L181,54L183,58L181,60L176,58L175,60L169,57L167,61L167,65L167,65L170,67L175,67L179,66L180,68L179,74L184,77L186,76L190,77L193,78L194,78L196,77L196,72L197,69L201,67L202,66L202,66L202,63L199,58L196,54L195,51L194,51Z " data-fips="VM70" data-fips-="" data-iso3="VNM" data-name="Yn Bi"/><path d="M208,89L208,92L196,87L196,86L195,87L196,90L201,95L198,98L195,97L194,100L194,101L195,101L201,102L203,102L208,106L214,109L215,109L215,109L220,111L220,108L223,108L224,108L223,105L222,103L221,102L218,99L218,98L214,93L213,89L210,88L208,89L208,89Z " data-fips="VM56" data-fips-="VM53" data-iso3="VNM" data-name="Ha Bnh"/><path d="M244,83L242,82L241,82L238,83L237,85L238,87L238,89L237,89L235,90L233,89L233,92L232,95L232,95L234,97L236,99L241,98L242,98L245,96L245,91L247,88L242,87L242,86L245,84L245,83L244,83Z " data-fips="VM79" data-fips-="" data-iso3="VNM" data-name="H?i Duong"/><path d="M231,89L229,89L229,89L227,90L226,90L226,91L226,91L225,92L225,92L226,93L226,94L228,98L229,98L229,98L229,100L229,100L231,101L232,101L232,100L233,100L235,100L235,99L236,99L234,97L232,95L232,95L233,92L233,89L231,89Z " data-fips="VM81" data-fips-="" data-iso3="VNM" data-name="?ng B?ng Sng H?ng"/><path d="M226,78L224,77L222,77L222,78L222,79L222,81L221,85L222,86L222,86L221,89L222,89L224,92L225,92L226,91L226,91L226,90L227,90L229,89L229,89L229,88L227,86L226,82L227,81L227,81L227,80L226,79L226,78Z " data-fips="VM44" data-fips-="" data-iso3="VNM" data-name="Thi Nguyn"/><path d="M237,85L236,84L235,83L229,82L227,81L226,82L227,86L229,88L229,89L229,89L229,89L231,89L233,89L235,90L237,89L238,89L238,87L237,85L237,85Z " data-fips="VM74" data-fips-="" data-iso3="VNM" data-name="B?c Ninh"/><path d="M215,72L213,73L211,73L208,73L209,75L211,76L212,79L212,80L212,80L212,80L212,81L213,83L214,83L221,86L222,86L221,85L222,81L222,79L222,78L222,77L221,76L221,76L218,73L216,72L215,72Z " data-fips="VM86" data-fips-="" data-iso3="VNM" data-name="Vinh Phc"/><path d="M222,86L221,86L214,83L213,83L212,81L212,80L212,80L210,79L209,81L207,88L208,89L210,88L213,89L214,93L218,98L218,99L221,102L222,103L223,101L224,100L226,99L228,99L229,98L228,98L226,94L226,93L225,92L225,92L224,92L222,89L221,89L222,86L222,86Z " data-fips="VM51" data-fips-="" data-iso3="VNM" data-name="H Ty"/><path d="M223,108L220,108L220,111L215,109L215,109L221,115L228,119L230,119L229,121L230,122L231,122L231,122L232,120L232,120L233,117L233,114L228,113L227,111L227,110L226,110L224,108L224,108L223,108Z " data-fips="VM59" data-fips-="" data-iso3="VNM" data-name="Ninh Bnh"/><path d="M231,101L229,100L229,100L229,98L229,98L228,99L226,99L224,100L223,101L222,103L223,105L224,108L224,108L226,110L227,110L227,109L228,108L229,108L233,106L234,105L234,105L233,103L233,103L232,101L232,101L231,101Z " data-fips="VM80" data-fips-="" data-iso3="VNM" data-name="H Nam"/><path d="M234,105L233,106L229,108L228,108L227,109L227,110L227,111L228,113L233,114L233,117L232,120L232,120L231,122L234,121L240,115L242,114L244,112L244,112L242,112L237,109L234,106L234,105Z " data-fips="VM82" data-fips-="" data-iso3="VNM" data-name="Nam ?nh"/><path d="M208,73L207,71L206,69L204,68L202,66L201,67L197,69L196,72L196,77L194,78L195,81L195,82L195,84L196,85L196,86L196,87L208,92L208,89L208,89L207,88L209,81L210,79L212,80L212,80L212,80L212,80L212,79L211,76L209,75L208,73Z " data-fips="VM83" data-fips-="" data-iso3="VNM" data-name="Ph Th?"/><path d="M233,70L230,70L231,73L230,75L228,76L226,79L227,80L227,81L227,81L229,82L235,83L236,84L237,85L237,85L238,83L241,82L242,82L244,83L245,83L251,84L253,84L258,81L259,79L260,78L259,77L259,76L251,72L244,72L243,74L239,76L233,72L234,71L233,70Z " data-fips="VM71" data-fips-="" data-iso3="VNM" data-name="B?c Giang"/><path d="M241,98L236,99L235,99L235,100L233,100L232,100L232,101L232,101L233,103L233,103L234,105L234,105L234,106L237,109L242,112L244,112L243,111L246,112L246,107L244,107L245,104L244,104L246,101L246,101L242,102L241,100L241,98Z " data-fips="VM35" data-fips-="" data-iso3="VNM" data-name="Thi Bnh"/><path d="M221,164L216,166L206,165L203,165L203,165L200,170L204,176L207,179L211,179L216,185L216,186L218,186L224,183L230,185L230,187L236,188L238,187L244,187L241,183L241,181L238,182L239,181L233,177L231,177L227,170L226,170L223,166L222,161L221,164L221,164Z " data-fips="VM52" data-fips-="" data-iso3="VNM" data-name="Ha Tinh"/><path d="M196,121L192,127L188,130L187,133L183,133L180,131L168,130L168,131L170,138L169,139L166,141L165,143L173,147L183,154L184,156L203,165L203,165L206,165L216,166L221,164L221,163L221,160L218,157L217,153L218,150L220,150L221,146L222,144L222,144L216,140L215,139L210,137L204,131L202,128L203,125L197,121L196,121Z " data-fips="VM58" data-fips-="" data-iso3="VNM" data-name="Ngh? An"/><path d="M216,186L216,190L219,195L223,198L229,204L234,209L237,210L237,211L244,218L244,219L253,218L254,216L259,212L257,211L251,206L247,202L243,195L239,193L243,194L242,190L244,187L244,187L238,187L236,188L230,187L230,185L224,183L218,186L216,186L216,186Z " data-fips="VM62" data-fips-="" data-iso3="VNM" data-name="Qu?ng Bnh"/><path d="M306,344L304,342L303,338L293,332L289,334L280,334L276,336L273,344L273,347L276,357L276,362L272,369L267,366L266,367L267,376L269,378L271,384L271,385L272,385L276,383L282,380L282,381L287,381L288,383L292,382L293,379L289,375L292,372L298,371L298,370L302,369L305,367L310,368L311,367L311,365L311,362L313,361L316,361L317,358L320,354L322,352L320,351L315,350L314,349L312,348L310,345L306,344Z " data-fips="VM07" data-fips-="" data-iso3="VNM" data-name="Dak Lak"/><path d="M309,292L305,293L302,293L300,299L294,302L283,306L272,315L272,316L275,323L277,328L277,333L276,336L280,334L289,334L293,332L303,338L304,342L306,344L310,345L311,343L312,341L317,338L316,333L315,331L315,327L315,323L314,318L312,316L309,306L310,301L311,296L310,294L309,292Z " data-fips="VM49" data-fips-="" data-iso3="VNM" data-name="Gia Lai"/><path d="M322,352L320,354L317,358L316,361L313,361L311,362L311,365L311,367L312,367L312,368L312,371L314,371L318,378L322,379L328,383L328,382L325,382L327,379L327,375L328,376L328,379L331,380L328,374L328,367L332,364L328,356L332,351L334,356L334,354L333,350L333,350L327,350L323,352L322,352Z " data-fips="VM54" data-fips-="" data-iso3="VNM" data-name="Khnh Ha"/><path d="M312,368L312,367L311,367L310,368L305,367L302,369L298,370L298,371L292,372L289,375L293,379L292,382L288,383L287,381L282,381L282,380L276,383L272,385L271,385L269,386L267,388L267,389L268,390L268,391L269,391L271,392L273,393L275,396L278,397L279,398L282,399L291,399L293,402L294,400L301,397L300,393L302,392L309,391L309,390L309,389L311,385L310,383L312,371L312,371L312,368Z " data-fips="VM23" data-fips-="" data-iso3="VNM" data-name="Lm ?ng"/><path d="M312,371L312,371L310,383L311,385L309,389L309,390L311,390L314,395L316,395L319,398L319,398L322,388L324,390L329,385L328,383L328,383L322,379L318,378L314,371L312,371Z " data-fips="VM60" data-fips-="" data-iso3="VNM" data-name="Ninh Thu?n"/><path d="M333,350L336,347L331,342L331,333L328,332L329,329L331,330L328,322L328,322L323,326L320,327L318,327L315,327L315,331L316,333L317,338L312,341L311,343L310,345L312,348L314,349L315,350L320,351L322,352L323,352L327,350L333,350L333,350Z " data-fips="VM61" data-fips-="" data-iso3="VNM" data-name="Ph Yn"/><path d="M256,400L250,398L248,398L242,391L242,391L241,393L238,399L238,400L240,404L241,405L242,404L248,411L252,412L253,412L253,411L252,407L256,408L258,405L256,402L257,400L256,400Z " data-fips="VM75" data-fips-="" data-iso3="VNM" data-name="Bnh Duong"/><path d="M265,367L263,368L260,371L256,375L247,377L239,378L241,381L240,385L240,386L241,387L242,387L242,391L242,391L242,391L248,398L250,398L256,400L257,400L258,399L261,396L262,393L266,392L268,391L268,390L267,389L267,388L269,386L271,385L271,384L269,378L267,376L266,367L265,367Z " data-fips="VM76" data-fips-="" data-iso3="VNM" data-name="Bnh Phu?c"/><path d="M310,294L311,296L310,301L309,306L312,316L314,318L315,323L315,327L318,327L320,327L323,326L328,322L328,322L328,308L327,305L323,293L323,291L320,291L316,291L312,293L310,294Z " data-fips="VM46" data-fips-="" data-iso3="VNM" data-name="Bnh ?nh"/><path d="M276,268L278,274L276,280L273,280L273,282L276,284L274,289L274,296L270,301L270,304L268,309L270,313L272,313L272,315L272,315L283,306L294,302L300,299L302,293L305,293L309,292L308,290L303,284L302,282L300,280L299,279L298,279L296,279L295,282L292,279L292,278L284,273L280,269L276,268L276,268Z " data-fips="VM55" data-fips-="" data-iso3="VNM" data-name="Kon Tum"/><path d="M284,246L281,248L280,247L276,247L272,247L272,248L270,252L264,254L263,257L274,268L276,268L276,268L280,269L284,273L292,278L292,279L295,282L296,279L298,279L299,279L300,278L298,275L300,272L310,269L313,268L312,268L311,265L310,266L298,250L298,249L290,249L290,249L287,246L285,246L284,246Z " data-fips="" data-fips-="" data-iso3="VNM" data-name="Qung Nam"/><path d="M323,291L319,281L318,274L319,273L315,267L314,269L313,268L313,268L310,269L300,272L298,275L300,278L299,279L300,280L302,282L303,284L308,290L309,292L310,294L312,293L316,291L320,291L323,291L323,291Z " data-fips="VM63" data-fips-="" data-iso3="VNM" data-name="Qu?ng Ngi"/><path d="M259,212L254,216L253,218L244,219L244,227L245,229L248,231L248,234L252,234L254,235L257,239L260,240L261,240L262,231L267,230L269,228L271,225L270,224L264,221L264,219L262,214L259,212Z " data-fips="VM64" data-fips-="" data-iso3="VNM" data-name="Qu?ng Tr?"/><path d="M296,242L291,241L291,238L286,240L284,239L284,237L279,231L277,232L274,227L271,225L269,228L267,230L262,231L261,240L261,240L262,243L269,247L272,247L272,247L276,247L280,247L281,248L284,246L285,246L286,245L288,242L293,243L295,242L296,242Z " data-fips="VM66" data-fips-="" data-iso3="VNM" data-name="Th?a Thin - Hu?"/><path d="M285,246L287,246L290,249L290,249L298,249L298,249L297,244L294,245L295,243L295,242L293,243L288,242L286,245L285,246Z " data-fips="VM78" data-fips-="" data-iso3="VNM" data-name=" N?ng"/><path d="M265,426L261,429L261,430L265,426Z M259,421L259,421L259,422L259,422L259,422L259,421L259,421L259,421Z M274,415L269,419L267,416L263,417L259,420L259,420L259,421L260,421L259,424L259,424L259,424L259,425L259,424L264,425L265,427L267,428L268,427L277,422L277,422L277,421L275,416L274,415Z " data-fips="VM45" data-fips-="" data-iso3="VNM" data-name="B R?a - Vung Tu"/><path d="M309,390L309,391L302,392L300,393L301,397L294,400L293,402L291,399L282,399L279,398L278,397L277,397L276,399L272,407L275,409L276,415L275,416L277,421L277,422L278,422L286,418L289,418L294,411L298,410L308,403L313,403L315,399L318,398L319,398L316,395L314,395L311,390L309,390Z " data-fips="VM47" data-fips-="" data-iso3="VNM" data-name="Bnh Thu?n"/><path d="M275,396L273,393L271,392L269,391L268,391L266,392L262,393L261,396L258,399L257,400L256,402L258,405L256,408L252,407L253,411L253,412L254,413L252,416L251,416L251,419L251,419L252,419L252,419L254,420L254,420L255,420L255,420L256,420L258,422L259,424L259,424L258,422L258,421L259,423L259,422L259,422L259,421L259,421L259,421L259,420L258,419L259,420L259,420L263,417L267,416L269,419L274,415L275,416L276,415L275,409L272,407L276,399L277,397L278,397L275,396Z " data-fips="VM43" data-fips-="" data-iso3="VNM" data-name="ng Nam B?"/><path d="M202,412L199,411L198,410L196,411L198,416L197,418L194,420L188,424L187,423L187,423L192,428L203,434L204,433L206,432L207,433L211,430L211,429L212,427L214,426L213,426L211,423L208,422L207,418L203,415L202,412L202,412Z " data-fips="VM01" data-fips-="" data-iso3="VNM" data-name="An Giang"/><path d="M222,431L220,429L218,428L215,427L214,426L212,427L211,429L214,433L216,436L217,436L218,436L221,436L224,435L223,432L222,431L222,431Z " data-fips="VM09" data-fips-="" data-iso3="VNM" data-name="?ng Thp"/><path d="M202,412L203,415L207,418L208,422L211,423L213,426L214,426L215,427L218,428L220,429L222,431L222,431L222,431L225,425L226,424L226,423L225,422L216,415L212,410L210,410L208,410L207,411L203,412L202,412Z " data-fips="VM09" data-fips-="" data-iso3="VNM" data-name="?ng Thp"/><path d="M259,425L259,424L259,424L259,424L258,425L258,425L259,425L259,425Z M257,424L255,425L256,428L258,428L257,424Z M256,422L255,420L254,422L256,423L256,422Z M259,424L258,422L256,420L255,420L257,421L257,423L257,426L258,424L259,424Z M254,425L253,421L252,421L253,428L254,425Z M254,420L254,420L252,419L252,419L253,420L254,420L254,420Z M241,405L240,407L240,407L240,408L239,408L238,409L240,410L243,412L243,417L247,420L250,420L250,423L251,423L251,421L250,419L251,419L251,419L251,416L252,416L254,413L253,412L252,412L248,411L242,404L241,405Z " data-fips="VM20" data-fips-="" data-iso3="VNM" data-name="H? Ch Minh city"/><path d="M164,425L161,428L159,428L162,432L164,437L165,439L166,432L164,425Z M186,423L182,423L179,426L178,427L182,431L184,435L189,433L191,436L195,437L199,442L197,442L192,446L190,454L190,455L196,455L196,455L203,459L204,459L204,459L204,457L205,456L205,453L208,453L208,452L207,450L212,444L212,442L204,435L203,434L192,428L187,423L187,423L186,423Z " data-fips="VM21" data-fips-="" data-iso3="VNM" data-name="Kin Giang"/><path d="M238,409L237,408L233,410L232,409L232,409L231,411L233,416L229,415L225,412L223,414L219,408L215,409L212,410L216,415L225,422L226,423L227,423L232,422L236,422L238,424L241,425L241,427L244,427L246,427L246,427L247,426L248,425L250,423L250,423L250,420L247,420L243,417L243,412L240,410L238,409Z " data-fips="VM24" data-fips-="" data-iso3="VNM" data-name="Long An"/><path d="M250,433L249,432L246,432L250,433Z M226,423L226,424L225,425L222,431L222,431L224,431L226,431L229,432L231,433L231,433L232,433L239,441L243,443L245,445L249,444L242,439L239,435L238,433L243,439L246,441L249,438L250,439L252,437L250,434L242,431L240,430L246,431L252,431L252,428L246,427L246,427L244,427L241,427L241,425L238,424L236,422L232,422L227,423L226,423Z " data-fips="VM03" data-fips-="" data-iso3="VNM" data-name="B?n Tre"/><path d="M216,436L214,433L211,429L211,430L207,433L206,432L204,433L203,434L204,435L212,442L212,444L207,450L208,452L208,453L210,453L212,453L213,453L217,452L222,448L224,443L222,441L221,440L222,440L220,438L218,437L217,436L216,436Z " data-fips="VM60" data-fips-="VM48" data-iso3="VNM" data-name="d?ng b?ng sng C?u Long"/><path d="M213,453L212,453L210,453L208,453L205,453L205,456L204,457L204,459L204,459L205,460L206,469L208,470L209,472L209,472L209,471L210,470L219,465L223,464L221,460L216,460L213,457L213,453Z " data-fips="VM73" data-fips-="" data-iso3="VNM" data-name="B?c Liu"/><path d="M203,459L196,455L196,455L190,455L190,456L189,479L192,479L191,481L189,482L190,486L199,483L200,482L206,478L208,472L209,472L208,470L206,469L205,460L204,459L203,459Z " data-fips="VM77" data-fips-="" data-iso3="VNM" data-name="C Mau"/><path d="M234,452L231,450L231,451L234,452Z M224,443L222,448L217,452L213,453L213,457L216,460L221,460L223,464L227,462L233,460L232,459L233,455L229,448L224,443Z " data-fips="VM65" data-fips-="" data-iso3="VNM" data-name="Sc Trang"/><path d="M229,447L235,452L241,455L243,455L245,452L245,449L236,439L235,438L233,440L231,441L227,444L229,447Z " data-fips="VM51" data-fips-="VM67" data-iso3="VNM" data-name="Tr Vinh"/><path d="M222,431L223,432L224,435L221,436L218,436L217,436L218,437L220,438L222,440L223,441L224,441L225,442L226,443L227,444L231,441L233,440L235,438L234,437L232,436L231,433L231,433L231,433L229,432L226,431L224,431L222,431Z " data-fips="VM50" data-fips-="VM69" data-iso3="VNM" data-name="Vinh Long"/><path d="M215,22L214,25L213,25L208,30L213,32L215,36L216,38L217,37L219,35L222,34L222,38L223,41L230,40L233,42L234,44L235,44L236,43L240,45L241,45L245,44L244,44L246,39L248,39L252,32L250,32L246,29L243,28L238,30L235,27L231,26L225,28L222,26L216,23L215,22L215,22Z " data-fips="VM05" data-fips-="" data-iso3="VNM" data-name="Cao B?ng"/><path d="M181,34L184,38L183,38L188,49L188,49L189,48L192,50L194,51L195,51L196,50L199,46L201,43L205,36L214,38L216,38L215,36L213,32L208,30L213,25L214,25L215,22L215,21L209,15L207,15L206,17L196,20L194,22L194,26L190,31L186,30L183,33L181,34Z " data-fips="VM50" data-fips-="" data-iso3="VNM" data-name="H Giang"/></g></svg>