<?xml version="1.0" encoding="UTF-8"?><!DOCTYPE svg  PUBLIC '-//W3C//DTD SVG 1.1//EN'  'http://www.w3.org/Graphics/SVG/1.1/DTD/svg11.dtd'><svg enable_background="new 0 0 450 501" height="501px" style="stroke-linejoin: round; stroke:#000; fill:#f6f3f0;" version="1.1" viewBox="0 0 450 501" width="450px" xmlns="http://www.w3.org/2000/svg" xmlns:xlink="http://www.w3.org/1999/xlink"><defs><style type="text/css"><![CDATA[path { fill-rule: evenodd; }
#context path { fill: #eee; stroke: #bbb; } ]]></style></defs><metadata><views><view h="501.0" padding="0.06" w="450"><proj id="laea" lat0="-14.2302163631" lon0="167.502411359"/><bbox h="93.55" w="44.35" x="985.82" y="983.27"/><llbbox lat0="-90" lat1="90" lon0="-180" lon1="180"/></view></views></metadata><g id="context"><path d="M130,499L128,497L126,496L130,499Z M7,499L0,494L0,499L7,499Z " data-iso="NCL"/><path d="M330,482L321,480L321,483L325,486L328,486L330,482Z M306,439L298,434L296,425L294,425L291,426L289,435L292,439L297,445L303,446L306,439Z M297,400L294,395L288,390L292,388L287,385L285,379L281,378L277,380L275,384L276,392L275,395L291,402L294,403L297,400Z M242,307L231,308L226,314L224,318L228,318L231,318L233,321L229,323L239,325L246,324L250,318L248,317L242,307Z M242,257L237,256L232,251L228,248L226,245L222,248L222,251L223,256L225,259L234,258L243,261L244,258L242,257Z M233,228L229,221L226,214L224,211L218,218L213,219L209,221L211,224L215,227L225,229L233,228Z M177,212L172,200L167,198L163,198L162,201L160,211L164,216L171,213L173,216L175,222L176,232L179,239L179,242L184,244L189,239L199,240L203,235L201,232L200,228L196,226L194,223L191,223L182,217L181,213L177,212Z M164,188L165,182L158,181L157,185L163,189L164,188Z M227,204L230,203L231,199L226,173L224,170L222,185L225,201L227,204Z M208,169L214,159L203,160L193,170L196,171L204,172L208,169Z M226,162L226,153L223,139L221,141L222,161L225,166L226,162Z M134,129L129,123L125,116L123,116L120,124L120,130L128,154L127,167L131,174L135,177L135,182L139,182L146,178L156,178L163,172L159,149L155,145L154,138L155,136L152,135L150,136L148,144L146,149L143,150L138,150L134,129Z M188,91L189,86L183,83L178,85L177,87L176,93L185,95L188,91Z M181,68L185,66L185,59L181,55L176,58L175,60L179,68L181,68Z " data-iso="VUT"/></g><g fill="red" fill-opacity="0.35" id="regions"><path d="M184,84L179,85L176,88L177,92L180,95L184,95L186,94L189,87L184,84Z M187,64L184,57L181,55L178,56L175,59L177,65L180,70L181,67L187,64Z M194,53L195,49L193,50L194,53Z M172,43L170,41L169,41L170,45L174,44L174,42L172,43Z M130,36L128,36L129,38L130,36Z M127,26L124,23L123,24L127,26Z M122,21L123,17L122,13L120,20L122,21Z " data-fips="NH07" data-fips-="" data-iso3="VUT" data-name="Torba"/><path d="M165,189L163,181L159,181L155,184L156,186L161,189L165,189Z M164,179L160,175L157,179L164,179Z M139,151L138,150L137,142L134,128L132,126L128,121L126,116L122,117L122,119L120,123L121,125L120,129L123,137L124,141L128,154L126,166L132,175L136,180L135,181L139,183L145,179L150,178L157,178L159,175L161,174L166,174L166,172L164,170L161,162L163,160L160,155L159,150L160,148L156,149L154,137L156,135L149,136L148,137L147,148L146,150L139,151Z " data-fips="NH13" data-fips-="" data-iso3="VUT" data-name="Sanma"/><path d="M327,486L331,482L330,481L322,479L321,480L321,484L327,486Z M303,446L305,438L298,434L297,429L297,425L296,424L290,427L290,429L289,436L293,442L294,442L298,445L302,447L303,446Z M287,386L285,380L283,378L278,379L276,380L275,388L276,391L275,395L282,399L286,400L293,404L296,401L296,397L289,391L288,390L287,386Z " data-fips="NH15" data-fips-="" data-iso3="VUT" data-name="Tafea"/><path d="M236,241L236,239L232,239L233,240L236,241Z M229,238L227,237L227,238L229,238Z M234,227L234,224L228,221L226,212L225,211L223,212L222,214L218,218L211,220L209,223L215,227L225,229L232,228L234,227Z M177,213L174,209L176,207L172,202L172,200L165,197L162,199L162,205L160,210L165,217L171,213L175,224L175,229L176,231L177,240L180,243L184,244L190,238L194,239L198,242L199,242L204,236L201,233L200,229L198,228L194,225L181,216L177,213Z " data-fips="NH16" data-fips-="" data-iso3="VUT" data-name="Malampa"/><path d="M228,205L231,200L231,198L227,183L227,181L225,170L224,170L223,176L222,181L222,189L224,192L227,205L228,205Z M205,171L209,168L211,163L214,159L212,158L207,159L202,161L194,168L193,170L197,172L204,172L205,171Z M226,164L226,154L225,152L224,146L224,143L222,135L220,136L222,149L222,150L222,157L222,160L223,164L222,166L225,166L226,164Z " data-fips="NH17" data-fips-="" data-iso3="VUT" data-name="Penama"/><path d="M234,308L232,307L228,312L225,315L223,318L226,320L229,317L232,318L231,323L233,322L233,323L236,324L238,326L247,324L250,318L250,317L246,314L241,307L234,308Z M227,309L231,305L227,308L227,309Z M237,303L236,301L234,299L234,301L237,303Z M235,278L240,275L238,274L234,277L235,278Z M250,268L251,265L250,264L247,266L250,268Z M225,244L222,248L222,253L226,259L228,260L235,258L244,262L244,259L243,257L235,254L232,250L228,248L225,244Z " data-fips="NH18" data-fips-="" data-iso3="VUT" data-name="Shefa"/></g></svg>