<?xml version="1.0" encoding="UTF-8"?><!DOCTYPE svg  PUBLIC '-//W3C//DTD SVG 1.1//EN'  'http://www.w3.org/Graphics/SVG/1.1/DTD/svg11.dtd'><svg enable_background="new 0 0 450 301" height="301px" style="stroke-linejoin: round; stroke:#000; fill:#f6f3f0;" version="1.1" viewBox="0 0 450 301" width="450px" xmlns="http://www.w3.org/2000/svg" xmlns:xlink="http://www.w3.org/1999/xlink"><defs><style type="text/css"><![CDATA[path { fill-rule: evenodd; }
#context path { fill: #eee; stroke: #bbb; } ]]></style></defs><metadata><views><view h="301.0" padding="0.06" w="450"><proj id="laea" lat0="17.0658190984" lon0="43.910620812"/><bbox h="101.78" w="161.48" x="975.1" y="965.53"/><llbbox lat0="-90" lat1="90" lon0="-180" lon1="180"/></view></views></metadata><g id="context"><path d="M44,293L36,292L23,295L23,292L27,293L32,287L40,284L48,279L53,271L51,265L49,262L43,255L43,254L33,258L31,263L28,265L21,260L19,261L18,262L15,267L3,282L0,286L0,299L44,299L47,295L44,293Z " data-iso="DJI"/><path d="M18,262L19,261L21,260L28,265L31,263L33,258L43,254L42,250L39,247L38,250L32,248L30,243L23,236L19,236L17,230L14,223L0,213L0,241L4,247L10,251L15,258L18,262Z " data-iso="ERI"/><path d="M18,262L15,258L10,251L4,247L0,241L0,286L3,282L15,267L18,262Z " data-iso="ETH"/><path d="M331,32L333,35L359,89L361,90L371,111L378,108L388,106L394,103L399,100L403,97L413,96L419,95L426,97L435,94L439,90L442,84L440,78L441,75L447,66L450,65L450,0L409,0L374,14L369,17L336,30L331,32Z " data-iso="OMN"/><path d="M0,113L5,118L9,117L12,120L12,116L8,112L9,116L5,114L5,108L4,106L0,113Z M33,128L39,123L43,118L45,117L43,108L45,99L47,98L46,94L53,88L57,89L63,93L66,94L75,93L77,92L84,92L90,92L97,91L111,91L119,95L148,98L162,96L170,107L176,107L185,101L190,89L209,65L237,49L241,48L324,33L331,32L336,30L369,17L374,14L409,0L0,0L0,76L8,83L16,91L19,102L24,107L25,110L28,113L32,125L33,128Z " data-iso="SAU"/><path d="M312,299L311,297L313,291L316,285L317,279L315,279L301,275L296,276L290,284L278,291L263,294L254,298L251,299L312,299Z " data-iso="SOM"/><path d="M400,248L396,246L392,246L389,248L385,252L391,256L395,259L399,259L412,257L417,254L422,252L425,250L414,247L405,247L400,248Z M32,210L31,207L29,209L32,210Z M331,32L324,33L241,48L237,49L209,65L190,89L185,101L176,107L170,107L162,96L148,98L119,95L111,91L97,91L90,92L84,92L77,92L75,93L66,94L63,93L57,89L53,88L46,94L47,98L45,99L43,108L45,117L43,118L39,123L33,128L34,139L30,152L33,162L30,165L29,163L28,167L34,170L37,183L40,190L41,197L42,202L42,209L47,214L47,234L55,249L55,254L60,252L73,257L76,256L84,255L93,250L98,252L107,250L111,243L119,241L124,235L128,232L137,230L146,229L156,229L166,227L172,224L186,220L194,213L201,209L205,206L215,208L221,207L228,206L232,203L239,195L240,191L250,185L257,182L269,178L277,177L283,174L289,170L305,166L315,162L329,155L332,154L344,147L344,143L342,136L344,129L347,124L355,118L371,111L361,90L359,89L333,35L331,32Z " data-iso="YEM"/></g><g fill="red" fill-opacity="0.35" id="regions"><path d="M46,117L46,117L52,119L55,119L59,119L63,118L70,118L73,119L76,119L79,119L79,117L81,114L87,109L88,107L93,104L99,103L101,103L104,102L104,91L94,91L90,92L88,92L69,96L69,94L63,94L60,90L54,88L49,90L45,95L47,96L48,97L45,99L43,109L46,114L45,116L46,117Z " data-fips="YM15" data-fips-="" data-iso3="YEM" data-name="Sa`dah"/><path d="M30,220L31,217L29,221L30,220Z M32,212L32,208L31,207L32,212Z M25,161L24,164L26,165L27,161L25,161Z M34,144L30,149L29,150L30,153L32,159L33,165L29,164L29,166L26,167L32,168L35,171L35,173L38,179L37,182L39,191L38,191L40,196L41,199L42,208L44,211L48,219L48,220L48,221L54,217L55,217L59,213L62,212L63,212L62,210L64,210L66,206L66,205L65,205L61,205L60,205L57,196L58,196L59,195L59,194L58,192L58,192L57,188L57,187L57,187L57,186L57,186L57,182L58,180L62,177L62,177L63,176L60,175L59,174L58,173L57,173L54,167L50,164L50,159L50,157L49,154L50,147L49,145L39,147L34,143L34,144Z " data-fips="YM08" data-fips-="" data-iso3="YEM" data-name="Al Hudaydah"/><path d="M70,156L67,156L63,157L63,157L62,156L57,156L51,157L50,157L50,159L50,164L54,167L57,173L58,173L59,172L60,167L71,160L71,159L72,157L70,156Z " data-fips="YM10" data-fips-="" data-iso3="YEM" data-name="Al Mahwit"/><path d="M67,180L67,181L72,189L67,193L63,193L58,196L58,196L57,196L60,205L61,205L65,205L66,205L66,204L68,201L69,203L71,200L71,197L76,194L78,197L80,194L93,200L93,200L94,198L97,194L98,190L99,186L101,183L101,182L99,178L93,174L89,177L82,177L79,175L76,176L71,179L67,179L67,180Z " data-fips="YM11" data-fips-="" data-iso3="YEM" data-name="Dhamar"/><path d="M46,117L42,117L41,122L32,128L34,137L34,143L34,143L39,147L49,145L50,147L49,154L50,157L51,157L57,156L62,156L63,157L63,155L66,151L65,145L64,141L62,141L61,135L59,132L59,125L59,119L55,119L52,119L46,117L46,117L46,117Z " data-fips="YM22" data-fips-="YM12" data-iso3="YEM" data-name="Hajjah"/><path d="M76,119L73,119L70,118L63,118L59,119L59,125L59,132L61,135L62,141L64,141L65,145L66,151L63,155L63,157L63,157L67,156L70,156L72,157L72,157L78,153L80,149L81,141L85,140L86,139L86,138L84,134L85,131L83,124L83,123L80,120L79,119L76,119Z " data-fips="YM00" data-fips-="YM16" data-iso3="YEM" data-name="Amran"/><path d="M93,200L80,194L78,197L76,194L71,197L71,200L69,203L68,201L66,204L66,205L66,206L64,210L62,210L63,212L62,212L63,214L69,213L69,215L71,214L71,216L86,218L86,217L86,216L89,212L94,205L96,205L96,204L95,203L95,203L94,202L94,200L93,200L93,200Z " data-fips="YM23" data-fips-="YM13" data-iso3="YEM" data-name="Ibb"/><path d="M120,210L118,208L116,209L114,210L112,210L110,215L106,218L101,219L99,223L94,226L92,224L90,224L90,224L85,227L87,230L84,231L84,234L84,235L76,239L72,241L68,240L64,241L64,244L58,252L57,254L59,252L70,257L72,257L78,255L82,256L86,254L86,255L89,251L93,249L100,248L106,246L109,246L109,246L109,246L110,238L112,232L114,224L116,222L116,217L118,216L118,213L119,213L120,210Z " data-fips="YM24" data-fips-="YM06" data-iso3="YEM" data-name="Lahij"/><path d="M62,212L59,213L55,217L54,217L48,221L48,222L47,225L46,234L47,236L52,243L55,249L56,254L57,254L58,252L64,244L64,241L68,240L72,241L76,239L84,235L84,234L84,231L87,230L85,227L90,224L90,224L90,223L87,222L86,221L87,218L86,217L86,218L71,216L71,214L69,215L69,213L63,214L62,212Z " data-fips="YM25" data-fips-="YM17" data-iso3="YEM" data-name="Ta`izz"/><path d="M332,32L323,46L318,60L317,71L314,81L311,90L307,96L294,108L291,111L289,113L283,115L280,122L278,133L281,137L278,145L278,152L282,154L280,159L280,161L284,162L291,161L297,164L298,168L300,167L307,165L313,163L320,161L321,160L327,158L327,156L345,146L345,146L342,135L344,131L345,126L350,122L356,118L360,116L366,113L371,112L361,90L359,89L332,32Z " data-fips="YM03" data-fips-="" data-iso3="YEM" data-name="Al Mahrah"/><path d="M124,186L116,191L115,190L111,192L108,181L106,181L104,182L103,183L101,183L99,186L98,190L97,194L94,198L93,200L94,200L94,202L95,203L95,203L96,204L98,203L106,202L108,205L112,209L112,210L114,210L116,209L118,208L120,210L119,213L120,213L126,214L130,214L137,209L140,205L141,202L140,202L139,199L136,197L132,190L128,185L125,185L124,186Z " data-fips="YM20" data-fips-="YM07" data-iso3="YEM" data-name="Al Bayda'"/><path d="M112,209L108,205L106,202L98,203L96,204L96,205L94,205L89,212L86,216L86,217L87,218L86,221L87,222L90,223L90,224L92,224L94,226L99,223L101,219L106,218L110,215L112,210L112,209Z " data-fips="YM00" data-fips-="YM07|YM20" data-iso3="YEM" data-name="Al Dali'"/><path d="M170,107L163,97L161,96L149,98L119,95L112,92L111,91L104,91L104,102L101,103L99,103L93,104L88,107L87,109L81,114L79,117L79,119L80,120L83,123L83,124L85,131L84,134L86,138L86,139L88,139L89,139L89,138L92,139L94,140L105,143L113,147L120,148L124,147L128,144L138,140L166,135L173,128L171,107L170,107Z " data-fips="YM21" data-fips-="YM09" data-iso3="YEM" data-name="Al Jawf"/><path d="M150,155L131,169L126,172L124,185L125,185L128,185L132,190L136,197L139,199L140,202L141,202L144,202L150,199L153,199L156,204L159,204L165,201L168,201L175,203L179,203L180,210L182,214L184,221L186,220L191,215L201,209L203,207L206,206L212,209L225,206L228,206L226,201L222,198L212,196L205,189L203,189L194,186L192,183L189,179L194,174L195,172L192,168L194,161L200,152L199,151L196,150L150,155Z " data-fips="YM05" data-fips-="" data-iso3="YEM" data-name="Shabwah"/><path d="M166,135L138,140L128,144L124,147L120,148L113,147L105,143L94,140L96,143L100,154L99,156L94,160L99,164L103,162L111,166L110,172L106,177L106,179L106,181L108,181L111,192L115,190L116,191L124,186L125,185L124,185L126,172L131,169L150,155L166,135Z " data-fips="YM14" data-fips-="" data-iso3="YEM" data-name="Ma'rib"/><path d="M92,139L89,138L89,139L88,139L86,139L85,140L81,141L80,149L78,153L72,157L72,157L71,159L71,160L60,167L59,172L58,173L59,174L60,175L63,176L62,177L63,178L63,179L65,179L65,180L67,180L67,179L71,179L76,176L79,175L82,177L89,177L93,174L99,178L101,182L101,183L103,183L104,182L106,181L106,179L106,177L110,172L111,166L103,162L99,164L94,160L99,156L100,154L96,143L94,140L92,139Z M86,156L82,157L81,163L80,165L76,159L78,158L83,154L86,156Z " data-fips="YM16" data-fips-="" data-iso3="YEM" data-name="Sana'a"/><path d="M354,265L349,265L344,264L352,267L354,265Z M391,246L386,253L391,256L393,258L400,259L410,257L416,254L421,253L426,249L415,247L412,245L407,247L404,247L401,249L394,246L391,246Z M331,32L239,48L236,49L209,64L208,65L190,89L186,100L185,102L175,107L171,107L173,128L166,135L150,155L196,150L199,151L200,152L194,161L192,168L195,172L194,174L189,179L192,183L194,186L203,189L205,189L212,196L222,198L226,201L228,206L229,206L234,201L235,199L239,196L239,193L243,189L245,188L254,183L258,181L270,177L273,178L278,177L290,169L293,169L298,168L297,164L291,161L284,162L280,161L280,159L282,154L278,152L278,145L281,137L278,133L280,122L283,115L289,113L291,111L294,108L307,96L311,90L314,81L317,71L318,60L323,46L332,32L331,32Z " data-fips="YM04" data-fips-="" data-iso3="YEM" data-name="Hadramawt"/><path d="M86,156L83,154L78,158L76,159L80,165L81,163L82,157L86,156Z " data-fips="" data-fips-="" data-iso3="YEM" data-name="Amanat Al Asimah"/><path d="M58,196L58,196L63,193L64,193L64,194L67,193L72,189L67,181L66,180L67,180L65,180L65,179L63,179L63,178L62,177L62,177L58,180L57,182L57,186L57,187L57,187L58,192L58,192L59,194L59,195L58,196Z " data-fips="" data-fips-="" data-iso3="YEM" data-name="Raymah"/><path d="M109,246L106,246L100,248L93,249L89,251L86,255L86,255L91,250L96,250L97,252L106,248L107,250L105,251L108,252L109,247L109,246Z " data-fips="YM01" data-fips-="" data-iso3="YEM" data-name="`Adan"/><path d="M141,202L140,205L137,209L130,214L126,214L120,213L119,213L118,213L118,216L116,217L116,222L114,224L112,232L110,238L109,246L109,245L112,243L118,242L120,240L127,232L128,232L137,229L157,229L163,228L167,226L170,224L178,223L184,221L182,214L180,210L179,203L175,203L168,201L165,201L159,204L156,204L153,199L150,199L144,202L141,202Z " data-fips="" data-fips-="" data-iso3="YEM" data-name="Abyan"/></g></svg>