<?xml version="1.0" encoding="UTF-8"?><!DOCTYPE svg  PUBLIC '-//W3C//DTD SVG 1.1//EN'  'http://www.w3.org/Graphics/SVG/1.1/DTD/svg11.dtd'><svg enable_background="new 0 0 450 301" height="301px" style="stroke-linejoin: round; stroke:#000; fill:#f6f3f0;" version="1.1" viewBox="0 0 450 301" width="450px" xmlns="http://www.w3.org/2000/svg" xmlns:xlink="http://www.w3.org/1999/xlink"><defs><style type="text/css"><![CDATA[path { fill-rule: evenodd; }
#context path { fill: #eee; stroke: #bbb; } ]]></style></defs><metadata><views><view h="301.0" padding="0.06" w="450"><proj id="laea" lat0="-28.8445697975" lon0="22.021972445"/><bbox h="175.66" w="201.08" x="929.12" y="909.03"/><llbbox lat0="-90" lat1="90" lon0="-180" lon1="180"/></view></views></metadata><g id="context"><path d="M136,70L136,70L143,75L148,85L151,93L152,98L148,105L148,107L150,113L153,112L157,113L164,113L174,108L178,103L186,97L191,84L194,81L198,80L203,82L210,87L216,88L218,90L231,91L242,88L247,74L248,71L253,69L258,67L267,60L272,46L278,42L280,42L295,29L298,27L307,25L313,20L317,19L316,19L311,14L311,11L302,7L292,5L290,0L154,0L154,11L135,11L136,69L136,70Z " data-iso="BWA"/><path d="M296,185L303,181L309,168L308,164L293,153L289,155L279,159L272,170L266,173L269,180L271,185L272,188L274,189L278,194L283,195L290,185L296,185Z " data-iso="LSO"/><path d="M354,26L354,27L359,51L363,61L365,71L363,95L361,100L362,102L362,102L363,107L363,109L364,114L363,121L365,121L368,121L376,122L378,122L378,122L380,110L378,110L374,104L378,97L382,94L389,90L399,86L414,83L421,80L425,78L432,69L434,64L431,61L434,50L436,46L435,39L437,33L435,28L433,35L432,33L433,26L433,17L431,12L431,8L429,0L378,0L377,6L373,9L357,24L354,26Z " data-iso="MOZ"/><path d="M72,152L77,149L79,142L82,140L88,144L90,153L100,155L102,157L116,156L122,157L129,150L135,147L137,147L136,79L136,70L136,69L135,11L154,11L154,0L10,0L14,5L17,11L25,20L28,25L28,34L27,36L30,50L30,62L33,69L36,74L38,79L39,89L39,93L41,98L42,106L44,108L45,115L50,128L58,139L70,151L72,152Z " data-iso="NAM"/><path d="M361,102L352,97L348,98L345,101L339,118L340,118L343,125L347,128L351,129L360,130L360,123L363,120L363,121L364,114L363,109L363,107L362,102L362,102L361,102Z " data-iso="SWZ"/><path d="M317,19L313,20L307,25L298,27L295,29L280,42L278,42L272,46L267,60L258,67L253,69L248,71L247,74L242,88L231,91L218,90L216,88L210,87L203,82L198,80L194,81L191,84L186,97L178,103L174,108L164,113L157,113L153,112L150,113L148,107L148,105L152,98L151,93L148,85L143,75L136,70L136,70L136,79L137,147L135,147L129,150L122,157L116,156L102,157L100,155L90,153L88,144L82,140L79,142L77,149L72,152L72,153L78,160L82,169L87,183L90,190L96,202L106,217L108,225L109,233L108,236L104,239L103,237L101,240L101,243L112,262L111,263L110,266L113,271L114,266L118,266L119,268L119,272L124,271L128,274L133,279L140,280L147,274L155,271L170,271L178,265L187,263L190,264L202,263L212,265L219,267L223,267L226,263L229,263L238,264L238,261L241,259L244,258L252,260L263,255L277,246L284,240L288,237L296,231L301,225L308,219L317,212L323,205L335,187L338,183L341,177L345,173L354,164L358,163L363,158L369,150L372,138L377,127L378,122L376,122L368,121L365,121L363,121L363,120L360,123L360,130L351,129L347,128L343,125L340,118L339,118L345,101L348,98L352,97L361,102L362,102L361,100L363,95L365,71L363,61L359,51L354,27L354,26L353,25L343,23L339,24L333,22L328,20L323,19L318,19L317,19Z M289,155L293,153L308,164L309,168L303,181L296,185L290,185L283,195L278,194L274,189L272,188L271,185L269,180L266,173L272,170L279,159L289,155Z " data-iso="ZAF"/><path d="M317,19L318,19L323,19L328,20L333,22L339,24L343,23L353,25L354,26L357,24L373,9L377,6L378,0L290,0L292,5L302,7L311,11L311,14L316,19L317,19Z " data-iso="ZWE"/></g><g fill="red" fill-opacity="0.35" id="regions"><path d="M98,205L99,205L100,200L102,197L106,197L109,191L112,190L119,195L118,201L121,211L122,213L121,220L125,219L128,222L130,226L128,228L130,232L131,233L132,231L139,228L141,225L142,227L142,237L146,241L153,239L153,236L159,234L162,229L169,226L172,226L176,223L176,218L177,218L179,212L183,214L185,216L189,218L193,221L199,215L206,215L207,216L209,216L211,217L212,217L213,216L219,215L220,209L222,209L232,205L234,206L237,202L238,197L237,196L237,193L236,192L229,187L227,184L225,179L223,179L219,175L217,172L227,151L227,150L228,145L228,144L230,140L230,139L230,139L228,140L227,136L229,131L226,131L225,129L224,130L223,135L221,140L218,135L219,131L213,132L211,125L210,125L206,128L202,125L193,120L194,115L193,113L193,109L190,107L188,107L187,98L186,97L186,98L181,102L179,102L173,109L170,109L170,112L168,113L161,113L158,113L148,110L148,106L152,98L152,97L150,89L147,83L144,77L140,73L136,69L137,146L131,148L129,149L127,152L124,153L123,156L121,158L118,156L114,156L110,157L102,157L99,155L94,155L89,154L89,151L82,140L79,141L78,145L78,147L76,150L76,149L73,154L75,157L79,162L81,168L86,181L87,184L92,193L92,194L98,204L98,205Z " data-fips="SF06" data-fips-="SF08" data-iso3="ZAF" data-name="Northern Cape"/><path d="M211,217L209,216L207,216L206,215L199,215L193,221L189,218L185,216L183,214L179,212L177,218L176,218L176,223L172,226L169,226L162,229L159,234L153,236L153,239L146,241L142,237L142,227L141,225L139,228L132,231L131,233L130,232L128,228L130,226L128,222L125,219L121,220L122,213L121,211L118,201L119,195L112,190L109,191L106,197L102,197L100,200L99,205L98,205L99,206L106,217L109,228L109,232L108,236L105,239L102,238L102,244L104,244L106,248L103,246L109,253L112,258L113,262L111,264L112,270L113,271L113,266L116,265L119,266L122,271L124,271L127,272L128,275L132,279L137,279L140,281L142,278L148,273L155,272L153,272L156,271L164,271L166,271L171,271L173,268L179,264L184,263L188,264L191,265L199,266L203,263L203,263L204,261L198,259L202,256L202,253L196,251L190,251L187,249L193,239L198,238L196,232L198,229L203,228L204,226L207,226L211,224L213,218L212,217L211,217Z " data-fips="SF09" data-fips-="SF11" data-iso3="ZAF" data-name="Western Cape"/><path d="M258,68L248,70L248,74L244,82L242,88L234,91L232,90L224,92L221,90L218,90L214,88L211,88L207,84L202,80L196,80L191,83L190,84L189,88L188,91L187,95L186,97L186,97L187,98L188,107L190,107L193,109L193,113L194,115L193,120L202,125L206,128L210,125L211,125L213,132L219,131L218,135L221,140L223,135L224,130L225,129L226,131L229,131L227,136L228,140L230,139L230,139L230,139L234,134L239,131L250,130L254,126L255,126L258,123L260,118L266,115L271,117L275,116L278,114L278,114L278,111L279,108L278,107L272,107L274,104L273,101L279,94L282,95L286,94L288,90L290,86L293,86L294,84L292,82L284,76L281,76L279,78L272,75L269,71L265,73L259,72L258,68L258,68Z " data-fips="SF06" data-fips-="SF10" data-iso3="ZAF" data-name="North West"/><path d="M278,114L278,114L275,116L271,117L266,115L260,118L258,123L255,126L254,126L250,130L239,131L234,134L230,139L230,139L230,140L228,144L228,145L227,150L227,151L217,172L219,175L223,179L225,179L227,184L229,187L236,192L237,193L237,193L241,194L245,192L249,191L255,193L258,195L262,195L268,191L270,192L272,188L272,188L271,186L265,174L270,172L275,166L280,159L285,158L288,155L296,152L297,155L300,157L300,157L303,153L307,152L307,151L315,145L316,144L318,131L319,130L318,130L316,131L311,125L309,123L307,123L303,121L299,119L296,121L292,118L292,117L291,117L289,116L287,115L278,114L278,114Z " data-fips="SF07" data-fips-="SF03" data-iso3="ZAF" data-name="Orange Free State"/><path d="M292,116L296,111L300,110L303,107L302,106L297,104L296,101L299,98L303,99L306,92L311,87L312,85L304,86L304,80L300,81L300,81L300,81L300,83L299,83L295,84L294,84L293,86L290,86L288,90L286,94L282,95L279,94L273,101L274,104L272,107L278,107L279,108L278,111L278,114L278,114L287,115L289,116L291,117L292,117L292,116Z " data-fips="SF08" data-fips-="SF06" data-iso3="ZAF" data-name="Gauteng"/><path d="M300,81L300,81L304,80L304,86L312,85L311,87L306,92L303,99L299,98L296,101L297,104L302,106L303,107L300,110L296,111L292,116L292,117L292,118L296,121L299,119L303,121L307,123L309,123L311,125L316,131L318,130L319,130L319,130L320,129L331,127L331,128L336,128L345,129L346,128L345,127L342,123L340,118L339,116L340,109L346,100L350,97L352,96L362,102L361,99L363,91L365,70L363,63L363,60L360,61L359,61L352,61L356,63L353,69L355,71L357,74L353,76L352,77L354,80L347,81L350,79L348,76L349,74L347,71L341,68L341,70L336,71L329,71L328,75L322,80L323,81L320,83L318,82L315,78L314,76L312,75L309,78L306,75L306,77L303,76L300,78L299,79L295,81L298,81L300,81Z " data-fips="SF02" data-fips-="SF07" data-iso3="ZAF" data-name="Mpumalanga"/><path d="M258,68L259,72L265,73L269,71L272,75L279,78L281,76L284,76L292,82L294,84L295,84L299,83L300,83L300,81L300,81L298,81L295,81L299,79L300,78L303,76L306,77L306,75L309,78L312,75L314,76L315,78L318,82L320,83L323,81L322,80L328,75L329,71L336,71L341,70L341,68L347,71L349,74L348,76L350,79L347,81L354,80L352,77L353,76L357,74L355,71L353,69L356,63L352,61L359,61L360,61L363,60L363,60L360,55L358,42L354,26L350,24L341,24L335,24L333,22L325,19L310,20L309,23L306,25L297,27L291,33L289,34L288,36L282,39L281,42L277,43L271,48L270,48L268,57L267,60L261,64L259,67L258,68Z " data-fips="SF05" data-fips-="SF09" data-iso3="ZAF" data-name="Limpopo"/><path d="M346,128L345,129L336,128L331,128L331,127L320,129L319,130L319,130L318,131L316,144L315,145L307,151L307,152L303,153L300,157L301,157L301,159L308,165L310,170L307,173L302,182L302,182L303,185L301,188L297,190L298,194L300,194L306,197L310,197L317,200L320,204L321,207L323,205L333,190L335,188L339,183L338,183L342,176L345,172L354,164L358,163L358,162L362,160L365,157L370,144L373,136L375,130L377,123L361,120L360,126L360,130L350,129L346,128Z M309,186L311,184L317,187L319,191L320,191L319,195L312,194L309,186Z " data-fips="SF03" data-fips-="SF02" data-iso3="ZAF" data-name="KwaZulu-Natal"/><path d="M311,184L309,186L312,194L319,195L320,191L319,191L317,187L311,184Z M301,183L294,185L287,189L285,191L284,194L281,195L277,194L272,188L272,188L270,192L268,191L262,195L258,195L255,193L249,191L245,192L241,194L237,193L237,193L237,196L238,197L237,202L234,206L232,205L222,209L220,209L219,215L213,216L212,217L213,218L211,224L207,226L204,226L203,228L198,229L196,232L198,238L193,239L187,249L190,251L196,251L202,253L202,256L198,259L204,261L203,263L206,264L219,267L224,267L225,264L230,263L237,265L238,260L240,259L243,258L252,260L259,257L268,252L275,247L279,244L282,241L290,236L296,231L304,222L313,215L318,211L320,209L321,207L320,204L317,200L310,197L306,197L300,194L298,194L297,190L301,188L303,185L302,182L301,183Z " data-fips="SF01" data-fips-="SF05" data-iso3="ZAF" data-name="Eastern Cape"/></g></svg>