<?xml version="1.0" encoding="UTF-8"?><!DOCTYPE svg  PUBLIC '-//W3C//DTD SVG 1.1//EN'  'http://www.w3.org/Graphics/SVG/1.1/DTD/svg11.dtd'><svg enable_background="new 0 0 450 301" height="301px" style="stroke-linejoin: round; stroke:#000; fill:#f6f3f0;" version="1.1" viewBox="0 0 450 301" width="450px" xmlns="http://www.w3.org/2000/svg" xmlns:xlink="http://www.w3.org/1999/xlink"><defs><style type="text/css"><![CDATA[path { fill-rule: evenodd; }
#context path { fill: #eee; stroke: #bbb; } ]]></style></defs><metadata><views><view h="301.0" padding="0.06" w="450"><proj id="laea" lat0="-10.4135759415" lon0="29.037119397"/><bbox h="138.79" w="157.99" x="906.71" y="964.2"/><llbbox lat0="-90" lat1="90" lon0="-180" lon1="180"/></view></views></metadata><g id="context"><path d="M0,278L18,279L25,279L32,279L37,279L46,282L55,280L62,281L104,272L112,271L107,266L101,261L88,249L80,244L77,235L75,227L73,148L123,147L124,147L122,140L125,132L124,124L124,113L124,111L126,104L124,94L123,90L122,91L120,94L109,93L102,96L85,97L81,100L78,98L78,95L80,86L80,79L77,69L66,54L67,46L68,33L68,24L65,18L65,11L66,4L66,0L4,0L3,5L1,16L0,16L0,278Z " data-iso="AGO"/><path d="M160,274L159,274L151,275L148,276L142,281L137,279L132,282L121,291L118,292L115,286L108,280L78,286L59,290L52,290L52,299L174,299L173,296L168,291L163,283L160,279L159,275L160,274Z " data-iso="BWA"/><path d="M123,90L124,91L126,91L129,94L134,97L133,104L138,105L142,103L147,101L159,100L158,102L160,110L164,113L167,113L179,117L196,119L201,117L203,111L207,108L209,114L214,118L215,122L220,126L225,127L238,132L240,133L245,142L246,142L255,156L258,156L265,154L267,153L274,158L275,156L276,123L268,125L268,130L266,131L257,129L241,114L238,106L239,102L243,87L245,84L245,62L243,53L239,47L251,34L253,32L252,26L254,25L296,19L301,18L300,16L298,12L293,0L66,0L66,4L65,11L65,18L68,24L68,33L67,46L66,54L77,69L80,79L80,86L78,95L78,98L81,100L85,97L102,96L109,93L120,94L122,91L123,90Z M0,0L0,16L1,16L3,5L4,0L0,0Z " data-iso="COD"/><path d="M410,110L407,109L401,112L399,116L394,126L397,138L399,157L401,160L410,165L416,171L431,192L430,202L429,208L430,212L429,227L424,231L417,232L413,241L415,249L413,257L411,257L409,254L411,251L406,247L393,233L389,224L389,222L392,219L397,208L398,201L397,190L392,185L385,186L377,187L374,189L368,181L364,174L363,174L358,175L320,188L304,193L287,199L287,204L290,213L291,216L291,220L292,226L312,226L317,230L324,232L330,237L338,238L348,242L350,244L356,245L354,250L354,254L356,260L356,264L355,273L355,282L353,299L442,299L444,297L445,295L450,291L450,114L442,113L435,107L432,107L427,110L416,110L410,110Z M403,124L402,121L403,121L403,124Z M401,121L399,121L399,120L401,121Z " data-iso="MOZ"/><path d="M403,124L403,121L402,121L403,124Z M401,121L399,120L399,121L401,121Z M358,51L358,52L362,56L364,56L368,62L368,68L373,73L373,76L377,83L371,88L366,91L369,98L366,104L365,105L367,112L365,123L368,128L372,129L369,133L359,137L357,141L358,149L356,156L352,161L350,162L353,165L352,167L356,170L357,173L362,172L363,174L364,174L368,181L374,189L377,187L385,186L392,185L397,190L398,201L397,208L392,219L389,222L389,224L393,233L406,247L411,251L409,254L411,257L413,257L415,249L413,241L417,232L424,231L429,227L430,212L429,208L430,202L431,192L416,171L410,165L401,160L399,157L397,138L394,126L399,116L401,112L407,109L410,110L410,109L407,103L405,102L401,95L402,91L402,84L401,81L400,74L398,66L394,61L388,55L386,54L384,58L371,56L368,54L363,53L358,51L358,51Z " data-iso="MWI"/><path d="M160,274L156,270L146,267L135,266L118,269L112,271L104,272L62,281L55,280L46,282L37,279L32,279L25,279L18,279L0,278L0,299L52,299L52,290L59,290L78,286L108,280L115,286L118,292L121,291L132,282L137,279L142,281L148,276L151,275L159,274L160,274Z " data-iso="NAM"/><path d="M301,18L302,20L305,26L309,29L317,29L321,32L327,37L329,37L339,43L345,44L346,46L356,50L358,51L358,51L363,53L368,54L371,56L384,58L386,54L388,55L394,61L398,66L400,74L401,81L402,84L402,91L401,95L405,102L407,103L410,109L410,110L416,110L427,110L432,107L435,107L442,113L450,114L450,0L293,0L298,12L300,16L301,18Z " data-iso="TZA"/><path d="M356,50L346,46L345,44L339,43L329,37L327,37L321,32L317,29L309,29L305,26L302,20L301,18L296,19L254,25L252,26L253,32L251,34L239,47L243,53L245,62L245,84L243,87L239,102L238,106L241,114L257,129L266,131L268,130L268,125L276,123L275,156L274,158L267,153L265,154L258,156L255,156L246,142L245,142L240,133L238,132L225,127L220,126L215,122L214,118L209,114L207,108L203,111L201,117L196,119L179,117L167,113L164,113L160,110L158,102L159,100L147,101L142,103L138,105L133,104L134,97L129,94L126,91L124,91L123,90L124,94L126,104L124,111L124,113L124,124L125,132L122,140L124,147L123,147L73,148L75,227L77,235L80,244L88,249L101,261L107,266L112,271L118,269L135,266L146,267L156,270L160,274L165,275L172,275L175,278L179,278L182,277L187,277L193,280L199,280L205,278L215,266L220,259L223,254L228,249L240,243L251,237L252,227L256,223L267,218L274,216L287,216L291,216L290,213L287,204L287,199L304,193L320,188L358,175L363,174L362,172L357,173L356,170L352,167L353,165L350,162L352,161L356,156L358,149L357,141L359,137L369,133L372,129L368,128L365,123L367,112L365,105L366,104L369,98L366,91L371,88L377,83L373,76L373,73L368,68L368,62L364,56L362,56L358,52L358,51L356,50Z " data-iso="ZMB"/><path d="M291,216L287,216L274,216L267,218L256,223L252,227L251,237L240,243L228,249L223,254L220,259L215,266L205,278L199,280L193,280L187,277L182,277L179,278L175,278L172,275L165,275L160,274L159,275L160,279L163,283L168,291L173,296L174,299L353,299L355,282L355,273L356,264L356,260L354,254L354,250L356,245L350,244L348,242L338,238L330,237L324,232L317,230L312,226L292,226L291,220L291,216Z " data-iso="ZWE"/></g><g fill="red" fill-opacity="0.35" id="regions"><path d="M253,26L253,31L252,33L249,38L238,46L238,48L242,49L245,59L244,71L245,80L247,83L242,92L240,102L238,105L242,116L253,125L257,130L259,129L268,131L267,128L267,126L276,123L276,123L275,117L287,115L293,108L293,105L284,99L280,100L277,103L278,93L275,88L272,86L264,90L265,94L263,95L257,92L259,89L259,86L264,83L266,80L266,77L272,73L277,72L279,64L278,61L268,56L263,50L263,45L258,42L261,38L270,23L253,26Z " data-fips="ZA04" data-fips-="" data-iso3="ZMB" data-name="Luapula"/><path d="M270,23L261,38L258,42L263,45L263,50L268,56L278,61L279,64L277,72L272,73L266,77L266,80L264,83L259,86L259,89L257,92L263,95L265,94L264,90L272,86L275,88L278,93L277,103L280,100L284,99L293,105L293,108L287,115L275,117L276,123L276,124L276,124L277,121L280,119L283,123L294,128L295,135L298,135L300,137L300,141L303,144L304,144L310,147L312,145L314,145L316,146L316,152L318,156L318,158L318,158L320,157L325,150L329,148L332,144L333,143L337,130L340,125L340,123L347,113L348,112L344,107L339,106L340,97L343,94L343,89L341,86L342,83L355,75L360,75L362,78L366,78L365,81L366,87L371,87L375,83L377,82L377,82L374,78L373,73L372,72L368,62L364,56L362,58L359,57L359,54L357,51L352,48L347,47L339,43L337,42L332,42L332,38L322,35L322,32L317,29L314,30L313,29L309,30L306,28L303,23L301,18L270,23Z " data-fips="ZA05" data-fips-="" data-iso3="ZMB" data-name="Northern"/><path d="M276,124L275,157L272,158L272,153L269,152L259,157L257,156L257,156L254,160L246,165L246,169L240,170L234,169L227,170L224,165L220,163L219,166L214,170L212,166L210,165L199,165L200,165L202,168L201,173L200,174L202,176L201,184L197,185L193,184L187,190L187,191L182,189L168,188L167,188L166,189L166,189L164,191L164,200L160,205L161,206L161,208L197,208L200,209L203,211L209,212L212,218L214,215L218,212L221,214L221,217L223,216L223,216L224,214L227,210L226,209L223,208L223,207L230,207L236,208L244,204L250,203L253,200L261,198L263,198L267,198L268,194L272,192L281,190L282,190L282,190L281,186L283,182L286,180L283,171L304,171L306,168L308,166L308,166L309,165L310,162L317,158L318,158L318,156L316,152L316,146L314,145L312,145L310,147L304,144L303,144L300,141L300,137L298,135L295,135L294,128L283,123L280,119L277,121L276,124L276,124Z " data-fips="ZA02" data-fips-="" data-iso3="ZMB" data-name="Central"/><path d="M218,126L214,126L210,129L204,128L205,133L199,137L200,142L205,146L205,149L202,153L203,154L200,158L198,161L198,165L199,165L210,165L212,166L214,170L219,166L220,163L224,165L227,170L234,169L240,170L246,169L246,165L254,160L257,156L256,156L253,154L252,150L247,143L245,142L244,143L241,140L242,138L240,133L236,131L232,131L231,129L228,129L225,126L219,127L218,126L218,126Z " data-fips="ZA08" data-fips-="" data-iso3="ZMB" data-name="Copperbelt"/><path d="M308,166L309,166L308,166L309,165L310,162L317,158L318,158L318,158L320,157L325,150L329,148L332,144L333,143L337,130L340,125L340,123L347,113L348,112L344,107L339,106L340,97L343,94L343,89L341,86L342,83L355,75L360,75L362,78L366,78L365,81L366,87L371,87L375,83L377,82L377,82L370,88L366,90L369,98L366,105L365,105L366,109L367,114L366,120L365,124L367,128L369,129L372,130L365,135L360,136L357,140L358,147L355,158L350,162L353,166L352,166L356,170L358,174L362,172L363,174L338,182L323,187L317,190L302,193L293,196L289,198L286,199L286,199L286,195L282,191L282,190L282,190L281,186L283,182L286,180L283,171L304,171L306,168L308,166L308,166L308,166Z " data-fips="ZA03" data-fips-="" data-iso3="ZMB" data-name="Eastern"/><path d="M223,216L224,216L236,221L239,220L247,223L248,224L253,224L254,224L260,221L265,218L270,216L277,215L280,216L285,216L289,216L291,216L289,208L287,205L286,199L286,199L286,195L282,191L282,190L281,190L272,192L268,194L267,198L263,198L261,198L253,200L250,203L244,204L236,208L230,207L223,207L223,208L226,209L227,210L224,214L223,216Z " data-fips="ZA02" data-fips-="ZA09" data-iso3="ZMB" data-name="Lusaka"/><path d="M74,167L76,168L81,166L91,173L93,173L93,172L96,171L100,173L103,174L106,176L106,178L118,173L122,173L126,174L127,173L134,172L136,172L138,171L140,173L142,173L145,175L154,180L151,186L152,190L153,190L165,189L166,189L167,188L168,188L182,189L187,191L187,190L193,184L197,185L201,184L202,176L200,174L201,173L202,168L200,165L199,165L198,165L198,161L200,158L203,154L202,153L205,149L205,146L200,142L199,137L205,133L204,128L210,129L214,126L218,126L217,125L214,117L209,114L208,109L203,110L201,117L198,119L194,119L190,119L188,117L177,117L173,114L170,115L166,113L163,114L163,112L158,108L159,99L154,100L150,101L143,102L136,106L135,105L134,96L129,95L128,95L127,91L123,91L124,93L124,97L125,102L126,104L123,111L124,115L124,117L124,126L125,128L122,140L122,142L125,146L73,148L74,167Z " data-fips="ZA06" data-fips-="" data-iso3="ZMB" data-name="North-Western"/><path d="M161,208L161,208L158,215L163,220L161,226L161,232L160,234L157,236L153,240L156,244L159,245L160,250L156,256L155,260L154,261L153,268L153,268L161,275L164,275L170,274L175,277L177,279L182,277L185,277L189,277L195,280L199,280L207,276L208,273L219,261L223,254L225,251L236,244L250,239L252,228L253,225L253,224L248,224L247,223L239,220L236,221L224,216L223,216L223,216L221,217L221,214L218,212L214,215L212,218L209,212L203,211L200,209L197,208L161,208Z " data-fips="ZA07" data-fips-="" data-iso3="ZMB" data-name="Southern"/><path d="M75,213L76,232L77,236L79,238L78,240L80,244L82,245L85,246L90,252L95,255L97,259L102,262L107,266L107,268L115,270L134,266L138,266L152,268L153,268L154,261L155,260L156,256L160,250L159,245L156,244L153,240L157,236L160,234L161,232L161,226L163,220L158,215L161,208L161,208L161,206L160,205L164,200L164,191L166,189L166,189L165,189L153,190L152,190L151,186L154,180L145,175L142,173L140,173L138,171L136,172L134,172L127,173L126,174L122,173L118,173L106,178L106,176L103,174L100,173L96,171L93,172L93,173L91,173L81,166L76,168L74,167L75,213Z " data-fips="ZA01" data-fips-="" data-iso3="ZMB" data-name="Western"/></g></svg>