<?xml version="1.0" encoding="UTF-8"?><!DOCTYPE svg  PUBLIC '-//W3C//DTD SVG 1.1//EN'  'http://www.w3.org/Graphics/SVG/1.1/DTD/svg11.dtd'><svg enable_background="new 0 0 450 301" height="301px" style="stroke-linejoin: round; stroke:#000; fill:#f6f3f0;" version="1.1" viewBox="0 0 450 301" width="450px" xmlns="http://www.w3.org/2000/svg" xmlns:xlink="http://www.w3.org/1999/xlink"><defs><style type="text/css"><![CDATA[path { fill-rule: evenodd; }
#context path { fill: #eee; stroke: #bbb; } ]]></style></defs><metadata><views><view h="301.0" padding="0.06" w="450"><proj id="laea" lat0="-16.6883608947" lon0="31.5962624144"/><bbox h="94.6" w="102.82" x="919.63" y="981.33"/><llbbox lat0="-90" lat1="90" lon0="-180" lon1="180"/></view></views></metadata><g id="context"><path d="M11,103L4,96L0,93L0,105L11,103Z " data-iso="AGO"/><path d="M236,274L234,273L231,270L226,269L223,264L224,259L205,253L193,251L185,248L180,239L174,233L174,231L175,220L174,210L173,209L166,208L159,209L158,199L155,194L136,186L120,174L117,173L108,155L108,150L103,144L101,139L93,131L91,127L86,119L81,113L81,108L81,106L80,106L68,107L64,109L55,117L48,114L40,118L35,122L25,133L20,134L19,131L15,125L9,118L0,118L0,299L190,299L195,294L201,290L217,286L221,282L223,278L227,275L236,274Z " data-iso="BWA"/><path d="M271,18L272,25L272,31L273,32L303,33L313,39L320,41L329,49L341,50L349,52L355,55L359,59L367,60L364,67L365,73L368,81L368,88L367,101L367,114L368,124L363,140L358,143L357,147L358,149L362,152L363,153L360,164L362,171L368,183L368,188L363,197L356,208L351,212L349,221L349,225L344,233L347,239L345,240L310,278L305,282L306,284L310,298L310,299L450,299L450,259L450,254L445,244L445,236L440,221L436,215L432,211L430,208L430,205L432,193L432,182L429,177L431,178L436,182L440,182L450,174L450,77L446,75L445,73L448,68L447,66L441,63L435,55L429,50L426,45L422,43L422,36L421,34L416,28L416,26L420,21L423,13L427,6L428,0L266,0L270,7L271,13L271,18Z " data-iso="MOZ"/><path d="M450,0L428,0L427,6L423,13L420,21L416,26L416,28L421,34L422,36L422,43L426,45L429,50L435,55L441,63L447,66L448,68L445,73L446,75L450,77L450,0Z " data-iso="MWI"/><path d="M81,106L75,100L69,97L61,96L44,95L19,101L11,103L0,105L0,118L9,118L15,125L19,131L20,134L25,133L35,122L40,118L48,114L55,117L64,109L68,107L80,106L81,106Z " data-iso="NAM"/><path d="M305,282L302,280L298,278L292,277L285,278L275,279L266,278L255,274L247,272L236,274L236,274L227,275L223,278L221,282L217,286L201,290L195,294L190,299L310,299L310,298L306,284L305,282Z " data-iso="ZAF"/><path d="M11,103L19,101L44,95L61,96L69,97L75,100L81,106L89,108L95,107L99,108L104,111L109,112L114,110L121,110L130,113L138,114L147,111L162,93L169,83L173,75L180,68L188,63L197,59L213,49L214,45L214,38L215,34L221,29L230,24L237,21L246,19L266,18L271,18L271,13L270,7L266,0L0,0L0,93L4,96L11,103Z " data-iso="ZMB"/><path d="M310,278L345,240L347,239L344,233L349,225L349,221L351,212L356,208L363,197L368,188L368,183L362,171L360,164L363,153L362,152L358,149L357,147L358,143L363,140L368,124L367,114L367,101L368,88L368,81L365,73L364,67L367,60L359,59L355,55L349,52L341,50L329,49L320,41L313,39L303,33L273,32L272,31L272,25L271,18L266,18L246,19L237,21L230,24L221,29L215,34L214,38L214,45L213,49L197,59L188,63L180,68L173,75L169,83L162,93L147,111L138,114L130,113L121,110L114,110L109,112L104,111L99,108L95,107L89,108L81,106L81,108L81,113L86,119L91,127L93,131L101,139L103,144L108,150L108,155L117,173L120,174L136,186L155,194L158,199L159,209L166,208L173,209L174,210L175,220L174,231L174,233L180,239L185,248L193,251L205,253L224,259L223,264L226,269L231,270L234,273L236,274L236,274L247,272L255,274L266,278L275,279L285,278L292,277L298,278L302,280L305,282L310,278Z " data-iso="ZWE"/></g><g fill="red" fill-opacity="0.35" id="regions"><path d="M268,18L269,23L259,32L260,34L261,38L262,39L260,41L259,47L263,47L265,43L268,43L269,45L272,45L273,47L271,56L276,66L277,71L284,74L284,78L280,85L281,93L286,93L288,97L293,98L294,99L294,100L295,100L298,99L298,97L298,94L300,89L306,90L305,94L305,96L308,96L314,91L317,89L321,84L322,79L328,72L328,71L332,67L333,64L335,63L343,62L348,60L358,61L359,60L359,60L357,56L342,50L340,49L332,50L327,48L327,47L320,40L314,40L308,37L304,33L298,32L296,33L289,32L272,32L270,19L269,19L268,18Z " data-fips="ZI03" data-fips-="" data-iso3="ZWE" data-name="Mashonaland Central" data-p="MC"/><path d="M291,109L297,112L299,111L303,104L302,100L298,97L298,97L298,99L295,100L294,100L294,99L293,101L291,102L291,105L291,108L290,108L291,109Z " data-fips="ZI10" data-fips-="ZI03" data-iso3="ZWE" data-name="Harare" data-p="HA"/><path d="M177,70L176,71L169,80L168,85L161,92L152,103L150,107L146,111L142,112L135,115L132,114L124,110L118,109L113,110L108,113L104,112L104,110L101,108L96,106L90,108L83,107L81,106L80,110L84,118L85,118L91,129L100,137L101,139L102,142L103,145L108,149L109,153L108,156L110,158L116,172L120,174L123,175L122,177L126,180L131,182L136,186L136,186L138,185L146,183L159,182L165,184L178,196L182,197L185,194L187,193L191,194L197,202L202,198L203,198L204,197L199,196L201,190L206,191L206,192L210,194L209,198L207,198L209,200L210,200L215,191L220,188L221,186L220,182L225,180L223,175L226,172L224,170L229,169L229,169L225,164L225,161L221,156L221,155L219,151L216,140L219,138L225,135L224,133L211,133L207,133L202,134L192,134L186,133L184,131L184,120L185,117L185,114L183,112L185,110L186,105L186,102L188,101L190,99L192,90L192,88L191,86L189,85L188,78L184,76L185,73L184,72L183,67L177,70Z " data-fips="ZI06" data-fips-="" data-iso3="ZWE" data-name="Matabeleland North" data-p="MN"/><path d="M270,143L265,140L256,138L253,138L250,136L246,135L241,132L242,126L241,124L232,119L228,113L228,110L232,99L232,95L235,91L233,90L229,84L227,84L219,80L217,77L207,81L202,87L199,87L193,88L192,88L192,90L190,99L188,101L186,102L186,105L185,110L183,112L185,114L185,117L184,120L184,131L186,133L192,134L202,134L207,133L211,133L224,133L225,135L219,138L216,140L219,151L221,155L221,156L225,161L225,164L229,169L231,170L236,178L237,184L240,184L244,186L247,185L251,188L253,191L251,196L251,198L249,204L248,208L245,208L247,214L245,223L239,228L243,229L248,228L248,228L250,229L252,228L256,225L258,224L265,229L270,229L274,224L276,216L275,210L273,206L268,202L266,196L265,196L265,190L273,188L275,183L278,182L282,183L284,174L284,164L289,160L288,159L284,154L285,154L283,149L278,147L273,144L271,144L270,143Z " data-fips="ZI02" data-fips-="" data-iso3="ZWE" data-name="Midlands" data-p="MI"/><path d="M359,60L358,61L348,60L343,62L335,63L333,64L332,67L328,71L328,72L322,79L321,84L317,89L314,91L308,96L305,96L305,94L306,90L300,89L298,94L298,97L298,97L302,100L303,104L299,111L297,112L291,109L290,108L290,108L286,111L284,119L283,121L287,125L283,135L282,138L280,139L274,137L272,143L271,144L273,144L278,147L283,149L285,154L284,154L288,159L289,160L291,158L291,157L293,155L295,155L296,159L302,159L305,158L306,154L311,153L314,155L317,151L316,150L323,151L328,154L331,154L330,147L327,140L325,138L323,135L322,130L323,128L325,127L326,121L328,117L337,108L337,105L345,98L348,98L350,96L354,95L356,91L358,90L359,89L363,84L368,82L368,81L366,76L363,69L366,64L368,60L360,59L359,60Z " data-fips="ZI04" data-fips-="" data-iso3="ZWE" data-name="Mashonaland East" data-p="ME"/><path d="M368,82L363,84L359,89L358,90L356,91L354,95L350,96L348,98L345,98L337,105L337,108L328,117L326,121L325,127L323,128L322,130L323,135L325,138L327,140L330,147L331,154L328,154L323,151L316,150L317,151L314,155L311,153L306,154L305,158L302,159L302,159L311,165L320,168L323,173L325,174L330,181L344,189L344,193L342,204L342,209L340,214L337,222L337,225L338,229L341,232L342,235L347,239L347,239L344,233L347,227L349,223L350,210L353,210L356,209L358,204L363,197L363,196L369,183L369,179L364,176L362,176L362,169L360,168L360,163L361,162L363,154L360,150L357,149L357,143L361,141L365,140L366,137L364,132L364,131L368,129L370,123L367,120L366,106L369,102L369,96L367,93L369,87L368,82L368,82Z " data-fips="ZI01" data-fips-="" data-iso3="ZWE" data-name="Manicaland" data-p="MA"/><path d="M229,169L224,170L226,172L223,175L225,180L220,182L221,186L220,188L215,191L210,200L209,200L207,198L206,198L204,199L204,199L203,198L202,198L197,202L191,194L187,193L185,194L182,197L178,196L165,184L159,182L146,183L138,185L136,186L136,186L145,190L155,193L156,194L158,199L159,204L158,209L165,208L170,208L174,209L175,218L173,232L178,236L186,250L199,252L202,254L206,253L217,257L224,259L225,260L223,264L224,268L226,269L233,272L235,274L239,273L241,273L250,272L253,273L259,275L260,276L267,278L272,280L277,278L281,279L289,277L298,279L298,279L293,272L291,269L290,269L282,257L271,251L267,250L267,249L260,244L254,238L252,234L249,230L248,228L248,228L243,229L239,228L245,223L247,214L245,208L248,208L249,204L251,198L251,196L253,191L251,188L247,185L244,186L240,184L237,184L236,178L231,170L229,169L229,169Z " data-fips="ZI07" data-fips-="" data-iso3="ZWE" data-name="Matabeleland South" data-p="MS"/><path d="M209,198L210,194L206,192L206,191L201,190L199,196L204,197L203,198L204,199L204,199L206,198L207,198L209,198Z " data-fips="ZI09" data-fips-="ZI07" data-iso3="ZWE" data-name="Bulawayo" data-p="BU"/><path d="M302,159L302,159L311,165L320,168L323,173L325,174L330,181L344,189L344,193L342,204L342,209L340,214L337,222L337,225L338,229L341,232L342,235L347,239L347,239L346,239L311,278L305,282L299,279L298,279L293,272L291,269L290,269L282,257L271,251L267,250L267,249L260,244L254,238L252,234L249,230L248,228L250,229L252,228L256,225L258,224L265,229L270,229L274,224L276,216L275,210L273,206L268,202L266,196L265,196L265,190L273,188L275,183L278,182L282,183L284,174L284,164L289,160L291,158L291,157L293,155L295,155L296,159L302,159Z " data-fips="ZI08" data-fips-="" data-iso3="ZWE" data-name="Masvingo" data-p="MV"/><path d="M183,67L184,72L185,73L184,76L188,78L189,85L191,86L192,88L193,88L199,87L202,87L207,81L217,77L219,80L227,84L229,84L233,90L235,91L232,95L232,99L228,110L228,113L232,119L241,124L242,126L241,132L246,135L250,136L253,138L256,138L265,140L270,143L271,144L272,143L274,137L280,139L282,138L283,135L287,125L283,121L284,119L286,111L290,108L290,108L291,108L291,105L291,102L293,101L294,99L293,98L288,97L286,93L281,93L280,85L284,78L284,74L277,71L276,66L271,56L273,47L272,45L269,45L268,43L265,43L263,47L259,47L260,41L262,39L261,38L260,34L259,32L269,23L268,18L267,18L252,18L241,19L234,21L226,25L223,28L221,30L217,31L215,33L214,41L214,42L213,49L212,52L206,55L193,61L187,66L183,67Z " data-fips="ZI05" data-fips-="" data-iso3="ZWE" data-name="Mashonaland West" data-p="MW"/></g></svg>