<?xml version="1.0" standalone="no"?>
<!DOCTYPE svg PUBLIC "-//W3C//DTD SVG 20010904//EN"
        "http://www.w3.org/TR/2001/REC-SVG-20010904/DTD/svg10.dtd">
<svg version="1.0" xmlns="http://www.w3.org/2000/svg"
     width="1024.000000pt" height="1024.000000pt" viewBox="0 0 1024.000000 1024.000000"
     preserveAspectRatio="xMidYMid meet">
    <g transform="translate(0.000000,1024.000000) scale(0.100000,-0.100000)"
       fill="#000000" stroke="none">
        <path d="M3330 7654 c-120 -17 -316 -79 -408 -129 -171 -95 -340 -237 -441
-373 -43 -58 -385 -589 -1188 -1842 -118 -184 -276 -429 -350 -545 -239 -371
-304 -536 -319 -815 -21 -375 110 -717 380 -986 159 -159 305 -251 511 -320
456 -152 980 -29 1320 312 378 380 487 922 286 1424 -28 69 -25 66 96 -105
570 -802 836 -1172 886 -1233 188 -231 486 -400 789 -448 186 -30 439 -10 613
48 104 34 277 125 366 193 175 131 235 208 549 698 156 245 285 445 286 444 1
-1 126 -193 279 -427 315 -484 326 -500 438 -607 183 -175 384 -282 642 -340
114 -25 396 -25 515 1 376 82 680 304 873 638 210 365 222 829 30 1213 -25 49
-272 434 -548 855 -276 421 -540 824 -587 895 -553 847 -607 928 -674 1009
-145 175 -390 334 -619 401 -256 75 -510 71 -770 -12 -179 -57 -351 -161 -493
-298 -188 -181 -306 -383 -370 -634 -25 -99 -27 -120 -26 -311 0 -189 2 -213
27 -302 14 -54 41 -136 60 -183 19 -47 33 -85 32 -83 -2 2 -102 143 -222 313
-121 171 -313 443 -428 605 -115 162 -238 338 -274 390 -154 222 -391 404
-639 494 -180 64 -426 88 -622 60z"/>
    </g>
</svg>
